<?xml version="1.0" encoding="UTF-8" standalone="no"?>
<!DOCTYPE svg PUBLIC "-//W3C//DTD SVG 1.1//EN"
 "http://www.w3.org/Graphics/SVG/1.1/DTD/svg11.dtd">
<!-- Generated by graphviz version 2.38.0 (20140413.2041)
 -->
<!-- Title: src/drivers/imu/mpu9250/gyro.h Pages: 1 -->
<svg width="984pt" height="173pt"
 viewBox="0.00 0.00 984.00 173.00" xmlns="http://www.w3.org/2000/svg" xmlns:xlink="http://www.w3.org/1999/xlink">
<g id="graph0" class="graph" transform="scale(1 1) rotate(0) translate(4 169)">
<title>src/drivers/imu/mpu9250/gyro.h</title>
<polygon fill="white" stroke="none" points="-4,4 -4,-169 980,-169 980,4 -4,4"/>
<!-- Node1 -->
<g id="node1" class="node"><title>Node1</title>
<polygon fill="#bfbfbf" stroke="black" points="426,-134.5 426,-164.5 550,-164.5 550,-134.5 426,-134.5"/>
<text text-anchor="start" x="434" y="-152.5" font-family="Helvetica,sans-Serif" font-size="10.00">src/drivers/imu/mpu9250</text>
<text text-anchor="middle" x="488" y="-141.5" font-family="Helvetica,sans-Serif" font-size="10.00">/gyro.h</text>
</g>
<!-- Node2 -->
<g id="node2" class="node"><title>Node2</title>
<g id="a_node2"><a xlink:href="../../d4/deb/drivers_2imu_2mpu9250_2gyro_8cpp.html" target="_top" xlink:title="src/drivers/imu/mpu9250\l/gyro.cpp">
<polygon fill="white" stroke="black" points="0,-0.5 0,-30.5 124,-30.5 124,-0.5 0,-0.5"/>
<text text-anchor="start" x="8" y="-18.5" font-family="Helvetica,sans-Serif" font-size="10.00">src/drivers/imu/mpu9250</text>
<text text-anchor="middle" x="62" y="-7.5" font-family="Helvetica,sans-Serif" font-size="10.00">/gyro.cpp</text>
</a>
</g>
</g>
<!-- Node1&#45;&gt;Node2 -->
<g id="edge1" class="edge"><title>Node1&#45;&gt;Node2</title>
<path fill="none" stroke="midnightblue" d="M433.086,-131.484C348.065,-105.14 186.173,-54.9761 107.364,-30.5565"/>
<polygon fill="midnightblue" stroke="midnightblue" points="432.226,-134.882 442.814,-134.499 434.298,-128.196 432.226,-134.882"/>
</g>
<!-- Node3 -->
<g id="node3" class="node"><title>Node3</title>
<g id="a_node3"><a xlink:href="../../db/d35/mpu9250_8h.html" target="_top" xlink:title="src/drivers/imu/mpu9250\l/mpu9250.h">
<polygon fill="white" stroke="black" points="426,-67.5 426,-97.5 550,-97.5 550,-67.5 426,-67.5"/>
<text text-anchor="start" x="434" y="-85.5" font-family="Helvetica,sans-Serif" font-size="10.00">src/drivers/imu/mpu9250</text>
<text text-anchor="middle" x="488" y="-74.5" font-family="Helvetica,sans-Serif" font-size="10.00">/mpu9250.h</text>
</a>
</g>
</g>
<!-- Node1&#45;&gt;Node3 -->
<g id="edge2" class="edge"><title>Node1&#45;&gt;Node3</title>
<path fill="none" stroke="midnightblue" d="M488,-124.108C488,-115.154 488,-105.323 488,-97.5765"/>
<polygon fill="midnightblue" stroke="midnightblue" points="484.5,-124.396 488,-134.396 491.5,-124.396 484.5,-124.396"/>
</g>
<!-- Node7 -->
<g id="node7" class="node"><title>Node7</title>
<g id="a_node7"><a xlink:href="../../d8/d71/mpu9250_8cpp.html" target="_top" xlink:title="Driver for the Invensense MPU9250 connected via I2C or SPI. ">
<polygon fill="white" stroke="black" points="852,-0.5 852,-30.5 976,-30.5 976,-0.5 852,-0.5"/>
<text text-anchor="start" x="860" y="-18.5" font-family="Helvetica,sans-Serif" font-size="10.00">src/drivers/imu/mpu9250</text>
<text text-anchor="middle" x="914" y="-7.5" font-family="Helvetica,sans-Serif" font-size="10.00">/mpu9250.cpp</text>
</a>
</g>
</g>
<!-- Node1&#45;&gt;Node7 -->
<g id="edge10" class="edge"><title>Node1&#45;&gt;Node7</title>
<path fill="none" stroke="midnightblue" d="M542.914,-131.484C627.935,-105.14 789.827,-54.9761 868.636,-30.5565"/>
<polygon fill="midnightblue" stroke="midnightblue" points="541.702,-128.196 533.186,-134.499 543.774,-134.882 541.702,-128.196"/>
</g>
<!-- Node3&#45;&gt;Node2 -->
<g id="edge3" class="edge"><title>Node3&#45;&gt;Node2</title>
<path fill="none" stroke="midnightblue" d="M415.639,-72.5025C343.76,-63.2602 230.491,-47.8735 133,-31 130.149,-30.5065 127.237,-29.9847 124.298,-29.4435"/>
<polygon fill="midnightblue" stroke="midnightblue" points="415.574,-76.0226 425.937,-73.821 416.463,-69.0793 415.574,-76.0226"/>
</g>
<!-- Node4 -->
<g id="node4" class="node"><title>Node4</title>
<g id="a_node4"><a xlink:href="../../d1/dc0/drivers_2imu_2mpu9250_2mag_8cpp.html" target="_top" xlink:title="src/drivers/imu/mpu9250\l/mag.cpp">
<polygon fill="white" stroke="black" points="142,-0.5 142,-30.5 266,-30.5 266,-0.5 142,-0.5"/>
<text text-anchor="start" x="150" y="-18.5" font-family="Helvetica,sans-Serif" font-size="10.00">src/drivers/imu/mpu9250</text>
<text text-anchor="middle" x="204" y="-7.5" font-family="Helvetica,sans-Serif" font-size="10.00">/mag.cpp</text>
</a>
</g>
</g>
<!-- Node3&#45;&gt;Node4 -->
<g id="edge4" class="edge"><title>Node3&#45;&gt;Node4</title>
<path fill="none" stroke="midnightblue" d="M416.719,-65.1856C370.207,-54.5403 310.103,-40.7841 265.654,-30.6109"/>
<polygon fill="midnightblue" stroke="midnightblue" points="416.197,-68.6567 426.726,-67.476 417.759,-61.8331 416.197,-68.6567"/>
</g>
<!-- Node5 -->
<g id="node5" class="node"><title>Node5</title>
<g id="a_node5"><a xlink:href="../../df/d74/mag__i2c_8cpp.html" target="_top" xlink:title="I2C interface for AK8963. ">
<polygon fill="white" stroke="black" points="284,-0.5 284,-30.5 408,-30.5 408,-0.5 284,-0.5"/>
<text text-anchor="start" x="292" y="-18.5" font-family="Helvetica,sans-Serif" font-size="10.00">src/drivers/imu/mpu9250</text>
<text text-anchor="middle" x="346" y="-7.5" font-family="Helvetica,sans-Serif" font-size="10.00">/mag_i2c.cpp</text>
</a>
</g>
</g>
<!-- Node3&#45;&gt;Node5 -->
<g id="edge5" class="edge"><title>Node3&#45;&gt;Node5</title>
<path fill="none" stroke="midnightblue" d="M447.87,-63.1305C425.307,-52.8025 397.579,-40.1103 376.752,-30.5765"/>
<polygon fill="midnightblue" stroke="midnightblue" points="446.639,-66.4162 457.188,-67.396 449.552,-60.0513 446.639,-66.4162"/>
</g>
<!-- Node6 -->
<g id="node6" class="node"><title>Node6</title>
<g id="a_node6"><a xlink:href="../../d3/d14/imu_2mpu9250_2main_8cpp.html" target="_top" xlink:title="src/drivers/imu/mpu9250\l/main.cpp">
<polygon fill="white" stroke="black" points="426,-0.5 426,-30.5 550,-30.5 550,-0.5 426,-0.5"/>
<text text-anchor="start" x="434" y="-18.5" font-family="Helvetica,sans-Serif" font-size="10.00">src/drivers/imu/mpu9250</text>
<text text-anchor="middle" x="488" y="-7.5" font-family="Helvetica,sans-Serif" font-size="10.00">/main.cpp</text>
</a>
</g>
</g>
<!-- Node3&#45;&gt;Node6 -->
<g id="edge6" class="edge"><title>Node3&#45;&gt;Node6</title>
<path fill="none" stroke="midnightblue" d="M488,-57.1081C488,-48.1539 488,-38.3227 488,-30.5765"/>
<polygon fill="midnightblue" stroke="midnightblue" points="484.5,-57.3959 488,-67.396 491.5,-57.396 484.5,-57.3959"/>
</g>
<!-- Node3&#45;&gt;Node7 -->
<g id="edge7" class="edge"><title>Node3&#45;&gt;Node7</title>
<path fill="none" stroke="midnightblue" d="M560.361,-72.5025C632.24,-63.2602 745.509,-47.8735 843,-31 845.851,-30.5065 848.763,-29.9847 851.702,-29.4435"/>
<polygon fill="midnightblue" stroke="midnightblue" points="559.537,-69.0793 550.063,-73.821 560.426,-76.0226 559.537,-69.0793"/>
</g>
<!-- Node8 -->
<g id="node8" class="node"><title>Node8</title>
<g id="a_node8"><a xlink:href="../../dc/df6/mpu9250__i2c_8cpp.html" target="_top" xlink:title="I2C interface for MPU9250. ">
<polygon fill="white" stroke="black" points="568,-0.5 568,-30.5 692,-30.5 692,-0.5 568,-0.5"/>
<text text-anchor="start" x="576" y="-18.5" font-family="Helvetica,sans-Serif" font-size="10.00">src/drivers/imu/mpu9250</text>
<text text-anchor="middle" x="630" y="-7.5" font-family="Helvetica,sans-Serif" font-size="10.00">/mpu9250_i2c.cpp</text>
</a>
</g>
</g>
<!-- Node3&#45;&gt;Node8 -->
<g id="edge8" class="edge"><title>Node3&#45;&gt;Node8</title>
<path fill="none" stroke="midnightblue" d="M528.13,-63.1305C550.693,-52.8025 578.421,-40.1103 599.248,-30.5765"/>
<polygon fill="midnightblue" stroke="midnightblue" points="526.448,-60.0513 518.812,-67.396 529.361,-66.4162 526.448,-60.0513"/>
</g>
<!-- Node9 -->
<g id="node9" class="node"><title>Node9</title>
<g id="a_node9"><a xlink:href="../../d0/d15/mpu9250__spi_8cpp.html" target="_top" xlink:title="Driver for the Invensense MPU9250 connected via SPI. ">
<polygon fill="white" stroke="black" points="710,-0.5 710,-30.5 834,-30.5 834,-0.5 710,-0.5"/>
<text text-anchor="start" x="718" y="-18.5" font-family="Helvetica,sans-Serif" font-size="10.00">src/drivers/imu/mpu9250</text>
<text text-anchor="middle" x="772" y="-7.5" font-family="Helvetica,sans-Serif" font-size="10.00">/mpu9250_spi.cpp</text>
</a>
</g>
</g>
<!-- Node3&#45;&gt;Node9 -->
<g id="edge9" class="edge"><title>Node3&#45;&gt;Node9</title>
<path fill="none" stroke="midnightblue" d="M559.281,-65.1856C605.793,-54.5403 665.897,-40.7841 710.346,-30.6109"/>
<polygon fill="midnightblue" stroke="midnightblue" points="558.241,-61.8331 549.274,-67.476 559.803,-68.6567 558.241,-61.8331"/>
</g>
</g>
</svg>
