<?xml version="1.0" encoding="UTF-8" standalone="no"?>
<!DOCTYPE svg PUBLIC "-//W3C//DTD SVG 1.1//EN"
 "http://www.w3.org/Graphics/SVG/1.1/DTD/svg11.dtd">
<!-- Generated by graphviz version 2.40.1 (20161225.0304)
 -->
<!-- Title: ICM20948_SPI::set_bus_frequency Pages: 1 -->
<svg width="427pt" height="66pt"
 viewBox="0.00 0.00 427.00 66.00" xmlns="http://www.w3.org/2000/svg" xmlns:xlink="http://www.w3.org/1999/xlink">
<g id="graph0" class="graph" transform="scale(1 1) rotate(0) translate(4 62)">
<title>ICM20948_SPI::set_bus_frequency</title>
<polygon fill="#ffffff" stroke="transparent" points="-4,4 -4,-62 423,-62 423,4 -4,4"/>
<!-- Node13 -->
<g id="node1" class="node">
<title>Node13</title>
<polygon fill="#bfbfbf" stroke="#000000" points="0,-14 0,-44 124,-44 124,-14 0,-14"/>
<text text-anchor="start" x="8" y="-32" font-family="Helvetica,sans-Serif" font-size="10.00" fill="#000000">ICM20948_SPI::set_bus</text>
<text text-anchor="middle" x="62" y="-21" font-family="Helvetica,sans-Serif" font-size="10.00" fill="#000000">_frequency</text>
</g>
<!-- Node14 -->
<g id="node2" class="node">
<title>Node14</title>
<g id="a_node2"><a xlink:href="../../d3/dd5/class_i_c_m20948___s_p_i.html#adbef27851bdb4d0a4f1a1e0d2d4f362c" target="_top" xlink:title="ICM20948_SPI::read">
<polygon fill="#ffffff" stroke="#000000" points="161,-38.5 161,-57.5 269,-57.5 269,-38.5 161,-38.5"/>
<text text-anchor="middle" x="215" y="-45.5" font-family="Helvetica,sans-Serif" font-size="10.00" fill="#000000">ICM20948_SPI::read</text>
</a>
</g>
</g>
<!-- Node13&#45;&gt;Node14 -->
<g id="edge1" class="edge">
<title>Node13&#45;&gt;Node14</title>
<path fill="none" stroke="#191970" d="M134.224,-37.969C143.127,-39.0746 152.1074,-40.1898 160.681,-41.2545"/>
<polygon fill="#191970" stroke="#191970" points="134.5861,-34.4872 124.231,-36.728 133.7234,-41.4338 134.5861,-34.4872"/>
</g>
<!-- Node16 -->
<g id="node4" class="node">
<title>Node16</title>
<g id="a_node4"><a xlink:href="../../d3/dd5/class_i_c_m20948___s_p_i.html#ab47b5d0186d757ae9eb6595e6bcbcb4c" target="_top" xlink:title="ICM20948_SPI::write">
<polygon fill="#ffffff" stroke="#000000" points="160,-.5 160,-19.5 270,-19.5 270,-.5 160,-.5"/>
<text text-anchor="middle" x="215" y="-7.5" font-family="Helvetica,sans-Serif" font-size="10.00" fill="#000000">ICM20948_SPI::write</text>
</a>
</g>
</g>
<!-- Node13&#45;&gt;Node16 -->
<g id="edge3" class="edge">
<title>Node13&#45;&gt;Node16</title>
<path fill="none" stroke="#191970" d="M134.2279,-20.0305C142.7939,-18.9668 151.4315,-17.8941 159.7094,-16.8662"/>
<polygon fill="#191970" stroke="#191970" points="133.7234,-16.5662 124.231,-21.272 134.5861,-23.5128 133.7234,-16.5662"/>
</g>
<!-- Node15 -->
<g id="node3" class="node">
<title>Node15</title>
<g id="a_node3"><a xlink:href="../../d3/dd5/class_i_c_m20948___s_p_i.html#ab4ee4c9a106d96c1b8a35673d54579dd" target="_top" xlink:title="ICM20948_SPI::probe">
<polygon fill="#ffffff" stroke="#000000" points="306,-38.5 306,-57.5 419,-57.5 419,-38.5 306,-38.5"/>
<text text-anchor="middle" x="362.5" y="-45.5" font-family="Helvetica,sans-Serif" font-size="10.00" fill="#000000">ICM20948_SPI::probe</text>
</a>
</g>
</g>
<!-- Node14&#45;&gt;Node15 -->
<g id="edge2" class="edge">
<title>Node14&#45;&gt;Node15</title>
<path fill="none" stroke="#191970" d="M279.3611,-48C288.2124,-48 297.247,-48 305.9439,-48"/>
<polygon fill="#191970" stroke="#191970" points="279.086,-44.5001 269.086,-48 279.086,-51.5001 279.086,-44.5001"/>
</g>
</g>
</svg>
