<?xml version="1.0" encoding="UTF-8" standalone="no"?>
<!DOCTYPE svg PUBLIC "-//W3C//DTD SVG 1.1//EN"
 "http://www.w3.org/Graphics/SVG/1.1/DTD/svg11.dtd">
<!-- Generated by graphviz version 2.40.1 (20161225.0304)
 -->
<!-- Title: ObstacleAvoidance::_publishVehicleCmdDoLoiter Pages: 1 -->
<svg width="403pt" height="39pt"
 viewBox="0.00 0.00 403.00 39.00" xmlns="http://www.w3.org/2000/svg" xmlns:xlink="http://www.w3.org/1999/xlink">
<g id="graph0" class="graph" transform="scale(1 1) rotate(0) translate(4 35)">
<title>ObstacleAvoidance::_publishVehicleCmdDoLoiter</title>
<polygon fill="#ffffff" stroke="transparent" points="-4,4 -4,-35 399,-35 399,4 -4,4"/>
<!-- Node9 -->
<g id="node1" class="node">
<title>Node9</title>
<polygon fill="#bfbfbf" stroke="#000000" points="0,-.5 0,-30.5 143,-30.5 143,-.5 0,-.5"/>
<text text-anchor="start" x="8" y="-18.5" font-family="Helvetica,sans-Serif" font-size="10.00" fill="#000000">ObstacleAvoidance::</text>
<text text-anchor="middle" x="71.5" y="-7.5" font-family="Helvetica,sans-Serif" font-size="10.00" fill="#000000">_publishVehicleCmdDoLoiter</text>
</g>
<!-- Node10 -->
<g id="node2" class="node">
<title>Node10</title>
<g id="a_node2"><a xlink:href="../../d2/da2/class_obstacle_avoidance.html#a6534d510a7244924fea4f14ac877ca08" target="_top" xlink:title="Inject setpoints from obstacle avoidance system into FlightTasks. ">
<polygon fill="#ffffff" stroke="#000000" points="179,-.5 179,-30.5 306,-30.5 306,-.5 179,-.5"/>
<text text-anchor="start" x="187" y="-18.5" font-family="Helvetica,sans-Serif" font-size="10.00" fill="#000000">ObstacleAvoidance::</text>
<text text-anchor="middle" x="242.5" y="-7.5" font-family="Helvetica,sans-Serif" font-size="10.00" fill="#000000">injectAvoidanceSetpoints</text>
</a>
</g>
</g>
<!-- Node9&#45;&gt;Node10 -->
<g id="edge1" class="edge">
<title>Node9&#45;&gt;Node10</title>
<path fill="none" stroke="#191970" d="M153.134,-15.5C161.7811,-15.5 170.4811,-15.5 178.8791,-15.5"/>
<polygon fill="#191970" stroke="#191970" points="153.0286,-12.0001 143.0286,-15.5 153.0286,-19.0001 153.0286,-12.0001"/>
</g>
<!-- Node11 -->
<g id="node3" class="node">
<title>Node11</title>
<g id="a_node3"><a xlink:href="../../df/dfc/_obstacle_avoidance_test_8cpp.html#ae520d9fc867a0c428737a6b6660a6b7e" target="_top" xlink:title="TEST_F">
<polygon fill="#ffffff" stroke="#000000" points="342,-6 342,-25 395,-25 395,-6 342,-6"/>
<text text-anchor="middle" x="368.5" y="-13" font-family="Helvetica,sans-Serif" font-size="10.00" fill="#000000">TEST_F</text>
</a>
</g>
</g>
<!-- Node10&#45;&gt;Node11 -->
<g id="edge2" class="edge">
<title>Node10&#45;&gt;Node11</title>
<path fill="none" stroke="#191970" d="M316.5031,-15.5C325.5145,-15.5 334.216,-15.5 341.8388,-15.5"/>
<polygon fill="#191970" stroke="#191970" points="316.2383,-12.0001 306.2383,-15.5 316.2382,-19.0001 316.2383,-12.0001"/>
</g>
</g>
</svg>
