<?xml version="1.0" encoding="UTF-8" standalone="no"?>
<!DOCTYPE svg PUBLIC "-//W3C//DTD SVG 1.1//EN"
 "http://www.w3.org/Graphics/SVG/1.1/DTD/svg11.dtd">
<!-- Generated by graphviz version 2.38.0 (20140413.2041)
 -->
<!-- Title: px4::logger::LogWriterMavlink::need_reliable_transfer Pages: 1 -->
<!--zoomable 132 -->
<svg id="main" version="1.1" xmlns="http://www.w3.org/2000/svg" xmlns:xlink="http://www.w3.org/1999/xlink" xml:space="preserve" onload="init(evt)">
<style type="text/css"><![CDATA[
.edge:hover path { stroke: red; }
.edge:hover polygon { stroke: red; fill: red; }
]]></style>
<script type="text/javascript"><![CDATA[
var edges = document.getElementsByTagName('g');
if (edges && edges.length) {
  for (var i=0;i<edges.length;i++) {
    if (edges[i].id.substr(0,4)=='edge') {
      edges[i].setAttribute('class','edge');
    }
  }
}
]]></script>
        <defs>
                <circle id="rim" cx="0" cy="0" r="7"/>
                <circle id="rim2" cx="0" cy="0" r="3.5"/>
                <g id="zoomPlus">
                        <use xlink:href="#rim" fill="#404040">
                                <set attributeName="fill" to="#808080" begin="zoomplus.mouseover" end="zoomplus.mouseout"/>
                        </use>
                        <path d="M-4,0h8M0,-4v8" fill="none" stroke="white" stroke-width="1.5" pointer-events="none"/>
                </g>
                <g id="zoomMin">
                        <use xlink:href="#rim" fill="#404040">
                                <set attributeName="fill" to="#808080" begin="zoomminus.mouseover" end="zoomminus.mouseout"/>
                        </use>
                        <path d="M-4,0h8" fill="none" stroke="white" stroke-width="1.5" pointer-events="none"/>
                </g>
                <g id="dirArrow">
                        <path fill="none" stroke="white" stroke-width="1.5" d="M0,-3.0v7 M-2.5,-0.5L0,-3.0L2.5,-0.5"/>
                </g>
               <g id="resetDef">
                       <use xlink:href="#rim2" fill="#404040">
                               <set attributeName="fill" to="#808080" begin="reset.mouseover" end="reset.mouseout"/>
                       </use>
               </g>
        </defs>

<script type="text/javascript">
var viewWidth = 930;
var viewHeight = 132;
var sectionId = 'dynsection-6';
</script>
<script xlink:href="../../svgpan.js"/>
<svg id="graph" class="graph">
<g id="viewport">
<title>px4::logger::LogWriterMavlink::need_reliable_transfer</title>
<polygon fill="white" stroke="none" points="-4,4 -4,-128 926,-128 926,4 -4,4"/>
<!-- Node1 -->
<g id="node1" class="node"><title>Node1</title>
<polygon fill="#bfbfbf" stroke="black" points="0,-68.5 0,-98.5 146,-98.5 146,-68.5 0,-68.5"/>
<text text-anchor="start" x="8" y="-86.5" font-family="Helvetica,sans-Serif" font-size="10.00">px4::logger::LogWriterMavlink</text>
<text text-anchor="middle" x="73" y="-75.5" font-family="Helvetica,sans-Serif" font-size="10.00">::need_reliable_transfer</text>
</g>
<!-- Node2 -->
<g id="node2" class="node"><title>Node2</title>
<g id="a_node2"><a xlink:href="../../d8/d19/classpx4_1_1logger_1_1_log_writer.html#a3f8d2e2c0ecec7ecb25afb6a25d889d0" target="_top" xlink:title="px4::logger::LogWriter\l::need_reliable_transfer">
<polygon fill="white" stroke="black" points="182,-68.5 182,-98.5 300,-98.5 300,-68.5 182,-68.5"/>
<text text-anchor="start" x="190" y="-86.5" font-family="Helvetica,sans-Serif" font-size="10.00">px4::logger::LogWriter</text>
<text text-anchor="middle" x="241" y="-75.5" font-family="Helvetica,sans-Serif" font-size="10.00">::need_reliable_transfer</text>
</a>
</g>
</g>
<!-- Node1&#45;&gt;Node2 -->
<g id="edge1" class="edge"><title>Node1&#45;&gt;Node2</title>
<path fill="none" stroke="midnightblue" d="M156.401,-83.5C165.005,-83.5 173.617,-83.5 181.868,-83.5"/>
<polygon fill="midnightblue" stroke="midnightblue" points="156.327,-80.0001 146.327,-83.5 156.327,-87.0001 156.327,-80.0001"/>
</g>
<!-- Node3 -->
<g id="node3" class="node"><title>Node3</title>
<g id="a_node3"><a xlink:href="../../d1/d23/classpx4_1_1logger_1_1_logger.html#aa40b58ace4c34d57e28bbe5eb18c134e" target="_top" xlink:title="Write an ADD_LOGGED_MSG to the log for a given subscription and instance. ">
<polygon fill="white" stroke="black" points="336,-68.5 336,-98.5 458,-98.5 458,-68.5 336,-68.5"/>
<text text-anchor="start" x="344" y="-86.5" font-family="Helvetica,sans-Serif" font-size="10.00">px4::logger::Logger</text>
<text text-anchor="middle" x="397" y="-75.5" font-family="Helvetica,sans-Serif" font-size="10.00">::write_add_logged_msg</text>
</a>
</g>
</g>
<!-- Node2&#45;&gt;Node3 -->
<g id="edge2" class="edge"><title>Node2&#45;&gt;Node3</title>
<path fill="none" stroke="midnightblue" d="M310.466,-83.5C318.944,-83.5 327.563,-83.5 335.903,-83.5"/>
<polygon fill="midnightblue" stroke="midnightblue" points="310.221,-80.0001 300.221,-83.5 310.221,-87.0001 310.221,-80.0001"/>
</g>
<!-- Node4 -->
<g id="node4" class="node"><title>Node4</title>
<g id="a_node4"><a xlink:href="../../d1/d23/classpx4_1_1logger_1_1_logger.html#a55a07bd6f5959c9b8bdeeb7d63e4817a" target="_top" xlink:title="px4::logger::Logger\l::copy_if_updated_multi">
<polygon fill="white" stroke="black" points="502.5,-93.5 502.5,-123.5 622.5,-123.5 622.5,-93.5 502.5,-93.5"/>
<text text-anchor="start" x="510.5" y="-111.5" font-family="Helvetica,sans-Serif" font-size="10.00">px4::logger::Logger</text>
<text text-anchor="middle" x="562.5" y="-100.5" font-family="Helvetica,sans-Serif" font-size="10.00">::copy_if_updated_multi</text>
</a>
</g>
</g>
<!-- Node3&#45;&gt;Node4 -->
<g id="edge3" class="edge"><title>Node3&#45;&gt;Node4</title>
<path fill="none" stroke="midnightblue" d="M468.309,-94.2506C479.679,-95.9892 491.351,-97.7738 502.42,-99.4664"/>
<polygon fill="midnightblue" stroke="midnightblue" points="468.831,-90.7898 458.417,-92.738 467.773,-97.7094 468.831,-90.7898"/>
</g>
<!-- Node6 -->
<g id="node6" class="node"><title>Node6</title>
<g id="a_node6"><a xlink:href="../../d1/d23/classpx4_1_1logger_1_1_logger.html#a5c827b9922d8f6587745fc990fe7855a" target="_top" xlink:title="Write an ADD_LOGGED_MSG to the log for a all current subscriptions and instances. ...">
<polygon fill="white" stroke="black" points="494,-44.5 494,-74.5 631,-74.5 631,-44.5 494,-44.5"/>
<text text-anchor="start" x="502" y="-62.5" font-family="Helvetica,sans-Serif" font-size="10.00">px4::logger::Logger</text>
<text text-anchor="middle" x="562.5" y="-51.5" font-family="Helvetica,sans-Serif" font-size="10.00">::write_all_add_logged_msg</text>
</a>
</g>
</g>
<!-- Node3&#45;&gt;Node6 -->
<g id="edge5" class="edge"><title>Node3&#45;&gt;Node6</title>
<path fill="none" stroke="midnightblue" d="M468.564,-73.142C476.968,-71.9083 485.533,-70.6511 493.895,-69.4237"/>
<polygon fill="midnightblue" stroke="midnightblue" points="467.802,-69.7162 458.417,-74.6315 468.819,-76.642 467.802,-69.7162"/>
</g>
<!-- Node5 -->
<g id="node5" class="node"><title>Node5</title>
<g id="a_node5"><a xlink:href="../../d1/d23/classpx4_1_1logger_1_1_logger.html#a68543e963a7f5706e96e53c14fdf8daa" target="_top" xlink:title="px4::logger::Logger::run">
<polygon fill="white" stroke="black" points="803,-55 803,-74 922,-74 922,-55 803,-55"/>
<text text-anchor="middle" x="862.5" y="-62" font-family="Helvetica,sans-Serif" font-size="10.00">px4::logger::Logger::run</text>
</a>
</g>
</g>
<!-- Node4&#45;&gt;Node5 -->
<g id="edge4" class="edge"><title>Node4&#45;&gt;Node5</title>
<path fill="none" stroke="midnightblue" d="M632.691,-104.891C672.242,-102.118 722.649,-97.3811 767,-89.5 788.554,-85.6698 812.382,-79.3517 830.718,-74.0256"/>
<polygon fill="midnightblue" stroke="midnightblue" points="632.362,-101.405 622.621,-105.572 632.834,-108.39 632.362,-101.405"/>
</g>
<!-- Node7 -->
<g id="node7" class="node"><title>Node7</title>
<g id="a_node7"><a xlink:href="../../d1/d23/classpx4_1_1logger_1_1_logger.html#a8b8522c1627ae32d642e8a6b3f39d78a" target="_top" xlink:title="px4::logger::Logger\l::start_log_file">
<polygon fill="white" stroke="black" points="667,-49.5 667,-79.5 767,-79.5 767,-49.5 667,-49.5"/>
<text text-anchor="start" x="675" y="-67.5" font-family="Helvetica,sans-Serif" font-size="10.00">px4::logger::Logger</text>
<text text-anchor="middle" x="717" y="-56.5" font-family="Helvetica,sans-Serif" font-size="10.00">::start_log_file</text>
</a>
</g>
</g>
<!-- Node6&#45;&gt;Node7 -->
<g id="edge6" class="edge"><title>Node6&#45;&gt;Node7</title>
<path fill="none" stroke="midnightblue" d="M641.385,-62.0536C650.007,-62.3363 658.601,-62.6181 666.726,-62.8845"/>
<polygon fill="midnightblue" stroke="midnightblue" points="641.386,-58.5519 631.277,-61.7222 641.157,-65.5481 641.386,-58.5519"/>
</g>
<!-- Node8 -->
<g id="node8" class="node"><title>Node8</title>
<g id="a_node8"><a xlink:href="../../d1/d23/classpx4_1_1logger_1_1_logger.html#ade524d17cb3995a527f23e10dfd04f5b" target="_top" xlink:title="px4::logger::Logger\l::start_log_mavlink">
<polygon fill="white" stroke="black" points="667,-0.5 667,-30.5 767,-30.5 767,-0.5 667,-0.5"/>
<text text-anchor="start" x="675" y="-18.5" font-family="Helvetica,sans-Serif" font-size="10.00">px4::logger::Logger</text>
<text text-anchor="middle" x="717" y="-7.5" font-family="Helvetica,sans-Serif" font-size="10.00">::start_log_mavlink</text>
</a>
</g>
</g>
<!-- Node6&#45;&gt;Node8 -->
<g id="edge8" class="edge"><title>Node6&#45;&gt;Node8</title>
<path fill="none" stroke="midnightblue" d="M625.43,-41.6316C639.185,-37.6631 653.585,-33.5084 666.751,-29.7096"/>
<polygon fill="midnightblue" stroke="midnightblue" points="624.193,-38.3457 615.555,-44.4808 626.134,-45.0714 624.193,-38.3457"/>
</g>
<!-- Node7&#45;&gt;Node5 -->
<g id="edge7" class="edge"><title>Node7&#45;&gt;Node5</title>
<path fill="none" stroke="midnightblue" d="M777.476,-64.5C785.87,-64.5 794.495,-64.5 802.873,-64.5"/>
<polygon fill="midnightblue" stroke="midnightblue" points="777.385,-61.0001 767.385,-64.5 777.385,-68.0001 777.385,-61.0001"/>
</g>
<!-- Node8&#45;&gt;Node5 -->
<g id="edge9" class="edge"><title>Node8&#45;&gt;Node5</title>
<path fill="none" stroke="midnightblue" d="M771.69,-33.8333C792.689,-41.0037 815.896,-48.9278 833.458,-54.9246"/>
<polygon fill="midnightblue" stroke="midnightblue" points="772.82,-30.5207 762.226,-30.6014 770.558,-37.1452 772.82,-30.5207"/>
</g>
</g>
</svg>
        <g id="navigator" transform="translate(0 0)" fill="#404254">
                <rect fill="#f2f5e9" fill-opacity="0.5" stroke="#606060" stroke-width=".5" x="0" y="0" width="60" height="60"/>
                <use id="zoomplus" xlink:href="#zoomPlus" x="17" y="9" onmousedown="handleZoom(evt,'in')"/>
                <use id="zoomminus" xlink:href="#zoomMin" x="42" y="9" onmousedown="handleZoom(evt,'out')"/>
                <use id="reset" xlink:href="#resetDef" x="30" y="36" onmousedown="handleReset()"/>
                <g id="arrowUp" xlink:href="#dirArrow" transform="translate(30 24)" onmousedown="handlePan(0,-1)">
                  <use xlink:href="#rim" fill="#404040">
                        <set attributeName="fill" to="#808080" begin="arrowUp.mouseover" end="arrowUp.mouseout"/>
                  </use>
                  <path fill="none" stroke="white" stroke-width="1.5" d="M0,-3.0v7 M-2.5,-0.5L0,-3.0L2.5,-0.5"/>
                </g>
                <g id="arrowRight" xlink:href="#dirArrow" transform="rotate(90) translate(36 -43)" onmousedown="handlePan(1,0)">
                  <use xlink:href="#rim" fill="#404040">
                        <set attributeName="fill" to="#808080" begin="arrowRight.mouseover" end="arrowRight.mouseout"/>
                  </use>
                  <path fill="none" stroke="white" stroke-width="1.5" d="M0,-3.0v7 M-2.5,-0.5L0,-3.0L2.5,-0.5"/>
                </g>
                <g id="arrowDown" xlink:href="#dirArrow" transform="rotate(180) translate(-30 -48)" onmousedown="handlePan(0,1)">
                  <use xlink:href="#rim" fill="#404040">
                        <set attributeName="fill" to="#808080" begin="arrowDown.mouseover" end="arrowDown.mouseout"/>
                  </use>
                  <path fill="none" stroke="white" stroke-width="1.5" d="M0,-3.0v7 M-2.5,-0.5L0,-3.0L2.5,-0.5"/>
                </g>
                <g id="arrowLeft" xlink:href="#dirArrow" transform="rotate(270) translate(-36 17)" onmousedown="handlePan(-1,0)">
                  <use xlink:href="#rim" fill="#404040">
                        <set attributeName="fill" to="#808080" begin="arrowLeft.mouseover" end="arrowLeft.mouseout"/>
                  </use>
                  <path fill="none" stroke="white" stroke-width="1.5" d="M0,-3.0v7 M-2.5,-0.5L0,-3.0L2.5,-0.5"/>
                </g>
        </g>
        <svg viewBox="0 0 15 15" width="100%" height="30px" preserveAspectRatio="xMaxYMin meet">
         <g id="arrow_out" transform="scale(0.3 0.3)">
          <a xlink:href="classpx4_1_1logger_1_1_log_writer_mavlink_a1044b8b14c64cf35a05f15b09b225889_icgraph_org.svg" target="_base">
           <rect id="button" ry="5" rx="5" y="6" x="6" height="38" width="38"
                fill="#f2f5e9" fill-opacity="0.5" stroke="#606060" stroke-width="1.0"/>
           <path id="arrow"
             d="M 11.500037,31.436501 C 11.940474,20.09759 22.043105,11.32322 32.158766,21.979434 L 37.068811,17.246167 C 37.068811,17.246167 37.088388,32 37.088388,32 L 22.160133,31.978069 C 22.160133,31.978069 26.997745,27.140456 26.997745,27.140456 C 18.528582,18.264221 13.291696,25.230495 11.500037,31.436501 z"
             style="fill:#404040;"/>
          </a>
         </g>
        </svg>
</svg>
