<?xml version="1.0" encoding="UTF-8" standalone="no"?>
<!DOCTYPE svg PUBLIC "-//W3C//DTD SVG 1.1//EN"
 "http://www.w3.org/Graphics/SVG/1.1/DTD/svg11.dtd">
<!-- Generated by graphviz version 2.38.0 (20140413.2041)
 -->
<!-- Title: build/doxygen/uORB/topics/uavcan_parameter_value.h Pages: 1 -->
<svg width="260pt" height="117pt"
 viewBox="0.00 0.00 259.50 117.00" xmlns="http://www.w3.org/2000/svg" xmlns:xlink="http://www.w3.org/1999/xlink">
<g id="graph0" class="graph" transform="scale(1 1) rotate(0) translate(4 113)">
<title>build/doxygen/uORB/topics/uavcan_parameter_value.h</title>
<polygon fill="white" stroke="none" points="-4,4 -4,-113 255.5,-113 255.5,4 -4,4"/>
<!-- Node1 -->
<g id="node1" class="node"><title>Node1</title>
<polygon fill="#bfbfbf" stroke="black" points="65.5,-67.5 65.5,-108.5 194.5,-108.5 194.5,-67.5 65.5,-67.5"/>
<text text-anchor="start" x="73.5" y="-96.5" font-family="Helvetica,sans-Serif" font-size="10.00">build/doxygen/uORB</text>
<text text-anchor="start" x="73.5" y="-85.5" font-family="Helvetica,sans-Serif" font-size="10.00">/topics/uavcan_parameter</text>
<text text-anchor="middle" x="130" y="-74.5" font-family="Helvetica,sans-Serif" font-size="10.00">_value.h</text>
</g>
<!-- Node2 -->
<g id="node2" class="node"><title>Node2</title>
<g id="a_node2"><a xlink:href="../../d9/d48/mavlink__parameters_8cpp.html" target="_top" xlink:title="Mavlink parameters manager implementation. ">
<polygon fill="white" stroke="black" points="0,-0.5 0,-30.5 126,-30.5 126,-0.5 0,-0.5"/>
<text text-anchor="start" x="8" y="-18.5" font-family="Helvetica,sans-Serif" font-size="10.00">src/modules/mavlink</text>
<text text-anchor="middle" x="63" y="-7.5" font-family="Helvetica,sans-Serif" font-size="10.00">/mavlink_parameters.cpp</text>
</a>
</g>
</g>
<!-- Node1&#45;&gt;Node2 -->
<g id="edge1" class="edge"><title>Node1&#45;&gt;Node2</title>
<path fill="none" stroke="midnightblue" d="M104.358,-60.0186C94.9387,-50.1071 84.6408,-39.2713 76.6771,-30.8916"/>
<polygon fill="midnightblue" stroke="midnightblue" points="101.911,-62.5242 111.337,-67.3618 106.985,-57.702 101.911,-62.5242"/>
</g>
<!-- Node3 -->
<g id="node3" class="node"><title>Node3</title>
<g id="a_node3"><a xlink:href="../../d4/d4b/uavcan__servers_8cpp.html" target="_top" xlink:title="Implements basic functionality of UAVCAN node. ">
<polygon fill="white" stroke="black" points="144.5,-0.5 144.5,-30.5 251.5,-30.5 251.5,-0.5 144.5,-0.5"/>
<text text-anchor="start" x="152.5" y="-18.5" font-family="Helvetica,sans-Serif" font-size="10.00">src/modules/uavcan</text>
<text text-anchor="middle" x="198" y="-7.5" font-family="Helvetica,sans-Serif" font-size="10.00">/uavcan_servers.cpp</text>
</a>
</g>
</g>
<!-- Node1&#45;&gt;Node3 -->
<g id="edge2" class="edge"><title>Node1&#45;&gt;Node3</title>
<path fill="none" stroke="midnightblue" d="M156.025,-60.0186C165.585,-50.1071 176.036,-39.2713 184.119,-30.8916"/>
<polygon fill="midnightblue" stroke="midnightblue" points="153.365,-57.7344 148.942,-67.3618 158.403,-62.5941 153.365,-57.7344"/>
</g>
</g>
</svg>
