<?xml version="1.0" encoding="UTF-8" standalone="no"?>
<!DOCTYPE svg PUBLIC "-//W3C//DTD SVG 1.1//EN"
 "http://www.w3.org/Graphics/SVG/1.1/DTD/svg11.dtd">
<!-- Generated by graphviz version 2.40.1 (20161225.0304)
 -->
<!-- Title: CM8JL65::start Pages: 1 -->
<svg width="544pt" height="47pt"
 viewBox="0.00 0.00 544.00 47.00" xmlns="http://www.w3.org/2000/svg" xmlns:xlink="http://www.w3.org/1999/xlink">
<g id="graph0" class="graph" transform="scale(1 1) rotate(0) translate(4 43)">
<title>CM8JL65::start</title>
<polygon fill="#ffffff" stroke="transparent" points="-4,4 -4,-43 540,-43 540,4 -4,4"/>
<!-- Node83 -->
<g id="node1" class="node">
<title>Node83</title>
<polygon fill="#bfbfbf" stroke="#000000" points="0,-.5 0,-19.5 84,-19.5 84,-.5 0,-.5"/>
<text text-anchor="middle" x="42" y="-7.5" font-family="Helvetica,sans-Serif" font-size="10.00" fill="#000000">CM8JL65::start</text>
</g>
<!-- Node84 -->
<g id="node2" class="node">
<title>Node84</title>
<g id="a_node2"><a xlink:href="../../da/d18/class_c_m8_j_l65.html#a0fc979a17388df60a75b2f26fa95eae2" target="_top" xlink:title="Method : init() This method initializes the general driver for a range finder sensor. ">
<polygon fill="#ffffff" stroke="#000000" points="120,-.5 120,-19.5 197,-19.5 197,-.5 120,-.5"/>
<text text-anchor="middle" x="158.5" y="-7.5" font-family="Helvetica,sans-Serif" font-size="10.00" fill="#000000">CM8JL65::init</text>
</a>
</g>
</g>
<!-- Node83&#45;&gt;Node84 -->
<g id="edge1" class="edge">
<title>Node83&#45;&gt;Node84</title>
<path fill="none" stroke="#191970" d="M94.1365,-10C102.8329,-10 111.7131,-10 119.9903,-10"/>
<polygon fill="#191970" stroke="#191970" points="94.0592,-6.5001 84.0592,-10 94.0591,-13.5001 94.0592,-6.5001"/>
</g>
<!-- Node85 -->
<g id="node3" class="node">
<title>Node85</title>
<g id="a_node3"><a xlink:href="../../d6/d0d/namespacecm8jl65.html#a12a95a78ee6e3d833bb6decdb8482f8c" target="_top" xlink:title="Start the driver. ">
<polygon fill="#ffffff" stroke="#000000" points="233,-.5 233,-19.5 309,-19.5 309,-.5 233,-.5"/>
<text text-anchor="middle" x="271" y="-7.5" font-family="Helvetica,sans-Serif" font-size="10.00" fill="#000000">cm8jl65::start</text>
</a>
</g>
</g>
<!-- Node84&#45;&gt;Node85 -->
<g id="edge2" class="edge">
<title>Node84&#45;&gt;Node85</title>
<path fill="none" stroke="#191970" d="M207.4689,-10C216.0114,-10 224.7817,-10 232.9739,-10"/>
<polygon fill="#191970" stroke="#191970" points="207.2162,-6.5001 197.2161,-10 207.2161,-13.5001 207.2162,-6.5001"/>
</g>
<!-- Node86 -->
<g id="node4" class="node">
<title>Node86</title>
<g id="a_node4"><a xlink:href="../../d6/d0d/namespacecm8jl65.html#a230177855bfdc79e69755348d2c454c6" target="_top" xlink:title="Reset the driver. ">
<polygon fill="#ffffff" stroke="#000000" points="345,-19.5 345,-38.5 423,-38.5 423,-19.5 345,-19.5"/>
<text text-anchor="middle" x="384" y="-26.5" font-family="Helvetica,sans-Serif" font-size="10.00" fill="#000000">cm8jl65::reset</text>
</a>
</g>
</g>
<!-- Node85&#45;&gt;Node86 -->
<g id="edge3" class="edge">
<title>Node85&#45;&gt;Node86</title>
<path fill="none" stroke="#191970" d="M319.3661,-18.1324C327.797,-19.5499 336.4746,-21.009 344.6268,-22.3797"/>
<polygon fill="#191970" stroke="#191970" points="319.6986,-14.6392 309.2566,-16.4325 318.5378,-21.5423 319.6986,-14.6392"/>
</g>
<!-- Node87 -->
<g id="node5" class="node">
<title>Node87</title>
<g id="a_node5"><a xlink:href="../../d0/dc7/cm8jl65__main_8cpp.html#a44bd0fe63a6f6a494b021535452943f0" target="_top" xlink:title="Driver &#39;main&#39; command. ">
<polygon fill="#ffffff" stroke="#000000" points="459,-.5 459,-19.5 536,-19.5 536,-.5 459,-.5"/>
<text text-anchor="middle" x="497.5" y="-7.5" font-family="Helvetica,sans-Serif" font-size="10.00" fill="#000000">cm8jl65_main</text>
</a>
</g>
</g>
<!-- Node85&#45;&gt;Node87 -->
<g id="edge5" class="edge">
<title>Node85&#45;&gt;Node87</title>
<path fill="none" stroke="#191970" d="M319.3449,-10C360.9681,-10 420.2494,-10 458.7975,-10"/>
<polygon fill="#191970" stroke="#191970" points="319.1665,-6.5001 309.1665,-10 319.1665,-13.5001 319.1665,-6.5001"/>
</g>
<!-- Node86&#45;&gt;Node87 -->
<g id="edge4" class="edge">
<title>Node86&#45;&gt;Node87</title>
<path fill="none" stroke="#191970" d="M433.0078,-20.796C441.618,-19.3547 450.4704,-17.8728 458.7522,-16.4864"/>
<polygon fill="#191970" stroke="#191970" points="432.3451,-17.3582 423.0603,-22.4613 433.5009,-24.2621 432.3451,-17.3582"/>
</g>
</g>
</svg>
