<?xml version="1.0" encoding="UTF-8" standalone="no"?>
<!DOCTYPE svg PUBLIC "-//W3C//DTD SVG 1.1//EN"
 "http://www.w3.org/Graphics/SVG/1.1/DTD/svg11.dtd">
<!-- Generated by graphviz version 2.40.1 (20161225.0304)
 -->
<!-- Title: px4::Array::size Pages: 1 -->
<svg width="523pt" height="85pt"
 viewBox="0.00 0.00 523.00 85.00" xmlns="http://www.w3.org/2000/svg" xmlns:xlink="http://www.w3.org/1999/xlink">
<g id="graph0" class="graph" transform="scale(1 1) rotate(0) translate(4 81)">
<title>px4::Array::size</title>
<polygon fill="#ffffff" stroke="transparent" points="-4,4 -4,-81 519,-81 519,4 -4,4"/>
<!-- Node35 -->
<g id="node1" class="node">
<title>Node35</title>
<polygon fill="#bfbfbf" stroke="#000000" points="0,-19.5 0,-38.5 86,-38.5 86,-19.5 0,-19.5"/>
<text text-anchor="middle" x="43" y="-26.5" font-family="Helvetica,sans-Serif" font-size="10.00" fill="#000000">px4::Array::size</text>
</g>
<!-- Node36 -->
<g id="node2" class="node">
<title>Node36</title>
<g id="a_node2"><a xlink:href="../../d8/dad/class_s_r_f02.html#aa5833a73ca5cbe3d1173936a4237078c" target="_top" xlink:title="SRF02::init">
<polygon fill="#ffffff" stroke="#000000" points="124.5,-38.5 124.5,-57.5 190.5,-57.5 190.5,-38.5 124.5,-38.5"/>
<text text-anchor="middle" x="157.5" y="-45.5" font-family="Helvetica,sans-Serif" font-size="10.00" fill="#000000">SRF02::init</text>
</a>
</g>
</g>
<!-- Node35&#45;&gt;Node36 -->
<g id="edge1" class="edge">
<title>Node35&#45;&gt;Node36</title>
<path fill="none" stroke="#191970" d="M96.4322,-37.8665C105.8766,-39.4337 115.4601,-41.024 124.1487,-42.4657"/>
<polygon fill="#191970" stroke="#191970" points="96.7256,-34.3674 86.2875,-36.1831 95.5797,-41.273 96.7256,-34.3674"/>
</g>
<!-- Node40 -->
<g id="node6" class="node">
<title>Node40</title>
<g id="a_node6"><a xlink:href="../../d8/dad/class_s_r_f02.html#adab2a4ff4db665e5fa41b345dadcb9aa" target="_top" xlink:title="Perform a poll cycle; collect from the previous measurement and start a new one. ">
<polygon fill="#ffffff" stroke="#000000" points="122,-.5 122,-19.5 193,-19.5 193,-.5 122,-.5"/>
<text text-anchor="middle" x="157.5" y="-7.5" font-family="Helvetica,sans-Serif" font-size="10.00" fill="#000000">SRF02::Run</text>
</a>
</g>
</g>
<!-- Node35&#45;&gt;Node40 -->
<g id="edge6" class="edge">
<title>Node35&#45;&gt;Node40</title>
<path fill="none" stroke="#191970" d="M96.3774,-20.1426C105.0601,-18.7018 113.8622,-17.2412 121.9798,-15.8942"/>
<polygon fill="#191970" stroke="#191970" points="95.5797,-16.727 86.2875,-21.8169 96.7256,-23.6326 95.5797,-16.727"/>
</g>
<!-- Node37 -->
<g id="node3" class="node">
<title>Node37</title>
<g id="a_node3"><a xlink:href="../../d5/d4c/namespacesrf02.html#a63345764ca357b261b9454628a1feb34" target="_top" xlink:title="Start the driver on a specific bus. ">
<polygon fill="#ffffff" stroke="#000000" points="229,-38.5 229,-57.5 314,-57.5 314,-38.5 229,-38.5"/>
<text text-anchor="middle" x="271.5" y="-45.5" font-family="Helvetica,sans-Serif" font-size="10.00" fill="#000000">srf02::start_bus</text>
</a>
</g>
</g>
<!-- Node36&#45;&gt;Node37 -->
<g id="edge2" class="edge">
<title>Node36&#45;&gt;Node37</title>
<path fill="none" stroke="#191970" d="M200.8023,-48C209.9137,-48 219.5214,-48 228.6172,-48"/>
<polygon fill="#191970" stroke="#191970" points="200.78,-44.5001 190.78,-48 200.7799,-51.5001 200.78,-44.5001"/>
</g>
<!-- Node38 -->
<g id="node4" class="node">
<title>Node38</title>
<g id="a_node4"><a xlink:href="../../d5/d4c/namespacesrf02.html#a729afe67758249873385ba3aa8d1ca64" target="_top" xlink:title="Attempt to start driver on all available I2C busses. ">
<polygon fill="#ffffff" stroke="#000000" points="350,-57.5 350,-76.5 414,-76.5 414,-57.5 350,-57.5"/>
<text text-anchor="middle" x="382" y="-64.5" font-family="Helvetica,sans-Serif" font-size="10.00" fill="#000000">srf02::start</text>
</a>
</g>
</g>
<!-- Node37&#45;&gt;Node38 -->
<g id="edge3" class="edge">
<title>Node37&#45;&gt;Node38</title>
<path fill="none" stroke="#191970" d="M324.3025,-57.0792C332.9644,-58.5685 341.7067,-60.0717 349.6755,-61.4419"/>
<polygon fill="#191970" stroke="#191970" points="324.6707,-53.5912 314.2222,-55.3459 323.4844,-60.4899 324.6707,-53.5912"/>
</g>
<!-- Node39 -->
<g id="node5" class="node">
<title>Node39</title>
<g id="a_node5"><a xlink:href="../../d8/d1c/srf02_8cpp.html#a372a7a1ab7aa416721150ccde1471713" target="_top" xlink:title="Driver &#39;main&#39; command. ">
<polygon fill="#ffffff" stroke="#000000" points="450,-38.5 450,-57.5 515,-57.5 515,-38.5 450,-38.5"/>
<text text-anchor="middle" x="482.5" y="-45.5" font-family="Helvetica,sans-Serif" font-size="10.00" fill="#000000">srf02_main</text>
</a>
</g>
</g>
<!-- Node37&#45;&gt;Node39 -->
<g id="edge5" class="edge">
<title>Node37&#45;&gt;Node39</title>
<path fill="none" stroke="#191970" d="M324.4285,-48C363.8473,-48 416.4197,-48 449.8747,-48"/>
<polygon fill="#191970" stroke="#191970" points="324.199,-44.5001 314.199,-48 324.199,-51.5001 324.199,-44.5001"/>
</g>
<!-- Node38&#45;&gt;Node39 -->
<g id="edge4" class="edge">
<title>Node38&#45;&gt;Node39</title>
<path fill="none" stroke="#191970" d="M423.9503,-59.0691C432.5461,-57.444 441.4752,-55.7559 449.6936,-54.2022"/>
<polygon fill="#191970" stroke="#191970" points="423.2509,-55.6392 414.0751,-60.936 424.5513,-62.5174 423.2509,-55.6392"/>
</g>
</g>
</svg>
