<?xml version="1.0" encoding="UTF-8" standalone="no"?>
<!DOCTYPE svg PUBLIC "-//W3C//DTD SVG 1.1//EN"
 "http://www.w3.org/Graphics/SVG/1.1/DTD/svg11.dtd">
<!-- Generated by graphviz version 2.40.1 (20161225.0304)
 -->
<!-- Title: BATT_SMBUS::manufacturer_read Pages: 1 -->
<svg width="443pt" height="66pt"
 viewBox="0.00 0.00 443.00 66.00" xmlns="http://www.w3.org/2000/svg" xmlns:xlink="http://www.w3.org/1999/xlink">
<g id="graph0" class="graph" transform="scale(1 1) rotate(0) translate(4 62)">
<title>BATT_SMBUS::manufacturer_read</title>
<polygon fill="#ffffff" stroke="transparent" points="-4,4 -4,-62 439,-62 439,4 -4,4"/>
<!-- Node546 -->
<g id="node1" class="node">
<title>Node546</title>
<polygon fill="#bfbfbf" stroke="#000000" points="0,-19.5 0,-38.5 170,-38.5 170,-19.5 0,-19.5"/>
<text text-anchor="middle" x="85" y="-26.5" font-family="Helvetica,sans-Serif" font-size="10.00" fill="#000000">BATT_SMBUS::manufacturer_read</text>
</g>
<!-- Node547 -->
<g id="node2" class="node">
<title>Node547</title>
<g id="a_node2"><a xlink:href="../../d4/d9f/class_s_m_bus.html#a2b52fb92f2b140ab29f6961ae2d6c1e8" target="_top" xlink:title="Sends a block read command. ">
<polygon fill="#ffffff" stroke="#000000" points="207,-38.5 207,-57.5 309,-57.5 309,-38.5 207,-38.5"/>
<text text-anchor="middle" x="258" y="-45.5" font-family="Helvetica,sans-Serif" font-size="10.00" fill="#000000">SMBus::block_read</text>
</a>
</g>
</g>
<!-- Node546&#45;&gt;Node547 -->
<g id="edge1" class="edge">
<title>Node546&#45;&gt;Node547</title>
<path fill="none" stroke="#191970" d="M170.233,-38.3608C179.0857,-39.3331 187.9562,-40.3073 196.4734,-41.2427"/>
<polygon fill="#191970" stroke="#191970" points="196.3399,-44.749 206.6623,-42.3618 197.1042,-37.7909 196.3399,-44.749"/>
</g>
<!-- Node549 -->
<g id="node4" class="node">
<title>Node549</title>
<g id="a_node4"><a xlink:href="../../d4/d9f/class_s_m_bus.html#ad8f04234398edc16ccc6f8bbb3a79ebd" target="_top" xlink:title="Sends a block write command. ">
<polygon fill="#ffffff" stroke="#000000" points="206,-.5 206,-19.5 310,-19.5 310,-.5 206,-.5"/>
<text text-anchor="middle" x="258" y="-7.5" font-family="Helvetica,sans-Serif" font-size="10.00" fill="#000000">SMBus::block_write</text>
</a>
</g>
</g>
<!-- Node546&#45;&gt;Node549 -->
<g id="edge3" class="edge">
<title>Node546&#45;&gt;Node549</title>
<path fill="none" stroke="#191970" d="M170.233,-19.6392C178.8432,-18.6935 187.4702,-17.7461 195.7725,-16.8342"/>
<polygon fill="#191970" stroke="#191970" points="196.1576,-20.3131 205.7157,-15.7422 195.3933,-13.3549 196.1576,-20.3131"/>
</g>
<!-- Node548 -->
<g id="node3" class="node">
<title>Node548</title>
<g id="a_node3"><a xlink:href="../../d4/d9f/class_s_m_bus.html#aa636ae7fbf726c248015951f2ed73aef" target="_top" xlink:title="Calculates the PEC from the data. ">
<polygon fill="#ffffff" stroke="#000000" points="346,-19.5 346,-38.5 435,-38.5 435,-19.5 346,-19.5"/>
<text text-anchor="middle" x="390.5" y="-26.5" font-family="Helvetica,sans-Serif" font-size="10.00" fill="#000000">SMBus::get_pec</text>
</a>
</g>
</g>
<!-- Node547&#45;&gt;Node548 -->
<g id="edge2" class="edge">
<title>Node547&#45;&gt;Node548</title>
<path fill="none" stroke="#191970" d="M309.228,-40.6541C317.9167,-39.4082 326.9693,-38.1101 335.7444,-36.8518"/>
<polygon fill="#191970" stroke="#191970" points="336.4777,-40.2825 345.8796,-35.3984 335.484,-33.3534 336.4777,-40.2825"/>
</g>
<!-- Node549&#45;&gt;Node548 -->
<g id="edge4" class="edge">
<title>Node549&#45;&gt;Node548</title>
<path fill="none" stroke="#191970" d="M310.3675,-17.5093C318.6986,-18.7039 327.3363,-19.9426 335.7212,-21.1449"/>
<polygon fill="#191970" stroke="#191970" points="335.3903,-24.6332 345.7859,-22.5882 336.384,-17.7041 335.3903,-24.6332"/>
</g>
</g>
</svg>
