<?xml version="1.0" encoding="UTF-8" standalone="no"?>
<!DOCTYPE svg PUBLIC "-//W3C//DTD SVG 1.1//EN"
 "http://www.w3.org/Graphics/SVG/1.1/DTD/svg11.dtd">
<!-- Generated by graphviz version 2.38.0 (20140413.2041)
 -->
<!-- Title: control::blockIntegralTest Pages: 1 -->
<svg width="557pt" height="66pt"
 viewBox="0.00 0.00 557.00 66.00" xmlns="http://www.w3.org/2000/svg" xmlns:xlink="http://www.w3.org/1999/xlink">
<g id="graph0" class="graph" transform="scale(1 1) rotate(0) translate(4 62)">
<title>control::blockIntegralTest</title>
<polygon fill="white" stroke="none" points="-4,4 -4,-62 553,-62 553,4 -4,4"/>
<!-- Node1 -->
<g id="node1" class="node"><title>Node1</title>
<polygon fill="#bfbfbf" stroke="black" points="0,-19.5 0,-38.5 127,-38.5 127,-19.5 0,-19.5"/>
<text text-anchor="middle" x="63.5" y="-26.5" font-family="Helvetica,sans-Serif" font-size="10.00">control::blockIntegralTest</text>
</g>
<!-- Node2 -->
<g id="node2" class="node"><title>Node2</title>
<g id="a_node2"><a xlink:href="../../dd/d7b/namespacecontrol.html#a213586553ff1fb69f41627504f7e7309" target="_top" xlink:title="control::basicBlocksTest">
<polygon fill="white" stroke="black" points="163,-38.5 163,-57.5 288,-57.5 288,-38.5 163,-38.5"/>
<text text-anchor="middle" x="225.5" y="-45.5" font-family="Helvetica,sans-Serif" font-size="10.00">control::basicBlocksTest</text>
</a>
</g>
</g>
<!-- Node1&#45;&gt;Node2 -->
<g id="edge1" class="edge"><title>Node1&#45;&gt;Node2</title>
<path fill="none" stroke="midnightblue" d="M137.275,-37.642C145.855,-38.6609 154.548,-39.6932 162.953,-40.6913"/>
<polygon fill="midnightblue" stroke="midnightblue" points="137.62,-34.1585 127.277,-36.4548 136.794,-41.1097 137.62,-34.1585"/>
</g>
<!-- Node5 -->
<g id="node5" class="node"><title>Node5</title>
<g id="a_node5"><a xlink:href="../../d9/de9/controllib__test__main_8cpp.html#a213586553ff1fb69f41627504f7e7309" target="_top" xlink:title="basicBlocksTest">
<polygon fill="white" stroke="black" points="181,-0.5 181,-19.5 270,-19.5 270,-0.5 181,-0.5"/>
<text text-anchor="middle" x="225.5" y="-7.5" font-family="Helvetica,sans-Serif" font-size="10.00">basicBlocksTest</text>
</a>
</g>
</g>
<!-- Node1&#45;&gt;Node5 -->
<g id="edge4" class="edge"><title>Node1&#45;&gt;Node5</title>
<path fill="none" stroke="midnightblue" d="M137.425,-20.3402C152.194,-18.5863 167.287,-16.794 180.67,-15.2048"/>
<polygon fill="midnightblue" stroke="midnightblue" points="136.794,-16.8903 127.277,-21.5452 137.62,-23.8415 136.794,-16.8903"/>
</g>
<!-- Node3 -->
<g id="node3" class="node"><title>Node3</title>
<g id="a_node3"><a xlink:href="../../d5/d69/tests__main_8h.html#a6d80dfe13b380ca974674e83117d03a9" target="_top" xlink:title="controllib_test_main">
<polygon fill="white" stroke="black" points="324,-38.5 324,-57.5 428,-57.5 428,-38.5 324,-38.5"/>
<text text-anchor="middle" x="376" y="-45.5" font-family="Helvetica,sans-Serif" font-size="10.00">controllib_test_main</text>
</a>
</g>
</g>
<!-- Node2&#45;&gt;Node3 -->
<g id="edge2" class="edge"><title>Node2&#45;&gt;Node3</title>
<path fill="none" stroke="midnightblue" d="M298.214,-48C306.797,-48 315.424,-48 323.638,-48"/>
<polygon fill="midnightblue" stroke="midnightblue" points="298.187,-44.5001 288.187,-48 298.187,-51.5001 298.187,-44.5001"/>
</g>
<!-- Node4 -->
<g id="node4" class="node"><title>Node4</title>
<g id="a_node4"><a xlink:href="../../d9/de9/controllib__test__main_8cpp.html#aa61b9540192392bfe67a791ff3c65e05" target="_top" xlink:title="blockDelayTest">
<polygon fill="white" stroke="black" points="464,-38.5 464,-57.5 549,-57.5 549,-38.5 464,-38.5"/>
<text text-anchor="middle" x="506.5" y="-45.5" font-family="Helvetica,sans-Serif" font-size="10.00">blockDelayTest</text>
</a>
</g>
</g>
<!-- Node3&#45;&gt;Node4 -->
<g id="edge3" class="edge"><title>Node3&#45;&gt;Node4</title>
<path fill="none" stroke="midnightblue" d="M438.185,-48C446.788,-48 455.465,-48 463.597,-48"/>
<polygon fill="midnightblue" stroke="midnightblue" points="438.156,-44.5001 428.156,-48 438.156,-51.5001 438.156,-44.5001"/>
</g>
</g>
</svg>
