<?xml version="1.0" encoding="UTF-8" standalone="no"?>
<!DOCTYPE svg PUBLIC "-//W3C//DTD SVG 1.1//EN"
 "http://www.w3.org/Graphics/SVG/1.1/DTD/svg11.dtd">
<!-- Generated by graphviz version 2.38.0 (20140413.2041)
 -->
<!-- Title: src/platforms/common/module.cpp Pages: 1 -->
<!--zoomable 207 -->
<svg id="main" version="1.1" xmlns="http://www.w3.org/2000/svg" xmlns:xlink="http://www.w3.org/1999/xlink" xml:space="preserve" onload="init(evt)">
<style type="text/css"><![CDATA[
.edge:hover path { stroke: red; }
.edge:hover polygon { stroke: red; fill: red; }
]]></style>
<script type="text/javascript"><![CDATA[
var edges = document.getElementsByTagName('g');
if (edges && edges.length) {
  for (var i=0;i<edges.length;i++) {
    if (edges[i].id.substr(0,4)=='edge') {
      edges[i].setAttribute('class','edge');
    }
  }
}
]]></script>
        <defs>
                <circle id="rim" cx="0" cy="0" r="7"/>
                <circle id="rim2" cx="0" cy="0" r="3.5"/>
                <g id="zoomPlus">
                        <use xlink:href="#rim" fill="#404040">
                                <set attributeName="fill" to="#808080" begin="zoomplus.mouseover" end="zoomplus.mouseout"/>
                        </use>
                        <path d="M-4,0h8M0,-4v8" fill="none" stroke="white" stroke-width="1.5" pointer-events="none"/>
                </g>
                <g id="zoomMin">
                        <use xlink:href="#rim" fill="#404040">
                                <set attributeName="fill" to="#808080" begin="zoomminus.mouseover" end="zoomminus.mouseout"/>
                        </use>
                        <path d="M-4,0h8" fill="none" stroke="white" stroke-width="1.5" pointer-events="none"/>
                </g>
                <g id="dirArrow">
                        <path fill="none" stroke="white" stroke-width="1.5" d="M0,-3.0v7 M-2.5,-0.5L0,-3.0L2.5,-0.5"/>
                </g>
               <g id="resetDef">
                       <use xlink:href="#rim2" fill="#404040">
                               <set attributeName="fill" to="#808080" begin="reset.mouseover" end="reset.mouseout"/>
                       </use>
               </g>
        </defs>

<script type="text/javascript">
var viewWidth = 697;
var viewHeight = 207;
var sectionId = 'dynsection-0';
</script>
<script xlink:href="../../svgpan.js"/>
<svg id="graph" class="graph">
<g id="viewport">
<title>src/platforms/common/module.cpp</title>
<polygon fill="white" stroke="none" points="-4,4 -4,-203 693,-203 693,4 -4,4"/>
<!-- Node1 -->
<g id="node1" class="node"><title>Node1</title>
<polygon fill="#bfbfbf" stroke="black" points="238.5,-168.5 238.5,-198.5 352.5,-198.5 352.5,-168.5 238.5,-168.5"/>
<text text-anchor="start" x="246.5" y="-186.5" font-family="Helvetica,sans-Serif" font-size="10.00">src/platforms/common</text>
<text text-anchor="middle" x="295.5" y="-175.5" font-family="Helvetica,sans-Serif" font-size="10.00">/module.cpp</text>
</g>
<!-- Node2 -->
<g id="node2" class="node"><title>Node2</title>
<g id="a_node2"><a xlink:href="../../d7/dc9/px4__module_8h.html" target="_top" xlink:title="px4_module.h">
<polygon fill="white" stroke="black" points="186,-112.5 186,-131.5 263,-131.5 263,-112.5 186,-112.5"/>
<text text-anchor="middle" x="224.5" y="-119.5" font-family="Helvetica,sans-Serif" font-size="10.00">px4_module.h</text>
</a>
</g>
</g>
<!-- Node1&#45;&gt;Node2 -->
<g id="edge1" class="edge"><title>Node1&#45;&gt;Node2</title>
<path fill="none" stroke="midnightblue" d="M278.674,-168.399C267.825,-159.308 253.723,-147.49 242.627,-138.191"/>
<polygon fill="midnightblue" stroke="midnightblue" points="244.744,-135.398 234.831,-131.658 240.248,-140.763 244.744,-135.398"/>
</g>
<!-- Node6 -->
<g id="node6" class="node"><title>Node6</title>
<g id="a_node6"><a xlink:href="../../d7/d53/px4__log_8h.html" target="_top" xlink:title="Platform dependant logging/debug implementation. ">
<polygon fill="white" stroke="black" points="412,-56.5 412,-75.5 471,-75.5 471,-56.5 412,-56.5"/>
<text text-anchor="middle" x="441.5" y="-63.5" font-family="Helvetica,sans-Serif" font-size="10.00">px4_log.h</text>
</a>
</g>
</g>
<!-- Node1&#45;&gt;Node6 -->
<g id="edge17" class="edge"><title>Node1&#45;&gt;Node6</title>
<path fill="none" stroke="midnightblue" d="M313.402,-168.337C341.143,-146.392 394.262,-104.37 422.598,-81.953"/>
<polygon fill="midnightblue" stroke="midnightblue" points="424.87,-84.6187 430.541,-75.6695 420.527,-79.1288 424.87,-84.6187"/>
</g>
<!-- Node3 -->
<g id="node3" class="node"><title>Node3</title>
<polygon fill="white" stroke="#bfbfbf" points="196,-56.5 196,-75.5 253,-75.5 253,-56.5 196,-56.5"/>
<text text-anchor="middle" x="224.5" y="-63.5" font-family="Helvetica,sans-Serif" font-size="10.00">pthread.h</text>
</g>
<!-- Node2&#45;&gt;Node3 -->
<g id="edge2" class="edge"><title>Node2&#45;&gt;Node3</title>
<path fill="none" stroke="midnightblue" d="M224.5,-112.083C224.5,-105.006 224.5,-94.8611 224.5,-85.9865"/>
<polygon fill="midnightblue" stroke="midnightblue" points="228,-85.751 224.5,-75.7511 221,-85.7511 228,-85.751"/>
</g>
<!-- Node4 -->
<g id="node4" class="node"><title>Node4</title>
<polygon fill="white" stroke="#bfbfbf" points="0,-56.5 0,-75.5 51,-75.5 51,-56.5 0,-56.5"/>
<text text-anchor="middle" x="25.5" y="-63.5" font-family="Helvetica,sans-Serif" font-size="10.00">unistd.h</text>
</g>
<!-- Node2&#45;&gt;Node4 -->
<g id="edge3" class="edge"><title>Node2&#45;&gt;Node4</title>
<path fill="none" stroke="midnightblue" d="M192.968,-112.444C157.105,-102.712 98.6755,-86.8567 61.1752,-76.6807"/>
<polygon fill="midnightblue" stroke="midnightblue" points="61.757,-73.2121 51.1893,-73.971 59.9237,-79.9678 61.757,-73.2121"/>
</g>
<!-- Node5 -->
<g id="node5" class="node"><title>Node5</title>
<polygon fill="white" stroke="#bfbfbf" points="68.5,-0.5 68.5,-19.5 124.5,-19.5 124.5,-0.5 68.5,-0.5"/>
<text text-anchor="middle" x="96.5" y="-7.5" font-family="Helvetica,sans-Serif" font-size="10.00">stdbool.h</text>
</g>
<!-- Node2&#45;&gt;Node5 -->
<g id="edge4" class="edge"><title>Node2&#45;&gt;Node5</title>
<path fill="none" stroke="midnightblue" d="M185.757,-118.401C156.635,-114.198 118.46,-103.417 98.5,-76 88.8526,-62.7479 89.5047,-43.6204 91.8769,-29.5442"/>
<polygon fill="midnightblue" stroke="midnightblue" points="95.3463,-30.0541 93.9842,-19.5472 88.4968,-28.6102 95.3463,-30.0541"/>
</g>
<!-- Node2&#45;&gt;Node6 -->
<g id="edge5" class="edge"><title>Node2&#45;&gt;Node6</title>
<path fill="none" stroke="midnightblue" d="M258.884,-112.444C297.775,-102.766 361.001,-87.0321 401.916,-76.8503"/>
<polygon fill="midnightblue" stroke="midnightblue" points="402.951,-80.1997 411.81,-74.3884 401.26,-73.4069 402.951,-80.1997"/>
</g>
<!-- Node13 -->
<g id="node13" class="node"><title>Node13</title>
<g id="a_node13"><a xlink:href="../../da/d65/px4__tasks_8h.html" target="_top" xlink:title="px4_tasks.h">
<polygon fill="white" stroke="black" points="107.5,-56.5 107.5,-75.5 177.5,-75.5 177.5,-56.5 107.5,-56.5"/>
<text text-anchor="middle" x="142.5" y="-63.5" font-family="Helvetica,sans-Serif" font-size="10.00">px4_tasks.h</text>
</a>
</g>
</g>
<!-- Node2&#45;&gt;Node13 -->
<g id="edge13" class="edge"><title>Node2&#45;&gt;Node13</title>
<path fill="none" stroke="midnightblue" d="M211.325,-112.324C198.653,-103.979 179.267,-91.2122 164.294,-81.3524"/>
<polygon fill="midnightblue" stroke="midnightblue" points="165.919,-78.2313 155.642,-75.6545 162.069,-84.0776 165.919,-78.2313"/>
</g>
<!-- Node14 -->
<g id="node14" class="node"><title>Node14</title>
<g id="a_node14"><a xlink:href="../../de/d37/px4__macros_8h.html" target="_top" xlink:title="A set of useful macros for enhanced runtime and compile time error detection and warning suppression...">
<polygon fill="white" stroke="black" points="271,-56.5 271,-75.5 394,-75.5 394,-56.5 271,-56.5"/>
<text text-anchor="middle" x="332.5" y="-63.5" font-family="Helvetica,sans-Serif" font-size="10.00">systemlib/px4_macros.h</text>
</a>
</g>
</g>
<!-- Node2&#45;&gt;Node14 -->
<g id="edge15" class="edge"><title>Node2&#45;&gt;Node14</title>
<path fill="none" stroke="midnightblue" d="M241.852,-112.324C259.172,-103.664 286.015,-90.2424 306.002,-80.249"/>
<polygon fill="midnightblue" stroke="midnightblue" points="307.812,-83.2572 315.191,-75.6545 304.681,-76.9962 307.812,-83.2572"/>
</g>
<!-- Node7 -->
<g id="node7" class="node"><title>Node7</title>
<polygon fill="white" stroke="#bfbfbf" points="563,-0.5 563,-19.5 622,-19.5 622,-0.5 563,-0.5"/>
<text text-anchor="middle" x="592.5" y="-7.5" font-family="Helvetica,sans-Serif" font-size="10.00">inttypes.h</text>
</g>
<!-- Node6&#45;&gt;Node7 -->
<g id="edge6" class="edge"><title>Node6&#45;&gt;Node7</title>
<path fill="none" stroke="midnightblue" d="M465.426,-56.4435C490.719,-47.3986 530.802,-33.064 559.18,-22.9158"/>
<polygon fill="midnightblue" stroke="midnightblue" points="560.448,-26.1794 568.686,-19.5164 558.091,-19.5882 560.448,-26.1794"/>
</g>
<!-- Node8 -->
<g id="node8" class="node"><title>Node8</title>
<polygon fill="white" stroke="#bfbfbf" points="640,-0.5 640,-19.5 689,-19.5 689,-0.5 640,-0.5"/>
<text text-anchor="middle" x="664.5" y="-7.5" font-family="Helvetica,sans-Serif" font-size="10.00">stdint.h</text>
</g>
<!-- Node6&#45;&gt;Node8 -->
<g id="edge7" class="edge"><title>Node6&#45;&gt;Node8</title>
<path fill="none" stroke="midnightblue" d="M471.195,-58.293C506.75,-50.1915 568.334,-35.9345 629.798,-20.3786"/>
<polygon fill="midnightblue" stroke="midnightblue" points="630.828,-23.728 639.657,-17.8715 629.103,-16.9439 630.828,-23.728"/>
</g>
<!-- Node9 -->
<g id="node9" class="node"><title>Node9</title>
<polygon fill="white" stroke="#bfbfbf" points="247.5,-0.5 247.5,-19.5 315.5,-19.5 315.5,-0.5 247.5,-0.5"/>
<text text-anchor="middle" x="281.5" y="-7.5" font-family="Helvetica,sans-Serif" font-size="10.00">sys/cdefs.h</text>
</g>
<!-- Node6&#45;&gt;Node9 -->
<g id="edge8" class="edge"><title>Node6&#45;&gt;Node9</title>
<path fill="none" stroke="midnightblue" d="M416.148,-56.4435C389.231,-47.3591 346.504,-32.9388 316.413,-22.7831"/>
<polygon fill="midnightblue" stroke="midnightblue" points="317.328,-19.3981 306.734,-19.5164 315.09,-26.0305 317.328,-19.3981"/>
</g>
<!-- Node10 -->
<g id="node10" class="node"><title>Node10</title>
<polygon fill="white" stroke="#bfbfbf" points="333.5,-0.5 333.5,-19.5 379.5,-19.5 379.5,-0.5 333.5,-0.5"/>
<text text-anchor="middle" x="356.5" y="-7.5" font-family="Helvetica,sans-Serif" font-size="10.00">stdio.h</text>
</g>
<!-- Node6&#45;&gt;Node10 -->
<g id="edge9" class="edge"><title>Node6&#45;&gt;Node10</title>
<path fill="none" stroke="midnightblue" d="M427.843,-56.324C414.584,-47.9002 394.232,-34.9709 378.654,-25.0741"/>
<polygon fill="midnightblue" stroke="midnightblue" points="380.44,-22.0626 370.123,-19.6545 376.687,-27.9711 380.44,-22.0626"/>
</g>
<!-- Node11 -->
<g id="node11" class="node"><title>Node11</title>
<polygon fill="white" stroke="#bfbfbf" points="397.5,-0.5 397.5,-19.5 449.5,-19.5 449.5,-0.5 397.5,-0.5"/>
<text text-anchor="middle" x="423.5" y="-7.5" font-family="Helvetica,sans-Serif" font-size="10.00">stdarg.h</text>
</g>
<!-- Node6&#45;&gt;Node11 -->
<g id="edge10" class="edge"><title>Node6&#45;&gt;Node11</title>
<path fill="none" stroke="midnightblue" d="M438.528,-56.083C436.116,-48.8486 432.636,-38.4087 429.632,-29.3968"/>
<polygon fill="midnightblue" stroke="midnightblue" points="432.9,-28.1311 426.417,-19.7511 426.259,-30.3447 432.9,-28.1311"/>
</g>
<!-- Node12 -->
<g id="node12" class="node"><title>Node12</title>
<g id="a_node12"><a xlink:href="../../df/dd0/px4__defines_8h.html" target="_top" xlink:title="Generally used magic defines. ">
<polygon fill="white" stroke="black" points="468,-0.5 468,-19.5 545,-19.5 545,-0.5 468,-0.5"/>
<text text-anchor="middle" x="506.5" y="-7.5" font-family="Helvetica,sans-Serif" font-size="10.00">px4_defines.h</text>
</a>
</g>
</g>
<!-- Node6&#45;&gt;Node12 -->
<g id="edge11" class="edge"><title>Node6&#45;&gt;Node12</title>
<path fill="none" stroke="midnightblue" d="M447.067,-56.083C455.264,-47.8264 469.923,-35.3943 482.754,-25.6751"/>
<polygon fill="midnightblue" stroke="midnightblue" points="484.839,-28.4861 490.835,-19.7511 480.701,-22.8405 484.839,-28.4861"/>
</g>
<!-- Node12&#45;&gt;Node6 -->
<g id="edge12" class="edge"><title>Node12&#45;&gt;Node6</title>
<path fill="none" stroke="midnightblue" d="M501.015,-19.8339C492.819,-28.1057 478.064,-40.6204 465.173,-50.3804"/>
<polygon fill="midnightblue" stroke="midnightblue" points="463.057,-47.5912 457.058,-56.324 467.194,-53.2384 463.057,-47.5912"/>
</g>
<!-- Node13&#45;&gt;Node5 -->
<g id="edge14" class="edge"><title>Node13&#45;&gt;Node5</title>
<path fill="none" stroke="midnightblue" d="M134.904,-56.083C128.273,-48.2982 118.479,-36.8015 110.442,-27.3665"/>
<polygon fill="midnightblue" stroke="midnightblue" points="113.104,-25.0939 103.955,-19.7511 107.775,-29.6332 113.104,-25.0939"/>
</g>
<!-- Node15 -->
<g id="node15" class="node"><title>Node15</title>
<polygon fill="white" stroke="#bfbfbf" points="177.5,-0.5 177.5,-19.5 229.5,-19.5 229.5,-0.5 177.5,-0.5"/>
<text text-anchor="middle" x="203.5" y="-7.5" font-family="Helvetica,sans-Serif" font-size="10.00">assert.h</text>
</g>
<!-- Node14&#45;&gt;Node15 -->
<g id="edge16" class="edge"><title>Node14&#45;&gt;Node15</title>
<path fill="none" stroke="midnightblue" d="M312.06,-56.4435C290.83,-47.5566 257.401,-33.5632 233.245,-23.4514"/>
<polygon fill="midnightblue" stroke="midnightblue" points="234.421,-20.1493 223.845,-19.5164 231.718,-26.6064 234.421,-20.1493"/>
</g>
</g>
</svg>
        <g id="navigator" transform="translate(0 0)" fill="#404254">
                <rect fill="#f2f5e9" fill-opacity="0.5" stroke="#606060" stroke-width=".5" x="0" y="0" width="60" height="60"/>
                <use id="zoomplus" xlink:href="#zoomPlus" x="17" y="9" onmousedown="handleZoom(evt,'in')"/>
                <use id="zoomminus" xlink:href="#zoomMin" x="42" y="9" onmousedown="handleZoom(evt,'out')"/>
                <use id="reset" xlink:href="#resetDef" x="30" y="36" onmousedown="handleReset()"/>
                <g id="arrowUp" xlink:href="#dirArrow" transform="translate(30 24)" onmousedown="handlePan(0,-1)">
                  <use xlink:href="#rim" fill="#404040">
                        <set attributeName="fill" to="#808080" begin="arrowUp.mouseover" end="arrowUp.mouseout"/>
                  </use>
                  <path fill="none" stroke="white" stroke-width="1.5" d="M0,-3.0v7 M-2.5,-0.5L0,-3.0L2.5,-0.5"/>
                </g>
                <g id="arrowRight" xlink:href="#dirArrow" transform="rotate(90) translate(36 -43)" onmousedown="handlePan(1,0)">
                  <use xlink:href="#rim" fill="#404040">
                        <set attributeName="fill" to="#808080" begin="arrowRight.mouseover" end="arrowRight.mouseout"/>
                  </use>
                  <path fill="none" stroke="white" stroke-width="1.5" d="M0,-3.0v7 M-2.5,-0.5L0,-3.0L2.5,-0.5"/>
                </g>
                <g id="arrowDown" xlink:href="#dirArrow" transform="rotate(180) translate(-30 -48)" onmousedown="handlePan(0,1)">
                  <use xlink:href="#rim" fill="#404040">
                        <set attributeName="fill" to="#808080" begin="arrowDown.mouseover" end="arrowDown.mouseout"/>
                  </use>
                  <path fill="none" stroke="white" stroke-width="1.5" d="M0,-3.0v7 M-2.5,-0.5L0,-3.0L2.5,-0.5"/>
                </g>
                <g id="arrowLeft" xlink:href="#dirArrow" transform="rotate(270) translate(-36 17)" onmousedown="handlePan(-1,0)">
                  <use xlink:href="#rim" fill="#404040">
                        <set attributeName="fill" to="#808080" begin="arrowLeft.mouseover" end="arrowLeft.mouseout"/>
                  </use>
                  <path fill="none" stroke="white" stroke-width="1.5" d="M0,-3.0v7 M-2.5,-0.5L0,-3.0L2.5,-0.5"/>
                </g>
        </g>
        <svg viewBox="0 0 15 15" width="100%" height="30px" preserveAspectRatio="xMaxYMin meet">
         <g id="arrow_out" transform="scale(0.3 0.3)">
          <a xlink:href="module_8cpp__incl_org.svg" target="_base">
           <rect id="button" ry="5" rx="5" y="6" x="6" height="38" width="38"
                fill="#f2f5e9" fill-opacity="0.5" stroke="#606060" stroke-width="1.0"/>
           <path id="arrow"
             d="M 11.500037,31.436501 C 11.940474,20.09759 22.043105,11.32322 32.158766,21.979434 L 37.068811,17.246167 C 37.068811,17.246167 37.088388,32 37.088388,32 L 22.160133,31.978069 C 22.160133,31.978069 26.997745,27.140456 26.997745,27.140456 C 18.528582,18.264221 13.291696,25.230495 11.500037,31.436501 z"
             style="fill:#404040;"/>
          </a>
         </g>
        </svg>
</svg>
