<?xml version="1.0" encoding="UTF-8" standalone="no"?>
<!DOCTYPE svg PUBLIC "-//W3C//DTD SVG 1.1//EN"
 "http://www.w3.org/Graphics/SVG/1.1/DTD/svg11.dtd">
<!-- Generated by graphviz version 2.38.0 (20140413.2041)
 -->
<!-- Title: board_get_uuid Pages: 1 -->
<svg width="339pt" height="66pt"
 viewBox="0.00 0.00 339.00 66.00" xmlns="http://www.w3.org/2000/svg" xmlns:xlink="http://www.w3.org/1999/xlink">
<g id="graph0" class="graph" transform="scale(1 1) rotate(0) translate(4 62)">
<title>board_get_uuid</title>
<polygon fill="white" stroke="none" points="-4,4 -4,-62 335,-62 335,4 -4,4"/>
<!-- Node1 -->
<g id="node1" class="node"><title>Node1</title>
<polygon fill="#bfbfbf" stroke="black" points="0,-19.5 0,-38.5 83,-38.5 83,-19.5 0,-19.5"/>
<text text-anchor="middle" x="41.5" y="-26.5" font-family="Helvetica,sans-Serif" font-size="10.00">board_get_uuid</text>
</g>
<!-- Node2 -->
<g id="node2" class="node"><title>Node2</title>
<g id="a_node2"><a xlink:href="../../dc/ddc/kinetis_2board__identity_8c.html#a800f74788c8393862391562e0a3d0fa4" target="_top" xlink:title="board_get_uuid32">
<polygon fill="white" stroke="black" points="119,-38.5 119,-57.5 212,-57.5 212,-38.5 119,-38.5"/>
<text text-anchor="middle" x="165.5" y="-45.5" font-family="Helvetica,sans-Serif" font-size="10.00">board_get_uuid32</text>
</a>
</g>
</g>
<!-- Node1&#45;&gt;Node2 -->
<g id="edge1" class="edge"><title>Node1&#45;&gt;Node2</title>
<path fill="none" stroke="midnightblue" d="M83.1242,-35.3267C91.2949,-36.5992 100.017,-37.9575 108.602,-39.2946"/>
<polygon fill="midnightblue" stroke="midnightblue" points="108.159,-42.7676 118.578,-40.8482 109.236,-35.851 108.159,-42.7676"/>
</g>
<!-- Node4 -->
<g id="node4" class="node"><title>Node4</title>
<g id="a_node4"><a xlink:href="../../d7/d21/px4__getopt_8c.html#a67df7a22bcc79f3b2ab2b0746a08c26d" target="_top" xlink:title="reorder">
<polygon fill="white" stroke="black" points="142,-0.5 142,-19.5 189,-19.5 189,-0.5 142,-0.5"/>
<text text-anchor="middle" x="165.5" y="-7.5" font-family="Helvetica,sans-Serif" font-size="10.00">reorder</text>
</a>
</g>
</g>
<!-- Node1&#45;&gt;Node4 -->
<g id="edge3" class="edge"><title>Node1&#45;&gt;Node4</title>
<path fill="none" stroke="midnightblue" d="M83.1242,-22.6733C98.8536,-20.2236 116.625,-17.4559 131.539,-15.1333"/>
<polygon fill="midnightblue" stroke="midnightblue" points="132.481,-18.5289 141.823,-13.5317 131.404,-11.6123 132.481,-18.5289"/>
</g>
<!-- Node3 -->
<g id="node3" class="node"><title>Node3</title>
<g id="a_node3"><a xlink:href="../../dc/ddc/kinetis_2board__identity_8c.html#a4c8de8daee2516d5243e7a1a2787709d" target="_top" xlink:title="board_get_uuid">
<polygon fill="white" stroke="black" points="248,-38.5 248,-57.5 331,-57.5 331,-38.5 248,-38.5"/>
<text text-anchor="middle" x="289.5" y="-45.5" font-family="Helvetica,sans-Serif" font-size="10.00">board_get_uuid</text>
</a>
</g>
</g>
<!-- Node2&#45;&gt;Node3 -->
<g id="edge2" class="edge"><title>Node2&#45;&gt;Node3</title>
<path fill="none" stroke="midnightblue" d="M212.275,-48C220.543,-48 229.21,-48 237.613,-48"/>
<polygon fill="midnightblue" stroke="midnightblue" points="237.688,-51.5001 247.688,-48 237.688,-44.5001 237.688,-51.5001"/>
</g>
<!-- Node5 -->
<g id="node5" class="node"><title>Node5</title>
<g id="a_node5"><a xlink:href="../../d7/d21/px4__getopt_8c.html#a1ffe4b2441fedeb10c88ef1e12bb99ad" target="_top" xlink:title="isvalidopt">
<polygon fill="white" stroke="black" points="260.5,-0.5 260.5,-19.5 318.5,-19.5 318.5,-0.5 260.5,-0.5"/>
<text text-anchor="middle" x="289.5" y="-7.5" font-family="Helvetica,sans-Serif" font-size="10.00">isvalidopt</text>
</a>
</g>
</g>
<!-- Node4&#45;&gt;Node5 -->
<g id="edge4" class="edge"><title>Node4&#45;&gt;Node5</title>
<path fill="none" stroke="midnightblue" d="M189.161,-10C206.296,-10 230.218,-10 250.293,-10"/>
<polygon fill="midnightblue" stroke="midnightblue" points="250.384,-13.5001 260.384,-10 250.384,-6.5001 250.384,-13.5001"/>
</g>
</g>
</svg>
