<?xml version="1.0" encoding="UTF-8" standalone="no"?>
<!DOCTYPE svg PUBLIC "-//W3C//DTD SVG 1.1//EN"
 "http://www.w3.org/Graphics/SVG/1.1/DTD/svg11.dtd">
<!-- Generated by graphviz version 2.40.1 (20161225.0304)
 -->
<!-- Title: at24c_bread Pages: 1 -->
<svg width="306pt" height="104pt"
 viewBox="0.00 0.00 306.00 104.00" xmlns="http://www.w3.org/2000/svg" xmlns:xlink="http://www.w3.org/1999/xlink">
<g id="graph0" class="graph" transform="scale(1 1) rotate(0) translate(4 100)">
<title>at24c_bread</title>
<polygon fill="#ffffff" stroke="transparent" points="-4,4 -4,-100 302,-100 302,4 -4,4"/>
<!-- Node0 -->
<g id="node1" class="node">
<title>Node0</title>
<polygon fill="#bfbfbf" stroke="#000000" points="0,-38.5 0,-57.5 70,-57.5 70,-38.5 0,-38.5"/>
<text text-anchor="middle" x="35" y="-45.5" font-family="Helvetica,sans-Serif" font-size="10.00" fill="#000000">at24c_bread</text>
</g>
<!-- Node1 -->
<g id="node2" class="node">
<title>Node1</title>
<g id="a_node2"><a xlink:href="../../df/d7b/perf__counter_8cpp.html#a29199d9ba42a60894e4f593f677ff2d7" target="_top" xlink:title="Begin a performance event. ">
<polygon fill="#ffffff" stroke="#000000" points="106,-76.5 106,-95.5 168,-95.5 168,-76.5 106,-76.5"/>
<text text-anchor="middle" x="137" y="-83.5" font-family="Helvetica,sans-Serif" font-size="10.00" fill="#000000">perf_begin</text>
</a>
</g>
</g>
<!-- Node0&#45;&gt;Node1 -->
<g id="edge1" class="edge">
<title>Node0&#45;&gt;Node1</title>
<path fill="none" stroke="#191970" d="M60.7389,-57.589C73.1813,-62.2244 88.3075,-67.8596 101.7975,-72.8853"/>
<polygon fill="#191970" stroke="#191970" points="100.6766,-76.2027 111.2693,-76.4141 103.1204,-69.6431 100.6766,-76.2027"/>
</g>
<!-- Node3 -->
<g id="node4" class="node">
<title>Node3</title>
<g id="a_node4"><a xlink:href="../../df/d7b/perf__counter_8cpp.html#a4a775bcac1518a89f1137003985d9e65" target="_top" xlink:title="Count a performance event. ">
<polygon fill="#ffffff" stroke="#000000" points="106,-38.5 106,-57.5 168,-57.5 168,-38.5 106,-38.5"/>
<text text-anchor="middle" x="137" y="-45.5" font-family="Helvetica,sans-Serif" font-size="10.00" fill="#000000">perf_count</text>
</a>
</g>
</g>
<!-- Node0&#45;&gt;Node3 -->
<g id="edge3" class="edge">
<title>Node0&#45;&gt;Node3</title>
<path fill="none" stroke="#191970" d="M70.1026,-48C78.3784,-48 87.2747,-48 95.7923,-48"/>
<polygon fill="#191970" stroke="#191970" points="95.927,-51.5001 105.927,-48 95.927,-44.5001 95.927,-51.5001"/>
</g>
<!-- Node4 -->
<g id="node5" class="node">
<title>Node4</title>
<g id="a_node5"><a xlink:href="../../df/d7b/perf__counter_8cpp.html#a8a89ea6639744897e494e5d2139751aa" target="_top" xlink:title="End a performance event. ">
<polygon fill="#ffffff" stroke="#000000" points="110,-.5 110,-19.5 164,-19.5 164,-.5 110,-.5"/>
<text text-anchor="middle" x="137" y="-7.5" font-family="Helvetica,sans-Serif" font-size="10.00" fill="#000000">perf_end</text>
</a>
</g>
</g>
<!-- Node0&#45;&gt;Node4 -->
<g id="edge5" class="edge">
<title>Node0&#45;&gt;Node4</title>
<path fill="none" stroke="#191970" d="M60.7389,-38.411C73.1813,-33.7756 88.3075,-28.1404 101.7975,-23.1147"/>
<polygon fill="#191970" stroke="#191970" points="103.1204,-26.3569 111.2693,-19.5859 100.6766,-19.7973 103.1204,-26.3569"/>
</g>
<!-- Node2 -->
<g id="node3" class="node">
<title>Node2</title>
<g id="a_node3"><a xlink:href="../../d6/d10/drv__hrt_8h.html#a1450e339b7c5b8d47656500167a6676d" target="_top" xlink:title="Get absolute time in [us] (does not wrap). ">
<polygon fill="#ffffff" stroke="#000000" points="204,-38.5 204,-57.5 298,-57.5 298,-38.5 204,-38.5"/>
<text text-anchor="middle" x="251" y="-45.5" font-family="Helvetica,sans-Serif" font-size="10.00" fill="#000000">hrt_absolute_time</text>
</a>
</g>
</g>
<!-- Node1&#45;&gt;Node2 -->
<g id="edge2" class="edge">
<title>Node1&#45;&gt;Node2</title>
<path fill="none" stroke="#191970" d="M165.767,-76.411C179.9433,-71.6856 197.2366,-65.9211 212.5322,-60.8226"/>
<polygon fill="#191970" stroke="#191970" points="213.8622,-64.0687 222.2422,-57.5859 211.6485,-57.4279 213.8622,-64.0687"/>
</g>
<!-- Node3&#45;&gt;Node2 -->
<g id="edge4" class="edge">
<title>Node3&#45;&gt;Node2</title>
<path fill="none" stroke="#191970" d="M168.151,-48C176.0166,-48 184.7154,-48 193.4318,-48"/>
<polygon fill="#191970" stroke="#191970" points="193.6235,-51.5001 203.6235,-48 193.6235,-44.5001 193.6235,-51.5001"/>
</g>
<!-- Node4&#45;&gt;Node2 -->
<g id="edge6" class="edge">
<title>Node4&#45;&gt;Node2</title>
<path fill="none" stroke="#191970" d="M164.0164,-19.0055C178.5203,-23.8401 196.6449,-29.8816 212.5901,-35.1967"/>
<polygon fill="#191970" stroke="#191970" points="211.591,-38.5529 222.1847,-38.3949 213.8046,-31.9121 211.591,-38.5529"/>
</g>
</g>
</svg>
