<?xml version="1.0" encoding="UTF-8" standalone="no"?>
<!DOCTYPE svg PUBLIC "-//W3C//DTD SVG 1.1//EN"
 "http://www.w3.org/Graphics/SVG/1.1/DTD/svg11.dtd">
<!-- Generated by graphviz version 2.38.0 (20140413.2041)
 -->
<!-- Title: MissionBlock::set_loiter_item Pages: 1 -->
<!--zoomable 260 -->
<svg id="main" version="1.1" xmlns="http://www.w3.org/2000/svg" xmlns:xlink="http://www.w3.org/1999/xlink" xml:space="preserve" onload="init(evt)">
<style type="text/css"><![CDATA[
.edge:hover path { stroke: red; }
.edge:hover polygon { stroke: red; fill: red; }
]]></style>
<script type="text/javascript"><![CDATA[
var edges = document.getElementsByTagName('g');
if (edges && edges.length) {
  for (var i=0;i<edges.length;i++) {
    if (edges[i].id.substr(0,4)=='edge') {
      edges[i].setAttribute('class','edge');
    }
  }
}
]]></script>
        <defs>
                <circle id="rim" cx="0" cy="0" r="7"/>
                <circle id="rim2" cx="0" cy="0" r="3.5"/>
                <g id="zoomPlus">
                        <use xlink:href="#rim" fill="#404040">
                                <set attributeName="fill" to="#808080" begin="zoomplus.mouseover" end="zoomplus.mouseout"/>
                        </use>
                        <path d="M-4,0h8M0,-4v8" fill="none" stroke="white" stroke-width="1.5" pointer-events="none"/>
                </g>
                <g id="zoomMin">
                        <use xlink:href="#rim" fill="#404040">
                                <set attributeName="fill" to="#808080" begin="zoomminus.mouseover" end="zoomminus.mouseout"/>
                        </use>
                        <path d="M-4,0h8" fill="none" stroke="white" stroke-width="1.5" pointer-events="none"/>
                </g>
                <g id="dirArrow">
                        <path fill="none" stroke="white" stroke-width="1.5" d="M0,-3.0v7 M-2.5,-0.5L0,-3.0L2.5,-0.5"/>
                </g>
               <g id="resetDef">
                       <use xlink:href="#rim2" fill="#404040">
                               <set attributeName="fill" to="#808080" begin="reset.mouseover" end="reset.mouseout"/>
                       </use>
               </g>
        </defs>

<script type="text/javascript">
var viewWidth = 1026;
var viewHeight = 260;
var sectionId = 'dynsection-20';
</script>
<script xlink:href="../../svgpan.js"/>
<svg id="graph" class="graph">
<g id="viewport">
<title>MissionBlock::set_loiter_item</title>
<polygon fill="white" stroke="none" points="-4,4 -4,-256 1022,-256 1022,4 -4,4"/>
<!-- Node1 -->
<g id="node1" class="node"><title>Node1</title>
<polygon fill="#bfbfbf" stroke="black" points="0,-188.5 0,-207.5 145,-207.5 145,-188.5 0,-188.5"/>
<text text-anchor="middle" x="72.5" y="-195.5" font-family="Helvetica,sans-Serif" font-size="10.00">MissionBlock::set_loiter_item</text>
</g>
<!-- Node2 -->
<g id="node2" class="node"><title>Node2</title>
<g id="a_node2"><a xlink:href="../../d8/d13/class_takeoff.html#a222d4e276bc3b82aca68af486cf9297f" target="_top" xlink:title="This function is called while the mode is active. ">
<polygon fill="white" stroke="black" points="186.5,-232.5 186.5,-251.5 284.5,-251.5 284.5,-232.5 186.5,-232.5"/>
<text text-anchor="middle" x="235.5" y="-239.5" font-family="Helvetica,sans-Serif" font-size="10.00">Takeoff::on_active</text>
</a>
</g>
</g>
<!-- Node1&#45;&gt;Node2 -->
<g id="edge1" class="edge"><title>Node1&#45;&gt;Node2</title>
<path fill="none" stroke="midnightblue" d="M118.316,-210.248C144.02,-217.272 175.808,-225.96 199.634,-232.471"/>
<polygon fill="midnightblue" stroke="midnightblue" points="119.004,-206.807 108.435,-207.547 117.158,-213.56 119.004,-206.807"/>
</g>
<!-- Node3 -->
<g id="node3" class="node"><title>Node3</title>
<g id="a_node3"><a xlink:href="../../d5/da0/class_loiter.html#aac8e6e7fba3b661e8e33e5fb9b971622" target="_top" xlink:title="Set the position to hold based on the current local position. ">
<polygon fill="white" stroke="black" points="192.5,-183 192.5,-213 278.5,-213 278.5,-183 192.5,-183"/>
<text text-anchor="start" x="200.5" y="-201" font-family="Helvetica,sans-Serif" font-size="10.00">Loiter::set_loiter</text>
<text text-anchor="middle" x="235.5" y="-190" font-family="Helvetica,sans-Serif" font-size="10.00">_position</text>
</a>
</g>
</g>
<!-- Node1&#45;&gt;Node3 -->
<g id="edge2" class="edge"><title>Node1&#45;&gt;Node3</title>
<path fill="none" stroke="midnightblue" d="M155.298,-198C168.091,-198 180.839,-198 192.252,-198"/>
<polygon fill="midnightblue" stroke="midnightblue" points="155.055,-194.5 145.055,-198 155.055,-201.5 155.055,-194.5"/>
</g>
<!-- Node5 -->
<g id="node5" class="node"><title>Node5</title>
<g id="a_node5"><a xlink:href="../../db/dad/class_mission.html#a2f25f09d8e1688237be7a0abb28d542a" target="_top" xlink:title="Set new mission items. ">
<polygon fill="white" stroke="black" points="181,-121 181,-151 290,-151 290,-121 181,-121"/>
<text text-anchor="start" x="189" y="-139" font-family="Helvetica,sans-Serif" font-size="10.00">Mission::set_mission</text>
<text text-anchor="middle" x="235.5" y="-128" font-family="Helvetica,sans-Serif" font-size="10.00">_items</text>
</a>
</g>
</g>
<!-- Node1&#45;&gt;Node5 -->
<g id="edge4" class="edge"><title>Node1&#45;&gt;Node5</title>
<path fill="none" stroke="midnightblue" d="M107.967,-184.727C133.58,-174.864 168.558,-161.394 195.248,-151.116"/>
<polygon fill="midnightblue" stroke="midnightblue" points="106.378,-181.588 98.3034,-188.448 108.893,-188.121 106.378,-181.588"/>
</g>
<!-- Node4 -->
<g id="node4" class="node"><title>Node4</title>
<g id="a_node4"><a xlink:href="../../d5/da0/class_loiter.html#ad8fedd17e85b7834ba0ca9763106ba8b" target="_top" xlink:title="This function is called one time when mode becomes active, pos_sp_triplet must be initialized here...">
<polygon fill="white" stroke="black" points="336.5,-202.5 336.5,-221.5 440.5,-221.5 440.5,-202.5 336.5,-202.5"/>
<text text-anchor="middle" x="388.5" y="-209.5" font-family="Helvetica,sans-Serif" font-size="10.00">Loiter::on_activation</text>
</a>
</g>
</g>
<!-- Node3&#45;&gt;Node4 -->
<g id="edge3" class="edge"><title>Node3&#45;&gt;Node4</title>
<path fill="none" stroke="midnightblue" d="M288.92,-202.86C304.258,-204.282 321.002,-205.835 336.265,-207.25"/>
<polygon fill="midnightblue" stroke="midnightblue" points="288.842,-199.338 278.562,-201.9 288.196,-206.308 288.842,-199.338"/>
</g>
<!-- Node6 -->
<g id="node6" class="node"><title>Node6</title>
<g id="a_node6"><a xlink:href="../../db/dad/class_mission.html#a66faf42bbcad511839c305a80893ee38" target="_top" xlink:title="Mission::get_mission\l_waypoints_changed">
<polygon fill="white" stroke="black" points="487,-149 487,-179 596,-179 596,-149 487,-149"/>
<text text-anchor="start" x="495" y="-167" font-family="Helvetica,sans-Serif" font-size="10.00">Mission::get_mission</text>
<text text-anchor="middle" x="541.5" y="-156" font-family="Helvetica,sans-Serif" font-size="10.00">_waypoints_changed</text>
</a>
</g>
</g>
<!-- Node5&#45;&gt;Node6 -->
<g id="edge5" class="edge"><title>Node5&#45;&gt;Node6</title>
<path fill="none" stroke="midnightblue" d="M300.233,-150.888C308.856,-152.503 317.618,-153.942 326,-155 380.544,-161.885 443.443,-163.824 486.962,-164.23"/>
<polygon fill="midnightblue" stroke="midnightblue" points="300.692,-147.412 290.205,-148.923 299.346,-154.281 300.692,-147.412"/>
</g>
<!-- Node8 -->
<g id="node8" class="node"><title>Node8</title>
<g id="a_node8"><a xlink:href="../../db/dad/class_mission.html#a3561ffcb7a9229e67b0ff553f4853ea3" target="_top" xlink:title="This function is called one time when mode becomes active, pos_sp_triplet must be initialized here...">
<polygon fill="white" stroke="black" points="331.5,-126.5 331.5,-145.5 445.5,-145.5 445.5,-126.5 331.5,-126.5"/>
<text text-anchor="middle" x="388.5" y="-133.5" font-family="Helvetica,sans-Serif" font-size="10.00">Mission::on_activation</text>
</a>
</g>
</g>
<!-- Node5&#45;&gt;Node8 -->
<g id="edge7" class="edge"><title>Node5&#45;&gt;Node8</title>
<path fill="none" stroke="midnightblue" d="M300.366,-136C310.698,-136 321.329,-136 331.458,-136"/>
<polygon fill="midnightblue" stroke="midnightblue" points="300.162,-132.5 290.162,-136 300.162,-139.5 300.162,-132.5"/>
</g>
<!-- Node9 -->
<g id="node9" class="node"><title>Node9</title>
<g id="a_node9"><a xlink:href="../../db/dad/class_mission.html#a14c34cbf0575ae27e9f016b1e038b8e8" target="_top" xlink:title="This function is called while the mode is active. ">
<polygon fill="white" stroke="black" points="339.5,-88.5 339.5,-107.5 437.5,-107.5 437.5,-88.5 339.5,-88.5"/>
<text text-anchor="middle" x="388.5" y="-95.5" font-family="Helvetica,sans-Serif" font-size="10.00">Mission::on_active</text>
</a>
</g>
</g>
<!-- Node5&#45;&gt;Node9 -->
<g id="edge8" class="edge"><title>Node5&#45;&gt;Node9</title>
<path fill="none" stroke="midnightblue" d="M299.99,-120.022C316.888,-115.77 334.61,-111.31 349.652,-107.525"/>
<polygon fill="midnightblue" stroke="midnightblue" points="299.006,-116.661 290.162,-122.496 300.714,-123.449 299.006,-116.661"/>
</g>
<!-- Node10 -->
<g id="node10" class="node"><title>Node10</title>
<g id="a_node10"><a xlink:href="../../db/dad/class_mission.html#ae9f26d718c3f24b86b1ee8fc19a45c35" target="_top" xlink:title="Mission::set_current\l_offboard_mission_index">
<polygon fill="white" stroke="black" points="326,-39 326,-69 451,-69 451,-39 326,-39"/>
<text text-anchor="start" x="334" y="-57" font-family="Helvetica,sans-Serif" font-size="10.00">Mission::set_current</text>
<text text-anchor="middle" x="388.5" y="-46" font-family="Helvetica,sans-Serif" font-size="10.00">_offboard_mission_index</text>
</a>
</g>
</g>
<!-- Node5&#45;&gt;Node10 -->
<g id="edge9" class="edge"><title>Node5&#45;&gt;Node10</title>
<path fill="none" stroke="midnightblue" d="M266.33,-115.078C283.361,-103.63 305.37,-89.6511 326,-79 332.759,-75.5103 340.121,-72.1583 347.325,-69.1049"/>
<polygon fill="midnightblue" stroke="midnightblue" points="264.213,-112.286 257.912,-120.804 268.149,-118.074 264.213,-112.286"/>
</g>
<!-- Node7 -->
<g id="node7" class="node"><title>Node7</title>
<g id="a_node7"><a xlink:href="../../d0/df9/class_navigator.html#a3017930bf9ef9f3d6ead0a79989e4086" target="_top" xlink:title="Navigator::run">
<polygon fill="white" stroke="black" points="798,-82.5 798,-101.5 876,-101.5 876,-82.5 798,-82.5"/>
<text text-anchor="middle" x="837" y="-89.5" font-family="Helvetica,sans-Serif" font-size="10.00">Navigator::run</text>
</a>
</g>
</g>
<!-- Node6&#45;&gt;Node7 -->
<g id="edge6" class="edge"><title>Node6&#45;&gt;Node7</title>
<path fill="none" stroke="midnightblue" d="M606.006,-155.831C648.659,-149.498 705.836,-139.361 755,-125 776.28,-118.784 799.634,-108.925 815.774,-101.599"/>
<polygon fill="midnightblue" stroke="midnightblue" points="605.432,-152.378 596.04,-157.281 606.44,-159.305 605.432,-152.378"/>
</g>
<!-- Node10&#45;&gt;Node7 -->
<g id="edge17" class="edge"><title>Node10&#45;&gt;Node7</title>
<path fill="none" stroke="midnightblue" d="M461.323,-68.7497C469.956,-70.2993 478.663,-71.759 487,-73 551.082,-82.539 567.334,-84.0281 632,-88 689.808,-91.5506 756.988,-92.1975 797.988,-92.2014"/>
<polygon fill="midnightblue" stroke="midnightblue" points="461.719,-65.2638 451.25,-66.897 460.452,-72.1483 461.719,-65.2638"/>
</g>
<!-- Node11 -->
<g id="node11" class="node"><title>Node11</title>
<g id="a_node11"><a xlink:href="../../db/dad/class_mission.html#a0d0bfe31ec4e43f1de757a81f2b40598" target="_top" xlink:title="Mission::land_start">
<polygon fill="white" stroke="black" points="492,-44.5 492,-63.5 591,-63.5 591,-44.5 492,-44.5"/>
<text text-anchor="middle" x="541.5" y="-51.5" font-family="Helvetica,sans-Serif" font-size="10.00">Mission::land_start</text>
</a>
</g>
</g>
<!-- Node10&#45;&gt;Node11 -->
<g id="edge10" class="edge"><title>Node10&#45;&gt;Node11</title>
<path fill="none" stroke="midnightblue" d="M461.578,-54C471.86,-54 482.226,-54 491.913,-54"/>
<polygon fill="midnightblue" stroke="midnightblue" points="461.353,-50.5001 451.353,-54 461.353,-57.5001 461.353,-50.5001"/>
</g>
<!-- Node11&#45;&gt;Node7 -->
<g id="edge11" class="edge"><title>Node11&#45;&gt;Node7</title>
<path fill="none" stroke="midnightblue" d="M601.503,-61.6392C660.021,-69.2157 747.957,-80.601 797.853,-87.0611"/>
<polygon fill="midnightblue" stroke="midnightblue" points="601.662,-58.1306 591.295,-60.3176 600.763,-65.0727 601.662,-58.1306"/>
</g>
<!-- Node12 -->
<g id="node12" class="node"><title>Node12</title>
<g id="a_node12"><a xlink:href="../../d0/df9/class_navigator.html#a0a39ebe10ae1314fe8378c1d98481160" target="_top" xlink:title="Navigator::start_mission\l_landing">
<polygon fill="white" stroke="black" points="632,-14 632,-44 755,-44 755,-14 632,-14"/>
<text text-anchor="start" x="640" y="-32" font-family="Helvetica,sans-Serif" font-size="10.00">Navigator::start_mission</text>
<text text-anchor="middle" x="693.5" y="-21" font-family="Helvetica,sans-Serif" font-size="10.00">_landing</text>
</a>
</g>
</g>
<!-- Node11&#45;&gt;Node12 -->
<g id="edge12" class="edge"><title>Node11&#45;&gt;Node12</title>
<path fill="none" stroke="midnightblue" d="M601.15,-44.225C611.268,-42.5387 621.803,-40.7829 631.969,-39.0885"/>
<polygon fill="midnightblue" stroke="midnightblue" points="600.489,-40.7868 591.201,-45.8832 601.64,-47.6915 600.489,-40.7868"/>
</g>
<!-- Node12&#45;&gt;Node7 -->
<g id="edge13" class="edge"><title>Node12&#45;&gt;Node7</title>
<path fill="none" stroke="midnightblue" d="M737.79,-48.274C763.107,-59.5458 793.976,-73.2897 814.267,-82.3239"/>
<polygon fill="midnightblue" stroke="midnightblue" points="738.952,-44.9601 728.393,-44.0901 736.105,-51.3549 738.952,-44.9601"/>
</g>
<!-- Node13 -->
<g id="node13" class="node"><title>Node13</title>
<g id="a_node13"><a xlink:href="../../d8/d7e/class_r_t_l.html#ac93a9b9eced62dcee0c700ee8f5faca7" target="_top" xlink:title="Set the RTL item. ">
<polygon fill="white" stroke="black" points="791,-19.5 791,-38.5 883,-38.5 883,-19.5 791,-19.5"/>
<text text-anchor="middle" x="837" y="-26.5" font-family="Helvetica,sans-Serif" font-size="10.00">RTL::set_rtl_item</text>
</a>
</g>
</g>
<!-- Node12&#45;&gt;Node13 -->
<g id="edge14" class="edge"><title>Node12&#45;&gt;Node13</title>
<path fill="none" stroke="midnightblue" d="M765.375,-29C773.957,-29 782.536,-29 790.608,-29"/>
<polygon fill="midnightblue" stroke="midnightblue" points="765.33,-25.5001 755.33,-29 765.33,-32.5001 765.33,-25.5001"/>
</g>
<!-- Node14 -->
<g id="node14" class="node"><title>Node14</title>
<g id="a_node14"><a xlink:href="../../d8/d7e/class_r_t_l.html#a08d3ece18df6bf8f59cbd73c05aceafe" target="_top" xlink:title="This function is called one time when mode becomes active, pos_sp_triplet must be initialized here...">
<polygon fill="white" stroke="black" points="919,-38.5 919,-57.5 1018,-57.5 1018,-38.5 919,-38.5"/>
<text text-anchor="middle" x="968.5" y="-45.5" font-family="Helvetica,sans-Serif" font-size="10.00">RTL::on_activation</text>
</a>
</g>
</g>
<!-- Node13&#45;&gt;Node14 -->
<g id="edge15" class="edge"><title>Node13&#45;&gt;Node14</title>
<path fill="none" stroke="midnightblue" d="M893.195,-37.098C901.75,-38.3533 910.533,-39.6419 918.928,-40.8736"/>
<polygon fill="midnightblue" stroke="midnightblue" points="893.695,-33.6341 883.293,-35.6453 892.679,-40.5599 893.695,-33.6341"/>
</g>
<!-- Node15 -->
<g id="node15" class="node"><title>Node15</title>
<g id="a_node15"><a xlink:href="../../d8/d7e/class_r_t_l.html#a897039ae531d95ffd7f953edbc714b88" target="_top" xlink:title="This function is called while the mode is active. ">
<polygon fill="white" stroke="black" points="927,-0.5 927,-19.5 1010,-19.5 1010,-0.5 927,-0.5"/>
<text text-anchor="middle" x="968.5" y="-7.5" font-family="Helvetica,sans-Serif" font-size="10.00">RTL::on_active</text>
</a>
</g>
</g>
<!-- Node13&#45;&gt;Node15 -->
<g id="edge16" class="edge"><title>Node13&#45;&gt;Node15</title>
<path fill="none" stroke="midnightblue" d="M893.428,-20.8678C904.623,-19.2252 916.197,-17.527 926.775,-15.9751"/>
<polygon fill="midnightblue" stroke="midnightblue" points="892.679,-17.4401 883.293,-22.3547 893.695,-24.3659 892.679,-17.4401"/>
</g>
</g>
</svg>
        <g id="navigator" transform="translate(0 0)" fill="#404254">
                <rect fill="#f2f5e9" fill-opacity="0.5" stroke="#606060" stroke-width=".5" x="0" y="0" width="60" height="60"/>
                <use id="zoomplus" xlink:href="#zoomPlus" x="17" y="9" onmousedown="handleZoom(evt,'in')"/>
                <use id="zoomminus" xlink:href="#zoomMin" x="42" y="9" onmousedown="handleZoom(evt,'out')"/>
                <use id="reset" xlink:href="#resetDef" x="30" y="36" onmousedown="handleReset()"/>
                <g id="arrowUp" xlink:href="#dirArrow" transform="translate(30 24)" onmousedown="handlePan(0,-1)">
                  <use xlink:href="#rim" fill="#404040">
                        <set attributeName="fill" to="#808080" begin="arrowUp.mouseover" end="arrowUp.mouseout"/>
                  </use>
                  <path fill="none" stroke="white" stroke-width="1.5" d="M0,-3.0v7 M-2.5,-0.5L0,-3.0L2.5,-0.5"/>
                </g>
                <g id="arrowRight" xlink:href="#dirArrow" transform="rotate(90) translate(36 -43)" onmousedown="handlePan(1,0)">
                  <use xlink:href="#rim" fill="#404040">
                        <set attributeName="fill" to="#808080" begin="arrowRight.mouseover" end="arrowRight.mouseout"/>
                  </use>
                  <path fill="none" stroke="white" stroke-width="1.5" d="M0,-3.0v7 M-2.5,-0.5L0,-3.0L2.5,-0.5"/>
                </g>
                <g id="arrowDown" xlink:href="#dirArrow" transform="rotate(180) translate(-30 -48)" onmousedown="handlePan(0,1)">
                  <use xlink:href="#rim" fill="#404040">
                        <set attributeName="fill" to="#808080" begin="arrowDown.mouseover" end="arrowDown.mouseout"/>
                  </use>
                  <path fill="none" stroke="white" stroke-width="1.5" d="M0,-3.0v7 M-2.5,-0.5L0,-3.0L2.5,-0.5"/>
                </g>
                <g id="arrowLeft" xlink:href="#dirArrow" transform="rotate(270) translate(-36 17)" onmousedown="handlePan(-1,0)">
                  <use xlink:href="#rim" fill="#404040">
                        <set attributeName="fill" to="#808080" begin="arrowLeft.mouseover" end="arrowLeft.mouseout"/>
                  </use>
                  <path fill="none" stroke="white" stroke-width="1.5" d="M0,-3.0v7 M-2.5,-0.5L0,-3.0L2.5,-0.5"/>
                </g>
        </g>
        <svg viewBox="0 0 15 15" width="100%" height="30px" preserveAspectRatio="xMaxYMin meet">
         <g id="arrow_out" transform="scale(0.3 0.3)">
          <a xlink:href="class_mission_block_a47b729d8b256178cfc4515acb74ce9e0_icgraph_org.svg" target="_base">
           <rect id="button" ry="5" rx="5" y="6" x="6" height="38" width="38"
                fill="#f2f5e9" fill-opacity="0.5" stroke="#606060" stroke-width="1.0"/>
           <path id="arrow"
             d="M 11.500037,31.436501 C 11.940474,20.09759 22.043105,11.32322 32.158766,21.979434 L 37.068811,17.246167 C 37.068811,17.246167 37.088388,32 37.088388,32 L 22.160133,31.978069 C 22.160133,31.978069 26.997745,27.140456 26.997745,27.140456 C 18.528582,18.264221 13.291696,25.230495 11.500037,31.436501 z"
             style="fill:#404040;"/>
          </a>
         </g>
        </svg>
</svg>
