<?xml version="1.0" encoding="UTF-8" standalone="no"?>
<!DOCTYPE svg PUBLIC "-//W3C//DTD SVG 1.1//EN"
 "http://www.w3.org/Graphics/SVG/1.1/DTD/svg11.dtd">
<!-- Generated by graphviz version 2.38.0 (20140413.2041)
 -->
<!-- Title: MS5525::cycle Pages: 1 -->
<svg width="1468pt" height="413pt"
 viewBox="0.00 0.00 1468.00 412.50" xmlns="http://www.w3.org/2000/svg" xmlns:xlink="http://www.w3.org/1999/xlink">
<g id="graph0" class="graph" transform="scale(1 1) rotate(0) translate(4 408.5)">
<title>MS5525::cycle</title>
<polygon fill="white" stroke="none" points="-4,4 -4,-408.5 1464,-408.5 1464,4 -4,4"/>
<!-- Node1 -->
<g id="node1" class="node"><title>Node1</title>
<polygon fill="#bfbfbf" stroke="black" points="0,-76.5 0,-95.5 82,-95.5 82,-76.5 0,-76.5"/>
<text text-anchor="middle" x="41" y="-83.5" font-family="Helvetica,sans-Serif" font-size="10.00">MS5525::cycle</text>
</g>
<!-- Node2 -->
<g id="node2" class="node"><title>Node2</title>
<g id="a_node2"><a xlink:href="../../d6/dc0/class_m_s5525.html#ad04927be289f23cb4793086ff87469dd" target="_top" xlink:title="MS5525::collect">
<polygon fill="white" stroke="black" points="122.5,-237.5 122.5,-256.5 209.5,-256.5 209.5,-237.5 122.5,-237.5"/>
<text text-anchor="middle" x="166" y="-244.5" font-family="Helvetica,sans-Serif" font-size="10.00">MS5525::collect</text>
</a>
</g>
</g>
<!-- Node1&#45;&gt;Node2 -->
<g id="edge1" class="edge"><title>Node1&#45;&gt;Node2</title>
<path fill="none" stroke="midnightblue" d="M49.3259,-95.5891C69.3605,-121.813 125.297,-195.031 151.339,-229.118"/>
<polygon fill="midnightblue" stroke="midnightblue" points="148.705,-231.436 157.557,-237.258 154.267,-227.186 148.705,-231.436"/>
</g>
<!-- Node26 -->
<g id="node26" class="node"><title>Node26</title>
<g id="a_node26"><a xlink:href="../../d8/daf/class_airspeed.html#a8eba04e2651ee7f7f06f2b68bbecb440" target="_top" xlink:title="Static trampoline from the workq context; because we don&#39;t have a generic workq wrapper yet...">
<polygon fill="white" stroke="black" points="250,-19.5 250,-38.5 384,-38.5 384,-19.5 250,-19.5"/>
<text text-anchor="middle" x="317" y="-26.5" font-family="Helvetica,sans-Serif" font-size="10.00">Airspeed::cycle_trampoline</text>
</a>
</g>
</g>
<!-- Node1&#45;&gt;Node26 -->
<g id="edge27" class="edge"><title>Node1&#45;&gt;Node26</title>
<path fill="none" stroke="midnightblue" d="M82.1354,-77.6507C129.196,-67.8607 207.476,-51.5761 260.373,-40.572"/>
<polygon fill="midnightblue" stroke="midnightblue" points="261.192,-43.9767 270.269,-38.5133 259.766,-37.1234 261.192,-43.9767"/>
</g>
<!-- Node28 -->
<g id="node28" class="node"><title>Node28</title>
<g id="a_node28"><a xlink:href="../../d6/dc0/class_m_s5525.html#a0096497b6760d2bea8e8e4eef1356a2d" target="_top" xlink:title="MS5525::measure">
<polygon fill="white" stroke="black" points="118,-95.5 118,-114.5 214,-114.5 214,-95.5 118,-95.5"/>
<text text-anchor="middle" x="166" y="-102.5" font-family="Helvetica,sans-Serif" font-size="10.00">MS5525::measure</text>
</a>
</g>
</g>
<!-- Node1&#45;&gt;Node28 -->
<g id="edge29" class="edge"><title>Node1&#45;&gt;Node28</title>
<path fill="none" stroke="midnightblue" d="M82.2748,-92.2213C90.4327,-93.4815 99.1585,-94.8294 107.772,-96.1599"/>
<polygon fill="midnightblue" stroke="midnightblue" points="107.374,-99.6399 117.791,-97.7076 108.443,-92.7219 107.374,-99.6399"/>
</g>
<!-- Node32 -->
<g id="node32" class="node"><title>Node32</title>
<g id="a_node32"><a xlink:href="../../d8/daf/class_airspeed.html#a68fc3d30a0797e4288a0e3944ffc532c" target="_top" xlink:title="Initialise the automatic measurement state machine and start it. ">
<polygon fill="white" stroke="black" points="126,-19.5 126,-38.5 206,-38.5 206,-19.5 126,-19.5"/>
<text text-anchor="middle" x="166" y="-26.5" font-family="Helvetica,sans-Serif" font-size="10.00">Airspeed::start</text>
</a>
</g>
</g>
<!-- Node1&#45;&gt;Node32 -->
<g id="edge35" class="edge"><title>Node1&#45;&gt;Node32</title>
<path fill="none" stroke="midnightblue" d="M62.5874,-76.4595C82.4544,-67.2528 112.746,-53.2153 135.237,-42.7926"/>
<polygon fill="midnightblue" stroke="midnightblue" points="136.744,-45.9519 144.345,-38.5716 133.801,-39.6007 136.744,-45.9519"/>
</g>
<!-- Node3 -->
<g id="node3" class="node"><title>Node3</title>
<g id="a_node3"><a xlink:href="../../de/dfc/classmath_1_1_low_pass_filter2p.html#a560a894bf85c80e56091096e2e9fc253" target="_top" xlink:title="Add a new raw value to the filter. ">
<polygon fill="white" stroke="black" points="258.5,-374 258.5,-404 375.5,-404 375.5,-374 258.5,-374"/>
<text text-anchor="start" x="266.5" y="-392" font-family="Helvetica,sans-Serif" font-size="10.00">math::LowPassFilter2p</text>
<text text-anchor="middle" x="317" y="-381" font-family="Helvetica,sans-Serif" font-size="10.00">::apply</text>
</a>
</g>
</g>
<!-- Node2&#45;&gt;Node3 -->
<g id="edge2" class="edge"><title>Node2&#45;&gt;Node3</title>
<path fill="none" stroke="midnightblue" d="M171.942,-256.682C183.167,-277.84 212.546,-328.723 250,-359 254.64,-362.751 259.825,-366.142 265.194,-369.177"/>
<polygon fill="midnightblue" stroke="midnightblue" points="263.854,-372.425 274.339,-373.949 267.093,-366.22 263.854,-372.425"/>
</g>
<!-- Node5 -->
<g id="node5" class="node"><title>Node5</title>
<g id="a_node5"><a xlink:href="../../d6/d10/drv__hrt_8h.html#a1450e339b7c5b8d47656500167a6676d" target="_top" xlink:title="Get absolute time in [us] (does not wrap). ">
<polygon fill="white" stroke="black" points="935.5,-354.5 935.5,-373.5 1029.5,-373.5 1029.5,-354.5 935.5,-354.5"/>
<text text-anchor="middle" x="982.5" y="-361.5" font-family="Helvetica,sans-Serif" font-size="10.00">hrt_absolute_time</text>
</a>
</g>
</g>
<!-- Node2&#45;&gt;Node5 -->
<g id="edge4" class="edge"><title>Node2&#45;&gt;Node5</title>
<path fill="none" stroke="midnightblue" d="M173.947,-256.532C186.802,-273.331 216.104,-307.864 250,-323 340.736,-363.518 373.129,-345 472.5,-345 472.5,-345 472.5,-345 634,-345 736.871,-345 856.616,-353.404 925.288,-359.034"/>
<polygon fill="midnightblue" stroke="midnightblue" points="925.196,-362.538 935.451,-359.877 925.775,-355.562 925.196,-362.538"/>
</g>
<!-- Node6 -->
<g id="node6" class="node"><title>Node6</title>
<g id="a_node6"><a xlink:href="../../d9/d97/u_o_r_b_8cpp.html#af7a143a80b6b04689a3a4890ce8df4ae" target="_top" xlink:title="orb_publish">
<polygon fill="white" stroke="black" points="284,-294.5 284,-313.5 350,-313.5 350,-294.5 284,-294.5"/>
<text text-anchor="middle" x="317" y="-301.5" font-family="Helvetica,sans-Serif" font-size="10.00">orb_publish</text>
</a>
</g>
</g>
<!-- Node2&#45;&gt;Node6 -->
<g id="edge5" class="edge"><title>Node2&#45;&gt;Node6</title>
<path fill="none" stroke="midnightblue" d="M185.781,-256.575C202.386,-264.804 227.411,-276.631 250,-285 257.71,-287.857 266.056,-290.553 274.135,-292.968"/>
<polygon fill="midnightblue" stroke="midnightblue" points="273.218,-296.346 283.797,-295.767 275.166,-289.623 273.218,-296.346"/>
</g>
<!-- Node22 -->
<g id="node22" class="node"><title>Node22</title>
<g id="a_node22"><a xlink:href="../../dd/d78/perf__counter_8c.html#a29199d9ba42a60894e4f593f677ff2d7" target="_top" xlink:title="Begin a performance event. ">
<polygon fill="white" stroke="black" points="286,-256.5 286,-275.5 348,-275.5 348,-256.5 286,-256.5"/>
<text text-anchor="middle" x="317" y="-263.5" font-family="Helvetica,sans-Serif" font-size="10.00">perf_begin</text>
</a>
</g>
</g>
<!-- Node2&#45;&gt;Node22 -->
<g id="edge23" class="edge"><title>Node2&#45;&gt;Node22</title>
<path fill="none" stroke="midnightblue" d="M209.697,-252.445C230.443,-255.09 255.239,-258.252 275.662,-260.856"/>
<polygon fill="midnightblue" stroke="midnightblue" points="275.237,-264.33 285.599,-262.123 276.122,-257.386 275.237,-264.33"/>
</g>
<!-- Node23 -->
<g id="node23" class="node"><title>Node23</title>
<g id="a_node23"><a xlink:href="../../dd/d78/perf__counter_8c.html#a4a775bcac1518a89f1137003985d9e65" target="_top" xlink:title="Count a performance event. ">
<polygon fill="white" stroke="black" points="442.5,-114.5 442.5,-133.5 504.5,-133.5 504.5,-114.5 442.5,-114.5"/>
<text text-anchor="middle" x="473.5" y="-121.5" font-family="Helvetica,sans-Serif" font-size="10.00">perf_count</text>
</a>
</g>
</g>
<!-- Node2&#45;&gt;Node23 -->
<g id="edge24" class="edge"><title>Node2&#45;&gt;Node23</title>
<path fill="none" stroke="midnightblue" d="M209.675,-246.779C255.181,-244.938 328.227,-237.281 384,-209 415.8,-192.875 443.847,-161.503 459.456,-141.713"/>
<polygon fill="midnightblue" stroke="midnightblue" points="462.42,-143.599 465.721,-133.531 456.863,-139.343 462.42,-143.599"/>
</g>
<!-- Node24 -->
<g id="node24" class="node"><title>Node24</title>
<g id="a_node24"><a xlink:href="../../dd/d78/perf__counter_8c.html#a8a89ea6639744897e494e5d2139751aa" target="_top" xlink:title="End a performance event. ">
<polygon fill="white" stroke="black" points="290,-180.5 290,-199.5 344,-199.5 344,-180.5 290,-180.5"/>
<text text-anchor="middle" x="317" y="-187.5" font-family="Helvetica,sans-Serif" font-size="10.00">perf_end</text>
</a>
</g>
</g>
<!-- Node2&#45;&gt;Node24 -->
<g id="edge25" class="edge"><title>Node2&#45;&gt;Node24</title>
<path fill="none" stroke="midnightblue" d="M190.54,-237.425C207.116,-230.736 229.855,-221.666 250,-214 259.828,-210.26 270.526,-206.316 280.391,-202.73"/>
<polygon fill="midnightblue" stroke="midnightblue" points="281.703,-205.977 289.916,-199.284 279.322,-199.395 281.703,-205.977"/>
</g>
<!-- Node25 -->
<g id="node25" class="node"><title>Node25</title>
<g id="a_node25"><a xlink:href="../../dd/d78/perf__counter_8c.html#abf86ab96e88f8663417a93dc97b05c4f" target="_top" xlink:title="Return current event_count. ">
<polygon fill="white" stroke="black" points="271,-142.5 271,-161.5 363,-161.5 363,-142.5 271,-142.5"/>
<text text-anchor="middle" x="317" y="-149.5" font-family="Helvetica,sans-Serif" font-size="10.00">perf_event_count</text>
</a>
</g>
</g>
<!-- Node2&#45;&gt;Node25 -->
<g id="edge26" class="edge"><title>Node2&#45;&gt;Node25</title>
<path fill="none" stroke="midnightblue" d="M174.893,-237.306C188.532,-221.182 218.129,-188.863 250,-171 253.969,-168.776 258.221,-166.792 262.583,-165.027"/>
<polygon fill="midnightblue" stroke="midnightblue" points="264.048,-168.219 272.243,-161.504 261.649,-161.643 264.048,-168.219"/>
</g>
<!-- Node4 -->
<g id="node4" class="node"><title>Node4</title>
<g id="a_node4"><a xlink:href="../../d8/da1/integration_8cpp.html#af5ba872dd09316732300733cc164ac1a" target="_top" xlink:title="f">
<polygon fill="white" stroke="black" points="459,-379.5 459,-398.5 488,-398.5 488,-379.5 459,-379.5"/>
<text text-anchor="middle" x="473.5" y="-386.5" font-family="Helvetica,sans-Serif" font-size="10.00">f</text>
</a>
</g>
</g>
<!-- Node3&#45;&gt;Node4 -->
<g id="edge3" class="edge"><title>Node3&#45;&gt;Node4</title>
<path fill="none" stroke="midnightblue" d="M375.53,-389C400.893,-389 429.295,-389 448.771,-389"/>
<polygon fill="midnightblue" stroke="midnightblue" points="448.857,-392.5 458.857,-389 448.857,-385.5 448.857,-392.5"/>
</g>
<!-- Node7 -->
<g id="node7" class="node"><title>Node7</title>
<g id="a_node7"><a xlink:href="../../d3/da9/classu_o_r_b_1_1_manager.html#a9d829b3ea49d16d03c2fa37ef2bb24a5" target="_top" xlink:title="Method to get the singleton instance for the uORB::Manager. ">
<polygon fill="white" stroke="black" points="761.5,-199 761.5,-229 868.5,-229 868.5,-199 761.5,-199"/>
<text text-anchor="start" x="769.5" y="-217" font-family="Helvetica,sans-Serif" font-size="10.00">uORB::Manager::get</text>
<text text-anchor="middle" x="815" y="-206" font-family="Helvetica,sans-Serif" font-size="10.00">_instance</text>
</a>
</g>
</g>
<!-- Node6&#45;&gt;Node7 -->
<g id="edge6" class="edge"><title>Node6&#45;&gt;Node7</title>
<path fill="none" stroke="midnightblue" d="M350.152,-297.367C361.225,-294.407 373.479,-290.353 384,-285 402.066,-275.808 401.213,-264.61 420,-257 530.168,-212.374 671.057,-208.394 751.045,-210.526"/>
<polygon fill="midnightblue" stroke="midnightblue" points="751.339,-214.036 761.442,-210.847 751.555,-207.04 751.339,-214.036"/>
</g>
<!-- Node14 -->
<g id="node14" class="node"><title>Node14</title>
<g id="a_node14"><a xlink:href="../../d3/da9/classu_o_r_b_1_1_manager.html#abbe6966f841886ce3003ebc6d2198447" target="_top" xlink:title="Publish new data to a topic. ">
<polygon fill="white" stroke="black" points="420,-267 420,-297 527,-297 527,-267 420,-267"/>
<text text-anchor="start" x="428" y="-285" font-family="Helvetica,sans-Serif" font-size="10.00">uORB::Manager::orb</text>
<text text-anchor="middle" x="473.5" y="-274" font-family="Helvetica,sans-Serif" font-size="10.00">_publish</text>
</a>
</g>
</g>
<!-- Node6&#45;&gt;Node14 -->
<g id="edge13" class="edge"><title>Node6&#45;&gt;Node14</title>
<path fill="none" stroke="midnightblue" d="M350.012,-299.442C367.331,-296.976 389.333,-293.843 409.897,-290.914"/>
<polygon fill="midnightblue" stroke="midnightblue" points="410.443,-294.372 419.85,-289.497 409.456,-287.442 410.443,-294.372"/>
</g>
<!-- Node8 -->
<g id="node8" class="node"><title>Node8</title>
<g id="a_node8"><a xlink:href="../../d3/da9/classu_o_r_b_1_1_manager.html#a083331e24ac4f99ac11a0aab1b1681b4" target="_top" xlink:title="Get the DeviceMaster. ">
<polygon fill="white" stroke="black" points="929,-180 929,-210 1036,-210 1036,-180 929,-180"/>
<text text-anchor="start" x="937" y="-198" font-family="Helvetica,sans-Serif" font-size="10.00">uORB::Manager::get</text>
<text text-anchor="middle" x="982.5" y="-187" font-family="Helvetica,sans-Serif" font-size="10.00">_device_master</text>
</a>
</g>
</g>
<!-- Node7&#45;&gt;Node8 -->
<g id="edge7" class="edge"><title>Node7&#45;&gt;Node8</title>
<path fill="none" stroke="midnightblue" d="M868.82,-207.936C884.723,-206.11 902.331,-204.089 918.809,-202.197"/>
<polygon fill="midnightblue" stroke="midnightblue" points="919.362,-205.657 928.898,-201.039 918.564,-198.702 919.362,-205.657"/>
</g>
<!-- Node9 -->
<g id="node9" class="node"><title>Node9</title>
<g id="a_node9"><a xlink:href="../../db/dcf/classdevice_1_1_c_dev.html#a04ad8e5b517724c106e06b45e86a2445" target="_top" xlink:title="Initialise the driver and make it ready for use. ">
<polygon fill="white" stroke="black" points="1075.5,-185.5 1075.5,-204.5 1170.5,-204.5 1170.5,-185.5 1075.5,-185.5"/>
<text text-anchor="middle" x="1123" y="-192.5" font-family="Helvetica,sans-Serif" font-size="10.00">device::CDev::init</text>
</a>
</g>
</g>
<!-- Node8&#45;&gt;Node9 -->
<g id="edge8" class="edge"><title>Node8&#45;&gt;Node9</title>
<path fill="none" stroke="midnightblue" d="M1036.26,-195C1045.69,-195 1055.55,-195 1065.09,-195"/>
<polygon fill="midnightblue" stroke="midnightblue" points="1065.29,-198.5 1075.29,-195 1065.29,-191.5 1065.29,-198.5"/>
</g>
<!-- Node10 -->
<g id="node10" class="node"><title>Node10</title>
<g id="a_node10"><a xlink:href="../../dd/dd3/classdevice_1_1_device.html#a88428ba671d9c225504fc2f0aed2a72a" target="_top" xlink:title="Initialise the driver and make it ready for use. ">
<polygon fill="white" stroke="black" points="1208,-204.5 1208,-223.5 1309,-223.5 1309,-204.5 1208,-204.5"/>
<text text-anchor="middle" x="1258.5" y="-211.5" font-family="Helvetica,sans-Serif" font-size="10.00">device::Device::init</text>
</a>
</g>
</g>
<!-- Node9&#45;&gt;Node10 -->
<g id="edge9" class="edge"><title>Node9&#45;&gt;Node10</title>
<path fill="none" stroke="midnightblue" d="M1170.69,-201.645C1179.43,-202.889 1188.68,-204.205 1197.75,-205.497"/>
<polygon fill="midnightblue" stroke="midnightblue" points="1197.49,-208.995 1207.88,-206.939 1198.48,-202.064 1197.49,-208.995"/>
</g>
<!-- Node11 -->
<g id="node11" class="node"><title>Node11</title>
<g id="a_node11"><a xlink:href="../../da/dc9/posix_2cdev__platform_8cpp.html#a4c69ea88a27571245bd4dc9c06a3d18b" target="_top" xlink:title="register_driver">
<polygon fill="white" stroke="black" points="1219.5,-166.5 1219.5,-185.5 1297.5,-185.5 1297.5,-166.5 1219.5,-166.5"/>
<text text-anchor="middle" x="1258.5" y="-173.5" font-family="Helvetica,sans-Serif" font-size="10.00">register_driver</text>
</a>
</g>
</g>
<!-- Node9&#45;&gt;Node11 -->
<g id="edge10" class="edge"><title>Node9&#45;&gt;Node11</title>
<path fill="none" stroke="midnightblue" d="M1170.69,-188.355C1183.15,-186.582 1196.63,-184.664 1209.17,-182.879"/>
<polygon fill="midnightblue" stroke="midnightblue" points="1210.03,-186.292 1219.43,-181.418 1209.04,-179.362 1210.03,-186.292"/>
</g>
<!-- Node12 -->
<g id="node12" class="node"><title>Node12</title>
<g id="a_node12"><a xlink:href="../../d6/dfb/stubs__posix_8c.html#a12809c44718c21544ceb280dc1a53573" target="_top" xlink:title="pthread_mutex_lock">
<polygon fill="white" stroke="black" points="1350.5,-185.5 1350.5,-204.5 1454.5,-204.5 1454.5,-185.5 1350.5,-185.5"/>
<text text-anchor="middle" x="1402.5" y="-192.5" font-family="Helvetica,sans-Serif" font-size="10.00">pthread_mutex_lock</text>
</a>
</g>
</g>
<!-- Node11&#45;&gt;Node12 -->
<g id="edge11" class="edge"><title>Node11&#45;&gt;Node12</title>
<path fill="none" stroke="midnightblue" d="M1297.55,-181.092C1310.7,-182.851 1325.79,-184.87 1340.32,-186.814"/>
<polygon fill="midnightblue" stroke="midnightblue" points="1339.88,-190.286 1350.26,-188.143 1340.81,-183.348 1339.88,-190.286"/>
</g>
<!-- Node13 -->
<g id="node13" class="node"><title>Node13</title>
<g id="a_node13"><a xlink:href="../../d6/dfb/stubs__posix_8c.html#a96184290ffb60e04c53a52869cf960a2" target="_top" xlink:title="pthread_mutex_unlock">
<polygon fill="white" stroke="black" points="1345,-147.5 1345,-166.5 1460,-166.5 1460,-147.5 1345,-147.5"/>
<text text-anchor="middle" x="1402.5" y="-154.5" font-family="Helvetica,sans-Serif" font-size="10.00">pthread_mutex_unlock</text>
</a>
</g>
</g>
<!-- Node11&#45;&gt;Node13 -->
<g id="edge12" class="edge"><title>Node11&#45;&gt;Node13</title>
<path fill="none" stroke="midnightblue" d="M1297.55,-170.908C1309.03,-169.373 1321.98,-167.641 1334.74,-165.933"/>
<polygon fill="midnightblue" stroke="midnightblue" points="1335.46,-169.368 1344.91,-164.572 1334.53,-162.429 1335.46,-169.368"/>
</g>
<!-- Node15 -->
<g id="node15" class="node"><title>Node15</title>
<g id="a_node15"><a xlink:href="../../d0/d18/classu_o_r_b_1_1_device_node.html#ae715517a1f3a2f361e37d061b59a4560" target="_top" xlink:title="Method to publish a data to this node. ">
<polygon fill="white" stroke="black" points="563,-263.5 563,-282.5 703,-282.5 703,-263.5 563,-263.5"/>
<text text-anchor="middle" x="633" y="-270.5" font-family="Helvetica,sans-Serif" font-size="10.00">uORB::DeviceNode::publish</text>
</a>
</g>
</g>
<!-- Node14&#45;&gt;Node15 -->
<g id="edge14" class="edge"><title>Node14&#45;&gt;Node15</title>
<path fill="none" stroke="midnightblue" d="M527.383,-278.978C535.541,-278.512 544.115,-278.022 552.698,-277.532"/>
<polygon fill="midnightblue" stroke="midnightblue" points="552.969,-281.022 562.753,-276.957 552.569,-274.033 552.969,-281.022"/>
</g>
<!-- Node15&#45;&gt;Node7 -->
<g id="edge21" class="edge"><title>Node15&#45;&gt;Node7</title>
<path fill="none" stroke="midnightblue" d="M662.491,-263.4C683.594,-256.314 713.063,-246.472 739,-238 744.885,-236.078 751.034,-234.085 757.17,-232.106"/>
<polygon fill="midnightblue" stroke="midnightblue" points="758.314,-235.415 766.762,-229.021 756.171,-228.751 758.314,-235.415"/>
</g>
<!-- Node16 -->
<g id="node16" class="node"><title>Node16</title>
<g id="a_node16"><a xlink:href="../../d0/d18/classu_o_r_b_1_1_device_node.html#abdae2690994dd47cce2b579b3785864f" target="_top" xlink:title="writes the published data to the internal buffer to be read by subscribers later. ...">
<polygon fill="white" stroke="black" points="749.5,-297.5 749.5,-316.5 880.5,-316.5 880.5,-297.5 749.5,-297.5"/>
<text text-anchor="middle" x="815" y="-304.5" font-family="Helvetica,sans-Serif" font-size="10.00">uORB::DeviceNode::write</text>
</a>
</g>
</g>
<!-- Node15&#45;&gt;Node16 -->
<g id="edge15" class="edge"><title>Node15&#45;&gt;Node16</title>
<path fill="none" stroke="midnightblue" d="M684.619,-282.561C705.99,-286.598 731.051,-291.332 753.397,-295.553"/>
<polygon fill="midnightblue" stroke="midnightblue" points="752.973,-299.035 763.449,-297.452 754.273,-292.156 752.973,-299.035"/>
</g>
<!-- Node21 -->
<g id="node21" class="node"><title>Node21</title>
<g id="a_node21"><a xlink:href="../../d9/d8a/classu_o_r_b_communicator_1_1_i_channel.html#a3f4690d7b897f5f568cfed2c31d7b734" target="_top" xlink:title="Sends the data message over the communication link. ">
<polygon fill="white" stroke="black" points="739,-248 739,-278 891,-278 891,-248 739,-248"/>
<text text-anchor="start" x="747" y="-266" font-family="Helvetica,sans-Serif" font-size="10.00">uORBCommunicator::IChannel</text>
<text text-anchor="middle" x="815" y="-255" font-family="Helvetica,sans-Serif" font-size="10.00">::send_message</text>
</a>
</g>
</g>
<!-- Node15&#45;&gt;Node21 -->
<g id="edge22" class="edge"><title>Node15&#45;&gt;Node21</title>
<path fill="none" stroke="midnightblue" d="M703.078,-269.162C711.486,-268.695 720.153,-268.214 728.761,-267.735"/>
<polygon fill="midnightblue" stroke="midnightblue" points="729.03,-271.226 738.821,-267.177 728.642,-264.237 729.03,-271.226"/>
</g>
<!-- Node16&#45;&gt;Node5 -->
<g id="edge18" class="edge"><title>Node16&#45;&gt;Node5</title>
<path fill="none" stroke="midnightblue" d="M847.159,-316.502C860.695,-320.75 876.695,-325.935 891,-331 907.183,-336.73 910.892,-339.062 927,-345 932.347,-346.971 938.009,-349.004 943.581,-350.975"/>
<polygon fill="midnightblue" stroke="midnightblue" points="942.831,-354.421 953.426,-354.426 945.147,-347.815 942.831,-354.421"/>
</g>
<!-- Node17 -->
<g id="node17" class="node"><title>Node17</title>
<g id="a_node17"><a xlink:href="../../db/dcf/classdevice_1_1_c_dev.html#a532f13f26f056bd17931efe7db10260e" target="_top" xlink:title="Take the driver lock. ">
<polygon fill="white" stroke="black" points="932,-316.5 932,-335.5 1033,-335.5 1033,-316.5 932,-316.5"/>
<text text-anchor="middle" x="982.5" y="-323.5" font-family="Helvetica,sans-Serif" font-size="10.00">device::CDev::lock</text>
</a>
</g>
</g>
<!-- Node16&#45;&gt;Node17 -->
<g id="edge16" class="edge"><title>Node16&#45;&gt;Node17</title>
<path fill="none" stroke="midnightblue" d="M880.935,-314.455C894.43,-316.004 908.588,-317.629 921.88,-319.155"/>
<polygon fill="midnightblue" stroke="midnightblue" points="921.517,-322.637 931.851,-320.3 922.315,-315.682 921.517,-322.637"/>
</g>
<!-- Node18 -->
<g id="node18" class="node"><title>Node18</title>
<g id="a_node18"><a xlink:href="../../db/dcf/classdevice_1_1_c_dev.html#af34c341f89cc744e2f327ec01ed5e4dd" target="_top" xlink:title="Release the driver lock. ">
<polygon fill="white" stroke="black" points="927,-278.5 927,-297.5 1038,-297.5 1038,-278.5 927,-278.5"/>
<text text-anchor="middle" x="982.5" y="-285.5" font-family="Helvetica,sans-Serif" font-size="10.00">device::CDev::unlock</text>
</a>
</g>
</g>
<!-- Node16&#45;&gt;Node18 -->
<g id="edge17" class="edge"><title>Node16&#45;&gt;Node18</title>
<path fill="none" stroke="midnightblue" d="M880.935,-299.545C892.702,-298.194 904.973,-296.786 916.735,-295.435"/>
<polygon fill="midnightblue" stroke="midnightblue" points="917.379,-298.884 926.915,-294.267 916.581,-291.93 917.379,-298.884"/>
</g>
<!-- Node19 -->
<g id="node19" class="node"><title>Node19</title>
<g id="a_node19"><a xlink:href="../../db/dcf/classdevice_1_1_c_dev.html#ad40710ea69dbc93561f7b0e3ae3d8435" target="_top" xlink:title="Report new poll events. ">
<polygon fill="white" stroke="black" points="933.5,-229 933.5,-259 1031.5,-259 1031.5,-229 933.5,-229"/>
<text text-anchor="start" x="941.5" y="-247" font-family="Helvetica,sans-Serif" font-size="10.00">device::CDev::poll</text>
<text text-anchor="middle" x="982.5" y="-236" font-family="Helvetica,sans-Serif" font-size="10.00">_notify</text>
</a>
</g>
</g>
<!-- Node16&#45;&gt;Node19 -->
<g id="edge19" class="edge"><title>Node16&#45;&gt;Node19</title>
<path fill="none" stroke="midnightblue" d="M857.739,-297.478C868.701,-294.542 880.414,-291.01 891,-287 907.728,-280.663 910.868,-276.73 927,-269 930.855,-267.153 934.875,-265.255 938.909,-263.37"/>
<polygon fill="midnightblue" stroke="midnightblue" points="940.674,-266.41 948.273,-259.027 937.729,-260.06 940.674,-266.41"/>
</g>
<!-- Node20 -->
<g id="node20" class="node"><title>Node20</title>
<g id="a_node20"><a xlink:href="../../db/dcf/classdevice_1_1_c_dev.html#a152b2568dfbe9a096dcc38cca4a15106" target="_top" xlink:title="Internal implementation of poll_notify. ">
<polygon fill="white" stroke="black" points="1074,-229 1074,-259 1172,-259 1172,-229 1074,-229"/>
<text text-anchor="start" x="1082" y="-247" font-family="Helvetica,sans-Serif" font-size="10.00">device::CDev::poll</text>
<text text-anchor="middle" x="1123" y="-236" font-family="Helvetica,sans-Serif" font-size="10.00">_notify_one</text>
</a>
</g>
</g>
<!-- Node19&#45;&gt;Node20 -->
<g id="edge20" class="edge"><title>Node19&#45;&gt;Node20</title>
<path fill="none" stroke="midnightblue" d="M1031.55,-244C1041.85,-244 1052.85,-244 1063.5,-244"/>
<polygon fill="midnightblue" stroke="midnightblue" points="1063.56,-247.5 1073.56,-244 1063.56,-240.5 1063.56,-247.5"/>
</g>
<!-- Node27 -->
<g id="node27" class="node"><title>Node27</title>
<g id="a_node27"><a xlink:href="../../d8/daf/class_airspeed.html#ac4b2c96ac2a32747fe82e77a897dac71" target="_top" xlink:title="Perform a poll cycle; collect from the previous measurement and start a new one. ">
<polygon fill="white" stroke="black" points="431.5,-0.5 431.5,-19.5 515.5,-19.5 515.5,-0.5 431.5,-0.5"/>
<text text-anchor="middle" x="473.5" y="-7.5" font-family="Helvetica,sans-Serif" font-size="10.00">Airspeed::cycle</text>
</a>
</g>
</g>
<!-- Node26&#45;&gt;Node27 -->
<g id="edge28" class="edge"><title>Node26&#45;&gt;Node27</title>
<path fill="none" stroke="midnightblue" d="M384.419,-20.832C396.69,-19.3229 409.334,-17.768 421.078,-16.3237"/>
<polygon fill="midnightblue" stroke="midnightblue" points="421.637,-19.7815 431.135,-15.087 420.782,-12.8338 421.637,-19.7815"/>
</g>
<!-- Node28&#45;&gt;Node23 -->
<g id="edge30" class="edge"><title>Node28&#45;&gt;Node23</title>
<path fill="none" stroke="midnightblue" d="M214.065,-107.927C273.659,-111.633 375.347,-117.958 431.765,-121.467"/>
<polygon fill="midnightblue" stroke="midnightblue" points="431.887,-124.981 442.085,-122.108 432.322,-117.994 431.887,-124.981"/>
</g>
<!-- Node29 -->
<g id="node29" class="node"><title>Node29</title>
<g id="a_node29"><a xlink:href="../../d6/dc0/class_m_s5525.html#a0f8e1996226f4e4956fae13e8cc2c3c8" target="_top" xlink:title="MS5525::init_ms5525">
<polygon fill="white" stroke="black" points="261.5,-66.5 261.5,-85.5 372.5,-85.5 372.5,-66.5 261.5,-66.5"/>
<text text-anchor="middle" x="317" y="-73.5" font-family="Helvetica,sans-Serif" font-size="10.00">MS5525::init_ms5525</text>
</a>
</g>
</g>
<!-- Node28&#45;&gt;Node29 -->
<g id="edge31" class="edge"><title>Node28&#45;&gt;Node29</title>
<path fill="none" stroke="midnightblue" d="M214.145,-95.8242C227.729,-93.1803 242.722,-90.2622 256.932,-87.4965"/>
<polygon fill="midnightblue" stroke="midnightblue" points="257.962,-90.8618 267.109,-85.5158 256.624,-83.9908 257.962,-90.8618"/>
</g>
<!-- Node29&#45;&gt;Node23 -->
<g id="edge32" class="edge"><title>Node29&#45;&gt;Node23</title>
<path fill="none" stroke="midnightblue" d="M348.894,-85.5982C373.022,-93.0943 406.725,-103.565 432.845,-111.68"/>
<polygon fill="midnightblue" stroke="midnightblue" points="431.86,-115.039 442.448,-114.663 433.937,-108.354 431.86,-115.039"/>
</g>
<!-- Node30 -->
<g id="node30" class="node"><title>Node30</title>
<g id="a_node30"><a xlink:href="../../d6/dfb/stubs__posix_8c.html#ac0383719bafa9b5b2aa25fabc586bd1f" target="_top" xlink:title="usleep">
<polygon fill="white" stroke="black" points="451,-76.5 451,-95.5 496,-95.5 496,-76.5 451,-76.5"/>
<text text-anchor="middle" x="473.5" y="-83.5" font-family="Helvetica,sans-Serif" font-size="10.00">usleep</text>
</a>
</g>
</g>
<!-- Node29&#45;&gt;Node30 -->
<g id="edge33" class="edge"><title>Node29&#45;&gt;Node30</title>
<path fill="none" stroke="midnightblue" d="M372.906,-79.5538C395.592,-81.0222 421.092,-82.6726 440.609,-83.9359"/>
<polygon fill="midnightblue" stroke="midnightblue" points="440.576,-87.4409 450.781,-84.5942 441.028,-80.4556 440.576,-87.4409"/>
</g>
<!-- Node31 -->
<g id="node31" class="node"><title>Node31</title>
<g id="a_node31"><a xlink:href="../../d6/dc0/class_m_s5525.html#ae67886993e749576ff50fa2a245e85a4" target="_top" xlink:title="MS5525::prom_crc4">
<polygon fill="white" stroke="black" points="421.5,-38.5 421.5,-57.5 525.5,-57.5 525.5,-38.5 421.5,-38.5"/>
<text text-anchor="middle" x="473.5" y="-45.5" font-family="Helvetica,sans-Serif" font-size="10.00">MS5525::prom_crc4</text>
</a>
</g>
</g>
<!-- Node29&#45;&gt;Node31 -->
<g id="edge34" class="edge"><title>Node29&#45;&gt;Node31</title>
<path fill="none" stroke="midnightblue" d="M370.738,-66.4423C383.764,-64.0815 397.828,-61.5327 411.222,-59.1053"/>
<polygon fill="midnightblue" stroke="midnightblue" points="412.09,-62.5051 421.306,-57.2779 410.842,-55.6173 412.09,-62.5051"/>
</g>
<!-- Node32&#45;&gt;Node26 -->
<g id="edge36" class="edge"><title>Node32&#45;&gt;Node26</title>
<path fill="none" stroke="midnightblue" d="M206.148,-29C216.485,-29 228.003,-29 239.584,-29"/>
<polygon fill="midnightblue" stroke="midnightblue" points="239.748,-32.5001 249.748,-29 239.748,-25.5001 239.748,-32.5001"/>
</g>
</g>
</svg>
