<?xml version="1.0" encoding="UTF-8" standalone="no"?>
<!DOCTYPE svg PUBLIC "-//W3C//DTD SVG 1.1//EN"
 "http://www.w3.org/Graphics/SVG/1.1/DTD/svg11.dtd">
<!-- Generated by graphviz version 2.40.1 (20161225.0304)
 -->
<!-- Title: param_autosave Pages: 1 -->
<!--zoomable 257 -->
<svg id="main" version="1.1" xmlns="http://www.w3.org/2000/svg" xmlns:xlink="http://www.w3.org/1999/xlink" xml:space="preserve" onload="init(evt)">
<style type="text/css"><![CDATA[
.edge:hover path { stroke: red; }
.edge:hover polygon { stroke: red; fill: red; }
]]></style>
<script type="text/javascript"><![CDATA[
var edges = document.getElementsByTagName('g');
if (edges && edges.length) {
  for (var i=0;i<edges.length;i++) {
    if (edges[i].id.substr(0,4)=='edge') {
      edges[i].setAttribute('class','edge');
    }
  }
}
]]></script>
        <defs>
                <circle id="rim" cx="0" cy="0" r="7"/>
                <circle id="rim2" cx="0" cy="0" r="3.5"/>
                <g id="zoomPlus">
                        <use xlink:href="#rim" fill="#404040">
                                <set attributeName="fill" to="#808080" begin="zoomplus.mouseover" end="zoomplus.mouseout"/>
                        </use>
                        <path d="M-4,0h8M0,-4v8" fill="none" stroke="white" stroke-width="1.5" pointer-events="none"/>
                </g>
                <g id="zoomMin">
                        <use xlink:href="#rim" fill="#404040">
                                <set attributeName="fill" to="#808080" begin="zoomminus.mouseover" end="zoomminus.mouseout"/>
                        </use>
                        <path d="M-4,0h8" fill="none" stroke="white" stroke-width="1.5" pointer-events="none"/>
                </g>
                <g id="dirArrow">
                        <path fill="none" stroke="white" stroke-width="1.5" d="M0,-3.0v7 M-2.5,-0.5L0,-3.0L2.5,-0.5"/>
                </g>
               <g id="resetDef">
                       <use xlink:href="#rim2" fill="#404040">
                               <set attributeName="fill" to="#808080" begin="reset.mouseover" end="reset.mouseout"/>
                       </use>
               </g>
        </defs>

<script type="text/javascript">
var viewWidth = 1038;
var viewHeight = 257;
var sectionId = 'dynsection-13';
</script>
<script xlink:href="../../svgpan.js"/>
<svg id="graph" class="graph">
<g id="viewport">
<title>param_autosave</title>
<polygon fill="#ffffff" stroke="transparent" points="-4,4 -4,-252.5 1034,-252.5 1034,4 -4,4"/>
<!-- Node449 -->
<g id="node1" class="node">
<title>Node449</title>
<polygon fill="#bfbfbf" stroke="#000000" points="0,-162 0,-181 89,-181 89,-162 0,-162"/>
<text text-anchor="middle" x="44.5" y="-169" font-family="Helvetica,sans-Serif" font-size="10.00" fill="#000000">param_autosave</text>
</g>
<!-- Node450 -->
<g id="node2" class="node">
<title>Node450</title>
<g id="a_node2"><a xlink:href="../../d6/d02/lib_2parameters_2parameters_8cpp.html#a44d25292a66f5521372edb465e668038" target="_top" xlink:title="Reset a parameter to its default value. ">
<polygon fill="#ffffff" stroke="#000000" points="150.5,-219 150.5,-238 221.5,-238 221.5,-219 150.5,-219"/>
<text text-anchor="middle" x="186" y="-226" font-family="Helvetica,sans-Serif" font-size="10.00" fill="#000000">param_reset</text>
</a>
</g>
</g>
<!-- Node449&#45;&gt;Node450 -->
<g id="edge1" class="edge">
<title>Node449&#45;&gt;Node450</title>
<path fill="none" stroke="#191970" d="M77.6182,-184.8409C103.5701,-195.295 139.0503,-209.5874 162.2388,-218.9284"/>
<polygon fill="#191970" stroke="#191970" points="78.7674,-181.5306 68.1839,-181.0405 76.1518,-188.0236 78.7674,-181.5306"/>
</g>
<!-- Node452 -->
<g id="node4" class="node">
<title>Node452</title>
<g id="a_node4"><a xlink:href="../../d6/d02/lib_2parameters_2parameters_8cpp.html#a759202dec4546bd981d796584f740bbd" target="_top" xlink:title="param_reset_all_internal">
<polygon fill="#ffffff" stroke="#000000" points="125,-162 125,-181 247,-181 247,-162 125,-162"/>
<text text-anchor="middle" x="186" y="-169" font-family="Helvetica,sans-Serif" font-size="10.00" fill="#000000">param_reset_all_internal</text>
</a>
</g>
</g>
<!-- Node449&#45;&gt;Node452 -->
<g id="edge3" class="edge">
<title>Node449&#45;&gt;Node452</title>
<path fill="none" stroke="#191970" d="M99.3262,-171.5C107.7257,-171.5 116.441,-171.5 124.9646,-171.5"/>
<polygon fill="#191970" stroke="#191970" points="99.2715,-168.0001 89.2715,-171.5 99.2714,-175.0001 99.2715,-168.0001"/>
</g>
<!-- Node456 -->
<g id="node8" class="node">
<title>Node456</title>
<g id="a_node8"><a xlink:href="../../d6/d02/lib_2parameters_2parameters_8cpp.html#a25fbb1caf834c5fc1151a21643c82f78" target="_top" xlink:title="param_set_internal">
<polygon fill="#ffffff" stroke="#000000" points="136.5,-105 136.5,-124 235.5,-124 235.5,-105 136.5,-105"/>
<text text-anchor="middle" x="186" y="-112" font-family="Helvetica,sans-Serif" font-size="10.00" fill="#000000">param_set_internal</text>
</a>
</g>
</g>
<!-- Node449&#45;&gt;Node456 -->
<g id="edge7" class="edge">
<title>Node449&#45;&gt;Node456</title>
<path fill="none" stroke="#191970" d="M77.6182,-158.1591C103.5701,-147.705 139.0503,-133.4126 162.2388,-124.0716"/>
<polygon fill="#191970" stroke="#191970" points="76.1518,-154.9764 68.1839,-161.9595 78.7674,-161.4694 76.1518,-154.9764"/>
</g>
<!-- Node451 -->
<g id="node3" class="node">
<title>Node451</title>
<g id="a_node3"><a xlink:href="../../d6/d02/lib_2parameters_2parameters_8cpp.html#ac579e1a9910cc9e997cceeefbbf51d05" target="_top" xlink:title="Reset all parameters to their default values except for excluded parameters. ">
<polygon fill="#ffffff" stroke="#000000" points="291,-229 291,-248 406,-248 406,-229 291,-229"/>
<text text-anchor="middle" x="348.5" y="-236" font-family="Helvetica,sans-Serif" font-size="10.00" fill="#000000">param_reset_excludes</text>
</a>
</g>
</g>
<!-- Node450&#45;&gt;Node451 -->
<g id="edge2" class="edge">
<title>Node450&#45;&gt;Node451</title>
<path fill="none" stroke="#191970" d="M231.7985,-231.3184C250.1507,-232.4477 271.5046,-233.7618 290.8914,-234.9549"/>
<polygon fill="#191970" stroke="#191970" points="231.8574,-227.8155 221.6613,-230.6945 231.4274,-234.8022 231.8574,-227.8155"/>
</g>
<!-- Node453 -->
<g id="node5" class="node">
<title>Node453</title>
<g id="a_node5"><a xlink:href="../../d6/d02/lib_2parameters_2parameters_8cpp.html#afad5d989ddc1aace0ad3d3d1c141102b" target="_top" xlink:title="Reset all parameters to their default values. ">
<polygon fill="#ffffff" stroke="#000000" points="305.5,-191 305.5,-210 391.5,-210 391.5,-191 305.5,-191"/>
<text text-anchor="middle" x="348.5" y="-198" font-family="Helvetica,sans-Serif" font-size="10.00" fill="#000000">param_reset_all</text>
</a>
</g>
</g>
<!-- Node452&#45;&gt;Node453 -->
<g id="edge4" class="edge">
<title>Node452&#45;&gt;Node453</title>
<path fill="none" stroke="#191970" d="M249.5952,-182.8493C268.3056,-186.1884 288.3284,-189.7617 305.4304,-192.8137"/>
<polygon fill="#191970" stroke="#191970" points="250.1183,-179.3874 239.6589,-181.0761 248.8885,-186.2786 250.1183,-179.3874"/>
</g>
<!-- Node454 -->
<g id="node6" class="node">
<title>Node454</title>
<g id="a_node6"><a xlink:href="../../d6/d02/lib_2parameters_2parameters_8cpp.html#a455cd138f80934ec65400e099cd4086b" target="_top" xlink:title="Load parameters from a file. ">
<polygon fill="#ffffff" stroke="#000000" points="632,-153 632,-172 699,-172 699,-153 632,-153"/>
<text text-anchor="middle" x="665.5" y="-160" font-family="Helvetica,sans-Serif" font-size="10.00" fill="#000000">param_load</text>
</a>
</g>
</g>
<!-- Node452&#45;&gt;Node454 -->
<g id="edge5" class="edge">
<title>Node452&#45;&gt;Node454</title>
<path fill="none" stroke="#191970" d="M257.4058,-170.1597C362.3746,-168.1895 554.2568,-164.588 631.7281,-163.1339"/>
<polygon fill="#191970" stroke="#191970" points="257.1486,-166.6639 247.216,-170.351 257.28,-173.6626 257.1486,-166.6639"/>
</g>
<!-- Node455 -->
<g id="node7" class="node">
<title>Node455</title>
<g id="a_node7"><a xlink:href="../../d6/d02/lib_2parameters_2parameters_8cpp.html#a23aba7af4dfdb4e6321bd0334c703ce3" target="_top" xlink:title="Load parameters from the default parameter file. ">
<polygon fill="#ffffff" stroke="#000000" points="779.5,-153 779.5,-172 880.5,-172 880.5,-153 779.5,-153"/>
<text text-anchor="middle" x="830" y="-160" font-family="Helvetica,sans-Serif" font-size="10.00" fill="#000000">param_load_default</text>
</a>
</g>
</g>
<!-- Node454&#45;&gt;Node455 -->
<g id="edge6" class="edge">
<title>Node454&#45;&gt;Node455</title>
<path fill="none" stroke="#191970" d="M709.3783,-162.5C730.9573,-162.5 757.0779,-162.5 779.4864,-162.5"/>
<polygon fill="#191970" stroke="#191970" points="709.186,-159.0001 699.186,-162.5 709.1859,-166.0001 709.186,-159.0001"/>
</g>
<!-- Node457 -->
<g id="node9" class="node">
<title>Node457</title>
<g id="a_node9"><a xlink:href="../../d6/d02/lib_2parameters_2parameters_8cpp.html#a126ed3d305f2dd3cd9880f11ee2922a0" target="_top" xlink:title="Set the value of a parameter. ">
<polygon fill="#ffffff" stroke="#000000" points="317.5,-77 317.5,-96 379.5,-96 379.5,-77 317.5,-77"/>
<text text-anchor="middle" x="348.5" y="-84" font-family="Helvetica,sans-Serif" font-size="10.00" fill="#000000">param_set</text>
</a>
</g>
</g>
<!-- Node456&#45;&gt;Node457 -->
<g id="edge8" class="edge">
<title>Node456&#45;&gt;Node457</title>
<path fill="none" stroke="#191970" d="M245.8005,-104.1959C269.9658,-100.032 296.8577,-95.3984 317.06,-91.9173"/>
<polygon fill="#191970" stroke="#191970" points="244.8988,-100.7996 235.6383,-105.9469 246.0875,-107.698 244.8988,-100.7996"/>
</g>
<!-- Node458 -->
<g id="node10" class="node">
<title>Node458</title>
<g id="a_node10"><a xlink:href="../../d6/d02/lib_2parameters_2parameters_8cpp.html#a803f9e8aef28899d6311b39e482584eb" target="_top" xlink:title="Set the value of a parameter, but do not notify the system about the change. ">
<polygon fill="#ffffff" stroke="#000000" points="283,-39 283,-58 414,-58 414,-39 283,-39"/>
<text text-anchor="middle" x="348.5" y="-46" font-family="Helvetica,sans-Serif" font-size="10.00" fill="#000000">param_set_no_notification</text>
</a>
</g>
</g>
<!-- Node456&#45;&gt;Node458 -->
<g id="edge9" class="edge">
<title>Node456&#45;&gt;Node458</title>
<path fill="none" stroke="#191970" d="M212.5137,-100.1454C231.7136,-90.1261 258.4923,-76.9145 283,-67.5 292.0633,-64.0184 302.0408,-60.8178 311.4168,-58.0754"/>
<polygon fill="#191970" stroke="#191970" points="210.6871,-97.1519 203.4788,-104.9166 213.9559,-103.3418 210.6871,-97.1519"/>
</g>
<!-- Node466 -->
<g id="node18" class="node">
<title>Node466</title>
<g id="a_node18"><a xlink:href="../../d6/d02/lib_2parameters_2parameters_8cpp.html#aae3ab2f0bf31ee1d2ec9e3f32a7752bb" target="_top" xlink:title="param_import_callback">
<polygon fill="#ffffff" stroke="#000000" points="290,-115 290,-134 407,-134 407,-115 290,-115"/>
<text text-anchor="middle" x="348.5" y="-122" font-family="Helvetica,sans-Serif" font-size="10.00" fill="#000000">param_import_callback</text>
</a>
</g>
</g>
<!-- Node456&#45;&gt;Node466 -->
<g id="edge17" class="edge">
<title>Node456&#45;&gt;Node466</title>
<path fill="none" stroke="#191970" d="M245.8712,-118.1844C260.1944,-119.0658 275.4718,-120.006 289.744,-120.8842"/>
<polygon fill="#191970" stroke="#191970" points="245.8345,-114.6756 235.6383,-117.5547 245.4044,-121.6624 245.8345,-114.6756"/>
</g>
<!-- Node459 -->
<g id="node11" class="node">
<title>Node459</title>
<g id="a_node11"><a xlink:href="../../dc/d36/namespacebattery__status.html#a0bd87674baff2a354219a9e5466fee41" target="_top" xlink:title="Read out the parameters using the handles into the parameters struct. ">
<polygon fill="#ffffff" stroke="#000000" points="450,-33.5 450,-63.5 564,-63.5 564,-33.5 450,-33.5"/>
<text text-anchor="start" x="458" y="-51.5" font-family="Helvetica,sans-Serif" font-size="10.00" fill="#000000">battery_status::update</text>
<text text-anchor="middle" x="507" y="-40.5" font-family="Helvetica,sans-Serif" font-size="10.00" fill="#000000">_parameters</text>
</a>
</g>
</g>
<!-- Node458&#45;&gt;Node459 -->
<g id="edge10" class="edge">
<title>Node458&#45;&gt;Node459</title>
<path fill="none" stroke="#191970" d="M424.5953,-48.5C433.0424,-48.5 441.5374,-48.5 449.6956,-48.5"/>
<polygon fill="#191970" stroke="#191970" points="424.3413,-45.0001 414.3413,-48.5 424.3413,-52.0001 424.3413,-45.0001"/>
</g>
<!-- Node460 -->
<g id="node12" class="node">
<title>Node460</title>
<g id="a_node12"><a xlink:href="../../de/dc2/class_battery_status.html#a7c9088d53b0b19ae7015236ad4fcc9f4" target="_top" xlink:title="Update our local parameter cache. ">
<polygon fill="#ffffff" stroke="#000000" points="600,-49.5 600,-79.5 731,-79.5 731,-49.5 600,-49.5"/>
<text text-anchor="start" x="608" y="-67.5" font-family="Helvetica,sans-Serif" font-size="10.00" fill="#000000">BatteryStatus::parameters</text>
<text text-anchor="middle" x="665.5" y="-56.5" font-family="Helvetica,sans-Serif" font-size="10.00" fill="#000000">_update</text>
</a>
</g>
</g>
<!-- Node459&#45;&gt;Node460 -->
<g id="edge11" class="edge">
<title>Node459&#45;&gt;Node460</title>
<path fill="none" stroke="#191970" d="M574.3617,-55.2999C582.7701,-56.1487 591.3612,-57.016 599.7446,-57.8622"/>
<polygon fill="#191970" stroke="#191970" points="574.5231,-51.7985 564.2221,-54.2764 573.82,-58.7631 574.5231,-51.7985"/>
</g>
<!-- Node463 -->
<g id="node15" class="node">
<title>Node463</title>
<g id="a_node15"><a xlink:href="../../d1/d44/class_sensors.html#a9f1f92d3d966a6c294f78b7dad6d768d" target="_top" xlink:title="Update our local parameter cache. ">
<polygon fill="#ffffff" stroke="#000000" points="612,-.5 612,-30.5 719,-30.5 719,-.5 612,-.5"/>
<text text-anchor="start" x="620" y="-18.5" font-family="Helvetica,sans-Serif" font-size="10.00" fill="#000000">Sensors::parameters</text>
<text text-anchor="middle" x="665.5" y="-7.5" font-family="Helvetica,sans-Serif" font-size="10.00" fill="#000000">_update</text>
</a>
</g>
</g>
<!-- Node459&#45;&gt;Node463 -->
<g id="edge14" class="edge">
<title>Node459&#45;&gt;Node463</title>
<path fill="none" stroke="#191970" d="M574.1805,-34.5129C586.7393,-31.8981 599.7123,-29.1971 611.7977,-26.6809"/>
<polygon fill="#191970" stroke="#191970" points="573.2988,-31.1213 564.2221,-36.5862 574.7256,-37.9744 573.2988,-31.1213"/>
</g>
<!-- Node461 -->
<g id="node13" class="node">
<title>Node461</title>
<g id="a_node13"><a xlink:href="../../de/dc2/class_battery_status.html#ae0603fd2a5b191f8784cbc9b83aa5ef6" target="_top" xlink:title="Check for changes in parameters. ">
<polygon fill="#ffffff" stroke="#000000" points="767,-49.5 767,-79.5 893,-79.5 893,-49.5 767,-49.5"/>
<text text-anchor="start" x="775" y="-67.5" font-family="Helvetica,sans-Serif" font-size="10.00" fill="#000000">BatteryStatus::parameter</text>
<text text-anchor="middle" x="830" y="-56.5" font-family="Helvetica,sans-Serif" font-size="10.00" fill="#000000">_update_poll</text>
</a>
</g>
</g>
<!-- Node460&#45;&gt;Node461 -->
<g id="edge12" class="edge">
<title>Node460&#45;&gt;Node461</title>
<path fill="none" stroke="#191970" d="M741.7057,-64.5C750.1595,-64.5 758.6989,-64.5 766.9641,-64.5"/>
<polygon fill="#191970" stroke="#191970" points="741.4606,-61.0001 731.4606,-64.5 741.4606,-68.0001 741.4606,-61.0001"/>
</g>
<!-- Node462 -->
<g id="node14" class="node">
<title>Node462</title>
<g id="a_node14"><a xlink:href="../../de/dc2/class_battery_status.html#a8f9de0611cdd19c1bab753644e37b325" target="_top" xlink:title="BatteryStatus::Run">
<polygon fill="#ffffff" stroke="#000000" points="929,-55 929,-74 1030,-74 1030,-55 929,-55"/>
<text text-anchor="middle" x="979.5" y="-62" font-family="Helvetica,sans-Serif" font-size="10.00" fill="#000000">BatteryStatus::Run</text>
</a>
</g>
</g>
<!-- Node461&#45;&gt;Node462 -->
<g id="edge13" class="edge">
<title>Node461&#45;&gt;Node462</title>
<path fill="none" stroke="#191970" d="M903.4038,-64.5C911.9564,-64.5 920.5325,-64.5 928.684,-64.5"/>
<polygon fill="#191970" stroke="#191970" points="903.4015,-61.0001 893.4015,-64.5 903.4014,-68.0001 903.4015,-61.0001"/>
</g>
<!-- Node464 -->
<g id="node16" class="node">
<title>Node464</title>
<g id="a_node16"><a xlink:href="../../d1/d44/class_sensors.html#aacd5e3c3baacf7417f71bdb1c21acc0b" target="_top" xlink:title="Check for changes in parameters. ">
<polygon fill="#ffffff" stroke="#000000" points="779,-.5 779,-30.5 881,-30.5 881,-.5 779,-.5"/>
<text text-anchor="start" x="787" y="-18.5" font-family="Helvetica,sans-Serif" font-size="10.00" fill="#000000">Sensors::parameter</text>
<text text-anchor="middle" x="830" y="-7.5" font-family="Helvetica,sans-Serif" font-size="10.00" fill="#000000">_update_poll</text>
</a>
</g>
</g>
<!-- Node463&#45;&gt;Node464 -->
<g id="edge15" class="edge">
<title>Node463&#45;&gt;Node464</title>
<path fill="none" stroke="#191970" d="M729.4015,-15.5C745.7752,-15.5 763.1711,-15.5 778.8107,-15.5"/>
<polygon fill="#191970" stroke="#191970" points="729.3635,-12.0001 719.3635,-15.5 729.3634,-19.0001 729.3635,-12.0001"/>
</g>
<!-- Node465 -->
<g id="node17" class="node">
<title>Node465</title>
<g id="a_node17"><a xlink:href="../../d1/d44/class_sensors.html#a35b423ba540194dbfee0d7b580946e79" target="_top" xlink:title="Sensors::run">
<polygon fill="#ffffff" stroke="#000000" points="943.5,-6 943.5,-25 1015.5,-25 1015.5,-6 943.5,-6"/>
<text text-anchor="middle" x="979.5" y="-13" font-family="Helvetica,sans-Serif" font-size="10.00" fill="#000000">Sensors::run</text>
</a>
</g>
</g>
<!-- Node464&#45;&gt;Node465 -->
<g id="edge16" class="edge">
<title>Node464&#45;&gt;Node465</title>
<path fill="none" stroke="#191970" d="M891.289,-15.5C908.9679,-15.5 927.6855,-15.5 943.3087,-15.5"/>
<polygon fill="#191970" stroke="#191970" points="891.0313,-12.0001 881.0313,-15.5 891.0312,-19.0001 891.0313,-12.0001"/>
</g>
<!-- Node467 -->
<g id="node19" class="node">
<title>Node467</title>
<g id="a_node19"><a xlink:href="../../d6/d02/lib_2parameters_2parameters_8cpp.html#a63ff0f0ddb7449867462e4c6fb14cc76" target="_top" xlink:title="param_import_internal">
<polygon fill="#ffffff" stroke="#000000" points="450.5,-115 450.5,-134 563.5,-134 563.5,-115 450.5,-115"/>
<text text-anchor="middle" x="507" y="-122" font-family="Helvetica,sans-Serif" font-size="10.00" fill="#000000">param_import_internal</text>
</a>
</g>
</g>
<!-- Node466&#45;&gt;Node467 -->
<g id="edge18" class="edge">
<title>Node466&#45;&gt;Node467</title>
<path fill="none" stroke="#191970" d="M417.1197,-124.5C428.1772,-124.5 439.5158,-124.5 450.2535,-124.5"/>
<polygon fill="#191970" stroke="#191970" points="417.0693,-121.0001 407.0692,-124.5 417.0692,-128.0001 417.0693,-121.0001"/>
</g>
<!-- Node467&#45;&gt;Node454 -->
<g id="edge20" class="edge">
<title>Node467&#45;&gt;Node454</title>
<path fill="none" stroke="#191970" d="M556.8324,-136.4472C581.3023,-142.3138 610.1328,-149.2259 631.9468,-154.4557"/>
<polygon fill="#191970" stroke="#191970" points="557.5367,-133.0169 546.9962,-134.089 555.9047,-139.824 557.5367,-133.0169"/>
</g>
<!-- Node468 -->
<g id="node20" class="node">
<title>Node468</title>
<g id="a_node20"><a xlink:href="../../d6/d02/lib_2parameters_2parameters_8cpp.html#a1e5338d93ed1b5bf9e6438b4f6cb8e22" target="_top" xlink:title="Import parameters from a file, discarding any unrecognized parameters. ">
<polygon fill="#ffffff" stroke="#000000" points="627.5,-115 627.5,-134 703.5,-134 703.5,-115 627.5,-115"/>
<text text-anchor="middle" x="665.5" y="-122" font-family="Helvetica,sans-Serif" font-size="10.00" fill="#000000">param_import</text>
</a>
</g>
</g>
<!-- Node467&#45;&gt;Node468 -->
<g id="edge19" class="edge">
<title>Node467&#45;&gt;Node468</title>
<path fill="none" stroke="#191970" d="M573.829,-124.5C592.1415,-124.5 611.3613,-124.5 627.4455,-124.5"/>
<polygon fill="#191970" stroke="#191970" points="573.7745,-121.0001 563.7744,-124.5 573.7744,-128.0001 573.7745,-121.0001"/>
</g>
</g>
</svg>
        <g id="navigator" transform="translate(0 0)" fill="#404254">
                <rect fill="#f2f5e9" fill-opacity="0.5" stroke="#606060" stroke-width=".5" x="0" y="0" width="60" height="60"/>
                <use id="zoomplus" xlink:href="#zoomPlus" x="17" y="9" onmousedown="handleZoom(evt,'in')"/>
                <use id="zoomminus" xlink:href="#zoomMin" x="42" y="9" onmousedown="handleZoom(evt,'out')"/>
                <use id="reset" xlink:href="#resetDef" x="30" y="36" onmousedown="handleReset()"/>
                <g id="arrowUp" xlink:href="#dirArrow" transform="translate(30 24)" onmousedown="handlePan(0,-1)">
                  <use xlink:href="#rim" fill="#404040">
                        <set attributeName="fill" to="#808080" begin="arrowUp.mouseover" end="arrowUp.mouseout"/>
                  </use>
                  <path fill="none" stroke="white" stroke-width="1.5" d="M0,-3.0v7 M-2.5,-0.5L0,-3.0L2.5,-0.5"/>
                </g>
                <g id="arrowRight" xlink:href="#dirArrow" transform="rotate(90) translate(36 -43)" onmousedown="handlePan(1,0)">
                  <use xlink:href="#rim" fill="#404040">
                        <set attributeName="fill" to="#808080" begin="arrowRight.mouseover" end="arrowRight.mouseout"/>
                  </use>
                  <path fill="none" stroke="white" stroke-width="1.5" d="M0,-3.0v7 M-2.5,-0.5L0,-3.0L2.5,-0.5"/>
                </g>
                <g id="arrowDown" xlink:href="#dirArrow" transform="rotate(180) translate(-30 -48)" onmousedown="handlePan(0,1)">
                  <use xlink:href="#rim" fill="#404040">
                        <set attributeName="fill" to="#808080" begin="arrowDown.mouseover" end="arrowDown.mouseout"/>
                  </use>
                  <path fill="none" stroke="white" stroke-width="1.5" d="M0,-3.0v7 M-2.5,-0.5L0,-3.0L2.5,-0.5"/>
                </g>
                <g id="arrowLeft" xlink:href="#dirArrow" transform="rotate(270) translate(-36 17)" onmousedown="handlePan(-1,0)">
                  <use xlink:href="#rim" fill="#404040">
                        <set attributeName="fill" to="#808080" begin="arrowLeft.mouseover" end="arrowLeft.mouseout"/>
                  </use>
                  <path fill="none" stroke="white" stroke-width="1.5" d="M0,-3.0v7 M-2.5,-0.5L0,-3.0L2.5,-0.5"/>
                </g>
        </g>
        <svg viewBox="0 0 15 15" width="100%" height="30px" preserveAspectRatio="xMaxYMin meet">
         <g id="arrow_out" transform="scale(0.3 0.3)">
          <a xlink:href="lib_2parameters_2parameters_8cpp_a678be2ee8ef59629254a6f7b39b2af89_icgraph_org.svg" target="_base">
           <rect id="button" ry="5" rx="5" y="6" x="6" height="38" width="38"
                fill="#f2f5e9" fill-opacity="0.5" stroke="#606060" stroke-width="1.0"/>
           <path id="arrow"
             d="M 11.500037,31.436501 C 11.940474,20.09759 22.043105,11.32322 32.158766,21.979434 L 37.068811,17.246167 C 37.068811,17.246167 37.088388,32 37.088388,32 L 22.160133,31.978069 C 22.160133,31.978069 26.997745,27.140456 26.997745,27.140456 C 18.528582,18.264221 13.291696,25.230495 11.500037,31.436501 z"
             style="fill:#404040;"/>
          </a>
         </g>
        </svg>
</svg>
