<?xml version="1.0" encoding="UTF-8" standalone="no"?>
<!DOCTYPE svg PUBLIC "-//W3C//DTD SVG 1.1//EN"
 "http://www.w3.org/Graphics/SVG/1.1/DTD/svg11.dtd">
<!-- Generated by graphviz version 2.38.0 (20140413.2041)
 -->
<!-- Title: BMI055_accel::stop Pages: 1 -->
<svg width="412pt" height="97pt"
 viewBox="0.00 0.00 412.00 96.50" xmlns="http://www.w3.org/2000/svg" xmlns:xlink="http://www.w3.org/1999/xlink">
<g id="graph0" class="graph" transform="scale(1 1) rotate(0) translate(4 92.5)">
<title>BMI055_accel::stop</title>
<polygon fill="white" stroke="none" points="-4,4 -4,-92.5 408,-92.5 408,4 -4,4"/>
<!-- Node1 -->
<g id="node1" class="node"><title>Node1</title>
<polygon fill="#bfbfbf" stroke="black" points="0,-50 0,-69 104,-69 104,-50 0,-50"/>
<text text-anchor="middle" x="52" y="-57" font-family="Helvetica,sans-Serif" font-size="10.00">BMI055_accel::stop</text>
</g>
<!-- Node2 -->
<g id="node2" class="node"><title>Node2</title>
<g id="a_node2"><a xlink:href="../../d2/d34/class_b_m_i055__accel.html#a029baa07a5cf50cbaeca8dd3ff0c5bfc" target="_top" xlink:title="BMI055_accel::ioctl">
<polygon fill="white" stroke="black" points="301,-69 301,-88 404,-88 404,-69 301,-69"/>
<text text-anchor="middle" x="352.5" y="-76" font-family="Helvetica,sans-Serif" font-size="10.00">BMI055_accel::ioctl</text>
</a>
</g>
</g>
<!-- Node1&#45;&gt;Node2 -->
<g id="edge1" class="edge"><title>Node1&#45;&gt;Node2</title>
<path fill="none" stroke="midnightblue" d="M98.1885,-71.2977C111.554,-74.2619 126.281,-77.0194 140,-78.5 194.76,-84.4099 257.961,-83.3941 300.911,-81.5397"/>
<polygon fill="midnightblue" stroke="midnightblue" points="98.8036,-67.8477 88.2726,-69.0084 97.2289,-74.6683 98.8036,-67.8477"/>
</g>
<!-- Node3 -->
<g id="node3" class="node"><title>Node3</title>
<g id="a_node3"><a xlink:href="../../d2/d34/class_b_m_i055__accel.html#a0d823adf3de0c16dfda0e61367736716" target="_top" xlink:title="Start automatic measurement. ">
<polygon fill="white" stroke="black" points="150.5,-50 150.5,-69 254.5,-69 254.5,-50 150.5,-50"/>
<text text-anchor="middle" x="202.5" y="-57" font-family="Helvetica,sans-Serif" font-size="10.00">BMI055_accel::start</text>
</a>
</g>
</g>
<!-- Node1&#45;&gt;Node3 -->
<g id="edge2" class="edge"><title>Node1&#45;&gt;Node3</title>
<path fill="none" stroke="midnightblue" d="M114.437,-59.5C126.364,-59.5 138.746,-59.5 150.301,-59.5"/>
<polygon fill="midnightblue" stroke="midnightblue" points="114.105,-56.0001 104.105,-59.5 114.105,-63.0001 114.105,-56.0001"/>
</g>
<!-- Node4 -->
<g id="node4" class="node"><title>Node4</title>
<g id="a_node4"><a xlink:href="../../d2/d34/class_b_m_i055__accel.html#a285991ba2220ab0b82be81b32fcfa7fb" target="_top" xlink:title="BMI055_accel::~BMI055\l_accel">
<polygon fill="white" stroke="black" points="140,-0.5 140,-30.5 265,-30.5 265,-0.5 140,-0.5"/>
<text text-anchor="start" x="148" y="-18.5" font-family="Helvetica,sans-Serif" font-size="10.00">BMI055_accel::~BMI055</text>
<text text-anchor="middle" x="202.5" y="-7.5" font-family="Helvetica,sans-Serif" font-size="10.00">_accel</text>
</a>
</g>
</g>
<!-- Node1&#45;&gt;Node4 -->
<g id="edge4" class="edge"><title>Node1&#45;&gt;Node4</title>
<path fill="none" stroke="midnightblue" d="M95.0365,-47.0447C112.337,-41.9187 132.532,-35.9351 150.654,-30.5654"/>
<polygon fill="midnightblue" stroke="midnightblue" points="93.8159,-43.7559 85.2223,-49.9527 95.8046,-50.4675 93.8159,-43.7559"/>
</g>
<!-- Node3&#45;&gt;Node2 -->
<g id="edge3" class="edge"><title>Node3&#45;&gt;Node2</title>
<path fill="none" stroke="midnightblue" d="M265.125,-67.4113C276.983,-68.9336 289.277,-70.5119 300.743,-71.9839"/>
<polygon fill="midnightblue" stroke="midnightblue" points="265.212,-63.8939 254.848,-66.092 264.321,-70.8369 265.212,-63.8939"/>
</g>
</g>
</svg>
