<?xml version="1.0" encoding="UTF-8" standalone="no"?>
<!DOCTYPE svg PUBLIC "-//W3C//DTD SVG 1.1//EN"
 "http://www.w3.org/Graphics/SVG/1.1/DTD/svg11.dtd">
<!-- Generated by graphviz version 2.40.1 (20161225.0304)
 -->
<!-- Title: send Pages: 1 -->
<svg width="357pt" height="196pt"
 viewBox="0.00 0.00 357.00 196.00" xmlns="http://www.w3.org/2000/svg" xmlns:xlink="http://www.w3.org/1999/xlink">
<g id="graph0" class="graph" transform="scale(1 1) rotate(0) translate(4 192)">
<title>send</title>
<polygon fill="#ffffff" stroke="transparent" points="-4,4 -4,-192 353,-192 353,4 -4,4"/>
<!-- Node5 -->
<g id="node1" class="node">
<title>Node5</title>
<polygon fill="#bfbfbf" stroke="#000000" points="0,-82.5 0,-101.5 38,-101.5 38,-82.5 0,-82.5"/>
<text text-anchor="middle" x="19" y="-89.5" font-family="Helvetica,sans-Serif" font-size="10.00" fill="#000000">send</text>
</g>
<!-- Node6 -->
<g id="node2" class="node">
<title>Node6</title>
<g id="a_node2"><a xlink:href="../../d0/d73/class_____e_x_p_o_r_t_1_1_s_p_i.html#a7fce244cffa31bf626cbbfbcf4b706cc" target="_top" xlink:title="Check for the presence of the device on the bus. ">
<polygon fill="#ffffff" stroke="#000000" points="78,-167.5 78,-186.5 199,-186.5 199,-167.5 78,-167.5"/>
<text text-anchor="middle" x="138.5" y="-174.5" font-family="Helvetica,sans-Serif" font-size="10.00" fill="#000000">__EXPORT::SPI::probe</text>
</a>
</g>
</g>
<!-- Node5&#45;&gt;Node6 -->
<g id="edge1" class="edge">
<title>Node5&#45;&gt;Node6</title>
<path fill="none" stroke="#191970" d="M30.6489,-109.8834C40.6334,-123.9319 56.1967,-143.0565 74,-155 81.7619,-160.2072 90.8756,-164.2956 99.7677,-167.4599"/>
<polygon fill="#191970" stroke="#191970" points="33.4585,-107.7914 24.9257,-101.511 27.6796,-111.7417 33.4585,-107.7914"/>
</g>
<!-- Node8 -->
<g id="node4" class="node">
<title>Node8</title>
<g id="a_node4"><a xlink:href="../../d0/d70/class_____e_x_p_o_r_t_1_1_i2_c.html#a819e3880aacc3ddcf5d82c135ded07f8" target="_top" xlink:title="Check for the presence of the device on the bus. ">
<polygon fill="#ffffff" stroke="#000000" points="78.5,-126.5 78.5,-145.5 198.5,-145.5 198.5,-126.5 78.5,-126.5"/>
<text text-anchor="middle" x="138.5" y="-133.5" font-family="Helvetica,sans-Serif" font-size="10.00" fill="#000000">__EXPORT::I2C::probe</text>
</a>
</g>
</g>
<!-- Node5&#45;&gt;Node8 -->
<g id="edge3" class="edge">
<title>Node5&#45;&gt;Node8</title>
<path fill="none" stroke="#191970" d="M47.2742,-105.0522C55.7854,-108.7867 65.2027,-112.7281 74,-116 83.9995,-119.719 95.0401,-123.3212 105.1181,-126.4197"/>
<polygon fill="#191970" stroke="#191970" points="48.6893,-101.851 38.1311,-100.9705 45.8357,-108.243 48.6893,-101.851"/>
</g>
<!-- Node10 -->
<g id="node6" class="node">
<title>Node10</title>
<g id="a_node6"><a xlink:href="../../dd/dd1/class_simulator.html#ab62d57aebc85edfba4f55f41a523c64e" target="_top" xlink:title="Simulator::send_mavlink\l_message">
<polygon fill="#ffffff" stroke="#000000" points="76.5,-77 76.5,-107 200.5,-107 200.5,-77 76.5,-77"/>
<text text-anchor="start" x="84.5" y="-95" font-family="Helvetica,sans-Serif" font-size="10.00" fill="#000000">Simulator::send_mavlink</text>
<text text-anchor="middle" x="138.5" y="-84" font-family="Helvetica,sans-Serif" font-size="10.00" fill="#000000">_message</text>
</a>
</g>
</g>
<!-- Node5&#45;&gt;Node10 -->
<g id="edge5" class="edge">
<title>Node5&#45;&gt;Node10</title>
<path fill="none" stroke="#191970" d="M48.3675,-92C56.9369,-92 66.6425,-92 76.4311,-92"/>
<polygon fill="#191970" stroke="#191970" points="48.1998,-88.5001 38.1997,-92 48.1997,-95.5001 48.1998,-88.5001"/>
</g>
<!-- Node11 -->
<g id="node7" class="node">
<title>Node11</title>
<g id="a_node7"><a xlink:href="../../d5/d69/tests__main_8h.html#a33439050fe197b894fa581ee10c68ac5" target="_top" xlink:title="test_hott_telemetry">
<polygon fill="#ffffff" stroke="#000000" points="88,-38.5 88,-57.5 189,-57.5 189,-38.5 88,-38.5"/>
<text text-anchor="middle" x="138.5" y="-45.5" font-family="Helvetica,sans-Serif" font-size="10.00" fill="#000000">test_hott_telemetry</text>
</a>
</g>
</g>
<!-- Node5&#45;&gt;Node11 -->
<g id="edge6" class="edge">
<title>Node5&#45;&gt;Node11</title>
<path fill="none" stroke="#191970" d="M47.2011,-78.2655C55.7102,-74.3715 65.1446,-70.2984 74,-67 83.1891,-63.5773 93.2924,-60.3551 102.7205,-57.5704"/>
<polygon fill="#191970" stroke="#191970" points="45.6443,-75.1297 38.0674,-82.5351 48.6086,-81.4711 45.6443,-75.1297"/>
</g>
<!-- Node12 -->
<g id="node8" class="node">
<title>Node12</title>
<g id="a_node8"><a xlink:href="../../d0/d70/class_____e_x_p_o_r_t_1_1_i2_c.html#a921fed610904ba6afdbc6600a7e1d6b5" target="_top" xlink:title="Perform an I2C transaction to the device. ">
<polygon fill="#ffffff" stroke="#000000" points="74,-.5 74,-19.5 203,-19.5 203,-.5 74,-.5"/>
<text text-anchor="middle" x="138.5" y="-7.5" font-family="Helvetica,sans-Serif" font-size="10.00" fill="#000000">__EXPORT::I2C::transfer</text>
</a>
</g>
</g>
<!-- Node5&#45;&gt;Node12 -->
<g id="edge7" class="edge">
<title>Node5&#45;&gt;Node12</title>
<path fill="none" stroke="#191970" d="M30.5155,-73.9132C40.4233,-59.7476 55.9485,-40.5649 74,-29 79.996,-25.1586 86.7966,-22.0691 93.6781,-19.5913"/>
<polygon fill="#191970" stroke="#191970" points="27.509,-72.1123 24.8457,-82.3669 33.3226,-76.0114 27.509,-72.1123"/>
</g>
<!-- Node7 -->
<g id="node3" class="node">
<title>Node7</title>
<g id="a_node3"><a xlink:href="../../d0/d73/class_____e_x_p_o_r_t_1_1_s_p_i.html#a548ec808dfecf1aec926411c7efeee83" target="_top" xlink:title="__EXPORT::SPI::init">
<polygon fill="#ffffff" stroke="#000000" points="239,-168.5 239,-187.5 349,-187.5 349,-168.5 239,-168.5"/>
<text text-anchor="middle" x="294" y="-175.5" font-family="Helvetica,sans-Serif" font-size="10.00" fill="#000000">__EXPORT::SPI::init</text>
</a>
</g>
</g>
<!-- Node6&#45;&gt;Node7 -->
<g id="edge2" class="edge">
<title>Node6&#45;&gt;Node7</title>
<path fill="none" stroke="#191970" d="M209.3327,-177.4555C219.2641,-177.5194 229.3472,-177.5842 238.9269,-177.6458"/>
<polygon fill="#191970" stroke="#191970" points="209.088,-173.954 199.0656,-177.3895 209.0429,-180.9538 209.088,-173.954"/>
</g>
<!-- Node9 -->
<g id="node5" class="node">
<title>Node9</title>
<g id="a_node5"><a xlink:href="../../d0/d70/class_____e_x_p_o_r_t_1_1_i2_c.html#a74be5f9a6d11f79a314fd72e94cf5ea1" target="_top" xlink:title="__EXPORT::I2C::set\l_bus_clock">
<polygon fill="#ffffff" stroke="#000000" points="239,-119 239,-149 349,-149 349,-119 239,-119"/>
<text text-anchor="start" x="247" y="-137" font-family="Helvetica,sans-Serif" font-size="10.00" fill="#000000">__EXPORT::I2C::set</text>
<text text-anchor="middle" x="294" y="-126" font-family="Helvetica,sans-Serif" font-size="10.00" fill="#000000">_bus_clock</text>
</a>
</g>
</g>
<!-- Node8&#45;&gt;Node9 -->
<g id="edge4" class="edge">
<title>Node8&#45;&gt;Node9</title>
<path fill="none" stroke="#191970" d="M208.6649,-135.0976C218.7931,-134.9673 229.0945,-134.8348 238.873,-134.709"/>
<polygon fill="#191970" stroke="#191970" points="208.5745,-131.5983 198.6204,-135.2267 208.6646,-138.5978 208.5745,-131.5983"/>
</g>
</g>
</svg>
