<?xml version="1.0" encoding="UTF-8" standalone="no"?>
<!DOCTYPE svg PUBLIC "-//W3C//DTD SVG 1.1//EN"
 "http://www.w3.org/Graphics/SVG/1.1/DTD/svg11.dtd">
<!-- Generated by graphviz version 2.38.0 (20140413.2041)
 -->
<!-- Title: SF0X::SF0X Pages: 1 -->
<svg width="367pt" height="116pt"
 viewBox="0.00 0.00 367.00 116.00" xmlns="http://www.w3.org/2000/svg" xmlns:xlink="http://www.w3.org/1999/xlink">
<g id="graph0" class="graph" transform="scale(1 1) rotate(0) translate(4 112)">
<title>SF0X::SF0X</title>
<polygon fill="white" stroke="none" points="-4,4 -4,-112 363,-112 363,4 -4,4"/>
<!-- Node1 -->
<g id="node1" class="node"><title>Node1</title>
<polygon fill="#bfbfbf" stroke="black" points="0,-44.5 0,-63.5 72,-63.5 72,-44.5 0,-44.5"/>
<text text-anchor="middle" x="36" y="-51.5" font-family="Helvetica,sans-Serif" font-size="10.00">SF0X::SF0X</text>
</g>
<!-- Node2 -->
<g id="node2" class="node"><title>Node2</title>
<g id="a_node2"><a xlink:href="../../db/dcf/classdevice_1_1_c_dev.html#a398ee881e4eb691f7622e8f2e6da7863" target="_top" xlink:title="Handle an open of the device. ">
<polygon fill="white" stroke="black" points="108,-44.5 108,-63.5 212,-63.5 212,-44.5 108,-44.5"/>
<text text-anchor="middle" x="160" y="-51.5" font-family="Helvetica,sans-Serif" font-size="10.00">device::CDev::open</text>
</a>
</g>
</g>
<!-- Node1&#45;&gt;Node2 -->
<g id="edge1" class="edge"><title>Node1&#45;&gt;Node2</title>
<path fill="none" stroke="midnightblue" d="M72.2875,-54C80.2792,-54 88.9918,-54 97.7121,-54"/>
<polygon fill="midnightblue" stroke="midnightblue" points="97.91,-57.5001 107.91,-54 97.9099,-50.5001 97.91,-57.5001"/>
</g>
<!-- Node3 -->
<g id="node3" class="node"><title>Node3</title>
<g id="a_node3"><a xlink:href="../../db/dcf/classdevice_1_1_c_dev.html#a532f13f26f056bd17931efe7db10260e" target="_top" xlink:title="Take the driver lock. ">
<polygon fill="white" stroke="black" points="253,-88.5 253,-107.5 354,-107.5 354,-88.5 253,-88.5"/>
<text text-anchor="middle" x="303.5" y="-95.5" font-family="Helvetica,sans-Serif" font-size="10.00">device::CDev::lock</text>
</a>
</g>
</g>
<!-- Node2&#45;&gt;Node3 -->
<g id="edge2" class="edge"><title>Node2&#45;&gt;Node3</title>
<path fill="none" stroke="midnightblue" d="M191.703,-63.5473C212.378,-69.9763 239.856,-78.5206 262.275,-85.4918"/>
<polygon fill="midnightblue" stroke="midnightblue" points="261.268,-88.8441 271.857,-88.4713 263.347,-82.1598 261.268,-88.8441"/>
</g>
<!-- Node4 -->
<g id="node4" class="node"><title>Node4</title>
<g id="a_node4"><a xlink:href="../../db/dcf/classdevice_1_1_c_dev.html#a7a6a99908a6b433e554ad9cb532f30da" target="_top" xlink:title="Notification of the first open. ">
<polygon fill="white" stroke="black" points="251.5,-39 251.5,-69 355.5,-69 355.5,-39 251.5,-39"/>
<text text-anchor="start" x="259.5" y="-57" font-family="Helvetica,sans-Serif" font-size="10.00">device::CDev::open</text>
<text text-anchor="middle" x="303.5" y="-46" font-family="Helvetica,sans-Serif" font-size="10.00">_first</text>
</a>
</g>
</g>
<!-- Node2&#45;&gt;Node4 -->
<g id="edge3" class="edge"><title>Node2&#45;&gt;Node4</title>
<path fill="none" stroke="midnightblue" d="M212.085,-54C221.603,-54 231.637,-54 241.419,-54"/>
<polygon fill="midnightblue" stroke="midnightblue" points="241.49,-57.5001 251.49,-54 241.49,-50.5001 241.49,-57.5001"/>
</g>
<!-- Node5 -->
<g id="node5" class="node"><title>Node5</title>
<g id="a_node5"><a xlink:href="../../db/dcf/classdevice_1_1_c_dev.html#af34c341f89cc744e2f327ec01ed5e4dd" target="_top" xlink:title="Release the driver lock. ">
<polygon fill="white" stroke="black" points="248,-0.5 248,-19.5 359,-19.5 359,-0.5 248,-0.5"/>
<text text-anchor="middle" x="303.5" y="-7.5" font-family="Helvetica,sans-Serif" font-size="10.00">device::CDev::unlock</text>
</a>
</g>
</g>
<!-- Node2&#45;&gt;Node5 -->
<g id="edge4" class="edge"><title>Node2&#45;&gt;Node5</title>
<path fill="none" stroke="midnightblue" d="M191.703,-44.4527C212.378,-38.0237 239.856,-29.4794 262.275,-22.5082"/>
<polygon fill="midnightblue" stroke="midnightblue" points="263.347,-25.8402 271.857,-19.5287 261.268,-19.1559 263.347,-25.8402"/>
</g>
</g>
</svg>
