<?xml version="1.0" encoding="UTF-8" standalone="no"?>
<!DOCTYPE svg PUBLIC "-//W3C//DTD SVG 1.1//EN"
 "http://www.w3.org/Graphics/SVG/1.1/DTD/svg11.dtd">
<!-- Generated by graphviz version 2.40.1 (20161225.0304)
 -->
<!-- Title: SF0X::ioctl Pages: 1 -->
<svg width="270pt" height="104pt"
 viewBox="0.00 0.00 270.00 104.00" xmlns="http://www.w3.org/2000/svg" xmlns:xlink="http://www.w3.org/1999/xlink">
<g id="graph0" class="graph" transform="scale(1 1) rotate(0) translate(4 100)">
<title>SF0X::ioctl</title>
<polygon fill="#ffffff" stroke="transparent" points="-4,4 -4,-100 266,-100 266,4 -4,4"/>
<!-- Node215 -->
<g id="node1" class="node">
<title>Node215</title>
<polygon fill="#bfbfbf" stroke="#000000" points="0,-38.5 0,-57.5 65,-57.5 65,-38.5 0,-38.5"/>
<text text-anchor="middle" x="32.5" y="-45.5" font-family="Helvetica,sans-Serif" font-size="10.00" fill="#000000">SF0X::ioctl</text>
</g>
<!-- Node216 -->
<g id="node2" class="node">
<title>Node216</title>
<g id="a_node2"><a xlink:href="../../d2/d36/namespacesf0x.html#a47c5b9c6ee6b530f3de6f36727fc0799" target="_top" xlink:title="Reset the driver. ">
<polygon fill="#ffffff" stroke="#000000" points="101,-76.5 101,-95.5 164,-95.5 164,-76.5 101,-76.5"/>
<text text-anchor="middle" x="132.5" y="-83.5" font-family="Helvetica,sans-Serif" font-size="10.00" fill="#000000">sf0x::reset</text>
</a>
</g>
</g>
<!-- Node215&#45;&gt;Node216 -->
<g id="edge1" class="edge">
<title>Node215&#45;&gt;Node216</title>
<path fill="none" stroke="#191970" d="M67.4067,-61.2646C80.5349,-66.2533 95.195,-71.8241 107.2739,-76.4141"/>
<polygon fill="#191970" stroke="#191970" points="68.3253,-57.8695 57.7342,-57.589 65.8388,-64.413 68.3253,-57.8695"/>
</g>
<!-- Node218 -->
<g id="node4" class="node">
<title>Node218</title>
<g id="a_node4"><a xlink:href="../../d2/d36/namespacesf0x.html#aa85688c43aa8b083bb86c51ae3430ec2" target="_top" xlink:title="Start the driver. ">
<polygon fill="#ffffff" stroke="#000000" points="102,-38.5 102,-57.5 163,-57.5 163,-38.5 102,-38.5"/>
<text text-anchor="middle" x="132.5" y="-45.5" font-family="Helvetica,sans-Serif" font-size="10.00" fill="#000000">sf0x::start</text>
</a>
</g>
</g>
<!-- Node215&#45;&gt;Node218 -->
<g id="edge3" class="edge">
<title>Node215&#45;&gt;Node218</title>
<path fill="none" stroke="#191970" d="M75.4192,-48C84.2632,-48 93.4089,-48 101.7191,-48"/>
<polygon fill="#191970" stroke="#191970" points="75.2438,-44.5001 65.2437,-48 75.2437,-51.5001 75.2438,-44.5001"/>
</g>
<!-- Node219 -->
<g id="node5" class="node">
<title>Node219</title>
<g id="a_node5"><a xlink:href="../../d2/d36/namespacesf0x.html#ab5214f31c93bca38fbb81b0dae558c0e" target="_top" xlink:title="Perform some basic functional tests on the driver; make sure we can collect data from the sensor in p...">
<polygon fill="#ffffff" stroke="#000000" points="103.5,-.5 103.5,-19.5 161.5,-19.5 161.5,-.5 103.5,-.5"/>
<text text-anchor="middle" x="132.5" y="-7.5" font-family="Helvetica,sans-Serif" font-size="10.00" fill="#000000">sf0x::test</text>
</a>
</g>
</g>
<!-- Node215&#45;&gt;Node219 -->
<g id="edge5" class="edge">
<title>Node215&#45;&gt;Node219</title>
<path fill="none" stroke="#191970" d="M67.4067,-34.7354C80.5349,-29.7467 95.195,-24.1759 107.2739,-19.5859"/>
<polygon fill="#191970" stroke="#191970" points="65.8388,-31.587 57.7342,-38.411 68.3253,-38.1305 65.8388,-31.587"/>
</g>
<!-- Node217 -->
<g id="node3" class="node">
<title>Node217</title>
<g id="a_node3"><a xlink:href="../../d6/d95/sf0x_8cpp.html#a0656d9cf473c1418a8d1589df5a53117" target="_top" xlink:title="sf0x_main">
<polygon fill="#ffffff" stroke="#000000" points="200,-38.5 200,-57.5 262,-57.5 262,-38.5 200,-38.5"/>
<text text-anchor="middle" x="231" y="-45.5" font-family="Helvetica,sans-Serif" font-size="10.00" fill="#000000">sf0x_main</text>
</a>
</g>
</g>
<!-- Node216&#45;&gt;Node217 -->
<g id="edge2" class="edge">
<title>Node216&#45;&gt;Node217</title>
<path fill="none" stroke="#191970" d="M166.8831,-72.7354C179.8144,-67.7467 194.2546,-62.1759 206.1522,-57.5859"/>
<polygon fill="#191970" stroke="#191970" points="165.4257,-69.5462 157.3557,-76.411 167.9453,-76.0771 165.4257,-69.5462"/>
</g>
<!-- Node218&#45;&gt;Node217 -->
<g id="edge4" class="edge">
<title>Node218&#45;&gt;Node217</title>
<path fill="none" stroke="#191970" d="M173.2569,-48C182.0945,-48 191.3084,-48 199.7135,-48"/>
<polygon fill="#191970" stroke="#191970" points="173.1261,-44.5001 163.1261,-48 173.126,-51.5001 173.1261,-44.5001"/>
</g>
<!-- Node219&#45;&gt;Node217 -->
<g id="edge6" class="edge">
<title>Node219&#45;&gt;Node217</title>
<path fill="none" stroke="#191970" d="M166.8831,-23.2646C179.8144,-28.2533 194.2546,-33.8241 206.1522,-38.4141"/>
<polygon fill="#191970" stroke="#191970" points="167.9453,-19.9229 157.3557,-19.589 165.4257,-26.4538 167.9453,-19.9229"/>
</g>
</g>
</svg>
