<?xml version="1.0" encoding="UTF-8" standalone="no"?>
<!DOCTYPE svg PUBLIC "-//W3C//DTD SVG 1.1//EN"
 "http://www.w3.org/Graphics/SVG/1.1/DTD/svg11.dtd">
<!-- Generated by graphviz version 2.38.0 (20140413.2041)
 -->
<!-- Title: MultirotorMixer::update_saturation_status Pages: 1 -->
<!--zoomable 88 -->
<svg id="main" version="1.1" xmlns="http://www.w3.org/2000/svg" xmlns:xlink="http://www.w3.org/1999/xlink" xml:space="preserve" onload="init(evt)">
<style type="text/css"><![CDATA[
.edge:hover path { stroke: red; }
.edge:hover polygon { stroke: red; fill: red; }
]]></style>
<script type="text/javascript"><![CDATA[
var edges = document.getElementsByTagName('g');
if (edges && edges.length) {
  for (var i=0;i<edges.length;i++) {
    if (edges[i].id.substr(0,4)=='edge') {
      edges[i].setAttribute('class','edge');
    }
  }
}
]]></script>
        <defs>
                <circle id="rim" cx="0" cy="0" r="7"/>
                <circle id="rim2" cx="0" cy="0" r="3.5"/>
                <g id="zoomPlus">
                        <use xlink:href="#rim" fill="#404040">
                                <set attributeName="fill" to="#808080" begin="zoomplus.mouseover" end="zoomplus.mouseout"/>
                        </use>
                        <path d="M-4,0h8M0,-4v8" fill="none" stroke="white" stroke-width="1.5" pointer-events="none"/>
                </g>
                <g id="zoomMin">
                        <use xlink:href="#rim" fill="#404040">
                                <set attributeName="fill" to="#808080" begin="zoomminus.mouseover" end="zoomminus.mouseout"/>
                        </use>
                        <path d="M-4,0h8" fill="none" stroke="white" stroke-width="1.5" pointer-events="none"/>
                </g>
                <g id="dirArrow">
                        <path fill="none" stroke="white" stroke-width="1.5" d="M0,-3.0v7 M-2.5,-0.5L0,-3.0L2.5,-0.5"/>
                </g>
               <g id="resetDef">
                       <use xlink:href="#rim2" fill="#404040">
                               <set attributeName="fill" to="#808080" begin="reset.mouseover" end="reset.mouseout"/>
                       </use>
               </g>
        </defs>

<script type="text/javascript">
var viewWidth = 1087;
var viewHeight = 88;
var sectionId = 'dynsection-16';
</script>
<script xlink:href="../../svgpan.js"/>
<svg id="graph" class="graph">
<g id="viewport">
<title>MultirotorMixer::update_saturation_status</title>
<polygon fill="white" stroke="none" points="-4,4 -4,-84 1083,-84 1083,4 -4,4"/>
<!-- Node1 -->
<g id="node1" class="node"><title>Node1</title>
<polygon fill="#bfbfbf" stroke="black" points="0,-25.5 0,-55.5 116,-55.5 116,-25.5 0,-25.5"/>
<text text-anchor="start" x="8" y="-43.5" font-family="Helvetica,sans-Serif" font-size="10.00">MultirotorMixer::update</text>
<text text-anchor="middle" x="58" y="-32.5" font-family="Helvetica,sans-Serif" font-size="10.00">_saturation_status</text>
</g>
<!-- Node2 -->
<g id="node2" class="node"><title>Node2</title>
<g id="a_node2"><a xlink:href="../../d5/dd1/class_multirotor_mixer.html#aa716ac6e88a1aa0f7bac14982c80cfb3" target="_top" xlink:title="Perform the mixing function. ">
<polygon fill="white" stroke="black" points="152,-31 152,-50 255,-50 255,-31 152,-31"/>
<text text-anchor="middle" x="203.5" y="-38" font-family="Helvetica,sans-Serif" font-size="10.00">MultirotorMixer::mix</text>
</a>
</g>
</g>
<!-- Node1&#45;&gt;Node2 -->
<g id="edge1" class="edge"><title>Node1&#45;&gt;Node2</title>
<path fill="none" stroke="midnightblue" d="M126.398,-40.5C134.878,-40.5 143.439,-40.5 151.606,-40.5"/>
<polygon fill="midnightblue" stroke="midnightblue" points="126.127,-37.0001 116.127,-40.5 126.127,-44.0001 126.127,-37.0001"/>
</g>
<!-- Node3 -->
<g id="node3" class="node"><title>Node3</title>
<g id="a_node3"><a xlink:href="../../d9/dd1/namespaceuart__esc.html#aee518e4183b269a2432ea9184a93b957" target="_top" xlink:title="uart_esc thread primary entry point ">
<polygon fill="white" stroke="black" points="310.5,-52 310.5,-71 415.5,-71 415.5,-52 310.5,-52"/>
<text text-anchor="middle" x="363" y="-59" font-family="Helvetica,sans-Serif" font-size="10.00">uart_esc::task_main</text>
</a>
</g>
</g>
<!-- Node2&#45;&gt;Node3 -->
<g id="edge2" class="edge"><title>Node2&#45;&gt;Node3</title>
<path fill="none" stroke="midnightblue" d="M265.315,-48.6086C280.172,-50.5896 295.928,-52.6904 310.313,-54.6084"/>
<polygon fill="midnightblue" stroke="midnightblue" points="265.576,-45.1125 255.201,-47.2601 264.651,-52.0511 265.576,-45.1125"/>
</g>
<!-- Node7 -->
<g id="node7" class="node"><title>Node7</title>
<g id="a_node7"><a xlink:href="../../d3/d92/namespacesnapdragon__pwm.html#aac81928961ddcf167b03a8ff288b985b" target="_top" xlink:title="snapdragon_pwm::task_main">
<polygon fill="white" stroke="black" points="291,-11 291,-30 435,-30 435,-11 291,-11"/>
<text text-anchor="middle" x="363" y="-18" font-family="Helvetica,sans-Serif" font-size="10.00">snapdragon_pwm::task_main</text>
</a>
</g>
</g>
<!-- Node2&#45;&gt;Node7 -->
<g id="edge6" class="edge"><title>Node2&#45;&gt;Node7</title>
<path fill="none" stroke="midnightblue" d="M265.223,-32.7891C273.578,-31.7282 282.219,-30.6309 290.742,-29.5487"/>
<polygon fill="midnightblue" stroke="midnightblue" points="264.68,-29.3299 255.201,-34.0618 265.562,-36.2741 264.68,-29.3299"/>
</g>
<!-- Node4 -->
<g id="node4" class="node"><title>Node4</title>
<g id="a_node4"><a xlink:href="../../d9/dd1/namespaceuart__esc.html#a29b71bb756bb2b3b5b7e691d09423703" target="_top" xlink:title="task main trampoline function ">
<polygon fill="white" stroke="black" points="477.5,-49.5 477.5,-79.5 582.5,-79.5 582.5,-49.5 477.5,-49.5"/>
<text text-anchor="start" x="485.5" y="-67.5" font-family="Helvetica,sans-Serif" font-size="10.00">uart_esc::task_main</text>
<text text-anchor="middle" x="530" y="-56.5" font-family="Helvetica,sans-Serif" font-size="10.00">_trampoline</text>
</a>
</g>
</g>
<!-- Node3&#45;&gt;Node4 -->
<g id="edge3" class="edge"><title>Node3&#45;&gt;Node4</title>
<path fill="none" stroke="midnightblue" d="M426.104,-62.6292C443.023,-62.9368 461.164,-63.2666 477.429,-63.5624"/>
<polygon fill="midnightblue" stroke="midnightblue" points="425.816,-59.1234 415.754,-62.441 425.689,-66.1223 425.816,-59.1234"/>
</g>
<!-- Node5 -->
<g id="node5" class="node"><title>Node5</title>
<g id="a_node5"><a xlink:href="../../d9/dd1/namespaceuart__esc.html#a7414266b22e73024e9dbbbd65776f404" target="_top" xlink:title="Attempt to start driver on all available I2C busses. ">
<polygon fill="white" stroke="black" points="644.5,-55 644.5,-74 724.5,-74 724.5,-55 644.5,-55"/>
<text text-anchor="middle" x="684.5" y="-62" font-family="Helvetica,sans-Serif" font-size="10.00">uart_esc::start</text>
</a>
</g>
</g>
<!-- Node4&#45;&gt;Node5 -->
<g id="edge4" class="edge"><title>Node4&#45;&gt;Node5</title>
<path fill="none" stroke="midnightblue" d="M592.761,-64.5C610.225,-64.5 628.742,-64.5 644.463,-64.5"/>
<polygon fill="midnightblue" stroke="midnightblue" points="592.63,-61.0001 582.63,-64.5 592.63,-68.0001 592.63,-61.0001"/>
</g>
<!-- Node6 -->
<g id="node6" class="node"><title>Node6</title>
<g id="a_node6"><a xlink:href="../../d3/d92/spektrum__rc_8cpp.html#a1fabcdf34c69dadf4f3f51b77f485286" target="_top" xlink:title="spektrum_rc_main">
<polygon fill="white" stroke="black" points="800.5,-55 800.5,-74 897.5,-74 897.5,-55 800.5,-55"/>
<text text-anchor="middle" x="849" y="-62" font-family="Helvetica,sans-Serif" font-size="10.00">spektrum_rc_main</text>
</a>
</g>
</g>
<!-- Node5&#45;&gt;Node6 -->
<g id="edge5" class="edge"><title>Node5&#45;&gt;Node6</title>
<path fill="none" stroke="midnightblue" d="M735.038,-64.5C755.782,-64.5 779.796,-64.5 800.336,-64.5"/>
<polygon fill="midnightblue" stroke="midnightblue" points="734.837,-61.0001 724.837,-64.5 734.837,-68.0001 734.837,-61.0001"/>
</g>
<!-- Node8 -->
<g id="node8" class="node"><title>Node8</title>
<g id="a_node8"><a xlink:href="../../d3/d92/namespacesnapdragon__pwm.html#a2ba69ca6582c4546ff158d57c18fec22" target="_top" xlink:title="snapdragon_pwm::task\l_main_trampoline">
<polygon fill="white" stroke="black" points="471,-0.5 471,-30.5 589,-30.5 589,-0.5 471,-0.5"/>
<text text-anchor="start" x="479" y="-18.5" font-family="Helvetica,sans-Serif" font-size="10.00">snapdragon_pwm::task</text>
<text text-anchor="middle" x="530" y="-7.5" font-family="Helvetica,sans-Serif" font-size="10.00">_main_trampoline</text>
</a>
</g>
</g>
<!-- Node7&#45;&gt;Node8 -->
<g id="edge7" class="edge"><title>Node7&#45;&gt;Node8</title>
<path fill="none" stroke="midnightblue" d="M445.457,-18.0316C454.04,-17.7715 462.637,-17.511 470.878,-17.2613"/>
<polygon fill="midnightblue" stroke="midnightblue" points="445.301,-14.5346 435.412,-18.336 445.513,-21.5314 445.301,-14.5346"/>
</g>
<!-- Node9 -->
<g id="node9" class="node"><title>Node9</title>
<g id="a_node9"><a xlink:href="../../d3/d92/namespacesnapdragon__pwm.html#a4ded7b1adaa7c042a7feec376941cc2f" target="_top" xlink:title="snapdragon_pwm::start">
<polygon fill="white" stroke="black" points="625,-6 625,-25 744,-25 744,-6 625,-6"/>
<text text-anchor="middle" x="684.5" y="-13" font-family="Helvetica,sans-Serif" font-size="10.00">snapdragon_pwm::start</text>
</a>
</g>
</g>
<!-- Node8&#45;&gt;Node9 -->
<g id="edge8" class="edge"><title>Node8&#45;&gt;Node9</title>
<path fill="none" stroke="midnightblue" d="M599.358,-15.5C607.854,-15.5 616.482,-15.5 624.815,-15.5"/>
<polygon fill="midnightblue" stroke="midnightblue" points="599.089,-12.0001 589.089,-15.5 599.089,-19.0001 599.089,-12.0001"/>
</g>
<!-- Node10 -->
<g id="node10" class="node"><title>Node10</title>
<g id="a_node10"><a xlink:href="../../d8/dad/snapdragon__pwm__out_8cpp.html#a21dce0265a43d504f07e3c24e3302e83" target="_top" xlink:title="snapdragon_pwm_out_main">
<polygon fill="white" stroke="black" points="780,-6 780,-25 918,-25 918,-6 780,-6"/>
<text text-anchor="middle" x="849" y="-13" font-family="Helvetica,sans-Serif" font-size="10.00">snapdragon_pwm_out_main</text>
</a>
</g>
</g>
<!-- Node9&#45;&gt;Node10 -->
<g id="edge9" class="edge"><title>Node9&#45;&gt;Node10</title>
<path fill="none" stroke="midnightblue" d="M754.319,-15.5C762.737,-15.5 771.338,-15.5 779.748,-15.5"/>
<polygon fill="midnightblue" stroke="midnightblue" points="754.166,-12.0001 744.166,-15.5 754.166,-19.0001 754.166,-12.0001"/>
</g>
<!-- Node11 -->
<g id="node11" class="node"><title>Node11</title>
<g id="a_node11"><a xlink:href="../../d3/d92/namespacesnapdragon__pwm.html#a8d24f1d491d98e86370e41289f812007" target="_top" xlink:title="snapdragon_pwm::usage">
<polygon fill="white" stroke="black" points="954,-6 954,-25 1079,-25 1079,-6 954,-6"/>
<text text-anchor="middle" x="1016.5" y="-13" font-family="Helvetica,sans-Serif" font-size="10.00">snapdragon_pwm::usage</text>
</a>
</g>
</g>
<!-- Node10&#45;&gt;Node11 -->
<g id="edge10" class="edge"><title>Node10&#45;&gt;Node11</title>
<path fill="none" stroke="midnightblue" d="M928.54,-8.75777C937.003,-8.72651 945.524,-8.78958 953.749,-8.947"/>
<polygon fill="midnightblue" stroke="midnightblue" points="928.241,-5.26002 918.271,-8.8427 928.299,-12.2598 928.241,-5.26002"/>
</g>
<!-- Node11&#45;&gt;Node10 -->
<g id="edge11" class="edge"><title>Node11&#45;&gt;Node10</title>
<path fill="none" stroke="midnightblue" d="M943.593,-22.1982C935.186,-22.2789 926.627,-22.2653 918.271,-22.1573"/>
<polygon fill="midnightblue" stroke="midnightblue" points="943.8,-25.6957 953.749,-22.053 943.7,-18.6964 943.8,-25.6957"/>
</g>
</g>
</svg>
        <g id="navigator" transform="translate(0 0)" fill="#404254">
                <rect fill="#f2f5e9" fill-opacity="0.5" stroke="#606060" stroke-width=".5" x="0" y="0" width="60" height="60"/>
                <use id="zoomplus" xlink:href="#zoomPlus" x="17" y="9" onmousedown="handleZoom(evt,'in')"/>
                <use id="zoomminus" xlink:href="#zoomMin" x="42" y="9" onmousedown="handleZoom(evt,'out')"/>
                <use id="reset" xlink:href="#resetDef" x="30" y="36" onmousedown="handleReset()"/>
                <g id="arrowUp" xlink:href="#dirArrow" transform="translate(30 24)" onmousedown="handlePan(0,-1)">
                  <use xlink:href="#rim" fill="#404040">
                        <set attributeName="fill" to="#808080" begin="arrowUp.mouseover" end="arrowUp.mouseout"/>
                  </use>
                  <path fill="none" stroke="white" stroke-width="1.5" d="M0,-3.0v7 M-2.5,-0.5L0,-3.0L2.5,-0.5"/>
                </g>
                <g id="arrowRight" xlink:href="#dirArrow" transform="rotate(90) translate(36 -43)" onmousedown="handlePan(1,0)">
                  <use xlink:href="#rim" fill="#404040">
                        <set attributeName="fill" to="#808080" begin="arrowRight.mouseover" end="arrowRight.mouseout"/>
                  </use>
                  <path fill="none" stroke="white" stroke-width="1.5" d="M0,-3.0v7 M-2.5,-0.5L0,-3.0L2.5,-0.5"/>
                </g>
                <g id="arrowDown" xlink:href="#dirArrow" transform="rotate(180) translate(-30 -48)" onmousedown="handlePan(0,1)">
                  <use xlink:href="#rim" fill="#404040">
                        <set attributeName="fill" to="#808080" begin="arrowDown.mouseover" end="arrowDown.mouseout"/>
                  </use>
                  <path fill="none" stroke="white" stroke-width="1.5" d="M0,-3.0v7 M-2.5,-0.5L0,-3.0L2.5,-0.5"/>
                </g>
                <g id="arrowLeft" xlink:href="#dirArrow" transform="rotate(270) translate(-36 17)" onmousedown="handlePan(-1,0)">
                  <use xlink:href="#rim" fill="#404040">
                        <set attributeName="fill" to="#808080" begin="arrowLeft.mouseover" end="arrowLeft.mouseout"/>
                  </use>
                  <path fill="none" stroke="white" stroke-width="1.5" d="M0,-3.0v7 M-2.5,-0.5L0,-3.0L2.5,-0.5"/>
                </g>
        </g>
        <svg viewBox="0 0 15 15" width="100%" height="30px" preserveAspectRatio="xMaxYMin meet">
         <g id="arrow_out" transform="scale(0.3 0.3)">
          <a xlink:href="class_multirotor_mixer_afe7c882450706b82757a93d3c621d8ca_icgraph_org.svg" target="_base">
           <rect id="button" ry="5" rx="5" y="6" x="6" height="38" width="38"
                fill="#f2f5e9" fill-opacity="0.5" stroke="#606060" stroke-width="1.0"/>
           <path id="arrow"
             d="M 11.500037,31.436501 C 11.940474,20.09759 22.043105,11.32322 32.158766,21.979434 L 37.068811,17.246167 C 37.068811,17.246167 37.088388,32 37.088388,32 L 22.160133,31.978069 C 22.160133,31.978069 26.997745,27.140456 26.997745,27.140456 C 18.528582,18.264221 13.291696,25.230495 11.500037,31.436501 z"
             style="fill:#404040;"/>
          </a>
         </g>
        </svg>
</svg>
