<?xml version="1.0" encoding="UTF-8" standalone="no"?>
<!DOCTYPE svg PUBLIC "-//W3C//DTD SVG 1.1//EN"
 "http://www.w3.org/Graphics/SVG/1.1/DTD/svg11.dtd">
<!-- Generated by graphviz version 2.38.0 (20140413.2041)
 -->
<!-- Title: MultirotorMixer::MultirotorMixer Pages: 1 -->
<!--zoomable 530 -->
<svg id="main" version="1.1" xmlns="http://www.w3.org/2000/svg" xmlns:xlink="http://www.w3.org/1999/xlink" xml:space="preserve" onload="init(evt)">
<style type="text/css"><![CDATA[
.edge:hover path { stroke: red; }
.edge:hover polygon { stroke: red; fill: red; }
]]></style>
<script type="text/javascript"><![CDATA[
var edges = document.getElementsByTagName('g');
if (edges && edges.length) {
  for (var i=0;i<edges.length;i++) {
    if (edges[i].id.substr(0,4)=='edge') {
      edges[i].setAttribute('class','edge');
    }
  }
}
]]></script>
        <defs>
                <circle id="rim" cx="0" cy="0" r="7"/>
                <circle id="rim2" cx="0" cy="0" r="3.5"/>
                <g id="zoomPlus">
                        <use xlink:href="#rim" fill="#404040">
                                <set attributeName="fill" to="#808080" begin="zoomplus.mouseover" end="zoomplus.mouseout"/>
                        </use>
                        <path d="M-4,0h8M0,-4v8" fill="none" stroke="white" stroke-width="1.5" pointer-events="none"/>
                </g>
                <g id="zoomMin">
                        <use xlink:href="#rim" fill="#404040">
                                <set attributeName="fill" to="#808080" begin="zoomminus.mouseover" end="zoomminus.mouseout"/>
                        </use>
                        <path d="M-4,0h8" fill="none" stroke="white" stroke-width="1.5" pointer-events="none"/>
                </g>
                <g id="dirArrow">
                        <path fill="none" stroke="white" stroke-width="1.5" d="M0,-3.0v7 M-2.5,-0.5L0,-3.0L2.5,-0.5"/>
                </g>
               <g id="resetDef">
                       <use xlink:href="#rim2" fill="#404040">
                               <set attributeName="fill" to="#808080" begin="reset.mouseover" end="reset.mouseout"/>
                       </use>
               </g>
        </defs>

<script type="text/javascript">
var viewWidth = 1508;
var viewHeight = 530;
var sectionId = 'dynsection-3';
</script>
<script xlink:href="../../svgpan.js"/>
<svg id="graph" class="graph">
<g id="viewport">
<title>MultirotorMixer::MultirotorMixer</title>
<polygon fill="white" stroke="none" points="-4,4 -4,-525.5 1504,-525.5 1504,4 -4,4"/>
<!-- Node1 -->
<g id="node1" class="node"><title>Node1</title>
<polygon fill="#bfbfbf" stroke="black" points="0,-270.5 0,-300.5 128,-300.5 128,-270.5 0,-270.5"/>
<text text-anchor="start" x="8" y="-288.5" font-family="Helvetica,sans-Serif" font-size="10.00">MultirotorMixer::Multirotor</text>
<text text-anchor="middle" x="64" y="-277.5" font-family="Helvetica,sans-Serif" font-size="10.00">Mixer</text>
</g>
<!-- Node2 -->
<g id="node2" class="node"><title>Node2</title>
<g id="a_node2"><a xlink:href="../../d5/dd1/class_multirotor_mixer.html#a16fb4d4340fa2eda5a361b5b9bf9666b" target="_top" xlink:title="Factory method. ">
<polygon fill="white" stroke="black" points="164,-276 164,-295 292,-295 292,-276 164,-276"/>
<text text-anchor="middle" x="228" y="-283" font-family="Helvetica,sans-Serif" font-size="10.00">MultirotorMixer::from_text</text>
</a>
</g>
</g>
<!-- Node1&#45;&gt;Node2 -->
<g id="edge1" class="edge"><title>Node1&#45;&gt;Node2</title>
<path fill="none" stroke="midnightblue" d="M138.374,-285.5C146.865,-285.5 155.469,-285.5 163.808,-285.5"/>
<polygon fill="midnightblue" stroke="midnightblue" points="138.097,-282 128.097,-285.5 138.097,-289 138.097,-282"/>
</g>
<!-- Node3 -->
<g id="node3" class="node"><title>Node3</title>
<g id="a_node3"><a xlink:href="../../d3/d92/namespacesnapdragon__pwm.html#a93b6b0bb882ce58ce034393bacc74d61" target="_top" xlink:title="snapdragon_pwm::initialize\l_mixer">
<polygon fill="white" stroke="black" points="328,-399.5 328,-429.5 462,-429.5 462,-399.5 328,-399.5"/>
<text text-anchor="start" x="336" y="-417.5" font-family="Helvetica,sans-Serif" font-size="10.00">snapdragon_pwm::initialize</text>
<text text-anchor="middle" x="395" y="-406.5" font-family="Helvetica,sans-Serif" font-size="10.00">_mixer</text>
</a>
</g>
</g>
<!-- Node2&#45;&gt;Node3 -->
<g id="edge2" class="edge"><title>Node2&#45;&gt;Node3</title>
<path fill="none" stroke="midnightblue" d="M249.644,-301.64C281.815,-326.792 343.456,-374.984 374.751,-399.451"/>
<polygon fill="midnightblue" stroke="midnightblue" points="251.436,-298.598 241.402,-295.196 247.124,-304.113 251.436,-298.598"/>
</g>
<!-- Node9 -->
<g id="node9" class="node"><title>Node9</title>
<g id="a_node9"><a xlink:href="../../d9/dbb/class_mixer_group.html#a7bd735772388a8b1d9f4cc41dd8ec7d1" target="_top" xlink:title="Adds mixers to the group based on a text description in a buffer. ">
<polygon fill="white" stroke="black" points="328,-276 328,-295 462,-295 462,-276 328,-276"/>
<text text-anchor="middle" x="395" y="-283" font-family="Helvetica,sans-Serif" font-size="10.00">MixerGroup::load_from_buf</text>
</a>
</g>
</g>
<!-- Node2&#45;&gt;Node9 -->
<g id="edge9" class="edge"><title>Node2&#45;&gt;Node9</title>
<path fill="none" stroke="midnightblue" d="M302.52,-285.5C310.952,-285.5 319.511,-285.5 327.839,-285.5"/>
<polygon fill="midnightblue" stroke="midnightblue" points="302.321,-282 292.321,-285.5 302.321,-289 302.321,-282"/>
</g>
<!-- Node42 -->
<g id="node42" class="node"><title>Node42</title>
<g id="a_node42"><a xlink:href="../../d9/dd1/namespaceuart__esc.html#aafc3729cf48d1737e5387853ccb70e73" target="_top" xlink:title="uart_esc::initialize\l_mixer">
<polygon fill="white" stroke="black" points="347.5,-128.5 347.5,-158.5 442.5,-158.5 442.5,-128.5 347.5,-128.5"/>
<text text-anchor="start" x="355.5" y="-146.5" font-family="Helvetica,sans-Serif" font-size="10.00">uart_esc::initialize</text>
<text text-anchor="middle" x="395" y="-135.5" font-family="Helvetica,sans-Serif" font-size="10.00">_mixer</text>
</a>
</g>
</g>
<!-- Node2&#45;&gt;Node42 -->
<g id="edge48" class="edge"><title>Node2&#45;&gt;Node42</title>
<path fill="none" stroke="midnightblue" d="M247.883,-269.249C280.1,-241.523 345.228,-185.473 376.486,-158.573"/>
<polygon fill="midnightblue" stroke="midnightblue" points="245.379,-266.787 240.082,-275.962 249.945,-272.092 245.379,-266.787"/>
</g>
<!-- Node4 -->
<g id="node4" class="node"><title>Node4</title>
<g id="a_node4"><a xlink:href="../../d3/d92/namespacesnapdragon__pwm.html#aac81928961ddcf167b03a8ff288b985b" target="_top" xlink:title="snapdragon_pwm::task_main">
<polygon fill="white" stroke="black" points="498,-491 498,-510 642,-510 642,-491 498,-491"/>
<text text-anchor="middle" x="570" y="-498" font-family="Helvetica,sans-Serif" font-size="10.00">snapdragon_pwm::task_main</text>
</a>
</g>
</g>
<!-- Node3&#45;&gt;Node4 -->
<g id="edge3" class="edge"><title>Node3&#45;&gt;Node4</title>
<path fill="none" stroke="midnightblue" d="M424.386,-435.654C444.197,-449.633 471.7,-467.519 498,-479.5 507.943,-484.03 519.111,-487.866 529.593,-490.971"/>
<polygon fill="midnightblue" stroke="midnightblue" points="426.293,-432.715 416.125,-429.737 422.217,-438.405 426.293,-432.715"/>
</g>
<!-- Node5 -->
<g id="node5" class="node"><title>Node5</title>
<g id="a_node5"><a xlink:href="../../d3/d92/namespacesnapdragon__pwm.html#a2ba69ca6582c4546ff158d57c18fec22" target="_top" xlink:title="snapdragon_pwm::task\l_main_trampoline">
<polygon fill="white" stroke="black" points="685.5,-488.5 685.5,-518.5 803.5,-518.5 803.5,-488.5 685.5,-488.5"/>
<text text-anchor="start" x="693.5" y="-506.5" font-family="Helvetica,sans-Serif" font-size="10.00">snapdragon_pwm::task</text>
<text text-anchor="middle" x="744.5" y="-495.5" font-family="Helvetica,sans-Serif" font-size="10.00">_main_trampoline</text>
</a>
</g>
</g>
<!-- Node4&#45;&gt;Node5 -->
<g id="edge4" class="edge"><title>Node4&#45;&gt;Node5</title>
<path fill="none" stroke="midnightblue" d="M652.347,-501.915C663.497,-502.109 674.758,-502.304 685.379,-502.489"/>
<polygon fill="midnightblue" stroke="midnightblue" points="652.218,-498.412 642.158,-501.738 652.096,-505.411 652.218,-498.412"/>
</g>
<!-- Node6 -->
<g id="node6" class="node"><title>Node6</title>
<g id="a_node6"><a xlink:href="../../d3/d92/namespacesnapdragon__pwm.html#a4ded7b1adaa7c042a7feec376941cc2f" target="_top" xlink:title="snapdragon_pwm::start">
<polygon fill="white" stroke="black" points="854.5,-499 854.5,-518 973.5,-518 973.5,-499 854.5,-499"/>
<text text-anchor="middle" x="914" y="-506" font-family="Helvetica,sans-Serif" font-size="10.00">snapdragon_pwm::start</text>
</a>
</g>
</g>
<!-- Node5&#45;&gt;Node6 -->
<g id="edge5" class="edge"><title>Node5&#45;&gt;Node6</title>
<path fill="none" stroke="midnightblue" d="M813.788,-505.538C827.267,-505.941 841.299,-506.36 854.422,-506.751"/>
<polygon fill="midnightblue" stroke="midnightblue" points="813.713,-502.035 803.613,-505.235 813.504,-509.032 813.713,-502.035"/>
</g>
<!-- Node7 -->
<g id="node7" class="node"><title>Node7</title>
<g id="a_node7"><a xlink:href="../../d8/dad/snapdragon__pwm__out_8cpp.html#a21dce0265a43d504f07e3c24e3302e83" target="_top" xlink:title="snapdragon_pwm_out_main">
<polygon fill="white" stroke="black" points="1019.5,-502 1019.5,-521 1157.5,-521 1157.5,-502 1019.5,-502"/>
<text text-anchor="middle" x="1088.5" y="-509" font-family="Helvetica,sans-Serif" font-size="10.00">snapdragon_pwm_out_main</text>
</a>
</g>
</g>
<!-- Node6&#45;&gt;Node7 -->
<g id="edge6" class="edge"><title>Node6&#45;&gt;Node7</title>
<path fill="none" stroke="midnightblue" d="M983.991,-509.7C995.649,-509.903 1007.74,-510.113 1019.38,-510.315"/>
<polygon fill="midnightblue" stroke="midnightblue" points="983.942,-506.199 973.882,-509.524 983.82,-513.197 983.942,-506.199"/>
</g>
<!-- Node8 -->
<g id="node8" class="node"><title>Node8</title>
<g id="a_node8"><a xlink:href="../../d3/d92/namespacesnapdragon__pwm.html#a8d24f1d491d98e86370e41289f812007" target="_top" xlink:title="snapdragon_pwm::usage">
<polygon fill="white" stroke="black" points="1196,-502 1196,-521 1321,-521 1321,-502 1196,-502"/>
<text text-anchor="middle" x="1258.5" y="-509" font-family="Helvetica,sans-Serif" font-size="10.00">snapdragon_pwm::usage</text>
</a>
</g>
</g>
<!-- Node7&#45;&gt;Node8 -->
<g id="edge7" class="edge"><title>Node7&#45;&gt;Node8</title>
<path fill="none" stroke="midnightblue" d="M1167.98,-504.763C1177.38,-504.719 1186.87,-504.788 1195.99,-504.97"/>
<polygon fill="midnightblue" stroke="midnightblue" points="1167.8,-501.264 1157.83,-504.855 1167.86,-508.264 1167.8,-501.264"/>
</g>
<!-- Node8&#45;&gt;Node7 -->
<g id="edge8" class="edge"><title>Node8&#45;&gt;Node7</title>
<path fill="none" stroke="midnightblue" d="M1185.97,-518.183C1176.64,-518.284 1167.11,-518.271 1157.83,-518.145"/>
<polygon fill="midnightblue" stroke="midnightblue" points="1186.04,-521.683 1195.99,-518.03 1185.93,-514.684 1186.04,-521.683"/>
</g>
<!-- Node10 -->
<g id="node10" class="node"><title>Node10</title>
<g id="a_node10"><a xlink:href="../../d0/db0/namespacelinux__pwm__out.html#a83d0434bdab40f1bc6fc21c6fc5df515" target="_top" xlink:title="linux_pwm_out::initialize\l_mixer">
<polygon fill="white" stroke="black" points="508.5,-439.5 508.5,-469.5 631.5,-469.5 631.5,-439.5 508.5,-439.5"/>
<text text-anchor="start" x="516.5" y="-457.5" font-family="Helvetica,sans-Serif" font-size="10.00">linux_pwm_out::initialize</text>
<text text-anchor="middle" x="570" y="-446.5" font-family="Helvetica,sans-Serif" font-size="10.00">_mixer</text>
</a>
</g>
</g>
<!-- Node9&#45;&gt;Node10 -->
<g id="edge10" class="edge"><title>Node9&#45;&gt;Node10</title>
<path fill="none" stroke="midnightblue" d="M406.914,-303.868C427.945,-338.739 474.114,-412.646 498,-430.5 502.586,-433.928 507.692,-436.886 513.006,-439.435"/>
<polygon fill="midnightblue" stroke="midnightblue" points="409.83,-301.926 401.688,-295.147 403.826,-305.524 409.83,-301.926"/>
</g>
<!-- Node18 -->
<g id="node18" class="node"><title>Node18</title>
<g id="a_node18"><a xlink:href="../../d0/d59/namespacedf__bebop__bus__wrapper.html#a66595c5ccff4635ad57a9a620ee54ae5" target="_top" xlink:title="df_bebop_bus_wrapper\l::initialize_mixers">
<polygon fill="white" stroke="black" points="511.5,-390.5 511.5,-420.5 628.5,-420.5 628.5,-390.5 511.5,-390.5"/>
<text text-anchor="start" x="519.5" y="-408.5" font-family="Helvetica,sans-Serif" font-size="10.00">df_bebop_bus_wrapper</text>
<text text-anchor="middle" x="570" y="-397.5" font-family="Helvetica,sans-Serif" font-size="10.00">::initialize_mixers</text>
</a>
</g>
</g>
<!-- Node9&#45;&gt;Node18 -->
<g id="edge19" class="edge"><title>Node9&#45;&gt;Node18</title>
<path fill="none" stroke="midnightblue" d="M410.718,-303.061C429.173,-324.088 462.699,-359.137 498,-380.5 504.149,-384.221 510.933,-387.498 517.796,-390.348"/>
<polygon fill="midnightblue" stroke="midnightblue" points="413.161,-300.534 403.983,-295.24 407.857,-305.102 413.161,-300.534"/>
</g>
<!-- Node22 -->
<g id="node22" class="node"><title>Node22</title>
<g id="a_node22"><a xlink:href="../../d7/d56/class_p_w_m_sim.html#a985d383649c7ed237c7a388840b5182f" target="_top" xlink:title="Perform an ioctl operation on the device. ">
<polygon fill="white" stroke="black" points="528.5,-352 528.5,-371 611.5,-371 611.5,-352 528.5,-352"/>
<text text-anchor="middle" x="570" y="-359" font-family="Helvetica,sans-Serif" font-size="10.00">PWMSim::ioctl</text>
</a>
</g>
</g>
<!-- Node9&#45;&gt;Node22 -->
<g id="edge23" class="edge"><title>Node9&#45;&gt;Node22</title>
<path fill="none" stroke="midnightblue" d="M419.121,-300.615C439.274,-313.245 469.637,-330.989 498,-342.5 507.577,-346.387 518.202,-349.716 528.252,-352.452"/>
<polygon fill="midnightblue" stroke="midnightblue" points="420.941,-297.624 410.624,-295.212 417.185,-303.532 420.941,-297.624"/>
</g>
<!-- Node23 -->
<g id="node23" class="node"><title>Node23</title>
<g id="a_node23"><a xlink:href="../../d2/da9/class_t_a_p___e_s_c.html#a5b02ff177c5b1ef3a5ab2a36a1f8514c" target="_top" xlink:title="Perform an ioctl operation on the device. ">
<polygon fill="white" stroke="black" points="527,-314 527,-333 613,-333 613,-314 527,-314"/>
<text text-anchor="middle" x="570" y="-321" font-family="Helvetica,sans-Serif" font-size="10.00">TAP_ESC::ioctl</text>
</a>
</g>
</g>
<!-- Node9&#45;&gt;Node23 -->
<g id="edge24" class="edge"><title>Node9&#45;&gt;Node23</title>
<path fill="none" stroke="midnightblue" d="M449.659,-297.286C474.511,-302.745 503.61,-309.137 526.852,-314.242"/>
<polygon fill="midnightblue" stroke="midnightblue" points="450.173,-293.816 439.655,-295.089 448.671,-300.653 450.173,-293.816"/>
</g>
<!-- Node24 -->
<g id="node24" class="node"><title>Node24</title>
<g id="a_node24"><a xlink:href="../../d5/d94/class_uavcan_node.html#ae38e5d0f6e032b6296f6657e9f9d5f1b" target="_top" xlink:title="UavcanNode::ioctl">
<polygon fill="white" stroke="black" points="521,-276 521,-295 619,-295 619,-276 521,-276"/>
<text text-anchor="middle" x="570" y="-283" font-family="Helvetica,sans-Serif" font-size="10.00">UavcanNode::ioctl</text>
</a>
</g>
</g>
<!-- Node9&#45;&gt;Node24 -->
<g id="edge25" class="edge"><title>Node9&#45;&gt;Node24</title>
<path fill="none" stroke="midnightblue" d="M472.52,-285.5C488.923,-285.5 505.81,-285.5 520.781,-285.5"/>
<polygon fill="midnightblue" stroke="midnightblue" points="472.392,-282 462.392,-285.5 472.392,-289 472.392,-282"/>
</g>
<!-- Node26 -->
<g id="node26" class="node"><title>Node26</title>
<g id="a_node26"><a xlink:href="../../d9/dd5/class_mixer_test.html#ac5cc3c7d39acd2e2854957ec2aafa70f" target="_top" xlink:title="MixerTest::load_mixer">
<polygon fill="white" stroke="black" points="513.5,-238 513.5,-257 626.5,-257 626.5,-238 513.5,-238"/>
<text text-anchor="middle" x="570" y="-245" font-family="Helvetica,sans-Serif" font-size="10.00">MixerTest::load_mixer</text>
</a>
</g>
</g>
<!-- Node9&#45;&gt;Node26 -->
<g id="edge27" class="edge"><title>Node9&#45;&gt;Node26</title>
<path fill="none" stroke="midnightblue" d="M449.505,-273.747C473.967,-268.374 502.571,-262.091 525.659,-257.02"/>
<polygon fill="midnightblue" stroke="midnightblue" points="448.671,-270.347 439.655,-275.911 450.173,-277.184 448.671,-270.347"/>
</g>
<!-- Node27 -->
<g id="node27" class="node"><title>Node27</title>
<g id="a_node27"><a xlink:href="../../d8/d05/px4io_8h.html#a10b6b903aa091e91ca155b186b06c0b6" target="_top" xlink:title="mixer_handle_text_create\l_mixer">
<polygon fill="white" stroke="black" points="506,-188.5 506,-218.5 634,-218.5 634,-188.5 506,-188.5"/>
<text text-anchor="start" x="514" y="-206.5" font-family="Helvetica,sans-Serif" font-size="10.00">mixer_handle_text_create</text>
<text text-anchor="middle" x="570" y="-195.5" font-family="Helvetica,sans-Serif" font-size="10.00">_mixer</text>
</a>
</g>
</g>
<!-- Node9&#45;&gt;Node27 -->
<g id="edge28" class="edge"><title>Node9&#45;&gt;Node27</title>
<path fill="none" stroke="midnightblue" d="M419.707,-270.721C440.005,-258.444 470.262,-241.023 498,-228.5 505.861,-224.951 514.388,-221.57 522.715,-218.507"/>
<polygon fill="midnightblue" stroke="midnightblue" points="417.835,-267.763 411.127,-275.964 421.485,-273.736 417.835,-267.763"/>
</g>
<!-- Node30 -->
<g id="node30" class="node"><title>Node30</title>
<g id="a_node30"><a xlink:href="../../d8/de7/class_m_k.html#a1ea687fc2159fd16fc840b48773602cb" target="_top" xlink:title="MK::pwm_ioctl">
<polygon fill="white" stroke="black" points="529,-150 529,-169 611,-169 611,-150 529,-150"/>
<text text-anchor="middle" x="570" y="-157" font-family="Helvetica,sans-Serif" font-size="10.00">MK::pwm_ioctl</text>
</a>
</g>
</g>
<!-- Node9&#45;&gt;Node30 -->
<g id="edge31" class="edge"><title>Node9&#45;&gt;Node30</title>
<path fill="none" stroke="midnightblue" d="M408.142,-267.621C425.334,-243.695 459.05,-201.605 498,-178.5 507.328,-172.966 518.289,-169.013 528.771,-166.2"/>
<polygon fill="midnightblue" stroke="midnightblue" points="405.265,-265.628 402.385,-275.824 410.995,-269.649 405.265,-265.628"/>
</g>
<!-- Node32 -->
<g id="node32" class="node"><title>Node32</title>
<g id="a_node32"><a xlink:href="../../df/d64/class_p_x4_f_m_u.html#a752977b081b3aaff1e3b7bbc045f92da" target="_top" xlink:title="PX4FMU::pwm_ioctl">
<polygon fill="white" stroke="black" points="516.5,-96 516.5,-115 623.5,-115 623.5,-96 516.5,-96"/>
<text text-anchor="middle" x="570" y="-103" font-family="Helvetica,sans-Serif" font-size="10.00">PX4FMU::pwm_ioctl</text>
</a>
</g>
</g>
<!-- Node9&#45;&gt;Node32 -->
<g id="edge33" class="edge"><title>Node9&#45;&gt;Node32</title>
<path fill="none" stroke="midnightblue" d="M405.183,-266.808C420.708,-236.81 454.722,-177.539 498,-140.5 510.842,-129.509 527.734,-121 541.82,-115.125"/>
<polygon fill="midnightblue" stroke="midnightblue" points="402.033,-265.282 400.64,-275.785 408.279,-268.443 402.033,-265.282"/>
</g>
<!-- Node11 -->
<g id="node11" class="node"><title>Node11</title>
<g id="a_node11"><a xlink:href="../../d0/db0/namespacelinux__pwm__out.html#a430e02c86db26f5d5bf6c2db3af002d3" target="_top" xlink:title="linux_pwm_out::task_main">
<polygon fill="white" stroke="black" points="678,-445 678,-464 811,-464 811,-445 678,-445"/>
<text text-anchor="middle" x="744.5" y="-452" font-family="Helvetica,sans-Serif" font-size="10.00">linux_pwm_out::task_main</text>
</a>
</g>
</g>
<!-- Node10&#45;&gt;Node11 -->
<g id="edge11" class="edge"><title>Node10&#45;&gt;Node11</title>
<path fill="none" stroke="midnightblue" d="M642.119,-454.5C653.984,-454.5 666.243,-454.5 677.96,-454.5"/>
<polygon fill="midnightblue" stroke="midnightblue" points="641.817,-451 631.817,-454.5 641.817,-458 641.817,-451"/>
</g>
<!-- Node12 -->
<g id="node12" class="node"><title>Node12</title>
<g id="a_node12"><a xlink:href="../../d0/db0/namespacelinux__pwm__out.html#abc075bdbbcfd59040e2522b15f6dca75" target="_top" xlink:title="linux_pwm_out::task\l_main_trampoline">
<polygon fill="white" stroke="black" points="860.5,-439.5 860.5,-469.5 967.5,-469.5 967.5,-439.5 860.5,-439.5"/>
<text text-anchor="start" x="868.5" y="-457.5" font-family="Helvetica,sans-Serif" font-size="10.00">linux_pwm_out::task</text>
<text text-anchor="middle" x="914" y="-446.5" font-family="Helvetica,sans-Serif" font-size="10.00">_main_trampoline</text>
</a>
</g>
</g>
<!-- Node11&#45;&gt;Node12 -->
<g id="edge12" class="edge"><title>Node11&#45;&gt;Node12</title>
<path fill="none" stroke="midnightblue" d="M821.258,-454.5C834.481,-454.5 847.973,-454.5 860.399,-454.5"/>
<polygon fill="midnightblue" stroke="midnightblue" points="821.22,-451 811.22,-454.5 821.22,-458 821.22,-451"/>
</g>
<!-- Node13 -->
<g id="node13" class="node"><title>Node13</title>
<g id="a_node13"><a xlink:href="../../d0/db0/namespacelinux__pwm__out.html#a15fd89cbae6f918aee78e46d9d018a7b" target="_top" xlink:title="linux_pwm_out::start">
<polygon fill="white" stroke="black" points="1035,-464 1035,-483 1142,-483 1142,-464 1035,-464"/>
<text text-anchor="middle" x="1088.5" y="-471" font-family="Helvetica,sans-Serif" font-size="10.00">linux_pwm_out::start</text>
</a>
</g>
</g>
<!-- Node12&#45;&gt;Node13 -->
<g id="edge13" class="edge"><title>Node12&#45;&gt;Node13</title>
<path fill="none" stroke="midnightblue" d="M977.891,-461.427C996.584,-463.486 1016.86,-465.719 1034.83,-467.699"/>
<polygon fill="midnightblue" stroke="midnightblue" points="978.016,-457.92 967.693,-460.304 977.25,-464.878 978.016,-457.92"/>
</g>
<!-- Node16 -->
<g id="node16" class="node"><title>Node16</title>
<g id="a_node16"><a xlink:href="../../de/d9c/class_ekf2.html#a8ad1745bc2cc2c53ac1c48c2ec2e172e" target="_top" xlink:title="Ekf2::set_replay_mode">
<polygon fill="white" stroke="black" points="1030,-426 1030,-445 1147,-445 1147,-426 1030,-426"/>
<text text-anchor="middle" x="1088.5" y="-433" font-family="Helvetica,sans-Serif" font-size="10.00">Ekf2::set_replay_mode</text>
</a>
</g>
</g>
<!-- Node12&#45;&gt;Node16 -->
<g id="edge17" class="edge"><title>Node12&#45;&gt;Node16</title>
<path fill="none" stroke="midnightblue" d="M978.026,-447.558C994.93,-445.696 1013.12,-443.693 1029.72,-441.864"/>
<polygon fill="midnightblue" stroke="midnightblue" points="977.25,-444.122 967.693,-448.696 978.016,-451.08 977.25,-444.122"/>
</g>
<!-- Node14 -->
<g id="node14" class="node"><title>Node14</title>
<g id="a_node14"><a xlink:href="../../da/dd6/linux__pwm__out_8cpp.html#a412407ab462307bbeb3e9198bc9872ce" target="_top" xlink:title="linux_pwm_out_main">
<polygon fill="white" stroke="black" points="1204.5,-464 1204.5,-483 1312.5,-483 1312.5,-464 1204.5,-464"/>
<text text-anchor="middle" x="1258.5" y="-471" font-family="Helvetica,sans-Serif" font-size="10.00">linux_pwm_out_main</text>
</a>
</g>
</g>
<!-- Node13&#45;&gt;Node14 -->
<g id="edge14" class="edge"><title>Node13&#45;&gt;Node14</title>
<path fill="none" stroke="midnightblue" d="M1152.63,-473.5C1169.69,-473.5 1187.97,-473.5 1204.41,-473.5"/>
<polygon fill="midnightblue" stroke="midnightblue" points="1152.2,-470 1142.2,-473.5 1152.2,-477 1152.2,-470"/>
</g>
<!-- Node15 -->
<g id="node15" class="node"><title>Node15</title>
<g id="a_node15"><a xlink:href="../../d0/db0/namespacelinux__pwm__out.html#a3eab6d177df998cc3a3fe0664f591369" target="_top" xlink:title="linux_pwm_out::usage">
<polygon fill="white" stroke="black" points="1371.5,-464 1371.5,-483 1485.5,-483 1485.5,-464 1371.5,-464"/>
<text text-anchor="middle" x="1428.5" y="-471" font-family="Helvetica,sans-Serif" font-size="10.00">linux_pwm_out::usage</text>
</a>
</g>
</g>
<!-- Node14&#45;&gt;Node15 -->
<g id="edge15" class="edge"><title>Node14&#45;&gt;Node15</title>
<path fill="none" stroke="midnightblue" d="M1322.91,-466.934C1338.79,-466.645 1355.71,-466.697 1371.21,-467.088"/>
<polygon fill="midnightblue" stroke="midnightblue" points="1322.57,-463.44 1312.66,-467.172 1322.73,-470.438 1322.57,-463.44"/>
</g>
<!-- Node15&#45;&gt;Node14 -->
<g id="edge16" class="edge"><title>Node15&#45;&gt;Node14</title>
<path fill="none" stroke="midnightblue" d="M1360.84,-480.12C1344.84,-480.363 1327.95,-480.265 1312.66,-479.828"/>
<polygon fill="midnightblue" stroke="midnightblue" points="1361.28,-483.612 1371.21,-479.912 1361.14,-476.614 1361.28,-483.612"/>
</g>
<!-- Node17 -->
<g id="node17" class="node"><title>Node17</title>
<g id="a_node17"><a xlink:href="../../de/d9c/class_ekf2.html#a0c2ca6006a7790b7b1ed1a5ca7d1de3d" target="_top" xlink:title="Ekf2::instantiate">
<polygon fill="white" stroke="black" points="1214.5,-426 1214.5,-445 1302.5,-445 1302.5,-426 1214.5,-426"/>
<text text-anchor="middle" x="1258.5" y="-433" font-family="Helvetica,sans-Serif" font-size="10.00">Ekf2::instantiate</text>
</a>
</g>
</g>
<!-- Node16&#45;&gt;Node17 -->
<g id="edge18" class="edge"><title>Node16&#45;&gt;Node17</title>
<path fill="none" stroke="midnightblue" d="M1157.54,-435.5C1176.76,-435.5 1197.13,-435.5 1214.44,-435.5"/>
<polygon fill="midnightblue" stroke="midnightblue" points="1157.32,-432 1147.32,-435.5 1157.32,-439 1157.32,-432"/>
</g>
<!-- Node19 -->
<g id="node19" class="node"><title>Node19</title>
<g id="a_node19"><a xlink:href="../../d0/d59/namespacedf__bebop__bus__wrapper.html#a47639453025244f1943afaa4d5cb6677" target="_top" xlink:title="df_bebop_bus_wrapper\l::task_main">
<polygon fill="white" stroke="black" points="686,-389.5 686,-419.5 803,-419.5 803,-389.5 686,-389.5"/>
<text text-anchor="start" x="694" y="-407.5" font-family="Helvetica,sans-Serif" font-size="10.00">df_bebop_bus_wrapper</text>
<text text-anchor="middle" x="744.5" y="-396.5" font-family="Helvetica,sans-Serif" font-size="10.00">::task_main</text>
</a>
</g>
</g>
<!-- Node18&#45;&gt;Node19 -->
<g id="edge20" class="edge"><title>Node18&#45;&gt;Node19</title>
<path fill="none" stroke="midnightblue" d="M638.95,-405.106C654.426,-405.016 670.728,-404.922 685.733,-404.835"/>
<polygon fill="midnightblue" stroke="midnightblue" points="638.899,-401.606 628.92,-405.164 638.94,-408.606 638.899,-401.606"/>
</g>
<!-- Node20 -->
<g id="node20" class="node"><title>Node20</title>
<g id="a_node20"><a xlink:href="../../d0/d59/namespacedf__bebop__bus__wrapper.html#a7615c7915d99b5c00fbb62b071635766" target="_top" xlink:title="Attempt to start driver on all available I2C busses. ">
<polygon fill="white" stroke="black" points="855.5,-384.5 855.5,-414.5 972.5,-414.5 972.5,-384.5 855.5,-384.5"/>
<text text-anchor="start" x="863.5" y="-402.5" font-family="Helvetica,sans-Serif" font-size="10.00">df_bebop_bus_wrapper</text>
<text text-anchor="middle" x="914" y="-391.5" font-family="Helvetica,sans-Serif" font-size="10.00">::start</text>
</a>
</g>
</g>
<!-- Node19&#45;&gt;Node20 -->
<g id="edge21" class="edge"><title>Node19&#45;&gt;Node20</title>
<path fill="none" stroke="midnightblue" d="M813.17,-402.48C827.121,-402.064 841.69,-401.629 855.25,-401.224"/>
<polygon fill="midnightblue" stroke="midnightblue" points="813.035,-398.982 803.144,-402.779 813.244,-405.979 813.035,-398.982"/>
</g>
<!-- Node21 -->
<g id="node21" class="node"><title>Node21</title>
<g id="a_node21"><a xlink:href="../../d4/dbd/df__bebop__bus__wrapper_8cpp.html#ae001605c030ad2265b6eb3b758e32163" target="_top" xlink:title="df_bebop_bus_wrapper_main">
<polygon fill="white" stroke="black" points="1017,-388 1017,-407 1160,-407 1160,-388 1017,-388"/>
<text text-anchor="middle" x="1088.5" y="-395" font-family="Helvetica,sans-Serif" font-size="10.00">df_bebop_bus_wrapper_main</text>
</a>
</g>
</g>
<!-- Node20&#45;&gt;Node21 -->
<g id="edge22" class="edge"><title>Node20&#45;&gt;Node21</title>
<path fill="none" stroke="midnightblue" d="M982.994,-398.712C994.119,-398.583 1005.67,-398.449 1016.86,-398.319"/>
<polygon fill="midnightblue" stroke="midnightblue" points="982.879,-395.213 972.92,-398.828 982.96,-402.212 982.879,-395.213"/>
</g>
<!-- Node25 -->
<g id="node25" class="node"><title>Node25</title>
<g id="a_node25"><a xlink:href="../../d0/dfe/class_restart_request_handler.html#ae2957db559b8494d1afb2f1fcb29cea3" target="_top" xlink:title="RestartRequestHandler\l::handleRestartRequest">
<polygon fill="white" stroke="black" points="684.5,-270.5 684.5,-300.5 804.5,-300.5 804.5,-270.5 684.5,-270.5"/>
<text text-anchor="start" x="692.5" y="-288.5" font-family="Helvetica,sans-Serif" font-size="10.00">RestartRequestHandler</text>
<text text-anchor="middle" x="744.5" y="-277.5" font-family="Helvetica,sans-Serif" font-size="10.00">::handleRestartRequest</text>
</a>
</g>
</g>
<!-- Node24&#45;&gt;Node25 -->
<g id="edge26" class="edge"><title>Node24&#45;&gt;Node25</title>
<path fill="none" stroke="midnightblue" d="M629.269,-285.5C647.016,-285.5 666.536,-285.5 684.341,-285.5"/>
<polygon fill="midnightblue" stroke="midnightblue" points="629.051,-282 619.051,-285.5 629.051,-289 629.051,-282"/>
</g>
<!-- Node28 -->
<g id="node28" class="node"><title>Node28</title>
<g id="a_node28"><a xlink:href="../../d8/d05/px4io_8h.html#ae4335b0132a371f64a91cbc19cb518e4" target="_top" xlink:title="mixer_tick">
<polygon fill="white" stroke="black" points="713.5,-202 713.5,-221 775.5,-221 775.5,-202 713.5,-202"/>
<text text-anchor="middle" x="744.5" y="-209" font-family="Helvetica,sans-Serif" font-size="10.00">mixer_tick</text>
</a>
</g>
</g>
<!-- Node27&#45;&gt;Node28 -->
<g id="edge29" class="edge"><title>Node27&#45;&gt;Node28</title>
<path fill="none" stroke="midnightblue" d="M644.478,-206.908C668.583,-208.026 694.049,-209.207 713.119,-210.091"/>
<polygon fill="midnightblue" stroke="midnightblue" points="644.405,-203.401 634.253,-206.433 644.08,-210.393 644.405,-203.401"/>
</g>
<!-- Node29 -->
<g id="node29" class="node"><title>Node29</title>
<g id="a_node29"><a xlink:href="../../dd/d87/px4io_8c.html#aab5de16adab7a0da95ed57a9aba3c626" target="_top" xlink:title="user_start">
<polygon fill="white" stroke="black" points="884,-202 884,-221 944,-221 944,-202 884,-202"/>
<text text-anchor="middle" x="914" y="-209" font-family="Helvetica,sans-Serif" font-size="10.00">user_start</text>
</a>
</g>
</g>
<!-- Node28&#45;&gt;Node29 -->
<g id="edge30" class="edge"><title>Node28&#45;&gt;Node29</title>
<path fill="none" stroke="midnightblue" d="M786.035,-211.5C816.202,-211.5 856.673,-211.5 883.735,-211.5"/>
<polygon fill="midnightblue" stroke="midnightblue" points="785.833,-208 775.833,-211.5 785.833,-215 785.833,-208"/>
</g>
<!-- Node31 -->
<g id="node31" class="node"><title>Node31</title>
<g id="a_node31"><a xlink:href="../../d8/de7/class_m_k.html#a6260d558e7b3321b891b1906ecba0901" target="_top" xlink:title="MK::ioctl">
<polygon fill="white" stroke="black" points="716.5,-164 716.5,-183 772.5,-183 772.5,-164 716.5,-164"/>
<text text-anchor="middle" x="744.5" y="-171" font-family="Helvetica,sans-Serif" font-size="10.00">MK::ioctl</text>
</a>
</g>
</g>
<!-- Node30&#45;&gt;Node31 -->
<g id="edge32" class="edge"><title>Node30&#45;&gt;Node31</title>
<path fill="none" stroke="midnightblue" d="M621.215,-163.575C652.259,-166.095 690.897,-169.231 716.333,-171.295"/>
<polygon fill="midnightblue" stroke="midnightblue" points="621.259,-160.068 611.009,-162.747 620.693,-167.045 621.259,-160.068"/>
</g>
<!-- Node33 -->
<g id="node33" class="node"><title>Node33</title>
<g id="a_node33"><a xlink:href="../../df/d64/class_p_x4_f_m_u.html#a5b136c43e6ad85e8018a6202cf2a1d91" target="_top" xlink:title="PX4FMU::arm_nothrottle">
<polygon fill="white" stroke="black" points="682,-126 682,-145 807,-145 807,-126 682,-126"/>
<text text-anchor="middle" x="744.5" y="-133" font-family="Helvetica,sans-Serif" font-size="10.00">PX4FMU::arm_nothrottle</text>
</a>
</g>
</g>
<!-- Node32&#45;&gt;Node33 -->
<g id="edge34" class="edge"><title>Node32&#45;&gt;Node33</title>
<path fill="none" stroke="midnightblue" d="M633.553,-116.379C651.619,-119.521 671.189,-122.924 688.742,-125.977"/>
<polygon fill="midnightblue" stroke="midnightblue" points="634.145,-112.929 623.693,-114.664 632.945,-119.826 634.145,-112.929"/>
</g>
<!-- Node40 -->
<g id="node40" class="node"><title>Node40</title>
<g id="a_node40"><a xlink:href="../../df/d64/class_p_x4_f_m_u.html#a6c7f1f9ce2ff2750102a5e1f2fa9d567" target="_top" xlink:title="PX4FMU::ioctl">
<polygon fill="white" stroke="black" points="873.5,-50 873.5,-69 954.5,-69 954.5,-50 873.5,-50"/>
<text text-anchor="middle" x="914" y="-57" font-family="Helvetica,sans-Serif" font-size="10.00">PX4FMU::ioctl</text>
</a>
</g>
</g>
<!-- Node32&#45;&gt;Node40 -->
<g id="edge45" class="edge"><title>Node32&#45;&gt;Node40</title>
<path fill="none" stroke="midnightblue" d="M633.691,-97.0679C703.583,-87.6672 814.502,-72.7483 873.329,-64.8359"/>
<polygon fill="midnightblue" stroke="midnightblue" points="633.132,-93.6114 623.688,-98.4133 634.065,-100.549 633.132,-93.6114"/>
</g>
<!-- Node34 -->
<g id="node34" class="node"><title>Node34</title>
<g id="a_node34"><a xlink:href="../../df/d64/class_p_x4_f_m_u.html#a43ad674cda8424c0e73eef495a49e88c" target="_top" xlink:title="run the main loop: if running as task, continuously iterate, otherwise execute only one single cycle ...">
<polygon fill="white" stroke="black" points="871,-126 871,-145 957,-145 957,-126 871,-126"/>
<text text-anchor="middle" x="914" y="-133" font-family="Helvetica,sans-Serif" font-size="10.00">PX4FMU::cycle</text>
</a>
</g>
</g>
<!-- Node33&#45;&gt;Node34 -->
<g id="edge35" class="edge"><title>Node33&#45;&gt;Node34</title>
<path fill="none" stroke="midnightblue" d="M817.435,-135.5C835.69,-135.5 854.708,-135.5 870.928,-135.5"/>
<polygon fill="midnightblue" stroke="midnightblue" points="817.395,-132 807.395,-135.5 817.395,-139 817.395,-132"/>
</g>
<!-- Node39 -->
<g id="node39" class="node"><title>Node39</title>
<g id="a_node39"><a xlink:href="../../df/d64/class_p_x4_f_m_u.html#a8356cf6dbd154120ecef8b3a9c096f10" target="_top" xlink:title="PX4FMU::control_callback">
<polygon fill="white" stroke="black" points="847,-88 847,-107 981,-107 981,-88 847,-88"/>
<text text-anchor="middle" x="914" y="-95" font-family="Helvetica,sans-Serif" font-size="10.00">PX4FMU::control_callback</text>
</a>
</g>
</g>
<!-- Node33&#45;&gt;Node39 -->
<g id="edge42" class="edge"><title>Node33&#45;&gt;Node39</title>
<path fill="none" stroke="midnightblue" d="M776.708,-123.026C796.385,-117.376 822.554,-111.031 846.698,-105.924"/>
<polygon fill="midnightblue" stroke="midnightblue" points="775.636,-119.694 767.055,-125.908 777.638,-126.401 775.636,-119.694"/>
</g>
<!-- Node35 -->
<g id="node35" class="node"><title>Node35</title>
<g id="a_node35"><a xlink:href="../../df/d64/class_p_x4_f_m_u.html#ac9da4f8ca94a6a8dd1944fa60cd94c39" target="_top" xlink:title="PX4FMU::cycle_trampoline">
<polygon fill="white" stroke="black" points="1020,-126 1020,-145 1157,-145 1157,-126 1020,-126"/>
<text text-anchor="middle" x="1088.5" y="-133" font-family="Helvetica,sans-Serif" font-size="10.00">PX4FMU::cycle_trampoline</text>
</a>
</g>
</g>
<!-- Node34&#45;&gt;Node35 -->
<g id="edge36" class="edge"><title>Node34&#45;&gt;Node35</title>
<path fill="none" stroke="midnightblue" d="M967.231,-129.24C983.803,-128.738 1002.37,-128.622 1019.86,-128.892"/>
<polygon fill="midnightblue" stroke="midnightblue" points="967.065,-125.744 957.198,-129.603 967.318,-132.739 967.065,-125.744"/>
</g>
<!-- Node38 -->
<g id="node38" class="node"><title>Node38</title>
<g id="a_node38"><a xlink:href="../../df/d64/class_p_x4_f_m_u.html#a00f750c72c6cc1f0bd156b5de4d9fac9" target="_top" xlink:title="PX4FMU::run">
<polygon fill="white" stroke="black" points="1050,-88 1050,-107 1127,-107 1127,-88 1050,-88"/>
<text text-anchor="middle" x="1088.5" y="-95" font-family="Helvetica,sans-Serif" font-size="10.00">PX4FMU::run</text>
</a>
</g>
</g>
<!-- Node34&#45;&gt;Node38 -->
<g id="edge41" class="edge"><title>Node34&#45;&gt;Node38</title>
<path fill="none" stroke="midnightblue" d="M967.132,-124.016C993.782,-118.145 1025.61,-111.133 1049.85,-105.795"/>
<polygon fill="midnightblue" stroke="midnightblue" points="966.211,-120.635 957.198,-126.204 967.717,-127.471 966.211,-120.635"/>
</g>
<!-- Node35&#45;&gt;Node33 -->
<g id="edge37" class="edge"><title>Node35&#45;&gt;Node33</title>
<path fill="none" stroke="midnightblue" d="M1033.98,-146.952C1017.11,-150.047 998.352,-152.964 981,-154.5 921.676,-159.75 906.301,-160.003 847,-154.5 827.007,-152.645 805.08,-148.776 786.738,-145.011"/>
<polygon fill="midnightblue" stroke="midnightblue" points="1035.03,-150.314 1044.21,-145.012 1033.73,-143.436 1035.03,-150.314"/>
</g>
<!-- Node35&#45;&gt;Node34 -->
<g id="edge40" class="edge"><title>Node35&#45;&gt;Node34</title>
<path fill="none" stroke="midnightblue" d="M1009.62,-142.222C991.57,-142.344 973.03,-142.069 957.198,-141.397"/>
<polygon fill="midnightblue" stroke="midnightblue" points="1009.9,-145.719 1019.86,-142.108 1009.83,-138.719 1009.9,-145.719"/>
</g>
<!-- Node36 -->
<g id="node36" class="node"><title>Node36</title>
<g id="a_node36"><a xlink:href="../../df/d64/class_p_x4_f_m_u.html#a622e54b376f05bfd26ec16cbbe2889bf" target="_top" xlink:title="PX4FMU::task_spawn">
<polygon fill="white" stroke="black" points="1200.5,-107 1200.5,-126 1316.5,-126 1316.5,-107 1200.5,-107"/>
<text text-anchor="middle" x="1258.5" y="-114" font-family="Helvetica,sans-Serif" font-size="10.00">PX4FMU::task_spawn</text>
</a>
</g>
</g>
<!-- Node35&#45;&gt;Node36 -->
<g id="edge38" class="edge"><title>Node35&#45;&gt;Node36</title>
<path fill="none" stroke="midnightblue" d="M1167.49,-126.68C1178.59,-125.424 1189.84,-124.152 1200.44,-122.953"/>
<polygon fill="midnightblue" stroke="midnightblue" points="1166.89,-123.225 1157.35,-127.827 1167.68,-130.181 1166.89,-123.225"/>
</g>
<!-- Node37 -->
<g id="node37" class="node"><title>Node37</title>
<g id="a_node37"><a xlink:href="../../df/d64/class_p_x4_f_m_u.html#a2be5e5695b54ad07a8e905b64992a46d" target="_top" xlink:title="PX4FMU::custom_command">
<polygon fill="white" stroke="black" points="1357,-84 1357,-103 1500,-103 1500,-84 1357,-84"/>
<text text-anchor="middle" x="1428.5" y="-91" font-family="Helvetica,sans-Serif" font-size="10.00">PX4FMU::custom_command</text>
</a>
</g>
</g>
<!-- Node36&#45;&gt;Node37 -->
<g id="edge39" class="edge"><title>Node36&#45;&gt;Node37</title>
<path fill="none" stroke="midnightblue" d="M1326.92,-107.27C1337.12,-105.873 1347.67,-104.429 1357.92,-103.026"/>
<polygon fill="midnightblue" stroke="midnightblue" points="1326.28,-103.825 1316.85,-108.649 1327.23,-110.76 1326.28,-103.825"/>
</g>
<!-- Node39&#45;&gt;Node32 -->
<g id="edge44" class="edge"><title>Node39&#45;&gt;Node32</title>
<path fill="none" stroke="midnightblue" d="M836.594,-99.2873C771.812,-100.803 680.602,-102.936 623.688,-104.268"/>
<polygon fill="midnightblue" stroke="midnightblue" points="836.84,-102.783 846.755,-99.0496 836.676,-95.7845 836.84,-102.783"/>
</g>
<!-- Node39&#45;&gt;Node33 -->
<g id="edge43" class="edge"><title>Node39&#45;&gt;Node33</title>
<path fill="none" stroke="midnightblue" d="M881.75,-109.986C860.873,-115.979 832.702,-122.751 807.395,-128"/>
<polygon fill="midnightblue" stroke="midnightblue" points="882.786,-113.329 891.368,-107.117 880.784,-106.621 882.786,-113.329"/>
</g>
<!-- Node41 -->
<g id="node41" class="node"><title>Node41</title>
<g id="a_node41"><a xlink:href="../../df/d64/class_p_x4_f_m_u.html#a6df04f77bccef2ecc99e3b0fe63da5fc" target="_top" xlink:title="PX4FMU::test">
<polygon fill="white" stroke="black" points="1218.5,-60 1218.5,-79 1298.5,-79 1298.5,-60 1218.5,-60"/>
<text text-anchor="middle" x="1258.5" y="-67" font-family="Helvetica,sans-Serif" font-size="10.00">PX4FMU::test</text>
</a>
</g>
</g>
<!-- Node40&#45;&gt;Node41 -->
<g id="edge46" class="edge"><title>Node40&#45;&gt;Node41</title>
<path fill="none" stroke="midnightblue" d="M964.765,-60.953C1033.48,-62.9593 1156,-66.5364 1218.5,-68.3612"/>
<polygon fill="midnightblue" stroke="midnightblue" points="964.722,-57.4503 954.624,-60.6569 964.517,-64.4473 964.722,-57.4503"/>
</g>
<!-- Node41&#45;&gt;Node37 -->
<g id="edge47" class="edge"><title>Node41&#45;&gt;Node37</title>
<path fill="none" stroke="midnightblue" d="M1309.18,-76.5972C1325.34,-78.9056 1343.54,-81.5063 1360.74,-83.9631"/>
<polygon fill="midnightblue" stroke="midnightblue" points="1309.28,-73.0764 1298.89,-75.1269 1308.29,-80.0061 1309.28,-73.0764"/>
</g>
<!-- Node43 -->
<g id="node43" class="node"><title>Node43</title>
<g id="a_node43"><a xlink:href="../../d9/dd1/namespaceuart__esc.html#aee518e4183b269a2432ea9184a93b957" target="_top" xlink:title="uart_esc thread primary entry point ">
<polygon fill="white" stroke="black" points="517.5,-36 517.5,-55 622.5,-55 622.5,-36 517.5,-36"/>
<text text-anchor="middle" x="570" y="-43" font-family="Helvetica,sans-Serif" font-size="10.00">uart_esc::task_main</text>
</a>
</g>
</g>
<!-- Node42&#45;&gt;Node43 -->
<g id="edge49" class="edge"><title>Node42&#45;&gt;Node43</title>
<path fill="none" stroke="midnightblue" d="M431.562,-123.355C468.338,-102.523 524.195,-70.8806 552.015,-55.1213"/>
<polygon fill="midnightblue" stroke="midnightblue" points="429.628,-120.428 422.652,-128.402 433.078,-126.519 429.628,-120.428"/>
</g>
<!-- Node44 -->
<g id="node44" class="node"><title>Node44</title>
<g id="a_node44"><a xlink:href="../../d9/dd1/namespaceuart__esc.html#a29b71bb756bb2b3b5b7e691d09423703" target="_top" xlink:title="task main trampoline function ">
<polygon fill="white" stroke="black" points="692,-0.5 692,-30.5 797,-30.5 797,-0.5 692,-0.5"/>
<text text-anchor="start" x="700" y="-18.5" font-family="Helvetica,sans-Serif" font-size="10.00">uart_esc::task_main</text>
<text text-anchor="middle" x="744.5" y="-7.5" font-family="Helvetica,sans-Serif" font-size="10.00">_trampoline</text>
</a>
</g>
</g>
<!-- Node43&#45;&gt;Node44 -->
<g id="edge50" class="edge"><title>Node43&#45;&gt;Node44</title>
<path fill="none" stroke="midnightblue" d="M632.688,-34.7716C652.04,-31.406 673.192,-27.7274 691.781,-24.4946"/>
<polygon fill="midnightblue" stroke="midnightblue" points="632.008,-31.3373 622.756,-36.499 633.208,-38.2338 632.008,-31.3373"/>
</g>
<!-- Node45 -->
<g id="node45" class="node"><title>Node45</title>
<g id="a_node45"><a xlink:href="../../d9/dd1/namespaceuart__esc.html#a7414266b22e73024e9dbbbd65776f404" target="_top" xlink:title="Attempt to start driver on all available I2C busses. ">
<polygon fill="white" stroke="black" points="874,-6 874,-25 954,-25 954,-6 874,-6"/>
<text text-anchor="middle" x="914" y="-13" font-family="Helvetica,sans-Serif" font-size="10.00">uart_esc::start</text>
</a>
</g>
</g>
<!-- Node44&#45;&gt;Node45 -->
<g id="edge51" class="edge"><title>Node44&#45;&gt;Node45</title>
<path fill="none" stroke="midnightblue" d="M807.173,-15.5C829.446,-15.5 853.962,-15.5 873.784,-15.5"/>
<polygon fill="midnightblue" stroke="midnightblue" points="807.122,-12.0001 797.122,-15.5 807.122,-19.0001 807.122,-12.0001"/>
</g>
<!-- Node46 -->
<g id="node46" class="node"><title>Node46</title>
<g id="a_node46"><a xlink:href="../../d3/d92/spektrum__rc_8cpp.html#a1fabcdf34c69dadf4f3f51b77f485286" target="_top" xlink:title="spektrum_rc_main">
<polygon fill="white" stroke="black" points="1040,-6 1040,-25 1137,-25 1137,-6 1040,-6"/>
<text text-anchor="middle" x="1088.5" y="-13" font-family="Helvetica,sans-Serif" font-size="10.00">spektrum_rc_main</text>
</a>
</g>
</g>
<!-- Node45&#45;&gt;Node46 -->
<g id="edge52" class="edge"><title>Node45&#45;&gt;Node46</title>
<path fill="none" stroke="midnightblue" d="M964.347,-15.5C988.08,-15.5 1016.41,-15.5 1039.91,-15.5"/>
<polygon fill="midnightblue" stroke="midnightblue" points="964.143,-12.0001 954.143,-15.5 964.143,-19.0001 964.143,-12.0001"/>
</g>
</g>
</svg>
        <g id="navigator" transform="translate(0 0)" fill="#404254">
                <rect fill="#f2f5e9" fill-opacity="0.5" stroke="#606060" stroke-width=".5" x="0" y="0" width="60" height="60"/>
                <use id="zoomplus" xlink:href="#zoomPlus" x="17" y="9" onmousedown="handleZoom(evt,'in')"/>
                <use id="zoomminus" xlink:href="#zoomMin" x="42" y="9" onmousedown="handleZoom(evt,'out')"/>
                <use id="reset" xlink:href="#resetDef" x="30" y="36" onmousedown="handleReset()"/>
                <g id="arrowUp" xlink:href="#dirArrow" transform="translate(30 24)" onmousedown="handlePan(0,-1)">
                  <use xlink:href="#rim" fill="#404040">
                        <set attributeName="fill" to="#808080" begin="arrowUp.mouseover" end="arrowUp.mouseout"/>
                  </use>
                  <path fill="none" stroke="white" stroke-width="1.5" d="M0,-3.0v7 M-2.5,-0.5L0,-3.0L2.5,-0.5"/>
                </g>
                <g id="arrowRight" xlink:href="#dirArrow" transform="rotate(90) translate(36 -43)" onmousedown="handlePan(1,0)">
                  <use xlink:href="#rim" fill="#404040">
                        <set attributeName="fill" to="#808080" begin="arrowRight.mouseover" end="arrowRight.mouseout"/>
                  </use>
                  <path fill="none" stroke="white" stroke-width="1.5" d="M0,-3.0v7 M-2.5,-0.5L0,-3.0L2.5,-0.5"/>
                </g>
                <g id="arrowDown" xlink:href="#dirArrow" transform="rotate(180) translate(-30 -48)" onmousedown="handlePan(0,1)">
                  <use xlink:href="#rim" fill="#404040">
                        <set attributeName="fill" to="#808080" begin="arrowDown.mouseover" end="arrowDown.mouseout"/>
                  </use>
                  <path fill="none" stroke="white" stroke-width="1.5" d="M0,-3.0v7 M-2.5,-0.5L0,-3.0L2.5,-0.5"/>
                </g>
                <g id="arrowLeft" xlink:href="#dirArrow" transform="rotate(270) translate(-36 17)" onmousedown="handlePan(-1,0)">
                  <use xlink:href="#rim" fill="#404040">
                        <set attributeName="fill" to="#808080" begin="arrowLeft.mouseover" end="arrowLeft.mouseout"/>
                  </use>
                  <path fill="none" stroke="white" stroke-width="1.5" d="M0,-3.0v7 M-2.5,-0.5L0,-3.0L2.5,-0.5"/>
                </g>
        </g>
        <svg viewBox="0 0 15 15" width="100%" height="30px" preserveAspectRatio="xMaxYMin meet">
         <g id="arrow_out" transform="scale(0.3 0.3)">
          <a xlink:href="class_multirotor_mixer_a4d5cdf8a2011732337db808bbc8d48bc_icgraph_org.svg" target="_base">
           <rect id="button" ry="5" rx="5" y="6" x="6" height="38" width="38"
                fill="#f2f5e9" fill-opacity="0.5" stroke="#606060" stroke-width="1.0"/>
           <path id="arrow"
             d="M 11.500037,31.436501 C 11.940474,20.09759 22.043105,11.32322 32.158766,21.979434 L 37.068811,17.246167 C 37.068811,17.246167 37.088388,32 37.088388,32 L 22.160133,31.978069 C 22.160133,31.978069 26.997745,27.140456 26.997745,27.140456 C 18.528582,18.264221 13.291696,25.230495 11.500037,31.436501 z"
             style="fill:#404040;"/>
          </a>
         </g>
        </svg>
</svg>
