<?xml version="1.0" encoding="UTF-8" standalone="no"?>
<!DOCTYPE svg PUBLIC "-//W3C//DTD SVG 1.1//EN"
 "http://www.w3.org/Graphics/SVG/1.1/DTD/svg11.dtd">
<!-- Generated by graphviz version 2.40.1 (20161225.0304)
 -->
<!-- Title: uORB::Manager Pages: 1 -->
<svg width="204pt" height="540pt"
 viewBox="0.00 0.00 203.50 540.00" xmlns="http://www.w3.org/2000/svg" xmlns:xlink="http://www.w3.org/1999/xlink">
<g id="graph0" class="graph" transform="scale(1 1) rotate(0) translate(4 536)">
<title>uORB::Manager</title>
<polygon fill="#ffffff" stroke="transparent" points="-4,4 -4,-536 199.5,-536 199.5,4 -4,4"/>
<!-- Node1 -->
<g id="node1" class="node">
<title>Node1</title>
<polygon fill="#bfbfbf" stroke="#000000" points="12.5,-.5 12.5,-200.5 128.5,-200.5 128.5,-.5 12.5,-.5"/>
<text text-anchor="middle" x="70.5" y="-188.5" font-family="Helvetica,sans-Serif" font-size="10.00" fill="#000000">uORB::Manager</text>
<polyline fill="none" stroke="#000000" points="12.5,-181.5 128.5,-181.5 "/>
<text text-anchor="middle" x="70.5" y="-169.5" font-family="Helvetica,sans-Serif" font-size="10.00" fill="#000000"> </text>
<polyline fill="none" stroke="#000000" points="12.5,-162.5 128.5,-162.5 "/>
<text text-anchor="start" x="20.5" y="-150.5" font-family="Helvetica,sans-Serif" font-size="10.00" fill="#000000">+ get_device_master()</text>
<text text-anchor="start" x="20.5" y="-139.5" font-family="Helvetica,sans-Serif" font-size="10.00" fill="#000000">+ orb_advertise()</text>
<text text-anchor="start" x="20.5" y="-128.5" font-family="Helvetica,sans-Serif" font-size="10.00" fill="#000000">+ orb_advertise_multi()</text>
<text text-anchor="start" x="20.5" y="-117.5" font-family="Helvetica,sans-Serif" font-size="10.00" fill="#000000">+ orb_unadvertise()</text>
<text text-anchor="start" x="20.5" y="-106.5" font-family="Helvetica,sans-Serif" font-size="10.00" fill="#000000">+ orb_publish()</text>
<text text-anchor="start" x="20.5" y="-95.5" font-family="Helvetica,sans-Serif" font-size="10.00" fill="#000000">+ orb_subscribe()</text>
<text text-anchor="start" x="20.5" y="-84.5" font-family="Helvetica,sans-Serif" font-size="10.00" fill="#000000">and 9 more...</text>
<text text-anchor="start" x="20.5" y="-73.5" font-family="Helvetica,sans-Serif" font-size="10.00" fill="#000000">+ initialize()</text>
<text text-anchor="start" x="20.5" y="-62.5" font-family="Helvetica,sans-Serif" font-size="10.00" fill="#000000">+ terminate()</text>
<text text-anchor="start" x="20.5" y="-51.5" font-family="Helvetica,sans-Serif" font-size="10.00" fill="#000000">+ get_instance()</text>
<text text-anchor="start" x="20.5" y="-40.5" font-family="Helvetica,sans-Serif" font-size="10.00" fill="#000000">&#45; node_advertise()</text>
<text text-anchor="start" x="20.5" y="-29.5" font-family="Helvetica,sans-Serif" font-size="10.00" fill="#000000">&#45; node_open()</text>
<text text-anchor="start" x="20.5" y="-18.5" font-family="Helvetica,sans-Serif" font-size="10.00" fill="#000000">&#45; Manager()</text>
<text text-anchor="start" x="20.5" y="-7.5" font-family="Helvetica,sans-Serif" font-size="10.00" fill="#000000">&#45; ~Manager()</text>
</g>
<!-- Node1&#45;&gt;Node1 -->
<g id="edge1" class="edge">
<title>Node1&#45;&gt;Node1</title>
<path fill="none" stroke="#404040" d="M128.8117,-122.3863C139.2258,-119.5415 146.5,-112.2461 146.5,-100.5 146.5,-93.5258 143.9356,-88.1205 139.6721,-84.2844"/>
<polygon fill="none" stroke="#404040" points="139.449,-84.1679 132.279,-84.9366 128.8117,-78.6137 135.9818,-77.8451 139.449,-84.1679"/>
<text text-anchor="middle" x="171" y="-98" font-family="Helvetica,sans-Serif" font-size="10.00" fill="#000000"> &#45;_Instance</text>
</g>
<!-- Node2 -->
<g id="node2" class="node">
<title>Node2</title>
<g id="a_node2"><a xlink:href="../../dd/d9d/classu_o_r_b_1_1_device_master.html" target="_top" xlink:title="Master control device for ObjDev. ">
<polygon fill="#ffffff" stroke="#000000" points="6.5,-248.5 6.5,-426.5 134.5,-426.5 134.5,-248.5 6.5,-248.5"/>
<text text-anchor="middle" x="70.5" y="-414.5" font-family="Helvetica,sans-Serif" font-size="10.00" fill="#000000">uORB::DeviceMaster</text>
<polyline fill="none" stroke="#000000" points="6.5,-407.5 134.5,-407.5 "/>
<text text-anchor="start" x="14.5" y="-395.5" font-family="Helvetica,sans-Serif" font-size="10.00" fill="#000000">&#45; _last_statistics_output</text>
<text text-anchor="start" x="14.5" y="-384.5" font-family="Helvetica,sans-Serif" font-size="10.00" fill="#000000">&#45; _lock</text>
<polyline fill="none" stroke="#000000" points="6.5,-377.5 134.5,-377.5 "/>
<text text-anchor="start" x="14.5" y="-365.5" font-family="Helvetica,sans-Serif" font-size="10.00" fill="#000000">+ advertise()</text>
<text text-anchor="start" x="14.5" y="-354.5" font-family="Helvetica,sans-Serif" font-size="10.00" fill="#000000">+ getDeviceNode()</text>
<text text-anchor="start" x="14.5" y="-343.5" font-family="Helvetica,sans-Serif" font-size="10.00" fill="#000000">+ getDeviceNode()</text>
<text text-anchor="start" x="14.5" y="-332.5" font-family="Helvetica,sans-Serif" font-size="10.00" fill="#000000">+ printStatistics()</text>
<text text-anchor="start" x="14.5" y="-321.5" font-family="Helvetica,sans-Serif" font-size="10.00" fill="#000000">+ showTop()</text>
<text text-anchor="start" x="14.5" y="-310.5" font-family="Helvetica,sans-Serif" font-size="10.00" fill="#000000">&#45; DeviceMaster()</text>
<text text-anchor="start" x="14.5" y="-299.5" font-family="Helvetica,sans-Serif" font-size="10.00" fill="#000000">&#45; ~DeviceMaster()</text>
<text text-anchor="start" x="14.5" y="-288.5" font-family="Helvetica,sans-Serif" font-size="10.00" fill="#000000">&#45; addNewDeviceNodes()</text>
<text text-anchor="start" x="14.5" y="-277.5" font-family="Helvetica,sans-Serif" font-size="10.00" fill="#000000">&#45; getDeviceNodeLocked()</text>
<text text-anchor="start" x="14.5" y="-266.5" font-family="Helvetica,sans-Serif" font-size="10.00" fill="#000000">&#45; lock()</text>
<text text-anchor="start" x="14.5" y="-255.5" font-family="Helvetica,sans-Serif" font-size="10.00" fill="#000000">&#45; unlock()</text>
</a>
</g>
</g>
<!-- Node2&#45;&gt;Node1 -->
<g id="edge2" class="edge">
<title>Node2&#45;&gt;Node1</title>
<path fill="none" stroke="#404040" d="M70.5,-248.2382C70.5,-236.7466 70.5,-224.8637 70.5,-213.0596"/>
<polygon fill="none" stroke="#404040" points="70.5001,-212.8067 66.5,-206.8067 70.5,-200.8067 74.5,-206.8067 70.5001,-212.8067"/>
<text text-anchor="middle" x="108.5" y="-222" font-family="Helvetica,sans-Serif" font-size="10.00" fill="#000000"> &#45;_device_master</text>
</g>
<!-- Node3 -->
<g id="node3" class="node">
<title>Node3</title>
<g id="a_node3"><a xlink:href="../../d1/d34/class_list.html" target="_top" xlink:title="{List\&lt; uORB::DeviceNode *\&gt;\n||}">
<polygon fill="#ffffff" stroke="#000000" points="0,-474.5 0,-531.5 141,-531.5 141,-474.5 0,-474.5"/>
<text text-anchor="middle" x="70.5" y="-519.5" font-family="Helvetica,sans-Serif" font-size="10.00" fill="#000000">List&lt; uORB::DeviceNode *&gt;</text>
<polyline fill="none" stroke="#000000" points="0,-512.5 141,-512.5 "/>
<text text-anchor="middle" x="70.5" y="-500.5" font-family="Helvetica,sans-Serif" font-size="10.00" fill="#000000"> </text>
<polyline fill="none" stroke="#000000" points="0,-493.5 141,-493.5 "/>
<text text-anchor="middle" x="70.5" y="-481.5" font-family="Helvetica,sans-Serif" font-size="10.00" fill="#000000"> </text>
</a>
</g>
</g>
<!-- Node3&#45;&gt;Node2 -->
<g id="edge3" class="edge">
<title>Node3&#45;&gt;Node2</title>
<path fill="none" stroke="#404040" d="M70.5,-474.1721C70.5,-463.9957 70.5,-451.8923 70.5,-439.1577"/>
<polygon fill="none" stroke="#404040" points="70.5001,-438.7971 66.5,-432.7972 70.5,-426.7971 74.5,-432.7971 70.5001,-438.7971"/>
<text text-anchor="middle" x="96" y="-448" font-family="Helvetica,sans-Serif" font-size="10.00" fill="#000000"> &#45;_node_list</text>
</g>
</g>
</svg>
