<?xml version="1.0" encoding="UTF-8" standalone="no"?>
<!DOCTYPE svg PUBLIC "-//W3C//DTD SVG 1.1//EN"
 "http://www.w3.org/Graphics/SVG/1.1/DTD/svg11.dtd">
<!-- Generated by graphviz version 2.38.0 (20140413.2041)
 -->
<!-- Title: IST8310::cycle_trampoline Pages: 1 -->
<svg width="744pt" height="180pt"
 viewBox="0.00 0.00 744.00 180.00" xmlns="http://www.w3.org/2000/svg" xmlns:xlink="http://www.w3.org/1999/xlink">
<g id="graph0" class="graph" transform="scale(1 1) rotate(0) translate(4 176)">
<title>IST8310::cycle_trampoline</title>
<polygon fill="white" stroke="none" points="-4,4 -4,-176 740,-176 740,4 -4,4"/>
<!-- Node1 -->
<g id="node1" class="node"><title>Node1</title>
<polygon fill="#bfbfbf" stroke="black" points="0,-142.5 0,-161.5 133,-161.5 133,-142.5 0,-142.5"/>
<text text-anchor="middle" x="66.5" y="-149.5" font-family="Helvetica,sans-Serif" font-size="10.00">IST8310::cycle_trampoline</text>
</g>
<!-- Node2 -->
<g id="node2" class="node"><title>Node2</title>
<g id="a_node2"><a xlink:href="../../db/df0/class_i_s_t8310.html#a16b8a742195334040d4c397a668485e5" target="_top" xlink:title="Perform a poll cycle; collect from the previous measurement and start a new one. ">
<polygon fill="white" stroke="black" points="284,-142.5 284,-161.5 367,-161.5 367,-142.5 284,-142.5"/>
<text text-anchor="middle" x="325.5" y="-149.5" font-family="Helvetica,sans-Serif" font-size="10.00">IST8310::cycle</text>
</a>
</g>
</g>
<!-- Node1&#45;&gt;Node2 -->
<g id="edge1" class="edge"><title>Node1&#45;&gt;Node2</title>
<path fill="none" stroke="midnightblue" d="M143.269,-145.783C189.341,-144.799 246.353,-145.178 283.99,-146.921"/>
<polygon fill="midnightblue" stroke="midnightblue" points="142.93,-142.29 133.017,-146.03 143.098,-149.288 142.93,-142.29"/>
</g>
<!-- Node3 -->
<g id="node3" class="node"><title>Node3</title>
<g id="a_node3"><a xlink:href="../../db/df0/class_i_s_t8310.html#a2dd32cd681c3c71863f625696c8da309" target="_top" xlink:title="Initialise the automatic measurement state machine and start it. ">
<polygon fill="white" stroke="black" points="169,-95.5 169,-114.5 248,-114.5 248,-95.5 169,-95.5"/>
<text text-anchor="middle" x="208.5" y="-102.5" font-family="Helvetica,sans-Serif" font-size="10.00">IST8310::start</text>
</a>
</g>
</g>
<!-- Node1&#45;&gt;Node3 -->
<g id="edge3" class="edge"><title>Node1&#45;&gt;Node3</title>
<path fill="none" stroke="midnightblue" d="M105.326,-139.301C128.429,-131.545 157.508,-121.783 178.731,-114.658"/>
<polygon fill="midnightblue" stroke="midnightblue" points="104.197,-135.988 95.8311,-142.489 106.425,-142.624 104.197,-135.988"/>
</g>
<!-- Node2&#45;&gt;Node1 -->
<g id="edge2" class="edge"><title>Node2&#45;&gt;Node1</title>
<path fill="none" stroke="midnightblue" d="M273.853,-157.499C233.531,-158.991 176.795,-159.149 133.017,-157.97"/>
<polygon fill="midnightblue" stroke="midnightblue" points="274.144,-160.99 283.99,-157.079 273.854,-153.996 274.144,-160.99"/>
</g>
<!-- Node3&#45;&gt;Node2 -->
<g id="edge17" class="edge"><title>Node3&#45;&gt;Node2</title>
<path fill="none" stroke="midnightblue" d="M242.107,-118.326C260.824,-125.976 283.902,-135.408 300.868,-142.342"/>
<polygon fill="midnightblue" stroke="midnightblue" points="243.353,-115.055 232.772,-114.511 240.705,-121.534 243.353,-115.055"/>
</g>
<!-- Node4 -->
<g id="node4" class="node"><title>Node4</title>
<g id="a_node4"><a xlink:href="../../db/df0/class_i_s_t8310.html#a8bdc728c012f51bdaef63e3ca69b8593" target="_top" xlink:title="IST8310::ioctl">
<polygon fill="white" stroke="black" points="287,-95.5 287,-114.5 364,-114.5 364,-95.5 287,-95.5"/>
<text text-anchor="middle" x="325.5" y="-102.5" font-family="Helvetica,sans-Serif" font-size="10.00">IST8310::ioctl</text>
</a>
</g>
</g>
<!-- Node3&#45;&gt;Node4 -->
<g id="edge4" class="edge"><title>Node3&#45;&gt;Node4</title>
<path fill="none" stroke="midnightblue" d="M258.33,-105C267.911,-105 277.822,-105 286.964,-105"/>
<polygon fill="midnightblue" stroke="midnightblue" points="258.113,-101.5 248.113,-105 258.113,-108.5 258.113,-101.5"/>
</g>
<!-- Node5 -->
<g id="node5" class="node"><title>Node5</title>
<g id="a_node5"><a xlink:href="../../db/df0/class_i_s_t8310.html#a7a7cadc5f87639d0b3d80ae8b6046069" target="_top" xlink:title="Perform the on&#45;sensor scale calibration routine. ">
<polygon fill="white" stroke="black" points="403,-152.5 403,-171.5 499,-171.5 499,-152.5 403,-152.5"/>
<text text-anchor="middle" x="451" y="-159.5" font-family="Helvetica,sans-Serif" font-size="10.00">IST8310::calibrate</text>
</a>
</g>
</g>
<!-- Node4&#45;&gt;Node5 -->
<g id="edge5" class="edge"><title>Node4&#45;&gt;Node5</title>
<path fill="none" stroke="midnightblue" d="M370.362,-118.772C380.971,-123.752 392.33,-129.202 403,-134 416.325,-139.992 432.131,-146.202 441.598,-152.282"/>
<polygon fill="midnightblue" stroke="midnightblue" points="371.811,-115.586 361.267,-114.544 368.86,-121.933 371.811,-115.586"/>
</g>
<!-- Node7 -->
<g id="node7" class="node"><title>Node7</title>
<g id="a_node7"><a xlink:href="../../d7/d4c/namespaceist8310.html#aafaa5a802b94d551a6bc188a64de6127" target="_top" xlink:title="start driver for a specific bus option ">
<polygon fill="white" stroke="black" points="403.5,-114.5 403.5,-133.5 498.5,-133.5 498.5,-114.5 403.5,-114.5"/>
<text text-anchor="middle" x="451" y="-121.5" font-family="Helvetica,sans-Serif" font-size="10.00">ist8310::start_bus</text>
</a>
</g>
</g>
<!-- Node4&#45;&gt;Node7 -->
<g id="edge8" class="edge"><title>Node4&#45;&gt;Node7</title>
<path fill="none" stroke="midnightblue" d="M374.336,-112.359C383.865,-113.825 393.86,-115.363 403.348,-116.823"/>
<polygon fill="midnightblue" stroke="midnightblue" points="374.641,-108.865 364.225,-110.804 373.577,-115.784 374.641,-108.865"/>
</g>
<!-- Node9 -->
<g id="node9" class="node"><title>Node9</title>
<g id="a_node9"><a xlink:href="../../d7/d4c/namespaceist8310.html#aaea89077e1f88f90de1ff6b463a0ecb9" target="_top" xlink:title="Perform some basic functional tests on the driver; make sure we can collect data from the sensor in p...">
<polygon fill="white" stroke="black" points="545,-76.5 545,-95.5 616,-95.5 616,-76.5 545,-76.5"/>
<text text-anchor="middle" x="580.5" y="-83.5" font-family="Helvetica,sans-Serif" font-size="10.00">ist8310::test</text>
</a>
</g>
</g>
<!-- Node4&#45;&gt;Node9 -->
<g id="edge11" class="edge"><title>Node4&#45;&gt;Node9</title>
<path fill="none" stroke="midnightblue" d="M374.291,-101.411C424.048,-97.6742 500.766,-91.9128 544.945,-88.595"/>
<polygon fill="midnightblue" stroke="midnightblue" points="373.813,-97.9369 364.103,-102.176 374.338,-104.917 373.813,-97.9369"/>
</g>
<!-- Node10 -->
<g id="node10" class="node"><title>Node10</title>
<g id="a_node10"><a xlink:href="../../d7/d4c/namespaceist8310.html#ab147e9684f7de0cac88123565416b49e" target="_top" xlink:title="Automatic scale calibration. ">
<polygon fill="white" stroke="black" points="535,-38.5 535,-57.5 626,-57.5 626,-38.5 535,-38.5"/>
<text text-anchor="middle" x="580.5" y="-45.5" font-family="Helvetica,sans-Serif" font-size="10.00">ist8310::calibrate</text>
</a>
</g>
</g>
<!-- Node4&#45;&gt;Node10 -->
<g id="edge13" class="edge"><title>Node4&#45;&gt;Node10</title>
<path fill="none" stroke="midnightblue" d="M374.018,-94.2943C420.921,-83.7272 491.971,-67.7199 537.038,-57.5666"/>
<polygon fill="midnightblue" stroke="midnightblue" points="373.09,-90.9157 364.103,-96.5281 374.628,-97.7445 373.09,-90.9157"/>
</g>
<!-- Node11 -->
<g id="node11" class="node"><title>Node11</title>
<g id="a_node11"><a xlink:href="../../d7/d4c/namespaceist8310.html#a9302570cfbcb0f5f8b3f9c8264882bbe" target="_top" xlink:title="Reset the driver. ">
<polygon fill="white" stroke="black" points="413,-0.5 413,-19.5 489,-19.5 489,-0.5 413,-0.5"/>
<text text-anchor="middle" x="451" y="-7.5" font-family="Helvetica,sans-Serif" font-size="10.00">ist8310::reset</text>
</a>
</g>
</g>
<!-- Node4&#45;&gt;Node11 -->
<g id="edge15" class="edge"><title>Node4&#45;&gt;Node11</title>
<path fill="none" stroke="midnightblue" d="M342.083,-88.0757C356.797,-72.7214 379.984,-50.0907 403,-34 410.809,-28.5405 420.03,-23.5559 428.227,-19.5614"/>
<polygon fill="midnightblue" stroke="midnightblue" points="339.52,-85.6919 335.206,-95.3687 344.613,-90.4943 339.52,-85.6919"/>
</g>
<!-- Node5&#45;&gt;Node4 -->
<g id="edge6" class="edge"><title>Node5&#45;&gt;Node4</title>
<path fill="none" stroke="midnightblue" d="M394.597,-148.139C370.911,-137.078 346.619,-124.167 334.443,-114.634"/>
<polygon fill="midnightblue" stroke="midnightblue" points="393.418,-151.449 403.967,-152.433 396.335,-145.085 393.418,-151.449"/>
</g>
<!-- Node6 -->
<g id="node6" class="node"><title>Node6</title>
<g id="a_node6"><a xlink:href="../../d3/dbd/ist8310_8cpp.html#af56d92ec5b3c303dd784f87b921b25d9" target="_top" xlink:title="ist8310_main">
<polygon fill="white" stroke="black" points="662,-76.5 662,-95.5 736,-95.5 736,-76.5 662,-76.5"/>
<text text-anchor="middle" x="699" y="-83.5" font-family="Helvetica,sans-Serif" font-size="10.00">ist8310_main</text>
</a>
</g>
</g>
<!-- Node5&#45;&gt;Node6 -->
<g id="edge7" class="edge"><title>Node5&#45;&gt;Node6</title>
<path fill="none" stroke="midnightblue" d="M509.186,-163.649C544.116,-162.763 589.023,-158.165 626,-143 652.256,-132.232 676.809,-108.881 689.333,-95.6512"/>
<polygon fill="midnightblue" stroke="midnightblue" points="509.093,-160.15 499.15,-163.809 509.205,-167.149 509.093,-160.15"/>
</g>
<!-- Node8 -->
<g id="node8" class="node"><title>Node8</title>
<g id="a_node8"><a xlink:href="../../d7/d4c/namespaceist8310.html#aadb32535537e74f500bf7619c433dd7a" target="_top" xlink:title="Start the driver. ">
<polygon fill="white" stroke="black" points="543.5,-114.5 543.5,-133.5 617.5,-133.5 617.5,-114.5 543.5,-114.5"/>
<text text-anchor="middle" x="580.5" y="-121.5" font-family="Helvetica,sans-Serif" font-size="10.00">ist8310::start</text>
</a>
</g>
</g>
<!-- Node7&#45;&gt;Node8 -->
<g id="edge9" class="edge"><title>Node7&#45;&gt;Node8</title>
<path fill="none" stroke="midnightblue" d="M508.862,-124C520.503,-124 532.453,-124 543.137,-124"/>
<polygon fill="midnightblue" stroke="midnightblue" points="508.752,-120.5 498.752,-124 508.752,-127.5 508.752,-120.5"/>
</g>
<!-- Node8&#45;&gt;Node6 -->
<g id="edge10" class="edge"><title>Node8&#45;&gt;Node6</title>
<path fill="none" stroke="midnightblue" d="M620.822,-111.174C636.453,-106.075 654.126,-100.311 668.612,-95.5859"/>
<polygon fill="midnightblue" stroke="midnightblue" points="619.32,-107.982 610.898,-114.411 621.49,-114.637 619.32,-107.982"/>
</g>
<!-- Node9&#45;&gt;Node6 -->
<g id="edge12" class="edge"><title>Node9&#45;&gt;Node6</title>
<path fill="none" stroke="midnightblue" d="M626.197,-86C637.93,-86 650.439,-86 661.674,-86"/>
<polygon fill="midnightblue" stroke="midnightblue" points="626.138,-82.5001 616.138,-86 626.138,-89.5001 626.138,-82.5001"/>
</g>
<!-- Node10&#45;&gt;Node6 -->
<g id="edge14" class="edge"><title>Node10&#45;&gt;Node6</title>
<path fill="none" stroke="midnightblue" d="M620.822,-60.8259C636.453,-65.9247 654.126,-71.6891 668.612,-76.4141"/>
<polygon fill="midnightblue" stroke="midnightblue" points="621.49,-57.3626 610.898,-57.589 619.32,-64.0175 621.49,-57.3626"/>
</g>
<!-- Node11&#45;&gt;Node6 -->
<g id="edge16" class="edge"><title>Node11&#45;&gt;Node6</title>
<path fill="none" stroke="midnightblue" d="M499.33,-8.19219C535.34,-8.44546 585.441,-12.3659 626,-29 652.256,-39.7682 676.809,-63.1191 689.333,-76.3488"/>
<polygon fill="midnightblue" stroke="midnightblue" points="499.093,-4.69263 489.101,-8.21568 499.109,-11.6926 499.093,-4.69263"/>
</g>
</g>
</svg>
