<?xml version="1.0" encoding="UTF-8" standalone="no"?>
<!DOCTYPE svg PUBLIC "-//W3C//DTD SVG 1.1//EN"
 "http://www.w3.org/Graphics/SVG/1.1/DTD/svg11.dtd">
<!-- Generated by graphviz version 2.40.1 (20161225.0304)
 -->
<!-- Title: IST8310::set_selftest Pages: 1 -->
<!--zoomable 180 -->
<svg id="main" version="1.1" xmlns="http://www.w3.org/2000/svg" xmlns:xlink="http://www.w3.org/1999/xlink" xml:space="preserve" onload="init(evt)">
<style type="text/css"><![CDATA[
.edge:hover path { stroke: red; }
.edge:hover polygon { stroke: red; fill: red; }
]]></style>
<script type="text/javascript"><![CDATA[
var edges = document.getElementsByTagName('g');
if (edges && edges.length) {
  for (var i=0;i<edges.length;i++) {
    if (edges[i].id.substr(0,4)=='edge') {
      edges[i].setAttribute('class','edge');
    }
  }
}
]]></script>
        <defs>
                <circle id="rim" cx="0" cy="0" r="7"/>
                <circle id="rim2" cx="0" cy="0" r="3.5"/>
                <g id="zoomPlus">
                        <use xlink:href="#rim" fill="#404040">
                                <set attributeName="fill" to="#808080" begin="zoomplus.mouseover" end="zoomplus.mouseout"/>
                        </use>
                        <path d="M-4,0h8M0,-4v8" fill="none" stroke="white" stroke-width="1.5" pointer-events="none"/>
                </g>
                <g id="zoomMin">
                        <use xlink:href="#rim" fill="#404040">
                                <set attributeName="fill" to="#808080" begin="zoomminus.mouseover" end="zoomminus.mouseout"/>
                        </use>
                        <path d="M-4,0h8" fill="none" stroke="white" stroke-width="1.5" pointer-events="none"/>
                </g>
                <g id="dirArrow">
                        <path fill="none" stroke="white" stroke-width="1.5" d="M0,-3.0v7 M-2.5,-0.5L0,-3.0L2.5,-0.5"/>
                </g>
               <g id="resetDef">
                       <use xlink:href="#rim2" fill="#404040">
                               <set attributeName="fill" to="#808080" begin="reset.mouseover" end="reset.mouseout"/>
                       </use>
               </g>
        </defs>

<script type="text/javascript">
var viewWidth = 600;
var viewHeight = 180;
var sectionId = 'dynsection-27';
</script>
<script xlink:href="../../svgpan.js"/>
<svg id="graph" class="graph">
<g id="viewport">
<title>IST8310::set_selftest</title>
<polygon fill="#ffffff" stroke="transparent" points="-4,4 -4,-176 596,-176 596,4 -4,4"/>
<!-- Node1564 -->
<g id="node1" class="node">
<title>Node1564</title>
<polygon fill="#bfbfbf" stroke="#000000" points="0,-95.5 0,-114.5 110,-114.5 110,-95.5 0,-95.5"/>
<text text-anchor="middle" x="55" y="-102.5" font-family="Helvetica,sans-Serif" font-size="10.00" fill="#000000">IST8310::set_selftest</text>
</g>
<!-- Node1565 -->
<g id="node2" class="node">
<title>Node1565</title>
<g id="a_node2"><a xlink:href="../../db/df0/class_i_s_t8310.html#a8bdc728c012f51bdaef63e3ca69b8593" target="_top" xlink:title="IST8310::ioctl">
<polygon fill="#ffffff" stroke="#000000" points="146,-95.5 146,-114.5 223,-114.5 223,-95.5 146,-95.5"/>
<text text-anchor="middle" x="184.5" y="-102.5" font-family="Helvetica,sans-Serif" font-size="10.00" fill="#000000">IST8310::ioctl</text>
</a>
</g>
</g>
<!-- Node1564&#45;&gt;Node1565 -->
<g id="edge1" class="edge">
<title>Node1564&#45;&gt;Node1565</title>
<path fill="none" stroke="#191970" d="M120.455,-105C129.1348,-105 137.7977,-105 145.8198,-105"/>
<polygon fill="#191970" stroke="#191970" points="120.2953,-101.5001 110.2953,-105 120.2953,-108.5001 120.2953,-101.5001"/>
</g>
<!-- Node1566 -->
<g id="node3" class="node">
<title>Node1566</title>
<g id="a_node3"><a xlink:href="../../db/df0/class_i_s_t8310.html#a7a7cadc5f87639d0b3d80ae8b6046069" target="_top" xlink:title="Perform the on&#45;sensor scale calibration routine. ">
<polygon fill="#ffffff" stroke="#000000" points="259,-152.5 259,-171.5 355,-171.5 355,-152.5 259,-152.5"/>
<text text-anchor="middle" x="307" y="-159.5" font-family="Helvetica,sans-Serif" font-size="10.00" fill="#000000">IST8310::calibrate</text>
</a>
</g>
</g>
<!-- Node1565&#45;&gt;Node1566 -->
<g id="edge2" class="edge">
<title>Node1565&#45;&gt;Node1566</title>
<path fill="none" stroke="#191970" d="M227.605,-118.5775C251.617,-129.0147 279.7188,-142.856 295.2221,-152.3362"/>
<polygon fill="#191970" stroke="#191970" points="228.8701,-115.3122 218.2979,-114.6192 226.1304,-121.7538 228.8701,-115.3122"/>
</g>
<!-- Node1568 -->
<g id="node5" class="node">
<title>Node1568</title>
<g id="a_node5"><a xlink:href="../../d7/d4c/namespaceist8310.html#ab147e9684f7de0cac88123565416b49e" target="_top" xlink:title="Automatic scale calibration. ">
<polygon fill="#ffffff" stroke="#000000" points="391,-114.5 391,-133.5 482,-133.5 482,-114.5 391,-114.5"/>
<text text-anchor="middle" x="436.5" y="-121.5" font-family="Helvetica,sans-Serif" font-size="10.00" fill="#000000">ist8310::calibrate</text>
</a>
</g>
</g>
<!-- Node1565&#45;&gt;Node1568 -->
<g id="edge5" class="edge">
<title>Node1565&#45;&gt;Node1568</title>
<path fill="none" stroke="#191970" d="M233.2628,-108.6766C278.7713,-112.1078 346.1652,-117.189 390.694,-120.5464"/>
<polygon fill="#191970" stroke="#191970" points="233.2826,-105.1682 223.0477,-107.9064 232.7562,-112.1484 233.2826,-105.1682"/>
</g>
<!-- Node1569 -->
<g id="node6" class="node">
<title>Node1569</title>
<g id="a_node6"><a xlink:href="../../d7/d4c/namespaceist8310.html#a9302570cfbcb0f5f8b3f9c8264882bbe" target="_top" xlink:title="Reset the driver. ">
<polygon fill="#ffffff" stroke="#000000" points="398.5,-76.5 398.5,-95.5 474.5,-95.5 474.5,-76.5 398.5,-76.5"/>
<text text-anchor="middle" x="436.5" y="-83.5" font-family="Helvetica,sans-Serif" font-size="10.00" fill="#000000">ist8310::reset</text>
</a>
</g>
</g>
<!-- Node1565&#45;&gt;Node1569 -->
<g id="edge7" class="edge">
<title>Node1565&#45;&gt;Node1569</title>
<path fill="none" stroke="#191970" d="M233.2417,-101.325C281.4502,-97.6903 354.2333,-92.2026 398.3694,-88.8749"/>
<polygon fill="#191970" stroke="#191970" points="232.7562,-97.8516 223.0477,-102.0936 233.2826,-104.8318 232.7562,-97.8516"/>
</g>
<!-- Node1570 -->
<g id="node7" class="node">
<title>Node1570</title>
<g id="a_node7"><a xlink:href="../../d7/d4c/namespaceist8310.html#aafaa5a802b94d551a6bc188a64de6127" target="_top" xlink:title="start driver for a specific bus option ">
<polygon fill="#ffffff" stroke="#000000" points="259.5,-38.5 259.5,-57.5 354.5,-57.5 354.5,-38.5 259.5,-38.5"/>
<text text-anchor="middle" x="307" y="-45.5" font-family="Helvetica,sans-Serif" font-size="10.00" fill="#000000">ist8310::start_bus</text>
</a>
</g>
</g>
<!-- Node1565&#45;&gt;Node1570 -->
<g id="edge9" class="edge">
<title>Node1565&#45;&gt;Node1570</title>
<path fill="none" stroke="#191970" d="M214.3665,-91.1029C236.7176,-80.7028 266.7082,-66.748 286.4294,-57.5716"/>
<polygon fill="#191970" stroke="#191970" points="212.5937,-88.0674 205.0037,-95.4595 215.5469,-94.414 212.5937,-88.0674"/>
</g>
<!-- Node1572 -->
<g id="node9" class="node">
<title>Node1572</title>
<g id="a_node9"><a xlink:href="../../d7/d4c/namespaceist8310.html#aaea89077e1f88f90de1ff6b463a0ecb9" target="_top" xlink:title="Perform some basic functional tests on the driver; make sure we can collect data from the sensor in p...">
<polygon fill="#ffffff" stroke="#000000" points="271.5,-.5 271.5,-19.5 342.5,-19.5 342.5,-.5 271.5,-.5"/>
<text text-anchor="middle" x="307" y="-7.5" font-family="Helvetica,sans-Serif" font-size="10.00" fill="#000000">ist8310::test</text>
</a>
</g>
</g>
<!-- Node1565&#45;&gt;Node1572 -->
<g id="edge12" class="edge">
<title>Node1565&#45;&gt;Node1572</title>
<path fill="none" stroke="#191970" d="M198.0999,-87.3392C211.8892,-70.4377 234.6197,-45.1879 259,-29 264.5252,-25.3314 270.8669,-22.1961 277.0913,-19.5924"/>
<polygon fill="#191970" stroke="#191970" points="195.2329,-85.3209 191.7426,-95.3244 200.7093,-89.6809 195.2329,-85.3209"/>
</g>
<!-- Node1566&#45;&gt;Node1565 -->
<g id="edge3" class="edge">
<title>Node1566&#45;&gt;Node1565</title>
<path fill="none" stroke="#191970" d="M264.11,-148.5159C240.0344,-138.0608 211.7886,-124.1532 196.2458,-114.6442"/>
<polygon fill="#191970" stroke="#191970" points="262.8653,-151.7899 273.4378,-152.4786 265.6024,-145.3471 262.8653,-151.7899"/>
</g>
<!-- Node1567 -->
<g id="node4" class="node">
<title>Node1567</title>
<g id="a_node4"><a xlink:href="../../d3/dbd/ist8310_8cpp.html#af56d92ec5b3c303dd784f87b921b25d9" target="_top" xlink:title="ist8310_main">
<polygon fill="#ffffff" stroke="#000000" points="518,-76.5 518,-95.5 592,-95.5 592,-76.5 518,-76.5"/>
<text text-anchor="middle" x="555" y="-83.5" font-family="Helvetica,sans-Serif" font-size="10.00" fill="#000000">ist8310_main</text>
</a>
</g>
</g>
<!-- Node1566&#45;&gt;Node1567 -->
<g id="edge4" class="edge">
<title>Node1566&#45;&gt;Node1567</title>
<path fill="none" stroke="#191970" d="M365.2071,-163.5939C400.2185,-162.65 445.0157,-158.0102 482,-143 508.5204,-132.2366 533.4534,-108.8839 546.185,-95.6525"/>
<polygon fill="#191970" stroke="#191970" points="365.0784,-160.0956 355.1419,-163.7719 365.2022,-167.0945 365.0784,-160.0956"/>
</g>
<!-- Node1568&#45;&gt;Node1567 -->
<g id="edge6" class="edge">
<title>Node1568&#45;&gt;Node1567</title>
<path fill="none" stroke="#191970" d="M476.0429,-111.3196C492.0542,-106.1852 510.2322,-100.3559 525.107,-95.5859"/>
<polygon fill="#191970" stroke="#191970" points="474.8562,-108.0245 466.4026,-114.411 476.9937,-114.6902 474.8562,-108.0245"/>
</g>
<!-- Node1569&#45;&gt;Node1567 -->
<g id="edge8" class="edge">
<title>Node1569&#45;&gt;Node1567</title>
<path fill="none" stroke="#191970" d="M484.933,-86C495.8781,-86 507.333,-86 517.7345,-86"/>
<polygon fill="#191970" stroke="#191970" points="484.6465,-82.5001 474.6464,-86 484.6464,-89.5001 484.6465,-82.5001"/>
</g>
<!-- Node1571 -->
<g id="node8" class="node">
<title>Node1571</title>
<g id="a_node8"><a xlink:href="../../d7/d4c/namespaceist8310.html#aadb32535537e74f500bf7619c433dd7a" target="_top" xlink:title="Start the driver. ">
<polygon fill="#ffffff" stroke="#000000" points="399.5,-38.5 399.5,-57.5 473.5,-57.5 473.5,-38.5 399.5,-38.5"/>
<text text-anchor="middle" x="436.5" y="-45.5" font-family="Helvetica,sans-Serif" font-size="10.00" fill="#000000">ist8310::start</text>
</a>
</g>
</g>
<!-- Node1570&#45;&gt;Node1571 -->
<g id="edge10" class="edge">
<title>Node1570&#45;&gt;Node1571</title>
<path fill="none" stroke="#191970" d="M364.9969,-48C376.6707,-48 388.6404,-48 399.3661,-48"/>
<polygon fill="#191970" stroke="#191970" points="364.8531,-44.5001 354.8531,-48 364.8531,-51.5001 364.8531,-44.5001"/>
</g>
<!-- Node1571&#45;&gt;Node1567 -->
<g id="edge11" class="edge">
<title>Node1571&#45;&gt;Node1567</title>
<path fill="none" stroke="#191970" d="M476.0429,-60.6804C492.0542,-65.8148 510.2322,-71.6441 525.107,-76.4141"/>
<polygon fill="#191970" stroke="#191970" points="476.9937,-57.3098 466.4026,-57.589 474.8562,-63.9755 476.9937,-57.3098"/>
</g>
<!-- Node1572&#45;&gt;Node1567 -->
<g id="edge13" class="edge">
<title>Node1572&#45;&gt;Node1567</title>
<path fill="none" stroke="#191970" d="M352.8665,-8.2135C389.1761,-8.3726 440.5054,-12.1593 482,-29 508.5204,-39.7634 533.4534,-63.1161 546.185,-76.3475"/>
<polygon fill="#191970" stroke="#191970" points="352.5598,-4.7148 342.5769,-8.2633 352.5937,-11.7148 352.5598,-4.7148"/>
</g>
</g>
</svg>
        <g id="navigator" transform="translate(0 0)" fill="#404254">
                <rect fill="#f2f5e9" fill-opacity="0.5" stroke="#606060" stroke-width=".5" x="0" y="0" width="60" height="60"/>
                <use id="zoomplus" xlink:href="#zoomPlus" x="17" y="9" onmousedown="handleZoom(evt,'in')"/>
                <use id="zoomminus" xlink:href="#zoomMin" x="42" y="9" onmousedown="handleZoom(evt,'out')"/>
                <use id="reset" xlink:href="#resetDef" x="30" y="36" onmousedown="handleReset()"/>
                <g id="arrowUp" xlink:href="#dirArrow" transform="translate(30 24)" onmousedown="handlePan(0,-1)">
                  <use xlink:href="#rim" fill="#404040">
                        <set attributeName="fill" to="#808080" begin="arrowUp.mouseover" end="arrowUp.mouseout"/>
                  </use>
                  <path fill="none" stroke="white" stroke-width="1.5" d="M0,-3.0v7 M-2.5,-0.5L0,-3.0L2.5,-0.5"/>
                </g>
                <g id="arrowRight" xlink:href="#dirArrow" transform="rotate(90) translate(36 -43)" onmousedown="handlePan(1,0)">
                  <use xlink:href="#rim" fill="#404040">
                        <set attributeName="fill" to="#808080" begin="arrowRight.mouseover" end="arrowRight.mouseout"/>
                  </use>
                  <path fill="none" stroke="white" stroke-width="1.5" d="M0,-3.0v7 M-2.5,-0.5L0,-3.0L2.5,-0.5"/>
                </g>
                <g id="arrowDown" xlink:href="#dirArrow" transform="rotate(180) translate(-30 -48)" onmousedown="handlePan(0,1)">
                  <use xlink:href="#rim" fill="#404040">
                        <set attributeName="fill" to="#808080" begin="arrowDown.mouseover" end="arrowDown.mouseout"/>
                  </use>
                  <path fill="none" stroke="white" stroke-width="1.5" d="M0,-3.0v7 M-2.5,-0.5L0,-3.0L2.5,-0.5"/>
                </g>
                <g id="arrowLeft" xlink:href="#dirArrow" transform="rotate(270) translate(-36 17)" onmousedown="handlePan(-1,0)">
                  <use xlink:href="#rim" fill="#404040">
                        <set attributeName="fill" to="#808080" begin="arrowLeft.mouseover" end="arrowLeft.mouseout"/>
                  </use>
                  <path fill="none" stroke="white" stroke-width="1.5" d="M0,-3.0v7 M-2.5,-0.5L0,-3.0L2.5,-0.5"/>
                </g>
        </g>
        <svg viewBox="0 0 15 15" width="100%" height="30px" preserveAspectRatio="xMaxYMin meet">
         <g id="arrow_out" transform="scale(0.3 0.3)">
          <a xlink:href="class_i_s_t8310_a73e4254b9963059d9825a87ec496f9d2_icgraph_org.svg" target="_base">
           <rect id="button" ry="5" rx="5" y="6" x="6" height="38" width="38"
                fill="#f2f5e9" fill-opacity="0.5" stroke="#606060" stroke-width="1.0"/>
           <path id="arrow"
             d="M 11.500037,31.436501 C 11.940474,20.09759 22.043105,11.32322 32.158766,21.979434 L 37.068811,17.246167 C 37.068811,17.246167 37.088388,32 37.088388,32 L 22.160133,31.978069 C 22.160133,31.978069 26.997745,27.140456 26.997745,27.140456 C 18.528582,18.264221 13.291696,25.230495 11.500037,31.436501 z"
             style="fill:#404040;"/>
          </a>
         </g>
        </svg>
</svg>
