<?xml version="1.0" encoding="UTF-8" standalone="no"?>
<!DOCTYPE svg PUBLIC "-//W3C//DTD SVG 1.1//EN"
 "http://www.w3.org/Graphics/SVG/1.1/DTD/svg11.dtd">
<!-- Generated by graphviz version 2.40.1 (20161225.0304)
 -->
<!-- Title: TECS::_initialize_states Pages: 1 -->
<!--zoomable 161 -->
<svg id="main" version="1.1" xmlns="http://www.w3.org/2000/svg" xmlns:xlink="http://www.w3.org/1999/xlink" xml:space="preserve" onload="init(evt)">
<style type="text/css"><![CDATA[
.edge:hover path { stroke: red; }
.edge:hover polygon { stroke: red; fill: red; }
]]></style>
<script type="text/javascript"><![CDATA[
var edges = document.getElementsByTagName('g');
if (edges && edges.length) {
  for (var i=0;i<edges.length;i++) {
    if (edges[i].id.substr(0,4)=='edge') {
      edges[i].setAttribute('class','edge');
    }
  }
}
]]></script>
        <defs>
                <circle id="rim" cx="0" cy="0" r="7"/>
                <circle id="rim2" cx="0" cy="0" r="3.5"/>
                <g id="zoomPlus">
                        <use xlink:href="#rim" fill="#404040">
                                <set attributeName="fill" to="#808080" begin="zoomplus.mouseover" end="zoomplus.mouseout"/>
                        </use>
                        <path d="M-4,0h8M0,-4v8" fill="none" stroke="white" stroke-width="1.5" pointer-events="none"/>
                </g>
                <g id="zoomMin">
                        <use xlink:href="#rim" fill="#404040">
                                <set attributeName="fill" to="#808080" begin="zoomminus.mouseover" end="zoomminus.mouseout"/>
                        </use>
                        <path d="M-4,0h8" fill="none" stroke="white" stroke-width="1.5" pointer-events="none"/>
                </g>
                <g id="dirArrow">
                        <path fill="none" stroke="white" stroke-width="1.5" d="M0,-3.0v7 M-2.5,-0.5L0,-3.0L2.5,-0.5"/>
                </g>
               <g id="resetDef">
                       <use xlink:href="#rim2" fill="#404040">
                               <set attributeName="fill" to="#808080" begin="reset.mouseover" end="reset.mouseout"/>
                       </use>
               </g>
        </defs>

<script type="text/javascript">
var viewWidth = 960;
var viewHeight = 161;
var sectionId = 'dynsection-6';
</script>
<script xlink:href="../../svgpan.js"/>
<svg id="graph" class="graph">
<g id="viewport">
<title>TECS::_initialize_states</title>
<polygon fill="#ffffff" stroke="transparent" points="-4,4 -4,-157 956,-157 956,4 -4,4"/>
<!-- Node36 -->
<g id="node1" class="node">
<title>Node36</title>
<polygon fill="#bfbfbf" stroke="#000000" points="0,-94 0,-113 122,-113 122,-94 0,-94"/>
<text text-anchor="middle" x="61" y="-101" font-family="Helvetica,sans-Serif" font-size="10.00" fill="#000000">TECS::_initialize_states</text>
</g>
<!-- Node37 -->
<g id="node2" class="node">
<title>Node37</title>
<g id="a_node2"><a xlink:href="../../d1/d1f/class_t_e_c_s.html#a6aeedcf79e4323b84da462c9e6616be8" target="_top" xlink:title="Update the control loop calculations. ">
<polygon fill="#ffffff" stroke="#000000" points="158,-88.5 158,-118.5 263,-118.5 263,-88.5 158,-88.5"/>
<text text-anchor="start" x="166" y="-106.5" font-family="Helvetica,sans-Serif" font-size="10.00" fill="#000000">TECS::update_pitch</text>
<text text-anchor="middle" x="210.5" y="-95.5" font-family="Helvetica,sans-Serif" font-size="10.00" fill="#000000">_throttle</text>
</a>
</g>
</g>
<!-- Node36&#45;&gt;Node37 -->
<g id="edge1" class="edge">
<title>Node36&#45;&gt;Node37</title>
<path fill="none" stroke="#191970" d="M132.2549,-103.5C140.8344,-103.5 149.4754,-103.5 157.7245,-103.5"/>
<polygon fill="#191970" stroke="#191970" points="132.2388,-100.0001 122.2387,-103.5 132.2387,-107.0001 132.2388,-100.0001"/>
</g>
<!-- Node38 -->
<g id="node3" class="node">
<title>Node38</title>
<g id="a_node3"><a xlink:href="../../d1/d1f/class_t_e_c_s.html#abd929268aff820c70915fc332c8a0d60" target="_top" xlink:title="Set the airspeed enable state. ">
<polygon fill="#ffffff" stroke="#000000" points="307.5,-127 307.5,-146 427.5,-146 427.5,-127 307.5,-127"/>
<text text-anchor="middle" x="367.5" y="-134" font-family="Helvetica,sans-Serif" font-size="10.00" fill="#000000">TECS::enable_airspeed</text>
</a>
</g>
</g>
<!-- Node37&#45;&gt;Node38 -->
<g id="edge2" class="edge">
<title>Node37&#45;&gt;Node38</title>
<path fill="none" stroke="#191970" d="M273.2683,-116.6933C289.6549,-120.1377 306.9953,-123.7825 322.2726,-126.9936"/>
<polygon fill="#191970" stroke="#191970" points="273.7216,-113.2122 263.2155,-114.5803 272.2817,-120.0625 273.7216,-113.2122"/>
</g>
<!-- Node41 -->
<g id="node6" class="node">
<title>Node41</title>
<g id="a_node6"><a xlink:href="../../d9/d31/class_fixedwing_position_control.html#a1fbe4b171c27542e459c3e058f55b267" target="_top" xlink:title="FixedwingPositionControl\l::tecs_update_pitch_throttle">
<polygon fill="#ffffff" stroke="#000000" points="299,-66.5 299,-96.5 436,-96.5 436,-66.5 299,-66.5"/>
<text text-anchor="start" x="307" y="-84.5" font-family="Helvetica,sans-Serif" font-size="10.00" fill="#000000">FixedwingPositionControl</text>
<text text-anchor="middle" x="367.5" y="-73.5" font-family="Helvetica,sans-Serif" font-size="10.00" fill="#000000">::tecs_update_pitch_throttle</text>
</a>
</g>
</g>
<!-- Node37&#45;&gt;Node41 -->
<g id="edge5" class="edge">
<title>Node37&#45;&gt;Node41</title>
<path fill="none" stroke="#191970" d="M273.2812,-94.7026C281.6567,-93.529 290.2811,-92.3205 298.7517,-91.1335"/>
<polygon fill="#191970" stroke="#191970" points="272.633,-91.2592 263.2155,-96.1131 273.6045,-98.1915 272.633,-91.2592"/>
</g>
<!-- Node39 -->
<g id="node4" class="node">
<title>Node39</title>
<g id="a_node4"><a xlink:href="../../d9/d31/class_fixedwing_position_control.html#aeef29be50cdc26d16cc925021fc899e3" target="_top" xlink:title="FixedwingPositionControl\l::airspeed_poll">
<polygon fill="#ffffff" stroke="#000000" points="636,-122.5 636,-152.5 764,-152.5 764,-122.5 636,-122.5"/>
<text text-anchor="start" x="644" y="-140.5" font-family="Helvetica,sans-Serif" font-size="10.00" fill="#000000">FixedwingPositionControl</text>
<text text-anchor="middle" x="700" y="-129.5" font-family="Helvetica,sans-Serif" font-size="10.00" fill="#000000">::airspeed_poll</text>
</a>
</g>
</g>
<!-- Node38&#45;&gt;Node39 -->
<g id="edge3" class="edge">
<title>Node38&#45;&gt;Node39</title>
<path fill="none" stroke="#191970" d="M437.9963,-136.712C496.5909,-136.8882 579.263,-137.1369 635.9837,-137.3075"/>
<polygon fill="#191970" stroke="#191970" points="437.7238,-133.2113 427.7132,-136.6811 437.7026,-140.2112 437.7238,-133.2113"/>
</g>
<!-- Node40 -->
<g id="node5" class="node">
<title>Node40</title>
<g id="a_node5"><a xlink:href="../../d9/d31/class_fixedwing_position_control.html#af035541f01c63d2d494a58a8271f9389" target="_top" xlink:title="FixedwingPositionControl::Run">
<polygon fill="#ffffff" stroke="#000000" points="800,-93 800,-112 952,-112 952,-93 800,-93"/>
<text text-anchor="middle" x="876" y="-100" font-family="Helvetica,sans-Serif" font-size="10.00" fill="#000000">FixedwingPositionControl::Run</text>
</a>
</g>
</g>
<!-- Node39&#45;&gt;Node40 -->
<g id="edge4" class="edge">
<title>Node39&#45;&gt;Node40</title>
<path fill="none" stroke="#191970" d="M774.0689,-122.7704C792.3136,-119.1422 811.378,-115.351 828.0171,-112.042"/>
<polygon fill="#191970" stroke="#191970" points="773.1632,-119.3819 764.0379,-124.7652 774.5285,-126.2474 773.1632,-119.3819"/>
</g>
<!-- Node42 -->
<g id="node7" class="node">
<title>Node42</title>
<g id="a_node7"><a xlink:href="../../d9/d31/class_fixedwing_position_control.html#a2a6cc4d147623709e78bcdf344dfd650" target="_top" xlink:title="FixedwingPositionControl\l::control_landing">
<polygon fill="#ffffff" stroke="#000000" points="472,-88.5 472,-118.5 600,-118.5 600,-88.5 472,-88.5"/>
<text text-anchor="start" x="480" y="-106.5" font-family="Helvetica,sans-Serif" font-size="10.00" fill="#000000">FixedwingPositionControl</text>
<text text-anchor="middle" x="536" y="-95.5" font-family="Helvetica,sans-Serif" font-size="10.00" fill="#000000">::control_landing</text>
</a>
</g>
</g>
<!-- Node41&#45;&gt;Node42 -->
<g id="edge6" class="edge">
<title>Node41&#45;&gt;Node42</title>
<path fill="none" stroke="#191970" d="M446.1095,-91.7636C454.7408,-92.8905 463.4514,-94.0278 471.8768,-95.1278"/>
<polygon fill="#191970" stroke="#191970" points="446.4044,-88.2724 436.0354,-90.4482 445.4981,-95.2135 446.4044,-88.2724"/>
</g>
<!-- Node43 -->
<g id="node8" class="node">
<title>Node43</title>
<g id="a_node8"><a xlink:href="../../d9/d31/class_fixedwing_position_control.html#a4b6c09ae04794bb21ea7b0705313390b" target="_top" xlink:title="FixedwingPositionControl\l::control_position">
<polygon fill="#ffffff" stroke="#000000" points="636,-63.5 636,-93.5 764,-93.5 764,-63.5 636,-63.5"/>
<text text-anchor="start" x="644" y="-81.5" font-family="Helvetica,sans-Serif" font-size="10.00" fill="#000000">FixedwingPositionControl</text>
<text text-anchor="middle" x="700" y="-70.5" font-family="Helvetica,sans-Serif" font-size="10.00" fill="#000000">::control_position</text>
</a>
</g>
</g>
<!-- Node41&#45;&gt;Node43 -->
<g id="edge9" class="edge">
<title>Node41&#45;&gt;Node43</title>
<path fill="none" stroke="#191970" d="M446.2411,-79.8687C454.9326,-79.7256 463.6536,-79.5982 472,-79.5 527.2155,-78.8506 589.957,-78.612 635.6267,-78.5293"/>
<polygon fill="#191970" stroke="#191970" points="446.0144,-76.372 436.0759,-80.043 446.1345,-83.3709 446.0144,-76.372"/>
</g>
<!-- Node44 -->
<g id="node9" class="node">
<title>Node44</title>
<g id="a_node9"><a xlink:href="../../d9/d31/class_fixedwing_position_control.html#afdf6c72fd9553ae0ba2bbbef27aea7c5" target="_top" xlink:title="FixedwingPositionControl\l::control_takeoff">
<polygon fill="#ffffff" stroke="#000000" points="472,-.5 472,-30.5 600,-30.5 600,-.5 472,-.5"/>
<text text-anchor="start" x="480" y="-18.5" font-family="Helvetica,sans-Serif" font-size="10.00" fill="#000000">FixedwingPositionControl</text>
<text text-anchor="middle" x="536" y="-7.5" font-family="Helvetica,sans-Serif" font-size="10.00" fill="#000000">::control_takeoff</text>
</a>
</g>
</g>
<!-- Node41&#45;&gt;Node44 -->
<g id="edge10" class="edge">
<title>Node41&#45;&gt;Node44</title>
<path fill="none" stroke="#191970" d="M415.7965,-62.5827C441.7319,-52.424 473.2626,-40.0737 497.5226,-30.5713"/>
<polygon fill="#191970" stroke="#191970" points="414.192,-59.4522 406.1573,-66.3583 416.745,-65.97 414.192,-59.4522"/>
</g>
<!-- Node42&#45;&gt;Node43 -->
<g id="edge7" class="edge">
<title>Node42&#45;&gt;Node43</title>
<path fill="none" stroke="#191970" d="M610.2859,-92.1759C618.8158,-90.8756 627.4581,-89.5582 635.8391,-88.2806"/>
<polygon fill="#191970" stroke="#191970" points="609.7048,-88.724 600.3464,-93.6911 610.7597,-95.6441 609.7048,-88.724"/>
</g>
<!-- Node43&#45;&gt;Node40 -->
<g id="edge8" class="edge">
<title>Node43&#45;&gt;Node40</title>
<path fill="none" stroke="#191970" d="M774.0901,-88.6032C784.6845,-90.0479 795.5549,-91.5302 806.0659,-92.9635"/>
<polygon fill="#191970" stroke="#191970" points="774.4191,-85.1158 764.0379,-87.2324 773.4733,-92.0516 774.4191,-85.1158"/>
</g>
<!-- Node44&#45;&gt;Node43 -->
<g id="edge11" class="edge">
<title>Node44&#45;&gt;Node43</title>
<path fill="none" stroke="#191970" d="M584.6759,-34.1987C608.9517,-43.5241 637.9228,-54.6533 660.7546,-63.424"/>
<polygon fill="#191970" stroke="#191970" points="585.8721,-30.9089 575.2821,-30.5901 583.3619,-37.4433 585.8721,-30.9089"/>
</g>
</g>
</svg>
        <g id="navigator" transform="translate(0 0)" fill="#404254">
                <rect fill="#f2f5e9" fill-opacity="0.5" stroke="#606060" stroke-width=".5" x="0" y="0" width="60" height="60"/>
                <use id="zoomplus" xlink:href="#zoomPlus" x="17" y="9" onmousedown="handleZoom(evt,'in')"/>
                <use id="zoomminus" xlink:href="#zoomMin" x="42" y="9" onmousedown="handleZoom(evt,'out')"/>
                <use id="reset" xlink:href="#resetDef" x="30" y="36" onmousedown="handleReset()"/>
                <g id="arrowUp" xlink:href="#dirArrow" transform="translate(30 24)" onmousedown="handlePan(0,-1)">
                  <use xlink:href="#rim" fill="#404040">
                        <set attributeName="fill" to="#808080" begin="arrowUp.mouseover" end="arrowUp.mouseout"/>
                  </use>
                  <path fill="none" stroke="white" stroke-width="1.5" d="M0,-3.0v7 M-2.5,-0.5L0,-3.0L2.5,-0.5"/>
                </g>
                <g id="arrowRight" xlink:href="#dirArrow" transform="rotate(90) translate(36 -43)" onmousedown="handlePan(1,0)">
                  <use xlink:href="#rim" fill="#404040">
                        <set attributeName="fill" to="#808080" begin="arrowRight.mouseover" end="arrowRight.mouseout"/>
                  </use>
                  <path fill="none" stroke="white" stroke-width="1.5" d="M0,-3.0v7 M-2.5,-0.5L0,-3.0L2.5,-0.5"/>
                </g>
                <g id="arrowDown" xlink:href="#dirArrow" transform="rotate(180) translate(-30 -48)" onmousedown="handlePan(0,1)">
                  <use xlink:href="#rim" fill="#404040">
                        <set attributeName="fill" to="#808080" begin="arrowDown.mouseover" end="arrowDown.mouseout"/>
                  </use>
                  <path fill="none" stroke="white" stroke-width="1.5" d="M0,-3.0v7 M-2.5,-0.5L0,-3.0L2.5,-0.5"/>
                </g>
                <g id="arrowLeft" xlink:href="#dirArrow" transform="rotate(270) translate(-36 17)" onmousedown="handlePan(-1,0)">
                  <use xlink:href="#rim" fill="#404040">
                        <set attributeName="fill" to="#808080" begin="arrowLeft.mouseover" end="arrowLeft.mouseout"/>
                  </use>
                  <path fill="none" stroke="white" stroke-width="1.5" d="M0,-3.0v7 M-2.5,-0.5L0,-3.0L2.5,-0.5"/>
                </g>
        </g>
        <svg viewBox="0 0 15 15" width="100%" height="30px" preserveAspectRatio="xMaxYMin meet">
         <g id="arrow_out" transform="scale(0.3 0.3)">
          <a xlink:href="class_t_e_c_s_a3c9071e0e57efc5e8570212f629bab17_icgraph_org.svg" target="_base">
           <rect id="button" ry="5" rx="5" y="6" x="6" height="38" width="38"
                fill="#f2f5e9" fill-opacity="0.5" stroke="#606060" stroke-width="1.0"/>
           <path id="arrow"
             d="M 11.500037,31.436501 C 11.940474,20.09759 22.043105,11.32322 32.158766,21.979434 L 37.068811,17.246167 C 37.068811,17.246167 37.088388,32 37.088388,32 L 22.160133,31.978069 C 22.160133,31.978069 26.997745,27.140456 26.997745,27.140456 C 18.528582,18.264221 13.291696,25.230495 11.500037,31.436501 z"
             style="fill:#404040;"/>
          </a>
         </g>
        </svg>
</svg>
