<?xml version="1.0" encoding="UTF-8" standalone="no"?>
<!DOCTYPE svg PUBLIC "-//W3C//DTD SVG 1.1//EN"
 "http://www.w3.org/Graphics/SVG/1.1/DTD/svg11.dtd">
<!-- Generated by graphviz version 2.38.0 (20140413.2041)
 -->
<!-- Title: TECS::_update_pitch_setpoint Pages: 1 -->
<svg width="275pt" height="192pt"
 viewBox="0.00 0.00 275.00 191.50" xmlns="http://www.w3.org/2000/svg" xmlns:xlink="http://www.w3.org/1999/xlink">
<g id="graph0" class="graph" transform="scale(1 1) rotate(0) translate(4 187.5)">
<title>TECS::_update_pitch_setpoint</title>
<polygon fill="white" stroke="none" points="-4,4 -4,-187.5 271,-187.5 271,4 -4,4"/>
<!-- Node1 -->
<g id="node1" class="node"><title>Node1</title>
<polygon fill="#bfbfbf" stroke="black" points="0,-71 0,-101 110,-101 110,-71 0,-71"/>
<text text-anchor="start" x="8" y="-89" font-family="Helvetica,sans-Serif" font-size="10.00">TECS::_update_pitch</text>
<text text-anchor="middle" x="55" y="-78" font-family="Helvetica,sans-Serif" font-size="10.00">_setpoint</text>
</g>
<!-- Node2 -->
<g id="node2" class="node"><title>Node2</title>
<g id="a_node2"><a xlink:href="../../d1/d1f/class_t_e_c_s.html#aecdf93951f7e0e7d056383826debfcf6" target="_top" xlink:title="Get the current airspeed status. ">
<polygon fill="white" stroke="black" points="146,-153 146,-183 267,-183 267,-153 146,-153"/>
<text text-anchor="start" x="154" y="-171" font-family="Helvetica,sans-Serif" font-size="10.00">TECS::airspeed_sensor</text>
<text text-anchor="middle" x="206.5" y="-160" font-family="Helvetica,sans-Serif" font-size="10.00">_enabled</text>
</a>
</g>
</g>
<!-- Node1&#45;&gt;Node2 -->
<g id="edge1" class="edge"><title>Node1&#45;&gt;Node2</title>
<path fill="none" stroke="midnightblue" d="M77.5832,-101.11C95.4461,-113.26 121.735,-130.331 146,-143 149.743,-144.954 153.674,-146.875 157.656,-148.73"/>
<polygon fill="midnightblue" stroke="midnightblue" points="156.419,-152.011 166.975,-152.922 159.291,-145.628 156.419,-152.011"/>
</g>
<!-- Node3 -->
<g id="node3" class="node"><title>Node3</title>
<g id="a_node3"><a xlink:href="../../dd/d47/namespacemath.html#a9ab5768499dc798629f31a3e785ea313" target="_top" xlink:title="math::constrain">
<polygon fill="white" stroke="black" points="164.5,-114.5 164.5,-133.5 248.5,-133.5 248.5,-114.5 164.5,-114.5"/>
<text text-anchor="middle" x="206.5" y="-121.5" font-family="Helvetica,sans-Serif" font-size="10.00">math::constrain</text>
</a>
</g>
</g>
<!-- Node1&#45;&gt;Node3 -->
<g id="edge2" class="edge"><title>Node1&#45;&gt;Node3</title>
<path fill="none" stroke="midnightblue" d="M110.396,-99.8264C125.862,-103.758 142.586,-108.009 157.634,-111.833"/>
<polygon fill="midnightblue" stroke="midnightblue" points="157.194,-115.333 167.748,-114.404 158.918,-108.548 157.194,-115.333"/>
</g>
<!-- Node4 -->
<g id="node4" class="node"><title>Node4</title>
<g id="a_node4"><a xlink:href="../../d8/da1/integration_8cpp.html#af5ba872dd09316732300733cc164ac1a" target="_top" xlink:title="f">
<polygon fill="white" stroke="black" points="192,-76.5 192,-95.5 221,-95.5 221,-76.5 192,-76.5"/>
<text text-anchor="middle" x="206.5" y="-83.5" font-family="Helvetica,sans-Serif" font-size="10.00">f</text>
</a>
</g>
</g>
<!-- Node1&#45;&gt;Node4 -->
<g id="edge3" class="edge"><title>Node1&#45;&gt;Node4</title>
<path fill="none" stroke="midnightblue" d="M110.396,-86C134.823,-86 162.388,-86 181.529,-86"/>
<polygon fill="midnightblue" stroke="midnightblue" points="181.738,-89.5001 191.738,-86 181.738,-82.5001 181.738,-89.5001"/>
</g>
<!-- Node5 -->
<g id="node5" class="node"><title>Node5</title>
<g id="a_node5"><a xlink:href="../../d0/d58/position__estimator__inav__main_8cpp.html#a9788a89a1fa912669102bc6049a9ed9b" target="_top" xlink:title="max">
<polygon fill="white" stroke="black" points="189,-38.5 189,-57.5 224,-57.5 224,-38.5 189,-38.5"/>
<text text-anchor="middle" x="206.5" y="-45.5" font-family="Helvetica,sans-Serif" font-size="10.00">max</text>
</a>
</g>
</g>
<!-- Node1&#45;&gt;Node5 -->
<g id="edge4" class="edge"><title>Node1&#45;&gt;Node5</title>
<path fill="none" stroke="midnightblue" d="M110.396,-72.1736C133.783,-66.2291 160.047,-59.5532 179.04,-54.7256"/>
<polygon fill="midnightblue" stroke="midnightblue" points="179.949,-58.1059 188.779,-52.2502 178.225,-51.3216 179.949,-58.1059"/>
</g>
<!-- Node6 -->
<g id="node6" class="node"><title>Node6</title>
<g id="a_node6"><a xlink:href="../../d0/d58/position__estimator__inav__main_8cpp.html#ab72387a3954ae834958e94d34cf610ea" target="_top" xlink:title="min">
<polygon fill="white" stroke="black" points="190.5,-0.5 190.5,-19.5 222.5,-19.5 222.5,-0.5 190.5,-0.5"/>
<text text-anchor="middle" x="206.5" y="-7.5" font-family="Helvetica,sans-Serif" font-size="10.00">min</text>
</a>
</g>
</g>
<!-- Node1&#45;&gt;Node6 -->
<g id="edge5" class="edge"><title>Node1&#45;&gt;Node6</title>
<path fill="none" stroke="midnightblue" d="M76.5834,-70.8122C94.284,-58.2892 120.862,-40.7371 146,-29 157.02,-23.8546 169.804,-19.5709 180.692,-16.3814"/>
<polygon fill="midnightblue" stroke="midnightblue" points="181.738,-19.7234 190.43,-13.6663 179.858,-12.9806 181.738,-19.7234"/>
</g>
</g>
</svg>
