<?xml version="1.0" encoding="UTF-8" standalone="no"?>
<!DOCTYPE svg PUBLIC "-//W3C//DTD SVG 1.1//EN"
 "http://www.w3.org/Graphics/SVG/1.1/DTD/svg11.dtd">
<!-- Generated by graphviz version 2.38.0 (20140413.2041)
 -->
<!-- Title: TECS::update_vehicle_state_estimates Pages: 1 -->
<svg width="807pt" height="161pt"
 viewBox="0.00 0.00 807.00 161.00" xmlns="http://www.w3.org/2000/svg" xmlns:xlink="http://www.w3.org/1999/xlink">
<g id="graph0" class="graph" transform="scale(1 1) rotate(0) translate(4 157)">
<title>TECS::update_vehicle_state_estimates</title>
<polygon fill="white" stroke="none" points="-4,4 -4,-157 803,-157 803,4 -4,4"/>
<!-- Node1 -->
<g id="node1" class="node"><title>Node1</title>
<polygon fill="#bfbfbf" stroke="black" points="0,-88.5 0,-118.5 115,-118.5 115,-88.5 0,-88.5"/>
<text text-anchor="start" x="8" y="-106.5" font-family="Helvetica,sans-Serif" font-size="10.00">TECS::update_vehicle</text>
<text text-anchor="middle" x="57.5" y="-95.5" font-family="Helvetica,sans-Serif" font-size="10.00">_state_estimates</text>
</g>
<!-- Node2 -->
<g id="node2" class="node"><title>Node2</title>
<g id="a_node2"><a xlink:href="../../d1/d1f/class_t_e_c_s.html#abd929268aff820c70915fc332c8a0d60" target="_top" xlink:title="Set the airspeed enable state. ">
<polygon fill="white" stroke="black" points="159.5,-127 159.5,-146 279.5,-146 279.5,-127 159.5,-127"/>
<text text-anchor="middle" x="219.5" y="-134" font-family="Helvetica,sans-Serif" font-size="10.00">TECS::enable_airspeed</text>
</a>
</g>
</g>
<!-- Node1&#45;&gt;Node2 -->
<g id="edge1" class="edge"><title>Node1&#45;&gt;Node2</title>
<path fill="none" stroke="midnightblue" d="M125.584,-117.336C141.331,-120.584 157.765,-123.973 172.356,-126.983"/>
<polygon fill="midnightblue" stroke="midnightblue" points="125.861,-113.82 115.361,-115.227 124.447,-120.675 125.861,-113.82"/>
</g>
<!-- Node5 -->
<g id="node5" class="node"><title>Node5</title>
<g id="a_node5"><a xlink:href="../../d9/d31/class_fixedwing_position_control.html#a1fbe4b171c27542e459c3e058f55b267" target="_top" xlink:title="FixedwingPositionControl\l::tecs_update_pitch_throttle">
<polygon fill="white" stroke="black" points="151,-55.5 151,-85.5 288,-85.5 288,-55.5 151,-55.5"/>
<text text-anchor="start" x="159" y="-73.5" font-family="Helvetica,sans-Serif" font-size="10.00">FixedwingPositionControl</text>
<text text-anchor="middle" x="219.5" y="-62.5" font-family="Helvetica,sans-Serif" font-size="10.00">::tecs_update_pitch_throttle</text>
</a>
</g>
</g>
<!-- Node1&#45;&gt;Node5 -->
<g id="edge4" class="edge"><title>Node1&#45;&gt;Node5</title>
<path fill="none" stroke="midnightblue" d="M125.203,-89.7425C133.688,-87.9925 142.378,-86.2001 150.878,-84.4471"/>
<polygon fill="midnightblue" stroke="midnightblue" points="124.447,-86.3246 115.361,-91.7725 125.861,-93.1803 124.447,-86.3246"/>
</g>
<!-- Node3 -->
<g id="node3" class="node"><title>Node3</title>
<g id="a_node3"><a xlink:href="../../d9/d31/class_fixedwing_position_control.html#aeef29be50cdc26d16cc925021fc899e3" target="_top" xlink:title="FixedwingPositionControl\l::airspeed_poll">
<polygon fill="white" stroke="black" points="488,-122.5 488,-152.5 616,-152.5 616,-122.5 488,-122.5"/>
<text text-anchor="start" x="496" y="-140.5" font-family="Helvetica,sans-Serif" font-size="10.00">FixedwingPositionControl</text>
<text text-anchor="middle" x="552" y="-129.5" font-family="Helvetica,sans-Serif" font-size="10.00">::airspeed_poll</text>
</a>
</g>
</g>
<!-- Node2&#45;&gt;Node3 -->
<g id="edge2" class="edge"><title>Node2&#45;&gt;Node3</title>
<path fill="none" stroke="midnightblue" d="M289.843,-136.71C348.318,-136.887 431.294,-137.138 487.924,-137.309"/>
<polygon fill="midnightblue" stroke="midnightblue" points="289.597,-133.209 279.587,-136.679 289.576,-140.209 289.597,-133.209"/>
</g>
<!-- Node4 -->
<g id="node4" class="node"><title>Node4</title>
<g id="a_node4"><a xlink:href="../../d9/d31/class_fixedwing_position_control.html#a8fae2d5637f3783149fc8408a4378136" target="_top" xlink:title="FixedwingPositionControl::run">
<polygon fill="white" stroke="black" points="652,-94 652,-113 799,-113 799,-94 652,-94"/>
<text text-anchor="middle" x="725.5" y="-101" font-family="Helvetica,sans-Serif" font-size="10.00">FixedwingPositionControl::run</text>
</a>
</g>
</g>
<!-- Node3&#45;&gt;Node4 -->
<g id="edge3" class="edge"><title>Node3&#45;&gt;Node4</title>
<path fill="none" stroke="midnightblue" d="M626.26,-122.976C643.217,-119.614 660.84,-116.121 676.4,-113.036"/>
<polygon fill="midnightblue" stroke="midnightblue" points="625.501,-119.558 616.373,-124.936 626.863,-126.425 625.501,-119.558"/>
</g>
<!-- Node6 -->
<g id="node6" class="node"><title>Node6</title>
<g id="a_node6"><a xlink:href="../../d9/d31/class_fixedwing_position_control.html#a2a6cc4d147623709e78bcdf344dfd650" target="_top" xlink:title="FixedwingPositionControl\l::control_landing">
<polygon fill="white" stroke="black" points="324,-88.5 324,-118.5 452,-118.5 452,-88.5 324,-88.5"/>
<text text-anchor="start" x="332" y="-106.5" font-family="Helvetica,sans-Serif" font-size="10.00">FixedwingPositionControl</text>
<text text-anchor="middle" x="388" y="-95.5" font-family="Helvetica,sans-Serif" font-size="10.00">::control_landing</text>
</a>
</g>
</g>
<!-- Node5&#45;&gt;Node6 -->
<g id="edge5" class="edge"><title>Node5&#45;&gt;Node6</title>
<path fill="none" stroke="midnightblue" d="M298.254,-85.9106C306.848,-87.6141 315.522,-89.3332 323.905,-90.9947"/>
<polygon fill="midnightblue" stroke="midnightblue" points="298.712,-82.4334 288.222,-83.9224 297.351,-89.2998 298.712,-82.4334"/>
</g>
<!-- Node7 -->
<g id="node7" class="node"><title>Node7</title>
<g id="a_node7"><a xlink:href="../../d9/d31/class_fixedwing_position_control.html#ad90bcc3a1e81fdd41fd6d8b8ec462529" target="_top" xlink:title="FixedwingPositionControl\l::control_position">
<polygon fill="white" stroke="black" points="488,-54.5 488,-84.5 616,-84.5 616,-54.5 488,-54.5"/>
<text text-anchor="start" x="496" y="-72.5" font-family="Helvetica,sans-Serif" font-size="10.00">FixedwingPositionControl</text>
<text text-anchor="middle" x="552" y="-61.5" font-family="Helvetica,sans-Serif" font-size="10.00">::control_position</text>
</a>
</g>
</g>
<!-- Node5&#45;&gt;Node7 -->
<g id="edge8" class="edge"><title>Node5&#45;&gt;Node7</title>
<path fill="none" stroke="midnightblue" d="M298.363,-70.2644C356.153,-70.0896 433.96,-69.8541 487.89,-69.691"/>
<polygon fill="midnightblue" stroke="midnightblue" points="298.168,-66.7649 288.179,-70.2952 298.19,-73.7649 298.168,-66.7649"/>
</g>
<!-- Node8 -->
<g id="node8" class="node"><title>Node8</title>
<g id="a_node8"><a xlink:href="../../d9/d31/class_fixedwing_position_control.html#afdf6c72fd9553ae0ba2bbbef27aea7c5" target="_top" xlink:title="FixedwingPositionControl\l::control_takeoff">
<polygon fill="white" stroke="black" points="324,-0.5 324,-30.5 452,-30.5 452,-0.5 324,-0.5"/>
<text text-anchor="start" x="332" y="-18.5" font-family="Helvetica,sans-Serif" font-size="10.00">FixedwingPositionControl</text>
<text text-anchor="middle" x="388" y="-7.5" font-family="Helvetica,sans-Serif" font-size="10.00">::control_takeoff</text>
</a>
</g>
</g>
<!-- Node5&#45;&gt;Node8 -->
<g id="edge9" class="edge"><title>Node5&#45;&gt;Node8</title>
<path fill="none" stroke="midnightblue" d="M275.603,-52.2978C296.993,-45.2322 321.192,-37.2384 341.558,-30.5108"/>
<polygon fill="midnightblue" stroke="midnightblue" points="274.394,-49.011 265.997,-55.471 276.59,-55.6577 274.394,-49.011"/>
</g>
<!-- Node6&#45;&gt;Node7 -->
<g id="edge6" class="edge"><title>Node6&#45;&gt;Node7</title>
<path fill="none" stroke="midnightblue" d="M462.094,-88.1593C470.676,-86.3582 479.378,-84.5319 487.808,-82.7624"/>
<polygon fill="midnightblue" stroke="midnightblue" points="461.165,-84.7779 452.097,-90.2574 462.603,-91.6286 461.165,-84.7779"/>
</g>
<!-- Node7&#45;&gt;Node4 -->
<g id="edge7" class="edge"><title>Node7&#45;&gt;Node4</title>
<path fill="none" stroke="midnightblue" d="M626.26,-84.0238C643.217,-87.3856 660.84,-90.8794 676.4,-93.9641"/>
<polygon fill="midnightblue" stroke="midnightblue" points="626.863,-80.5753 616.373,-82.0637 625.501,-87.4417 626.863,-80.5753"/>
</g>
<!-- Node8&#45;&gt;Node7 -->
<g id="edge10" class="edge"><title>Node8&#45;&gt;Node7</title>
<path fill="none" stroke="midnightblue" d="M443.812,-33.7706C463.992,-40.4972 486.602,-48.0339 505.835,-54.4451"/>
<polygon fill="midnightblue" stroke="midnightblue" points="444.72,-30.384 434.126,-30.542 442.506,-37.0247 444.72,-30.384"/>
</g>
</g>
</svg>
