<?xml version="1.0" encoding="UTF-8" standalone="no"?>
<!DOCTYPE svg PUBLIC "-//W3C//DTD SVG 1.1//EN"
 "http://www.w3.org/Graphics/SVG/1.1/DTD/svg11.dtd">
<!-- Generated by graphviz version 2.40.1 (20161225.0304)
 -->
<!-- Title: src/modules/navigator/mission_block.h Pages: 1 -->
<!--zoomable 307 -->
<svg id="main" version="1.1" xmlns="http://www.w3.org/2000/svg" xmlns:xlink="http://www.w3.org/1999/xlink" xml:space="preserve" onload="init(evt)">
<style type="text/css"><![CDATA[
.edge:hover path { stroke: red; }
.edge:hover polygon { stroke: red; fill: red; }
]]></style>
<script type="text/javascript"><![CDATA[
var edges = document.getElementsByTagName('g');
if (edges && edges.length) {
  for (var i=0;i<edges.length;i++) {
    if (edges[i].id.substr(0,4)=='edge') {
      edges[i].setAttribute('class','edge');
    }
  }
}
]]></script>
        <defs>
                <circle id="rim" cx="0" cy="0" r="7"/>
                <circle id="rim2" cx="0" cy="0" r="3.5"/>
                <g id="zoomPlus">
                        <use xlink:href="#rim" fill="#404040">
                                <set attributeName="fill" to="#808080" begin="zoomplus.mouseover" end="zoomplus.mouseout"/>
                        </use>
                        <path d="M-4,0h8M0,-4v8" fill="none" stroke="white" stroke-width="1.5" pointer-events="none"/>
                </g>
                <g id="zoomMin">
                        <use xlink:href="#rim" fill="#404040">
                                <set attributeName="fill" to="#808080" begin="zoomminus.mouseover" end="zoomminus.mouseout"/>
                        </use>
                        <path d="M-4,0h8" fill="none" stroke="white" stroke-width="1.5" pointer-events="none"/>
                </g>
                <g id="dirArrow">
                        <path fill="none" stroke="white" stroke-width="1.5" d="M0,-3.0v7 M-2.5,-0.5L0,-3.0L2.5,-0.5"/>
                </g>
               <g id="resetDef">
                       <use xlink:href="#rim2" fill="#404040">
                               <set attributeName="fill" to="#808080" begin="reset.mouseover" end="reset.mouseout"/>
                       </use>
               </g>
        </defs>

<script type="text/javascript">
var viewWidth = 1237;
var viewHeight = 307;
var sectionId = 'dynsection-0';
</script>
<script xlink:href="../../svgpan.js"/>
<svg id="graph" class="graph">
<g id="viewport">
<title>src/modules/navigator/mission_block.h</title>
<polygon fill="#ffffff" stroke="transparent" points="-4,4 -4,-303 1233,-303 1233,4 -4,4"/>
<!-- Node0 -->
<g id="node1" class="node">
<title>Node0</title>
<polygon fill="#bfbfbf" stroke="#000000" points="375.5,-268.5 375.5,-298.5 488.5,-298.5 488.5,-268.5 375.5,-268.5"/>
<text text-anchor="start" x="383.5" y="-286.5" font-family="Helvetica,sans-Serif" font-size="10.00" fill="#000000">src/modules/navigator</text>
<text text-anchor="middle" x="432" y="-275.5" font-family="Helvetica,sans-Serif" font-size="10.00" fill="#000000">/mission_block.h</text>
</g>
<!-- Node1 -->
<g id="node2" class="node">
<title>Node1</title>
<g id="a_node2"><a xlink:href="../../d8/ddc/navigator__mode_8h.html" target="_top" xlink:title="Base class for different modes in navigator. ">
<polygon fill="#ffffff" stroke="#000000" points="0,-207 0,-226 94,-226 94,-207 0,-207"/>
<text text-anchor="middle" x="47" y="-214" font-family="Helvetica,sans-Serif" font-size="10.00" fill="#000000">navigator_mode.h</text>
</a>
</g>
</g>
<!-- Node0&#45;&gt;Node1 -->
<g id="edge1" class="edge">
<title>Node0&#45;&gt;Node1</title>
<path fill="none" stroke="#191970" d="M375.4604,-276.6564C309.6257,-268.2251 197.7978,-252.4682 103,-232 98.3748,-231.0013 93.5645,-229.8483 88.7921,-228.6309"/>
<polygon fill="#191970" stroke="#191970" points="89.6839,-225.2465 79.1211,-226.0707 87.8924,-232.0134 89.6839,-225.2465"/>
</g>
<!-- Node2 -->
<g id="node3" class="node">
<title>Node2</title>
<g id="a_node3"><a xlink:href="../../d4/d9d/navigation_8h.html" target="_top" xlink:title="Definition of a mission consisting of mission items. ">
<polygon fill="#ffffff" stroke="#000000" points="112.5,-207 112.5,-226 181.5,-226 181.5,-207 112.5,-207"/>
<text text-anchor="middle" x="147" y="-214" font-family="Helvetica,sans-Serif" font-size="10.00" fill="#000000">navigation.h</text>
</a>
</g>
</g>
<!-- Node0&#45;&gt;Node2 -->
<g id="edge2" class="edge">
<title>Node0&#45;&gt;Node2</title>
<path fill="none" stroke="#191970" d="M375.3844,-272.6601C327.3581,-263.1039 256.7805,-248.2086 196,-232 192.5771,-231.0872 189.0374,-230.0847 185.4993,-229.0423"/>
<polygon fill="#191970" stroke="#191970" points="186.217,-225.6023 175.6312,-226.0403 184.1796,-232.2993 186.217,-225.6023"/>
</g>
<!-- Node5 -->
<g id="node6" class="node">
<title>Node5</title>
<g id="a_node6"><a xlink:href="../../db/d02/build_2doxygen_2u_o_r_b_2topics_2mission_8h.html" target="_top" xlink:title="uORB/topics/mission.h">
<polygon fill="#ffffff" stroke="#000000" points="97,-140 97,-159 215,-159 215,-140 97,-140"/>
<text text-anchor="middle" x="156" y="-147" font-family="Helvetica,sans-Serif" font-size="10.00" fill="#000000">uORB/topics/mission.h</text>
</a>
</g>
</g>
<!-- Node0&#45;&gt;Node5 -->
<g id="edge30" class="edge">
<title>Node0&#45;&gt;Node5</title>
<path fill="none" stroke="#191970" d="M375.1033,-278.2016C332.3485,-272.1405 273.7063,-259.2521 229,-232 202.3174,-215.7348 179.9573,-186.624 167.2717,-167.6912"/>
<polygon fill="#191970" stroke="#191970" points="170.0684,-165.5708 161.6963,-159.0778 164.192,-169.3745 170.0684,-165.5708"/>
</g>
<!-- Node8 -->
<g id="node9" class="node">
<title>Node8</title>
<g id="a_node9"><a xlink:href="../../d6/d10/drv__hrt_8h.html" target="_top" xlink:title="High&#45;resolution timer with callouts and timekeeping. ">
<polygon fill="#ffffff" stroke="#000000" points="679.5,-73 679.5,-92 766.5,-92 766.5,-73 679.5,-73"/>
<text text-anchor="middle" x="723" y="-80" font-family="Helvetica,sans-Serif" font-size="10.00" fill="#000000">drivers/drv_hrt.h</text>
</a>
</g>
</g>
<!-- Node0&#45;&gt;Node8 -->
<g id="edge10" class="edge">
<title>Node0&#45;&gt;Node8</title>
<path fill="none" stroke="#191970" d="M488.8578,-280.5233C596.5867,-274.2993 821.8035,-258.2686 845,-232 887.4084,-183.9749 798.3628,-124.268 750.6052,-97.137"/>
<polygon fill="#191970" stroke="#191970" points="752.0957,-93.9611 741.6554,-92.1583 748.6927,-100.0783 752.0957,-93.9611"/>
</g>
<!-- Node13 -->
<g id="node14" class="node">
<title>Node13</title>
<g id="a_node14"><a xlink:href="../../d2/d58/src_2lib_2systemlib_2mavlink__log_8h.html" target="_top" xlink:title="systemlib/mavlink_log.h">
<polygon fill="#ffffff" stroke="#000000" points="588,-207 588,-226 710,-226 710,-207 588,-207"/>
<text text-anchor="middle" x="649" y="-214" font-family="Helvetica,sans-Serif" font-size="10.00" fill="#000000">systemlib/mavlink_log.h</text>
</a>
</g>
</g>
<!-- Node0&#45;&gt;Node13 -->
<g id="edge17" class="edge">
<title>Node0&#45;&gt;Node13</title>
<path fill="none" stroke="#191970" d="M480.699,-268.4639C519.1912,-256.5792 572.2864,-240.1858 608.4801,-229.0108"/>
<polygon fill="#191970" stroke="#191970" points="609.6919,-232.2997 618.2142,-226.0053 607.6267,-225.6113 609.6919,-232.2997"/>
</g>
<!-- Node15 -->
<g id="node16" class="node">
<title>Node15</title>
<g id="a_node16"><a xlink:href="../../dc/de7/_publication_8hpp.html" target="_top" xlink:title="uORB/Publication.hpp">
<polygon fill="#ffffff" stroke="#000000" points="911.5,-207 911.5,-226 1024.5,-226 1024.5,-207 911.5,-207"/>
<text text-anchor="middle" x="968" y="-214" font-family="Helvetica,sans-Serif" font-size="10.00" fill="#000000">uORB/Publication.hpp</text>
</a>
</g>
</g>
<!-- Node0&#45;&gt;Node15 -->
<g id="edge20" class="edge">
<title>Node0&#45;&gt;Node15</title>
<path fill="none" stroke="#191970" d="M488.8056,-277.9622C573.6802,-269.4571 738.5474,-252.044 878,-232 886.9896,-230.7079 896.4622,-229.218 905.7516,-227.6835"/>
<polygon fill="#191970" stroke="#191970" points="906.4459,-231.116 915.7282,-226.0082 905.2866,-224.2127 906.4459,-231.116"/>
</g>
<!-- Node22 -->
<g id="node23" class="node">
<title>Node22</title>
<g id="a_node23"><a xlink:href="../../dc/d46/actuator__controls_8h.html" target="_top" xlink:title="uORB/topics/actuator\l_controls.h">
<polygon fill="#ffffff" stroke="#000000" points="271.5,-134.5 271.5,-164.5 382.5,-164.5 382.5,-134.5 271.5,-134.5"/>
<text text-anchor="start" x="279.5" y="-152.5" font-family="Helvetica,sans-Serif" font-size="10.00" fill="#000000">uORB/topics/actuator</text>
<text text-anchor="middle" x="327" y="-141.5" font-family="Helvetica,sans-Serif" font-size="10.00" fill="#000000">_controls.h</text>
</a>
</g>
</g>
<!-- Node0&#45;&gt;Node22 -->
<g id="edge28" class="edge">
<title>Node0&#45;&gt;Node22</title>
<path fill="none" stroke="#191970" d="M422.5348,-268.4289C411.7028,-251.5218 393.1134,-223.5179 375,-201 367.0604,-191.1297 357.6822,-180.8105 349.3315,-172.0235"/>
<polygon fill="#191970" stroke="#191970" points="351.7784,-169.5187 342.3196,-164.7459 346.7375,-174.3756 351.7784,-169.5187"/>
</g>
<!-- Node23 -->
<g id="node24" class="node">
<title>Node23</title>
<g id="a_node24"><a xlink:href="../../d9/d94/position__setpoint__triplet_8h.html" target="_top" xlink:title="uORB/topics/position\l_setpoint_triplet.h">
<polygon fill="#ffffff" stroke="#000000" points="460,-201.5 460,-231.5 570,-231.5 570,-201.5 460,-201.5"/>
<text text-anchor="start" x="468" y="-219.5" font-family="Helvetica,sans-Serif" font-size="10.00" fill="#000000">uORB/topics/position</text>
<text text-anchor="middle" x="515" y="-208.5" font-family="Helvetica,sans-Serif" font-size="10.00" fill="#000000">_setpoint_triplet.h</text>
</a>
</g>
</g>
<!-- Node0&#45;&gt;Node23 -->
<g id="edge31" class="edge">
<title>Node0&#45;&gt;Node23</title>
<path fill="none" stroke="#191970" d="M450.834,-268.2967C461.8705,-259.3876 475.9922,-247.9882 488.1765,-238.1527"/>
<polygon fill="#191970" stroke="#191970" points="490.6578,-240.6478 496.2405,-231.6432 486.2609,-235.201 490.6578,-240.6478"/>
</g>
<!-- Node25 -->
<g id="node26" class="node">
<title>Node25</title>
<g id="a_node26"><a xlink:href="../../d7/d94/vehicle__command_8h.html" target="_top" xlink:title="uORB/topics/vehicle\l_command.h">
<polygon fill="#ffffff" stroke="#000000" points="400.5,-134.5 400.5,-164.5 507.5,-164.5 507.5,-134.5 400.5,-134.5"/>
<text text-anchor="start" x="408.5" y="-152.5" font-family="Helvetica,sans-Serif" font-size="10.00" fill="#000000">uORB/topics/vehicle</text>
<text text-anchor="middle" x="454" y="-141.5" font-family="Helvetica,sans-Serif" font-size="10.00" fill="#000000">_command.h</text>
</a>
</g>
</g>
<!-- Node0&#45;&gt;Node25 -->
<g id="edge35" class="edge">
<title>Node0&#45;&gt;Node25</title>
<path fill="none" stroke="#191970" d="M434.4809,-268.389C438.211,-245.6691 445.3087,-202.438 449.8396,-174.8405"/>
<polygon fill="#191970" stroke="#191970" points="453.328,-175.1964 451.4944,-164.7614 446.4205,-174.0622 453.328,-175.1964"/>
</g>
<!-- Node26 -->
<g id="node27" class="node">
<title>Node26</title>
<g id="a_node27"><a xlink:href="../../d6/d55/vehicle__global__position_8h.html" target="_top" xlink:title="uORB/topics/vehicle\l_global_position.h">
<polygon fill="#ffffff" stroke="#000000" points="728.5,-201.5 728.5,-231.5 835.5,-231.5 835.5,-201.5 728.5,-201.5"/>
<text text-anchor="start" x="736.5" y="-219.5" font-family="Helvetica,sans-Serif" font-size="10.00" fill="#000000">uORB/topics/vehicle</text>
<text text-anchor="middle" x="782" y="-208.5" font-family="Helvetica,sans-Serif" font-size="10.00" fill="#000000">_global_position.h</text>
</a>
</g>
</g>
<!-- Node0&#45;&gt;Node26 -->
<g id="edge37" class="edge">
<title>Node0&#45;&gt;Node26</title>
<path fill="none" stroke="#191970" d="M488.5704,-274.4421C544.4516,-265.248 632.5629,-250.0925 718.5115,-232.0259"/>
<polygon fill="#191970" stroke="#191970" points="719.3791,-235.4198 728.4372,-229.9242 717.929,-228.5717 719.3791,-235.4198"/>
</g>
<!-- Node27 -->
<g id="node28" class="node">
<title>Node27</title>
<g id="a_node28"><a xlink:href="../../d0/d75/vtol__vehicle__status_8h.html" target="_top" xlink:title="uORB/topics/vtol_vehicle\l_status.h">
<polygon fill="#ffffff" stroke="#000000" points="238,-201.5 238,-231.5 366,-231.5 366,-201.5 238,-201.5"/>
<text text-anchor="start" x="246" y="-219.5" font-family="Helvetica,sans-Serif" font-size="10.00" fill="#000000">uORB/topics/vtol_vehicle</text>
<text text-anchor="middle" x="302" y="-208.5" font-family="Helvetica,sans-Serif" font-size="10.00" fill="#000000">_status.h</text>
</a>
</g>
</g>
<!-- Node0&#45;&gt;Node27 -->
<g id="edge39" class="edge">
<title>Node0&#45;&gt;Node27</title>
<path fill="none" stroke="#191970" d="M402.8255,-268.4639C384.4719,-259.0047 360.5765,-246.6894 340.655,-236.4222"/>
<polygon fill="#191970" stroke="#191970" points="342.0193,-233.1879 331.527,-231.7177 338.8124,-239.4101 342.0193,-233.1879"/>
</g>
<!-- Node3 -->
<g id="node4" class="node">
<title>Node3</title>
<polygon fill="#ffffff" stroke="#bfbfbf" points="223.5,-6 223.5,-25 272.5,-25 272.5,-6 223.5,-6"/>
<text text-anchor="middle" x="248" y="-13" font-family="Helvetica,sans-Serif" font-size="10.00" fill="#000000">stdint.h</text>
</g>
<!-- Node2&#45;&gt;Node3 -->
<g id="edge3" class="edge">
<title>Node2&#45;&gt;Node3</title>
<path fill="none" stroke="#191970" d="M124.1757,-206.9354C99.5254,-196.084 62.7298,-178.1855 55,-165 32.9723,-127.4252 28.4672,-101.5412 55,-67 74.1804,-42.0304 163.254,-26.5724 213.4184,-19.6954"/>
<polygon fill="#191970" stroke="#191970" points="214.0408,-23.1436 223.4932,-18.3578 213.1195,-16.2045 214.0408,-23.1436"/>
</g>
<!-- Node4 -->
<g id="node5" class="node">
<title>Node4</title>
<polygon fill="#ffffff" stroke="#bfbfbf" points="427,-6 427,-25 483,-25 483,-6 427,-6"/>
<text text-anchor="middle" x="455" y="-13" font-family="Helvetica,sans-Serif" font-size="10.00" fill="#000000">stdbool.h</text>
</g>
<!-- Node2&#45;&gt;Node4 -->
<g id="edge4" class="edge">
<title>Node2&#45;&gt;Node4</title>
<path fill="none" stroke="#191970" d="M131.0992,-206.8093C107.7536,-191.3541 68.9317,-160.1946 88,-134 127.5763,-79.6331 331.0012,-37.6262 416.7788,-22.0554"/>
<polygon fill="#191970" stroke="#191970" points="417.6515,-25.4549 426.8775,-20.2461 416.4169,-18.5646 417.6515,-25.4549"/>
</g>
<!-- Node2&#45;&gt;Node5 -->
<g id="edge5" class="edge">
<title>Node2&#45;&gt;Node5</title>
<path fill="none" stroke="#191970" d="M148.2895,-206.9005C149.5994,-197.149 151.6666,-181.7597 153.331,-169.3695"/>
<polygon fill="#191970" stroke="#191970" points="156.8503,-169.4586 154.7129,-159.0817 149.9127,-168.5266 156.8503,-169.4586"/>
</g>
<!-- Node6 -->
<g id="node7" class="node">
<title>Node6</title>
<g id="a_node7"><a xlink:href="../../db/dd6/u_o_r_b_8h.html" target="_top" xlink:title="API for the uORB lightweight object broker. ">
<polygon fill="#ffffff" stroke="#000000" points="454,-73 454,-92 536,-92 536,-73 454,-73"/>
<text text-anchor="middle" x="495" y="-80" font-family="Helvetica,sans-Serif" font-size="10.00" fill="#000000">uORB/uORB.h</text>
</a>
</g>
</g>
<!-- Node5&#45;&gt;Node6 -->
<g id="edge6" class="edge">
<title>Node5&#45;&gt;Node6</title>
<path fill="none" stroke="#191970" d="M200.3681,-139.9461C209.8123,-137.9498 219.731,-135.8812 229,-134 303.7049,-118.8385 390.4223,-102.2349 444.0074,-92.0907"/>
<polygon fill="#191970" stroke="#191970" points="444.7674,-95.5091 453.9429,-90.2119 443.4667,-88.6309 444.7674,-95.5091"/>
</g>
<!-- Node6&#45;&gt;Node3 -->
<g id="edge8" class="edge">
<title>Node6&#45;&gt;Node3</title>
<path fill="none" stroke="#191970" d="M459.8732,-72.9717C412.5974,-60.1479 329.0399,-37.4825 282.2288,-24.7847"/>
<polygon fill="#191970" stroke="#191970" points="283.1143,-21.3985 272.5468,-22.1584 281.2817,-28.1544 283.1143,-21.3985"/>
</g>
<!-- Node6&#45;&gt;Node4 -->
<g id="edge9" class="edge">
<title>Node6&#45;&gt;Node4</title>
<path fill="none" stroke="#191970" d="M489.269,-72.9005C483.2095,-62.751 473.5039,-46.4941 465.9659,-33.8679"/>
<polygon fill="#191970" stroke="#191970" points="468.8517,-31.8737 460.7204,-25.0817 462.8414,-35.462 468.8517,-31.8737"/>
</g>
<!-- Node7 -->
<g id="node8" class="node">
<title>Node7</title>
<polygon fill="#ffffff" stroke="#bfbfbf" points="501,-6 501,-25 569,-25 569,-6 501,-6"/>
<text text-anchor="middle" x="535" y="-13" font-family="Helvetica,sans-Serif" font-size="10.00" fill="#000000">sys/types.h</text>
</g>
<!-- Node6&#45;&gt;Node7 -->
<g id="edge7" class="edge">
<title>Node6&#45;&gt;Node7</title>
<path fill="none" stroke="#191970" d="M500.731,-72.9005C506.7905,-62.751 516.4961,-46.4941 524.0341,-33.8679"/>
<polygon fill="#191970" stroke="#191970" points="527.1586,-35.462 529.2796,-25.0817 521.1483,-31.8737 527.1586,-35.462"/>
</g>
<!-- Node8&#45;&gt;Node4 -->
<g id="edge13" class="edge">
<title>Node8&#45;&gt;Node4</title>
<path fill="none" stroke="#191970" d="M679.392,-75.1653C632.4884,-66.726 556.0181,-51.368 492,-31 489.8431,-30.3138 487.6375,-29.5519 485.4303,-28.7448"/>
<polygon fill="#191970" stroke="#191970" points="486.4778,-25.3962 475.89,-25.0098 483.9258,-31.9145 486.4778,-25.3962"/>
</g>
<!-- Node8&#45;&gt;Node7 -->
<g id="edge12" class="edge">
<title>Node8&#45;&gt;Node7</title>
<path fill="none" stroke="#191970" d="M696.0642,-72.9005C663.3967,-61.2584 608.1812,-41.5805 571.6575,-28.5641"/>
<polygon fill="#191970" stroke="#191970" points="572.4805,-25.1418 561.8858,-25.0817 570.1306,-31.7356 572.4805,-25.1418"/>
</g>
<!-- Node9 -->
<g id="node10" class="node">
<title>Node9</title>
<polygon fill="#ffffff" stroke="#bfbfbf" points="869,-6 869,-25 931,-25 931,-6 869,-6"/>
<text text-anchor="middle" x="900" y="-13" font-family="Helvetica,sans-Serif" font-size="10.00" fill="#000000">sys/ioctl.h</text>
</g>
<!-- Node8&#45;&gt;Node9 -->
<g id="edge11" class="edge">
<title>Node8&#45;&gt;Node9</title>
<path fill="none" stroke="#191970" d="M748.5313,-72.9904C776.0686,-62.7131 821.1864,-45.815 860,-31 861.8787,-30.2829 863.806,-29.5447 865.7508,-28.7977"/>
<polygon fill="#191970" stroke="#191970" points="867.4051,-31.9111 875.4765,-25.0479 864.8869,-25.3798 867.4051,-31.9111"/>
</g>
<!-- Node10 -->
<g id="node11" class="node">
<title>Node10</title>
<polygon fill="#ffffff" stroke="#bfbfbf" points="587.5,-6 587.5,-25 646.5,-25 646.5,-6 587.5,-6"/>
<text text-anchor="middle" x="617" y="-13" font-family="Helvetica,sans-Serif" font-size="10.00" fill="#000000">inttypes.h</text>
</g>
<!-- Node8&#45;&gt;Node10 -->
<g id="edge14" class="edge">
<title>Node8&#45;&gt;Node10</title>
<path fill="none" stroke="#191970" d="M707.8128,-72.9005C690.2597,-61.8057 661.1606,-43.4128 640.6402,-30.4424"/>
<polygon fill="#191970" stroke="#191970" points="642.4821,-27.4661 632.159,-25.0817 638.742,-33.3832 642.4821,-27.4661"/>
</g>
<!-- Node11 -->
<g id="node12" class="node">
<title>Node11</title>
<polygon fill="#ffffff" stroke="#bfbfbf" points="665,-.5 665,-30.5 781,-30.5 781,-.5 665,-.5"/>
<text text-anchor="start" x="673" y="-18.5" font-family="Helvetica,sans-Serif" font-size="10.00" fill="#000000">px4_platform_common</text>
<text text-anchor="middle" x="723" y="-7.5" font-family="Helvetica,sans-Serif" font-size="10.00" fill="#000000">/time.h</text>
</g>
<!-- Node8&#45;&gt;Node11 -->
<g id="edge15" class="edge">
<title>Node8&#45;&gt;Node11</title>
<path fill="none" stroke="#191970" d="M723,-72.9005C723,-64.5099 723,-51.9451 723,-40.7085"/>
<polygon fill="#191970" stroke="#191970" points="726.5001,-40.5217 723,-30.5218 719.5001,-40.5218 726.5001,-40.5217"/>
</g>
<!-- Node12 -->
<g id="node13" class="node">
<title>Node12</title>
<polygon fill="#ffffff" stroke="#bfbfbf" points="799.5,-6 799.5,-25 850.5,-25 850.5,-6 799.5,-6"/>
<text text-anchor="middle" x="825" y="-13" font-family="Helvetica,sans-Serif" font-size="10.00" fill="#000000">queue.h</text>
</g>
<!-- Node8&#45;&gt;Node12 -->
<g id="edge16" class="edge">
<title>Node8&#45;&gt;Node12</title>
<path fill="none" stroke="#191970" d="M737.6141,-72.9005C754.429,-61.8554 782.2549,-43.5776 801.9858,-30.6172"/>
<polygon fill="#191970" stroke="#191970" points="803.9764,-33.4972 810.413,-25.0817 800.1333,-27.6465 803.9764,-33.4972"/>
</g>
<!-- Node13&#45;&gt;Node6 -->
<g id="edge19" class="edge">
<title>Node13&#45;&gt;Node6</title>
<path fill="none" stroke="#191970" d="M682.9009,-206.9711C724.9677,-193.4862 788.0483,-166.7874 761,-134 734.3433,-101.6873 616.0235,-89.4083 546.4892,-84.9276"/>
<polygon fill="#191970" stroke="#191970" points="546.3803,-81.4145 536.1853,-84.2976 545.953,-88.4015 546.3803,-81.4145"/>
</g>
<!-- Node14 -->
<g id="node15" class="node">
<title>Node14</title>
<polygon fill="#ffffff" stroke="#bfbfbf" points="692.5,-140 692.5,-159 751.5,-159 751.5,-140 692.5,-140"/>
<text text-anchor="middle" x="722" y="-147" font-family="Helvetica,sans-Serif" font-size="10.00" fill="#000000">px4_log.h</text>
</g>
<!-- Node13&#45;&gt;Node14 -->
<g id="edge18" class="edge">
<title>Node13&#45;&gt;Node14</title>
<path fill="none" stroke="#191970" d="M659.4591,-206.9005C671.0597,-196.2535 689.9829,-178.8856 703.9805,-166.0385"/>
<polygon fill="#191970" stroke="#191970" points="706.5596,-168.4221 711.5603,-159.0817 701.8263,-163.2649 706.5596,-168.4221"/>
</g>
<!-- Node15&#45;&gt;Node6 -->
<g id="edge27" class="edge">
<title>Node15&#45;&gt;Node6</title>
<path fill="none" stroke="#191970" d="M952.1247,-206.9503C922.6425,-189.6529 856.9716,-153.1583 797,-134 711.5088,-106.6893 607.5117,-93.0068 546.5468,-86.8523"/>
<polygon fill="#191970" stroke="#191970" points="546.7038,-83.351 536.41,-85.8586 546.0208,-90.3176 546.7038,-83.351"/>
</g>
<!-- Node16 -->
<g id="node17" class="node">
<title>Node16</title>
<polygon fill="#ffffff" stroke="#bfbfbf" points="930,-134.5 930,-164.5 1046,-164.5 1046,-134.5 930,-134.5"/>
<text text-anchor="start" x="938" y="-152.5" font-family="Helvetica,sans-Serif" font-size="10.00" fill="#000000">px4_platform_common</text>
<text text-anchor="middle" x="988" y="-141.5" font-family="Helvetica,sans-Serif" font-size="10.00" fill="#000000">/defines.h</text>
</g>
<!-- Node15&#45;&gt;Node16 -->
<g id="edge21" class="edge">
<title>Node15&#45;&gt;Node16</title>
<path fill="none" stroke="#191970" d="M970.8655,-206.9005C973.396,-198.4234 977.1983,-185.6856 980.5787,-174.3614"/>
<polygon fill="#191970" stroke="#191970" points="984.0092,-175.1051 983.5159,-164.5218 977.3017,-173.1028 984.0092,-175.1051"/>
</g>
<!-- Node17 -->
<g id="node18" class="node">
<title>Node17</title>
<g id="a_node18"><a xlink:href="../../d6/d40/err_8h.html" target="_top" xlink:title="Simple error/warning functions, heavily inspired by the BSD functions of the same names...">
<polygon fill="#ffffff" stroke="#000000" points="1064.5,-140 1064.5,-159 1145.5,-159 1145.5,-140 1064.5,-140"/>
<text text-anchor="middle" x="1105" y="-147" font-family="Helvetica,sans-Serif" font-size="10.00" fill="#000000">systemlib/err.h</text>
</a>
</g>
</g>
<!-- Node15&#45;&gt;Node17 -->
<g id="edge22" class="edge">
<title>Node15&#45;&gt;Node17</title>
<path fill="none" stroke="#191970" d="M987.6288,-206.9005C1010.8239,-195.5569 1049.6185,-176.5844 1076.2131,-163.5783"/>
<polygon fill="#191970" stroke="#191970" points="1077.962,-166.6191 1085.4077,-159.0817 1074.8867,-160.3308 1077.962,-166.6191"/>
</g>
<!-- Node18 -->
<g id="node19" class="node">
<title>Node18</title>
<polygon fill="#ffffff" stroke="#bfbfbf" points="911,-67.5 911,-97.5 1027,-97.5 1027,-67.5 911,-67.5"/>
<text text-anchor="start" x="919" y="-85.5" font-family="Helvetica,sans-Serif" font-size="10.00" fill="#000000">px4_platform_common</text>
<text text-anchor="middle" x="969" y="-74.5" font-family="Helvetica,sans-Serif" font-size="10.00" fill="#000000">/log.h</text>
</g>
<!-- Node17&#45;&gt;Node18 -->
<g id="edge23" class="edge">
<title>Node17&#45;&gt;Node18</title>
<path fill="none" stroke="#191970" d="M1085.5145,-139.9005C1065.4977,-130.0393 1033.7782,-114.4128 1008.4858,-101.9526"/>
<polygon fill="#191970" stroke="#191970" points="1010.0092,-98.8014 999.4919,-97.5218 1006.9157,-105.0808 1010.0092,-98.8014"/>
</g>
<!-- Node19 -->
<g id="node20" class="node">
<title>Node19</title>
<polygon fill="#ffffff" stroke="#bfbfbf" points="1045,-73 1045,-92 1097,-92 1097,-73 1045,-73"/>
<text text-anchor="middle" x="1071" y="-80" font-family="Helvetica,sans-Serif" font-size="10.00" fill="#000000">stdarg.h</text>
</g>
<!-- Node17&#45;&gt;Node19 -->
<g id="edge24" class="edge">
<title>Node17&#45;&gt;Node19</title>
<path fill="none" stroke="#191970" d="M1100.1286,-139.9005C1095.0286,-129.8505 1086.8898,-113.8122 1080.51,-101.2403"/>
<polygon fill="#191970" stroke="#191970" points="1083.5088,-99.4153 1075.8623,-92.0817 1077.2666,-102.583 1083.5088,-99.4153"/>
</g>
<!-- Node20 -->
<g id="node21" class="node">
<title>Node20</title>
<polygon fill="#ffffff" stroke="#bfbfbf" points="1115.5,-73 1115.5,-92 1162.5,-92 1162.5,-73 1115.5,-73"/>
<text text-anchor="middle" x="1139" y="-80" font-family="Helvetica,sans-Serif" font-size="10.00" fill="#000000">errno.h</text>
</g>
<!-- Node17&#45;&gt;Node20 -->
<g id="edge25" class="edge">
<title>Node17&#45;&gt;Node20</title>
<path fill="none" stroke="#191970" d="M1109.8714,-139.9005C1114.9714,-129.8505 1123.1102,-113.8122 1129.49,-101.2403"/>
<polygon fill="#191970" stroke="#191970" points="1132.7334,-102.583 1134.1377,-92.0817 1126.4912,-99.4153 1132.7334,-102.583"/>
</g>
<!-- Node21 -->
<g id="node22" class="node">
<title>Node21</title>
<polygon fill="#ffffff" stroke="#bfbfbf" points="1181,-73 1181,-92 1229,-92 1229,-73 1181,-73"/>
<text text-anchor="middle" x="1205" y="-80" font-family="Helvetica,sans-Serif" font-size="10.00" fill="#000000">stdlib.h</text>
</g>
<!-- Node17&#45;&gt;Node21 -->
<g id="edge26" class="edge">
<title>Node17&#45;&gt;Node21</title>
<path fill="none" stroke="#191970" d="M1119.3276,-139.9005C1135.7385,-128.9052 1162.8475,-110.7422 1182.1751,-97.7927"/>
<polygon fill="#191970" stroke="#191970" points="1184.3395,-100.5556 1190.699,-92.0817 1180.4431,-94.7402 1184.3395,-100.5556"/>
</g>
<!-- Node22&#45;&gt;Node6 -->
<g id="edge29" class="edge">
<title>Node22&#45;&gt;Node6</title>
<path fill="none" stroke="#191970" d="M364.7025,-134.4639C393.7795,-122.8677 433.62,-106.9789 461.5666,-95.8335"/>
<polygon fill="#191970" stroke="#191970" points="462.9265,-99.0594 470.9185,-92.1039 460.3334,-92.5574 462.9265,-99.0594"/>
</g>
<!-- Node23&#45;&gt;Node6 -->
<g id="edge32" class="edge">
<title>Node23&#45;&gt;Node6</title>
<path fill="none" stroke="#191970" d="M517.3751,-201.4168C519.5387,-184.7373 521.7396,-157.1598 517,-134 514.6852,-122.6888 509.7841,-110.79 505.1942,-101.2826"/>
<polygon fill="#191970" stroke="#191970" points="508.3072,-99.6827 500.6452,-92.3654 502.0718,-102.8638 508.3072,-99.6827"/>
</g>
<!-- Node24 -->
<g id="node25" class="node">
<title>Node24</title>
<g id="a_node25"><a xlink:href="../../d4/d82/position__setpoint_8h.html" target="_top" xlink:title="uORB/topics/position\l_setpoint.h">
<polygon fill="#ffffff" stroke="#000000" points="564,-134.5 564,-164.5 674,-164.5 674,-134.5 564,-134.5"/>
<text text-anchor="start" x="572" y="-152.5" font-family="Helvetica,sans-Serif" font-size="10.00" fill="#000000">uORB/topics/position</text>
<text text-anchor="middle" x="619" y="-141.5" font-family="Helvetica,sans-Serif" font-size="10.00" fill="#000000">_setpoint.h</text>
</a>
</g>
</g>
<!-- Node23&#45;&gt;Node24 -->
<g id="edge33" class="edge">
<title>Node23&#45;&gt;Node24</title>
<path fill="none" stroke="#191970" d="M538.3396,-201.4639C552.5574,-192.3044 570.9323,-180.4667 586.5522,-170.4038"/>
<polygon fill="#191970" stroke="#191970" points="588.8674,-173.0758 595.3784,-164.7177 585.0764,-167.1912 588.8674,-173.0758"/>
</g>
<!-- Node24&#45;&gt;Node6 -->
<g id="edge34" class="edge">
<title>Node24&#45;&gt;Node6</title>
<path fill="none" stroke="#191970" d="M591.172,-134.4639C570.3664,-123.2222 542.0946,-107.9463 521.5927,-96.8686"/>
<polygon fill="#191970" stroke="#191970" points="523.2361,-93.7784 512.7744,-92.1039 519.9085,-99.9369 523.2361,-93.7784"/>
</g>
<!-- Node25&#45;&gt;Node6 -->
<g id="edge36" class="edge">
<title>Node25&#45;&gt;Node6</title>
<path fill="none" stroke="#191970" d="M463.3035,-134.2967C469.3814,-124.3645 477.3534,-111.3371 483.7819,-100.8321"/>
<polygon fill="#191970" stroke="#191970" points="486.9186,-102.4115 489.1529,-92.055 480.9478,-98.7578 486.9186,-102.4115"/>
</g>
<!-- Node26&#45;&gt;Node6 -->
<g id="edge38" class="edge">
<title>Node26&#45;&gt;Node6</title>
<path fill="none" stroke="#191970" d="M786.3151,-201.3533C790.5171,-183.0561 794.1617,-152.4412 778,-134 762.8799,-116.7473 623.6642,-97.7289 546.2878,-88.3682"/>
<polygon fill="#191970" stroke="#191970" points="546.6017,-84.8808 536.2564,-87.1668 545.7693,-91.8312 546.6017,-84.8808"/>
</g>
<!-- Node27&#45;&gt;Node6 -->
<g id="edge40" class="edge">
<title>Node27&#45;&gt;Node6</title>
<path fill="none" stroke="#191970" d="M285.4385,-201.3156C268.3445,-183.8019 246.3435,-154.7594 263,-134 285.2113,-106.3175 382.3536,-92.5829 443.679,-86.5517"/>
<polygon fill="#191970" stroke="#191970" points="444.3152,-90.0073 453.9412,-85.5811 443.656,-83.0384 444.3152,-90.0073"/>
</g>
</g>
</svg>
        <g id="navigator" transform="translate(0 0)" fill="#404254">
                <rect fill="#f2f5e9" fill-opacity="0.5" stroke="#606060" stroke-width=".5" x="0" y="0" width="60" height="60"/>
                <use id="zoomplus" xlink:href="#zoomPlus" x="17" y="9" onmousedown="handleZoom(evt,'in')"/>
                <use id="zoomminus" xlink:href="#zoomMin" x="42" y="9" onmousedown="handleZoom(evt,'out')"/>
                <use id="reset" xlink:href="#resetDef" x="30" y="36" onmousedown="handleReset()"/>
                <g id="arrowUp" xlink:href="#dirArrow" transform="translate(30 24)" onmousedown="handlePan(0,-1)">
                  <use xlink:href="#rim" fill="#404040">
                        <set attributeName="fill" to="#808080" begin="arrowUp.mouseover" end="arrowUp.mouseout"/>
                  </use>
                  <path fill="none" stroke="white" stroke-width="1.5" d="M0,-3.0v7 M-2.5,-0.5L0,-3.0L2.5,-0.5"/>
                </g>
                <g id="arrowRight" xlink:href="#dirArrow" transform="rotate(90) translate(36 -43)" onmousedown="handlePan(1,0)">
                  <use xlink:href="#rim" fill="#404040">
                        <set attributeName="fill" to="#808080" begin="arrowRight.mouseover" end="arrowRight.mouseout"/>
                  </use>
                  <path fill="none" stroke="white" stroke-width="1.5" d="M0,-3.0v7 M-2.5,-0.5L0,-3.0L2.5,-0.5"/>
                </g>
                <g id="arrowDown" xlink:href="#dirArrow" transform="rotate(180) translate(-30 -48)" onmousedown="handlePan(0,1)">
                  <use xlink:href="#rim" fill="#404040">
                        <set attributeName="fill" to="#808080" begin="arrowDown.mouseover" end="arrowDown.mouseout"/>
                  </use>
                  <path fill="none" stroke="white" stroke-width="1.5" d="M0,-3.0v7 M-2.5,-0.5L0,-3.0L2.5,-0.5"/>
                </g>
                <g id="arrowLeft" xlink:href="#dirArrow" transform="rotate(270) translate(-36 17)" onmousedown="handlePan(-1,0)">
                  <use xlink:href="#rim" fill="#404040">
                        <set attributeName="fill" to="#808080" begin="arrowLeft.mouseover" end="arrowLeft.mouseout"/>
                  </use>
                  <path fill="none" stroke="white" stroke-width="1.5" d="M0,-3.0v7 M-2.5,-0.5L0,-3.0L2.5,-0.5"/>
                </g>
        </g>
        <svg viewBox="0 0 15 15" width="100%" height="30px" preserveAspectRatio="xMaxYMin meet">
         <g id="arrow_out" transform="scale(0.3 0.3)">
          <a xlink:href="mission__block_8h__incl_org.svg" target="_base">
           <rect id="button" ry="5" rx="5" y="6" x="6" height="38" width="38"
                fill="#f2f5e9" fill-opacity="0.5" stroke="#606060" stroke-width="1.0"/>
           <path id="arrow"
             d="M 11.500037,31.436501 C 11.940474,20.09759 22.043105,11.32322 32.158766,21.979434 L 37.068811,17.246167 C 37.068811,17.246167 37.088388,32 37.088388,32 L 22.160133,31.978069 C 22.160133,31.978069 26.997745,27.140456 26.997745,27.140456 C 18.528582,18.264221 13.291696,25.230495 11.500037,31.436501 z"
             style="fill:#404040;"/>
          </a>
         </g>
        </svg>
</svg>
