<?xml version="1.0" encoding="UTF-8" standalone="no"?>
<!DOCTYPE svg PUBLIC "-//W3C//DTD SVG 1.1//EN"
 "http://www.w3.org/Graphics/SVG/1.1/DTD/svg11.dtd">
<!-- Generated by graphviz version 2.38.0 (20140413.2041)
 -->
<!-- Title: Sensors::Sensors Pages: 1 -->
<svg width="359pt" height="137pt"
 viewBox="0.00 0.00 359.00 137.00" xmlns="http://www.w3.org/2000/svg" xmlns:xlink="http://www.w3.org/1999/xlink">
<g id="graph0" class="graph" transform="scale(1 1) rotate(0) translate(4 133)">
<title>Sensors::Sensors</title>
<polygon fill="white" stroke="none" points="-4,4 -4,-133 355,-133 355,4 -4,4"/>
<!-- Node1 -->
<g id="node1" class="node"><title>Node1</title>
<polygon fill="#bfbfbf" stroke="black" points="0,-55 0,-74 95,-74 95,-55 0,-55"/>
<text text-anchor="middle" x="47.5" y="-62" font-family="Helvetica,sans-Serif" font-size="10.00">Sensors::Sensors</text>
</g>
<!-- Node2 -->
<g id="node2" class="node"><title>Node2</title>
<g id="a_node2"><a xlink:href="../../db/d02/namespacesensors.html#a472d25b28bd7183eb2f9eede25c9bfbd" target="_top" xlink:title="initialize ParameterHandles struct ">
<polygon fill="white" stroke="black" points="138.5,-98.5 138.5,-128.5 242.5,-128.5 242.5,-98.5 138.5,-98.5"/>
<text text-anchor="start" x="146.5" y="-116.5" font-family="Helvetica,sans-Serif" font-size="10.00">sensors::initialize</text>
<text text-anchor="middle" x="190.5" y="-105.5" font-family="Helvetica,sans-Serif" font-size="10.00">_parameter_handles</text>
</a>
</g>
</g>
<!-- Node1&#45;&gt;Node2 -->
<g id="edge1" class="edge"><title>Node1&#45;&gt;Node2</title>
<path fill="none" stroke="midnightblue" d="M76.0209,-74.064C93.2484,-80.0509 116.013,-87.9618 136.628,-95.126"/>
<polygon fill="midnightblue" stroke="midnightblue" points="135.636,-98.4864 146.23,-98.463 137.933,-91.8743 135.636,-98.4864"/>
</g>
<!-- Node4 -->
<g id="node4" class="node"><title>Node4</title>
<g id="a_node4"><a xlink:href="../../d5/d70/class_data_validator.html#a4dcd9549ed499f1f761ae25c7dc52bff" target="_top" xlink:title="Set the equal count threshold. ">
<polygon fill="white" stroke="black" points="131,-49.5 131,-79.5 250,-79.5 250,-49.5 131,-49.5"/>
<text text-anchor="start" x="139" y="-67.5" font-family="Helvetica,sans-Serif" font-size="10.00">DataValidator::set</text>
<text text-anchor="middle" x="190.5" y="-56.5" font-family="Helvetica,sans-Serif" font-size="10.00">_equal_value_threshold</text>
</a>
</g>
</g>
<!-- Node1&#45;&gt;Node4 -->
<g id="edge3" class="edge"><title>Node1&#45;&gt;Node4</title>
<path fill="none" stroke="midnightblue" d="M95.0594,-64.5C103.304,-64.5 112.044,-64.5 120.749,-64.5"/>
<polygon fill="midnightblue" stroke="midnightblue" points="120.92,-68.0001 130.919,-64.5 120.919,-61.0001 120.92,-68.0001"/>
</g>
<!-- Node5 -->
<g id="node5" class="node"><title>Node5</title>
<g id="a_node5"><a xlink:href="../../d5/d70/class_data_validator.html#a821a6f90f44be11be21a5afb1c69c1c1" target="_top" xlink:title="Set the timeout value. ">
<polygon fill="white" stroke="black" points="143,-0.5 143,-30.5 238,-30.5 238,-0.5 143,-0.5"/>
<text text-anchor="start" x="151" y="-18.5" font-family="Helvetica,sans-Serif" font-size="10.00">DataValidator::set</text>
<text text-anchor="middle" x="190.5" y="-7.5" font-family="Helvetica,sans-Serif" font-size="10.00">_timeout</text>
</a>
</g>
</g>
<!-- Node1&#45;&gt;Node5 -->
<g id="edge4" class="edge"><title>Node1&#45;&gt;Node5</title>
<path fill="none" stroke="midnightblue" d="M76.0209,-54.936C93.2484,-48.9491 116.013,-41.0382 136.628,-33.874"/>
<polygon fill="midnightblue" stroke="midnightblue" points="137.933,-37.1257 146.23,-30.537 135.636,-30.5136 137.933,-37.1257"/>
</g>
<!-- Node3 -->
<g id="node3" class="node"><title>Node3</title>
<g id="a_node3"><a xlink:href="../../d9/da5/param_8c.html#ac0eb17a3cb026fd36cc681b5ef762531" target="_top" xlink:title="Look up a parameter by name. ">
<polygon fill="white" stroke="black" points="286,-104 286,-123 351,-123 351,-104 286,-104"/>
<text text-anchor="middle" x="318.5" y="-111" font-family="Helvetica,sans-Serif" font-size="10.00">param_find</text>
</a>
</g>
</g>
<!-- Node2&#45;&gt;Node3 -->
<g id="edge2" class="edge"><title>Node2&#45;&gt;Node3</title>
<path fill="none" stroke="midnightblue" d="M242.749,-113.5C253.684,-113.5 265.109,-113.5 275.642,-113.5"/>
<polygon fill="midnightblue" stroke="midnightblue" points="275.827,-117 285.827,-113.5 275.827,-110 275.827,-117"/>
</g>
</g>
</svg>
