<?xml version="1.0" encoding="UTF-8" standalone="no"?>
<!DOCTYPE svg PUBLIC "-//W3C//DTD SVG 1.1//EN"
 "http://www.w3.org/Graphics/SVG/1.1/DTD/svg11.dtd">
<!-- Generated by graphviz version 2.38.0 (20140413.2041)
 -->
<!-- Title: Geofence::getGeofenceAction Pages: 1 -->
<svg width="329pt" height="66pt"
 viewBox="0.00 0.00 329.00 66.00" xmlns="http://www.w3.org/2000/svg" xmlns:xlink="http://www.w3.org/1999/xlink">
<g id="graph0" class="graph" transform="scale(1 1) rotate(0) translate(4 62)">
<title>Geofence::getGeofenceAction</title>
<polygon fill="white" stroke="none" points="-4,4 -4,-62 325,-62 325,4 -4,4"/>
<!-- Node1 -->
<g id="node1" class="node"><title>Node1</title>
<polygon fill="#bfbfbf" stroke="black" points="0,-38.5 0,-57.5 148,-57.5 148,-38.5 0,-38.5"/>
<text text-anchor="middle" x="74" y="-45.5" font-family="Helvetica,sans-Serif" font-size="10.00">Geofence::getGeofenceAction</text>
</g>
<!-- Node2 -->
<g id="node2" class="node"><title>Node2</title>
<g id="a_node2"><a xlink:href="../../d7/dbe/class_geofence.html#a4320f677f09ba52177dfb86e09875bfe" target="_top" xlink:title="Geofence::isHomeRequired">
<polygon fill="white" stroke="black" points="184,-38.5 184,-57.5 321,-57.5 321,-38.5 184,-38.5"/>
<text text-anchor="middle" x="252.5" y="-45.5" font-family="Helvetica,sans-Serif" font-size="10.00">Geofence::isHomeRequired</text>
</a>
</g>
</g>
<!-- Node1&#45;&gt;Node2 -->
<g id="edge1" class="edge"><title>Node1&#45;&gt;Node2</title>
<path fill="none" stroke="midnightblue" d="M148.063,-41.3396C156.491,-41.2393 165.11,-41.2232 173.598,-41.2914"/>
<polygon fill="midnightblue" stroke="midnightblue" points="173.825,-44.7943 183.867,-41.4165 173.911,-37.7949 173.825,-44.7943"/>
</g>
<!-- Node3 -->
<g id="node3" class="node"><title>Node3</title>
<g id="a_node3"><a xlink:href="../../d7/dbe/class_geofence.html#ad1154e56e295e9920d2b8707ba0e0883" target="_top" xlink:title="print Geofence status to the console ">
<polygon fill="white" stroke="black" points="196.5,-0.5 196.5,-19.5 308.5,-19.5 308.5,-0.5 196.5,-0.5"/>
<text text-anchor="middle" x="252.5" y="-7.5" font-family="Helvetica,sans-Serif" font-size="10.00">Geofence::printStatus</text>
</a>
</g>
</g>
<!-- Node1&#45;&gt;Node3 -->
<g id="edge3" class="edge"><title>Node1&#45;&gt;Node3</title>
<path fill="none" stroke="midnightblue" d="M119.538,-38.411C143.144,-33.3287 172.332,-27.0446 197.251,-21.6797"/>
<polygon fill="midnightblue" stroke="midnightblue" points="198.243,-25.0465 207.282,-19.5201 196.769,-18.2033 198.243,-25.0465"/>
</g>
<!-- Node2&#45;&gt;Node1 -->
<g id="edge2" class="edge"><title>Node2&#45;&gt;Node1</title>
<path fill="none" stroke="midnightblue" d="M183.867,-54.5835C175.445,-54.7218 166.758,-54.774 158.135,-54.7399"/>
<polygon fill="midnightblue" stroke="midnightblue" points="158.091,-51.2396 148.063,-54.6604 158.035,-58.2393 158.091,-51.2396"/>
</g>
</g>
</svg>
