<?xml version="1.0" encoding="UTF-8" standalone="no"?>
<!DOCTYPE svg PUBLIC "-//W3C//DTD SVG 1.1//EN"
 "http://www.w3.org/Graphics/SVG/1.1/DTD/svg11.dtd">
<!-- Generated by graphviz version 2.40.1 (20161225.0304)
 -->
<!-- Title: Geofence::insidePolygon Pages: 1 -->
<!--zoomable 214 -->
<svg id="main" version="1.1" xmlns="http://www.w3.org/2000/svg" xmlns:xlink="http://www.w3.org/1999/xlink" xml:space="preserve" onload="init(evt)">
<style type="text/css"><![CDATA[
.edge:hover path { stroke: red; }
.edge:hover polygon { stroke: red; fill: red; }
]]></style>
<script type="text/javascript"><![CDATA[
var edges = document.getElementsByTagName('g');
if (edges && edges.length) {
  for (var i=0;i<edges.length;i++) {
    if (edges[i].id.substr(0,4)=='edge') {
      edges[i].setAttribute('class','edge');
    }
  }
}
]]></script>
        <defs>
                <circle id="rim" cx="0" cy="0" r="7"/>
                <circle id="rim2" cx="0" cy="0" r="3.5"/>
                <g id="zoomPlus">
                        <use xlink:href="#rim" fill="#404040">
                                <set attributeName="fill" to="#808080" begin="zoomplus.mouseover" end="zoomplus.mouseout"/>
                        </use>
                        <path d="M-4,0h8M0,-4v8" fill="none" stroke="white" stroke-width="1.5" pointer-events="none"/>
                </g>
                <g id="zoomMin">
                        <use xlink:href="#rim" fill="#404040">
                                <set attributeName="fill" to="#808080" begin="zoomminus.mouseover" end="zoomminus.mouseout"/>
                        </use>
                        <path d="M-4,0h8" fill="none" stroke="white" stroke-width="1.5" pointer-events="none"/>
                </g>
                <g id="dirArrow">
                        <path fill="none" stroke="white" stroke-width="1.5" d="M0,-3.0v7 M-2.5,-0.5L0,-3.0L2.5,-0.5"/>
                </g>
               <g id="resetDef">
                       <use xlink:href="#rim2" fill="#404040">
                               <set attributeName="fill" to="#808080" begin="reset.mouseover" end="reset.mouseout"/>
                       </use>
               </g>
        </defs>

<script type="text/javascript">
var viewWidth = 632;
var viewHeight = 214;
var sectionId = 'dynsection-20';
</script>
<script xlink:href="../../svgpan.js"/>
<svg id="graph" class="graph">
<g id="viewport">
<title>Geofence::insidePolygon</title>
<polygon fill="#ffffff" stroke="transparent" points="-4,4 -4,-210 628,-210 628,4 -4,4"/>
<!-- Node527 -->
<g id="node1" class="node">
<title>Node527</title>
<polygon fill="#bfbfbf" stroke="#000000" points="0,-76.5 0,-95.5 125,-95.5 125,-76.5 0,-76.5"/>
<text text-anchor="middle" x="62.5" y="-83.5" font-family="Helvetica,sans-Serif" font-size="10.00" fill="#000000">Geofence::insidePolygon</text>
</g>
<!-- Node528 -->
<g id="node2" class="node">
<title>Node528</title>
<g id="a_node2"><a xlink:href="../../d6/d47/dataman_8cpp.html#a3e79510848c9ee7d821d33a35f6779f3" target="_top" xlink:title="Retrieve from the data manager file. ">
<polygon fill="#ffffff" stroke="#000000" points="161,-76.5 161,-95.5 215,-95.5 215,-76.5 161,-76.5"/>
<text text-anchor="middle" x="188" y="-83.5" font-family="Helvetica,sans-Serif" font-size="10.00" fill="#000000">dm_read</text>
</a>
</g>
</g>
<!-- Node527&#45;&gt;Node528 -->
<g id="edge1" class="edge">
<title>Node527&#45;&gt;Node528</title>
<path fill="none" stroke="#191970" d="M125.25,-86C133.9421,-86 142.6342,-86 150.6591,-86"/>
<polygon fill="#191970" stroke="#191970" points="150.7684,-89.5001 160.7684,-86 150.7683,-82.5001 150.7684,-89.5001"/>
</g>
<!-- Node529 -->
<g id="node3" class="node">
<title>Node529</title>
<g id="a_node3"><a xlink:href="../../d6/d47/dataman_8cpp.html#a180c89691e7ec914149e2099205bc5a2" target="_top" xlink:title="create_work_item">
<polygon fill="#ffffff" stroke="#000000" points="414.5,-186.5 414.5,-205.5 508.5,-205.5 508.5,-186.5 414.5,-186.5"/>
<text text-anchor="middle" x="461.5" y="-193.5" font-family="Helvetica,sans-Serif" font-size="10.00" fill="#000000">create_work_item</text>
</a>
</g>
</g>
<!-- Node528&#45;&gt;Node529 -->
<g id="edge2" class="edge">
<title>Node528&#45;&gt;Node529</title>
<path fill="none" stroke="#191970" d="M193.971,-95.8364C203.8147,-111.1351 224.9743,-140.3878 251,-155 298.2866,-181.5492 359.9072,-191.1598 404.2433,-194.5123"/>
<polygon fill="#191970" stroke="#191970" points="404.0621,-198.0079 414.2744,-195.1868 404.5318,-191.0237 404.0621,-198.0079"/>
</g>
<!-- Node532 -->
<g id="node6" class="node">
<title>Node532</title>
<g id="a_node6"><a xlink:href="../../d6/d47/dataman_8cpp.html#a4e6d1f41693c6130e44997501a003099" target="_top" xlink:title="enqueue_work_item_and\l_wait_for_result">
<polygon fill="#ffffff" stroke="#000000" points="251,-115 251,-145 376,-145 376,-115 251,-115"/>
<text text-anchor="start" x="259" y="-133" font-family="Helvetica,sans-Serif" font-size="10.00" fill="#000000">enqueue_work_item_and</text>
<text text-anchor="middle" x="313.5" y="-122" font-family="Helvetica,sans-Serif" font-size="10.00" fill="#000000">_wait_for_result</text>
</a>
</g>
</g>
<!-- Node528&#45;&gt;Node532 -->
<g id="edge5" class="edge">
<title>Node528&#45;&gt;Node532</title>
<path fill="none" stroke="#191970" d="M215.2316,-95.5473C228.6045,-100.2358 245.1864,-106.0494 260.8967,-111.5574"/>
<polygon fill="#191970" stroke="#191970" points="259.9346,-114.9289 270.5295,-114.9346 262.2507,-108.3232 259.9346,-114.9289"/>
</g>
<!-- Node534 -->
<g id="node8" class="node">
<title>Node534</title>
<g id="a_node8"><a xlink:href="../../d6/d47/dataman_8cpp.html#a5e50c5261793c6661dca9b5179f19012" target="_top" xlink:title="is_running">
<polygon fill="#ffffff" stroke="#000000" points="283,-76.5 283,-95.5 344,-95.5 344,-76.5 283,-76.5"/>
<text text-anchor="middle" x="313.5" y="-83.5" font-family="Helvetica,sans-Serif" font-size="10.00" fill="#000000">is_running</text>
</a>
</g>
</g>
<!-- Node528&#45;&gt;Node534 -->
<g id="edge11" class="edge">
<title>Node528&#45;&gt;Node534</title>
<path fill="none" stroke="#191970" d="M215.2316,-86C232.0198,-86 253.8655,-86 272.695,-86"/>
<polygon fill="#191970" stroke="#191970" points="272.7943,-89.5001 282.7942,-86 272.7942,-82.5001 272.7943,-89.5001"/>
</g>
<!-- Node535 -->
<g id="node9" class="node">
<title>Node535</title>
<g id="a_node9"><a xlink:href="../../df/d7b/perf__counter_8cpp.html#a29199d9ba42a60894e4f593f677ff2d7" target="_top" xlink:title="Begin a performance event. ">
<polygon fill="#ffffff" stroke="#000000" points="282.5,-.5 282.5,-19.5 344.5,-19.5 344.5,-.5 282.5,-.5"/>
<text text-anchor="middle" x="313.5" y="-7.5" font-family="Helvetica,sans-Serif" font-size="10.00" fill="#000000">perf_begin</text>
</a>
</g>
</g>
<!-- Node528&#45;&gt;Node535 -->
<g id="edge12" class="edge">
<title>Node528&#45;&gt;Node535</title>
<path fill="none" stroke="#191970" d="M196.3767,-76.0946C207.589,-63.4346 228.6678,-41.647 251,-29 257.581,-25.2731 264.9745,-22.1986 272.3107,-19.6894"/>
<polygon fill="#191970" stroke="#191970" points="273.6904,-22.9256 282.1973,-16.6102 271.6088,-16.2423 273.6904,-22.9256"/>
</g>
<!-- Node537 -->
<g id="node11" class="node">
<title>Node537</title>
<g id="a_node11"><a xlink:href="../../df/d7b/perf__counter_8cpp.html#a8a89ea6639744897e494e5d2139751aa" target="_top" xlink:title="End a performance event. ">
<polygon fill="#ffffff" stroke="#000000" points="286.5,-38.5 286.5,-57.5 340.5,-57.5 340.5,-38.5 286.5,-38.5"/>
<text text-anchor="middle" x="313.5" y="-45.5" font-family="Helvetica,sans-Serif" font-size="10.00" fill="#000000">perf_end</text>
</a>
</g>
</g>
<!-- Node528&#45;&gt;Node537 -->
<g id="edge14" class="edge">
<title>Node528&#45;&gt;Node537</title>
<path fill="none" stroke="#191970" d="M215.2316,-77.7546C233.2397,-72.3019 257.067,-65.0873 276.7488,-59.1278"/>
<polygon fill="#191970" stroke="#191970" points="277.7649,-62.4772 286.3215,-56.2293 275.7363,-55.7776 277.7649,-62.4772"/>
</g>
<!-- Node530 -->
<g id="node4" class="node">
<title>Node530</title>
<g id="a_node4"><a xlink:href="../../d6/d47/dataman_8cpp.html#a0ba409860a05272f9cab723bd8358d05" target="_top" xlink:title="lock_queue">
<polygon fill="#ffffff" stroke="#000000" points="552.5,-148.5 552.5,-167.5 618.5,-167.5 618.5,-148.5 552.5,-148.5"/>
<text text-anchor="middle" x="585.5" y="-155.5" font-family="Helvetica,sans-Serif" font-size="10.00" fill="#000000">lock_queue</text>
</a>
</g>
</g>
<!-- Node529&#45;&gt;Node530 -->
<g id="edge3" class="edge">
<title>Node529&#45;&gt;Node530</title>
<path fill="none" stroke="#191970" d="M492.7904,-186.411C508.5039,-181.5956 527.7383,-175.7012 544.6061,-170.532"/>
<polygon fill="#191970" stroke="#191970" points="545.684,-173.8624 554.2196,-167.5859 543.6329,-167.1696 545.684,-173.8624"/>
</g>
<!-- Node531 -->
<g id="node5" class="node">
<title>Node531</title>
<g id="a_node5"><a xlink:href="../../d6/d47/dataman_8cpp.html#a237e22359180c49a601391c8d8fde80e" target="_top" xlink:title="unlock_queue">
<polygon fill="#ffffff" stroke="#000000" points="547,-110.5 547,-129.5 624,-129.5 624,-110.5 547,-110.5"/>
<text text-anchor="middle" x="585.5" y="-117.5" font-family="Helvetica,sans-Serif" font-size="10.00" fill="#000000">unlock_queue</text>
</a>
</g>
</g>
<!-- Node529&#45;&gt;Node531 -->
<g id="edge4" class="edge">
<title>Node529&#45;&gt;Node531</title>
<path fill="none" stroke="#191970" d="M474.7787,-186.3625C491.3035,-174.5548 520.575,-154.2432 547,-139 549.8408,-137.3613 552.8425,-135.7246 555.8657,-134.1376"/>
<polygon fill="#191970" stroke="#191970" points="557.5268,-137.2196 564.861,-129.5737 554.3595,-130.9771 557.5268,-137.2196"/>
</g>
<!-- Node532&#45;&gt;Node530 -->
<g id="edge9" class="edge">
<title>Node532&#45;&gt;Node530</title>
<path fill="none" stroke="#191970" d="M376.2438,-136.4589C427.1874,-141.7031 497.6779,-148.9595 542.4327,-153.5666"/>
<polygon fill="#191970" stroke="#191970" points="542.0955,-157.0503 552.4014,-154.5928 542.8124,-150.0871 542.0955,-157.0503"/>
</g>
<!-- Node532&#45;&gt;Node531 -->
<g id="edge10" class="edge">
<title>Node532&#45;&gt;Node531</title>
<path fill="none" stroke="#191970" d="M355.0923,-114.8834C372.4361,-109.3374 392.9444,-103.7469 412,-101 455.5499,-94.7223 467.3425,-95.5206 511,-101 522.3568,-102.4254 534.4643,-105.0276 545.5453,-107.8584"/>
<polygon fill="#191970" stroke="#191970" points="544.8169,-111.2867 555.3822,-110.4952 546.6293,-104.5254 544.8169,-111.2867"/>
</g>
<!-- Node533 -->
<g id="node7" class="node">
<title>Node533</title>
<g id="a_node7"><a xlink:href="../../d6/d47/dataman_8cpp.html#ad17f30be41ab52424f14d24242ee9fd9" target="_top" xlink:title="destroy_work_item">
<polygon fill="#ffffff" stroke="#000000" points="412,-110.5 412,-129.5 511,-129.5 511,-110.5 412,-110.5"/>
<text text-anchor="middle" x="461.5" y="-117.5" font-family="Helvetica,sans-Serif" font-size="10.00" fill="#000000">destroy_work_item</text>
</a>
</g>
</g>
<!-- Node532&#45;&gt;Node533 -->
<g id="edge6" class="edge">
<title>Node532&#45;&gt;Node533</title>
<path fill="none" stroke="#191970" d="M376.2653,-125.7591C384.6669,-125.1914 393.2663,-124.6104 401.6166,-124.0462"/>
<polygon fill="#191970" stroke="#191970" points="401.9073,-127.5346 411.6486,-123.3683 401.4354,-120.5505 401.9073,-127.5346"/>
</g>
<!-- Node533&#45;&gt;Node530 -->
<g id="edge7" class="edge">
<title>Node533&#45;&gt;Node530</title>
<path fill="none" stroke="#191970" d="M492.7904,-129.589C508.5039,-134.4044 527.7383,-140.2988 544.6061,-145.468"/>
<polygon fill="#191970" stroke="#191970" points="543.6329,-148.8304 554.2196,-148.4141 545.684,-142.1376 543.6329,-148.8304"/>
</g>
<!-- Node533&#45;&gt;Node531 -->
<g id="edge8" class="edge">
<title>Node533&#45;&gt;Node531</title>
<path fill="none" stroke="#191970" d="M511.2211,-120C519.6518,-120 528.3981,-120 536.8021,-120"/>
<polygon fill="#191970" stroke="#191970" points="536.8394,-123.5001 546.8393,-120 536.8393,-116.5001 536.8394,-123.5001"/>
</g>
<!-- Node536 -->
<g id="node10" class="node">
<title>Node536</title>
<g id="a_node10"><a xlink:href="../../d6/d10/drv__hrt_8h.html#a1450e339b7c5b8d47656500167a6676d" target="_top" xlink:title="Get absolute time in [us] (does not wrap). ">
<polygon fill="#ffffff" stroke="#000000" points="414.5,-22.5 414.5,-41.5 508.5,-41.5 508.5,-22.5 414.5,-22.5"/>
<text text-anchor="middle" x="461.5" y="-29.5" font-family="Helvetica,sans-Serif" font-size="10.00" fill="#000000">hrt_absolute_time</text>
</a>
</g>
</g>
<!-- Node535&#45;&gt;Node536 -->
<g id="edge13" class="edge">
<title>Node535&#45;&gt;Node536</title>
<path fill="none" stroke="#191970" d="M344.5256,-14.6119C361.8559,-17.188 383.9985,-20.4795 404.3463,-23.5042"/>
<polygon fill="#191970" stroke="#191970" points="404.0681,-27.0012 414.4741,-25.0097 405.0974,-20.0773 404.0681,-27.0012"/>
</g>
<!-- Node537&#45;&gt;Node536 -->
<g id="edge15" class="edge">
<title>Node537&#45;&gt;Node536</title>
<path fill="none" stroke="#191970" d="M340.6455,-45.0654C358.4395,-43.1417 382.3738,-40.5542 404.2477,-38.1894"/>
<polygon fill="#191970" stroke="#191970" points="404.8868,-41.6408 414.4526,-37.0862 404.1343,-34.6814 404.8868,-41.6408"/>
</g>
</g>
</svg>
        <g id="navigator" transform="translate(0 0)" fill="#404254">
                <rect fill="#f2f5e9" fill-opacity="0.5" stroke="#606060" stroke-width=".5" x="0" y="0" width="60" height="60"/>
                <use id="zoomplus" xlink:href="#zoomPlus" x="17" y="9" onmousedown="handleZoom(evt,'in')"/>
                <use id="zoomminus" xlink:href="#zoomMin" x="42" y="9" onmousedown="handleZoom(evt,'out')"/>
                <use id="reset" xlink:href="#resetDef" x="30" y="36" onmousedown="handleReset()"/>
                <g id="arrowUp" xlink:href="#dirArrow" transform="translate(30 24)" onmousedown="handlePan(0,-1)">
                  <use xlink:href="#rim" fill="#404040">
                        <set attributeName="fill" to="#808080" begin="arrowUp.mouseover" end="arrowUp.mouseout"/>
                  </use>
                  <path fill="none" stroke="white" stroke-width="1.5" d="M0,-3.0v7 M-2.5,-0.5L0,-3.0L2.5,-0.5"/>
                </g>
                <g id="arrowRight" xlink:href="#dirArrow" transform="rotate(90) translate(36 -43)" onmousedown="handlePan(1,0)">
                  <use xlink:href="#rim" fill="#404040">
                        <set attributeName="fill" to="#808080" begin="arrowRight.mouseover" end="arrowRight.mouseout"/>
                  </use>
                  <path fill="none" stroke="white" stroke-width="1.5" d="M0,-3.0v7 M-2.5,-0.5L0,-3.0L2.5,-0.5"/>
                </g>
                <g id="arrowDown" xlink:href="#dirArrow" transform="rotate(180) translate(-30 -48)" onmousedown="handlePan(0,1)">
                  <use xlink:href="#rim" fill="#404040">
                        <set attributeName="fill" to="#808080" begin="arrowDown.mouseover" end="arrowDown.mouseout"/>
                  </use>
                  <path fill="none" stroke="white" stroke-width="1.5" d="M0,-3.0v7 M-2.5,-0.5L0,-3.0L2.5,-0.5"/>
                </g>
                <g id="arrowLeft" xlink:href="#dirArrow" transform="rotate(270) translate(-36 17)" onmousedown="handlePan(-1,0)">
                  <use xlink:href="#rim" fill="#404040">
                        <set attributeName="fill" to="#808080" begin="arrowLeft.mouseover" end="arrowLeft.mouseout"/>
                  </use>
                  <path fill="none" stroke="white" stroke-width="1.5" d="M0,-3.0v7 M-2.5,-0.5L0,-3.0L2.5,-0.5"/>
                </g>
        </g>
        <svg viewBox="0 0 15 15" width="100%" height="30px" preserveAspectRatio="xMaxYMin meet">
         <g id="arrow_out" transform="scale(0.3 0.3)">
          <a xlink:href="class_geofence_a11637131c4a1374b8caf70d1e075e898_cgraph_org.svg" target="_base">
           <rect id="button" ry="5" rx="5" y="6" x="6" height="38" width="38"
                fill="#f2f5e9" fill-opacity="0.5" stroke="#606060" stroke-width="1.0"/>
           <path id="arrow"
             d="M 11.500037,31.436501 C 11.940474,20.09759 22.043105,11.32322 32.158766,21.979434 L 37.068811,17.246167 C 37.068811,17.246167 37.088388,32 37.088388,32 L 22.160133,31.978069 C 22.160133,31.978069 26.997745,27.140456 26.997745,27.140456 C 18.528582,18.264221 13.291696,25.230495 11.500037,31.436501 z"
             style="fill:#404040;"/>
          </a>
         </g>
        </svg>
</svg>
