<?xml version="1.0" encoding="UTF-8" standalone="no"?>
<!DOCTYPE svg PUBLIC "-//W3C//DTD SVG 1.1//EN"
 "http://www.w3.org/Graphics/SVG/1.1/DTD/svg11.dtd">
<!-- Generated by graphviz version 2.38.0 (20140413.2041)
 -->
<!-- Title: src/modules/mc_pos_control/Utility/ControlMath.hpp Pages: 1 -->
<!--zoomable 117 -->
<svg id="main" version="1.1" xmlns="http://www.w3.org/2000/svg" xmlns:xlink="http://www.w3.org/1999/xlink" xml:space="preserve" onload="init(evt)">
<style type="text/css"><![CDATA[
.edge:hover path { stroke: red; }
.edge:hover polygon { stroke: red; fill: red; }
]]></style>
<script type="text/javascript"><![CDATA[
var edges = document.getElementsByTagName('g');
if (edges && edges.length) {
  for (var i=0;i<edges.length;i++) {
    if (edges[i].id.substr(0,4)=='edge') {
      edges[i].setAttribute('class','edge');
    }
  }
}
]]></script>
        <defs>
                <circle id="rim" cx="0" cy="0" r="7"/>
                <circle id="rim2" cx="0" cy="0" r="3.5"/>
                <g id="zoomPlus">
                        <use xlink:href="#rim" fill="#404040">
                                <set attributeName="fill" to="#808080" begin="zoomplus.mouseover" end="zoomplus.mouseout"/>
                        </use>
                        <path d="M-4,0h8M0,-4v8" fill="none" stroke="white" stroke-width="1.5" pointer-events="none"/>
                </g>
                <g id="zoomMin">
                        <use xlink:href="#rim" fill="#404040">
                                <set attributeName="fill" to="#808080" begin="zoomminus.mouseover" end="zoomminus.mouseout"/>
                        </use>
                        <path d="M-4,0h8" fill="none" stroke="white" stroke-width="1.5" pointer-events="none"/>
                </g>
                <g id="dirArrow">
                        <path fill="none" stroke="white" stroke-width="1.5" d="M0,-3.0v7 M-2.5,-0.5L0,-3.0L2.5,-0.5"/>
                </g>
               <g id="resetDef">
                       <use xlink:href="#rim2" fill="#404040">
                               <set attributeName="fill" to="#808080" begin="reset.mouseover" end="reset.mouseout"/>
                       </use>
               </g>
        </defs>

<script type="text/javascript">
var viewWidth = 596;
var viewHeight = 117;
var sectionId = 'dynsection-1';
</script>
<script xlink:href="../../svgpan.js"/>
<svg id="graph" class="graph">
<g id="viewport">
<title>src/modules/mc_pos_control/Utility/ControlMath.hpp</title>
<polygon fill="white" stroke="none" points="-4,4 -4,-113 591.5,-113 591.5,4 -4,4"/>
<!-- Node1 -->
<g id="node1" class="node"><title>Node1</title>
<polygon fill="#bfbfbf" stroke="black" points="217,-78.5 217,-108.5 372,-108.5 372,-78.5 217,-78.5"/>
<text text-anchor="start" x="225" y="-96.5" font-family="Helvetica,sans-Serif" font-size="10.00">src/modules/mc_pos</text>
<text text-anchor="middle" x="294.5" y="-85.5" font-family="Helvetica,sans-Serif" font-size="10.00">_control/Utility/ControlMath.hpp</text>
</g>
<!-- Node2 -->
<g id="node2" class="node"><title>Node2</title>
<g id="a_node2"><a xlink:href="../../dd/d8c/mc__pos__control__main_8cpp.html" target="_top" xlink:title="Multicopter position controller. ">
<polygon fill="white" stroke="black" points="0,-0.5 0,-41.5 123,-41.5 123,-0.5 0,-0.5"/>
<text text-anchor="start" x="8" y="-29.5" font-family="Helvetica,sans-Serif" font-size="10.00">src/modules/mc_pos</text>
<text text-anchor="start" x="8" y="-18.5" font-family="Helvetica,sans-Serif" font-size="10.00">_control/mc_pos_control</text>
<text text-anchor="middle" x="61.5" y="-7.5" font-family="Helvetica,sans-Serif" font-size="10.00">_main.cpp</text>
</a>
</g>
</g>
<!-- Node1&#45;&gt;Node2 -->
<g id="edge1" class="edge"><title>Node1&#45;&gt;Node2</title>
<path fill="none" stroke="midnightblue" d="M238.206,-75.4668C203.465,-64.9552 158.875,-51.4632 123.179,-40.6625"/>
<polygon fill="midnightblue" stroke="midnightblue" points="237.603,-78.941 248.188,-78.4872 239.63,-72.241 237.603,-78.941"/>
</g>
<!-- Node3 -->
<g id="node3" class="node"><title>Node3</title>
<g id="a_node3"><a xlink:href="../../df/dfe/_position_control_8cpp.html" target="_top" xlink:title="src/modules/mc_pos\l_control/PositionControl.cpp">
<polygon fill="white" stroke="black" points="141.5,-6 141.5,-36 281.5,-36 281.5,-6 141.5,-6"/>
<text text-anchor="start" x="149.5" y="-24" font-family="Helvetica,sans-Serif" font-size="10.00">src/modules/mc_pos</text>
<text text-anchor="middle" x="211.5" y="-13" font-family="Helvetica,sans-Serif" font-size="10.00">_control/PositionControl.cpp</text>
</a>
</g>
</g>
<!-- Node1&#45;&gt;Node3 -->
<g id="edge2" class="edge"><title>Node1&#45;&gt;Node3</title>
<path fill="none" stroke="midnightblue" d="M269.734,-71.464C256.243,-60.0043 239.917,-46.137 227.988,-36.0049"/>
<polygon fill="midnightblue" stroke="midnightblue" points="267.816,-74.427 277.704,-78.2333 272.348,-69.0918 267.816,-74.427"/>
</g>
<!-- Node4 -->
<g id="node4" class="node"><title>Node4</title>
<g id="a_node4"><a xlink:href="../../d2/ddb/_control_math_8cpp.html" target="_top" xlink:title="src/modules/mc_pos\l_control/Utility/ControlMath.cpp">
<polygon fill="white" stroke="black" points="300,-6 300,-36 455,-36 455,-6 300,-6"/>
<text text-anchor="start" x="308" y="-24" font-family="Helvetica,sans-Serif" font-size="10.00">src/modules/mc_pos</text>
<text text-anchor="middle" x="377.5" y="-13" font-family="Helvetica,sans-Serif" font-size="10.00">_control/Utility/ControlMath.cpp</text>
</a>
</g>
</g>
<!-- Node1&#45;&gt;Node4 -->
<g id="edge3" class="edge"><title>Node1&#45;&gt;Node4</title>
<path fill="none" stroke="midnightblue" d="M319.266,-71.464C332.757,-60.0043 349.083,-46.137 361.012,-36.0049"/>
<polygon fill="midnightblue" stroke="midnightblue" points="316.652,-69.0918 311.296,-78.2333 321.184,-74.427 316.652,-69.0918"/>
</g>
<!-- Node5 -->
<g id="node5" class="node"><title>Node5</title>
<g id="a_node5"><a xlink:href="../../d2/d0f/test__controlmath_8cpp.html" target="_top" xlink:title="src/systemcmds/tests\l/test_controlmath.cpp">
<polygon fill="white" stroke="black" points="473.5,-6 473.5,-36 587.5,-36 587.5,-6 473.5,-6"/>
<text text-anchor="start" x="481.5" y="-24" font-family="Helvetica,sans-Serif" font-size="10.00">src/systemcmds/tests</text>
<text text-anchor="middle" x="530.5" y="-13" font-family="Helvetica,sans-Serif" font-size="10.00">/test_controlmath.cpp</text>
</a>
</g>
</g>
<!-- Node1&#45;&gt;Node5 -->
<g id="edge4" class="edge"><title>Node1&#45;&gt;Node5</title>
<path fill="none" stroke="midnightblue" d="M352.064,-75.4854C385,-65.7288 427.085,-53.2261 464.5,-42 470.922,-40.0731 477.693,-38.0322 484.352,-36.0194"/>
<polygon fill="midnightblue" stroke="midnightblue" points="350.746,-72.2253 342.151,-78.4206 352.734,-78.9372 350.746,-72.2253"/>
</g>
</g>
</svg>
        <g id="navigator" transform="translate(0 0)" fill="#404254">
                <rect fill="#f2f5e9" fill-opacity="0.5" stroke="#606060" stroke-width=".5" x="0" y="0" width="60" height="60"/>
                <use id="zoomplus" xlink:href="#zoomPlus" x="17" y="9" onmousedown="handleZoom(evt,'in')"/>
                <use id="zoomminus" xlink:href="#zoomMin" x="42" y="9" onmousedown="handleZoom(evt,'out')"/>
                <use id="reset" xlink:href="#resetDef" x="30" y="36" onmousedown="handleReset()"/>
                <g id="arrowUp" xlink:href="#dirArrow" transform="translate(30 24)" onmousedown="handlePan(0,-1)">
                  <use xlink:href="#rim" fill="#404040">
                        <set attributeName="fill" to="#808080" begin="arrowUp.mouseover" end="arrowUp.mouseout"/>
                  </use>
                  <path fill="none" stroke="white" stroke-width="1.5" d="M0,-3.0v7 M-2.5,-0.5L0,-3.0L2.5,-0.5"/>
                </g>
                <g id="arrowRight" xlink:href="#dirArrow" transform="rotate(90) translate(36 -43)" onmousedown="handlePan(1,0)">
                  <use xlink:href="#rim" fill="#404040">
                        <set attributeName="fill" to="#808080" begin="arrowRight.mouseover" end="arrowRight.mouseout"/>
                  </use>
                  <path fill="none" stroke="white" stroke-width="1.5" d="M0,-3.0v7 M-2.5,-0.5L0,-3.0L2.5,-0.5"/>
                </g>
                <g id="arrowDown" xlink:href="#dirArrow" transform="rotate(180) translate(-30 -48)" onmousedown="handlePan(0,1)">
                  <use xlink:href="#rim" fill="#404040">
                        <set attributeName="fill" to="#808080" begin="arrowDown.mouseover" end="arrowDown.mouseout"/>
                  </use>
                  <path fill="none" stroke="white" stroke-width="1.5" d="M0,-3.0v7 M-2.5,-0.5L0,-3.0L2.5,-0.5"/>
                </g>
                <g id="arrowLeft" xlink:href="#dirArrow" transform="rotate(270) translate(-36 17)" onmousedown="handlePan(-1,0)">
                  <use xlink:href="#rim" fill="#404040">
                        <set attributeName="fill" to="#808080" begin="arrowLeft.mouseover" end="arrowLeft.mouseout"/>
                  </use>
                  <path fill="none" stroke="white" stroke-width="1.5" d="M0,-3.0v7 M-2.5,-0.5L0,-3.0L2.5,-0.5"/>
                </g>
        </g>
        <svg viewBox="0 0 15 15" width="100%" height="30px" preserveAspectRatio="xMaxYMin meet">
         <g id="arrow_out" transform="scale(0.3 0.3)">
          <a xlink:href="_control_math_8hpp__dep__incl_org.svg" target="_base">
           <rect id="button" ry="5" rx="5" y="6" x="6" height="38" width="38"
                fill="#f2f5e9" fill-opacity="0.5" stroke="#606060" stroke-width="1.0"/>
           <path id="arrow"
             d="M 11.500037,31.436501 C 11.940474,20.09759 22.043105,11.32322 32.158766,21.979434 L 37.068811,17.246167 C 37.068811,17.246167 37.088388,32 37.088388,32 L 22.160133,31.978069 C 22.160133,31.978069 26.997745,27.140456 26.997745,27.140456 C 18.528582,18.264221 13.291696,25.230495 11.500037,31.436501 z"
             style="fill:#404040;"/>
          </a>
         </g>
        </svg>
</svg>
