<?xml version="1.0" encoding="UTF-8" standalone="no"?>
<!DOCTYPE svg PUBLIC "-//W3C//DTD SVG 1.1//EN"
 "http://www.w3.org/Graphics/SVG/1.1/DTD/svg11.dtd">
<!-- Generated by graphviz version 2.40.1 (20161225.0304)
 -->
<!-- Title: version_tag_to_vendor_version_number Pages: 1 -->
<svg width="1906pt" height="313pt"
 viewBox="0.00 0.00 1906.00 312.50" xmlns="http://www.w3.org/2000/svg" xmlns:xlink="http://www.w3.org/1999/xlink">
<g id="graph0" class="graph" transform="scale(1 1) rotate(0) translate(4 308.5)">
<title>version_tag_to_vendor_version_number</title>
<polygon fill="#ffffff" stroke="transparent" points="-4,4 -4,-308.5 1902,-308.5 1902,4 -4,4"/>
<!-- Node266 -->
<g id="node1" class="node">
<title>Node266</title>
<polygon fill="#bfbfbf" stroke="#000000" points="0,-215.5 0,-245.5 115,-245.5 115,-215.5 0,-215.5"/>
<text text-anchor="start" x="8" y="-233.5" font-family="Helvetica,sans-Serif" font-size="10.00" fill="#000000">version_tag_to_vendor</text>
<text text-anchor="middle" x="57.5" y="-222.5" font-family="Helvetica,sans-Serif" font-size="10.00" fill="#000000">_version_number</text>
</g>
<!-- Node267 -->
<g id="node2" class="node">
<title>Node267</title>
<g id="a_node2"><a xlink:href="../../dd/d77/class_versioning_test.html#aeca504c27442e9ded77d40aefc0b01e9" target="_top" xlink:title="VersioningTest::_test\l_tag_to_version_number">
<polygon fill="#ffffff" stroke="#000000" points="151,-259.5 151,-289.5 274,-289.5 274,-259.5 151,-259.5"/>
<text text-anchor="start" x="159" y="-277.5" font-family="Helvetica,sans-Serif" font-size="10.00" fill="#000000">VersioningTest::_test</text>
<text text-anchor="middle" x="212.5" y="-266.5" font-family="Helvetica,sans-Serif" font-size="10.00" fill="#000000">_tag_to_version_number</text>
</a>
</g>
</g>
<!-- Node266&#45;&gt;Node267 -->
<g id="edge1" class="edge">
<title>Node266&#45;&gt;Node267</title>
<path fill="none" stroke="#191970" d="M120.246,-248.3118C133.2915,-252.015 146.9162,-255.8827 159.5668,-259.4738"/>
<polygon fill="#191970" stroke="#191970" points="120.9844,-244.8832 110.4087,-245.5192 119.0728,-251.6171 120.9844,-244.8832"/>
</g>
<!-- Node269 -->
<g id="node4" class="node">
<title>Node269</title>
<g id="a_node4"><a xlink:href="../../df/dfc/version_8h.html#ac35bb2fd94f5d8b7b3bebeb1e54a2321" target="_top" xlink:title="get the board HW revision ">
<polygon fill="#ffffff" stroke="#000000" points="310,-221 310,-240 429,-240 429,-221 310,-221"/>
<text text-anchor="middle" x="369.5" y="-228" font-family="Helvetica,sans-Serif" font-size="10.00" fill="#000000">px4_board_hw_revision</text>
</a>
</g>
</g>
<!-- Node266&#45;&gt;Node269 -->
<g id="edge3" class="edge">
<title>Node266&#45;&gt;Node269</title>
<path fill="none" stroke="#191970" d="M125.1001,-230.5C180.1374,-230.5 257.0876,-230.5 309.8575,-230.5"/>
<polygon fill="#191970" stroke="#191970" points="125.0892,-227.0001 115.0892,-230.5 125.0892,-234.0001 125.0892,-227.0001"/>
</g>
<!-- Node272 -->
<g id="node7" class="node">
<title>Node272</title>
<g id="a_node7"><a xlink:href="../../df/dfc/version_8h.html#a950c8f34e84181016bac40b6c0bb39a6" target="_top" xlink:title="get the PX4 Firmware vendor version ">
<polygon fill="#ffffff" stroke="#000000" points="157.5,-171.5 157.5,-201.5 267.5,-201.5 267.5,-171.5 157.5,-171.5"/>
<text text-anchor="start" x="165.5" y="-189.5" font-family="Helvetica,sans-Serif" font-size="10.00" fill="#000000">px4_firmware_vendor</text>
<text text-anchor="middle" x="212.5" y="-178.5" font-family="Helvetica,sans-Serif" font-size="10.00" fill="#000000">_version</text>
</a>
</g>
</g>
<!-- Node266&#45;&gt;Node272 -->
<g id="edge7" class="edge">
<title>Node266&#45;&gt;Node272</title>
<path fill="none" stroke="#191970" d="M120.246,-212.6882C133.2915,-208.985 146.9162,-205.1173 159.5668,-201.5262"/>
<polygon fill="#191970" stroke="#191970" points="119.0728,-209.3829 110.4087,-215.4808 120.9844,-216.1168 119.0728,-209.3829"/>
</g>
<!-- Node268 -->
<g id="node3" class="node">
<title>Node268</title>
<g id="a_node3"><a xlink:href="../../dd/d77/class_versioning_test.html#a8836b9458c8dc91be9d802a910fcce01" target="_top" xlink:title="Override to run your unit tests. ">
<polygon fill="#ffffff" stroke="#000000" points="319,-259.5 319,-289.5 420,-289.5 420,-259.5 319,-259.5"/>
<text text-anchor="start" x="327" y="-277.5" font-family="Helvetica,sans-Serif" font-size="10.00" fill="#000000">VersioningTest::run</text>
<text text-anchor="middle" x="369.5" y="-266.5" font-family="Helvetica,sans-Serif" font-size="10.00" fill="#000000">_tests</text>
</a>
</g>
</g>
<!-- Node267&#45;&gt;Node268 -->
<g id="edge2" class="edge">
<title>Node267&#45;&gt;Node268</title>
<path fill="none" stroke="#191970" d="M284.2462,-274.5C295.8799,-274.5 307.7129,-274.5 318.7129,-274.5"/>
<polygon fill="#191970" stroke="#191970" points="284.1,-271.0001 274.0999,-274.5 284.0999,-278.0001 284.1,-271.0001"/>
</g>
<!-- Node270 -->
<g id="node5" class="node">
<title>Node270</title>
<g id="a_node5"><a xlink:href="../../d4/d9b/ver_8c.html#a4b346a510f04a4e5463db2141bb46ce8" target="_top" xlink:title="ver_main">
<polygon fill="#ffffff" stroke="#000000" points="504,-285 504,-304 560,-304 560,-285 504,-285"/>
<text text-anchor="middle" x="532" y="-292" font-family="Helvetica,sans-Serif" font-size="10.00" fill="#000000">ver_main</text>
</a>
</g>
</g>
<!-- Node269&#45;&gt;Node270 -->
<g id="edge4" class="edge">
<title>Node269&#45;&gt;Node270</title>
<path fill="none" stroke="#191970" d="M408.9736,-243.2775C415.6887,-245.5912 422.5683,-248.0497 429,-250.5 457.7105,-261.4378 490.2163,-275.6348 510.8961,-284.9014"/>
<polygon fill="#191970" stroke="#191970" points="409.9187,-239.9024 399.3244,-240.0094 407.6731,-246.5324 409.9187,-239.9024"/>
</g>
<!-- Node271 -->
<g id="node6" class="node">
<title>Node271</title>
<g id="a_node6"><a xlink:href="../../d4/d9b/ver_8c.html#a6140e286cfe677ffb07d7aee4446c31f" target="_top" xlink:title="usage">
<polygon fill="#ffffff" stroke="#000000" points="681,-285 681,-304 724,-304 724,-285 681,-285"/>
<text text-anchor="middle" x="702.5" y="-292" font-family="Helvetica,sans-Serif" font-size="10.00" fill="#000000">usage</text>
</a>
</g>
</g>
<!-- Node270&#45;&gt;Node271 -->
<g id="edge5" class="edge">
<title>Node270&#45;&gt;Node271</title>
<path fill="none" stroke="#191970" d="M570.2252,-288.7613C604.3113,-287.123 652.9945,-287.4752 680.8033,-289.8182"/>
<polygon fill="#191970" stroke="#191970" points="569.9399,-285.2718 560.1546,-289.3337 570.3371,-292.2605 569.9399,-285.2718"/>
</g>
<!-- Node271&#45;&gt;Node270 -->
<g id="edge6" class="edge">
<title>Node271&#45;&gt;Node270</title>
<path fill="none" stroke="#191970" d="M670.7172,-299.8945C638.9514,-301.7749 590.5765,-301.6989 560.1546,-299.6663"/>
<polygon fill="#191970" stroke="#191970" points="671.0749,-303.3781 680.8033,-299.1818 670.5814,-296.3955 671.0749,-303.3781"/>
</g>
<!-- Node272&#45;&gt;Node269 -->
<g id="edge8" class="edge">
<title>Node272&#45;&gt;Node269</title>
<path fill="none" stroke="#191970" d="M275.9226,-204.2745C296.2289,-209.9654 317.934,-216.0484 335.3229,-220.9217"/>
<polygon fill="#191970" stroke="#191970" points="276.6649,-200.8477 266.0914,-201.5192 274.7759,-207.588 276.6649,-200.8477"/>
</g>
<!-- Node273 -->
<g id="node8" class="node">
<title>Node273</title>
<g id="a_node8"><a xlink:href="../../d1/d23/classpx4_1_1logger_1_1_logger.html#adabb1202e3004811712411172155abb4" target="_top" xlink:title="px4::logger::Logger\l::write_version">
<polygon fill="#ffffff" stroke="#000000" points="319.5,-171.5 319.5,-201.5 419.5,-201.5 419.5,-171.5 319.5,-171.5"/>
<text text-anchor="start" x="327.5" y="-189.5" font-family="Helvetica,sans-Serif" font-size="10.00" fill="#000000">px4::logger::Logger</text>
<text text-anchor="middle" x="369.5" y="-178.5" font-family="Helvetica,sans-Serif" font-size="10.00" fill="#000000">::write_version</text>
</a>
</g>
</g>
<!-- Node272&#45;&gt;Node273 -->
<g id="edge9" class="edge">
<title>Node272&#45;&gt;Node273</title>
<path fill="none" stroke="#191970" d="M278.2366,-186.5C291.9909,-186.5 306.2823,-186.5 319.3605,-186.5"/>
<polygon fill="#191970" stroke="#191970" points="277.8524,-183.0001 267.8523,-186.5 277.8523,-190.0001 277.8524,-183.0001"/>
</g>
<!-- Node279 -->
<g id="node14" class="node">
<title>Node279</title>
<g id="a_node14"><a xlink:href="../../df/d1f/class_mavlink.html#a183dfdfc1fbde1b34127c76f4ff2c695" target="_top" xlink:title="Send the capabilities of this autopilot in terms of the MAVLink spec. ">
<polygon fill="#ffffff" stroke="#000000" points="310,-93.5 310,-123.5 429,-123.5 429,-93.5 310,-93.5"/>
<text text-anchor="start" x="318" y="-111.5" font-family="Helvetica,sans-Serif" font-size="10.00" fill="#000000">Mavlink::send_autopilot</text>
<text text-anchor="middle" x="369.5" y="-100.5" font-family="Helvetica,sans-Serif" font-size="10.00" fill="#000000">_capabilites</text>
</a>
</g>
</g>
<!-- Node272&#45;&gt;Node279 -->
<g id="edge17" class="edge">
<title>Node272&#45;&gt;Node279</title>
<path fill="none" stroke="#191970" d="M251.9457,-166.9028C278.9453,-153.4889 314.216,-135.9659 339.0543,-123.6259"/>
<polygon fill="#191970" stroke="#191970" points="250.1696,-163.877 242.7712,-171.4608 253.2841,-170.1459 250.1696,-163.877"/>
</g>
<!-- Node274 -->
<g id="node9" class="node">
<title>Node274</title>
<g id="a_node9"><a xlink:href="../../d1/d23/classpx4_1_1logger_1_1_logger.html#a1012590d5f49e119e9f9ea3d3efd8832" target="_top" xlink:title="px4::logger::Logger\l::start_log_file">
<polygon fill="#ffffff" stroke="#000000" points="482,-197.5 482,-227.5 582,-227.5 582,-197.5 482,-197.5"/>
<text text-anchor="start" x="490" y="-215.5" font-family="Helvetica,sans-Serif" font-size="10.00" fill="#000000">px4::logger::Logger</text>
<text text-anchor="middle" x="532" y="-204.5" font-family="Helvetica,sans-Serif" font-size="10.00" fill="#000000">::start_log_file</text>
</a>
</g>
</g>
<!-- Node273&#45;&gt;Node274 -->
<g id="edge10" class="edge">
<title>Node273&#45;&gt;Node274</title>
<path fill="none" stroke="#191970" d="M429.5206,-196.1033C446.7127,-198.854 465.2685,-201.823 481.8043,-204.4687"/>
<polygon fill="#191970" stroke="#191970" points="430.0087,-192.637 419.5813,-194.513 428.9027,-199.549 430.0087,-192.637"/>
</g>
<!-- Node277 -->
<g id="node12" class="node">
<title>Node277</title>
<g id="a_node12"><a xlink:href="../../d1/d23/classpx4_1_1logger_1_1_logger.html#ade524d17cb3995a527f23e10dfd04f5b" target="_top" xlink:title="px4::logger::Logger\l::start_log_mavlink">
<polygon fill="#ffffff" stroke="#000000" points="482,-145.5 482,-175.5 582,-175.5 582,-145.5 482,-145.5"/>
<text text-anchor="start" x="490" y="-163.5" font-family="Helvetica,sans-Serif" font-size="10.00" fill="#000000">px4::logger::Logger</text>
<text text-anchor="middle" x="532" y="-152.5" font-family="Helvetica,sans-Serif" font-size="10.00" fill="#000000">::start_log_mavlink</text>
</a>
</g>
</g>
<!-- Node273&#45;&gt;Node277 -->
<g id="edge14" class="edge">
<title>Node273&#45;&gt;Node277</title>
<path fill="none" stroke="#191970" d="M429.5206,-176.8967C446.7127,-174.146 465.2685,-171.177 481.8043,-168.5313"/>
<polygon fill="#191970" stroke="#191970" points="428.9027,-173.451 419.5813,-178.487 430.0087,-180.363 428.9027,-173.451"/>
</g>
<!-- Node275 -->
<g id="node10" class="node">
<title>Node275</title>
<g id="a_node10"><a xlink:href="../../d1/d23/classpx4_1_1logger_1_1_logger.html#a68543e963a7f5706e96e53c14fdf8daa" target="_top" xlink:title="px4::logger::Logger::run">
<polygon fill="#ffffff" stroke="#000000" points="808.5,-203 808.5,-222 927.5,-222 927.5,-203 808.5,-203"/>
<text text-anchor="middle" x="868" y="-210" font-family="Helvetica,sans-Serif" font-size="10.00" fill="#000000">px4::logger::Logger::run</text>
</a>
</g>
</g>
<!-- Node274&#45;&gt;Node275 -->
<g id="edge11" class="edge">
<title>Node274&#45;&gt;Node275</title>
<path fill="none" stroke="#191970" d="M592.0989,-229.6264C606.0667,-232.8964 620.9593,-235.8204 635,-237.5 694.5753,-244.6265 710.4673,-244.9738 770,-237.5 793.3455,-234.5692 819.1019,-227.8569 838.3489,-222.1249"/>
<polygon fill="#191970" stroke="#191970" points="592.6611,-226.1612 582.1171,-227.1971 591.0058,-232.9627 592.6611,-226.1612"/>
</g>
<!-- Node276 -->
<g id="node11" class="node">
<title>Node276</title>
<g id="a_node11"><a xlink:href="../../d1/d23/classpx4_1_1logger_1_1_logger.html#aaf49fbf64b15d924c47f1da7d699f30b" target="_top" xlink:title="check current arming state or aux channel and start/stop logging if state changed and according to co...">
<polygon fill="#ffffff" stroke="#000000" points="651.5,-197.5 651.5,-227.5 753.5,-227.5 753.5,-197.5 651.5,-197.5"/>
<text text-anchor="start" x="659.5" y="-215.5" font-family="Helvetica,sans-Serif" font-size="10.00" fill="#000000">px4::logger::Logger</text>
<text text-anchor="middle" x="702.5" y="-204.5" font-family="Helvetica,sans-Serif" font-size="10.00" fill="#000000">::start_stop_logging</text>
</a>
</g>
</g>
<!-- Node274&#45;&gt;Node276 -->
<g id="edge12" class="edge">
<title>Node274&#45;&gt;Node276</title>
<path fill="none" stroke="#191970" d="M592.4316,-212.5C611.7281,-212.5 632.8831,-212.5 651.4455,-212.5"/>
<polygon fill="#191970" stroke="#191970" points="592.2335,-209.0001 582.2334,-212.5 592.2334,-216.0001 592.2335,-209.0001"/>
</g>
<!-- Node276&#45;&gt;Node275 -->
<g id="edge13" class="edge">
<title>Node276&#45;&gt;Node275</title>
<path fill="none" stroke="#191970" d="M763.9136,-212.5C778.4754,-212.5 793.9832,-212.5 808.4599,-212.5"/>
<polygon fill="#191970" stroke="#191970" points="763.5059,-209.0001 753.5059,-212.5 763.5059,-216.0001 763.5059,-209.0001"/>
</g>
<!-- Node278 -->
<g id="node13" class="node">
<title>Node278</title>
<g id="a_node13"><a xlink:href="../../d1/d23/classpx4_1_1logger_1_1_logger.html#a414334dfad305aa284bea1225e5d1061" target="_top" xlink:title="px4::logger::Logger\l::handle_vehicle_command\l_update">
<polygon fill="#ffffff" stroke="#000000" points="635,-137 635,-178 770,-178 770,-137 635,-137"/>
<text text-anchor="start" x="643" y="-166" font-family="Helvetica,sans-Serif" font-size="10.00" fill="#000000">px4::logger::Logger</text>
<text text-anchor="start" x="643" y="-155" font-family="Helvetica,sans-Serif" font-size="10.00" fill="#000000">::handle_vehicle_command</text>
<text text-anchor="middle" x="702.5" y="-144" font-family="Helvetica,sans-Serif" font-size="10.00" fill="#000000">_update</text>
</a>
</g>
</g>
<!-- Node277&#45;&gt;Node278 -->
<g id="edge15" class="edge">
<title>Node277&#45;&gt;Node278</title>
<path fill="none" stroke="#191970" d="M592.5254,-159.435C606.2576,-159.1934 620.9268,-158.9353 634.9302,-158.6889"/>
<polygon fill="#191970" stroke="#191970" points="592.1703,-155.9406 582.2334,-159.6161 592.2935,-162.9396 592.1703,-155.9406"/>
</g>
<!-- Node278&#45;&gt;Node275 -->
<g id="edge16" class="edge">
<title>Node278&#45;&gt;Node275</title>
<path fill="none" stroke="#191970" d="M774.3395,-181.3742C797.2841,-188.9992 821.3676,-197.0028 839.3669,-202.9845"/>
<polygon fill="#191970" stroke="#191970" points="775.1905,-177.9688 764.597,-178.1365 772.9828,-184.6116 775.1905,-177.9688"/>
</g>
<!-- Node280 -->
<g id="node15" class="node">
<title>Node280</title>
<g id="a_node15"><a xlink:href="../../df/d1f/class_mavlink.html#a2325401a575b272fc1474d502388241f" target="_top" xlink:title="Main mavlink task. ">
<polygon fill="#ffffff" stroke="#000000" points="1429,-77 1429,-96 1530,-96 1530,-77 1429,-77"/>
<text text-anchor="middle" x="1479.5" y="-84" font-family="Helvetica,sans-Serif" font-size="10.00" fill="#000000">Mavlink::task_main</text>
</a>
</g>
</g>
<!-- Node279&#45;&gt;Node280 -->
<g id="edge18" class="edge">
<title>Node279&#45;&gt;Node280</title>
<path fill="none" stroke="#191970" d="M439.1231,-108.5C506.4938,-108.5 611.4922,-108.5 702.5,-108.5 702.5,-108.5 702.5,-108.5 1172.5,-108.5 1262.9392,-108.5 1367.9824,-98.8839 1428.7886,-92.3667"/>
<polygon fill="#191970" stroke="#191970" points="439.0523,-105.0001 429.0522,-108.5 439.0522,-112.0001 439.0523,-105.0001"/>
</g>
<!-- Node284 -->
<g id="node19" class="node">
<title>Node284</title>
<g id="a_node19"><a xlink:href="../../da/d89/class_mavlink_receiver.html#a72518d540ed247b6fcc0fb63592dd319" target="_top" xlink:title="Common method to handle both mavlink command types. ">
<polygon fill="#ffffff" stroke="#000000" points="465,-49.5 465,-79.5 599,-79.5 599,-49.5 465,-49.5"/>
<text text-anchor="start" x="473" y="-67.5" font-family="Helvetica,sans-Serif" font-size="10.00" fill="#000000">MavlinkReceiver::handle</text>
<text text-anchor="middle" x="532" y="-56.5" font-family="Helvetica,sans-Serif" font-size="10.00" fill="#000000">_message_command_both</text>
</a>
</g>
</g>
<!-- Node279&#45;&gt;Node284 -->
<g id="edge22" class="edge">
<title>Node279&#45;&gt;Node284</title>
<path fill="none" stroke="#191970" d="M434.8801,-90.7971C448.6787,-87.0608 463.1128,-83.1525 476.5055,-79.5262"/>
<polygon fill="#191970" stroke="#191970" points="433.7064,-87.4888 424.9688,-93.4808 435.536,-94.2455 433.7064,-87.4888"/>
</g>
<!-- Node281 -->
<g id="node16" class="node">
<title>Node281</title>
<g id="a_node16"><a xlink:href="../../df/d1f/class_mavlink.html#aad2c17a259e6cfbfe20113c8da8f6cae" target="_top" xlink:title="Mavlink::start_helper">
<polygon fill="#ffffff" stroke="#000000" points="1566,-77 1566,-96 1673,-96 1673,-77 1566,-77"/>
<text text-anchor="middle" x="1619.5" y="-84" font-family="Helvetica,sans-Serif" font-size="10.00" fill="#000000">Mavlink::start_helper</text>
</a>
</g>
</g>
<!-- Node280&#45;&gt;Node281 -->
<g id="edge19" class="edge">
<title>Node280&#45;&gt;Node281</title>
<path fill="none" stroke="#191970" d="M1540.2551,-86.5C1548.7299,-86.5 1557.3886,-86.5 1565.7227,-86.5"/>
<polygon fill="#191970" stroke="#191970" points="1540.0432,-83.0001 1530.0432,-86.5 1540.0432,-90.0001 1540.0432,-83.0001"/>
</g>
<!-- Node282 -->
<g id="node17" class="node">
<title>Node282</title>
<g id="a_node17"><a xlink:href="../../df/d1f/class_mavlink.html#a3f96c3503833a477332c8584bb8fbc67" target="_top" xlink:title="Start the mavlink task. ">
<polygon fill="#ffffff" stroke="#000000" points="1709,-77 1709,-96 1785,-96 1785,-77 1709,-77"/>
<text text-anchor="middle" x="1747" y="-84" font-family="Helvetica,sans-Serif" font-size="10.00" fill="#000000">Mavlink::start</text>
</a>
</g>
</g>
<!-- Node281&#45;&gt;Node282 -->
<g id="edge20" class="edge">
<title>Node281&#45;&gt;Node282</title>
<path fill="none" stroke="#191970" d="M1683.3846,-86.5C1692.0906,-86.5 1700.7932,-86.5 1708.843,-86.5"/>
<polygon fill="#191970" stroke="#191970" points="1683.202,-83.0001 1673.2019,-86.5 1683.2019,-90.0001 1683.202,-83.0001"/>
</g>
<!-- Node283 -->
<g id="node18" class="node">
<title>Node283</title>
<g id="a_node18"><a xlink:href="../../de/d24/mavlink__main_8cpp.html#ab81e9b009119f143f3b54a1390b92427" target="_top" xlink:title="Mavlink app start / stop handling function. ">
<polygon fill="#ffffff" stroke="#000000" points="1821,-77 1821,-96 1898,-96 1898,-77 1821,-77"/>
<text text-anchor="middle" x="1859.5" y="-84" font-family="Helvetica,sans-Serif" font-size="10.00" fill="#000000">mavlink_main</text>
</a>
</g>
</g>
<!-- Node282&#45;&gt;Node283 -->
<g id="edge21" class="edge">
<title>Node282&#45;&gt;Node283</title>
<path fill="none" stroke="#191970" d="M1795.2672,-86.5C1803.7573,-86.5 1812.495,-86.5 1820.6854,-86.5"/>
<polygon fill="#191970" stroke="#191970" points="1795.0874,-83.0001 1785.0874,-86.5 1795.0873,-90.0001 1795.0874,-83.0001"/>
</g>
<!-- Node285 -->
<g id="node20" class="node">
<title>Node285</title>
<g id="a_node20"><a xlink:href="../../da/d89/class_mavlink_receiver.html#a5345e8389c1ac373ab61074c9b849e22" target="_top" xlink:title="MavlinkReceiver::handle\l_message_command_long">
<polygon fill="#ffffff" stroke="#000000" points="636,-49.5 636,-79.5 769,-79.5 769,-49.5 636,-49.5"/>
<text text-anchor="start" x="644" y="-67.5" font-family="Helvetica,sans-Serif" font-size="10.00" fill="#000000">MavlinkReceiver::handle</text>
<text text-anchor="middle" x="702.5" y="-56.5" font-family="Helvetica,sans-Serif" font-size="10.00" fill="#000000">_message_command_long</text>
</a>
</g>
</g>
<!-- Node284&#45;&gt;Node285 -->
<g id="edge23" class="edge">
<title>Node284&#45;&gt;Node285</title>
<path fill="none" stroke="#191970" d="M609.6124,-64.5C618.3854,-64.5 627.2672,-64.5 635.8821,-64.5"/>
<polygon fill="#191970" stroke="#191970" points="609.3861,-61.0001 599.3861,-64.5 609.3861,-68.0001 609.3861,-61.0001"/>
</g>
<!-- Node290 -->
<g id="node25" class="node">
<title>Node290</title>
<g id="a_node25"><a xlink:href="../../da/d89/class_mavlink_receiver.html#aa94397b70b0418675a2934b022de6df4" target="_top" xlink:title="MavlinkReceiver::handle\l_message_command_int">
<polygon fill="#ffffff" stroke="#000000" points="640,-.5 640,-30.5 765,-30.5 765,-.5 640,-.5"/>
<text text-anchor="start" x="648" y="-18.5" font-family="Helvetica,sans-Serif" font-size="10.00" fill="#000000">MavlinkReceiver::handle</text>
<text text-anchor="middle" x="702.5" y="-7.5" font-family="Helvetica,sans-Serif" font-size="10.00" fill="#000000">_message_command_int</text>
</a>
</g>
</g>
<!-- Node284&#45;&gt;Node290 -->
<g id="edge29" class="edge">
<title>Node284&#45;&gt;Node290</title>
<path fill="none" stroke="#191970" d="M594.2641,-46.6059C612.6027,-41.3356 632.4751,-35.6245 650.1267,-30.5516"/>
<polygon fill="#191970" stroke="#191970" points="593.1911,-43.2725 584.5468,-49.3986 595.1246,-50.0002 593.1911,-43.2725"/>
</g>
<!-- Node286 -->
<g id="node21" class="node">
<title>Node286</title>
<g id="a_node21"><a xlink:href="../../da/d89/class_mavlink_receiver.html#ac939c806679dc4278968b1d3e865cc72" target="_top" xlink:title="MavlinkReceiver::handle\l_message">
<polygon fill="#ffffff" stroke="#000000" points="806,-49.5 806,-79.5 930,-79.5 930,-49.5 806,-49.5"/>
<text text-anchor="start" x="814" y="-67.5" font-family="Helvetica,sans-Serif" font-size="10.00" fill="#000000">MavlinkReceiver::handle</text>
<text text-anchor="middle" x="868" y="-56.5" font-family="Helvetica,sans-Serif" font-size="10.00" fill="#000000">_message</text>
</a>
</g>
</g>
<!-- Node285&#45;&gt;Node286 -->
<g id="edge24" class="edge">
<title>Node285&#45;&gt;Node286</title>
<path fill="none" stroke="#191970" d="M779.3567,-64.5C788.2846,-64.5 797.3045,-64.5 805.9978,-64.5"/>
<polygon fill="#191970" stroke="#191970" points="779.3382,-61.0001 769.3381,-64.5 779.3381,-68.0001 779.3382,-61.0001"/>
</g>
<!-- Node287 -->
<g id="node22" class="node">
<title>Node287</title>
<g id="a_node22"><a xlink:href="../../da/d89/class_mavlink_receiver.html#a2a2904ed386bbb6a4ff3528527006a58" target="_top" xlink:title="Receive data from UART/UDP. ">
<polygon fill="#ffffff" stroke="#000000" points="966,-55 966,-74 1079,-74 1079,-55 966,-55"/>
<text text-anchor="middle" x="1022.5" y="-62" font-family="Helvetica,sans-Serif" font-size="10.00" fill="#000000">MavlinkReceiver::Run</text>
</a>
</g>
</g>
<!-- Node286&#45;&gt;Node287 -->
<g id="edge25" class="edge">
<title>Node286&#45;&gt;Node287</title>
<path fill="none" stroke="#191970" d="M940.6549,-64.5C949.118,-64.5 957.6549,-64.5 965.8575,-64.5"/>
<polygon fill="#191970" stroke="#191970" points="940.3958,-61.0001 930.3957,-64.5 940.3957,-68.0001 940.3958,-61.0001"/>
</g>
<!-- Node288 -->
<g id="node23" class="node">
<title>Node288</title>
<g id="a_node23"><a xlink:href="../../da/d89/class_mavlink_receiver.html#a4e6d064186fe746bc3934959a991a908" target="_top" xlink:title="MavlinkReceiver::start\l_helper">
<polygon fill="#ffffff" stroke="#000000" points="1115,-49.5 1115,-79.5 1230,-79.5 1230,-49.5 1115,-49.5"/>
<text text-anchor="start" x="1123" y="-67.5" font-family="Helvetica,sans-Serif" font-size="10.00" fill="#000000">MavlinkReceiver::start</text>
<text text-anchor="middle" x="1172.5" y="-56.5" font-family="Helvetica,sans-Serif" font-size="10.00" fill="#000000">_helper</text>
</a>
</g>
</g>
<!-- Node287&#45;&gt;Node288 -->
<g id="edge26" class="edge">
<title>Node287&#45;&gt;Node288</title>
<path fill="none" stroke="#191970" d="M1089.4079,-64.5C1097.8497,-64.5 1106.4299,-64.5 1114.7139,-64.5"/>
<polygon fill="#191970" stroke="#191970" points="1089.2086,-61.0001 1079.2086,-64.5 1089.2085,-68.0001 1089.2086,-61.0001"/>
</g>
<!-- Node289 -->
<g id="node24" class="node">
<title>Node289</title>
<g id="a_node24"><a xlink:href="../../da/d89/class_mavlink_receiver.html#aae6564d759626eeebeb19a9dfbdcaf6d" target="_top" xlink:title="Start the receiver thread. ">
<polygon fill="#ffffff" stroke="#000000" points="1266,-49.5 1266,-79.5 1393,-79.5 1393,-49.5 1266,-49.5"/>
<text text-anchor="start" x="1274" y="-67.5" font-family="Helvetica,sans-Serif" font-size="10.00" fill="#000000">MavlinkReceiver::receive</text>
<text text-anchor="middle" x="1329.5" y="-56.5" font-family="Helvetica,sans-Serif" font-size="10.00" fill="#000000">_start</text>
</a>
</g>
</g>
<!-- Node288&#45;&gt;Node289 -->
<g id="edge27" class="edge">
<title>Node288&#45;&gt;Node289</title>
<path fill="none" stroke="#191970" d="M1240.3019,-64.5C1248.782,-64.5 1257.4318,-64.5 1265.8454,-64.5"/>
<polygon fill="#191970" stroke="#191970" points="1240.0695,-61.0001 1230.0695,-64.5 1240.0695,-68.0001 1240.0695,-61.0001"/>
</g>
<!-- Node289&#45;&gt;Node280 -->
<g id="edge28" class="edge">
<title>Node289&#45;&gt;Node280</title>
<path fill="none" stroke="#191970" d="M1403.2854,-75.3219C1411.9828,-76.5975 1420.702,-77.8763 1428.9749,-79.0897"/>
<polygon fill="#191970" stroke="#191970" points="1403.5156,-71.8183 1393.1135,-73.83 1402.4997,-78.7442 1403.5156,-71.8183"/>
</g>
<!-- Node290&#45;&gt;Node286 -->
<g id="edge30" class="edge">
<title>Node290&#45;&gt;Node286</title>
<path fill="none" stroke="#191970" d="M763.1844,-33.467C780.9168,-38.717 800.1075,-44.3989 817.1625,-49.4484"/>
<polygon fill="#191970" stroke="#191970" points="764.0881,-30.0844 753.5059,-30.6014 762.1008,-36.7964 764.0881,-30.0844"/>
</g>
</g>
</svg>
