<?xml version="1.0" encoding="UTF-8" standalone="no"?>
<!DOCTYPE svg PUBLIC "-//W3C//DTD SVG 1.1//EN"
 "http://www.w3.org/Graphics/SVG/1.1/DTD/svg11.dtd">
<!-- Generated by graphviz version 2.40.1 (20161225.0304)
 -->
<!-- Title: PAW3902::print_info Pages: 1 -->
<svg width="476pt" height="28pt"
 viewBox="0.00 0.00 476.00 28.00" xmlns="http://www.w3.org/2000/svg" xmlns:xlink="http://www.w3.org/1999/xlink">
<g id="graph0" class="graph" transform="scale(1 1) rotate(0) translate(4 24)">
<title>PAW3902::print_info</title>
<polygon fill="#ffffff" stroke="transparent" points="-4,4 -4,-24 472,-24 472,4 -4,4"/>
<!-- Node195 -->
<g id="node1" class="node">
<title>Node195</title>
<polygon fill="#bfbfbf" stroke="#000000" points="0,-.5 0,-19.5 107,-19.5 107,-.5 0,-.5"/>
<text text-anchor="middle" x="53.5" y="-7.5" font-family="Helvetica,sans-Serif" font-size="10.00" fill="#000000">PAW3902::print_info</text>
</g>
<!-- Node196 -->
<g id="node2" class="node">
<title>Node196</title>
<g id="a_node2"><a xlink:href="../../d6/d91/namespacepmw3902.html#a1355ebea179789132e0a9404b928dfb3" target="_top" xlink:title="Print a little info about the driver. ">
<polygon fill="#ffffff" stroke="#000000" points="143,-.5 143,-19.5 223,-19.5 223,-.5 143,-.5"/>
<text text-anchor="middle" x="183" y="-7.5" font-family="Helvetica,sans-Serif" font-size="10.00" fill="#000000">pmw3902::info</text>
</a>
</g>
</g>
<!-- Node195&#45;&gt;Node196 -->
<g id="edge1" class="edge">
<title>Node195&#45;&gt;Node196</title>
<path fill="none" stroke="#191970" d="M117.4637,-10C126.1658,-10 134.8868,-10 142.9979,-10"/>
<polygon fill="#191970" stroke="#191970" points="117.2947,-6.5001 107.2946,-10 117.2946,-13.5001 117.2947,-6.5001"/>
</g>
<!-- Node197 -->
<g id="node3" class="node">
<title>Node197</title>
<g id="a_node3"><a xlink:href="../../d6/d05/paw3902__main_8cpp.html#a0d2673fad633bf4e7f4142363f0bf3a8" target="_top" xlink:title="paw3902_main">
<polygon fill="#ffffff" stroke="#000000" points="259,-.5 259,-19.5 341,-19.5 341,-.5 259,-.5"/>
<text text-anchor="middle" x="300" y="-7.5" font-family="Helvetica,sans-Serif" font-size="10.00" fill="#000000">paw3902_main</text>
</a>
</g>
</g>
<!-- Node196&#45;&gt;Node197 -->
<g id="edge2" class="edge">
<title>Node196&#45;&gt;Node197</title>
<path fill="none" stroke="#191970" d="M233.4515,-10C241.9369,-10 250.6525,-10 258.8659,-10"/>
<polygon fill="#191970" stroke="#191970" points="233.2648,-6.5001 223.2648,-10 233.2647,-13.5001 233.2648,-6.5001"/>
</g>
<!-- Node198 -->
<g id="node4" class="node">
<title>Node198</title>
<g id="a_node4"><a xlink:href="../../d6/d91/namespacepmw3902.html#ad5a23e9fa0d352f66869a4aaa7acb17f" target="_top" xlink:title="Print a little info about how to start/stop/use the driver. ">
<polygon fill="#ffffff" stroke="#000000" points="377,-.5 377,-19.5 468,-19.5 468,-.5 377,-.5"/>
<text text-anchor="middle" x="422.5" y="-7.5" font-family="Helvetica,sans-Serif" font-size="10.00" fill="#000000">pmw3902::usage</text>
</a>
</g>
</g>
<!-- Node197&#45;&gt;Node198 -->
<g id="edge3" class="edge">
<title>Node197&#45;&gt;Node198</title>
<path fill="none" stroke="#191970" d="M351.2344,-3.3309C359.6591,-3.1937 368.3436,-3.231 376.6269,-3.4427"/>
<polygon fill="#191970" stroke="#191970" points="351.0404,.1655 341.1315,-3.5846 351.2163,-6.8323 351.0404,.1655"/>
</g>
<!-- Node198&#45;&gt;Node197 -->
<g id="edge4" class="edge">
<title>Node198&#45;&gt;Node197</title>
<path fill="none" stroke="#191970" d="M366.3685,-16.729C357.8683,-16.7989 349.2356,-16.6943 341.1315,-16.4154"/>
<polygon fill="#191970" stroke="#191970" points="366.6869,-20.2243 376.6269,-16.5573 366.5697,-13.2252 366.6869,-20.2243"/>
</g>
</g>
</svg>
