<?xml version="1.0" encoding="UTF-8" standalone="no"?>
<!DOCTYPE svg PUBLIC "-//W3C//DTD SVG 1.1//EN"
 "http://www.w3.org/Graphics/SVG/1.1/DTD/svg11.dtd">
<!-- Generated by graphviz version 2.40.1 (20161225.0304)
 -->
<!-- Title: vmount::InputMavlinkROI::initialize Pages: 1 -->
<svg width="1427pt" height="754pt"
 viewBox="0.00 0.00 1427.00 754.00" xmlns="http://www.w3.org/2000/svg" xmlns:xlink="http://www.w3.org/1999/xlink">
<g id="graph0" class="graph" transform="scale(1 1) rotate(0) translate(4 750)">
<title>vmount::InputMavlinkROI::initialize</title>
<polygon fill="#ffffff" stroke="transparent" points="-4,4 -4,-750 1423,-750 1423,4 -4,4"/>
<!-- Node24 -->
<g id="node1" class="node">
<title>Node24</title>
<polygon fill="#bfbfbf" stroke="#000000" points="0,-213 0,-243 128,-243 128,-213 0,-213"/>
<text text-anchor="start" x="8" y="-231" font-family="Helvetica,sans-Serif" font-size="10.00" fill="#000000">vmount::InputMavlinkROI</text>
<text text-anchor="middle" x="64" y="-220" font-family="Helvetica,sans-Serif" font-size="10.00" fill="#000000">::initialize</text>
</g>
<!-- Node25 -->
<g id="node2" class="node">
<title>Node25</title>
<g id="a_node2"><a xlink:href="../../d9/d97/u_o_r_b_8cpp.html#a196a292b740589eff958aa42c4e96ef5" target="_top" xlink:title="orb_subscribe">
<polygon fill="#ffffff" stroke="#000000" points="164,-218.5 164,-237.5 241,-237.5 241,-218.5 164,-218.5"/>
<text text-anchor="middle" x="202.5" y="-225.5" font-family="Helvetica,sans-Serif" font-size="10.00" fill="#000000">orb_subscribe</text>
</a>
</g>
</g>
<!-- Node24&#45;&gt;Node25 -->
<g id="edge1" class="edge">
<title>Node24&#45;&gt;Node25</title>
<path fill="none" stroke="#191970" d="M128.3844,-228C136.9276,-228 145.5701,-228 153.7882,-228"/>
<polygon fill="#191970" stroke="#191970" points="153.9316,-231.5001 163.9315,-228 153.9315,-224.5001 153.9316,-231.5001"/>
</g>
<!-- Node26 -->
<g id="node3" class="node">
<title>Node26</title>
<g id="a_node3"><a xlink:href="../../d3/da9/classu_o_r_b_1_1_manager.html#a9d829b3ea49d16d03c2fa37ef2bb24a5" target="_top" xlink:title="Method to get the singleton instance for the uORB::Manager. ">
<polygon fill="#ffffff" stroke="#000000" points="436.5,-285 436.5,-315 543.5,-315 543.5,-285 436.5,-285"/>
<text text-anchor="start" x="444.5" y="-303" font-family="Helvetica,sans-Serif" font-size="10.00" fill="#000000">uORB::Manager::get</text>
<text text-anchor="middle" x="490" y="-292" font-family="Helvetica,sans-Serif" font-size="10.00" fill="#000000">_instance</text>
</a>
</g>
</g>
<!-- Node25&#45;&gt;Node26 -->
<g id="edge2" class="edge">
<title>Node25&#45;&gt;Node26</title>
<path fill="none" stroke="#191970" d="M240.6778,-237.561C288.0846,-249.4334 369.6322,-269.8557 426.5096,-284.0998"/>
<polygon fill="#191970" stroke="#191970" points="425.9243,-287.5612 436.4751,-286.5955 427.6249,-280.7709 425.9243,-287.5612"/>
</g>
<!-- Node28 -->
<g id="node5" class="node">
<title>Node28</title>
<g id="a_node5"><a xlink:href="../../d3/da9/classu_o_r_b_1_1_manager.html#ae54072a80ad4de6d127e2dad8182b8fb" target="_top" xlink:title="Subscribe to a topic. ">
<polygon fill="#ffffff" stroke="#000000" points="277,-191 277,-221 384,-221 384,-191 277,-191"/>
<text text-anchor="start" x="285" y="-209" font-family="Helvetica,sans-Serif" font-size="10.00" fill="#000000">uORB::Manager::orb</text>
<text text-anchor="middle" x="330.5" y="-198" font-family="Helvetica,sans-Serif" font-size="10.00" fill="#000000">_subscribe</text>
</a>
</g>
</g>
<!-- Node25&#45;&gt;Node28 -->
<g id="edge4" class="edge">
<title>Node25&#45;&gt;Node28</title>
<path fill="none" stroke="#191970" d="M241.2516,-221.3396C249.2904,-219.9579 257.9621,-218.4675 266.6306,-216.9776"/>
<polygon fill="#191970" stroke="#191970" points="267.5044,-220.3788 276.767,-215.2354 266.3187,-213.4799 267.5044,-220.3788"/>
</g>
<!-- Node27 -->
<g id="node4" class="node">
<title>Node27</title>
<g id="a_node4"><a xlink:href="../../d3/da9/classu_o_r_b_1_1_manager.html#a083331e24ac4f99ac11a0aab1b1681b4" target="_top" xlink:title="Get the DeviceMaster. ">
<polygon fill="#ffffff" stroke="#000000" points="785.5,-290 785.5,-320 892.5,-320 892.5,-290 785.5,-290"/>
<text text-anchor="start" x="793.5" y="-308" font-family="Helvetica,sans-Serif" font-size="10.00" fill="#000000">uORB::Manager::get</text>
<text text-anchor="middle" x="839" y="-297" font-family="Helvetica,sans-Serif" font-size="10.00" fill="#000000">_device_master</text>
</a>
</g>
</g>
<!-- Node26&#45;&gt;Node27 -->
<g id="edge3" class="edge">
<title>Node26&#45;&gt;Node27</title>
<path fill="none" stroke="#191970" d="M529.886,-315.0673C549.4915,-321.6887 573.6552,-328.7007 596,-332 662.831,-341.8678 681.1457,-341.7088 748,-332 761.1256,-330.0939 774.9927,-326.7175 787.8377,-322.9838"/>
<polygon fill="#191970" stroke="#191970" points="788.8761,-326.3264 797.4319,-320.0774 786.8466,-319.6271 788.8761,-326.3264"/>
</g>
<!-- Node29 -->
<g id="node6" class="node">
<title>Node29</title>
<g id="a_node6"><a xlink:href="../../d3/da9/classu_o_r_b_1_1_manager.html#a2199a294303a3bf2351d75738a0e2654" target="_top" xlink:title="Common implementation for orb_advertise and orb_subscribe. ">
<polygon fill="#ffffff" stroke="#000000" points="420,-196.5 420,-215.5 560,-215.5 560,-196.5 420,-196.5"/>
<text text-anchor="middle" x="490" y="-203.5" font-family="Helvetica,sans-Serif" font-size="10.00" fill="#000000">uORB::Manager::node_open</text>
</a>
</g>
</g>
<!-- Node28&#45;&gt;Node29 -->
<g id="edge5" class="edge">
<title>Node28&#45;&gt;Node29</title>
<path fill="none" stroke="#191970" d="M384.0549,-206C392.3159,-206 400.9988,-206 409.6906,-206"/>
<polygon fill="#191970" stroke="#191970" points="409.8733,-209.5001 419.8733,-206 409.8732,-202.5001 409.8733,-209.5001"/>
</g>
<!-- Node29&#45;&gt;Node27 -->
<g id="edge6" class="edge">
<title>Node29&#45;&gt;Node27</title>
<path fill="none" stroke="#191970" d="M507.4962,-215.6147C528.1071,-226.5767 563.6472,-244.3516 596,-255 655.5181,-274.5895 725.864,-288.0613 775.511,-296.0424"/>
<polygon fill="#191970" stroke="#191970" points="775.0436,-299.5119 785.4671,-297.6139 776.1351,-292.5975 775.0436,-299.5119"/>
</g>
<!-- Node30 -->
<g id="node7" class="node">
<title>Node30</title>
<g id="a_node7"><a xlink:href="../../dd/d9d/classu_o_r_b_1_1_device_master.html#a793df66a48dcabdd0f5bd8c85beee13c" target="_top" xlink:title="Public interface for getDeviceNodeLocked(). ">
<polygon fill="#ffffff" stroke="#000000" points="617,-167 617,-197 727,-197 727,-167 617,-167"/>
<text text-anchor="start" x="625" y="-185" font-family="Helvetica,sans-Serif" font-size="10.00" fill="#000000">uORB::DeviceMaster</text>
<text text-anchor="middle" x="672" y="-174" font-family="Helvetica,sans-Serif" font-size="10.00" fill="#000000">::getDeviceNode</text>
</a>
</g>
</g>
<!-- Node29&#45;&gt;Node30 -->
<g id="edge7" class="edge">
<title>Node29&#45;&gt;Node30</title>
<path fill="none" stroke="#191970" d="M560.1056,-196.7553C575.4015,-194.7383 591.53,-192.6114 606.6329,-190.6198"/>
<polygon fill="#191970" stroke="#191970" points="607.4455,-194.0431 616.902,-189.2657 606.5302,-187.1032 607.4455,-194.0431"/>
</g>
<!-- Node33 -->
<g id="node10" class="node">
<title>Node33</title>
<g id="a_node10"><a xlink:href="../../d3/da9/classu_o_r_b_1_1_manager.html#a1cf62cf5347947d12094e9b8e50b2121" target="_top" xlink:title="Advertise a node; don&#39;t consider it an error if the node has already been advertised. ">
<polygon fill="#ffffff" stroke="#000000" points="615,-216 615,-246 729,-246 729,-216 615,-216"/>
<text text-anchor="start" x="623" y="-234" font-family="Helvetica,sans-Serif" font-size="10.00" fill="#000000">uORB::Manager::node</text>
<text text-anchor="middle" x="672" y="-223" font-family="Helvetica,sans-Serif" font-size="10.00" fill="#000000">_advertise</text>
</a>
</g>
</g>
<!-- Node29&#45;&gt;Node33 -->
<g id="edge10" class="edge">
<title>Node29&#45;&gt;Node33</title>
<path fill="none" stroke="#191970" d="M559.3256,-215.5227C574.262,-217.5745 590.0257,-219.7398 604.8764,-221.7797"/>
<polygon fill="#191970" stroke="#191970" points="604.6071,-225.2755 614.9904,-223.169 605.5597,-218.3406 604.6071,-225.2755"/>
</g>
<!-- Node49 -->
<g id="node22" class="node">
<title>Node49</title>
<g id="a_node22"><a xlink:href="../../d6/d20/classu_o_r_b_1_1_utils.html#a83fea5453fe535f1b39fd7b7a1c858aa" target="_top" xlink:title="uORB::Utils::node_mkpath">
<polygon fill="#ffffff" stroke="#000000" points="930,-114.5 930,-133.5 1064,-133.5 1064,-114.5 930,-114.5"/>
<text text-anchor="middle" x="997" y="-121.5" font-family="Helvetica,sans-Serif" font-size="10.00" fill="#000000">uORB::Utils::node_mkpath</text>
</a>
</g>
</g>
<!-- Node29&#45;&gt;Node49 -->
<g id="edge34" class="edge">
<title>Node29&#45;&gt;Node49</title>
<path fill="none" stroke="#191970" d="M506.6359,-196.3504C527.0014,-185.0072 562.8765,-166.5244 596,-157 705.2845,-125.576 837.7297,-120.7727 919.6906,-121.4408"/>
<polygon fill="#191970" stroke="#191970" points="919.8857,-124.9431 929.9241,-121.5549 919.9638,-117.9436 919.8857,-124.9431"/>
</g>
<!-- Node73 -->
<g id="node31" class="node">
<title>Node73</title>
<g id="a_node31"><a xlink:href="../../da/dc9/posix_2cdev__platform_8cpp.html#ae90495d7ed25116c6e19cd9163d8ed02" target="_top" xlink:title="px4_open">
<polygon fill="#ffffff" stroke="#000000" points="809.5,-52.5 809.5,-71.5 868.5,-71.5 868.5,-52.5 809.5,-52.5"/>
<text text-anchor="middle" x="839" y="-59.5" font-family="Helvetica,sans-Serif" font-size="10.00" fill="#000000">px4_open</text>
</a>
</g>
</g>
<!-- Node29&#45;&gt;Node73 -->
<g id="edge35" class="edge">
<title>Node29&#45;&gt;Node73</title>
<path fill="none" stroke="#191970" d="M496.3366,-196.3881C511.0024,-175.0158 549.5992,-123.5852 596,-100 661.5664,-66.673 748.9116,-60.9904 799.045,-60.8393"/>
<polygon fill="#191970" stroke="#191970" points="799.1418,-64.3396 809.1569,-60.883 799.1721,-57.3397 799.1418,-64.3396"/>
</g>
<!-- Node79 -->
<g id="node37" class="node">
<title>Node79</title>
<g id="a_node37"><a xlink:href="../../d9/d8a/classu_o_r_b_communicator_1_1_i_channel.html#aba1c6e430848e447334c5be5c06e1d14" target="_top" xlink:title="Register Message Handler. ">
<polygon fill="#ffffff" stroke="#000000" points="596,-17 596,-47 748,-47 748,-17 596,-17"/>
<text text-anchor="start" x="604" y="-35" font-family="Helvetica,sans-Serif" font-size="10.00" fill="#000000">uORBCommunicator::IChannel</text>
<text text-anchor="middle" x="672" y="-24" font-family="Helvetica,sans-Serif" font-size="10.00" fill="#000000">::register_handler</text>
</a>
</g>
</g>
<!-- Node29&#45;&gt;Node79 -->
<g id="edge44" class="edge">
<title>Node29&#45;&gt;Node79</title>
<path fill="none" stroke="#191970" d="M494.7524,-196.1307C507.5692,-170.4817 545.3288,-101.0106 596,-62 601.0896,-58.0816 606.7565,-54.6108 612.6372,-51.5518"/>
<polygon fill="#191970" stroke="#191970" points="614.4871,-54.547 622.0021,-47.0787 611.4701,-48.2306 614.4871,-54.547"/>
</g>
<!-- Node80 -->
<g id="node38" class="node">
<title>Node80</title>
<g id="a_node38"><a xlink:href="../../d6/d47/dataman_8cpp.html#a1a2cdf68c15e00b9b2b48792edcdd43c" target="_top" xlink:title="start">
<polygon fill="#ffffff" stroke="#000000" points="654,-303.5 654,-322.5 690,-322.5 690,-303.5 654,-303.5"/>
<text text-anchor="middle" x="672" y="-310.5" font-family="Helvetica,sans-Serif" font-size="10.00" fill="#000000">start</text>
</a>
</g>
</g>
<!-- Node29&#45;&gt;Node80 -->
<g id="edge45" class="edge">
<title>Node29&#45;&gt;Node80</title>
<path fill="none" stroke="#191970" d="M499.6701,-215.5767C517.3541,-232.6029 556.7144,-268.2927 596,-289 610.9716,-296.8915 628.9858,-302.7208 643.7176,-306.657"/>
<polygon fill="#191970" stroke="#191970" points="643.222,-310.1414 653.7741,-309.191 644.9324,-303.3536 643.222,-310.1414"/>
</g>
<!-- Node31 -->
<g id="node8" class="node">
<title>Node31</title>
<g id="a_node8"><a xlink:href="../../dd/d9d/classu_o_r_b_1_1_device_master.html#a7e0c3156fdf5875a74d1ad727930a70a" target="_top" xlink:title="uORB::DeviceMaster\l::lock">
<polygon fill="#ffffff" stroke="#000000" points="784,-143 784,-173 894,-173 894,-143 784,-143"/>
<text text-anchor="start" x="792" y="-161" font-family="Helvetica,sans-Serif" font-size="10.00" fill="#000000">uORB::DeviceMaster</text>
<text text-anchor="middle" x="839" y="-150" font-family="Helvetica,sans-Serif" font-size="10.00" fill="#000000">::lock</text>
</a>
</g>
</g>
<!-- Node30&#45;&gt;Node31 -->
<g id="edge8" class="edge">
<title>Node30&#45;&gt;Node31</title>
<path fill="none" stroke="#191970" d="M727.1449,-174.075C742.1084,-171.9245 758.4505,-169.576 773.9071,-167.3547"/>
<polygon fill="#191970" stroke="#191970" points="774.5126,-170.8037 783.913,-165.9167 773.5168,-163.8749 774.5126,-170.8037"/>
</g>
<!-- Node32 -->
<g id="node9" class="node">
<title>Node32</title>
<g id="a_node9"><a xlink:href="../../dd/d9d/classu_o_r_b_1_1_device_master.html#a5b85000ee723a160ca6ea6bce730efc3" target="_top" xlink:title="uORB::DeviceMaster\l::unlock">
<polygon fill="#ffffff" stroke="#000000" points="784,-192 784,-222 894,-222 894,-192 784,-192"/>
<text text-anchor="start" x="792" y="-210" font-family="Helvetica,sans-Serif" font-size="10.00" fill="#000000">uORB::DeviceMaster</text>
<text text-anchor="middle" x="839" y="-199" font-family="Helvetica,sans-Serif" font-size="10.00" fill="#000000">::unlock</text>
</a>
</g>
</g>
<!-- Node30&#45;&gt;Node32 -->
<g id="edge9" class="edge">
<title>Node30&#45;&gt;Node32</title>
<path fill="none" stroke="#191970" d="M727.1449,-190.2552C742.1084,-192.4953 758.4505,-194.9417 773.9071,-197.2556"/>
<polygon fill="#191970" stroke="#191970" points="773.505,-200.7343 783.913,-198.7534 774.5414,-193.8114 773.505,-200.7343"/>
</g>
<!-- Node33&#45;&gt;Node27 -->
<g id="edge33" class="edge">
<title>Node33&#45;&gt;Node27</title>
<path fill="none" stroke="#191970" d="M712.5783,-246.0675C724.1325,-250.6133 736.6575,-255.7872 748,-261 764.4387,-268.5549 767.7579,-272.0311 784,-280 787.8137,-281.8711 791.7972,-283.7759 795.8014,-285.6569"/>
<polygon fill="#191970" stroke="#191970" points="794.5676,-288.9427 805.112,-289.9755 797.5131,-282.5926 794.5676,-288.9427"/>
</g>
<!-- Node34 -->
<g id="node11" class="node">
<title>Node34</title>
<g id="a_node11"><a xlink:href="../../dd/d9d/classu_o_r_b_1_1_device_master.html#a722d86a2e0c4b133a64f3fe835c98d4e" target="_top" xlink:title="uORB::DeviceMaster\l::advertise">
<polygon fill="#ffffff" stroke="#000000" points="784,-241 784,-271 894,-271 894,-241 784,-241"/>
<text text-anchor="start" x="792" y="-259" font-family="Helvetica,sans-Serif" font-size="10.00" fill="#000000">uORB::DeviceMaster</text>
<text text-anchor="middle" x="839" y="-248" font-family="Helvetica,sans-Serif" font-size="10.00" fill="#000000">::advertise</text>
</a>
</g>
</g>
<!-- Node33&#45;&gt;Node34 -->
<g id="edge11" class="edge">
<title>Node33&#45;&gt;Node34</title>
<path fill="none" stroke="#191970" d="M729.0048,-239.5337C743.4381,-241.6943 759.0496,-244.0314 773.8517,-246.2473"/>
<polygon fill="#191970" stroke="#191970" points="773.5376,-249.7392 783.9456,-247.7583 774.574,-242.8163 773.5376,-249.7392"/>
</g>
<!-- Node35 -->
<g id="node12" class="node">
<title>Node35</title>
<g id="a_node12"><a xlink:href="../../dd/d9d/classu_o_r_b_1_1_device_master.html#a1c0250b5d2791efa66024cc67375b0f1" target="_top" xlink:title="Find a node give its name. ">
<polygon fill="#ffffff" stroke="#000000" points="936,-153 936,-183 1058,-183 1058,-153 936,-153"/>
<text text-anchor="start" x="944" y="-171" font-family="Helvetica,sans-Serif" font-size="10.00" fill="#000000">uORB::DeviceMaster</text>
<text text-anchor="middle" x="997" y="-160" font-family="Helvetica,sans-Serif" font-size="10.00" fill="#000000">::getDeviceNodeLocked</text>
</a>
</g>
</g>
<!-- Node34&#45;&gt;Node35 -->
<g id="edge12" class="edge">
<title>Node34&#45;&gt;Node35</title>
<path fill="none" stroke="#191970" d="M877.3423,-240.9021C883.1331,-237.9687 888.8763,-234.6542 894,-231 912.9409,-217.4916 910.6013,-205.8423 930,-193 932.9359,-191.0564 936.0435,-189.2366 939.2488,-187.5371"/>
<polygon fill="#191970" stroke="#191970" points="941.0072,-190.5743 948.479,-183.0629 937.9538,-184.2754 941.0072,-190.5743"/>
</g>
<!-- Node36 -->
<g id="node13" class="node">
<title>Node36</title>
<g id="a_node13"><a xlink:href="../../d8/d26/classcdev_1_1_c_dev.html#a04ad8e5b517724c106e06b45e86a2445" target="_top" xlink:title="cdev::CDev::init">
<polygon fill="#ffffff" stroke="#000000" points="953,-202.5 953,-221.5 1041,-221.5 1041,-202.5 953,-202.5"/>
<text text-anchor="middle" x="997" y="-209.5" font-family="Helvetica,sans-Serif" font-size="10.00" fill="#000000">cdev::CDev::init</text>
</a>
</g>
</g>
<!-- Node34&#45;&gt;Node36 -->
<g id="edge13" class="edge">
<title>Node34&#45;&gt;Node36</title>
<path fill="none" stroke="#191970" d="M892.9327,-240.9808C912.4835,-235.5362 934.3193,-229.4554 952.9211,-224.2751"/>
<polygon fill="#191970" stroke="#191970" points="953.9108,-227.6328 962.6053,-221.5783 952.0328,-220.8894 953.9108,-227.6328"/>
</g>
<!-- Node38 -->
<g id="node15" class="node">
<title>Node38</title>
<g id="a_node15"><a xlink:href="../../d0/d18/classu_o_r_b_1_1_device_node.html#a16d1880bc99853428a8d8a240f24857b" target="_top" xlink:title="Return true if this topic has been advertised. ">
<polygon fill="#ffffff" stroke="#000000" points="938.5,-241 938.5,-271 1055.5,-271 1055.5,-241 938.5,-241"/>
<text text-anchor="start" x="946.5" y="-259" font-family="Helvetica,sans-Serif" font-size="10.00" fill="#000000">uORB::DeviceNode::is</text>
<text text-anchor="middle" x="997" y="-248" font-family="Helvetica,sans-Serif" font-size="10.00" fill="#000000">_advertised</text>
</a>
</g>
</g>
<!-- Node34&#45;&gt;Node38 -->
<g id="edge15" class="edge">
<title>Node34&#45;&gt;Node38</title>
<path fill="none" stroke="#191970" d="M894.2607,-256C905.1619,-256 916.728,-256 928.0167,-256"/>
<polygon fill="#191970" stroke="#191970" points="928.279,-259.5001 938.2789,-256 928.2789,-252.5001 928.279,-259.5001"/>
</g>
<!-- Node39 -->
<g id="node16" class="node">
<title>Node39</title>
<g id="a_node16"><a xlink:href="../../d0/d18/classu_o_r_b_1_1_device_node.html#a5d9144fd43c624636a633d9dc288061a" target="_top" xlink:title="uORB::DeviceNode::mark\l_as_advertised">
<polygon fill="#ffffff" stroke="#000000" points="931.5,-403 931.5,-433 1062.5,-433 1062.5,-403 931.5,-403"/>
<text text-anchor="start" x="939.5" y="-421" font-family="Helvetica,sans-Serif" font-size="10.00" fill="#000000">uORB::DeviceNode::mark</text>
<text text-anchor="middle" x="997" y="-410" font-family="Helvetica,sans-Serif" font-size="10.00" fill="#000000">_as_advertised</text>
</a>
</g>
</g>
<!-- Node34&#45;&gt;Node39 -->
<g id="edge16" class="edge">
<title>Node34&#45;&gt;Node39</title>
<path fill="none" stroke="#191970" d="M880.3369,-271.1402C885.1701,-273.7345 889.8496,-276.6826 894,-280 915.1091,-296.8724 913.8733,-307.3159 930,-329 946.6632,-351.4055 965.8413,-376.8462 979.3978,-394.7724"/>
<polygon fill="#191970" stroke="#191970" points="976.7401,-397.0606 985.5655,-402.9226 982.322,-392.8365 976.7401,-397.0606"/>
</g>
<!-- Node34&#45;&gt;Node49 -->
<g id="edge22" class="edge">
<title>Node34&#45;&gt;Node49</title>
<path fill="none" stroke="#191970" d="M881.1853,-240.9959C885.8764,-238.165 890.2906,-234.8543 894,-231 923.3026,-200.5528 898.4941,-171.1613 930,-143 931.7578,-141.4288 933.6366,-139.9867 935.6077,-138.6632"/>
<polygon fill="#191970" stroke="#191970" points="937.7079,-141.5005 944.7525,-133.5869 934.3105,-135.3802 937.7079,-141.5005"/>
</g>
<!-- Node50 -->
<g id="node23" class="node">
<title>Node50</title>
<g id="a_node23"><a xlink:href="../../d0/d18/classu_o_r_b_1_1_device_node.html#a96ecaee3f71270f247ecf838af94128c" target="_top" xlink:title="uORB::DeviceNode::set\l_priority">
<polygon fill="#ffffff" stroke="#000000" points="935.5,-290 935.5,-320 1058.5,-320 1058.5,-290 935.5,-290"/>
<text text-anchor="start" x="943.5" y="-308" font-family="Helvetica,sans-Serif" font-size="10.00" fill="#000000">uORB::DeviceNode::set</text>
<text text-anchor="middle" x="997" y="-297" font-family="Helvetica,sans-Serif" font-size="10.00" fill="#000000">_priority</text>
</a>
</g>
</g>
<!-- Node34&#45;&gt;Node50 -->
<g id="edge23" class="edge">
<title>Node34&#45;&gt;Node50</title>
<path fill="none" stroke="#191970" d="M887.6944,-271.1014C903.839,-276.1083 921.974,-281.7324 938.7624,-286.939"/>
<polygon fill="#191970" stroke="#191970" points="937.8784,-290.3292 948.4663,-289.9484 939.9519,-283.6433 937.8784,-290.3292"/>
</g>
<!-- Node37 -->
<g id="node14" class="node">
<title>Node37</title>
<g id="a_node14"><a xlink:href="../../da/dc9/posix_2cdev__platform_8cpp.html#aa770be826c3eeb8554e677a3a4c9c11c" target="_top" xlink:title="register_driver">
<polygon fill="#ffffff" stroke="#000000" points="1137,-76.5 1137,-95.5 1215,-95.5 1215,-76.5 1137,-76.5"/>
<text text-anchor="middle" x="1176" y="-83.5" font-family="Helvetica,sans-Serif" font-size="10.00" fill="#000000">register_driver</text>
</a>
</g>
</g>
<!-- Node36&#45;&gt;Node37 -->
<g id="edge14" class="edge">
<title>Node36&#45;&gt;Node37</title>
<path fill="none" stroke="#191970" d="M1041.0266,-204.9324C1049.3737,-202.0005 1057.512,-197.8563 1064,-192 1095.0633,-163.961 1068.3123,-132.3313 1100,-105 1107.6469,-98.4044 1117.2513,-94.0364 1127.0345,-91.1587"/>
<polygon fill="#191970" stroke="#191970" points="1127.9387,-94.5407 1136.8113,-88.7505 1126.2644,-87.7438 1127.9387,-94.5407"/>
</g>
<!-- Node40 -->
<g id="node17" class="node">
<title>Node40</title>
<g id="a_node17"><a xlink:href="../../d0/d18/classu_o_r_b_1_1_device_node.html#a4f8a7f487159aacf572cf049a8920f71" target="_top" xlink:title="Print statistics (nr of lost messages) ">
<polygon fill="#ffffff" stroke="#000000" points="1112,-311 1112,-341 1240,-341 1240,-311 1112,-311"/>
<text text-anchor="start" x="1120" y="-329" font-family="Helvetica,sans-Serif" font-size="10.00" fill="#000000">uORB::DeviceNode::print</text>
<text text-anchor="middle" x="1176" y="-318" font-family="Helvetica,sans-Serif" font-size="10.00" fill="#000000">_statistics</text>
</a>
</g>
</g>
<!-- Node39&#45;&gt;Node40 -->
<g id="edge17" class="edge">
<title>Node39&#45;&gt;Node40</title>
<path fill="none" stroke="#191970" d="M1026.5582,-402.8081C1056.9646,-387.1802 1104.454,-362.7723 1137.7168,-345.6763"/>
<polygon fill="#191970" stroke="#191970" points="1139.4013,-348.7458 1146.6954,-341.0616 1136.2014,-342.52 1139.4013,-348.7458"/>
</g>
<!-- Node43 -->
<g id="node20" class="node">
<title>Node43</title>
<g id="a_node20"><a xlink:href="../../d9/d4a/namespacelps22hb.html#a62b4635afb61929425ab4a9472893bca" target="_top" xlink:title="Reset the driver. ">
<polygon fill="#ffffff" stroke="#ff0000" points="1137,-486.5 1137,-505.5 1215,-505.5 1215,-486.5 1137,-486.5"/>
<text text-anchor="middle" x="1176" y="-493.5" font-family="Helvetica,sans-Serif" font-size="10.00" fill="#000000">lps22hb::reset</text>
</a>
</g>
</g>
<!-- Node39&#45;&gt;Node43 -->
<g id="edge20" class="edge">
<title>Node39&#45;&gt;Node43</title>
<path fill="none" stroke="#191970" d="M1019.3987,-433.2509C1039.6716,-446.4538 1070.7495,-465.2292 1100,-477 1108.5245,-480.4304 1117.8431,-483.3735 1126.9427,-485.8476"/>
<polygon fill="#191970" stroke="#191970" points="1126.1267,-489.2515 1136.6831,-488.349 1127.868,-482.4715 1126.1267,-489.2515"/>
</g>
<!-- Node48 -->
<g id="node21" class="node">
<title>Node48</title>
<g id="a_node21"><a xlink:href="../../d0/d18/classu_o_r_b_1_1_device_node.html#aa4a59b86caeebbdf513dd60fcee1f5ba" target="_top" xlink:title="Try to change the size of the queue. ">
<polygon fill="#ffffff" stroke="#000000" points="1106.5,-525 1106.5,-555 1245.5,-555 1245.5,-525 1106.5,-525"/>
<text text-anchor="start" x="1114.5" y="-543" font-family="Helvetica,sans-Serif" font-size="10.00" fill="#000000">uORB::DeviceNode::update</text>
<text text-anchor="middle" x="1176" y="-532" font-family="Helvetica,sans-Serif" font-size="10.00" fill="#000000">_queue_size</text>
</a>
</g>
</g>
<!-- Node39&#45;&gt;Node48 -->
<g id="edge21" class="edge">
<title>Node39&#45;&gt;Node48</title>
<path fill="none" stroke="#191970" d="M1009.3936,-433.3024C1027.3048,-454.4837 1062.4224,-492.6481 1100,-515 1103.4601,-517.0581 1107.1109,-518.9707 1110.8649,-520.7442"/>
<polygon fill="#191970" stroke="#191970" points="1109.7926,-524.0944 1120.359,-524.8703 1112.5827,-517.6745 1109.7926,-524.0944"/>
</g>
<!-- Node41 -->
<g id="node18" class="node">
<title>Node41</title>
<g id="a_node18"><a xlink:href="../../d8/d26/classcdev_1_1_c_dev.html#ae676cccee31dd393ab681414a146d868" target="_top" xlink:title="Take the driver lock. ">
<polygon fill="#ffffff" stroke="#000000" points="1307,-256.5 1307,-275.5 1400,-275.5 1400,-256.5 1307,-256.5"/>
<text text-anchor="middle" x="1353.5" y="-263.5" font-family="Helvetica,sans-Serif" font-size="10.00" fill="#000000">cdev::CDev::lock</text>
</a>
</g>
</g>
<!-- Node40&#45;&gt;Node41 -->
<g id="edge18" class="edge">
<title>Node40&#45;&gt;Node41</title>
<path fill="none" stroke="#191970" d="M1222.254,-310.9015C1232.0821,-307.6608 1242.3909,-304.237 1252,-301 1273.3601,-293.8044 1297.1875,-285.5975 1316.3856,-278.9401"/>
<polygon fill="#191970" stroke="#191970" points="1317.6669,-282.2002 1325.9654,-275.6135 1315.3706,-275.5876 1317.6669,-282.2002"/>
</g>
<!-- Node42 -->
<g id="node19" class="node">
<title>Node42</title>
<g id="a_node19"><a xlink:href="../../d8/d26/classcdev_1_1_c_dev.html#af65273e0578b277deea057dc7d558e9d" target="_top" xlink:title="Release the driver lock. ">
<polygon fill="#ffffff" stroke="#000000" points="1301.5,-98.5 1301.5,-117.5 1405.5,-117.5 1405.5,-98.5 1301.5,-98.5"/>
<text text-anchor="middle" x="1353.5" y="-105.5" font-family="Helvetica,sans-Serif" font-size="10.00" fill="#000000">cdev::CDev::unlock</text>
</a>
</g>
</g>
<!-- Node40&#45;&gt;Node42 -->
<g id="edge19" class="edge">
<title>Node40&#45;&gt;Node42</title>
<path fill="none" stroke="#191970" d="M1236.8181,-310.8911C1242.2683,-308.125 1247.4404,-304.8578 1252,-301 1266.778,-288.4965 1322.7319,-172.7763 1344.6335,-126.7507"/>
<polygon fill="#191970" stroke="#191970" points="1347.8608,-128.1136 1348.986,-117.5786 1341.5367,-125.1126 1347.8608,-128.1136"/>
</g>
<!-- Node51 -->
<g id="node24" class="node">
<title>Node51</title>
<g id="a_node24"><a xlink:href="../../d0/d18/classu_o_r_b_1_1_device_node.html#a89d9a792e1e38e04c65baba20f29d780" target="_top" xlink:title="Copies data and the corresponding generation from a node to the buffer provided. ">
<polygon fill="#ffffff" stroke="#000000" points="1110.5,-448.5 1110.5,-467.5 1241.5,-467.5 1241.5,-448.5 1110.5,-448.5"/>
<text text-anchor="middle" x="1176" y="-455.5" font-family="Helvetica,sans-Serif" font-size="10.00" fill="#000000">uORB::DeviceNode::copy</text>
</a>
</g>
</g>
<!-- Node50&#45;&gt;Node51 -->
<g id="edge24" class="edge">
<title>Node50&#45;&gt;Node51</title>
<path fill="none" stroke="#191970" d="M1008.5999,-320.2411C1034.8813,-354.7368 1096.9328,-435.9703 1100,-438 1103.8152,-440.5247 1107.9348,-442.7311 1112.2137,-444.6593"/>
<polygon fill="#191970" stroke="#191970" points="1111.1928,-448.0195 1121.7788,-448.4517 1113.7728,-441.5123 1111.1928,-448.0195"/>
</g>
<!-- Node52 -->
<g id="node25" class="node">
<title>Node52</title>
<g id="a_node25"><a xlink:href="../../d0/d18/classu_o_r_b_1_1_device_node.html#a78fb27934bdfd069855885da1be4bb5f" target="_top" xlink:title="Copies data and the corresponding generation from a node to the buffer provided. ">
<polygon fill="#ffffff" stroke="#000000" points="1288,-399 1288,-429 1419,-429 1419,-399 1288,-399"/>
<text text-anchor="start" x="1296" y="-417" font-family="Helvetica,sans-Serif" font-size="10.00" fill="#000000">uORB::DeviceNode::copy</text>
<text text-anchor="middle" x="1353.5" y="-406" font-family="Helvetica,sans-Serif" font-size="10.00" fill="#000000">_locked</text>
</a>
</g>
</g>
<!-- Node50&#45;&gt;Node52 -->
<g id="edge28" class="edge">
<title>Node50&#45;&gt;Node52</title>
<path fill="none" stroke="#191970" d="M1028.0244,-320.1527C1048.1978,-329.6039 1075.2587,-341.5366 1100,-350 1108.8318,-353.0212 1210.9999,-378.5893 1282.8964,-396.4783"/>
<polygon fill="#191970" stroke="#191970" points="1282.2784,-399.9311 1292.8275,-398.9484 1283.968,-393.1381 1282.2784,-399.9311"/>
</g>
<!-- Node53 -->
<g id="node26" class="node">
<title>Node53</title>
<g id="a_node26"><a xlink:href="../../d0/d18/classu_o_r_b_1_1_device_node.html#afa1a19f28e11e5ae8ed3aec81f744453" target="_top" xlink:title="Copies data and the corresponding generation from a node to the buffer provided. ">
<polygon fill="#ffffff" stroke="#000000" points="1110.5,-399 1110.5,-429 1241.5,-429 1241.5,-399 1110.5,-399"/>
<text text-anchor="start" x="1118.5" y="-417" font-family="Helvetica,sans-Serif" font-size="10.00" fill="#000000">uORB::DeviceNode::copy</text>
<text text-anchor="middle" x="1176" y="-406" font-family="Helvetica,sans-Serif" font-size="10.00" fill="#000000">_and_get_timestamp</text>
</a>
</g>
</g>
<!-- Node50&#45;&gt;Node53 -->
<g id="edge26" class="edge">
<title>Node50&#45;&gt;Node53</title>
<path fill="none" stroke="#191970" d="M1013.8158,-320.2832C1033.3957,-337.4898 1067.2487,-365.4593 1100,-384 1107.0209,-387.9746 1114.6734,-391.6638 1122.3303,-394.9984"/>
<polygon fill="#191970" stroke="#191970" points="1121.0539,-398.2583 1131.6302,-398.8853 1123.7533,-391.7997 1121.0539,-398.2583"/>
</g>
<!-- Node54 -->
<g id="node27" class="node">
<title>Node54</title>
<g id="a_node27"><a xlink:href="../../d0/d18/classu_o_r_b_1_1_device_node.html#a39a6d3f661b6bb593b2f14a960f11b87" target="_top" xlink:title="Internal implementation of poll_notify. ">
<polygon fill="#ffffff" stroke="#ff0000" points="1113.5,-262 1113.5,-292 1238.5,-292 1238.5,-262 1113.5,-262"/>
<text text-anchor="start" x="1121.5" y="-280" font-family="Helvetica,sans-Serif" font-size="10.00" fill="#000000">uORB::DeviceNode::poll</text>
<text text-anchor="middle" x="1176" y="-269" font-family="Helvetica,sans-Serif" font-size="10.00" fill="#000000">_notify_one</text>
</a>
</g>
</g>
<!-- Node50&#45;&gt;Node54 -->
<g id="edge29" class="edge">
<title>Node50&#45;&gt;Node54</title>
<path fill="none" stroke="#191970" d="M1058.6016,-295.364C1072.981,-293.1147 1088.4279,-290.6984 1103.2404,-288.3814"/>
<polygon fill="#191970" stroke="#191970" points="1104.034,-291.7999 1113.3729,-286.7964 1102.9521,-284.884 1104.034,-291.7999"/>
</g>
<!-- Node70 -->
<g id="node28" class="node">
<title>Node70</title>
<g id="a_node28"><a xlink:href="../../d0/d18/classu_o_r_b_1_1_device_node.html#a907b384e902e9252d5c11825e776b254" target="_top" xlink:title="Check the current state of the device for poll events from the perspective of the file...">
<polygon fill="#ffffff" stroke="#ff0000" points="1113.5,-213 1113.5,-243 1238.5,-243 1238.5,-213 1113.5,-213"/>
<text text-anchor="start" x="1121.5" y="-231" font-family="Helvetica,sans-Serif" font-size="10.00" fill="#000000">uORB::DeviceNode::poll</text>
<text text-anchor="middle" x="1176" y="-220" font-family="Helvetica,sans-Serif" font-size="10.00" fill="#000000">_state</text>
</a>
</g>
</g>
<!-- Node50&#45;&gt;Node70 -->
<g id="edge30" class="edge">
<title>Node50&#45;&gt;Node70</title>
<path fill="none" stroke="#191970" d="M1043.2454,-289.8607C1050.3595,-286.9326 1057.4954,-283.6306 1064,-280 1081.6994,-270.1209 1082.0533,-261.4223 1100,-252 1103.4839,-250.1709 1107.1315,-248.452 1110.8636,-246.8415"/>
<polygon fill="#191970" stroke="#191970" points="1112.2966,-250.0377 1120.2693,-243.06 1109.6854,-243.5429 1112.2966,-250.0377"/>
</g>
<!-- Node71 -->
<g id="node29" class="node">
<title>Node71</title>
<g id="a_node29"><a xlink:href="../../d0/d18/classu_o_r_b_1_1_device_node.html#a402819fd9ba1c33e39389a47406b5ff7" target="_top" xlink:title="uORB::DeviceNode::register\l_callback">
<polygon fill="#ffffff" stroke="#000000" points="1105,-164 1105,-194 1247,-194 1247,-164 1105,-164"/>
<text text-anchor="start" x="1113" y="-182" font-family="Helvetica,sans-Serif" font-size="10.00" fill="#000000">uORB::DeviceNode::register</text>
<text text-anchor="middle" x="1176" y="-171" font-family="Helvetica,sans-Serif" font-size="10.00" fill="#000000">_callback</text>
</a>
</g>
</g>
<!-- Node50&#45;&gt;Node71 -->
<g id="edge31" class="edge">
<title>Node50&#45;&gt;Node71</title>
<path fill="none" stroke="#191970" d="M1049.815,-289.9504C1054.9511,-287.1616 1059.803,-283.8732 1064,-280 1091.7624,-254.3795 1071.5902,-227.9007 1100,-203 1101.3592,-201.8087 1102.7776,-200.6764 1104.2456,-199.6003"/>
<polygon fill="#191970" stroke="#191970" points="1106.5153,-202.3084 1113.1286,-194.031 1102.7969,-196.3776 1106.5153,-202.3084"/>
</g>
<!-- Node72 -->
<g id="node30" class="node">
<title>Node72</title>
<g id="a_node30"><a xlink:href="../../d0/d18/classu_o_r_b_1_1_device_node.html#aaaafc67863a203c52647a8dab4f48f2e" target="_top" xlink:title="uORB::DeviceNode::unregister\l_callback">
<polygon fill="#ffffff" stroke="#000000" points="1100,-115 1100,-145 1252,-145 1252,-115 1100,-115"/>
<text text-anchor="start" x="1108" y="-133" font-family="Helvetica,sans-Serif" font-size="10.00" fill="#000000">uORB::DeviceNode::unregister</text>
<text text-anchor="middle" x="1176" y="-122" font-family="Helvetica,sans-Serif" font-size="10.00" fill="#000000">_callback</text>
</a>
</g>
</g>
<!-- Node50&#45;&gt;Node72 -->
<g id="edge32" class="edge">
<title>Node50&#45;&gt;Node72</title>
<path fill="none" stroke="#191970" d="M1051.7625,-289.8262C1056.2798,-287.0755 1060.461,-283.8296 1064,-280 1103.5277,-237.2266 1059.3893,-195.7465 1100,-154 1101.0553,-152.9152 1102.1591,-151.8793 1103.3054,-150.8901"/>
<polygon fill="#191970" stroke="#191970" points="1105.3737,-153.7138 1111.4232,-145.0158 1101.27,-148.0428 1105.3737,-153.7138"/>
</g>
<!-- Node51&#45;&gt;Node52 -->
<g id="edge25" class="edge">
<title>Node51&#45;&gt;Node52</title>
<path fill="none" stroke="#191970" d="M1214.5149,-448.4527C1234.4993,-443.4988 1259.5507,-437.2888 1282.8612,-431.5105"/>
<polygon fill="#191970" stroke="#191970" points="1283.8609,-434.8687 1292.725,-429.0654 1282.1766,-428.0743 1283.8609,-434.8687"/>
</g>
<!-- Node53&#45;&gt;Node52 -->
<g id="edge27" class="edge">
<title>Node53&#45;&gt;Node52</title>
<path fill="none" stroke="#191970" d="M1241.5901,-414C1253.3946,-414 1265.7868,-414 1277.8489,-414"/>
<polygon fill="#191970" stroke="#191970" points="1277.8833,-417.5001 1287.8833,-414 1277.8832,-410.5001 1277.8833,-417.5001"/>
</g>
<!-- Node74 -->
<g id="node32" class="node">
<title>Node74</title>
<g id="a_node32"><a xlink:href="../../dc/db4/classcdev_1_1_v_file.html#a76418692ad24fb60ee14bdb5ae66d19d" target="_top" xlink:title="cdev::VFile::createFile">
<polygon fill="#ffffff" stroke="#000000" points="939.5,-38.5 939.5,-57.5 1054.5,-57.5 1054.5,-38.5 939.5,-38.5"/>
<text text-anchor="middle" x="997" y="-45.5" font-family="Helvetica,sans-Serif" font-size="10.00" fill="#000000">cdev::VFile::createFile</text>
</a>
</g>
</g>
<!-- Node73&#45;&gt;Node74 -->
<g id="edge36" class="edge">
<title>Node73&#45;&gt;Node74</title>
<path fill="none" stroke="#191970" d="M868.7186,-59.3667C885.7729,-57.8556 907.929,-55.8924 929.0168,-54.0238"/>
<polygon fill="#191970" stroke="#191970" points="929.6042,-57.4856 939.2562,-53.1165 928.9863,-50.5129 929.6042,-57.4856"/>
</g>
<!-- Node76 -->
<g id="node34" class="node">
<title>Node76</title>
<g id="a_node34"><a xlink:href="../../da/dc9/posix_2cdev__platform_8cpp.html#a3fe15a0fdcd00e34f4a29b3cea4c7c46" target="_top" xlink:title="getDev">
<polygon fill="#ffffff" stroke="#000000" points="973,-76.5 973,-95.5 1021,-95.5 1021,-76.5 973,-76.5"/>
<text text-anchor="middle" x="997" y="-83.5" font-family="Helvetica,sans-Serif" font-size="10.00" fill="#000000">getDev</text>
</a>
</g>
</g>
<!-- Node73&#45;&gt;Node76 -->
<g id="edge39" class="edge">
<title>Node73&#45;&gt;Node76</title>
<path fill="none" stroke="#191970" d="M868.7186,-66.5142C895.3518,-70.5598 934.4273,-76.4953 962.4459,-80.7513"/>
<polygon fill="#191970" stroke="#191970" points="962.1817,-84.2512 972.594,-82.2928 963.233,-77.3306 962.1817,-84.2512"/>
</g>
<!-- Node77 -->
<g id="node35" class="node">
<title>Node77</title>
<g id="a_node35"><a xlink:href="../../d8/d26/classcdev_1_1_c_dev.html#a398ee881e4eb691f7622e8f2e6da7863" target="_top" xlink:title="Handle an open of the device. ">
<polygon fill="#ffffff" stroke="#000000" points="1128,-.5 1128,-19.5 1224,-19.5 1224,-.5 1128,-.5"/>
<text text-anchor="middle" x="1176" y="-7.5" font-family="Helvetica,sans-Serif" font-size="10.00" fill="#000000">cdev::CDev::open</text>
</a>
</g>
</g>
<!-- Node73&#45;&gt;Node77 -->
<g id="edge40" class="edge">
<title>Node73&#45;&gt;Node77</title>
<path fill="none" stroke="#191970" d="M860.2111,-52.4463C878.3517,-44.7321 905.3589,-34.3161 930,-29 993.265,-15.3511 1067.5424,-11.1949 1117.7958,-10.0807"/>
<polygon fill="#191970" stroke="#191970" points="1117.8965,-13.5796 1127.8287,-9.8917 1117.7645,-6.5808 1117.8965,-13.5796"/>
</g>
<!-- Node74&#45;&gt;Node37 -->
<g id="edge37" class="edge">
<title>Node74&#45;&gt;Node37</title>
<path fill="none" stroke="#191970" d="M1042.1693,-57.589C1068.0671,-63.0869 1100.5903,-69.9912 1127.0901,-75.6169"/>
<polygon fill="#191970" stroke="#191970" points="1126.4162,-79.0518 1136.9251,-77.7048 1127.8699,-72.2044 1126.4162,-79.0518"/>
</g>
<!-- Node75 -->
<g id="node33" class="node">
<title>Node75</title>
<g id="a_node33"><a xlink:href="../../dc/db4/classcdev_1_1_v_file.html#a48ae3db836c0e14085465455ebbc9c99" target="_top" xlink:title="cdev::VFile::VFile">
<polygon fill="#ffffff" stroke="#000000" points="1128.5,-38.5 1128.5,-57.5 1223.5,-57.5 1223.5,-38.5 1128.5,-38.5"/>
<text text-anchor="middle" x="1176" y="-45.5" font-family="Helvetica,sans-Serif" font-size="10.00" fill="#000000">cdev::VFile::VFile</text>
</a>
</g>
</g>
<!-- Node74&#45;&gt;Node75 -->
<g id="edge38" class="edge">
<title>Node74&#45;&gt;Node75</title>
<path fill="none" stroke="#191970" d="M1054.622,-48C1074.9933,-48 1097.8992,-48 1118.2787,-48"/>
<polygon fill="#191970" stroke="#191970" points="1118.3674,-51.5001 1128.3674,-48 1118.3673,-44.5001 1118.3674,-51.5001"/>
</g>
<!-- Node77&#45;&gt;Node41 -->
<g id="edge41" class="edge">
<title>Node77&#45;&gt;Node41</title>
<path fill="none" stroke="#191970" d="M1224.0823,-14.6128C1234.2295,-17.4944 1244.2093,-22.0017 1252,-29 1286.5193,-60.0081 1270.0929,-84.1932 1288,-127 1306.2683,-170.67 1330.6809,-220.5834 1343.9431,-247.1036"/>
<polygon fill="#191970" stroke="#191970" points="1340.9767,-248.9956 1348.5945,-256.3589 1347.2312,-245.8521 1340.9767,-248.9956"/>
</g>
<!-- Node77&#45;&gt;Node42 -->
<g id="edge43" class="edge">
<title>Node77&#45;&gt;Node42</title>
<path fill="none" stroke="#191970" d="M1224.1035,-18.8025C1233.6064,-21.428 1243.3184,-24.7722 1252,-29 1285.2006,-45.1682 1317.8633,-73.4148 1336.8282,-91.3874"/>
<polygon fill="#191970" stroke="#191970" points="1334.4562,-93.9625 1344.0789,-98.3958 1339.3211,-88.9293 1334.4562,-93.9625"/>
</g>
<!-- Node78 -->
<g id="node36" class="node">
<title>Node78</title>
<g id="a_node36"><a xlink:href="../../d8/d26/classcdev_1_1_c_dev.html#add6ba5112cbd1b9c3d61c148040a5c76" target="_top" xlink:title="Notification of the first open. ">
<polygon fill="#ffffff" stroke="#000000" points="1294.5,-.5 1294.5,-19.5 1412.5,-19.5 1412.5,-.5 1294.5,-.5"/>
<text text-anchor="middle" x="1353.5" y="-7.5" font-family="Helvetica,sans-Serif" font-size="10.00" fill="#000000">cdev::CDev::open_first</text>
</a>
</g>
</g>
<!-- Node77&#45;&gt;Node78 -->
<g id="edge42" class="edge">
<title>Node77&#45;&gt;Node78</title>
<path fill="none" stroke="#191970" d="M1224.0341,-10C1242.5665,-10 1264.1231,-10 1284.2681,-10"/>
<polygon fill="#191970" stroke="#191970" points="1284.3363,-13.5001 1294.3363,-10 1284.3363,-6.5001 1284.3363,-13.5001"/>
</g>
<!-- Node81 -->
<g id="node39" class="node">
<title>Node81</title>
<g id="a_node39"><a xlink:href="../../d6/d47/dataman_8cpp.html#ab125feda9347bf0ad3821d9a4a57be87" target="_top" xlink:title="task_main">
<polygon fill="#ffffff" stroke="#000000" points="808,-583.5 808,-602.5 870,-602.5 870,-583.5 808,-583.5"/>
<text text-anchor="middle" x="839" y="-590.5" font-family="Helvetica,sans-Serif" font-size="10.00" fill="#000000">task_main</text>
</a>
</g>
</g>
<!-- Node80&#45;&gt;Node81 -->
<g id="edge46" class="edge">
<title>Node80&#45;&gt;Node81</title>
<path fill="none" stroke="#191970" d="M677.7485,-322.6382C701.9376,-363.1948 795.6904,-520.3851 827.9903,-574.5407"/>
<polygon fill="#191970" stroke="#191970" points="825.1473,-576.6067 833.2757,-583.4023 831.1592,-573.021 825.1473,-576.6067"/>
</g>
<!-- Node82 -->
<g id="node40" class="node">
<title>Node82</title>
<g id="a_node40"><a xlink:href="../../d6/d47/dataman_8cpp.html#a1ef147f3115799ec851dd6fd29a7f619" target="_top" xlink:title="dequeue_work_item">
<polygon fill="#ffffff" stroke="#000000" points="945,-583.5 945,-602.5 1049,-602.5 1049,-583.5 945,-583.5"/>
<text text-anchor="middle" x="997" y="-590.5" font-family="Helvetica,sans-Serif" font-size="10.00" fill="#000000">dequeue_work_item</text>
</a>
</g>
</g>
<!-- Node81&#45;&gt;Node82 -->
<g id="edge47" class="edge">
<title>Node81&#45;&gt;Node82</title>
<path fill="none" stroke="#191970" d="M870.2157,-593C888.6212,-593 912.5697,-593 934.6891,-593"/>
<polygon fill="#191970" stroke="#191970" points="934.6969,-596.5001 944.6968,-593 934.6968,-589.5001 934.6969,-596.5001"/>
</g>
<!-- Node85 -->
<g id="node43" class="node">
<title>Node85</title>
<g id="a_node43"><a xlink:href="../../d6/d47/dataman_8cpp.html#a1a94689dd210dec0f39d57daf21125a7" target="_top" xlink:title="destroy_q">
<polygon fill="#ffffff" stroke="#000000" points="967.5,-545.5 967.5,-564.5 1026.5,-564.5 1026.5,-545.5 967.5,-545.5"/>
<text text-anchor="middle" x="997" y="-552.5" font-family="Helvetica,sans-Serif" font-size="10.00" fill="#000000">destroy_q</text>
</a>
</g>
</g>
<!-- Node81&#45;&gt;Node85 -->
<g id="edge50" class="edge">
<title>Node81&#45;&gt;Node85</title>
<path fill="none" stroke="#191970" d="M870.2157,-585.4924C895.2559,-579.4701 930.5555,-570.9803 957.5512,-564.4877"/>
<polygon fill="#191970" stroke="#191970" points="958.548,-567.8478 967.4523,-562.1064 956.9111,-561.0419 958.548,-567.8478"/>
</g>
<!-- Node86 -->
<g id="node44" class="node">
<title>Node86</title>
<g id="a_node44"><a xlink:href="../../d6/d47/dataman_8cpp.html#abefc3578000f8ce9445b3259ef483ab8" target="_top" xlink:title="init_q">
<polygon fill="#ffffff" stroke="#000000" points="977,-507.5 977,-526.5 1017,-526.5 1017,-507.5 977,-507.5"/>
<text text-anchor="middle" x="997" y="-514.5" font-family="Helvetica,sans-Serif" font-size="10.00" fill="#000000">init_q</text>
</a>
</g>
</g>
<!-- Node81&#45;&gt;Node86 -->
<g id="edge51" class="edge">
<title>Node81&#45;&gt;Node86</title>
<path fill="none" stroke="#191970" d="M851.6111,-583.4688C868.6082,-571.0156 900.1847,-549.2417 930,-536 941.7085,-530.8 955.203,-526.6495 966.9991,-523.5707"/>
<polygon fill="#191970" stroke="#191970" points="967.9708,-526.9359 976.8406,-521.1414 966.2932,-520.1399 967.9708,-526.9359"/>
</g>
<!-- Node87 -->
<g id="node45" class="node">
<title>Node87</title>
<g id="a_node45"><a xlink:href="../../d5/d33/param_8h.html#a41eaf676b34d8ad2a70b4aadd3d415c0" target="_top" xlink:title="Look up a parameter by name. ">
<polygon fill="#ffffff" stroke="#000000" points="964.5,-716.5 964.5,-735.5 1029.5,-735.5 1029.5,-716.5 964.5,-716.5"/>
<text text-anchor="middle" x="997" y="-723.5" font-family="Helvetica,sans-Serif" font-size="10.00" fill="#000000">param_find</text>
</a>
</g>
</g>
<!-- Node81&#45;&gt;Node87 -->
<g id="edge52" class="edge">
<title>Node81&#45;&gt;Node87</title>
<path fill="none" stroke="#191970" d="M846.5012,-602.5093C861.1577,-620.6785 895.216,-660.9252 930,-688 941.6046,-697.0327 955.6026,-705.3171 967.7964,-711.8294"/>
<polygon fill="#191970" stroke="#191970" points="966.2113,-714.95 976.6999,-716.4469 969.4341,-708.736 966.2113,-714.95"/>
</g>
<!-- Node95 -->
<g id="node47" class="node">
<title>Node95</title>
<g id="a_node47"><a xlink:href="../../d5/d33/param_8h.html#ac68728b411c2c4af9ad46ea664f1dc42" target="_top" xlink:title="Copy the value of a parameter. ">
<polygon fill="#ffffff" stroke="#ff0000" points="966,-659.5 966,-678.5 1028,-678.5 1028,-659.5 966,-659.5"/>
<text text-anchor="middle" x="997" y="-666.5" font-family="Helvetica,sans-Serif" font-size="10.00" fill="#000000">param_get</text>
</a>
</g>
</g>
<!-- Node81&#45;&gt;Node95 -->
<g id="edge54" class="edge">
<title>Node81&#45;&gt;Node95</title>
<path fill="none" stroke="#191970" d="M851.6111,-602.5312C868.6082,-614.9844 900.1847,-636.7583 930,-650 938.189,-653.6369 947.2516,-656.7604 955.9958,-659.363"/>
<polygon fill="#191970" stroke="#191970" points="955.0955,-662.7455 965.6694,-662.0796 956.9881,-656.0062 955.0955,-662.7455"/>
</g>
<!-- Node169 -->
<g id="node50" class="node">
<title>Node169</title>
<g id="a_node50"><a xlink:href="../../df/d7b/perf__counter_8cpp.html#ae8aa20c525af8228a069d98211369870" target="_top" xlink:title="Free a counter. ">
<polygon fill="#ffffff" stroke="#000000" points="969.5,-621.5 969.5,-640.5 1024.5,-640.5 1024.5,-621.5 969.5,-621.5"/>
<text text-anchor="middle" x="997" y="-628.5" font-family="Helvetica,sans-Serif" font-size="10.00" fill="#000000">perf_free</text>
</a>
</g>
</g>
<!-- Node81&#45;&gt;Node169 -->
<g id="edge57" class="edge">
<title>Node81&#45;&gt;Node169</title>
<path fill="none" stroke="#191970" d="M870.2157,-600.5076C895.8141,-606.6642 932.1345,-615.3994 959.3441,-621.9435"/>
<polygon fill="#191970" stroke="#191970" points="958.7438,-625.3989 969.285,-624.3344 960.3807,-618.5929 958.7438,-625.3989"/>
</g>
<!-- Node83 -->
<g id="node41" class="node">
<title>Node83</title>
<g id="a_node41"><a xlink:href="../../d6/d47/dataman_8cpp.html#a0ba409860a05272f9cab723bd8358d05" target="_top" xlink:title="lock_queue">
<polygon fill="#ffffff" stroke="#000000" points="1143,-574.5 1143,-593.5 1209,-593.5 1209,-574.5 1143,-574.5"/>
<text text-anchor="middle" x="1176" y="-581.5" font-family="Helvetica,sans-Serif" font-size="10.00" fill="#000000">lock_queue</text>
</a>
</g>
</g>
<!-- Node82&#45;&gt;Node83 -->
<g id="edge48" class="edge">
<title>Node82&#45;&gt;Node83</title>
<path fill="none" stroke="#191970" d="M1049.2554,-590.3726C1075.7113,-589.0425 1107.4515,-587.4466 1132.5507,-586.1846"/>
<polygon fill="#191970" stroke="#191970" points="1133.0546,-589.6638 1142.8662,-585.6659 1132.703,-582.6726 1133.0546,-589.6638"/>
</g>
<!-- Node84 -->
<g id="node42" class="node">
<title>Node84</title>
<g id="a_node42"><a xlink:href="../../d6/d47/dataman_8cpp.html#a237e22359180c49a601391c8d8fde80e" target="_top" xlink:title="unlock_queue">
<polygon fill="#ffffff" stroke="#000000" points="1137.5,-612.5 1137.5,-631.5 1214.5,-631.5 1214.5,-612.5 1137.5,-612.5"/>
<text text-anchor="middle" x="1176" y="-619.5" font-family="Helvetica,sans-Serif" font-size="10.00" fill="#000000">unlock_queue</text>
</a>
</g>
</g>
<!-- Node82&#45;&gt;Node84 -->
<g id="edge49" class="edge">
<title>Node82&#45;&gt;Node84</title>
<path fill="none" stroke="#191970" d="M1049.2554,-601.466C1073.9054,-605.4595 1103.143,-610.1964 1127.3219,-614.1136"/>
<polygon fill="#191970" stroke="#191970" points="1126.9154,-617.5933 1137.3465,-615.7377 1128.035,-610.6834 1126.9154,-617.5933"/>
</g>
<!-- Node88 -->
<g id="node46" class="node">
<title>Node88</title>
<g id="a_node46"><a xlink:href="../../d6/d02/lib_2parameters_2parameters_8cpp.html#a70c8749ad87f25785a524bf38b28c02a" target="_top" xlink:title="param_find_internal">
<polygon fill="#ffffff" stroke="#ff0000" points="1125.5,-726.5 1125.5,-745.5 1226.5,-745.5 1226.5,-726.5 1125.5,-726.5"/>
<text text-anchor="middle" x="1176" y="-733.5" font-family="Helvetica,sans-Serif" font-size="10.00" fill="#000000">param_find_internal</text>
</a>
</g>
</g>
<!-- Node87&#45;&gt;Node88 -->
<g id="edge53" class="edge">
<title>Node87&#45;&gt;Node88</title>
<path fill="none" stroke="#191970" d="M1029.8314,-727.8342C1053.6522,-729.1649 1086.5714,-731.004 1115.139,-732.5999"/>
<polygon fill="#191970" stroke="#191970" points="1115.2625,-736.1122 1125.4422,-733.1755 1115.653,-729.1231 1115.2625,-736.1122"/>
</g>
<!-- Node96 -->
<g id="node48" class="node">
<title>Node96</title>
<g id="a_node48"><a xlink:href="../../d8/da1/integration_8cpp.html#af5ba872dd09316732300733cc164ac1a" target="_top" xlink:title="f">
<polygon fill="#ffffff" stroke="#ff0000" points="1161.5,-688.5 1161.5,-707.5 1190.5,-707.5 1190.5,-688.5 1161.5,-688.5"/>
<text text-anchor="middle" x="1176" y="-695.5" font-family="Helvetica,sans-Serif" font-size="10.00" fill="#000000">f</text>
</a>
</g>
</g>
<!-- Node95&#45;&gt;Node96 -->
<g id="edge55" class="edge">
<title>Node95&#45;&gt;Node96</title>
<path fill="none" stroke="#191970" d="M1028.1794,-674.0514C1063.1238,-679.7128 1119.0775,-688.7779 1151.1858,-693.9798"/>
<polygon fill="#191970" stroke="#191970" points="1151.0439,-697.5024 1161.4749,-695.6468 1152.1634,-690.5925 1151.0439,-697.5024"/>
</g>
<!-- Node99 -->
<g id="node49" class="node">
<title>Node99</title>
<g id="a_node49"><a xlink:href="../../d9/db5/parameters__shmem_8cpp.html#a3838c5d4deba92f67b48083b3954df1a" target="_top" xlink:title="Test whether a param_t is value. ">
<polygon fill="#ffffff" stroke="#ff0000" points="1132.5,-650.5 1132.5,-669.5 1219.5,-669.5 1219.5,-650.5 1132.5,-650.5"/>
<text text-anchor="middle" x="1176" y="-657.5" font-family="Helvetica,sans-Serif" font-size="10.00" fill="#000000">handle_in_range</text>
</a>
</g>
</g>
<!-- Node95&#45;&gt;Node99 -->
<g id="edge56" class="edge">
<title>Node95&#45;&gt;Node99</title>
<path fill="none" stroke="#191970" d="M1028.1794,-667.4323C1054.0972,-666.1292 1091.5722,-664.245 1122.3036,-662.6998"/>
<polygon fill="#191970" stroke="#191970" points="1122.629,-666.188 1132.4406,-662.1901 1122.2774,-659.1968 1122.629,-666.188"/>
</g>
</g>
</svg>
