<?xml version="1.0" encoding="UTF-8" standalone="no"?>
<!DOCTYPE svg PUBLIC "-//W3C//DTD SVG 1.1//EN"
 "http://www.w3.org/Graphics/SVG/1.1/DTD/svg11.dtd">
<!-- Generated by graphviz version 2.40.1 (20161225.0304)
 -->
<!-- Title: DfLtc2946Wrapper::DfLtc2946Wrapper Pages: 1 -->
<svg width="458pt" height="39pt"
 viewBox="0.00 0.00 458.00 39.00" xmlns="http://www.w3.org/2000/svg" xmlns:xlink="http://www.w3.org/1999/xlink">
<g id="graph0" class="graph" transform="scale(1 1) rotate(0) translate(4 35)">
<title>DfLtc2946Wrapper::DfLtc2946Wrapper</title>
<polygon fill="#ffffff" stroke="transparent" points="-4,4 -4,-35 454,-35 454,4 -4,4"/>
<!-- Node147 -->
<g id="node1" class="node">
<title>Node147</title>
<polygon fill="#bfbfbf" stroke="#000000" points="0,-.5 0,-30.5 149,-30.5 149,-.5 0,-.5"/>
<text text-anchor="start" x="8" y="-18.5" font-family="Helvetica,sans-Serif" font-size="10.00" fill="#000000">DfLtc2946Wrapper::DfLtc2946</text>
<text text-anchor="middle" x="74.5" y="-7.5" font-family="Helvetica,sans-Serif" font-size="10.00" fill="#000000">Wrapper</text>
</g>
<!-- Node148 -->
<g id="node2" class="node">
<title>Node148</title>
<g id="a_node2"><a xlink:href="../../d1/d2e/namespacedf__ltc2946__wrapper.html#a602ac1c7f19674705649160c597b0872" target="_top" xlink:title="Attempt to start driver on all available I2C busses. ">
<polygon fill="#ffffff" stroke="#000000" points="185,-.5 185,-30.5 286,-30.5 286,-.5 185,-.5"/>
<text text-anchor="start" x="193" y="-18.5" font-family="Helvetica,sans-Serif" font-size="10.00" fill="#000000">df_ltc2946_wrapper</text>
<text text-anchor="middle" x="235.5" y="-7.5" font-family="Helvetica,sans-Serif" font-size="10.00" fill="#000000">::start</text>
</a>
</g>
</g>
<!-- Node147&#45;&gt;Node148 -->
<g id="edge1" class="edge">
<title>Node147&#45;&gt;Node148</title>
<path fill="none" stroke="#191970" d="M159.4759,-15.5C168.1002,-15.5 176.6558,-15.5 184.7451,-15.5"/>
<polygon fill="#191970" stroke="#191970" points="159.344,-12.0001 149.344,-15.5 159.344,-19.0001 159.344,-12.0001"/>
</g>
<!-- Node149 -->
<g id="node3" class="node">
<title>Node149</title>
<g id="a_node3"><a xlink:href="../../d0/d77/df__ltc2946__wrapper_8cpp.html#a44dc6a48c1ce89816093e60e54b663bb" target="_top" xlink:title="df_ltc2946_wrapper_main">
<polygon fill="#ffffff" stroke="#000000" points="322,-6 322,-25 450,-25 450,-6 322,-6"/>
<text text-anchor="middle" x="386" y="-13" font-family="Helvetica,sans-Serif" font-size="10.00" fill="#000000">df_ltc2946_wrapper_main</text>
</a>
</g>
</g>
<!-- Node148&#45;&gt;Node149 -->
<g id="edge2" class="edge">
<title>Node148&#45;&gt;Node149</title>
<path fill="none" stroke="#191970" d="M296.2179,-15.5C304.6967,-15.5 313.4314,-15.5 321.969,-15.5"/>
<polygon fill="#191970" stroke="#191970" points="296.033,-12.0001 286.033,-15.5 296.033,-19.0001 296.033,-12.0001"/>
</g>
</g>
</svg>
