<?xml version="1.0" encoding="UTF-8" standalone="no"?>
<!DOCTYPE svg PUBLIC "-//W3C//DTD SVG 1.1//EN"
 "http://www.w3.org/Graphics/SVG/1.1/DTD/svg11.dtd">
<!-- Generated by graphviz version 2.40.1 (20161225.0304)
 -->
<!-- Title: src/lib/systemlib/print_load_posix.c Pages: 1 -->
<svg width="1043pt" height="173pt"
 viewBox="0.00 0.00 1042.50 173.00" xmlns="http://www.w3.org/2000/svg" xmlns:xlink="http://www.w3.org/1999/xlink">
<g id="graph0" class="graph" transform="scale(1 1) rotate(0) translate(4 169)">
<title>src/lib/systemlib/print_load_posix.c</title>
<polygon fill="#ffffff" stroke="transparent" points="-4,4 -4,-169 1038.5,-169 1038.5,4 -4,4"/>
<!-- Node0 -->
<g id="node1" class="node">
<title>Node0</title>
<polygon fill="#bfbfbf" stroke="#000000" points="286,-134.5 286,-164.5 396,-164.5 396,-134.5 286,-134.5"/>
<text text-anchor="start" x="294" y="-152.5" font-family="Helvetica,sans-Serif" font-size="10.00" fill="#000000">src/lib/systemlib/print</text>
<text text-anchor="middle" x="341" y="-141.5" font-family="Helvetica,sans-Serif" font-size="10.00" fill="#000000">_load_posix.c</text>
</g>
<!-- Node1 -->
<g id="node2" class="node">
<title>Node1</title>
<polygon fill="#ffffff" stroke="#bfbfbf" points="0,-67.5 0,-97.5 116,-97.5 116,-67.5 0,-67.5"/>
<text text-anchor="start" x="8" y="-85.5" font-family="Helvetica,sans-Serif" font-size="10.00" fill="#000000">px4_platform_common</text>
<text text-anchor="middle" x="58" y="-74.5" font-family="Helvetica,sans-Serif" font-size="10.00" fill="#000000">/posix.h</text>
</g>
<!-- Node0&#45;&gt;Node1 -->
<g id="edge1" class="edge">
<title>Node0&#45;&gt;Node1</title>
<path fill="none" stroke="#191970" d="M285.7629,-136.4227C240.0145,-125.5918 174.8125,-110.1553 125.8852,-98.5718"/>
<polygon fill="#191970" stroke="#191970" points="126.5537,-95.1333 116.0163,-96.2353 124.941,-101.9451 126.5537,-95.1333"/>
</g>
<!-- Node2 -->
<g id="node3" class="node">
<title>Node2</title>
<polygon fill="#ffffff" stroke="#bfbfbf" points="134.5,-73 134.5,-92 185.5,-92 185.5,-73 134.5,-73"/>
<text text-anchor="middle" x="160" y="-80" font-family="Helvetica,sans-Serif" font-size="10.00" fill="#000000">unistd.h</text>
</g>
<!-- Node0&#45;&gt;Node2 -->
<g id="edge2" class="edge">
<title>Node0&#45;&gt;Node2</title>
<path fill="none" stroke="#191970" d="M294.5843,-134.4412C265.4536,-124.6947 227.2429,-111.3685 194,-98 192.6082,-97.4403 191.1903,-96.8552 189.7626,-96.2539"/>
<polygon fill="#191970" stroke="#191970" points="190.931,-92.9449 180.3662,-92.1475 188.1278,-99.3592 190.931,-92.9449"/>
</g>
<!-- Node3 -->
<g id="node4" class="node">
<title>Node3</title>
<polygon fill="#ffffff" stroke="#bfbfbf" points="203.5,-73 203.5,-92 252.5,-92 252.5,-73 203.5,-73"/>
<text text-anchor="middle" x="228" y="-80" font-family="Helvetica,sans-Serif" font-size="10.00" fill="#000000">string.h</text>
</g>
<!-- Node0&#45;&gt;Node3 -->
<g id="edge3" class="edge">
<title>Node0&#45;&gt;Node3</title>
<path fill="none" stroke="#191970" d="M315.6406,-134.4639C296.9369,-123.3741 271.6119,-108.3584 252.995,-97.32"/>
<polygon fill="#191970" stroke="#191970" points="254.5844,-94.1935 244.1977,-92.1039 251.0143,-100.2147 254.5844,-94.1935"/>
</g>
<!-- Node4 -->
<g id="node5" class="node">
<title>Node4</title>
<polygon fill="#ffffff" stroke="#bfbfbf" points="271,-73 271,-92 317,-92 317,-73 271,-73"/>
<text text-anchor="middle" x="294" y="-80" font-family="Helvetica,sans-Serif" font-size="10.00" fill="#000000">stdio.h</text>
</g>
<!-- Node0&#45;&gt;Node4 -->
<g id="edge4" class="edge">
<title>Node0&#45;&gt;Node4</title>
<path fill="none" stroke="#191970" d="M330.335,-134.2967C323.2965,-124.2631 314.0423,-111.0709 306.6348,-100.5113"/>
<polygon fill="#191970" stroke="#191970" points="309.3109,-98.2316 300.7027,-92.055 303.5803,-102.2516 309.3109,-98.2316"/>
</g>
<!-- Node5 -->
<g id="node6" class="node">
<title>Node5</title>
<polygon fill="#ffffff" stroke="#bfbfbf" points="531,-6 531,-25 587,-25 587,-6 531,-6"/>
<text text-anchor="middle" x="559" y="-13" font-family="Helvetica,sans-Serif" font-size="10.00" fill="#000000">stdbool.h</text>
</g>
<!-- Node0&#45;&gt;Node5 -->
<g id="edge5" class="edge">
<title>Node0&#45;&gt;Node5</title>
<path fill="none" stroke="#191970" d="M396.1189,-145.1284C457.8379,-138.9549 552.1124,-125.2536 574,-98 588.5366,-79.8996 579.1422,-52.3366 569.9906,-34.1237"/>
<polygon fill="#191970" stroke="#191970" points="572.9318,-32.2055 565.0848,-25.0867 566.7798,-35.5451 572.9318,-32.2055"/>
</g>
<!-- Node6 -->
<g id="node7" class="node">
<title>Node6</title>
<g id="a_node7"><a xlink:href="../../d7/d96/src_2lib_2systemlib_2cpuload_8h.html" target="_top" xlink:title="systemlib/cpuload.h">
<polygon fill="#ffffff" stroke="#000000" points="461,-73 461,-92 565,-92 565,-73 461,-73"/>
<text text-anchor="middle" x="513" y="-80" font-family="Helvetica,sans-Serif" font-size="10.00" fill="#000000">systemlib/cpuload.h</text>
</a>
</g>
</g>
<!-- Node0&#45;&gt;Node6 -->
<g id="edge6" class="edge">
<title>Node0&#45;&gt;Node6</title>
<path fill="none" stroke="#191970" d="M379.6002,-134.4639C409.4581,-122.8332 450.4015,-106.8843 479.0258,-95.7342"/>
<polygon fill="#191970" stroke="#191970" points="480.5508,-98.8963 488.5984,-92.0053 478.0099,-92.3737 480.5508,-98.8963"/>
</g>
<!-- Node7 -->
<g id="node8" class="node">
<title>Node7</title>
<g id="a_node8"><a xlink:href="../../de/d6c/printload_8h.html" target="_top" xlink:title="Print the current system load. ">
<polygon fill="#ffffff" stroke="#000000" points="335.5,-73 335.5,-92 442.5,-92 442.5,-73 335.5,-73"/>
<text text-anchor="middle" x="389" y="-80" font-family="Helvetica,sans-Serif" font-size="10.00" fill="#000000">systemlib/printload.h</text>
</a>
</g>
</g>
<!-- Node0&#45;&gt;Node7 -->
<g id="edge7" class="edge">
<title>Node0&#45;&gt;Node7</title>
<path fill="none" stroke="#191970" d="M351.8919,-134.2967C359.1527,-124.1618 368.7225,-110.804 376.325,-100.1921"/>
<polygon fill="#191970" stroke="#191970" points="379.176,-102.2225 382.1546,-92.055 373.4856,-98.1458 379.176,-102.2225"/>
</g>
<!-- Node10 -->
<g id="node11" class="node">
<title>Node10</title>
<g id="a_node11"><a xlink:href="../../d6/d10/drv__hrt_8h.html" target="_top" xlink:title="High&#45;resolution timer with callouts and timekeeping. ">
<polygon fill="#ffffff" stroke="#000000" points="721.5,-73 721.5,-92 808.5,-92 808.5,-73 721.5,-73"/>
<text text-anchor="middle" x="765" y="-80" font-family="Helvetica,sans-Serif" font-size="10.00" fill="#000000">drivers/drv_hrt.h</text>
</a>
</g>
</g>
<!-- Node0&#45;&gt;Node10 -->
<g id="edge10" class="edge">
<title>Node0&#45;&gt;Node10</title>
<path fill="none" stroke="#191970" d="M396.4306,-140.7409C478.3394,-127.7978 630.7008,-103.7218 711.4912,-90.9554"/>
<polygon fill="#191970" stroke="#191970" points="712.1224,-94.3992 721.4535,-89.3812 711.0298,-87.485 712.1224,-94.3992"/>
</g>
<!-- Node8 -->
<g id="node9" class="node">
<title>Node8</title>
<polygon fill="#ffffff" stroke="#bfbfbf" points="263,-.5 263,-30.5 379,-30.5 379,-.5 263,-.5"/>
<text text-anchor="start" x="271" y="-18.5" font-family="Helvetica,sans-Serif" font-size="10.00" fill="#000000">px4_platform_common</text>
<text text-anchor="middle" x="321" y="-7.5" font-family="Helvetica,sans-Serif" font-size="10.00" fill="#000000">/px4_config.h</text>
</g>
<!-- Node7&#45;&gt;Node8 -->
<g id="edge8" class="edge">
<title>Node7&#45;&gt;Node8</title>
<path fill="none" stroke="#191970" d="M379.2573,-72.9005C369.9512,-63.7313 355.5862,-49.5776 343.4496,-37.6195"/>
<polygon fill="#191970" stroke="#191970" points="345.8257,-35.0471 336.246,-30.5218 340.9128,-40.0334 345.8257,-35.0471"/>
</g>
<!-- Node9 -->
<g id="node10" class="node">
<title>Node9</title>
<polygon fill="#ffffff" stroke="#bfbfbf" points="397.5,-6 397.5,-25 446.5,-25 446.5,-6 397.5,-6"/>
<text text-anchor="middle" x="422" y="-13" font-family="Helvetica,sans-Serif" font-size="10.00" fill="#000000">stdint.h</text>
</g>
<!-- Node7&#45;&gt;Node9 -->
<g id="edge9" class="edge">
<title>Node7&#45;&gt;Node9</title>
<path fill="none" stroke="#191970" d="M393.7281,-72.9005C398.6781,-62.8505 406.5776,-46.8122 412.7697,-34.2403"/>
<polygon fill="#191970" stroke="#191970" points="416.0019,-35.5991 417.2807,-25.0817 409.7223,-32.5061 416.0019,-35.5991"/>
</g>
<!-- Node10&#45;&gt;Node5 -->
<g id="edge13" class="edge">
<title>Node10&#45;&gt;Node5</title>
<path fill="none" stroke="#191970" d="M730.0307,-72.9591C695.6173,-63.3093 641.7304,-47.4989 596,-31 594.1329,-30.3264 592.223,-29.6106 590.3029,-28.8705"/>
<polygon fill="#191970" stroke="#191970" points="591.3531,-25.5208 580.7688,-25.0486 588.7485,-32.0182 591.3531,-25.5208"/>
</g>
<!-- Node11 -->
<g id="node12" class="node">
<title>Node11</title>
<polygon fill="#ffffff" stroke="#bfbfbf" points="809,-6 809,-25 871,-25 871,-6 809,-6"/>
<text text-anchor="middle" x="840" y="-13" font-family="Helvetica,sans-Serif" font-size="10.00" fill="#000000">sys/ioctl.h</text>
</g>
<!-- Node10&#45;&gt;Node11 -->
<g id="edge11" class="edge">
<title>Node10&#45;&gt;Node11</title>
<path fill="none" stroke="#191970" d="M775.7457,-72.9005C787.664,-62.2535 807.1057,-44.8856 821.4868,-32.0385"/>
<polygon fill="#191970" stroke="#191970" points="824.1484,-34.354 829.2743,-25.0817 819.4849,-29.1337 824.1484,-34.354"/>
</g>
<!-- Node12 -->
<g id="node13" class="node">
<title>Node12</title>
<polygon fill="#ffffff" stroke="#bfbfbf" points="889,-6 889,-25 957,-25 957,-6 889,-6"/>
<text text-anchor="middle" x="923" y="-13" font-family="Helvetica,sans-Serif" font-size="10.00" fill="#000000">sys/types.h</text>
</g>
<!-- Node10&#45;&gt;Node12 -->
<g id="edge12" class="edge">
<title>Node10&#45;&gt;Node12</title>
<path fill="none" stroke="#191970" d="M787.6375,-72.9005C814.7401,-61.4077 860.3099,-42.0838 891.0039,-29.068"/>
<polygon fill="#191970" stroke="#191970" points="892.5644,-32.208 900.4044,-25.0817 889.8316,-25.7635 892.5644,-32.208"/>
</g>
<!-- Node13 -->
<g id="node14" class="node">
<title>Node13</title>
<polygon fill="#ffffff" stroke="#bfbfbf" points="975.5,-6 975.5,-25 1034.5,-25 1034.5,-6 975.5,-6"/>
<text text-anchor="middle" x="1005" y="-13" font-family="Helvetica,sans-Serif" font-size="10.00" fill="#000000">inttypes.h</text>
</g>
<!-- Node10&#45;&gt;Node13 -->
<g id="edge14" class="edge">
<title>Node10&#45;&gt;Node13</title>
<path fill="none" stroke="#191970" d="M808.5872,-73.0235C849.6122,-63.7074 912.5614,-48.3868 966,-31 968.2799,-30.2582 970.6181,-29.451 972.9618,-28.6075"/>
<polygon fill="#191970" stroke="#191970" points="974.3737,-31.8157 982.4935,-25.0098 971.9018,-25.2666 974.3737,-31.8157"/>
</g>
<!-- Node14 -->
<g id="node15" class="node">
<title>Node14</title>
<polygon fill="#ffffff" stroke="#bfbfbf" points="605,-.5 605,-30.5 721,-30.5 721,-.5 605,-.5"/>
<text text-anchor="start" x="613" y="-18.5" font-family="Helvetica,sans-Serif" font-size="10.00" fill="#000000">px4_platform_common</text>
<text text-anchor="middle" x="663" y="-7.5" font-family="Helvetica,sans-Serif" font-size="10.00" fill="#000000">/time.h</text>
</g>
<!-- Node10&#45;&gt;Node14 -->
<g id="edge15" class="edge">
<title>Node10&#45;&gt;Node14</title>
<path fill="none" stroke="#191970" d="M750.3859,-72.9005C735.8342,-63.3421 713.0362,-48.3669 694.3748,-36.1089"/>
<polygon fill="#191970" stroke="#191970" points="696.1487,-33.0866 685.869,-30.5218 692.3055,-38.9373 696.1487,-33.0866"/>
</g>
<!-- Node15 -->
<g id="node16" class="node">
<title>Node15</title>
<polygon fill="#ffffff" stroke="#bfbfbf" points="739.5,-6 739.5,-25 790.5,-25 790.5,-6 739.5,-6"/>
<text text-anchor="middle" x="765" y="-13" font-family="Helvetica,sans-Serif" font-size="10.00" fill="#000000">queue.h</text>
</g>
<!-- Node10&#45;&gt;Node15 -->
<g id="edge16" class="edge">
<title>Node10&#45;&gt;Node15</title>
<path fill="none" stroke="#191970" d="M765,-72.9005C765,-63.149 765,-47.7597 765,-35.3695"/>
<polygon fill="#191970" stroke="#191970" points="768.5001,-35.0816 765,-25.0817 761.5001,-35.0817 768.5001,-35.0816"/>
</g>
</g>
</svg>
