<?xml version="1.0" encoding="UTF-8" standalone="no"?>
<!DOCTYPE svg PUBLIC "-//W3C//DTD SVG 1.1//EN"
 "http://www.w3.org/Graphics/SVG/1.1/DTD/svg11.dtd">
<!-- Generated by graphviz version 2.38.0 (20140413.2041)
 -->
<!-- Title: src/modules/position_estimator_inav/position_estimator_inav_params.h Pages: 1 -->
<svg width="286pt" height="128pt"
 viewBox="0.00 0.00 286.00 128.00" xmlns="http://www.w3.org/2000/svg" xmlns:xlink="http://www.w3.org/1999/xlink">
<g id="graph0" class="graph" transform="scale(1 1) rotate(0) translate(4 124)">
<title>src/modules/position_estimator_inav/position_estimator_inav_params.h</title>
<polygon fill="white" stroke="none" points="-4,4 -4,-124 282,-124 282,4 -4,4"/>
<!-- Node1 -->
<g id="node1" class="node"><title>Node1</title>
<polygon fill="#bfbfbf" stroke="black" points="73,-78.5 73,-119.5 204,-119.5 204,-78.5 73,-78.5"/>
<text text-anchor="start" x="81" y="-107.5" font-family="Helvetica,sans-Serif" font-size="10.00">src/modules/position</text>
<text text-anchor="start" x="81" y="-96.5" font-family="Helvetica,sans-Serif" font-size="10.00">_estimator_inav/position</text>
<text text-anchor="middle" x="138.5" y="-85.5" font-family="Helvetica,sans-Serif" font-size="10.00">_estimator_inav_params.h</text>
</g>
<!-- Node2 -->
<g id="node2" class="node"><title>Node2</title>
<g id="a_node2"><a xlink:href="../../d4/d76/modules_2position__estimator__inav_2params_8c.html" target="_top" xlink:title="src/modules/position\l_estimator_inav/params.c">
<polygon fill="white" stroke="black" points="0,-6 0,-36 129,-36 129,-6 0,-6"/>
<text text-anchor="start" x="8" y="-24" font-family="Helvetica,sans-Serif" font-size="10.00">src/modules/position</text>
<text text-anchor="middle" x="64.5" y="-13" font-family="Helvetica,sans-Serif" font-size="10.00">_estimator_inav/params.c</text>
</a>
</g>
</g>
<!-- Node1&#45;&gt;Node2 -->
<g id="edge1" class="edge"><title>Node1&#45;&gt;Node2</title>
<path fill="none" stroke="midnightblue" d="M112.2,-70.9896C100.774,-59.2546 87.8584,-45.9897 78.351,-36.2254"/>
<polygon fill="midnightblue" stroke="midnightblue" points="109.959,-73.705 119.443,-78.4281 114.975,-68.8217 109.959,-73.705"/>
</g>
<!-- Node3 -->
<g id="node3" class="node"><title>Node3</title>
<g id="a_node3"><a xlink:href="../../d0/d58/position__estimator__inav__main_8cpp.html" target="_top" xlink:title="src/modules/position\l_estimator_inav/position\l_estimator_inav_main.cpp">
<polygon fill="white" stroke="black" points="147,-0.5 147,-41.5 278,-41.5 278,-0.5 147,-0.5"/>
<text text-anchor="start" x="155" y="-29.5" font-family="Helvetica,sans-Serif" font-size="10.00">src/modules/position</text>
<text text-anchor="start" x="155" y="-18.5" font-family="Helvetica,sans-Serif" font-size="10.00">_estimator_inav/position</text>
<text text-anchor="middle" x="212.5" y="-7.5" font-family="Helvetica,sans-Serif" font-size="10.00">_estimator_inav_main.cpp</text>
</a>
</g>
</g>
<!-- Node1&#45;&gt;Node3 -->
<g id="edge2" class="edge"><title>Node1&#45;&gt;Node3</title>
<path fill="none" stroke="midnightblue" d="M164.591,-71.204C174.121,-61.416 184.712,-50.5388 193.508,-41.5056"/>
<polygon fill="midnightblue" stroke="midnightblue" points="162.025,-68.8217 157.557,-78.4281 167.041,-73.705 162.025,-68.8217"/>
</g>
</g>
</svg>
