<?xml version="1.0" encoding="UTF-8" standalone="no"?>
<!DOCTYPE svg PUBLIC "-//W3C//DTD SVG 1.1//EN"
 "http://www.w3.org/Graphics/SVG/1.1/DTD/svg11.dtd">
<!-- Generated by graphviz version 2.40.1 (20161225.0304)
 -->
<!-- Title: map_projection_global_project Pages: 1 -->
<!--zoomable 218 -->
<svg id="main" version="1.1" xmlns="http://www.w3.org/2000/svg" xmlns:xlink="http://www.w3.org/1999/xlink" xml:space="preserve" onload="init(evt)">
<style type="text/css"><![CDATA[
.edge:hover path { stroke: red; }
.edge:hover polygon { stroke: red; fill: red; }
]]></style>
<script type="text/javascript"><![CDATA[
var edges = document.getElementsByTagName('g');
if (edges && edges.length) {
  for (var i=0;i<edges.length;i++) {
    if (edges[i].id.substr(0,4)=='edge') {
      edges[i].setAttribute('class','edge');
    }
  }
}
]]></script>
        <defs>
                <circle id="rim" cx="0" cy="0" r="7"/>
                <circle id="rim2" cx="0" cy="0" r="3.5"/>
                <g id="zoomPlus">
                        <use xlink:href="#rim" fill="#404040">
                                <set attributeName="fill" to="#808080" begin="zoomplus.mouseover" end="zoomplus.mouseout"/>
                        </use>
                        <path d="M-4,0h8M0,-4v8" fill="none" stroke="white" stroke-width="1.5" pointer-events="none"/>
                </g>
                <g id="zoomMin">
                        <use xlink:href="#rim" fill="#404040">
                                <set attributeName="fill" to="#808080" begin="zoomminus.mouseover" end="zoomminus.mouseout"/>
                        </use>
                        <path d="M-4,0h8" fill="none" stroke="white" stroke-width="1.5" pointer-events="none"/>
                </g>
                <g id="dirArrow">
                        <path fill="none" stroke="white" stroke-width="1.5" d="M0,-3.0v7 M-2.5,-0.5L0,-3.0L2.5,-0.5"/>
                </g>
               <g id="resetDef">
                       <use xlink:href="#rim2" fill="#404040">
                               <set attributeName="fill" to="#808080" begin="reset.mouseover" end="reset.mouseout"/>
                       </use>
               </g>
        </defs>

<script type="text/javascript">
var viewWidth = 540;
var viewHeight = 218;
var sectionId = 'dynsection-33';
</script>
<script xlink:href="../../svgpan.js"/>
<svg id="graph" class="graph">
<g id="viewport">
<title>map_projection_global_project</title>
<polygon fill="#ffffff" stroke="transparent" points="-4,4 -4,-214 536,-214 536,4 -4,4"/>
<!-- Node385 -->
<g id="node1" class="node">
<title>Node385</title>
<polygon fill="#bfbfbf" stroke="#000000" points="0,-90 0,-120 113,-120 113,-90 0,-90"/>
<text text-anchor="start" x="8" y="-108" font-family="Helvetica,sans-Serif" font-size="10.00" fill="#000000">map_projection_global</text>
<text text-anchor="middle" x="56.5" y="-97" font-family="Helvetica,sans-Serif" font-size="10.00" fill="#000000">_project</text>
</g>
<!-- Node386 -->
<g id="node2" class="node">
<title>Node386</title>
<g id="a_node2"><a xlink:href="../../d7/d09/geo_8cpp.html#a5ea48079b8cf05b1b7f7d2b96e07b7f3" target="_top" xlink:title="map_projection_project">
<polygon fill="#ffffff" stroke="#000000" points="149,-95.5 149,-114.5 266,-114.5 266,-95.5 149,-95.5"/>
<text text-anchor="middle" x="207.5" y="-102.5" font-family="Helvetica,sans-Serif" font-size="10.00" fill="#000000">map_projection_project</text>
</a>
</g>
</g>
<!-- Node385&#45;&gt;Node386 -->
<g id="edge1" class="edge">
<title>Node385&#45;&gt;Node386</title>
<path fill="none" stroke="#191970" d="M113.1564,-105C121.4262,-105 130.0183,-105 138.5001,-105"/>
<polygon fill="#191970" stroke="#191970" points="138.7623,-108.5001 148.7623,-105 138.7622,-101.5001 138.7623,-108.5001"/>
</g>
<!-- Node387 -->
<g id="node3" class="node">
<title>Node387</title>
<g id="a_node3"><a xlink:href="../../d0/de4/namespacematrix.html#a86262fad1a82743f455537b64e00fc2e" target="_top" xlink:title="matrix::acos">
<polygon fill="#ffffff" stroke="#000000" points="330.5,-190.5 330.5,-209.5 401.5,-209.5 401.5,-190.5 330.5,-190.5"/>
<text text-anchor="middle" x="366" y="-197.5" font-family="Helvetica,sans-Serif" font-size="10.00" fill="#000000">matrix::acos</text>
</a>
</g>
</g>
<!-- Node386&#45;&gt;Node387 -->
<g id="edge2" class="edge">
<title>Node386&#45;&gt;Node387</title>
<path fill="none" stroke="#191970" d="M216.7956,-114.6026C232.7805,-130.5916 267.1325,-162.7166 302,-181 307.7932,-184.0378 314.1426,-186.6596 320.5214,-188.9012"/>
<polygon fill="#191970" stroke="#191970" points="319.9022,-192.3789 330.4938,-192.1159 322.0499,-185.7165 319.9022,-192.3789"/>
</g>
<!-- Node389 -->
<g id="node5" class="node">
<title>Node389</title>
<g id="a_node5"><a xlink:href="../../dd/d47/namespacemath.html#a4a49a65edaf29055a3cb021908a031d7" target="_top" xlink:title="math::constrain">
<polygon fill="#ffffff" stroke="#000000" points="324,-152.5 324,-171.5 408,-171.5 408,-152.5 324,-152.5"/>
<text text-anchor="middle" x="366" y="-159.5" font-family="Helvetica,sans-Serif" font-size="10.00" fill="#000000">math::constrain</text>
</a>
</g>
</g>
<!-- Node386&#45;&gt;Node389 -->
<g id="edge4" class="edge">
<title>Node386&#45;&gt;Node389</title>
<path fill="none" stroke="#191970" d="M229.8061,-114.6586C248.8148,-122.7226 276.954,-134.2681 302,-143 308.3973,-145.2303 315.2099,-147.4327 321.9146,-149.5037"/>
<polygon fill="#191970" stroke="#191970" points="321.0145,-152.888 331.5995,-152.4317 323.0403,-146.1875 321.0145,-152.888"/>
</g>
<!-- Node390 -->
<g id="node6" class="node">
<title>Node390</title>
<g id="a_node6"><a xlink:href="../../d0/de4/namespacematrix.html#a2e09123c750ed3a0315a31f3b27a3ed9" target="_top" xlink:title="matrix::cos">
<polygon fill="#ffffff" stroke="#000000" points="333.5,-114.5 333.5,-133.5 398.5,-133.5 398.5,-114.5 333.5,-114.5"/>
<text text-anchor="middle" x="366" y="-121.5" font-family="Helvetica,sans-Serif" font-size="10.00" fill="#000000">matrix::cos</text>
</a>
</g>
</g>
<!-- Node386&#45;&gt;Node390 -->
<g id="edge5" class="edge">
<title>Node386&#45;&gt;Node390</title>
<path fill="none" stroke="#191970" d="M266.0692,-112.0209C285.0883,-114.3008 305.8159,-116.7855 323.438,-118.8979"/>
<polygon fill="#191970" stroke="#191970" points="323.0728,-122.3791 333.4184,-120.0943 323.906,-115.4289 323.0728,-122.3791"/>
</g>
<!-- Node391 -->
<g id="node7" class="node">
<title>Node391</title>
<g id="a_node7"><a xlink:href="../../d0/de4/namespacematrix.html#a761295febb473ca1226309513533e801" target="_top" xlink:title="matrix::sin">
<polygon fill="#ffffff" stroke="#000000" points="468,-114.5 468,-133.5 530,-133.5 530,-114.5 468,-114.5"/>
<text text-anchor="middle" x="499" y="-121.5" font-family="Helvetica,sans-Serif" font-size="10.00" fill="#000000">matrix::sin</text>
</a>
</g>
</g>
<!-- Node386&#45;&gt;Node391 -->
<g id="edge10" class="edge">
<title>Node386&#45;&gt;Node391</title>
<path fill="none" stroke="#191970" d="M266.3462,-100.7216C311.3663,-98.4805 374.8763,-97.5492 430,-105 440.343,-106.398 451.3273,-108.9242 461.4186,-111.6878"/>
<polygon fill="#191970" stroke="#191970" points="460.5769,-115.0876 471.1553,-114.4974 462.5177,-108.362 460.5769,-115.0876"/>
</g>
<!-- Node392 -->
<g id="node8" class="node">
<title>Node392</title>
<g id="a_node8"><a xlink:href="../../d7/d09/geo_8cpp.html#a7e99116663d8760b551bd9d901273207" target="_top" xlink:title="Checks if projection given as argument was initialized. ">
<polygon fill="#ffffff" stroke="#000000" points="302,-38.5 302,-57.5 430,-57.5 430,-38.5 302,-38.5"/>
<text text-anchor="middle" x="366" y="-45.5" font-family="Helvetica,sans-Serif" font-size="10.00" fill="#000000">map_projection_initialized</text>
</a>
</g>
</g>
<!-- Node386&#45;&gt;Node392 -->
<g id="edge8" class="edge">
<title>Node386&#45;&gt;Node392</title>
<path fill="none" stroke="#191970" d="M234.0293,-95.4595C260.316,-86.0062 300.7653,-71.4598 329.9538,-60.963"/>
<polygon fill="#191970" stroke="#191970" points="331.1585,-64.2493 339.3841,-57.5716 328.7897,-57.6622 331.1585,-64.2493"/>
</g>
<!-- Node393 -->
<g id="node9" class="node">
<title>Node393</title>
<g id="a_node9"><a xlink:href="../../dd/d47/namespacemath.html#a7e34369248d5d1565073dc552dd90d5c" target="_top" xlink:title="math::radians">
<polygon fill="#ffffff" stroke="#000000" points="328,-.5 328,-19.5 404,-19.5 404,-.5 328,-.5"/>
<text text-anchor="middle" x="366" y="-7.5" font-family="Helvetica,sans-Serif" font-size="10.00" fill="#000000">math::radians</text>
</a>
</g>
</g>
<!-- Node386&#45;&gt;Node393 -->
<g id="edge9" class="edge">
<title>Node386&#45;&gt;Node393</title>
<path fill="none" stroke="#191970" d="M216.7956,-95.3974C232.7805,-79.4084 267.1325,-47.2834 302,-29 307.1292,-26.3104 312.6944,-23.9469 318.33,-21.8846"/>
<polygon fill="#191970" stroke="#191970" points="319.4537,-25.1994 327.8162,-18.694 317.2221,-18.5647 319.4537,-25.1994"/>
</g>
<!-- Node388 -->
<g id="node4" class="node">
<title>Node388</title>
<g id="a_node4"><a xlink:href="../../d0/de4/namespacematrix.html#a3fd7237277d21ed856d97c311c0e2db7" target="_top" xlink:title="matrix::sqrt">
<polygon fill="#ffffff" stroke="#000000" points="466,-190.5 466,-209.5 532,-209.5 532,-190.5 466,-190.5"/>
<text text-anchor="middle" x="499" y="-197.5" font-family="Helvetica,sans-Serif" font-size="10.00" fill="#000000">matrix::sqrt</text>
</a>
</g>
</g>
<!-- Node387&#45;&gt;Node388 -->
<g id="edge3" class="edge">
<title>Node387&#45;&gt;Node388</title>
<path fill="none" stroke="#191970" d="M401.6416,-200C418.0815,-200 437.7545,-200 455.0994,-200"/>
<polygon fill="#191970" stroke="#191970" points="455.5485,-203.5001 465.5485,-200 455.5485,-196.5001 455.5485,-203.5001"/>
</g>
<!-- Node390&#45;&gt;Node391 -->
<g id="edge6" class="edge">
<title>Node390&#45;&gt;Node391</title>
<path fill="none" stroke="#191970" d="M398.5355,-118.1029C416.3145,-117.1239 438.5211,-116.9877 457.5319,-117.6944"/>
<polygon fill="#191970" stroke="#191970" points="457.5628,-121.1996 467.7163,-118.1737 457.8919,-114.2073 457.5628,-121.1996"/>
</g>
<!-- Node391&#45;&gt;Node390 -->
<g id="edge7" class="edge">
<title>Node391&#45;&gt;Node390</title>
<path fill="none" stroke="#191970" d="M467.7163,-129.8263C450.0692,-130.8499 427.7719,-131.0228 408.5539,-130.345"/>
<polygon fill="#191970" stroke="#191970" points="408.6818,-126.8473 398.5355,-129.8971 408.3691,-133.8403 408.6818,-126.8473"/>
</g>
</g>
</svg>
        <g id="navigator" transform="translate(0 0)" fill="#404254">
                <rect fill="#f2f5e9" fill-opacity="0.5" stroke="#606060" stroke-width=".5" x="0" y="0" width="60" height="60"/>
                <use id="zoomplus" xlink:href="#zoomPlus" x="17" y="9" onmousedown="handleZoom(evt,'in')"/>
                <use id="zoomminus" xlink:href="#zoomMin" x="42" y="9" onmousedown="handleZoom(evt,'out')"/>
                <use id="reset" xlink:href="#resetDef" x="30" y="36" onmousedown="handleReset()"/>
                <g id="arrowUp" xlink:href="#dirArrow" transform="translate(30 24)" onmousedown="handlePan(0,-1)">
                  <use xlink:href="#rim" fill="#404040">
                        <set attributeName="fill" to="#808080" begin="arrowUp.mouseover" end="arrowUp.mouseout"/>
                  </use>
                  <path fill="none" stroke="white" stroke-width="1.5" d="M0,-3.0v7 M-2.5,-0.5L0,-3.0L2.5,-0.5"/>
                </g>
                <g id="arrowRight" xlink:href="#dirArrow" transform="rotate(90) translate(36 -43)" onmousedown="handlePan(1,0)">
                  <use xlink:href="#rim" fill="#404040">
                        <set attributeName="fill" to="#808080" begin="arrowRight.mouseover" end="arrowRight.mouseout"/>
                  </use>
                  <path fill="none" stroke="white" stroke-width="1.5" d="M0,-3.0v7 M-2.5,-0.5L0,-3.0L2.5,-0.5"/>
                </g>
                <g id="arrowDown" xlink:href="#dirArrow" transform="rotate(180) translate(-30 -48)" onmousedown="handlePan(0,1)">
                  <use xlink:href="#rim" fill="#404040">
                        <set attributeName="fill" to="#808080" begin="arrowDown.mouseover" end="arrowDown.mouseout"/>
                  </use>
                  <path fill="none" stroke="white" stroke-width="1.5" d="M0,-3.0v7 M-2.5,-0.5L0,-3.0L2.5,-0.5"/>
                </g>
                <g id="arrowLeft" xlink:href="#dirArrow" transform="rotate(270) translate(-36 17)" onmousedown="handlePan(-1,0)">
                  <use xlink:href="#rim" fill="#404040">
                        <set attributeName="fill" to="#808080" begin="arrowLeft.mouseover" end="arrowLeft.mouseout"/>
                  </use>
                  <path fill="none" stroke="white" stroke-width="1.5" d="M0,-3.0v7 M-2.5,-0.5L0,-3.0L2.5,-0.5"/>
                </g>
        </g>
        <svg viewBox="0 0 15 15" width="100%" height="30px" preserveAspectRatio="xMaxYMin meet">
         <g id="arrow_out" transform="scale(0.3 0.3)">
          <a xlink:href="geo_8h_a7599b7a785ea6ce25465f09df2046796_cgraph_org.svg" target="_base">
           <rect id="button" ry="5" rx="5" y="6" x="6" height="38" width="38"
                fill="#f2f5e9" fill-opacity="0.5" stroke="#606060" stroke-width="1.0"/>
           <path id="arrow"
             d="M 11.500037,31.436501 C 11.940474,20.09759 22.043105,11.32322 32.158766,21.979434 L 37.068811,17.246167 C 37.068811,17.246167 37.088388,32 37.088388,32 L 22.160133,31.978069 C 22.160133,31.978069 26.997745,27.140456 26.997745,27.140456 C 18.528582,18.264221 13.291696,25.230495 11.500037,31.436501 z"
             style="fill:#404040;"/>
          </a>
         </g>
        </svg>
</svg>
