<?xml version="1.0" encoding="UTF-8" standalone="no"?>
<!DOCTYPE svg PUBLIC "-//W3C//DTD SVG 1.1//EN"
 "http://www.w3.org/Graphics/SVG/1.1/DTD/svg11.dtd">
<!-- Generated by graphviz version 2.38.0 (20140413.2041)
 -->
<!-- Title: src/systemcmds/dumpfile Pages: 1 -->
<svg width="109pt" height="223pt"
 viewBox="0.00 0.00 108.50 223.00" xmlns="http://www.w3.org/2000/svg" xmlns:xlink="http://www.w3.org/1999/xlink">
<g id="graph0" class="graph" transform="scale(1 1) rotate(0) translate(4 219)">
<title>src/systemcmds/dumpfile</title>
<polygon fill="white" stroke="none" points="-4,4 -4,-219 104.5,-219 104.5,4 -4,4"/>
<g id="clust1" class="cluster"><title>clusterdir_7e9ecf8e1245c574dd7c2ecefc59fb71</title>
<g id="a_clust1"><a xlink:href="dir_7e9ecf8e1245c574dd7c2ecefc59fb71.html" target="_top" xlink:title="systemcmds">
<polygon fill="#ddddee" stroke="black" points="19.5,-136 19.5,-207 92.5,-207 92.5,-136 19.5,-136"/>
<text text-anchor="middle" x="56" y="-195" font-family="Helvetica,sans-Serif" font-size="10.00">systemcmds</text>
</a>
</g>
</g>
<!-- dir_0f81ff05d8f0a3b25c976ab277bd3ebd -->
<g id="node1" class="node"><title>dir_0f81ff05d8f0a3b25c976ab277bd3ebd</title>
<g id="a_node1"><a xlink:href="dir_0f81ff05d8f0a3b25c976ab277bd3ebd.html" target="_top" xlink:title="dumpfile">
<polygon fill="#eeeeff" stroke="black" points="82.5,-180 28.5,-180 28.5,-144 82.5,-144 82.5,-180"/>
<text text-anchor="middle" x="55.5" y="-159.5" font-family="Helvetica,sans-Serif" font-size="10.00">dumpfile</text>
</a>
</g>
</g>
<!-- dir_ddb4d7e95cc2d6c8e1ade10a20d7247d -->
<g id="node2" class="node"><title>dir_ddb4d7e95cc2d6c8e1ade10a20d7247d</title>
<g id="a_node2"><a xlink:href="dir_ddb4d7e95cc2d6c8e1ade10a20d7247d.html" target="_top" xlink:title="modules">
<polygon fill="white" stroke="red" points="55.5,-108 1.5,-108 1.5,-72 55.5,-72 55.5,-108"/>
<text text-anchor="middle" x="28.5" y="-87.5" font-family="Helvetica,sans-Serif" font-size="10.00">modules</text>
</a>
</g>
</g>
<!-- dir_0f81ff05d8f0a3b25c976ab277bd3ebd&#45;&gt;dir_ddb4d7e95cc2d6c8e1ade10a20d7247d -->
<g id="edge3" class="edge"><title>dir_0f81ff05d8f0a3b25c976ab277bd3ebd&#45;&gt;dir_ddb4d7e95cc2d6c8e1ade10a20d7247d</title>
<path fill="none" stroke="black" d="M48.8258,-143.697C45.7851,-135.813 42.1173,-126.304 38.7393,-117.546"/>
<polygon fill="black" stroke="black" points="41.9617,-116.175 35.0974,-108.104 35.4307,-118.694 41.9617,-116.175"/>
<g id="a_edge3&#45;headlabel"><a xlink:href="dir_000331_000051.html" target="_top" xlink:title="1">
<text text-anchor="middle" x="45.9043" y="-116.007" font-family="Helvetica,sans-Serif" font-size="10.00">1</text>
</a>
</g>
</g>
<!-- dir_ceed1ce8f89ba04e240f3818f1ccc961 -->
<g id="node3" class="node"><title>dir_ceed1ce8f89ba04e240f3818f1ccc961</title>
<g id="a_node3"><a xlink:href="dir_ceed1ce8f89ba04e240f3818f1ccc961.html" target="_top" xlink:title="platforms">
<polygon fill="white" stroke="red" points="57,-36 0,-36 0,-0 57,-0 57,-36"/>
<text text-anchor="middle" x="28.5" y="-15.5" font-family="Helvetica,sans-Serif" font-size="10.00">platforms</text>
</a>
</g>
</g>
<!-- dir_0f81ff05d8f0a3b25c976ab277bd3ebd&#45;&gt;dir_ceed1ce8f89ba04e240f3818f1ccc961 -->
<g id="edge4" class="edge"><title>dir_0f81ff05d8f0a3b25c976ab277bd3ebd&#45;&gt;dir_ceed1ce8f89ba04e240f3818f1ccc961</title>
<path fill="none" stroke="black" d="M61.1461,-143.877C66.2573,-125.661 71.9405,-96.196 64.5,-72 61.4911,-62.2153 55.993,-52.6161 50.1843,-44.3336"/>
<polygon fill="black" stroke="black" points="52.9072,-42.1306 44.1099,-36.2264 47.3052,-46.3279 52.9072,-42.1306"/>
<g id="a_edge4&#45;headlabel"><a xlink:href="dir_000331_000113.html" target="_top" xlink:title="3">
<text text-anchor="middle" x="57.3348" y="-40.8048" font-family="Helvetica,sans-Serif" font-size="10.00">3</text>
</a>
</g>
</g>
<!-- dir_ddb4d7e95cc2d6c8e1ade10a20d7247d&#45;&gt;dir_ceed1ce8f89ba04e240f3818f1ccc961 -->
<g id="edge1" class="edge"><title>dir_ddb4d7e95cc2d6c8e1ade10a20d7247d&#45;&gt;dir_ceed1ce8f89ba04e240f3818f1ccc961</title>
<path fill="none" stroke="black" d="M22.5843,-71.6966C21.7886,-63.9827 21.5621,-54.7125 21.9047,-46.1124"/>
<polygon fill="black" stroke="black" points="25.3984,-46.3243 22.605,-36.1043 18.4154,-45.8356 25.3984,-46.3243"/>
<g id="a_edge1&#45;headlabel"><a xlink:href="dir_000051_000113.html" target="_top" xlink:title="338">
<text text-anchor="middle" x="27.9799" y="-47.6083" font-family="Helvetica,sans-Serif" font-size="10.00">338</text>
</a>
</g>
</g>
<!-- dir_ceed1ce8f89ba04e240f3818f1ccc961&#45;&gt;dir_ddb4d7e95cc2d6c8e1ade10a20d7247d -->
<g id="edge2" class="edge"><title>dir_ceed1ce8f89ba04e240f3818f1ccc961&#45;&gt;dir_ddb4d7e95cc2d6c8e1ade10a20d7247d</title>
<path fill="none" stroke="black" d="M34.395,-36.1043C35.2005,-43.7913 35.4369,-53.0537 35.104,-61.6651"/>
<polygon fill="black" stroke="black" points="31.6085,-61.4805 34.4157,-71.6966 38.5921,-61.9597 31.6085,-61.4805"/>
<g id="a_edge2&#45;headlabel"><a xlink:href="dir_000113_000051.html" target="_top" xlink:title="29">
<text text-anchor="middle" x="29.0219" y="-55.2" font-family="Helvetica,sans-Serif" font-size="10.00">29</text>
</a>
</g>
</g>
</g>
</svg>
