<?xml version="1.0" encoding="UTF-8" standalone="no"?>
<!DOCTYPE svg PUBLIC "-//W3C//DTD SVG 1.1//EN"
 "http://www.w3.org/Graphics/SVG/1.1/DTD/svg11.dtd">
<!-- Generated by graphviz version 2.38.0 (20140413.2041)
 -->
<!-- Title: src/platforms Pages: 1 -->
<svg width="492pt" height="375pt"
 viewBox="0.00 0.00 491.51 375.00" xmlns="http://www.w3.org/2000/svg" xmlns:xlink="http://www.w3.org/1999/xlink">
<g id="graph0" class="graph" transform="scale(1 1) rotate(0) translate(4 371)">
<title>src/platforms</title>
<polygon fill="white" stroke="none" points="-4,4 -4,-371 487.509,-371 487.509,4 -4,4"/>
<g id="clust1" class="cluster"><title>clusterdir_68267d1309a1af8e8297ef4c3efbcdba</title>
<g id="a_clust1"><a xlink:href="dir_68267d1309a1af8e8297ef4c3efbcdba.html" target="_top" xlink:title="src">
<polygon fill="#ddddee" stroke="black" points="97.5086,-272 97.5086,-359 475.509,-359 475.509,-272 97.5086,-272"/>
<text text-anchor="middle" x="286.509" y="-347" font-family="Helvetica,sans-Serif" font-size="10.00">src</text>
</a>
</g>
</g>
<g id="clust2" class="cluster"><title>clusterdir_ceed1ce8f89ba04e240f3818f1ccc961</title>
<g id="a_clust2"><a xlink:href="dir_ceed1ce8f89ba04e240f3818f1ccc961.html" target="_top">
<polygon fill="#eeeeff" stroke="black" points="105.509,-280 105.509,-332 467.509,-332 467.509,-280 105.509,-280"/>
</a>
</g>
</g>
<!-- dir_ceed1ce8f89ba04e240f3818f1ccc961 -->
<g id="node1" class="node"><title>dir_ceed1ce8f89ba04e240f3818f1ccc961</title>
<text text-anchor="middle" x="430.509" y="-303.5" font-family="Helvetica,sans-Serif" font-size="10.00">platforms</text>
</g>
<!-- dir_3c172eab3d3eff36a04ebb8e77c44848 -->
<g id="node2" class="node"><title>dir_3c172eab3d3eff36a04ebb8e77c44848</title>
<g id="a_node2"><a xlink:href="dir_3c172eab3d3eff36a04ebb8e77c44848.html" target="_top" xlink:title="common">
<polygon fill="white" stroke="red" points="167.509,-324 113.509,-324 113.509,-288 167.509,-288 167.509,-324"/>
<text text-anchor="middle" x="140.509" y="-303.5" font-family="Helvetica,sans-Serif" font-size="10.00">common</text>
</a>
</g>
</g>
<!-- dir_ddb4d7e95cc2d6c8e1ade10a20d7247d -->
<g id="node7" class="node"><title>dir_ddb4d7e95cc2d6c8e1ade10a20d7247d</title>
<g id="a_node7"><a xlink:href="dir_ddb4d7e95cc2d6c8e1ade10a20d7247d.html" target="_top" xlink:title="modules">
<polygon fill="white" stroke="red" points="174.509,-252 120.509,-252 120.509,-216 174.509,-216 174.509,-252"/>
<text text-anchor="middle" x="147.509" y="-231.5" font-family="Helvetica,sans-Serif" font-size="10.00">modules</text>
</a>
</g>
</g>
<!-- dir_3c172eab3d3eff36a04ebb8e77c44848&#45;&gt;dir_ddb4d7e95cc2d6c8e1ade10a20d7247d -->
<g id="edge25" class="edge"><title>dir_3c172eab3d3eff36a04ebb8e77c44848&#45;&gt;dir_ddb4d7e95cc2d6c8e1ade10a20d7247d</title>
<path fill="none" stroke="black" d="M142.239,-287.697C143.01,-279.983 143.937,-270.712 144.797,-262.112"/>
<polygon fill="black" stroke="black" points="148.286,-262.403 145.798,-252.104 141.32,-261.706 148.286,-262.403"/>
<g id="a_edge25&#45;headlabel"><a xlink:href="dir_000288_000051.html" target="_top" xlink:title="1">
<text text-anchor="middle" x="150.753" y="-263.762" font-family="Helvetica,sans-Serif" font-size="10.00">1</text>
</a>
</g>
</g>
<!-- dir_4fef79e7177ba769987a8da36c892c5f -->
<g id="node8" class="node"><title>dir_4fef79e7177ba769987a8da36c892c5f</title>
<g id="a_node8"><a xlink:href="dir_4fef79e7177ba769987a8da36c892c5f.html" target="_top" xlink:title="build">
<polygon fill="white" stroke="red" points="92.5086,-36 38.5086,-36 38.5086,-0 92.5086,-0 92.5086,-36"/>
<text text-anchor="middle" x="65.5086" y="-15.5" font-family="Helvetica,sans-Serif" font-size="10.00">build</text>
</a>
</g>
</g>
<!-- dir_3c172eab3d3eff36a04ebb8e77c44848&#45;&gt;dir_4fef79e7177ba769987a8da36c892c5f -->
<g id="edge26" class="edge"><title>dir_3c172eab3d3eff36a04ebb8e77c44848&#45;&gt;dir_4fef79e7177ba769987a8da36c892c5f</title>
<path fill="none" stroke="black" d="M122.981,-287.755C91.8722,-255.767 28.065,-183.586 4.50859,-108 -0.251998,-92.7246 -2.1283,-86.5586 4.50859,-72 10.0648,-59.8121 19.9614,-49.3432 30.188,-41.0064"/>
<polygon fill="black" stroke="black" points="32.5345,-43.6193 38.3837,-34.7854 28.3023,-38.0437 32.5345,-43.6193"/>
<g id="a_edge26&#45;headlabel"><a xlink:href="dir_000288_000000.html" target="_top" xlink:title="1">
<text text-anchor="middle" x="31.388" y="-45.5542" font-family="Helvetica,sans-Serif" font-size="10.00">1</text>
</a>
</g>
</g>
<!-- dir_c718a368270b13c54d94892d20736f45 -->
<g id="node10" class="node"><title>dir_c718a368270b13c54d94892d20736f45</title>
<g id="a_node10"><a xlink:href="dir_c718a368270b13c54d94892d20736f45.html" target="_top" xlink:title="drivers">
<polygon fill="white" stroke="red" points="214.509,-108 160.509,-108 160.509,-72 214.509,-72 214.509,-108"/>
<text text-anchor="middle" x="187.509" y="-87.5" font-family="Helvetica,sans-Serif" font-size="10.00">drivers</text>
</a>
</g>
</g>
<!-- dir_3c172eab3d3eff36a04ebb8e77c44848&#45;&gt;dir_c718a368270b13c54d94892d20736f45 -->
<g id="edge27" class="edge"><title>dir_3c172eab3d3eff36a04ebb8e77c44848&#45;&gt;dir_c718a368270b13c54d94892d20736f45</title>
<path fill="none" stroke="black" d="M128.202,-287.784C121.859,-277.843 114.783,-264.804 111.509,-252 107.545,-236.499 107.192,-231.407 111.509,-216 122.172,-177.934 147.964,-139.948 166.545,-116.017"/>
<polygon fill="black" stroke="black" points="169.305,-118.17 172.78,-108.161 163.822,-113.818 169.305,-118.17"/>
<g id="a_edge27&#45;headlabel"><a xlink:href="dir_000288_000005.html" target="_top" xlink:title="4">
<text text-anchor="middle" x="169.294" y="-120.25" font-family="Helvetica,sans-Serif" font-size="10.00">4</text>
</a>
</g>
</g>
<!-- dir_ecf0edda40476ff1d9c29547bdf97a40 -->
<g id="node3" class="node"><title>dir_ecf0edda40476ff1d9c29547bdf97a40</title>
<g id="a_node3"><a xlink:href="dir_ecf0edda40476ff1d9c29547bdf97a40.html" target="_top" xlink:title="posix">
<polygon fill="white" stroke="red" points="239.509,-324 185.509,-324 185.509,-288 239.509,-288 239.509,-324"/>
<text text-anchor="middle" x="212.509" y="-303.5" font-family="Helvetica,sans-Serif" font-size="10.00">posix</text>
</a>
</g>
</g>
<!-- dir_c85d3e3c5052e9ad9ce18c6863244a25 -->
<g id="node6" class="node"><title>dir_c85d3e3c5052e9ad9ce18c6863244a25</title>
<g id="a_node6"><a xlink:href="dir_c85d3e3c5052e9ad9ce18c6863244a25.html" target="_top" xlink:title="lib">
<polygon fill="white" stroke="red" points="288.509,-180 234.509,-180 234.509,-144 288.509,-144 288.509,-180"/>
<text text-anchor="middle" x="261.509" y="-159.5" font-family="Helvetica,sans-Serif" font-size="10.00">lib</text>
</a>
</g>
</g>
<!-- dir_ecf0edda40476ff1d9c29547bdf97a40&#45;&gt;dir_c85d3e3c5052e9ad9ce18c6863244a25 -->
<g id="edge5" class="edge"><title>dir_ecf0edda40476ff1d9c29547bdf97a40&#45;&gt;dir_c85d3e3c5052e9ad9ce18c6863244a25</title>
<path fill="none" stroke="black" d="M218.419,-287.871C226.807,-263.564 242.247,-218.819 252.187,-190.013"/>
<polygon fill="black" stroke="black" points="255.624,-190.784 255.577,-180.189 249.007,-188.501 255.624,-190.784"/>
<g id="a_edge5&#45;headlabel"><a xlink:href="dir_000114_000122.html" target="_top" xlink:title="25">
<text text-anchor="middle" x="257.135" y="-192.608" font-family="Helvetica,sans-Serif" font-size="10.00">25</text>
</a>
</g>
</g>
<!-- dir_ecf0edda40476ff1d9c29547bdf97a40&#45;&gt;dir_ddb4d7e95cc2d6c8e1ade10a20d7247d -->
<g id="edge6" class="edge"><title>dir_ecf0edda40476ff1d9c29547bdf97a40&#45;&gt;dir_ddb4d7e95cc2d6c8e1ade10a20d7247d</title>
<path fill="none" stroke="black" d="M196.441,-287.697C188.57,-279.22 178.953,-268.864 170.335,-259.583"/>
<polygon fill="black" stroke="black" points="172.761,-257.051 163.391,-252.104 167.631,-261.814 172.761,-257.051"/>
<g id="a_edge6&#45;headlabel"><a xlink:href="dir_000114_000051.html" target="_top" xlink:title="21">
<text text-anchor="middle" x="177.287" y="-255.253" font-family="Helvetica,sans-Serif" font-size="10.00">21</text>
</a>
</g>
</g>
<!-- dir_ecf0edda40476ff1d9c29547bdf97a40&#45;&gt;dir_4fef79e7177ba769987a8da36c892c5f -->
<g id="edge7" class="edge"><title>dir_ecf0edda40476ff1d9c29547bdf97a40&#45;&gt;dir_4fef79e7177ba769987a8da36c892c5f</title>
<path fill="none" stroke="black" d="M196.892,-287.867C190.968,-282.172 183.866,-276.214 176.509,-272 150.282,-256.976 134.004,-272.187 111.509,-252 52.8796,-199.388 56.1396,-95.5339 61.5675,-46.2234"/>
<polygon fill="black" stroke="black" points="65.0758,-46.3668 62.8104,-36.017 58.1271,-45.5205 65.0758,-46.3668"/>
<g id="a_edge7&#45;headlabel"><a xlink:href="dir_000114_000000.html" target="_top" xlink:title="18">
<text text-anchor="middle" x="67.4598" y="-47.7782" font-family="Helvetica,sans-Serif" font-size="10.00">18</text>
</a>
</g>
</g>
<!-- dir_ecf0edda40476ff1d9c29547bdf97a40&#45;&gt;dir_c718a368270b13c54d94892d20736f45 -->
<g id="edge8" class="edge"><title>dir_ecf0edda40476ff1d9c29547bdf97a40&#45;&gt;dir_c718a368270b13c54d94892d20736f45</title>
<path fill="none" stroke="black" d="M210.505,-287.849C206.181,-250.832 195.941,-163.181 190.708,-118.386"/>
<polygon fill="black" stroke="black" points="194.159,-117.759 189.522,-108.232 187.206,-118.571 194.159,-117.759"/>
<g id="a_edge8&#45;headlabel"><a xlink:href="dir_000114_000005.html" target="_top" xlink:title="32">
<text text-anchor="middle" x="197.396" y="-118.5" font-family="Helvetica,sans-Serif" font-size="10.00">32</text>
</a>
</g>
</g>
<!-- dir_b3a3f2aeb7b5ecd626d38f5af03a318c -->
<g id="node4" class="node"><title>dir_b3a3f2aeb7b5ecd626d38f5af03a318c</title>
<g id="a_node4"><a xlink:href="dir_b3a3f2aeb7b5ecd626d38f5af03a318c.html" target="_top" xlink:title="qurt">
<polygon fill="white" stroke="red" points="311.509,-324 257.509,-324 257.509,-288 311.509,-288 311.509,-324"/>
<text text-anchor="middle" x="284.509" y="-303.5" font-family="Helvetica,sans-Serif" font-size="10.00">qurt</text>
</a>
</g>
</g>
<!-- dir_b3a3f2aeb7b5ecd626d38f5af03a318c&#45;&gt;dir_c85d3e3c5052e9ad9ce18c6863244a25 -->
<g id="edge16" class="edge"><title>dir_b3a3f2aeb7b5ecd626d38f5af03a318c&#45;&gt;dir_c85d3e3c5052e9ad9ce18c6863244a25</title>
<path fill="none" stroke="black" d="M281.734,-287.871C277.814,-263.67 270.613,-219.211 265.946,-190.393"/>
<polygon fill="black" stroke="black" points="269.347,-189.501 264.293,-180.189 262.437,-190.62 269.347,-189.501"/>
<g id="a_edge16&#45;headlabel"><a xlink:href="dir_000307_000122.html" target="_top" xlink:title="2">
<text text-anchor="middle" x="272.724" y="-190.095" font-family="Helvetica,sans-Serif" font-size="10.00">2</text>
</a>
</g>
</g>
<!-- dir_b3a3f2aeb7b5ecd626d38f5af03a318c&#45;&gt;dir_ddb4d7e95cc2d6c8e1ade10a20d7247d -->
<g id="edge17" class="edge"><title>dir_b3a3f2aeb7b5ecd626d38f5af03a318c&#45;&gt;dir_ddb4d7e95cc2d6c8e1ade10a20d7247d</title>
<path fill="none" stroke="black" d="M268.408,-287.74C262.547,-282.167 255.607,-276.319 248.509,-272 228.582,-259.878 204.058,-250.777 184.166,-244.634"/>
<polygon fill="black" stroke="black" points="185.107,-241.263 174.525,-241.774 183.116,-247.974 185.107,-241.263"/>
<g id="a_edge17&#45;headlabel"><a xlink:href="dir_000307_000051.html" target="_top" xlink:title="3">
<text text-anchor="middle" x="189.361" y="-237.063" font-family="Helvetica,sans-Serif" font-size="10.00">3</text>
</a>
</g>
</g>
<!-- dir_b3a3f2aeb7b5ecd626d38f5af03a318c&#45;&gt;dir_4fef79e7177ba769987a8da36c892c5f -->
<g id="edge18" class="edge"><title>dir_b3a3f2aeb7b5ecd626d38f5af03a318c&#45;&gt;dir_4fef79e7177ba769987a8da36c892c5f</title>
<path fill="none" stroke="black" d="M300.972,-287.919C309.162,-278.218 318.212,-265.366 322.509,-252 328.291,-234.013 323.869,-156.341 318.509,-144 281.972,-59.8935 163.617,-31.9535 102.616,-23.0094"/>
<polygon fill="black" stroke="black" points="103.015,-19.5314 92.6321,-21.6406 102.064,-26.4665 103.015,-19.5314"/>
<g id="a_edge18&#45;headlabel"><a xlink:href="dir_000307_000000.html" target="_top" xlink:title="11">
<text text-anchor="middle" x="106.962" y="-14.7065" font-family="Helvetica,sans-Serif" font-size="10.00">11</text>
</a>
</g>
</g>
<!-- dir_b3a3f2aeb7b5ecd626d38f5af03a318c&#45;&gt;dir_c718a368270b13c54d94892d20736f45 -->
<g id="edge19" class="edge"><title>dir_b3a3f2aeb7b5ecd626d38f5af03a318c&#45;&gt;dir_c718a368270b13c54d94892d20736f45</title>
<path fill="none" stroke="black" d="M292.108,-287.904C304.74,-256.653 326,-189.354 297.509,-144 281.581,-118.645 249.741,-105.135 224.398,-98.117"/>
<polygon fill="black" stroke="black" points="225.256,-94.7238 214.702,-95.6531 223.532,-101.508 225.256,-94.7238"/>
<g id="a_edge19&#45;headlabel"><a xlink:href="dir_000307_000005.html" target="_top" xlink:title="9">
<text text-anchor="middle" x="229.439" y="-90.3571" font-family="Helvetica,sans-Serif" font-size="10.00">9</text>
</a>
</g>
</g>
<!-- dir_865a94a8185b9a6451bad740533ebf61 -->
<g id="node5" class="node"><title>dir_865a94a8185b9a6451bad740533ebf61</title>
<g id="a_node5"><a xlink:href="dir_865a94a8185b9a6451bad740533ebf61.html" target="_top" xlink:title="ros">
<polygon fill="white" stroke="red" points="383.509,-324 329.509,-324 329.509,-288 383.509,-288 383.509,-324"/>
<text text-anchor="middle" x="356.509" y="-303.5" font-family="Helvetica,sans-Serif" font-size="10.00">ros</text>
</a>
</g>
</g>
<!-- dir_865a94a8185b9a6451bad740533ebf61&#45;&gt;dir_c85d3e3c5052e9ad9ce18c6863244a25 -->
<g id="edge14" class="edge"><title>dir_865a94a8185b9a6451bad740533ebf61&#45;&gt;dir_c85d3e3c5052e9ad9ce18c6863244a25</title>
<path fill="none" stroke="black" d="M345.049,-287.871C328.502,-263.137 297.798,-217.242 278.577,-188.512"/>
<polygon fill="black" stroke="black" points="281.478,-186.555 273.008,-180.189 275.66,-190.447 281.478,-186.555"/>
<g id="a_edge14&#45;headlabel"><a xlink:href="dir_000319_000122.html" target="_top" xlink:title="2">
<text text-anchor="middle" x="285.837" y="-185.463" font-family="Helvetica,sans-Serif" font-size="10.00">2</text>
</a>
</g>
</g>
<!-- dir_b0856f6b0d80ccb263b2f415c91f9e17 -->
<g id="node9" class="node"><title>dir_b0856f6b0d80ccb263b2f415c91f9e17</title>
<g id="a_node9"><a xlink:href="dir_b0856f6b0d80ccb263b2f415c91f9e17.html" target="_top" xlink:title="include">
<polygon fill="white" stroke="red" points="307.509,-36 253.509,-36 253.509,-0 307.509,-0 307.509,-36"/>
<text text-anchor="middle" x="280.509" y="-15.5" font-family="Helvetica,sans-Serif" font-size="10.00">include</text>
</a>
</g>
</g>
<!-- dir_865a94a8185b9a6451bad740533ebf61&#45;&gt;dir_b0856f6b0d80ccb263b2f415c91f9e17 -->
<g id="edge15" class="edge"><title>dir_865a94a8185b9a6451bad740533ebf61&#45;&gt;dir_b0856f6b0d80ccb263b2f415c91f9e17</title>
<path fill="none" stroke="black" d="M363.258,-287.78C378.019,-247.122 408.762,-143.233 368.509,-72 357.475,-52.4741 336.046,-39.3424 317.098,-31.0346"/>
<polygon fill="black" stroke="black" points="318.35,-27.7653 307.769,-27.2292 315.706,-34.2468 318.35,-27.7653"/>
<g id="a_edge15&#45;headlabel"><a xlink:href="dir_000319_000168.html" target="_top" xlink:title="2">
<text text-anchor="middle" x="322.751" y="-23.9938" font-family="Helvetica,sans-Serif" font-size="10.00">2</text>
</a>
</g>
</g>
<!-- dir_c85d3e3c5052e9ad9ce18c6863244a25&#45;&gt;dir_ddb4d7e95cc2d6c8e1ade10a20d7247d -->
<g id="edge1" class="edge"><title>dir_c85d3e3c5052e9ad9ce18c6863244a25&#45;&gt;dir_ddb4d7e95cc2d6c8e1ade10a20d7247d</title>
<path fill="none" stroke="black" d="M239.703,-180.002C223.74,-190.484 201.896,-203.925 183.416,-214.648"/>
<polygon fill="black" stroke="black" points="181.59,-211.66 174.654,-219.669 185.071,-217.733 181.59,-211.66"/>
<g id="a_edge1&#45;headlabel"><a xlink:href="dir_000122_000051.html" target="_top" xlink:title="22">
<text text-anchor="middle" x="183.298" y="-204.909" font-family="Helvetica,sans-Serif" font-size="10.00">22</text>
</a>
</g>
</g>
<!-- dir_c85d3e3c5052e9ad9ce18c6863244a25&#45;&gt;dir_4fef79e7177ba769987a8da36c892c5f -->
<g id="edge2" class="edge"><title>dir_c85d3e3c5052e9ad9ce18c6863244a25&#45;&gt;dir_4fef79e7177ba769987a8da36c892c5f</title>
<path fill="none" stroke="black" d="M258.554,-143.823C254.25,-123.877 244.372,-91.2594 223.509,-72 190.082,-41.1424 138.113,-28.1965 102.988,-22.8003"/>
<polygon fill="black" stroke="black" points="103.056,-19.2758 92.6678,-21.3565 102.086,-26.2083 103.056,-19.2758"/>
<g id="a_edge2&#45;headlabel"><a xlink:href="dir_000122_000000.html" target="_top" xlink:title="26">
<text text-anchor="middle" x="107.01" y="-14.4618" font-family="Helvetica,sans-Serif" font-size="10.00">26</text>
</a>
</g>
</g>
<!-- dir_c85d3e3c5052e9ad9ce18c6863244a25&#45;&gt;dir_b0856f6b0d80ccb263b2f415c91f9e17 -->
<g id="edge3" class="edge"><title>dir_c85d3e3c5052e9ad9ce18c6863244a25&#45;&gt;dir_b0856f6b0d80ccb263b2f415c91f9e17</title>
<path fill="none" stroke="black" d="M263.8,-143.871C267.039,-119.67 272.987,-75.2108 276.843,-46.3932"/>
<polygon fill="black" stroke="black" points="280.351,-46.5651 278.209,-36.1893 273.413,-45.6367 280.351,-46.5651"/>
<g id="a_edge3&#45;headlabel"><a xlink:href="dir_000122_000168.html" target="_top" xlink:title="4">
<text text-anchor="middle" x="282.689" y="-48.0045" font-family="Helvetica,sans-Serif" font-size="10.00">4</text>
</a>
</g>
</g>
<!-- dir_c85d3e3c5052e9ad9ce18c6863244a25&#45;&gt;dir_c718a368270b13c54d94892d20736f45 -->
<g id="edge4" class="edge"><title>dir_c85d3e3c5052e9ad9ce18c6863244a25&#45;&gt;dir_c718a368270b13c54d94892d20736f45</title>
<path fill="none" stroke="black" d="M237.301,-143.697C227.367,-135.135 216.107,-124.656 206.74,-115.304"/>
<polygon fill="black" stroke="black" points="209.191,-112.804 199.695,-108.104 204.187,-117.7 209.191,-112.804"/>
<g id="a_edge4&#45;headlabel"><a xlink:href="dir_000122_000005.html" target="_top" xlink:title="22">
<text text-anchor="middle" x="213.734" y="-110.888" font-family="Helvetica,sans-Serif" font-size="10.00">22</text>
</a>
</g>
</g>
<!-- dir_ddb4d7e95cc2d6c8e1ade10a20d7247d&#45;&gt;dir_c85d3e3c5052e9ad9ce18c6863244a25 -->
<g id="edge9" class="edge"><title>dir_ddb4d7e95cc2d6c8e1ade10a20d7247d&#45;&gt;dir_c85d3e3c5052e9ad9ce18c6863244a25</title>
<path fill="none" stroke="black" d="M169.499,-215.876C185.402,-205.441 207.072,-192.108 225.448,-181.441"/>
<polygon fill="black" stroke="black" points="227.23,-184.454 234.164,-176.444 223.748,-178.381 227.23,-184.454"/>
<g id="a_edge9&#45;headlabel"><a xlink:href="dir_000051_000122.html" target="_top" xlink:title="232">
<text text-anchor="middle" x="225.524" y="-186.205" font-family="Helvetica,sans-Serif" font-size="10.00">232</text>
</a>
</g>
</g>
<!-- dir_ddb4d7e95cc2d6c8e1ade10a20d7247d&#45;&gt;dir_4fef79e7177ba769987a8da36c892c5f -->
<g id="edge10" class="edge"><title>dir_ddb4d7e95cc2d6c8e1ade10a20d7247d&#45;&gt;dir_4fef79e7177ba769987a8da36c892c5f</title>
<path fill="none" stroke="black" d="M120.356,-216.975C108.892,-207.313 96.7755,-194.159 89.5086,-180 67.3859,-136.896 60.0922,-80.1393 60.3152,-46.8057"/>
<polygon fill="black" stroke="black" points="63.8253,-46.5663 60.6684,-36.4528 56.8293,-46.3276 63.8253,-46.5663"/>
<g id="a_edge10&#45;headlabel"><a xlink:href="dir_000051_000000.html" target="_top" xlink:title="544">
<text text-anchor="middle" x="66.5404" y="-47.7556" font-family="Helvetica,sans-Serif" font-size="10.00">544</text>
</a>
</g>
</g>
<!-- dir_ddb4d7e95cc2d6c8e1ade10a20d7247d&#45;&gt;dir_b0856f6b0d80ccb263b2f415c91f9e17 -->
<g id="edge11" class="edge"><title>dir_ddb4d7e95cc2d6c8e1ade10a20d7247d&#45;&gt;dir_b0856f6b0d80ccb263b2f415c91f9e17</title>
<path fill="none" stroke="black" d="M142.36,-215.888C133.971,-184.315 121.147,-116.103 151.509,-72 172.141,-42.0286 213.004,-28.9814 243.236,-23.3166"/>
<polygon fill="black" stroke="black" points="244.152,-26.7119 253.435,-21.6052 242.994,-19.8084 244.152,-26.7119"/>
<g id="a_edge11&#45;headlabel"><a xlink:href="dir_000051_000168.html" target="_top" xlink:title="5">
<text text-anchor="middle" x="241.077" y="-27.6068" font-family="Helvetica,sans-Serif" font-size="10.00">5</text>
</a>
</g>
</g>
<!-- dir_ddb4d7e95cc2d6c8e1ade10a20d7247d&#45;&gt;dir_c718a368270b13c54d94892d20736f45 -->
<g id="edge12" class="edge"><title>dir_ddb4d7e95cc2d6c8e1ade10a20d7247d&#45;&gt;dir_c718a368270b13c54d94892d20736f45</title>
<path fill="none" stroke="black" d="M147.749,-215.871C152.045,-191.457 164.456,-146.426 174.599,-117.635"/>
<polygon fill="black" stroke="black" points="177.907,-118.783 178.076,-108.189 171.337,-116.365 177.907,-118.783"/>
<g id="a_edge12&#45;headlabel"><a xlink:href="dir_000051_000005.html" target="_top" xlink:title="190">
<text text-anchor="middle" x="179.33" y="-120.637" font-family="Helvetica,sans-Serif" font-size="10.00">190</text>
</a>
</g>
</g>
<!-- dir_4fef79e7177ba769987a8da36c892c5f&#45;&gt;dir_ddb4d7e95cc2d6c8e1ade10a20d7247d -->
<g id="edge13" class="edge"><title>dir_4fef79e7177ba769987a8da36c892c5f&#45;&gt;dir_ddb4d7e95cc2d6c8e1ade10a20d7247d</title>
<path fill="none" stroke="black" d="M71.425,-36.4528C76.6327,-67.1328 82.885,-132.024 107.509,-180 112.799,-190.307 120.659,-200.082 128.118,-208.365"/>
<polygon fill="black" stroke="black" points="125.677,-210.88 135.051,-215.818 130.803,-206.112 125.677,-210.88"/>
<g id="a_edge13&#45;headlabel"><a xlink:href="dir_000000_000051.html" target="_top" xlink:title="103">
<text text-anchor="middle" x="121.15" y="-207.682" font-family="Helvetica,sans-Serif" font-size="10.00">103</text>
</a>
</g>
</g>
<!-- dir_b0856f6b0d80ccb263b2f415c91f9e17&#45;&gt;dir_ceed1ce8f89ba04e240f3818f1ccc961 -->
<g id="edge20" class="edge"><title>dir_b0856f6b0d80ccb263b2f415c91f9e17&#45;&gt;dir_ceed1ce8f89ba04e240f3818f1ccc961</title>
<path fill="none" stroke="black" d="M307.853,-24.8348C333.081,-31.7006 369.557,-45.6691 389.509,-72 436.224,-133.653 436.395,-230.694 433.221,-277.689"/>
<polygon fill="black" stroke="black" points="429.727,-277.478 432.439,-287.72 436.706,-278.022 429.727,-277.478"/>
<g id="a_edge20&#45;headlabel"><a xlink:href="dir_000168_000113.html" target="_top" xlink:title="3">
<text text-anchor="middle" x="427.176" y="-271.174" font-family="Helvetica,sans-Serif" font-size="10.00">3</text>
</a>
</g>
</g>
<!-- dir_c718a368270b13c54d94892d20736f45&#45;&gt;dir_c85d3e3c5052e9ad9ce18c6863244a25 -->
<g id="edge21" class="edge"><title>dir_c718a368270b13c54d94892d20736f45&#45;&gt;dir_c85d3e3c5052e9ad9ce18c6863244a25</title>
<path fill="none" stroke="black" d="M211.485,-108.104C221.399,-116.636 232.662,-127.108 242.058,-136.478"/>
<polygon fill="black" stroke="black" points="239.633,-139.004 249.132,-143.697 244.633,-134.104 239.633,-139.004"/>
<g id="a_edge21&#45;headlabel"><a xlink:href="dir_000005_000122.html" target="_top" xlink:title="377">
<text text-anchor="middle" x="235.09" y="-135.923" font-family="Helvetica,sans-Serif" font-size="10.00">377</text>
</a>
</g>
</g>
<!-- dir_c718a368270b13c54d94892d20736f45&#45;&gt;dir_ddb4d7e95cc2d6c8e1ade10a20d7247d -->
<g id="edge22" class="edge"><title>dir_c718a368270b13c54d94892d20736f45&#45;&gt;dir_ddb4d7e95cc2d6c8e1ade10a20d7247d</title>
<path fill="none" stroke="black" d="M187.257,-108.189C182.948,-132.638 170.532,-177.673 160.392,-206.436"/>
<polygon fill="black" stroke="black" points="157.089,-205.278 156.918,-215.871 163.658,-207.697 157.089,-205.278"/>
<g id="a_edge22&#45;headlabel"><a xlink:href="dir_000005_000051.html" target="_top" xlink:title="217">
<text text-anchor="middle" x="155.667" y="-198.424" font-family="Helvetica,sans-Serif" font-size="10.00">217</text>
</a>
</g>
</g>
<!-- dir_c718a368270b13c54d94892d20736f45&#45;&gt;dir_4fef79e7177ba769987a8da36c892c5f -->
<g id="edge23" class="edge"><title>dir_c718a368270b13c54d94892d20736f45&#45;&gt;dir_4fef79e7177ba769987a8da36c892c5f</title>
<path fill="none" stroke="black" d="M160.433,-73.4647C143.058,-63.4958 120.3,-50.4378 101.423,-39.6067"/>
<polygon fill="black" stroke="black" points="102.924,-36.4328 92.5087,-34.4918 99.4405,-42.5044 102.924,-36.4328"/>
<g id="a_edge23&#45;headlabel"><a xlink:href="dir_000005_000000.html" target="_top" xlink:title="160">
<text text-anchor="middle" x="107.455" y="-33.259" font-family="Helvetica,sans-Serif" font-size="10.00">160</text>
</a>
</g>
</g>
<!-- dir_c718a368270b13c54d94892d20736f45&#45;&gt;dir_b0856f6b0d80ccb263b2f415c91f9e17 -->
<g id="edge24" class="edge"><title>dir_c718a368270b13c54d94892d20736f45&#45;&gt;dir_b0856f6b0d80ccb263b2f415c91f9e17</title>
<path fill="none" stroke="black" d="M210.497,-71.6966C222.323,-62.796 236.901,-51.8232 249.687,-42.1989"/>
<polygon fill="black" stroke="black" points="251.899,-44.9145 257.784,-36.1043 247.69,-39.3217 251.899,-44.9145"/>
<g id="a_edge24&#45;headlabel"><a xlink:href="dir_000005_000168.html" target="_top" xlink:title="1">
<text text-anchor="middle" x="250.735" y="-46.8447" font-family="Helvetica,sans-Serif" font-size="10.00">1</text>
</a>
</g>
</g>
</g>
</svg>
