<?xml version="1.0" encoding="UTF-8" standalone="no"?>
<!DOCTYPE svg PUBLIC "-//W3C//DTD SVG 1.1//EN"
 "http://www.w3.org/Graphics/SVG/1.1/DTD/svg11.dtd">
<!-- Generated by graphviz version 2.38.0 (20140413.2041)
 -->
<!-- Title: src/drivers/boards/px4cannode&#45;v1 Pages: 1 -->
<svg width="146pt" height="367pt"
 viewBox="0.00 0.00 145.80 367.00" xmlns="http://www.w3.org/2000/svg" xmlns:xlink="http://www.w3.org/1999/xlink">
<g id="graph0" class="graph" transform="scale(1 1) rotate(0) translate(4 363)">
<title>src/drivers/boards/px4cannode&#45;v1</title>
<polygon fill="white" stroke="none" points="-4,4 -4,-363 141.799,-363 141.799,4 -4,4"/>
<g id="clust1" class="cluster"><title>clusterdir_b1cd53faff1b3bf48fb403b2683d1a96</title>
<g id="a_clust1"><a xlink:href="dir_b1cd53faff1b3bf48fb403b2683d1a96.html" target="_top" xlink:title="boards">
<polygon fill="#ddddee" stroke="black" points="15.9881,-280 15.9881,-351 115.988,-351 115.988,-280 15.9881,-280"/>
<text text-anchor="middle" x="65.9881" y="-339" font-family="Helvetica,sans-Serif" font-size="10.00">boards</text>
</a>
</g>
</g>
<!-- dir_4791f0388175df735c78eea565077195 -->
<g id="node1" class="node"><title>dir_4791f0388175df735c78eea565077195</title>
<g id="a_node1"><a xlink:href="dir_4791f0388175df735c78eea565077195.html" target="_top" xlink:title="px4cannode&#45;v1">
<polygon fill="#eeeeff" stroke="black" points="107.488,-324 24.4881,-324 24.4881,-288 107.488,-288 107.488,-324"/>
<text text-anchor="middle" x="65.9881" y="-303.5" font-family="Helvetica,sans-Serif" font-size="10.00">px4cannode&#45;v1</text>
</a>
</g>
</g>
<!-- dir_c85d3e3c5052e9ad9ce18c6863244a25 -->
<g id="node2" class="node"><title>dir_c85d3e3c5052e9ad9ce18c6863244a25</title>
<g id="a_node2"><a xlink:href="dir_c85d3e3c5052e9ad9ce18c6863244a25.html" target="_top" xlink:title="lib">
<polygon fill="white" stroke="red" points="65.9881,-180 11.9881,-180 11.9881,-144 65.9881,-144 65.9881,-180"/>
<text text-anchor="middle" x="38.9881" y="-159.5" font-family="Helvetica,sans-Serif" font-size="10.00">lib</text>
</a>
</g>
</g>
<!-- dir_4791f0388175df735c78eea565077195&#45;&gt;dir_c85d3e3c5052e9ad9ce18c6863244a25 -->
<g id="edge3" class="edge"><title>dir_4791f0388175df735c78eea565077195&#45;&gt;dir_c85d3e3c5052e9ad9ce18c6863244a25</title>
<path fill="none" stroke="black" d="M62.7313,-287.871C58.1296,-263.67 49.6761,-219.211 44.1966,-190.393"/>
<polygon fill="black" stroke="black" points="47.5629,-189.359 42.2565,-180.189 40.6861,-190.667 47.5629,-189.359"/>
<g id="a_edge3&#45;headlabel"><a xlink:href="dir_000033_000122.html" target="_top" xlink:title="1">
<text text-anchor="middle" x="51.0236" y="-189.86" font-family="Helvetica,sans-Serif" font-size="10.00">1</text>
</a>
</g>
</g>
<!-- dir_ddb4d7e95cc2d6c8e1ade10a20d7247d -->
<g id="node3" class="node"><title>dir_ddb4d7e95cc2d6c8e1ade10a20d7247d</title>
<g id="a_node3"><a xlink:href="dir_ddb4d7e95cc2d6c8e1ade10a20d7247d.html" target="_top" xlink:title="modules">
<polygon fill="white" stroke="red" points="112.988,-108 58.9881,-108 58.9881,-72 112.988,-72 112.988,-108"/>
<text text-anchor="middle" x="85.9881" y="-87.5" font-family="Helvetica,sans-Serif" font-size="10.00">modules</text>
</a>
</g>
</g>
<!-- dir_4791f0388175df735c78eea565077195&#45;&gt;dir_ddb4d7e95cc2d6c8e1ade10a20d7247d -->
<g id="edge4" class="edge"><title>dir_4791f0388175df735c78eea565077195&#45;&gt;dir_ddb4d7e95cc2d6c8e1ade10a20d7247d</title>
<path fill="none" stroke="black" d="M96.7571,-287.907C109.533,-279.021 122.989,-266.883 129.988,-252 151.291,-206.7 123.804,-149.22 103.676,-116.629"/>
<polygon fill="black" stroke="black" points="106.577,-114.668 98.2411,-108.128 100.679,-118.438 106.577,-114.668"/>
<g id="a_edge4&#45;headlabel"><a xlink:href="dir_000033_000051.html" target="_top" xlink:title="2">
<text text-anchor="middle" x="110.905" y="-113.667" font-family="Helvetica,sans-Serif" font-size="10.00">2</text>
</a>
</g>
</g>
<!-- dir_6b6f700cd44666ef34db64887c72baa1 -->
<g id="node4" class="node"><title>dir_6b6f700cd44666ef34db64887c72baa1</title>
<g id="a_node4"><a xlink:href="dir_6b6f700cd44666ef34db64887c72baa1.html" target="_top" xlink:title="common">
<polygon fill="white" stroke="red" points="120.988,-252 66.9881,-252 66.9881,-216 120.988,-216 120.988,-252"/>
<text text-anchor="middle" x="93.9881" y="-231.5" font-family="Helvetica,sans-Serif" font-size="10.00">common</text>
</a>
</g>
</g>
<!-- dir_4791f0388175df735c78eea565077195&#45;&gt;dir_6b6f700cd44666ef34db64887c72baa1 -->
<g id="edge5" class="edge"><title>dir_4791f0388175df735c78eea565077195&#45;&gt;dir_6b6f700cd44666ef34db64887c72baa1</title>
<path fill="none" stroke="black" d="M72.9094,-287.697C76.0628,-279.813 79.8664,-270.304 83.3695,-261.546"/>
<polygon fill="black" stroke="black" points="86.6821,-262.689 87.1464,-252.104 80.1827,-260.089 86.6821,-262.689"/>
<g id="a_edge5&#45;headlabel"><a xlink:href="dir_000033_000047.html" target="_top" xlink:title="1">
<text text-anchor="middle" x="87.9833" y="-264.581" font-family="Helvetica,sans-Serif" font-size="10.00">1</text>
</a>
</g>
</g>
<!-- dir_ceed1ce8f89ba04e240f3818f1ccc961 -->
<g id="node5" class="node"><title>dir_ceed1ce8f89ba04e240f3818f1ccc961</title>
<g id="a_node5"><a xlink:href="dir_ceed1ce8f89ba04e240f3818f1ccc961.html" target="_top" xlink:title="platforms">
<polygon fill="white" stroke="red" points="82.4881,-36 25.4881,-36 25.4881,-0 82.4881,-0 82.4881,-36"/>
<text text-anchor="middle" x="53.9881" y="-15.5" font-family="Helvetica,sans-Serif" font-size="10.00">platforms</text>
</a>
</g>
</g>
<!-- dir_4791f0388175df735c78eea565077195&#45;&gt;dir_ceed1ce8f89ba04e240f3818f1ccc961 -->
<g id="edge6" class="edge"><title>dir_4791f0388175df735c78eea565077195&#45;&gt;dir_ceed1ce8f89ba04e240f3818f1ccc961</title>
<path fill="none" stroke="black" d="M54.0124,-287.803C38.653,-264.595 12.8252,-221.375 2.98809,-180 -8.5548,-131.451 17.7933,-76.2923 36.7516,-44.7723"/>
<polygon fill="black" stroke="black" points="39.7995,-46.4988 42.1063,-36.1582 33.8544,-42.8033 39.7995,-46.4988"/>
<g id="a_edge6&#45;headlabel"><a xlink:href="dir_000033_000113.html" target="_top" xlink:title="6">
<text text-anchor="middle" x="40.3132" y="-48.5506" font-family="Helvetica,sans-Serif" font-size="10.00">6</text>
</a>
</g>
</g>
<!-- dir_c85d3e3c5052e9ad9ce18c6863244a25&#45;&gt;dir_ddb4d7e95cc2d6c8e1ade10a20d7247d -->
<g id="edge1" class="edge"><title>dir_c85d3e3c5052e9ad9ce18c6863244a25&#45;&gt;dir_ddb4d7e95cc2d6c8e1ade10a20d7247d</title>
<path fill="none" stroke="black" d="M44.6903,-143.697C49.4112,-135.389 56.0041,-125.277 62.6018,-116.141"/>
<polygon fill="black" stroke="black" points="65.4251,-118.21 68.6087,-108.104 59.8183,-114.019 65.4251,-118.21"/>
<g id="a_edge1&#45;headlabel"><a xlink:href="dir_000122_000051.html" target="_top" xlink:title="22">
<text text-anchor="middle" x="65.5472" y="-120.289" font-family="Helvetica,sans-Serif" font-size="10.00">22</text>
</a>
</g>
</g>
<!-- dir_c85d3e3c5052e9ad9ce18c6863244a25&#45;&gt;dir_ceed1ce8f89ba04e240f3818f1ccc961 -->
<g id="edge2" class="edge"><title>dir_c85d3e3c5052e9ad9ce18c6863244a25&#45;&gt;dir_ceed1ce8f89ba04e240f3818f1ccc961</title>
<path fill="none" stroke="black" d="M36.2129,-143.871C36.211,-119.564 40.6549,-74.8187 45.7018,-46.0132"/>
<polygon fill="black" stroke="black" points="49.1398,-46.6689 47.5814,-36.1893 42.2645,-45.3534 49.1398,-46.6689"/>
<g id="a_edge2&#45;headlabel"><a xlink:href="dir_000122_000113.html" target="_top" xlink:title="84">
<text text-anchor="middle" x="51.2531" y="-48.233" font-family="Helvetica,sans-Serif" font-size="10.00">84</text>
</a>
</g>
</g>
<!-- dir_ddb4d7e95cc2d6c8e1ade10a20d7247d&#45;&gt;dir_c85d3e3c5052e9ad9ce18c6863244a25 -->
<g id="edge7" class="edge"><title>dir_ddb4d7e95cc2d6c8e1ade10a20d7247d&#45;&gt;dir_c85d3e3c5052e9ad9ce18c6863244a25</title>
<path fill="none" stroke="black" d="M80.3988,-108.104C75.708,-116.383 69.1303,-126.488 62.5327,-135.64"/>
<polygon fill="black" stroke="black" points="59.6964,-133.589 56.5218,-143.697 65.3069,-137.774 59.6964,-133.589"/>
<g id="a_edge7&#45;headlabel"><a xlink:href="dir_000051_000122.html" target="_top" xlink:title="232">
<text text-anchor="middle" x="59.5701" y="-126.51" font-family="Helvetica,sans-Serif" font-size="10.00">232</text>
</a>
</g>
</g>
<!-- dir_ddb4d7e95cc2d6c8e1ade10a20d7247d&#45;&gt;dir_ceed1ce8f89ba04e240f3818f1ccc961 -->
<g id="edge8" class="edge"><title>dir_ddb4d7e95cc2d6c8e1ade10a20d7247d&#45;&gt;dir_ceed1ce8f89ba04e240f3818f1ccc961</title>
<path fill="none" stroke="black" d="M72.1622,-71.6966C67.7452,-63.8132 63.1795,-54.3042 59.5517,-45.5464"/>
<polygon fill="black" stroke="black" points="62.7747,-44.1763 55.9122,-36.1043 56.2431,-46.694 62.7747,-44.1763"/>
<g id="a_edge8&#45;headlabel"><a xlink:href="dir_000051_000113.html" target="_top" xlink:title="338">
<text text-anchor="middle" x="66.7167" y="-44.0092" font-family="Helvetica,sans-Serif" font-size="10.00">338</text>
</a>
</g>
</g>
<!-- dir_6b6f700cd44666ef34db64887c72baa1&#45;&gt;dir_c85d3e3c5052e9ad9ce18c6863244a25 -->
<g id="edge9" class="edge"><title>dir_6b6f700cd44666ef34db64887c72baa1&#45;&gt;dir_c85d3e3c5052e9ad9ce18c6863244a25</title>
<path fill="none" stroke="black" d="M80.3926,-215.697C73.8654,-207.389 65.9201,-197.277 58.7415,-188.141"/>
<polygon fill="black" stroke="black" points="61.3576,-185.805 52.4272,-180.104 55.8533,-190.13 61.3576,-185.805"/>
<g id="a_edge9&#45;headlabel"><a xlink:href="dir_000047_000122.html" target="_top" xlink:title="1">
<text text-anchor="middle" x="65.8109" y="-184.377" font-family="Helvetica,sans-Serif" font-size="10.00">1</text>
</a>
</g>
</g>
<!-- dir_6b6f700cd44666ef34db64887c72baa1&#45;&gt;dir_ddb4d7e95cc2d6c8e1ade10a20d7247d -->
<g id="edge10" class="edge"><title>dir_6b6f700cd44666ef34db64887c72baa1&#45;&gt;dir_ddb4d7e95cc2d6c8e1ade10a20d7247d</title>
<path fill="none" stroke="black" d="M93.0231,-215.871C91.6596,-191.67 89.1549,-147.211 87.5314,-118.393"/>
<polygon fill="black" stroke="black" points="91.0135,-117.977 86.9565,-108.189 84.0246,-118.37 91.0135,-117.977"/>
<g id="a_edge10&#45;headlabel"><a xlink:href="dir_000047_000051.html" target="_top" xlink:title="1">
<text text-anchor="middle" x="94.0504" y="-118.906" font-family="Helvetica,sans-Serif" font-size="10.00">1</text>
</a>
</g>
</g>
<!-- dir_6b6f700cd44666ef34db64887c72baa1&#45;&gt;dir_ceed1ce8f89ba04e240f3818f1ccc961 -->
<g id="edge11" class="edge"><title>dir_6b6f700cd44666ef34db64887c72baa1&#45;&gt;dir_ceed1ce8f89ba04e240f3818f1ccc961</title>
<path fill="none" stroke="black" d="M103.574,-215.589C119.045,-184.974 145.522,-120.181 121.988,-72 115.38,-58.472 103.467,-47.3925 91.4379,-38.9258"/>
<polygon fill="black" stroke="black" points="93.0157,-35.7754 82.7324,-33.2249 89.1807,-41.6314 93.0157,-35.7754"/>
<g id="a_edge11&#45;headlabel"><a xlink:href="dir_000047_000113.html" target="_top" xlink:title="15">
<text text-anchor="middle" x="97.5783" y="-32.8693" font-family="Helvetica,sans-Serif" font-size="10.00">15</text>
</a>
</g>
</g>
<!-- dir_ceed1ce8f89ba04e240f3818f1ccc961&#45;&gt;dir_c85d3e3c5052e9ad9ce18c6863244a25 -->
<g id="edge12" class="edge"><title>dir_ceed1ce8f89ba04e240f3818f1ccc961&#45;&gt;dir_c85d3e3c5052e9ad9ce18c6863244a25</title>
<path fill="none" stroke="black" d="M56.7632,-36.1893C56.7578,-60.4244 52.3486,-104.888 47.3281,-133.679"/>
<polygon fill="black" stroke="black" points="43.8197,-133.392 45.3819,-143.871 50.6955,-134.705 43.8197,-133.392"/>
<g id="a_edge12&#45;headlabel"><a xlink:href="dir_000113_000122.html" target="_top" xlink:title="29">
<text text-anchor="middle" x="41.7049" y="-126.829" font-family="Helvetica,sans-Serif" font-size="10.00">29</text>
</a>
</g>
</g>
<!-- dir_ceed1ce8f89ba04e240f3818f1ccc961&#45;&gt;dir_ddb4d7e95cc2d6c8e1ade10a20d7247d -->
<g id="edge13" class="edge"><title>dir_ceed1ce8f89ba04e240f3818f1ccc961&#45;&gt;dir_ddb4d7e95cc2d6c8e1ade10a20d7247d</title>
<path fill="none" stroke="black" d="M67.7022,-36.1043C72.1167,-43.9602 76.6889,-53.4616 80.3325,-62.232"/>
<polygon fill="black" stroke="black" points="77.1216,-63.6328 83.9937,-71.6966 83.6502,-61.1074 77.1216,-63.6328"/>
<g id="a_edge13&#45;headlabel"><a xlink:href="dir_000113_000051.html" target="_top" xlink:title="29">
<text text-anchor="middle" x="73.1768" y="-58.8046" font-family="Helvetica,sans-Serif" font-size="10.00">29</text>
</a>
</g>
</g>
</g>
</svg>
