<?xml version="1.0" encoding="UTF-8" standalone="no"?>
<!DOCTYPE svg PUBLIC "-//W3C//DTD SVG 1.1//EN"
 "http://www.w3.org/Graphics/SVG/1.1/DTD/svg11.dtd">
<!-- Generated by graphviz version 2.40.1 (20161225.0304)
 -->
<!-- Title: src/modules/mc_pos_control Pages: 1 -->
<svg width="372pt" height="447pt"
 viewBox="0.00 0.00 371.77 447.00" xmlns="http://www.w3.org/2000/svg" xmlns:xlink="http://www.w3.org/1999/xlink">
<g id="graph0" class="graph" transform="scale(1 1) rotate(0) translate(4 443)">
<title>src/modules/mc_pos_control</title>
<polygon fill="#ffffff" stroke="transparent" points="-4,4 -4,-443 367.7742,-443 367.7742,4 -4,4"/>
<g id="clust1" class="cluster">
<title>clusterdir_ddb4d7e95cc2d6c8e1ade10a20d7247d</title>
<g id="a_clust1"><a xlink:href="dir_ddb4d7e95cc2d6c8e1ade10a20d7247d.html" target="_top" xlink:title="modules">
<polygon fill="#ddddee" stroke="#000000" points="150,-272 150,-431 338,-431 338,-272 150,-272"/>
<text text-anchor="middle" x="244" y="-419" font-family="Helvetica,sans-Serif" font-size="10.00" fill="#000000">modules</text>
</a>
</g>
</g>
<g id="clust2" class="cluster">
<title>clusterdir_4892fa330f71d17f65cfcd3ee8646b5e</title>
<g id="a_clust2"><a xlink:href="dir_4892fa330f71d17f65cfcd3ee8646b5e.html" target="_top">
<polygon fill="#eeeeff" stroke="#000000" points="158,-280 158,-404 330,-404 330,-280 158,-280"/>
</a>
</g>
</g>
<!-- dir_4892fa330f71d17f65cfcd3ee8646b5e -->
<g id="node1" class="node">
<title>dir_4892fa330f71d17f65cfcd3ee8646b5e</title>
<text text-anchor="middle" x="209" y="-375.5" font-family="Helvetica,sans-Serif" font-size="10.00" fill="#000000">mc_pos_control</text>
</g>
<!-- dir_5318c331615b7c2d9f55abff8965dd20 -->
<g id="node2" class="node">
<title>dir_5318c331615b7c2d9f55abff8965dd20</title>
<g id="a_node2"><a xlink:href="dir_5318c331615b7c2d9f55abff8965dd20.html" target="_top" xlink:title="PositionControl">
<polygon fill="#ffffff" stroke="#000000" points="321.5,-324 238.5,-324 238.5,-288 321.5,-288 321.5,-324"/>
<text text-anchor="middle" x="280" y="-303.5" font-family="Helvetica,sans-Serif" font-size="10.00" fill="#000000">PositionControl</text>
</a>
</g>
</g>
<!-- dir_4892fa330f71d17f65cfcd3ee8646b5e&#45;&gt;dir_5318c331615b7c2d9f55abff8965dd20 -->
<g id="edge16" class="edge">
<title>dir_4892fa330f71d17f65cfcd3ee8646b5e&#45;&gt;dir_5318c331615b7c2d9f55abff8965dd20</title>
<path fill="none" stroke="#000000" d="M226.9163,-359.8314C235.3442,-351.2848 245.541,-340.9443 254.736,-331.6198"/>
<polygon fill="#000000" stroke="#000000" points="257.3131,-333.9912 261.8425,-324.4133 252.3289,-329.0761 257.3131,-333.9912"/>
<g id="a_edge16&#45;headlabel"><a xlink:href="dir_000304_000305.html" target="_top" xlink:title="1">
<text text-anchor="middle" x="256.8109" y="-336.0442" font-family="Helvetica,sans-Serif" font-size="10.00" fill="#000000">1</text>
</a>
</g>
</g>
<!-- dir_13af2ddb7a0dabe5cd5a18cef83e8040 -->
<g id="node3" class="node">
<title>dir_13af2ddb7a0dabe5cd5a18cef83e8040</title>
<g id="a_node3"><a xlink:href="dir_13af2ddb7a0dabe5cd5a18cef83e8040.html" target="_top" xlink:title="Takeoff">
<polygon fill="#ffffff" stroke="#000000" points="220,-324 166,-324 166,-288 220,-288 220,-324"/>
<text text-anchor="middle" x="193" y="-303.5" font-family="Helvetica,sans-Serif" font-size="10.00" fill="#000000">Takeoff</text>
</a>
</g>
</g>
<!-- dir_4892fa330f71d17f65cfcd3ee8646b5e&#45;&gt;dir_13af2ddb7a0dabe5cd5a18cef83e8040 -->
<g id="edge12" class="edge">
<title>dir_4892fa330f71d17f65cfcd3ee8646b5e&#45;&gt;dir_13af2ddb7a0dabe5cd5a18cef83e8040</title>
<path fill="none" stroke="#000000" d="M204.9625,-359.8314C203.2513,-352.131 201.2165,-342.9743 199.3148,-334.4166"/>
<polygon fill="#000000" stroke="#000000" points="202.6779,-333.4159 197.0918,-324.4133 195.8446,-334.9344 202.6779,-333.4159"/>
<g id="a_edge12&#45;headlabel"><a xlink:href="dir_000304_000306.html" target="_top" xlink:title="1">
<text text-anchor="middle" x="206.2292" y="-333.809" font-family="Helvetica,sans-Serif" font-size="10.00" fill="#000000">1</text>
</a>
</g>
</g>
<!-- dir_936c26b3e4a2dbda1abdc749c014ce33 -->
<g id="node4" class="node">
<title>dir_936c26b3e4a2dbda1abdc749c014ce33</title>
<g id="a_node4"><a xlink:href="dir_936c26b3e4a2dbda1abdc749c014ce33.html" target="_top" xlink:title="commander">
<polygon fill="#ffffff" stroke="#ff0000" points="110,-324 42,-324 42,-288 110,-288 110,-324"/>
<text text-anchor="middle" x="76" y="-303.5" font-family="Helvetica,sans-Serif" font-size="10.00" fill="#000000">commander</text>
</a>
</g>
</g>
<!-- dir_4892fa330f71d17f65cfcd3ee8646b5e&#45;&gt;dir_936c26b3e4a2dbda1abdc749c014ce33 -->
<g id="edge13" class="edge">
<title>dir_4892fa330f71d17f65cfcd3ee8646b5e&#45;&gt;dir_936c26b3e4a2dbda1abdc749c014ce33</title>
<path fill="none" stroke="#000000" d="M175.4385,-359.8314C158.1119,-350.4516 136.7942,-338.9112 118.3464,-328.9244"/>
<polygon fill="#000000" stroke="#000000" points="120.0111,-325.8457 109.5508,-324.1628 116.6786,-332.0015 120.0111,-325.8457"/>
<g id="a_edge13&#45;headlabel"><a xlink:href="dir_000304_000282.html" target="_top" xlink:title="1">
<text text-anchor="middle" x="124.5239" y="-322.56" font-family="Helvetica,sans-Serif" font-size="10.00" fill="#000000">1</text>
</a>
</g>
</g>
<!-- dir_c85d3e3c5052e9ad9ce18c6863244a25 -->
<g id="node5" class="node">
<title>dir_c85d3e3c5052e9ad9ce18c6863244a25</title>
<g id="a_node5"><a xlink:href="dir_c85d3e3c5052e9ad9ce18c6863244a25.html" target="_top" xlink:title="lib">
<polygon fill="#ffffff" stroke="#ff0000" points="214,-252 160,-252 160,-216 214,-216 214,-252"/>
<text text-anchor="middle" x="187" y="-231.5" font-family="Helvetica,sans-Serif" font-size="10.00" fill="#000000">lib</text>
</a>
</g>
</g>
<!-- dir_4892fa330f71d17f65cfcd3ee8646b5e&#45;&gt;dir_c85d3e3c5052e9ad9ce18c6863244a25 -->
<g id="edge14" class="edge">
<title>dir_4892fa330f71d17f65cfcd3ee8646b5e&#45;&gt;dir_c85d3e3c5052e9ad9ce18c6863244a25</title>
<path fill="none" stroke="#000000" d="M184.4199,-359.7772C173.8518,-350.4022 162.6457,-338.0021 157,-324 148.3576,-302.5656 149.4204,-293.8329 157,-272 158.3955,-267.9801 160.4123,-264.0641 162.7501,-260.3681"/>
<polygon fill="#000000" stroke="#000000" points="165.6324,-262.355 168.6461,-252.1978 159.9561,-258.2587 165.6324,-262.355"/>
<g id="a_edge14&#45;headlabel"><a xlink:href="dir_000304_000070.html" target="_top" xlink:title="10">
<text text-anchor="middle" x="165.8313" y="-264.4313" font-family="Helvetica,sans-Serif" font-size="10.00" fill="#000000">10</text>
</a>
</g>
</g>
<!-- dir_4fef79e7177ba769987a8da36c892c5f -->
<g id="node6" class="node">
<title>dir_4fef79e7177ba769987a8da36c892c5f</title>
<g id="a_node6"><a xlink:href="dir_4fef79e7177ba769987a8da36c892c5f.html" target="_top" xlink:title="build">
<polygon fill="#ffffff" stroke="#ff0000" points="259,-108 205,-108 205,-72 259,-72 259,-108"/>
<text text-anchor="middle" x="232" y="-87.5" font-family="Helvetica,sans-Serif" font-size="10.00" fill="#000000">build</text>
</a>
</g>
</g>
<!-- dir_4892fa330f71d17f65cfcd3ee8646b5e&#45;&gt;dir_4fef79e7177ba769987a8da36c892c5f -->
<g id="edge15" class="edge">
<title>dir_4892fa330f71d17f65cfcd3ee8646b5e&#45;&gt;dir_4fef79e7177ba769987a8da36c892c5f</title>
<path fill="none" stroke="#000000" d="M252.2031,-367.0908C288.9796,-356.8271 337.6148,-340.5942 349,-324 397.5603,-253.2222 310.668,-159.4247 261.8431,-115.1636"/>
<polygon fill="#000000" stroke="#000000" points="263.8686,-112.2808 254.0727,-108.2446 259.2136,-117.5087 263.8686,-112.2808"/>
<g id="a_edge15&#45;headlabel"><a xlink:href="dir_000304_000000.html" target="_top" xlink:title="15">
<text text-anchor="middle" x="268.4413" y="-110.0507" font-family="Helvetica,sans-Serif" font-size="10.00" fill="#000000">15</text>
</a>
</g>
</g>
<!-- dir_4cdb927c4b1974de288f3ebda1320b7e -->
<g id="node7" class="node">
<title>dir_4cdb927c4b1974de288f3ebda1320b7e</title>
<g id="a_node7"><a xlink:href="dir_4cdb927c4b1974de288f3ebda1320b7e.html" target="_top" xlink:title="uORB">
<polygon fill="#ffffff" stroke="#ff0000" points="112,-36 58,-36 58,0 112,0 112,-36"/>
<text text-anchor="middle" x="85" y="-15.5" font-family="Helvetica,sans-Serif" font-size="10.00" fill="#000000">uORB</text>
</a>
</g>
</g>
<!-- dir_4892fa330f71d17f65cfcd3ee8646b5e&#45;&gt;dir_4cdb927c4b1974de288f3ebda1320b7e -->
<g id="edge17" class="edge">
<title>dir_4892fa330f71d17f65cfcd3ee8646b5e&#45;&gt;dir_4cdb927c4b1974de288f3ebda1320b7e</title>
<path fill="none" stroke="#000000" d="M165.7629,-369.3464C120.1309,-359.4314 52.1974,-342.1924 33,-324 2.0758,-294.6947 0,-276.6041 0,-234 0,-234 0,-234 0,-162 0,-115.4968 33.281,-70.8088 58.193,-43.8723"/>
<polygon fill="#000000" stroke="#000000" points="60.9206,-46.0835 65.2856,-36.4296 55.8531,-41.2543 60.9206,-46.0835"/>
<g id="a_edge17&#45;headlabel"><a xlink:href="dir_000304_000319.html" target="_top" xlink:title="4">
<text text-anchor="middle" x="60.4961" y="-48.1444" font-family="Helvetica,sans-Serif" font-size="10.00" fill="#000000">4</text>
</a>
</g>
</g>
<!-- dir_c718a368270b13c54d94892d20736f45 -->
<g id="node8" class="node">
<title>dir_c718a368270b13c54d94892d20736f45</title>
<g id="a_node8"><a xlink:href="dir_c718a368270b13c54d94892d20736f45.html" target="_top" xlink:title="drivers">
<polygon fill="#ffffff" stroke="#ff0000" points="214,-180 160,-180 160,-144 214,-144 214,-180"/>
<text text-anchor="middle" x="187" y="-159.5" font-family="Helvetica,sans-Serif" font-size="10.00" fill="#000000">drivers</text>
</a>
</g>
</g>
<!-- dir_4892fa330f71d17f65cfcd3ee8646b5e&#45;&gt;dir_c718a368270b13c54d94892d20736f45 -->
<g id="edge18" class="edge">
<title>dir_4892fa330f71d17f65cfcd3ee8646b5e&#45;&gt;dir_c718a368270b13c54d94892d20736f45</title>
<path fill="none" stroke="#000000" d="M252.0527,-371.1578C279.7192,-364.2888 313.625,-350.6916 331,-324 343.6083,-304.6311 341.2442,-292.7166 331,-272 308.7575,-227.0197 258.3302,-195.3877 223.4745,-177.9321"/>
<polygon fill="#000000" stroke="#000000" points="224.6181,-174.5969 214.0927,-173.3853 221.5652,-180.8962 224.6181,-174.5969"/>
<g id="a_edge18&#45;headlabel"><a xlink:href="dir_000304_000005.html" target="_top" xlink:title="2">
<text text-anchor="middle" x="229.0911" y="-171.1095" font-family="Helvetica,sans-Serif" font-size="10.00" fill="#000000">2</text>
</a>
</g>
</g>
<!-- dir_5318c331615b7c2d9f55abff8965dd20&#45;&gt;dir_c85d3e3c5052e9ad9ce18c6863244a25 -->
<g id="edge19" class="edge">
<title>dir_5318c331615b7c2d9f55abff8965dd20&#45;&gt;dir_c85d3e3c5052e9ad9ce18c6863244a25</title>
<path fill="none" stroke="#000000" d="M256.5322,-287.8314C244.9673,-278.8779 230.8596,-267.9558 218.3817,-258.2955"/>
<polygon fill="#000000" stroke="#000000" points="220.5102,-255.5171 210.4603,-252.1628 216.225,-261.0521 220.5102,-255.5171"/>
<g id="a_edge19&#45;headlabel"><a xlink:href="dir_000305_000070.html" target="_top" xlink:title="2">
<text text-anchor="middle" x="225.0906" y="-252.9725" font-family="Helvetica,sans-Serif" font-size="10.00" fill="#000000">2</text>
</a>
</g>
</g>
<!-- dir_5318c331615b7c2d9f55abff8965dd20&#45;&gt;dir_4fef79e7177ba769987a8da36c892c5f -->
<g id="edge20" class="edge">
<title>dir_5318c331615b7c2d9f55abff8965dd20&#45;&gt;dir_4fef79e7177ba769987a8da36c892c5f</title>
<path fill="none" stroke="#000000" d="M275.9901,-287.9555C267.6254,-250.3144 248.2637,-163.1867 238.2499,-118.1246"/>
<polygon fill="#000000" stroke="#000000" points="241.6183,-117.1477 236.0322,-108.1451 234.785,-118.6662 241.6183,-117.1477"/>
<g id="a_edge20&#45;headlabel"><a xlink:href="dir_000305_000000.html" target="_top" xlink:title="5">
<text text-anchor="middle" x="245.1696" y="-117.5408" font-family="Helvetica,sans-Serif" font-size="10.00" fill="#000000">5</text>
</a>
</g>
</g>
<!-- dir_13af2ddb7a0dabe5cd5a18cef83e8040&#45;&gt;dir_c85d3e3c5052e9ad9ce18c6863244a25 -->
<g id="edge1" class="edge">
<title>dir_13af2ddb7a0dabe5cd5a18cef83e8040&#45;&gt;dir_c85d3e3c5052e9ad9ce18c6863244a25</title>
<path fill="none" stroke="#000000" d="M191.4859,-287.8314C190.8442,-280.131 190.0812,-270.9743 189.3681,-262.4166"/>
<polygon fill="#000000" stroke="#000000" points="192.8529,-262.088 188.5344,-252.4133 185.8771,-262.6694 192.8529,-262.088"/>
<g id="a_edge1&#45;headlabel"><a xlink:href="dir_000306_000070.html" target="_top" xlink:title="1">
<text text-anchor="middle" x="195.9808" y="-262.9345" font-family="Helvetica,sans-Serif" font-size="10.00" fill="#000000">1</text>
</a>
</g>
</g>
<!-- dir_13af2ddb7a0dabe5cd5a18cef83e8040&#45;&gt;dir_c718a368270b13c54d94892d20736f45 -->
<g id="edge2" class="edge">
<title>dir_13af2ddb7a0dabe5cd5a18cef83e8040&#45;&gt;dir_c718a368270b13c54d94892d20736f45</title>
<path fill="none" stroke="#000000" d="M206.3562,-287.5137C212.7508,-277.5235 219.718,-264.6657 223,-252 227.0135,-236.5115 227.6365,-231.3135 223,-216 220.0436,-206.2355 214.6748,-196.6229 208.97,-188.2762"/>
<polygon fill="#000000" stroke="#000000" points="211.7129,-186.0973 202.9905,-180.0831 206.0586,-190.2239 211.7129,-186.0973"/>
<g id="a_edge2&#45;headlabel"><a xlink:href="dir_000306_000005.html" target="_top" xlink:title="1">
<text text-anchor="middle" x="216.1253" y="-184.827" font-family="Helvetica,sans-Serif" font-size="10.00" fill="#000000">1</text>
</a>
</g>
</g>
<!-- dir_936c26b3e4a2dbda1abdc749c014ce33&#45;&gt;dir_c85d3e3c5052e9ad9ce18c6863244a25 -->
<g id="edge3" class="edge">
<title>dir_936c26b3e4a2dbda1abdc749c014ce33&#45;&gt;dir_c85d3e3c5052e9ad9ce18c6863244a25</title>
<path fill="none" stroke="#000000" d="M92.5344,-287.649C99.459,-282.4768 107.4807,-276.9213 115,-272 126.3004,-264.604 139.0133,-256.8351 150.6782,-250.2629"/>
<polygon fill="#000000" stroke="#000000" points="152.6783,-253.1578 159.7616,-245.2788 149.311,-247.0209 152.6783,-253.1578"/>
<g id="a_edge3&#45;headlabel"><a xlink:href="dir_000282_000070.html" target="_top" xlink:title="55">
<text text-anchor="middle" x="150.8928" y="-254.8761" font-family="Helvetica,sans-Serif" font-size="10.00" fill="#000000">55</text>
</a>
</g>
</g>
<!-- dir_936c26b3e4a2dbda1abdc749c014ce33&#45;&gt;dir_4fef79e7177ba769987a8da36c892c5f -->
<g id="edge4" class="edge">
<title>dir_936c26b3e4a2dbda1abdc749c014ce33&#45;&gt;dir_4fef79e7177ba769987a8da36c892c5f</title>
<path fill="none" stroke="#000000" d="M80.6358,-287.7544C89.5844,-255.5303 111.8887,-187.8143 151,-144 163.6073,-129.8767 180.6899,-117.7742 195.9176,-108.6281"/>
<polygon fill="#000000" stroke="#000000" points="197.7188,-111.6296 204.6212,-103.5917 194.2129,-105.5708 197.7188,-111.6296"/>
<g id="a_edge4&#45;headlabel"><a xlink:href="dir_000282_000000.html" target="_top" xlink:title="93">
<text text-anchor="middle" x="196.0296" y="-113.3874" font-family="Helvetica,sans-Serif" font-size="10.00" fill="#000000">93</text>
</a>
</g>
</g>
<!-- dir_936c26b3e4a2dbda1abdc749c014ce33&#45;&gt;dir_4cdb927c4b1974de288f3ebda1320b7e -->
<g id="edge5" class="edge">
<title>dir_936c26b3e4a2dbda1abdc749c014ce33&#45;&gt;dir_4cdb927c4b1974de288f3ebda1320b7e</title>
<path fill="none" stroke="#000000" d="M76.563,-287.9843C78.0846,-239.2939 82.2876,-104.7961 84.1232,-46.0573"/>
<polygon fill="#000000" stroke="#000000" points="87.6231,-46.1134 84.4372,-36.0089 80.6265,-45.8946 87.6231,-46.1134"/>
<g id="a_edge5&#45;headlabel"><a xlink:href="dir_000282_000319.html" target="_top" xlink:title="28">
<text text-anchor="middle" x="90.3488" y="-47.2949" font-family="Helvetica,sans-Serif" font-size="10.00" fill="#000000">28</text>
</a>
</g>
</g>
<!-- dir_936c26b3e4a2dbda1abdc749c014ce33&#45;&gt;dir_c718a368270b13c54d94892d20736f45 -->
<g id="edge6" class="edge">
<title>dir_936c26b3e4a2dbda1abdc749c014ce33&#45;&gt;dir_c718a368270b13c54d94892d20736f45</title>
<path fill="none" stroke="#000000" d="M90.0582,-287.7623C109.4913,-262.5518 144.6733,-216.9103 166.885,-188.0952"/>
<polygon fill="#000000" stroke="#000000" points="169.7228,-190.1465 173.0559,-180.0896 164.1788,-185.8729 169.7228,-190.1465"/>
<g id="a_edge6&#45;headlabel"><a xlink:href="dir_000282_000005.html" target="_top" xlink:title="34">
<text text-anchor="middle" x="169.7771" y="-192.2269" font-family="Helvetica,sans-Serif" font-size="10.00" fill="#000000">34</text>
</a>
</g>
</g>
<!-- dir_c85d3e3c5052e9ad9ce18c6863244a25&#45;&gt;dir_936c26b3e4a2dbda1abdc749c014ce33 -->
<g id="edge7" class="edge">
<title>dir_c85d3e3c5052e9ad9ce18c6863244a25&#45;&gt;dir_936c26b3e4a2dbda1abdc749c014ce33</title>
<path fill="none" stroke="#000000" d="M164.4825,-252.1073C154.6844,-258.2624 143.2601,-265.2849 133,-272 128.1282,-275.1885 123.0455,-278.6433 117.9881,-282.0875"/>
<polygon fill="#000000" stroke="#000000" points="115.8474,-279.3105 109.5424,-287.8251 119.781,-285.1008 115.8474,-279.3105"/>
<g id="a_edge7&#45;headlabel"><a xlink:href="dir_000070_000282.html" target="_top" xlink:title="2">
<text text-anchor="middle" x="117.2252" y="-272.442" font-family="Helvetica,sans-Serif" font-size="10.00" fill="#000000">2</text>
</a>
</g>
</g>
<!-- dir_c85d3e3c5052e9ad9ce18c6863244a25&#45;&gt;dir_4fef79e7177ba769987a8da36c892c5f -->
<g id="edge8" class="edge">
<title>dir_c85d3e3c5052e9ad9ce18c6863244a25&#45;&gt;dir_4fef79e7177ba769987a8da36c892c5f</title>
<path fill="none" stroke="#000000" d="M202.4559,-215.7404C209.9729,-205.8123 218.3662,-192.9416 223,-180 230.091,-160.196 232.2253,-136.4747 232.6486,-118.3582"/>
<polygon fill="#000000" stroke="#000000" points="236.15,-118.175 232.7226,-108.1499 229.1502,-118.1242 236.15,-118.175"/>
<g id="a_edge8&#45;headlabel"><a xlink:href="dir_000070_000000.html" target="_top" xlink:title="59">
<text text-anchor="middle" x="238.9632" y="-119.2901" font-family="Helvetica,sans-Serif" font-size="10.00" fill="#000000">59</text>
</a>
</g>
</g>
<!-- dir_c85d3e3c5052e9ad9ce18c6863244a25&#45;&gt;dir_4cdb927c4b1974de288f3ebda1320b7e -->
<g id="edge9" class="edge">
<title>dir_c85d3e3c5052e9ad9ce18c6863244a25&#45;&gt;dir_4cdb927c4b1974de288f3ebda1320b7e</title>
<path fill="none" stroke="#000000" d="M165.9468,-215.9893C157.673,-205.7134 148.8451,-192.4377 142,-180 117.2919,-135.105 96.4815,-79.0115 87.7425,-45.9871"/>
<polygon fill="#000000" stroke="#000000" points="91.1062,-45.007 85.3397,-36.1189 84.3049,-46.6631 91.1062,-45.007"/>
<g id="a_edge9&#45;headlabel"><a xlink:href="dir_000070_000319.html" target="_top" xlink:title="36">
<text text-anchor="middle" x="94.7152" y="-45.3279" font-family="Helvetica,sans-Serif" font-size="10.00" fill="#000000">36</text>
</a>
</g>
</g>
<!-- dir_c85d3e3c5052e9ad9ce18c6863244a25&#45;&gt;dir_c718a368270b13c54d94892d20736f45 -->
<g id="edge10" class="edge">
<title>dir_c85d3e3c5052e9ad9ce18c6863244a25&#45;&gt;dir_c718a368270b13c54d94892d20736f45</title>
<path fill="none" stroke="#000000" d="M181.0476,-215.8314C180.2972,-208.131 180.0763,-198.9743 180.3849,-190.4166"/>
<polygon fill="#000000" stroke="#000000" points="183.8792,-190.6161 181.024,-180.4133 176.8935,-190.1697 183.8792,-190.6161"/>
<g id="a_edge10&#45;headlabel"><a xlink:href="dir_000070_000005.html" target="_top" xlink:title="43">
<text text-anchor="middle" x="186.4836" y="-191.8844" font-family="Helvetica,sans-Serif" font-size="10.00" fill="#000000">43</text>
</a>
</g>
</g>
<!-- dir_4fef79e7177ba769987a8da36c892c5f&#45;&gt;dir_4cdb927c4b1974de288f3ebda1320b7e -->
<g id="edge11" class="edge">
<title>dir_4fef79e7177ba769987a8da36c892c5f&#45;&gt;dir_4cdb927c4b1974de288f3ebda1320b7e</title>
<path fill="none" stroke="#000000" d="M204.6949,-76.6261C181.1793,-65.1082 147.0544,-48.394 121.253,-35.7566"/>
<polygon fill="#000000" stroke="#000000" points="122.679,-32.5578 112.1588,-31.3023 119.5999,-38.8442 122.679,-32.5578"/>
<g id="a_edge11&#45;headlabel"><a xlink:href="dir_000000_000319.html" target="_top" xlink:title="117">
<text text-anchor="middle" x="127.1561" y="-29.0891" font-family="Helvetica,sans-Serif" font-size="10.00" fill="#000000">117</text>
</a>
</g>
</g>
<!-- dir_4cdb927c4b1974de288f3ebda1320b7e&#45;&gt;dir_c85d3e3c5052e9ad9ce18c6863244a25 -->
<g id="edge21" class="edge">
<title>dir_4cdb927c4b1974de288f3ebda1320b7e&#45;&gt;dir_c85d3e3c5052e9ad9ce18c6863244a25</title>
<path fill="none" stroke="#000000" d="M96.3239,-36.1189C110.0227,-66.7389 132.6179,-130.2462 160,-180 165.0269,-189.1339 171.1231,-198.7198 176.4339,-207.2376"/>
<polygon fill="#000000" stroke="#000000" points="173.5892,-209.2942 181.8006,-215.9893 179.5566,-205.6348 173.5892,-209.2942"/>
<g id="a_edge21&#45;headlabel"><a xlink:href="dir_000319_000070.html" target="_top" xlink:title="7">
<text text-anchor="middle" x="169.2897" y="-205.2141" font-family="Helvetica,sans-Serif" font-size="10.00" fill="#000000">7</text>
</a>
</g>
</g>
<!-- dir_4cdb927c4b1974de288f3ebda1320b7e&#45;&gt;dir_c718a368270b13c54d94892d20736f45 -->
<g id="edge22" class="edge">
<title>dir_4cdb927c4b1974de288f3ebda1320b7e&#45;&gt;dir_c718a368270b13c54d94892d20736f45</title>
<path fill="none" stroke="#000000" d="M102.4718,-36.0896C122.6316,-61.0041 154.8042,-106.0722 173.2727,-134.9877"/>
<polygon fill="#000000" stroke="#000000" points="170.4878,-137.136 178.7548,-143.7623 176.4245,-133.4269 170.4878,-137.136"/>
<g id="a_edge22&#45;headlabel"><a xlink:href="dir_000319_000005.html" target="_top" xlink:title="2">
<text text-anchor="middle" x="166.1753" y="-133.0918" font-family="Helvetica,sans-Serif" font-size="10.00" fill="#000000">2</text>
</a>
</g>
</g>
<!-- dir_c718a368270b13c54d94892d20736f45&#45;&gt;dir_c85d3e3c5052e9ad9ce18c6863244a25 -->
<g id="edge23" class="edge">
<title>dir_c718a368270b13c54d94892d20736f45&#45;&gt;dir_c85d3e3c5052e9ad9ce18c6863244a25</title>
<path fill="none" stroke="#000000" d="M192.976,-180.4133C193.7071,-188.0593 193.9203,-197.1084 193.6155,-205.5726"/>
<polygon fill="#000000" stroke="#000000" points="190.1048,-205.6264 192.9524,-215.8314 197.0902,-206.078 190.1048,-205.6264"/>
<g id="a_edge23&#45;headlabel"><a xlink:href="dir_000005_000070.html" target="_top" xlink:title="472">
<text text-anchor="middle" x="187.5032" y="-199.3562" font-family="Helvetica,sans-Serif" font-size="10.00" fill="#000000">472</text>
</a>
</g>
</g>
<!-- dir_c718a368270b13c54d94892d20736f45&#45;&gt;dir_4fef79e7177ba769987a8da36c892c5f -->
<g id="edge24" class="edge">
<title>dir_c718a368270b13c54d94892d20736f45&#45;&gt;dir_4fef79e7177ba769987a8da36c892c5f</title>
<path fill="none" stroke="#000000" d="M198.3554,-143.8314C203.4326,-135.7079 209.5227,-125.9637 215.1176,-117.0118"/>
<polygon fill="#000000" stroke="#000000" points="218.1597,-118.7483 220.4917,-108.4133 212.2237,-115.0383 218.1597,-118.7483"/>
<g id="a_edge24&#45;headlabel"><a xlink:href="dir_000005_000000.html" target="_top" xlink:title="192">
<text text-anchor="middle" x="218.6623" y="-120.8013" font-family="Helvetica,sans-Serif" font-size="10.00" fill="#000000">192</text>
</a>
</g>
</g>
<!-- dir_c718a368270b13c54d94892d20736f45&#45;&gt;dir_4cdb927c4b1974de288f3ebda1320b7e -->
<g id="edge25" class="edge">
<title>dir_c718a368270b13c54d94892d20736f45&#45;&gt;dir_4cdb927c4b1974de288f3ebda1320b7e</title>
<path fill="none" stroke="#000000" d="M169.4085,-143.7623C149.2012,-118.7682 117.032,-73.6924 98.6179,-44.8409"/>
<polygon fill="#000000" stroke="#000000" points="101.4195,-42.7192 93.1552,-36.0896 95.4814,-46.4259 101.4195,-42.7192"/>
<g id="a_edge25&#45;headlabel"><a xlink:href="dir_000005_000319.html" target="_top" xlink:title="78">
<text text-anchor="middle" x="105.7314" y="-41.7651" font-family="Helvetica,sans-Serif" font-size="10.00" fill="#000000">78</text>
</a>
</g>
</g>
</g>
</svg>
