<?xml version="1.0" encoding="UTF-8" standalone="no"?>
<!DOCTYPE svg PUBLIC "-//W3C//DTD SVG 1.1//EN"
 "http://www.w3.org/Graphics/SVG/1.1/DTD/svg11.dtd">
<!-- Generated by graphviz version 2.40.1 (20161225.0304)
 -->
<!-- Title: sPort_send_ALT Pages: 1 -->
<svg width="477pt" height="104pt"
 viewBox="0.00 0.00 477.00 104.00" xmlns="http://www.w3.org/2000/svg" xmlns:xlink="http://www.w3.org/1999/xlink">
<g id="graph0" class="graph" transform="scale(1 1) rotate(0) translate(4 100)">
<title>sPort_send_ALT</title>
<polygon fill="#ffffff" stroke="transparent" points="-4,4 -4,-100 473,-100 473,4 -4,4"/>
<!-- Node8 -->
<g id="node1" class="node">
<title>Node8</title>
<polygon fill="#bfbfbf" stroke="#000000" points="0,-57.5 0,-76.5 89,-76.5 89,-57.5 0,-57.5"/>
<text text-anchor="middle" x="44.5" y="-64.5" font-family="Helvetica,sans-Serif" font-size="10.00" fill="#000000">sPort_send_ALT</text>
</g>
<!-- Node9 -->
<g id="node2" class="node">
<title>Node9</title>
<g id="a_node2"><a xlink:href="../../d6/d4c/classu_o_r_b_1_1_subscription_data.html#ab75614b7adbc3ba5cbf0c3ec82e70fd2" target="_top" xlink:title="uORB::SubscriptionData::get">
<polygon fill="#ffffff" stroke="#000000" points="125,-76.5 125,-95.5 269,-95.5 269,-76.5 125,-76.5"/>
<text text-anchor="middle" x="197" y="-83.5" font-family="Helvetica,sans-Serif" font-size="10.00" fill="#000000">uORB::SubscriptionData::get</text>
</a>
</g>
</g>
<!-- Node8&#45;&gt;Node9 -->
<g id="edge1" class="edge">
<title>Node8&#45;&gt;Node9</title>
<path fill="none" stroke="#191970" d="M89.0193,-72.5467C97.1954,-73.5653 105.9639,-74.6578 114.8398,-75.7637"/>
<polygon fill="#191970" stroke="#191970" points="114.5249,-79.2514 124.8809,-77.0147 115.3904,-72.3051 114.5249,-79.2514"/>
</g>
<!-- Node10 -->
<g id="node3" class="node">
<title>Node10</title>
<g id="a_node3"><a xlink:href="../../d7/d9b/s_port__data_8cpp.html#a7a6f81a0b39a1ac1a5d3ff3ed647ccd5" target="_top" xlink:title="Sends one data id/value pair. ">
<polygon fill="#ffffff" stroke="#000000" points="152,-38.5 152,-57.5 242,-57.5 242,-38.5 152,-38.5"/>
<text text-anchor="middle" x="197" y="-45.5" font-family="Helvetica,sans-Serif" font-size="10.00" fill="#000000">sPort_send_data</text>
</a>
</g>
</g>
<!-- Node8&#45;&gt;Node10 -->
<g id="edge2" class="edge">
<title>Node8&#45;&gt;Node10</title>
<path fill="none" stroke="#191970" d="M89.0193,-61.4533C105.5548,-59.3932 124.5135,-57.0311 141.8836,-54.867"/>
<polygon fill="#191970" stroke="#191970" points="142.4064,-58.329 151.8969,-53.6194 141.5409,-51.3827 142.4064,-58.329"/>
</g>
<!-- Node11 -->
<g id="node4" class="node">
<title>Node11</title>
<g id="a_node4"><a xlink:href="../../d7/d9b/s_port__data_8cpp.html#a57baddad182ed0500f71959e58dfa69d" target="_top" xlink:title="Sends one byte, performing byte&#45;stuffing if necessary. ">
<polygon fill="#ffffff" stroke="#000000" points="305,-76.5 305,-95.5 395,-95.5 395,-76.5 305,-76.5"/>
<text text-anchor="middle" x="350" y="-83.5" font-family="Helvetica,sans-Serif" font-size="10.00" fill="#000000">sPort_send_byte</text>
</a>
</g>
</g>
<!-- Node10&#45;&gt;Node11 -->
<g id="edge3" class="edge">
<title>Node10&#45;&gt;Node11</title>
<path fill="none" stroke="#191970" d="M235.6084,-57.589C255.7074,-62.5809 280.4751,-68.7324 301.8185,-74.0334"/>
<polygon fill="#191970" stroke="#191970" points="301.1204,-77.4662 311.6693,-76.4799 302.8078,-70.6726 301.1204,-77.4662"/>
</g>
<!-- Node12 -->
<g id="node5" class="node">
<title>Node12</title>
<g id="a_node5"><a xlink:href="../../da/d60/boot__app__shared_8c.html#a6e76822ee32581d3159ae2f6ce9ae229" target="_top" xlink:title="write">
<polygon fill="#ffffff" stroke="#000000" points="431,-57.5 431,-76.5 469,-76.5 469,-57.5 431,-57.5"/>
<text text-anchor="middle" x="450" y="-64.5" font-family="Helvetica,sans-Serif" font-size="10.00" fill="#000000">write</text>
</a>
</g>
</g>
<!-- Node10&#45;&gt;Node12 -->
<g id="edge6" class="edge">
<title>Node10&#45;&gt;Node12</title>
<path fill="none" stroke="#191970" d="M242.2313,-51.3968C293.9658,-55.282 377.1489,-61.529 420.9195,-64.8161"/>
<polygon fill="#191970" stroke="#191970" points="420.6688,-68.307 430.9029,-65.5658 421.1931,-61.3267 420.6688,-68.307"/>
</g>
<!-- Node13 -->
<g id="node6" class="node">
<title>Node13</title>
<g id="a_node6"><a xlink:href="../../d7/d9b/s_port__data_8cpp.html#a00957d60b3700ddb8cd39f9bdb399e43" target="_top" xlink:title="update_crc">
<polygon fill="#ffffff" stroke="#000000" points="317.5,-.5 317.5,-19.5 382.5,-19.5 382.5,-.5 317.5,-.5"/>
<text text-anchor="middle" x="350" y="-7.5" font-family="Helvetica,sans-Serif" font-size="10.00" fill="#000000">update_crc</text>
</a>
</g>
</g>
<!-- Node10&#45;&gt;Node13 -->
<g id="edge5" class="edge">
<title>Node10&#45;&gt;Node13</title>
<path fill="none" stroke="#191970" d="M235.6084,-38.411C257.4873,-32.977 284.8982,-26.1691 307.4025,-20.5798"/>
<polygon fill="#191970" stroke="#191970" points="308.498,-23.9141 317.3595,-18.1068 306.8106,-17.1205 308.498,-23.9141"/>
</g>
<!-- Node11&#45;&gt;Node12 -->
<g id="edge4" class="edge">
<title>Node11&#45;&gt;Node12</title>
<path fill="none" stroke="#191970" d="M395.0269,-77.4449C403.822,-75.7738 412.8244,-74.0634 420.9311,-72.5231"/>
<polygon fill="#191970" stroke="#191970" points="421.8084,-75.9191 430.9793,-70.6139 420.5018,-69.0421 421.8084,-75.9191"/>
</g>
</g>
</svg>
