<?xml version="1.0" encoding="UTF-8" standalone="no"?>
<!DOCTYPE svg PUBLIC "-//W3C//DTD SVG 1.1//EN"
 "http://www.w3.org/Graphics/SVG/1.1/DTD/svg11.dtd">
<!-- Generated by graphviz version 2.40.1 (20161225.0304)
 -->
<!-- Title: BMI055_gyro::gyro_set_sample_rate Pages: 1 -->
<svg width="393pt" height="39pt"
 viewBox="0.00 0.00 393.00 39.00" xmlns="http://www.w3.org/2000/svg" xmlns:xlink="http://www.w3.org/1999/xlink">
<g id="graph0" class="graph" transform="scale(1 1) rotate(0) translate(4 35)">
<title>BMI055_gyro::gyro_set_sample_rate</title>
<polygon fill="#ffffff" stroke="transparent" points="-4,4 -4,-35 389,-35 389,4 -4,4"/>
<!-- Node23 -->
<g id="node1" class="node">
<title>Node23</title>
<polygon fill="#bfbfbf" stroke="#000000" points="0,-.5 0,-30.5 118,-30.5 118,-.5 0,-.5"/>
<text text-anchor="start" x="8" y="-18.5" font-family="Helvetica,sans-Serif" font-size="10.00" fill="#000000">BMI055_gyro::gyro_set</text>
<text text-anchor="middle" x="59" y="-7.5" font-family="Helvetica,sans-Serif" font-size="10.00" fill="#000000">_sample_rate</text>
</g>
<!-- Node24 -->
<g id="node2" class="node">
<title>Node24</title>
<g id="a_node2"><a xlink:href="../../d7/d07/class_b_m_i055__gyro.html#a0479bd2cbd47756952cc9017c75a80d7" target="_top" xlink:title="Reset chip. ">
<polygon fill="#ffffff" stroke="#000000" points="154,-6 154,-25 256,-25 256,-6 154,-6"/>
<text text-anchor="middle" x="205" y="-13" font-family="Helvetica,sans-Serif" font-size="10.00" fill="#000000">BMI055_gyro::reset</text>
</a>
</g>
</g>
<!-- Node23&#45;&gt;Node24 -->
<g id="edge1" class="edge">
<title>Node23&#45;&gt;Node24</title>
<path fill="none" stroke="#191970" d="M128.6068,-15.5C137.0372,-15.5 145.5282,-15.5 153.6285,-15.5"/>
<polygon fill="#191970" stroke="#191970" points="128.3838,-12.0001 118.3838,-15.5 128.3838,-19.0001 128.3838,-12.0001"/>
</g>
<!-- Node25 -->
<g id="node3" class="node">
<title>Node25</title>
<g id="a_node3"><a xlink:href="../../d7/d07/class_b_m_i055__gyro.html#a800a1772bcf8fc4bef5157362f78e58f" target="_top" xlink:title="BMI055_gyro::init">
<polygon fill="#ffffff" stroke="#000000" points="292,-6 292,-25 385,-25 385,-6 292,-6"/>
<text text-anchor="middle" x="338.5" y="-13" font-family="Helvetica,sans-Serif" font-size="10.00" fill="#000000">BMI055_gyro::init</text>
</a>
</g>
</g>
<!-- Node24&#45;&gt;Node25 -->
<g id="edge2" class="edge">
<title>Node24&#45;&gt;Node25</title>
<path fill="none" stroke="#191970" d="M266.286,-15.5C274.9277,-15.5 283.6925,-15.5 291.9956,-15.5"/>
<polygon fill="#191970" stroke="#191970" points="266.2328,-12.0001 256.2328,-15.5 266.2327,-19.0001 266.2328,-12.0001"/>
</g>
</g>
</svg>
