<?xml version="1.0" encoding="UTF-8" standalone="no"?>
<!DOCTYPE svg PUBLIC "-//W3C//DTD SVG 1.1//EN"
 "http://www.w3.org/Graphics/SVG/1.1/DTD/svg11.dtd">
<!-- Generated by graphviz version 2.40.1 (20161225.0304)
 -->
<!-- Title: BMI055_gyro::init Pages: 1 -->
<!--zoomable 227 -->
<svg id="main" version="1.1" xmlns="http://www.w3.org/2000/svg" xmlns:xlink="http://www.w3.org/1999/xlink" xml:space="preserve" onload="init(evt)">
<style type="text/css"><![CDATA[
.edge:hover path { stroke: red; }
.edge:hover polygon { stroke: red; fill: red; }
]]></style>
<script type="text/javascript"><![CDATA[
var edges = document.getElementsByTagName('g');
if (edges && edges.length) {
  for (var i=0;i<edges.length;i++) {
    if (edges[i].id.substr(0,4)=='edge') {
      edges[i].setAttribute('class','edge');
    }
  }
}
]]></script>
        <defs>
                <circle id="rim" cx="0" cy="0" r="7"/>
                <circle id="rim2" cx="0" cy="0" r="3.5"/>
                <g id="zoomPlus">
                        <use xlink:href="#rim" fill="#404040">
                                <set attributeName="fill" to="#808080" begin="zoomplus.mouseover" end="zoomplus.mouseout"/>
                        </use>
                        <path d="M-4,0h8M0,-4v8" fill="none" stroke="white" stroke-width="1.5" pointer-events="none"/>
                </g>
                <g id="zoomMin">
                        <use xlink:href="#rim" fill="#404040">
                                <set attributeName="fill" to="#808080" begin="zoomminus.mouseover" end="zoomminus.mouseout"/>
                        </use>
                        <path d="M-4,0h8" fill="none" stroke="white" stroke-width="1.5" pointer-events="none"/>
                </g>
                <g id="dirArrow">
                        <path fill="none" stroke="white" stroke-width="1.5" d="M0,-3.0v7 M-2.5,-0.5L0,-3.0L2.5,-0.5"/>
                </g>
               <g id="resetDef">
                       <use xlink:href="#rim2" fill="#404040">
                               <set attributeName="fill" to="#808080" begin="reset.mouseover" end="reset.mouseout"/>
                       </use>
               </g>
        </defs>

<script type="text/javascript">
var viewWidth = 887;
var viewHeight = 227;
var sectionId = 'dynsection-8';
</script>
<script xlink:href="../../svgpan.js"/>
<svg id="graph" class="graph">
<g id="viewport">
<title>BMI055_gyro::init</title>
<polygon fill="#ffffff" stroke="transparent" points="-4,4 -4,-222.8325 883,-222.8325 883,4 -4,4"/>
<!-- Node26 -->
<g id="node1" class="node">
<title>Node26</title>
<polygon fill="#bfbfbf" stroke="#000000" points="0,-145.5 0,-164.5 93,-164.5 93,-145.5 0,-145.5"/>
<text text-anchor="middle" x="46.5" y="-152.5" font-family="Helvetica,sans-Serif" font-size="10.00" fill="#000000">BMI055_gyro::init</text>
</g>
<!-- Node27 -->
<g id="node2" class="node">
<title>Node27</title>
<g id="a_node2"><a xlink:href="../../dc/d43/namespace_tone_alarm_interface.html#a565a70f50ef50ec7d7d20351f32b9625" target="_top" xlink:title="Activates/configures the hardware registers. ">
<polygon fill="#ffffff" stroke="#000000" points="129,-162 129,-192 231,-192 231,-162 129,-162"/>
<text text-anchor="start" x="137" y="-180" font-family="Helvetica,sans-Serif" font-size="10.00" fill="#000000">ToneAlarmInterface</text>
<text text-anchor="middle" x="180" y="-169" font-family="Helvetica,sans-Serif" font-size="10.00" fill="#000000">::init</text>
</a>
</g>
</g>
<!-- Node26&#45;&gt;Node27 -->
<g id="edge1" class="edge">
<title>Node26&#45;&gt;Node27</title>
<path fill="none" stroke="#191970" d="M93.1918,-162.6945C101.4064,-164.0482 110.0677,-165.4756 118.6112,-166.8835"/>
<polygon fill="#191970" stroke="#191970" points="118.1165,-170.3491 128.5525,-168.5218 119.2547,-163.4422 118.1165,-170.3491"/>
</g>
<!-- Node28 -->
<g id="node3" class="node">
<title>Node28</title>
<g id="a_node3"><a xlink:href="../../d7/d07/class_b_m_i055__gyro.html#a0479bd2cbd47756952cc9017c75a80d7" target="_top" xlink:title="Reset chip. ">
<polygon fill="#ffffff" stroke="#000000" points="129,-123.5 129,-142.5 231,-142.5 231,-123.5 129,-123.5"/>
<text text-anchor="middle" x="180" y="-130.5" font-family="Helvetica,sans-Serif" font-size="10.00" fill="#000000">BMI055_gyro::reset</text>
</a>
</g>
</g>
<!-- Node26&#45;&gt;Node28 -->
<g id="edge2" class="edge">
<title>Node26&#45;&gt;Node28</title>
<path fill="none" stroke="#191970" d="M93.1918,-147.3055C101.4064,-145.9518 110.0677,-144.5244 118.6112,-143.1165"/>
<polygon fill="#191970" stroke="#191970" points="119.2547,-146.5578 128.5525,-141.4782 118.1165,-139.6509 119.2547,-146.5578"/>
</g>
<!-- Node29 -->
<g id="node4" class="node">
<title>Node29</title>
<g id="a_node4"><a xlink:href="../../d0/d48/class_b_m_i055.html#a123c0bbc2c836f01bdd7ca607ac791e1" target="_top" xlink:title="Write a register in the BMI055. ">
<polygon fill="#ffffff" stroke="#000000" points="783,-183.5 783,-202.5 879,-202.5 879,-183.5 783,-183.5"/>
<text text-anchor="middle" x="831" y="-190.5" font-family="Helvetica,sans-Serif" font-size="10.00" fill="#000000">BMI055::write_reg</text>
</a>
</g>
</g>
<!-- Node28&#45;&gt;Node29 -->
<g id="edge3" class="edge">
<title>Node28&#45;&gt;Node29</title>
<path fill="none" stroke="#191970" d="M207.7897,-142.5458C215.4725,-145.5453 223.7007,-149.1033 231,-153 248.1843,-162.1738 248.5884,-171.6384 267,-178 442.8343,-238.7549 668.1984,-217.6182 772.8193,-202.66"/>
<polygon fill="#191970" stroke="#191970" points="773.4754,-206.1014 782.8629,-201.1895 772.4613,-199.1752 773.4754,-206.1014"/>
</g>
<!-- Node30 -->
<g id="node5" class="node">
<title>Node30</title>
<g id="a_node5"><a xlink:href="../../d7/d07/class_b_m_i055__gyro.html#a12ff0f7c88ca5bc8512b979d8a6d6d8c" target="_top" xlink:title="Write a register in the BMI055_gyro, updating _checked_values. ">
<polygon fill="#ffffff" stroke="#000000" points="617,-156 617,-186 718,-186 718,-156 617,-156"/>
<text text-anchor="start" x="625" y="-174" font-family="Helvetica,sans-Serif" font-size="10.00" fill="#000000">BMI055_gyro::write</text>
<text text-anchor="middle" x="667.5" y="-163" font-family="Helvetica,sans-Serif" font-size="10.00" fill="#000000">_checked_reg</text>
</a>
</g>
</g>
<!-- Node28&#45;&gt;Node30 -->
<g id="edge4" class="edge">
<title>Node28&#45;&gt;Node30</title>
<path fill="none" stroke="#191970" d="M206.6532,-142.5171C223.6769,-148.129 246.3528,-154.7498 267,-158 386.2059,-176.7646 527.7459,-176.0686 606.6233,-173.6691"/>
<polygon fill="#191970" stroke="#191970" points="606.9797,-177.1595 616.861,-173.3372 606.7528,-170.1632 606.9797,-177.1595"/>
</g>
<!-- Node31 -->
<g id="node6" class="node">
<title>Node31</title>
<g id="a_node6"><a xlink:href="../../d7/d07/class_b_m_i055__gyro.html#acf9154f70c078249f45fcb85b3f7fecd" target="_top" xlink:title="Set the BMI055_gyro measurement range. ">
<polygon fill="#ffffff" stroke="#000000" points="267,-30 267,-60 385,-60 385,-30 267,-30"/>
<text text-anchor="start" x="275" y="-48" font-family="Helvetica,sans-Serif" font-size="10.00" fill="#000000">BMI055_gyro::set_gyro</text>
<text text-anchor="middle" x="326" y="-37" font-family="Helvetica,sans-Serif" font-size="10.00" fill="#000000">_range</text>
</a>
</g>
</g>
<!-- Node28&#45;&gt;Node31 -->
<g id="edge6" class="edge">
<title>Node28&#45;&gt;Node31</title>
<path fill="none" stroke="#191970" d="M193.2483,-123.4555C210.0395,-111.5265 240.0479,-90.7628 267,-75 272.9314,-71.531 279.311,-68.0458 285.6057,-64.7412"/>
<polygon fill="#191970" stroke="#191970" points="287.4196,-67.7439 294.7053,-60.0518 284.2129,-61.5216 287.4196,-67.7439"/>
</g>
<!-- Node38 -->
<g id="node13" class="node">
<title>Node38</title>
<g id="a_node13"><a xlink:href="../../d0/d48/class_b_m_i055.html#a47ee187403ca5e3fee9f5bd9c854c7b2" target="_top" xlink:title="Read a register from the BMI055. ">
<polygon fill="#ffffff" stroke="#000000" points="620.5,-98.5 620.5,-117.5 714.5,-117.5 714.5,-98.5 620.5,-98.5"/>
<text text-anchor="middle" x="667.5" y="-105.5" font-family="Helvetica,sans-Serif" font-size="10.00" fill="#000000">BMI055::read_reg</text>
</a>
</g>
</g>
<!-- Node28&#45;&gt;Node38 -->
<g id="edge18" class="edge">
<title>Node28&#45;&gt;Node38</title>
<path fill="none" stroke="#191970" d="M207.4252,-123.4098C224.3587,-117.9989 246.6635,-111.7795 267,-109 388.3128,-92.4197 532.2322,-98.1763 610.2572,-103.3853"/>
<polygon fill="#191970" stroke="#191970" points="610.1432,-106.8857 620.3602,-104.0816 610.6245,-99.9023 610.1432,-106.8857"/>
</g>
<!-- Node39 -->
<g id="node14" class="node">
<title>Node39</title>
<g id="a_node14"><a xlink:href="../../d7/d07/class_b_m_i055__gyro.html#afa5f29fac04385b844295be3cbc831f8" target="_top" xlink:title="BMI055_gyro::gyro_set\l_sample_rate">
<polygon fill="#ffffff" stroke="#000000" points="267,-118 267,-148 385,-148 385,-118 267,-118"/>
<text text-anchor="start" x="275" y="-136" font-family="Helvetica,sans-Serif" font-size="10.00" fill="#000000">BMI055_gyro::gyro_set</text>
<text text-anchor="middle" x="326" y="-125" font-family="Helvetica,sans-Serif" font-size="10.00" fill="#000000">_sample_rate</text>
</a>
</g>
</g>
<!-- Node28&#45;&gt;Node39 -->
<g id="edge16" class="edge">
<title>Node28&#45;&gt;Node39</title>
<path fill="none" stroke="#191970" d="M231.0637,-133C239.3973,-133 248.1513,-133 256.8329,-133"/>
<polygon fill="#191970" stroke="#191970" points="256.9615,-136.5001 266.9615,-133 256.9614,-129.5001 256.9615,-136.5001"/>
</g>
<!-- Node30&#45;&gt;Node29 -->
<g id="edge5" class="edge">
<title>Node30&#45;&gt;Node29</title>
<path fill="none" stroke="#191970" d="M718.3362,-177.8403C735.5759,-180.1601 754.9666,-182.7692 772.7389,-185.1606"/>
<polygon fill="#191970" stroke="#191970" points="772.6099,-188.6747 782.9874,-186.5396 773.5435,-181.7372 772.6099,-188.6747"/>
</g>
<!-- Node32 -->
<g id="node7" class="node">
<title>Node32</title>
<g id="a_node7"><a xlink:href="../../d4/d1b/class_p_x4_gyroscope.html#a27d736cf0d7c8c3a16add049def9ad07" target="_top" xlink:title="PX4Gyroscope::set_scale">
<polygon fill="#ffffff" stroke="#000000" points="421,-38.5 421,-57.5 552,-57.5 552,-38.5 421,-38.5"/>
<text text-anchor="middle" x="486.5" y="-45.5" font-family="Helvetica,sans-Serif" font-size="10.00" fill="#000000">PX4Gyroscope::set_scale</text>
</a>
</g>
</g>
<!-- Node31&#45;&gt;Node32 -->
<g id="edge7" class="edge">
<title>Node31&#45;&gt;Node32</title>
<path fill="none" stroke="#191970" d="M385.3083,-46.1086C393.652,-46.2645 402.3205,-46.4266 410.9174,-46.5872"/>
<polygon fill="#191970" stroke="#191970" points="410.8889,-50.0872 420.9526,-46.7748 411.0198,-43.0884 410.8889,-50.0872"/>
</g>
<!-- Node34 -->
<g id="node9" class="node">
<title>Node34</title>
<g id="a_node9"><a xlink:href="../../d8/da1/integration_8cpp.html#af5ba872dd09316732300733cc164ac1a" target="_top" xlink:title="f">
<polygon fill="#ffffff" stroke="#000000" points="472,-.5 472,-19.5 501,-19.5 501,-.5 472,-.5"/>
<text text-anchor="middle" x="486.5" y="-7.5" font-family="Helvetica,sans-Serif" font-size="10.00" fill="#000000">f</text>
</a>
</g>
</g>
<!-- Node31&#45;&gt;Node34 -->
<g id="edge9" class="edge">
<title>Node31&#45;&gt;Node34</title>
<path fill="none" stroke="#191970" d="M385.3083,-32.0667C411.8011,-26.2895 441.5679,-19.7983 461.9191,-15.3603"/>
<polygon fill="#191970" stroke="#191970" points="462.8812,-18.7329 471.9058,-13.1825 461.3897,-11.8936 462.8812,-18.7329"/>
</g>
<!-- Node37 -->
<g id="node12" class="node">
<title>Node37</title>
<g id="a_node12"><a xlink:href="../../d7/d07/class_b_m_i055__gyro.html#a3f30a412e8eb1f06c4583ccb7e179c2c" target="_top" xlink:title="Modify a register in the BMI055_gyro. ">
<polygon fill="#ffffff" stroke="#000000" points="422.5,-120.5 422.5,-139.5 550.5,-139.5 550.5,-120.5 422.5,-120.5"/>
<text text-anchor="middle" x="486.5" y="-127.5" font-family="Helvetica,sans-Serif" font-size="10.00" fill="#000000">BMI055_gyro::modify_reg</text>
</a>
</g>
</g>
<!-- Node31&#45;&gt;Node37 -->
<g id="edge13" class="edge">
<title>Node31&#45;&gt;Node37</title>
<path fill="none" stroke="#191970" d="M354.3247,-60.0006C383.9169,-75.6725 430.0174,-100.0871 459.2155,-115.5503"/>
<polygon fill="#191970" stroke="#191970" points="457.946,-118.8384 468.4212,-120.4256 461.2221,-112.6524 457.946,-118.8384"/>
</g>
<!-- Node33 -->
<g id="node8" class="node">
<title>Node33</title>
<g id="a_node8"><a xlink:href="../../de/d84/classu_o_r_b_1_1_publication_multi_data.html#ad34053c0417701f6951d21e5b6618b34" target="_top" xlink:title="uORB::PublicationMultiData::get">
<polygon fill="#ffffff" stroke="#000000" points="588,-38.5 588,-57.5 747,-57.5 747,-38.5 588,-38.5"/>
<text text-anchor="middle" x="667.5" y="-45.5" font-family="Helvetica,sans-Serif" font-size="10.00" fill="#000000">uORB::PublicationMultiData::get</text>
</a>
</g>
</g>
<!-- Node32&#45;&gt;Node33 -->
<g id="edge8" class="edge">
<title>Node32&#45;&gt;Node33</title>
<path fill="none" stroke="#191970" d="M552.1011,-48C560.4634,-48 569.1333,-48 577.7935,-48"/>
<polygon fill="#191970" stroke="#191970" points="577.9364,-51.5001 587.9364,-48 577.9363,-44.5001 577.9364,-51.5001"/>
</g>
<!-- Node35 -->
<g id="node10" class="node">
<title>Node35</title>
<g id="a_node10"><a xlink:href="../../d0/de4/namespacematrix.html#a761295febb473ca1226309513533e801" target="_top" xlink:title="matrix::sin">
<polygon fill="#ffffff" stroke="#000000" points="636.5,-.5 636.5,-19.5 698.5,-19.5 698.5,-.5 636.5,-.5"/>
<text text-anchor="middle" x="667.5" y="-7.5" font-family="Helvetica,sans-Serif" font-size="10.00" fill="#000000">matrix::sin</text>
</a>
</g>
</g>
<!-- Node34&#45;&gt;Node35 -->
<g id="edge10" class="edge">
<title>Node34&#45;&gt;Node35</title>
<path fill="none" stroke="#191970" d="M501.006,-10C527.8043,-10 585.9766,-10 625.9401,-10"/>
<polygon fill="#191970" stroke="#191970" points="626.1821,-13.5001 636.1821,-10 626.182,-6.5001 626.1821,-13.5001"/>
</g>
<!-- Node36 -->
<g id="node11" class="node">
<title>Node36</title>
<g id="a_node11"><a xlink:href="../../d0/de4/namespacematrix.html#a2e09123c750ed3a0315a31f3b27a3ed9" target="_top" xlink:title="matrix::cos">
<polygon fill="#ffffff" stroke="#000000" points="798.5,-.5 798.5,-19.5 863.5,-19.5 863.5,-.5 798.5,-.5"/>
<text text-anchor="middle" x="831" y="-7.5" font-family="Helvetica,sans-Serif" font-size="10.00" fill="#000000">matrix::cos</text>
</a>
</g>
</g>
<!-- Node35&#45;&gt;Node36 -->
<g id="edge11" class="edge">
<title>Node35&#45;&gt;Node36</title>
<path fill="none" stroke="#191970" d="M698.6379,-4.5652C723.9422,-3.0379 759.9124,-2.8408 787.97,-3.9738"/>
<polygon fill="#191970" stroke="#191970" points="788.1397,-7.486 798.2971,-4.4732 788.4778,-.4942 788.1397,-7.486"/>
</g>
<!-- Node36&#45;&gt;Node35 -->
<g id="edge12" class="edge">
<title>Node36&#45;&gt;Node35</title>
<path fill="none" stroke="#191970" d="M798.2971,-15.5268C772.5646,-16.9997 736.5458,-17.1424 708.8195,-15.955"/>
<polygon fill="#191970" stroke="#191970" points="708.8035,-12.4497 698.6379,-15.4348 708.4463,-19.4406 708.8035,-12.4497"/>
</g>
<!-- Node37&#45;&gt;Node30 -->
<g id="edge15" class="edge">
<title>Node37&#45;&gt;Node30</title>
<path fill="none" stroke="#191970" d="M528.48,-139.5093C551.7129,-144.772 581.0027,-151.4067 606.6995,-157.2275"/>
<polygon fill="#191970" stroke="#191970" points="606.1941,-160.7016 616.7203,-159.4974 607.7406,-153.8746 606.1941,-160.7016"/>
</g>
<!-- Node37&#45;&gt;Node38 -->
<g id="edge14" class="edge">
<title>Node37&#45;&gt;Node38</title>
<path fill="none" stroke="#191970" d="M550.5685,-122.2127C570.0504,-119.8447 591.3235,-117.259 610.3201,-114.95"/>
<polygon fill="#191970" stroke="#191970" points="610.8136,-118.4159 620.3182,-113.7348 609.969,-111.467 610.8136,-118.4159"/>
</g>
<!-- Node39&#45;&gt;Node37 -->
<g id="edge17" class="edge">
<title>Node39&#45;&gt;Node37</title>
<path fill="none" stroke="#191970" d="M385.3083,-131.8914C394.0671,-131.7277 403.1838,-131.5573 412.1999,-131.3888"/>
<polygon fill="#191970" stroke="#191970" points="412.3792,-134.8861 422.312,-131.1998 412.2483,-127.8874 412.3792,-134.8861"/>
</g>
</g>
</svg>
        <g id="navigator" transform="translate(0 0)" fill="#404254">
                <rect fill="#f2f5e9" fill-opacity="0.5" stroke="#606060" stroke-width=".5" x="0" y="0" width="60" height="60"/>
                <use id="zoomplus" xlink:href="#zoomPlus" x="17" y="9" onmousedown="handleZoom(evt,'in')"/>
                <use id="zoomminus" xlink:href="#zoomMin" x="42" y="9" onmousedown="handleZoom(evt,'out')"/>
                <use id="reset" xlink:href="#resetDef" x="30" y="36" onmousedown="handleReset()"/>
                <g id="arrowUp" xlink:href="#dirArrow" transform="translate(30 24)" onmousedown="handlePan(0,-1)">
                  <use xlink:href="#rim" fill="#404040">
                        <set attributeName="fill" to="#808080" begin="arrowUp.mouseover" end="arrowUp.mouseout"/>
                  </use>
                  <path fill="none" stroke="white" stroke-width="1.5" d="M0,-3.0v7 M-2.5,-0.5L0,-3.0L2.5,-0.5"/>
                </g>
                <g id="arrowRight" xlink:href="#dirArrow" transform="rotate(90) translate(36 -43)" onmousedown="handlePan(1,0)">
                  <use xlink:href="#rim" fill="#404040">
                        <set attributeName="fill" to="#808080" begin="arrowRight.mouseover" end="arrowRight.mouseout"/>
                  </use>
                  <path fill="none" stroke="white" stroke-width="1.5" d="M0,-3.0v7 M-2.5,-0.5L0,-3.0L2.5,-0.5"/>
                </g>
                <g id="arrowDown" xlink:href="#dirArrow" transform="rotate(180) translate(-30 -48)" onmousedown="handlePan(0,1)">
                  <use xlink:href="#rim" fill="#404040">
                        <set attributeName="fill" to="#808080" begin="arrowDown.mouseover" end="arrowDown.mouseout"/>
                  </use>
                  <path fill="none" stroke="white" stroke-width="1.5" d="M0,-3.0v7 M-2.5,-0.5L0,-3.0L2.5,-0.5"/>
                </g>
                <g id="arrowLeft" xlink:href="#dirArrow" transform="rotate(270) translate(-36 17)" onmousedown="handlePan(-1,0)">
                  <use xlink:href="#rim" fill="#404040">
                        <set attributeName="fill" to="#808080" begin="arrowLeft.mouseover" end="arrowLeft.mouseout"/>
                  </use>
                  <path fill="none" stroke="white" stroke-width="1.5" d="M0,-3.0v7 M-2.5,-0.5L0,-3.0L2.5,-0.5"/>
                </g>
        </g>
        <svg viewBox="0 0 15 15" width="100%" height="30px" preserveAspectRatio="xMaxYMin meet">
         <g id="arrow_out" transform="scale(0.3 0.3)">
          <a xlink:href="class_b_m_i055__gyro_a800a1772bcf8fc4bef5157362f78e58f_cgraph_org.svg" target="_base">
           <rect id="button" ry="5" rx="5" y="6" x="6" height="38" width="38"
                fill="#f2f5e9" fill-opacity="0.5" stroke="#606060" stroke-width="1.0"/>
           <path id="arrow"
             d="M 11.500037,31.436501 C 11.940474,20.09759 22.043105,11.32322 32.158766,21.979434 L 37.068811,17.246167 C 37.068811,17.246167 37.088388,32 37.088388,32 L 22.160133,31.978069 C 22.160133,31.978069 26.997745,27.140456 26.997745,27.140456 C 18.528582,18.264221 13.291696,25.230495 11.500037,31.436501 z"
             style="fill:#404040;"/>
          </a>
         </g>
        </svg>
</svg>
