<?xml version="1.0" encoding="UTF-8" standalone="no"?>
<!DOCTYPE svg PUBLIC "-//W3C//DTD SVG 1.1//EN"
 "http://www.w3.org/Graphics/SVG/1.1/DTD/svg11.dtd">
<!-- Generated by graphviz version 2.40.1 (20161225.0304)
 -->
<!-- Title: BMI055_gyro::check_registers Pages: 1 -->
<svg width="403pt" height="39pt"
 viewBox="0.00 0.00 403.00 39.00" xmlns="http://www.w3.org/2000/svg" xmlns:xlink="http://www.w3.org/1999/xlink">
<g id="graph0" class="graph" transform="scale(1 1) rotate(0) translate(4 35)">
<title>BMI055_gyro::check_registers</title>
<polygon fill="#ffffff" stroke="transparent" points="-4,4 -4,-35 399,-35 399,4 -4,4"/>
<!-- Node15 -->
<g id="node1" class="node">
<title>Node15</title>
<polygon fill="#bfbfbf" stroke="#000000" points="0,-.5 0,-30.5 107,-30.5 107,-.5 0,-.5"/>
<text text-anchor="start" x="8" y="-18.5" font-family="Helvetica,sans-Serif" font-size="10.00" fill="#000000">BMI055_gyro::check</text>
<text text-anchor="middle" x="53.5" y="-7.5" font-family="Helvetica,sans-Serif" font-size="10.00" fill="#000000">_registers</text>
</g>
<!-- Node16 -->
<g id="node2" class="node">
<title>Node16</title>
<g id="a_node2"><a xlink:href="../../d7/d07/class_b_m_i055__gyro.html#a4f3db255e14576ecd002aed271c8f3ec" target="_top" xlink:title="Fetch measurements from the sensor and update the report buffers. ">
<polygon fill="#ffffff" stroke="#000000" points="143,-6 143,-25 261,-25 261,-6 143,-6"/>
<text text-anchor="middle" x="202" y="-13" font-family="Helvetica,sans-Serif" font-size="10.00" fill="#000000">BMI055_gyro::measure</text>
</a>
</g>
</g>
<!-- Node15&#45;&gt;Node16 -->
<g id="edge1" class="edge">
<title>Node15&#45;&gt;Node16</title>
<path fill="none" stroke="#191970" d="M117.3514,-15.5C125.8464,-15.5 134.5267,-15.5 142.9355,-15.5"/>
<polygon fill="#191970" stroke="#191970" points="117.1119,-12.0001 107.1119,-15.5 117.1119,-19.0001 117.1119,-12.0001"/>
</g>
<!-- Node17 -->
<g id="node3" class="node">
<title>Node17</title>
<g id="a_node3"><a xlink:href="../../d7/d07/class_b_m_i055__gyro.html#aa576e893ca70e469450aa07cc82bfc70" target="_top" xlink:title="BMI055_gyro::Run">
<polygon fill="#ffffff" stroke="#000000" points="297,-6 297,-25 395,-25 395,-6 297,-6"/>
<text text-anchor="middle" x="346" y="-13" font-family="Helvetica,sans-Serif" font-size="10.00" fill="#000000">BMI055_gyro::Run</text>
</a>
</g>
</g>
<!-- Node16&#45;&gt;Node17 -->
<g id="edge2" class="edge">
<title>Node16&#45;&gt;Node17</title>
<path fill="none" stroke="#191970" d="M271.4186,-15.5C279.9955,-15.5 288.6213,-15.5 296.8084,-15.5"/>
<polygon fill="#191970" stroke="#191970" points="271.4017,-12.0001 261.4017,-15.5 271.4017,-19.0001 271.4017,-12.0001"/>
</g>
</g>
</svg>
