<?xml version="1.0" encoding="UTF-8" standalone="no"?>
<!DOCTYPE svg PUBLIC "-//W3C//DTD SVG 1.1//EN"
 "http://www.w3.org/Graphics/SVG/1.1/DTD/svg11.dtd">
<!-- Generated by graphviz version 2.38.0 (20140413.2041)
 -->
<!-- Title: src/drivers/stm32/adc/adc.cpp Pages: 1 -->
<svg width="2129pt" height="498pt"
 viewBox="0.00 0.00 2128.50 498.00" xmlns="http://www.w3.org/2000/svg" xmlns:xlink="http://www.w3.org/1999/xlink">
<g id="graph0" class="graph" transform="scale(1 1) rotate(0) translate(4 494)">
<title>src/drivers/stm32/adc/adc.cpp</title>
<polygon fill="white" stroke="none" points="-4,4 -4,-494 2124.5,-494 2124.5,4 -4,4"/>
<!-- Node1 -->
<g id="node1" class="node"><title>Node1</title>
<polygon fill="#bfbfbf" stroke="black" points="1314.5,-459.5 1314.5,-489.5 1425.5,-489.5 1425.5,-459.5 1314.5,-459.5"/>
<text text-anchor="start" x="1322.5" y="-477.5" font-family="Helvetica,sans-Serif" font-size="10.00">src/drivers/stm32/adc</text>
<text text-anchor="middle" x="1370" y="-466.5" font-family="Helvetica,sans-Serif" font-size="10.00">/adc.cpp</text>
</g>
<!-- Node2 -->
<g id="node2" class="node"><title>Node2</title>
<g id="a_node2"><a xlink:href="../../d4/d35/px4__config_8h.html" target="_top" xlink:title="Configuration flags used in code. ">
<polygon fill="white" stroke="black" points="309,-224.5 309,-243.5 381,-243.5 381,-224.5 309,-224.5"/>
<text text-anchor="middle" x="345" y="-231.5" font-family="Helvetica,sans-Serif" font-size="10.00">px4_config.h</text>
</a>
</g>
</g>
<!-- Node1&#45;&gt;Node2 -->
<g id="edge1" class="edge"><title>Node1&#45;&gt;Node2</title>
<path fill="none" stroke="midnightblue" d="M1314.47,-472.595C1133.29,-469.328 566.756,-456.512 492,-423 427.763,-394.203 420.24,-368.761 380,-311 367.451,-292.987 357.521,-269.756 351.491,-253.745"/>
<polygon fill="midnightblue" stroke="midnightblue" points="354.647,-252.181 347.955,-243.967 348.064,-254.561 354.647,-252.181"/>
</g>
<!-- Node3 -->
<g id="node3" class="node"><title>Node3</title>
<polygon fill="white" stroke="#bfbfbf" points="1673,-403.5 1673,-422.5 1753,-422.5 1753,-403.5 1673,-403.5"/>
<text text-anchor="middle" x="1713" y="-410.5" font-family="Helvetica,sans-Serif" font-size="10.00">board_config.h</text>
</g>
<!-- Node1&#45;&gt;Node3 -->
<g id="edge2" class="edge"><title>Node1&#45;&gt;Node3</title>
<path fill="none" stroke="midnightblue" d="M1425.87,-463.808C1491.6,-452.407 1599.73,-433.649 1662.86,-422.698"/>
<polygon fill="midnightblue" stroke="midnightblue" points="1663.72,-426.102 1672.97,-420.944 1662.52,-419.205 1663.72,-426.102"/>
</g>
<!-- Node4 -->
<g id="node4" class="node"><title>Node4</title>
<g id="a_node4"><a xlink:href="../../db/de9/device_8h.html" target="_top" xlink:title="drivers/device/device.h">
<polygon fill="white" stroke="black" points="501.5,-403.5 501.5,-422.5 618.5,-422.5 618.5,-403.5 501.5,-403.5"/>
<text text-anchor="middle" x="560" y="-410.5" font-family="Helvetica,sans-Serif" font-size="10.00">drivers/device/device.h</text>
</a>
</g>
</g>
<!-- Node1&#45;&gt;Node4 -->
<g id="edge3" class="edge"><title>Node1&#45;&gt;Node4</title>
<path fill="none" stroke="midnightblue" d="M1314.26,-469.64C1195.82,-461.401 910.293,-441.345 671,-423 657.349,-421.953 642.757,-420.797 628.789,-419.672"/>
<polygon fill="midnightblue" stroke="midnightblue" points="629.001,-416.178 618.751,-418.86 628.436,-423.155 629.001,-416.178"/>
</g>
<!-- Node10 -->
<g id="node10" class="node"><title>Node10</title>
<polygon fill="white" stroke="#bfbfbf" points="381.5,-0.5 381.5,-19.5 430.5,-19.5 430.5,-0.5 381.5,-0.5"/>
<text text-anchor="middle" x="406" y="-7.5" font-family="Helvetica,sans-Serif" font-size="10.00">stdint.h</text>
</g>
<!-- Node1&#45;&gt;Node10 -->
<g id="edge45" class="edge"><title>Node1&#45;&gt;Node10</title>
<path fill="none" stroke="midnightblue" d="M1314.38,-472.552C1117.91,-468.96 457.167,-454.753 248,-423 135.345,-405.898 0,-471.945 0,-358 0,-358 0,-358 0,-121 0,-44.3748 272.822,-19.458 371.179,-12.9648"/>
<polygon fill="midnightblue" stroke="midnightblue" points="371.456,-16.4543 381.214,-12.3268 371.012,-9.46843 371.456,-16.4543"/>
</g>
<!-- Node12 -->
<g id="node12" class="node"><title>Node12</title>
<polygon fill="white" stroke="#bfbfbf" points="1638,-0.5 1638,-19.5 1684,-19.5 1684,-0.5 1638,-0.5"/>
<text text-anchor="middle" x="1661" y="-7.5" font-family="Helvetica,sans-Serif" font-size="10.00">stdio.h</text>
</g>
<!-- Node1&#45;&gt;Node12 -->
<g id="edge51" class="edge"><title>Node1&#45;&gt;Node12</title>
<path fill="none" stroke="midnightblue" d="M1425.66,-471.647C1476.9,-467.758 1553.45,-456.275 1611,-423 1666.44,-390.943 1680,-360.542 1680,-296.5 1680,-296.5 1680,-296.5 1680,-121 1680,-88.4885 1671.84,-51.3503 1666.22,-29.6103"/>
<polygon fill="midnightblue" stroke="midnightblue" points="1669.54,-28.498 1663.56,-19.7514 1662.78,-30.3175 1669.54,-28.498"/>
</g>
<!-- Node15 -->
<g id="node15" class="node"><title>Node15</title>
<polygon fill="white" stroke="#bfbfbf" points="1329,-112.5 1329,-131.5 1385,-131.5 1385,-112.5 1329,-112.5"/>
<text text-anchor="middle" x="1357" y="-119.5" font-family="Helvetica,sans-Serif" font-size="10.00">stdbool.h</text>
</g>
<!-- Node1&#45;&gt;Node15 -->
<g id="edge46" class="edge"><title>Node1&#45;&gt;Node15</title>
<path fill="none" stroke="midnightblue" d="M1374.13,-459.407C1377.04,-449.309 1380.94,-435.365 1384,-423 1405.64,-335.51 1425.41,-314.095 1423,-224 1422.33,-199.084 1431.99,-189.849 1420,-168 1412.51,-154.347 1398.89,-143.834 1386.23,-136.416"/>
<polygon fill="midnightblue" stroke="midnightblue" points="1387.74,-133.253 1377.28,-131.561 1384.4,-139.406 1387.74,-133.253"/>
</g>
<!-- Node16 -->
<g id="node16" class="node"><title>Node16</title>
<polygon fill="white" stroke="#bfbfbf" points="864.5,-168.5 864.5,-187.5 915.5,-187.5 915.5,-168.5 864.5,-168.5"/>
<text text-anchor="middle" x="890" y="-175.5" font-family="Helvetica,sans-Serif" font-size="10.00">unistd.h</text>
</g>
<!-- Node1&#45;&gt;Node16 -->
<g id="edge52" class="edge"><title>Node1&#45;&gt;Node16</title>
<path fill="none" stroke="midnightblue" d="M1314.36,-471.151C1218.62,-466.35 1027.31,-453.206 968,-423 932.697,-405.02 907,-397.618 907,-358 907,-358 907,-358 907,-294.5 907,-259.996 899.482,-220.306 894.445,-197.585"/>
<polygon fill="midnightblue" stroke="midnightblue" points="897.808,-196.589 892.153,-187.629 890.986,-198.16 897.808,-196.589"/>
</g>
<!-- Node17 -->
<g id="node17" class="node"><title>Node17</title>
<polygon fill="white" stroke="#bfbfbf" points="934,-168.5 934,-187.5 978,-187.5 978,-168.5 934,-168.5"/>
<text text-anchor="middle" x="956" y="-175.5" font-family="Helvetica,sans-Serif" font-size="10.00">fcntl.h</text>
</g>
<!-- Node1&#45;&gt;Node17 -->
<g id="edge49" class="edge"><title>Node1&#45;&gt;Node17</title>
<path fill="none" stroke="midnightblue" d="M1314.39,-472.513C1221.98,-469.837 1042.02,-459.898 992,-423 966.396,-404.111 962,-389.817 962,-358 962,-358 962,-358 962,-294.5 962,-260.318 959.347,-220.521 957.569,-197.694"/>
<polygon fill="midnightblue" stroke="midnightblue" points="961.054,-197.371 956.76,-187.685 954.077,-197.935 961.054,-197.371"/>
</g>
<!-- Node19 -->
<g id="node19" class="node"><title>Node19</title>
<polygon fill="white" stroke="#bfbfbf" points="974,-112.5 974,-131.5 1042,-131.5 1042,-112.5 974,-112.5"/>
<text text-anchor="middle" x="1008" y="-119.5" font-family="Helvetica,sans-Serif" font-size="10.00">sys/types.h</text>
</g>
<!-- Node1&#45;&gt;Node19 -->
<g id="edge44" class="edge"><title>Node1&#45;&gt;Node19</title>
<path fill="none" stroke="midnightblue" d="M1314.32,-467.534C1212.35,-455.051 1006,-421.896 1006,-358 1006,-358 1006,-358 1006,-233 1006,-200.943 1006.86,-163.639 1007.45,-141.747"/>
<polygon fill="midnightblue" stroke="midnightblue" points="1010.96,-141.651 1007.74,-131.557 1003.96,-141.454 1010.96,-141.651"/>
</g>
<!-- Node30 -->
<g id="node30" class="node"><title>Node30</title>
<polygon fill="white" stroke="#bfbfbf" points="1461,-347.5 1461,-366.5 1509,-366.5 1509,-347.5 1461,-347.5"/>
<text text-anchor="middle" x="1485" y="-354.5" font-family="Helvetica,sans-Serif" font-size="10.00">stdlib.h</text>
</g>
<!-- Node1&#45;&gt;Node30 -->
<g id="edge47" class="edge"><title>Node1&#45;&gt;Node30</title>
<path fill="none" stroke="midnightblue" d="M1396.71,-459.332C1412.04,-450.318 1430.98,-437.609 1445,-423 1458.44,-409 1469.59,-389.745 1476.68,-375.83"/>
<polygon fill="midnightblue" stroke="midnightblue" points="1479.85,-377.314 1481.09,-366.793 1473.56,-374.242 1479.85,-377.314"/>
</g>
<!-- Node31 -->
<g id="node31" class="node"><title>Node31</title>
<polygon fill="white" stroke="#bfbfbf" points="1771.5,-403.5 1771.5,-422.5 1820.5,-422.5 1820.5,-403.5 1771.5,-403.5"/>
<text text-anchor="middle" x="1796" y="-410.5" font-family="Helvetica,sans-Serif" font-size="10.00">string.h</text>
</g>
<!-- Node1&#45;&gt;Node31 -->
<g id="edge48" class="edge"><title>Node1&#45;&gt;Node31</title>
<path fill="none" stroke="midnightblue" d="M1425.55,-468.65C1499.83,-461.655 1635.74,-447.078 1761.05,-422.946"/>
<polygon fill="midnightblue" stroke="midnightblue" points="1762.06,-426.314 1771.2,-420.964 1760.72,-419.444 1762.06,-426.314"/>
</g>
<!-- Node32 -->
<g id="node32" class="node"><title>Node32</title>
<polygon fill="white" stroke="#bfbfbf" points="1604.5,-347.5 1604.5,-366.5 1651.5,-366.5 1651.5,-347.5 1604.5,-347.5"/>
<text text-anchor="middle" x="1628" y="-354.5" font-family="Helvetica,sans-Serif" font-size="10.00">errno.h</text>
</g>
<!-- Node1&#45;&gt;Node32 -->
<g id="edge50" class="edge"><title>Node1&#45;&gt;Node32</title>
<path fill="none" stroke="midnightblue" d="M1425.9,-472.266C1473.08,-468.663 1540.37,-457.247 1588,-423 1604.1,-411.422 1615.05,-391.164 1621.36,-376.333"/>
<polygon fill="midnightblue" stroke="midnightblue" points="1624.75,-377.282 1625.15,-366.695 1618.24,-374.722 1624.75,-377.282"/>
</g>
<!-- Node33 -->
<g id="node33" class="node"><title>Node33</title>
<polygon fill="white" stroke="#bfbfbf" points="1838,-403.5 1838,-422.5 1936,-422.5 1936,-403.5 1838,-403.5"/>
<text text-anchor="middle" x="1887" y="-410.5" font-family="Helvetica,sans-Serif" font-size="10.00">arch/board/board.h</text>
</g>
<!-- Node1&#45;&gt;Node33 -->
<g id="edge53" class="edge"><title>Node1&#45;&gt;Node33</title>
<path fill="none" stroke="midnightblue" d="M1425.69,-468.244C1510.44,-460.055 1677.11,-443.21 1827.98,-423.225"/>
<polygon fill="midnightblue" stroke="midnightblue" points="1828.45,-426.694 1837.9,-421.904 1827.52,-419.756 1828.45,-426.694"/>
</g>
<!-- Node34 -->
<g id="node34" class="node"><title>Node34</title>
<g id="a_node34"><a xlink:href="../../d6/d10/drv__hrt_8h.html" target="_top" xlink:title="High&#45;resolution timer with callouts and timekeeping. ">
<polygon fill="white" stroke="black" points="1326.5,-224.5 1326.5,-243.5 1413.5,-243.5 1413.5,-224.5 1326.5,-224.5"/>
<text text-anchor="middle" x="1370" y="-231.5" font-family="Helvetica,sans-Serif" font-size="10.00">drivers/drv_hrt.h</text>
</a>
</g>
</g>
<!-- Node1&#45;&gt;Node34 -->
<g id="edge54" class="edge"><title>Node1&#45;&gt;Node34</title>
<path fill="none" stroke="midnightblue" d="M1370,-459.295C1370,-418.433 1370,-300.551 1370,-254.12"/>
<polygon fill="midnightblue" stroke="midnightblue" points="1373.5,-253.946 1370,-243.946 1366.5,-253.946 1373.5,-253.946"/>
</g>
<!-- Node38 -->
<g id="node38" class="node"><title>Node38</title>
<g id="a_node38"><a xlink:href="../../d6/dc8/drv__adc_8h.html" target="_top" xlink:title="ADC driver interface. ">
<polygon fill="white" stroke="black" points="28,-168.5 28,-187.5 120,-187.5 120,-168.5 28,-168.5"/>
<text text-anchor="middle" x="74" y="-175.5" font-family="Helvetica,sans-Serif" font-size="10.00">drivers/drv_adc.h</text>
</a>
</g>
</g>
<!-- Node1&#45;&gt;Node38 -->
<g id="edge62" class="edge"><title>Node1&#45;&gt;Node38</title>
<path fill="none" stroke="midnightblue" d="M1314.18,-473.978C1079.89,-475.263 188,-472.626 188,-358 188,-358 188,-358 188,-294.5 188,-245.698 135.809,-210.059 102.054,-192.113"/>
<polygon fill="midnightblue" stroke="midnightblue" points="103.578,-188.961 93.081,-187.524 100.391,-195.193 103.578,-188.961"/>
</g>
<!-- Node39 -->
<g id="node39" class="node"><title>Node39</title>
<polygon fill="white" stroke="#bfbfbf" points="1954.5,-403.5 1954.5,-422.5 2027.5,-422.5 2027.5,-403.5 1954.5,-403.5"/>
<text text-anchor="middle" x="1991" y="-410.5" font-family="Helvetica,sans-Serif" font-size="10.00">stm32_adc.h</text>
</g>
<!-- Node1&#45;&gt;Node39 -->
<g id="edge65" class="edge"><title>Node1&#45;&gt;Node39</title>
<path fill="none" stroke="midnightblue" d="M1425.73,-470.567C1526.97,-464.811 1747.98,-450.279 1944.47,-422.919"/>
<polygon fill="midnightblue" stroke="midnightblue" points="1944.99,-426.381 1954.4,-421.523 1944.01,-419.45 1944.99,-426.381"/>
</g>
<!-- Node40 -->
<g id="node40" class="node"><title>Node40</title>
<polygon fill="white" stroke="#bfbfbf" points="2045.5,-403.5 2045.5,-422.5 2120.5,-422.5 2120.5,-403.5 2045.5,-403.5"/>
<text text-anchor="middle" x="2083" y="-410.5" font-family="Helvetica,sans-Serif" font-size="10.00">stm32_gpio.h</text>
</g>
<!-- Node1&#45;&gt;Node40 -->
<g id="edge66" class="edge"><title>Node1&#45;&gt;Node40</title>
<path fill="none" stroke="midnightblue" d="M1425.57,-471.504C1538.66,-466.963 1803.79,-453.875 2035.44,-423.068"/>
<polygon fill="midnightblue" stroke="midnightblue" points="2035.96,-426.53 2045.4,-421.73 2035.03,-419.593 2035.96,-426.53"/>
</g>
<!-- Node41 -->
<g id="node41" class="node"><title>Node41</title>
<g id="a_node41"><a xlink:href="../../d6/d40/err_8h.html" target="_top" xlink:title="Simple error/warning functions, heavily inspired by the BSD functions of the same names...">
<polygon fill="white" stroke="black" points="1497.5,-403.5 1497.5,-422.5 1578.5,-422.5 1578.5,-403.5 1497.5,-403.5"/>
<text text-anchor="middle" x="1538" y="-410.5" font-family="Helvetica,sans-Serif" font-size="10.00">systemlib/err.h</text>
</a>
</g>
</g>
<!-- Node1&#45;&gt;Node41 -->
<g id="edge67" class="edge"><title>Node1&#45;&gt;Node41</title>
<path fill="none" stroke="midnightblue" d="M1409.81,-459.399C1438.5,-449.238 1476.81,-435.672 1504.06,-426.022"/>
<polygon fill="midnightblue" stroke="midnightblue" points="1505.3,-429.296 1513.55,-422.658 1502.96,-422.697 1505.3,-429.296"/>
</g>
<!-- Node42 -->
<g id="node42" class="node"><title>Node42</title>
<g id="a_node42"><a xlink:href="../../db/d79/perf__counter_8h.html" target="_top" xlink:title="Performance measuring tools. ">
<polygon fill="white" stroke="black" points="614,-168.5 614,-187.5 712,-187.5 712,-168.5 614,-168.5"/>
<text text-anchor="middle" x="663" y="-175.5" font-family="Helvetica,sans-Serif" font-size="10.00">perf/perf_counter.h</text>
</a>
</g>
</g>
<!-- Node1&#45;&gt;Node42 -->
<g id="edge72" class="edge"><title>Node1&#45;&gt;Node42</title>
<path fill="none" stroke="midnightblue" d="M1314.23,-469.965C1150.9,-458.873 685,-421.655 685,-358 685,-358 685,-358 685,-294.5 685,-259.591 675.182,-219.779 668.664,-197.193"/>
<polygon fill="midnightblue" stroke="midnightblue" points="672.008,-196.162 665.786,-187.587 665.303,-198.17 672.008,-196.162"/>
</g>
<!-- Node43 -->
<g id="node43" class="node"><title>Node43</title>
<g id="a_node43"><a xlink:href="../../d6/d0c/system__power_8h.html" target="_top" xlink:title="uORB/topics/system\l_power.h">
<polygon fill="white" stroke="black" points="1046,-280.5 1046,-310.5 1154,-310.5 1154,-280.5 1046,-280.5"/>
<text text-anchor="start" x="1054" y="-298.5" font-family="Helvetica,sans-Serif" font-size="10.00">uORB/topics/system</text>
<text text-anchor="middle" x="1100" y="-287.5" font-family="Helvetica,sans-Serif" font-size="10.00">_power.h</text>
</a>
</g>
</g>
<!-- Node1&#45;&gt;Node43 -->
<g id="edge75" class="edge"><title>Node1&#45;&gt;Node43</title>
<path fill="none" stroke="midnightblue" d="M1340,-459.349C1301.32,-440.539 1232.66,-405.2 1179,-367 1158.21,-352.203 1136.74,-332.726 1121.44,-317.994"/>
<polygon fill="midnightblue" stroke="midnightblue" points="1123.64,-315.25 1114.04,-310.773 1118.75,-320.261 1123.64,-315.25"/>
</g>
<!-- Node45 -->
<g id="node45" class="node"><title>Node45</title>
<g id="a_node45"><a xlink:href="../../d8/d9e/adc__report_8h.html" target="_top" xlink:title="uORB/topics/adc_report.h">
<polygon fill="white" stroke="black" points="1188,-347.5 1188,-366.5 1318,-366.5 1318,-347.5 1188,-347.5"/>
<text text-anchor="middle" x="1253" y="-354.5" font-family="Helvetica,sans-Serif" font-size="10.00">uORB/topics/adc_report.h</text>
</a>
</g>
</g>
<!-- Node1&#45;&gt;Node45 -->
<g id="edge80" class="edge"><title>Node1&#45;&gt;Node45</title>
<path fill="none" stroke="midnightblue" d="M1355.65,-459.337C1333.71,-437.676 1291.95,-396.453 1269.04,-373.832"/>
<polygon fill="midnightblue" stroke="midnightblue" points="1271.36,-371.204 1261.78,-366.669 1266.44,-376.186 1271.36,-371.204"/>
</g>
<!-- Node5 -->
<g id="node5" class="node"><title>Node5</title>
<g id="a_node5"><a xlink:href="../../d7/dfb/_device_8hpp.html" target="_top" xlink:title="Definitions for the generic base classes in the device framework. ">
<polygon fill="white" stroke="black" points="428,-286 428,-305 494,-305 494,-286 428,-286"/>
<text text-anchor="middle" x="461" y="-293" font-family="Helvetica,sans-Serif" font-size="10.00">Device.hpp</text>
</a>
</g>
</g>
<!-- Node4&#45;&gt;Node5 -->
<g id="edge4" class="edge"><title>Node4&#45;&gt;Node5</title>
<path fill="none" stroke="midnightblue" d="M552.255,-403.44C544.14,-394.437 531.06,-379.823 520,-367 504.289,-348.785 486.627,-327.581 474.757,-313.222"/>
<polygon fill="midnightblue" stroke="midnightblue" points="477.247,-310.74 468.184,-305.253 471.847,-315.194 477.247,-310.74"/>
</g>
<!-- Node27 -->
<g id="node27" class="node"><title>Node27</title>
<g id="a_node27"><a xlink:href="../../d3/da5/_c_dev_8hpp.html" target="_top" xlink:title="Definitions for the generic base classes in the device framework. ">
<polygon fill="white" stroke="black" points="529.5,-347.5 529.5,-366.5 590.5,-366.5 590.5,-347.5 529.5,-347.5"/>
<text text-anchor="middle" x="560" y="-354.5" font-family="Helvetica,sans-Serif" font-size="10.00">CDev.hpp</text>
</a>
</g>
</g>
<!-- Node4&#45;&gt;Node27 -->
<g id="edge38" class="edge"><title>Node4&#45;&gt;Node27</title>
<path fill="none" stroke="midnightblue" d="M560,-403.083C560,-396.006 560,-385.861 560,-376.986"/>
<polygon fill="midnightblue" stroke="midnightblue" points="563.5,-376.751 560,-366.751 556.5,-376.751 563.5,-376.751"/>
</g>
<!-- Node5&#45;&gt;Node2 -->
<g id="edge5" class="edge"><title>Node5&#45;&gt;Node2</title>
<path fill="none" stroke="midnightblue" d="M444.38,-285.975C425.085,-276.078 393.041,-259.642 370.569,-248.115"/>
<polygon fill="midnightblue" stroke="midnightblue" points="372.084,-244.959 361.589,-243.509 368.89,-251.187 372.084,-244.959"/>
</g>
<!-- Node6 -->
<g id="node6" class="node"><title>Node6</title>
<g id="a_node6"><a xlink:href="../../d2/de9/px4__posix_8h.html" target="_top" xlink:title="Includes POSIX&#45;like functions for virtual character devices. ">
<polygon fill="white" stroke="black" points="758.5,-224.5 758.5,-243.5 827.5,-243.5 827.5,-224.5 758.5,-224.5"/>
<text text-anchor="middle" x="793" y="-231.5" font-family="Helvetica,sans-Serif" font-size="10.00">px4_posix.h</text>
</a>
</g>
</g>
<!-- Node5&#45;&gt;Node6 -->
<g id="edge6" class="edge"><title>Node5&#45;&gt;Node6</title>
<path fill="none" stroke="midnightblue" d="M483.447,-285.923C489.709,-283.758 496.561,-281.597 503,-280 588.425,-258.806 690.613,-245.725 748.042,-239.458"/>
<polygon fill="midnightblue" stroke="midnightblue" points="748.66,-242.912 758.23,-238.366 747.914,-235.952 748.66,-242.912"/>
</g>
<!-- Node22 -->
<g id="node22" class="node"><title>Node22</title>
<g id="a_node22"><a xlink:href="../../d3/dc5/drv__device_8h.html" target="_top" xlink:title="Generic device / sensor interface. ">
<polygon fill="white" stroke="black" points="399,-224.5 399,-243.5 503,-243.5 503,-224.5 399,-224.5"/>
<text text-anchor="middle" x="451" y="-231.5" font-family="Helvetica,sans-Serif" font-size="10.00">drivers/drv_device.h</text>
</a>
</g>
</g>
<!-- Node5&#45;&gt;Node22 -->
<g id="edge24" class="edge"><title>Node5&#45;&gt;Node22</title>
<path fill="none" stroke="midnightblue" d="M459.567,-285.975C458.156,-277.58 455.955,-264.481 454.137,-253.663"/>
<polygon fill="midnightblue" stroke="midnightblue" points="457.539,-252.791 452.43,-243.509 450.636,-253.951 457.539,-252.791"/>
</g>
<!-- Node7 -->
<g id="node7" class="node"><title>Node7</title>
<g id="a_node7"><a xlink:href="../../df/dd0/px4__defines_8h.html" target="_top" xlink:title="Generally used magic defines. ">
<polygon fill="white" stroke="black" points="716.5,-112.5 716.5,-131.5 793.5,-131.5 793.5,-112.5 716.5,-112.5"/>
<text text-anchor="middle" x="755" y="-119.5" font-family="Helvetica,sans-Serif" font-size="10.00">px4_defines.h</text>
</a>
</g>
</g>
<!-- Node6&#45;&gt;Node7 -->
<g id="edge7" class="edge"><title>Node6&#45;&gt;Node7</title>
<path fill="none" stroke="midnightblue" d="M791.92,-224.374C790.164,-211.72 786.145,-187.511 779,-168 775.537,-158.543 770.413,-148.605 765.787,-140.482"/>
<polygon fill="midnightblue" stroke="midnightblue" points="768.648,-138.444 760.539,-131.626 762.627,-142.013 768.648,-138.444"/>
</g>
<!-- Node6&#45;&gt;Node10 -->
<g id="edge17" class="edge"><title>Node6&#45;&gt;Node10</title>
<path fill="none" stroke="midnightblue" d="M758.399,-231.187C671.29,-226.29 448.209,-211.554 425,-188 382.917,-145.292 393.705,-65.6629 401.399,-29.5998"/>
<polygon fill="midnightblue" stroke="midnightblue" points="404.886,-30.054 403.717,-19.5238 398.064,-28.4845 404.886,-30.054"/>
</g>
<!-- Node14 -->
<g id="node14" class="node"><title>Node14</title>
<g id="a_node14"><a xlink:href="../../da/d65/px4__tasks_8h.html" target="_top" xlink:title="px4_tasks.h">
<polygon fill="white" stroke="black" points="1256,-168.5 1256,-187.5 1326,-187.5 1326,-168.5 1256,-168.5"/>
<text text-anchor="middle" x="1291" y="-175.5" font-family="Helvetica,sans-Serif" font-size="10.00">px4_tasks.h</text>
</a>
</g>
</g>
<!-- Node6&#45;&gt;Node14 -->
<g id="edge15" class="edge"><title>Node6&#45;&gt;Node14</title>
<path fill="none" stroke="midnightblue" d="M827.524,-230.735C901.913,-225.605 1083.01,-211.777 1245.5,-187.916"/>
<polygon fill="midnightblue" stroke="midnightblue" points="1246.31,-191.336 1255.68,-186.404 1245.28,-184.412 1246.31,-191.336"/>
</g>
<!-- Node6&#45;&gt;Node16 -->
<g id="edge18" class="edge"><title>Node6&#45;&gt;Node16</title>
<path fill="none" stroke="midnightblue" d="M808.585,-224.324C823.999,-215.743 847.812,-202.486 865.71,-192.522"/>
<polygon fill="midnightblue" stroke="midnightblue" points="867.419,-195.577 874.454,-187.655 864.014,-189.461 867.419,-195.577"/>
</g>
<!-- Node6&#45;&gt;Node17 -->
<g id="edge19" class="edge"><title>Node6&#45;&gt;Node17</title>
<path fill="none" stroke="midnightblue" d="M818.828,-224.444C847.378,-214.985 893.389,-199.742 924.152,-189.551"/>
<polygon fill="midnightblue" stroke="midnightblue" points="925.56,-192.771 933.952,-186.304 923.359,-186.127 925.56,-192.771"/>
</g>
<!-- Node18 -->
<g id="node18" class="node"><title>Node18</title>
<polygon fill="white" stroke="#bfbfbf" points="730,-168.5 730,-187.5 770,-187.5 770,-168.5 730,-168.5"/>
<text text-anchor="middle" x="750" y="-175.5" font-family="Helvetica,sans-Serif" font-size="10.00">poll.h</text>
</g>
<!-- Node6&#45;&gt;Node18 -->
<g id="edge20" class="edge"><title>Node6&#45;&gt;Node18</title>
<path fill="none" stroke="midnightblue" d="M785.899,-224.083C779.763,-216.377 770.73,-205.033 763.261,-195.653"/>
<polygon fill="midnightblue" stroke="midnightblue" points="765.936,-193.394 756.968,-187.751 760.46,-197.754 765.936,-193.394"/>
</g>
<!-- Node6&#45;&gt;Node19 -->
<g id="edge21" class="edge"><title>Node6&#45;&gt;Node19</title>
<path fill="none" stroke="midnightblue" d="M798.817,-224.465C808.727,-210.571 830.234,-183.1 855,-168 888.49,-147.58 931.769,-135.98 963.746,-129.691"/>
<polygon fill="midnightblue" stroke="midnightblue" points="964.517,-133.108 973.705,-127.832 963.232,-126.227 964.517,-133.108"/>
</g>
<!-- Node20 -->
<g id="node20" class="node"><title>Node20</title>
<g id="a_node20"><a xlink:href="../../d4/d7f/px4__sem_8h.html" target="_top" xlink:title="Synchronization primitive: Semaphore. ">
<polygon fill="white" stroke="black" points="530.5,-168.5 530.5,-187.5 595.5,-187.5 595.5,-168.5 530.5,-168.5"/>
<text text-anchor="middle" x="563" y="-175.5" font-family="Helvetica,sans-Serif" font-size="10.00">px4_sem.h</text>
</a>
</g>
</g>
<!-- Node6&#45;&gt;Node20 -->
<g id="edge22" class="edge"><title>Node6&#45;&gt;Node20</title>
<path fill="none" stroke="midnightblue" d="M758.068,-224.799C717.146,-215.191 649.372,-199.279 605.455,-188.968"/>
<polygon fill="midnightblue" stroke="midnightblue" points="606.185,-185.544 595.65,-186.666 604.585,-192.359 606.185,-185.544"/>
</g>
<!-- Node8 -->
<g id="node8" class="node"><title>Node8</title>
<g id="a_node8"><a xlink:href="../../d7/d53/px4__log_8h.html" target="_top" xlink:title="Platform dependant logging/debug implementation. ">
<polygon fill="white" stroke="black" points="1400.5,-56.5 1400.5,-75.5 1459.5,-75.5 1459.5,-56.5 1400.5,-56.5"/>
<text text-anchor="middle" x="1430" y="-63.5" font-family="Helvetica,sans-Serif" font-size="10.00">px4_log.h</text>
</a>
</g>
</g>
<!-- Node7&#45;&gt;Node8 -->
<g id="edge8" class="edge"><title>Node7&#45;&gt;Node8</title>
<path fill="none" stroke="midnightblue" d="M793.738,-117.622C912.45,-107.771 1269.79,-79.1897 1390.08,-69.9316"/>
<polygon fill="midnightblue" stroke="midnightblue" points="1390.61,-73.4015 1400.31,-69.1472 1390.07,-66.422 1390.61,-73.4015"/>
</g>
<!-- Node8&#45;&gt;Node7 -->
<g id="edge14" class="edge"><title>Node8&#45;&gt;Node7</title>
<path fill="none" stroke="midnightblue" d="M1400.14,-69.6393C1294.01,-78.503 935.236,-107.217 803.739,-117.388"/>
<polygon fill="midnightblue" stroke="midnightblue" points="803.267,-113.914 793.565,-118.173 803.805,-120.893 803.267,-113.914"/>
</g>
<!-- Node9 -->
<g id="node9" class="node"><title>Node9</title>
<polygon fill="white" stroke="#bfbfbf" points="1470.5,-0.5 1470.5,-19.5 1529.5,-19.5 1529.5,-0.5 1470.5,-0.5"/>
<text text-anchor="middle" x="1500" y="-7.5" font-family="Helvetica,sans-Serif" font-size="10.00">inttypes.h</text>
</g>
<!-- Node8&#45;&gt;Node9 -->
<g id="edge9" class="edge"><title>Node8&#45;&gt;Node9</title>
<path fill="none" stroke="midnightblue" d="M1441.25,-56.324C1451.8,-48.1849 1467.8,-35.8395 1480.44,-26.0874"/>
<polygon fill="midnightblue" stroke="midnightblue" points="1482.77,-28.7132 1488.55,-19.8339 1478.49,-23.1707 1482.77,-28.7132"/>
</g>
<!-- Node8&#45;&gt;Node10 -->
<g id="edge10" class="edge"><title>Node8&#45;&gt;Node10</title>
<path fill="none" stroke="midnightblue" d="M1400.46,-63.4421C1253.32,-55.6831 600.341,-21.2484 441.106,-12.8513"/>
<polygon fill="midnightblue" stroke="midnightblue" points="441.094,-9.34589 430.924,-12.3143 440.725,-16.3362 441.094,-9.34589"/>
</g>
<!-- Node11 -->
<g id="node11" class="node"><title>Node11</title>
<polygon fill="white" stroke="#bfbfbf" points="1384,-0.5 1384,-19.5 1452,-19.5 1452,-0.5 1384,-0.5"/>
<text text-anchor="middle" x="1418" y="-7.5" font-family="Helvetica,sans-Serif" font-size="10.00">sys/cdefs.h</text>
</g>
<!-- Node8&#45;&gt;Node11 -->
<g id="edge11" class="edge"><title>Node8&#45;&gt;Node11</title>
<path fill="none" stroke="midnightblue" d="M1428.02,-56.083C1426.43,-48.9272 1424.14,-38.6353 1422.15,-29.6911"/>
<polygon fill="midnightblue" stroke="midnightblue" points="1425.53,-28.7537 1419.94,-19.7511 1418.7,-30.2722 1425.53,-28.7537"/>
</g>
<!-- Node8&#45;&gt;Node12 -->
<g id="edge12" class="edge"><title>Node8&#45;&gt;Node12</title>
<path fill="none" stroke="midnightblue" d="M1459.73,-58.051C1503.02,-47.9295 1583.16,-29.1957 1628.16,-18.678"/>
<polygon fill="midnightblue" stroke="midnightblue" points="1629.05,-22.0622 1638,-16.3777 1627.46,-15.2459 1629.05,-22.0622"/>
</g>
<!-- Node13 -->
<g id="node13" class="node"><title>Node13</title>
<polygon fill="white" stroke="#bfbfbf" points="1549,-0.5 1549,-19.5 1601,-19.5 1601,-0.5 1549,-0.5"/>
<text text-anchor="middle" x="1575" y="-7.5" font-family="Helvetica,sans-Serif" font-size="10.00">stdarg.h</text>
</g>
<!-- Node8&#45;&gt;Node13 -->
<g id="edge13" class="edge"><title>Node8&#45;&gt;Node13</title>
<path fill="none" stroke="midnightblue" d="M1452.98,-56.4435C1477.16,-47.4381 1515.42,-33.1891 1542.65,-23.049"/>
<polygon fill="midnightblue" stroke="midnightblue" points="1543.98,-26.2864 1552.13,-19.5164 1541.54,-19.7265 1543.98,-26.2864"/>
</g>
<!-- Node14&#45;&gt;Node15 -->
<g id="edge16" class="edge"><title>Node14&#45;&gt;Node15</title>
<path fill="none" stroke="midnightblue" d="M1301.6,-168.324C1311.46,-160.263 1326.35,-148.077 1338.22,-138.369"/>
<polygon fill="midnightblue" stroke="midnightblue" points="1340.68,-140.875 1346.2,-131.834 1336.25,-135.457 1340.68,-140.875"/>
</g>
<!-- Node21 -->
<g id="node21" class="node"><title>Node21</title>
<polygon fill="white" stroke="#bfbfbf" points="526.5,-112.5 526.5,-131.5 599.5,-131.5 599.5,-112.5 526.5,-112.5"/>
<text text-anchor="middle" x="563" y="-119.5" font-family="Helvetica,sans-Serif" font-size="10.00">semaphore.h</text>
</g>
<!-- Node20&#45;&gt;Node21 -->
<g id="edge23" class="edge"><title>Node20&#45;&gt;Node21</title>
<path fill="none" stroke="midnightblue" d="M563,-168.083C563,-161.006 563,-150.861 563,-141.986"/>
<polygon fill="midnightblue" stroke="midnightblue" points="566.5,-141.751 563,-131.751 559.5,-141.751 566.5,-141.751"/>
</g>
<!-- Node22&#45;&gt;Node10 -->
<g id="edge25" class="edge"><title>Node22&#45;&gt;Node10</title>
<path fill="none" stroke="midnightblue" d="M432.016,-224.398C418.114,-216.954 400.286,-204.741 392,-188 365.842,-135.152 386.595,-62.4509 398.756,-29.0772"/>
<polygon fill="midnightblue" stroke="midnightblue" points="402.04,-30.2892 402.332,-19.6984 395.499,-27.7952 402.04,-30.2892"/>
</g>
<!-- Node23 -->
<g id="node23" class="node"><title>Node23</title>
<polygon fill="white" stroke="#bfbfbf" points="193,-112.5 193,-131.5 255,-131.5 255,-112.5 193,-112.5"/>
<text text-anchor="middle" x="224" y="-119.5" font-family="Helvetica,sans-Serif" font-size="10.00">sys/ioctl.h</text>
</g>
<!-- Node22&#45;&gt;Node23 -->
<g id="edge26" class="edge"><title>Node22&#45;&gt;Node23</title>
<path fill="none" stroke="midnightblue" d="M398.675,-225.142C317.152,-212.84 168.879,-190.201 167,-188 151.733,-170.124 176.484,-149.791 198,-136.699"/>
<polygon fill="midnightblue" stroke="midnightblue" points="199.988,-139.592 206.896,-131.559 196.487,-133.531 199.988,-139.592"/>
</g>
<!-- Node24 -->
<g id="node24" class="node"><title>Node24</title>
<g id="a_node24"><a xlink:href="../../df/dae/drv__sensor_8h.html" target="_top" xlink:title="Common sensor API and ioctl definitions. ">
<polygon fill="white" stroke="black" points="266.5,-168.5 266.5,-187.5 339.5,-187.5 339.5,-168.5 266.5,-168.5"/>
<text text-anchor="middle" x="303" y="-175.5" font-family="Helvetica,sans-Serif" font-size="10.00">drv_sensor.h</text>
</a>
</g>
</g>
<!-- Node22&#45;&gt;Node24 -->
<g id="edge27" class="edge"><title>Node22&#45;&gt;Node24</title>
<path fill="none" stroke="midnightblue" d="M422.46,-224.444C395.92,-215.478 356.881,-201.314 330.639,-191.183"/>
<polygon fill="midnightblue" stroke="midnightblue" points="331.849,-187.898 321.261,-187.516 329.301,-194.417 331.849,-187.898"/>
</g>
<!-- Node25 -->
<g id="node25" class="node"><title>Node25</title>
<g id="a_node25"><a xlink:href="../../d8/d61/drv__orb__dev_8h.html" target="_top" xlink:title="uORB published object driver. ">
<polygon fill="white" stroke="black" points="434,-168.5 434,-187.5 512,-187.5 512,-168.5 434,-168.5"/>
<text text-anchor="middle" x="473" y="-175.5" font-family="Helvetica,sans-Serif" font-size="10.00">drv_orb_dev.h</text>
</a>
</g>
</g>
<!-- Node22&#45;&gt;Node25 -->
<g id="edge32" class="edge"><title>Node22&#45;&gt;Node25</title>
<path fill="none" stroke="midnightblue" d="M454.633,-224.083C457.612,-216.77 461.926,-206.181 465.625,-197.103"/>
<polygon fill="midnightblue" stroke="midnightblue" points="468.903,-198.333 469.435,-187.751 462.42,-195.691 468.903,-198.333"/>
</g>
<!-- Node26 -->
<g id="node26" class="node"><title>Node26</title>
<polygon fill="white" stroke="#bfbfbf" points="176,-168.5 176,-187.5 248,-187.5 248,-168.5 176,-168.5"/>
<text text-anchor="middle" x="212" y="-175.5" font-family="Helvetica,sans-Serif" font-size="10.00">DevIOCTL.h</text>
</g>
<!-- Node22&#45;&gt;Node26 -->
<g id="edge37" class="edge"><title>Node22&#45;&gt;Node26</title>
<path fill="none" stroke="midnightblue" d="M413.13,-224.444C371.035,-214.933 303.053,-199.573 257.949,-189.382"/>
<polygon fill="midnightblue" stroke="midnightblue" points="258.654,-185.953 248.129,-187.163 257.111,-192.781 258.654,-185.953"/>
</g>
<!-- Node24&#45;&gt;Node7 -->
<g id="edge28" class="edge"><title>Node24&#45;&gt;Node7</title>
<path fill="none" stroke="midnightblue" d="M339.606,-172.627C420.655,-162.944 615.268,-139.694 706.393,-128.807"/>
<polygon fill="midnightblue" stroke="midnightblue" points="706.941,-132.267 716.455,-127.605 706.111,-125.316 706.941,-132.267"/>
</g>
<!-- Node24&#45;&gt;Node10 -->
<g id="edge29" class="edge"><title>Node24&#45;&gt;Node10</title>
<path fill="none" stroke="midnightblue" d="M305.156,-168.403C310.671,-147.589 326.805,-93.4432 354,-56 362.441,-44.3781 374.433,-33.7408 384.775,-25.7296"/>
<polygon fill="midnightblue" stroke="midnightblue" points="387.016,-28.425 392.959,-19.654 382.843,-22.8045 387.016,-28.425"/>
</g>
<!-- Node24&#45;&gt;Node22 -->
<g id="edge31" class="edge"><title>Node24&#45;&gt;Node22</title>
<path fill="none" stroke="midnightblue" d="M331.421,-187.516C357.924,-196.467 396.964,-210.629 423.243,-220.772"/>
<polygon fill="midnightblue" stroke="midnightblue" points="422.05,-224.063 432.638,-224.444 424.598,-217.544 422.05,-224.063"/>
</g>
<!-- Node24&#45;&gt;Node23 -->
<g id="edge30" class="edge"><title>Node24&#45;&gt;Node23</title>
<path fill="none" stroke="midnightblue" d="M290.307,-168.324C278.099,-159.979 259.422,-147.212 244.997,-137.352"/>
<polygon fill="midnightblue" stroke="midnightblue" points="246.892,-134.408 236.661,-131.655 242.942,-140.187 246.892,-134.408"/>
</g>
<!-- Node25&#45;&gt;Node7 -->
<g id="edge33" class="edge"><title>Node25&#45;&gt;Node7</title>
<path fill="none" stroke="midnightblue" d="M512.211,-169.492C562.931,-159.779 651.278,-142.862 706.26,-132.333"/>
<polygon fill="midnightblue" stroke="midnightblue" points="706.959,-135.763 716.122,-130.445 705.642,-128.888 706.959,-135.763"/>
</g>
<!-- Node25&#45;&gt;Node10 -->
<g id="edge36" class="edge"><title>Node25&#45;&gt;Node10</title>
<path fill="none" stroke="midnightblue" d="M469.398,-168.075C458.806,-141.832 427.612,-64.5453 413.312,-29.1165"/>
<polygon fill="midnightblue" stroke="midnightblue" points="416.447,-27.5313 409.458,-19.5681 409.955,-30.1513 416.447,-27.5313"/>
</g>
<!-- Node25&#45;&gt;Node19 -->
<g id="edge34" class="edge"><title>Node25&#45;&gt;Node19</title>
<path fill="none" stroke="midnightblue" d="M512.244,-169.334C515.202,-168.85 518.145,-168.399 521,-168 683.461,-145.314 878.067,-131.24 963.779,-125.7"/>
<polygon fill="midnightblue" stroke="midnightblue" points="964.169,-129.183 973.925,-125.052 963.722,-122.197 964.169,-129.183"/>
</g>
<!-- Node25&#45;&gt;Node23 -->
<g id="edge35" class="edge"><title>Node25&#45;&gt;Node23</title>
<path fill="none" stroke="midnightblue" d="M433.82,-168.503C387.758,-158.514 311.675,-142.014 264.887,-131.867"/>
<polygon fill="midnightblue" stroke="midnightblue" points="265.599,-128.44 255.084,-129.741 264.115,-135.281 265.599,-128.44"/>
</g>
<!-- Node27&#45;&gt;Node2 -->
<g id="edge40" class="edge"><title>Node27&#45;&gt;Node2</title>
<path fill="none" stroke="midnightblue" d="M529.295,-350.711C499.436,-344.567 453.639,-332.421 419,-311 393.524,-295.246 370.549,-268.832 357.181,-251.663"/>
<polygon fill="midnightblue" stroke="midnightblue" points="359.929,-249.494 351.103,-243.633 354.347,-253.719 359.929,-249.494"/>
</g>
<!-- Node27&#45;&gt;Node5 -->
<g id="edge39" class="edge"><title>Node27&#45;&gt;Node5</title>
<path fill="none" stroke="midnightblue" d="M545.816,-347.475C529.642,-337.755 502.974,-321.727 483.857,-310.237"/>
<polygon fill="midnightblue" stroke="midnightblue" points="485.532,-307.161 475.158,-305.009 481.926,-313.16 485.532,-307.161"/>
</g>
<!-- Node27&#45;&gt;Node6 -->
<g id="edge41" class="edge"><title>Node27&#45;&gt;Node6</title>
<path fill="none" stroke="midnightblue" d="M576.384,-347.492C616.311,-326.757 718.887,-273.488 767.157,-248.421"/>
<polygon fill="midnightblue" stroke="midnightblue" points="769.061,-251.376 776.322,-243.661 765.834,-245.164 769.061,-251.376"/>
</g>
<!-- Node28 -->
<g id="node28" class="node"><title>Node28</title>
<g id="a_node28"><a xlink:href="../../da/d7e/posix_2cdev__platform_8hpp.html" target="_top" xlink:title="posix/cdev_platform.hpp">
<polygon fill="white" stroke="black" points="512.5,-286 512.5,-305 635.5,-305 635.5,-286 512.5,-286"/>
<text text-anchor="middle" x="574" y="-293" font-family="Helvetica,sans-Serif" font-size="10.00">posix/cdev_platform.hpp</text>
</a>
</g>
</g>
<!-- Node27&#45;&gt;Node28 -->
<g id="edge42" class="edge"><title>Node27&#45;&gt;Node28</title>
<path fill="none" stroke="midnightblue" d="M562.006,-347.475C564.002,-338.992 567.128,-325.704 569.689,-314.822"/>
<polygon fill="midnightblue" stroke="midnightblue" points="573.114,-315.545 571.998,-305.009 566.3,-313.942 573.114,-315.545"/>
</g>
<!-- Node29 -->
<g id="node29" class="node"><title>Node29</title>
<polygon fill="white" stroke="#bfbfbf" points="546,-224.5 546,-243.5 602,-243.5 602,-224.5 546,-224.5"/>
<text text-anchor="middle" x="574" y="-231.5" font-family="Helvetica,sans-Serif" font-size="10.00">cinttypes</text>
</g>
<!-- Node28&#45;&gt;Node29 -->
<g id="edge43" class="edge"><title>Node28&#45;&gt;Node29</title>
<path fill="none" stroke="midnightblue" d="M574,-285.975C574,-277.58 574,-264.481 574,-253.663"/>
<polygon fill="midnightblue" stroke="midnightblue" points="577.5,-253.509 574,-243.509 570.5,-253.509 577.5,-253.509"/>
</g>
<!-- Node34&#45;&gt;Node9 -->
<g id="edge57" class="edge"><title>Node34&#45;&gt;Node9</title>
<path fill="none" stroke="midnightblue" d="M1382.01,-224.498C1393.03,-216.201 1409.25,-202.708 1420,-188 1457.91,-136.147 1483.69,-63.4725 1494.41,-29.6635"/>
<polygon fill="midnightblue" stroke="midnightblue" points="1497.86,-30.3615 1497.46,-19.7741 1491.17,-28.2968 1497.86,-30.3615"/>
</g>
<!-- Node34&#45;&gt;Node15 -->
<g id="edge56" class="edge"><title>Node34&#45;&gt;Node15</title>
<path fill="none" stroke="midnightblue" d="M1380.29,-224.404C1393.61,-212.181 1414.07,-188.934 1405,-168 1399.73,-155.84 1389.38,-145.459 1379.64,-137.743"/>
<polygon fill="midnightblue" stroke="midnightblue" points="1381.5,-134.771 1371.37,-131.67 1377.36,-140.412 1381.5,-134.771"/>
</g>
<!-- Node34&#45;&gt;Node19 -->
<g id="edge55" class="edge"><title>Node34&#45;&gt;Node19</title>
<path fill="none" stroke="midnightblue" d="M1326.22,-227.007C1283.65,-220.366 1217.6,-207.885 1163,-188 1145.07,-181.469 1142.38,-175.884 1125,-168 1097.77,-155.65 1066.08,-143.597 1042.55,-135.077"/>
<polygon fill="midnightblue" stroke="midnightblue" points="1043.59,-131.735 1033,-131.652 1041.23,-138.323 1043.59,-131.735"/>
</g>
<!-- Node35 -->
<g id="node35" class="node"><title>Node35</title>
<g id="a_node35"><a xlink:href="../../d3/d2d/px4__time_8h.html" target="_top" xlink:title="px4_time.h">
<polygon fill="white" stroke="black" points="1172.5,-168.5 1172.5,-187.5 1237.5,-187.5 1237.5,-168.5 1172.5,-168.5"/>
<text text-anchor="middle" x="1205" y="-175.5" font-family="Helvetica,sans-Serif" font-size="10.00">px4_time.h</text>
</a>
</g>
</g>
<!-- Node34&#45;&gt;Node35 -->
<g id="edge58" class="edge"><title>Node34&#45;&gt;Node35</title>
<path fill="none" stroke="midnightblue" d="M1343.86,-224.444C1315.98,-215.32 1271.65,-200.813 1240.6,-190.651"/>
<polygon fill="midnightblue" stroke="midnightblue" points="1241.62,-187.3 1231.02,-187.516 1239.44,-193.953 1241.62,-187.3"/>
</g>
<!-- Node37 -->
<g id="node37" class="node"><title>Node37</title>
<polygon fill="white" stroke="#bfbfbf" points="1344.5,-168.5 1344.5,-187.5 1395.5,-187.5 1395.5,-168.5 1344.5,-168.5"/>
<text text-anchor="middle" x="1370" y="-175.5" font-family="Helvetica,sans-Serif" font-size="10.00">queue.h</text>
</g>
<!-- Node34&#45;&gt;Node37 -->
<g id="edge61" class="edge"><title>Node34&#45;&gt;Node37</title>
<path fill="none" stroke="midnightblue" d="M1370,-224.083C1370,-217.006 1370,-206.861 1370,-197.986"/>
<polygon fill="midnightblue" stroke="midnightblue" points="1373.5,-197.751 1370,-187.751 1366.5,-197.751 1373.5,-197.751"/>
</g>
<!-- Node35&#45;&gt;Node19 -->
<g id="edge59" class="edge"><title>Node35&#45;&gt;Node19</title>
<path fill="none" stroke="midnightblue" d="M1173.78,-168.444C1140.07,-159.201 1086.2,-144.436 1049.07,-134.257"/>
<polygon fill="midnightblue" stroke="midnightblue" points="1049.64,-130.785 1039.07,-131.516 1047.79,-137.536 1049.64,-130.785"/>
</g>
<!-- Node36 -->
<g id="node36" class="node"><title>Node36</title>
<polygon fill="white" stroke="#bfbfbf" points="1183,-112.5 1183,-131.5 1227,-131.5 1227,-112.5 1183,-112.5"/>
<text text-anchor="middle" x="1205" y="-119.5" font-family="Helvetica,sans-Serif" font-size="10.00">time.h</text>
</g>
<!-- Node35&#45;&gt;Node36 -->
<g id="edge60" class="edge"><title>Node35&#45;&gt;Node36</title>
<path fill="none" stroke="midnightblue" d="M1205,-168.083C1205,-161.006 1205,-150.861 1205,-141.986"/>
<polygon fill="midnightblue" stroke="midnightblue" points="1208.5,-141.751 1205,-131.751 1201.5,-141.751 1208.5,-141.751"/>
</g>
<!-- Node38&#45;&gt;Node10 -->
<g id="edge63" class="edge"><title>Node38&#45;&gt;Node10</title>
<path fill="none" stroke="midnightblue" d="M87.6237,-168.309C108.149,-155.364 148.394,-130.552 184,-112 251.063,-77.0577 332.597,-41.7148 375.775,-23.5353"/>
<polygon fill="midnightblue" stroke="midnightblue" points="377.273,-26.7025 385.142,-19.6078 374.566,-20.247 377.273,-26.7025"/>
</g>
<!-- Node38&#45;&gt;Node23 -->
<g id="edge64" class="edge"><title>Node38&#45;&gt;Node23</title>
<path fill="none" stroke="midnightblue" d="M97.7679,-168.444C122.893,-159.399 162.711,-145.064 190.9,-134.916"/>
<polygon fill="midnightblue" stroke="midnightblue" points="192.12,-138.197 200.343,-131.516 189.749,-131.611 192.12,-138.197"/>
</g>
<!-- Node41&#45;&gt;Node8 -->
<g id="edge68" class="edge"><title>Node41&#45;&gt;Node8</title>
<path fill="none" stroke="midnightblue" d="M1538,-403.307C1538,-384.062 1538,-336.404 1538,-296.5 1538,-296.5 1538,-296.5 1538,-177 1538,-131.206 1489.75,-97.486 1457.75,-80.1584"/>
<polygon fill="midnightblue" stroke="midnightblue" points="1459.3,-77.0184 1448.81,-75.5104 1456.07,-83.229 1459.3,-77.0184"/>
</g>
<!-- Node41&#45;&gt;Node13 -->
<g id="edge69" class="edge"><title>Node41&#45;&gt;Node13</title>
<path fill="none" stroke="midnightblue" d="M1542.97,-403.337C1553.27,-384.532 1576,-338.297 1576,-296.5 1576,-296.5 1576,-296.5 1576,-121 1576,-88.9467 1575.57,-51.6417 1575.27,-29.7484"/>
<polygon fill="midnightblue" stroke="midnightblue" points="1578.77,-29.5073 1575.13,-19.5575 1571.77,-29.6058 1578.77,-29.5073"/>
</g>
<!-- Node41&#45;&gt;Node30 -->
<g id="edge71" class="edge"><title>Node41&#45;&gt;Node30</title>
<path fill="none" stroke="midnightblue" d="M1529.25,-403.083C1521.53,-395.22 1510.1,-383.569 1500.78,-374.081"/>
<polygon fill="midnightblue" stroke="midnightblue" points="1503.09,-371.436 1493.59,-366.751 1498.1,-376.34 1503.09,-371.436"/>
</g>
<!-- Node41&#45;&gt;Node32 -->
<g id="edge70" class="edge"><title>Node41&#45;&gt;Node32</title>
<path fill="none" stroke="midnightblue" d="M1552.46,-403.324C1566.5,-394.9 1588.05,-381.971 1604.54,-372.074"/>
<polygon fill="midnightblue" stroke="midnightblue" points="1606.8,-374.801 1613.58,-366.655 1603.2,-368.798 1606.8,-374.801"/>
</g>
<!-- Node42&#45;&gt;Node7 -->
<g id="edge74" class="edge"><title>Node42&#45;&gt;Node7</title>
<path fill="none" stroke="midnightblue" d="M677.781,-168.324C692.267,-159.822 714.573,-146.729 731.493,-136.797"/>
<polygon fill="midnightblue" stroke="midnightblue" points="733.403,-139.735 740.255,-131.655 729.859,-133.698 733.403,-139.735"/>
</g>
<!-- Node42&#45;&gt;Node10 -->
<g id="edge73" class="edge"><title>Node42&#45;&gt;Node10</title>
<path fill="none" stroke="midnightblue" d="M657.47,-168.456C648.442,-155.033 629.386,-128.807 608,-112 555.059,-70.3929 482.244,-39.1571 440.044,-23.1015"/>
<polygon fill="midnightblue" stroke="midnightblue" points="441.103,-19.7609 430.51,-19.5353 438.65,-26.3172 441.103,-19.7609"/>
</g>
<!-- Node44 -->
<g id="node44" class="node"><title>Node44</title>
<g id="a_node44"><a xlink:href="../../db/dd6/u_o_r_b_8h.html" target="_top" xlink:title="API for the uORB lightweight object broker. ">
<polygon fill="white" stroke="black" points="1034,-168.5 1034,-187.5 1116,-187.5 1116,-168.5 1034,-168.5"/>
<text text-anchor="middle" x="1075" y="-175.5" font-family="Helvetica,sans-Serif" font-size="10.00">uORB/uORB.h</text>
</a>
</g>
</g>
<!-- Node43&#45;&gt;Node44 -->
<g id="edge76" class="edge"><title>Node43&#45;&gt;Node44</title>
<path fill="none" stroke="midnightblue" d="M1096.93,-280.337C1092.43,-259.527 1084.02,-220.663 1079.02,-197.583"/>
<polygon fill="midnightblue" stroke="midnightblue" points="1082.41,-196.703 1076.88,-187.669 1075.57,-198.184 1082.41,-196.703"/>
</g>
<!-- Node44&#45;&gt;Node10 -->
<g id="edge78" class="edge"><title>Node44&#45;&gt;Node10</title>
<path fill="none" stroke="midnightblue" d="M1074.48,-168.258C1073.14,-154.066 1068.31,-126.177 1051,-112 956.092,-34.2714 560.516,-15.7788 440.604,-11.921"/>
<polygon fill="midnightblue" stroke="midnightblue" points="440.619,-8.41989 430.516,-11.6105 440.404,-15.4166 440.619,-8.41989"/>
</g>
<!-- Node44&#45;&gt;Node15 -->
<g id="edge79" class="edge"><title>Node44&#45;&gt;Node15</title>
<path fill="none" stroke="midnightblue" d="M1116.01,-169.148C1170.43,-158.727 1265.79,-140.466 1318.77,-130.32"/>
<polygon fill="midnightblue" stroke="midnightblue" points="1319.62,-133.722 1328.78,-128.404 1318.3,-126.847 1319.62,-133.722"/>
</g>
<!-- Node44&#45;&gt;Node19 -->
<g id="edge77" class="edge"><title>Node44&#45;&gt;Node19</title>
<path fill="none" stroke="midnightblue" d="M1064.24,-168.324C1054.23,-160.263 1039.11,-148.077 1027.07,-138.369"/>
<polygon fill="midnightblue" stroke="midnightblue" points="1028.94,-135.384 1018.96,-131.834 1024.55,-140.834 1028.94,-135.384"/>
</g>
<!-- Node45&#45;&gt;Node44 -->
<g id="edge81" class="edge"><title>Node45&#45;&gt;Node44</title>
<path fill="none" stroke="midnightblue" d="M1244.41,-347.463C1216.52,-319.729 1128.15,-231.846 1091.34,-195.245"/>
<polygon fill="midnightblue" stroke="midnightblue" points="1093.48,-192.438 1083.92,-187.868 1088.54,-197.401 1093.48,-192.438"/>
</g>
</g>
</svg>
