<?xml version="1.0" encoding="UTF-8" standalone="no"?>
<!DOCTYPE svg PUBLIC "-//W3C//DTD SVG 1.1//EN"
 "http://www.w3.org/Graphics/SVG/1.1/DTD/svg11.dtd">
<!-- Generated by graphviz version 2.38.0 (20140413.2041)
 -->
<!-- Title: linux_pwm_out::task_main Pages: 1 -->
<svg width="731pt" height="66pt"
 viewBox="0.00 0.00 731.00 66.00" xmlns="http://www.w3.org/2000/svg" xmlns:xlink="http://www.w3.org/1999/xlink">
<g id="graph0" class="graph" transform="scale(1 1) rotate(0) translate(4 62)">
<title>linux_pwm_out::task_main</title>
<polygon fill="white" stroke="none" points="-4,4 -4,-62 727,-62 727,4 -4,4"/>
<!-- Node1 -->
<g id="node1" class="node"><title>Node1</title>
<polygon fill="#bfbfbf" stroke="black" points="0,-19.5 0,-38.5 133,-38.5 133,-19.5 0,-19.5"/>
<text text-anchor="middle" x="66.5" y="-26.5" font-family="Helvetica,sans-Serif" font-size="10.00">linux_pwm_out::task_main</text>
</g>
<!-- Node2 -->
<g id="node2" class="node"><title>Node2</title>
<g id="a_node2"><a xlink:href="../../d0/db0/namespacelinux__pwm__out.html#abc075bdbbcfd59040e2522b15f6dca75" target="_top" xlink:title="linux_pwm_out::task\l_main_trampoline">
<polygon fill="white" stroke="black" points="169,-14 169,-44 276,-44 276,-14 169,-14"/>
<text text-anchor="start" x="177" y="-32" font-family="Helvetica,sans-Serif" font-size="10.00">linux_pwm_out::task</text>
<text text-anchor="middle" x="222.5" y="-21" font-family="Helvetica,sans-Serif" font-size="10.00">_main_trampoline</text>
</a>
</g>
</g>
<!-- Node1&#45;&gt;Node2 -->
<g id="edge1" class="edge"><title>Node1&#45;&gt;Node2</title>
<path fill="none" stroke="midnightblue" d="M143.388,-29C152.049,-29 160.728,-29 168.988,-29"/>
<polygon fill="midnightblue" stroke="midnightblue" points="143.257,-25.5001 133.257,-29 143.257,-32.5001 143.257,-25.5001"/>
</g>
<!-- Node3 -->
<g id="node3" class="node"><title>Node3</title>
<g id="a_node3"><a xlink:href="../../d0/db0/namespacelinux__pwm__out.html#a15fd89cbae6f918aee78e46d9d018a7b" target="_top" xlink:title="linux_pwm_out::start">
<polygon fill="white" stroke="black" points="317,-38.5 317,-57.5 424,-57.5 424,-38.5 317,-38.5"/>
<text text-anchor="middle" x="370.5" y="-45.5" font-family="Helvetica,sans-Serif" font-size="10.00">linux_pwm_out::start</text>
</a>
</g>
</g>
<!-- Node2&#45;&gt;Node3 -->
<g id="edge2" class="edge"><title>Node2&#45;&gt;Node3</title>
<path fill="none" stroke="midnightblue" d="M286.284,-37.1706C296.48,-38.4974 306.947,-39.8595 316.868,-41.1506"/>
<polygon fill="midnightblue" stroke="midnightblue" points="286.577,-33.6793 276.209,-35.8594 285.674,-40.6207 286.577,-33.6793"/>
</g>
<!-- Node6 -->
<g id="node6" class="node"><title>Node6</title>
<g id="a_node6"><a xlink:href="../../de/d9c/class_ekf2.html#a8ad1745bc2cc2c53ac1c48c2ec2e172e" target="_top" xlink:title="Ekf2::set_replay_mode">
<polygon fill="white" stroke="black" points="312,-0.5 312,-19.5 429,-19.5 429,-0.5 312,-0.5"/>
<text text-anchor="middle" x="370.5" y="-7.5" font-family="Helvetica,sans-Serif" font-size="10.00">Ekf2::set_replay_mode</text>
</a>
</g>
</g>
<!-- Node2&#45;&gt;Node6 -->
<g id="edge6" class="edge"><title>Node2&#45;&gt;Node6</title>
<path fill="none" stroke="midnightblue" d="M286.143,-20.8479C294.705,-19.7336 303.462,-18.594 311.928,-17.4923"/>
<polygon fill="midnightblue" stroke="midnightblue" points="285.674,-17.3793 276.209,-22.1406 286.577,-24.3207 285.674,-17.3793"/>
</g>
<!-- Node4 -->
<g id="node4" class="node"><title>Node4</title>
<g id="a_node4"><a xlink:href="../../da/dd6/linux__pwm__out_8cpp.html#a412407ab462307bbeb3e9198bc9872ce" target="_top" xlink:title="linux_pwm_out_main">
<polygon fill="white" stroke="black" points="465,-38.5 465,-57.5 573,-57.5 573,-38.5 465,-38.5"/>
<text text-anchor="middle" x="519" y="-45.5" font-family="Helvetica,sans-Serif" font-size="10.00">linux_pwm_out_main</text>
</a>
</g>
</g>
<!-- Node3&#45;&gt;Node4 -->
<g id="edge3" class="edge"><title>Node3&#45;&gt;Node4</title>
<path fill="none" stroke="midnightblue" d="M434.689,-48C444.691,-48 454.948,-48 464.696,-48"/>
<polygon fill="midnightblue" stroke="midnightblue" points="434.39,-44.5001 424.39,-48 434.39,-51.5001 434.39,-44.5001"/>
</g>
<!-- Node5 -->
<g id="node5" class="node"><title>Node5</title>
<g id="a_node5"><a xlink:href="../../d0/db0/namespacelinux__pwm__out.html#a3eab6d177df998cc3a3fe0664f591369" target="_top" xlink:title="linux_pwm_out::usage">
<polygon fill="white" stroke="black" points="609,-38.5 609,-57.5 723,-57.5 723,-38.5 609,-38.5"/>
<text text-anchor="middle" x="666" y="-45.5" font-family="Helvetica,sans-Serif" font-size="10.00">linux_pwm_out::usage</text>
</a>
</g>
</g>
<!-- Node4&#45;&gt;Node5 -->
<g id="edge4" class="edge"><title>Node4&#45;&gt;Node5</title>
<path fill="none" stroke="midnightblue" d="M583.41,-41.2974C591.901,-41.2084 600.56,-41.2447 608.913,-41.4062"/>
<polygon fill="midnightblue" stroke="midnightblue" points="583.11,-37.8018 573.169,-41.4679 583.226,-44.8008 583.11,-37.8018"/>
</g>
<!-- Node5&#45;&gt;Node4 -->
<g id="edge5" class="edge"><title>Node5&#45;&gt;Node4</title>
<path fill="none" stroke="midnightblue" d="M598.885,-54.7267C590.271,-54.7898 581.535,-54.7249 573.169,-54.5321"/>
<polygon fill="midnightblue" stroke="midnightblue" points="598.961,-58.2261 608.913,-54.5938 598.868,-51.2267 598.961,-58.2261"/>
</g>
<!-- Node7 -->
<g id="node7" class="node"><title>Node7</title>
<g id="a_node7"><a xlink:href="../../de/d9c/class_ekf2.html#a0c2ca6006a7790b7b1ed1a5ca7d1de3d" target="_top" xlink:title="Ekf2::instantiate">
<polygon fill="white" stroke="black" points="475,-0.5 475,-19.5 563,-19.5 563,-0.5 475,-0.5"/>
<text text-anchor="middle" x="519" y="-7.5" font-family="Helvetica,sans-Serif" font-size="10.00">Ekf2::instantiate</text>
</a>
</g>
</g>
<!-- Node6&#45;&gt;Node7 -->
<g id="edge7" class="edge"><title>Node6&#45;&gt;Node7</title>
<path fill="none" stroke="midnightblue" d="M439.476,-10C451.56,-10 463.836,-10 474.98,-10"/>
<polygon fill="midnightblue" stroke="midnightblue" points="439.401,-6.5001 429.401,-10 439.401,-13.5001 439.401,-6.5001"/>
</g>
</g>
</svg>
