<?xml version="1.0" encoding="UTF-8" standalone="no"?>
<!DOCTYPE svg PUBLIC "-//W3C//DTD SVG 1.1//EN"
 "http://www.w3.org/Graphics/SVG/1.1/DTD/svg11.dtd">
<!-- Generated by graphviz version 2.40.1 (20161225.0304)
 -->
<!-- Title: src/drivers/distance_sensor/ll40ls/LidarLiteI2C.h Pages: 1 -->
<svg width="298pt" height="106pt"
 viewBox="0.00 0.00 298.00 106.00" xmlns="http://www.w3.org/2000/svg" xmlns:xlink="http://www.w3.org/1999/xlink">
<g id="graph0" class="graph" transform="scale(1 1) rotate(0) translate(4 102)">
<title>src/drivers/distance_sensor/ll40ls/LidarLiteI2C.h</title>
<polygon fill="#ffffff" stroke="transparent" points="-4,4 -4,-102 294,-102 294,4 -4,4"/>
<!-- Node64 -->
<g id="node1" class="node">
<title>Node64</title>
<polygon fill="#bfbfbf" stroke="#000000" points="82.5,-67.5 82.5,-97.5 222.5,-97.5 222.5,-67.5 82.5,-67.5"/>
<text text-anchor="start" x="90.5" y="-85.5" font-family="Helvetica,sans-Serif" font-size="10.00" fill="#000000">src/drivers/distance</text>
<text text-anchor="middle" x="152.5" y="-74.5" font-family="Helvetica,sans-Serif" font-size="10.00" fill="#000000">_sensor/ll40ls/LidarLiteI2C.h</text>
</g>
<!-- Node65 -->
<g id="node2" class="node">
<title>Node65</title>
<g id="a_node2"><a xlink:href="../../d4/d59/_lidar_lite_i2_c_8cpp.html" target="_top" xlink:title="src/drivers/distance\l_sensor/ll40ls/LidarLiteI2C.cpp">
<polygon fill="#ffffff" stroke="#000000" points="0,-.5 0,-30.5 151,-30.5 151,-.5 0,-.5"/>
<text text-anchor="start" x="8" y="-18.5" font-family="Helvetica,sans-Serif" font-size="10.00" fill="#000000">src/drivers/distance</text>
<text text-anchor="middle" x="75.5" y="-7.5" font-family="Helvetica,sans-Serif" font-size="10.00" fill="#000000">_sensor/ll40ls/LidarLiteI2C.cpp</text>
</a>
</g>
</g>
<!-- Node64&#45;&gt;Node65 -->
<g id="edge1" class="edge">
<title>Node64&#45;&gt;Node65</title>
<path fill="none" stroke="#191970" d="M127.2124,-60.4965C115.976,-50.7193 103.0308,-39.4554 92.9033,-30.6432"/>
<polygon fill="#191970" stroke="#191970" points="125.1861,-63.3728 135.0275,-67.2967 129.781,-58.092 125.1861,-63.3728"/>
</g>
<!-- Node66 -->
<g id="node3" class="node">
<title>Node66</title>
<g id="a_node3"><a xlink:href="../../df/d98/ll40ls_8cpp.html" target="_top" xlink:title="src/drivers/distance\l_sensor/ll40ls/ll40ls.cpp">
<polygon fill="#ffffff" stroke="#000000" points="169,-.5 169,-30.5 290,-30.5 290,-.5 169,-.5"/>
<text text-anchor="start" x="177" y="-18.5" font-family="Helvetica,sans-Serif" font-size="10.00" fill="#000000">src/drivers/distance</text>
<text text-anchor="middle" x="229.5" y="-7.5" font-family="Helvetica,sans-Serif" font-size="10.00" fill="#000000">_sensor/ll40ls/ll40ls.cpp</text>
</a>
</g>
</g>
<!-- Node64&#45;&gt;Node66 -->
<g id="edge2" class="edge">
<title>Node64&#45;&gt;Node66</title>
<path fill="none" stroke="#191970" d="M177.7876,-60.4965C189.024,-50.7193 201.9692,-39.4554 212.0967,-30.6432"/>
<polygon fill="#191970" stroke="#191970" points="175.219,-58.092 169.9725,-67.2967 179.8139,-63.3728 175.219,-58.092"/>
</g>
</g>
</svg>
