<?xml version="1.0" encoding="UTF-8" standalone="no"?>
<!DOCTYPE svg PUBLIC "-//W3C//DTD SVG 1.1//EN"
 "http://www.w3.org/Graphics/SVG/1.1/DTD/svg11.dtd">
<!-- Generated by graphviz version 2.38.0 (20140413.2041)
 -->
<!-- Title: serial_number Pages: 1 -->
<svg width="218pt" height="66pt"
 viewBox="0.00 0.00 218.00 66.00" xmlns="http://www.w3.org/2000/svg" xmlns:xlink="http://www.w3.org/1999/xlink">
<g id="graph0" class="graph" transform="scale(1 1) rotate(0) translate(4 62)">
<title>serial_number</title>
<polygon fill="white" stroke="none" points="-4,4 -4,-62 214,-62 214,4 -4,4"/>
<!-- Node1 -->
<g id="node1" class="node"><title>Node1</title>
<polygon fill="#bfbfbf" stroke="black" points="0,-19.5 0,-38.5 77,-38.5 77,-19.5 0,-19.5"/>
<text text-anchor="middle" x="38.5" y="-26.5" font-family="Helvetica,sans-Serif" font-size="10.00">serial_number</text>
</g>
<!-- Node2 -->
<g id="node2" class="node"><title>Node2</title>
<g id="a_node2"><a xlink:href="../../d0/de7/batt__smbus__main_8cpp.html#a497ca237288a89e29850ea1322f8bfab" target="_top" xlink:title="batt_smbus_main">
<polygon fill="white" stroke="black" points="114.5,-38.5 114.5,-57.5 208.5,-57.5 208.5,-38.5 114.5,-38.5"/>
<text text-anchor="middle" x="161.5" y="-45.5" font-family="Helvetica,sans-Serif" font-size="10.00">batt_smbus_main</text>
</a>
</g>
</g>
<!-- Node1&#45;&gt;Node2 -->
<g id="edge1" class="edge"><title>Node1&#45;&gt;Node2</title>
<path fill="none" stroke="midnightblue" d="M87.0565,-36.4675C96.0461,-37.8791 105.436,-39.3535 114.38,-40.7581"/>
<polygon fill="midnightblue" stroke="midnightblue" points="87.5438,-33.0013 77.1219,-34.9076 86.4579,-39.9165 87.5438,-33.0013"/>
</g>
<!-- Node3 -->
<g id="node3" class="node"><title>Node3</title>
<g id="a_node3"><a xlink:href="../../d8/db8/class_a_d_i_s16448.html#a9331d4d37c69889ad474344b81d6672d" target="_top" xlink:title="ADIS16448::probe">
<polygon fill="white" stroke="black" points="113,-0.5 113,-19.5 210,-19.5 210,-0.5 113,-0.5"/>
<text text-anchor="middle" x="161.5" y="-7.5" font-family="Helvetica,sans-Serif" font-size="10.00">ADIS16448::probe</text>
</a>
</g>
</g>
<!-- Node1&#45;&gt;Node3 -->
<g id="edge2" class="edge"><title>Node1&#45;&gt;Node3</title>
<path fill="none" stroke="midnightblue" d="M87.1315,-21.5207C95.516,-20.2041 104.246,-18.8333 112.637,-17.5157"/>
<polygon fill="midnightblue" stroke="midnightblue" points="86.4579,-18.0835 77.1219,-23.0924 87.5438,-24.9987 86.4579,-18.0835"/>
</g>
</g>
</svg>
