<?xml version="1.0" encoding="UTF-8" standalone="no"?>
<!DOCTYPE svg PUBLIC "-//W3C//DTD SVG 1.1//EN"
 "http://www.w3.org/Graphics/SVG/1.1/DTD/svg11.dtd">
<!-- Generated by graphviz version 2.40.1 (20161225.0304)
 -->
<!-- Title: MissionFeasibilityChecker::checkTakeoff Pages: 1 -->
<svg width="1415pt" height="135pt"
 viewBox="0.00 0.00 1415.00 135.00" xmlns="http://www.w3.org/2000/svg" xmlns:xlink="http://www.w3.org/1999/xlink">
<g id="graph0" class="graph" transform="scale(1 1) rotate(0) translate(4 131)">
<title>MissionFeasibilityChecker::checkTakeoff</title>
<polygon fill="#ffffff" stroke="transparent" points="-4,4 -4,-131 1411,-131 1411,4 -4,4"/>
<!-- Node471 -->
<g id="node1" class="node">
<title>Node471</title>
<polygon fill="#bfbfbf" stroke="#000000" points="0,-24.5 0,-54.5 131,-54.5 131,-24.5 0,-24.5"/>
<text text-anchor="start" x="8" y="-42.5" font-family="Helvetica,sans-Serif" font-size="10.00" fill="#000000">MissionFeasibilityChecker</text>
<text text-anchor="middle" x="65.5" y="-31.5" font-family="Helvetica,sans-Serif" font-size="10.00" fill="#000000">::checkTakeoff</text>
</g>
<!-- Node472 -->
<g id="node2" class="node">
<title>Node472</title>
<g id="a_node2"><a xlink:href="../../d0/d52/class_mission_feasibility_checker.html#ad9970b6f3d1584b0a33461e4c4bc960d" target="_top" xlink:title="MissionFeasibilityChecker\l::checkFixedwing">
<polygon fill="#ffffff" stroke="#000000" points="167,-49.5 167,-79.5 298,-79.5 298,-49.5 167,-49.5"/>
<text text-anchor="start" x="175" y="-67.5" font-family="Helvetica,sans-Serif" font-size="10.00" fill="#000000">MissionFeasibilityChecker</text>
<text text-anchor="middle" x="232.5" y="-56.5" font-family="Helvetica,sans-Serif" font-size="10.00" fill="#000000">::checkFixedwing</text>
</a>
</g>
</g>
<!-- Node471&#45;&gt;Node472 -->
<g id="edge1" class="edge">
<title>Node471&#45;&gt;Node472</title>
<path fill="none" stroke="#191970" d="M141.0663,-50.8123C149.6848,-52.1025 158.4171,-53.4097 166.8913,-54.6783"/>
<polygon fill="#191970" stroke="#191970" points="141.4315,-47.3281 131.0235,-49.3089 140.3951,-54.2509 141.4315,-47.3281"/>
</g>
<!-- Node483 -->
<g id="node13" class="node">
<title>Node483</title>
<g id="a_node13"><a xlink:href="../../d0/d52/class_mission_feasibility_checker.html#a4404f88391d8d4d060609381c43ec6ed" target="_top" xlink:title="MissionFeasibilityChecker\l::checkRotarywing">
<polygon fill="#ffffff" stroke="#000000" points="167,-.5 167,-30.5 298,-30.5 298,-.5 167,-.5"/>
<text text-anchor="start" x="175" y="-18.5" font-family="Helvetica,sans-Serif" font-size="10.00" fill="#000000">MissionFeasibilityChecker</text>
<text text-anchor="middle" x="232.5" y="-7.5" font-family="Helvetica,sans-Serif" font-size="10.00" fill="#000000">::checkRotarywing</text>
</a>
</g>
</g>
<!-- Node471&#45;&gt;Node483 -->
<g id="edge15" class="edge">
<title>Node471&#45;&gt;Node483</title>
<path fill="none" stroke="#191970" d="M141.0663,-28.6402C149.6848,-27.4016 158.4171,-26.1466 166.8913,-24.9288"/>
<polygon fill="#191970" stroke="#191970" points="140.4239,-25.1964 131.0235,-30.0834 141.4197,-32.1253 140.4239,-25.1964"/>
</g>
<!-- Node473 -->
<g id="node3" class="node">
<title>Node473</title>
<g id="a_node3"><a xlink:href="../../d0/d52/class_mission_feasibility_checker.html#a0e2dc0a164e6afa0f257078c9537e3f5" target="_top" xlink:title="MissionFeasibilityChecker\l::checkMissionFeasible">
<polygon fill="#ffffff" stroke="#000000" points="334,-24.5 334,-54.5 465,-54.5 465,-24.5 334,-24.5"/>
<text text-anchor="start" x="342" y="-42.5" font-family="Helvetica,sans-Serif" font-size="10.00" fill="#000000">MissionFeasibilityChecker</text>
<text text-anchor="middle" x="399.5" y="-31.5" font-family="Helvetica,sans-Serif" font-size="10.00" fill="#000000">::checkMissionFeasible</text>
</a>
</g>
</g>
<!-- Node472&#45;&gt;Node473 -->
<g id="edge2" class="edge">
<title>Node472&#45;&gt;Node473</title>
<path fill="none" stroke="#191970" d="M308.0663,-53.1877C316.6848,-51.8975 325.4171,-50.5903 333.8913,-49.3217"/>
<polygon fill="#191970" stroke="#191970" points="307.3951,-49.7491 298.0235,-54.6911 308.4315,-56.6719 307.3951,-49.7491"/>
</g>
<!-- Node474 -->
<g id="node4" class="node">
<title>Node474</title>
<g id="a_node4"><a xlink:href="../../db/dad/class_mission.html#a5fc318978e5ed67af2e013eea6a41b2e" target="_top" xlink:title="Check whether a mission is ready to go. ">
<polygon fill="#ffffff" stroke="#000000" points="508.5,-49.5 508.5,-79.5 630.5,-79.5 630.5,-49.5 508.5,-49.5"/>
<text text-anchor="start" x="516.5" y="-67.5" font-family="Helvetica,sans-Serif" font-size="10.00" fill="#000000">Mission::check_mission</text>
<text text-anchor="middle" x="569.5" y="-56.5" font-family="Helvetica,sans-Serif" font-size="10.00" fill="#000000">_valid</text>
</a>
</g>
</g>
<!-- Node473&#45;&gt;Node474 -->
<g id="edge3" class="edge">
<title>Node473&#45;&gt;Node474</title>
<path fill="none" stroke="#191970" d="M475.3151,-50.6493C486.3888,-52.2778 497.6729,-53.9372 508.4038,-55.5153"/>
<polygon fill="#191970" stroke="#191970" points="475.6293,-47.1579 465.2264,-49.1657 474.6108,-54.0834 475.6293,-47.1579"/>
</g>
<!-- Node482 -->
<g id="node12" class="node">
<title>Node482</title>
<g id="a_node12"><a xlink:href="../../d0/d52/class_mission_feasibility_checker.html#a493b33a16340dab677935932844b9fe3" target="_top" xlink:title="MissionFeasibilityChecker\l::MissionFeasibilityChecker">
<polygon fill="#ffffff" stroke="#000000" points="501,-.5 501,-30.5 638,-30.5 638,-.5 501,-.5"/>
<text text-anchor="start" x="509" y="-18.5" font-family="Helvetica,sans-Serif" font-size="10.00" fill="#000000">MissionFeasibilityChecker</text>
<text text-anchor="middle" x="569.5" y="-7.5" font-family="Helvetica,sans-Serif" font-size="10.00" fill="#000000">::MissionFeasibilityChecker</text>
</a>
</g>
</g>
<!-- Node473&#45;&gt;Node482 -->
<g id="edge14" class="edge">
<title>Node473&#45;&gt;Node482</title>
<path fill="none" stroke="#191970" d="M475.1813,-28.8156C483.7291,-27.6088 492.4042,-26.3841 500.855,-25.1911"/>
<polygon fill="#191970" stroke="#191970" points="474.639,-25.3574 465.2264,-30.221 475.6175,-32.2886 474.639,-25.3574"/>
</g>
<!-- Node475 -->
<g id="node5" class="node">
<title>Node475</title>
<g id="a_node5"><a xlink:href="../../db/dad/class_mission.html#a33116a4afecc113b67d233f14de287ff" target="_top" xlink:title="Mission::get_landing_alt">
<polygon fill="#ffffff" stroke="#000000" points="835,-102 835,-121 957,-121 957,-102 835,-102"/>
<text text-anchor="middle" x="896" y="-109" font-family="Helvetica,sans-Serif" font-size="10.00" fill="#000000">Mission::get_landing_alt</text>
</a>
</g>
</g>
<!-- Node474&#45;&gt;Node475 -->
<g id="edge4" class="edge">
<title>Node474&#45;&gt;Node475</title>
<path fill="none" stroke="#191970" d="M612.0139,-83.3332C630.658,-90.702 653.0327,-98.3665 674,-102.5 727.5506,-113.057 789.7271,-114.6932 834.6333,-114.0449"/>
<polygon fill="#191970" stroke="#191970" points="613.2138,-80.043 602.6315,-79.5271 610.5823,-86.5296 613.2138,-80.043"/>
</g>
<!-- Node479 -->
<g id="node9" class="node">
<title>Node479</title>
<g id="a_node9"><a xlink:href="../../db/dad/class_mission.html#a14c34cbf0575ae27e9f016b1e038b8e8" target="_top" xlink:title="This function is called while the mode is active. ">
<polygon fill="#ffffff" stroke="#000000" points="847,-55 847,-74 945,-74 945,-55 847,-55"/>
<text text-anchor="middle" x="896" y="-62" font-family="Helvetica,sans-Serif" font-size="10.00" fill="#000000">Mission::on_active</text>
</a>
</g>
</g>
<!-- Node474&#45;&gt;Node479 -->
<g id="edge8" class="edge">
<title>Node474&#45;&gt;Node479</title>
<path fill="none" stroke="#191970" d="M640.697,-64.5C703.1274,-64.5 792.24,-64.5 846.9865,-64.5"/>
<polygon fill="#191970" stroke="#191970" points="640.5292,-61.0001 630.5291,-64.5 640.5291,-68.0001 640.5292,-61.0001"/>
</g>
<!-- Node480 -->
<g id="node10" class="node">
<title>Node480</title>
<g id="a_node10"><a xlink:href="../../db/dad/class_mission.html#a0bace66f00a7f0219e7d1665d3903d66" target="_top" xlink:title="This function is called while the mode is inactive. ">
<polygon fill="#ffffff" stroke="#000000" points="843,-8 843,-27 949,-27 949,-8 843,-8"/>
<text text-anchor="middle" x="896" y="-15" font-family="Helvetica,sans-Serif" font-size="10.00" fill="#000000">Mission::on_inactive</text>
</a>
</g>
</g>
<!-- Node474&#45;&gt;Node480 -->
<g id="edge9" class="edge">
<title>Node474&#45;&gt;Node480</title>
<path fill="none" stroke="#191970" d="M640.4511,-54.2865C701.3397,-45.5215 787.7423,-33.0838 842.8318,-25.1536"/>
<polygon fill="#191970" stroke="#191970" points="639.9284,-50.8256 630.5291,-55.7148 640.9258,-57.7542 639.9284,-50.8256"/>
</g>
<!-- Node481 -->
<g id="node11" class="node">
<title>Node481</title>
<g id="a_node11"><a xlink:href="../../db/dad/class_mission.html#aa717a0c8f848c0feaff1307664e749e6" target="_top" xlink:title="Update mission topic. ">
<polygon fill="#ffffff" stroke="#000000" points="674,-74 674,-93 799,-93 799,-74 674,-74"/>
<text text-anchor="middle" x="736.5" y="-81" font-family="Helvetica,sans-Serif" font-size="10.00" fill="#000000">Mission::update_mission</text>
</a>
</g>
</g>
<!-- Node474&#45;&gt;Node481 -->
<g id="edge10" class="edge">
<title>Node474&#45;&gt;Node481</title>
<path fill="none" stroke="#191970" d="M640.7468,-72.6059C651.7608,-73.859 663.0655,-75.1452 673.8718,-76.3746"/>
<polygon fill="#191970" stroke="#191970" points="641.0679,-69.12 630.7364,-71.467 640.2766,-76.0751 641.0679,-69.12"/>
</g>
<!-- Node476 -->
<g id="node6" class="node">
<title>Node476</title>
<g id="a_node6"><a xlink:href="../../d0/df9/class_navigator.html#a8e3be5708b076504322f33b7ef49f8a6" target="_top" xlink:title="Navigator::get_mission\l_landing_alt">
<polygon fill="#ffffff" stroke="#000000" points="993,-96.5 993,-126.5 1110,-126.5 1110,-96.5 993,-96.5"/>
<text text-anchor="start" x="1001" y="-114.5" font-family="Helvetica,sans-Serif" font-size="10.00" fill="#000000">Navigator::get_mission</text>
<text text-anchor="middle" x="1051.5" y="-103.5" font-family="Helvetica,sans-Serif" font-size="10.00" fill="#000000">_landing_alt</text>
</a>
</g>
</g>
<!-- Node475&#45;&gt;Node476 -->
<g id="edge5" class="edge">
<title>Node475&#45;&gt;Node476</title>
<path fill="none" stroke="#191970" d="M967.0932,-111.5C975.7469,-111.5 984.5114,-111.5 992.9536,-111.5"/>
<polygon fill="#191970" stroke="#191970" points="967.0114,-108.0001 957.0114,-111.5 967.0114,-115.0001 967.0114,-108.0001"/>
</g>
<!-- Node477 -->
<g id="node7" class="node">
<title>Node477</title>
<g id="a_node7"><a xlink:href="../../d8/d7e/class_r_t_l.html#afa1df82479ac4da9c9d4f3d14798de22" target="_top" xlink:title="RTL::find_RTL_destination">
<polygon fill="#ffffff" stroke="#000000" points="1146,-102 1146,-121 1280,-121 1280,-102 1146,-102"/>
<text text-anchor="middle" x="1213" y="-109" font-family="Helvetica,sans-Serif" font-size="10.00" fill="#000000">RTL::find_RTL_destination</text>
</a>
</g>
</g>
<!-- Node476&#45;&gt;Node477 -->
<g id="edge6" class="edge">
<title>Node476&#45;&gt;Node477</title>
<path fill="none" stroke="#191970" d="M1120.4105,-111.5C1128.8223,-111.5 1137.4093,-111.5 1145.7957,-111.5"/>
<polygon fill="#191970" stroke="#191970" points="1120.2621,-108.0001 1110.2621,-111.5 1120.262,-115.0001 1120.2621,-108.0001"/>
</g>
<!-- Node478 -->
<g id="node8" class="node">
<title>Node478</title>
<g id="a_node8"><a xlink:href="../../d8/d7e/class_r_t_l.html#a70662870a113a01441428953874548e2" target="_top" xlink:title="This function is called while the mode is inactive. ">
<polygon fill="#ffffff" stroke="#000000" points="1316,-102 1316,-121 1407,-121 1407,-102 1316,-102"/>
<text text-anchor="middle" x="1361.5" y="-109" font-family="Helvetica,sans-Serif" font-size="10.00" fill="#000000">RTL::on_inactive</text>
</a>
</g>
</g>
<!-- Node477&#45;&gt;Node478 -->
<g id="edge7" class="edge">
<title>Node477&#45;&gt;Node478</title>
<path fill="none" stroke="#191970" d="M1290.4288,-111.5C1299.0601,-111.5 1307.6339,-111.5 1315.6827,-111.5"/>
<polygon fill="#191970" stroke="#191970" points="1290.2982,-108.0001 1280.2981,-111.5 1290.2981,-115.0001 1290.2982,-108.0001"/>
</g>
<!-- Node481&#45;&gt;Node475 -->
<g id="edge11" class="edge">
<title>Node481&#45;&gt;Node475</title>
<path fill="none" stroke="#191970" d="M801.1244,-94.8447C814.6245,-97.2146 828.7249,-99.69 841.8006,-101.9854"/>
<polygon fill="#191970" stroke="#191970" points="801.3993,-91.3395 790.9447,-93.0577 800.1889,-98.2341 801.3993,-91.3395"/>
</g>
<!-- Node481&#45;&gt;Node479 -->
<g id="edge12" class="edge">
<title>Node481&#45;&gt;Node479</title>
<path fill="none" stroke="#191970" d="M809.2346,-74.8357C821.9914,-73.3161 834.9895,-71.7677 846.9096,-70.3478"/>
<polygon fill="#191970" stroke="#191970" points="808.5966,-71.3869 799.0808,-76.0452 809.4247,-78.3377 808.5966,-71.3869"/>
</g>
<!-- Node481&#45;&gt;Node480 -->
<g id="edge13" class="edge">
<title>Node481&#45;&gt;Node480</title>
<path fill="none" stroke="#191970" d="M769.1786,-69.9778C800.1176,-57.1755 845.7766,-38.2821 873.0381,-27.0015"/>
<polygon fill="#191970" stroke="#191970" points="767.5946,-66.8454 759.6927,-73.903 770.2711,-73.3135 767.5946,-66.8454"/>
</g>
<!-- Node483&#45;&gt;Node473 -->
<g id="edge16" class="edge">
<title>Node483&#45;&gt;Node473</title>
<path fill="none" stroke="#191970" d="M308.0663,-26.3598C316.6848,-27.5984 325.4171,-28.8534 333.8913,-30.0712"/>
<polygon fill="#191970" stroke="#191970" points="308.4197,-22.8747 298.0235,-24.9166 307.4239,-29.8036 308.4197,-22.8747"/>
</g>
</g>
</svg>
