<?xml version="1.0" encoding="UTF-8" standalone="no"?>
<!DOCTYPE svg PUBLIC "-//W3C//DTD SVG 1.1//EN"
 "http://www.w3.org/Graphics/SVG/1.1/DTD/svg11.dtd">
<!-- Generated by graphviz version 2.38.0 (20140413.2041)
 -->
<!-- Title: Integrator::put Pages: 1 -->
<svg width="349pt" height="66pt"
 viewBox="0.00 0.00 349.00 66.00" xmlns="http://www.w3.org/2000/svg" xmlns:xlink="http://www.w3.org/1999/xlink">
<g id="graph0" class="graph" transform="scale(1 1) rotate(0) translate(4 62)">
<title>Integrator::put</title>
<polygon fill="white" stroke="none" points="-4,4 -4,-62 345,-62 345,4 -4,4"/>
<!-- Node1 -->
<g id="node1" class="node"><title>Node1</title>
<polygon fill="#bfbfbf" stroke="black" points="0,-19.5 0,-38.5 77,-38.5 77,-19.5 0,-19.5"/>
<text text-anchor="middle" x="38.5" y="-26.5" font-family="Helvetica,sans-Serif" font-size="10.00">Integrator::put</text>
</g>
<!-- Node2 -->
<g id="node2" class="node"><title>Node2</title>
<g id="a_node2"><a xlink:href="../../d6/d55/class_integrator.html#acab5d425afa9034ba5b5b26929512f64" target="_top" xlink:title="Integrator::_reset">
<polygon fill="white" stroke="black" points="113,-38.5 113,-57.5 204,-57.5 204,-38.5 113,-38.5"/>
<text text-anchor="middle" x="158.5" y="-45.5" font-family="Helvetica,sans-Serif" font-size="10.00">Integrator::_reset</text>
</a>
</g>
</g>
<!-- Node1&#45;&gt;Node2 -->
<g id="edge1" class="edge"><title>Node1&#45;&gt;Node2</title>
<path fill="none" stroke="midnightblue" d="M77.1604,-35.064C85.3047,-36.3753 94.0761,-37.7877 102.726,-39.1804"/>
<polygon fill="midnightblue" stroke="midnightblue" points="102.35,-42.6649 112.779,-40.7991 103.462,-35.7539 102.35,-42.6649"/>
</g>
<!-- Node4 -->
<g id="node4" class="node"><title>Node4</title>
<g id="a_node4"><a xlink:href="../../d8/da1/integration_8cpp.html#af5ba872dd09316732300733cc164ac1a" target="_top" xlink:title="f">
<polygon fill="white" stroke="black" points="144,-0.5 144,-19.5 173,-19.5 173,-0.5 144,-0.5"/>
<text text-anchor="middle" x="158.5" y="-7.5" font-family="Helvetica,sans-Serif" font-size="10.00">f</text>
</a>
</g>
</g>
<!-- Node1&#45;&gt;Node4 -->
<g id="edge3" class="edge"><title>Node1&#45;&gt;Node4</title>
<path fill="none" stroke="midnightblue" d="M77.1604,-22.936C95.6834,-19.9535 117.449,-16.4488 133.651,-13.8402"/>
<polygon fill="midnightblue" stroke="midnightblue" points="134.553,-17.24 143.869,-12.1948 133.44,-10.329 134.553,-17.24"/>
</g>
<!-- Node3 -->
<g id="node3" class="node"><title>Node3</title>
<g id="a_node3"><a xlink:href="../../dd/df8/classmatrix_1_1_matrix.html#ad8721eb35f3ba841530be24984f75d8f" target="_top" xlink:title="matrix::Matrix::zero">
<polygon fill="white" stroke="black" points="240,-38.5 240,-57.5 341,-57.5 341,-38.5 240,-38.5"/>
<text text-anchor="middle" x="290.5" y="-45.5" font-family="Helvetica,sans-Serif" font-size="10.00">matrix::Matrix::zero</text>
</a>
</g>
</g>
<!-- Node2&#45;&gt;Node3 -->
<g id="edge2" class="edge"><title>Node2&#45;&gt;Node3</title>
<path fill="none" stroke="midnightblue" d="M204.239,-48C212.384,-48 221.002,-48 229.504,-48"/>
<polygon fill="midnightblue" stroke="midnightblue" points="229.779,-51.5001 239.779,-48 229.779,-44.5001 229.779,-51.5001"/>
</g>
</g>
</svg>
