<?xml version="1.0" encoding="UTF-8" standalone="no"?>
<!DOCTYPE svg PUBLIC "-//W3C//DTD SVG 1.1//EN"
 "http://www.w3.org/Graphics/SVG/1.1/DTD/svg11.dtd">
<!-- Generated by graphviz version 2.38.0 (20140413.2041)
 -->
<!-- Title: control::BlockIntegral::getMax Pages: 1 -->
<!--zoomable 218 -->
<svg id="main" version="1.1" xmlns="http://www.w3.org/2000/svg" xmlns:xlink="http://www.w3.org/1999/xlink" xml:space="preserve" onload="init(evt)">
<style type="text/css"><![CDATA[
.edge:hover path { stroke: red; }
.edge:hover polygon { stroke: red; fill: red; }
]]></style>
<script type="text/javascript"><![CDATA[
var edges = document.getElementsByTagName('g');
if (edges && edges.length) {
  for (var i=0;i<edges.length;i++) {
    if (edges[i].id.substr(0,4)=='edge') {
      edges[i].setAttribute('class','edge');
    }
  }
}
]]></script>
        <defs>
                <circle id="rim" cx="0" cy="0" r="7"/>
                <circle id="rim2" cx="0" cy="0" r="3.5"/>
                <g id="zoomPlus">
                        <use xlink:href="#rim" fill="#404040">
                                <set attributeName="fill" to="#808080" begin="zoomplus.mouseover" end="zoomplus.mouseout"/>
                        </use>
                        <path d="M-4,0h8M0,-4v8" fill="none" stroke="white" stroke-width="1.5" pointer-events="none"/>
                </g>
                <g id="zoomMin">
                        <use xlink:href="#rim" fill="#404040">
                                <set attributeName="fill" to="#808080" begin="zoomminus.mouseover" end="zoomminus.mouseout"/>
                        </use>
                        <path d="M-4,0h8" fill="none" stroke="white" stroke-width="1.5" pointer-events="none"/>
                </g>
                <g id="dirArrow">
                        <path fill="none" stroke="white" stroke-width="1.5" d="M0,-3.0v7 M-2.5,-0.5L0,-3.0L2.5,-0.5"/>
                </g>
               <g id="resetDef">
                       <use xlink:href="#rim2" fill="#404040">
                               <set attributeName="fill" to="#808080" begin="reset.mouseover" end="reset.mouseout"/>
                       </use>
               </g>
        </defs>

<script type="text/javascript">
var viewWidth = 702;
var viewHeight = 218;
var sectionId = 'dynsection-2';
</script>
<script xlink:href="../../svgpan.js"/>
<svg id="graph" class="graph">
<g id="viewport">
<title>control::BlockIntegral::getMax</title>
<polygon fill="white" stroke="none" points="-4,4 -4,-214 698,-214 698,4 -4,4"/>
<!-- Node1 -->
<g id="node1" class="node"><title>Node1</title>
<polygon fill="#bfbfbf" stroke="black" points="0,-90 0,-120 109,-120 109,-90 0,-90"/>
<text text-anchor="start" x="8" y="-108" font-family="Helvetica,sans-Serif" font-size="10.00">control::BlockIntegral</text>
<text text-anchor="middle" x="54.5" y="-97" font-family="Helvetica,sans-Serif" font-size="10.00">::getMax</text>
</g>
<!-- Node2 -->
<g id="node2" class="node"><title>Node2</title>
<g id="a_node2"><a xlink:href="../../dd/d7b/namespacecontrol.html#a19be8e1de3005e69886bbefbfc283172" target="_top" xlink:title="control::blockIntegralTest">
<polygon fill="white" stroke="black" points="145,-190.5 145,-209.5 272,-209.5 272,-190.5 145,-190.5"/>
<text text-anchor="middle" x="208.5" y="-197.5" font-family="Helvetica,sans-Serif" font-size="10.00">control::blockIntegralTest</text>
</a>
</g>
</g>
<!-- Node1&#45;&gt;Node2 -->
<g id="edge1" class="edge"><title>Node1&#45;&gt;Node2</title>
<path fill="none" stroke="midnightblue" d="M76.8173,-127.551C93.8501,-144.395 119.087,-166.858 145,-181 151.869,-184.749 159.576,-187.857 167.169,-190.397"/>
<polygon fill="midnightblue" stroke="midnightblue" points="79.1187,-124.901 69.5957,-120.257 74.1444,-129.826 79.1187,-124.901"/>
</g>
<!-- Node7 -->
<g id="node7" class="node"><title>Node7</title>
<g id="a_node7"><a xlink:href="../../d9/de9/controllib__test__main_8cpp.html#a19be8e1de3005e69886bbefbfc283172" target="_top" xlink:title="blockIntegralTest">
<polygon fill="white" stroke="black" points="162.5,-76.5 162.5,-95.5 254.5,-95.5 254.5,-76.5 162.5,-76.5"/>
<text text-anchor="middle" x="208.5" y="-83.5" font-family="Helvetica,sans-Serif" font-size="10.00">blockIntegralTest</text>
</a>
</g>
</g>
<!-- Node1&#45;&gt;Node7 -->
<g id="edge6" class="edge"><title>Node1&#45;&gt;Node7</title>
<path fill="none" stroke="midnightblue" d="M119.052,-97.056C133.628,-95.2341 148.831,-93.3337 162.438,-91.6327"/>
<polygon fill="midnightblue" stroke="midnightblue" points="118.578,-93.5879 109.09,-98.3013 119.446,-100.534 118.578,-93.5879"/>
</g>
<!-- Node8 -->
<g id="node8" class="node"><title>Node8</title>
<g id="a_node8"><a xlink:href="../../d9/de9/controllib__test__main_8cpp.html#ad9c6cef485ad53d7676095006ee03e15" target="_top" xlink:title="blockPIDTest">
<polygon fill="white" stroke="black" points="170,-38.5 170,-57.5 247,-57.5 247,-38.5 170,-38.5"/>
<text text-anchor="middle" x="208.5" y="-45.5" font-family="Helvetica,sans-Serif" font-size="10.00">blockPIDTest</text>
</a>
</g>
</g>
<!-- Node1&#45;&gt;Node8 -->
<g id="edge7" class="edge"><title>Node1&#45;&gt;Node8</title>
<path fill="none" stroke="midnightblue" d="M98.0979,-85.8207C112.821,-79.4848 129.511,-72.6244 145,-67 154.274,-63.6323 164.463,-60.3592 173.874,-57.5054"/>
<polygon fill="midnightblue" stroke="midnightblue" points="96.514,-82.6928 88.7392,-89.8903 99.3054,-89.1121 96.514,-82.6928"/>
</g>
<!-- Node9 -->
<g id="node9" class="node"><title>Node9</title>
<g id="a_node9"><a xlink:href="../../dd/d7b/namespacecontrol.html#ad9c6cef485ad53d7676095006ee03e15" target="_top" xlink:title="control::blockPIDTest">
<polygon fill="white" stroke="black" points="152.5,-152.5 152.5,-171.5 264.5,-171.5 264.5,-152.5 152.5,-152.5"/>
<text text-anchor="middle" x="208.5" y="-159.5" font-family="Helvetica,sans-Serif" font-size="10.00">control::blockPIDTest</text>
</a>
</g>
</g>
<!-- Node1&#45;&gt;Node9 -->
<g id="edge8" class="edge"><title>Node1&#45;&gt;Node9</title>
<path fill="none" stroke="midnightblue" d="M98.0979,-124.179C112.821,-130.515 129.511,-137.376 145,-143 154.274,-146.368 164.463,-149.641 173.874,-152.495"/>
<polygon fill="midnightblue" stroke="midnightblue" points="99.3054,-120.888 88.7392,-120.11 96.514,-127.307 99.3054,-120.888"/>
</g>
<!-- Node10 -->
<g id="node10" class="node"><title>Node10</title>
<g id="a_node10"><a xlink:href="../../dd/d7b/namespacecontrol.html#a4305298b1841544e311b6c6a119074b2" target="_top" xlink:title="control::blockPITest">
<polygon fill="white" stroke="black" points="156.5,-114.5 156.5,-133.5 260.5,-133.5 260.5,-114.5 156.5,-114.5"/>
<text text-anchor="middle" x="208.5" y="-121.5" font-family="Helvetica,sans-Serif" font-size="10.00">control::blockPITest</text>
</a>
</g>
</g>
<!-- Node1&#45;&gt;Node10 -->
<g id="edge11" class="edge"><title>Node1&#45;&gt;Node10</title>
<path fill="none" stroke="midnightblue" d="M119.349,-112.981C131.722,-114.528 144.536,-116.13 156.434,-117.617"/>
<polygon fill="midnightblue" stroke="midnightblue" points="119.446,-109.466 109.09,-111.699 118.578,-116.412 119.446,-109.466"/>
</g>
<!-- Node11 -->
<g id="node11" class="node"><title>Node11</title>
<g id="a_node11"><a xlink:href="../../d9/de9/controllib__test__main_8cpp.html#a4305298b1841544e311b6c6a119074b2" target="_top" xlink:title="blockPITest">
<polygon fill="white" stroke="black" points="174,-0.5 174,-19.5 243,-19.5 243,-0.5 174,-0.5"/>
<text text-anchor="middle" x="208.5" y="-7.5" font-family="Helvetica,sans-Serif" font-size="10.00">blockPITest</text>
</a>
</g>
</g>
<!-- Node1&#45;&gt;Node11 -->
<g id="edge14" class="edge"><title>Node1&#45;&gt;Node11</title>
<path fill="none" stroke="midnightblue" d="M76.8173,-82.4492C93.8501,-65.6051 119.087,-43.1418 145,-29 153.86,-24.1648 164.114,-20.3951 173.721,-17.5345"/>
<polygon fill="midnightblue" stroke="midnightblue" points="74.1444,-80.1741 69.5957,-89.7428 79.1187,-85.0993 74.1444,-80.1741"/>
</g>
<!-- Node3 -->
<g id="node3" class="node"><title>Node3</title>
<g id="a_node3"><a xlink:href="../../dd/d7b/namespacecontrol.html#a213586553ff1fb69f41627504f7e7309" target="_top" xlink:title="control::basicBlocksTest">
<polygon fill="white" stroke="black" points="308,-171.5 308,-190.5 433,-190.5 433,-171.5 308,-171.5"/>
<text text-anchor="middle" x="370.5" y="-178.5" font-family="Helvetica,sans-Serif" font-size="10.00">control::basicBlocksTest</text>
</a>
</g>
</g>
<!-- Node2&#45;&gt;Node3 -->
<g id="edge2" class="edge"><title>Node2&#45;&gt;Node3</title>
<path fill="none" stroke="midnightblue" d="M282.275,-191.358C290.855,-190.339 299.548,-189.307 307.953,-188.309"/>
<polygon fill="midnightblue" stroke="midnightblue" points="281.794,-187.89 272.277,-192.545 282.62,-194.842 281.794,-187.89"/>
</g>
<!-- Node6 -->
<g id="node6" class="node"><title>Node6</title>
<g id="a_node6"><a xlink:href="../../d9/de9/controllib__test__main_8cpp.html#a213586553ff1fb69f41627504f7e7309" target="_top" xlink:title="basicBlocksTest">
<polygon fill="white" stroke="black" points="326,-133.5 326,-152.5 415,-152.5 415,-133.5 326,-133.5"/>
<text text-anchor="middle" x="370.5" y="-140.5" font-family="Helvetica,sans-Serif" font-size="10.00">basicBlocksTest</text>
</a>
</g>
</g>
<!-- Node2&#45;&gt;Node6 -->
<g id="edge5" class="edge"><title>Node2&#45;&gt;Node6</title>
<path fill="none" stroke="midnightblue" d="M254.959,-187.296C260.754,-185.352 266.558,-183.239 272,-181 288.731,-174.116 291.285,-168.922 308,-162 316.466,-158.494 325.819,-155.284 334.621,-152.541"/>
<polygon fill="midnightblue" stroke="midnightblue" points="253.731,-184.014 245.279,-190.403 255.87,-190.679 253.731,-184.014"/>
</g>
<!-- Node4 -->
<g id="node4" class="node"><title>Node4</title>
<g id="a_node4"><a xlink:href="../../d5/d69/tests__main_8h.html#a6d80dfe13b380ca974674e83117d03a9" target="_top" xlink:title="controllib_test_main">
<polygon fill="white" stroke="black" points="469,-171.5 469,-190.5 573,-190.5 573,-171.5 469,-171.5"/>
<text text-anchor="middle" x="521" y="-178.5" font-family="Helvetica,sans-Serif" font-size="10.00">controllib_test_main</text>
</a>
</g>
</g>
<!-- Node3&#45;&gt;Node4 -->
<g id="edge3" class="edge"><title>Node3&#45;&gt;Node4</title>
<path fill="none" stroke="midnightblue" d="M443.214,-181C451.797,-181 460.424,-181 468.638,-181"/>
<polygon fill="midnightblue" stroke="midnightblue" points="443.187,-177.5 433.187,-181 443.187,-184.5 443.187,-177.5"/>
</g>
<!-- Node5 -->
<g id="node5" class="node"><title>Node5</title>
<g id="a_node5"><a xlink:href="../../d9/de9/controllib__test__main_8cpp.html#aa61b9540192392bfe67a791ff3c65e05" target="_top" xlink:title="blockDelayTest">
<polygon fill="white" stroke="black" points="609,-171.5 609,-190.5 694,-190.5 694,-171.5 609,-171.5"/>
<text text-anchor="middle" x="651.5" y="-178.5" font-family="Helvetica,sans-Serif" font-size="10.00">blockDelayTest</text>
</a>
</g>
</g>
<!-- Node4&#45;&gt;Node5 -->
<g id="edge4" class="edge"><title>Node4&#45;&gt;Node5</title>
<path fill="none" stroke="midnightblue" d="M583.185,-181C591.788,-181 600.465,-181 608.597,-181"/>
<polygon fill="midnightblue" stroke="midnightblue" points="583.156,-177.5 573.156,-181 583.156,-184.5 583.156,-177.5"/>
</g>
<!-- Node9&#45;&gt;Node3 -->
<g id="edge9" class="edge"><title>Node9&#45;&gt;Node3</title>
<path fill="none" stroke="midnightblue" d="M274.511,-169.72C285.489,-171.024 296.858,-172.374 307.751,-173.667"/>
<polygon fill="midnightblue" stroke="midnightblue" points="274.906,-166.242 264.563,-168.539 274.08,-173.194 274.906,-166.242"/>
</g>
<!-- Node9&#45;&gt;Node6 -->
<g id="edge10" class="edge"><title>Node9&#45;&gt;Node6</title>
<path fill="none" stroke="midnightblue" d="M274.602,-154.269C291.885,-152.217 310.13,-150.05 325.954,-148.171"/>
<polygon fill="midnightblue" stroke="midnightblue" points="274.08,-150.806 264.563,-155.461 274.906,-157.758 274.08,-150.806"/>
</g>
<!-- Node10&#45;&gt;Node3 -->
<g id="edge12" class="edge"><title>Node10&#45;&gt;Node3</title>
<path fill="none" stroke="midnightblue" d="M254.959,-136.704C260.754,-138.648 266.558,-140.761 272,-143 288.731,-149.884 291.285,-155.078 308,-162 316.466,-165.506 325.819,-168.716 334.621,-171.459"/>
<polygon fill="midnightblue" stroke="midnightblue" points="255.87,-133.321 245.279,-133.597 253.731,-139.986 255.87,-133.321"/>
</g>
<!-- Node10&#45;&gt;Node6 -->
<g id="edge13" class="edge"><title>Node10&#45;&gt;Node6</title>
<path fill="none" stroke="midnightblue" d="M270.624,-131.258C289.041,-133.445 308.873,-135.801 325.906,-137.823"/>
<polygon fill="midnightblue" stroke="midnightblue" points="270.908,-127.768 260.565,-130.064 270.082,-134.719 270.908,-127.768"/>
</g>
</g>
</svg>
        <g id="navigator" transform="translate(0 0)" fill="#404254">
                <rect fill="#f2f5e9" fill-opacity="0.5" stroke="#606060" stroke-width=".5" x="0" y="0" width="60" height="60"/>
                <use id="zoomplus" xlink:href="#zoomPlus" x="17" y="9" onmousedown="handleZoom(evt,'in')"/>
                <use id="zoomminus" xlink:href="#zoomMin" x="42" y="9" onmousedown="handleZoom(evt,'out')"/>
                <use id="reset" xlink:href="#resetDef" x="30" y="36" onmousedown="handleReset()"/>
                <g id="arrowUp" xlink:href="#dirArrow" transform="translate(30 24)" onmousedown="handlePan(0,-1)">
                  <use xlink:href="#rim" fill="#404040">
                        <set attributeName="fill" to="#808080" begin="arrowUp.mouseover" end="arrowUp.mouseout"/>
                  </use>
                  <path fill="none" stroke="white" stroke-width="1.5" d="M0,-3.0v7 M-2.5,-0.5L0,-3.0L2.5,-0.5"/>
                </g>
                <g id="arrowRight" xlink:href="#dirArrow" transform="rotate(90) translate(36 -43)" onmousedown="handlePan(1,0)">
                  <use xlink:href="#rim" fill="#404040">
                        <set attributeName="fill" to="#808080" begin="arrowRight.mouseover" end="arrowRight.mouseout"/>
                  </use>
                  <path fill="none" stroke="white" stroke-width="1.5" d="M0,-3.0v7 M-2.5,-0.5L0,-3.0L2.5,-0.5"/>
                </g>
                <g id="arrowDown" xlink:href="#dirArrow" transform="rotate(180) translate(-30 -48)" onmousedown="handlePan(0,1)">
                  <use xlink:href="#rim" fill="#404040">
                        <set attributeName="fill" to="#808080" begin="arrowDown.mouseover" end="arrowDown.mouseout"/>
                  </use>
                  <path fill="none" stroke="white" stroke-width="1.5" d="M0,-3.0v7 M-2.5,-0.5L0,-3.0L2.5,-0.5"/>
                </g>
                <g id="arrowLeft" xlink:href="#dirArrow" transform="rotate(270) translate(-36 17)" onmousedown="handlePan(-1,0)">
                  <use xlink:href="#rim" fill="#404040">
                        <set attributeName="fill" to="#808080" begin="arrowLeft.mouseover" end="arrowLeft.mouseout"/>
                  </use>
                  <path fill="none" stroke="white" stroke-width="1.5" d="M0,-3.0v7 M-2.5,-0.5L0,-3.0L2.5,-0.5"/>
                </g>
        </g>
        <svg viewBox="0 0 15 15" width="100%" height="30px" preserveAspectRatio="xMaxYMin meet">
         <g id="arrow_out" transform="scale(0.3 0.3)">
          <a xlink:href="classcontrol_1_1_block_integral_abbd8d36f953cea0879a3497bdd0af21c_icgraph_org.svg" target="_base">
           <rect id="button" ry="5" rx="5" y="6" x="6" height="38" width="38"
                fill="#f2f5e9" fill-opacity="0.5" stroke="#606060" stroke-width="1.0"/>
           <path id="arrow"
             d="M 11.500037,31.436501 C 11.940474,20.09759 22.043105,11.32322 32.158766,21.979434 L 37.068811,17.246167 C 37.068811,17.246167 37.088388,32 37.088388,32 L 22.160133,31.978069 C 22.160133,31.978069 26.997745,27.140456 26.997745,27.140456 C 18.528582,18.264221 13.291696,25.230495 11.500037,31.436501 z"
             style="fill:#404040;"/>
          </a>
         </g>
        </svg>
</svg>
