<?xml version="1.0" encoding="UTF-8" standalone="no"?>
<!DOCTYPE svg PUBLIC "-//W3C//DTD SVG 1.1//EN"
 "http://www.w3.org/Graphics/SVG/1.1/DTD/svg11.dtd">
<!-- Generated by graphviz version 2.38.0 (20140413.2041)
 -->
<!-- Title: events::status::StatusDisplay Pages: 1 -->
<svg width="909pt" height="424pt"
 viewBox="0.00 0.00 909.00 424.00" xmlns="http://www.w3.org/2000/svg" xmlns:xlink="http://www.w3.org/1999/xlink">
<g id="graph0" class="graph" transform="scale(1 1) rotate(0) translate(4 420)">
<title>events::status::StatusDisplay</title>
<polygon fill="white" stroke="none" points="-4,4 -4,-420 905,-420 905,4 -4,4"/>
<!-- Node1 -->
<g id="node1" class="node"><title>Node1</title>
<polygon fill="#bfbfbf" stroke="black" points="352.5,-0.5 352.5,-189.5 498.5,-189.5 498.5,-0.5 352.5,-0.5"/>
<text text-anchor="middle" x="425.5" y="-177.5" font-family="Helvetica,sans-Serif" font-size="10.00">events::status::StatusDisplay</text>
<polyline fill="none" stroke="black" points="352.5,-170.5 498.5,-170.5 "/>
<text text-anchor="start" x="360.5" y="-158.5" font-family="Helvetica,sans-Serif" font-size="10.00">&#45; _old_gps_lock_valid</text>
<text text-anchor="start" x="360.5" y="-147.5" font-family="Helvetica,sans-Serif" font-size="10.00">&#45; _old_home_position</text>
<text text-anchor="start" x="360.5" y="-136.5" font-family="Helvetica,sans-Serif" font-size="10.00">_valid</text>
<text text-anchor="start" x="360.5" y="-125.5" font-family="Helvetica,sans-Serif" font-size="10.00">&#45; _low_battery</text>
<text text-anchor="start" x="360.5" y="-114.5" font-family="Helvetica,sans-Serif" font-size="10.00">&#45; _critical_battery</text>
<text text-anchor="start" x="360.5" y="-103.5" font-family="Helvetica,sans-Serif" font-size="10.00">&#45; _old_nav_state</text>
<text text-anchor="start" x="360.5" y="-92.5" font-family="Helvetica,sans-Serif" font-size="10.00">&#45; _old_battery_status</text>
<text text-anchor="start" x="360.5" y="-81.5" font-family="Helvetica,sans-Serif" font-size="10.00">_warning</text>
<text text-anchor="start" x="360.5" y="-70.5" font-family="Helvetica,sans-Serif" font-size="10.00">&#45; _led_control_pub</text>
<polyline fill="none" stroke="black" points="352.5,-63.5 498.5,-63.5 "/>
<text text-anchor="start" x="360.5" y="-51.5" font-family="Helvetica,sans-Serif" font-size="10.00">+ StatusDisplay()</text>
<text text-anchor="start" x="360.5" y="-40.5" font-family="Helvetica,sans-Serif" font-size="10.00">+ process()</text>
<text text-anchor="start" x="360.5" y="-29.5" font-family="Helvetica,sans-Serif" font-size="10.00"># check_for_updates()</text>
<text text-anchor="start" x="360.5" y="-18.5" font-family="Helvetica,sans-Serif" font-size="10.00"># set_leds()</text>
<text text-anchor="start" x="360.5" y="-7.5" font-family="Helvetica,sans-Serif" font-size="10.00"># publish()</text>
</g>
<!-- Node2 -->
<g id="node2" class="node"><title>Node2</title>
<g id="a_node2"><a xlink:href="../../da/d93/structled__control__s.html" target="_top" xlink:title="{led_control_s\n|+ timestamp\l+ led_mask\l+ color\l+ mode\l+ num_blinks\l+ priority\l+ _padding0\l|}">
<polygon fill="white" stroke="black" points="0,-265 0,-388 75,-388 75,-265 0,-265"/>
<text text-anchor="middle" x="37.5" y="-376" font-family="Helvetica,sans-Serif" font-size="10.00">led_control_s</text>
<polyline fill="none" stroke="black" points="0,-369 75,-369 "/>
<text text-anchor="start" x="8" y="-357" font-family="Helvetica,sans-Serif" font-size="10.00">+ timestamp</text>
<text text-anchor="start" x="8" y="-346" font-family="Helvetica,sans-Serif" font-size="10.00">+ led_mask</text>
<text text-anchor="start" x="8" y="-335" font-family="Helvetica,sans-Serif" font-size="10.00">+ color</text>
<text text-anchor="start" x="8" y="-324" font-family="Helvetica,sans-Serif" font-size="10.00">+ mode</text>
<text text-anchor="start" x="8" y="-313" font-family="Helvetica,sans-Serif" font-size="10.00">+ num_blinks</text>
<text text-anchor="start" x="8" y="-302" font-family="Helvetica,sans-Serif" font-size="10.00">+ priority</text>
<text text-anchor="start" x="8" y="-291" font-family="Helvetica,sans-Serif" font-size="10.00">+ _padding0</text>
<polyline fill="none" stroke="black" points="0,-284 75,-284 "/>
<text text-anchor="middle" x="37.5" y="-272" font-family="Helvetica,sans-Serif" font-size="10.00"> </text>
</a>
</g>
</g>
<!-- Node2&#45;&gt;Node1 -->
<g id="edge1" class="edge"><title>Node2&#45;&gt;Node1</title>
<path fill="none" stroke="#404040" d="M63.8476,-264.819C69.7637,-254.858 76.6549,-245.144 84.5,-237 153.371,-165.505 263.809,-128.9 340.257,-111.143"/>
<polygon fill="none" stroke="#404040" points="340.515,-111.085 345.491,-105.867 352.223,-108.453 347.246,-113.672 340.515,-111.085"/>
<text text-anchor="middle" x="145" y="-211" font-family="Helvetica,sans-Serif" font-size="10.00"> #_led_control</text>
</g>
<!-- Node3 -->
<g id="node3" class="node"><title>Node3</title>
<g id="a_node3"><a xlink:href="../../d7/dbb/structcpuload__s.html" target="_top" xlink:title="{cpuload_s\n|+ timestamp\l+ load\l+ ram_usage\l|}">
<polygon fill="white" stroke="black" points="93.5,-287 93.5,-366 167.5,-366 167.5,-287 93.5,-287"/>
<text text-anchor="middle" x="130.5" y="-354" font-family="Helvetica,sans-Serif" font-size="10.00">cpuload_s</text>
<polyline fill="none" stroke="black" points="93.5,-347 167.5,-347 "/>
<text text-anchor="start" x="101.5" y="-335" font-family="Helvetica,sans-Serif" font-size="10.00">+ timestamp</text>
<text text-anchor="start" x="101.5" y="-324" font-family="Helvetica,sans-Serif" font-size="10.00">+ load</text>
<text text-anchor="start" x="101.5" y="-313" font-family="Helvetica,sans-Serif" font-size="10.00">+ ram_usage</text>
<polyline fill="none" stroke="black" points="93.5,-306 167.5,-306 "/>
<text text-anchor="middle" x="130.5" y="-294" font-family="Helvetica,sans-Serif" font-size="10.00"> </text>
</a>
</g>
</g>
<!-- Node3&#45;&gt;Node1 -->
<g id="edge2" class="edge"><title>Node3&#45;&gt;Node1</title>
<path fill="none" stroke="#404040" d="M144.807,-286.689C152.36,-269.976 162.914,-251.082 176.5,-237 222.79,-189.018 288.977,-152.594 341.478,-128.796"/>
<polygon fill="none" stroke="#404040" points="341.497,-128.787 345.353,-122.694 352.461,-123.909 348.605,-130.003 341.497,-128.787"/>
<text text-anchor="middle" x="232" y="-211" font-family="Helvetica,sans-Serif" font-size="10.00"> #_cpu_load</text>
</g>
<!-- Node4 -->
<g id="node4" class="node"><title>Node4</title>
<g id="a_node4"><a xlink:href="../../da/d17/classevents_1_1_subscriber_handler.html" target="_top" xlink:title="Contains a list of uORB subscriptions and maintains their update state. ">
<polygon fill="white" stroke="black" points="185.5,-237.5 185.5,-415.5 335.5,-415.5 335.5,-237.5 185.5,-237.5"/>
<text text-anchor="middle" x="260.5" y="-403.5" font-family="Helvetica,sans-Serif" font-size="10.00">events::SubscriberHandler</text>
<polyline fill="none" stroke="black" points="185.5,-396.5 335.5,-396.5 "/>
<text text-anchor="start" x="193.5" y="-384.5" font-family="Helvetica,sans-Serif" font-size="10.00">&#45; _battery_status_sub</text>
<text text-anchor="start" x="193.5" y="-373.5" font-family="Helvetica,sans-Serif" font-size="10.00">&#45; _cpuload_sub</text>
<text text-anchor="start" x="193.5" y="-362.5" font-family="Helvetica,sans-Serif" font-size="10.00">&#45; _vehicle_command_sub</text>
<text text-anchor="start" x="193.5" y="-351.5" font-family="Helvetica,sans-Serif" font-size="10.00">&#45; _vehicle_status_sub</text>
<text text-anchor="start" x="193.5" y="-340.5" font-family="Helvetica,sans-Serif" font-size="10.00">&#45; _vehicle_status_flags_sub</text>
<text text-anchor="start" x="193.5" y="-329.5" font-family="Helvetica,sans-Serif" font-size="10.00">&#45; _update_bitfield</text>
<polyline fill="none" stroke="black" points="185.5,-322.5 335.5,-322.5 "/>
<text text-anchor="start" x="193.5" y="-310.5" font-family="Helvetica,sans-Serif" font-size="10.00">+ subscribe()</text>
<text text-anchor="start" x="193.5" y="-299.5" font-family="Helvetica,sans-Serif" font-size="10.00">+ unsubscribe()</text>
<text text-anchor="start" x="193.5" y="-288.5" font-family="Helvetica,sans-Serif" font-size="10.00">+ check_for_updates()</text>
<text text-anchor="start" x="193.5" y="-277.5" font-family="Helvetica,sans-Serif" font-size="10.00">+ get_battery_status_sub()</text>
<text text-anchor="start" x="193.5" y="-266.5" font-family="Helvetica,sans-Serif" font-size="10.00">+ get_cpuload_sub()</text>
<text text-anchor="start" x="193.5" y="-255.5" font-family="Helvetica,sans-Serif" font-size="10.00">+ get_vehicle_command_sub()</text>
<text text-anchor="start" x="193.5" y="-244.5" font-family="Helvetica,sans-Serif" font-size="10.00">and 7 more...</text>
</a>
</g>
</g>
<!-- Node4&#45;&gt;Node1 -->
<g id="edge3" class="edge"><title>Node4&#45;&gt;Node1</title>
<path fill="none" stroke="#404040" d="M308.181,-237.343C314.39,-227.26 320.896,-217.279 327.5,-208 332.872,-200.451 338.662,-192.82 344.648,-185.277"/>
<polygon fill="none" stroke="#404040" points="344.776,-185.118 345.435,-177.937 352.317,-175.783 351.658,-182.964 344.776,-185.118"/>
<text text-anchor="middle" x="374.5" y="-211" font-family="Helvetica,sans-Serif" font-size="10.00"> &#45;_subscriber_handler</text>
</g>
<!-- Node5 -->
<g id="node5" class="node"><title>Node5</title>
<g id="a_node5"><a xlink:href="../../d1/d4b/structvehicle__status__flags__s.html" target="_top" xlink:title="{vehicle_status_flags_s\n|+ timestamp\l+ condition_calibration\l_enabled\l+ condition_system_sensors\l_initialized\l+ condition_system_hotplug\l_timeout\l+ condition_system_returned\l_to_home\l+ condition_auto_mission\l_available\land 23 more...\l|}">
<polygon fill="white" stroke="black" points="354,-237.5 354,-415.5 497,-415.5 497,-237.5 354,-237.5"/>
<text text-anchor="middle" x="425.5" y="-403.5" font-family="Helvetica,sans-Serif" font-size="10.00">vehicle_status_flags_s</text>
<polyline fill="none" stroke="black" points="354,-396.5 497,-396.5 "/>
<text text-anchor="start" x="362" y="-384.5" font-family="Helvetica,sans-Serif" font-size="10.00">+ timestamp</text>
<text text-anchor="start" x="362" y="-373.5" font-family="Helvetica,sans-Serif" font-size="10.00">+ condition_calibration</text>
<text text-anchor="start" x="362" y="-362.5" font-family="Helvetica,sans-Serif" font-size="10.00">_enabled</text>
<text text-anchor="start" x="362" y="-351.5" font-family="Helvetica,sans-Serif" font-size="10.00">+ condition_system_sensors</text>
<text text-anchor="start" x="362" y="-340.5" font-family="Helvetica,sans-Serif" font-size="10.00">_initialized</text>
<text text-anchor="start" x="362" y="-329.5" font-family="Helvetica,sans-Serif" font-size="10.00">+ condition_system_hotplug</text>
<text text-anchor="start" x="362" y="-318.5" font-family="Helvetica,sans-Serif" font-size="10.00">_timeout</text>
<text text-anchor="start" x="362" y="-307.5" font-family="Helvetica,sans-Serif" font-size="10.00">+ condition_system_returned</text>
<text text-anchor="start" x="362" y="-296.5" font-family="Helvetica,sans-Serif" font-size="10.00">_to_home</text>
<text text-anchor="start" x="362" y="-285.5" font-family="Helvetica,sans-Serif" font-size="10.00">+ condition_auto_mission</text>
<text text-anchor="start" x="362" y="-274.5" font-family="Helvetica,sans-Serif" font-size="10.00">_available</text>
<text text-anchor="start" x="362" y="-263.5" font-family="Helvetica,sans-Serif" font-size="10.00">and 23 more...</text>
<polyline fill="none" stroke="black" points="354,-256.5 497,-256.5 "/>
<text text-anchor="middle" x="425.5" y="-244.5" font-family="Helvetica,sans-Serif" font-size="10.00"> </text>
</a>
</g>
</g>
<!-- Node5&#45;&gt;Node1 -->
<g id="edge4" class="edge"><title>Node5&#45;&gt;Node1</title>
<path fill="none" stroke="#404040" d="M425.5,-237.426C425.5,-225.792 425.5,-213.772 425.5,-201.879"/>
<polygon fill="none" stroke="#404040" points="425.5,-201.553 421.5,-195.553 425.5,-189.553 429.5,-195.553 425.5,-201.553"/>
<text text-anchor="middle" x="477" y="-211" font-family="Helvetica,sans-Serif" font-size="10.00"> #_vehicle_status_flags</text>
</g>
<!-- Node6 -->
<g id="node6" class="node"><title>Node6</title>
<g id="a_node6"><a xlink:href="../../d0/d5c/structbattery__status__s.html" target="_top" xlink:title="{battery_status_s\n|+ timestamp\l+ voltage_v\l+ voltage_filtered_v\l+ current_a\l+ current_filtered_a\l+ average_current_a\land 16 more...\l|}">
<polygon fill="white" stroke="black" points="515.5,-265 515.5,-388 621.5,-388 621.5,-265 515.5,-265"/>
<text text-anchor="middle" x="568.5" y="-376" font-family="Helvetica,sans-Serif" font-size="10.00">battery_status_s</text>
<polyline fill="none" stroke="black" points="515.5,-369 621.5,-369 "/>
<text text-anchor="start" x="523.5" y="-357" font-family="Helvetica,sans-Serif" font-size="10.00">+ timestamp</text>
<text text-anchor="start" x="523.5" y="-346" font-family="Helvetica,sans-Serif" font-size="10.00">+ voltage_v</text>
<text text-anchor="start" x="523.5" y="-335" font-family="Helvetica,sans-Serif" font-size="10.00">+ voltage_filtered_v</text>
<text text-anchor="start" x="523.5" y="-324" font-family="Helvetica,sans-Serif" font-size="10.00">+ current_a</text>
<text text-anchor="start" x="523.5" y="-313" font-family="Helvetica,sans-Serif" font-size="10.00">+ current_filtered_a</text>
<text text-anchor="start" x="523.5" y="-302" font-family="Helvetica,sans-Serif" font-size="10.00">+ average_current_a</text>
<text text-anchor="start" x="523.5" y="-291" font-family="Helvetica,sans-Serif" font-size="10.00">and 16 more...</text>
<polyline fill="none" stroke="black" points="515.5,-284 621.5,-284 "/>
<text text-anchor="middle" x="568.5" y="-272" font-family="Helvetica,sans-Serif" font-size="10.00"> </text>
</a>
</g>
</g>
<!-- Node6&#45;&gt;Node1 -->
<g id="edge5" class="edge"><title>Node6&#45;&gt;Node1</title>
<path fill="none" stroke="#404040" d="M555.763,-264.983C550.264,-245.961 542.691,-225.396 532.5,-208 525.225,-195.583 516.316,-183.462 506.774,-172.058"/>
<polygon fill="none" stroke="#404040" points="506.488,-171.727 499.536,-169.81 498.632,-162.655 505.583,-164.573 506.488,-171.727"/>
<text text-anchor="middle" x="575.5" y="-211" font-family="Helvetica,sans-Serif" font-size="10.00"> #_battery_status</text>
</g>
<!-- Node7 -->
<g id="node7" class="node"><title>Node7</title>
<g id="a_node7"><a xlink:href="../../d8/dee/structvehicle__status__s.html" target="_top" xlink:title="{vehicle_status_s\n|+ timestamp\l+ onboard_control_sensors\l_present\l+ onboard_control_sensors\l_enabled\l+ onboard_control_sensors\l_health\l+ nav_state\l+ arming_state\land 18 more...\l|}">
<polygon fill="white" stroke="black" points="639.5,-248.5 639.5,-404.5 773.5,-404.5 773.5,-248.5 639.5,-248.5"/>
<text text-anchor="middle" x="706.5" y="-392.5" font-family="Helvetica,sans-Serif" font-size="10.00">vehicle_status_s</text>
<polyline fill="none" stroke="black" points="639.5,-385.5 773.5,-385.5 "/>
<text text-anchor="start" x="647.5" y="-373.5" font-family="Helvetica,sans-Serif" font-size="10.00">+ timestamp</text>
<text text-anchor="start" x="647.5" y="-362.5" font-family="Helvetica,sans-Serif" font-size="10.00">+ onboard_control_sensors</text>
<text text-anchor="start" x="647.5" y="-351.5" font-family="Helvetica,sans-Serif" font-size="10.00">_present</text>
<text text-anchor="start" x="647.5" y="-340.5" font-family="Helvetica,sans-Serif" font-size="10.00">+ onboard_control_sensors</text>
<text text-anchor="start" x="647.5" y="-329.5" font-family="Helvetica,sans-Serif" font-size="10.00">_enabled</text>
<text text-anchor="start" x="647.5" y="-318.5" font-family="Helvetica,sans-Serif" font-size="10.00">+ onboard_control_sensors</text>
<text text-anchor="start" x="647.5" y="-307.5" font-family="Helvetica,sans-Serif" font-size="10.00">_health</text>
<text text-anchor="start" x="647.5" y="-296.5" font-family="Helvetica,sans-Serif" font-size="10.00">+ nav_state</text>
<text text-anchor="start" x="647.5" y="-285.5" font-family="Helvetica,sans-Serif" font-size="10.00">+ arming_state</text>
<text text-anchor="start" x="647.5" y="-274.5" font-family="Helvetica,sans-Serif" font-size="10.00">and 18 more...</text>
<polyline fill="none" stroke="black" points="639.5,-267.5 773.5,-267.5 "/>
<text text-anchor="middle" x="706.5" y="-255.5" font-family="Helvetica,sans-Serif" font-size="10.00"> </text>
</a>
</g>
</g>
<!-- Node7&#45;&gt;Node1 -->
<g id="edge6" class="edge"><title>Node7&#45;&gt;Node1</title>
<path fill="none" stroke="#404040" d="M655.052,-248.37C643.633,-234.053 630.904,-219.883 617.5,-208 585.442,-179.581 545.082,-154.747 509.648,-135.734"/>
<polygon fill="none" stroke="#404040" points="509.437,-135.623 502.264,-136.361 498.824,-130.023 505.998,-129.285 509.437,-135.623"/>
<text text-anchor="middle" x="668" y="-211" font-family="Helvetica,sans-Serif" font-size="10.00"> #_vehicle_status</text>
</g>
<!-- Node8 -->
<g id="node8" class="node"><title>Node8</title>
<g id="a_node8"><a xlink:href="../../db/db4/structvehicle__attitude__s.html" target="_top" xlink:title="{vehicle_attitude_s\n|+ timestamp\l+ rollspeed\l+ pitchspeed\l+ yawspeed\l+ q\l+ delta_q_reset\l+ quat_reset_counter\l+ _padding0\l|}">
<polygon fill="white" stroke="black" points="792,-259.5 792,-393.5 901,-393.5 901,-259.5 792,-259.5"/>
<text text-anchor="middle" x="846.5" y="-381.5" font-family="Helvetica,sans-Serif" font-size="10.00">vehicle_attitude_s</text>
<polyline fill="none" stroke="black" points="792,-374.5 901,-374.5 "/>
<text text-anchor="start" x="800" y="-362.5" font-family="Helvetica,sans-Serif" font-size="10.00">+ timestamp</text>
<text text-anchor="start" x="800" y="-351.5" font-family="Helvetica,sans-Serif" font-size="10.00">+ rollspeed</text>
<text text-anchor="start" x="800" y="-340.5" font-family="Helvetica,sans-Serif" font-size="10.00">+ pitchspeed</text>
<text text-anchor="start" x="800" y="-329.5" font-family="Helvetica,sans-Serif" font-size="10.00">+ yawspeed</text>
<text text-anchor="start" x="800" y="-318.5" font-family="Helvetica,sans-Serif" font-size="10.00">+ q</text>
<text text-anchor="start" x="800" y="-307.5" font-family="Helvetica,sans-Serif" font-size="10.00">+ delta_q_reset</text>
<text text-anchor="start" x="800" y="-296.5" font-family="Helvetica,sans-Serif" font-size="10.00">+ quat_reset_counter</text>
<text text-anchor="start" x="800" y="-285.5" font-family="Helvetica,sans-Serif" font-size="10.00">+ _padding0</text>
<polyline fill="none" stroke="black" points="792,-278.5 901,-278.5 "/>
<text text-anchor="middle" x="846.5" y="-266.5" font-family="Helvetica,sans-Serif" font-size="10.00"> </text>
</a>
</g>
</g>
<!-- Node8&#45;&gt;Node1 -->
<g id="edge7" class="edge"><title>Node8&#45;&gt;Node1</title>
<path fill="none" stroke="#404040" d="M805.284,-259.383C798.353,-251.175 790.714,-243.425 782.5,-237 701.289,-173.476 587.838,-135.233 510.782,-114.917"/>
<polygon fill="none" stroke="#404040" points="510.358,-114.807 503.549,-117.181 498.739,-111.809 505.548,-109.435 510.358,-114.807"/>
<text text-anchor="middle" x="798.5" y="-211" font-family="Helvetica,sans-Serif" font-size="10.00"> #_vehicle_attitude</text>
</g>
</g>
</svg>
