<?xml version="1.0" encoding="UTF-8" standalone="no"?>
<!DOCTYPE svg PUBLIC "-//W3C//DTD SVG 1.1//EN"
 "http://www.w3.org/Graphics/SVG/1.1/DTD/svg11.dtd">
<!-- Generated by graphviz version 2.40.1 (20161225.0304)
 -->
<!-- Title: FixedwingAttitudeControl::custom_command Pages: 1 -->
<svg width="296pt" height="39pt"
 viewBox="0.00 0.00 296.00 39.00" xmlns="http://www.w3.org/2000/svg" xmlns:xlink="http://www.w3.org/1999/xlink">
<g id="graph0" class="graph" transform="scale(1 1) rotate(0) translate(4 35)">
<title>FixedwingAttitudeControl::custom_command</title>
<polygon fill="#ffffff" stroke="transparent" points="-4,4 -4,-35 292,-35 292,4 -4,4"/>
<!-- Node178 -->
<g id="node1" class="node">
<title>Node178</title>
<polygon fill="#bfbfbf" stroke="#000000" points="0,-.5 0,-30.5 126,-30.5 126,-.5 0,-.5"/>
<text text-anchor="start" x="8" y="-18.5" font-family="Helvetica,sans-Serif" font-size="10.00" fill="#000000">FixedwingAttitudeControl</text>
<text text-anchor="middle" x="63" y="-7.5" font-family="Helvetica,sans-Serif" font-size="10.00" fill="#000000">::custom_command</text>
</g>
<!-- Node179 -->
<g id="node2" class="node">
<title>Node179</title>
<g id="a_node2"><a xlink:href="../../d3/d25/class_fixedwing_attitude_control.html#a35d38ca30d91e705f59fe38c91083d6f" target="_top" xlink:title="FixedwingAttitudeControl\l::print_usage">
<polygon fill="#ffffff" stroke="#000000" points="162,-.5 162,-30.5 288,-30.5 288,-.5 162,-.5"/>
<text text-anchor="start" x="170" y="-18.5" font-family="Helvetica,sans-Serif" font-size="10.00" fill="#000000">FixedwingAttitudeControl</text>
<text text-anchor="middle" x="225" y="-7.5" font-family="Helvetica,sans-Serif" font-size="10.00" fill="#000000">::print_usage</text>
</a>
</g>
</g>
<!-- Node178&#45;&gt;Node179 -->
<g id="edge1" class="edge">
<title>Node178&#45;&gt;Node179</title>
<path fill="none" stroke="#191970" d="M126.0973,-15.5C134.4345,-15.5 143.0381,-15.5 151.5304,-15.5"/>
<polygon fill="#191970" stroke="#191970" points="151.8084,-19.0001 161.8084,-15.5 151.8084,-12.0001 151.8084,-19.0001"/>
</g>
</g>
</svg>
