<?xml version="1.0" encoding="UTF-8" standalone="no"?>
<!DOCTYPE svg PUBLIC "-//W3C//DTD SVG 1.1//EN"
 "http://www.w3.org/Graphics/SVG/1.1/DTD/svg11.dtd">
<!-- Generated by graphviz version 2.38.0 (20140413.2041)
 -->
<!-- Title: MD25::setMotor2Speed Pages: 1 -->
<svg width="274pt" height="66pt"
 viewBox="0.00 0.00 274.00 66.00" xmlns="http://www.w3.org/2000/svg" xmlns:xlink="http://www.w3.org/1999/xlink">
<g id="graph0" class="graph" transform="scale(1 1) rotate(0) translate(4 62)">
<title>MD25::setMotor2Speed</title>
<polygon fill="white" stroke="none" points="-4,4 -4,-62 270,-62 270,4 -4,4"/>
<!-- Node1 -->
<g id="node1" class="node"><title>Node1</title>
<polygon fill="#bfbfbf" stroke="black" points="0,-19.5 0,-38.5 120,-38.5 120,-19.5 0,-19.5"/>
<text text-anchor="middle" x="60" y="-26.5" font-family="Helvetica,sans-Serif" font-size="10.00">MD25::setMotor2Speed</text>
</g>
<!-- Node2 -->
<g id="node2" class="node"><title>Node2</title>
<g id="a_node2"><a xlink:href="../../d7/d58/class_m_d25.html#a60f2611e97fe89b18f7a6a49935008a6" target="_top" xlink:title="MD25::_normToUint8">
<polygon fill="white" stroke="black" points="156,-38.5 156,-57.5 266,-57.5 266,-38.5 156,-38.5"/>
<text text-anchor="middle" x="211" y="-45.5" font-family="Helvetica,sans-Serif" font-size="10.00">MD25::_normToUint8</text>
</a>
</g>
</g>
<!-- Node1&#45;&gt;Node2 -->
<g id="edge1" class="edge"><title>Node1&#45;&gt;Node2</title>
<path fill="none" stroke="midnightblue" d="M120.317,-36.5639C128.625,-37.6233 137.196,-38.7163 145.593,-39.7871"/>
<polygon fill="midnightblue" stroke="midnightblue" points="145.358,-43.2853 155.72,-41.0784 146.243,-36.3415 145.358,-43.2853"/>
</g>
<!-- Node3 -->
<g id="node3" class="node"><title>Node3</title>
<g id="a_node3"><a xlink:href="../../d7/d58/class_m_d25.html#a99c2342408bac53bef6fe41533787edf" target="_top" xlink:title="MD25::_writeUint8">
<polygon fill="white" stroke="black" points="162,-0.5 162,-19.5 260,-19.5 260,-0.5 162,-0.5"/>
<text text-anchor="middle" x="211" y="-7.5" font-family="Helvetica,sans-Serif" font-size="10.00">MD25::_writeUint8</text>
</a>
</g>
</g>
<!-- Node1&#45;&gt;Node3 -->
<g id="edge2" class="edge"><title>Node1&#45;&gt;Node3</title>
<path fill="none" stroke="midnightblue" d="M120.317,-21.4361C130.664,-20.1167 141.419,-18.7452 151.738,-17.4294"/>
<polygon fill="midnightblue" stroke="midnightblue" points="152.403,-20.8731 161.88,-16.1362 151.517,-13.9293 152.403,-20.8731"/>
</g>
</g>
</svg>
