<?xml version="1.0" encoding="UTF-8" standalone="no"?>
<!DOCTYPE svg PUBLIC "-//W3C//DTD SVG 1.1//EN"
 "http://www.w3.org/Graphics/SVG/1.1/DTD/svg11.dtd">
<!-- Generated by graphviz version 2.38.0 (20140413.2041)
 -->
<!-- Title: esc_status_s Pages: 1 -->
<svg width="121pt" height="281pt"
 viewBox="0.00 0.00 121.00 281.00" xmlns="http://www.w3.org/2000/svg" xmlns:xlink="http://www.w3.org/1999/xlink">
<g id="graph0" class="graph" transform="scale(1 1) rotate(0) translate(4 277)">
<title>esc_status_s</title>
<polygon fill="white" stroke="none" points="-4,4 -4,-277 117,-277 117,4 -4,4"/>
<!-- Node1 -->
<g id="node1" class="node"><title>Node1</title>
<polygon fill="#bfbfbf" stroke="black" points="0,-0.5 0,-101.5 113,-101.5 113,-0.5 0,-0.5"/>
<text text-anchor="middle" x="56.5" y="-89.5" font-family="Helvetica,sans-Serif" font-size="10.00">esc_status_s</text>
<polyline fill="none" stroke="black" points="0,-82.5 113,-82.5 "/>
<text text-anchor="start" x="8" y="-70.5" font-family="Helvetica,sans-Serif" font-size="10.00">+ timestamp</text>
<text text-anchor="start" x="8" y="-59.5" font-family="Helvetica,sans-Serif" font-size="10.00">+ counter</text>
<text text-anchor="start" x="8" y="-48.5" font-family="Helvetica,sans-Serif" font-size="10.00">+ esc_count</text>
<text text-anchor="start" x="8" y="-37.5" font-family="Helvetica,sans-Serif" font-size="10.00">+ esc_connectiontype</text>
<text text-anchor="start" x="8" y="-26.5" font-family="Helvetica,sans-Serif" font-size="10.00">+ _padding0</text>
<polyline fill="none" stroke="black" points="0,-19.5 113,-19.5 "/>
<text text-anchor="middle" x="56.5" y="-7.5" font-family="Helvetica,sans-Serif" font-size="10.00"> </text>
</g>
<!-- Node2 -->
<g id="node2" class="node"><title>Node2</title>
<g id="a_node2"><a xlink:href="../../da/dc3/structesc__report__s.html" target="_top" xlink:title="{esc_report_s\n|+ timestamp\l+ esc_errorcount\l+ esc_rpm\l+ esc_voltage\l+ esc_current\l+ esc_temperature\land 7 more...\l|}">
<polygon fill="white" stroke="black" points="7.5,-149.5 7.5,-272.5 105.5,-272.5 105.5,-149.5 7.5,-149.5"/>
<text text-anchor="middle" x="56.5" y="-260.5" font-family="Helvetica,sans-Serif" font-size="10.00">esc_report_s</text>
<polyline fill="none" stroke="black" points="7.5,-253.5 105.5,-253.5 "/>
<text text-anchor="start" x="15.5" y="-241.5" font-family="Helvetica,sans-Serif" font-size="10.00">+ timestamp</text>
<text text-anchor="start" x="15.5" y="-230.5" font-family="Helvetica,sans-Serif" font-size="10.00">+ esc_errorcount</text>
<text text-anchor="start" x="15.5" y="-219.5" font-family="Helvetica,sans-Serif" font-size="10.00">+ esc_rpm</text>
<text text-anchor="start" x="15.5" y="-208.5" font-family="Helvetica,sans-Serif" font-size="10.00">+ esc_voltage</text>
<text text-anchor="start" x="15.5" y="-197.5" font-family="Helvetica,sans-Serif" font-size="10.00">+ esc_current</text>
<text text-anchor="start" x="15.5" y="-186.5" font-family="Helvetica,sans-Serif" font-size="10.00">+ esc_temperature</text>
<text text-anchor="start" x="15.5" y="-175.5" font-family="Helvetica,sans-Serif" font-size="10.00">and 7 more...</text>
<polyline fill="none" stroke="black" points="7.5,-168.5 105.5,-168.5 "/>
<text text-anchor="middle" x="56.5" y="-156.5" font-family="Helvetica,sans-Serif" font-size="10.00"> </text>
</a>
</g>
</g>
<!-- Node2&#45;&gt;Node1 -->
<g id="edge1" class="edge"><title>Node2&#45;&gt;Node1</title>
<path fill="none" stroke="#404040" d="M56.5,-149.365C56.5,-137.797 56.5,-125.674 56.5,-114.062"/>
<polygon fill="none" stroke="#404040" points="56.5001,-113.714 52.5,-107.714 56.5,-101.714 60.5,-107.714 56.5001,-113.714"/>
<text text-anchor="middle" x="69" y="-123" font-family="Helvetica,sans-Serif" font-size="10.00"> +esc</text>
</g>
</g>
</svg>
