<?xml version="1.0" encoding="UTF-8" standalone="no"?>
<!DOCTYPE svg PUBLIC "-//W3C//DTD SVG 1.1//EN"
 "http://www.w3.org/Graphics/SVG/1.1/DTD/svg11.dtd">
<!-- Generated by graphviz version 2.38.0 (20140413.2041)
 -->
<!-- Title: EstimatorInterface::setOpticalFlowData Pages: 1 -->
<svg width="267pt" height="142pt"
 viewBox="0.00 0.00 267.00 142.00" xmlns="http://www.w3.org/2000/svg" xmlns:xlink="http://www.w3.org/1999/xlink">
<g id="graph0" class="graph" transform="scale(1 1) rotate(0) translate(4 138)">
<title>EstimatorInterface::setOpticalFlowData</title>
<polygon fill="white" stroke="none" points="-4,4 -4,-138 263,-138 263,4 -4,4"/>
<!-- Node1 -->
<g id="node1" class="node"><title>Node1</title>
<polygon fill="#bfbfbf" stroke="black" points="0,-52 0,-82 109,-82 109,-52 0,-52"/>
<text text-anchor="start" x="8" y="-70" font-family="Helvetica,sans-Serif" font-size="10.00">EstimatorInterface</text>
<text text-anchor="middle" x="54.5" y="-59" font-family="Helvetica,sans-Serif" font-size="10.00">::setOpticalFlowData</text>
</g>
<!-- Node2 -->
<g id="node2" class="node"><title>Node2</title>
<g id="a_node2"><a xlink:href="../../d4/d8f/class_ring_buffer.html#a6028285635bcaa1bc5c75ac8b457cb8b" target="_top" xlink:title="RingBuffer::allocate">
<polygon fill="white" stroke="black" points="150.5,-114.5 150.5,-133.5 253.5,-133.5 253.5,-114.5 150.5,-114.5"/>
<text text-anchor="middle" x="202" y="-121.5" font-family="Helvetica,sans-Serif" font-size="10.00">RingBuffer::allocate</text>
</a>
</g>
</g>
<!-- Node1&#45;&gt;Node2 -->
<g id="edge1" class="edge"><title>Node1&#45;&gt;Node2</title>
<path fill="none" stroke="midnightblue" d="M89.2582,-82.0349C105.918,-89.2747 126.388,-97.9027 145,-105 150.469,-107.086 156.28,-109.185 162.009,-111.188"/>
<polygon fill="midnightblue" stroke="midnightblue" points="160.904,-114.509 171.499,-114.449 163.179,-107.889 160.904,-114.509"/>
</g>
<!-- Node3 -->
<g id="node3" class="node"><title>Node3</title>
<g id="a_node3"><a xlink:href="../../d8/da1/integration_8cpp.html#af5ba872dd09316732300733cc164ac1a" target="_top" xlink:title="f">
<polygon fill="white" stroke="black" points="187.5,-76.5 187.5,-95.5 216.5,-95.5 216.5,-76.5 187.5,-76.5"/>
<text text-anchor="middle" x="202" y="-83.5" font-family="Helvetica,sans-Serif" font-size="10.00">f</text>
</a>
</g>
</g>
<!-- Node1&#45;&gt;Node3 -->
<g id="edge2" class="edge"><title>Node1&#45;&gt;Node3</title>
<path fill="none" stroke="midnightblue" d="M109.265,-74.0209C132.705,-77.0817 158.971,-80.5117 177.371,-82.9144"/>
<polygon fill="midnightblue" stroke="midnightblue" points="177.096,-86.4081 187.465,-84.2325 178.002,-79.467 177.096,-86.4081"/>
</g>
<!-- Node4 -->
<g id="node4" class="node"><title>Node4</title>
<g id="a_node4"><a xlink:href="../../d4/d8f/class_ring_buffer.html#a8144e160c580bedcd051d9e4a76be332" target="_top" xlink:title="RingBuffer::get_length">
<polygon fill="white" stroke="black" points="145,-38.5 145,-57.5 259,-57.5 259,-38.5 145,-38.5"/>
<text text-anchor="middle" x="202" y="-45.5" font-family="Helvetica,sans-Serif" font-size="10.00">RingBuffer::get_length</text>
</a>
</g>
</g>
<!-- Node1&#45;&gt;Node4 -->
<g id="edge3" class="edge"><title>Node1&#45;&gt;Node4</title>
<path fill="none" stroke="midnightblue" d="M109.265,-59.9791C117.438,-58.9119 125.954,-57.7998 134.36,-56.7021"/>
<polygon fill="midnightblue" stroke="midnightblue" points="135.067,-60.1396 144.53,-55.3742 134.16,-53.1986 135.067,-60.1396"/>
</g>
<!-- Node5 -->
<g id="node5" class="node"><title>Node5</title>
<g id="a_node5"><a xlink:href="../../d4/d8f/class_ring_buffer.html#a0ffbb0f1986c0641f9daade0dda2a013" target="_top" xlink:title="RingBuffer::push">
<polygon fill="white" stroke="black" points="157,-0.5 157,-19.5 247,-19.5 247,-0.5 157,-0.5"/>
<text text-anchor="middle" x="202" y="-7.5" font-family="Helvetica,sans-Serif" font-size="10.00">RingBuffer::push</text>
</a>
</g>
</g>
<!-- Node1&#45;&gt;Node5 -->
<g id="edge4" class="edge"><title>Node1&#45;&gt;Node5</title>
<path fill="none" stroke="midnightblue" d="M89.2582,-51.9651C105.918,-44.7253 126.388,-36.0973 145,-29 150.469,-26.9144 156.28,-24.8153 162.009,-22.8122"/>
<polygon fill="midnightblue" stroke="midnightblue" points="163.179,-26.1112 171.499,-19.5511 160.904,-19.4912 163.179,-26.1112"/>
</g>
</g>
</svg>
