<?xml version="1.0" encoding="UTF-8" standalone="no"?>
<!DOCTYPE svg PUBLIC "-//W3C//DTD SVG 1.1//EN"
 "http://www.w3.org/Graphics/SVG/1.1/DTD/svg11.dtd">
<!-- Generated by graphviz version 2.40.1 (20161225.0304)
 -->
<!-- Title: src/drivers/irlock/irlock.cpp Pages: 1 -->
<svg width="1401pt" height="497pt"
 viewBox="0.00 0.00 1400.50 497.00" xmlns="http://www.w3.org/2000/svg" xmlns:xlink="http://www.w3.org/1999/xlink">
<g id="graph0" class="graph" transform="scale(1 1) rotate(0) translate(4 493)">
<title>src/drivers/irlock/irlock.cpp</title>
<polygon fill="#ffffff" stroke="transparent" points="-4,4 -4,-493 1396.5,-493 1396.5,4 -4,4"/>
<!-- Node0 -->
<g id="node1" class="node">
<title>Node0</title>
<polygon fill="#bfbfbf" stroke="#000000" points="650,-458.5 650,-488.5 739,-488.5 739,-458.5 650,-458.5"/>
<text text-anchor="start" x="658" y="-476.5" font-family="Helvetica,sans-Serif" font-size="10.00" fill="#000000">src/drivers/irlock</text>
<text text-anchor="middle" x="694.5" y="-465.5" font-family="Helvetica,sans-Serif" font-size="10.00" fill="#000000">/irlock.cpp</text>
</g>
<!-- Node1 -->
<g id="node2" class="node">
<title>Node1</title>
<polygon fill="#ffffff" stroke="#bfbfbf" points="0,-67.5 0,-86.5 49,-86.5 49,-67.5 0,-67.5"/>
<text text-anchor="middle" x="24.5" y="-74.5" font-family="Helvetica,sans-Serif" font-size="10.00" fill="#000000">string.h</text>
</g>
<!-- Node0&#45;&gt;Node1 -->
<g id="edge1" class="edge">
<title>Node0&#45;&gt;Node1</title>
<path fill="none" stroke="#191970" d="M649.9489,-468.7536C498.8896,-452.0686 15.5,-393.5915 15.5,-328.5 15.5,-328.5 15.5,-328.5 15.5,-200 15.5,-163.4018 19.5123,-120.8411 22.179,-96.5962"/>
<polygon fill="#191970" stroke="#191970" points="25.6688,-96.8837 23.3234,-86.5517 18.7138,-96.0912 25.6688,-96.8837"/>
</g>
<!-- Node2 -->
<g id="node3" class="node">
<title>Node2</title>
<g id="a_node3"><a xlink:href="../../d5/daf/i2c_8h.html" target="_top" xlink:title="Base class for devices connected via I2C. ">
<polygon fill="#ffffff" stroke="#000000" points="327,-391.5 327,-410.5 428,-410.5 428,-391.5 327,-391.5"/>
<text text-anchor="middle" x="377.5" y="-398.5" font-family="Helvetica,sans-Serif" font-size="10.00" fill="#000000">drivers/device/i2c.h</text>
</a>
</g>
</g>
<!-- Node0&#45;&gt;Node2 -->
<g id="edge2" class="edge">
<title>Node0&#45;&gt;Node2</title>
<path fill="none" stroke="#191970" d="M649.754,-463.2663C591.6349,-449.9741 490.3869,-426.818 429.093,-412.7997"/>
<polygon fill="#191970" stroke="#191970" points="429.7707,-409.3644 419.242,-410.5467 428.21,-416.1882 429.7707,-409.3644"/>
</g>
<!-- Node21 -->
<g id="node22" class="node">
<title>Node21</title>
<g id="a_node22"><a xlink:href="../../dd/d52/drivers_2device_2ringbuffer_8h.html" target="_top" xlink:title="drivers/device/ringbuffer.h">
<polygon fill="#ffffff" stroke="#000000" points="696,-391.5 696,-410.5 825,-410.5 825,-391.5 696,-391.5"/>
<text text-anchor="middle" x="760.5" y="-398.5" font-family="Helvetica,sans-Serif" font-size="10.00" fill="#000000">drivers/device/ringbuffer.h</text>
</a>
</g>
</g>
<!-- Node0&#45;&gt;Node21 -->
<g id="edge32" class="edge">
<title>Node0&#45;&gt;Node21</title>
<path fill="none" stroke="#191970" d="M708.1752,-458.478C718.7284,-446.8854 733.3527,-430.8209 744.4584,-418.6214"/>
<polygon fill="#191970" stroke="#191970" points="747.3479,-420.6466 751.4915,-410.8957 742.1715,-415.9343 747.3479,-420.6466"/>
</g>
<!-- Node24 -->
<g id="node25" class="node">
<title>Node24</title>
<polygon fill="#ffffff" stroke="#bfbfbf" points="843.5,-386 843.5,-416 959.5,-416 959.5,-386 843.5,-386"/>
<text text-anchor="start" x="851.5" y="-404" font-family="Helvetica,sans-Serif" font-size="10.00" fill="#000000">px4_platform_common</text>
<text text-anchor="middle" x="901.5" y="-393" font-family="Helvetica,sans-Serif" font-size="10.00" fill="#000000">/getopt.h</text>
</g>
<!-- Node0&#45;&gt;Node24 -->
<g id="edge36" class="edge">
<title>Node0&#45;&gt;Node24</title>
<path fill="none" stroke="#191970" d="M737.3905,-458.478C769.8638,-447.1045 814.6275,-431.4263 849.2016,-419.3171"/>
<polygon fill="#191970" stroke="#191970" points="850.3835,-422.6117 858.6644,-416.0028 848.0696,-416.0051 850.3835,-422.6117"/>
</g>
<!-- Node25 -->
<g id="node26" class="node">
<title>Node25</title>
<polygon fill="#ffffff" stroke="#bfbfbf" points="978,-380.5 978,-421.5 1143,-421.5 1143,-380.5 978,-380.5"/>
<text text-anchor="start" x="986" y="-409.5" font-family="Helvetica,sans-Serif" font-size="10.00" fill="#000000">px4_platform_common</text>
<text text-anchor="start" x="986" y="-398.5" font-family="Helvetica,sans-Serif" font-size="10.00" fill="#000000">/px4_work_queue/ScheduledWork</text>
<text text-anchor="middle" x="1060.5" y="-387.5" font-family="Helvetica,sans-Serif" font-size="10.00" fill="#000000">Item.hpp</text>
</g>
<!-- Node0&#45;&gt;Node25 -->
<g id="edge37" class="edge">
<title>Node0&#45;&gt;Node25</title>
<path fill="none" stroke="#191970" d="M739.2159,-465.6428C791.5297,-456.329 880.9899,-440.0256 967.7627,-422.1174"/>
<polygon fill="#191970" stroke="#191970" points="968.6999,-425.4976 977.781,-420.0401 967.2786,-418.6434 968.6999,-425.4976"/>
</g>
<!-- Node26 -->
<g id="node27" class="node">
<title>Node26</title>
<g id="a_node27"><a xlink:href="../../d6/d40/err_8h.html" target="_top" xlink:title="Simple error/warning functions, heavily inspired by the BSD functions of the same names...">
<polygon fill="#ffffff" stroke="#000000" points="1161,-391.5 1161,-410.5 1242,-410.5 1242,-391.5 1161,-391.5"/>
<text text-anchor="middle" x="1201.5" y="-398.5" font-family="Helvetica,sans-Serif" font-size="10.00" fill="#000000">systemlib/err.h</text>
</a>
</g>
</g>
<!-- Node0&#45;&gt;Node26 -->
<g id="edge38" class="edge">
<title>Node0&#45;&gt;Node26</title>
<path fill="none" stroke="#191970" d="M739.182,-470.1496C838.5246,-462.4294 1075.0455,-442.4747 1152.5,-422 1159.4738,-420.1565 1166.7429,-417.4891 1173.4812,-414.6703"/>
<polygon fill="#191970" stroke="#191970" points="1175.1504,-417.7591 1182.8775,-410.5105 1172.3167,-411.3583 1175.1504,-417.7591"/>
</g>
<!-- Node31 -->
<g id="node32" class="node">
<title>Node31</title>
<g id="a_node32"><a xlink:href="../../db/dd6/u_o_r_b_8h.html" target="_top" xlink:title="API for the uORB lightweight object broker. ">
<polygon fill="#ffffff" stroke="#000000" points="587.5,-319 587.5,-338 669.5,-338 669.5,-319 587.5,-319"/>
<text text-anchor="middle" x="628.5" y="-326" font-family="Helvetica,sans-Serif" font-size="10.00" fill="#000000">uORB/uORB.h</text>
</a>
</g>
</g>
<!-- Node0&#45;&gt;Node31 -->
<g id="edge43" class="edge">
<title>Node0&#45;&gt;Node31</title>
<path fill="none" stroke="#191970" d="M649.8683,-467.7138C621.6791,-461.4957 587.3245,-448.6218 569.5,-422 559.1147,-406.489 561.7764,-396.9938 569.5,-380 576.3563,-364.9144 590.0565,-352.5202 602.5303,-343.674"/>
<polygon fill="#191970" stroke="#191970" points="604.4824,-346.5791 610.8709,-338.1269 600.606,-340.7504 604.4824,-346.5791"/>
</g>
<!-- Node33 -->
<g id="node34" class="node">
<title>Node33</title>
<g id="a_node34"><a xlink:href="../../dd/de7/irlock__report_8h.html" target="_top" xlink:title="uORB/topics/irlock\l_report.h">
<polygon fill="#ffffff" stroke="#000000" points="579,-386 579,-416 678,-416 678,-386 579,-386"/>
<text text-anchor="start" x="587" y="-404" font-family="Helvetica,sans-Serif" font-size="10.00" fill="#000000">uORB/topics/irlock</text>
<text text-anchor="middle" x="628.5" y="-393" font-family="Helvetica,sans-Serif" font-size="10.00" fill="#000000">_report.h</text>
</a>
</g>
</g>
<!-- Node0&#45;&gt;Node33 -->
<g id="edge47" class="edge">
<title>Node0&#45;&gt;Node33</title>
<path fill="none" stroke="#191970" d="M680.8248,-458.478C671.6214,-448.3682 659.3218,-434.8572 648.9599,-423.4749"/>
<polygon fill="#191970" stroke="#191970" points="651.4777,-421.0415 642.1577,-416.0028 646.3014,-425.7538 651.4777,-421.0415"/>
</g>
<!-- Node3 -->
<g id="node4" class="node">
<title>Node3</title>
<g id="a_node4"><a xlink:href="../../da/da0/posix_2_i2_c_8hpp.html" target="_top" xlink:title="posix/I2C.hpp">
<polygon fill="#ffffff" stroke="#000000" points="339,-319 339,-338 416,-338 416,-319 339,-319"/>
<text text-anchor="middle" x="377.5" y="-326" font-family="Helvetica,sans-Serif" font-size="10.00" fill="#000000">posix/I2C.hpp</text>
</a>
</g>
</g>
<!-- Node2&#45;&gt;Node3 -->
<g id="edge3" class="edge">
<title>Node2&#45;&gt;Node3</title>
<path fill="none" stroke="#191970" d="M377.5,-391.2223C377.5,-380.243 377.5,-362.1397 377.5,-348.197"/>
<polygon fill="#191970" stroke="#191970" points="381.0001,-348.1227 377.5,-338.1228 374.0001,-348.1228 381.0001,-348.1227"/>
</g>
<!-- Node20 -->
<g id="node21" class="node">
<title>Node20</title>
<polygon fill="#ffffff" stroke="#bfbfbf" points="240.5,-319 240.5,-338 320.5,-338 320.5,-319 240.5,-319"/>
<text text-anchor="middle" x="280.5" y="-326" font-family="Helvetica,sans-Serif" font-size="10.00" fill="#000000">board_config.h</text>
</g>
<!-- Node2&#45;&gt;Node20 -->
<g id="edge31" class="edge">
<title>Node2&#45;&gt;Node20</title>
<path fill="none" stroke="#191970" d="M364.4181,-391.2223C348.2741,-379.1559 320.618,-358.4851 301.4907,-344.1889"/>
<polygon fill="#191970" stroke="#191970" points="303.4799,-341.3061 293.3746,-338.1228 299.2891,-346.9131 303.4799,-341.3061"/>
</g>
<!-- Node4 -->
<g id="node5" class="node">
<title>Node4</title>
<g id="a_node5"><a xlink:href="../../d4/d7a/drivers_2device_2_c_dev_8hpp.html" target="_top" xlink:title="../CDev.hpp">
<polygon fill="#ffffff" stroke="#000000" points="342.5,-252 342.5,-271 412.5,-271 412.5,-252 342.5,-252"/>
<text text-anchor="middle" x="377.5" y="-259" font-family="Helvetica,sans-Serif" font-size="10.00" fill="#000000">../CDev.hpp</text>
</a>
</g>
</g>
<!-- Node3&#45;&gt;Node4 -->
<g id="edge4" class="edge">
<title>Node3&#45;&gt;Node4</title>
<path fill="none" stroke="#191970" d="M377.5,-318.9005C377.5,-309.149 377.5,-293.7597 377.5,-281.3695"/>
<polygon fill="#191970" stroke="#191970" points="381.0001,-281.0816 377.5,-271.0817 374.0001,-281.0817 381.0001,-281.0816"/>
</g>
<!-- Node19 -->
<g id="node20" class="node">
<title>Node19</title>
<polygon fill="#ffffff" stroke="#bfbfbf" points="208.5,-246.5 208.5,-276.5 324.5,-276.5 324.5,-246.5 208.5,-246.5"/>
<text text-anchor="start" x="216.5" y="-264.5" font-family="Helvetica,sans-Serif" font-size="10.00" fill="#000000">px4_platform_common</text>
<text text-anchor="middle" x="266.5" y="-253.5" font-family="Helvetica,sans-Serif" font-size="10.00" fill="#000000">/i2c.h</text>
</g>
<!-- Node3&#45;&gt;Node19 -->
<g id="edge30" class="edge">
<title>Node3&#45;&gt;Node19</title>
<path fill="none" stroke="#191970" d="M361.5964,-318.9005C345.6174,-309.2556 320.5014,-294.0954 300.0929,-281.7768"/>
<polygon fill="#191970" stroke="#191970" points="301.7568,-278.693 291.3868,-276.5218 298.1394,-284.6859 301.7568,-278.693"/>
</g>
<!-- Node5 -->
<g id="node6" class="node">
<title>Node5</title>
<g id="a_node6"><a xlink:href="../../d7/dfb/_device_8hpp.html" target="_top" xlink:title="Definitions for the generic base classes in the device framework. ">
<polygon fill="#ffffff" stroke="#000000" points="344.5,-190.5 344.5,-209.5 410.5,-209.5 410.5,-190.5 344.5,-190.5"/>
<text text-anchor="middle" x="377.5" y="-197.5" font-family="Helvetica,sans-Serif" font-size="10.00" fill="#000000">Device.hpp</text>
</a>
</g>
</g>
<!-- Node4&#45;&gt;Node5 -->
<g id="edge5" class="edge">
<title>Node4&#45;&gt;Node5</title>
<path fill="none" stroke="#191970" d="M377.5,-251.8906C377.5,-243.3657 377.5,-230.6392 377.5,-219.9235"/>
<polygon fill="#191970" stroke="#191970" points="381.0001,-219.7448 377.5,-209.7449 374.0001,-219.7449 381.0001,-219.7448"/>
</g>
<!-- Node6 -->
<g id="node7" class="node">
<title>Node6</title>
<polygon fill="#ffffff" stroke="#bfbfbf" points="185.5,-123.5 185.5,-153.5 301.5,-153.5 301.5,-123.5 185.5,-123.5"/>
<text text-anchor="start" x="193.5" y="-141.5" font-family="Helvetica,sans-Serif" font-size="10.00" fill="#000000">px4_platform_common</text>
<text text-anchor="middle" x="243.5" y="-130.5" font-family="Helvetica,sans-Serif" font-size="10.00" fill="#000000">/px4_config.h</text>
</g>
<!-- Node4&#45;&gt;Node6 -->
<g id="edge28" class="edge">
<title>Node4&#45;&gt;Node6</title>
<path fill="none" stroke="#191970" d="M366.9852,-251.8484C345.6899,-232.3012 296.9878,-187.597 267.5083,-160.5375"/>
<polygon fill="#191970" stroke="#191970" points="269.8329,-157.9203 260.0991,-153.7365 265.0993,-163.0772 269.8329,-157.9203"/>
</g>
<!-- Node7 -->
<g id="node8" class="node">
<title>Node7</title>
<polygon fill="#ffffff" stroke="#bfbfbf" points="319.5,-123.5 319.5,-153.5 435.5,-153.5 435.5,-123.5 319.5,-123.5"/>
<text text-anchor="start" x="327.5" y="-141.5" font-family="Helvetica,sans-Serif" font-size="10.00" fill="#000000">px4_platform_common</text>
<text text-anchor="middle" x="377.5" y="-130.5" font-family="Helvetica,sans-Serif" font-size="10.00" fill="#000000">/posix.h</text>
</g>
<!-- Node4&#45;&gt;Node7 -->
<g id="edge29" class="edge">
<title>Node4&#45;&gt;Node7</title>
<path fill="none" stroke="#191970" d="M389.7312,-251.9098C404.9604,-238.7134 427.9992,-213.8696 419.5,-190 415.746,-179.4572 408.8069,-169.51 401.6354,-161.2207"/>
<polygon fill="#191970" stroke="#191970" points="404.145,-158.7794 394.7847,-153.8159 399.0067,-163.5332 404.145,-158.7794"/>
</g>
<!-- Node16 -->
<g id="node17" class="node">
<title>Node16</title>
<g id="a_node17"><a xlink:href="../../d5/da3/cdev_2_c_dev_8hpp.html" target="_top" xlink:title="lib/cdev/CDev.hpp">
<polygon fill="#ffffff" stroke="#000000" points="190.5,-190.5 190.5,-209.5 288.5,-209.5 288.5,-190.5 190.5,-190.5"/>
<text text-anchor="middle" x="239.5" y="-197.5" font-family="Helvetica,sans-Serif" font-size="10.00" fill="#000000">lib/cdev/CDev.hpp</text>
</a>
</g>
</g>
<!-- Node4&#45;&gt;Node16 -->
<g id="edge22" class="edge">
<title>Node4&#45;&gt;Node16</title>
<path fill="none" stroke="#191970" d="M355.9375,-251.8906C332.9488,-241.6457 296.344,-225.3326 270.3176,-213.7339"/>
<polygon fill="#191970" stroke="#191970" points="271.4698,-210.4156 260.9111,-209.5419 268.6204,-216.8095 271.4698,-210.4156"/>
</g>
<!-- Node5&#45;&gt;Node6 -->
<g id="edge6" class="edge">
<title>Node5&#45;&gt;Node6</title>
<path fill="none" stroke="#191970" d="M356.5625,-190.3906C337.5876,-181.682 309.0593,-168.5888 285.4074,-157.7336"/>
<polygon fill="#191970" stroke="#191970" points="286.8285,-154.5349 276.2801,-153.5446 283.9087,-160.8968 286.8285,-154.5349"/>
</g>
<!-- Node5&#45;&gt;Node7 -->
<g id="edge7" class="edge">
<title>Node5&#45;&gt;Node7</title>
<path fill="none" stroke="#191970" d="M377.5,-190.3906C377.5,-183.2234 377.5,-173.0862 377.5,-163.671"/>
<polygon fill="#191970" stroke="#191970" points="381.0001,-163.5446 377.5,-153.5446 374.0001,-163.5446 381.0001,-163.5446"/>
</g>
<!-- Node8 -->
<g id="node9" class="node">
<title>Node8</title>
<g id="a_node9"><a xlink:href="../../d3/dc5/drv__device_8h.html" target="_top" xlink:title="Generic device / sensor interface. ">
<polygon fill="#ffffff" stroke="#000000" points="453.5,-129 453.5,-148 557.5,-148 557.5,-129 453.5,-129"/>
<text text-anchor="middle" x="505.5" y="-136" font-family="Helvetica,sans-Serif" font-size="10.00" fill="#000000">drivers/drv_device.h</text>
</a>
</g>
</g>
<!-- Node5&#45;&gt;Node8 -->
<g id="edge8" class="edge">
<title>Node5&#45;&gt;Node8</title>
<path fill="none" stroke="#191970" d="M397.5,-190.3906C418.7289,-180.1908 452.4762,-163.9763 476.596,-152.3875"/>
<polygon fill="#191970" stroke="#191970" points="478.1426,-155.5275 485.6404,-148.0419 475.1111,-149.2179 478.1426,-155.5275"/>
</g>
<!-- Node9 -->
<g id="node10" class="node">
<title>Node9</title>
<polygon fill="#ffffff" stroke="#bfbfbf" points="646,-6 646,-25 695,-25 695,-6 646,-6"/>
<text text-anchor="middle" x="670.5" y="-13" font-family="Helvetica,sans-Serif" font-size="10.00" fill="#000000">stdint.h</text>
</g>
<!-- Node8&#45;&gt;Node9 -->
<g id="edge9" class="edge">
<title>Node8&#45;&gt;Node9</title>
<path fill="none" stroke="#191970" d="M527.354,-128.9552C547.3573,-119.6994 577.2871,-104.5143 600.5,-87 621.795,-70.9327 642.7299,-48.414 656.0743,-32.9651"/>
<polygon fill="#191970" stroke="#191970" points="658.8642,-35.0868 662.661,-25.1956 653.5247,-30.5602 658.8642,-35.0868"/>
</g>
<!-- Node10 -->
<g id="node11" class="node">
<title>Node10</title>
<polygon fill="#ffffff" stroke="#bfbfbf" points="345.5,-6 345.5,-25 407.5,-25 407.5,-6 345.5,-6"/>
<text text-anchor="middle" x="376.5" y="-13" font-family="Helvetica,sans-Serif" font-size="10.00" fill="#000000">sys/ioctl.h</text>
</g>
<!-- Node8&#45;&gt;Node10 -->
<g id="edge10" class="edge">
<title>Node8&#45;&gt;Node10</title>
<path fill="none" stroke="#191970" d="M469.4692,-128.9441C416.8082,-114.8962 324.773,-90.001 322.5,-87 307.8717,-67.6867 331.0311,-45.4081 351.4129,-30.9212"/>
<polygon fill="#191970" stroke="#191970" points="353.5284,-33.716 359.8596,-25.2209 349.6126,-27.9137 353.5284,-33.716"/>
</g>
<!-- Node11 -->
<g id="node12" class="node">
<title>Node11</title>
<g id="a_node12"><a xlink:href="../../df/dae/drv__sensor_8h.html" target="_top" xlink:title="Common sensor API and ioctl definitions. ">
<polygon fill="#ffffff" stroke="#000000" points="422,-67.5 422,-86.5 495,-86.5 495,-67.5 422,-67.5"/>
<text text-anchor="middle" x="458.5" y="-74.5" font-family="Helvetica,sans-Serif" font-size="10.00" fill="#000000">drv_sensor.h</text>
</a>
</g>
</g>
<!-- Node8&#45;&gt;Node11 -->
<g id="edge11" class="edge">
<title>Node8&#45;&gt;Node11</title>
<path fill="none" stroke="#191970" d="M493.0938,-128.8906C484.4849,-119.917 473.6808,-106.2879 466.2189,-95.2491"/>
<polygon fill="#191970" stroke="#191970" points="469.1518,-93.3383 460.8585,-86.7449 463.23,-97.0709 469.1518,-93.3383"/>
</g>
<!-- Node13 -->
<g id="node14" class="node">
<title>Node13</title>
<g id="a_node14"><a xlink:href="../../d8/d61/drv__orb__dev_8h.html" target="_top" xlink:title="uORB published object driver. ">
<polygon fill="#ffffff" stroke="#000000" points="513.5,-67.5 513.5,-86.5 591.5,-86.5 591.5,-67.5 513.5,-67.5"/>
<text text-anchor="middle" x="552.5" y="-74.5" font-family="Helvetica,sans-Serif" font-size="10.00" fill="#000000">drv_orb_dev.h</text>
</a>
</g>
</g>
<!-- Node8&#45;&gt;Node13 -->
<g id="edge16" class="edge">
<title>Node8&#45;&gt;Node13</title>
<path fill="none" stroke="#191970" d="M512.8438,-128.8906C519.7702,-119.8273 530.326,-106.0149 538.806,-94.9188"/>
<polygon fill="#191970" stroke="#191970" points="541.7615,-96.8155 545.0527,-86.7449 536.1997,-92.565 541.7615,-96.8155"/>
</g>
<!-- Node15 -->
<g id="node16" class="node">
<title>Node15</title>
<polygon fill="#ffffff" stroke="#bfbfbf" points="331.5,-67.5 331.5,-86.5 403.5,-86.5 403.5,-67.5 331.5,-67.5"/>
<text text-anchor="middle" x="367.5" y="-74.5" font-family="Helvetica,sans-Serif" font-size="10.00" fill="#000000">DevIOCTL.h</text>
</g>
<!-- Node8&#45;&gt;Node15 -->
<g id="edge21" class="edge">
<title>Node8&#45;&gt;Node15</title>
<path fill="none" stroke="#191970" d="M483.9375,-128.8906C460.9488,-118.6457 424.344,-102.3326 398.3176,-90.7339"/>
<polygon fill="#191970" stroke="#191970" points="399.4698,-87.4156 388.9111,-86.5419 396.6204,-93.8095 399.4698,-87.4156"/>
</g>
<!-- Node11&#45;&gt;Node8 -->
<g id="edge15" class="edge">
<title>Node11&#45;&gt;Node8</title>
<path fill="none" stroke="#191970" d="M471.0361,-86.7449C479.6668,-95.765 490.465,-109.4043 497.8932,-120.4169"/>
<polygon fill="#191970" stroke="#191970" points="494.9342,-122.2863 503.2188,-128.8906 500.8609,-118.5615 494.9342,-122.2863"/>
</g>
<!-- Node11&#45;&gt;Node9 -->
<g id="edge13" class="edge">
<title>Node11&#45;&gt;Node9</title>
<path fill="none" stroke="#191970" d="M495.0593,-68.3516C539.1673,-57.7778 610.6247,-40.1622 636.5,-31 638.1396,-30.4194 639.8088,-29.7904 641.4833,-29.1295"/>
<polygon fill="#191970" stroke="#191970" points="643.123,-32.236 650.9638,-25.1104 640.3908,-25.7912 643.123,-32.236"/>
</g>
<!-- Node11&#45;&gt;Node10 -->
<g id="edge14" class="edge">
<title>Node11&#45;&gt;Node10</title>
<path fill="none" stroke="#191970" d="M445.6875,-67.3906C432.8099,-57.7324 412.7416,-42.6812 397.528,-31.271"/>
<polygon fill="#191970" stroke="#191970" points="399.3226,-28.2419 389.2225,-25.0419 395.1225,-33.8419 399.3226,-28.2419"/>
</g>
<!-- Node12 -->
<g id="node13" class="node">
<title>Node12</title>
<polygon fill="#ffffff" stroke="#bfbfbf" points="425.5,-.5 425.5,-30.5 541.5,-30.5 541.5,-.5 425.5,-.5"/>
<text text-anchor="start" x="433.5" y="-18.5" font-family="Helvetica,sans-Serif" font-size="10.00" fill="#000000">px4_platform_common</text>
<text text-anchor="middle" x="483.5" y="-7.5" font-family="Helvetica,sans-Serif" font-size="10.00" fill="#000000">/defines.h</text>
</g>
<!-- Node11&#45;&gt;Node12 -->
<g id="edge12" class="edge">
<title>Node11&#45;&gt;Node12</title>
<path fill="none" stroke="#191970" d="M462.4063,-67.3906C465.3824,-60.0692 469.6184,-49.6488 473.5144,-40.0647"/>
<polygon fill="#191970" stroke="#191970" points="476.8608,-41.1265 477.3843,-30.5446 470.3761,-38.4904 476.8608,-41.1265"/>
</g>
<!-- Node13&#45;&gt;Node9 -->
<g id="edge20" class="edge">
<title>Node13&#45;&gt;Node9</title>
<path fill="none" stroke="#191970" d="M570.9375,-67.3906C590.3347,-57.2811 621.069,-41.2628 643.2617,-29.6962"/>
<polygon fill="#191970" stroke="#191970" points="644.9418,-32.7675 652.192,-25.0419 641.7064,-26.56 644.9418,-32.7675"/>
</g>
<!-- Node13&#45;&gt;Node10 -->
<g id="edge19" class="edge">
<title>Node13&#45;&gt;Node10</title>
<path fill="none" stroke="#191970" d="M523.1895,-67.4951C495.5594,-58.4385 453.0535,-44.257 416.5,-31 414.3952,-30.2367 412.2332,-29.4388 410.0563,-28.6252"/>
<polygon fill="#191970" stroke="#191970" points="411.1406,-25.2931 400.5495,-25.0142 408.655,-31.837 411.1406,-25.2931"/>
</g>
<!-- Node13&#45;&gt;Node12 -->
<g id="edge17" class="edge">
<title>Node13&#45;&gt;Node12</title>
<path fill="none" stroke="#191970" d="M541.7188,-67.3906C532.7263,-59.3756 519.5669,-47.6466 508.0333,-37.3666"/>
<polygon fill="#191970" stroke="#191970" points="510.1733,-34.5855 500.3793,-30.5446 505.5156,-39.8111 510.1733,-34.5855"/>
</g>
<!-- Node14 -->
<g id="node15" class="node">
<title>Node14</title>
<polygon fill="#ffffff" stroke="#bfbfbf" points="559.5,-6 559.5,-25 627.5,-25 627.5,-6 559.5,-6"/>
<text text-anchor="middle" x="593.5" y="-13" font-family="Helvetica,sans-Serif" font-size="10.00" fill="#000000">sys/types.h</text>
</g>
<!-- Node13&#45;&gt;Node14 -->
<g id="edge18" class="edge">
<title>Node13&#45;&gt;Node14</title>
<path fill="none" stroke="#191970" d="M558.9063,-67.3906C564.8886,-58.417 573.9747,-44.7879 581.3339,-33.7491"/>
<polygon fill="#191970" stroke="#191970" points="584.3686,-35.5068 587.0034,-25.2449 578.5442,-31.6239 584.3686,-35.5068"/>
</g>
<!-- Node16&#45;&gt;Node6 -->
<g id="edge23" class="edge">
<title>Node16&#45;&gt;Node6</title>
<path fill="none" stroke="#191970" d="M240.125,-190.3906C240.5912,-183.2234 241.2505,-173.0862 241.8629,-163.671"/>
<polygon fill="#191970" stroke="#191970" points="245.365,-163.7507 242.5215,-153.5446 238.3797,-163.2963 245.365,-163.7507"/>
</g>
<!-- Node16&#45;&gt;Node7 -->
<g id="edge24" class="edge">
<title>Node16&#45;&gt;Node7</title>
<path fill="none" stroke="#191970" d="M261.0625,-190.3906C280.6038,-181.682 309.9837,-168.5888 334.3416,-157.7336"/>
<polygon fill="#191970" stroke="#191970" points="336.0321,-160.8122 343.7414,-153.5446 333.1826,-154.4183 336.0321,-160.8122"/>
</g>
<!-- Node17 -->
<g id="node18" class="node">
<title>Node17</title>
<g id="a_node18"><a xlink:href="../../da/d7e/posix_2cdev__platform_8hpp.html" target="_top" xlink:title="posix/cdev_platform.hpp">
<polygon fill="#ffffff" stroke="#000000" points="44,-129 44,-148 167,-148 167,-129 44,-129"/>
<text text-anchor="middle" x="105.5" y="-136" font-family="Helvetica,sans-Serif" font-size="10.00" fill="#000000">posix/cdev_platform.hpp</text>
</a>
</g>
</g>
<!-- Node16&#45;&gt;Node17 -->
<g id="edge25" class="edge">
<title>Node16&#45;&gt;Node17</title>
<path fill="none" stroke="#191970" d="M218.5625,-190.3906C196.2402,-180.1457 160.6963,-163.8326 135.4243,-152.2339"/>
<polygon fill="#191970" stroke="#191970" points="136.8389,-149.0322 126.2905,-148.0419 133.919,-155.3942 136.8389,-149.0322"/>
</g>
<!-- Node17&#45;&gt;Node1 -->
<g id="edge27" class="edge">
<title>Node17&#45;&gt;Node1</title>
<path fill="none" stroke="#191970" d="M92.8438,-128.8906C80.1232,-119.2324 60.2996,-104.1812 45.2716,-92.771"/>
<polygon fill="#191970" stroke="#191970" points="47.1484,-89.8015 37.0674,-86.5419 42.9154,-95.3766 47.1484,-89.8015"/>
</g>
<!-- Node18 -->
<g id="node19" class="node">
<title>Node18</title>
<polygon fill="#ffffff" stroke="#bfbfbf" points="76,-67.5 76,-86.5 135,-86.5 135,-67.5 76,-67.5"/>
<text text-anchor="middle" x="105.5" y="-74.5" font-family="Helvetica,sans-Serif" font-size="10.00" fill="#000000">inttypes.h</text>
</g>
<!-- Node17&#45;&gt;Node18 -->
<g id="edge26" class="edge">
<title>Node17&#45;&gt;Node18</title>
<path fill="none" stroke="#191970" d="M105.5,-128.8906C105.5,-120.3657 105.5,-107.6392 105.5,-96.9235"/>
<polygon fill="#191970" stroke="#191970" points="109.0001,-96.7448 105.5,-86.7449 102.0001,-96.7449 109.0001,-96.7448"/>
</g>
<!-- Node21&#45;&gt;Node9 -->
<g id="edge34" class="edge">
<title>Node21&#45;&gt;Node9</title>
<path fill="none" stroke="#191970" d="M757.2967,-391.3157C750.1447,-368.8028 733.5,-311.0831 733.5,-261.5 733.5,-261.5 733.5,-261.5 733.5,-138.5 733.5,-97.0149 704.759,-55.457 686.1021,-32.8505"/>
<polygon fill="#191970" stroke="#191970" points="688.6832,-30.4833 679.5264,-25.1538 683.3611,-35.0304 688.6832,-30.4833"/>
</g>
<!-- Node22 -->
<g id="node23" class="node">
<title>Node22</title>
<polygon fill="#ffffff" stroke="#bfbfbf" points="761.5,-319 761.5,-338 813.5,-338 813.5,-319 761.5,-319"/>
<text text-anchor="middle" x="787.5" y="-326" font-family="Helvetica,sans-Serif" font-size="10.00" fill="#000000">stddef.h</text>
</g>
<!-- Node21&#45;&gt;Node22 -->
<g id="edge33" class="edge">
<title>Node21&#45;&gt;Node22</title>
<path fill="none" stroke="#191970" d="M764.1413,-391.2223C768.2707,-380.1343 775.1059,-361.7806 780.3183,-347.7841"/>
<polygon fill="#191970" stroke="#191970" points="783.7062,-348.7155 783.9164,-338.1228 777.1464,-346.2725 783.7062,-348.7155"/>
</g>
<!-- Node23 -->
<g id="node24" class="node">
<title>Node23</title>
<polygon fill="#ffffff" stroke="#bfbfbf" points="831.5,-319 831.5,-338 877.5,-338 877.5,-319 831.5,-319"/>
<text text-anchor="middle" x="854.5" y="-326" font-family="Helvetica,sans-Serif" font-size="10.00" fill="#000000">stdio.h</text>
</g>
<!-- Node21&#45;&gt;Node23 -->
<g id="edge35" class="edge">
<title>Node21&#45;&gt;Node23</title>
<path fill="none" stroke="#191970" d="M773.1773,-391.2223C788.7515,-379.2103 815.3815,-358.6712 833.9075,-344.3825"/>
<polygon fill="#191970" stroke="#191970" points="836.2427,-347.0015 842.0236,-338.1228 831.9676,-341.4586 836.2427,-347.0015"/>
</g>
<!-- Node27 -->
<g id="node28" class="node">
<title>Node27</title>
<polygon fill="#ffffff" stroke="#bfbfbf" points="1276.5,-313.5 1276.5,-343.5 1392.5,-343.5 1392.5,-313.5 1276.5,-313.5"/>
<text text-anchor="start" x="1284.5" y="-331.5" font-family="Helvetica,sans-Serif" font-size="10.00" fill="#000000">px4_platform_common</text>
<text text-anchor="middle" x="1334.5" y="-320.5" font-family="Helvetica,sans-Serif" font-size="10.00" fill="#000000">/log.h</text>
</g>
<!-- Node26&#45;&gt;Node27 -->
<g id="edge39" class="edge">
<title>Node26&#45;&gt;Node27</title>
<path fill="none" stroke="#191970" d="M1219.1614,-391.3726C1239.0481,-380.532 1271.9218,-362.6122 1297.4961,-348.6713"/>
<polygon fill="#191970" stroke="#191970" points="1299.4454,-351.595 1306.5504,-343.7357 1296.095,-345.4488 1299.4454,-351.595"/>
</g>
<!-- Node28 -->
<g id="node29" class="node">
<title>Node28</title>
<polygon fill="#ffffff" stroke="#bfbfbf" points="1074.5,-319 1074.5,-338 1126.5,-338 1126.5,-319 1074.5,-319"/>
<text text-anchor="middle" x="1100.5" y="-326" font-family="Helvetica,sans-Serif" font-size="10.00" fill="#000000">stdarg.h</text>
</g>
<!-- Node26&#45;&gt;Node28 -->
<g id="edge40" class="edge">
<title>Node26&#45;&gt;Node28</title>
<path fill="none" stroke="#191970" d="M1187.8787,-391.2223C1170.9932,-379.1016 1142.0127,-358.2987 1122.0877,-343.9961"/>
<polygon fill="#191970" stroke="#191970" points="1124.0702,-341.1109 1113.9055,-338.1228 1119.9882,-346.7975 1124.0702,-341.1109"/>
</g>
<!-- Node29 -->
<g id="node30" class="node">
<title>Node29</title>
<polygon fill="#ffffff" stroke="#bfbfbf" points="1145,-319 1145,-338 1192,-338 1192,-319 1145,-319"/>
<text text-anchor="middle" x="1168.5" y="-326" font-family="Helvetica,sans-Serif" font-size="10.00" fill="#000000">errno.h</text>
</g>
<!-- Node26&#45;&gt;Node29 -->
<g id="edge41" class="edge">
<title>Node26&#45;&gt;Node29</title>
<path fill="none" stroke="#191970" d="M1197.0495,-391.2223C1191.953,-380.0256 1183.4843,-361.42 1177.0908,-347.3737"/>
<polygon fill="#191970" stroke="#191970" points="1180.2084,-345.7743 1172.88,-338.1228 1173.8373,-348.6743 1180.2084,-345.7743"/>
</g>
<!-- Node30 -->
<g id="node31" class="node">
<title>Node30</title>
<polygon fill="#ffffff" stroke="#bfbfbf" points="1210.5,-319 1210.5,-338 1258.5,-338 1258.5,-319 1210.5,-319"/>
<text text-anchor="middle" x="1234.5" y="-326" font-family="Helvetica,sans-Serif" font-size="10.00" fill="#000000">stdlib.h</text>
</g>
<!-- Node26&#45;&gt;Node30 -->
<g id="edge42" class="edge">
<title>Node26&#45;&gt;Node30</title>
<path fill="none" stroke="#191970" d="M1205.9505,-391.2223C1211.047,-380.0256 1219.5157,-361.42 1225.9092,-347.3737"/>
<polygon fill="#191970" stroke="#191970" points="1229.1627,-348.6743 1230.12,-338.1228 1222.7916,-345.7743 1229.1627,-348.6743"/>
</g>
<!-- Node31&#45;&gt;Node9 -->
<g id="edge45" class="edge">
<title>Node31&#45;&gt;Node9</title>
<path fill="none" stroke="#191970" d="M637.8161,-318.7591C656.2258,-298.4395 695.5,-249.3124 695.5,-200 695.5,-200 695.5,-200 695.5,-138.5 695.5,-101.2735 684.3668,-58.9564 676.9595,-34.9209"/>
<polygon fill="#191970" stroke="#191970" points="680.247,-33.7099 673.8716,-25.2479 673.5785,-35.8387 680.247,-33.7099"/>
</g>
<!-- Node31&#45;&gt;Node14 -->
<g id="edge44" class="edge">
<title>Node31&#45;&gt;Node14</title>
<path fill="none" stroke="#191970" d="M632.1729,-318.9942C639.9764,-297.9147 657.5,-245.5115 657.5,-200 657.5,-200 657.5,-200 657.5,-138.5 657.5,-96.8772 628.3028,-55.3677 609.3498,-32.8069"/>
<polygon fill="#191970" stroke="#191970" points="611.8735,-30.3753 602.6696,-25.1274 606.592,-34.9695 611.8735,-30.3753"/>
</g>
<!-- Node32 -->
<g id="node33" class="node">
<title>Node32</title>
<polygon fill="#ffffff" stroke="#bfbfbf" points="573.5,-252 573.5,-271 629.5,-271 629.5,-252 573.5,-252"/>
<text text-anchor="middle" x="601.5" y="-259" font-family="Helvetica,sans-Serif" font-size="10.00" fill="#000000">stdbool.h</text>
</g>
<!-- Node31&#45;&gt;Node32 -->
<g id="edge46" class="edge">
<title>Node31&#45;&gt;Node32</title>
<path fill="none" stroke="#191970" d="M624.6316,-318.9005C620.6216,-308.95 614.2461,-293.1292 609.203,-280.6147"/>
<polygon fill="#191970" stroke="#191970" points="612.3454,-279.0486 605.3613,-271.0817 605.8528,-281.6651 612.3454,-279.0486"/>
</g>
<!-- Node33&#45;&gt;Node31 -->
<g id="edge48" class="edge">
<title>Node33&#45;&gt;Node31</title>
<path fill="none" stroke="#191970" d="M628.5,-385.978C628.5,-375.1657 628.5,-360.4631 628.5,-348.6348"/>
<polygon fill="#191970" stroke="#191970" points="632.0001,-348.3956 628.5,-338.3957 625.0001,-348.3957 632.0001,-348.3956"/>
</g>
</g>
</svg>
