<?xml version="1.0" encoding="UTF-8" standalone="no"?>
<!DOCTYPE svg PUBLIC "-//W3C//DTD SVG 1.1//EN"
 "http://www.w3.org/Graphics/SVG/1.1/DTD/svg11.dtd">
<!-- Generated by graphviz version 2.38.0 (20140413.2041)
 -->
<!-- Title: GPSDriverAshtech::waitForReply Pages: 1 -->
<!--zoomable 158 -->
<svg id="main" version="1.1" xmlns="http://www.w3.org/2000/svg" xmlns:xlink="http://www.w3.org/1999/xlink" xml:space="preserve" onload="init(evt)">
<style type="text/css"><![CDATA[
.edge:hover path { stroke: red; }
.edge:hover polygon { stroke: red; fill: red; }
]]></style>
<script type="text/javascript"><![CDATA[
var edges = document.getElementsByTagName('g');
if (edges && edges.length) {
  for (var i=0;i<edges.length;i++) {
    if (edges[i].id.substr(0,4)=='edge') {
      edges[i].setAttribute('class','edge');
    }
  }
}
]]></script>
        <defs>
                <circle id="rim" cx="0" cy="0" r="7"/>
                <circle id="rim2" cx="0" cy="0" r="3.5"/>
                <g id="zoomPlus">
                        <use xlink:href="#rim" fill="#404040">
                                <set attributeName="fill" to="#808080" begin="zoomplus.mouseover" end="zoomplus.mouseout"/>
                        </use>
                        <path d="M-4,0h8M0,-4v8" fill="none" stroke="white" stroke-width="1.5" pointer-events="none"/>
                </g>
                <g id="zoomMin">
                        <use xlink:href="#rim" fill="#404040">
                                <set attributeName="fill" to="#808080" begin="zoomminus.mouseover" end="zoomminus.mouseout"/>
                        </use>
                        <path d="M-4,0h8" fill="none" stroke="white" stroke-width="1.5" pointer-events="none"/>
                </g>
                <g id="dirArrow">
                        <path fill="none" stroke="white" stroke-width="1.5" d="M0,-3.0v7 M-2.5,-0.5L0,-3.0L2.5,-0.5"/>
                </g>
               <g id="resetDef">
                       <use xlink:href="#rim2" fill="#404040">
                               <set attributeName="fill" to="#808080" begin="reset.mouseover" end="reset.mouseout"/>
                       </use>
               </g>
        </defs>

<script type="text/javascript">
var viewWidth = 1232;
var viewHeight = 158;
var sectionId = 'dynsection-19';
</script>
<script xlink:href="../../svgpan.js"/>
<svg id="graph" class="graph">
<g id="viewport">
<title>GPSDriverAshtech::waitForReply</title>
<polygon fill="white" stroke="none" points="-4,4 -4,-154.226 1228,-154.226 1228,4 -4,4"/>
<!-- Node1 -->
<g id="node1" class="node"><title>Node1</title>
<polygon fill="#bfbfbf" stroke="black" points="0,-37.2263 0,-67.2263 138,-67.2263 138,-37.2263 0,-37.2263"/>
<text text-anchor="start" x="8" y="-55.2263" font-family="Helvetica,sans-Serif" font-size="10.00">GPSDriverAshtech::waitFor</text>
<text text-anchor="middle" x="69" y="-44.2263" font-family="Helvetica,sans-Serif" font-size="10.00">Reply</text>
</g>
<!-- Node2 -->
<g id="node2" class="node"><title>Node2</title>
<g id="a_node2"><a xlink:href="../../dd/d0a/class_g_p_s_driver_ashtech.html#aa9c1abdf3104dcbdc19cd33bbefa3b70" target="_top" xlink:title="enable output of correction output ">
<polygon fill="white" stroke="black" points="365,-15.2263 365,-45.2263 505,-45.2263 505,-15.2263 365,-15.2263"/>
<text text-anchor="start" x="373" y="-33.2263" font-family="Helvetica,sans-Serif" font-size="10.00">GPSDriverAshtech::activate</text>
<text text-anchor="middle" x="435" y="-22.2263" font-family="Helvetica,sans-Serif" font-size="10.00">CorrectionOutput</text>
</a>
</g>
</g>
<!-- Node1&#45;&gt;Node2 -->
<g id="edge1" class="edge"><title>Node1&#45;&gt;Node2</title>
<path fill="none" stroke="midnightblue" d="M148.138,-47.5036C212.511,-43.6129 302.942,-38.1474 364.748,-34.4118"/>
<polygon fill="midnightblue" stroke="midnightblue" points="147.809,-44.017 138.039,-48.114 148.232,-51.0043 147.809,-44.017"/>
</g>
<!-- Node6 -->
<g id="node6" class="node"><title>Node6</title>
<g id="a_node6"><a xlink:href="../../dd/d0a/class_g_p_s_driver_ashtech.html#acd7387d6bb1d7a766c3a584e1bbb3d4c" target="_top" xlink:title="configure the device ">
<polygon fill="white" stroke="black" points="1078,-102.726 1078,-121.726 1224,-121.726 1224,-102.726 1078,-102.726"/>
<text text-anchor="middle" x="1151" y="-109.726" font-family="Helvetica,sans-Serif" font-size="10.00">GPSDriverAshtech::configure</text>
</a>
</g>
</g>
<!-- Node1&#45;&gt;Node6 -->
<g id="edge7" class="edge"><title>Node1&#45;&gt;Node6</title>
<path fill="none" stroke="midnightblue" d="M108.431,-71.6432C127.721,-80.7607 151.68,-91.1524 174,-98.2263 286.337,-133.829 316.156,-150.226 434,-150.226 434,-150.226 434,-150.226 780.5,-150.226 891.58,-150.226 1020.46,-133.023 1092.9,-121.766"/>
<polygon fill="midnightblue" stroke="midnightblue" points="109.894,-68.4631 99.3644,-67.2899 106.864,-74.7734 109.894,-68.4631"/>
</g>
<!-- Node7 -->
<g id="node7" class="node"><title>Node7</title>
<g id="a_node7"><a xlink:href="../../dd/d0a/class_g_p_s_driver_ashtech.html#ac4edd10a7718c533fe4022d49454eb3d" target="_top" xlink:title="Write a command and wait for a (N)Ack. ">
<polygon fill="white" stroke="black" points="174,-59.2263 174,-89.2263 329,-89.2263 329,-59.2263 174,-59.2263"/>
<text text-anchor="start" x="182" y="-77.2263" font-family="Helvetica,sans-Serif" font-size="10.00">GPSDriverAshtech::writeAcked</text>
<text text-anchor="middle" x="251.5" y="-66.2263" font-family="Helvetica,sans-Serif" font-size="10.00">Command</text>
</a>
</g>
</g>
<!-- Node1&#45;&gt;Node7 -->
<g id="edge8" class="edge"><title>Node1&#45;&gt;Node7</title>
<path fill="none" stroke="midnightblue" d="M148.391,-61.7808C156.787,-62.8041 165.321,-63.8444 173.698,-64.8654"/>
<polygon fill="midnightblue" stroke="midnightblue" points="148.589,-58.2792 138.239,-60.5435 147.742,-65.2278 148.589,-58.2792"/>
</g>
<!-- Node3 -->
<g id="node3" class="node"><title>Node3</title>
<g id="a_node3"><a xlink:href="../../dd/d0a/class_g_p_s_driver_ashtech.html#a5495dfedac462e88411392bf96785a30" target="_top" xlink:title="GPSDriverAshtech::handle\lMessage">
<polygon fill="white" stroke="black" points="541,-34.2263 541,-64.2263 675,-64.2263 675,-34.2263 541,-34.2263"/>
<text text-anchor="start" x="549" y="-52.2263" font-family="Helvetica,sans-Serif" font-size="10.00">GPSDriverAshtech::handle</text>
<text text-anchor="middle" x="608" y="-41.2263" font-family="Helvetica,sans-Serif" font-size="10.00">Message</text>
</a>
</g>
</g>
<!-- Node2&#45;&gt;Node3 -->
<g id="edge2" class="edge"><title>Node2&#45;&gt;Node3</title>
<path fill="none" stroke="midnightblue" d="M515.074,-39.0122C523.656,-39.9658 532.325,-40.9291 540.733,-41.8633"/>
<polygon fill="midnightblue" stroke="midnightblue" points="515.385,-35.5253 505.059,-37.8995 514.612,-42.4825 515.385,-35.5253"/>
</g>
<!-- Node4 -->
<g id="node4" class="node"><title>Node4</title>
<g id="a_node4"><a xlink:href="../../dd/d0a/class_g_p_s_driver_ashtech.html#a33d6a07ed337cafb5e45ca15cbe8d983" target="_top" xlink:title="receive &amp; handle new data from the device ">
<polygon fill="white" stroke="black" points="711,-39.7263 711,-58.7263 848,-58.7263 848,-39.7263 711,-39.7263"/>
<text text-anchor="middle" x="779.5" y="-46.7263" font-family="Helvetica,sans-Serif" font-size="10.00">GPSDriverAshtech::receive</text>
</a>
</g>
</g>
<!-- Node3&#45;&gt;Node4 -->
<g id="edge3" class="edge"><title>Node3&#45;&gt;Node4</title>
<path fill="none" stroke="midnightblue" d="M685.078,-49.2263C693.714,-49.2263 702.471,-49.2263 710.986,-49.2263"/>
<polygon fill="midnightblue" stroke="midnightblue" points="685.019,-45.7264 675.018,-49.2263 685.018,-52.7264 685.019,-45.7264"/>
</g>
<!-- Node4&#45;&gt;Node1 -->
<g id="edge6" class="edge"><title>Node4&#45;&gt;Node1</title>
<path fill="none" stroke="midnightblue" d="M734.006,-37.1808C715.82,-32.5977 694.509,-27.6586 675,-24.2263 455.666,14.3626 393.746,2.94225 174,-33.2263 162.409,-35.134 150.114,-37.2754 138.19,-39.4144"/>
<polygon fill="midnightblue" stroke="midnightblue" points="733.201,-40.5876 743.757,-39.6786 734.938,-33.8065 733.201,-40.5876"/>
</g>
<!-- Node5 -->
<g id="node5" class="node"><title>Node5</title>
<g id="a_node5"><a xlink:href="../../dd/d0a/class_g_p_s_driver_ashtech.html#a7c3c68a1533ffdf98ce95eeed32db916" target="_top" xlink:title="receive data for at least the specified amount of time ">
<polygon fill="white" stroke="black" points="884,-52.7263 884,-71.7263 1042,-71.7263 1042,-52.7263 884,-52.7263"/>
<text text-anchor="middle" x="963" y="-59.7263" font-family="Helvetica,sans-Serif" font-size="10.00">GPSDriverAshtech::receiveWait</text>
</a>
</g>
</g>
<!-- Node4&#45;&gt;Node5 -->
<g id="edge4" class="edge"><title>Node4&#45;&gt;Node5</title>
<path fill="none" stroke="midnightblue" d="M858.06,-54.7815C866.637,-55.3959 875.375,-56.0217 883.958,-56.6365"/>
<polygon fill="midnightblue" stroke="midnightblue" points="858.308,-51.2904 848.084,-54.067 857.808,-58.2726 858.308,-51.2904"/>
</g>
<!-- Node5&#45;&gt;Node6 -->
<g id="edge5" class="edge"><title>Node5&#45;&gt;Node6</title>
<path fill="none" stroke="midnightblue" d="M1009.1,-74.3488C1041.45,-83.0458 1084.44,-94.6028 1114.39,-102.654"/>
<polygon fill="midnightblue" stroke="midnightblue" points="1009.99,-70.9646 999.423,-71.7486 1008.17,-77.7247 1009.99,-70.9646"/>
</g>
<!-- Node7&#45;&gt;Node2 -->
<g id="edge11" class="edge"><title>Node7&#45;&gt;Node2</title>
<path fill="none" stroke="midnightblue" d="M324.18,-56.8494C339.996,-53.015 356.623,-48.9844 372.017,-45.2525"/>
<polygon fill="midnightblue" stroke="midnightblue" points="323.348,-53.4495 314.454,-59.207 324.997,-60.2524 323.348,-53.4495"/>
</g>
<!-- Node7&#45;&gt;Node3 -->
<g id="edge9" class="edge"><title>Node7&#45;&gt;Node3</title>
<path fill="none" stroke="midnightblue" d="M339.611,-68.083C401.797,-63.6976 484.153,-57.8897 540.951,-53.8841"/>
<polygon fill="midnightblue" stroke="midnightblue" points="339.15,-64.6067 329.421,-68.8016 339.643,-71.5894 339.15,-64.6067"/>
</g>
<!-- Node7&#45;&gt;Node6 -->
<g id="edge10" class="edge"><title>Node7&#45;&gt;Node6</title>
<path fill="none" stroke="midnightblue" d="M339.326,-88.7636C410.924,-99.4893 515.261,-112.226 607,-112.226 607,-112.226 607,-112.226 780.5,-112.226 883.78,-112.226 1003.3,-112.226 1077.78,-112.226"/>
<polygon fill="midnightblue" stroke="midnightblue" points="339.417,-85.2374 329.005,-87.1974 338.367,-92.1582 339.417,-85.2374"/>
</g>
</g>
</svg>
        <g id="navigator" transform="translate(0 0)" fill="#404254">
                <rect fill="#f2f5e9" fill-opacity="0.5" stroke="#606060" stroke-width=".5" x="0" y="0" width="60" height="60"/>
                <use id="zoomplus" xlink:href="#zoomPlus" x="17" y="9" onmousedown="handleZoom(evt,'in')"/>
                <use id="zoomminus" xlink:href="#zoomMin" x="42" y="9" onmousedown="handleZoom(evt,'out')"/>
                <use id="reset" xlink:href="#resetDef" x="30" y="36" onmousedown="handleReset()"/>
                <g id="arrowUp" xlink:href="#dirArrow" transform="translate(30 24)" onmousedown="handlePan(0,-1)">
                  <use xlink:href="#rim" fill="#404040">
                        <set attributeName="fill" to="#808080" begin="arrowUp.mouseover" end="arrowUp.mouseout"/>
                  </use>
                  <path fill="none" stroke="white" stroke-width="1.5" d="M0,-3.0v7 M-2.5,-0.5L0,-3.0L2.5,-0.5"/>
                </g>
                <g id="arrowRight" xlink:href="#dirArrow" transform="rotate(90) translate(36 -43)" onmousedown="handlePan(1,0)">
                  <use xlink:href="#rim" fill="#404040">
                        <set attributeName="fill" to="#808080" begin="arrowRight.mouseover" end="arrowRight.mouseout"/>
                  </use>
                  <path fill="none" stroke="white" stroke-width="1.5" d="M0,-3.0v7 M-2.5,-0.5L0,-3.0L2.5,-0.5"/>
                </g>
                <g id="arrowDown" xlink:href="#dirArrow" transform="rotate(180) translate(-30 -48)" onmousedown="handlePan(0,1)">
                  <use xlink:href="#rim" fill="#404040">
                        <set attributeName="fill" to="#808080" begin="arrowDown.mouseover" end="arrowDown.mouseout"/>
                  </use>
                  <path fill="none" stroke="white" stroke-width="1.5" d="M0,-3.0v7 M-2.5,-0.5L0,-3.0L2.5,-0.5"/>
                </g>
                <g id="arrowLeft" xlink:href="#dirArrow" transform="rotate(270) translate(-36 17)" onmousedown="handlePan(-1,0)">
                  <use xlink:href="#rim" fill="#404040">
                        <set attributeName="fill" to="#808080" begin="arrowLeft.mouseover" end="arrowLeft.mouseout"/>
                  </use>
                  <path fill="none" stroke="white" stroke-width="1.5" d="M0,-3.0v7 M-2.5,-0.5L0,-3.0L2.5,-0.5"/>
                </g>
        </g>
        <svg viewBox="0 0 15 15" width="100%" height="30px" preserveAspectRatio="xMaxYMin meet">
         <g id="arrow_out" transform="scale(0.3 0.3)">
          <a xlink:href="class_g_p_s_driver_ashtech_a04eeb8d4cab06961f727d646222c5ccb_icgraph_org.svg" target="_base">
           <rect id="button" ry="5" rx="5" y="6" x="6" height="38" width="38"
                fill="#f2f5e9" fill-opacity="0.5" stroke="#606060" stroke-width="1.0"/>
           <path id="arrow"
             d="M 11.500037,31.436501 C 11.940474,20.09759 22.043105,11.32322 32.158766,21.979434 L 37.068811,17.246167 C 37.068811,17.246167 37.088388,32 37.088388,32 L 22.160133,31.978069 C 22.160133,31.978069 26.997745,27.140456 26.997745,27.140456 C 18.528582,18.264221 13.291696,25.230495 11.500037,31.436501 z"
             style="fill:#404040;"/>
          </a>
         </g>
        </svg>
</svg>
