<?xml version="1.0" encoding="UTF-8" standalone="no"?>
<!DOCTYPE svg PUBLIC "-//W3C//DTD SVG 1.1//EN"
 "http://www.w3.org/Graphics/SVG/1.1/DTD/svg11.dtd">
<!-- Generated by graphviz version 2.40.1 (20161225.0304)
 -->
<!-- Title: src/lib/rc/sbus.h Pages: 1 -->
<!--zoomable 162 -->
<svg id="main" version="1.1" xmlns="http://www.w3.org/2000/svg" xmlns:xlink="http://www.w3.org/1999/xlink" xml:space="preserve" onload="init(evt)">
<style type="text/css"><![CDATA[
.edge:hover path { stroke: red; }
.edge:hover polygon { stroke: red; fill: red; }
]]></style>
<script type="text/javascript"><![CDATA[
var edges = document.getElementsByTagName('g');
if (edges && edges.length) {
  for (var i=0;i<edges.length;i++) {
    if (edges[i].id.substr(0,4)=='edge') {
      edges[i].setAttribute('class','edge');
    }
  }
}
]]></script>
        <defs>
                <circle id="rim" cx="0" cy="0" r="7"/>
                <circle id="rim2" cx="0" cy="0" r="3.5"/>
                <g id="zoomPlus">
                        <use xlink:href="#rim" fill="#404040">
                                <set attributeName="fill" to="#808080" begin="zoomplus.mouseover" end="zoomplus.mouseout"/>
                        </use>
                        <path d="M-4,0h8M0,-4v8" fill="none" stroke="white" stroke-width="1.5" pointer-events="none"/>
                </g>
                <g id="zoomMin">
                        <use xlink:href="#rim" fill="#404040">
                                <set attributeName="fill" to="#808080" begin="zoomminus.mouseover" end="zoomminus.mouseout"/>
                        </use>
                        <path d="M-4,0h8" fill="none" stroke="white" stroke-width="1.5" pointer-events="none"/>
                </g>
                <g id="dirArrow">
                        <path fill="none" stroke="white" stroke-width="1.5" d="M0,-3.0v7 M-2.5,-0.5L0,-3.0L2.5,-0.5"/>
                </g>
               <g id="resetDef">
                       <use xlink:href="#rim2" fill="#404040">
                               <set attributeName="fill" to="#808080" begin="reset.mouseover" end="reset.mouseout"/>
                       </use>
               </g>
        </defs>

<script type="text/javascript">
var viewWidth = 1148;
var viewHeight = 162;
var sectionId = 'dynsection-1';
</script>
<script xlink:href="../../svgpan.js"/>
<svg id="graph" class="graph">
<g id="viewport">
<title>src/lib/rc/sbus.h</title>
<polygon fill="#ffffff" stroke="transparent" points="-4,4 -4,-158 1144,-158 1144,4 -4,4"/>
<!-- Node3 -->
<g id="node1" class="node">
<title>Node3</title>
<polygon fill="#bfbfbf" stroke="#000000" points="595,-134.5 595,-153.5 681,-153.5 681,-134.5 595,-134.5"/>
<text text-anchor="middle" x="638" y="-141.5" font-family="Helvetica,sans-Serif" font-size="10.00" fill="#000000">src/lib/rc/sbus.h</text>
</g>
<!-- Node4 -->
<g id="node2" class="node">
<title>Node4</title>
<g id="a_node2"><a xlink:href="../../df/d1a/_r_c_input_8hpp.html" target="_top" xlink:title="src/drivers/rc_input\l/RCInput.hpp">
<polygon fill="#ffffff" stroke="#000000" points="179,-67.5 179,-97.5 279,-97.5 279,-67.5 179,-67.5"/>
<text text-anchor="start" x="187" y="-85.5" font-family="Helvetica,sans-Serif" font-size="10.00" fill="#000000">src/drivers/rc_input</text>
<text text-anchor="middle" x="229" y="-74.5" font-family="Helvetica,sans-Serif" font-size="10.00" fill="#000000">/RCInput.hpp</text>
</a>
</g>
</g>
<!-- Node3&#45;&gt;Node4 -->
<g id="edge1" class="edge">
<title>Node3&#45;&gt;Node4</title>
<path fill="none" stroke="#191970" d="M584.332,-135.9301C504.8027,-123.9716 356.732,-101.7066 279.2318,-90.0532"/>
<polygon fill="#191970" stroke="#191970" points="584.2078,-139.4507 594.617,-137.4766 585.2487,-132.5285 584.2078,-139.4507"/>
</g>
<!-- Node6 -->
<g id="node4" class="node">
<title>Node6</title>
<g id="a_node4"><a xlink:href="../../d0/d37/common__rc_8h.html" target="_top" xlink:title="src/lib/rc/common_rc.h">
<polygon fill="#ffffff" stroke="#000000" points="420,-73 420,-92 536,-92 536,-73 420,-73"/>
<text text-anchor="middle" x="478" y="-80" font-family="Helvetica,sans-Serif" font-size="10.00" fill="#000000">src/lib/rc/common_rc.h</text>
</a>
</g>
</g>
<!-- Node3&#45;&gt;Node6 -->
<g id="edge3" class="edge">
<title>Node3&#45;&gt;Node6</title>
<path fill="none" stroke="#191970" d="M603.6568,-130.7993C573.3413,-119.1468 529.8769,-102.4402 502.8244,-92.0419"/>
<polygon fill="#191970" stroke="#191970" points="602.41,-134.0697 613,-134.3906 604.9216,-127.5357 602.41,-134.0697"/>
</g>
<!-- Node10 -->
<g id="node8" class="node">
<title>Node10</title>
<g id="a_node8"><a xlink:href="../../d6/daa/sbus_8cpp.html" target="_top" xlink:title="src/lib/rc/sbus.cpp">
<polygon fill="#ffffff" stroke="#000000" points="719.5,-6 719.5,-25 816.5,-25 816.5,-6 719.5,-6"/>
<text text-anchor="middle" x="768" y="-13" font-family="Helvetica,sans-Serif" font-size="10.00" fill="#000000">src/lib/rc/sbus.cpp</text>
</a>
</g>
</g>
<!-- Node3&#45;&gt;Node10 -->
<g id="edge11" class="edge">
<title>Node3&#45;&gt;Node10</title>
<path fill="none" stroke="#191970" d="M611.215,-128.871C600.3358,-121.1693 588.9463,-110.7251 583,-98 577.1672,-85.5178 574.6658,-77.9712 583,-67 584.1596,-65.4735 679.2236,-39.5364 732.6053,-25.0675"/>
<polygon fill="#191970" stroke="#191970" points="609.436,-131.8899 619.7167,-134.4509 613.277,-126.0378 609.436,-131.8899"/>
</g>
<!-- Node13 -->
<g id="node11" class="node">
<title>Node13</title>
<g id="a_node11"><a xlink:href="../../d3/dab/_r_c_test_8cpp.html" target="_top" xlink:title="src/lib/rc/rc_tests\l/RCTest.cpp">
<polygon fill="#ffffff" stroke="#000000" points="592,-67.5 592,-97.5 684,-97.5 684,-67.5 592,-67.5"/>
<text text-anchor="start" x="600" y="-85.5" font-family="Helvetica,sans-Serif" font-size="10.00" fill="#000000">src/lib/rc/rc_tests</text>
<text text-anchor="middle" x="638" y="-74.5" font-family="Helvetica,sans-Serif" font-size="10.00" fill="#000000">/RCTest.cpp</text>
</a>
</g>
</g>
<!-- Node3&#45;&gt;Node13 -->
<g id="edge10" class="edge">
<title>Node3&#45;&gt;Node13</title>
<path fill="none" stroke="#191970" d="M638,-124.3693C638,-115.681 638,-105.6241 638,-97.5446"/>
<polygon fill="#191970" stroke="#191970" points="634.5001,-124.3906 638,-134.3906 641.5001,-124.3907 634.5001,-124.3906"/>
</g>
<!-- Node14 -->
<g id="node12" class="node">
<title>Node14</title>
<g id="a_node12"><a xlink:href="../../d2/d2f/controls_8c.html" target="_top" xlink:title="R/C inputs and servo outputs. ">
<polygon fill="#ffffff" stroke="#000000" points="702,-67.5 702,-97.5 836,-97.5 836,-67.5 702,-67.5"/>
<text text-anchor="start" x="710" y="-85.5" font-family="Helvetica,sans-Serif" font-size="10.00" fill="#000000">src/modules/px4iofirmware</text>
<text text-anchor="middle" x="769" y="-74.5" font-family="Helvetica,sans-Serif" font-size="10.00" fill="#000000">/controls.c</text>
</a>
</g>
</g>
<!-- Node3&#45;&gt;Node14 -->
<g id="edge12" class="edge">
<title>Node3&#45;&gt;Node14</title>
<path fill="none" stroke="#191970" d="M667.7067,-130.0537C688.3443,-120.3651 715.8237,-107.4644 736.9538,-97.5446"/>
<polygon fill="#191970" stroke="#191970" points="666.0335,-126.9727 658.4688,-134.3906 669.0083,-133.3092 666.0335,-126.9727"/>
</g>
<!-- Node15 -->
<g id="node13" class="node">
<title>Node15</title>
<g id="a_node13"><a xlink:href="../../d1/da8/modules_2px4iofirmware_2_mixer_8cpp.html" target="_top" xlink:title="src/modules/px4iofirmware\l/mixer.cpp">
<polygon fill="#ffffff" stroke="#000000" points="854,-67.5 854,-97.5 988,-97.5 988,-67.5 854,-67.5"/>
<text text-anchor="start" x="862" y="-85.5" font-family="Helvetica,sans-Serif" font-size="10.00" fill="#000000">src/modules/px4iofirmware</text>
<text text-anchor="middle" x="921" y="-74.5" font-family="Helvetica,sans-Serif" font-size="10.00" fill="#000000">/mixer.cpp</text>
</a>
</g>
</g>
<!-- Node3&#45;&gt;Node15 -->
<g id="edge13" class="edge">
<title>Node3&#45;&gt;Node15</title>
<path fill="none" stroke="#191970" d="M691.0712,-132.4669C737.1046,-122.4631 803.9769,-107.9308 853.749,-97.1146"/>
<polygon fill="#191970" stroke="#191970" points="690.3183,-129.0487 681.2897,-134.5925 691.8049,-135.889 690.3183,-129.0487"/>
</g>
<!-- Node16 -->
<g id="node14" class="node">
<title>Node16</title>
<g id="a_node14"><a xlink:href="../../d4/d28/registers_8c.html" target="_top" xlink:title="Implementation of the PX4IO register space. ">
<polygon fill="#ffffff" stroke="#000000" points="1006,-67.5 1006,-97.5 1140,-97.5 1140,-67.5 1006,-67.5"/>
<text text-anchor="start" x="1014" y="-85.5" font-family="Helvetica,sans-Serif" font-size="10.00" fill="#000000">src/modules/px4iofirmware</text>
<text text-anchor="middle" x="1073" y="-74.5" font-family="Helvetica,sans-Serif" font-size="10.00" fill="#000000">/registers.c</text>
</a>
</g>
</g>
<!-- Node3&#45;&gt;Node16 -->
<g id="edge14" class="edge">
<title>Node3&#45;&gt;Node16</title>
<path fill="none" stroke="#191970" d="M691.6258,-138.378C761.9578,-130.7191 889.0981,-115.8911 997,-98 999.9226,-97.5154 1002.9042,-96.9996 1005.913,-96.4616"/>
<polygon fill="#191970" stroke="#191970" points="690.8192,-134.9448 681.2538,-139.5003 691.5723,-141.9042 690.8192,-134.9448"/>
</g>
<!-- Node5 -->
<g id="node3" class="node">
<title>Node5</title>
<g id="a_node3"><a xlink:href="../../d5/d40/_r_c_input_8cpp.html" target="_top" xlink:title="src/drivers/rc_input\l/RCInput.cpp">
<polygon fill="#ffffff" stroke="#000000" points="0,-.5 0,-30.5 100,-30.5 100,-.5 0,-.5"/>
<text text-anchor="start" x="8" y="-18.5" font-family="Helvetica,sans-Serif" font-size="10.00" fill="#000000">src/drivers/rc_input</text>
<text text-anchor="middle" x="50" y="-7.5" font-family="Helvetica,sans-Serif" font-size="10.00" fill="#000000">/RCInput.cpp</text>
</a>
</g>
</g>
<!-- Node4&#45;&gt;Node5 -->
<g id="edge2" class="edge">
<title>Node4&#45;&gt;Node5</title>
<path fill="none" stroke="#191970" d="M179.214,-63.865C151.1946,-53.3773 116.6613,-40.4515 90.3463,-30.6017"/>
<polygon fill="#191970" stroke="#191970" points="178.2365,-67.2362 188.8289,-67.4639 180.6904,-60.6804 178.2365,-67.2362"/>
</g>
<!-- Node7 -->
<g id="node5" class="node">
<title>Node7</title>
<g id="a_node5"><a xlink:href="../../d4/d74/common__rc_8cpp.html" target="_top" xlink:title="src/lib/rc/common_rc.cpp">
<polygon fill="#ffffff" stroke="#000000" points="118.5,-6 118.5,-25 245.5,-25 245.5,-6 118.5,-6"/>
<text text-anchor="middle" x="182" y="-13" font-family="Helvetica,sans-Serif" font-size="10.00" fill="#000000">src/lib/rc/common_rc.cpp</text>
</a>
</g>
</g>
<!-- Node6&#45;&gt;Node7 -->
<g id="edge4" class="edge">
<title>Node6&#45;&gt;Node7</title>
<path fill="none" stroke="#191970" d="M425.9621,-70.7211C368.6505,-57.7486 277.5891,-37.1367 224.4293,-25.1039"/>
<polygon fill="#191970" stroke="#191970" points="425.3788,-74.1776 435.9048,-72.9717 426.9242,-67.3503 425.3788,-74.1776"/>
</g>
<!-- Node8 -->
<g id="node6" class="node">
<title>Node8</title>
<g id="a_node6"><a xlink:href="../../d9/dd2/crsf_8cpp.html" target="_top" xlink:title="src/lib/rc/crsf.cpp">
<polygon fill="#ffffff" stroke="#000000" points="264,-6 264,-25 356,-25 356,-6 264,-6"/>
<text text-anchor="middle" x="310" y="-13" font-family="Helvetica,sans-Serif" font-size="10.00" fill="#000000">src/lib/rc/crsf.cpp</text>
</a>
</g>
</g>
<!-- Node6&#45;&gt;Node8 -->
<g id="edge5" class="edge">
<title>Node6&#45;&gt;Node8</title>
<path fill="none" stroke="#191970" d="M444.3514,-69.0806C411.6951,-56.057 362.948,-36.6162 334.0257,-25.0817"/>
<polygon fill="#191970" stroke="#191970" points="443.3446,-72.4471 453.9297,-72.9005 445.9377,-65.9451 443.3446,-72.4471"/>
</g>
<!-- Node9 -->
<g id="node7" class="node">
<title>Node9</title>
<g id="a_node7"><a xlink:href="../../d3/d37/dsm_8cpp.html" target="_top" xlink:title="Serial protocol decoder for the Spektrum DSM* family of protocols. ">
<polygon fill="#ffffff" stroke="#000000" points="374.5,-6 374.5,-25 469.5,-25 469.5,-6 374.5,-6"/>
<text text-anchor="middle" x="422" y="-13" font-family="Helvetica,sans-Serif" font-size="10.00" fill="#000000">src/lib/rc/dsm.cpp</text>
</a>
</g>
</g>
<!-- Node6&#45;&gt;Node9 -->
<g id="edge6" class="edge">
<title>Node6&#45;&gt;Node9</title>
<path fill="none" stroke="#191970" d="M463.5526,-65.2147C452.8761,-52.441 438.7351,-35.5224 430.0086,-25.0817"/>
<polygon fill="#191970" stroke="#191970" points="460.8779,-67.4723 469.9766,-72.9005 466.2489,-62.9831 460.8779,-67.4723"/>
</g>
<!-- Node6&#45;&gt;Node10 -->
<g id="edge7" class="edge">
<title>Node6&#45;&gt;Node10</title>
<path fill="none" stroke="#191970" d="M531.9858,-70.7957C589.5264,-58.2707 676.8237,-39.1114 710,-31 717.5934,-29.1434 725.7158,-27.0443 733.4054,-25.0042"/>
<polygon fill="#191970" stroke="#191970" points="530.9889,-67.4306 521.9613,-72.9762 532.4768,-74.2707 530.9889,-67.4306"/>
</g>
<!-- Node11 -->
<g id="node9" class="node">
<title>Node11</title>
<g id="a_node9"><a xlink:href="../../df/d25/st24_8cpp.html" target="_top" xlink:title="src/lib/rc/st24.cpp">
<polygon fill="#ffffff" stroke="#000000" points="487.5,-6 487.5,-25 582.5,-25 582.5,-6 487.5,-6"/>
<text text-anchor="middle" x="535" y="-13" font-family="Helvetica,sans-Serif" font-size="10.00" fill="#000000">src/lib/rc/st24.cpp</text>
</a>
</g>
</g>
<!-- Node6&#45;&gt;Node11 -->
<g id="edge8" class="edge">
<title>Node6&#45;&gt;Node11</title>
<path fill="none" stroke="#191970" d="M492.7054,-65.2147C503.5726,-52.441 517.966,-35.5224 526.8484,-25.0817"/>
<polygon fill="#191970" stroke="#191970" points="489.9807,-63.016 486.1667,-72.9005 495.3123,-67.5519 489.9807,-63.016"/>
</g>
<!-- Node12 -->
<g id="node10" class="node">
<title>Node12</title>
<g id="a_node10"><a xlink:href="../../d4/dd7/sumd_8cpp.html" target="_top" xlink:title="src/lib/rc/sumd.cpp">
<polygon fill="#ffffff" stroke="#000000" points="601,-6 601,-25 701,-25 701,-6 601,-6"/>
<text text-anchor="middle" x="651" y="-13" font-family="Helvetica,sans-Serif" font-size="10.00" fill="#000000">src/lib/rc/sumd.cpp</text>
</a>
</g>
</g>
<!-- Node6&#45;&gt;Node12 -->
<g id="edge9" class="edge">
<title>Node6&#45;&gt;Node12</title>
<path fill="none" stroke="#191970" d="M512.2162,-69.2487C545.8451,-56.2247 596.3478,-36.6659 626.2593,-25.0817"/>
<polygon fill="#191970" stroke="#191970" points="510.8478,-66.0252 502.7867,-72.9005 513.3758,-72.5528 510.8478,-66.0252"/>
</g>
</g>
</svg>
        <g id="navigator" transform="translate(0 0)" fill="#404254">
                <rect fill="#f2f5e9" fill-opacity="0.5" stroke="#606060" stroke-width=".5" x="0" y="0" width="60" height="60"/>
                <use id="zoomplus" xlink:href="#zoomPlus" x="17" y="9" onmousedown="handleZoom(evt,'in')"/>
                <use id="zoomminus" xlink:href="#zoomMin" x="42" y="9" onmousedown="handleZoom(evt,'out')"/>
                <use id="reset" xlink:href="#resetDef" x="30" y="36" onmousedown="handleReset()"/>
                <g id="arrowUp" xlink:href="#dirArrow" transform="translate(30 24)" onmousedown="handlePan(0,-1)">
                  <use xlink:href="#rim" fill="#404040">
                        <set attributeName="fill" to="#808080" begin="arrowUp.mouseover" end="arrowUp.mouseout"/>
                  </use>
                  <path fill="none" stroke="white" stroke-width="1.5" d="M0,-3.0v7 M-2.5,-0.5L0,-3.0L2.5,-0.5"/>
                </g>
                <g id="arrowRight" xlink:href="#dirArrow" transform="rotate(90) translate(36 -43)" onmousedown="handlePan(1,0)">
                  <use xlink:href="#rim" fill="#404040">
                        <set attributeName="fill" to="#808080" begin="arrowRight.mouseover" end="arrowRight.mouseout"/>
                  </use>
                  <path fill="none" stroke="white" stroke-width="1.5" d="M0,-3.0v7 M-2.5,-0.5L0,-3.0L2.5,-0.5"/>
                </g>
                <g id="arrowDown" xlink:href="#dirArrow" transform="rotate(180) translate(-30 -48)" onmousedown="handlePan(0,1)">
                  <use xlink:href="#rim" fill="#404040">
                        <set attributeName="fill" to="#808080" begin="arrowDown.mouseover" end="arrowDown.mouseout"/>
                  </use>
                  <path fill="none" stroke="white" stroke-width="1.5" d="M0,-3.0v7 M-2.5,-0.5L0,-3.0L2.5,-0.5"/>
                </g>
                <g id="arrowLeft" xlink:href="#dirArrow" transform="rotate(270) translate(-36 17)" onmousedown="handlePan(-1,0)">
                  <use xlink:href="#rim" fill="#404040">
                        <set attributeName="fill" to="#808080" begin="arrowLeft.mouseover" end="arrowLeft.mouseout"/>
                  </use>
                  <path fill="none" stroke="white" stroke-width="1.5" d="M0,-3.0v7 M-2.5,-0.5L0,-3.0L2.5,-0.5"/>
                </g>
        </g>
        <svg viewBox="0 0 15 15" width="100%" height="30px" preserveAspectRatio="xMaxYMin meet">
         <g id="arrow_out" transform="scale(0.3 0.3)">
          <a xlink:href="sbus_8h__dep__incl_org.svg" target="_base">
           <rect id="button" ry="5" rx="5" y="6" x="6" height="38" width="38"
                fill="#f2f5e9" fill-opacity="0.5" stroke="#606060" stroke-width="1.0"/>
           <path id="arrow"
             d="M 11.500037,31.436501 C 11.940474,20.09759 22.043105,11.32322 32.158766,21.979434 L 37.068811,17.246167 C 37.068811,17.246167 37.088388,32 37.088388,32 L 22.160133,31.978069 C 22.160133,31.978069 26.997745,27.140456 26.997745,27.140456 C 18.528582,18.264221 13.291696,25.230495 11.500037,31.436501 z"
             style="fill:#404040;"/>
          </a>
         </g>
        </svg>
</svg>
