<?xml version="1.0" encoding="UTF-8" standalone="no"?>
<!DOCTYPE svg PUBLIC "-//W3C//DTD SVG 1.1//EN"
 "http://www.w3.org/Graphics/SVG/1.1/DTD/svg11.dtd">
<!-- Generated by graphviz version 2.40.1 (20161225.0304)
 -->
<!-- Title: BMP388::start Pages: 1 -->
<svg width="557pt" height="28pt"
 viewBox="0.00 0.00 557.00 28.00" xmlns="http://www.w3.org/2000/svg" xmlns:xlink="http://www.w3.org/1999/xlink">
<g id="graph0" class="graph" transform="scale(1 1) rotate(0) translate(4 24)">
<title>BMP388::start</title>
<polygon fill="#ffffff" stroke="transparent" points="-4,4 -4,-24 553,-24 553,4 -4,4"/>
<!-- Node184 -->
<g id="node1" class="node">
<title>Node184</title>
<polygon fill="#bfbfbf" stroke="#000000" points="0,-.5 0,-19.5 80,-19.5 80,-.5 0,-.5"/>
<text text-anchor="middle" x="40" y="-7.5" font-family="Helvetica,sans-Serif" font-size="10.00" fill="#000000">BMP388::start</text>
</g>
<!-- Node185 -->
<g id="node2" class="node">
<title>Node185</title>
<g id="a_node2"><a xlink:href="../../d8/d99/class_b_m_p388.html#a79523cd8b599be033ae37a91b8071d81" target="_top" xlink:title="BMP388::init">
<polygon fill="#ffffff" stroke="#000000" points="116,-.5 116,-19.5 189,-19.5 189,-.5 116,-.5"/>
<text text-anchor="middle" x="152.5" y="-7.5" font-family="Helvetica,sans-Serif" font-size="10.00" fill="#000000">BMP388::init</text>
</a>
</g>
</g>
<!-- Node184&#45;&gt;Node185 -->
<g id="edge1" class="edge">
<title>Node184&#45;&gt;Node185</title>
<path fill="none" stroke="#191970" d="M90.5515,-10C99.0735,-10 107.7717,-10 115.853,-10"/>
<polygon fill="#191970" stroke="#191970" points="90.2974,-6.5001 80.2973,-10 90.2973,-13.5001 90.2974,-6.5001"/>
</g>
<!-- Node186 -->
<g id="node3" class="node">
<title>Node186</title>
<g id="a_node3"><a xlink:href="../../de/dda/namespacebmp388.html#a7d84c65c1993fba0ba86c5e7322009c6" target="_top" xlink:title="bmp388::start_bus">
<polygon fill="#ffffff" stroke="#000000" points="225,-.5 225,-19.5 323,-19.5 323,-.5 225,-.5"/>
<text text-anchor="middle" x="274" y="-7.5" font-family="Helvetica,sans-Serif" font-size="10.00" fill="#000000">bmp388::start_bus</text>
</a>
</g>
</g>
<!-- Node185&#45;&gt;Node186 -->
<g id="edge2" class="edge">
<title>Node185&#45;&gt;Node186</title>
<path fill="none" stroke="#191970" d="M199.5277,-10C207.8057,-10 216.4423,-10 224.7783,-10"/>
<polygon fill="#191970" stroke="#191970" points="199.2838,-6.5001 189.2837,-10 199.2837,-13.5001 199.2838,-6.5001"/>
</g>
<!-- Node187 -->
<g id="node4" class="node">
<title>Node187</title>
<g id="a_node4"><a xlink:href="../../de/dda/namespacebmp388.html#afd40db0e6f1df961d37d65e22f48edf7" target="_top" xlink:title="bmp388::start">
<polygon fill="#ffffff" stroke="#000000" points="359,-.5 359,-19.5 436,-19.5 436,-.5 359,-.5"/>
<text text-anchor="middle" x="397.5" y="-7.5" font-family="Helvetica,sans-Serif" font-size="10.00" fill="#000000">bmp388::start</text>
</a>
</g>
</g>
<!-- Node186&#45;&gt;Node187 -->
<g id="edge3" class="edge">
<title>Node186&#45;&gt;Node187</title>
<path fill="none" stroke="#191970" d="M333.2663,-10C341.9313,-10 350.6616,-10 358.7733,-10"/>
<polygon fill="#191970" stroke="#191970" points="333.1654,-6.5001 323.1653,-10 333.1653,-13.5001 333.1654,-6.5001"/>
</g>
<!-- Node188 -->
<g id="node5" class="node">
<title>Node188</title>
<g id="a_node5"><a xlink:href="../../d3/d3f/bmp388__main_8cpp.html#a8dc4838b79f1388fb2de532a3899f66e" target="_top" xlink:title="bmp388_main">
<polygon fill="#ffffff" stroke="#000000" points="472,-.5 472,-19.5 549,-19.5 549,-.5 472,-.5"/>
<text text-anchor="middle" x="510.5" y="-7.5" font-family="Helvetica,sans-Serif" font-size="10.00" fill="#000000">bmp388_main</text>
</a>
</g>
</g>
<!-- Node187&#45;&gt;Node188 -->
<g id="edge4" class="edge">
<title>Node187&#45;&gt;Node188</title>
<path fill="none" stroke="#191970" d="M446.2765,-10C454.7826,-10 463.5267,-10 471.718,-10"/>
<polygon fill="#191970" stroke="#191970" points="446.0722,-6.5001 436.0721,-10 446.0721,-13.5001 446.0722,-6.5001"/>
</g>
</g>
</svg>
