<?xml version="1.0" encoding="UTF-8" standalone="no"?>
<!DOCTYPE svg PUBLIC "-//W3C//DTD SVG 1.1//EN"
 "http://www.w3.org/Graphics/SVG/1.1/DTD/svg11.dtd">
<!-- Generated by graphviz version 2.40.1 (20161225.0304)
 -->
<!-- Title: src/drivers/uavcan/uavcan_drivers/stm32/driver/src/internal.hpp Pages: 1 -->
<svg width="124pt" height="117pt"
 viewBox="0.00 0.00 124.00 117.00" xmlns="http://www.w3.org/2000/svg" xmlns:xlink="http://www.w3.org/1999/xlink">
<g id="graph0" class="graph" transform="scale(1 1) rotate(0) translate(4 113)">
<title>src/drivers/uavcan/uavcan_drivers/stm32/driver/src/internal.hpp</title>
<polygon fill="#ffffff" stroke="transparent" points="-4,4 -4,-113 120,-113 120,4 -4,4"/>
<!-- Node0 -->
<g id="node1" class="node">
<title>Node0</title>
<polygon fill="#bfbfbf" stroke="#000000" points="0,-67.5 0,-108.5 116,-108.5 116,-67.5 0,-67.5"/>
<text text-anchor="start" x="8" y="-96.5" font-family="Helvetica,sans-Serif" font-size="10.00" fill="#000000">src/drivers/uavcan</text>
<text text-anchor="start" x="8" y="-85.5" font-family="Helvetica,sans-Serif" font-size="10.00" fill="#000000">/uavcan_drivers/stm32</text>
<text text-anchor="middle" x="58" y="-74.5" font-family="Helvetica,sans-Serif" font-size="10.00" fill="#000000">/driver/src/internal.hpp</text>
</g>
<!-- Node1 -->
<g id="node2" class="node">
<title>Node1</title>
<g id="a_node2"><a xlink:href="../../d1/d27/stm32_2driver_2include_2uavcan__stm32_2build__config_8hpp.html" target="_top" xlink:title="uavcan_stm32/build\l_config.hpp">
<polygon fill="#ffffff" stroke="#000000" points="6,-.5 6,-30.5 110,-30.5 110,-.5 6,-.5"/>
<text text-anchor="start" x="14" y="-18.5" font-family="Helvetica,sans-Serif" font-size="10.00" fill="#000000">uavcan_stm32/build</text>
<text text-anchor="middle" x="58" y="-7.5" font-family="Helvetica,sans-Serif" font-size="10.00" fill="#000000">_config.hpp</text>
</a>
</g>
</g>
<!-- Node0&#45;&gt;Node1 -->
<g id="edge1" class="edge">
<title>Node0&#45;&gt;Node1</title>
<path fill="none" stroke="#191970" d="M58,-67.4183C58,-59.0849 58,-49.3834 58,-40.6373"/>
<polygon fill="#191970" stroke="#191970" points="61.5001,-40.5991 58,-30.5991 54.5001,-40.5991 61.5001,-40.5991"/>
</g>
</g>
</svg>
