<?xml version="1.0" encoding="UTF-8" standalone="no"?>
<!DOCTYPE svg PUBLIC "-//W3C//DTD SVG 1.1//EN"
 "http://www.w3.org/Graphics/SVG/1.1/DTD/svg11.dtd">
<!-- Generated by graphviz version 2.40.1 (20161225.0304)
 -->
<!-- Title: VelocitySmoothing::evaluatePoly Pages: 1 -->
<svg width="603pt" height="103pt"
 viewBox="0.00 0.00 603.00 102.50" xmlns="http://www.w3.org/2000/svg" xmlns:xlink="http://www.w3.org/1999/xlink">
<g id="graph0" class="graph" transform="scale(1 1) rotate(0) translate(4 98.5)">
<title>VelocitySmoothing::evaluatePoly</title>
<polygon fill="#ffffff" stroke="transparent" points="-4,4 -4,-98.5 599,-98.5 599,4 -4,4"/>
<!-- Node83 -->
<g id="node1" class="node">
<title>Node83</title>
<polygon fill="#bfbfbf" stroke="#000000" points="0,-17 0,-47 104,-47 104,-17 0,-17"/>
<text text-anchor="start" x="8" y="-35" font-family="Helvetica,sans-Serif" font-size="10.00" fill="#000000">VelocitySmoothing::</text>
<text text-anchor="middle" x="52" y="-24" font-family="Helvetica,sans-Serif" font-size="10.00" fill="#000000">evaluatePoly</text>
</g>
<!-- Node84 -->
<g id="node2" class="node">
<title>Node84</title>
<g id="a_node2"><a xlink:href="../../d2/d64/class_velocity_smoothing.html#a8d0ee4652057c652ed4a4e1d6b74ded2" target="_top" xlink:title="Generate the trajectory (acceleration, velocity and position) by integrating the current jerk...">
<polygon fill="#ffffff" stroke="#000000" points="140,-17 140,-47 244,-47 244,-17 140,-17"/>
<text text-anchor="start" x="148" y="-35" font-family="Helvetica,sans-Serif" font-size="10.00" fill="#000000">VelocitySmoothing::</text>
<text text-anchor="middle" x="192" y="-24" font-family="Helvetica,sans-Serif" font-size="10.00" fill="#000000">updateTraj</text>
</a>
</g>
</g>
<!-- Node83&#45;&gt;Node84 -->
<g id="edge1" class="edge">
<title>Node83&#45;&gt;Node84</title>
<path fill="none" stroke="#191970" d="M114.3869,-32C122.8847,-32 131.5339,-32 139.8256,-32"/>
<polygon fill="#191970" stroke="#191970" points="114.1309,-28.5001 104.1308,-32 114.1308,-35.5001 114.1309,-28.5001"/>
</g>
<!-- Node85 -->
<g id="node3" class="node">
<title>Node85</title>
<g id="a_node3"><a xlink:href="../../d5/d2f/class_manual_velocity_smoothing_z.html#acde8ef617a388b3fe95c526c35dc2915" target="_top" xlink:title="ManualVelocitySmoothingZ\l::updateTrajectories">
<polygon fill="#ffffff" stroke="#000000" points="280,-39 280,-69 416,-69 416,-39 280,-39"/>
<text text-anchor="start" x="288" y="-57" font-family="Helvetica,sans-Serif" font-size="10.00" fill="#000000">ManualVelocitySmoothingZ</text>
<text text-anchor="middle" x="348" y="-46" font-family="Helvetica,sans-Serif" font-size="10.00" fill="#000000">::updateTrajectories</text>
</a>
</g>
</g>
<!-- Node84&#45;&gt;Node85 -->
<g id="edge2" class="edge">
<title>Node84&#45;&gt;Node85</title>
<path fill="none" stroke="#191970" d="M254.4607,-40.8086C262.8494,-41.9916 271.4881,-43.2099 279.967,-44.4056"/>
<polygon fill="#191970" stroke="#191970" points="254.7705,-37.3177 244.3797,-39.3869 253.793,-44.2491 254.7705,-37.3177"/>
</g>
<!-- Node88 -->
<g id="node6" class="node">
<title>Node88</title>
<g id="a_node6"><a xlink:href="../../dc/dd8/test__velocity__smoothing_8cpp.html#a0ddf1224851353fc92bfbff6f499fa97" target="_top" xlink:title="Test code for the Velocity Smoothing library Build and run using: make &amp;&amp; . ">
<polygon fill="#ffffff" stroke="#000000" points="329,-.5 329,-19.5 367,-19.5 367,-.5 329,-.5"/>
<text text-anchor="middle" x="348" y="-7.5" font-family="Helvetica,sans-Serif" font-size="10.00" fill="#000000">main</text>
</a>
</g>
</g>
<!-- Node84&#45;&gt;Node88 -->
<g id="edge5" class="edge">
<title>Node84&#45;&gt;Node88</title>
<path fill="none" stroke="#191970" d="M254.4242,-23.1966C281.0252,-19.4452 310.1458,-15.3384 328.7198,-12.719"/>
<polygon fill="#191970" stroke="#191970" points="253.793,-19.7509 244.3797,-24.6131 254.7705,-26.6823 253.793,-19.7509"/>
</g>
<!-- Node86 -->
<g id="node4" class="node">
<title>Node86</title>
<g id="a_node4"><a xlink:href="../../d5/d2f/class_manual_velocity_smoothing_z.html#a4844ebfec3db344bf4cc4aad945de4d9" target="_top" xlink:title="ManualVelocitySmoothingZ\l::setCurrentPositionEstimate">
<polygon fill="#ffffff" stroke="#000000" points="452,-64 452,-94 595,-94 595,-64 452,-64"/>
<text text-anchor="start" x="460" y="-82" font-family="Helvetica,sans-Serif" font-size="10.00" fill="#000000">ManualVelocitySmoothingZ</text>
<text text-anchor="middle" x="523.5" y="-71" font-family="Helvetica,sans-Serif" font-size="10.00" fill="#000000">::setCurrentPositionEstimate</text>
</a>
</g>
</g>
<!-- Node85&#45;&gt;Node86 -->
<g id="edge3" class="edge">
<title>Node85&#45;&gt;Node86</title>
<path fill="none" stroke="#191970" d="M426.1198,-65.1282C434.7176,-66.3529 443.4403,-67.5955 451.9523,-68.808"/>
<polygon fill="#191970" stroke="#191970" points="426.4978,-61.6468 416.1041,-63.7014 425.5105,-68.5768 426.4978,-61.6468"/>
</g>
<!-- Node87 -->
<g id="node5" class="node">
<title>Node87</title>
<g id="a_node5"><a xlink:href="../../d5/d2f/class_manual_velocity_smoothing_z.html#a902904f643eb903c564ada6d52c3ed6e" target="_top" xlink:title="ManualVelocitySmoothingZ\l::update">
<polygon fill="#ffffff" stroke="#000000" points="455.5,-15 455.5,-45 591.5,-45 591.5,-15 455.5,-15"/>
<text text-anchor="start" x="463.5" y="-33" font-family="Helvetica,sans-Serif" font-size="10.00" fill="#000000">ManualVelocitySmoothingZ</text>
<text text-anchor="middle" x="523.5" y="-22" font-family="Helvetica,sans-Serif" font-size="10.00" fill="#000000">::update</text>
</a>
</g>
</g>
<!-- Node85&#45;&gt;Node87 -->
<g id="edge4" class="edge">
<title>Node85&#45;&gt;Node87</title>
<path fill="none" stroke="#191970" d="M426.1887,-43.3075C435.941,-41.9739 445.8527,-40.6184 455.4342,-39.3081"/>
<polygon fill="#191970" stroke="#191970" points="425.5376,-39.8639 416.1041,-44.6866 426.4861,-46.7994 425.5376,-39.8639"/>
</g>
</g>
</svg>
