<?xml version="1.0" encoding="UTF-8" standalone="no"?>
<!DOCTYPE svg PUBLIC "-//W3C//DTD SVG 1.1//EN"
 "http://www.w3.org/Graphics/SVG/1.1/DTD/svg11.dtd">
<!-- Generated by graphviz version 2.38.0 (20140413.2041)
 -->
<!-- Title: MPU9250_gyro::~MPU9250_gyro Pages: 1 -->
<svg width="609pt" height="66pt"
 viewBox="0.00 0.00 609.00 66.00" xmlns="http://www.w3.org/2000/svg" xmlns:xlink="http://www.w3.org/1999/xlink">
<g id="graph0" class="graph" transform="scale(1 1) rotate(0) translate(4 62)">
<title>MPU9250_gyro::~MPU9250_gyro</title>
<polygon fill="white" stroke="none" points="-4,4 -4,-62 605,-62 605,4 -4,4"/>
<!-- Node1 -->
<g id="node1" class="node"><title>Node1</title>
<polygon fill="#bfbfbf" stroke="black" points="0,-19.5 0,-38.5 164,-38.5 164,-19.5 0,-19.5"/>
<text text-anchor="middle" x="82" y="-26.5" font-family="Helvetica,sans-Serif" font-size="10.00">MPU9250_gyro::~MPU9250_gyro</text>
</g>
<!-- Node2 -->
<g id="node2" class="node"><title>Node2</title>
<g id="a_node2"><a xlink:href="../../db/dcf/classdevice_1_1_c_dev.html#a1bc70f8f4087d2acf0ffe516f15c9e38" target="_top" xlink:title="Register a class device name, automatically adding device class instance suffix if need be...">
<polygon fill="white" stroke="black" points="200,-14 200,-44 325,-44 325,-14 200,-14"/>
<text text-anchor="start" x="208" y="-32" font-family="Helvetica,sans-Serif" font-size="10.00">device::CDev::unregister</text>
<text text-anchor="middle" x="262.5" y="-21" font-family="Helvetica,sans-Serif" font-size="10.00">_class_devname</text>
</a>
</g>
</g>
<!-- Node1&#45;&gt;Node2 -->
<g id="edge1" class="edge"><title>Node1&#45;&gt;Node2</title>
<path fill="none" stroke="midnightblue" d="M164.154,-29C172.666,-29 181.277,-29 189.673,-29"/>
<polygon fill="midnightblue" stroke="midnightblue" points="189.788,-32.5001 199.788,-29 189.788,-25.5001 189.788,-32.5001"/>
</g>
<!-- Node3 -->
<g id="node3" class="node"><title>Node3</title>
<g id="a_node3"><a xlink:href="../../da/dc9/posix_2cdev__platform_8cpp.html#a982c5d28fb1c9d81d326b245be5aac6b" target="_top" xlink:title="unregister_driver">
<polygon fill="white" stroke="black" points="361,-19.5 361,-38.5 450,-38.5 450,-19.5 361,-19.5"/>
<text text-anchor="middle" x="405.5" y="-26.5" font-family="Helvetica,sans-Serif" font-size="10.00">unregister_driver</text>
</a>
</g>
</g>
<!-- Node2&#45;&gt;Node3 -->
<g id="edge2" class="edge"><title>Node2&#45;&gt;Node3</title>
<path fill="none" stroke="midnightblue" d="M325.345,-29C333.773,-29 342.369,-29 350.641,-29"/>
<polygon fill="midnightblue" stroke="midnightblue" points="350.908,-32.5001 360.908,-29 350.908,-25.5001 350.908,-32.5001"/>
</g>
<!-- Node4 -->
<g id="node4" class="node"><title>Node4</title>
<g id="a_node4"><a xlink:href="../../d6/dfb/stubs__posix_8c.html#a12809c44718c21544ceb280dc1a53573" target="_top" xlink:title="pthread_mutex_lock">
<polygon fill="white" stroke="black" points="491.5,-38.5 491.5,-57.5 595.5,-57.5 595.5,-38.5 491.5,-38.5"/>
<text text-anchor="middle" x="543.5" y="-45.5" font-family="Helvetica,sans-Serif" font-size="10.00">pthread_mutex_lock</text>
</a>
</g>
</g>
<!-- Node3&#45;&gt;Node4 -->
<g id="edge3" class="edge"><title>Node3&#45;&gt;Node4</title>
<path fill="none" stroke="midnightblue" d="M450.28,-35.1163C460.166,-36.4974 470.837,-37.9883 481.292,-39.4489"/>
<polygon fill="midnightblue" stroke="midnightblue" points="480.829,-42.9182 491.217,-40.8355 481.798,-35.9855 480.829,-42.9182"/>
</g>
<!-- Node5 -->
<g id="node5" class="node"><title>Node5</title>
<g id="a_node5"><a xlink:href="../../d6/dfb/stubs__posix_8c.html#a96184290ffb60e04c53a52869cf960a2" target="_top" xlink:title="pthread_mutex_unlock">
<polygon fill="white" stroke="black" points="486,-0.5 486,-19.5 601,-19.5 601,-0.5 486,-0.5"/>
<text text-anchor="middle" x="543.5" y="-7.5" font-family="Helvetica,sans-Serif" font-size="10.00">pthread_mutex_unlock</text>
</a>
</g>
</g>
<!-- Node3&#45;&gt;Node5 -->
<g id="edge4" class="edge"><title>Node3&#45;&gt;Node5</title>
<path fill="none" stroke="midnightblue" d="M450.28,-22.8837C458.428,-21.7453 467.111,-20.5324 475.765,-19.3232"/>
<polygon fill="midnightblue" stroke="midnightblue" points="476.46,-22.7603 485.879,-17.9103 475.491,-15.8276 476.46,-22.7603"/>
</g>
</g>
</svg>
