<?xml version="1.0" encoding="UTF-8" standalone="no"?>
<!DOCTYPE svg PUBLIC "-//W3C//DTD SVG 1.1//EN"
 "http://www.w3.org/Graphics/SVG/1.1/DTD/svg11.dtd">
<!-- Generated by graphviz version 2.38.0 (20140413.2041)
 -->
<!-- Title: VideoDevice::init_buffers Pages: 1 -->
<svg width="818pt" height="66pt"
 viewBox="0.00 0.00 818.00 66.00" xmlns="http://www.w3.org/2000/svg" xmlns:xlink="http://www.w3.org/1999/xlink">
<g id="graph0" class="graph" transform="scale(1 1) rotate(0) translate(4 62)">
<title>VideoDevice::init_buffers</title>
<polygon fill="white" stroke="none" points="-4,4 -4,-62 814,-62 814,4 -4,4"/>
<!-- Node1 -->
<g id="node1" class="node"><title>Node1</title>
<polygon fill="#bfbfbf" stroke="black" points="0,-19.5 0,-38.5 126,-38.5 126,-19.5 0,-19.5"/>
<text text-anchor="middle" x="63" y="-26.5" font-family="Helvetica,sans-Serif" font-size="10.00">VideoDevice::init_buffers</text>
</g>
<!-- Node2 -->
<g id="node2" class="node"><title>Node2</title>
<g id="a_node2"><a xlink:href="../../d4/d87/class_video_device.html#a2bf286beb690e13b24e779f302a01d67" target="_top" xlink:title="VideoDevice::init_device">
<polygon fill="white" stroke="black" points="162,-38.5 162,-57.5 287,-57.5 287,-38.5 162,-38.5"/>
<text text-anchor="middle" x="224.5" y="-45.5" font-family="Helvetica,sans-Serif" font-size="10.00">VideoDevice::init_device</text>
</a>
</g>
</g>
<!-- Node1&#45;&gt;Node2 -->
<g id="edge1" class="edge"><title>Node1&#45;&gt;Node2</title>
<path fill="none" stroke="midnightblue" d="M136.116,-37.5906C144.695,-38.6126 153.393,-39.6487 161.808,-40.6511"/>
<polygon fill="midnightblue" stroke="midnightblue" points="136.467,-34.1078 126.124,-36.4003 135.639,-41.0587 136.467,-34.1078"/>
</g>
<!-- Node3 -->
<g id="node3" class="node"><title>Node3</title>
<g id="a_node3"><a xlink:href="../../d4/d87/class_video_device.html#a089a5fea852bef2078bfcf9b8bc7b16e" target="_top" xlink:title="Start the device. ">
<polygon fill="white" stroke="black" points="323,-19.5 323,-38.5 421,-38.5 421,-19.5 323,-19.5"/>
<text text-anchor="middle" x="372" y="-26.5" font-family="Helvetica,sans-Serif" font-size="10.00">VideoDevice::start</text>
</a>
</g>
</g>
<!-- Node2&#45;&gt;Node3 -->
<g id="edge2" class="edge"><title>Node2&#45;&gt;Node3</title>
<path fill="none" stroke="midnightblue" d="M297.336,-38.6194C305.998,-37.4883 314.677,-36.3549 322.882,-35.2834"/>
<polygon fill="midnightblue" stroke="midnightblue" points="296.668,-35.1768 287.205,-39.9423 297.574,-42.1179 296.668,-35.1768"/>
</g>
<!-- Node3&#45;&gt;Node1 -->
<g id="edge8" class="edge"><title>Node3&#45;&gt;Node1</title>
<path fill="none" stroke="midnightblue" d="M312.252,-29C258.91,-29 180.495,-29 126.126,-29"/>
<polygon fill="midnightblue" stroke="midnightblue" points="312.572,-32.5001 322.572,-29 312.572,-25.5001 312.572,-32.5001"/>
</g>
<!-- Node4 -->
<g id="node4" class="node"><title>Node4</title>
<g id="a_node4"><a xlink:href="../../d1/d4d/namespacebebop__flow.html#a95d5a3f0462af9d5943036f1b2e8eaeb" target="_top" xlink:title="Attempt to start driver on all available I2C busses. ">
<polygon fill="white" stroke="black" points="590,-38.5 590,-57.5 682,-57.5 682,-38.5 590,-38.5"/>
<text text-anchor="middle" x="636" y="-45.5" font-family="Helvetica,sans-Serif" font-size="10.00">bebop_flow::start</text>
</a>
</g>
</g>
<!-- Node3&#45;&gt;Node4 -->
<g id="edge3" class="edge"><title>Node3&#45;&gt;Node4</title>
<path fill="none" stroke="midnightblue" d="M431.271,-33.2258C479.149,-36.6978 546.001,-41.5459 589.877,-44.7277"/>
<polygon fill="midnightblue" stroke="midnightblue" points="431.282,-29.7174 421.055,-32.4849 430.775,-36.6991 431.282,-29.7174"/>
</g>
<!-- Node6 -->
<g id="node6" class="node"><title>Node6</title>
<g id="a_node6"><a xlink:href="../../d4/d87/class_video_device.html#a9460a8d99ac5fb402ab3ddee9e32482c" target="_top" xlink:title="Stop the device. ">
<polygon fill="white" stroke="black" points="457,-0.5 457,-19.5 554,-19.5 554,-0.5 457,-0.5"/>
<text text-anchor="middle" x="505.5" y="-7.5" font-family="Helvetica,sans-Serif" font-size="10.00">VideoDevice::stop</text>
</a>
</g>
</g>
<!-- Node3&#45;&gt;Node6 -->
<g id="edge5" class="edge"><title>Node3&#45;&gt;Node6</title>
<path fill="none" stroke="midnightblue" d="M431.141,-20.5993C439.692,-19.3639 448.417,-18.1033 456.726,-16.9027"/>
<polygon fill="midnightblue" stroke="midnightblue" points="430.616,-17.1389 421.219,-22.033 431.617,-24.0669 430.616,-17.1389"/>
</g>
<!-- Node5 -->
<g id="node5" class="node"><title>Node5</title>
<g id="a_node5"><a xlink:href="../../d5/d8e/bebop__flow_8cpp.html#a73c8f72ac5497bbbb4b4e71a8175d26e" target="_top" xlink:title="bebop_flow_main">
<polygon fill="white" stroke="black" points="718,-19.5 718,-38.5 810,-38.5 810,-19.5 718,-19.5"/>
<text text-anchor="middle" x="764" y="-26.5" font-family="Helvetica,sans-Serif" font-size="10.00">bebop_flow_main</text>
</a>
</g>
</g>
<!-- Node4&#45;&gt;Node5 -->
<g id="edge4" class="edge"><title>Node4&#45;&gt;Node5</title>
<path fill="none" stroke="midnightblue" d="M692.074,-39.6952C700.653,-38.4016 709.431,-37.0779 717.759,-35.8221"/>
<polygon fill="midnightblue" stroke="midnightblue" points="691.499,-36.2422 682.133,-41.1942 692.543,-43.1639 691.499,-36.2422"/>
</g>
<!-- Node7 -->
<g id="node7" class="node"><title>Node7</title>
<g id="a_node7"><a xlink:href="../../d1/d4d/namespacebebop__flow.html#aa84e86bca15b962646a3087085f5fc19" target="_top" xlink:title="Stop the driver. ">
<polygon fill="white" stroke="black" points="590.5,-0.5 590.5,-19.5 681.5,-19.5 681.5,-0.5 590.5,-0.5"/>
<text text-anchor="middle" x="636" y="-7.5" font-family="Helvetica,sans-Serif" font-size="10.00">bebop_flow::stop</text>
</a>
</g>
</g>
<!-- Node6&#45;&gt;Node7 -->
<g id="edge6" class="edge"><title>Node6&#45;&gt;Node7</title>
<path fill="none" stroke="midnightblue" d="M564.369,-10C572.998,-10 581.783,-10 590.091,-10"/>
<polygon fill="midnightblue" stroke="midnightblue" points="564.349,-6.5001 554.349,-10 564.349,-13.5001 564.349,-6.5001"/>
</g>
<!-- Node7&#45;&gt;Node5 -->
<g id="edge7" class="edge"><title>Node7&#45;&gt;Node5</title>
<path fill="none" stroke="midnightblue" d="M691.863,-18.2731C700.572,-19.5863 709.492,-20.9313 717.942,-22.2055"/>
<polygon fill="midnightblue" stroke="midnightblue" points="692.188,-14.7825 681.778,-16.7522 691.144,-21.7042 692.188,-14.7825"/>
</g>
</g>
</svg>
