<?xml version="1.0" encoding="UTF-8" standalone="no"?>
<!DOCTYPE svg PUBLIC "-//W3C//DTD SVG 1.1//EN"
 "http://www.w3.org/Graphics/SVG/1.1/DTD/svg11.dtd">
<!-- Generated by graphviz version 2.40.1 (20161225.0304)
 -->
<!-- Title: MavlinkStream::update Pages: 1 -->
<svg width="303pt" height="137pt"
 viewBox="0.00 0.00 303.00 137.00" xmlns="http://www.w3.org/2000/svg" xmlns:xlink="http://www.w3.org/1999/xlink">
<g id="graph0" class="graph" transform="scale(1 1) rotate(0) translate(4 133)">
<title>MavlinkStream::update</title>
<polygon fill="#ffffff" stroke="transparent" points="-4,4 -4,-133 299,-133 299,4 -4,4"/>
<!-- Node78 -->
<g id="node1" class="node">
<title>Node78</title>
<polygon fill="#bfbfbf" stroke="#000000" points="0,-55 0,-74 117,-74 117,-55 0,-55"/>
<text text-anchor="middle" x="58.5" y="-62" font-family="Helvetica,sans-Serif" font-size="10.00" fill="#000000">MavlinkStream::update</text>
</g>
<!-- Node79 -->
<g id="node2" class="node">
<title>Node79</title>
<g id="a_node2"><a xlink:href="../../d1/df2/class_mavlink_stream.html#a3f00bff476cba7a35bf8fd1e4a07a211" target="_top" xlink:title="Get the interval. ">
<polygon fill="#ffffff" stroke="#000000" points="173.5,-98.5 173.5,-128.5 274.5,-128.5 274.5,-98.5 173.5,-98.5"/>
<text text-anchor="start" x="181.5" y="-116.5" font-family="Helvetica,sans-Serif" font-size="10.00" fill="#000000">MavlinkStream::get</text>
<text text-anchor="middle" x="224" y="-105.5" font-family="Helvetica,sans-Serif" font-size="10.00" fill="#000000">_interval</text>
</a>
</g>
</g>
<!-- Node78&#45;&gt;Node79 -->
<g id="edge1" class="edge">
<title>Node78&#45;&gt;Node79</title>
<path fill="none" stroke="#191970" d="M100.5643,-76.9541C122.6708,-83.4992 149.9348,-91.5713 173.2119,-98.463"/>
<polygon fill="#191970" stroke="#191970" points="101.3852,-73.547 90.8029,-74.064 99.3979,-80.259 101.3852,-73.547"/>
</g>
<!-- Node80 -->
<g id="node3" class="node">
<title>Node80</title>
<g id="a_node3"><a xlink:href="../../d0/d79/class_mavlink_stream_sys_status.html#aade6ccffb7425888107dbb55b19b288f" target="_top" xlink:title="MavlinkStreamSysStatus\l::send">
<polygon fill="#ffffff" stroke="#000000" points="160,-49.5 160,-79.5 288,-79.5 288,-49.5 160,-49.5"/>
<text text-anchor="start" x="168" y="-67.5" font-family="Helvetica,sans-Serif" font-size="10.00" fill="#000000">MavlinkStreamSysStatus</text>
<text text-anchor="middle" x="224" y="-56.5" font-family="Helvetica,sans-Serif" font-size="10.00" fill="#000000">::send</text>
</a>
</g>
</g>
<!-- Node78&#45;&gt;Node80 -->
<g id="edge2" class="edge">
<title>Node78&#45;&gt;Node80</title>
<path fill="none" stroke="#191970" d="M127.4513,-64.5C138.1499,-64.5 149.1651,-64.5 159.7543,-64.5"/>
<polygon fill="#191970" stroke="#191970" points="127.3151,-61.0001 117.3151,-64.5 127.3151,-68.0001 127.3151,-61.0001"/>
</g>
<!-- Node81 -->
<g id="node4" class="node">
<title>Node81</title>
<g id="a_node4"><a xlink:href="../../db/d2f/class_mavlink_stream_battery_status.html#a0a2b548643130ee3b087720932b4874d" target="_top" xlink:title="MavlinkStreamBatteryStatus\l::send">
<polygon fill="#ffffff" stroke="#000000" points="153,-.5 153,-30.5 295,-30.5 295,-.5 153,-.5"/>
<text text-anchor="start" x="161" y="-18.5" font-family="Helvetica,sans-Serif" font-size="10.00" fill="#000000">MavlinkStreamBatteryStatus</text>
<text text-anchor="middle" x="224" y="-7.5" font-family="Helvetica,sans-Serif" font-size="10.00" fill="#000000">::send</text>
</a>
</g>
</g>
<!-- Node78&#45;&gt;Node81 -->
<g id="edge3" class="edge">
<title>Node78&#45;&gt;Node81</title>
<path fill="none" stroke="#191970" d="M100.5643,-52.0459C122.6708,-45.5008 149.9348,-37.4287 173.2119,-30.537"/>
<polygon fill="#191970" stroke="#191970" points="99.3979,-48.741 90.8029,-54.936 101.3852,-55.453 99.3979,-48.741"/>
</g>
</g>
</svg>
