<?xml version="1.0" encoding="UTF-8" standalone="no"?>
<!DOCTYPE svg PUBLIC "-//W3C//DTD SVG 1.1//EN"
 "http://www.w3.org/Graphics/SVG/1.1/DTD/svg11.dtd">
<!-- Generated by graphviz version 2.38.0 (20140413.2041)
 -->
<!-- Title: MavlinkStream::const_rate Pages: 1 -->
<!--zoomable 409 -->
<svg id="main" version="1.1" xmlns="http://www.w3.org/2000/svg" xmlns:xlink="http://www.w3.org/1999/xlink" xml:space="preserve" onload="init(evt)">
<style type="text/css"><![CDATA[
.edge:hover path { stroke: red; }
.edge:hover polygon { stroke: red; fill: red; }
]]></style>
<script type="text/javascript"><![CDATA[
var edges = document.getElementsByTagName('g');
if (edges && edges.length) {
  for (var i=0;i<edges.length;i++) {
    if (edges[i].id.substr(0,4)=='edge') {
      edges[i].setAttribute('class','edge');
    }
  }
}
]]></script>
        <defs>
                <circle id="rim" cx="0" cy="0" r="7"/>
                <circle id="rim2" cx="0" cy="0" r="3.5"/>
                <g id="zoomPlus">
                        <use xlink:href="#rim" fill="#404040">
                                <set attributeName="fill" to="#808080" begin="zoomplus.mouseover" end="zoomplus.mouseout"/>
                        </use>
                        <path d="M-4,0h8M0,-4v8" fill="none" stroke="white" stroke-width="1.5" pointer-events="none"/>
                </g>
                <g id="zoomMin">
                        <use xlink:href="#rim" fill="#404040">
                                <set attributeName="fill" to="#808080" begin="zoomminus.mouseover" end="zoomminus.mouseout"/>
                        </use>
                        <path d="M-4,0h8" fill="none" stroke="white" stroke-width="1.5" pointer-events="none"/>
                </g>
                <g id="dirArrow">
                        <path fill="none" stroke="white" stroke-width="1.5" d="M0,-3.0v7 M-2.5,-0.5L0,-3.0L2.5,-0.5"/>
                </g>
               <g id="resetDef">
                       <use xlink:href="#rim2" fill="#404040">
                               <set attributeName="fill" to="#808080" begin="reset.mouseover" end="reset.mouseout"/>
                       </use>
               </g>
        </defs>

<script type="text/javascript">
var viewWidth = 2684;
var viewHeight = 409;
var sectionId = 'dynsection-4';
</script>
<script xlink:href="../../svgpan.js"/>
<svg id="graph" class="graph">
<g id="viewport">
<title>MavlinkStream::const_rate</title>
<polygon fill="white" stroke="none" points="-4,4 -4,-404.5 2680,-404.5 2680,4 -4,4"/>
<!-- Node1 -->
<g id="node1" class="node"><title>Node1</title>
<polygon fill="#bfbfbf" stroke="black" points="0,-321 0,-340 134,-340 134,-321 0,-321"/>
<text text-anchor="middle" x="67" y="-328" font-family="Helvetica,sans-Serif" font-size="10.00">MavlinkStream::const_rate</text>
</g>
<!-- Node2 -->
<g id="node2" class="node"><title>Node2</title>
<g id="a_node2"><a xlink:href="../../df/d1f/class_mavlink.html#a53bdb0583a7d821d066685d408a0bc6a" target="_top" xlink:title="Display the status of all enabled streams. ">
<polygon fill="white" stroke="black" points="466,-205.5 466,-235.5 585,-235.5 585,-205.5 466,-205.5"/>
<text text-anchor="start" x="474" y="-223.5" font-family="Helvetica,sans-Serif" font-size="10.00">Mavlink::display_status</text>
<text text-anchor="middle" x="525.5" y="-212.5" font-family="Helvetica,sans-Serif" font-size="10.00">_streams</text>
</a>
</g>
</g>
<!-- Node1&#45;&gt;Node2 -->
<g id="edge1" class="edge"><title>Node1&#45;&gt;Node2</title>
<path fill="none" stroke="midnightblue" d="M117.614,-318.545C202.466,-298.099 375.057,-256.51 465.774,-234.651"/>
<polygon fill="midnightblue" stroke="midnightblue" points="116.615,-315.185 107.713,-320.931 118.254,-321.991 116.615,-315.185"/>
</g>
<!-- Node30 -->
<g id="node30" class="node"><title>Node30</title>
<g id="a_node30"><a xlink:href="../../d1/df2/class_mavlink_stream.html#ac861aa2bd187c1856606d25c2b33df95" target="_top" xlink:title="Update subscriptions and send message if necessary. ">
<polygon fill="white" stroke="black" points="170,-321 170,-340 287,-340 287,-321 170,-321"/>
<text text-anchor="middle" x="228.5" y="-328" font-family="Helvetica,sans-Serif" font-size="10.00">MavlinkStream::update</text>
</a>
</g>
</g>
<!-- Node1&#45;&gt;Node30 -->
<g id="edge39" class="edge"><title>Node1&#45;&gt;Node30</title>
<path fill="none" stroke="midnightblue" d="M144.295,-330.5C152.888,-330.5 161.534,-330.5 169.834,-330.5"/>
<polygon fill="midnightblue" stroke="midnightblue" points="144.257,-327 134.257,-330.5 144.257,-334 144.257,-327"/>
</g>
<!-- Node33 -->
<g id="node33" class="node"><title>Node33</title>
<g id="a_node33"><a xlink:href="../../df/d1f/class_mavlink.html#a34de929d78ada1d08dec376b869d917b" target="_top" xlink:title="Update rate mult so total bitrate will be equal to _datarate. ">
<polygon fill="white" stroke="black" points="460,-381 460,-400 591,-400 591,-381 460,-381"/>
<text text-anchor="middle" x="525.5" y="-388" font-family="Helvetica,sans-Serif" font-size="10.00">Mavlink::update_rate_mult</text>
</a>
</g>
</g>
<!-- Node1&#45;&gt;Node33 -->
<g id="edge48" class="edge"><title>Node1&#45;&gt;Node33</title>
<path fill="none" stroke="midnightblue" d="M125.25,-341.883C139.812,-344.58 155.456,-347.307 170,-349.5 270.931,-364.718 388.773,-377.33 459.958,-384.387"/>
<polygon fill="midnightblue" stroke="midnightblue" points="125.843,-338.433 115.369,-340.027 124.551,-345.312 125.843,-338.433"/>
</g>
<!-- Node3 -->
<g id="node3" class="node"><title>Node3</title>
<g id="a_node3"><a xlink:href="../../df/d1f/class_mavlink.html#aeed64d674a9a2aaff43a845a6465b4bc" target="_top" xlink:title="Mavlink::get_status\l_all_instances">
<polygon fill="white" stroke="black" points="630.5,-205.5 630.5,-235.5 732.5,-235.5 732.5,-205.5 630.5,-205.5"/>
<text text-anchor="start" x="638.5" y="-223.5" font-family="Helvetica,sans-Serif" font-size="10.00">Mavlink::get_status</text>
<text text-anchor="middle" x="681.5" y="-212.5" font-family="Helvetica,sans-Serif" font-size="10.00">_all_instances</text>
</a>
</g>
</g>
<!-- Node2&#45;&gt;Node3 -->
<g id="edge2" class="edge"><title>Node2&#45;&gt;Node3</title>
<path fill="none" stroke="midnightblue" d="M595.333,-220.5C607.014,-220.5 618.949,-220.5 630.046,-220.5"/>
<polygon fill="midnightblue" stroke="midnightblue" points="595.16,-217 585.16,-220.5 595.16,-224 595.16,-217"/>
</g>
<!-- Node4 -->
<g id="node4" class="node"><title>Node4</title>
<g id="a_node4"><a xlink:href="../../df/d1f/class_mavlink.html#ac6e1bf432b8d4ab3d7977ea15f36d815" target="_top" xlink:title="Mavlink::get_status">
<polygon fill="white" stroke="black" points="772,-211 772,-230 874,-230 874,-211 772,-211"/>
<text text-anchor="middle" x="823" y="-218" font-family="Helvetica,sans-Serif" font-size="10.00">Mavlink::get_status</text>
</a>
</g>
</g>
<!-- Node3&#45;&gt;Node4 -->
<g id="edge3" class="edge"><title>Node3&#45;&gt;Node4</title>
<path fill="none" stroke="midnightblue" d="M743.098,-220.5C752.647,-220.5 762.429,-220.5 771.711,-220.5"/>
<polygon fill="midnightblue" stroke="midnightblue" points="742.863,-217 732.863,-220.5 742.863,-224 742.863,-217"/>
</g>
<!-- Node18 -->
<g id="node18" class="node"><title>Node18</title>
<g id="a_node18"><a xlink:href="../../de/d24/mavlink__main_8cpp.html#ab81e9b009119f143f3b54a1390b92427" target="_top" xlink:title="mavlink app start / stop handling function ">
<polygon fill="white" stroke="black" points="2220.5,-123 2220.5,-142 2297.5,-142 2297.5,-123 2220.5,-123"/>
<text text-anchor="middle" x="2259" y="-130" font-family="Helvetica,sans-Serif" font-size="10.00">mavlink_main</text>
</a>
</g>
</g>
<!-- Node3&#45;&gt;Node18 -->
<g id="edge38" class="edge"><title>Node3&#45;&gt;Node18</title>
<path fill="none" stroke="midnightblue" d="M719.607,-200.893C772.228,-174.96 872.242,-132.5 963,-132.5 963,-132.5 963,-132.5 1930.5,-132.5 2035.4,-132.5 2159.21,-132.5 2220.18,-132.5"/>
<polygon fill="midnightblue" stroke="midnightblue" points="718.031,-197.768 710.654,-205.372 721.163,-204.028 718.031,-197.768"/>
</g>
<!-- Node5 -->
<g id="node5" class="node"><title>Node5</title>
<g id="a_node5"><a xlink:href="../../de/d24/mavlink__main_8cpp.html#ae6c642b2c7f5e4f54d302f44aaab9e04" target="_top" xlink:title="mavlink_get_channel\l_status">
<polygon fill="white" stroke="black" points="910,-161.5 910,-191.5 1018,-191.5 1018,-161.5 910,-161.5"/>
<text text-anchor="start" x="918" y="-179.5" font-family="Helvetica,sans-Serif" font-size="10.00">mavlink_get_channel</text>
<text text-anchor="middle" x="964" y="-168.5" font-family="Helvetica,sans-Serif" font-size="10.00">_status</text>
</a>
</g>
</g>
<!-- Node4&#45;&gt;Node5 -->
<g id="edge4" class="edge"><title>Node4&#45;&gt;Node5</title>
<path fill="none" stroke="midnightblue" d="M863.802,-207.901C879.894,-202.807 898.602,-196.885 915.407,-191.565"/>
<polygon fill="midnightblue" stroke="midnightblue" points="862.638,-204.598 854.161,-210.953 864.751,-211.272 862.638,-204.598"/>
</g>
<!-- Node6 -->
<g id="node6" class="node"><title>Node6</title>
<g id="a_node6"><a xlink:href="../../da/d89/class_mavlink_receiver.html#abf05ea2b60baafd446100f897f9274ab" target="_top" xlink:title="Receive data from UART. ">
<polygon fill="white" stroke="black" points="1054,-205.5 1054,-235.5 1181,-235.5 1181,-205.5 1054,-205.5"/>
<text text-anchor="start" x="1062" y="-223.5" font-family="Helvetica,sans-Serif" font-size="10.00">MavlinkReceiver::receive</text>
<text text-anchor="middle" x="1117.5" y="-212.5" font-family="Helvetica,sans-Serif" font-size="10.00">_thread</text>
</a>
</g>
</g>
<!-- Node4&#45;&gt;Node6 -->
<g id="edge5" class="edge"><title>Node4&#45;&gt;Node6</title>
<path fill="none" stroke="midnightblue" d="M884.527,-220.5C934.047,-220.5 1003.83,-220.5 1053.9,-220.5"/>
<polygon fill="midnightblue" stroke="midnightblue" points="884.283,-217 874.283,-220.5 884.283,-224 884.283,-217"/>
</g>
<!-- Node23 -->
<g id="node23" class="node"><title>Node23</title>
<g id="a_node23"><a xlink:href="../../df/d1f/class_mavlink.html#ad504fc6cb2ec8ed534b6e41e20385ee6" target="_top" xlink:title="Set the MAVLink version. ">
<polygon fill="white" stroke="black" points="915.5,-249.5 915.5,-279.5 1012.5,-279.5 1012.5,-249.5 915.5,-249.5"/>
<text text-anchor="start" x="923.5" y="-267.5" font-family="Helvetica,sans-Serif" font-size="10.00">Mavlink::set_proto</text>
<text text-anchor="middle" x="964" y="-256.5" font-family="Helvetica,sans-Serif" font-size="10.00">_version</text>
</a>
</g>
</g>
<!-- Node4&#45;&gt;Node23 -->
<g id="edge26" class="edge"><title>Node4&#45;&gt;Node23</title>
<path fill="none" stroke="midnightblue" d="M884.055,-232.816C901.027,-237.987 918.764,-243.946 933.117,-249.379"/>
<polygon fill="midnightblue" stroke="midnightblue" points="884.765,-229.376 874.182,-229.872 882.765,-236.084 884.765,-229.376"/>
</g>
<!-- Node7 -->
<g id="node7" class="node"><title>Node7</title>
<g id="a_node7"><a xlink:href="../../da/d89/class_mavlink_receiver.html#a4e6d064186fe746bc3934959a991a908" target="_top" xlink:title="MavlinkReceiver::start\l_helper">
<polygon fill="white" stroke="black" points="1226.5,-244.5 1226.5,-274.5 1341.5,-274.5 1341.5,-244.5 1226.5,-244.5"/>
<text text-anchor="start" x="1234.5" y="-262.5" font-family="Helvetica,sans-Serif" font-size="10.00">MavlinkReceiver::start</text>
<text text-anchor="middle" x="1284" y="-251.5" font-family="Helvetica,sans-Serif" font-size="10.00">_helper</text>
</a>
</g>
</g>
<!-- Node6&#45;&gt;Node7 -->
<g id="edge6" class="edge"><title>Node6&#45;&gt;Node7</title>
<path fill="none" stroke="midnightblue" d="M1191.04,-237.698C1202.91,-240.511 1215.04,-243.389 1226.45,-246.093"/>
<polygon fill="midnightblue" stroke="midnightblue" points="1191.7,-234.257 1181.16,-235.355 1190.08,-241.068 1191.7,-234.257"/>
</g>
<!-- Node8 -->
<g id="node8" class="node"><title>Node8</title>
<g id="a_node8"><a xlink:href="../../da/d89/class_mavlink_receiver.html#aae6564d759626eeebeb19a9dfbdcaf6d" target="_top" xlink:title="Start the receiver thread. ">
<polygon fill="white" stroke="black" points="1387,-244.5 1387,-274.5 1514,-274.5 1514,-244.5 1387,-244.5"/>
<text text-anchor="start" x="1395" y="-262.5" font-family="Helvetica,sans-Serif" font-size="10.00">MavlinkReceiver::receive</text>
<text text-anchor="middle" x="1450.5" y="-251.5" font-family="Helvetica,sans-Serif" font-size="10.00">_start</text>
</a>
</g>
</g>
<!-- Node7&#45;&gt;Node8 -->
<g id="edge7" class="edge"><title>Node7&#45;&gt;Node8</title>
<path fill="none" stroke="midnightblue" d="M1351.69,-259.5C1363.31,-259.5 1375.36,-259.5 1386.87,-259.5"/>
<polygon fill="midnightblue" stroke="midnightblue" points="1351.61,-256 1341.61,-259.5 1351.61,-263 1351.61,-256"/>
</g>
<!-- Node9 -->
<g id="node9" class="node"><title>Node9</title>
<g id="a_node9"><a xlink:href="../../df/d1f/class_mavlink.html#a2325401a575b272fc1474d502388241f" target="_top" xlink:title="Main mavlink task. ">
<polygon fill="white" stroke="black" points="1562,-299 1562,-318 1663,-318 1663,-299 1562,-299"/>
<text text-anchor="middle" x="1612.5" y="-306" font-family="Helvetica,sans-Serif" font-size="10.00">Mavlink::task_main</text>
</a>
</g>
</g>
<!-- Node8&#45;&gt;Node9 -->
<g id="edge8" class="edge"><title>Node8&#45;&gt;Node9</title>
<path fill="none" stroke="midnightblue" d="M1510.42,-277.543C1534.08,-284.789 1560.39,-292.847 1580.23,-298.925"/>
<polygon fill="midnightblue" stroke="midnightblue" points="1511.4,-274.183 1500.81,-274.601 1509.35,-280.876 1511.4,-274.183"/>
</g>
<!-- Node10 -->
<g id="node10" class="node"><title>Node10</title>
<g id="a_node10"><a xlink:href="../../df/d1f/class_mavlink.html#aad2c17a259e6cfbfe20113c8da8f6cae" target="_top" xlink:title="Mavlink::start_helper">
<polygon fill="white" stroke="black" points="1724,-254 1724,-273 1831,-273 1831,-254 1724,-254"/>
<text text-anchor="middle" x="1777.5" y="-261" font-family="Helvetica,sans-Serif" font-size="10.00">Mavlink::start_helper</text>
</a>
</g>
</g>
<!-- Node9&#45;&gt;Node10 -->
<g id="edge9" class="edge"><title>Node9&#45;&gt;Node10</title>
<path fill="none" stroke="midnightblue" d="M1657.86,-296.254C1684.34,-288.944 1717.47,-279.798 1741.98,-273.03"/>
<polygon fill="midnightblue" stroke="midnightblue" points="1656.78,-292.922 1648.07,-298.957 1658.64,-299.669 1656.78,-292.922"/>
</g>
<!-- Node11 -->
<g id="node11" class="node"><title>Node11</title>
<g id="a_node11"><a xlink:href="../../df/d1f/class_mavlink.html#af06ea4dffa8d7b911690a99456a4814a" target="_top" xlink:title="Mavlink::broadcast\l_enabled">
<polygon fill="white" stroke="black" points="1880,-248.5 1880,-278.5 1979,-278.5 1979,-248.5 1880,-248.5"/>
<text text-anchor="start" x="1888" y="-266.5" font-family="Helvetica,sans-Serif" font-size="10.00">Mavlink::broadcast</text>
<text text-anchor="middle" x="1929.5" y="-255.5" font-family="Helvetica,sans-Serif" font-size="10.00">_enabled</text>
</a>
</g>
</g>
<!-- Node10&#45;&gt;Node11 -->
<g id="edge10" class="edge"><title>Node10&#45;&gt;Node11</title>
<path fill="none" stroke="midnightblue" d="M1841.47,-263.5C1854.21,-263.5 1867.43,-263.5 1879.6,-263.5"/>
<polygon fill="midnightblue" stroke="midnightblue" points="1841.38,-260 1831.38,-263.5 1841.38,-267 1841.38,-260"/>
</g>
<!-- Node22 -->
<g id="node22" class="node"><title>Node22</title>
<g id="a_node22"><a xlink:href="../../df/d1f/class_mavlink.html#a3f96c3503833a477332c8584bb8fbc67" target="_top" xlink:title="Start the mavlink task. ">
<polygon fill="white" stroke="black" points="1891.5,-170 1891.5,-189 1967.5,-189 1967.5,-170 1891.5,-170"/>
<text text-anchor="middle" x="1929.5" y="-177" font-family="Helvetica,sans-Serif" font-size="10.00">Mavlink::start</text>
</a>
</g>
</g>
<!-- Node10&#45;&gt;Node22 -->
<g id="edge24" class="edge"><title>Node10&#45;&gt;Node22</title>
<path fill="none" stroke="midnightblue" d="M1804.56,-248.904C1835.27,-231.709 1885.39,-203.639 1911.49,-189.023"/>
<polygon fill="midnightblue" stroke="midnightblue" points="1802.72,-245.924 1795.71,-253.864 1806.14,-252.032 1802.72,-245.924"/>
</g>
<!-- Node12 -->
<g id="node12" class="node"><title>Node12</title>
<g id="a_node12"><a xlink:href="../../df/d1f/class_mavlink.html#aacd190d885c0a9f521f0d7d0673f2b6f" target="_top" xlink:title="Flush the transmit buffer and send one MAVLink packet. ">
<polygon fill="white" stroke="black" points="2028.5,-292 2028.5,-311 2140.5,-311 2140.5,-292 2028.5,-292"/>
<text text-anchor="middle" x="2084.5" y="-299" font-family="Helvetica,sans-Serif" font-size="10.00">Mavlink::send_packet</text>
</a>
</g>
</g>
<!-- Node11&#45;&gt;Node12 -->
<g id="edge11" class="edge"><title>Node11&#45;&gt;Node12</title>
<path fill="none" stroke="midnightblue" d="M1989.2,-278.08C2007.83,-282.707 2027.95,-287.704 2044.8,-291.889"/>
<polygon fill="midnightblue" stroke="midnightblue" points="1989.88,-274.642 1979.33,-275.628 1988.19,-281.435 1989.88,-274.642"/>
</g>
<!-- Node17 -->
<g id="node17" class="node"><title>Node17</title>
<g id="a_node17"><a xlink:href="../../df/d1f/class_mavlink.html#afcac36b1b581d47b7181374d35edbd54" target="_top" xlink:title="Set the boot complete flag on all instances. ">
<polygon fill="white" stroke="black" points="2015,-254 2015,-273 2154,-273 2154,-254 2015,-254"/>
<text text-anchor="middle" x="2084.5" y="-261" font-family="Helvetica,sans-Serif" font-size="10.00">Mavlink::set_boot_complete</text>
</a>
</g>
</g>
<!-- Node11&#45;&gt;Node17 -->
<g id="edge17" class="edge"><title>Node11&#45;&gt;Node17</title>
<path fill="none" stroke="midnightblue" d="M1989.59,-256.908C1997.84,-256.756 2006.37,-256.714 2014.78,-256.781"/>
<polygon fill="midnightblue" stroke="midnightblue" points="1989.24,-253.415 1979.33,-257.159 1989.41,-260.413 1989.24,-253.415"/>
</g>
<!-- Node13 -->
<g id="node13" class="node"><title>Node13</title>
<g id="a_node13"><a xlink:href="../../df/d1f/class_mavlink.html#a3aa1fb0ca3f0d77b10a8954618a51abb" target="_top" xlink:title="Get the manual input generation mode. ">
<polygon fill="white" stroke="black" points="2198,-161.5 2198,-191.5 2320,-191.5 2320,-161.5 2198,-161.5"/>
<text text-anchor="start" x="2206" y="-179.5" font-family="Helvetica,sans-Serif" font-size="10.00">Mavlink::get_manual</text>
<text text-anchor="middle" x="2259" y="-168.5" font-family="Helvetica,sans-Serif" font-size="10.00">_input_mode_generation</text>
</a>
</g>
</g>
<!-- Node12&#45;&gt;Node13 -->
<g id="edge12" class="edge"><title>Node12&#45;&gt;Node13</title>
<path fill="none" stroke="midnightblue" d="M2143.53,-288.183C2147.18,-286.506 2150.71,-284.62 2154,-282.5 2174.95,-269.004 2172.82,-257.561 2190,-239.5 2206.3,-222.357 2226.3,-204.129 2240.38,-191.714"/>
<polygon fill="midnightblue" stroke="midnightblue" points="2142.2,-284.944 2134.24,-291.939 2144.83,-291.433 2142.2,-284.944"/>
</g>
<!-- Node16 -->
<g id="node16" class="node"><title>Node16</title>
<g id="a_node16"><a xlink:href="../../de/d24/mavlink__main_8cpp.html#a646c2f3486de3d8574422fc4ef1940a2" target="_top" xlink:title="mavlink_end_uart_send">
<polygon fill="white" stroke="black" points="2199.5,-299 2199.5,-318 2318.5,-318 2318.5,-299 2199.5,-299"/>
<text text-anchor="middle" x="2259" y="-306" font-family="Helvetica,sans-Serif" font-size="10.00">mavlink_end_uart_send</text>
</a>
</g>
</g>
<!-- Node12&#45;&gt;Node16 -->
<g id="edge16" class="edge"><title>Node12&#45;&gt;Node16</title>
<path fill="none" stroke="midnightblue" d="M2150.85,-304.152C2166.77,-304.798 2183.71,-305.485 2199.3,-306.118"/>
<polygon fill="midnightblue" stroke="midnightblue" points="2150.69,-300.643 2140.55,-303.734 2150.4,-307.637 2150.69,-300.643"/>
</g>
<!-- Node14 -->
<g id="node14" class="node"><title>Node14</title>
<g id="a_node14"><a xlink:href="../../da/d89/class_mavlink_receiver.html#af99bf01b6ae13dab05c36c0125e179bc" target="_top" xlink:title="MavlinkReceiver::handle\l_message_manual_control">
<polygon fill="white" stroke="black" points="2366.5,-142.5 2366.5,-172.5 2499.5,-172.5 2499.5,-142.5 2366.5,-142.5"/>
<text text-anchor="start" x="2374.5" y="-160.5" font-family="Helvetica,sans-Serif" font-size="10.00">MavlinkReceiver::handle</text>
<text text-anchor="middle" x="2433" y="-149.5" font-family="Helvetica,sans-Serif" font-size="10.00">_message_manual_control</text>
</a>
</g>
</g>
<!-- Node13&#45;&gt;Node14 -->
<g id="edge13" class="edge"><title>Node13&#45;&gt;Node14</title>
<path fill="none" stroke="midnightblue" d="M2330.45,-168.718C2342.31,-167.408 2354.58,-166.053 2366.31,-164.757"/>
<polygon fill="midnightblue" stroke="midnightblue" points="2329.71,-165.278 2320.16,-169.855 2330.48,-172.236 2329.71,-165.278"/>
</g>
<!-- Node15 -->
<g id="node15" class="node"><title>Node15</title>
<g id="a_node15"><a xlink:href="../../da/d89/class_mavlink_receiver.html#ac939c806679dc4278968b1d3e865cc72" target="_top" xlink:title="MavlinkReceiver::handle\l_message">
<polygon fill="white" stroke="black" points="2545,-60.5 2545,-90.5 2669,-90.5 2669,-60.5 2545,-60.5"/>
<text text-anchor="start" x="2553" y="-78.5" font-family="Helvetica,sans-Serif" font-size="10.00">MavlinkReceiver::handle</text>
<text text-anchor="middle" x="2607" y="-67.5" font-family="Helvetica,sans-Serif" font-size="10.00">_message</text>
</a>
</g>
</g>
<!-- Node14&#45;&gt;Node15 -->
<g id="edge14" class="edge"><title>Node14&#45;&gt;Node15</title>
<path fill="none" stroke="midnightblue" d="M2474.64,-138.123C2505.14,-123.584 2546.3,-103.963 2574.36,-90.5833"/>
<polygon fill="midnightblue" stroke="midnightblue" points="2473.07,-134.997 2465.55,-142.46 2476.08,-141.316 2473.07,-134.997"/>
</g>
<!-- Node15&#45;&gt;Node6 -->
<g id="edge15" class="edge"><title>Node15&#45;&gt;Node6</title>
<path fill="none" stroke="midnightblue" d="M2534.79,-81.6983C2464.88,-87.2425 2355.18,-94.5 2260,-94.5 2083.5,-94.5 2083.5,-94.5 2083.5,-94.5 1871.9,-94.5 1825.1,-170.5 1613.5,-170.5 1449.5,-170.5 1449.5,-170.5 1449.5,-170.5 1354.77,-170.5 1246.48,-190.771 1180.31,-205.498"/>
<polygon fill="midnightblue" stroke="midnightblue" points="2535.12,-85.183 2544.8,-80.8938 2534.56,-78.2055 2535.12,-85.183"/>
</g>
<!-- Node17&#45;&gt;Node11 -->
<g id="edge18" class="edge"><title>Node17&#45;&gt;Node11</title>
<path fill="none" stroke="midnightblue" d="M2004.66,-270.247C1996.03,-270.226 1987.44,-270.091 1979.33,-269.841"/>
<polygon fill="midnightblue" stroke="midnightblue" points="2004.79,-273.747 2014.78,-270.219 2004.77,-266.747 2004.79,-273.747"/>
</g>
<!-- Node17&#45;&gt;Node18 -->
<g id="edge19" class="edge"><title>Node17&#45;&gt;Node18</title>
<path fill="none" stroke="midnightblue" d="M2102,-246.838C2116.02,-232.583 2136.58,-211.427 2154,-192.5 2170.42,-174.658 2169.47,-164.409 2190,-151.5 2199.13,-145.758 2210.02,-141.718 2220.38,-138.889"/>
<polygon fill="midnightblue" stroke="midnightblue" points="2099.48,-244.412 2094.95,-253.99 2104.47,-249.328 2099.48,-244.412"/>
</g>
<!-- Node19 -->
<g id="node19" class="node"><title>Node19</title>
<g id="a_node19"><a xlink:href="../../df/d61/class_mavlink_parameters_manager.html#acd8734b77582ad7626f5230c1707e04c" target="_top" xlink:title="send a single param if a PARAM_REQUEST_LIST is in progress ">
<polygon fill="white" stroke="black" points="2190,-249.5 2190,-279.5 2328,-279.5 2328,-249.5 2190,-249.5"/>
<text text-anchor="start" x="2198" y="-267.5" font-family="Helvetica,sans-Serif" font-size="10.00">MavlinkParametersManager</text>
<text text-anchor="middle" x="2259" y="-256.5" font-family="Helvetica,sans-Serif" font-size="10.00">::send_one</text>
</a>
</g>
</g>
<!-- Node17&#45;&gt;Node19 -->
<g id="edge20" class="edge"><title>Node17&#45;&gt;Node19</title>
<path fill="none" stroke="midnightblue" d="M2164.45,-263.958C2172.93,-264.007 2181.51,-264.057 2189.85,-264.105"/>
<polygon fill="midnightblue" stroke="midnightblue" points="2164.19,-260.456 2154.17,-263.898 2164.15,-267.456 2164.19,-260.456"/>
</g>
<!-- Node20 -->
<g id="node20" class="node"><title>Node20</title>
<g id="a_node20"><a xlink:href="../../df/d61/class_mavlink_parameters_manager.html#a3a6dff51ef5aba4f3dda19610510a45d" target="_top" xlink:title="Handle any open param send transfer. ">
<polygon fill="white" stroke="black" points="2364,-249.5 2364,-279.5 2502,-279.5 2502,-249.5 2364,-249.5"/>
<text text-anchor="start" x="2372" y="-267.5" font-family="Helvetica,sans-Serif" font-size="10.00">MavlinkParametersManager</text>
<text text-anchor="middle" x="2433" y="-256.5" font-family="Helvetica,sans-Serif" font-size="10.00">::send_params</text>
</a>
</g>
</g>
<!-- Node19&#45;&gt;Node20 -->
<g id="edge21" class="edge"><title>Node19&#45;&gt;Node20</title>
<path fill="none" stroke="midnightblue" d="M2338.64,-264.5C2347.03,-264.5 2355.51,-264.5 2363.76,-264.5"/>
<polygon fill="midnightblue" stroke="midnightblue" points="2338.47,-261 2328.47,-264.5 2338.47,-268 2338.47,-261"/>
</g>
<!-- Node21 -->
<g id="node21" class="node"><title>Node21</title>
<g id="a_node21"><a xlink:href="../../df/d61/class_mavlink_parameters_manager.html#adbcd587c4ec1c0b94fe259047f8ec82e" target="_top" xlink:title="Handle sending of messages. ">
<polygon fill="white" stroke="black" points="2538,-227.5 2538,-257.5 2676,-257.5 2676,-227.5 2538,-227.5"/>
<text text-anchor="start" x="2546" y="-245.5" font-family="Helvetica,sans-Serif" font-size="10.00">MavlinkParametersManager</text>
<text text-anchor="middle" x="2607" y="-234.5" font-family="Helvetica,sans-Serif" font-size="10.00">::send</text>
</a>
</g>
</g>
<!-- Node20&#45;&gt;Node21 -->
<g id="edge22" class="edge"><title>Node20&#45;&gt;Node21</title>
<path fill="none" stroke="midnightblue" d="M2512.64,-254.442C2521.03,-253.369 2529.51,-252.284 2537.76,-251.228"/>
<polygon fill="midnightblue" stroke="midnightblue" points="2511.95,-251.001 2502.47,-255.742 2512.84,-257.945 2511.95,-251.001"/>
</g>
<!-- Node21&#45;&gt;Node6 -->
<g id="edge23" class="edge"><title>Node21&#45;&gt;Node6</title>
<path fill="none" stroke="midnightblue" d="M2527.64,-240.113C2518.99,-239.887 2510.31,-239.677 2502,-239.5 1992.26,-228.648 1376.74,-222.73 1181.25,-221.024"/>
<polygon fill="midnightblue" stroke="midnightblue" points="2527.66,-243.615 2537.75,-240.384 2527.85,-236.617 2527.66,-243.615"/>
</g>
<!-- Node22&#45;&gt;Node18 -->
<g id="edge25" class="edge"><title>Node22&#45;&gt;Node18</title>
<path fill="none" stroke="midnightblue" d="M1977.8,-172.712C2043.3,-163.312 2160.31,-146.52 2220.28,-137.913"/>
<polygon fill="midnightblue" stroke="midnightblue" points="1977.15,-169.269 1967.75,-174.154 1978.15,-176.198 1977.15,-169.269"/>
</g>
<!-- Node23&#45;&gt;Node4 -->
<g id="edge27" class="edge"><title>Node23&#45;&gt;Node4</title>
<path fill="none" stroke="midnightblue" d="M905.754,-253.035C881.898,-245.853 856.053,-236.951 839.945,-230.041"/>
<polygon fill="midnightblue" stroke="midnightblue" points="904.889,-256.429 915.471,-255.896 906.867,-249.714 904.889,-256.429"/>
</g>
<!-- Node23&#45;&gt;Node6 -->
<g id="edge30" class="edge"><title>Node23&#45;&gt;Node6</title>
<path fill="none" stroke="midnightblue" d="M1022.44,-247.817C1036.32,-243.786 1051.08,-239.501 1064.68,-235.55"/>
<polygon fill="midnightblue" stroke="midnightblue" points="1021.15,-244.549 1012.52,-250.699 1023.1,-251.271 1021.15,-244.549"/>
</g>
<!-- Node24 -->
<g id="node24" class="node"><title>Node24</title>
<g id="a_node24"><a xlink:href="../../df/d1f/class_mavlink.html#ad8fa688a2405620180ff54b89070d991" target="_top" xlink:title="Mavlink::mavlink_update\l_system">
<polygon fill="white" stroke="black" points="1388,-293.5 1388,-323.5 1513,-323.5 1513,-293.5 1388,-293.5"/>
<text text-anchor="start" x="1396" y="-311.5" font-family="Helvetica,sans-Serif" font-size="10.00">Mavlink::mavlink_update</text>
<text text-anchor="middle" x="1450.5" y="-300.5" font-family="Helvetica,sans-Serif" font-size="10.00">_system</text>
</a>
</g>
</g>
<!-- Node23&#45;&gt;Node24 -->
<g id="edge28" class="edge"><title>Node23&#45;&gt;Node24</title>
<path fill="none" stroke="midnightblue" d="M1022.74,-269.744C1114.63,-278.089 1293.38,-294.322 1387.74,-302.891"/>
<polygon fill="midnightblue" stroke="midnightblue" points="1023.06,-266.258 1012.78,-268.839 1022.42,-273.229 1023.06,-266.258"/>
</g>
<!-- Node25 -->
<g id="node25" class="node"><title>Node25</title>
<g id="a_node25"><a xlink:href="../../df/d1f/class_mavlink.html#a7f0aab53d272dd4f5a39ffe030497460" target="_top" xlink:title="Send the protocol version of MAVLink. ">
<polygon fill="white" stroke="black" points="1059,-73.5 1059,-103.5 1176,-103.5 1176,-73.5 1059,-73.5"/>
<text text-anchor="start" x="1067" y="-91.5" font-family="Helvetica,sans-Serif" font-size="10.00">Mavlink::send_protocol</text>
<text text-anchor="middle" x="1117.5" y="-80.5" font-family="Helvetica,sans-Serif" font-size="10.00">_version</text>
</a>
</g>
</g>
<!-- Node23&#45;&gt;Node25 -->
<g id="edge31" class="edge"><title>Node23&#45;&gt;Node25</title>
<path fill="none" stroke="midnightblue" d="M984.5,-241.846C1015.87,-205.409 1076.7,-134.735 1103.4,-103.718"/>
<polygon fill="midnightblue" stroke="midnightblue" points="981.788,-239.632 977.917,-249.494 987.093,-244.199 981.788,-239.632"/>
</g>
<!-- Node24&#45;&gt;Node9 -->
<g id="edge29" class="edge"><title>Node24&#45;&gt;Node9</title>
<path fill="none" stroke="midnightblue" d="M1523.66,-308.5C1536.6,-308.5 1549.82,-308.5 1561.94,-308.5"/>
<polygon fill="midnightblue" stroke="midnightblue" points="1523.36,-305 1513.36,-308.5 1523.36,-312 1523.36,-305"/>
</g>
<!-- Node26 -->
<g id="node26" class="node"><title>Node26</title>
<g id="a_node26"><a xlink:href="../../df/d1f/class_mavlink.html#a6829c4f2061c8b36c6c392b75e7ac986" target="_top" xlink:title="Mavlink::get_mavlink\l_log_pub">
<polygon fill="white" stroke="black" points="1229.5,-73.5 1229.5,-103.5 1338.5,-103.5 1338.5,-73.5 1229.5,-73.5"/>
<text text-anchor="start" x="1237.5" y="-91.5" font-family="Helvetica,sans-Serif" font-size="10.00">Mavlink::get_mavlink</text>
<text text-anchor="middle" x="1284" y="-80.5" font-family="Helvetica,sans-Serif" font-size="10.00">_log_pub</text>
</a>
</g>
</g>
<!-- Node25&#45;&gt;Node26 -->
<g id="edge32" class="edge"><title>Node25&#45;&gt;Node26</title>
<path fill="none" stroke="midnightblue" d="M1186.34,-88.5C1200.69,-88.5 1215.63,-88.5 1229.36,-88.5"/>
<polygon fill="midnightblue" stroke="midnightblue" points="1186.03,-85.0001 1176.03,-88.5 1186.03,-92.0001 1186.03,-85.0001"/>
</g>
<!-- Node27 -->
<g id="node27" class="node"><title>Node27</title>
<g id="a_node27"><a xlink:href="../../da/d89/class_mavlink_receiver.html#a72518d540ed247b6fcc0fb63592dd319" target="_top" xlink:title="common method to handle both mavlink command types. ">
<polygon fill="white" stroke="black" points="1217,-24.5 1217,-54.5 1351,-54.5 1351,-24.5 1217,-24.5"/>
<text text-anchor="start" x="1225" y="-42.5" font-family="Helvetica,sans-Serif" font-size="10.00">MavlinkReceiver::handle</text>
<text text-anchor="middle" x="1284" y="-31.5" font-family="Helvetica,sans-Serif" font-size="10.00">_message_command_both</text>
</a>
</g>
</g>
<!-- Node25&#45;&gt;Node27 -->
<g id="edge33" class="edge"><title>Node25&#45;&gt;Node27</title>
<path fill="none" stroke="midnightblue" d="M1178.82,-70.533C1196.44,-65.283 1215.52,-59.6011 1232.47,-54.5516"/>
<polygon fill="midnightblue" stroke="midnightblue" points="1177.78,-67.1894 1169.2,-73.3986 1179.78,-73.8981 1177.78,-67.1894"/>
</g>
<!-- Node28 -->
<g id="node28" class="node"><title>Node28</title>
<g id="a_node28"><a xlink:href="../../da/d89/class_mavlink_receiver.html#aa94397b70b0418675a2934b022de6df4" target="_top" xlink:title="MavlinkReceiver::handle\l_message_command_int">
<polygon fill="white" stroke="black" points="1550,-0.5 1550,-30.5 1675,-30.5 1675,-0.5 1550,-0.5"/>
<text text-anchor="start" x="1558" y="-18.5" font-family="Helvetica,sans-Serif" font-size="10.00">MavlinkReceiver::handle</text>
<text text-anchor="middle" x="1612.5" y="-7.5" font-family="Helvetica,sans-Serif" font-size="10.00">_message_command_int</text>
</a>
</g>
</g>
<!-- Node27&#45;&gt;Node28 -->
<g id="edge34" class="edge"><title>Node27&#45;&gt;Node28</title>
<path fill="none" stroke="midnightblue" d="M1361.19,-33.8995C1418.64,-29.6768 1496.41,-23.9597 1549.94,-20.0248"/>
<polygon fill="midnightblue" stroke="midnightblue" points="1360.79,-30.4195 1351.07,-34.6432 1361.3,-37.4006 1360.79,-30.4195"/>
</g>
<!-- Node29 -->
<g id="node29" class="node"><title>Node29</title>
<g id="a_node29"><a xlink:href="../../da/d89/class_mavlink_receiver.html#a5345e8389c1ac373ab61074c9b849e22" target="_top" xlink:title="MavlinkReceiver::handle\l_message_command_long">
<polygon fill="white" stroke="black" points="1711,-44.5 1711,-74.5 1844,-74.5 1844,-44.5 1711,-44.5"/>
<text text-anchor="start" x="1719" y="-62.5" font-family="Helvetica,sans-Serif" font-size="10.00">MavlinkReceiver::handle</text>
<text text-anchor="middle" x="1777.5" y="-51.5" font-family="Helvetica,sans-Serif" font-size="10.00">_message_command_long</text>
</a>
</g>
</g>
<!-- Node27&#45;&gt;Node29 -->
<g id="edge36" class="edge"><title>Node27&#45;&gt;Node29</title>
<path fill="none" stroke="midnightblue" d="M1361.24,-42.6023C1457.13,-46.5041 1620.16,-53.1383 1710.8,-56.8264"/>
<polygon fill="midnightblue" stroke="midnightblue" points="1361.16,-39.0965 1351.03,-42.1869 1360.88,-46.0907 1361.16,-39.0965"/>
</g>
<!-- Node28&#45;&gt;Node15 -->
<g id="edge35" class="edge"><title>Node28&#45;&gt;Node15</title>
<path fill="none" stroke="midnightblue" d="M1685.42,-15.5C1749.27,-15.5 1845.1,-15.5 1928.5,-15.5 1928.5,-15.5 1928.5,-15.5 2260,-15.5 2365.01,-15.5 2485.35,-42.6638 2552.85,-60.4369"/>
<polygon fill="midnightblue" stroke="midnightblue" points="1685.07,-12.0001 1675.07,-15.5 1685.07,-19.0001 1685.07,-12.0001"/>
</g>
<!-- Node29&#45;&gt;Node15 -->
<g id="edge37" class="edge"><title>Node29&#45;&gt;Node15</title>
<path fill="none" stroke="midnightblue" d="M1854.28,-58.3408C1916,-57.4964 2005.37,-56.5 2083.5,-56.5 2083.5,-56.5 2083.5,-56.5 2260,-56.5 2359.87,-56.5 2475.7,-64.489 2544.8,-70.1062"/>
<polygon fill="midnightblue" stroke="midnightblue" points="1854.19,-54.8416 1844.24,-58.4802 1854.29,-61.8409 1854.19,-54.8416"/>
</g>
<!-- Node30&#45;&gt;Node9 -->
<g id="edge40" class="edge"><title>Node30&#45;&gt;Node9</title>
<path fill="none" stroke="midnightblue" d="M297.121,-338.418C356.845,-344.724 446.336,-352.5 524.5,-352.5 524.5,-352.5 524.5,-352.5 1285,-352.5 1387.17,-352.5 1413.21,-349.204 1514,-332.5 1535.67,-328.909 1559.63,-323.039 1578.37,-318.003"/>
<polygon fill="midnightblue" stroke="midnightblue" points="297.379,-334.926 287.063,-337.34 296.633,-341.886 297.379,-334.926"/>
</g>
<!-- Node31 -->
<g id="node31" class="node"><title>Node31</title>
<g id="a_node31"><a xlink:href="../../d1/df2/class_mavlink_stream.html#a3f00bff476cba7a35bf8fd1e4a07a211" target="_top" xlink:title="Get the interval. ">
<polygon fill="white" stroke="black" points="323,-293.5 323,-323.5 424,-323.5 424,-293.5 323,-293.5"/>
<text text-anchor="start" x="331" y="-311.5" font-family="Helvetica,sans-Serif" font-size="10.00">MavlinkStream::get</text>
<text text-anchor="middle" x="373.5" y="-300.5" font-family="Helvetica,sans-Serif" font-size="10.00">_interval</text>
</a>
</g>
</g>
<!-- Node30&#45;&gt;Node31 -->
<g id="edge41" class="edge"><title>Node30&#45;&gt;Node31</title>
<path fill="none" stroke="midnightblue" d="M297.286,-320.071C305.887,-318.748 314.56,-317.414 322.805,-316.145"/>
<polygon fill="midnightblue" stroke="midnightblue" points="296.603,-316.635 287.251,-321.615 297.667,-323.554 296.603,-316.635"/>
</g>
<!-- Node31&#45;&gt;Node2 -->
<g id="edge45" class="edge"><title>Node31&#45;&gt;Node2</title>
<path fill="none" stroke="midnightblue" d="M403.151,-287.365C419.413,-275.806 440.383,-261.62 460,-250.5 469.347,-245.201 479.79,-240.039 489.505,-235.533"/>
<polygon fill="midnightblue" stroke="midnightblue" points="400.718,-284.803 394.639,-293.48 404.802,-290.488 400.718,-284.803"/>
</g>
<!-- Node32 -->
<g id="node32" class="node"><title>Node32</title>
<g id="a_node32"><a xlink:href="../../df/d1f/class_mavlink.html#a2f9d780ec2b8412a769bf49fa5949a45" target="_top" xlink:title="Adjust the stream rates based on the current rate. ">
<polygon fill="white" stroke="black" points="466.5,-293.5 466.5,-323.5 584.5,-323.5 584.5,-293.5 466.5,-293.5"/>
<text text-anchor="start" x="474.5" y="-311.5" font-family="Helvetica,sans-Serif" font-size="10.00">Mavlink::adjust_stream</text>
<text text-anchor="middle" x="525.5" y="-300.5" font-family="Helvetica,sans-Serif" font-size="10.00">_rates</text>
</a>
</g>
</g>
<!-- Node31&#45;&gt;Node32 -->
<g id="edge42" class="edge"><title>Node31&#45;&gt;Node32</title>
<path fill="none" stroke="midnightblue" d="M434.082,-308.5C444.734,-308.5 455.82,-308.5 466.43,-308.5"/>
<polygon fill="midnightblue" stroke="midnightblue" points="434.031,-305 424.031,-308.5 434.031,-312 434.031,-305"/>
</g>
<!-- Node31&#45;&gt;Node33 -->
<g id="edge43" class="edge"><title>Node31&#45;&gt;Node33</title>
<path fill="none" stroke="midnightblue" d="M411.063,-328.488C441.533,-345.145 483.604,-368.143 507.004,-380.936"/>
<polygon fill="midnightblue" stroke="midnightblue" points="412.466,-325.266 402.012,-323.54 409.108,-331.408 412.466,-325.266"/>
</g>
<!-- Node34 -->
<g id="node34" class="node"><title>Node34</title>
<g id="a_node34"><a xlink:href="../../da/d89/class_mavlink_receiver.html#aabdc020e312dbe715fb9472cb3963a0e" target="_top" xlink:title="MavlinkReceiver::get\l_message_interval">
<polygon fill="white" stroke="black" points="627,-92.5 627,-122.5 736,-122.5 736,-92.5 627,-92.5"/>
<text text-anchor="start" x="635" y="-110.5" font-family="Helvetica,sans-Serif" font-size="10.00">MavlinkReceiver::get</text>
<text text-anchor="middle" x="681.5" y="-99.5" font-family="Helvetica,sans-Serif" font-size="10.00">_message_interval</text>
</a>
</g>
</g>
<!-- Node31&#45;&gt;Node34 -->
<g id="edge46" class="edge"><title>Node31&#45;&gt;Node34</title>
<path fill="none" stroke="midnightblue" d="M434.167,-290.995C497.967,-272.257 590.178,-245.112 591,-244.5 602.453,-235.977 651.095,-156.381 671.468,-122.573"/>
<polygon fill="midnightblue" stroke="midnightblue" points="432.798,-287.749 424.189,-293.924 434.77,-294.465 432.798,-287.749"/>
</g>
<!-- Node33&#45;&gt;Node9 -->
<g id="edge44" class="edge"><title>Node33&#45;&gt;Node9</title>
<path fill="none" stroke="midnightblue" d="M601.161,-390.5C660.905,-390.5 746.83,-390.5 822,-390.5 822,-390.5 822,-390.5 1285,-390.5 1387.34,-390.5 1416.88,-398.743 1514,-366.5 1547.46,-355.392 1581.8,-331.461 1599.43,-318.07"/>
<polygon fill="midnightblue" stroke="midnightblue" points="601.062,-387 591.062,-390.5 601.062,-394 601.062,-387"/>
</g>
<!-- Node34&#45;&gt;Node27 -->
<g id="edge47" class="edge"><title>Node34&#45;&gt;Node27</title>
<path fill="none" stroke="midnightblue" d="M746.397,-99.6671C820.391,-90.658 945.964,-75.5586 1054,-63.5 1108.82,-57.3807 1171.09,-50.8846 1216.84,-46.1962"/>
<polygon fill="midnightblue" stroke="midnightblue" points="745.809,-96.2128 736.306,-100.897 746.656,-103.161 745.809,-96.2128"/>
</g>
</g>
</svg>
        <g id="navigator" transform="translate(0 0)" fill="#404254">
                <rect fill="#f2f5e9" fill-opacity="0.5" stroke="#606060" stroke-width=".5" x="0" y="0" width="60" height="60"/>
                <use id="zoomplus" xlink:href="#zoomPlus" x="17" y="9" onmousedown="handleZoom(evt,'in')"/>
                <use id="zoomminus" xlink:href="#zoomMin" x="42" y="9" onmousedown="handleZoom(evt,'out')"/>
                <use id="reset" xlink:href="#resetDef" x="30" y="36" onmousedown="handleReset()"/>
                <g id="arrowUp" xlink:href="#dirArrow" transform="translate(30 24)" onmousedown="handlePan(0,-1)">
                  <use xlink:href="#rim" fill="#404040">
                        <set attributeName="fill" to="#808080" begin="arrowUp.mouseover" end="arrowUp.mouseout"/>
                  </use>
                  <path fill="none" stroke="white" stroke-width="1.5" d="M0,-3.0v7 M-2.5,-0.5L0,-3.0L2.5,-0.5"/>
                </g>
                <g id="arrowRight" xlink:href="#dirArrow" transform="rotate(90) translate(36 -43)" onmousedown="handlePan(1,0)">
                  <use xlink:href="#rim" fill="#404040">
                        <set attributeName="fill" to="#808080" begin="arrowRight.mouseover" end="arrowRight.mouseout"/>
                  </use>
                  <path fill="none" stroke="white" stroke-width="1.5" d="M0,-3.0v7 M-2.5,-0.5L0,-3.0L2.5,-0.5"/>
                </g>
                <g id="arrowDown" xlink:href="#dirArrow" transform="rotate(180) translate(-30 -48)" onmousedown="handlePan(0,1)">
                  <use xlink:href="#rim" fill="#404040">
                        <set attributeName="fill" to="#808080" begin="arrowDown.mouseover" end="arrowDown.mouseout"/>
                  </use>
                  <path fill="none" stroke="white" stroke-width="1.5" d="M0,-3.0v7 M-2.5,-0.5L0,-3.0L2.5,-0.5"/>
                </g>
                <g id="arrowLeft" xlink:href="#dirArrow" transform="rotate(270) translate(-36 17)" onmousedown="handlePan(-1,0)">
                  <use xlink:href="#rim" fill="#404040">
                        <set attributeName="fill" to="#808080" begin="arrowLeft.mouseover" end="arrowLeft.mouseout"/>
                  </use>
                  <path fill="none" stroke="white" stroke-width="1.5" d="M0,-3.0v7 M-2.5,-0.5L0,-3.0L2.5,-0.5"/>
                </g>
        </g>
        <svg viewBox="0 0 15 15" width="100%" height="30px" preserveAspectRatio="xMaxYMin meet">
         <g id="arrow_out" transform="scale(0.3 0.3)">
          <a xlink:href="class_mavlink_stream_aa00cbc49b71d724045ac6da83c66c80f_icgraph_org.svg" target="_base">
           <rect id="button" ry="5" rx="5" y="6" x="6" height="38" width="38"
                fill="#f2f5e9" fill-opacity="0.5" stroke="#606060" stroke-width="1.0"/>
           <path id="arrow"
             d="M 11.500037,31.436501 C 11.940474,20.09759 22.043105,11.32322 32.158766,21.979434 L 37.068811,17.246167 C 37.068811,17.246167 37.088388,32 37.088388,32 L 22.160133,31.978069 C 22.160133,31.978069 26.997745,27.140456 26.997745,27.140456 C 18.528582,18.264221 13.291696,25.230495 11.500037,31.436501 z"
             style="fill:#404040;"/>
          </a>
         </g>
        </svg>
</svg>
