<?xml version="1.0" encoding="UTF-8" standalone="no"?>
<!DOCTYPE svg PUBLIC "-//W3C//DTD SVG 1.1//EN"
 "http://www.w3.org/Graphics/SVG/1.1/DTD/svg11.dtd">
<!-- Generated by graphviz version 2.38.0 (20140413.2041)
 -->
<!-- Title: MavlinkStream::update Pages: 1 -->
<svg width="747pt" height="230pt"
 viewBox="0.00 0.00 747.00 230.00" xmlns="http://www.w3.org/2000/svg" xmlns:xlink="http://www.w3.org/1999/xlink">
<g id="graph0" class="graph" transform="scale(1 1) rotate(0) translate(4 226)">
<title>MavlinkStream::update</title>
<polygon fill="white" stroke="none" points="-4,4 -4,-226 743,-226 743,4 -4,4"/>
<!-- Node1 -->
<g id="node1" class="node"><title>Node1</title>
<polygon fill="#bfbfbf" stroke="black" points="0,-95.5 0,-114.5 117,-114.5 117,-95.5 0,-95.5"/>
<text text-anchor="middle" x="58.5" y="-102.5" font-family="Helvetica,sans-Serif" font-size="10.00">MavlinkStream::update</text>
</g>
<!-- Node2 -->
<g id="node2" class="node"><title>Node2</title>
<g id="a_node2"><a xlink:href="../../d1/df2/class_mavlink_stream.html#aa00cbc49b71d724045ac6da83c66c80f" target="_top" xlink:title="MavlinkStream::const_rate">
<polygon fill="white" stroke="black" points="156.5,-202.5 156.5,-221.5 290.5,-221.5 290.5,-202.5 156.5,-202.5"/>
<text text-anchor="middle" x="223.5" y="-209.5" font-family="Helvetica,sans-Serif" font-size="10.00">MavlinkStream::const_rate</text>
</a>
</g>
</g>
<!-- Node1&#45;&gt;Node2 -->
<g id="edge1" class="edge"><title>Node1&#45;&gt;Node2</title>
<path fill="none" stroke="midnightblue" d="M66.8825,-114.543C81.3866,-132.628 115.473,-171.961 153,-193 156.974,-195.228 161.224,-197.207 165.591,-198.962"/>
<polygon fill="midnightblue" stroke="midnightblue" points="164.682,-202.355 175.276,-202.457 167.058,-195.77 164.682,-202.355"/>
</g>
<!-- Node4 -->
<g id="node4" class="node"><title>Node4</title>
<g id="a_node4"><a xlink:href="../../df/d1f/class_mavlink.html#af44bc86938a6f14962231c7e16582222" target="_top" xlink:title="Mavlink::get_main_loop\l_delay">
<polygon fill="white" stroke="black" points="164,-153 164,-183 283,-183 283,-153 164,-153"/>
<text text-anchor="start" x="172" y="-171" font-family="Helvetica,sans-Serif" font-size="10.00">Mavlink::get_main_loop</text>
<text text-anchor="middle" x="223.5" y="-160" font-family="Helvetica,sans-Serif" font-size="10.00">_delay</text>
</a>
</g>
</g>
<!-- Node1&#45;&gt;Node4 -->
<g id="edge3" class="edge"><title>Node1&#45;&gt;Node4</title>
<path fill="none" stroke="midnightblue" d="M82.4512,-114.632C101.316,-122.475 128.782,-133.727 153,-143 158.524,-145.115 164.313,-147.279 170.093,-149.407"/>
<polygon fill="midnightblue" stroke="midnightblue" points="169.169,-152.795 179.763,-152.937 171.569,-146.22 169.169,-152.795"/>
</g>
<!-- Node10 -->
<g id="node10" class="node"><title>Node10</title>
<g id="a_node10"><a xlink:href="../../df/d1f/class_mavlink.html#a77f4c47c8ed0a9148932fd0a3a65c167" target="_top" xlink:title="Mavlink::get_rate_mult">
<polygon fill="white" stroke="black" points="165.5,-114.5 165.5,-133.5 281.5,-133.5 281.5,-114.5 165.5,-114.5"/>
<text text-anchor="middle" x="223.5" y="-121.5" font-family="Helvetica,sans-Serif" font-size="10.00">Mavlink::get_rate_mult</text>
</a>
</g>
</g>
<!-- Node1&#45;&gt;Node10 -->
<g id="edge9" class="edge"><title>Node1&#45;&gt;Node10</title>
<path fill="none" stroke="midnightblue" d="M117.427,-111.752C129.701,-113.183 142.756,-114.705 155.341,-116.172"/>
<polygon fill="midnightblue" stroke="midnightblue" points="154.97,-119.652 165.308,-117.333 155.781,-112.699 154.97,-119.652"/>
</g>
<!-- Node11 -->
<g id="node11" class="node"><title>Node11</title>
<g id="a_node11"><a xlink:href="../../d6/d10/drv__hrt_8h.html#a1450e339b7c5b8d47656500167a6676d" target="_top" xlink:title="Get absolute time in [us] (does not wrap). ">
<polygon fill="white" stroke="black" points="176.5,-76.5 176.5,-95.5 270.5,-95.5 270.5,-76.5 176.5,-76.5"/>
<text text-anchor="middle" x="223.5" y="-83.5" font-family="Helvetica,sans-Serif" font-size="10.00">hrt_absolute_time</text>
</a>
</g>
</g>
<!-- Node1&#45;&gt;Node11 -->
<g id="edge10" class="edge"><title>Node1&#45;&gt;Node11</title>
<path fill="none" stroke="midnightblue" d="M117.427,-98.2478C133.265,-96.4016 150.403,-94.404 166.152,-92.5682"/>
<polygon fill="midnightblue" stroke="midnightblue" points="166.745,-96.0228 176.273,-91.3885 165.935,-89.0699 166.745,-96.0228"/>
</g>
<!-- Node12 -->
<g id="node12" class="node"><title>Node12</title>
<g id="a_node12"><a xlink:href="../../d1/df2/class_mavlink_stream.html#a0af635adceca3e4bbfac5dc91070946e" target="_top" xlink:title="MavlinkStream::send">
<polygon fill="white" stroke="black" points="169,-38.5 169,-57.5 278,-57.5 278,-38.5 169,-38.5"/>
<text text-anchor="middle" x="223.5" y="-45.5" font-family="Helvetica,sans-Serif" font-size="10.00">MavlinkStream::send</text>
</a>
</g>
</g>
<!-- Node1&#45;&gt;Node12 -->
<g id="edge11" class="edge"><title>Node1&#45;&gt;Node12</title>
<path fill="none" stroke="midnightblue" d="M81.1371,-95.348C99.912,-87.1808 127.939,-75.4845 153,-67 159.924,-64.6559 167.308,-62.392 174.582,-60.2937"/>
<polygon fill="midnightblue" stroke="midnightblue" points="175.697,-63.6161 184.378,-57.5432 173.805,-56.8767 175.697,-63.6161"/>
</g>
<!-- Node13 -->
<g id="node13" class="node"><title>Node13</title>
<g id="a_node13"><a xlink:href="../../d1/df2/class_mavlink_stream.html#abafe90590f10c8160169d0bfaf2486cb" target="_top" xlink:title="Function to collect/update data for the streams at a high rate independant of actual stream rate...">
<polygon fill="white" stroke="black" points="153,-0.5 153,-19.5 294,-19.5 294,-0.5 153,-0.5"/>
<text text-anchor="middle" x="223.5" y="-7.5" font-family="Helvetica,sans-Serif" font-size="10.00">MavlinkStream::update_data</text>
</a>
</g>
</g>
<!-- Node1&#45;&gt;Node13 -->
<g id="edge12" class="edge"><title>Node1&#45;&gt;Node13</title>
<path fill="none" stroke="midnightblue" d="M68.6331,-95.3094C84.3543,-79.1905 118.207,-46.8793 153,-29 157.542,-26.6657 162.404,-24.5928 167.367,-22.7571"/>
<polygon fill="midnightblue" stroke="midnightblue" points="168.623,-26.0272 176.979,-19.5132 166.385,-19.3947 168.623,-26.0272"/>
</g>
<!-- Node3 -->
<g id="node3" class="node"><title>Node3</title>
<g id="a_node3"><a xlink:href="../../d1/df2/class_mavlink_stream.html#a23d06f17eff1931144643c31a0a3da98" target="_top" xlink:title="Get maximal total messages size on update. ">
<polygon fill="white" stroke="black" points="330,-202.5 330,-221.5 455,-221.5 455,-202.5 330,-202.5"/>
<text text-anchor="middle" x="392.5" y="-209.5" font-family="Helvetica,sans-Serif" font-size="10.00">MavlinkStream::get_size</text>
</a>
</g>
</g>
<!-- Node2&#45;&gt;Node3 -->
<g id="edge2" class="edge"><title>Node2&#45;&gt;Node3</title>
<path fill="none" stroke="midnightblue" d="M290.503,-212C300.111,-212 310.044,-212 319.759,-212"/>
<polygon fill="midnightblue" stroke="midnightblue" points="319.782,-215.5 329.782,-212 319.782,-208.5 319.782,-215.5"/>
</g>
<!-- Node5 -->
<g id="node5" class="node"><title>Node5</title>
<g id="a_node5"><a xlink:href="../../df/d1f/class_mavlink.html#af1b0ab44faaf26afe3c974e8438ab47f" target="_top" xlink:title="close the Mavlink shell if it is open ">
<polygon fill="white" stroke="black" points="340,-161.5 340,-180.5 445,-180.5 445,-161.5 340,-161.5"/>
<text text-anchor="middle" x="392.5" y="-168.5" font-family="Helvetica,sans-Serif" font-size="10.00">Mavlink::close_shell</text>
</a>
</g>
</g>
<!-- Node4&#45;&gt;Node5 -->
<g id="edge4" class="edge"><title>Node4&#45;&gt;Node5</title>
<path fill="none" stroke="midnightblue" d="M283.378,-169.058C298.333,-169.326 314.444,-169.616 329.547,-169.887"/>
<polygon fill="midnightblue" stroke="midnightblue" points="329.753,-173.391 339.815,-170.072 329.879,-166.392 329.753,-173.391"/>
</g>
<!-- Node6 -->
<g id="node6" class="node"><title>Node6</title>
<g id="a_node6"><a xlink:href="../../df/d1f/class_mavlink.html#ab0cacfa66680d7b28ae3a9eb774b8819" target="_top" xlink:title="get the Mavlink shell. ">
<polygon fill="white" stroke="black" points="345,-123.5 345,-142.5 440,-142.5 440,-123.5 345,-123.5"/>
<text text-anchor="middle" x="392.5" y="-130.5" font-family="Helvetica,sans-Serif" font-size="10.00">Mavlink::get_shell</text>
</a>
</g>
</g>
<!-- Node4&#45;&gt;Node6 -->
<g id="edge5" class="edge"><title>Node4&#45;&gt;Node6</title>
<path fill="none" stroke="midnightblue" d="M283.378,-155.66C300.409,-152.091 318.941,-148.207 335.773,-144.679"/>
<polygon fill="midnightblue" stroke="midnightblue" points="336.936,-148.012 346.005,-142.535 335.5,-141.161 336.936,-148.012"/>
</g>
<!-- Node7 -->
<g id="node7" class="node"><title>Node7</title>
<g id="a_node7"><a xlink:href="../../d1/dbf/class_mavlink_shell.html#a2a27fc2462e7b2e9fa227dcf6d493955" target="_top" xlink:title="Start the mavlink shell. ">
<polygon fill="white" stroke="black" points="491,-123.5 491,-142.5 589,-142.5 589,-123.5 491,-123.5"/>
<text text-anchor="middle" x="540" y="-130.5" font-family="Helvetica,sans-Serif" font-size="10.00">MavlinkShell::start</text>
</a>
</g>
</g>
<!-- Node6&#45;&gt;Node7 -->
<g id="edge6" class="edge"><title>Node6&#45;&gt;Node7</title>
<path fill="none" stroke="midnightblue" d="M440.338,-133C453.181,-133 467.263,-133 480.665,-133"/>
<polygon fill="midnightblue" stroke="midnightblue" points="480.75,-136.5 490.75,-133 480.75,-129.5 480.75,-136.5"/>
</g>
<!-- Node8 -->
<g id="node8" class="node"><title>Node8</title>
<g id="a_node8"><a xlink:href="../../da/d65/px4__tasks_8h.html#a9c9c04f140b8e63904e0e0c6597a5fc8" target="_top" xlink:title="Starts a task and performs any specific accounting, scheduler setup, etc. ">
<polygon fill="white" stroke="black" points="625,-145.5 625,-164.5 739,-164.5 739,-145.5 625,-145.5"/>
<text text-anchor="middle" x="682" y="-152.5" font-family="Helvetica,sans-Serif" font-size="10.00">px4_task_spawn_cmd</text>
</a>
</g>
</g>
<!-- Node7&#45;&gt;Node8 -->
<g id="edge7" class="edge"><title>Node7&#45;&gt;Node8</title>
<path fill="none" stroke="midnightblue" d="M589.18,-140.571C597.366,-141.858 605.995,-143.214 614.553,-144.558"/>
<polygon fill="midnightblue" stroke="midnightblue" points="614.114,-148.032 624.536,-146.127 615.2,-141.117 614.114,-148.032"/>
</g>
<!-- Node9 -->
<g id="node9" class="node"><title>Node9</title>
<g id="a_node9"><a xlink:href="../../d1/dbf/class_mavlink_shell.html#ad12b833de772b01102a5b1f707d7c847" target="_top" xlink:title="MavlinkShell::shell\l_start_thread">
<polygon fill="white" stroke="black" points="633,-96 633,-126 731,-126 731,-96 633,-96"/>
<text text-anchor="start" x="641" y="-114" font-family="Helvetica,sans-Serif" font-size="10.00">MavlinkShell::shell</text>
<text text-anchor="middle" x="682" y="-103" font-family="Helvetica,sans-Serif" font-size="10.00">_start_thread</text>
</a>
</g>
</g>
<!-- Node7&#45;&gt;Node9 -->
<g id="edge8" class="edge"><title>Node7&#45;&gt;Node9</title>
<path fill="none" stroke="midnightblue" d="M589.18,-125.429C599.959,-123.735 611.506,-121.921 622.647,-120.17"/>
<polygon fill="midnightblue" stroke="midnightblue" points="623.396,-123.595 632.731,-118.585 622.309,-116.68 623.396,-123.595"/>
</g>
</g>
</svg>
