<?xml version="1.0" encoding="UTF-8" standalone="no"?>
<!DOCTYPE svg PUBLIC "-//W3C//DTD SVG 1.1//EN"
 "http://www.w3.org/Graphics/SVG/1.1/DTD/svg11.dtd">
<!-- Generated by graphviz version 2.40.1 (20161225.0304)
 -->
<!-- Title: MavlinkStream::get_size Pages: 1 -->
<svg width="634pt" height="137pt"
 viewBox="0.00 0.00 634.00 137.00" xmlns="http://www.w3.org/2000/svg" xmlns:xlink="http://www.w3.org/1999/xlink">
<g id="graph0" class="graph" transform="scale(1 1) rotate(0) translate(4 133)">
<title>MavlinkStream::get_size</title>
<polygon fill="#ffffff" stroke="transparent" points="-4,4 -4,-133 630,-133 630,4 -4,4"/>
<!-- Node37 -->
<g id="node1" class="node">
<title>Node37</title>
<polygon fill="#bfbfbf" stroke="#000000" points="0,-33 0,-52 125,-52 125,-33 0,-33"/>
<text text-anchor="middle" x="62.5" y="-40" font-family="Helvetica,sans-Serif" font-size="10.00" fill="#000000">MavlinkStream::get_size</text>
</g>
<!-- Node38 -->
<g id="node2" class="node">
<title>Node38</title>
<g id="a_node2"><a xlink:href="../../d1/df2/class_mavlink_stream.html#aa00cbc49b71d724045ac6da83c66c80f" target="_top" xlink:title="MavlinkStream::const_rate">
<polygon fill="#ffffff" stroke="#000000" points="161,-55 161,-74 295,-74 295,-55 161,-55"/>
<text text-anchor="middle" x="228" y="-62" font-family="Helvetica,sans-Serif" font-size="10.00" fill="#000000">MavlinkStream::const_rate</text>
</a>
</g>
</g>
<!-- Node37&#45;&gt;Node38 -->
<g id="edge1" class="edge">
<title>Node37&#45;&gt;Node38</title>
<path fill="none" stroke="#191970" d="M135.0681,-52.1465C143.6639,-53.2892 152.4086,-54.4516 160.9234,-55.5835"/>
<polygon fill="#191970" stroke="#191970" points="135.4425,-48.6656 125.0685,-50.8173 134.52,-55.6045 135.4425,-48.6656"/>
</g>
<!-- Node43 -->
<g id="node7" class="node">
<title>Node43</title>
<g id="a_node7"><a xlink:href="../../d1/df2/class_mavlink_stream.html#a306473fbadf74cfa298e8df56a4b17b8" target="_top" xlink:title="Get the average message size. ">
<polygon fill="#ffffff" stroke="#000000" points="177.5,-5.5 177.5,-35.5 278.5,-35.5 278.5,-5.5 177.5,-5.5"/>
<text text-anchor="start" x="185.5" y="-23.5" font-family="Helvetica,sans-Serif" font-size="10.00" fill="#000000">MavlinkStream::get</text>
<text text-anchor="middle" x="228" y="-12.5" font-family="Helvetica,sans-Serif" font-size="10.00" fill="#000000">_size_avg</text>
</a>
</g>
</g>
<!-- Node37&#45;&gt;Node43 -->
<g id="edge6" class="edge">
<title>Node37&#45;&gt;Node43</title>
<path fill="none" stroke="#191970" d="M135.3244,-32.8194C149.539,-30.9299 164.1501,-28.9876 177.447,-27.22"/>
<polygon fill="#191970" stroke="#191970" points="134.52,-29.3955 125.0685,-34.1827 135.4425,-36.3344 134.52,-29.3955"/>
</g>
<!-- Node39 -->
<g id="node3" class="node">
<title>Node39</title>
<g id="a_node3"><a xlink:href="../../d1/df2/class_mavlink_stream.html#ac861aa2bd187c1856606d25c2b33df95" target="_top" xlink:title="Update subscriptions and send message if necessary. ">
<polygon fill="#ffffff" stroke="#000000" points="331,-55 331,-74 448,-74 448,-55 331,-55"/>
<text text-anchor="middle" x="389.5" y="-62" font-family="Helvetica,sans-Serif" font-size="10.00" fill="#000000">MavlinkStream::update</text>
</a>
</g>
</g>
<!-- Node38&#45;&gt;Node39 -->
<g id="edge2" class="edge">
<title>Node38&#45;&gt;Node39</title>
<path fill="none" stroke="#191970" d="M305.1779,-64.5C313.815,-64.5 322.5067,-64.5 330.8567,-64.5"/>
<polygon fill="#191970" stroke="#191970" points="305.0875,-61.0001 295.0875,-64.5 305.0875,-68.0001 305.0875,-61.0001"/>
</g>
<!-- Node40 -->
<g id="node4" class="node">
<title>Node40</title>
<g id="a_node4"><a xlink:href="../../d0/d79/class_mavlink_stream_sys_status.html#aade6ccffb7425888107dbb55b19b288f" target="_top" xlink:title="MavlinkStreamSysStatus\l::send">
<polygon fill="#ffffff" stroke="#000000" points="491,-98.5 491,-128.5 619,-128.5 619,-98.5 491,-98.5"/>
<text text-anchor="start" x="499" y="-116.5" font-family="Helvetica,sans-Serif" font-size="10.00" fill="#000000">MavlinkStreamSysStatus</text>
<text text-anchor="middle" x="555" y="-105.5" font-family="Helvetica,sans-Serif" font-size="10.00" fill="#000000">::send</text>
</a>
</g>
</g>
<!-- Node39&#45;&gt;Node40 -->
<g id="edge3" class="edge">
<title>Node39&#45;&gt;Node40</title>
<path fill="none" stroke="#191970" d="M431.5643,-76.9541C453.6708,-83.4992 480.9348,-91.5713 504.2119,-98.463"/>
<polygon fill="#191970" stroke="#191970" points="432.3852,-73.547 421.8029,-74.064 430.3979,-80.259 432.3852,-73.547"/>
</g>
<!-- Node41 -->
<g id="node5" class="node">
<title>Node41</title>
<g id="a_node5"><a xlink:href="../../db/d2f/class_mavlink_stream_battery_status.html#a0a2b548643130ee3b087720932b4874d" target="_top" xlink:title="MavlinkStreamBatteryStatus\l::send">
<polygon fill="#ffffff" stroke="#000000" points="484,-49.5 484,-79.5 626,-79.5 626,-49.5 484,-49.5"/>
<text text-anchor="start" x="492" y="-67.5" font-family="Helvetica,sans-Serif" font-size="10.00" fill="#000000">MavlinkStreamBatteryStatus</text>
<text text-anchor="middle" x="555" y="-56.5" font-family="Helvetica,sans-Serif" font-size="10.00" fill="#000000">::send</text>
</a>
</g>
</g>
<!-- Node39&#45;&gt;Node41 -->
<g id="edge4" class="edge">
<title>Node39&#45;&gt;Node41</title>
<path fill="none" stroke="#191970" d="M458.4513,-64.5C466.8605,-64.5 475.4654,-64.5 483.9052,-64.5"/>
<polygon fill="#191970" stroke="#191970" points="458.3151,-61.0001 448.3151,-64.5 458.3151,-68.0001 458.3151,-61.0001"/>
</g>
<!-- Node42 -->
<g id="node6" class="node">
<title>Node42</title>
<g id="a_node6"><a xlink:href="../../d1/df2/class_mavlink_stream.html#a3f00bff476cba7a35bf8fd1e4a07a211" target="_top" xlink:title="Get the interval. ">
<polygon fill="#ffffff" stroke="#000000" points="504.5,-.5 504.5,-30.5 605.5,-30.5 605.5,-.5 504.5,-.5"/>
<text text-anchor="start" x="512.5" y="-18.5" font-family="Helvetica,sans-Serif" font-size="10.00" fill="#000000">MavlinkStream::get</text>
<text text-anchor="middle" x="555" y="-7.5" font-family="Helvetica,sans-Serif" font-size="10.00" fill="#000000">_interval</text>
</a>
</g>
</g>
<!-- Node39&#45;&gt;Node42 -->
<g id="edge5" class="edge">
<title>Node39&#45;&gt;Node42</title>
<path fill="none" stroke="#191970" d="M431.5643,-52.0459C453.6708,-45.5008 480.9348,-37.4287 504.2119,-30.537"/>
<polygon fill="#191970" stroke="#191970" points="430.3979,-48.741 421.8029,-54.936 432.3852,-55.453 430.3979,-48.741"/>
</g>
</g>
</svg>
