<?xml version="1.0" encoding="UTF-8" standalone="no"?>
<!DOCTYPE svg PUBLIC "-//W3C//DTD SVG 1.1//EN"
 "http://www.w3.org/Graphics/SVG/1.1/DTD/svg11.dtd">
<!-- Generated by graphviz version 2.38.0 (20140413.2041)
 -->
<!-- Title: BMI055 Pages: 1 -->
<svg width="122pt" height="347pt"
 viewBox="0.00 0.00 121.50 347.00" xmlns="http://www.w3.org/2000/svg" xmlns:xlink="http://www.w3.org/1999/xlink">
<g id="graph0" class="graph" transform="scale(1 1) rotate(0) translate(4 343)">
<title>BMI055</title>
<polygon fill="white" stroke="none" points="-4,4 -4,-343 117.5,-343 117.5,4 -4,4"/>
<!-- Node1 -->
<g id="node1" class="node"><title>Node1</title>
<polygon fill="#bfbfbf" stroke="black" points="4,-0.5 4,-189.5 95,-189.5 95,-0.5 4,-0.5"/>
<text text-anchor="middle" x="49.5" y="-177.5" font-family="Helvetica,sans-Serif" font-size="10.00">BMI055</text>
<polyline fill="none" stroke="black" points="4,-170.5 95,-170.5 "/>
<text text-anchor="start" x="12" y="-158.5" font-family="Helvetica,sans-Serif" font-size="10.00"># _whoami</text>
<text text-anchor="start" x="12" y="-147.5" font-family="Helvetica,sans-Serif" font-size="10.00"># _call_interval</text>
<text text-anchor="start" x="12" y="-136.5" font-family="Helvetica,sans-Serif" font-size="10.00"># _dlpf_freq</text>
<text text-anchor="start" x="12" y="-125.5" font-family="Helvetica,sans-Serif" font-size="10.00"># _register_wait</text>
<text text-anchor="start" x="12" y="-114.5" font-family="Helvetica,sans-Serif" font-size="10.00"># _reset_wait</text>
<text text-anchor="start" x="12" y="-103.5" font-family="Helvetica,sans-Serif" font-size="10.00"># _rotation</text>
<text text-anchor="start" x="12" y="-92.5" font-family="Helvetica,sans-Serif" font-size="10.00"># _checked_next</text>
<polyline fill="none" stroke="black" points="4,-85.5 95,-85.5 "/>
<text text-anchor="start" x="12" y="-73.5" font-family="Helvetica,sans-Serif" font-size="10.00">+ BMI055()</text>
<text text-anchor="start" x="12" y="-62.5" font-family="Helvetica,sans-Serif" font-size="10.00">+ ~BMI055()</text>
<text text-anchor="start" x="12" y="-51.5" font-family="Helvetica,sans-Serif" font-size="10.00"># read_reg()</text>
<text text-anchor="start" x="12" y="-40.5" font-family="Helvetica,sans-Serif" font-size="10.00"># read_reg16()</text>
<text text-anchor="start" x="12" y="-29.5" font-family="Helvetica,sans-Serif" font-size="10.00"># write_reg()</text>
<text text-anchor="start" x="12" y="-18.5" font-family="Helvetica,sans-Serif" font-size="10.00"># BMI055()</text>
<text text-anchor="start" x="12" y="-7.5" font-family="Helvetica,sans-Serif" font-size="10.00"># operator=()</text>
</g>
<!-- Node2 -->
<g id="node2" class="node"><title>Node2</title>
<polygon fill="white" stroke="#bfbfbf" points="0,-259.5 0,-316.5 33,-316.5 33,-259.5 0,-259.5"/>
<text text-anchor="middle" x="16.5" y="-304.5" font-family="Helvetica,sans-Serif" font-size="10.00">SPI</text>
<polyline fill="none" stroke="#bfbfbf" points="0,-297.5 33,-297.5 "/>
<text text-anchor="middle" x="16.5" y="-285.5" font-family="Helvetica,sans-Serif" font-size="10.00"> </text>
<polyline fill="none" stroke="#bfbfbf" points="0,-278.5 33,-278.5 "/>
<text text-anchor="middle" x="16.5" y="-266.5" font-family="Helvetica,sans-Serif" font-size="10.00"> </text>
</g>
<!-- Node2&#45;&gt;Node1 -->
<g id="edge1" class="edge"><title>Node2&#45;&gt;Node1</title>
<path fill="none" stroke="midnightblue" d="M23.0493,-249.093C26.0132,-231.939 29.6609,-210.826 33.2898,-189.822"/>
<polygon fill="none" stroke="midnightblue" points="19.5522,-248.777 21.2985,-259.227 26.45,-249.969 19.5522,-248.777"/>
</g>
<!-- Node3 -->
<g id="node3" class="node"><title>Node3</title>
<g id="a_node3"><a xlink:href="../../dc/d0d/structhrt__call.html" target="_top" xlink:title="Callout record. ">
<polygon fill="white" stroke="black" points="51.5,-237.5 51.5,-338.5 113.5,-338.5 113.5,-237.5 51.5,-237.5"/>
<text text-anchor="middle" x="82.5" y="-326.5" font-family="Helvetica,sans-Serif" font-size="10.00">hrt_call</text>
<polyline fill="none" stroke="black" points="51.5,-319.5 113.5,-319.5 "/>
<text text-anchor="start" x="59.5" y="-307.5" font-family="Helvetica,sans-Serif" font-size="10.00">+ link</text>
<text text-anchor="start" x="59.5" y="-296.5" font-family="Helvetica,sans-Serif" font-size="10.00">+ deadline</text>
<text text-anchor="start" x="59.5" y="-285.5" font-family="Helvetica,sans-Serif" font-size="10.00">+ period</text>
<text text-anchor="start" x="59.5" y="-274.5" font-family="Helvetica,sans-Serif" font-size="10.00">+ callout</text>
<text text-anchor="start" x="59.5" y="-263.5" font-family="Helvetica,sans-Serif" font-size="10.00">+ arg</text>
<polyline fill="none" stroke="black" points="51.5,-256.5 113.5,-256.5 "/>
<text text-anchor="middle" x="82.5" y="-244.5" font-family="Helvetica,sans-Serif" font-size="10.00"> </text>
</a>
</g>
</g>
<!-- Node3&#45;&gt;Node1 -->
<g id="edge2" class="edge"><title>Node3&#45;&gt;Node1</title>
<path fill="none" stroke="#404040" d="M73.9158,-237.316C72.0055,-226.259 69.9096,-214.129 67.7737,-201.766"/>
<polygon fill="none" stroke="#404040" points="67.7614,-201.694 62.7982,-196.463 65.7183,-189.869 70.6814,-195.101 67.7614,-201.694"/>
<text text-anchor="middle" x="85" y="-211" font-family="Helvetica,sans-Serif" font-size="10.00"> #_call</text>
</g>
</g>
</svg>
