<?xml version="1.0" encoding="UTF-8" standalone="no"?>
<!DOCTYPE svg PUBLIC "-//W3C//DTD SVG 1.1//EN"
 "http://www.w3.org/Graphics/SVG/1.1/DTD/svg11.dtd">
<!-- Generated by graphviz version 2.38.0 (20140413.2041)
 -->
<!-- Title: src/drivers/vmount/output_rc.h Pages: 1 -->
<svg width="560pt" height="274pt"
 viewBox="0.00 0.00 559.50 274.00" xmlns="http://www.w3.org/2000/svg" xmlns:xlink="http://www.w3.org/1999/xlink">
<g id="graph0" class="graph" transform="scale(1 1) rotate(0) translate(4 270)">
<title>src/drivers/vmount/output_rc.h</title>
<polygon fill="white" stroke="none" points="-4,4 -4,-270 555.5,-270 555.5,4 -4,4"/>
<!-- Node1 -->
<g id="node1" class="node"><title>Node1</title>
<polygon fill="#bfbfbf" stroke="black" points="252.5,-235.5 252.5,-265.5 350.5,-265.5 350.5,-235.5 252.5,-235.5"/>
<text text-anchor="start" x="260.5" y="-253.5" font-family="Helvetica,sans-Serif" font-size="10.00">src/drivers/vmount</text>
<text text-anchor="middle" x="301.5" y="-242.5" font-family="Helvetica,sans-Serif" font-size="10.00">/output_rc.h</text>
</g>
<!-- Node2 -->
<g id="node2" class="node"><title>Node2</title>
<g id="a_node2"><a xlink:href="../../d8/d30/output_8h.html" target="_top" xlink:title="output.h">
<polygon fill="white" stroke="black" points="319.5,-179.5 319.5,-198.5 371.5,-198.5 371.5,-179.5 319.5,-179.5"/>
<text text-anchor="middle" x="345.5" y="-186.5" font-family="Helvetica,sans-Serif" font-size="10.00">output.h</text>
</a>
</g>
</g>
<!-- Node1&#45;&gt;Node2 -->
<g id="edge1" class="edge"><title>Node1&#45;&gt;Node2</title>
<path fill="none" stroke="midnightblue" d="M311.927,-235.399C318.255,-226.842 326.369,-215.871 333.034,-206.857"/>
<polygon fill="midnightblue" stroke="midnightblue" points="335.966,-208.779 339.098,-198.658 330.338,-204.617 335.966,-208.779"/>
</g>
<!-- Node13 -->
<g id="node13" class="node"><title>Node13</title>
<g id="a_node13"><a xlink:href="../../db/dd6/u_o_r_b_8h.html" target="_top" xlink:title="API for the uORB lightweight object broker. ">
<polygon fill="white" stroke="black" points="305.5,-56.5 305.5,-75.5 387.5,-75.5 387.5,-56.5 305.5,-56.5"/>
<text text-anchor="middle" x="346.5" y="-63.5" font-family="Helvetica,sans-Serif" font-size="10.00">uORB/uORB.h</text>
</a>
</g>
</g>
<!-- Node1&#45;&gt;Node13 -->
<g id="edge21" class="edge"><title>Node1&#45;&gt;Node13</title>
<path fill="none" stroke="midnightblue" d="M299.33,-235.218C296.044,-209.521 291.821,-154.241 308.5,-112 312.837,-101.015 320.996,-90.7822 328.645,-82.859"/>
<polygon fill="midnightblue" stroke="midnightblue" points="331.221,-85.237 335.964,-75.7632 326.348,-80.2113 331.221,-85.237"/>
</g>
<!-- Node3 -->
<g id="node3" class="node"><title>Node3</title>
<g id="a_node3"><a xlink:href="../../d5/de8/drivers_2vmount_2common_8h.html" target="_top" xlink:title="common.h">
<polygon fill="white" stroke="black" points="489.5,-118 489.5,-137 551.5,-137 551.5,-118 489.5,-118"/>
<text text-anchor="middle" x="520.5" y="-125" font-family="Helvetica,sans-Serif" font-size="10.00">common.h</text>
</a>
</g>
</g>
<!-- Node2&#45;&gt;Node3 -->
<g id="edge2" class="edge"><title>Node2&#45;&gt;Node3</title>
<path fill="none" stroke="midnightblue" d="M370.573,-179.475C400.852,-169.18 451.94,-151.81 485.941,-140.25"/>
<polygon fill="midnightblue" stroke="midnightblue" points="487.132,-143.542 495.473,-137.009 484.879,-136.914 487.132,-143.542"/>
</g>
<!-- Node5 -->
<g id="node5" class="node"><title>Node5</title>
<g id="a_node5"><a xlink:href="../../d6/d10/drv__hrt_8h.html" target="_top" xlink:title="High&#45;resolution timer with callouts and timekeeping. ">
<polygon fill="white" stroke="black" points="142,-118 142,-137 229,-137 229,-118 142,-118"/>
<text text-anchor="middle" x="185.5" y="-125" font-family="Helvetica,sans-Serif" font-size="10.00">drivers/drv_hrt.h</text>
</a>
</g>
</g>
<!-- Node2&#45;&gt;Node5 -->
<g id="edge4" class="edge"><title>Node2&#45;&gt;Node5</title>
<path fill="none" stroke="midnightblue" d="M322.576,-179.475C295.13,-169.269 248.984,-152.108 217.901,-140.549"/>
<polygon fill="midnightblue" stroke="midnightblue" points="218.974,-137.214 208.382,-137.009 216.535,-143.775 218.974,-137.214"/>
</g>
<!-- Node12 -->
<g id="node12" class="node"><title>Node12</title>
<g id="a_node12"><a xlink:href="../../db/d35/geo_8h.html" target="_top" xlink:title="Definition of geo / math functions to perform geodesic calculations. ">
<polygon fill="white" stroke="black" points="405.5,-56.5 405.5,-75.5 493.5,-75.5 493.5,-56.5 405.5,-56.5"/>
<text text-anchor="middle" x="449.5" y="-63.5" font-family="Helvetica,sans-Serif" font-size="10.00">lib/ecl/geo/geo.h</text>
</a>
</g>
</g>
<!-- Node2&#45;&gt;Node12 -->
<g id="edge12" class="edge"><title>Node2&#45;&gt;Node12</title>
<path fill="none" stroke="midnightblue" d="M371.782,-182.907C393.855,-177.167 424.311,-165.526 440.5,-143 452.344,-126.519 453.258,-102.648 452.069,-86.0732"/>
<polygon fill="midnightblue" stroke="midnightblue" points="455.531,-85.53 451.018,-75.9447 448.569,-86.2525 455.531,-85.53"/>
</g>
<!-- Node2&#45;&gt;Node13 -->
<g id="edge15" class="edge"><title>Node2&#45;&gt;Node13</title>
<path fill="none" stroke="midnightblue" d="M337.286,-179.182C329.956,-170.663 319.745,-157.019 315.5,-143 311.507,-129.813 311.407,-125.156 315.5,-112 318.729,-101.622 325.276,-91.5209 331.525,-83.5268"/>
<polygon fill="midnightblue" stroke="midnightblue" points="334.285,-85.6818 338.017,-75.7661 328.916,-81.1902 334.285,-85.6818"/>
</g>
<!-- Node14 -->
<g id="node14" class="node"><title>Node14</title>
<g id="a_node14"><a xlink:href="../../d6/d55/vehicle__global__position_8h.html" target="_top" xlink:title="uORB/topics/vehicle\l_global_position.h">
<polygon fill="white" stroke="black" points="325,-112.5 325,-142.5 432,-142.5 432,-112.5 325,-112.5"/>
<text text-anchor="start" x="333" y="-130.5" font-family="Helvetica,sans-Serif" font-size="10.00">uORB/topics/vehicle</text>
<text text-anchor="middle" x="378.5" y="-119.5" font-family="Helvetica,sans-Serif" font-size="10.00">_global_position.h</text>
</a>
</g>
</g>
<!-- Node2&#45;&gt;Node14 -->
<g id="edge19" class="edge"><title>Node2&#45;&gt;Node14</title>
<path fill="none" stroke="midnightblue" d="M350.228,-179.475C354.28,-172.17 360.308,-161.302 365.758,-151.475"/>
<polygon fill="midnightblue" stroke="midnightblue" points="368.933,-152.966 370.723,-142.523 362.812,-149.57 368.933,-152.966"/>
</g>
<!-- Node4 -->
<g id="node4" class="node"><title>Node4</title>
<polygon fill="white" stroke="#bfbfbf" points="425,-0.5 425,-19.5 474,-19.5 474,-0.5 425,-0.5"/>
<text text-anchor="middle" x="449.5" y="-7.5" font-family="Helvetica,sans-Serif" font-size="10.00">stdint.h</text>
</g>
<!-- Node3&#45;&gt;Node4 -->
<g id="edge3" class="edge"><title>Node3&#45;&gt;Node4</title>
<path fill="none" stroke="midnightblue" d="M519.952,-117.585C518.726,-103.509 514.815,-75.7125 502.5,-56 494.905,-43.8435 482.952,-33.2822 472.319,-25.452"/>
<polygon fill="midnightblue" stroke="midnightblue" points="474.029,-22.3784 463.821,-19.5418 470.032,-28.1251 474.029,-22.3784"/>
</g>
<!-- Node6 -->
<g id="node6" class="node"><title>Node6</title>
<polygon fill="white" stroke="#bfbfbf" points="205.5,-0.5 205.5,-19.5 273.5,-19.5 273.5,-0.5 205.5,-0.5"/>
<text text-anchor="middle" x="239.5" y="-7.5" font-family="Helvetica,sans-Serif" font-size="10.00">sys/types.h</text>
</g>
<!-- Node5&#45;&gt;Node6 -->
<g id="edge5" class="edge"><title>Node5&#45;&gt;Node6</title>
<path fill="none" stroke="midnightblue" d="M192.623,-117.682C200.178,-107.968 212.03,-91.6415 219.5,-76 226.655,-61.0174 231.984,-42.8815 235.335,-29.5776"/>
<polygon fill="midnightblue" stroke="midnightblue" points="238.772,-30.2526 237.68,-19.7142 231.961,-28.6332 238.772,-30.2526"/>
</g>
<!-- Node7 -->
<g id="node7" class="node"><title>Node7</title>
<polygon fill="white" stroke="#bfbfbf" points="318.5,-0.5 318.5,-19.5 374.5,-19.5 374.5,-0.5 318.5,-0.5"/>
<text text-anchor="middle" x="346.5" y="-7.5" font-family="Helvetica,sans-Serif" font-size="10.00">stdbool.h</text>
</g>
<!-- Node5&#45;&gt;Node7 -->
<g id="edge6" class="edge"><title>Node5&#45;&gt;Node7</title>
<path fill="none" stroke="midnightblue" d="M197.601,-117.819C224.991,-98.1698 291.985,-50.1087 325.986,-25.7169"/>
<polygon fill="midnightblue" stroke="midnightblue" points="328.173,-28.455 334.258,-19.782 324.093,-22.7672 328.173,-28.455"/>
</g>
<!-- Node8 -->
<g id="node8" class="node"><title>Node8</title>
<polygon fill="white" stroke="#bfbfbf" points="0,-56.5 0,-75.5 59,-75.5 59,-56.5 0,-56.5"/>
<text text-anchor="middle" x="29.5" y="-63.5" font-family="Helvetica,sans-Serif" font-size="10.00">inttypes.h</text>
</g>
<!-- Node5&#45;&gt;Node8 -->
<g id="edge7" class="edge"><title>Node5&#45;&gt;Node8</title>
<path fill="none" stroke="midnightblue" d="M163.149,-117.975C136.505,-107.813 91.7857,-90.7564 61.4855,-79.1996"/>
<polygon fill="midnightblue" stroke="midnightblue" points="62.4003,-75.8026 51.8095,-75.5091 59.9057,-82.343 62.4003,-75.8026"/>
</g>
<!-- Node9 -->
<g id="node9" class="node"><title>Node9</title>
<g id="a_node9"><a xlink:href="../../d3/d2d/px4__time_8h.html" target="_top" xlink:title="px4_time.h">
<polygon fill="white" stroke="black" points="77,-56.5 77,-75.5 142,-75.5 142,-56.5 77,-56.5"/>
<text text-anchor="middle" x="109.5" y="-63.5" font-family="Helvetica,sans-Serif" font-size="10.00">px4_time.h</text>
</a>
</g>
</g>
<!-- Node5&#45;&gt;Node9 -->
<g id="edge8" class="edge"><title>Node5&#45;&gt;Node9</title>
<path fill="none" stroke="midnightblue" d="M174.611,-117.975C162.534,-108.52 142.833,-93.0961 128.26,-81.6871"/>
<polygon fill="midnightblue" stroke="midnightblue" points="130.4,-78.9177 120.369,-75.5091 126.085,-84.4295 130.4,-78.9177"/>
</g>
<!-- Node11 -->
<g id="node11" class="node"><title>Node11</title>
<polygon fill="white" stroke="#bfbfbf" points="160,-56.5 160,-75.5 211,-75.5 211,-56.5 160,-56.5"/>
<text text-anchor="middle" x="185.5" y="-63.5" font-family="Helvetica,sans-Serif" font-size="10.00">queue.h</text>
</g>
<!-- Node5&#45;&gt;Node11 -->
<g id="edge11" class="edge"><title>Node5&#45;&gt;Node11</title>
<path fill="none" stroke="midnightblue" d="M185.5,-117.975C185.5,-109.58 185.5,-96.4806 185.5,-85.6631"/>
<polygon fill="midnightblue" stroke="midnightblue" points="189,-85.5091 185.5,-75.5091 182,-85.5091 189,-85.5091"/>
</g>
<!-- Node9&#45;&gt;Node6 -->
<g id="edge9" class="edge"><title>Node9&#45;&gt;Node6</title>
<path fill="none" stroke="midnightblue" d="M130.099,-56.4435C151.493,-47.5566 185.181,-33.5632 209.524,-23.4514"/>
<polygon fill="midnightblue" stroke="midnightblue" points="211.105,-26.5848 218.997,-19.5164 208.42,-20.1203 211.105,-26.5848"/>
</g>
<!-- Node10 -->
<g id="node10" class="node"><title>Node10</title>
<polygon fill="white" stroke="#bfbfbf" points="87.5,-0.5 87.5,-19.5 131.5,-19.5 131.5,-0.5 87.5,-0.5"/>
<text text-anchor="middle" x="109.5" y="-7.5" font-family="Helvetica,sans-Serif" font-size="10.00">time.h</text>
</g>
<!-- Node9&#45;&gt;Node10 -->
<g id="edge10" class="edge"><title>Node9&#45;&gt;Node10</title>
<path fill="none" stroke="midnightblue" d="M109.5,-56.083C109.5,-49.0059 109.5,-38.8611 109.5,-29.9865"/>
<polygon fill="midnightblue" stroke="midnightblue" points="113,-29.751 109.5,-19.7511 106,-29.7511 113,-29.751"/>
</g>
<!-- Node12&#45;&gt;Node4 -->
<g id="edge14" class="edge"><title>Node12&#45;&gt;Node4</title>
<path fill="none" stroke="midnightblue" d="M449.5,-56.083C449.5,-49.0059 449.5,-38.8611 449.5,-29.9865"/>
<polygon fill="midnightblue" stroke="midnightblue" points="453,-29.751 449.5,-19.7511 446,-29.7511 453,-29.751"/>
</g>
<!-- Node12&#45;&gt;Node7 -->
<g id="edge13" class="edge"><title>Node12&#45;&gt;Node7</title>
<path fill="none" stroke="midnightblue" d="M432.951,-56.324C416.508,-47.7034 391.065,-34.3643 372.032,-24.3855"/>
<polygon fill="midnightblue" stroke="midnightblue" points="373.489,-21.198 363.008,-19.6545 370.239,-27.3977 373.489,-21.198"/>
</g>
<!-- Node13&#45;&gt;Node4 -->
<g id="edge17" class="edge"><title>Node13&#45;&gt;Node4</title>
<path fill="none" stroke="midnightblue" d="M363.049,-56.324C379.492,-47.7034 404.935,-34.3643 423.968,-24.3855"/>
<polygon fill="midnightblue" stroke="midnightblue" points="425.761,-27.3977 432.992,-19.6545 422.511,-21.198 425.761,-27.3977"/>
</g>
<!-- Node13&#45;&gt;Node6 -->
<g id="edge16" class="edge"><title>Node13&#45;&gt;Node6</title>
<path fill="none" stroke="midnightblue" d="M329.309,-56.324C312.149,-47.6641 285.554,-34.2424 265.753,-24.249"/>
<polygon fill="midnightblue" stroke="midnightblue" points="267.153,-21.0354 256.649,-19.6545 263.999,-27.2847 267.153,-21.0354"/>
</g>
<!-- Node13&#45;&gt;Node7 -->
<g id="edge18" class="edge"><title>Node13&#45;&gt;Node7</title>
<path fill="none" stroke="midnightblue" d="M346.5,-56.083C346.5,-49.0059 346.5,-38.8611 346.5,-29.9865"/>
<polygon fill="midnightblue" stroke="midnightblue" points="350,-29.751 346.5,-19.7511 343,-29.7511 350,-29.751"/>
</g>
<!-- Node14&#45;&gt;Node13 -->
<g id="edge20" class="edge"><title>Node14&#45;&gt;Node13</title>
<path fill="none" stroke="midnightblue" d="M370.916,-112.399C366.458,-104.11 360.781,-93.5542 356.023,-84.7077"/>
<polygon fill="midnightblue" stroke="midnightblue" points="358.975,-82.8071 351.156,-75.6578 352.81,-86.1227 358.975,-82.8071"/>
</g>
</g>
</svg>
