<?xml version="1.0" encoding="UTF-8" standalone="no"?>
<!DOCTYPE svg PUBLIC "-//W3C//DTD SVG 1.1//EN"
 "http://www.w3.org/Graphics/SVG/1.1/DTD/svg11.dtd">
<!-- Generated by graphviz version 2.38.0 (20140413.2041)
 -->
<!-- Title: writer_main Pages: 1 -->
<!--zoomable 426 -->
<svg id="main" version="1.1" xmlns="http://www.w3.org/2000/svg" xmlns:xlink="http://www.w3.org/1999/xlink" xml:space="preserve" onload="init(evt)">
<style type="text/css"><![CDATA[
.edge:hover path { stroke: red; }
.edge:hover polygon { stroke: red; fill: red; }
]]></style>
<script type="text/javascript"><![CDATA[
var edges = document.getElementsByTagName('g');
if (edges && edges.length) {
  for (var i=0;i<edges.length;i++) {
    if (edges[i].id.substr(0,4)=='edge') {
      edges[i].setAttribute('class','edge');
    }
  }
}
]]></script>
        <defs>
                <circle id="rim" cx="0" cy="0" r="7"/>
                <circle id="rim2" cx="0" cy="0" r="3.5"/>
                <g id="zoomPlus">
                        <use xlink:href="#rim" fill="#404040">
                                <set attributeName="fill" to="#808080" begin="zoomplus.mouseover" end="zoomplus.mouseout"/>
                        </use>
                        <path d="M-4,0h8M0,-4v8" fill="none" stroke="white" stroke-width="1.5" pointer-events="none"/>
                </g>
                <g id="zoomMin">
                        <use xlink:href="#rim" fill="#404040">
                                <set attributeName="fill" to="#808080" begin="zoomminus.mouseover" end="zoomminus.mouseout"/>
                        </use>
                        <path d="M-4,0h8" fill="none" stroke="white" stroke-width="1.5" pointer-events="none"/>
                </g>
                <g id="dirArrow">
                        <path fill="none" stroke="white" stroke-width="1.5" d="M0,-3.0v7 M-2.5,-0.5L0,-3.0L2.5,-0.5"/>
                </g>
               <g id="resetDef">
                       <use xlink:href="#rim2" fill="#404040">
                               <set attributeName="fill" to="#808080" begin="reset.mouseover" end="reset.mouseout"/>
                       </use>
               </g>
        </defs>

<script type="text/javascript">
var viewWidth = 633;
var viewHeight = 426;
var sectionId = 'dynsection-3';
</script>
<script xlink:href="../../svgpan.js"/>
<svg id="graph" class="graph">
<g id="viewport">
<title>writer_main</title>
<polygon fill="white" stroke="none" points="-4,4 -4,-422.479 629,-422.479 629,4 -4,4"/>
<!-- Node1 -->
<g id="node1" class="node"><title>Node1</title>
<polygon fill="#bfbfbf" stroke="black" points="0,-203.979 0,-222.979 67,-222.979 67,-203.979 0,-203.979"/>
<text text-anchor="middle" x="33.5" y="-210.979" font-family="Helvetica,sans-Serif" font-size="10.00">writer_main</text>
</g>
<!-- Node2 -->
<g id="node2" class="node"><title>Node2</title>
<g id="a_node2"><a xlink:href="../../da/dc9/posix_2cdev__platform_8cpp.html#a050ecef08105582119cf1adf517a9c06" target="_top" xlink:title="px4_close">
<polygon fill="white" stroke="black" points="228.5,-284.979 228.5,-303.979 289.5,-303.979 289.5,-284.979 228.5,-284.979"/>
<text text-anchor="middle" x="259" y="-291.979" font-family="Helvetica,sans-Serif" font-size="10.00">px4_close</text>
</a>
</g>
</g>
<!-- Node1&#45;&gt;Node2 -->
<g id="edge1" class="edge"><title>Node1&#45;&gt;Node2</title>
<path fill="none" stroke="midnightblue" d="M61.0161,-223.089C101.006,-237.582 176.849,-265.069 221.863,-281.383"/>
<polygon fill="midnightblue" stroke="midnightblue" points="220.924,-284.765 231.518,-284.882 223.309,-278.184 220.924,-284.765"/>
</g>
<!-- Node10 -->
<g id="node10" class="node"><title>Node10</title>
<g id="a_node10"><a xlink:href="../../da/dc9/posix_2cdev__platform_8cpp.html#ae90495d7ed25116c6e19cd9163d8ed02" target="_top" xlink:title="px4_open">
<polygon fill="white" stroke="black" points="103,-156.979 103,-175.979 162,-175.979 162,-156.979 103,-156.979"/>
<text text-anchor="middle" x="132.5" y="-163.979" font-family="Helvetica,sans-Serif" font-size="10.00">px4_open</text>
</a>
</g>
</g>
<!-- Node1&#45;&gt;Node10 -->
<g id="edge11" class="edge"><title>Node1&#45;&gt;Node10</title>
<path fill="none" stroke="midnightblue" d="M54.1294,-203.968C67.9743,-197.26 86.7541,-188.16 102.344,-180.606"/>
<polygon fill="midnightblue" stroke="midnightblue" points="104.094,-183.648 111.567,-176.138 101.041,-177.349 104.094,-183.648"/>
</g>
<!-- Node18 -->
<g id="node18" class="node"><title>Node18</title>
<g id="a_node18"><a xlink:href="../../da/dc9/posix_2cdev__platform_8cpp.html#a878b6d068f7a5b5237fdd844fa47acc8" target="_top" xlink:title="px4_write">
<polygon fill="white" stroke="black" points="229.5,-203.979 229.5,-222.979 288.5,-222.979 288.5,-203.979 229.5,-203.979"/>
<text text-anchor="middle" x="259" y="-210.979" font-family="Helvetica,sans-Serif" font-size="10.00">px4_write</text>
</a>
</g>
</g>
<!-- Node1&#45;&gt;Node18 -->
<g id="edge27" class="edge"><title>Node1&#45;&gt;Node18</title>
<path fill="none" stroke="midnightblue" d="M67.4782,-213.479C107.974,-213.479 176.55,-213.479 219.443,-213.479"/>
<polygon fill="midnightblue" stroke="midnightblue" points="219.499,-216.98 229.499,-213.479 219.498,-209.98 219.499,-216.98"/>
</g>
<!-- Node3 -->
<g id="node3" class="node"><title>Node3</title>
<g id="a_node3"><a xlink:href="../../db/dcf/classdevice_1_1_c_dev.html#aa4b6921cbd58b12e005fa5656f0fe546" target="_top" xlink:title="Handle a close of the device. ">
<polygon fill="white" stroke="black" points="356,-360.979 356,-379.979 462,-379.979 462,-360.979 356,-360.979"/>
<text text-anchor="middle" x="409" y="-367.979" font-family="Helvetica,sans-Serif" font-size="10.00">device::CDev::close</text>
</a>
</g>
</g>
<!-- Node2&#45;&gt;Node3 -->
<g id="edge2" class="edge"><title>Node2&#45;&gt;Node3</title>
<path fill="none" stroke="midnightblue" d="M274.177,-304.036C292.514,-316.127 325.705,-337.104 356,-351.479 360.331,-353.535 364.948,-355.51 369.575,-357.359"/>
<polygon fill="midnightblue" stroke="midnightblue" points="368.409,-360.66 379,-360.961 370.909,-354.122 368.409,-360.66"/>
</g>
<!-- Node7 -->
<g id="node7" class="node"><title>Node7</title>
<g id="a_node7"><a xlink:href="../../da/dc9/posix_2cdev__platform_8cpp.html#a06fbe4d696a8fc67079810478882f8b9" target="_top" xlink:title="get_vdev">
<polygon fill="white" stroke="black" points="381,-208.979 381,-227.979 437,-227.979 437,-208.979 381,-208.979"/>
<text text-anchor="middle" x="409" y="-215.979" font-family="Helvetica,sans-Serif" font-size="10.00">get_vdev</text>
</a>
</g>
</g>
<!-- Node2&#45;&gt;Node7 -->
<g id="edge6" class="edge"><title>Node2&#45;&gt;Node7</title>
<path fill="none" stroke="midnightblue" d="M278.744,-284.854C304.433,-271.663 350.761,-247.873 380.414,-232.645"/>
<polygon fill="midnightblue" stroke="midnightblue" points="382.111,-235.708 389.408,-228.027 378.913,-229.481 382.111,-235.708"/>
</g>
<!-- Node8 -->
<g id="node8" class="node"><title>Node8</title>
<g id="a_node8"><a xlink:href="../../d6/dfb/stubs__posix_8c.html#a12809c44718c21544ceb280dc1a53573" target="_top" xlink:title="pthread_mutex_lock">
<polygon fill="white" stroke="black" points="509.5,-94.9794 509.5,-113.979 613.5,-113.979 613.5,-94.9794 509.5,-94.9794"/>
<text text-anchor="middle" x="561.5" y="-101.979" font-family="Helvetica,sans-Serif" font-size="10.00">pthread_mutex_lock</text>
</a>
</g>
</g>
<!-- Node2&#45;&gt;Node8 -->
<g id="edge9" class="edge"><title>Node2&#45;&gt;Node8</title>
<path fill="none" stroke="midnightblue" d="M269.346,-284.765C291.466,-261.842 345.932,-205.822 356,-199.479 398.344,-172.802 416.601,-182.543 462,-161.479 488.767,-149.061 517.826,-131.732 537.394,-119.449"/>
<polygon fill="midnightblue" stroke="midnightblue" points="539.361,-122.346 545.929,-114.033 535.611,-116.436 539.361,-122.346"/>
</g>
<!-- Node9 -->
<g id="node9" class="node"><title>Node9</title>
<g id="a_node9"><a xlink:href="../../d6/dfb/stubs__posix_8c.html#a96184290ffb60e04c53a52869cf960a2" target="_top" xlink:title="pthread_mutex_unlock">
<polygon fill="white" stroke="black" points="504,-208.979 504,-227.979 619,-227.979 619,-208.979 504,-208.979"/>
<text text-anchor="middle" x="561.5" y="-215.979" font-family="Helvetica,sans-Serif" font-size="10.00">pthread_mutex_unlock</text>
</a>
</g>
</g>
<!-- Node2&#45;&gt;Node9 -->
<g id="edge10" class="edge"><title>Node2&#45;&gt;Node9</title>
<path fill="none" stroke="midnightblue" d="M289.806,-294.321C329.85,-293.352 402.825,-288.914 462,-270.479 489.607,-261.879 518.569,-245.585 537.885,-233.518"/>
<polygon fill="midnightblue" stroke="midnightblue" points="540.001,-236.32 546.544,-227.987 536.232,-230.421 540.001,-236.32"/>
</g>
<!-- Node4 -->
<g id="node4" class="node"><title>Node4</title>
<g id="a_node4"><a xlink:href="../../db/dcf/classdevice_1_1_c_dev.html#a532f13f26f056bd17931efe7db10260e" target="_top" xlink:title="Take the driver lock. ">
<polygon fill="white" stroke="black" points="511,-322.979 511,-341.979 612,-341.979 612,-322.979 511,-322.979"/>
<text text-anchor="middle" x="561.5" y="-329.979" font-family="Helvetica,sans-Serif" font-size="10.00">device::CDev::lock</text>
</a>
</g>
</g>
<!-- Node3&#45;&gt;Node4 -->
<g id="edge3" class="edge"><title>Node3&#45;&gt;Node4</title>
<path fill="none" stroke="midnightblue" d="M447.978,-360.89C467.659,-355.921 491.891,-349.803 512.821,-344.518"/>
<polygon fill="midnightblue" stroke="midnightblue" points="513.957,-347.841 522.796,-341.999 512.243,-341.054 513.957,-347.841"/>
</g>
<!-- Node5 -->
<g id="node5" class="node"><title>Node5</title>
<g id="a_node5"><a xlink:href="../../db/dcf/classdevice_1_1_c_dev.html#aa941581fcab66cff1a3403233e5569ad" target="_top" xlink:title="Notification of the last close. ">
<polygon fill="white" stroke="black" points="498,-398.979 498,-417.979 625,-417.979 625,-398.979 498,-398.979"/>
<text text-anchor="middle" x="561.5" y="-405.979" font-family="Helvetica,sans-Serif" font-size="10.00">device::CDev::close_last</text>
</a>
</g>
</g>
<!-- Node3&#45;&gt;Node5 -->
<g id="edge4" class="edge"><title>Node3&#45;&gt;Node5</title>
<path fill="none" stroke="midnightblue" d="M447.978,-380.068C467.659,-385.038 491.891,-391.156 512.821,-396.441"/>
<polygon fill="midnightblue" stroke="midnightblue" points="512.243,-399.905 522.796,-398.959 513.957,-393.118 512.243,-399.905"/>
</g>
<!-- Node6 -->
<g id="node6" class="node"><title>Node6</title>
<g id="a_node6"><a xlink:href="../../db/dcf/classdevice_1_1_c_dev.html#af34c341f89cc744e2f327ec01ed5e4dd" target="_top" xlink:title="Release the driver lock. ">
<polygon fill="white" stroke="black" points="506,-360.979 506,-379.979 617,-379.979 617,-360.979 506,-360.979"/>
<text text-anchor="middle" x="561.5" y="-367.979" font-family="Helvetica,sans-Serif" font-size="10.00">device::CDev::unlock</text>
</a>
</g>
</g>
<!-- Node3&#45;&gt;Node6 -->
<g id="edge5" class="edge"><title>Node3&#45;&gt;Node6</title>
<path fill="none" stroke="midnightblue" d="M462.215,-370.479C473.005,-370.479 484.495,-370.479 495.671,-370.479"/>
<polygon fill="midnightblue" stroke="midnightblue" points="495.819,-373.98 505.819,-370.479 495.818,-366.98 495.819,-373.98"/>
</g>
<!-- Node7&#45;&gt;Node8 -->
<g id="edge7" class="edge"><title>Node7&#45;&gt;Node8</title>
<path fill="none" stroke="midnightblue" d="M434.642,-208.966C443.581,-205.041 453.552,-200.091 462,-194.479 494.246,-173.058 526.369,-141.249 544.787,-121.744"/>
<polygon fill="midnightblue" stroke="midnightblue" points="547.553,-123.91 551.802,-114.205 542.428,-119.142 547.553,-123.91"/>
</g>
<!-- Node7&#45;&gt;Node9 -->
<g id="edge8" class="edge"><title>Node7&#45;&gt;Node9</title>
<path fill="none" stroke="midnightblue" d="M437.254,-218.479C453.124,-218.479 473.882,-218.479 493.825,-218.479"/>
<polygon fill="midnightblue" stroke="midnightblue" points="493.836,-221.98 503.836,-218.479 493.836,-214.98 493.836,-221.98"/>
</g>
<!-- Node10&#45;&gt;Node8 -->
<g id="edge24" class="edge"><title>Node10&#45;&gt;Node8</title>
<path fill="none" stroke="midnightblue" d="M135.874,-156.689C141.96,-133.771 160.357,-76.3978 198,-47.4794 255.275,-3.47953 284.278,-17.983 356,-9.47944 402.783,-3.93267 418.314,8.15487 462,-9.47944 500.339,-24.9554 532.071,-63.2904 548.462,-86.2547"/>
<polygon fill="midnightblue" stroke="midnightblue" points="545.779,-88.5296 554.34,-94.7714 551.54,-84.5532 545.779,-88.5296"/>
</g>
<!-- Node10&#45;&gt;Node9 -->
<g id="edge25" class="edge"><title>Node10&#45;&gt;Node9</title>
<path fill="none" stroke="midnightblue" d="M139.532,-176.389C149.5,-191.709 171.014,-220.613 198,-232.479 306.58,-280.223 451.591,-250.142 520.666,-230.904"/>
<polygon fill="midnightblue" stroke="midnightblue" points="522.035,-234.153 530.688,-228.039 520.111,-227.423 522.035,-234.153"/>
</g>
<!-- Node11 -->
<g id="node11" class="node"><title>Node11</title>
<g id="a_node11"><a xlink:href="../../db/d23/classdevice_1_1_v_file.html#a4d78fe75720f556099ae1d7fb6d8a411" target="_top" xlink:title="device::VFile::createFile">
<polygon fill="white" stroke="black" points="198,-56.9794 198,-75.9794 320,-75.9794 320,-56.9794 198,-56.9794"/>
<text text-anchor="middle" x="259" y="-63.9794" font-family="Helvetica,sans-Serif" font-size="10.00">device::VFile::createFile</text>
</a>
</g>
</g>
<!-- Node10&#45;&gt;Node11 -->
<g id="edge12" class="edge"><title>Node10&#45;&gt;Node11</title>
<path fill="none" stroke="midnightblue" d="M140.467,-156.66C151.364,-141.854 173.721,-113.623 198,-95.4794 205.759,-89.6812 214.86,-84.5739 223.595,-80.3257"/>
<polygon fill="midnightblue" stroke="midnightblue" points="225.232,-83.425 232.85,-76.0611 222.303,-77.0675 225.232,-83.425"/>
</g>
<!-- Node14 -->
<g id="node14" class="node"><title>Node14</title>
<g id="a_node14"><a xlink:href="../../da/dc9/posix_2cdev__platform_8cpp.html#a7297cb261d3e818a0cdc23ccdc7a1251" target="_top" xlink:title="getDev">
<polygon fill="white" stroke="black" points="385,-94.9794 385,-113.979 433,-113.979 433,-94.9794 385,-94.9794"/>
<text text-anchor="middle" x="409" y="-101.979" font-family="Helvetica,sans-Serif" font-size="10.00">getDev</text>
</a>
</g>
</g>
<!-- Node10&#45;&gt;Node14 -->
<g id="edge17" class="edge"><title>Node10&#45;&gt;Node14</title>
<path fill="none" stroke="midnightblue" d="M162.255,-157.444C173.366,-154.101 186.22,-150.415 198,-147.479 260.085,-132.008 333.497,-117.923 375.019,-110.34"/>
<polygon fill="midnightblue" stroke="midnightblue" points="375.646,-113.784 384.862,-108.556 374.398,-106.896 375.646,-113.784"/>
</g>
<!-- Node15 -->
<g id="node15" class="node"><title>Node15</title>
<g id="a_node15"><a xlink:href="../../db/dcf/classdevice_1_1_c_dev.html#a398ee881e4eb691f7622e8f2e6da7863" target="_top" xlink:title="Handle an open of the device. ">
<polygon fill="white" stroke="black" points="357,-322.979 357,-341.979 461,-341.979 461,-322.979 357,-322.979"/>
<text text-anchor="middle" x="409" y="-329.979" font-family="Helvetica,sans-Serif" font-size="10.00">device::CDev::open</text>
</a>
</g>
</g>
<!-- Node10&#45;&gt;Node15 -->
<g id="edge20" class="edge"><title>Node10&#45;&gt;Node15</title>
<path fill="none" stroke="midnightblue" d="M134.443,-176.084C137.65,-203.009 150.722,-279.457 198,-313.479 240.679,-344.192 301.576,-346.422 346.811,-342.462"/>
<polygon fill="midnightblue" stroke="midnightblue" points="347.188,-345.942 356.791,-341.467 346.493,-338.977 347.188,-345.942"/>
</g>
<!-- Node17 -->
<g id="node17" class="node"><title>Node17</title>
<g id="a_node17"><a xlink:href="../../d6/dfb/stubs__posix_8c.html#a4c4f5f3b4f8f45d9d897847d53b11aaa" target="_top" xlink:title="pthread_self">
<polygon fill="white" stroke="black" points="224,-156.979 224,-175.979 294,-175.979 294,-156.979 224,-156.979"/>
<text text-anchor="middle" x="259" y="-163.979" font-family="Helvetica,sans-Serif" font-size="10.00">pthread_self</text>
</a>
</g>
</g>
<!-- Node10&#45;&gt;Node17 -->
<g id="edge26" class="edge"><title>Node10&#45;&gt;Node17</title>
<path fill="none" stroke="midnightblue" d="M162.063,-166.479C177.282,-166.479 196.346,-166.479 213.462,-166.479"/>
<polygon fill="midnightblue" stroke="midnightblue" points="213.815,-169.98 223.815,-166.479 213.815,-162.98 213.815,-169.98"/>
</g>
<!-- Node12 -->
<g id="node12" class="node"><title>Node12</title>
<g id="a_node12"><a xlink:href="../../db/d23/classdevice_1_1_v_file.html#aace17999d47eb6b7553472a61bf71490" target="_top" xlink:title="device::VFile::VFile">
<polygon fill="white" stroke="black" points="358,-18.9794 358,-37.9794 460,-37.9794 460,-18.9794 358,-18.9794"/>
<text text-anchor="middle" x="409" y="-25.9794" font-family="Helvetica,sans-Serif" font-size="10.00">device::VFile::VFile</text>
</a>
</g>
</g>
<!-- Node11&#45;&gt;Node12 -->
<g id="edge13" class="edge"><title>Node11&#45;&gt;Node12</title>
<path fill="none" stroke="midnightblue" d="M297.347,-56.8904C316.701,-51.9211 340.53,-45.8027 361.113,-40.5181"/>
<polygon fill="midnightblue" stroke="midnightblue" points="362.107,-43.8765 370.922,-37.9995 360.366,-37.0964 362.107,-43.8765"/>
</g>
<!-- Node13 -->
<g id="node13" class="node"><title>Node13</title>
<g id="a_node13"><a xlink:href="../../da/dc9/posix_2cdev__platform_8cpp.html#a4c69ea88a27571245bd4dc9c06a3d18b" target="_top" xlink:title="register_driver">
<polygon fill="white" stroke="black" points="370,-56.9794 370,-75.9794 448,-75.9794 448,-56.9794 370,-56.9794"/>
<text text-anchor="middle" x="409" y="-63.9794" font-family="Helvetica,sans-Serif" font-size="10.00">register_driver</text>
</a>
</g>
</g>
<!-- Node11&#45;&gt;Node13 -->
<g id="edge14" class="edge"><title>Node11&#45;&gt;Node13</title>
<path fill="none" stroke="midnightblue" d="M320.197,-66.4794C333.327,-66.4794 347.058,-66.4794 359.656,-66.4794"/>
<polygon fill="midnightblue" stroke="midnightblue" points="359.934,-69.9795 369.934,-66.4794 359.934,-62.9795 359.934,-69.9795"/>
</g>
<!-- Node13&#45;&gt;Node8 -->
<g id="edge15" class="edge"><title>Node13&#45;&gt;Node8</title>
<path fill="none" stroke="midnightblue" d="M447.978,-76.0684C467.659,-81.0378 491.891,-87.1562 512.821,-92.4408"/>
<polygon fill="midnightblue" stroke="midnightblue" points="512.243,-95.9047 522.796,-94.9594 513.957,-89.1177 512.243,-95.9047"/>
</g>
<!-- Node13&#45;&gt;Node9 -->
<g id="edge16" class="edge"><title>Node13&#45;&gt;Node9</title>
<path fill="none" stroke="midnightblue" d="M445.016,-76.0662C451.001,-78.5794 456.919,-81.6818 462,-85.4794 483.995,-101.918 528.053,-167.948 548.969,-200.355"/>
<polygon fill="midnightblue" stroke="midnightblue" points="546.098,-202.362 554.443,-208.889 551.99,-198.582 546.098,-202.362"/>
</g>
<!-- Node14&#45;&gt;Node8 -->
<g id="edge18" class="edge"><title>Node14&#45;&gt;Node8</title>
<path fill="none" stroke="midnightblue" d="M433.186,-104.479C450.783,-104.479 475.831,-104.479 499.06,-104.479"/>
<polygon fill="midnightblue" stroke="midnightblue" points="499.223,-107.98 509.223,-104.479 499.223,-100.98 499.223,-107.98"/>
</g>
<!-- Node14&#45;&gt;Node9 -->
<g id="edge19" class="edge"><title>Node14&#45;&gt;Node9</title>
<path fill="none" stroke="midnightblue" d="M433.219,-110.67C442.568,-113.734 453.199,-117.976 462,-123.479 496.348,-144.957 528.637,-179.968 546.373,-200.957"/>
<polygon fill="midnightblue" stroke="midnightblue" points="543.766,-203.296 552.843,-208.762 549.156,-198.829 543.766,-203.296"/>
</g>
<!-- Node15&#45;&gt;Node4 -->
<g id="edge21" class="edge"><title>Node15&#45;&gt;Node4</title>
<path fill="none" stroke="midnightblue" d="M461.373,-332.479C474.005,-332.479 487.638,-332.479 500.632,-332.479"/>
<polygon fill="midnightblue" stroke="midnightblue" points="500.885,-335.98 510.885,-332.479 500.885,-328.98 500.885,-335.98"/>
</g>
<!-- Node15&#45;&gt;Node6 -->
<g id="edge23" class="edge"><title>Node15&#45;&gt;Node6</title>
<path fill="none" stroke="midnightblue" d="M447.978,-342.068C467.659,-347.038 491.891,-353.156 512.821,-358.441"/>
<polygon fill="midnightblue" stroke="midnightblue" points="512.243,-361.905 522.796,-360.959 513.957,-355.118 512.243,-361.905"/>
</g>
<!-- Node16 -->
<g id="node16" class="node"><title>Node16</title>
<g id="a_node16"><a xlink:href="../../db/dcf/classdevice_1_1_c_dev.html#a7a6a99908a6b433e554ad9cb532f30da" target="_top" xlink:title="Notification of the first open. ">
<polygon fill="white" stroke="black" points="509.5,-273.479 509.5,-303.479 613.5,-303.479 613.5,-273.479 509.5,-273.479"/>
<text text-anchor="start" x="517.5" y="-291.479" font-family="Helvetica,sans-Serif" font-size="10.00">device::CDev::open</text>
<text text-anchor="middle" x="561.5" y="-280.479" font-family="Helvetica,sans-Serif" font-size="10.00">_first</text>
</a>
</g>
</g>
<!-- Node15&#45;&gt;Node16 -->
<g id="edge22" class="edge"><title>Node15&#45;&gt;Node16</title>
<path fill="none" stroke="midnightblue" d="M442.656,-322.932C459.297,-318.067 480.08,-311.991 499.54,-306.302"/>
<polygon fill="midnightblue" stroke="midnightblue" points="500.648,-309.624 509.264,-303.459 498.683,-302.906 500.648,-309.624"/>
</g>
<!-- Node18&#45;&gt;Node7 -->
<g id="edge28" class="edge"><title>Node18&#45;&gt;Node7</title>
<path fill="none" stroke="midnightblue" d="M288.536,-214.443C311.865,-215.232 345.037,-216.352 370.509,-217.213"/>
<polygon fill="midnightblue" stroke="midnightblue" points="370.44,-220.712 380.552,-217.552 370.676,-213.716 370.44,-220.712"/>
</g>
<!-- Node19 -->
<g id="node19" class="node"><title>Node19</title>
<g id="a_node19"><a xlink:href="../../db/dcf/classdevice_1_1_c_dev.html#a082bca749e995839a2fe025bc165f8a3" target="_top" xlink:title="Perform a write to the device. ">
<polygon fill="white" stroke="black" points="357,-132.979 357,-151.979 461,-151.979 461,-132.979 357,-132.979"/>
<text text-anchor="middle" x="409" y="-139.979" font-family="Helvetica,sans-Serif" font-size="10.00">device::CDev::write</text>
</a>
</g>
</g>
<!-- Node18&#45;&gt;Node19 -->
<g id="edge29" class="edge"><title>Node18&#45;&gt;Node19</title>
<path fill="none" stroke="midnightblue" d="M281.224,-203.882C292.759,-198.589 307.235,-191.822 320,-185.479 336.202,-177.429 339.781,-174.495 356,-166.479 362.864,-163.087 370.303,-159.564 377.35,-156.296"/>
<polygon fill="midnightblue" stroke="midnightblue" points="379.001,-159.39 386.627,-152.034 376.079,-153.029 379.001,-159.39"/>
</g>
</g>
</svg>
        <g id="navigator" transform="translate(0 0)" fill="#404254">
                <rect fill="#f2f5e9" fill-opacity="0.5" stroke="#606060" stroke-width=".5" x="0" y="0" width="60" height="60"/>
                <use id="zoomplus" xlink:href="#zoomPlus" x="17" y="9" onmousedown="handleZoom(evt,'in')"/>
                <use id="zoomminus" xlink:href="#zoomMin" x="42" y="9" onmousedown="handleZoom(evt,'out')"/>
                <use id="reset" xlink:href="#resetDef" x="30" y="36" onmousedown="handleReset()"/>
                <g id="arrowUp" xlink:href="#dirArrow" transform="translate(30 24)" onmousedown="handlePan(0,-1)">
                  <use xlink:href="#rim" fill="#404040">
                        <set attributeName="fill" to="#808080" begin="arrowUp.mouseover" end="arrowUp.mouseout"/>
                  </use>
                  <path fill="none" stroke="white" stroke-width="1.5" d="M0,-3.0v7 M-2.5,-0.5L0,-3.0L2.5,-0.5"/>
                </g>
                <g id="arrowRight" xlink:href="#dirArrow" transform="rotate(90) translate(36 -43)" onmousedown="handlePan(1,0)">
                  <use xlink:href="#rim" fill="#404040">
                        <set attributeName="fill" to="#808080" begin="arrowRight.mouseover" end="arrowRight.mouseout"/>
                  </use>
                  <path fill="none" stroke="white" stroke-width="1.5" d="M0,-3.0v7 M-2.5,-0.5L0,-3.0L2.5,-0.5"/>
                </g>
                <g id="arrowDown" xlink:href="#dirArrow" transform="rotate(180) translate(-30 -48)" onmousedown="handlePan(0,1)">
                  <use xlink:href="#rim" fill="#404040">
                        <set attributeName="fill" to="#808080" begin="arrowDown.mouseover" end="arrowDown.mouseout"/>
                  </use>
                  <path fill="none" stroke="white" stroke-width="1.5" d="M0,-3.0v7 M-2.5,-0.5L0,-3.0L2.5,-0.5"/>
                </g>
                <g id="arrowLeft" xlink:href="#dirArrow" transform="rotate(270) translate(-36 17)" onmousedown="handlePan(-1,0)">
                  <use xlink:href="#rim" fill="#404040">
                        <set attributeName="fill" to="#808080" begin="arrowLeft.mouseover" end="arrowLeft.mouseout"/>
                  </use>
                  <path fill="none" stroke="white" stroke-width="1.5" d="M0,-3.0v7 M-2.5,-0.5L0,-3.0L2.5,-0.5"/>
                </g>
        </g>
        <svg viewBox="0 0 15 15" width="100%" height="30px" preserveAspectRatio="xMaxYMin meet">
         <g id="arrow_out" transform="scale(0.3 0.3)">
          <a xlink:href="vcdevtest__example_8cpp_adb907661d8bb50dceeafeacfbc90f940_cgraph_org.svg" target="_base">
           <rect id="button" ry="5" rx="5" y="6" x="6" height="38" width="38"
                fill="#f2f5e9" fill-opacity="0.5" stroke="#606060" stroke-width="1.0"/>
           <path id="arrow"
             d="M 11.500037,31.436501 C 11.940474,20.09759 22.043105,11.32322 32.158766,21.979434 L 37.068811,17.246167 C 37.068811,17.246167 37.088388,32 37.088388,32 L 22.160133,31.978069 C 22.160133,31.978069 26.997745,27.140456 26.997745,27.140456 C 18.528582,18.264221 13.291696,25.230495 11.500037,31.436501 z"
             style="fill:#404040;"/>
          </a>
         </g>
        </svg>
</svg>
