<?xml version="1.0" encoding="UTF-8" standalone="no"?>
<!DOCTYPE svg PUBLIC "-//W3C//DTD SVG 1.1//EN"
 "http://www.w3.org/Graphics/SVG/1.1/DTD/svg11.dtd">
<!-- Generated by graphviz version 2.40.1 (20161225.0304)
 -->
<!-- Title: src/lib/matrix/test/pseudoInverse.cpp Pages: 1 -->
<!--zoomable 263 -->
<svg id="main" version="1.1" xmlns="http://www.w3.org/2000/svg" xmlns:xlink="http://www.w3.org/1999/xlink" xml:space="preserve" onload="init(evt)">
<style type="text/css"><![CDATA[
.edge:hover path { stroke: red; }
.edge:hover polygon { stroke: red; fill: red; }
]]></style>
<script type="text/javascript"><![CDATA[
var edges = document.getElementsByTagName('g');
if (edges && edges.length) {
  for (var i=0;i<edges.length;i++) {
    if (edges[i].id.substr(0,4)=='edge') {
      edges[i].setAttribute('class','edge');
    }
  }
}
]]></script>
        <defs>
                <circle id="rim" cx="0" cy="0" r="7"/>
                <circle id="rim2" cx="0" cy="0" r="3.5"/>
                <g id="zoomPlus">
                        <use xlink:href="#rim" fill="#404040">
                                <set attributeName="fill" to="#808080" begin="zoomplus.mouseover" end="zoomplus.mouseout"/>
                        </use>
                        <path d="M-4,0h8M0,-4v8" fill="none" stroke="white" stroke-width="1.5" pointer-events="none"/>
                </g>
                <g id="zoomMin">
                        <use xlink:href="#rim" fill="#404040">
                                <set attributeName="fill" to="#808080" begin="zoomminus.mouseover" end="zoomminus.mouseout"/>
                        </use>
                        <path d="M-4,0h8" fill="none" stroke="white" stroke-width="1.5" pointer-events="none"/>
                </g>
                <g id="dirArrow">
                        <path fill="none" stroke="white" stroke-width="1.5" d="M0,-3.0v7 M-2.5,-0.5L0,-3.0L2.5,-0.5"/>
                </g>
               <g id="resetDef">
                       <use xlink:href="#rim2" fill="#404040">
                               <set attributeName="fill" to="#808080" begin="reset.mouseover" end="reset.mouseout"/>
                       </use>
               </g>
        </defs>

<script type="text/javascript">
var viewWidth = 1548;
var viewHeight = 263;
var sectionId = 'dynsection-0';
</script>
<script xlink:href="../../svgpan.js"/>
<svg id="graph" class="graph">
<g id="viewport">
<title>src/lib/matrix/test/pseudoInverse.cpp</title>
<polygon fill="#ffffff" stroke="transparent" points="-4,4 -4,-259 1543.5,-259 1543.5,4 -4,4"/>
<!-- Node0 -->
<g id="node1" class="node">
<title>Node0</title>
<polygon fill="#bfbfbf" stroke="#000000" points="719,-224.5 719,-254.5 821,-254.5 821,-224.5 719,-224.5"/>
<text text-anchor="start" x="727" y="-242.5" font-family="Helvetica,sans-Serif" font-size="10.00" fill="#000000">src/lib/matrix/test</text>
<text text-anchor="middle" x="770" y="-231.5" font-family="Helvetica,sans-Serif" font-size="10.00" fill="#000000">/pseudoInverse.cpp</text>
</g>
<!-- Node1 -->
<g id="node2" class="node">
<title>Node1</title>
<g id="a_node2"><a xlink:href="../../dc/d47/test__macros_8hpp.html" target="_top" xlink:title="test_macros.hpp">
<polygon fill="#ffffff" stroke="#000000" points="1296.5,-56.5 1296.5,-75.5 1385.5,-75.5 1385.5,-56.5 1296.5,-56.5"/>
<text text-anchor="middle" x="1341" y="-63.5" font-family="Helvetica,sans-Serif" font-size="10.00" fill="#000000">test_macros.hpp</text>
</a>
</g>
</g>
<!-- Node0&#45;&gt;Node1 -->
<g id="edge1" class="edge">
<title>Node0&#45;&gt;Node1</title>
<path fill="none" stroke="#191970" d="M819.6736,-224.4065C930.7473,-190.6565 1197.475,-109.6105 1299.9445,-78.4748"/>
<polygon fill="#191970" stroke="#191970" points="1301.0724,-81.7902 1309.6229,-75.534 1299.0373,-75.0926 1301.0724,-81.7902"/>
</g>
<!-- Node4 -->
<g id="node5" class="node">
<title>Node4</title>
<g id="a_node5"><a xlink:href="../../d0/d67/_pseudo_inverse_8hpp.html" target="_top" xlink:title="Implementation of matrix pseudo inverse. ">
<polygon fill="#ffffff" stroke="#000000" points="657.5,-168.5 657.5,-187.5 788.5,-187.5 788.5,-168.5 657.5,-168.5"/>
<text text-anchor="middle" x="723" y="-175.5" font-family="Helvetica,sans-Serif" font-size="10.00" fill="#000000">matrix/PseudoInverse.hpp</text>
</a>
</g>
</g>
<!-- Node0&#45;&gt;Node4 -->
<g id="edge4" class="edge">
<title>Node0&#45;&gt;Node4</title>
<path fill="none" stroke="#191970" d="M758.382,-224.2977C751.79,-215.672 743.5052,-204.8312 736.6099,-195.8087"/>
<polygon fill="#191970" stroke="#191970" points="739.3783,-193.6671 730.5253,-187.8469 733.8165,-197.9176 739.3783,-193.6671"/>
</g>
<!-- Node2 -->
<g id="node3" class="node">
<title>Node2</title>
<polygon fill="#ffffff" stroke="#bfbfbf" points="677.5,-.5 677.5,-19.5 720.5,-19.5 720.5,-.5 677.5,-.5"/>
<text text-anchor="middle" x="699" y="-7.5" font-family="Helvetica,sans-Serif" font-size="10.00" fill="#000000">cstdio</text>
</g>
<!-- Node1&#45;&gt;Node2 -->
<g id="edge2" class="edge">
<title>Node1&#45;&gt;Node2</title>
<path fill="none" stroke="#191970" d="M1296.2684,-57.3422C1293.1375,-56.8515 1290.025,-56.3973 1287,-56 1075.7588,-28.2558 819.4637,-15.2233 730.9006,-11.3159"/>
<polygon fill="#191970" stroke="#191970" points="730.852,-7.8106 720.7098,-10.8742 730.5488,-14.8041 730.852,-7.8106"/>
</g>
<!-- Node3 -->
<g id="node4" class="node">
<title>Node3</title>
<polygon fill="#ffffff" stroke="#bfbfbf" points="1331,-.5 1331,-19.5 1375,-19.5 1375,-.5 1331,-.5"/>
<text text-anchor="middle" x="1353" y="-7.5" font-family="Helvetica,sans-Serif" font-size="10.00" fill="#000000">cmath</text>
</g>
<!-- Node1&#45;&gt;Node3 -->
<g id="edge3" class="edge">
<title>Node1&#45;&gt;Node3</title>
<path fill="none" stroke="#191970" d="M1343.0902,-56.2455C1344.6561,-48.9382 1346.8512,-38.6944 1348.7776,-29.7046"/>
<polygon fill="#191970" stroke="#191970" points="1352.2607,-30.1541 1350.9337,-19.6427 1345.416,-28.6873 1352.2607,-30.1541"/>
</g>
<!-- Node5 -->
<g id="node6" class="node">
<title>Node5</title>
<g id="a_node6"><a xlink:href="../../d4/d78/math_8hpp.html" target="_top" xlink:title="math.hpp">
<polygon fill="#ffffff" stroke="#000000" points="649.5,-112.5 649.5,-131.5 706.5,-131.5 706.5,-112.5 649.5,-112.5"/>
<text text-anchor="middle" x="678" y="-119.5" font-family="Helvetica,sans-Serif" font-size="10.00" fill="#000000">math.hpp</text>
</a>
</g>
</g>
<!-- Node4&#45;&gt;Node5 -->
<g id="edge5" class="edge">
<title>Node4&#45;&gt;Node5</title>
<path fill="none" stroke="#191970" d="M709.8948,-168.2455C702.2116,-160.5367 693.0228,-149.5598 686.2819,-140.2348"/>
<polygon fill="#191970" stroke="#191970" points="688.9884,-137.9874 680.5034,-131.6427 683.1798,-141.8939 688.9884,-137.9874"/>
</g>
<!-- Node24 -->
<g id="node25" class="node">
<title>Node24</title>
<polygon fill="#ffffff" stroke="#bfbfbf" points="724.5,-112.5 724.5,-131.5 825.5,-131.5 825.5,-112.5 724.5,-112.5"/>
<text text-anchor="middle" x="775" y="-119.5" font-family="Helvetica,sans-Serif" font-size="10.00" fill="#000000">PseudoInverse.hxx</text>
</g>
<!-- Node4&#45;&gt;Node24 -->
<g id="edge41" class="edge">
<title>Node4&#45;&gt;Node24</title>
<path fill="none" stroke="#191970" d="M732.0577,-168.2455C739.5142,-160.2155 750.2634,-148.6394 759.1417,-139.0781"/>
<polygon fill="#191970" stroke="#191970" points="761.8063,-141.3522 766.0461,-131.6427 756.6768,-136.589 761.8063,-141.3522"/>
</g>
<!-- Node5&#45;&gt;Node4 -->
<g id="edge40" class="edge">
<title>Node5&#45;&gt;Node4</title>
<path fill="none" stroke="#191970" d="M690.9937,-131.6427C698.7421,-139.3997 708.0472,-150.5176 714.8306,-159.9209"/>
<polygon fill="#191970" stroke="#191970" points="711.9438,-161.9003 720.4284,-168.2455 717.7526,-157.9942 711.9438,-161.9003"/>
</g>
<!-- Node6 -->
<g id="node7" class="node">
<title>Node6</title>
<g id="a_node7"><a xlink:href="../../db/de5/stdlib__imports_8hpp.html" target="_top" xlink:title="This file is needed to shadow the C standard library math functions with ones provided by the C++ sta...">
<polygon fill="#ffffff" stroke="#000000" points="1404,-56.5 1404,-75.5 1500,-75.5 1500,-56.5 1404,-56.5"/>
<text text-anchor="middle" x="1452" y="-63.5" font-family="Helvetica,sans-Serif" font-size="10.00" fill="#000000">stdlib_imports.hpp</text>
</a>
</g>
</g>
<!-- Node5&#45;&gt;Node6 -->
<g id="edge6" class="edge">
<title>Node5&#45;&gt;Node6</title>
<path fill="none" stroke="#191970" d="M706.5537,-113.6435C709.3902,-113.0063 712.2403,-112.4409 715,-112 1010.499,-64.7891 1092.4601,-109.1904 1393.5137,-76.0275"/>
<polygon fill="#191970" stroke="#191970" points="1394.3098,-79.4602 1403.8573,-74.8672 1393.5294,-72.5038 1394.3098,-79.4602"/>
</g>
<!-- Node9 -->
<g id="node10" class="node">
<title>Node9</title>
<g id="a_node10"><a xlink:href="../../dd/d28/helper__functions_8hpp.html" target="_top" xlink:title="helper_functions.hpp">
<polygon fill="#ffffff" stroke="#000000" points="80.5,-56.5 80.5,-75.5 187.5,-75.5 187.5,-56.5 80.5,-56.5"/>
<text text-anchor="middle" x="134" y="-63.5" font-family="Helvetica,sans-Serif" font-size="10.00" fill="#000000">helper_functions.hpp</text>
</a>
</g>
</g>
<!-- Node5&#45;&gt;Node9 -->
<g id="edge10" class="edge">
<title>Node5&#45;&gt;Node9</title>
<path fill="none" stroke="#191970" d="M649.291,-120.2152C574.6689,-115.0414 369.4821,-99.0083 193.3555,-76.7936"/>
<polygon fill="#191970" stroke="#191970" points="193.7602,-73.317 183.3985,-75.5271 192.8769,-80.261 193.7602,-73.317"/>
</g>
<!-- Node10 -->
<g id="node11" class="node">
<title>Node10</title>
<g id="a_node11"><a xlink:href="../../d8/d49/_matrix_8hpp.html" target="_top" xlink:title="A simple matrix template library. ">
<polygon fill="#ffffff" stroke="#000000" points="0,-56.5 0,-75.5 62,-75.5 62,-56.5 0,-56.5"/>
<text text-anchor="middle" x="31" y="-63.5" font-family="Helvetica,sans-Serif" font-size="10.00" fill="#000000">Matrix.hpp</text>
</a>
</g>
</g>
<!-- Node5&#45;&gt;Node10 -->
<g id="edge12" class="edge">
<title>Node5&#45;&gt;Node10</title>
<path fill="none" stroke="#191970" d="M649.2541,-121.6182C562.0035,-120.05 293.8001,-112.4136 69.4121,-77.1534"/>
<polygon fill="#191970" stroke="#191970" points="69.8609,-73.6808 59.4345,-75.5625 68.7586,-80.5935 69.8609,-73.6808"/>
</g>
<!-- Node12 -->
<g id="node13" class="node">
<title>Node12</title>
<g id="a_node13"><a xlink:href="../../df/d5f/_square_matrix_8hpp.html" target="_top" xlink:title="A square matrix. ">
<polygon fill="#ffffff" stroke="#000000" points="205.5,-56.5 205.5,-75.5 298.5,-75.5 298.5,-56.5 205.5,-56.5"/>
<text text-anchor="middle" x="252" y="-63.5" font-family="Helvetica,sans-Serif" font-size="10.00" fill="#000000">SquareMatrix.hpp</text>
</a>
</g>
</g>
<!-- Node5&#45;&gt;Node12 -->
<g id="edge16" class="edge">
<title>Node5&#45;&gt;Node12</title>
<path fill="none" stroke="#191970" d="M649.1138,-119.4601C586.8353,-113.3237 436.1529,-96.7679 305.0128,-77.0505"/>
<polygon fill="#191970" stroke="#191970" points="305.2167,-73.5415 294.8051,-75.5032 304.1675,-80.4625 305.2167,-73.5415"/>
</g>
<!-- Node13 -->
<g id="node14" class="node">
<title>Node13</title>
<g id="a_node14"><a xlink:href="../../dd/da6/_slice_8hpp.html" target="_top" xlink:title="A simple matrix template library. ">
<polygon fill="#ffffff" stroke="#000000" points="316.5,-56.5 316.5,-75.5 373.5,-75.5 373.5,-56.5 316.5,-56.5"/>
<text text-anchor="middle" x="345" y="-63.5" font-family="Helvetica,sans-Serif" font-size="10.00" fill="#000000">Slice.hpp</text>
</a>
</g>
</g>
<!-- Node5&#45;&gt;Node13 -->
<g id="edge18" class="edge">
<title>Node5&#45;&gt;Node13</title>
<path fill="none" stroke="#191970" d="M649.2437,-119.1246C596.5209,-113.0696 481.672,-97.9073 381.8958,-77.6131"/>
<polygon fill="#191970" stroke="#191970" points="382.4821,-74.1605 371.9813,-75.5689 381.0684,-81.0163 382.4821,-74.1605"/>
</g>
<!-- Node14 -->
<g id="node15" class="node">
<title>Node14</title>
<g id="a_node15"><a xlink:href="../../db/d20/_vector_8hpp.html" target="_top" xlink:title="Vector class. ">
<polygon fill="#ffffff" stroke="#000000" points="392,-56.5 392,-75.5 456,-75.5 456,-56.5 392,-56.5"/>
<text text-anchor="middle" x="424" y="-63.5" font-family="Helvetica,sans-Serif" font-size="10.00" fill="#000000">Vector.hpp</text>
</a>
</g>
</g>
<!-- Node5&#45;&gt;Node14 -->
<g id="edge20" class="edge">
<title>Node5&#45;&gt;Node14</title>
<path fill="none" stroke="#191970" d="M649.4541,-117.2305C608.8186,-109.4708 532.5362,-93.4463 463.9049,-77.8047"/>
<polygon fill="#191970" stroke="#191970" points="464.3686,-74.3203 453.8397,-75.5007 462.8066,-81.1438 464.3686,-74.3203"/>
</g>
<!-- Node15 -->
<g id="node16" class="node">
<title>Node15</title>
<g id="a_node16"><a xlink:href="../../d3/d12/_vector2_8hpp.html" target="_top" xlink:title="2D vector class. ">
<polygon fill="#ffffff" stroke="#000000" points="474.5,-56.5 474.5,-75.5 543.5,-75.5 543.5,-56.5 474.5,-56.5"/>
<text text-anchor="middle" x="509" y="-63.5" font-family="Helvetica,sans-Serif" font-size="10.00" fill="#000000">Vector2.hpp</text>
</a>
</g>
</g>
<!-- Node5&#45;&gt;Node15 -->
<g id="edge22" class="edge">
<title>Node5&#45;&gt;Node15</title>
<path fill="none" stroke="#191970" d="M649.272,-114.0953C619.5398,-104.9545 573.4228,-89.7744 542.1789,-78.9128"/>
<polygon fill="#191970" stroke="#191970" points="543.1918,-75.5591 532.597,-75.5512 540.8744,-82.1644 543.1918,-75.5591"/>
</g>
<!-- Node16 -->
<g id="node17" class="node">
<title>Node16</title>
<g id="a_node17"><a xlink:href="../../d2/d6a/_vector3_8hpp.html" target="_top" xlink:title="3D vector class. ">
<polygon fill="#ffffff" stroke="#000000" points="561.5,-56.5 561.5,-75.5 630.5,-75.5 630.5,-56.5 561.5,-56.5"/>
<text text-anchor="middle" x="596" y="-63.5" font-family="Helvetica,sans-Serif" font-size="10.00" fill="#000000">Vector3.hpp</text>
</a>
</g>
</g>
<!-- Node5&#45;&gt;Node16 -->
<g id="edge24" class="edge">
<title>Node5&#45;&gt;Node16</title>
<path fill="none" stroke="#191970" d="M658.4498,-112.2455C644.6087,-103.8943 626.4663,-91.7076 613.1823,-81.9408"/>
<polygon fill="#191970" stroke="#191970" points="614.9579,-78.8948 604.8745,-75.6427 610.729,-84.4731 614.9579,-78.8948"/>
</g>
<!-- Node17 -->
<g id="node18" class="node">
<title>Node17</title>
<g id="a_node18"><a xlink:href="../../d3/d40/_euler_8hpp.html" target="_top" xlink:title="All rotations and axis systems follow the right&#45;hand rule. ">
<polygon fill="#ffffff" stroke="#000000" points="649,-56.5 649,-75.5 707,-75.5 707,-56.5 649,-56.5"/>
<text text-anchor="middle" x="678" y="-63.5" font-family="Helvetica,sans-Serif" font-size="10.00" fill="#000000">Euler.hpp</text>
</a>
</g>
</g>
<!-- Node5&#45;&gt;Node17 -->
<g id="edge26" class="edge">
<title>Node5&#45;&gt;Node17</title>
<path fill="none" stroke="#191970" d="M672.7332,-112.2455C671.3221,-104.9382 670.9179,-94.6944 671.5205,-85.7046"/>
<polygon fill="#191970" stroke="#191970" points="675.0111,-85.9945 672.7549,-75.6427 668.0632,-85.1421 675.0111,-85.9945"/>
</g>
<!-- Node18 -->
<g id="node19" class="node">
<title>Node18</title>
<g id="a_node19"><a xlink:href="../../d9/d6f/_dcm_8hpp.html" target="_top" xlink:title="A direction cosine matrix class. ">
<polygon fill="#ffffff" stroke="#000000" points="725,-56.5 725,-75.5 781,-75.5 781,-56.5 725,-56.5"/>
<text text-anchor="middle" x="753" y="-63.5" font-family="Helvetica,sans-Serif" font-size="10.00" fill="#000000">Dcm.hpp</text>
</a>
</g>
</g>
<!-- Node5&#45;&gt;Node18 -->
<g id="edge28" class="edge">
<title>Node5&#45;&gt;Node18</title>
<path fill="none" stroke="#191970" d="M685.7972,-112.2455C695.5533,-103.7337 712.0118,-91.2375 726.3022,-81.3801"/>
<polygon fill="#191970" stroke="#191970" points="728.4925,-84.1252 734.8406,-75.6427 724.5883,-78.315 728.4925,-84.1252"/>
</g>
<!-- Node19 -->
<g id="node20" class="node">
<title>Node19</title>
<g id="a_node20"><a xlink:href="../../de/d6b/_scalar_8hpp.html" target="_top" xlink:title="Defines conversion of matrix to scalar. ">
<polygon fill="#ffffff" stroke="#000000" points="799.5,-56.5 799.5,-75.5 862.5,-75.5 862.5,-56.5 799.5,-56.5"/>
<text text-anchor="middle" x="831" y="-63.5" font-family="Helvetica,sans-Serif" font-size="10.00" fill="#000000">Scalar.hpp</text>
</a>
</g>
</g>
<!-- Node5&#45;&gt;Node19 -->
<g id="edge30" class="edge">
<title>Node5&#45;&gt;Node19</title>
<path fill="none" stroke="#191970" d="M699.0596,-112.3733C722.5772,-103.1016 760.8786,-89.0178 790.2429,-78.804"/>
<polygon fill="#191970" stroke="#191970" points="791.5109,-82.0691 799.8243,-75.5011 789.2296,-75.4513 791.5109,-82.0691"/>
</g>
<!-- Node20 -->
<g id="node21" class="node">
<title>Node20</title>
<g id="a_node21"><a xlink:href="../../d6/d42/_quaternion_8hpp.html" target="_top" xlink:title="All rotations and axis systems follow the right&#45;hand rule. ">
<polygon fill="#ffffff" stroke="#000000" points="880.5,-56.5 880.5,-75.5 963.5,-75.5 963.5,-56.5 880.5,-56.5"/>
<text text-anchor="middle" x="922" y="-63.5" font-family="Helvetica,sans-Serif" font-size="10.00" fill="#000000">Quaternion.hpp</text>
</a>
</g>
</g>
<!-- Node5&#45;&gt;Node20 -->
<g id="edge32" class="edge">
<title>Node5&#45;&gt;Node20</title>
<path fill="none" stroke="#191970" d="M704.0457,-112.4851C704.7018,-112.3209 705.3539,-112.159 706,-112 761.7157,-98.2877 826.3175,-84.2214 870.3643,-75.3149"/>
<polygon fill="#191970" stroke="#191970" points="871.1518,-78.7268 880.2692,-73.3301 869.7764,-71.8632 871.1518,-78.7268"/>
</g>
<!-- Node21 -->
<g id="node22" class="node">
<title>Node21</title>
<g id="a_node22"><a xlink:href="../../de/dbe/_axis_angle_8hpp.html" target="_top" xlink:title="AxisAngle.hpp">
<polygon fill="#ffffff" stroke="#000000" points="982,-56.5 982,-75.5 1062,-75.5 1062,-56.5 982,-56.5"/>
<text text-anchor="middle" x="1022" y="-63.5" font-family="Helvetica,sans-Serif" font-size="10.00" fill="#000000">AxisAngle.hpp</text>
</a>
</g>
</g>
<!-- Node5&#45;&gt;Node21 -->
<g id="edge34" class="edge">
<title>Node5&#45;&gt;Node21</title>
<path fill="none" stroke="#191970" d="M703.6326,-112.4995C704.4274,-112.3267 705.2177,-112.1599 706,-112 819.0023,-88.9088 849.2919,-95.3179 963,-76 965.8228,-75.5204 968.7304,-75.0024 971.6745,-74.4633"/>
<polygon fill="#191970" stroke="#191970" points="972.5705,-77.8565 981.7548,-72.5745 971.2813,-70.9762 972.5705,-77.8565"/>
</g>
<!-- Node22 -->
<g id="node23" class="node">
<title>Node22</title>
<g id="a_node23"><a xlink:href="../../d9/d19/_least_squares_solver_8hpp.html" target="_top" xlink:title="Least Squares Solver using QR householder decomposition. ">
<polygon fill="#ffffff" stroke="#000000" points="1080.5,-56.5 1080.5,-75.5 1203.5,-75.5 1203.5,-56.5 1080.5,-56.5"/>
<text text-anchor="middle" x="1142" y="-63.5" font-family="Helvetica,sans-Serif" font-size="10.00" fill="#000000">LeastSquaresSolver.hpp</text>
</a>
</g>
</g>
<!-- Node5&#45;&gt;Node22 -->
<g id="edge36" class="edge">
<title>Node5&#45;&gt;Node22</title>
<path fill="none" stroke="#191970" d="M703.6246,-112.4585C704.4218,-112.298 705.2148,-112.1448 706,-112 862.3918,-83.158 904.1212,-95.0934 1062,-76 1064.6879,-75.6749 1067.4315,-75.3329 1070.2076,-74.9792"/>
<polygon fill="#191970" stroke="#191970" points="1070.8955,-78.4192 1080.3594,-73.6564 1069.991,-71.4779 1070.8955,-78.4192"/>
</g>
<!-- Node23 -->
<g id="node24" class="node">
<title>Node23</title>
<g id="a_node24"><a xlink:href="../../d5/dd8/_dual_8hpp.html" target="_top" xlink:title="This is a dual number type for calculating automatic derivatives. ">
<polygon fill="#ffffff" stroke="#000000" points="1222,-56.5 1222,-75.5 1278,-75.5 1278,-56.5 1222,-56.5"/>
<text text-anchor="middle" x="1250" y="-63.5" font-family="Helvetica,sans-Serif" font-size="10.00" fill="#000000">Dual.hpp</text>
</a>
</g>
</g>
<!-- Node5&#45;&gt;Node23 -->
<g id="edge38" class="edge">
<title>Node5&#45;&gt;Node23</title>
<path fill="none" stroke="#191970" d="M703.6192,-112.4279C704.418,-112.2766 705.2128,-112.1336 706,-112 924.7843,-74.8802 985.2157,-113.1198 1204,-76 1206.6159,-75.5562 1209.3146,-75.008 1212.0408,-74.3987"/>
<polygon fill="#191970" stroke="#191970" points="1213.0399,-77.758 1221.9348,-72.002 1211.3918,-70.9548 1213.0399,-77.758"/>
</g>
<!-- Node6&#45;&gt;Node3 -->
<g id="edge7" class="edge">
<title>Node6&#45;&gt;Node3</title>
<path fill="none" stroke="#191970" d="M1434.7555,-56.2455C1419.4239,-47.5731 1396.7801,-34.7645 1379.2084,-24.825"/>
<polygon fill="#191970" stroke="#191970" points="1380.4741,-21.5198 1370.0469,-19.6427 1377.0276,-27.6126 1380.4741,-21.5198"/>
</g>
<!-- Node7 -->
<g id="node8" class="node">
<title>Node7</title>
<polygon fill="#ffffff" stroke="#bfbfbf" points="1417.5,-.5 1417.5,-19.5 1462.5,-19.5 1462.5,-.5 1417.5,-.5"/>
<text text-anchor="middle" x="1440" y="-7.5" font-family="Helvetica,sans-Serif" font-size="10.00" fill="#000000">cstdlib</text>
</g>
<!-- Node6&#45;&gt;Node7 -->
<g id="edge8" class="edge">
<title>Node6&#45;&gt;Node7</title>
<path fill="none" stroke="#191970" d="M1449.9098,-56.2455C1448.3439,-48.9382 1446.1488,-38.6944 1444.2224,-29.7046"/>
<polygon fill="#191970" stroke="#191970" points="1447.584,-28.6873 1442.0663,-19.6427 1440.7393,-30.1541 1447.584,-28.6873"/>
</g>
<!-- Node8 -->
<g id="node9" class="node">
<title>Node8</title>
<polygon fill="#ffffff" stroke="#bfbfbf" points="1480.5,-.5 1480.5,-19.5 1539.5,-19.5 1539.5,-.5 1480.5,-.5"/>
<text text-anchor="middle" x="1510" y="-7.5" font-family="Helvetica,sans-Serif" font-size="10.00" fill="#000000">inttypes.h</text>
</g>
<!-- Node6&#45;&gt;Node8 -->
<g id="edge9" class="edge">
<title>Node6&#45;&gt;Node8</title>
<path fill="none" stroke="#191970" d="M1462.1028,-56.2455C1470.5028,-48.1352 1482.6494,-36.4075 1492.6084,-26.7919"/>
<polygon fill="#191970" stroke="#191970" points="1495.25,-29.1066 1500.0129,-19.6427 1490.3878,-24.0707 1495.25,-29.1066"/>
</g>
<!-- Node9&#45;&gt;Node5 -->
<g id="edge11" class="edge">
<title>Node9&#45;&gt;Node5</title>
<path fill="none" stroke="#191970" d="M187.5765,-73.5561C193.4794,-74.4382 199.3765,-75.2789 205,-76 365.9873,-96.6428 558.3207,-112.3143 639.277,-118.7707"/>
<polygon fill="#191970" stroke="#191970" points="639.2486,-122.2794 649.4949,-119.5842 639.8042,-115.3015 639.2486,-122.2794"/>
</g>
<!-- Node10&#45;&gt;Node2 -->
<g id="edge13" class="edge">
<title>Node10&#45;&gt;Node2</title>
<path fill="none" stroke="#191970" d="M62.3375,-57.6246C65.2527,-57.0094 68.1729,-56.4535 71,-56 297.607,-19.6515 574.8857,-11.984 667.3312,-10.4015"/>
<polygon fill="#191970" stroke="#191970" points="667.4851,-13.8996 677.4281,-10.2407 667.3736,-6.9005 667.4851,-13.8996"/>
</g>
<!-- Node10&#45;&gt;Node5 -->
<g id="edge15" class="edge">
<title>Node10&#45;&gt;Node5</title>
<path fill="none" stroke="#191970" d="M62.4321,-72.3845C68.3207,-73.7666 74.3469,-75.0859 80,-76 289.4148,-109.8615 543.6078,-118.9027 639.2755,-121.2284"/>
<polygon fill="#191970" stroke="#191970" points="639.2768,-124.7293 649.3555,-121.4626 639.4395,-117.7312 639.2768,-124.7293"/>
</g>
<!-- Node11 -->
<g id="node12" class="node">
<title>Node11</title>
<polygon fill="#ffffff" stroke="#bfbfbf" points="8,-.5 8,-19.5 54,-19.5 54,-.5 8,-.5"/>
<text text-anchor="middle" x="31" y="-7.5" font-family="Helvetica,sans-Serif" font-size="10.00" fill="#000000">cstring</text>
</g>
<!-- Node10&#45;&gt;Node11 -->
<g id="edge14" class="edge">
<title>Node10&#45;&gt;Node11</title>
<path fill="none" stroke="#191970" d="M31,-56.2455C31,-48.9382 31,-38.6944 31,-29.7046"/>
<polygon fill="#191970" stroke="#191970" points="34.5001,-29.6426 31,-19.6427 27.5001,-29.6427 34.5001,-29.6426"/>
</g>
<!-- Node12&#45;&gt;Node5 -->
<g id="edge17" class="edge">
<title>Node12&#45;&gt;Node5</title>
<path fill="none" stroke="#191970" d="M298.719,-73.167C304.5693,-74.1717 310.4356,-75.1499 316,-76 433.5378,-93.9573 572.8449,-109.7706 639.273,-117.3123"/>
<polygon fill="#191970" stroke="#191970" points="638.9629,-120.7995 649.294,-118.4507 639.7531,-113.8442 638.9629,-120.7995"/>
</g>
<!-- Node13&#45;&gt;Node5 -->
<g id="edge19" class="edge">
<title>Node13&#45;&gt;Node5</title>
<path fill="none" stroke="#191970" d="M373.6587,-71.6809C379.7971,-73.2067 386.1237,-74.772 392,-76 479.9441,-94.3776 584.0339,-108.9568 639.2972,-116.4565"/>
<polygon fill="#191970" stroke="#191970" points="638.9774,-119.945 649.3564,-117.8174 639.916,-113.0082 638.9774,-119.945"/>
</g>
<!-- Node14&#45;&gt;Node5 -->
<g id="edge21" class="edge">
<title>Node14&#45;&gt;Node5</title>
<path fill="none" stroke="#191970" d="M456.1161,-71.8186C462.1416,-73.2178 468.2876,-74.6868 474,-76 531.6122,-89.2445 598.2501,-103.4586 639.3844,-112.5242"/>
<polygon fill="#191970" stroke="#191970" points="638.7515,-115.9688 649.2718,-114.7144 640.2654,-109.1345 638.7515,-115.9688"/>
</g>
<!-- Node15&#45;&gt;Node5 -->
<g id="edge23" class="edge">
<title>Node15&#45;&gt;Node5</title>
<path fill="none" stroke="#191970" d="M542.8903,-75.5011C572.5674,-84.729 615.2492,-98.8084 644.7344,-109.057"/>
<polygon fill="#191970" stroke="#191970" points="643.5951,-112.3664 654.1899,-112.3733 645.9118,-105.7609 643.5951,-112.3664"/>
</g>
<!-- Node16&#45;&gt;Node5 -->
<g id="edge25" class="edge">
<title>Node16&#45;&gt;Node5</title>
<path fill="none" stroke="#191970" d="M615.3648,-75.6427C629.1673,-83.9595 647.312,-96.1397 660.6392,-105.928"/>
<polygon fill="#191970" stroke="#191970" points="658.8981,-108.9998 668.9835,-112.2455 663.1235,-103.4189 658.8981,-108.9998"/>
</g>
<!-- Node17&#45;&gt;Node5 -->
<g id="edge27" class="edge">
<title>Node17&#45;&gt;Node5</title>
<path fill="none" stroke="#191970" d="M683.2451,-75.6427C684.6665,-82.9199 685.081,-93.155 684.4887,-102.1575"/>
<polygon fill="#191970" stroke="#191970" points="680.9947,-101.8972 683.2668,-112.2455 687.9439,-102.739 680.9947,-101.8972"/>
</g>
<!-- Node18&#45;&gt;Node5 -->
<g id="edge29" class="edge">
<title>Node18&#45;&gt;Node5</title>
<path fill="none" stroke="#191970" d="M745.3308,-75.6427C735.6337,-84.1194 719.1952,-96.6096 704.886,-106.49"/>
<polygon fill="#191970" stroke="#191970" points="702.6743,-103.7596 696.3308,-112.2455 706.5817,-109.5676 702.6743,-103.7596"/>
</g>
<!-- Node19&#45;&gt;Node5 -->
<g id="edge31" class="edge">
<title>Node19&#45;&gt;Node5</title>
<path fill="none" stroke="#191970" d="M809.8267,-75.6716C785.6156,-85.2132 745.8395,-99.8197 716.2239,-110.0752"/>
<polygon fill="#191970" stroke="#191970" points="714.9311,-106.8184 706.607,-113.3727 717.2016,-113.4399 714.9311,-106.8184"/>
</g>
<!-- Node20&#45;&gt;Node5 -->
<g id="edge33" class="edge">
<title>Node20&#45;&gt;Node5</title>
<path fill="none" stroke="#191970" d="M883.2504,-75.5491C843.1913,-84.4668 779.2298,-98.4073 724,-112 721.5689,-112.5983 719.0532,-113.2368 716.5017,-113.8906"/>
<polygon fill="#191970" stroke="#191970" points="715.4016,-110.5595 706.5863,-116.4366 717.1426,-117.3395 715.4016,-110.5595"/>
</g>
<!-- Node21&#45;&gt;Node5 -->
<g id="edge35" class="edge">
<title>Node21&#45;&gt;Node5</title>
<path fill="none" stroke="#191970" d="M983.6401,-75.5447C982.7536,-75.6998 981.8727,-75.8517 981,-76 867.2919,-95.3179 837.0023,-88.9088 724,-112 721.5471,-112.5012 719.016,-113.0711 716.454,-113.6787"/>
<polygon fill="#191970" stroke="#191970" points="715.3833,-110.3382 706.5202,-116.143 717.0688,-117.1322 715.3833,-110.3382"/>
</g>
<!-- Node22&#45;&gt;Node5 -->
<g id="edge37" class="edge">
<title>Node22&#45;&gt;Node5</title>
<path fill="none" stroke="#191970" d="M1083.7394,-75.5414C1082.4834,-75.6975 1081.2358,-75.8505 1080,-76 922.1212,-95.0934 880.3918,-83.158 724,-112 721.6811,-112.4277 719.2951,-112.9285 716.8813,-113.4742"/>
<polygon fill="#191970" stroke="#191970" points="715.7938,-110.1364 706.9014,-115.8962 717.4448,-116.939 715.7938,-110.1364"/>
</g>
<!-- Node23&#45;&gt;Node5 -->
<g id="edge39" class="edge">
<title>Node23&#45;&gt;Node5</title>
<path fill="none" stroke="#191970" d="M1224.3808,-75.5721C1223.582,-75.7234 1222.7872,-75.8664 1222,-76 1003.2157,-113.1198 942.7843,-74.8802 724,-112 721.6752,-112.3944 719.285,-112.8713 716.8682,-113.4002"/>
<polygon fill="#191970" stroke="#191970" points="715.7935,-110.0585 706.8826,-115.7896 717.4225,-116.8663 715.7935,-110.0585"/>
</g>
</g>
</svg>
        <g id="navigator" transform="translate(0 0)" fill="#404254">
                <rect fill="#f2f5e9" fill-opacity="0.5" stroke="#606060" stroke-width=".5" x="0" y="0" width="60" height="60"/>
                <use id="zoomplus" xlink:href="#zoomPlus" x="17" y="9" onmousedown="handleZoom(evt,'in')"/>
                <use id="zoomminus" xlink:href="#zoomMin" x="42" y="9" onmousedown="handleZoom(evt,'out')"/>
                <use id="reset" xlink:href="#resetDef" x="30" y="36" onmousedown="handleReset()"/>
                <g id="arrowUp" xlink:href="#dirArrow" transform="translate(30 24)" onmousedown="handlePan(0,-1)">
                  <use xlink:href="#rim" fill="#404040">
                        <set attributeName="fill" to="#808080" begin="arrowUp.mouseover" end="arrowUp.mouseout"/>
                  </use>
                  <path fill="none" stroke="white" stroke-width="1.5" d="M0,-3.0v7 M-2.5,-0.5L0,-3.0L2.5,-0.5"/>
                </g>
                <g id="arrowRight" xlink:href="#dirArrow" transform="rotate(90) translate(36 -43)" onmousedown="handlePan(1,0)">
                  <use xlink:href="#rim" fill="#404040">
                        <set attributeName="fill" to="#808080" begin="arrowRight.mouseover" end="arrowRight.mouseout"/>
                  </use>
                  <path fill="none" stroke="white" stroke-width="1.5" d="M0,-3.0v7 M-2.5,-0.5L0,-3.0L2.5,-0.5"/>
                </g>
                <g id="arrowDown" xlink:href="#dirArrow" transform="rotate(180) translate(-30 -48)" onmousedown="handlePan(0,1)">
                  <use xlink:href="#rim" fill="#404040">
                        <set attributeName="fill" to="#808080" begin="arrowDown.mouseover" end="arrowDown.mouseout"/>
                  </use>
                  <path fill="none" stroke="white" stroke-width="1.5" d="M0,-3.0v7 M-2.5,-0.5L0,-3.0L2.5,-0.5"/>
                </g>
                <g id="arrowLeft" xlink:href="#dirArrow" transform="rotate(270) translate(-36 17)" onmousedown="handlePan(-1,0)">
                  <use xlink:href="#rim" fill="#404040">
                        <set attributeName="fill" to="#808080" begin="arrowLeft.mouseover" end="arrowLeft.mouseout"/>
                  </use>
                  <path fill="none" stroke="white" stroke-width="1.5" d="M0,-3.0v7 M-2.5,-0.5L0,-3.0L2.5,-0.5"/>
                </g>
        </g>
        <svg viewBox="0 0 15 15" width="100%" height="30px" preserveAspectRatio="xMaxYMin meet">
         <g id="arrow_out" transform="scale(0.3 0.3)">
          <a xlink:href="pseudo_inverse_8cpp__incl_org.svg" target="_base">
           <rect id="button" ry="5" rx="5" y="6" x="6" height="38" width="38"
                fill="#f2f5e9" fill-opacity="0.5" stroke="#606060" stroke-width="1.0"/>
           <path id="arrow"
             d="M 11.500037,31.436501 C 11.940474,20.09759 22.043105,11.32322 32.158766,21.979434 L 37.068811,17.246167 C 37.068811,17.246167 37.088388,32 37.088388,32 L 22.160133,31.978069 C 22.160133,31.978069 26.997745,27.140456 26.997745,27.140456 C 18.528582,18.264221 13.291696,25.230495 11.500037,31.436501 z"
             style="fill:#404040;"/>
          </a>
         </g>
        </svg>
</svg>
