<?xml version="1.0" encoding="UTF-8" standalone="no"?>
<!DOCTYPE svg PUBLIC "-//W3C//DTD SVG 1.1//EN"
 "http://www.w3.org/Graphics/SVG/1.1/DTD/svg11.dtd">
<!-- Generated by graphviz version 2.38.0 (20140413.2041)
 -->
<!-- Title: task_main Pages: 1 -->
<svg width="323pt" height="256pt"
 viewBox="0.00 0.00 323.00 256.00" xmlns="http://www.w3.org/2000/svg" xmlns:xlink="http://www.w3.org/1999/xlink">
<g id="graph0" class="graph" transform="scale(1 1) rotate(0) translate(4 252)">
<title>task_main</title>
<polygon fill="white" stroke="none" points="-4,4 -4,-252 319,-252 319,4 -4,4"/>
<!-- Node1 -->
<g id="node1" class="node"><title>Node1</title>
<polygon fill="#bfbfbf" stroke="black" points="0,-95.5 0,-114.5 62,-114.5 62,-95.5 0,-95.5"/>
<text text-anchor="middle" x="31" y="-102.5" font-family="Helvetica,sans-Serif" font-size="10.00">task_main</text>
</g>
<!-- Node2 -->
<g id="node2" class="node"><title>Node2</title>
<g id="a_node2"><a xlink:href="../../d6/d47/dataman_8cpp.html#a1ef147f3115799ec851dd6fd29a7f619" target="_top" xlink:title="dequeue_work_item">
<polygon fill="white" stroke="black" points="98,-190.5 98,-209.5 202,-209.5 202,-190.5 98,-190.5"/>
<text text-anchor="middle" x="150" y="-197.5" font-family="Helvetica,sans-Serif" font-size="10.00">dequeue_work_item</text>
</a>
</g>
</g>
<!-- Node1&#45;&gt;Node2 -->
<g id="edge1" class="edge"><title>Node1&#45;&gt;Node2</title>
<path fill="none" stroke="midnightblue" d="M39.1559,-114.839C50.3421,-129.67 73.2659,-157.933 98,-176 103.134,-179.75 108.947,-183.142 114.763,-186.117"/>
<polygon fill="midnightblue" stroke="midnightblue" points="113.277,-189.286 123.809,-190.439 116.295,-182.97 113.277,-189.286"/>
</g>
<!-- Node4 -->
<g id="node4" class="node"><title>Node4</title>
<g id="a_node4"><a xlink:href="../../d6/d59/sq__remfirst_8c.html#a728a42b33fc1c7894f0840dbe164302b" target="_top" xlink:title="sq_remfirst">
<polygon fill="white" stroke="black" points="244,-152.5 244,-171.5 309,-171.5 309,-152.5 244,-152.5"/>
<text text-anchor="middle" x="276.5" y="-159.5" font-family="Helvetica,sans-Serif" font-size="10.00">sq_remfirst</text>
</a>
</g>
</g>
<!-- Node1&#45;&gt;Node4 -->
<g id="edge9" class="edge"><title>Node1&#45;&gt;Node4</title>
<path fill="none" stroke="midnightblue" d="M44.8772,-114.601C57.6496,-123.577 78.1343,-136.537 98,-143 142.796,-157.573 196.97,-161.539 233.595,-162.356"/>
<polygon fill="midnightblue" stroke="midnightblue" points="233.85,-165.86 243.902,-162.513 233.957,-158.861 233.85,-165.86"/>
</g>
<!-- Node6 -->
<g id="node6" class="node"><title>Node6</title>
<g id="a_node6"><a xlink:href="../../d6/d47/dataman_8cpp.html#a1a94689dd210dec0f39d57daf21125a7" target="_top" xlink:title="destroy_q">
<polygon fill="white" stroke="black" points="120.5,-114.5 120.5,-133.5 179.5,-133.5 179.5,-114.5 120.5,-114.5"/>
<text text-anchor="middle" x="150" y="-121.5" font-family="Helvetica,sans-Serif" font-size="10.00">destroy_q</text>
</a>
</g>
</g>
<!-- Node1&#45;&gt;Node6 -->
<g id="edge5" class="edge"><title>Node1&#45;&gt;Node6</title>
<path fill="none" stroke="midnightblue" d="M62.1304,-109.893C76.7933,-112.274 94.5937,-115.165 110.254,-117.708"/>
<polygon fill="midnightblue" stroke="midnightblue" points="109.75,-121.172 120.182,-119.32 110.872,-114.262 109.75,-121.172"/>
</g>
<!-- Node7 -->
<g id="node7" class="node"><title>Node7</title>
<g id="a_node7"><a xlink:href="../../d6/d47/dataman_8cpp.html#abefc3578000f8ce9445b3259ef483ab8" target="_top" xlink:title="init_q">
<polygon fill="white" stroke="black" points="130,-76.5 130,-95.5 170,-95.5 170,-76.5 130,-76.5"/>
<text text-anchor="middle" x="150" y="-83.5" font-family="Helvetica,sans-Serif" font-size="10.00">init_q</text>
</a>
</g>
</g>
<!-- Node1&#45;&gt;Node7 -->
<g id="edge6" class="edge"><title>Node1&#45;&gt;Node7</title>
<path fill="none" stroke="midnightblue" d="M62.1304,-100.107C79.8486,-97.2297 102.148,-93.6084 119.717,-90.7553"/>
<polygon fill="midnightblue" stroke="midnightblue" points="120.652,-94.1494 129.962,-89.0917 119.53,-87.2399 120.652,-94.1494"/>
</g>
<!-- Node8 -->
<g id="node8" class="node"><title>Node8</title>
<g id="a_node8"><a xlink:href="../../d9/da5/param_8c.html#ac0eb17a3cb026fd36cc681b5ef762531" target="_top" xlink:title="Look up a parameter by name. ">
<polygon fill="white" stroke="black" points="117.5,-38.5 117.5,-57.5 182.5,-57.5 182.5,-38.5 117.5,-38.5"/>
<text text-anchor="middle" x="150" y="-45.5" font-family="Helvetica,sans-Serif" font-size="10.00">param_find</text>
</a>
</g>
</g>
<!-- Node1&#45;&gt;Node8 -->
<g id="edge7" class="edge"><title>Node1&#45;&gt;Node8</title>
<path fill="none" stroke="midnightblue" d="M47.0828,-95.3533C60.2166,-87.1894 79.9325,-75.495 98,-67 102.315,-64.971 106.911,-63.0035 111.51,-61.1522"/>
<polygon fill="midnightblue" stroke="midnightblue" points="112.8,-64.4061 120.862,-57.5328 110.273,-57.8779 112.8,-64.4061"/>
</g>
<!-- Node9 -->
<g id="node9" class="node"><title>Node9</title>
<g id="a_node9"><a xlink:href="../../d9/da5/param_8c.html#acda250bde94d605ace974a67c1012d4a" target="_top" xlink:title="Copy the value of a parameter. ">
<polygon fill="white" stroke="black" points="119,-0.5 119,-19.5 181,-19.5 181,-0.5 119,-0.5"/>
<text text-anchor="middle" x="150" y="-7.5" font-family="Helvetica,sans-Serif" font-size="10.00">param_get</text>
</a>
</g>
</g>
<!-- Node1&#45;&gt;Node9 -->
<g id="edge8" class="edge"><title>Node1&#45;&gt;Node9</title>
<path fill="none" stroke="midnightblue" d="M37.9463,-95.4703C48.3059,-79.5885 71.1432,-47.6177 98,-29 101.538,-26.5473 105.432,-24.3659 109.444,-22.4368"/>
<polygon fill="midnightblue" stroke="midnightblue" points="111.09,-25.5392 118.904,-18.3846 108.334,-19.1046 111.09,-25.5392"/>
</g>
<!-- Node3 -->
<g id="node3" class="node"><title>Node3</title>
<g id="a_node3"><a xlink:href="../../d6/d47/dataman_8cpp.html#a0ba409860a05272f9cab723bd8358d05" target="_top" xlink:title="lock_queue">
<polygon fill="white" stroke="black" points="243.5,-228.5 243.5,-247.5 309.5,-247.5 309.5,-228.5 243.5,-228.5"/>
<text text-anchor="middle" x="276.5" y="-235.5" font-family="Helvetica,sans-Serif" font-size="10.00">lock_queue</text>
</a>
</g>
</g>
<!-- Node2&#45;&gt;Node3 -->
<g id="edge2" class="edge"><title>Node2&#45;&gt;Node3</title>
<path fill="none" stroke="midnightblue" d="M182.417,-209.589C198.193,-214.404 217.505,-220.299 234.441,-225.468"/>
<polygon fill="midnightblue" stroke="midnightblue" points="233.507,-228.842 244.093,-228.414 235.551,-222.147 233.507,-228.842"/>
</g>
<!-- Node2&#45;&gt;Node4 -->
<g id="edge3" class="edge"><title>Node2&#45;&gt;Node4</title>
<path fill="none" stroke="midnightblue" d="M182.417,-190.411C198.193,-185.596 217.505,-179.701 234.441,-174.532"/>
<polygon fill="midnightblue" stroke="midnightblue" points="235.551,-177.853 244.093,-171.586 233.507,-171.158 235.551,-177.853"/>
</g>
<!-- Node5 -->
<g id="node5" class="node"><title>Node5</title>
<g id="a_node5"><a xlink:href="../../d6/d47/dataman_8cpp.html#a237e22359180c49a601391c8d8fde80e" target="_top" xlink:title="unlock_queue">
<polygon fill="white" stroke="black" points="238,-190.5 238,-209.5 315,-209.5 315,-190.5 238,-190.5"/>
<text text-anchor="middle" x="276.5" y="-197.5" font-family="Helvetica,sans-Serif" font-size="10.00">unlock_queue</text>
</a>
</g>
</g>
<!-- Node2&#45;&gt;Node5 -->
<g id="edge4" class="edge"><title>Node2&#45;&gt;Node5</title>
<path fill="none" stroke="midnightblue" d="M202.358,-200C210.741,-200 219.396,-200 227.69,-200"/>
<polygon fill="midnightblue" stroke="midnightblue" points="227.953,-203.5 237.953,-200 227.953,-196.5 227.953,-203.5"/>
</g>
</g>
</svg>
