<?xml version="1.0" encoding="UTF-8" standalone="no"?>
<!DOCTYPE svg PUBLIC "-//W3C//DTD SVG 1.1//EN"
 "http://www.w3.org/Graphics/SVG/1.1/DTD/svg11.dtd">
<!-- Generated by graphviz version 2.38.0 (20140413.2041)
 -->
<!-- Title: src/modules/uORB/Subscription.hpp Pages: 1 -->
<!--zoomable 196 -->
<svg id="main" version="1.1" xmlns="http://www.w3.org/2000/svg" xmlns:xlink="http://www.w3.org/1999/xlink" xml:space="preserve" onload="init(evt)">
<style type="text/css"><![CDATA[
.edge:hover path { stroke: red; }
.edge:hover polygon { stroke: red; fill: red; }
]]></style>
<script type="text/javascript"><![CDATA[
var edges = document.getElementsByTagName('g');
if (edges && edges.length) {
  for (var i=0;i<edges.length;i++) {
    if (edges[i].id.substr(0,4)=='edge') {
      edges[i].setAttribute('class','edge');
    }
  }
}
]]></script>
        <defs>
                <circle id="rim" cx="0" cy="0" r="7"/>
                <circle id="rim2" cx="0" cy="0" r="3.5"/>
                <g id="zoomPlus">
                        <use xlink:href="#rim" fill="#404040">
                                <set attributeName="fill" to="#808080" begin="zoomplus.mouseover" end="zoomplus.mouseout"/>
                        </use>
                        <path d="M-4,0h8M0,-4v8" fill="none" stroke="white" stroke-width="1.5" pointer-events="none"/>
                </g>
                <g id="zoomMin">
                        <use xlink:href="#rim" fill="#404040">
                                <set attributeName="fill" to="#808080" begin="zoomminus.mouseover" end="zoomminus.mouseout"/>
                        </use>
                        <path d="M-4,0h8" fill="none" stroke="white" stroke-width="1.5" pointer-events="none"/>
                </g>
                <g id="dirArrow">
                        <path fill="none" stroke="white" stroke-width="1.5" d="M0,-3.0v7 M-2.5,-0.5L0,-3.0L2.5,-0.5"/>
                </g>
               <g id="resetDef">
                       <use xlink:href="#rim2" fill="#404040">
                               <set attributeName="fill" to="#808080" begin="reset.mouseover" end="reset.mouseout"/>
                       </use>
               </g>
        </defs>

<script type="text/javascript">
var viewWidth = 568;
var viewHeight = 196;
var sectionId = 'dynsection-0';
</script>
<script xlink:href="../../svgpan.js"/>
<svg id="graph" class="graph">
<g id="viewport">
<title>src/modules/uORB/Subscription.hpp</title>
<polygon fill="white" stroke="none" points="-4,4 -4,-192 564,-192 564,4 -4,4"/>
<!-- Node1 -->
<g id="node1" class="node"><title>Node1</title>
<polygon fill="#bfbfbf" stroke="black" points="192,-168.5 192,-187.5 368,-187.5 368,-168.5 192,-168.5"/>
<text text-anchor="middle" x="280" y="-175.5" font-family="Helvetica,sans-Serif" font-size="10.00">src/modules/uORB/Subscription.hpp</text>
</g>
<!-- Node2 -->
<g id="node2" class="node"><title>Node2</title>
<g id="a_node2"><a xlink:href="../../db/dd6/u_o_r_b_8h.html" target="_top" xlink:title="API for the uORB lightweight object broker. ">
<polygon fill="white" stroke="black" points="106,-112.5 106,-131.5 188,-131.5 188,-112.5 106,-112.5"/>
<text text-anchor="middle" x="147" y="-119.5" font-family="Helvetica,sans-Serif" font-size="10.00">uORB/uORB.h</text>
</a>
</g>
</g>
<!-- Node1&#45;&gt;Node2 -->
<g id="edge1" class="edge"><title>Node1&#45;&gt;Node2</title>
<path fill="none" stroke="midnightblue" d="M258.926,-168.444C236.94,-159.517 202.266,-145.439 177.336,-135.317"/>
<polygon fill="midnightblue" stroke="midnightblue" points="178.558,-132.035 167.976,-131.516 175.924,-138.521 178.558,-132.035"/>
</g>
<!-- Node6 -->
<g id="node6" class="node"><title>Node6</title>
<g id="a_node6"><a xlink:href="../../dc/d72/_list_8hpp.html" target="_top" xlink:title="A linked list. ">
<polygon fill="white" stroke="black" points="388.5,-112.5 388.5,-131.5 487.5,-131.5 487.5,-112.5 388.5,-112.5"/>
<text text-anchor="middle" x="438" y="-119.5" font-family="Helvetica,sans-Serif" font-size="10.00">containers/List.hpp</text>
</a>
</g>
</g>
<!-- Node1&#45;&gt;Node6 -->
<g id="edge5" class="edge"><title>Node1&#45;&gt;Node6</title>
<path fill="none" stroke="midnightblue" d="M305.036,-168.444C331.616,-159.359 373.809,-144.939 403.523,-134.783"/>
<polygon fill="midnightblue" stroke="midnightblue" points="404.751,-138.062 413.082,-131.516 402.487,-131.439 404.751,-138.062"/>
</g>
<!-- Node7 -->
<g id="node7" class="node"><title>Node7</title>
<g id="a_node7"><a xlink:href="../../d6/d40/err_8h.html" target="_top" xlink:title="Simple error/warning functions, heavily inspired by the BSD functions of the same names...">
<polygon fill="white" stroke="black" points="289.5,-112.5 289.5,-131.5 370.5,-131.5 370.5,-112.5 289.5,-112.5"/>
<text text-anchor="middle" x="330" y="-119.5" font-family="Helvetica,sans-Serif" font-size="10.00">systemlib/err.h</text>
</a>
</g>
</g>
<!-- Node1&#45;&gt;Node7 -->
<g id="edge6" class="edge"><title>Node1&#45;&gt;Node7</title>
<path fill="none" stroke="midnightblue" d="M288.256,-168.083C295.465,-160.298 306.11,-148.801 314.846,-139.367"/>
<polygon fill="midnightblue" stroke="midnightblue" points="317.671,-141.467 321.897,-131.751 312.535,-136.711 317.671,-141.467"/>
</g>
<!-- Node13 -->
<g id="node13" class="node"><title>Node13</title>
<g id="a_node13"><a xlink:href="../../df/dd0/px4__defines_8h.html" target="_top" xlink:title="Generally used magic defines. ">
<polygon fill="white" stroke="black" points="185.5,-0.5 185.5,-19.5 262.5,-19.5 262.5,-0.5 185.5,-0.5"/>
<text text-anchor="middle" x="224" y="-7.5" font-family="Helvetica,sans-Serif" font-size="10.00">px4_defines.h</text>
</a>
</g>
</g>
<!-- Node1&#45;&gt;Node13 -->
<g id="edge18" class="edge"><title>Node1&#45;&gt;Node13</title>
<path fill="none" stroke="midnightblue" d="M276.989,-168.075C268.136,-141.832 242.063,-64.5453 230.112,-29.1165"/>
<polygon fill="midnightblue" stroke="midnightblue" points="233.403,-27.9247 226.89,-19.5681 226.771,-30.1623 233.403,-27.9247"/>
</g>
<!-- Node3 -->
<g id="node3" class="node"><title>Node3</title>
<polygon fill="white" stroke="#bfbfbf" points="74,-56.5 74,-75.5 142,-75.5 142,-56.5 74,-56.5"/>
<text text-anchor="middle" x="108" y="-63.5" font-family="Helvetica,sans-Serif" font-size="10.00">sys/types.h</text>
</g>
<!-- Node2&#45;&gt;Node3 -->
<g id="edge2" class="edge"><title>Node2&#45;&gt;Node3</title>
<path fill="none" stroke="midnightblue" d="M140.56,-112.083C135.051,-104.455 126.969,-93.2645 120.235,-83.9408"/>
<polygon fill="midnightblue" stroke="midnightblue" points="123.013,-81.8087 114.32,-75.7511 117.338,-85.9071 123.013,-81.8087"/>
</g>
<!-- Node4 -->
<g id="node4" class="node"><title>Node4</title>
<polygon fill="white" stroke="#bfbfbf" points="118.5,-0.5 118.5,-19.5 167.5,-19.5 167.5,-0.5 118.5,-0.5"/>
<text text-anchor="middle" x="143" y="-7.5" font-family="Helvetica,sans-Serif" font-size="10.00">stdint.h</text>
</g>
<!-- Node2&#45;&gt;Node4 -->
<g id="edge3" class="edge"><title>Node2&#45;&gt;Node4</title>
<path fill="none" stroke="midnightblue" d="M148.38,-112.158C150.144,-99.641 152.768,-76.047 151,-56 150.224,-47.1966 148.609,-37.5357 147.031,-29.4298"/>
<polygon fill="midnightblue" stroke="midnightblue" points="150.444,-28.648 144.987,-19.5666 143.59,-30.0689 150.444,-28.648"/>
</g>
<!-- Node5 -->
<g id="node5" class="node"><title>Node5</title>
<polygon fill="white" stroke="#bfbfbf" points="0,-56.5 0,-75.5 56,-75.5 56,-56.5 0,-56.5"/>
<text text-anchor="middle" x="28" y="-63.5" font-family="Helvetica,sans-Serif" font-size="10.00">stdbool.h</text>
</g>
<!-- Node2&#45;&gt;Node5 -->
<g id="edge4" class="edge"><title>Node2&#45;&gt;Node5</title>
<path fill="none" stroke="midnightblue" d="M128.144,-112.444C108.734,-103.636 78.2699,-89.8116 56.0355,-79.722"/>
<polygon fill="midnightblue" stroke="midnightblue" points="57.3203,-76.4615 46.7677,-75.5164 54.4277,-82.836 57.3203,-76.4615"/>
</g>
<!-- Node8 -->
<g id="node8" class="node"><title>Node8</title>
<g id="a_node8"><a xlink:href="../../d7/d53/px4__log_8h.html" target="_top" xlink:title="Platform dependant logging/debug implementation. ">
<polygon fill="white" stroke="black" points="273.5,-56.5 273.5,-75.5 332.5,-75.5 332.5,-56.5 273.5,-56.5"/>
<text text-anchor="middle" x="303" y="-63.5" font-family="Helvetica,sans-Serif" font-size="10.00">px4_log.h</text>
</a>
</g>
</g>
<!-- Node7&#45;&gt;Node8 -->
<g id="edge7" class="edge"><title>Node7&#45;&gt;Node8</title>
<path fill="none" stroke="midnightblue" d="M325.541,-112.083C321.846,-104.691 316.477,-93.9533 311.906,-84.8111"/>
<polygon fill="midnightblue" stroke="midnightblue" points="314.978,-83.1301 307.376,-75.7511 308.717,-86.2606 314.978,-83.1301"/>
</g>
<!-- Node12 -->
<g id="node12" class="node"><title>Node12</title>
<polygon fill="white" stroke="#bfbfbf" points="508,-0.5 508,-19.5 560,-19.5 560,-0.5 508,-0.5"/>
<text text-anchor="middle" x="534" y="-7.5" font-family="Helvetica,sans-Serif" font-size="10.00">stdarg.h</text>
</g>
<!-- Node7&#45;&gt;Node12 -->
<g id="edge15" class="edge"><title>Node7&#45;&gt;Node12</title>
<path fill="none" stroke="midnightblue" d="M370.569,-114.011C400.56,-107.522 441.487,-95.8014 473,-76 492.967,-63.4539 510.776,-42.8148 521.922,-28.1617"/>
<polygon fill="midnightblue" stroke="midnightblue" points="524.863,-30.0695 527.96,-19.9375 519.22,-25.9266 524.863,-30.0695"/>
</g>
<!-- Node14 -->
<g id="node14" class="node"><title>Node14</title>
<polygon fill="white" stroke="#bfbfbf" points="350.5,-56.5 350.5,-75.5 397.5,-75.5 397.5,-56.5 350.5,-56.5"/>
<text text-anchor="middle" x="374" y="-63.5" font-family="Helvetica,sans-Serif" font-size="10.00">errno.h</text>
</g>
<!-- Node7&#45;&gt;Node14 -->
<g id="edge16" class="edge"><title>Node7&#45;&gt;Node14</title>
<path fill="none" stroke="midnightblue" d="M337.266,-112.083C343.545,-104.377 352.788,-93.0333 360.431,-83.6531"/>
<polygon fill="midnightblue" stroke="midnightblue" points="363.266,-85.7143 366.869,-75.7511 357.839,-81.2926 363.266,-85.7143"/>
</g>
<!-- Node15 -->
<g id="node15" class="node"><title>Node15</title>
<polygon fill="white" stroke="#bfbfbf" points="416,-56.5 416,-75.5 464,-75.5 464,-56.5 416,-56.5"/>
<text text-anchor="middle" x="440" y="-63.5" font-family="Helvetica,sans-Serif" font-size="10.00">stdlib.h</text>
</g>
<!-- Node7&#45;&gt;Node15 -->
<g id="edge17" class="edge"><title>Node7&#45;&gt;Node15</title>
<path fill="none" stroke="midnightblue" d="M347.673,-112.324C365.394,-103.625 392.903,-90.1202 413.288,-80.113"/>
<polygon fill="midnightblue" stroke="midnightblue" points="414.936,-83.2031 422.37,-75.6545 411.851,-76.9195 414.936,-83.2031"/>
</g>
<!-- Node8&#45;&gt;Node4 -->
<g id="edge9" class="edge"><title>Node8&#45;&gt;Node4</title>
<path fill="none" stroke="midnightblue" d="M277.648,-56.4435C250.572,-47.3057 207.5,-32.7689 177.383,-22.6044"/>
<polygon fill="midnightblue" stroke="midnightblue" points="178.302,-19.2206 167.708,-19.339 176.064,-25.8531 178.302,-19.2206"/>
</g>
<!-- Node9 -->
<g id="node9" class="node"><title>Node9</title>
<polygon fill="white" stroke="#bfbfbf" points="280.5,-0.5 280.5,-19.5 339.5,-19.5 339.5,-0.5 280.5,-0.5"/>
<text text-anchor="middle" x="310" y="-7.5" font-family="Helvetica,sans-Serif" font-size="10.00">inttypes.h</text>
</g>
<!-- Node8&#45;&gt;Node9 -->
<g id="edge8" class="edge"><title>Node8&#45;&gt;Node9</title>
<path fill="none" stroke="midnightblue" d="M304.156,-56.083C305.084,-48.9272 306.418,-38.6353 307.577,-29.6911"/>
<polygon fill="midnightblue" stroke="midnightblue" points="311.051,-30.1181 308.866,-19.7511 304.109,-29.2181 311.051,-30.1181"/>
</g>
<!-- Node10 -->
<g id="node10" class="node"><title>Node10</title>
<polygon fill="white" stroke="#bfbfbf" points="358,-0.5 358,-19.5 426,-19.5 426,-0.5 358,-0.5"/>
<text text-anchor="middle" x="392" y="-7.5" font-family="Helvetica,sans-Serif" font-size="10.00">sys/cdefs.h</text>
</g>
<!-- Node8&#45;&gt;Node10 -->
<g id="edge10" class="edge"><title>Node8&#45;&gt;Node10</title>
<path fill="none" stroke="midnightblue" d="M317.299,-56.324C331.183,-47.9002 352.492,-34.9709 368.804,-25.0741"/>
<polygon fill="midnightblue" stroke="midnightblue" points="371.002,-27.8341 377.736,-19.6545 367.371,-21.8495 371.002,-27.8341"/>
</g>
<!-- Node11 -->
<g id="node11" class="node"><title>Node11</title>
<polygon fill="white" stroke="#bfbfbf" points="444,-0.5 444,-19.5 490,-19.5 490,-0.5 444,-0.5"/>
<text text-anchor="middle" x="467" y="-7.5" font-family="Helvetica,sans-Serif" font-size="10.00">stdio.h</text>
</g>
<!-- Node8&#45;&gt;Node11 -->
<g id="edge11" class="edge"><title>Node8&#45;&gt;Node11</title>
<path fill="none" stroke="midnightblue" d="M328.986,-56.4435C357.388,-47.0919 402.961,-32.0859 433.901,-21.8984"/>
<polygon fill="midnightblue" stroke="midnightblue" points="435.383,-25.0953 443.787,-18.6433 433.194,-18.4465 435.383,-25.0953"/>
</g>
<!-- Node8&#45;&gt;Node12 -->
<g id="edge12" class="edge"><title>Node8&#45;&gt;Node12</title>
<path fill="none" stroke="midnightblue" d="M332.809,-58.1164C335.913,-57.4011 339.02,-56.6854 342,-56 408.769,-40.6409 427.824,-37.2006 497.89,-20.2265"/>
<polygon fill="midnightblue" stroke="midnightblue" points="498.755,-23.6184 507.645,-17.856 497.102,-16.8163 498.755,-23.6184"/>
</g>
<!-- Node8&#45;&gt;Node13 -->
<g id="edge13" class="edge"><title>Node8&#45;&gt;Node13</title>
<path fill="none" stroke="midnightblue" d="M285.192,-56.324C271.523,-48.1849 253.124,-35.8395 239.944,-26.0874"/>
<polygon fill="midnightblue" stroke="midnightblue" points="241.843,-23.1334 231.775,-19.8339 237.588,-28.6917 241.843,-23.1334"/>
</g>
<!-- Node13&#45;&gt;Node8 -->
<g id="edge14" class="edge"><title>Node13&#45;&gt;Node8</title>
<path fill="none" stroke="midnightblue" d="M241.771,-19.6545C255.514,-27.8346 274.051,-40.2772 287.256,-50.0607"/>
<polygon fill="midnightblue" stroke="midnightblue" points="285.357,-53.0151 295.422,-56.324 289.617,-47.4608 285.357,-53.0151"/>
</g>
</g>
</svg>
        <g id="navigator" transform="translate(0 0)" fill="#404254">
                <rect fill="#f2f5e9" fill-opacity="0.5" stroke="#606060" stroke-width=".5" x="0" y="0" width="60" height="60"/>
                <use id="zoomplus" xlink:href="#zoomPlus" x="17" y="9" onmousedown="handleZoom(evt,'in')"/>
                <use id="zoomminus" xlink:href="#zoomMin" x="42" y="9" onmousedown="handleZoom(evt,'out')"/>
                <use id="reset" xlink:href="#resetDef" x="30" y="36" onmousedown="handleReset()"/>
                <g id="arrowUp" xlink:href="#dirArrow" transform="translate(30 24)" onmousedown="handlePan(0,-1)">
                  <use xlink:href="#rim" fill="#404040">
                        <set attributeName="fill" to="#808080" begin="arrowUp.mouseover" end="arrowUp.mouseout"/>
                  </use>
                  <path fill="none" stroke="white" stroke-width="1.5" d="M0,-3.0v7 M-2.5,-0.5L0,-3.0L2.5,-0.5"/>
                </g>
                <g id="arrowRight" xlink:href="#dirArrow" transform="rotate(90) translate(36 -43)" onmousedown="handlePan(1,0)">
                  <use xlink:href="#rim" fill="#404040">
                        <set attributeName="fill" to="#808080" begin="arrowRight.mouseover" end="arrowRight.mouseout"/>
                  </use>
                  <path fill="none" stroke="white" stroke-width="1.5" d="M0,-3.0v7 M-2.5,-0.5L0,-3.0L2.5,-0.5"/>
                </g>
                <g id="arrowDown" xlink:href="#dirArrow" transform="rotate(180) translate(-30 -48)" onmousedown="handlePan(0,1)">
                  <use xlink:href="#rim" fill="#404040">
                        <set attributeName="fill" to="#808080" begin="arrowDown.mouseover" end="arrowDown.mouseout"/>
                  </use>
                  <path fill="none" stroke="white" stroke-width="1.5" d="M0,-3.0v7 M-2.5,-0.5L0,-3.0L2.5,-0.5"/>
                </g>
                <g id="arrowLeft" xlink:href="#dirArrow" transform="rotate(270) translate(-36 17)" onmousedown="handlePan(-1,0)">
                  <use xlink:href="#rim" fill="#404040">
                        <set attributeName="fill" to="#808080" begin="arrowLeft.mouseover" end="arrowLeft.mouseout"/>
                  </use>
                  <path fill="none" stroke="white" stroke-width="1.5" d="M0,-3.0v7 M-2.5,-0.5L0,-3.0L2.5,-0.5"/>
                </g>
        </g>
        <svg viewBox="0 0 15 15" width="100%" height="30px" preserveAspectRatio="xMaxYMin meet">
         <g id="arrow_out" transform="scale(0.3 0.3)">
          <a xlink:href="_subscription_8hpp__incl_org.svg" target="_base">
           <rect id="button" ry="5" rx="5" y="6" x="6" height="38" width="38"
                fill="#f2f5e9" fill-opacity="0.5" stroke="#606060" stroke-width="1.0"/>
           <path id="arrow"
             d="M 11.500037,31.436501 C 11.940474,20.09759 22.043105,11.32322 32.158766,21.979434 L 37.068811,17.246167 C 37.068811,17.246167 37.088388,32 37.088388,32 L 22.160133,31.978069 C 22.160133,31.978069 26.997745,27.140456 26.997745,27.140456 C 18.528582,18.264221 13.291696,25.230495 11.500037,31.436501 z"
             style="fill:#404040;"/>
          </a>
         </g>
        </svg>
</svg>
