<?xml version="1.0" encoding="UTF-8" standalone="no"?>
<!DOCTYPE svg PUBLIC "-//W3C//DTD SVG 1.1//EN"
 "http://www.w3.org/Graphics/SVG/1.1/DTD/svg11.dtd">
<!-- Generated by graphviz version 2.40.1 (20161225.0304)
 -->
<!-- Title: Ekf::resetWindCovariance Pages: 1 -->
<svg width="882pt" height="959pt"
 viewBox="0.00 0.00 882.00 959.00" xmlns="http://www.w3.org/2000/svg" xmlns:xlink="http://www.w3.org/1999/xlink">
<g id="graph0" class="graph" transform="scale(1 1) rotate(0) translate(4 955)">
<title>Ekf::resetWindCovariance</title>
<polygon fill="#ffffff" stroke="transparent" points="-4,4 -4,-955 878,-955 878,4 -4,4"/>
<!-- Node4014 -->
<g id="node1" class="node">
<title>Node4014</title>
<polygon fill="#bfbfbf" stroke="#000000" points="0,-456.5 0,-475.5 131,-475.5 131,-456.5 0,-456.5"/>
<text text-anchor="middle" x="65.5" y="-463.5" font-family="Helvetica,sans-Serif" font-size="10.00" fill="#000000">Ekf::resetWindCovariance</text>
</g>
<!-- Node4015 -->
<g id="node2" class="node">
<title>Node4015</title>
<g id="a_node2"><a xlink:href="../../dd/d47/namespacemath.html#a4a49a65edaf29055a3cb021908a031d7" target="_top" xlink:title="math::constrain">
<polygon fill="#ffffff" stroke="#000000" points="501,-836.5 501,-855.5 585,-855.5 585,-836.5 501,-836.5"/>
<text text-anchor="middle" x="543" y="-843.5" font-family="Helvetica,sans-Serif" font-size="10.00" fill="#000000">math::constrain</text>
</a>
</g>
</g>
<!-- Node4014&#45;&gt;Node4015 -->
<g id="edge1" class="edge">
<title>Node4014&#45;&gt;Node4015</title>
<path fill="none" stroke="#191970" d="M66.6427,-475.5399C71.7046,-514.3253 95.1294,-662.5567 167,-756 203.675,-803.6834 221.9851,-812.815 279,-832 349.2915,-855.6525 436.0272,-855.024 490.4435,-851.3433"/>
<polygon fill="#191970" stroke="#191970" points="490.833,-854.8242 500.5489,-850.5993 490.3189,-847.8431 490.833,-854.8242"/>
</g>
<!-- Node4016 -->
<g id="node3" class="node">
<title>Node4016</title>
<g id="a_node3"><a xlink:href="../../d8/da1/integration_8cpp.html#af5ba872dd09316732300733cc164ac1a" target="_top" xlink:title="f">
<polygon fill="#ffffff" stroke="#000000" points="528.5,-779.5 528.5,-798.5 557.5,-798.5 557.5,-779.5 528.5,-779.5"/>
<text text-anchor="middle" x="543" y="-786.5" font-family="Helvetica,sans-Serif" font-size="10.00" fill="#000000">f</text>
</a>
</g>
</g>
<!-- Node4014&#45;&gt;Node4016 -->
<g id="edge2" class="edge">
<title>Node4014&#45;&gt;Node4016</title>
<path fill="none" stroke="#191970" d="M67.8286,-475.5145C79.9169,-522.558 140.3559,-731.1092 279,-808 357.5982,-851.5899 470.1978,-817.4824 518.9644,-798.9573"/>
<polygon fill="#191970" stroke="#191970" points="520.332,-802.1806 528.3666,-795.2743 517.7789,-795.6628 520.332,-802.1806"/>
</g>
<!-- Node4019 -->
<g id="node6" class="node">
<title>Node4019</title>
<g id="a_node6"><a xlink:href="../../dd/d47/namespacemath.html#a7e34369248d5d1565073dc552dd90d5c" target="_top" xlink:title="math::radians">
<polygon fill="#ffffff" stroke="#000000" points="167,-.5 167,-19.5 243,-19.5 243,-.5 167,-.5"/>
<text text-anchor="middle" x="205" y="-7.5" font-family="Helvetica,sans-Serif" font-size="10.00" fill="#000000">math::radians</text>
</a>
</g>
</g>
<!-- Node4014&#45;&gt;Node4019 -->
<g id="edge6" class="edge">
<title>Node4014&#45;&gt;Node4019</title>
<path fill="none" stroke="#191970" d="M66.7869,-456.1474C74.4484,-398.6294 115.4725,-106.3105 167,-34 169.2131,-30.8942 171.9663,-28.0995 174.9726,-25.6104"/>
<polygon fill="#191970" stroke="#191970" points="177.1622,-28.3494 183.3248,-19.7312 173.1329,-22.6253 177.1622,-28.3494"/>
</g>
<!-- Node4020 -->
<g id="node7" class="node">
<title>Node4020</title>
<g id="a_node7"><a xlink:href="../../dc/d66/class_ekf.html#ac557eacd06bd597b3ab097cab74c1c39" target="_top" xlink:title="Ekf::sq">
<polygon fill="#ffffff" stroke="#000000" points="181,-456.5 181,-475.5 229,-475.5 229,-456.5 181,-456.5"/>
<text text-anchor="middle" x="205" y="-463.5" font-family="Helvetica,sans-Serif" font-size="10.00" fill="#000000">Ekf::sq</text>
</a>
</g>
</g>
<!-- Node4014&#45;&gt;Node4020 -->
<g id="edge7" class="edge">
<title>Node4014&#45;&gt;Node4020</title>
<path fill="none" stroke="#191970" d="M131.1652,-459.2603C144.9388,-459.1908 158.9256,-459.4733 170.9672,-460.1078"/>
<polygon fill="#191970" stroke="#191970" points="170.7893,-463.6035 180.9943,-460.756 171.241,-456.6181 170.7893,-463.6035"/>
</g>
<!-- Node4031 -->
<g id="node18" class="node">
<title>Node4031</title>
<g id="a_node18"><a xlink:href="../../dc/d66/class_ekf.html#a49a4da2e831b46876b307eb8e0560a12" target="_top" xlink:title="Ekf::zeroRows">
<polygon fill="#ffffff" stroke="#000000" points="792,-247.5 792,-266.5 874,-266.5 874,-247.5 792,-247.5"/>
<text text-anchor="middle" x="833" y="-254.5" font-family="Helvetica,sans-Serif" font-size="10.00" fill="#000000">Ekf::zeroRows</text>
</a>
</g>
</g>
<!-- Node4014&#45;&gt;Node4031 -->
<g id="edge56" class="edge">
<title>Node4014&#45;&gt;Node4031</title>
<path fill="none" stroke="#191970" d="M67.2384,-456.4841C79.1986,-394.2647 155.0774,-48 362.5,-48 362.5,-48 362.5,-48 543,-48 643.217,-48 678.926,-57.9449 756,-122 793.7206,-153.349 816.6959,-208.2447 826.8477,-237.4415"/>
<polygon fill="#191970" stroke="#191970" points="823.6391,-238.8849 830.1146,-247.2705 830.2818,-236.677 823.6391,-238.8849"/>
</g>
<!-- Node4032 -->
<g id="node19" class="node">
<title>Node4032</title>
<g id="a_node19"><a xlink:href="../../dc/d66/class_ekf.html#a421983af018ca82e2c5c0ba3fa5ad769" target="_top" xlink:title="Ekf::zeroCols">
<polygon fill="#ffffff" stroke="#000000" points="794.5,-361.5 794.5,-380.5 871.5,-380.5 871.5,-361.5 794.5,-361.5"/>
<text text-anchor="middle" x="833" y="-368.5" font-family="Helvetica,sans-Serif" font-size="10.00" fill="#000000">Ekf::zeroCols</text>
</a>
</g>
</g>
<!-- Node4014&#45;&gt;Node4032 -->
<g id="edge55" class="edge">
<title>Node4014&#45;&gt;Node4032</title>
<path fill="none" stroke="#191970" d="M65.8017,-475.7705C67.6294,-519.1071 80.3293,-696.4251 167,-801 229.5381,-876.4571 264.496,-903 362.5,-903 362.5,-903 362.5,-903 543,-903 781.051,-903 824.8496,-487.2772 831.8081,-390.8191"/>
<polygon fill="#191970" stroke="#191970" points="835.3105,-390.899 832.4846,-380.688 828.326,-390.4325 835.3105,-390.899"/>
</g>
<!-- Node4017 -->
<g id="node4" class="node">
<title>Node4017</title>
<g id="a_node4"><a xlink:href="../../d0/de4/namespacematrix.html#a761295febb473ca1226309513533e801" target="_top" xlink:title="matrix::sin">
<polygon fill="#ffffff" stroke="#000000" points="667,-931.5 667,-950.5 729,-950.5 729,-931.5 667,-931.5"/>
<text text-anchor="middle" x="698" y="-938.5" font-family="Helvetica,sans-Serif" font-size="10.00" fill="#000000">matrix::sin</text>
</a>
</g>
</g>
<!-- Node4016&#45;&gt;Node4017 -->
<g id="edge3" class="edge">
<title>Node4016&#45;&gt;Node4017</title>
<path fill="none" stroke="#191970" d="M557.7032,-796.397C570.6542,-803.3069 589.6379,-814.424 604,-827 637.7343,-856.539 669.2253,-898.8882 685.809,-922.7824"/>
<polygon fill="#191970" stroke="#191970" points="683.0634,-924.9679 691.5955,-931.2491 688.8426,-921.0181 683.0634,-924.9679"/>
</g>
<!-- Node4018 -->
<g id="node5" class="node">
<title>Node4018</title>
<g id="a_node5"><a xlink:href="../../d0/de4/namespacematrix.html#a2e09123c750ed3a0315a31f3b27a3ed9" target="_top" xlink:title="matrix::cos">
<polygon fill="#ffffff" stroke="#000000" points="800.5,-931.5 800.5,-950.5 865.5,-950.5 865.5,-931.5 800.5,-931.5"/>
<text text-anchor="middle" x="833" y="-938.5" font-family="Helvetica,sans-Serif" font-size="10.00" fill="#000000">matrix::cos</text>
</a>
</g>
</g>
<!-- Node4017&#45;&gt;Node4018 -->
<g id="edge4" class="edge">
<title>Node4017&#45;&gt;Node4018</title>
<path fill="none" stroke="#191970" d="M729.311,-935.1992C747.4853,-934.1418 770.6289,-933.9678 790.4383,-934.6773"/>
<polygon fill="#191970" stroke="#191970" points="790.3018,-938.1746 800.4493,-935.1289 790.6172,-931.1818 790.3018,-938.1746"/>
</g>
<!-- Node4018&#45;&gt;Node4017 -->
<g id="edge5" class="edge">
<title>Node4018&#45;&gt;Node4017</title>
<path fill="none" stroke="#191970" d="M800.4493,-946.8711C782.1391,-947.8839 759.0909,-948.0214 739.4947,-947.2835"/>
<polygon fill="#191970" stroke="#191970" points="739.4656,-943.7782 729.311,-946.8008 739.1341,-950.7704 739.4656,-943.7782"/>
</g>
<!-- Node4020&#45;&gt;Node4014 -->
<g id="edge52" class="edge">
<title>Node4020&#45;&gt;Node4014</title>
<path fill="none" stroke="#191970" d="M180.9943,-471.244C169.7362,-472.1272 155.6338,-472.6219 141.1892,-472.7282"/>
<polygon fill="#191970" stroke="#191970" points="141.1611,-469.2281 131.1652,-472.7397 141.1692,-476.2281 141.1611,-469.2281"/>
</g>
<!-- Node4021 -->
<g id="node8" class="node">
<title>Node4021</title>
<g id="a_node8"><a xlink:href="../../dc/d66/class_ekf.html#aa34f4d9d89e096b542a287fbe1b91d92" target="_top" xlink:title="Ekf::setControlBaroHeight">
<polygon fill="#ffffff" stroke="#000000" points="297,-551.5 297,-570.5 428,-570.5 428,-551.5 297,-551.5"/>
<text text-anchor="middle" x="362.5" y="-558.5" font-family="Helvetica,sans-Serif" font-size="10.00" fill="#000000">Ekf::setControlBaroHeight</text>
</a>
</g>
</g>
<!-- Node4020&#45;&gt;Node4021 -->
<g id="edge8" class="edge">
<title>Node4020&#45;&gt;Node4021</title>
<path fill="none" stroke="#191970" d="M211.4984,-475.6527C223.0501,-492.0139 248.8048,-525.0612 279,-542 282.9729,-544.2287 287.191,-546.1961 291.5386,-547.9328"/>
<polygon fill="#191970" stroke="#191970" points="290.6238,-551.3223 301.2185,-551.3782 292.9711,-544.7275 290.6238,-551.3223"/>
</g>
<!-- Node4022 -->
<g id="node9" class="node">
<title>Node4022</title>
<g id="a_node9"><a xlink:href="../../dc/d66/class_ekf.html#a3a839968be88e4e47f265d8f62b0155a" target="_top" xlink:title="Ekf::setControlRangeHeight">
<polygon fill="#ffffff" stroke="#000000" points="292.5,-513.5 292.5,-532.5 432.5,-532.5 432.5,-513.5 292.5,-513.5"/>
<text text-anchor="middle" x="362.5" y="-520.5" font-family="Helvetica,sans-Serif" font-size="10.00" fill="#000000">Ekf::setControlRangeHeight</text>
</a>
</g>
</g>
<!-- Node4020&#45;&gt;Node4022 -->
<g id="edge9" class="edge">
<title>Node4020&#45;&gt;Node4022</title>
<path fill="none" stroke="#191970" d="M220.6439,-475.5022C235.274,-484.0282 257.9647,-496.3438 279,-504 286.0911,-506.581 293.6528,-508.8854 301.2198,-510.9215"/>
<polygon fill="#191970" stroke="#191970" points="300.5768,-514.3694 311.1312,-513.4442 302.3035,-507.5856 300.5768,-514.3694"/>
</g>
<!-- Node4023 -->
<g id="node10" class="node">
<title>Node4023</title>
<g id="a_node10"><a xlink:href="../../dc/d66/class_ekf.html#a8b687c82c5dfbdeebae02685783fc2ef" target="_top" xlink:title="Ekf::setControlGPSHeight">
<polygon fill="#ffffff" stroke="#000000" points="296.5,-475.5 296.5,-494.5 428.5,-494.5 428.5,-475.5 296.5,-475.5"/>
<text text-anchor="middle" x="362.5" y="-482.5" font-family="Helvetica,sans-Serif" font-size="10.00" fill="#000000">Ekf::setControlGPSHeight</text>
</a>
</g>
</g>
<!-- Node4020&#45;&gt;Node4023 -->
<g id="edge10" class="edge">
<title>Node4020&#45;&gt;Node4023</title>
<path fill="none" stroke="#191970" d="M229.2642,-468.9271C244.6884,-470.7878 265.5823,-473.3083 286.2467,-475.8012"/>
<polygon fill="#191970" stroke="#191970" points="286.0004,-479.2968 296.3476,-477.0197 286.8388,-472.3472 286.0004,-479.2968"/>
</g>
<!-- Node4024 -->
<g id="node11" class="node">
<title>Node4024</title>
<g id="a_node11"><a xlink:href="../../dc/d66/class_ekf.html#aaf80ea102825ba5755fba7f2a7446578" target="_top" xlink:title="Ekf::setControlEVHeight">
<polygon fill="#ffffff" stroke="#000000" points="300,-437.5 300,-456.5 425,-456.5 425,-437.5 300,-437.5"/>
<text text-anchor="middle" x="362.5" y="-444.5" font-family="Helvetica,sans-Serif" font-size="10.00" fill="#000000">Ekf::setControlEVHeight</text>
</a>
</g>
</g>
<!-- Node4020&#45;&gt;Node4024 -->
<g id="edge11" class="edge">
<title>Node4020&#45;&gt;Node4024</title>
<path fill="none" stroke="#191970" d="M229.2642,-463.0729C245.5769,-461.105 268.0076,-458.3991 289.8144,-455.7684"/>
<polygon fill="#191970" stroke="#191970" points="290.2569,-459.2405 299.7657,-454.568 289.4184,-452.2909 290.2569,-459.2405"/>
</g>
<!-- Node4025 -->
<g id="node12" class="node">
<title>Node4025</title>
<g id="a_node12"><a xlink:href="../../dc/d66/class_ekf.html#aa3557241350622e78d0ef053e28177dc" target="_top" xlink:title="Ekf::stopMagFusion">
<polygon fill="#ffffff" stroke="#000000" points="310.5,-323.5 310.5,-342.5 414.5,-342.5 414.5,-323.5 310.5,-323.5"/>
<text text-anchor="middle" x="362.5" y="-330.5" font-family="Helvetica,sans-Serif" font-size="10.00" fill="#000000">Ekf::stopMagFusion</text>
</a>
</g>
</g>
<!-- Node4020&#45;&gt;Node4025 -->
<g id="edge12" class="edge">
<title>Node4020&#45;&gt;Node4025</title>
<path fill="none" stroke="#191970" d="M208.3941,-456.234C216.6704,-433.9418 240.1095,-379.1458 279,-352 285.5146,-347.4528 292.9477,-343.9761 300.6321,-341.3211"/>
<polygon fill="#191970" stroke="#191970" points="301.8756,-344.6023 310.4499,-338.3788 299.866,-337.897 301.8756,-344.6023"/>
</g>
<!-- Node4026 -->
<g id="node13" class="node">
<title>Node4026</title>
<g id="a_node13"><a xlink:href="../../dc/d66/class_ekf.html#aa148e57137bf741e4ea5797152d1fe19" target="_top" xlink:title="Ekf::stopMag3DFusion">
<polygon fill="#ffffff" stroke="#000000" points="484.5,-456.5 484.5,-475.5 601.5,-475.5 601.5,-456.5 484.5,-456.5"/>
<text text-anchor="middle" x="543" y="-463.5" font-family="Helvetica,sans-Serif" font-size="10.00" fill="#000000">Ekf::stopMag3DFusion</text>
</a>
</g>
</g>
<!-- Node4020&#45;&gt;Node4026 -->
<g id="edge20" class="edge">
<title>Node4020&#45;&gt;Node4026</title>
<path fill="none" stroke="#191970" d="M218.6713,-456.4421C232.9573,-447.085 256.3993,-433.4638 279,-428 351.144,-410.5591 373.0674,-414.2239 446,-428 446.4273,-428.0807 481.379,-441.7906 509.2015,-452.718"/>
<polygon fill="#191970" stroke="#191970" points="508.0897,-456.0415 518.6771,-456.4401 510.6491,-449.5262 508.0897,-456.0415"/>
</g>
<!-- Node4028 -->
<g id="node15" class="node">
<title>Node4028</title>
<g id="a_node15"><a xlink:href="../../dc/d66/class_ekf.html#ab01e08a118d9778ea0a79d552f286ba3" target="_top" xlink:title="Ekf::stopMagHdgFusion">
<polygon fill="#ffffff" stroke="#000000" points="482,-266.5 482,-285.5 604,-285.5 604,-266.5 482,-266.5"/>
<text text-anchor="middle" x="543" y="-273.5" font-family="Helvetica,sans-Serif" font-size="10.00" fill="#000000">Ekf::stopMagHdgFusion</text>
</a>
</g>
</g>
<!-- Node4020&#45;&gt;Node4028 -->
<g id="edge21" class="edge">
<title>Node4020&#45;&gt;Node4028</title>
<path fill="none" stroke="#191970" d="M207.3019,-456.1231C215.882,-420.2453 247.1474,-297.7775 279,-276 347.0318,-229.487 449.7358,-248.3134 504.8436,-263.6397"/>
<polygon fill="#191970" stroke="#191970" points="503.9821,-267.0339 514.5605,-266.4442 505.9232,-260.3084 503.9821,-267.0339"/>
</g>
<!-- Node4020&#45;&gt;Node4031 -->
<g id="edge28" class="edge">
<title>Node4020&#45;&gt;Node4031</title>
<path fill="none" stroke="#191970" d="M205.3786,-456.2134C207.6673,-402.782 221.5474,-146.999 279,-100 334.9386,-54.2394 534.9629,-90.6216 604,-112 691.3905,-139.0618 778.1191,-208.6469 814.7901,-240.5609"/>
<polygon fill="#191970" stroke="#191970" points="812.805,-243.477 822.6191,-247.4688 817.4363,-238.2281 812.805,-243.477"/>
</g>
<!-- Node4020&#45;&gt;Node4032 -->
<g id="edge29" class="edge">
<title>Node4020&#45;&gt;Node4032</title>
<path fill="none" stroke="#191970" d="M206.2474,-475.7939C210.4243,-503.9728 226.7422,-585.3196 279,-618 401.4776,-694.5938 461.1121,-635.2229 604,-614 673.3266,-603.7031 704.1142,-619.1175 756,-572 810.2506,-522.735 826.5698,-430.9999 831.2364,-390.7701"/>
<polygon fill="#191970" stroke="#191970" points="834.7347,-390.9669 832.2843,-380.6593 827.772,-390.2452 834.7347,-390.9669"/>
</g>
<!-- Node4033 -->
<g id="node20" class="node">
<title>Node4033</title>
<g id="a_node20"><a xlink:href="../../dc/d66/class_ekf.html#a0828d9e222ff448c3686d36d3eafbad3" target="_top" xlink:title="Ekf::startMagHdgFusion">
<polygon fill="#ffffff" stroke="#000000" points="301,-361.5 301,-380.5 424,-380.5 424,-361.5 301,-361.5"/>
<text text-anchor="middle" x="362.5" y="-368.5" font-family="Helvetica,sans-Serif" font-size="10.00" fill="#000000">Ekf::startMagHdgFusion</text>
</a>
</g>
</g>
<!-- Node4020&#45;&gt;Node4033 -->
<g id="edge22" class="edge">
<title>Node4020&#45;&gt;Node4033</title>
<path fill="none" stroke="#191970" d="M212.5304,-456.1887C224.8009,-440.8716 250.6079,-411.3429 279,-395 286.9681,-390.4135 295.8755,-386.6504 304.8231,-383.5788"/>
<polygon fill="#191970" stroke="#191970" points="306.0299,-386.868 314.5056,-380.5108 303.9155,-380.1949 306.0299,-386.868"/>
</g>
<!-- Node4034 -->
<g id="node21" class="node">
<title>Node4034</title>
<g id="a_node21"><a xlink:href="../../dc/d66/class_ekf.html#a8722aaa3baa6b8fb1a837b9478f35105" target="_top" xlink:title="Ekf::startMag3DFusion">
<polygon fill="#ffffff" stroke="#000000" points="303.5,-209.5 303.5,-228.5 421.5,-228.5 421.5,-209.5 303.5,-209.5"/>
<text text-anchor="middle" x="362.5" y="-216.5" font-family="Helvetica,sans-Serif" font-size="10.00" fill="#000000">Ekf::startMag3DFusion</text>
</a>
</g>
</g>
<!-- Node4020&#45;&gt;Node4034 -->
<g id="edge24" class="edge">
<title>Node4020&#45;&gt;Node4034</title>
<path fill="none" stroke="#191970" d="M206.9483,-456.3855C214.9613,-417.7285 246.4884,-274.22 279,-243 283.3909,-238.7835 288.4727,-235.3 293.9184,-232.4232"/>
<polygon fill="#191970" stroke="#191970" points="295.7106,-235.4534 303.3689,-228.1321 292.8165,-229.0796 295.7106,-235.4534"/>
</g>
<!-- Node4036 -->
<g id="node23" class="node">
<title>Node4036</title>
<g id="a_node23"><a xlink:href="../../dc/d66/class_ekf.html#a5b85c3509e588863acecef05b7d0a195" target="_top" xlink:title="Ekf::zeroOffDiag">
<polygon fill="#ffffff" stroke="#000000" points="653,-247.5 653,-266.5 743,-266.5 743,-247.5 653,-247.5"/>
<text text-anchor="middle" x="698" y="-254.5" font-family="Helvetica,sans-Serif" font-size="10.00" fill="#000000">Ekf::zeroOffDiag</text>
</a>
</g>
</g>
<!-- Node4020&#45;&gt;Node4036 -->
<g id="edge30" class="edge">
<title>Node4020&#45;&gt;Node4036</title>
<path fill="none" stroke="#191970" d="M206.2106,-456.4767C211.9323,-413.0602 237.722,-234.5143 279,-200 334.5007,-153.5936 540.641,-146.0785 604,-181 630.241,-195.4632 616.3668,-219.5813 640,-238 642.3114,-239.8014 644.8003,-241.4353 647.4014,-242.9169"/>
<polygon fill="#191970" stroke="#191970" points="646.0593,-246.1563 656.5822,-247.3896 649.1251,-239.8634 646.0593,-246.1563"/>
</g>
<!-- Node4037 -->
<g id="node24" class="node">
<title>Node4037</title>
<g id="a_node24"><a xlink:href="../../dc/d66/class_ekf.html#a3e1cf1f594a9d829c03e3672816a7f07" target="_top" xlink:title="Ekf::setDiag">
<polygon fill="#ffffff" stroke="#000000" points="662.5,-209.5 662.5,-228.5 733.5,-228.5 733.5,-209.5 662.5,-209.5"/>
<text text-anchor="middle" x="698" y="-216.5" font-family="Helvetica,sans-Serif" font-size="10.00" fill="#000000">Ekf::setDiag</text>
</a>
</g>
</g>
<!-- Node4020&#45;&gt;Node4037 -->
<g id="edge33" class="edge">
<title>Node4020&#45;&gt;Node4037</title>
<path fill="none" stroke="#191970" d="M205.7307,-456.4346C209.617,-408.377 229.5699,-194.0486 279,-155 392.3442,-65.4607 465.9592,-112.4684 604,-155 633.9966,-164.2422 662.9895,-186.6886 680.6563,-202.3742"/>
<polygon fill="#191970" stroke="#191970" points="678.6359,-205.27 688.374,-209.4438 683.3642,-200.1082 678.6359,-205.27"/>
</g>
<!-- Node4038 -->
<g id="node25" class="node">
<title>Node4038</title>
<g id="a_node25"><a xlink:href="../../dc/d66/class_ekf.html#a235e6e03f6e6611fd053b395adc71b3a" target="_top" xlink:title="Ekf::calcOptFlowMeasVar">
<polygon fill="#ffffff" stroke="#000000" points="297,-779.5 297,-798.5 428,-798.5 428,-779.5 297,-779.5"/>
<text text-anchor="middle" x="362.5" y="-786.5" font-family="Helvetica,sans-Serif" font-size="10.00" fill="#000000">Ekf::calcOptFlowMeasVar</text>
</a>
</g>
</g>
<!-- Node4020&#45;&gt;Node4038 -->
<g id="edge36" class="edge">
<title>Node4020&#45;&gt;Node4038</title>
<path fill="none" stroke="#191970" d="M206.3346,-475.6049C212.05,-522.0375 236.143,-718.7829 279,-761 286.9468,-768.8282 297.4082,-773.6998 308.2275,-776.902"/>
<polygon fill="#191970" stroke="#191970" points="307.6507,-780.3659 318.2024,-779.4105 309.3579,-773.5772 307.6507,-780.3659"/>
</g>
<!-- Node4039 -->
<g id="node26" class="node">
<title>Node4039</title>
<g id="a_node26"><a xlink:href="../../dc/d66/class_ekf.html#ab3c6e783a4a9cd982d1fb2e01a4cd54b" target="_top" xlink:title="Ekf::calcRotVecVariances">
<polygon fill="#ffffff" stroke="#000000" points="296.5,-741.5 296.5,-760.5 428.5,-760.5 428.5,-741.5 296.5,-741.5"/>
<text text-anchor="middle" x="362.5" y="-748.5" font-family="Helvetica,sans-Serif" font-size="10.00" fill="#000000">Ekf::calcRotVecVariances</text>
</a>
</g>
</g>
<!-- Node4020&#45;&gt;Node4039 -->
<g id="edge40" class="edge">
<title>Node4020&#45;&gt;Node4039</title>
<path fill="none" stroke="#191970" d="M206.3584,-475.6931C212.6301,-519.0818 240.1453,-694.9521 279,-732 281.4748,-734.3597 284.1788,-736.4487 287.051,-738.2967"/>
<polygon fill="#191970" stroke="#191970" points="285.6429,-741.5128 296.1109,-743.1471 288.9468,-735.3415 285.6429,-741.5128"/>
</g>
<!-- Node4040 -->
<g id="node27" class="node">
<title>Node4040</title>
<g id="a_node27"><a xlink:href="../../dc/d66/class_ekf.html#a8c9fb4e5919264cdf44c8e940c488443" target="_top" xlink:title="Ekf::initialiseQuatCovariances">
<polygon fill="#ffffff" stroke="#000000" points="288,-589.5 288,-608.5 437,-608.5 437,-589.5 288,-589.5"/>
<text text-anchor="middle" x="362.5" y="-596.5" font-family="Helvetica,sans-Serif" font-size="10.00" fill="#000000">Ekf::initialiseQuatCovariances</text>
</a>
</g>
</g>
<!-- Node4020&#45;&gt;Node4040 -->
<g id="edge42" class="edge">
<title>Node4020&#45;&gt;Node4040</title>
<path fill="none" stroke="#191970" d="M208.3941,-475.766C216.6704,-498.0582 240.1095,-552.8542 279,-580 281.743,-581.9146 284.6488,-583.6394 287.6677,-585.1931"/>
<polygon fill="#191970" stroke="#191970" points="286.4549,-588.4844 297.0136,-589.3589 289.3048,-582.0908 286.4549,-588.4844"/>
</g>
<!-- Node4041 -->
<g id="node28" class="node">
<title>Node4041</title>
<g id="a_node28"><a xlink:href="../../dc/d66/class_ekf.html#a43b43d423a1c6d45dc4cf6de7fe3bdfe" target="_top" xlink:title="Ekf::resetMagRelatedCovariances">
<polygon fill="#ffffff" stroke="#000000" points="279,-285.5 279,-304.5 446,-304.5 446,-285.5 279,-285.5"/>
<text text-anchor="middle" x="362.5" y="-292.5" font-family="Helvetica,sans-Serif" font-size="10.00" fill="#000000">Ekf::resetMagRelatedCovariances</text>
</a>
</g>
</g>
<!-- Node4020&#45;&gt;Node4041 -->
<g id="edge46" class="edge">
<title>Node4020&#45;&gt;Node4041</title>
<path fill="none" stroke="#191970" d="M206.0943,-456.1334C210.2281,-428.5654 226.9742,-353.2975 271.6303,-311.3976"/>
<polygon fill="#191970" stroke="#191970" points="274.0741,-313.9116 279.3505,-304.7241 269.4963,-308.6159 274.0741,-313.9116"/>
</g>
<!-- Node4042 -->
<g id="node29" class="node">
<title>Node4042</title>
<g id="a_node29"><a xlink:href="../../dc/d66/class_ekf.html#a999d2ee6ba6c99901f9de895101d68b2" target="_top" xlink:title="Ekf::resetWindStates">
<polygon fill="#ffffff" stroke="#000000" points="307.5,-703.5 307.5,-722.5 417.5,-722.5 417.5,-703.5 307.5,-703.5"/>
<text text-anchor="middle" x="362.5" y="-710.5" font-family="Helvetica,sans-Serif" font-size="10.00" fill="#000000">Ekf::resetWindStates</text>
</a>
</g>
</g>
<!-- Node4020&#45;&gt;Node4042 -->
<g id="edge53" class="edge">
<title>Node4020&#45;&gt;Node4042</title>
<path fill="none" stroke="#191970" d="M206.8158,-475.6126C214.4305,-514.9326 244.975,-662.9104 279,-694 284.4328,-698.9641 290.8865,-702.7189 297.7633,-705.5464"/>
<polygon fill="#191970" stroke="#191970" points="296.7519,-708.8999 307.3466,-708.8538 299.0356,-702.2828 296.7519,-708.8999"/>
</g>
<!-- Node4043 -->
<g id="node30" class="node">
<title>Node4043</title>
<g id="a_node30"><a xlink:href="../../dc/d66/class_ekf.html#a5d30376fa415773e9f477b012ecc522f" target="_top" xlink:title="Ekf::updateRangeDataContinuity">
<polygon fill="#ffffff" stroke="#000000" points="282,-665.5 282,-684.5 443,-684.5 443,-665.5 282,-665.5"/>
<text text-anchor="middle" x="362.5" y="-672.5" font-family="Helvetica,sans-Serif" font-size="10.00" fill="#000000">Ekf::updateRangeDataContinuity</text>
</a>
</g>
</g>
<!-- Node4020&#45;&gt;Node4043 -->
<g id="edge54" class="edge">
<title>Node4020&#45;&gt;Node4043</title>
<path fill="none" stroke="#191970" d="M205.936,-475.7226C209.4109,-506.3288 224.3451,-601.5855 279,-651 283.4439,-655.0178 288.5189,-658.3667 293.9221,-661.1573"/>
<polygon fill="#191970" stroke="#191970" points="292.7148,-664.4516 303.2718,-665.3465 295.5771,-658.0635 292.7148,-664.4516"/>
</g>
<!-- Node4025&#45;&gt;Node4026 -->
<g id="edge13" class="edge">
<title>Node4025&#45;&gt;Node4026</title>
<path fill="none" stroke="#191970" d="M414.681,-336.8582C425.9875,-339.7612 437.1832,-344.4674 446,-352 478.755,-379.9841 451.4507,-411.6233 482,-442 485.9341,-445.9119 490.582,-449.2042 495.529,-451.9711"/>
<polygon fill="#191970" stroke="#191970" points="494.1425,-455.1886 504.6674,-456.4043 497.1979,-448.8905 494.1425,-455.1886"/>
</g>
<!-- Node4025&#45;&gt;Node4028 -->
<g id="edge15" class="edge">
<title>Node4025&#45;&gt;Node4028</title>
<path fill="none" stroke="#191970" d="M410.0763,-323.4685C421.9048,-320.7449 434.4904,-317.5421 446,-314 468.5222,-307.0687 493.2445,-297.3498 512.0937,-289.4762"/>
<polygon fill="#191970" stroke="#191970" points="513.526,-292.6706 521.3726,-285.5515 510.7991,-286.2236 513.526,-292.6706"/>
</g>
<!-- Node4029 -->
<g id="node16" class="node">
<title>Node4029</title>
<g id="a_node16"><a xlink:href="../../dc/d66/class_ekf.html#afd14b23a4b1aa308c74651d2e91bba47" target="_top" xlink:title="Ekf::clearMagCov">
<polygon fill="#ffffff" stroke="#000000" points="495.5,-380.5 495.5,-399.5 590.5,-399.5 590.5,-380.5 495.5,-380.5"/>
<text text-anchor="middle" x="543" y="-387.5" font-family="Helvetica,sans-Serif" font-size="10.00" fill="#000000">Ekf::clearMagCov</text>
</a>
</g>
</g>
<!-- Node4025&#45;&gt;Node4029 -->
<g id="edge16" class="edge">
<title>Node4025&#45;&gt;Node4029</title>
<path fill="none" stroke="#191970" d="M410.0763,-342.5315C421.9048,-345.2551 434.4904,-348.4579 446,-352 447.6526,-352.5086 481.9621,-365.9765 509.3122,-376.7353"/>
<polygon fill="#191970" stroke="#191970" points="508.044,-379.9974 518.6311,-380.4021 510.6072,-373.4835 508.044,-379.9974"/>
</g>
<!-- Node4027 -->
<g id="node14" class="node">
<title>Node4027</title>
<g id="a_node14"><a xlink:href="../../dc/d66/class_ekf.html#a8a167edfb8ae0887a7f965b6876ea422" target="_top" xlink:title="Ekf::saveMagCovData">
<polygon fill="#ffffff" stroke="#000000" points="640,-437.5 640,-456.5 756,-456.5 756,-437.5 640,-437.5"/>
<text text-anchor="middle" x="698" y="-444.5" font-family="Helvetica,sans-Serif" font-size="10.00" fill="#000000">Ekf::saveMagCovData</text>
</a>
</g>
</g>
<!-- Node4026&#45;&gt;Node4027 -->
<g id="edge14" class="edge">
<title>Node4026&#45;&gt;Node4027</title>
<path fill="none" stroke="#191970" d="M601.5989,-458.8169C610.7906,-457.6902 620.3602,-456.5171 629.7462,-455.3666"/>
<polygon fill="#191970" stroke="#191970" points="630.3326,-458.821 639.8324,-454.1302 629.4808,-451.873 630.3326,-458.821"/>
</g>
<!-- Node4030 -->
<g id="node17" class="node">
<title>Node4030</title>
<g id="a_node17"><a xlink:href="../../dc/d66/class_ekf.html#a54621e0a885dc41a71820a64cae0b13f" target="_top" xlink:title="Ekf::zeroMagCov">
<polygon fill="#ffffff" stroke="#000000" points="651.5,-323.5 651.5,-342.5 744.5,-342.5 744.5,-323.5 651.5,-323.5"/>
<text text-anchor="middle" x="698" y="-330.5" font-family="Helvetica,sans-Serif" font-size="10.00" fill="#000000">Ekf::zeroMagCov</text>
</a>
</g>
</g>
<!-- Node4029&#45;&gt;Node4030 -->
<g id="edge17" class="edge">
<title>Node4029&#45;&gt;Node4030</title>
<path fill="none" stroke="#191970" d="M568.9435,-380.4595C594.5379,-371.0473 633.8621,-356.5862 662.3769,-346.1001"/>
<polygon fill="#191970" stroke="#191970" points="663.7944,-349.3081 671.9718,-342.5716 661.3783,-342.7382 663.7944,-349.3081"/>
</g>
<!-- Node4030&#45;&gt;Node4031 -->
<g id="edge18" class="edge">
<title>Node4030&#45;&gt;Node4031</title>
<path fill="none" stroke="#191970" d="M724.2125,-323.4543C734.3528,-319.4277 745.9211,-314.4169 756,-309 775.9545,-298.2755 797.1882,-283.6685 812.2925,-272.6662"/>
<polygon fill="#191970" stroke="#191970" points="814.4576,-275.4183 820.4214,-266.6613 810.2984,-269.7879 814.4576,-275.4183"/>
</g>
<!-- Node4030&#45;&gt;Node4032 -->
<g id="edge19" class="edge">
<title>Node4030&#45;&gt;Node4032</title>
<path fill="none" stroke="#191970" d="M732.0662,-342.589C749.4135,-347.4719 770.7022,-353.4643 789.2492,-358.685"/>
<polygon fill="#191970" stroke="#191970" points="788.3704,-362.0735 798.9447,-361.4141 790.2671,-355.3354 788.3704,-362.0735"/>
</g>
<!-- Node4033&#45;&gt;Node4026 -->
<g id="edge23" class="edge">
<title>Node4033&#45;&gt;Node4026</title>
<path fill="none" stroke="#191970" d="M415.12,-380.6076C425.9112,-384.0528 436.7785,-388.7112 446,-395 467.7386,-409.825 460.9896,-426.16 482,-442 487.4339,-446.0967 493.6575,-449.589 500.0053,-452.5358"/>
<polygon fill="#191970" stroke="#191970" points="498.7433,-455.8021 509.3171,-456.4696 501.4675,-449.3539 498.7433,-455.8021"/>
</g>
<!-- Node4034&#45;&gt;Node4028 -->
<g id="edge25" class="edge">
<title>Node4034&#45;&gt;Node4028</title>
<path fill="none" stroke="#191970" d="M397.143,-228.5546C412.2046,-232.8123 430.0246,-237.9898 446,-243 466.0494,-249.2878 488.2488,-256.7991 506.3453,-263.0659"/>
<polygon fill="#191970" stroke="#191970" points="505.3423,-266.4227 515.9371,-266.4038 507.643,-259.8116 505.3423,-266.4227"/>
</g>
<!-- Node4034&#45;&gt;Node4030 -->
<g id="edge26" class="edge">
<title>Node4034&#45;&gt;Node4030</title>
<path fill="none" stroke="#191970" d="M421.7451,-219.8177C472.175,-222.467 545.5257,-231.0279 604,-257 635.4347,-270.9621 665.1485,-298.1982 682.4601,-315.9885"/>
<polygon fill="#191970" stroke="#191970" points="680.0825,-318.5678 689.503,-323.4161 685.1621,-313.7514 680.0825,-318.5678"/>
</g>
<!-- Node4035 -->
<g id="node22" class="node">
<title>Node4035</title>
<g id="a_node22"><a xlink:href="../../dc/d66/class_ekf.html#a79d7543c05ace38a2864e3f600597f3e" target="_top" xlink:title="Ekf::loadMagCovData">
<polygon fill="#ffffff" stroke="#000000" points="486.5,-190.5 486.5,-209.5 599.5,-209.5 599.5,-190.5 486.5,-190.5"/>
<text text-anchor="middle" x="543" y="-197.5" font-family="Helvetica,sans-Serif" font-size="10.00" fill="#000000">Ekf::loadMagCovData</text>
</a>
</g>
</g>
<!-- Node4034&#45;&gt;Node4035 -->
<g id="edge27" class="edge">
<title>Node4034&#45;&gt;Node4035</title>
<path fill="none" stroke="#191970" d="M421.6025,-212.7787C439.0449,-210.9426 458.2566,-208.9204 476.15,-207.0368"/>
<polygon fill="#191970" stroke="#191970" points="476.6429,-210.5044 486.2215,-205.9767 475.91,-203.5428 476.6429,-210.5044"/>
</g>
<!-- Node4036&#45;&gt;Node4031 -->
<g id="edge31" class="edge">
<title>Node4036&#45;&gt;Node4031</title>
<path fill="none" stroke="#191970" d="M743.3286,-257C755.5366,-257 768.8331,-257 781.3576,-257"/>
<polygon fill="#191970" stroke="#191970" points="781.6557,-260.5001 791.6557,-257 781.6557,-253.5001 781.6557,-260.5001"/>
</g>
<!-- Node4036&#45;&gt;Node4032 -->
<g id="edge32" class="edge">
<title>Node4036&#45;&gt;Node4032</title>
<path fill="none" stroke="#191970" d="M709.51,-266.7196C732.7238,-286.3223 785.3621,-330.7724 813.8427,-354.8227"/>
<polygon fill="#191970" stroke="#191970" points="811.6206,-357.5273 821.5191,-361.305 816.1369,-352.1791 811.6206,-357.5273"/>
</g>
<!-- Node4037&#45;&gt;Node4031 -->
<g id="edge34" class="edge">
<title>Node4037&#45;&gt;Node4031</title>
<path fill="none" stroke="#191970" d="M732.0662,-228.589C749.4135,-233.4719 770.7022,-239.4643 789.2492,-244.685"/>
<polygon fill="#191970" stroke="#191970" points="788.3704,-248.0735 798.9447,-247.4141 790.2671,-241.3354 788.3704,-248.0735"/>
</g>
<!-- Node4037&#45;&gt;Node4032 -->
<g id="edge35" class="edge">
<title>Node4037&#45;&gt;Node4032</title>
<path fill="none" stroke="#191970" d="M733.514,-226.1281C741.4854,-228.9006 749.4979,-232.7281 756,-238 793.6728,-268.5447 816.6682,-322.7699 826.8357,-351.6455"/>
<polygon fill="#191970" stroke="#191970" points="823.6012,-353.0078 830.1082,-361.369 830.2355,-350.7749 823.6012,-353.0078"/>
</g>
<!-- Node4038&#45;&gt;Node4015 -->
<g id="edge37" class="edge">
<title>Node4038&#45;&gt;Node4015</title>
<path fill="none" stroke="#191970" d="M392.7116,-798.5405C422.9072,-808.076 469.513,-822.7936 502.8148,-833.3099"/>
<polygon fill="#191970" stroke="#191970" points="502.1,-836.7545 512.6898,-836.4284 504.2079,-830.0794 502.1,-836.7545"/>
</g>
<!-- Node4038&#45;&gt;Node4016 -->
<g id="edge38" class="edge">
<title>Node4038&#45;&gt;Node4016</title>
<path fill="none" stroke="#191970" d="M428.1752,-789C459.3601,-789 494.7825,-789 517.9353,-789"/>
<polygon fill="#191970" stroke="#191970" points="518.2433,-792.5001 528.2433,-789 518.2433,-785.5001 518.2433,-792.5001"/>
</g>
<!-- Node4038&#45;&gt;Node4020 -->
<g id="edge39" class="edge">
<title>Node4038&#45;&gt;Node4020</title>
<path fill="none" stroke="#191970" d="M296.7742,-790.6122C290.1968,-787.8059 284.0839,-784.008 279,-779 237.0148,-737.6417 213.038,-547.9781 206.7062,-485.6604"/>
<polygon fill="#191970" stroke="#191970" points="210.1768,-485.1867 205.7289,-475.5707 203.2094,-485.8616 210.1768,-485.1867"/>
</g>
<!-- Node4039&#45;&gt;Node4016 -->
<g id="edge41" class="edge">
<title>Node4039&#45;&gt;Node4016</title>
<path fill="none" stroke="#191970" d="M408.0478,-760.589C443.0529,-767.9585 490.0616,-777.8551 518.3557,-783.8117"/>
<polygon fill="#191970" stroke="#191970" points="517.7128,-787.253 528.2193,-785.8883 519.1549,-780.4032 517.7128,-787.253"/>
</g>
<!-- Node4040&#45;&gt;Node4016 -->
<g id="edge43" class="edge">
<title>Node4040&#45;&gt;Node4016</title>
<path fill="none" stroke="#191970" d="M380.0794,-608.5971C397.9141,-618.8576 425.709,-636.3317 446,-656 483.1009,-691.9624 516.1785,-743.4655 532.4108,-770.6213"/>
<polygon fill="#191970" stroke="#191970" points="529.5178,-772.6063 537.6052,-779.4507 535.5511,-769.0568 529.5178,-772.6063"/>
</g>
<!-- Node4040&#45;&gt;Node4031 -->
<g id="edge45" class="edge">
<title>Node4040&#45;&gt;Node4031</title>
<path fill="none" stroke="#191970" d="M406.7011,-589.4868C498.7959,-568.8319 706.7684,-517.5765 756,-466 792.6868,-427.5658 773.4491,-401.7893 792,-352 802.0016,-325.1565 815.4521,-294.8926 824.1738,-275.8859"/>
<polygon fill="#191970" stroke="#191970" points="827.4577,-277.1232 828.4807,-266.5779 821.1049,-274.1836 827.4577,-277.1232"/>
</g>
<!-- Node4040&#45;&gt;Node4032 -->
<g id="edge44" class="edge">
<title>Node4040&#45;&gt;Node4032</title>
<path fill="none" stroke="#191970" d="M437.0875,-605.559C522.6538,-609.0815 663.0838,-602.1484 756,-532 802.8767,-496.6098 822.5514,-425.3482 829.6057,-390.7477"/>
<polygon fill="#191970" stroke="#191970" points="833.1199,-390.9995 831.5353,-380.5239 826.2414,-389.7013 833.1199,-390.9995"/>
</g>
<!-- Node4041&#45;&gt;Node4020 -->
<g id="edge49" class="edge">
<title>Node4041&#45;&gt;Node4020</title>
<path fill="none" stroke="#191970" d="M326.1827,-304.5339C310.2873,-307.5455 292.2769,-312.4655 279,-323 238.4832,-355.148 218.6824,-415.0622 210.276,-446.3467"/>
<polygon fill="#191970" stroke="#191970" points="206.8621,-445.5695 207.7625,-456.126 213.6417,-447.3121 206.8621,-445.5695"/>
</g>
<!-- Node4041&#45;&gt;Node4027 -->
<g id="edge48" class="edge">
<title>Node4041&#45;&gt;Node4027</title>
<path fill="none" stroke="#191970" d="M431.3488,-304.6065C436.6472,-307.106 441.6262,-310.1936 446,-314 480.0599,-343.6418 447.2156,-380.2118 482,-409 504.1259,-427.3118 575.1851,-437.2378 629.8213,-442.3022"/>
<polygon fill="#191970" stroke="#191970" points="629.5455,-445.7914 639.8165,-443.1922 630.1664,-438.819 629.5455,-445.7914"/>
</g>
<!-- Node4041&#45;&gt;Node4029 -->
<g id="edge47" class="edge">
<title>Node4041&#45;&gt;Node4029</title>
<path fill="none" stroke="#191970" d="M427.4436,-304.6476C434.009,-307.1023 440.3345,-310.1696 446,-314 469.2865,-329.7436 459.9683,-348.5436 482,-366 487.0927,-370.0351 492.9479,-373.4641 498.9722,-376.3567"/>
<polygon fill="#191970" stroke="#191970" points="497.9249,-379.7168 508.4929,-380.4705 500.7015,-373.2911 497.9249,-379.7168"/>
</g>
<!-- Node4041&#45;&gt;Node4031 -->
<g id="edge51" class="edge">
<title>Node4041&#45;&gt;Node4031</title>
<path fill="none" stroke="#191970" d="M446.1244,-297.5536C492.6531,-298.3332 551.5878,-298.2631 604,-295 671.9497,-290.7696 689.0572,-288.3987 756,-276 766.465,-274.0617 777.6304,-271.5618 788.1191,-269.016"/>
<polygon fill="#191970" stroke="#191970" points="789.0632,-272.3879 797.9229,-266.578 787.3738,-265.5948 789.0632,-272.3879"/>
</g>
<!-- Node4041&#45;&gt;Node4032 -->
<g id="edge50" class="edge">
<title>Node4041&#45;&gt;Node4032</title>
<path fill="none" stroke="#191970" d="M406.1993,-304.5579C472.4859,-318.9567 595.4446,-345.2498 640,-352 688.8933,-359.4074 745.2126,-364.5693 784.3428,-367.624"/>
<polygon fill="#191970" stroke="#191970" points="784.1661,-371.1206 794.4037,-368.3925 784.6994,-364.1409 784.1661,-371.1206"/>
</g>
</g>
</svg>
