<?xml version="1.0" encoding="UTF-8" standalone="no"?>
<!DOCTYPE svg PUBLIC "-//W3C//DTD SVG 1.1//EN"
 "http://www.w3.org/Graphics/SVG/1.1/DTD/svg11.dtd">
<!-- Generated by graphviz version 2.38.0 (20140413.2041)
 -->
<!-- Title: Ekf::realignYawGPS Pages: 1 -->
<svg width="736pt" height="1008pt"
 viewBox="0.00 0.00 736.00 1008.06" xmlns="http://www.w3.org/2000/svg" xmlns:xlink="http://www.w3.org/1999/xlink">
<g id="graph0" class="graph" transform="scale(1 1) rotate(0) translate(4 1004.06)">
<title>Ekf::realignYawGPS</title>
<polygon fill="white" stroke="none" points="-4,4 -4,-1004.06 732,-1004.06 732,4 -4,4"/>
<!-- Node1 -->
<g id="node1" class="node"><title>Node1</title>
<polygon fill="#bfbfbf" stroke="black" points="0,-340.505 0,-359.505 107,-359.505 107,-340.505 0,-340.505"/>
<text text-anchor="middle" x="53.5" y="-347.505" font-family="Helvetica,sans-Serif" font-size="10.00">Ekf::realignYawGPS</text>
</g>
<!-- Node2 -->
<g id="node2" class="node"><title>Node2</title>
<g id="a_node2"><a xlink:href="../../dc/d66/class_ekf.html#ab3c6e783a4a9cd982d1fb2e01a4cd54b" target="_top" xlink:title="Ekf::calcRotVecVariances">
<polygon fill="white" stroke="black" points="463,-321.505 463,-340.505 595,-340.505 595,-321.505 463,-321.505"/>
<text text-anchor="middle" x="529" y="-328.505" font-family="Helvetica,sans-Serif" font-size="10.00">Ekf::calcRotVecVariances</text>
</a>
</g>
</g>
<!-- Node1&#45;&gt;Node2 -->
<g id="edge1" class="edge"><title>Node1&#45;&gt;Node2</title>
<path fill="none" stroke="midnightblue" d="M107.287,-351.35C177.452,-352.662 305.246,-353.398 414,-345.005 426.55,-344.037 439.842,-342.695 452.748,-341.222"/>
<polygon fill="midnightblue" stroke="midnightblue" points="453.47,-344.661 462.993,-340.018 452.653,-337.709 453.47,-344.661"/>
</g>
<!-- Node3 -->
<g id="node3" class="node"><title>Node3</title>
<g id="a_node3"><a xlink:href="../../d8/da1/integration_8cpp.html#af5ba872dd09316732300733cc164ac1a" target="_top" xlink:title="f">
<polygon fill="white" stroke="black" points="671.5,-340.505 671.5,-359.505 700.5,-359.505 700.5,-340.505 671.5,-340.505"/>
<text text-anchor="middle" x="686" y="-347.505" font-family="Helvetica,sans-Serif" font-size="10.00">f</text>
</a>
</g>
</g>
<!-- Node1&#45;&gt;Node3 -->
<g id="edge4" class="edge"><title>Node1&#45;&gt;Node3</title>
<path fill="none" stroke="midnightblue" d="M54.9999,-340.344C57.395,-304.968 70.8201,-181.676 143,-126.005 238.583,-52.2844 295.489,-85.0729 414,-108.005 505.238,-125.66 547.008,-115.891 608,-186.005 651.58,-236.103 601.728,-279.798 644,-331.005 648.631,-336.615 655.285,-340.653 661.89,-343.523"/>
<polygon fill="midnightblue" stroke="midnightblue" points="660.696,-346.813 671.291,-346.938 663.087,-340.234 660.696,-346.813"/>
</g>
<!-- Node4 -->
<g id="node4" class="node"><title>Node4</title>
<g id="a_node4"><a xlink:href="../../dd/d47/namespacemath.html#a9ab5768499dc798629f31a3e785ea313" target="_top" xlink:title="math::constrain">
<polygon fill="white" stroke="black" points="644,-264.505 644,-283.505 728,-283.505 728,-264.505 644,-264.505"/>
<text text-anchor="middle" x="686" y="-271.505" font-family="Helvetica,sans-Serif" font-size="10.00">math::constrain</text>
</a>
</g>
</g>
<!-- Node1&#45;&gt;Node4 -->
<g id="edge3" class="edge"><title>Node1&#45;&gt;Node4</title>
<path fill="none" stroke="midnightblue" d="M54.0344,-340.28C52.6831,-299.583 53.537,-142.05 143,-77.0053 310.602,44.851 442.283,13.4028 608,-111.005 655.654,-146.78 675.016,-219.502 681.81,-254.426"/>
<polygon fill="midnightblue" stroke="midnightblue" points="678.379,-255.119 683.594,-264.341 685.268,-253.88 678.379,-255.119"/>
</g>
<!-- Node5 -->
<g id="node5" class="node"><title>Node5</title>
<g id="a_node5"><a xlink:href="../../d4/d8f/class_ring_buffer.html#a8144e160c580bedcd051d9e4a76be332" target="_top" xlink:title="RingBuffer::get_length">
<polygon fill="white" stroke="black" points="296.5,-131.505 296.5,-150.505 410.5,-150.505 410.5,-131.505 296.5,-131.505"/>
<text text-anchor="middle" x="353.5" y="-138.505" font-family="Helvetica,sans-Serif" font-size="10.00">RingBuffer::get_length</text>
</a>
</g>
</g>
<!-- Node1&#45;&gt;Node5 -->
<g id="edge5" class="edge"><title>Node1&#45;&gt;Node5</title>
<path fill="none" stroke="midnightblue" d="M64.6783,-340.394C96.3279,-310.904 196.677,-220.357 293,-165.005 299.706,-161.152 307.152,-157.623 314.442,-154.526"/>
<polygon fill="midnightblue" stroke="midnightblue" points="316.244,-157.573 324.204,-150.581 313.621,-151.083 316.244,-157.573"/>
</g>
<!-- Node6 -->
<g id="node6" class="node"><title>Node6</title>
<g id="a_node6"><a xlink:href="../../dc/d66/class_ekf.html#a8c9fb4e5919264cdf44c8e940c488443" target="_top" xlink:title="Ekf::initialiseQuatCovariances">
<polygon fill="white" stroke="black" points="454.5,-511.505 454.5,-530.505 603.5,-530.505 603.5,-511.505 454.5,-511.505"/>
<text text-anchor="middle" x="529" y="-518.505" font-family="Helvetica,sans-Serif" font-size="10.00">Ekf::initialiseQuatCovariances</text>
</a>
</g>
</g>
<!-- Node1&#45;&gt;Node6 -->
<g id="edge6" class="edge"><title>Node1&#45;&gt;Node6</title>
<path fill="none" stroke="midnightblue" d="M56.9721,-359.784C64.471,-387.164 89.779,-464.699 143,-497.005 191.795,-526.625 346.317,-527.439 444.126,-524.677"/>
<polygon fill="midnightblue" stroke="midnightblue" points="444.4,-528.171 454.29,-524.372 444.189,-521.174 444.4,-528.171"/>
</g>
<!-- Node7 -->
<g id="node7" class="node"><title>Node7</title>
<g id="a_node7"><a xlink:href="../../dc/d66/class_ekf.html#a421983af018ca82e2c5c0ba3fa5ad769" target="_top" xlink:title="Ekf::zeroCols">
<polygon fill="white" stroke="black" points="647.5,-530.505 647.5,-549.505 724.5,-549.505 724.5,-530.505 647.5,-530.505"/>
<text text-anchor="middle" x="686" y="-537.505" font-family="Helvetica,sans-Serif" font-size="10.00">Ekf::zeroCols</text>
</a>
</g>
</g>
<!-- Node1&#45;&gt;Node7 -->
<g id="edge56" class="edge"><title>Node1&#45;&gt;Node7</title>
<path fill="none" stroke="midnightblue" d="M86.9705,-359.534C154.429,-379.255 314.727,-425.736 450,-462.005 519.966,-480.765 540.034,-476.949 608,-502.005 625.67,-508.519 644.651,-517.858 659.346,-525.647"/>
<polygon fill="midnightblue" stroke="midnightblue" points="657.866,-528.825 668.328,-530.497 661.192,-522.666 657.866,-528.825"/>
</g>
<!-- Node8 -->
<g id="node8" class="node"><title>Node8</title>
<g id="a_node8"><a xlink:href="../../dc/d66/class_ekf.html#a49a4da2e831b46876b307eb8e0560a12" target="_top" xlink:title="Ekf::zeroRows">
<polygon fill="white" stroke="black" points="645,-758.505 645,-777.505 727,-777.505 727,-758.505 645,-758.505"/>
<text text-anchor="middle" x="686" y="-765.505" font-family="Helvetica,sans-Serif" font-size="10.00">Ekf::zeroRows</text>
</a>
</g>
</g>
<!-- Node1&#45;&gt;Node8 -->
<g id="edge57" class="edge"><title>Node1&#45;&gt;Node8</title>
<path fill="none" stroke="midnightblue" d="M56.1818,-359.549C69.3465,-430.799 163.035,-879.54 450,-976.005 516.562,-998.38 550.367,-1016.13 608,-976.005 670.952,-932.182 682.557,-830.62 684.607,-787.709"/>
<polygon fill="midnightblue" stroke="midnightblue" points="688.106,-787.809 684.958,-777.693 681.11,-787.564 688.106,-787.809"/>
</g>
<!-- Node9 -->
<g id="node9" class="node"><title>Node9</title>
<g id="a_node9"><a xlink:href="../../d5/d73/class_estimator_interface.html#abd942d9d704d30a740da35a2494eb8e2" target="_top" xlink:title="EstimatorInterface\l::quat_to_invrotmat">
<polygon fill="white" stroke="black" points="478.5,-196.005 478.5,-226.005 579.5,-226.005 579.5,-196.005 478.5,-196.005"/>
<text text-anchor="start" x="486.5" y="-214.005" font-family="Helvetica,sans-Serif" font-size="10.00">EstimatorInterface</text>
<text text-anchor="middle" x="529" y="-203.005" font-family="Helvetica,sans-Serif" font-size="10.00">::quat_to_invrotmat</text>
</a>
</g>
</g>
<!-- Node1&#45;&gt;Node9 -->
<g id="edge10" class="edge"><title>Node1&#45;&gt;Node9</title>
<path fill="none" stroke="midnightblue" d="M57.3335,-340.135C65.7835,-312.331 93.3536,-232.441 143,-187.005 196.599,-137.952 221.856,-136.757 293,-122.005 345.658,-111.087 363.149,-104.506 414,-122.005 451.851,-135.031 486.769,-166.348 507.728,-188.124"/>
<polygon fill="midnightblue" stroke="midnightblue" points="505.405,-190.762 514.798,-195.663 510.511,-185.974 505.405,-190.762"/>
</g>
<!-- Node10 -->
<g id="node10" class="node"><title>Node10</title>
<g id="a_node10"><a xlink:href="../../dc/d66/class_ekf.html#ab25624586299a1a74ccbe6524cbfc996" target="_top" xlink:title="Ekf::resetMagHeading">
<polygon fill="white" stroke="black" points="143,-321.505 143,-340.505 257,-340.505 257,-321.505 143,-321.505"/>
<text text-anchor="middle" x="200" y="-328.505" font-family="Helvetica,sans-Serif" font-size="10.00">Ekf::resetMagHeading</text>
</a>
</g>
</g>
<!-- Node1&#45;&gt;Node10 -->
<g id="edge11" class="edge"><title>Node1&#45;&gt;Node10</title>
<path fill="none" stroke="midnightblue" d="M107.077,-343.092C115.429,-341.994 124.16,-340.846 132.777,-339.713"/>
<polygon fill="midnightblue" stroke="midnightblue" points="133.351,-343.168 142.809,-338.394 132.438,-336.227 133.351,-343.168"/>
</g>
<!-- Node11 -->
<g id="node11" class="node"><title>Node11</title>
<g id="a_node11"><a xlink:href="../../dc/d66/class_ekf.html#ac557eacd06bd597b3ab097cab74c1c39" target="_top" xlink:title="Ekf::sq">
<polygon fill="white" stroke="black" points="329.5,-587.505 329.5,-606.505 377.5,-606.505 377.5,-587.505 329.5,-587.505"/>
<text text-anchor="middle" x="353.5" y="-594.505" font-family="Helvetica,sans-Serif" font-size="10.00">Ekf::sq</text>
</a>
</g>
</g>
<!-- Node1&#45;&gt;Node11 -->
<g id="edge55" class="edge"><title>Node1&#45;&gt;Node11</title>
<path fill="none" stroke="midnightblue" d="M56.2681,-359.745C62.3498,-390.402 85.2993,-485.794 143,-535.005 193.898,-578.415 274.096,-591.439 319.068,-595.341"/>
<polygon fill="midnightblue" stroke="midnightblue" points="318.933,-598.841 329.171,-596.115 319.468,-591.861 318.933,-598.841"/>
</g>
<!-- Node2&#45;&gt;Node3 -->
<g id="edge2" class="edge"><title>Node2&#45;&gt;Node3</title>
<path fill="none" stroke="midnightblue" d="M595.285,-339.008C618.717,-341.88 643.677,-344.94 661.305,-347.101"/>
<polygon fill="midnightblue" stroke="midnightblue" points="660.903,-350.578 671.254,-348.32 661.755,-343.63 660.903,-350.578"/>
</g>
<!-- Node6&#45;&gt;Node3 -->
<g id="edge7" class="edge"><title>Node6&#45;&gt;Node3</title>
<path fill="none" stroke="midnightblue" d="M538.778,-511.322C564.034,-483.458 637.14,-402.806 669.395,-367.222"/>
<polygon fill="midnightblue" stroke="midnightblue" points="672.196,-369.343 676.319,-359.583 667.009,-364.641 672.196,-369.343"/>
</g>
<!-- Node6&#45;&gt;Node7 -->
<g id="edge8" class="edge"><title>Node6&#45;&gt;Node7</title>
<path fill="none" stroke="midnightblue" d="M603.868,-530.06C615.213,-531.451 626.662,-532.854 637.24,-534.151"/>
<polygon fill="midnightblue" stroke="midnightblue" points="637.14,-537.665 647.491,-535.407 637.991,-530.717 637.14,-537.665"/>
</g>
<!-- Node6&#45;&gt;Node8 -->
<g id="edge9" class="edge"><title>Node6&#45;&gt;Node8</title>
<path fill="none" stroke="midnightblue" d="M548.707,-530.67C566.138,-540.507 591.806,-557.241 608,-578.005 650.054,-631.926 672.355,-711.927 680.865,-748.493"/>
<polygon fill="midnightblue" stroke="midnightblue" points="677.475,-749.372 683.07,-758.369 684.307,-747.847 677.475,-749.372"/>
</g>
<!-- Node10&#45;&gt;Node2 -->
<g id="edge12" class="edge"><title>Node10&#45;&gt;Node2</title>
<path fill="none" stroke="midnightblue" d="M257.213,-331.005C311.243,-331.005 393.259,-331.005 452.87,-331.005"/>
<polygon fill="midnightblue" stroke="midnightblue" points="452.981,-334.505 462.981,-331.005 452.981,-327.505 452.981,-334.505"/>
</g>
<!-- Node10&#45;&gt;Node3 -->
<g id="edge48" class="edge"><title>Node10&#45;&gt;Node3</title>
<path fill="none" stroke="midnightblue" d="M241.901,-321.486C316.116,-305.878 477.371,-279.649 608,-312.005 625.561,-316.355 627.787,-322.977 644,-331.005 649.765,-333.86 656.043,-336.835 661.915,-339.561"/>
<polygon fill="midnightblue" stroke="midnightblue" points="660.701,-342.855 671.249,-343.847 663.622,-336.494 660.701,-342.855"/>
</g>
<!-- Node10&#45;&gt;Node5 -->
<g id="edge54" class="edge"><title>Node10&#45;&gt;Node5</title>
<path fill="none" stroke="midnightblue" d="M206.442,-321.372C216.491,-303.562 238.616,-264.268 257,-231.005 273.163,-201.762 268.044,-187.223 293,-165.005 297.477,-161.02 302.701,-157.649 308.16,-154.811"/>
<polygon fill="midnightblue" stroke="midnightblue" points="309.857,-157.883 317.478,-150.524 306.931,-151.524 309.857,-157.883"/>
</g>
<!-- Node10&#45;&gt;Node6 -->
<g id="edge53" class="edge"><title>Node10&#45;&gt;Node6</title>
<path fill="none" stroke="midnightblue" d="M208.684,-340.603C223.407,-358.475 257.313,-397.195 293,-421.005 354.938,-462.33 436.739,-492.469 485.69,-508.316"/>
<polygon fill="midnightblue" stroke="midnightblue" points="484.732,-511.684 495.323,-511.386 486.858,-505.014 484.732,-511.684"/>
</g>
<!-- Node10&#45;&gt;Node7 -->
<g id="edge15" class="edge"><title>Node10&#45;&gt;Node7</title>
<path fill="none" stroke="midnightblue" d="M223.73,-340.546C267.197,-358.596 365.318,-398.403 450,-426.005 519.193,-448.559 544.319,-433.777 608,-469.005 632.931,-482.797 656.189,-506.304 670.482,-522.467"/>
<polygon fill="midnightblue" stroke="midnightblue" points="667.926,-524.862 677.101,-530.159 673.232,-520.296 667.926,-524.862"/>
</g>
<!-- Node10&#45;&gt;Node8 -->
<g id="edge14" class="edge"><title>Node10&#45;&gt;Node8</title>
<path fill="none" stroke="midnightblue" d="M201.141,-340.688C202.709,-407.64 221.642,-803.39 450,-948.005 509.326,-985.576 549.389,-986.682 608,-948.005 663.256,-911.543 679.004,-826.368 683.375,-787.712"/>
<polygon fill="midnightblue" stroke="midnightblue" points="686.863,-788.012 684.365,-777.715 679.897,-787.322 686.863,-788.012"/>
</g>
<!-- Node10&#45;&gt;Node9 -->
<g id="edge13" class="edge"><title>Node10&#45;&gt;Node9</title>
<path fill="none" stroke="midnightblue" d="M206.929,-321.352C219.781,-301.4 252.346,-255.83 293,-236.005 347.914,-209.227 418.455,-205.142 467.863,-206.411"/>
<polygon fill="midnightblue" stroke="midnightblue" points="467.96,-209.916 478.072,-206.757 468.197,-202.921 467.96,-209.916"/>
</g>
<!-- Node10&#45;&gt;Node11 -->
<g id="edge16" class="edge"><title>Node10&#45;&gt;Node11</title>
<path fill="none" stroke="midnightblue" d="M206.572,-340.788C228.939,-380.06 312.426,-526.644 342.018,-578.602"/>
<polygon fill="midnightblue" stroke="midnightblue" points="339.047,-580.457 347.037,-587.414 345.13,-576.993 339.047,-580.457"/>
</g>
<!-- Node21 -->
<g id="node21" class="node"><title>Node21</title>
<g id="a_node21"><a xlink:href="../../dd/d47/namespacemath.html#a83e4c85de5ee6f9c0f7b91fd81a8d4f9" target="_top" xlink:title="math::radians">
<polygon fill="white" stroke="black" points="648,-302.505 648,-321.505 724,-321.505 724,-302.505 648,-302.505"/>
<text text-anchor="middle" x="686" y="-309.505" font-family="Helvetica,sans-Serif" font-size="10.00">math::radians</text>
</a>
</g>
</g>
<!-- Node10&#45;&gt;Node21 -->
<g id="edge49" class="edge"><title>Node10&#45;&gt;Node21</title>
<path fill="none" stroke="midnightblue" d="M207.379,-321.284C226.142,-292.829 280.601,-211.253 293,-204.005 353.634,-168.559 379.879,-190.012 450,-186.005 520.108,-181.999 550.975,-145.025 608,-186.005 648.745,-215.286 610.514,-255.639 644,-293.005 645.152,-294.291 646.409,-295.495 647.744,-296.624"/>
<polygon fill="midnightblue" stroke="midnightblue" points="645.824,-299.551 656.061,-302.284 649.763,-293.764 645.824,-299.551"/>
</g>
<!-- Node24 -->
<g id="node24" class="node"><title>Node24</title>
<g id="a_node24"><a xlink:href="../../dc/d66/class_ekf.html#a14d54802f5c7618d0101916fffe092a2" target="_top" xlink:title="Ekf::resetExtVisRotMat">
<polygon fill="white" stroke="black" points="293,-245.505 293,-264.505 414,-264.505 414,-245.505 293,-245.505"/>
<text text-anchor="middle" x="353.5" y="-252.505" font-family="Helvetica,sans-Serif" font-size="10.00">Ekf::resetExtVisRotMat</text>
</a>
</g>
</g>
<!-- Node10&#45;&gt;Node24 -->
<g id="edge50" class="edge"><title>Node10&#45;&gt;Node24</title>
<path fill="none" stroke="midnightblue" d="M216.618,-321.342C234.656,-310.38 265.396,-292.303 293,-279.005 300.705,-275.294 309.14,-271.649 317.175,-268.366"/>
<polygon fill="midnightblue" stroke="midnightblue" points="318.713,-271.521 326.701,-264.56 316.116,-265.02 318.713,-271.521"/>
</g>
<!-- Node11&#45;&gt;Node2 -->
<g id="edge33" class="edge"><title>Node11&#45;&gt;Node2</title>
<path fill="none" stroke="midnightblue" d="M355.145,-587.434C358.164,-550.577 374.157,-416.578 450,-350.005 451.787,-348.436 453.683,-346.992 455.664,-345.663"/>
<polygon fill="midnightblue" stroke="midnightblue" points="457.808,-348.475 464.832,-340.543 454.395,-342.363 457.808,-348.475"/>
</g>
<!-- Node11&#45;&gt;Node6 -->
<g id="edge34" class="edge"><title>Node11&#45;&gt;Node6</title>
<path fill="none" stroke="midnightblue" d="M369.904,-587.36C388.395,-576.083 420.596,-557.387 450,-545.005 460.197,-540.711 471.432,-536.804 482.121,-533.446"/>
<polygon fill="midnightblue" stroke="midnightblue" points="483.19,-536.78 491.74,-530.522 481.154,-530.082 483.19,-536.78"/>
</g>
<!-- Node11&#45;&gt;Node7 -->
<g id="edge22" class="edge"><title>Node11&#45;&gt;Node7</title>
<path fill="none" stroke="midnightblue" d="M377.613,-592.164C396.927,-588.177 425.211,-582.474 450,-578.005 514.796,-566.325 589.954,-554.466 637.483,-547.174"/>
<polygon fill="midnightblue" stroke="midnightblue" points="638.129,-550.616 647.484,-545.645 637.07,-543.697 638.129,-550.616"/>
</g>
<!-- Node11&#45;&gt;Node8 -->
<g id="edge21" class="edge"><title>Node11&#45;&gt;Node8</title>
<path fill="none" stroke="midnightblue" d="M355.806,-606.643C362.715,-656.056 396.713,-880.193 450,-920.005 506.255,-962.035 548.169,-956.766 608,-920.005 655.554,-890.788 674.837,-822.075 681.691,-787.953"/>
<polygon fill="midnightblue" stroke="midnightblue" points="685.189,-788.284 683.562,-777.815 678.305,-787.014 685.189,-788.284"/>
</g>
<!-- Node12 -->
<g id="node12" class="node"><title>Node12</title>
<g id="a_node12"><a xlink:href="../../dc/d66/class_ekf.html#aa34f4d9d89e096b542a287fbe1b91d92" target="_top" xlink:title="Ekf::setControlBaroHeight">
<polygon fill="white" stroke="black" points="463.5,-853.505 463.5,-872.505 594.5,-872.505 594.5,-853.505 463.5,-853.505"/>
<text text-anchor="middle" x="529" y="-860.505" font-family="Helvetica,sans-Serif" font-size="10.00">Ekf::setControlBaroHeight</text>
</a>
</g>
</g>
<!-- Node11&#45;&gt;Node12 -->
<g id="edge17" class="edge"><title>Node11&#45;&gt;Node12</title>
<path fill="none" stroke="midnightblue" d="M355.145,-606.577C358.164,-643.434 374.157,-777.432 450,-844.005 451.787,-845.574 453.683,-847.018 455.664,-848.347"/>
<polygon fill="midnightblue" stroke="midnightblue" points="454.395,-851.647 464.832,-853.467 457.808,-845.536 454.395,-851.647"/>
</g>
<!-- Node13 -->
<g id="node13" class="node"><title>Node13</title>
<g id="a_node13"><a xlink:href="../../dc/d66/class_ekf.html#a3a839968be88e4e47f265d8f62b0155a" target="_top" xlink:title="Ekf::setControlRangeHeight">
<polygon fill="white" stroke="black" points="459,-815.505 459,-834.505 599,-834.505 599,-815.505 459,-815.505"/>
<text text-anchor="middle" x="529" y="-822.505" font-family="Helvetica,sans-Serif" font-size="10.00">Ekf::setControlRangeHeight</text>
</a>
</g>
</g>
<!-- Node11&#45;&gt;Node13 -->
<g id="edge18" class="edge"><title>Node11&#45;&gt;Node13</title>
<path fill="none" stroke="midnightblue" d="M355.901,-606.698C361.254,-640.063 383.573,-751.118 450,-806.005 452.021,-807.675 454.167,-809.203 456.407,-810.599"/>
<polygon fill="midnightblue" stroke="midnightblue" points="454.978,-813.802 465.458,-815.362 458.238,-807.607 454.978,-813.802"/>
</g>
<!-- Node14 -->
<g id="node14" class="node"><title>Node14</title>
<g id="a_node14"><a xlink:href="../../dc/d66/class_ekf.html#a8b687c82c5dfbdeebae02685783fc2ef" target="_top" xlink:title="Ekf::setControlGPSHeight">
<polygon fill="white" stroke="black" points="463,-777.505 463,-796.505 595,-796.505 595,-777.505 463,-777.505"/>
<text text-anchor="middle" x="529" y="-784.505" font-family="Helvetica,sans-Serif" font-size="10.00">Ekf::setControlGPSHeight</text>
</a>
</g>
</g>
<!-- Node11&#45;&gt;Node14 -->
<g id="edge19" class="edge"><title>Node11&#45;&gt;Node14</title>
<path fill="none" stroke="midnightblue" d="M356.909,-606.556C364.783,-635.734 392.621,-724.367 450,-768.005 452.472,-769.885 455.104,-771.582 457.851,-773.113"/>
<polygon fill="midnightblue" stroke="midnightblue" points="456.42,-776.308 466.952,-777.46 459.437,-769.992 456.42,-776.308"/>
</g>
<!-- Node15 -->
<g id="node15" class="node"><title>Node15</title>
<g id="a_node15"><a xlink:href="../../dc/d66/class_ekf.html#aaf80ea102825ba5755fba7f2a7446578" target="_top" xlink:title="Ekf::setControlEVHeight">
<polygon fill="white" stroke="black" points="466.5,-739.505 466.5,-758.505 591.5,-758.505 591.5,-739.505 466.5,-739.505"/>
<text text-anchor="middle" x="529" y="-746.505" font-family="Helvetica,sans-Serif" font-size="10.00">Ekf::setControlEVHeight</text>
</a>
</g>
</g>
<!-- Node11&#45;&gt;Node15 -->
<g id="edge20" class="edge"><title>Node11&#45;&gt;Node15</title>
<path fill="none" stroke="midnightblue" d="M358.609,-606.857C369.513,-631.734 401.692,-697.415 450,-730.005 453.069,-732.076 456.341,-733.921 459.741,-735.566"/>
<polygon fill="midnightblue" stroke="midnightblue" points="458.412,-738.804 468.986,-739.468 461.134,-732.355 458.412,-738.804"/>
</g>
<!-- Node16 -->
<g id="node16" class="node"><title>Node16</title>
<g id="a_node16"><a xlink:href="../../dc/d66/class_ekf.html#a5b85c3509e588863acecef05b7d0a195" target="_top" xlink:title="Ekf::zeroOffDiag">
<polygon fill="white" stroke="black" points="484,-891.505 484,-910.505 574,-910.505 574,-891.505 484,-891.505"/>
<text text-anchor="middle" x="529" y="-898.505" font-family="Helvetica,sans-Serif" font-size="10.00">Ekf::zeroOffDiag</text>
</a>
</g>
</g>
<!-- Node11&#45;&gt;Node16 -->
<g id="edge23" class="edge"><title>Node11&#45;&gt;Node16</title>
<path fill="none" stroke="midnightblue" d="M354.592,-606.603C355.525,-646.86 364.702,-803.618 450,-882.005 456.783,-888.238 465.262,-892.52 474.111,-895.441"/>
<polygon fill="midnightblue" stroke="midnightblue" points="473.223,-898.827 483.794,-898.106 475.081,-892.078 473.223,-898.827"/>
</g>
<!-- Node17 -->
<g id="node17" class="node"><title>Node17</title>
<g id="a_node17"><a xlink:href="../../dc/d66/class_ekf.html#a3e1cf1f594a9d829c03e3672816a7f07" target="_top" xlink:title="Ekf::setDiag">
<polygon fill="white" stroke="black" points="493.5,-625.505 493.5,-644.505 564.5,-644.505 564.5,-625.505 493.5,-625.505"/>
<text text-anchor="middle" x="529" y="-632.505" font-family="Helvetica,sans-Serif" font-size="10.00">Ekf::setDiag</text>
</a>
</g>
</g>
<!-- Node11&#45;&gt;Node17 -->
<g id="edge26" class="edge"><title>Node11&#45;&gt;Node17</title>
<path fill="none" stroke="midnightblue" d="M377.539,-602.051C404.438,-607.943 449.551,-617.823 483.378,-625.232"/>
<polygon fill="midnightblue" stroke="midnightblue" points="482.963,-628.724 493.48,-627.445 484.461,-621.886 482.963,-628.724"/>
</g>
<!-- Node18 -->
<g id="node18" class="node"><title>Node18</title>
<g id="a_node18"><a xlink:href="../../dc/d66/class_ekf.html#a235e6e03f6e6611fd053b395adc71b3a" target="_top" xlink:title="Ekf::calcOptFlowMeasVar">
<polygon fill="white" stroke="black" points="463.5,-359.505 463.5,-378.505 594.5,-378.505 594.5,-359.505 463.5,-359.505"/>
<text text-anchor="middle" x="529" y="-366.505" font-family="Helvetica,sans-Serif" font-size="10.00">Ekf::calcOptFlowMeasVar</text>
</a>
</g>
</g>
<!-- Node11&#45;&gt;Node18 -->
<g id="edge29" class="edge"><title>Node11&#45;&gt;Node18</title>
<path fill="none" stroke="midnightblue" d="M355.433,-587.256C359.853,-552.205 381.42,-435.671 450,-379.005 451.367,-377.876 452.79,-376.812 454.261,-375.811"/>
<polygon fill="midnightblue" stroke="midnightblue" points="456.192,-378.739 463.145,-370.745 452.724,-372.658 456.192,-378.739"/>
</g>
<!-- Node19 -->
<g id="node19" class="node"><title>Node19</title>
<g id="a_node19"><a xlink:href="../../dc/d66/class_ekf.html#abf112176caac8eea3e129602723e517b" target="_top" xlink:title="Ekf::resetMagCovariance">
<polygon fill="white" stroke="black" points="465,-587.505 465,-606.505 593,-606.505 593,-587.505 465,-587.505"/>
<text text-anchor="middle" x="529" y="-594.505" font-family="Helvetica,sans-Serif" font-size="10.00">Ekf::resetMagCovariance</text>
</a>
</g>
</g>
<!-- Node11&#45;&gt;Node19 -->
<g id="edge35" class="edge"><title>Node11&#45;&gt;Node19</title>
<path fill="none" stroke="midnightblue" d="M377.539,-592.245C397.325,-590.665 426.964,-590.026 454.718,-590.328"/>
<polygon fill="midnightblue" stroke="midnightblue" points="454.784,-593.829 464.836,-590.482 454.891,-586.83 454.784,-593.829"/>
</g>
<!-- Node20 -->
<g id="node20" class="node"><title>Node20</title>
<g id="a_node20"><a xlink:href="../../dc/d66/class_ekf.html#aede08985fc3703e505df3538134c1d40" target="_top" xlink:title="Ekf::resetWindCovariance">
<polygon fill="white" stroke="black" points="463.5,-397.505 463.5,-416.505 594.5,-416.505 594.5,-397.505 463.5,-397.505"/>
<text text-anchor="middle" x="529" y="-404.505" font-family="Helvetica,sans-Serif" font-size="10.00">Ekf::resetWindCovariance</text>
</a>
</g>
</g>
<!-- Node11&#45;&gt;Node20 -->
<g id="edge39" class="edge"><title>Node11&#45;&gt;Node20</title>
<path fill="none" stroke="midnightblue" d="M360.881,-587.265C384.739,-556.468 469.314,-463.272 508.19,-424.214"/>
<polygon fill="midnightblue" stroke="midnightblue" points="511.098,-426.261 515.753,-416.743 506.179,-421.28 511.098,-426.261"/>
</g>
<!-- Node22 -->
<g id="node22" class="node"><title>Node22</title>
<g id="a_node22"><a xlink:href="../../dc/d66/class_ekf.html#a999d2ee6ba6c99901f9de895101d68b2" target="_top" xlink:title="Ekf::resetWindStates">
<polygon fill="white" stroke="black" points="474,-701.505 474,-720.505 584,-720.505 584,-701.505 474,-701.505"/>
<text text-anchor="middle" x="529" y="-708.505" font-family="Helvetica,sans-Serif" font-size="10.00">Ekf::resetWindStates</text>
</a>
</g>
</g>
<!-- Node11&#45;&gt;Node22 -->
<g id="edge46" class="edge"><title>Node11&#45;&gt;Node22</title>
<path fill="none" stroke="midnightblue" d="M361.19,-606.521C375.277,-625.813 410.015,-669.595 450,-692.005 454.445,-694.497 459.212,-696.664 464.117,-698.549"/>
<polygon fill="midnightblue" stroke="midnightblue" points="463.079,-701.893 473.674,-701.837 465.357,-695.274 463.079,-701.893"/>
</g>
<!-- Node23 -->
<g id="node23" class="node"><title>Node23</title>
<g id="a_node23"><a xlink:href="../../dc/d66/class_ekf.html#ac5f733e16663a74a15964ef6dbe27c5b" target="_top" xlink:title="Ekf::checkRangeDataContinuity">
<polygon fill="white" stroke="black" points="450,-663.505 450,-682.505 608,-682.505 608,-663.505 450,-663.505"/>
<text text-anchor="middle" x="529" y="-670.505" font-family="Helvetica,sans-Serif" font-size="10.00">Ekf::checkRangeDataContinuity</text>
</a>
</g>
</g>
<!-- Node11&#45;&gt;Node23 -->
<g id="edge47" class="edge"><title>Node11&#45;&gt;Node23</title>
<path fill="none" stroke="midnightblue" d="M367.74,-606.669C385.584,-619.269 418.728,-641.205 450,-654.005 456.153,-656.524 462.722,-658.764 469.337,-660.741"/>
<polygon fill="midnightblue" stroke="midnightblue" points="468.446,-664.126 479.019,-663.452 470.333,-657.385 468.446,-664.126"/>
</g>
<!-- Node16&#45;&gt;Node7 -->
<g id="edge25" class="edge"><title>Node16&#45;&gt;Node7</title>
<path fill="none" stroke="midnightblue" d="M574.36,-898.775C586.685,-896.068 599.11,-891.052 608,-882.005 619.616,-870.184 667.221,-630.828 681.153,-559.744"/>
<polygon fill="midnightblue" stroke="midnightblue" points="684.605,-560.326 683.089,-549.84 677.735,-558.983 684.605,-560.326"/>
</g>
<!-- Node16&#45;&gt;Node8 -->
<g id="edge24" class="edge"><title>Node16&#45;&gt;Node8</title>
<path fill="none" stroke="midnightblue" d="M574.084,-896.151C585.849,-893.343 598.046,-888.93 608,-882.005 642.635,-857.909 666.136,-812.782 677.377,-787.124"/>
<polygon fill="midnightblue" stroke="midnightblue" points="680.675,-788.309 681.322,-777.734 674.222,-785.598 680.675,-788.309"/>
</g>
<!-- Node17&#45;&gt;Node7 -->
<g id="edge28" class="edge"><title>Node17&#45;&gt;Node7</title>
<path fill="none" stroke="midnightblue" d="M564.886,-630.65C578.919,-627.867 594.855,-623.339 608,-616.005 634.26,-601.355 657.789,-575.306 671.733,-557.844"/>
<polygon fill="midnightblue" stroke="midnightblue" points="674.76,-559.652 678.115,-549.602 669.225,-555.366 674.76,-559.652"/>
</g>
<!-- Node17&#45;&gt;Node8 -->
<g id="edge27" class="edge"><title>Node17&#45;&gt;Node8</title>
<path fill="none" stroke="midnightblue" d="M564.501,-637.883C578.949,-640.424 595.3,-645.17 608,-654.005 642.635,-678.101 666.136,-723.229 677.377,-748.886"/>
<polygon fill="midnightblue" stroke="midnightblue" points="674.222,-750.413 681.322,-758.277 680.675,-747.702 674.222,-750.413"/>
</g>
<!-- Node18&#45;&gt;Node3 -->
<g id="edge31" class="edge"><title>Node18&#45;&gt;Node3</title>
<path fill="none" stroke="midnightblue" d="M594.836,-361.058C618.468,-358.161 643.715,-355.066 661.464,-352.89"/>
<polygon fill="midnightblue" stroke="midnightblue" points="661.965,-356.355 671.465,-351.664 661.114,-349.407 661.965,-356.355"/>
</g>
<!-- Node18&#45;&gt;Node4 -->
<g id="edge30" class="edge"><title>Node18&#45;&gt;Node4</title>
<path fill="none" stroke="midnightblue" d="M590.043,-359.492C596.43,-357.018 602.568,-353.91 608,-350.005 632.33,-332.518 621.488,-312.779 644,-293.005 645.724,-291.491 647.589,-290.075 649.541,-288.754"/>
<polygon fill="midnightblue" stroke="midnightblue" points="651.59,-291.611 658.483,-283.565 648.077,-285.557 651.59,-291.611"/>
</g>
<!-- Node18&#45;&gt;Node11 -->
<g id="edge32" class="edge"><title>Node18&#45;&gt;Node11</title>
<path fill="none" stroke="midnightblue" d="M495.879,-378.525C480.539,-381.592 462.786,-386.441 450,-397.005 391.53,-445.318 367.234,-537.147 358.602,-577.521"/>
<polygon fill="midnightblue" stroke="midnightblue" points="355.143,-576.966 356.567,-587.465 362,-578.369 355.143,-576.966"/>
</g>
<!-- Node19&#45;&gt;Node7 -->
<g id="edge37" class="edge"><title>Node19&#45;&gt;Node7</title>
<path fill="none" stroke="midnightblue" d="M563.663,-587.501C577.508,-583.372 593.635,-578.277 608,-573.005 623.753,-567.225 640.947,-559.952 655.083,-553.706"/>
<polygon fill="midnightblue" stroke="midnightblue" points="656.623,-556.851 664.326,-549.576 653.768,-550.46 656.623,-556.851"/>
</g>
<!-- Node19&#45;&gt;Node8 -->
<g id="edge36" class="edge"><title>Node19&#45;&gt;Node8</title>
<path fill="none" stroke="midnightblue" d="M591.601,-606.509C597.489,-608.994 603.086,-612.108 608,-616.005 651.335,-650.367 672.442,-715.608 680.675,-748.299"/>
<polygon fill="midnightblue" stroke="midnightblue" points="677.357,-749.475 683.065,-758.401 684.168,-747.863 677.357,-749.475"/>
</g>
<!-- Node19&#45;&gt;Node11 -->
<g id="edge38" class="edge"><title>Node19&#45;&gt;Node11</title>
<path fill="none" stroke="midnightblue" d="M464.836,-603.528C438.674,-604.043 409.413,-603.682 387.602,-602.443"/>
<polygon fill="midnightblue" stroke="midnightblue" points="387.752,-598.946 377.539,-601.765 387.281,-605.93 387.752,-598.946"/>
</g>
<!-- Node20&#45;&gt;Node3 -->
<g id="edge45" class="edge"><title>Node20&#45;&gt;Node3</title>
<path fill="none" stroke="midnightblue" d="M576.693,-397.402C587.126,-394.769 598.045,-391.624 608,-388.005 626.963,-381.111 647.399,-370.885 662.449,-362.777"/>
<polygon fill="midnightblue" stroke="midnightblue" points="664.411,-365.692 671.491,-357.811 661.041,-359.556 664.411,-365.692"/>
</g>
<!-- Node20&#45;&gt;Node4 -->
<g id="edge43" class="edge"><title>Node20&#45;&gt;Node4</title>
<path fill="none" stroke="midnightblue" d="M593.195,-397.498C598.567,-394.998 603.614,-391.882 608,-388.005 641.834,-358.105 613.238,-326.057 644,-293.005 645.213,-291.702 646.532,-290.481 647.931,-289.337"/>
<polygon fill="midnightblue" stroke="midnightblue" points="650.189,-292.04 656.6,-283.604 646.328,-286.201 650.189,-292.04"/>
</g>
<!-- Node20&#45;&gt;Node7 -->
<g id="edge41" class="edge"><title>Node20&#45;&gt;Node7</title>
<path fill="none" stroke="midnightblue" d="M578.527,-416.544C588.865,-420.004 599.281,-424.686 608,-431.005 640.666,-454.68 664.518,-496.576 676.434,-520.954"/>
<polygon fill="midnightblue" stroke="midnightblue" points="673.373,-522.669 680.8,-530.224 679.705,-519.686 673.373,-522.669"/>
</g>
<!-- Node20&#45;&gt;Node8 -->
<g id="edge40" class="edge"><title>Node20&#45;&gt;Node8</title>
<path fill="none" stroke="midnightblue" d="M540.159,-416.552C556.712,-432.648 589.509,-466.883 608,-502.005 653.011,-587.499 674.805,-702.692 682.095,-748.266"/>
<polygon fill="midnightblue" stroke="midnightblue" points="678.658,-748.943 683.641,-758.292 685.576,-747.876 678.658,-748.943"/>
</g>
<!-- Node20&#45;&gt;Node11 -->
<g id="edge42" class="edge"><title>Node20&#45;&gt;Node11</title>
<path fill="none" stroke="midnightblue" d="M521.691,-416.653C497.923,-447.367 413.16,-540.772 374.265,-579.842"/>
<polygon fill="midnightblue" stroke="midnightblue" points="371.356,-577.795 366.7,-587.312 376.275,-582.776 371.356,-577.795"/>
</g>
<!-- Node20&#45;&gt;Node21 -->
<g id="edge44" class="edge"><title>Node20&#45;&gt;Node21</title>
<path fill="none" stroke="midnightblue" d="M590.043,-397.492C596.43,-395.018 602.568,-391.91 608,-388.005 632.33,-370.518 621.488,-350.779 644,-331.005 645.724,-329.491 647.589,-328.075 649.541,-326.754"/>
<polygon fill="midnightblue" stroke="midnightblue" points="651.59,-329.611 658.483,-321.565 648.077,-323.557 651.59,-329.611"/>
</g>
<!-- Node24&#45;&gt;Node3 -->
<g id="edge51" class="edge"><title>Node24&#45;&gt;Node3</title>
<path fill="none" stroke="midnightblue" d="M414.13,-247.094C468.414,-242.882 548.873,-244.376 608,-279.005 632.255,-293.211 622.494,-312.905 644,-331.005 649.278,-335.448 655.768,-339.08 662.015,-341.934"/>
<polygon fill="midnightblue" stroke="midnightblue" points="660.84,-345.235 671.42,-345.785 663.492,-338.757 660.84,-345.235"/>
</g>
<!-- Node24&#45;&gt;Node9 -->
<g id="edge52" class="edge"><title>Node24&#45;&gt;Node9</title>
<path fill="none" stroke="midnightblue" d="M392.147,-245.458C414.407,-239.813 443.099,-232.536 468.374,-226.126"/>
<polygon fill="midnightblue" stroke="midnightblue" points="469.404,-229.476 478.236,-223.625 467.683,-222.691 469.404,-229.476"/>
</g>
</g>
</svg>
