<?xml version="1.0" encoding="UTF-8" standalone="no"?>
<!DOCTYPE svg PUBLIC "-//W3C//DTD SVG 1.1//EN"
 "http://www.w3.org/Graphics/SVG/1.1/DTD/svg11.dtd">
<!-- Generated by graphviz version 2.40.1 (20161225.0304)
 -->
<!-- Title: Ekf::checkHaglYawResetReq Pages: 1 -->
<svg width="890pt" height="100pt"
 viewBox="0.00 0.00 890.00 99.50" xmlns="http://www.w3.org/2000/svg" xmlns:xlink="http://www.w3.org/1999/xlink">
<g id="graph0" class="graph" transform="scale(1 1) rotate(0) translate(4 95.5)">
<title>Ekf::checkHaglYawResetReq</title>
<polygon fill="#ffffff" stroke="transparent" points="-4,4 -4,-95.5 886,-95.5 886,4 -4,4"/>
<!-- Node372 -->
<g id="node1" class="node">
<title>Node372</title>
<polygon fill="#bfbfbf" stroke="#000000" points="0,-22.5 0,-41.5 148,-41.5 148,-22.5 0,-22.5"/>
<text text-anchor="middle" x="74" y="-29.5" font-family="Helvetica,sans-Serif" font-size="10.00" fill="#000000">Ekf::checkHaglYawResetReq</text>
</g>
<!-- Node373 -->
<g id="node2" class="node">
<title>Node373</title>
<g id="a_node2"><a xlink:href="../../dc/d66/class_ekf.html#af7b13c3328aee801c57df71e99b3d2a2" target="_top" xlink:title="Ekf::controlMagFusion">
<polygon fill="#ffffff" stroke="#000000" points="184,-22.5 184,-41.5 299,-41.5 299,-22.5 184,-22.5"/>
<text text-anchor="middle" x="241.5" y="-29.5" font-family="Helvetica,sans-Serif" font-size="10.00" fill="#000000">Ekf::controlMagFusion</text>
</a>
</g>
</g>
<!-- Node372&#45;&gt;Node373 -->
<g id="edge1" class="edge">
<title>Node372&#45;&gt;Node373</title>
<path fill="none" stroke="#191970" d="M158.5079,-32C167.0956,-32 175.6727,-32 183.878,-32"/>
<polygon fill="#191970" stroke="#191970" points="158.4434,-28.5001 148.4434,-32 158.4434,-35.5001 158.4434,-28.5001"/>
</g>
<!-- Node374 -->
<g id="node3" class="node">
<title>Node374</title>
<g id="a_node3"><a xlink:href="../../dc/d66/class_ekf.html#a709c2a511002736cd376c265c244eace" target="_top" xlink:title="Ekf::controlFusionModes">
<polygon fill="#ffffff" stroke="#000000" points="335,-22.5 335,-41.5 460,-41.5 460,-22.5 335,-22.5"/>
<text text-anchor="middle" x="397.5" y="-29.5" font-family="Helvetica,sans-Serif" font-size="10.00" fill="#000000">Ekf::controlFusionModes</text>
</a>
</g>
</g>
<!-- Node373&#45;&gt;Node374 -->
<g id="edge2" class="edge">
<title>Node373&#45;&gt;Node374</title>
<path fill="none" stroke="#191970" d="M309.3664,-32C317.8342,-32 326.4641,-32 334.8477,-32"/>
<polygon fill="#191970" stroke="#191970" points="309.1455,-28.5001 299.1454,-32 309.1454,-35.5001 309.1455,-28.5001"/>
</g>
<!-- Node375 -->
<g id="node4" class="node">
<title>Node375</title>
<g id="a_node4"><a xlink:href="../../dc/d66/class_ekf.html#a174a8ebf58b267ae263cd8a64dc776d6" target="_top" xlink:title="Ekf::update">
<polygon fill="#ffffff" stroke="#000000" points="496,-22.5 496,-41.5 563,-41.5 563,-22.5 496,-22.5"/>
<text text-anchor="middle" x="529.5" y="-29.5" font-family="Helvetica,sans-Serif" font-size="10.00" fill="#000000">Ekf::update</text>
</a>
</g>
</g>
<!-- Node374&#45;&gt;Node375 -->
<g id="edge3" class="edge">
<title>Node374&#45;&gt;Node375</title>
<path fill="none" stroke="#191970" d="M470.1892,-32C479.1643,-32 487.9728,-32 495.9414,-32"/>
<polygon fill="#191970" stroke="#191970" points="470.021,-28.5001 460.021,-32 470.0209,-35.5001 470.021,-28.5001"/>
</g>
<!-- Node376 -->
<g id="node5" class="node">
<title>Node376</title>
<g id="a_node5"><a xlink:href="../../d3/d9b/class_ekf_initialization_test.html#a668b9135c03c01f5f0a5626bb1617961" target="_top" xlink:title="EkfInitializationTest\l::update_with_const_sensors">
<polygon fill="#ffffff" stroke="#000000" points="599,-39 599,-69 743,-69 743,-39 599,-39"/>
<text text-anchor="start" x="607" y="-57" font-family="Helvetica,sans-Serif" font-size="10.00" fill="#000000">EkfInitializationTest</text>
<text text-anchor="middle" x="671" y="-46" font-family="Helvetica,sans-Serif" font-size="10.00" fill="#000000">::update_with_const_sensors</text>
</a>
</g>
</g>
<!-- Node375&#45;&gt;Node376 -->
<g id="edge4" class="edge">
<title>Node375&#45;&gt;Node376</title>
<path fill="none" stroke="#191970" d="M573.1059,-38.7797C581.3343,-40.059 590.1401,-41.4281 598.9724,-42.8014"/>
<polygon fill="#191970" stroke="#191970" points="573.4525,-35.2916 563.0335,-37.2137 572.3771,-42.2085 573.4525,-35.2916"/>
</g>
<!-- Node379 -->
<g id="node8" class="node">
<title>Node379</title>
<g id="a_node8"><a xlink:href="../../de/d9c/class_ekf2.html#aa9d0494340430e589883d23899a2bd76" target="_top" xlink:title="Ekf2::Run">
<polygon fill="#ffffff" stroke="#000000" points="640.5,-.5 640.5,-19.5 701.5,-19.5 701.5,-.5 640.5,-.5"/>
<text text-anchor="middle" x="671" y="-7.5" font-family="Helvetica,sans-Serif" font-size="10.00" fill="#000000">Ekf2::Run</text>
</a>
</g>
</g>
<!-- Node375&#45;&gt;Node379 -->
<g id="edge7" class="edge">
<title>Node375&#45;&gt;Node379</title>
<path fill="none" stroke="#191970" d="M573.0049,-25.236C594.7168,-21.8603 620.4693,-17.8564 640.1248,-14.8004"/>
<polygon fill="#191970" stroke="#191970" points="572.3771,-21.7915 563.0335,-26.7863 573.4525,-28.7084 572.3771,-21.7915"/>
</g>
<!-- Node377 -->
<g id="node6" class="node">
<title>Node377</title>
<g id="a_node6"><a xlink:href="../../d3/d9b/class_ekf_initialization_test.html#a68ff1fdc6e36f6f426b17365aef723c7" target="_top" xlink:title="EkfInitializationTest\l::SetUp">
<polygon fill="#ffffff" stroke="#000000" points="779,-61 779,-91 882,-91 882,-61 779,-61"/>
<text text-anchor="start" x="787" y="-79" font-family="Helvetica,sans-Serif" font-size="10.00" fill="#000000">EkfInitializationTest</text>
<text text-anchor="middle" x="830.5" y="-68" font-family="Helvetica,sans-Serif" font-size="10.00" fill="#000000">::SetUp</text>
</a>
</g>
</g>
<!-- Node376&#45;&gt;Node377 -->
<g id="edge5" class="edge">
<title>Node376&#45;&gt;Node377</title>
<path fill="none" stroke="#191970" d="M753.4665,-65.3747C762.1455,-66.5718 770.7815,-67.763 778.9627,-68.8914"/>
<polygon fill="#191970" stroke="#191970" points="753.6676,-61.8694 743.2832,-63.9701 752.7111,-68.8037 753.6676,-61.8694"/>
</g>
<!-- Node378 -->
<g id="node7" class="node">
<title>Node378</title>
<g id="a_node7"><a xlink:href="../../dd/db0/test___e_k_f__basics_8cpp.html#a9bac2def61c4e03342922f674ab4c400" target="_top" xlink:title="TEST_F">
<polygon fill="#ffffff" stroke="#000000" points="804,-22.5 804,-41.5 857,-41.5 857,-22.5 804,-22.5"/>
<text text-anchor="middle" x="830.5" y="-29.5" font-family="Helvetica,sans-Serif" font-size="10.00" fill="#000000">TEST_F</text>
</a>
</g>
</g>
<!-- Node376&#45;&gt;Node378 -->
<g id="edge6" class="edge">
<title>Node376&#45;&gt;Node378</title>
<path fill="none" stroke="#191970" d="M753.4355,-42.6296C771.7189,-40.1077 789.8138,-37.6119 803.8706,-35.673"/>
<polygon fill="#191970" stroke="#191970" points="752.7111,-39.1963 743.2832,-44.0299 753.6676,-46.1306 752.7111,-39.1963"/>
</g>
</g>
</svg>
