<?xml version="1.0" encoding="UTF-8" standalone="no"?>
<!DOCTYPE svg PUBLIC "-//W3C//DTD SVG 1.1//EN"
 "http://www.w3.org/Graphics/SVG/1.1/DTD/svg11.dtd">
<!-- Generated by graphviz version 2.40.1 (20161225.0304)
 -->
<!-- Title: Ekf::resetPosition Pages: 1 -->
<!--zoomable 940 -->
<svg id="main" version="1.1" xmlns="http://www.w3.org/2000/svg" xmlns:xlink="http://www.w3.org/1999/xlink" xml:space="preserve" onload="init(evt)">
<style type="text/css"><![CDATA[
.edge:hover path { stroke: red; }
.edge:hover polygon { stroke: red; fill: red; }
]]></style>
<script type="text/javascript"><![CDATA[
var edges = document.getElementsByTagName('g');
if (edges && edges.length) {
  for (var i=0;i<edges.length;i++) {
    if (edges[i].id.substr(0,4)=='edge') {
      edges[i].setAttribute('class','edge');
    }
  }
}
]]></script>
        <defs>
                <circle id="rim" cx="0" cy="0" r="7"/>
                <circle id="rim2" cx="0" cy="0" r="3.5"/>
                <g id="zoomPlus">
                        <use xlink:href="#rim" fill="#404040">
                                <set attributeName="fill" to="#808080" begin="zoomplus.mouseover" end="zoomplus.mouseout"/>
                        </use>
                        <path d="M-4,0h8M0,-4v8" fill="none" stroke="white" stroke-width="1.5" pointer-events="none"/>
                </g>
                <g id="zoomMin">
                        <use xlink:href="#rim" fill="#404040">
                                <set attributeName="fill" to="#808080" begin="zoomminus.mouseover" end="zoomminus.mouseout"/>
                        </use>
                        <path d="M-4,0h8" fill="none" stroke="white" stroke-width="1.5" pointer-events="none"/>
                </g>
                <g id="dirArrow">
                        <path fill="none" stroke="white" stroke-width="1.5" d="M0,-3.0v7 M-2.5,-0.5L0,-3.0L2.5,-0.5"/>
                </g>
               <g id="resetDef">
                       <use xlink:href="#rim2" fill="#404040">
                               <set attributeName="fill" to="#808080" begin="reset.mouseover" end="reset.mouseout"/>
                       </use>
               </g>
        </defs>

<script type="text/javascript">
var viewWidth = 884;
var viewHeight = 940;
var sectionId = 'dynsection-206';
</script>
<script xlink:href="../../svgpan.js"/>
<svg id="graph" class="graph">
<g id="viewport">
<title>Ekf::resetPosition</title>
<polygon fill="#ffffff" stroke="transparent" points="-4,4 -4,-936 880,-936 880,4 -4,4"/>
<!-- Node3877 -->
<g id="node1" class="node">
<title>Node3877</title>
<polygon fill="#bfbfbf" stroke="#000000" points="0,-836.5 0,-855.5 95,-855.5 95,-836.5 0,-836.5"/>
<text text-anchor="middle" x="47.5" y="-843.5" font-family="Helvetica,sans-Serif" font-size="10.00" fill="#000000">Ekf::resetPosition</text>
</g>
<!-- Node3878 -->
<g id="node2" class="node">
<title>Node3878</title>
<g id="a_node2"><a xlink:href="../../d4/d8f/class_ring_buffer.html#a330f23a9ac96203bb4cf42cec677a242" target="_top" xlink:title="RingBuffer::get_length">
<polygon fill="#ffffff" stroke="#000000" points="131,-912.5 131,-931.5 245,-931.5 245,-912.5 131,-912.5"/>
<text text-anchor="middle" x="188" y="-919.5" font-family="Helvetica,sans-Serif" font-size="10.00" fill="#000000">RingBuffer::get_length</text>
</a>
</g>
</g>
<!-- Node3877&#45;&gt;Node3878 -->
<g id="edge1" class="edge">
<title>Node3877&#45;&gt;Node3878</title>
<path fill="none" stroke="#191970" d="M61.2849,-855.5329C77.5233,-866.5363 105.5218,-884.8085 131,-898 138.1736,-901.7142 146.0538,-905.3181 153.6056,-908.5558"/>
<polygon fill="#191970" stroke="#191970" points="152.3412,-911.8207 162.9178,-912.4418 155.037,-905.3606 152.3412,-911.8207"/>
</g>
<!-- Node3879 -->
<g id="node3" class="node">
<title>Node3879</title>
<g id="a_node3"><a xlink:href="../../dc/d66/class_ekf.html#a3e1cf1f594a9d829c03e3672816a7f07" target="_top" xlink:title="Ekf::setDiag">
<polygon fill="#ffffff" stroke="#000000" points="664.5,-741.5 664.5,-760.5 735.5,-760.5 735.5,-741.5 664.5,-741.5"/>
<text text-anchor="middle" x="700" y="-748.5" font-family="Helvetica,sans-Serif" font-size="10.00" fill="#000000">Ekf::setDiag</text>
</a>
</g>
</g>
<!-- Node3877&#45;&gt;Node3879 -->
<g id="edge2" class="edge">
<title>Node3877&#45;&gt;Node3879</title>
<path fill="none" stroke="#191970" d="M95.2155,-839.0529C216.4175,-821.4066 534.9555,-775.0295 654.1286,-757.6786"/>
<polygon fill="#191970" stroke="#191970" points="654.9718,-761.0928 664.3632,-756.1885 653.9632,-754.1658 654.9718,-761.0928"/>
</g>
<!-- Node3880 -->
<g id="node4" class="node">
<title>Node3880</title>
<g id="a_node4"><a xlink:href="../../dc/d66/class_ekf.html#a49a4da2e831b46876b307eb8e0560a12" target="_top" xlink:title="Ekf::zeroRows">
<polygon fill="#ffffff" stroke="#000000" points="794,-665.5 794,-684.5 876,-684.5 876,-665.5 794,-665.5"/>
<text text-anchor="middle" x="835" y="-672.5" font-family="Helvetica,sans-Serif" font-size="10.00" fill="#000000">Ekf::zeroRows</text>
</a>
</g>
</g>
<!-- Node3877&#45;&gt;Node3880 -->
<g id="edge61" class="edge">
<title>Node3877&#45;&gt;Node3880</title>
<path fill="none" stroke="#191970" d="M95.084,-855.2958C156.9105,-866.5457 268.3312,-884 364.5,-884 364.5,-884 364.5,-884 545,-884 647.2589,-884 679.642,-862.7032 758,-797 792.2253,-768.3021 816.132,-720.3861 827.4883,-693.9519"/>
<polygon fill="#191970" stroke="#191970" points="830.7457,-695.2338 831.3421,-684.6557 824.2793,-692.5531 830.7457,-695.2338"/>
</g>
<!-- Node3881 -->
<g id="node5" class="node">
<title>Node3881</title>
<g id="a_node5"><a xlink:href="../../dc/d66/class_ekf.html#a421983af018ca82e2c5c0ba3fa5ad769" target="_top" xlink:title="Ekf::zeroCols">
<polygon fill="#ffffff" stroke="#000000" points="796.5,-461.5 796.5,-480.5 873.5,-480.5 873.5,-461.5 796.5,-461.5"/>
<text text-anchor="middle" x="835" y="-468.5" font-family="Helvetica,sans-Serif" font-size="10.00" fill="#000000">Ekf::zeroCols</text>
</a>
</g>
</g>
<!-- Node3877&#45;&gt;Node3881 -->
<g id="edge60" class="edge">
<title>Node3877&#45;&gt;Node3881</title>
<path fill="none" stroke="#191970" d="M48.7039,-836.4121C54.6318,-790.3721 82.4045,-587.6449 131,-428 188.7242,-238.3656 166.2747,-48 364.5,-48 364.5,-48 364.5,-48 545,-48 743.3435,-48 816.0875,-368.2858 831.634,-451.4582"/>
<polygon fill="#191970" stroke="#191970" points="828.2023,-452.1504 833.4219,-461.3703 835.0911,-450.9078 828.2023,-452.1504"/>
</g>
<!-- Node3882 -->
<g id="node6" class="node">
<title>Node3882</title>
<g id="a_node6"><a xlink:href="../../dc/d66/class_ekf.html#ac557eacd06bd597b3ab097cab74c1c39" target="_top" xlink:title="Ekf::sq">
<polygon fill="#ffffff" stroke="#000000" points="164,-437.5 164,-456.5 212,-456.5 212,-437.5 164,-437.5"/>
<text text-anchor="middle" x="188" y="-444.5" font-family="Helvetica,sans-Serif" font-size="10.00" fill="#000000">Ekf::sq</text>
</a>
</g>
</g>
<!-- Node3877&#45;&gt;Node3882 -->
<g id="edge5" class="edge">
<title>Node3877&#45;&gt;Node3882</title>
<path fill="none" stroke="#191970" d="M50.9731,-836.137C69.4624,-783.63 156.4199,-536.6829 181.3216,-465.9656"/>
<polygon fill="#191970" stroke="#191970" points="184.6282,-467.113 184.6483,-456.5182 178.0256,-464.788 184.6282,-467.113"/>
</g>
<!-- Node3879&#45;&gt;Node3880 -->
<g id="edge3" class="edge">
<title>Node3879&#45;&gt;Node3880</title>
<path fill="none" stroke="#191970" d="M717.0978,-741.3745C740.3269,-728.2975 782.0581,-704.8043 809.1307,-689.5634"/>
<polygon fill="#191970" stroke="#191970" points="811.0439,-692.5029 818.041,-684.5473 807.6099,-686.4031 811.0439,-692.5029"/>
</g>
<!-- Node3879&#45;&gt;Node3881 -->
<g id="edge4" class="edge">
<title>Node3879&#45;&gt;Node3881</title>
<path fill="none" stroke="#191970" d="M708.8812,-741.3286C721.2272,-727.4869 743.6703,-700.8363 758,-675 793.276,-611.3976 818.9725,-528.3615 829.5995,-490.8841"/>
<polygon fill="#191970" stroke="#191970" points="833.0999,-491.36 832.4076,-480.7878 826.3559,-489.4842 833.0999,-491.36"/>
</g>
<!-- Node3882&#45;&gt;Node3879 -->
<g id="edge31" class="edge">
<title>Node3882&#45;&gt;Node3879</title>
<path fill="none" stroke="#191970" d="M189.7126,-456.725C195.7937,-488.2221 219.3811,-588.2153 281,-637 340.6797,-684.2494 376.9063,-647.7996 448,-675 465.0949,-681.5405 467.005,-688.2043 484,-695 540.898,-717.7513 609.9482,-733.767 654.4105,-742.6847"/>
<polygon fill="#191970" stroke="#191970" points="653.8479,-746.1411 664.3357,-744.6393 655.2004,-739.273 653.8479,-746.1411"/>
</g>
<!-- Node3882&#45;&gt;Node3880 -->
<g id="edge26" class="edge">
<title>Node3882&#45;&gt;Node3880</title>
<path fill="none" stroke="#191970" d="M189.1332,-456.6232C195.2782,-506.9874 226.3577,-739.4938 281,-781 327.2676,-816.1448 661.7783,-817.9812 758,-770 790.7691,-753.6596 814.3347,-716.2149 826.2236,-693.5207"/>
<polygon fill="#191970" stroke="#191970" points="829.3773,-695.0395 830.7265,-684.5309 823.1186,-691.9045 829.3773,-695.0395"/>
</g>
<!-- Node3882&#45;&gt;Node3881 -->
<g id="edge27" class="edge">
<title>Node3882&#45;&gt;Node3881</title>
<path fill="none" stroke="#191970" d="M195.687,-437.3767C210.1819,-420.0994 243.488,-384.378 281,-371 475.6119,-301.5949 726.6036,-415.0156 808.1411,-456.636"/>
<polygon fill="#191970" stroke="#191970" points="806.7395,-459.8515 817.2295,-461.3386 809.9564,-453.6345 806.7395,-459.8515"/>
</g>
<!-- Node3883 -->
<g id="node7" class="node">
<title>Node3883</title>
<g id="a_node7"><a xlink:href="../../dc/d66/class_ekf.html#aa34f4d9d89e096b542a287fbe1b91d92" target="_top" xlink:title="Ekf::setControlBaroHeight">
<polygon fill="#ffffff" stroke="#000000" points="299,-190.5 299,-209.5 430,-209.5 430,-190.5 299,-190.5"/>
<text text-anchor="middle" x="364.5" y="-197.5" font-family="Helvetica,sans-Serif" font-size="10.00" fill="#000000">Ekf::setControlBaroHeight</text>
</a>
</g>
</g>
<!-- Node3882&#45;&gt;Node3883 -->
<g id="edge6" class="edge">
<title>Node3882&#45;&gt;Node3883</title>
<path fill="none" stroke="#191970" d="M188.8419,-437.4059C192.464,-402.2362 209.9389,-279.2949 281,-219 283.6888,-216.7186 286.5962,-214.6968 289.6585,-212.9061"/>
<polygon fill="#191970" stroke="#191970" points="291.243,-216.0271 298.6462,-208.4479 288.1324,-209.7562 291.243,-216.0271"/>
</g>
<!-- Node3884 -->
<g id="node8" class="node">
<title>Node3884</title>
<g id="a_node8"><a xlink:href="../../dc/d66/class_ekf.html#a3a839968be88e4e47f265d8f62b0155a" target="_top" xlink:title="Ekf::setControlRangeHeight">
<polygon fill="#ffffff" stroke="#000000" points="294.5,-152.5 294.5,-171.5 434.5,-171.5 434.5,-152.5 294.5,-152.5"/>
<text text-anchor="middle" x="364.5" y="-159.5" font-family="Helvetica,sans-Serif" font-size="10.00" fill="#000000">Ekf::setControlRangeHeight</text>
</a>
</g>
</g>
<!-- Node3882&#45;&gt;Node3884 -->
<g id="edge7" class="edge">
<title>Node3882&#45;&gt;Node3884</title>
<path fill="none" stroke="#191970" d="M190.0806,-437.2814C199.5812,-393.7818 240.1372,-217.5024 281,-181 282.7116,-179.471 284.5205,-178.0573 286.4086,-176.7506"/>
<polygon fill="#191970" stroke="#191970" points="288.2492,-179.7292 295.1391,-171.6806 284.7338,-173.6759 288.2492,-179.7292"/>
</g>
<!-- Node3885 -->
<g id="node9" class="node">
<title>Node3885</title>
<g id="a_node9"><a xlink:href="../../dc/d66/class_ekf.html#a8b687c82c5dfbdeebae02685783fc2ef" target="_top" xlink:title="Ekf::setControlGPSHeight">
<polygon fill="#ffffff" stroke="#000000" points="298.5,-114.5 298.5,-133.5 430.5,-133.5 430.5,-114.5 298.5,-114.5"/>
<text text-anchor="middle" x="364.5" y="-121.5" font-family="Helvetica,sans-Serif" font-size="10.00" fill="#000000">Ekf::setControlGPSHeight</text>
</a>
</g>
</g>
<!-- Node3882&#45;&gt;Node3885 -->
<g id="edge8" class="edge">
<title>Node3882&#45;&gt;Node3885</title>
<path fill="none" stroke="#191970" d="M189.6501,-437.2033C197.8127,-389.876 235.3167,-185.4583 281,-143 283.5047,-140.6721 286.2333,-138.6092 289.1254,-136.7823"/>
<polygon fill="#191970" stroke="#191970" points="291.0182,-139.7411 298.2318,-131.9813 287.7536,-133.549 291.0182,-139.7411"/>
</g>
<!-- Node3886 -->
<g id="node10" class="node">
<title>Node3886</title>
<g id="a_node10"><a xlink:href="../../dc/d66/class_ekf.html#aaf80ea102825ba5755fba7f2a7446578" target="_top" xlink:title="Ekf::setControlEVHeight">
<polygon fill="#ffffff" stroke="#000000" points="302,-722.5 302,-741.5 427,-741.5 427,-722.5 302,-722.5"/>
<text text-anchor="middle" x="364.5" y="-729.5" font-family="Helvetica,sans-Serif" font-size="10.00" fill="#000000">Ekf::setControlEVHeight</text>
</a>
</g>
</g>
<!-- Node3882&#45;&gt;Node3886 -->
<g id="edge9" class="edge">
<title>Node3882&#45;&gt;Node3886</title>
<path fill="none" stroke="#191970" d="M190.0806,-456.7186C199.5812,-500.2182 240.1372,-676.4976 281,-713 284.4614,-716.092 288.3203,-718.7125 292.4283,-720.9304"/>
<polygon fill="#191970" stroke="#191970" points="291.2096,-724.2209 301.7619,-725.1695 294.1044,-717.8474 291.2096,-724.2209"/>
</g>
<!-- Node3887 -->
<g id="node11" class="node">
<title>Node3887</title>
<g id="a_node11"><a xlink:href="../../dc/d66/class_ekf.html#aa3557241350622e78d0ef053e28177dc" target="_top" xlink:title="Ekf::stopMagFusion">
<polygon fill="#ffffff" stroke="#000000" points="312.5,-532.5 312.5,-551.5 416.5,-551.5 416.5,-532.5 312.5,-532.5"/>
<text text-anchor="middle" x="364.5" y="-539.5" font-family="Helvetica,sans-Serif" font-size="10.00" fill="#000000">Ekf::stopMagFusion</text>
</a>
</g>
</g>
<!-- Node3882&#45;&gt;Node3887 -->
<g id="edge10" class="edge">
<title>Node3882&#45;&gt;Node3887</title>
<path fill="none" stroke="#191970" d="M198.0073,-456.7045C214.1733,-471.8754 247.6084,-501.2074 281,-518 289.9948,-522.5235 299.9759,-526.3197 309.8173,-529.4604"/>
<polygon fill="#191970" stroke="#191970" points="308.9865,-532.8652 319.5705,-532.3853 310.9973,-526.1602 308.9865,-532.8652"/>
</g>
<!-- Node3888 -->
<g id="node12" class="node">
<title>Node3888</title>
<g id="a_node12"><a xlink:href="../../dc/d66/class_ekf.html#aa148e57137bf741e4ea5797152d1fe19" target="_top" xlink:title="Ekf::stopMag3DFusion">
<polygon fill="#ffffff" stroke="#000000" points="486.5,-418.5 486.5,-437.5 603.5,-437.5 603.5,-418.5 486.5,-418.5"/>
<text text-anchor="middle" x="545" y="-425.5" font-family="Helvetica,sans-Serif" font-size="10.00" fill="#000000">Ekf::stopMag3DFusion</text>
</a>
</g>
</g>
<!-- Node3882&#45;&gt;Node3888 -->
<g id="edge18" class="edge">
<title>Node3882&#45;&gt;Node3888</title>
<path fill="none" stroke="#191970" d="M212.2574,-445.709C265.7598,-442.8615 395.539,-435.9545 476.295,-431.6566"/>
<polygon fill="#191970" stroke="#191970" points="476.5781,-435.1466 486.3779,-431.1199 476.206,-428.1564 476.5781,-435.1466"/>
</g>
<!-- Node3890 -->
<g id="node14" class="node">
<title>Node3890</title>
<g id="a_node14"><a xlink:href="../../dc/d66/class_ekf.html#ab01e08a118d9778ea0a79d552f286ba3" target="_top" xlink:title="Ekf::stopMagHdgFusion">
<polygon fill="#ffffff" stroke="#000000" points="484,-532.5 484,-551.5 606,-551.5 606,-532.5 484,-532.5"/>
<text text-anchor="middle" x="545" y="-539.5" font-family="Helvetica,sans-Serif" font-size="10.00" fill="#000000">Ekf::stopMagHdgFusion</text>
</a>
</g>
</g>
<!-- Node3882&#45;&gt;Node3890 -->
<g id="edge19" class="edge">
<title>Node3882&#45;&gt;Node3890</title>
<path fill="none" stroke="#191970" d="M208.3069,-456.5068C226.8989,-464.9177 255.3417,-477.0553 281,-485 318.5211,-496.6179 420.0011,-517.4421 485.6552,-530.4467"/>
<polygon fill="#191970" stroke="#191970" points="485.3807,-533.96 495.8694,-532.4641 486.7371,-527.0927 485.3807,-533.96"/>
</g>
<!-- Node3893 -->
<g id="node17" class="node">
<title>Node3893</title>
<g id="a_node17"><a xlink:href="../../dc/d66/class_ekf.html#a0828d9e222ff448c3686d36d3eafbad3" target="_top" xlink:title="Ekf::startMagHdgFusion">
<polygon fill="#ffffff" stroke="#000000" points="303,-380.5 303,-399.5 426,-399.5 426,-380.5 303,-380.5"/>
<text text-anchor="middle" x="364.5" y="-387.5" font-family="Helvetica,sans-Serif" font-size="10.00" fill="#000000">Ekf::startMagHdgFusion</text>
</a>
</g>
</g>
<!-- Node3882&#45;&gt;Node3893 -->
<g id="edge20" class="edge">
<title>Node3882&#45;&gt;Node3893</title>
<path fill="none" stroke="#191970" d="M212.3376,-437.9049C231.0195,-431.0354 257.5089,-421.536 281,-414 293.4662,-410.0008 307.0778,-405.9546 319.6251,-402.3529"/>
<polygon fill="#191970" stroke="#191970" points="320.7556,-405.6703 329.4173,-399.5691 318.8414,-398.9371 320.7556,-405.6703"/>
</g>
<!-- Node3894 -->
<g id="node18" class="node">
<title>Node3894</title>
<g id="a_node18"><a xlink:href="../../dc/d66/class_ekf.html#a8722aaa3baa6b8fb1a837b9478f35105" target="_top" xlink:title="Ekf::startMag3DFusion">
<polygon fill="#ffffff" stroke="#000000" points="305.5,-456.5 305.5,-475.5 423.5,-475.5 423.5,-456.5 305.5,-456.5"/>
<text text-anchor="middle" x="364.5" y="-463.5" font-family="Helvetica,sans-Serif" font-size="10.00" fill="#000000">Ekf::startMag3DFusion</text>
</a>
</g>
</g>
<!-- Node3882&#45;&gt;Node3894 -->
<g id="edge22" class="edge">
<title>Node3882&#45;&gt;Node3894</title>
<path fill="none" stroke="#191970" d="M212.1715,-449.602C233.5385,-451.9022 265.7788,-455.3728 295.1051,-458.5297"/>
<polygon fill="#191970" stroke="#191970" points="295.0168,-462.0404 305.334,-459.6309 295.7661,-455.0806 295.0168,-462.0404"/>
</g>
<!-- Node3896 -->
<g id="node20" class="node">
<title>Node3896</title>
<g id="a_node20"><a xlink:href="../../dc/d66/class_ekf.html#a5b85c3509e588863acecef05b7d0a195" target="_top" xlink:title="Ekf::zeroOffDiag">
<polygon fill="#ffffff" stroke="#000000" points="655,-646.5 655,-665.5 745,-665.5 745,-646.5 655,-646.5"/>
<text text-anchor="middle" x="700" y="-653.5" font-family="Helvetica,sans-Serif" font-size="10.00" fill="#000000">Ekf::zeroOffDiag</text>
</a>
</g>
</g>
<!-- Node3882&#45;&gt;Node3896 -->
<g id="edge28" class="edge">
<title>Node3882&#45;&gt;Node3896</title>
<path fill="none" stroke="#191970" d="M189.4185,-456.6991C196.6179,-504.458 230.7515,-713.8249 281,-751 408.4244,-845.2719 613.0162,-717.5733 678.8593,-671.4592"/>
<polygon fill="#191970" stroke="#191970" points="681.0841,-674.172 687.2068,-665.5254 677.0283,-668.4666 681.0841,-674.172"/>
</g>
<!-- Node3897 -->
<g id="node21" class="node">
<title>Node3897</title>
<g id="a_node21"><a xlink:href="../../dc/d66/class_ekf.html#a235e6e03f6e6611fd053b395adc71b3a" target="_top" xlink:title="Ekf::calcOptFlowMeasVar">
<polygon fill="#ffffff" stroke="#000000" points="299,-228.5 299,-247.5 430,-247.5 430,-228.5 299,-228.5"/>
<text text-anchor="middle" x="364.5" y="-235.5" font-family="Helvetica,sans-Serif" font-size="10.00" fill="#000000">Ekf::calcOptFlowMeasVar</text>
</a>
</g>
</g>
<!-- Node3882&#45;&gt;Node3897 -->
<g id="edge32" class="edge">
<title>Node3882&#45;&gt;Node3897</title>
<path fill="none" stroke="#191970" d="M189.103,-437.3832C194.0833,-404.3256 217.0776,-298.6085 281,-248 283.7647,-245.8111 286.7339,-243.8648 289.8459,-242.1419"/>
<polygon fill="#191970" stroke="#191970" points="291.3842,-245.2863 298.9433,-237.8626 288.4046,-238.952 291.3842,-245.2863"/>
</g>
<!-- Node3902 -->
<g id="node26" class="node">
<title>Node3902</title>
<g id="a_node26"><a xlink:href="../../dc/d66/class_ekf.html#ab3c6e783a4a9cd982d1fb2e01a4cd54b" target="_top" xlink:title="Ekf::calcRotVecVariances">
<polygon fill="#ffffff" stroke="#000000" points="298.5,-76.5 298.5,-95.5 430.5,-95.5 430.5,-76.5 298.5,-76.5"/>
<text text-anchor="middle" x="364.5" y="-83.5" font-family="Helvetica,sans-Serif" font-size="10.00" fill="#000000">Ekf::calcRotVecVariances</text>
</a>
</g>
</g>
<!-- Node3882&#45;&gt;Node3902 -->
<g id="edge39" class="edge">
<title>Node3882&#45;&gt;Node3902</title>
<path fill="none" stroke="#191970" d="M189.2774,-437.3636C196.1569,-386.8999 230.3745,-153.5536 281,-105 283.6003,-102.5061 286.4566,-100.3141 289.4971,-98.3892"/>
<polygon fill="#191970" stroke="#191970" points="291.2825,-101.4045 298.4939,-93.6427 288.0161,-95.2133 291.2825,-101.4045"/>
</g>
<!-- Node3903 -->
<g id="node27" class="node">
<title>Node3903</title>
<g id="a_node27"><a xlink:href="../../dc/d66/class_ekf.html#a8c9fb4e5919264cdf44c8e940c488443" target="_top" xlink:title="Ekf::initialiseQuatCovariances">
<polygon fill="#ffffff" stroke="#000000" points="290,-304.5 290,-323.5 439,-323.5 439,-304.5 290,-304.5"/>
<text text-anchor="middle" x="364.5" y="-311.5" font-family="Helvetica,sans-Serif" font-size="10.00" fill="#000000">Ekf::initialiseQuatCovariances</text>
</a>
</g>
</g>
<!-- Node3882&#45;&gt;Node3903 -->
<g id="edge41" class="edge">
<title>Node3882&#45;&gt;Node3903</title>
<path fill="none" stroke="#191970" d="M193.5887,-437.1814C206.2704,-415.8004 239.3818,-364.803 281,-338 288.0182,-333.4801 295.9045,-329.7928 303.9554,-326.7894"/>
<polygon fill="#191970" stroke="#191970" points="305.0964,-330.0983 313.44,-323.5688 302.8457,-323.47 305.0964,-330.0983"/>
</g>
<!-- Node3904 -->
<g id="node28" class="node">
<title>Node3904</title>
<g id="a_node28"><a xlink:href="../../dc/d66/class_ekf.html#a43b43d423a1c6d45dc4cf6de7fe3bdfe" target="_top" xlink:title="Ekf::resetMagRelatedCovariances">
<polygon fill="#ffffff" stroke="#000000" points="281,-608.5 281,-627.5 448,-627.5 448,-608.5 281,-608.5"/>
<text text-anchor="middle" x="364.5" y="-615.5" font-family="Helvetica,sans-Serif" font-size="10.00" fill="#000000">Ekf::resetMagRelatedCovariances</text>
</a>
</g>
</g>
<!-- Node3882&#45;&gt;Node3904 -->
<g id="edge45" class="edge">
<title>Node3882&#45;&gt;Node3904</title>
<path fill="none" stroke="#191970" d="M192.4961,-456.5338C202.8211,-482.8842 231.2438,-554.2735 281,-590 292.7585,-598.4429 307.6515,-603.212 321.5938,-606.3757"/>
<polygon fill="#191970" stroke="#191970" points="321.0182,-609.8306 331.5194,-608.4252 322.4338,-602.9752 321.0182,-609.8306"/>
</g>
<!-- Node3905 -->
<g id="node29" class="node">
<title>Node3905</title>
<g id="a_node29"><a xlink:href="../../dc/d66/class_ekf.html#aede08985fc3703e505df3538134c1d40" target="_top" xlink:title="Ekf::resetWindCovariance">
<polygon fill="#ffffff" stroke="#000000" points="299,-266.5 299,-285.5 430,-285.5 430,-266.5 299,-266.5"/>
<text text-anchor="middle" x="364.5" y="-273.5" font-family="Helvetica,sans-Serif" font-size="10.00" fill="#000000">Ekf::resetWindCovariance</text>
</a>
</g>
</g>
<!-- Node3882&#45;&gt;Node3905 -->
<g id="edge51" class="edge">
<title>Node3882&#45;&gt;Node3905</title>
<path fill="none" stroke="#191970" d="M189.9179,-437.1047C197.2968,-407.9018 226.2179,-325.3352 281,-286 283.7172,-284.049 286.6018,-282.2941 289.6033,-280.7222"/>
<polygon fill="#191970" stroke="#191970" points="291.2211,-283.8324 298.9085,-276.5416 288.3524,-277.4472 291.2211,-283.8324"/>
</g>
<!-- Node3907 -->
<g id="node31" class="node">
<title>Node3907</title>
<g id="a_node31"><a xlink:href="../../dc/d66/class_ekf.html#a999d2ee6ba6c99901f9de895101d68b2" target="_top" xlink:title="Ekf::resetWindStates">
<polygon fill="#ffffff" stroke="#000000" points="309.5,-684.5 309.5,-703.5 419.5,-703.5 419.5,-684.5 309.5,-684.5"/>
<text text-anchor="middle" x="364.5" y="-691.5" font-family="Helvetica,sans-Serif" font-size="10.00" fill="#000000">Ekf::resetWindStates</text>
</a>
</g>
</g>
<!-- Node3882&#45;&gt;Node3907 -->
<g id="edge58" class="edge">
<title>Node3882&#45;&gt;Node3907</title>
<path fill="none" stroke="#191970" d="M189.0855,-456.7337C193.4697,-491.3205 213.036,-609.4485 281,-670 286.4973,-674.8977 292.934,-678.8003 299.752,-681.9091"/>
<polygon fill="#191970" stroke="#191970" points="298.6474,-685.2363 309.2331,-685.6753 301.2316,-678.7308 298.6474,-685.2363"/>
</g>
<!-- Node3908 -->
<g id="node32" class="node">
<title>Node3908</title>
<g id="a_node32"><a xlink:href="../../dc/d66/class_ekf.html#a5d30376fa415773e9f477b012ecc522f" target="_top" xlink:title="Ekf::updateRangeDataContinuity">
<polygon fill="#ffffff" stroke="#000000" points="284,-570.5 284,-589.5 445,-589.5 445,-570.5 284,-570.5"/>
<text text-anchor="middle" x="364.5" y="-577.5" font-family="Helvetica,sans-Serif" font-size="10.00" fill="#000000">Ekf::updateRangeDataContinuity</text>
</a>
</g>
</g>
<!-- Node3882&#45;&gt;Node3908 -->
<g id="edge59" class="edge">
<title>Node3882&#45;&gt;Node3908</title>
<path fill="none" stroke="#191970" d="M192.9919,-456.7781C204.9209,-479.0958 237.3697,-533.9418 281,-561 284.3857,-563.0997 287.9775,-564.968 291.6951,-566.6304"/>
<polygon fill="#191970" stroke="#191970" points="290.5627,-569.946 301.1497,-570.3528 293.1271,-563.4326 290.5627,-569.946"/>
</g>
<!-- Node3887&#45;&gt;Node3888 -->
<g id="edge11" class="edge">
<title>Node3887&#45;&gt;Node3888</title>
<path fill="none" stroke="#191970" d="M380.6119,-532.4398C397.9835,-521.8113 426.0897,-503.6692 448,-485 465.708,-469.9115 464.2544,-459.3022 484,-447 487.3465,-444.915 490.9398,-443.0427 494.6468,-441.3642"/>
<polygon fill="#191970" stroke="#191970" points="496.0571,-444.5694 504.0198,-437.5805 493.4367,-438.0783 496.0571,-444.5694"/>
</g>
<!-- Node3887&#45;&gt;Node3890 -->
<g id="edge13" class="edge">
<title>Node3887&#45;&gt;Node3890</title>
<path fill="none" stroke="#191970" d="M416.7081,-542C434.5359,-542 454.7878,-542 473.8486,-542"/>
<polygon fill="#191970" stroke="#191970" points="473.9893,-545.5001 483.9893,-542 473.9892,-538.5001 473.9893,-545.5001"/>
</g>
<!-- Node3891 -->
<g id="node15" class="node">
<title>Node3891</title>
<g id="a_node15"><a xlink:href="../../dc/d66/class_ekf.html#afd14b23a4b1aa308c74651d2e91bba47" target="_top" xlink:title="Ekf::clearMagCov">
<polygon fill="#ffffff" stroke="#000000" points="497.5,-570.5 497.5,-589.5 592.5,-589.5 592.5,-570.5 497.5,-570.5"/>
<text text-anchor="middle" x="545" y="-577.5" font-family="Helvetica,sans-Serif" font-size="10.00" fill="#000000">Ekf::clearMagCov</text>
</a>
</g>
</g>
<!-- Node3887&#45;&gt;Node3891 -->
<g id="edge14" class="edge">
<title>Node3887&#45;&gt;Node3891</title>
<path fill="none" stroke="#191970" d="M410.0478,-551.589C434.2959,-556.6939 464.3037,-563.0113 489.8612,-568.3918"/>
<polygon fill="#191970" stroke="#191970" points="489.2732,-571.8447 499.7798,-570.4799 490.7153,-564.9948 489.2732,-571.8447"/>
</g>
<!-- Node3889 -->
<g id="node13" class="node">
<title>Node3889</title>
<g id="a_node13"><a xlink:href="../../dc/d66/class_ekf.html#a8a167edfb8ae0887a7f965b6876ea422" target="_top" xlink:title="Ekf::saveMagCovData">
<polygon fill="#ffffff" stroke="#000000" points="642,-447.5 642,-466.5 758,-466.5 758,-447.5 642,-447.5"/>
<text text-anchor="middle" x="700" y="-454.5" font-family="Helvetica,sans-Serif" font-size="10.00" fill="#000000">Ekf::saveMagCovData</text>
</a>
</g>
</g>
<!-- Node3888&#45;&gt;Node3889 -->
<g id="edge12" class="edge">
<title>Node3888&#45;&gt;Node3889</title>
<path fill="none" stroke="#191970" d="M596.1824,-437.5761C609.8771,-440.1383 624.8159,-442.9333 638.9841,-445.5841"/>
<polygon fill="#191970" stroke="#191970" points="638.6626,-449.0846 649.1357,-447.4835 639.95,-442.204 638.6626,-449.0846"/>
</g>
<!-- Node3892 -->
<g id="node16" class="node">
<title>Node3892</title>
<g id="a_node16"><a xlink:href="../../dc/d66/class_ekf.html#a54621e0a885dc41a71820a64cae0b13f" target="_top" xlink:title="Ekf::zeroMagCov">
<polygon fill="#ffffff" stroke="#000000" points="653.5,-542.5 653.5,-561.5 746.5,-561.5 746.5,-542.5 653.5,-542.5"/>
<text text-anchor="middle" x="700" y="-549.5" font-family="Helvetica,sans-Serif" font-size="10.00" fill="#000000">Ekf::zeroMagCov</text>
</a>
</g>
</g>
<!-- Node3891&#45;&gt;Node3892 -->
<g id="edge15" class="edge">
<title>Node3891&#45;&gt;Node3892</title>
<path fill="none" stroke="#191970" d="M592.7699,-571.3706C608.7546,-568.483 626.7281,-565.2362 643.3253,-562.238"/>
<polygon fill="#191970" stroke="#191970" points="644.2329,-565.6308 653.4514,-560.4088 642.9885,-558.7423 644.2329,-565.6308"/>
</g>
<!-- Node3892&#45;&gt;Node3880 -->
<g id="edge16" class="edge">
<title>Node3892&#45;&gt;Node3880</title>
<path fill="none" stroke="#191970" d="M710.5932,-561.6516C733.5621,-582.5788 788.1785,-632.3404 816.7966,-658.4146"/>
<polygon fill="#191970" stroke="#191970" points="814.7068,-661.2455 824.456,-665.3932 819.4212,-656.0711 814.7068,-661.2455"/>
</g>
<!-- Node3892&#45;&gt;Node3881 -->
<g id="edge17" class="edge">
<title>Node3892&#45;&gt;Node3881</title>
<path fill="none" stroke="#191970" d="M716.0164,-542.3902C739.3596,-528.3843 782.9273,-502.2436 810.3689,-485.7787"/>
<polygon fill="#191970" stroke="#191970" points="812.2302,-488.7436 819.0044,-480.5973 808.6287,-482.7411 812.2302,-488.7436"/>
</g>
<!-- Node3893&#45;&gt;Node3888 -->
<g id="edge21" class="edge">
<title>Node3893&#45;&gt;Node3888</title>
<path fill="none" stroke="#191970" d="M410.0478,-399.589C434.2959,-404.6939 464.3037,-411.0113 489.8612,-416.3918"/>
<polygon fill="#191970" stroke="#191970" points="489.2732,-419.8447 499.7798,-418.4799 490.7153,-412.9948 489.2732,-419.8447"/>
</g>
<!-- Node3894&#45;&gt;Node3890 -->
<g id="edge23" class="edge">
<title>Node3894&#45;&gt;Node3890</title>
<path fill="none" stroke="#191970" d="M409.4643,-475.546C422.2961,-479.16 436.0342,-483.9148 448,-490 466.0677,-499.1883 466.3888,-507.9646 484,-518 490.9524,-521.9617 498.6873,-525.5576 506.2506,-528.6899"/>
<polygon fill="#191970" stroke="#191970" points="505.0801,-531.9906 515.667,-532.4021 507.6475,-525.4784 505.0801,-531.9906"/>
</g>
<!-- Node3894&#45;&gt;Node3892 -->
<g id="edge24" class="edge">
<title>Node3894&#45;&gt;Node3892</title>
<path fill="none" stroke="#191970" d="M408.7936,-475.5133C457.4007,-486.1715 537.6182,-504.4046 606,-523 624.3224,-527.9825 644.4597,-534.107 661.3797,-539.4418"/>
<polygon fill="#191970" stroke="#191970" points="660.3417,-542.7844 670.9321,-542.477 662.4615,-536.1131 660.3417,-542.7844"/>
</g>
<!-- Node3895 -->
<g id="node19" class="node">
<title>Node3895</title>
<g id="a_node19"><a xlink:href="../../dc/d66/class_ekf.html#a79d7543c05ace38a2864e3f600597f3e" target="_top" xlink:title="Ekf::loadMagCovData">
<polygon fill="#ffffff" stroke="#000000" points="488.5,-456.5 488.5,-475.5 601.5,-475.5 601.5,-456.5 488.5,-456.5"/>
<text text-anchor="middle" x="545" y="-463.5" font-family="Helvetica,sans-Serif" font-size="10.00" fill="#000000">Ekf::loadMagCovData</text>
</a>
</g>
</g>
<!-- Node3894&#45;&gt;Node3895 -->
<g id="edge25" class="edge">
<title>Node3894&#45;&gt;Node3895</title>
<path fill="none" stroke="#191970" d="M423.6025,-466C441.0449,-466 460.2566,-466 478.15,-466"/>
<polygon fill="#191970" stroke="#191970" points="478.2216,-469.5001 488.2215,-466 478.2215,-462.5001 478.2216,-469.5001"/>
</g>
<!-- Node3896&#45;&gt;Node3880 -->
<g id="edge29" class="edge">
<title>Node3896&#45;&gt;Node3880</title>
<path fill="none" stroke="#191970" d="M745.3286,-662.3796C757.6587,-664.1149 771.0992,-666.0066 783.7331,-667.7847"/>
<polygon fill="#191970" stroke="#191970" points="783.2655,-671.2533 793.6557,-669.1812 784.2411,-664.3216 783.2655,-671.2533"/>
</g>
<!-- Node3896&#45;&gt;Node3881 -->
<g id="edge30" class="edge">
<title>Node3896&#45;&gt;Node3881</title>
<path fill="none" stroke="#191970" d="M734.6682,-646.4563C743.0297,-642.9316 751.4347,-638.2215 758,-632 800.2297,-591.9819 821.9359,-524.0503 830.5062,-490.6838"/>
<polygon fill="#191970" stroke="#191970" points="833.9516,-491.3281 832.9198,-480.7836 827.1508,-489.6701 833.9516,-491.3281"/>
</g>
<!-- Node3897&#45;&gt;Node3882 -->
<g id="edge38" class="edge">
<title>Node3897&#45;&gt;Node3882</title>
<path fill="none" stroke="#191970" d="M328.193,-247.5469C312.2998,-250.5612 294.2881,-255.4796 281,-266 227.2758,-308.5344 202.4621,-389.996 192.9553,-427.5629"/>
<polygon fill="#191970" stroke="#191970" points="189.5436,-426.7804 190.5743,-437.325 196.3442,-428.4392 189.5436,-426.7804"/>
</g>
<!-- Node3898 -->
<g id="node22" class="node">
<title>Node3898</title>
<g id="a_node22"><a xlink:href="../../dd/d47/namespacemath.html#a4a49a65edaf29055a3cb021908a031d7" target="_top" xlink:title="math::constrain">
<polygon fill="#ffffff" stroke="#000000" points="503,-114.5 503,-133.5 587,-133.5 587,-114.5 503,-114.5"/>
<text text-anchor="middle" x="545" y="-121.5" font-family="Helvetica,sans-Serif" font-size="10.00" fill="#000000">math::constrain</text>
</a>
</g>
</g>
<!-- Node3897&#45;&gt;Node3898 -->
<g id="edge33" class="edge">
<title>Node3897&#45;&gt;Node3898</title>
<path fill="none" stroke="#191970" d="M430.1118,-229.2588C436.552,-226.6343 442.6655,-223.2793 448,-219 477.1542,-195.6126 455.7825,-167.5094 484,-143 486.8917,-140.4883 490.1132,-138.3085 493.5229,-136.4167"/>
<polygon fill="#191970" stroke="#191970" points="495.3046,-139.4479 502.8907,-132.0518 492.3482,-133.1028 495.3046,-139.4479"/>
</g>
<!-- Node3899 -->
<g id="node23" class="node">
<title>Node3899</title>
<g id="a_node23"><a xlink:href="../../d8/da1/integration_8cpp.html#af5ba872dd09316732300733cc164ac1a" target="_top" xlink:title="f">
<polygon fill="#ffffff" stroke="#000000" points="530.5,-152.5 530.5,-171.5 559.5,-171.5 559.5,-152.5 530.5,-152.5"/>
<text text-anchor="middle" x="545" y="-159.5" font-family="Helvetica,sans-Serif" font-size="10.00" fill="#000000">f</text>
</a>
</g>
</g>
<!-- Node3897&#45;&gt;Node3899 -->
<g id="edge34" class="edge">
<title>Node3897&#45;&gt;Node3899</title>
<path fill="none" stroke="#191970" d="M425.8316,-228.4667C433.5644,-226.0028 441.1545,-222.902 448,-219 468.2115,-207.4792 464.2544,-193.3022 484,-181 495.0281,-174.1291 508.7359,-169.568 520.3619,-166.6414"/>
<polygon fill="#191970" stroke="#191970" points="521.3334,-170.0103 530.3171,-164.3939 519.7918,-163.1821 521.3334,-170.0103"/>
</g>
<!-- Node3900 -->
<g id="node24" class="node">
<title>Node3900</title>
<g id="a_node24"><a xlink:href="../../d0/de4/namespacematrix.html#a761295febb473ca1226309513533e801" target="_top" xlink:title="matrix::sin">
<polygon fill="#ffffff" stroke="#000000" points="669,-.5 669,-19.5 731,-19.5 731,-.5 669,-.5"/>
<text text-anchor="middle" x="700" y="-7.5" font-family="Helvetica,sans-Serif" font-size="10.00" fill="#000000">matrix::sin</text>
</a>
</g>
</g>
<!-- Node3899&#45;&gt;Node3900 -->
<g id="edge35" class="edge">
<title>Node3899&#45;&gt;Node3900</title>
<path fill="none" stroke="#191970" d="M559.7553,-160.1394C572.9165,-157.8814 592.1848,-153.0464 606,-143 647.7519,-112.6381 677.7622,-57.9339 691.542,-29.0526"/>
<polygon fill="#191970" stroke="#191970" points="694.8584,-30.2193 695.8761,-19.6734 688.5041,-27.2829 694.8584,-30.2193"/>
</g>
<!-- Node3901 -->
<g id="node25" class="node">
<title>Node3901</title>
<g id="a_node25"><a xlink:href="../../d0/de4/namespacematrix.html#a2e09123c750ed3a0315a31f3b27a3ed9" target="_top" xlink:title="matrix::cos">
<polygon fill="#ffffff" stroke="#000000" points="802.5,-.5 802.5,-19.5 867.5,-19.5 867.5,-.5 802.5,-.5"/>
<text text-anchor="middle" x="835" y="-7.5" font-family="Helvetica,sans-Serif" font-size="10.00" fill="#000000">matrix::cos</text>
</a>
</g>
</g>
<!-- Node3900&#45;&gt;Node3901 -->
<g id="edge36" class="edge">
<title>Node3900&#45;&gt;Node3901</title>
<path fill="none" stroke="#191970" d="M731.311,-4.1992C749.4853,-3.1418 772.6289,-2.9678 792.4383,-3.6773"/>
<polygon fill="#191970" stroke="#191970" points="792.3018,-7.1746 802.4493,-4.1289 792.6172,-.1818 792.3018,-7.1746"/>
</g>
<!-- Node3901&#45;&gt;Node3900 -->
<g id="edge37" class="edge">
<title>Node3901&#45;&gt;Node3900</title>
<path fill="none" stroke="#191970" d="M802.4493,-15.8711C784.1391,-16.8839 761.0909,-17.0214 741.4947,-16.2835"/>
<polygon fill="#191970" stroke="#191970" points="741.4656,-12.7782 731.311,-15.8008 741.1341,-19.7704 741.4656,-12.7782"/>
</g>
<!-- Node3902&#45;&gt;Node3899 -->
<g id="edge40" class="edge">
<title>Node3902&#45;&gt;Node3899</title>
<path fill="none" stroke="#191970" d="M425.8316,-95.5333C433.5644,-97.9972 441.1545,-101.098 448,-105 468.2115,-116.5208 464.2544,-130.6978 484,-143 495.0281,-149.8709 508.7359,-154.432 520.3619,-157.3586"/>
<polygon fill="#191970" stroke="#191970" points="519.7918,-160.8179 530.3171,-159.6061 521.3334,-153.9897 519.7918,-160.8179"/>
</g>
<!-- Node3903&#45;&gt;Node3880 -->
<g id="edge44" class="edge">
<title>Node3903&#45;&gt;Node3880</title>
<path fill="none" stroke="#191970" d="M413.1814,-323.5116C507.164,-342.7808 708.6929,-388.7961 758,-438 789.6021,-469.536 820.2966,-604.2678 831.0062,-655.3019"/>
<polygon fill="#191970" stroke="#191970" points="827.634,-656.2789 833.0849,-665.364 834.4893,-654.8627 827.634,-656.2789"/>
</g>
<!-- Node3903&#45;&gt;Node3881 -->
<g id="edge43" class="edge">
<title>Node3903&#45;&gt;Node3881</title>
<path fill="none" stroke="#191970" d="M406.8147,-304.4499C483.3419,-289.64 647.081,-269.4661 758,-338 799.8453,-363.8551 821.3544,-421.4476 830.1157,-451.6568"/>
<polygon fill="#191970" stroke="#191970" points="826.775,-452.71 832.7809,-461.4381 833.5288,-450.8697 826.775,-452.71"/>
</g>
<!-- Node3903&#45;&gt;Node3899 -->
<g id="edge42" class="edge">
<title>Node3903&#45;&gt;Node3899</title>
<path fill="none" stroke="#191970" d="M433.9867,-304.458C439.0829,-301.9372 443.8445,-298.8274 448,-295 487.0816,-259.0037 446.3556,-218.4968 484,-181 493.6036,-171.4341 507.9385,-166.6714 520.2993,-164.3059"/>
<polygon fill="#191970" stroke="#191970" points="521.1123,-167.7234 530.4852,-162.7839 520.0777,-160.8003 521.1123,-167.7234"/>
</g>
<!-- Node3904&#45;&gt;Node3880 -->
<g id="edge50" class="edge">
<title>Node3904&#45;&gt;Node3880</title>
<path fill="none" stroke="#191970" d="M409.4643,-627.546C422.2961,-631.16 436.0342,-635.9148 448,-642 466.0677,-651.1883 464.9338,-663.1193 484,-670 585.3532,-706.5769 714.1314,-695.0155 784.1086,-684.3619"/>
<polygon fill="#191970" stroke="#191970" points="784.6636,-687.8178 793.9962,-682.8025 783.573,-680.9032 784.6636,-687.8178"/>
</g>
<!-- Node3904&#45;&gt;Node3881 -->
<g id="edge49" class="edge">
<title>Node3904&#45;&gt;Node3881</title>
<path fill="none" stroke="#191970" d="M422.5701,-627.5001C471.7981,-633.8673 544.0655,-639.2309 606,-628 676.9916,-615.1268 699.9872,-613.8957 758,-571 788.0804,-548.758 812.2871,-511.704 825.0751,-489.4884"/>
<polygon fill="#191970" stroke="#191970" points="828.1647,-491.1342 829.9841,-480.6968 822.053,-487.7215 828.1647,-491.1342"/>
</g>
<!-- Node3904&#45;&gt;Node3882 -->
<g id="edge48" class="edge">
<title>Node3904&#45;&gt;Node3882</title>
<path fill="none" stroke="#191970" d="M281.3633,-608.259C281.2419,-608.173 281.1208,-608.0867 281,-608 231.5677,-572.5061 203.1921,-501.8122 192.7,-466.8877"/>
<polygon fill="#191970" stroke="#191970" points="195.972,-465.5901 189.9179,-456.8953 189.2285,-467.4677 195.972,-465.5901"/>
</g>
<!-- Node3904&#45;&gt;Node3889 -->
<g id="edge47" class="edge">
<title>Node3904&#45;&gt;Node3889</title>
<path fill="none" stroke="#191970" d="M418.0711,-627.5466C470.313,-633.8874 549.8825,-635.3652 606,-599 634.0405,-580.8292 623.8117,-561.0291 642,-533 655.4437,-512.2826 672.854,-489.9731 685.078,-474.9213"/>
<polygon fill="#191970" stroke="#191970" points="687.9692,-476.9154 691.6069,-466.9646 682.5578,-472.475 687.9692,-476.9154"/>
</g>
<!-- Node3904&#45;&gt;Node3891 -->
<g id="edge46" class="edge">
<title>Node3904&#45;&gt;Node3891</title>
<path fill="none" stroke="#191970" d="M410.0478,-608.411C434.2959,-603.3061 464.3037,-596.9887 489.8612,-591.6082"/>
<polygon fill="#191970" stroke="#191970" points="490.7153,-595.0052 499.7798,-589.5201 489.2732,-588.1553 490.7153,-595.0052"/>
</g>
<!-- Node3905&#45;&gt;Node3880 -->
<g id="edge52" class="edge">
<title>Node3905&#45;&gt;Node3880</title>
<path fill="none" stroke="#191970" d="M430.0366,-284.679C529.7561,-299.2094 712.8001,-331.5119 758,-378 767.9821,-388.2666 815.5334,-590.8833 830.4876,-655.4286"/>
<polygon fill="#191970" stroke="#191970" points="827.0795,-656.2258 832.7421,-665.1804 833.8996,-654.649 827.0795,-656.2258"/>
</g>
<!-- Node3905&#45;&gt;Node3881 -->
<g id="edge53" class="edge">
<title>Node3905&#45;&gt;Node3881</title>
<path fill="none" stroke="#191970" d="M430.1131,-270.6183C528.1123,-263.9249 706.6993,-257.3316 758,-293 811.3633,-330.1025 828.0308,-412.4558 833.0016,-450.7241"/>
<polygon fill="#191970" stroke="#191970" points="829.5739,-451.5531 834.1964,-461.0863 836.5278,-450.7512 829.5739,-451.5531"/>
</g>
<!-- Node3905&#45;&gt;Node3882 -->
<g id="edge54" class="edge">
<title>Node3905&#45;&gt;Node3882</title>
<path fill="none" stroke="#191970" d="M331.5194,-285.5748C315.0658,-288.6893 295.6125,-293.5078 281,-304 236.2972,-336.098 208.8145,-396.9827 196.2054,-428.1284"/>
<polygon fill="#191970" stroke="#191970" points="192.9351,-426.8804 192.4961,-437.4662 199.4407,-429.4647 192.9351,-426.8804"/>
</g>
<!-- Node3905&#45;&gt;Node3898 -->
<g id="edge55" class="edge">
<title>Node3905&#45;&gt;Node3898</title>
<path fill="none" stroke="#191970" d="M430.3129,-268.1518C436.7934,-265.37 442.8604,-261.7339 448,-257 487.0816,-221.0037 446.3556,-180.4968 484,-143 486.8795,-140.1318 490.1843,-137.6954 493.7337,-135.626"/>
<polygon fill="#191970" stroke="#191970" points="495.4553,-138.6821 502.9576,-131.2009 492.4275,-132.3708 495.4553,-138.6821"/>
</g>
<!-- Node3905&#45;&gt;Node3899 -->
<g id="edge57" class="edge">
<title>Node3905&#45;&gt;Node3899</title>
<path fill="none" stroke="#191970" d="M430.1118,-267.2588C436.552,-264.6343 442.6655,-261.2793 448,-257 477.1542,-233.6126 455.7825,-205.5094 484,-181 494.104,-172.2238 508.234,-167.4997 520.3506,-164.9576"/>
<polygon fill="#191970" stroke="#191970" points="521.0679,-168.3856 530.3283,-163.2383 519.8792,-161.4873 521.0679,-168.3856"/>
</g>
<!-- Node3906 -->
<g id="node30" class="node">
<title>Node3906</title>
<g id="a_node30"><a xlink:href="../../dd/d47/namespacemath.html#a7e34369248d5d1565073dc552dd90d5c" target="_top" xlink:title="math::radians">
<polygon fill="#ffffff" stroke="#000000" points="507,-190.5 507,-209.5 583,-209.5 583,-190.5 507,-190.5"/>
<text text-anchor="middle" x="545" y="-197.5" font-family="Helvetica,sans-Serif" font-size="10.00" fill="#000000">math::radians</text>
</a>
</g>
</g>
<!-- Node3905&#45;&gt;Node3906 -->
<g id="edge56" class="edge">
<title>Node3905&#45;&gt;Node3906</title>
<path fill="none" stroke="#191970" d="M424.2595,-266.4078C432.4829,-263.9491 440.6262,-260.8655 448,-257 467.2238,-246.9224 465.5918,-235.4999 484,-224 490.4366,-219.979 497.6591,-216.4243 504.8214,-213.3658"/>
<polygon fill="#191970" stroke="#191970" points="506.4866,-216.4694 514.4713,-209.5055 503.8866,-209.9701 506.4866,-216.4694"/>
</g>
</g>
</svg>
        <g id="navigator" transform="translate(0 0)" fill="#404254">
                <rect fill="#f2f5e9" fill-opacity="0.5" stroke="#606060" stroke-width=".5" x="0" y="0" width="60" height="60"/>
                <use id="zoomplus" xlink:href="#zoomPlus" x="17" y="9" onmousedown="handleZoom(evt,'in')"/>
                <use id="zoomminus" xlink:href="#zoomMin" x="42" y="9" onmousedown="handleZoom(evt,'out')"/>
                <use id="reset" xlink:href="#resetDef" x="30" y="36" onmousedown="handleReset()"/>
                <g id="arrowUp" xlink:href="#dirArrow" transform="translate(30 24)" onmousedown="handlePan(0,-1)">
                  <use xlink:href="#rim" fill="#404040">
                        <set attributeName="fill" to="#808080" begin="arrowUp.mouseover" end="arrowUp.mouseout"/>
                  </use>
                  <path fill="none" stroke="white" stroke-width="1.5" d="M0,-3.0v7 M-2.5,-0.5L0,-3.0L2.5,-0.5"/>
                </g>
                <g id="arrowRight" xlink:href="#dirArrow" transform="rotate(90) translate(36 -43)" onmousedown="handlePan(1,0)">
                  <use xlink:href="#rim" fill="#404040">
                        <set attributeName="fill" to="#808080" begin="arrowRight.mouseover" end="arrowRight.mouseout"/>
                  </use>
                  <path fill="none" stroke="white" stroke-width="1.5" d="M0,-3.0v7 M-2.5,-0.5L0,-3.0L2.5,-0.5"/>
                </g>
                <g id="arrowDown" xlink:href="#dirArrow" transform="rotate(180) translate(-30 -48)" onmousedown="handlePan(0,1)">
                  <use xlink:href="#rim" fill="#404040">
                        <set attributeName="fill" to="#808080" begin="arrowDown.mouseover" end="arrowDown.mouseout"/>
                  </use>
                  <path fill="none" stroke="white" stroke-width="1.5" d="M0,-3.0v7 M-2.5,-0.5L0,-3.0L2.5,-0.5"/>
                </g>
                <g id="arrowLeft" xlink:href="#dirArrow" transform="rotate(270) translate(-36 17)" onmousedown="handlePan(-1,0)">
                  <use xlink:href="#rim" fill="#404040">
                        <set attributeName="fill" to="#808080" begin="arrowLeft.mouseover" end="arrowLeft.mouseout"/>
                  </use>
                  <path fill="none" stroke="white" stroke-width="1.5" d="M0,-3.0v7 M-2.5,-0.5L0,-3.0L2.5,-0.5"/>
                </g>
        </g>
        <svg viewBox="0 0 15 15" width="100%" height="30px" preserveAspectRatio="xMaxYMin meet">
         <g id="arrow_out" transform="scale(0.3 0.3)">
          <a xlink:href="class_ekf_a427d41afde8eb4acb8fc5290bcfbcb9a_cgraph_org.svg" target="_base">
           <rect id="button" ry="5" rx="5" y="6" x="6" height="38" width="38"
                fill="#f2f5e9" fill-opacity="0.5" stroke="#606060" stroke-width="1.0"/>
           <path id="arrow"
             d="M 11.500037,31.436501 C 11.940474,20.09759 22.043105,11.32322 32.158766,21.979434 L 37.068811,17.246167 C 37.068811,17.246167 37.088388,32 37.088388,32 L 22.160133,31.978069 C 22.160133,31.978069 26.997745,27.140456 26.997745,27.140456 C 18.528582,18.264221 13.291696,25.230495 11.500037,31.436501 z"
             style="fill:#404040;"/>
          </a>
         </g>
        </svg>
</svg>
