<?xml version="1.0" encoding="UTF-8" standalone="no"?>
<!DOCTYPE svg PUBLIC "-//W3C//DTD SVG 1.1//EN"
 "http://www.w3.org/Graphics/SVG/1.1/DTD/svg11.dtd">
<!-- Generated by graphviz version 2.38.0 (20140413.2041)
 -->
<!-- Title: Ekf::resetHeight Pages: 1 -->
<!--zoomable 124 -->
<svg id="main" version="1.1" xmlns="http://www.w3.org/2000/svg" xmlns:xlink="http://www.w3.org/1999/xlink" xml:space="preserve" onload="init(evt)">
<style type="text/css"><![CDATA[
.edge:hover path { stroke: red; }
.edge:hover polygon { stroke: red; fill: red; }
]]></style>
<script type="text/javascript"><![CDATA[
var edges = document.getElementsByTagName('g');
if (edges && edges.length) {
  for (var i=0;i<edges.length;i++) {
    if (edges[i].id.substr(0,4)=='edge') {
      edges[i].setAttribute('class','edge');
    }
  }
}
]]></script>
        <defs>
                <circle id="rim" cx="0" cy="0" r="7"/>
                <circle id="rim2" cx="0" cy="0" r="3.5"/>
                <g id="zoomPlus">
                        <use xlink:href="#rim" fill="#404040">
                                <set attributeName="fill" to="#808080" begin="zoomplus.mouseover" end="zoomplus.mouseout"/>
                        </use>
                        <path d="M-4,0h8M0,-4v8" fill="none" stroke="white" stroke-width="1.5" pointer-events="none"/>
                </g>
                <g id="zoomMin">
                        <use xlink:href="#rim" fill="#404040">
                                <set attributeName="fill" to="#808080" begin="zoomminus.mouseover" end="zoomminus.mouseout"/>
                        </use>
                        <path d="M-4,0h8" fill="none" stroke="white" stroke-width="1.5" pointer-events="none"/>
                </g>
                <g id="dirArrow">
                        <path fill="none" stroke="white" stroke-width="1.5" d="M0,-3.0v7 M-2.5,-0.5L0,-3.0L2.5,-0.5"/>
                </g>
               <g id="resetDef">
                       <use xlink:href="#rim2" fill="#404040">
                               <set attributeName="fill" to="#808080" begin="reset.mouseover" end="reset.mouseout"/>
                       </use>
               </g>
        </defs>

<script type="text/javascript">
var viewWidth = 618;
var viewHeight = 124;
var sectionId = 'dynsection-145';
</script>
<script xlink:href="../../svgpan.js"/>
<svg id="graph" class="graph">
<g id="viewport">
<title>Ekf::resetHeight</title>
<polygon fill="white" stroke="none" points="-4,4 -4,-119.5 614,-119.5 614,4 -4,4"/>
<!-- Node1 -->
<g id="node1" class="node"><title>Node1</title>
<polygon fill="#bfbfbf" stroke="black" points="0,-41.5 0,-60.5 88,-60.5 88,-41.5 0,-41.5"/>
<text text-anchor="middle" x="44" y="-48.5" font-family="Helvetica,sans-Serif" font-size="10.00">Ekf::resetHeight</text>
</g>
<!-- Node2 -->
<g id="node2" class="node"><title>Node2</title>
<g id="a_node2"><a xlink:href="../../dc/d66/class_ekf.html#a4a504cfcfe76af40520e2f6abbcfccd3" target="_top" xlink:title="Ekf::controlExternalVision\lFusion">
<polygon fill="white" stroke="black" points="124,-85 124,-115 254,-115 254,-85 124,-85"/>
<text text-anchor="start" x="132" y="-103" font-family="Helvetica,sans-Serif" font-size="10.00">Ekf::controlExternalVision</text>
<text text-anchor="middle" x="189" y="-92" font-family="Helvetica,sans-Serif" font-size="10.00">Fusion</text>
</a>
</g>
</g>
<!-- Node1&#45;&gt;Node2 -->
<g id="edge1" class="edge"><title>Node1&#45;&gt;Node2</title>
<path fill="none" stroke="midnightblue" d="M82.3823,-63.8093C101.295,-70.2897 124.366,-78.1955 144.117,-84.963"/>
<polygon fill="midnightblue" stroke="midnightblue" points="83.5059,-60.4946 72.9113,-60.564 81.2368,-67.1166 83.5059,-60.4946"/>
</g>
<!-- Node6 -->
<g id="node6" class="node"><title>Node6</title>
<g id="a_node6"><a xlink:href="../../dc/d66/class_ekf.html#a74992c47707b497466659bb7cb9e77eb" target="_top" xlink:title="Ekf::controlHeightSensor\lTimeouts">
<polygon fill="white" stroke="black" points="126,-36 126,-66 252,-66 252,-36 126,-36"/>
<text text-anchor="start" x="134" y="-54" font-family="Helvetica,sans-Serif" font-size="10.00">Ekf::controlHeightSensor</text>
<text text-anchor="middle" x="189" y="-43" font-family="Helvetica,sans-Serif" font-size="10.00">Timeouts</text>
</a>
</g>
</g>
<!-- Node1&#45;&gt;Node6 -->
<g id="edge5" class="edge"><title>Node1&#45;&gt;Node6</title>
<path fill="none" stroke="midnightblue" d="M98.5359,-51C107.448,-51 116.759,-51 125.863,-51"/>
<polygon fill="midnightblue" stroke="midnightblue" points="98.2928,-47.5001 88.2928,-51 98.2927,-54.5001 98.2928,-47.5001"/>
</g>
<!-- Node7 -->
<g id="node7" class="node"><title>Node7</title>
<g id="a_node7"><a xlink:href="../../dc/d66/class_ekf.html#a51e005b564acbd344748d400273c416b" target="_top" xlink:title="Ekf::initialiseFilter">
<polygon fill="white" stroke="black" points="305,-0.5 305,-19.5 400,-19.5 400,-0.5 305,-0.5"/>
<text text-anchor="middle" x="352.5" y="-7.5" font-family="Helvetica,sans-Serif" font-size="10.00">Ekf::initialiseFilter</text>
</a>
</g>
</g>
<!-- Node1&#45;&gt;Node7 -->
<g id="edge7" class="edge"><title>Node1&#45;&gt;Node7</title>
<path fill="none" stroke="midnightblue" d="M79.3835,-38.1732C93.0802,-33.5793 109.104,-28.8394 124,-26 185.841,-14.2125 258.624,-10.8952 304.901,-10.0736"/>
<polygon fill="midnightblue" stroke="midnightblue" points="78.1776,-34.8868 69.8708,-41.4632 80.4656,-41.5023 78.1776,-34.8868"/>
</g>
<!-- Node3 -->
<g id="node3" class="node"><title>Node3</title>
<g id="a_node3"><a xlink:href="../../dc/d66/class_ekf.html#a709c2a511002736cd376c265c244eace" target="_top" xlink:title="Ekf::controlFusionModes">
<polygon fill="white" stroke="black" points="290,-41.5 290,-60.5 415,-60.5 415,-41.5 290,-41.5"/>
<text text-anchor="middle" x="352.5" y="-48.5" font-family="Helvetica,sans-Serif" font-size="10.00">Ekf::controlFusionModes</text>
</a>
</g>
</g>
<!-- Node2&#45;&gt;Node3 -->
<g id="edge2" class="edge"><title>Node2&#45;&gt;Node3</title>
<path fill="none" stroke="midnightblue" d="M249.468,-81.957C273.351,-74.7109 299.908,-66.6533 319.94,-60.5754"/>
<polygon fill="midnightblue" stroke="midnightblue" points="248.326,-78.6459 239.773,-84.8986 250.359,-85.3444 248.326,-78.6459"/>
</g>
<!-- Node4 -->
<g id="node4" class="node"><title>Node4</title>
<g id="a_node4"><a xlink:href="../../dc/d66/class_ekf.html#a5cc6559381087c95cccca4450a571799" target="_top" xlink:title="Ekf::update">
<polygon fill="white" stroke="black" points="451,-22.5 451,-41.5 518,-41.5 518,-22.5 451,-22.5"/>
<text text-anchor="middle" x="484.5" y="-29.5" font-family="Helvetica,sans-Serif" font-size="10.00">Ekf::update</text>
</a>
</g>
</g>
<!-- Node3&#45;&gt;Node4 -->
<g id="edge3" class="edge"><title>Node3&#45;&gt;Node4</title>
<path fill="none" stroke="midnightblue" d="M425.195,-40.5215C434.128,-39.2159 442.89,-37.9353 450.798,-36.7796"/>
<polygon fill="midnightblue" stroke="midnightblue" points="424.462,-37.0913 415.074,-42.0008 425.475,-44.0177 424.462,-37.0913"/>
</g>
<!-- Node5 -->
<g id="node5" class="node"><title>Node5</title>
<g id="a_node5"><a xlink:href="../../de/d9c/class_ekf2.html#afaaaf8e67b274673c3ab59fe147d570b" target="_top" xlink:title="Ekf2::run">
<polygon fill="white" stroke="black" points="554,-22.5 554,-41.5 610,-41.5 610,-22.5 554,-22.5"/>
<text text-anchor="middle" x="582" y="-29.5" font-family="Helvetica,sans-Serif" font-size="10.00">Ekf2::run</text>
</a>
</g>
</g>
<!-- Node4&#45;&gt;Node5 -->
<g id="edge4" class="edge"><title>Node4&#45;&gt;Node5</title>
<path fill="none" stroke="midnightblue" d="M528.195,-32C536.945,-32 545.925,-32 553.941,-32"/>
<polygon fill="midnightblue" stroke="midnightblue" points="528.099,-28.5001 518.099,-32 528.099,-35.5001 528.099,-28.5001"/>
</g>
<!-- Node6&#45;&gt;Node3 -->
<g id="edge6" class="edge"><title>Node6&#45;&gt;Node3</title>
<path fill="none" stroke="midnightblue" d="M262.597,-51C271.666,-51 280.875,-51 289.758,-51"/>
<polygon fill="midnightblue" stroke="midnightblue" points="262.44,-47.5001 252.44,-51 262.44,-54.5001 262.44,-47.5001"/>
</g>
<!-- Node7&#45;&gt;Node4 -->
<g id="edge8" class="edge"><title>Node7&#45;&gt;Node4</title>
<path fill="none" stroke="midnightblue" d="M410.051,-19.5702C423.942,-21.921 438.357,-24.3604 450.699,-26.4491"/>
<polygon fill="midnightblue" stroke="midnightblue" points="410.51,-16.0981 400.066,-17.8804 409.342,-23 410.51,-16.0981"/>
</g>
</g>
</svg>
        <g id="navigator" transform="translate(0 0)" fill="#404254">
                <rect fill="#f2f5e9" fill-opacity="0.5" stroke="#606060" stroke-width=".5" x="0" y="0" width="60" height="60"/>
                <use id="zoomplus" xlink:href="#zoomPlus" x="17" y="9" onmousedown="handleZoom(evt,'in')"/>
                <use id="zoomminus" xlink:href="#zoomMin" x="42" y="9" onmousedown="handleZoom(evt,'out')"/>
                <use id="reset" xlink:href="#resetDef" x="30" y="36" onmousedown="handleReset()"/>
                <g id="arrowUp" xlink:href="#dirArrow" transform="translate(30 24)" onmousedown="handlePan(0,-1)">
                  <use xlink:href="#rim" fill="#404040">
                        <set attributeName="fill" to="#808080" begin="arrowUp.mouseover" end="arrowUp.mouseout"/>
                  </use>
                  <path fill="none" stroke="white" stroke-width="1.5" d="M0,-3.0v7 M-2.5,-0.5L0,-3.0L2.5,-0.5"/>
                </g>
                <g id="arrowRight" xlink:href="#dirArrow" transform="rotate(90) translate(36 -43)" onmousedown="handlePan(1,0)">
                  <use xlink:href="#rim" fill="#404040">
                        <set attributeName="fill" to="#808080" begin="arrowRight.mouseover" end="arrowRight.mouseout"/>
                  </use>
                  <path fill="none" stroke="white" stroke-width="1.5" d="M0,-3.0v7 M-2.5,-0.5L0,-3.0L2.5,-0.5"/>
                </g>
                <g id="arrowDown" xlink:href="#dirArrow" transform="rotate(180) translate(-30 -48)" onmousedown="handlePan(0,1)">
                  <use xlink:href="#rim" fill="#404040">
                        <set attributeName="fill" to="#808080" begin="arrowDown.mouseover" end="arrowDown.mouseout"/>
                  </use>
                  <path fill="none" stroke="white" stroke-width="1.5" d="M0,-3.0v7 M-2.5,-0.5L0,-3.0L2.5,-0.5"/>
                </g>
                <g id="arrowLeft" xlink:href="#dirArrow" transform="rotate(270) translate(-36 17)" onmousedown="handlePan(-1,0)">
                  <use xlink:href="#rim" fill="#404040">
                        <set attributeName="fill" to="#808080" begin="arrowLeft.mouseover" end="arrowLeft.mouseout"/>
                  </use>
                  <path fill="none" stroke="white" stroke-width="1.5" d="M0,-3.0v7 M-2.5,-0.5L0,-3.0L2.5,-0.5"/>
                </g>
        </g>
        <svg viewBox="0 0 15 15" width="100%" height="30px" preserveAspectRatio="xMaxYMin meet">
         <g id="arrow_out" transform="scale(0.3 0.3)">
          <a xlink:href="class_ekf_a732f6e0dfe595bca82bdff3ae2421700_icgraph_org.svg" target="_base">
           <rect id="button" ry="5" rx="5" y="6" x="6" height="38" width="38"
                fill="#f2f5e9" fill-opacity="0.5" stroke="#606060" stroke-width="1.0"/>
           <path id="arrow"
             d="M 11.500037,31.436501 C 11.940474,20.09759 22.043105,11.32322 32.158766,21.979434 L 37.068811,17.246167 C 37.068811,17.246167 37.088388,32 37.088388,32 L 22.160133,31.978069 C 22.160133,31.978069 26.997745,27.140456 26.997745,27.140456 C 18.528582,18.264221 13.291696,25.230495 11.500037,31.436501 z"
             style="fill:#404040;"/>
          </a>
         </g>
        </svg>
</svg>
