<?xml version="1.0" encoding="UTF-8" standalone="no"?>
<!DOCTYPE svg PUBLIC "-//W3C//DTD SVG 1.1//EN"
 "http://www.w3.org/Graphics/SVG/1.1/DTD/svg11.dtd">
<!-- Generated by graphviz version 2.40.1 (20161225.0304)
 -->
<!-- Title: Ekf::controlAirDataFusion Pages: 1 -->
<svg width="720pt" height="100pt"
 viewBox="0.00 0.00 720.00 99.50" xmlns="http://www.w3.org/2000/svg" xmlns:xlink="http://www.w3.org/1999/xlink">
<g id="graph0" class="graph" transform="scale(1 1) rotate(0) translate(4 95.5)">
<title>Ekf::controlAirDataFusion</title>
<polygon fill="#ffffff" stroke="transparent" points="-4,4 -4,-95.5 716,-95.5 716,4 -4,4"/>
<!-- Node632 -->
<g id="node1" class="node">
<title>Node632</title>
<polygon fill="#bfbfbf" stroke="#000000" points="0,-22.5 0,-41.5 129,-41.5 129,-22.5 0,-22.5"/>
<text text-anchor="middle" x="64.5" y="-29.5" font-family="Helvetica,sans-Serif" font-size="10.00" fill="#000000">Ekf::controlAirDataFusion</text>
</g>
<!-- Node633 -->
<g id="node2" class="node">
<title>Node633</title>
<g id="a_node2"><a xlink:href="../../dc/d66/class_ekf.html#a709c2a511002736cd376c265c244eace" target="_top" xlink:title="Ekf::controlFusionModes">
<polygon fill="#ffffff" stroke="#000000" points="165,-22.5 165,-41.5 290,-41.5 290,-22.5 165,-22.5"/>
<text text-anchor="middle" x="227.5" y="-29.5" font-family="Helvetica,sans-Serif" font-size="10.00" fill="#000000">Ekf::controlFusionModes</text>
</a>
</g>
</g>
<!-- Node632&#45;&gt;Node633 -->
<g id="edge1" class="edge">
<title>Node632&#45;&gt;Node633</title>
<path fill="none" stroke="#191970" d="M139.648,-32C148.1152,-32 156.6744,-32 164.957,-32"/>
<polygon fill="#191970" stroke="#191970" points="139.3903,-28.5001 129.3903,-32 139.3902,-35.5001 139.3903,-28.5001"/>
</g>
<!-- Node634 -->
<g id="node3" class="node">
<title>Node634</title>
<g id="a_node3"><a xlink:href="../../dc/d66/class_ekf.html#a174a8ebf58b267ae263cd8a64dc776d6" target="_top" xlink:title="Ekf::update">
<polygon fill="#ffffff" stroke="#000000" points="326,-22.5 326,-41.5 393,-41.5 393,-22.5 326,-22.5"/>
<text text-anchor="middle" x="359.5" y="-29.5" font-family="Helvetica,sans-Serif" font-size="10.00" fill="#000000">Ekf::update</text>
</a>
</g>
</g>
<!-- Node633&#45;&gt;Node634 -->
<g id="edge2" class="edge">
<title>Node633&#45;&gt;Node634</title>
<path fill="none" stroke="#191970" d="M300.1892,-32C309.1643,-32 317.9728,-32 325.9414,-32"/>
<polygon fill="#191970" stroke="#191970" points="300.021,-28.5001 290.021,-32 300.0209,-35.5001 300.021,-28.5001"/>
</g>
<!-- Node635 -->
<g id="node4" class="node">
<title>Node635</title>
<g id="a_node4"><a xlink:href="../../d3/d9b/class_ekf_initialization_test.html#a668b9135c03c01f5f0a5626bb1617961" target="_top" xlink:title="EkfInitializationTest\l::update_with_const_sensors">
<polygon fill="#ffffff" stroke="#000000" points="429,-39 429,-69 573,-69 573,-39 429,-39"/>
<text text-anchor="start" x="437" y="-57" font-family="Helvetica,sans-Serif" font-size="10.00" fill="#000000">EkfInitializationTest</text>
<text text-anchor="middle" x="501" y="-46" font-family="Helvetica,sans-Serif" font-size="10.00" fill="#000000">::update_with_const_sensors</text>
</a>
</g>
</g>
<!-- Node634&#45;&gt;Node635 -->
<g id="edge3" class="edge">
<title>Node634&#45;&gt;Node635</title>
<path fill="none" stroke="#191970" d="M403.1059,-38.7797C411.3343,-40.059 420.1401,-41.4281 428.9724,-42.8014"/>
<polygon fill="#191970" stroke="#191970" points="403.4525,-35.2916 393.0335,-37.2137 402.3771,-42.2085 403.4525,-35.2916"/>
</g>
<!-- Node638 -->
<g id="node7" class="node">
<title>Node638</title>
<g id="a_node7"><a xlink:href="../../de/d9c/class_ekf2.html#aa9d0494340430e589883d23899a2bd76" target="_top" xlink:title="Ekf2::Run">
<polygon fill="#ffffff" stroke="#000000" points="470.5,-.5 470.5,-19.5 531.5,-19.5 531.5,-.5 470.5,-.5"/>
<text text-anchor="middle" x="501" y="-7.5" font-family="Helvetica,sans-Serif" font-size="10.00" fill="#000000">Ekf2::Run</text>
</a>
</g>
</g>
<!-- Node634&#45;&gt;Node638 -->
<g id="edge6" class="edge">
<title>Node634&#45;&gt;Node638</title>
<path fill="none" stroke="#191970" d="M403.0049,-25.236C424.7168,-21.8603 450.4693,-17.8564 470.1248,-14.8004"/>
<polygon fill="#191970" stroke="#191970" points="402.3771,-21.7915 393.0335,-26.7863 403.4525,-28.7084 402.3771,-21.7915"/>
</g>
<!-- Node636 -->
<g id="node5" class="node">
<title>Node636</title>
<g id="a_node5"><a xlink:href="../../d3/d9b/class_ekf_initialization_test.html#a68ff1fdc6e36f6f426b17365aef723c7" target="_top" xlink:title="EkfInitializationTest\l::SetUp">
<polygon fill="#ffffff" stroke="#000000" points="609,-61 609,-91 712,-91 712,-61 609,-61"/>
<text text-anchor="start" x="617" y="-79" font-family="Helvetica,sans-Serif" font-size="10.00" fill="#000000">EkfInitializationTest</text>
<text text-anchor="middle" x="660.5" y="-68" font-family="Helvetica,sans-Serif" font-size="10.00" fill="#000000">::SetUp</text>
</a>
</g>
</g>
<!-- Node635&#45;&gt;Node636 -->
<g id="edge4" class="edge">
<title>Node635&#45;&gt;Node636</title>
<path fill="none" stroke="#191970" d="M583.4665,-65.3747C592.1455,-66.5718 600.7815,-67.763 608.9627,-68.8914"/>
<polygon fill="#191970" stroke="#191970" points="583.6676,-61.8694 573.2832,-63.9701 582.7111,-68.8037 583.6676,-61.8694"/>
</g>
<!-- Node637 -->
<g id="node6" class="node">
<title>Node637</title>
<g id="a_node6"><a xlink:href="../../dd/db0/test___e_k_f__basics_8cpp.html#a9bac2def61c4e03342922f674ab4c400" target="_top" xlink:title="TEST_F">
<polygon fill="#ffffff" stroke="#000000" points="634,-22.5 634,-41.5 687,-41.5 687,-22.5 634,-22.5"/>
<text text-anchor="middle" x="660.5" y="-29.5" font-family="Helvetica,sans-Serif" font-size="10.00" fill="#000000">TEST_F</text>
</a>
</g>
</g>
<!-- Node635&#45;&gt;Node637 -->
<g id="edge5" class="edge">
<title>Node635&#45;&gt;Node637</title>
<path fill="none" stroke="#191970" d="M583.4355,-42.6296C601.7189,-40.1077 619.8138,-37.6119 633.8706,-35.673"/>
<polygon fill="#191970" stroke="#191970" points="582.7111,-39.1963 573.2832,-44.0299 583.6676,-46.1306 582.7111,-39.1963"/>
</g>
</g>
</svg>
