<?xml version="1.0" encoding="UTF-8" standalone="no"?>
<!DOCTYPE svg PUBLIC "-//W3C//DTD SVG 1.1//EN"
 "http://www.w3.org/Graphics/SVG/1.1/DTD/svg11.dtd">
<!-- Generated by graphviz version 2.40.1 (20161225.0304)
 -->
<!-- Title: Ekf::update_deadreckoning_status Pages: 1 -->
<svg width="730pt" height="94pt"
 viewBox="0.00 0.00 730.00 94.00" xmlns="http://www.w3.org/2000/svg" xmlns:xlink="http://www.w3.org/1999/xlink">
<g id="graph0" class="graph" transform="scale(1 1) rotate(0) translate(4 90)">
<title>Ekf::update_deadreckoning_status</title>
<polygon fill="#ffffff" stroke="transparent" points="-4,4 -4,-90 726,-90 726,4 -4,4"/>
<!-- Node5716 -->
<g id="node1" class="node">
<title>Node5716</title>
<polygon fill="#bfbfbf" stroke="#000000" points="0,-20 0,-50 135,-50 135,-20 0,-20"/>
<text text-anchor="start" x="8" y="-38" font-family="Helvetica,sans-Serif" font-size="10.00" fill="#000000">Ekf::update_deadreckoning</text>
<text text-anchor="middle" x="67.5" y="-27" font-family="Helvetica,sans-Serif" font-size="10.00" fill="#000000">_status</text>
</g>
<!-- Node5717 -->
<g id="node2" class="node">
<title>Node5717</title>
<g id="a_node2"><a xlink:href="../../dc/d66/class_ekf.html#a709c2a511002736cd376c265c244eace" target="_top" xlink:title="Ekf::controlFusionModes">
<polygon fill="#ffffff" stroke="#000000" points="173,-44.5 173,-63.5 298,-63.5 298,-44.5 173,-44.5"/>
<text text-anchor="middle" x="235.5" y="-51.5" font-family="Helvetica,sans-Serif" font-size="10.00" fill="#000000">Ekf::controlFusionModes</text>
</a>
</g>
</g>
<!-- Node5716&#45;&gt;Node5717 -->
<g id="edge1" class="edge">
<title>Node5716&#45;&gt;Node5717</title>
<path fill="none" stroke="#191970" d="M145.299,-43.7987C154.5255,-44.8422 163.8524,-45.897 172.831,-46.9124"/>
<polygon fill="#191970" stroke="#191970" points="145.6778,-40.3193 135.3478,-42.6733 144.8911,-47.275 145.6778,-40.3193"/>
</g>
<!-- Node5723 -->
<g id="node8" class="node">
<title>Node5723</title>
<g id="a_node8"><a xlink:href="../../dc/d66/class_ekf.html#a0d00f1af5ef0a7c03050ffe0d4d6f7be" target="_top" xlink:title="Ekf::position_covariances">
<polygon fill="#ffffff" stroke="#000000" points="171,-6.5 171,-25.5 300,-25.5 300,-6.5 171,-6.5"/>
<text text-anchor="middle" x="235.5" y="-13.5" font-family="Helvetica,sans-Serif" font-size="10.00" fill="#000000">Ekf::position_covariances</text>
</a>
</g>
</g>
<!-- Node5716&#45;&gt;Node5723 -->
<g id="edge7" class="edge">
<title>Node5716&#45;&gt;Node5723</title>
<path fill="none" stroke="#191970" d="M145.3423,-26.1964C153.908,-25.2277 162.5596,-24.2492 170.9382,-23.3016"/>
<polygon fill="#191970" stroke="#191970" points="144.8911,-22.725 135.3478,-27.3267 145.6778,-29.6807 144.8911,-22.725"/>
</g>
<!-- Node5718 -->
<g id="node3" class="node">
<title>Node5718</title>
<g id="a_node3"><a xlink:href="../../dc/d66/class_ekf.html#a174a8ebf58b267ae263cd8a64dc776d6" target="_top" xlink:title="Ekf::update">
<polygon fill="#ffffff" stroke="#000000" points="336,-44.5 336,-63.5 403,-63.5 403,-44.5 336,-44.5"/>
<text text-anchor="middle" x="369.5" y="-51.5" font-family="Helvetica,sans-Serif" font-size="10.00" fill="#000000">Ekf::update</text>
</a>
</g>
</g>
<!-- Node5717&#45;&gt;Node5718 -->
<g id="edge2" class="edge">
<title>Node5717&#45;&gt;Node5718</title>
<path fill="none" stroke="#191970" d="M308.2037,-54C317.7957,-54 327.2307,-54 335.7145,-54"/>
<polygon fill="#191970" stroke="#191970" points="308.1843,-50.5001 298.1843,-54 308.1843,-57.5001 308.1843,-50.5001"/>
</g>
<!-- Node5719 -->
<g id="node4" class="node">
<title>Node5719</title>
<g id="a_node4"><a xlink:href="../../de/d9c/class_ekf2.html#aa9d0494340430e589883d23899a2bd76" target="_top" xlink:title="Ekf2::Run">
<polygon fill="#ffffff" stroke="#000000" points="480.5,-66.5 480.5,-85.5 541.5,-85.5 541.5,-66.5 480.5,-66.5"/>
<text text-anchor="middle" x="511" y="-73.5" font-family="Helvetica,sans-Serif" font-size="10.00" fill="#000000">Ekf2::Run</text>
</a>
</g>
</g>
<!-- Node5718&#45;&gt;Node5719 -->
<g id="edge3" class="edge">
<title>Node5718&#45;&gt;Node5719</title>
<path fill="none" stroke="#191970" d="M413.0049,-60.764C434.7168,-64.1397 460.4693,-68.1436 480.1248,-71.1996"/>
<polygon fill="#191970" stroke="#191970" points="413.4525,-57.2916 403.0335,-59.2137 412.3771,-64.2085 413.4525,-57.2916"/>
</g>
<!-- Node5720 -->
<g id="node5" class="node">
<title>Node5720</title>
<g id="a_node5"><a xlink:href="../../d3/d9b/class_ekf_initialization_test.html#a668b9135c03c01f5f0a5626bb1617961" target="_top" xlink:title="EkfInitializationTest\l::update_with_const_sensors">
<polygon fill="#ffffff" stroke="#000000" points="439,-17 439,-47 583,-47 583,-17 439,-17"/>
<text text-anchor="start" x="447" y="-35" font-family="Helvetica,sans-Serif" font-size="10.00" fill="#000000">EkfInitializationTest</text>
<text text-anchor="middle" x="511" y="-24" font-family="Helvetica,sans-Serif" font-size="10.00" fill="#000000">::update_with_const_sensors</text>
</a>
</g>
</g>
<!-- Node5718&#45;&gt;Node5720 -->
<g id="edge4" class="edge">
<title>Node5718&#45;&gt;Node5720</title>
<path fill="none" stroke="#191970" d="M413.1059,-47.2203C421.3343,-45.941 430.1401,-44.5719 438.9724,-43.1986"/>
<polygon fill="#191970" stroke="#191970" points="412.3771,-43.7915 403.0335,-48.7863 413.4525,-50.7084 412.3771,-43.7915"/>
</g>
<!-- Node5721 -->
<g id="node6" class="node">
<title>Node5721</title>
<g id="a_node6"><a xlink:href="../../d3/d9b/class_ekf_initialization_test.html#a68ff1fdc6e36f6f426b17365aef723c7" target="_top" xlink:title="EkfInitializationTest\l::SetUp">
<polygon fill="#ffffff" stroke="#000000" points="619,-39 619,-69 722,-69 722,-39 619,-39"/>
<text text-anchor="start" x="627" y="-57" font-family="Helvetica,sans-Serif" font-size="10.00" fill="#000000">EkfInitializationTest</text>
<text text-anchor="middle" x="670.5" y="-46" font-family="Helvetica,sans-Serif" font-size="10.00" fill="#000000">::SetUp</text>
</a>
</g>
</g>
<!-- Node5720&#45;&gt;Node5721 -->
<g id="edge5" class="edge">
<title>Node5720&#45;&gt;Node5721</title>
<path fill="none" stroke="#191970" d="M593.4665,-43.3747C602.1455,-44.5718 610.7815,-45.763 618.9627,-46.8914"/>
<polygon fill="#191970" stroke="#191970" points="593.6676,-39.8694 583.2832,-41.9701 592.7111,-46.8037 593.6676,-39.8694"/>
</g>
<!-- Node5722 -->
<g id="node7" class="node">
<title>Node5722</title>
<g id="a_node7"><a xlink:href="../../dd/db0/test___e_k_f__basics_8cpp.html#a9bac2def61c4e03342922f674ab4c400" target="_top" xlink:title="TEST_F">
<polygon fill="#ffffff" stroke="#000000" points="644,-.5 644,-19.5 697,-19.5 697,-.5 644,-.5"/>
<text text-anchor="middle" x="670.5" y="-7.5" font-family="Helvetica,sans-Serif" font-size="10.00" fill="#000000">TEST_F</text>
</a>
</g>
</g>
<!-- Node5720&#45;&gt;Node5722 -->
<g id="edge6" class="edge">
<title>Node5720&#45;&gt;Node5722</title>
<path fill="none" stroke="#191970" d="M593.4355,-20.6296C611.7189,-18.1077 629.8138,-15.6119 643.8706,-13.673"/>
<polygon fill="#191970" stroke="#191970" points="592.7111,-17.1963 583.2832,-22.0299 593.6676,-24.1306 592.7111,-17.1963"/>
</g>
</g>
</svg>
