<?xml version="1.0" encoding="UTF-8" standalone="no"?>
<!DOCTYPE svg PUBLIC "-//W3C//DTD SVG 1.1//EN"
 "http://www.w3.org/Graphics/SVG/1.1/DTD/svg11.dtd">
<!-- Generated by graphviz version 2.40.1 (20161225.0304)
 -->
<!-- Title: MPL3115A2::ioctl Pages: 1 -->
<!--zoomable 66 -->
<svg id="main" version="1.1" xmlns="http://www.w3.org/2000/svg" xmlns:xlink="http://www.w3.org/1999/xlink" xml:space="preserve" onload="init(evt)">
<style type="text/css"><![CDATA[
.edge:hover path { stroke: red; }
.edge:hover polygon { stroke: red; fill: red; }
]]></style>
<script type="text/javascript"><![CDATA[
var edges = document.getElementsByTagName('g');
if (edges && edges.length) {
  for (var i=0;i<edges.length;i++) {
    if (edges[i].id.substr(0,4)=='edge') {
      edges[i].setAttribute('class','edge');
    }
  }
}
]]></script>
        <defs>
                <circle id="rim" cx="0" cy="0" r="7"/>
                <circle id="rim2" cx="0" cy="0" r="3.5"/>
                <g id="zoomPlus">
                        <use xlink:href="#rim" fill="#404040">
                                <set attributeName="fill" to="#808080" begin="zoomplus.mouseover" end="zoomplus.mouseout"/>
                        </use>
                        <path d="M-4,0h8M0,-4v8" fill="none" stroke="white" stroke-width="1.5" pointer-events="none"/>
                </g>
                <g id="zoomMin">
                        <use xlink:href="#rim" fill="#404040">
                                <set attributeName="fill" to="#808080" begin="zoomminus.mouseover" end="zoomminus.mouseout"/>
                        </use>
                        <path d="M-4,0h8" fill="none" stroke="white" stroke-width="1.5" pointer-events="none"/>
                </g>
                <g id="dirArrow">
                        <path fill="none" stroke="white" stroke-width="1.5" d="M0,-3.0v7 M-2.5,-0.5L0,-3.0L2.5,-0.5"/>
                </g>
               <g id="resetDef">
                       <use xlink:href="#rim2" fill="#404040">
                               <set attributeName="fill" to="#808080" begin="reset.mouseover" end="reset.mouseout"/>
                       </use>
               </g>
        </defs>

<script type="text/javascript">
var viewWidth = 502;
var viewHeight = 66;
var sectionId = 'dynsection-9';
</script>
<script xlink:href="../../svgpan.js"/>
<svg id="graph" class="graph">
<g id="viewport">
<title>MPL3115A2::ioctl</title>
<polygon fill="#ffffff" stroke="transparent" points="-4,4 -4,-62 498,-62 498,4 -4,4"/>
<!-- Node201 -->
<g id="node1" class="node">
<title>Node201</title>
<polygon fill="#bfbfbf" stroke="#000000" points="0,-19.5 0,-38.5 94,-38.5 94,-19.5 0,-19.5"/>
<text text-anchor="middle" x="47" y="-26.5" font-family="Helvetica,sans-Serif" font-size="10.00" fill="#000000">MPL3115A2::ioctl</text>
</g>
<!-- Node202 -->
<g id="node2" class="node">
<title>Node202</title>
<g id="a_node2"><a xlink:href="../../d1/d3d/namespacempl3115a2.html#a15e8c20a1253e7f866f69b8f9523df8f" target="_top" xlink:title="Reset the driver. ">
<polygon fill="#ffffff" stroke="#000000" points="276,-38.5 276,-57.5 368,-57.5 368,-38.5 276,-38.5"/>
<text text-anchor="middle" x="322" y="-45.5" font-family="Helvetica,sans-Serif" font-size="10.00" fill="#000000">mpl3115a2::reset</text>
</a>
</g>
</g>
<!-- Node201&#45;&gt;Node202 -->
<g id="edge1" class="edge">
<title>Node201&#45;&gt;Node202</title>
<path fill="none" stroke="#191970" d="M104.454,-32.9695C155.3301,-36.4846 228.6385,-41.5496 275.8004,-44.808"/>
<polygon fill="#191970" stroke="#191970" points="104.4917,-29.4639 94.2742,-32.2662 104.0091,-36.4472 104.4917,-29.4639"/>
</g>
<!-- Node204 -->
<g id="node4" class="node">
<title>Node204</title>
<g id="a_node4"><a xlink:href="../../d1/d3d/namespacempl3115a2.html#a1ae84ea0cbd2a6e948546da375d815f5" target="_top" xlink:title="Start the driver. ">
<polygon fill="#ffffff" stroke="#000000" points="130,-.5 130,-19.5 240,-19.5 240,-.5 130,-.5"/>
<text text-anchor="middle" x="185" y="-7.5" font-family="Helvetica,sans-Serif" font-size="10.00" fill="#000000">mpl3115a2::start_bus</text>
</a>
</g>
</g>
<!-- Node201&#45;&gt;Node204 -->
<g id="edge3" class="edge">
<title>Node201&#45;&gt;Node204</title>
<path fill="none" stroke="#191970" d="M104.1799,-21.1274C112.5649,-19.9729 121.1899,-18.7854 129.5396,-17.6359"/>
<polygon fill="#191970" stroke="#191970" points="103.5349,-17.6831 94.1058,-22.5144 104.4898,-24.6177 103.5349,-17.6831"/>
</g>
<!-- Node203 -->
<g id="node3" class="node">
<title>Node203</title>
<g id="a_node3"><a xlink:href="../../db/dac/mpl3115a2_8cpp.html#abae182ee2efa8ef386ec1cae2f4b4575" target="_top" xlink:title="mpl3115a2_main">
<polygon fill="#ffffff" stroke="#000000" points="404,-19.5 404,-38.5 494,-38.5 494,-19.5 404,-19.5"/>
<text text-anchor="middle" x="449" y="-26.5" font-family="Helvetica,sans-Serif" font-size="10.00" fill="#000000">mpl3115a2_main</text>
</a>
</g>
</g>
<!-- Node202&#45;&gt;Node203 -->
<g id="edge2" class="edge">
<title>Node202&#45;&gt;Node203</title>
<path fill="none" stroke="#191970" d="M378.1834,-39.5946C386.7838,-38.3079 395.5657,-36.9941 403.8865,-35.7493"/>
<polygon fill="#191970" stroke="#191970" points="377.5812,-36.1457 368.2092,-41.0868 378.617,-43.0686 377.5812,-36.1457"/>
</g>
<!-- Node205 -->
<g id="node5" class="node">
<title>Node205</title>
<g id="a_node5"><a xlink:href="../../d1/d3d/namespacempl3115a2.html#a79202f17187f6a6765530ba0b1d0d9b6" target="_top" xlink:title="Start the driver. ">
<polygon fill="#ffffff" stroke="#000000" points="277.5,-.5 277.5,-19.5 366.5,-19.5 366.5,-.5 277.5,-.5"/>
<text text-anchor="middle" x="322" y="-7.5" font-family="Helvetica,sans-Serif" font-size="10.00" fill="#000000">mpl3115a2::start</text>
</a>
</g>
</g>
<!-- Node204&#45;&gt;Node205 -->
<g id="edge4" class="edge">
<title>Node204&#45;&gt;Node205</title>
<path fill="none" stroke="#191970" d="M250.5391,-10C259.6397,-10 268.81,-10 277.4061,-10"/>
<polygon fill="#191970" stroke="#191970" points="250.3283,-6.5001 240.3282,-10 250.3282,-13.5001 250.3283,-6.5001"/>
</g>
<!-- Node205&#45;&gt;Node203 -->
<g id="edge5" class="edge">
<title>Node205&#45;&gt;Node203</title>
<path fill="none" stroke="#191970" d="M376.7973,-18.198C385.7984,-19.5446 395.0372,-20.9268 403.7719,-22.2336"/>
<polygon fill="#191970" stroke="#191970" points="377.1833,-14.7169 366.7754,-16.6987 376.1475,-21.6398 377.1833,-14.7169"/>
</g>
</g>
</svg>
        <g id="navigator" transform="translate(0 0)" fill="#404254">
                <rect fill="#f2f5e9" fill-opacity="0.5" stroke="#606060" stroke-width=".5" x="0" y="0" width="60" height="60"/>
                <use id="zoomplus" xlink:href="#zoomPlus" x="17" y="9" onmousedown="handleZoom(evt,'in')"/>
                <use id="zoomminus" xlink:href="#zoomMin" x="42" y="9" onmousedown="handleZoom(evt,'out')"/>
                <use id="reset" xlink:href="#resetDef" x="30" y="36" onmousedown="handleReset()"/>
                <g id="arrowUp" xlink:href="#dirArrow" transform="translate(30 24)" onmousedown="handlePan(0,-1)">
                  <use xlink:href="#rim" fill="#404040">
                        <set attributeName="fill" to="#808080" begin="arrowUp.mouseover" end="arrowUp.mouseout"/>
                  </use>
                  <path fill="none" stroke="white" stroke-width="1.5" d="M0,-3.0v7 M-2.5,-0.5L0,-3.0L2.5,-0.5"/>
                </g>
                <g id="arrowRight" xlink:href="#dirArrow" transform="rotate(90) translate(36 -43)" onmousedown="handlePan(1,0)">
                  <use xlink:href="#rim" fill="#404040">
                        <set attributeName="fill" to="#808080" begin="arrowRight.mouseover" end="arrowRight.mouseout"/>
                  </use>
                  <path fill="none" stroke="white" stroke-width="1.5" d="M0,-3.0v7 M-2.5,-0.5L0,-3.0L2.5,-0.5"/>
                </g>
                <g id="arrowDown" xlink:href="#dirArrow" transform="rotate(180) translate(-30 -48)" onmousedown="handlePan(0,1)">
                  <use xlink:href="#rim" fill="#404040">
                        <set attributeName="fill" to="#808080" begin="arrowDown.mouseover" end="arrowDown.mouseout"/>
                  </use>
                  <path fill="none" stroke="white" stroke-width="1.5" d="M0,-3.0v7 M-2.5,-0.5L0,-3.0L2.5,-0.5"/>
                </g>
                <g id="arrowLeft" xlink:href="#dirArrow" transform="rotate(270) translate(-36 17)" onmousedown="handlePan(-1,0)">
                  <use xlink:href="#rim" fill="#404040">
                        <set attributeName="fill" to="#808080" begin="arrowLeft.mouseover" end="arrowLeft.mouseout"/>
                  </use>
                  <path fill="none" stroke="white" stroke-width="1.5" d="M0,-3.0v7 M-2.5,-0.5L0,-3.0L2.5,-0.5"/>
                </g>
        </g>
        <svg viewBox="0 0 15 15" width="100%" height="30px" preserveAspectRatio="xMaxYMin meet">
         <g id="arrow_out" transform="scale(0.3 0.3)">
          <a xlink:href="class_m_p_l3115_a2_a6e538bfe7fa904fcc37353bbf6071bf0_icgraph_org.svg" target="_base">
           <rect id="button" ry="5" rx="5" y="6" x="6" height="38" width="38"
                fill="#f2f5e9" fill-opacity="0.5" stroke="#606060" stroke-width="1.0"/>
           <path id="arrow"
             d="M 11.500037,31.436501 C 11.940474,20.09759 22.043105,11.32322 32.158766,21.979434 L 37.068811,17.246167 C 37.068811,17.246167 37.088388,32 37.088388,32 L 22.160133,31.978069 C 22.160133,31.978069 26.997745,27.140456 26.997745,27.140456 C 18.528582,18.264221 13.291696,25.230495 11.500037,31.436501 z"
             style="fill:#404040;"/>
          </a>
         </g>
        </svg>
</svg>
