<?xml version="1.0" encoding="UTF-8" standalone="no"?>
<!DOCTYPE svg PUBLIC "-//W3C//DTD SVG 1.1//EN"
 "http://www.w3.org/Graphics/SVG/1.1/DTD/svg11.dtd">
<!-- Generated by graphviz version 2.38.0 (20140413.2041)
 -->
<!-- Title: control::BlockDelay::update Pages: 1 -->
<svg width="753pt" height="154pt"
 viewBox="0.00 0.00 753.00 153.50" xmlns="http://www.w3.org/2000/svg" xmlns:xlink="http://www.w3.org/1999/xlink">
<g id="graph0" class="graph" transform="scale(1 1) rotate(0) translate(4 149.5)">
<title>control::BlockDelay::update</title>
<polygon fill="white" stroke="none" points="-4,4 -4,-149.5 749,-149.5 749,4 -4,4"/>
<!-- Node1 -->
<g id="node1" class="node"><title>Node1</title>
<polygon fill="#bfbfbf" stroke="black" points="0,-44.5 0,-74.5 102,-74.5 102,-44.5 0,-44.5"/>
<text text-anchor="start" x="8" y="-62.5" font-family="Helvetica,sans-Serif" font-size="10.00">control::BlockDelay</text>
<text text-anchor="middle" x="51" y="-51.5" font-family="Helvetica,sans-Serif" font-size="10.00">::update</text>
</g>
<!-- Node2 -->
<g id="node2" class="node"><title>Node2</title>
<g id="a_node2"><a xlink:href="../../dd/d7b/namespacecontrol.html#aa61b9540192392bfe67a791ff3c65e05" target="_top" xlink:title="control::blockDelayTest">
<polygon fill="white" stroke="black" points="149,-88 149,-107 269,-107 269,-88 149,-88"/>
<text text-anchor="middle" x="209" y="-95" font-family="Helvetica,sans-Serif" font-size="10.00">control::blockDelayTest</text>
</a>
</g>
</g>
<!-- Node1&#45;&gt;Node2 -->
<g id="edge1" class="edge"><title>Node1&#45;&gt;Node2</title>
<path fill="none" stroke="midnightblue" d="M112.006,-74.1169C131.037,-78.7525 151.578,-83.7563 168.757,-87.9409"/>
<polygon fill="midnightblue" stroke="midnightblue" points="112.762,-70.6988 102.218,-71.7326 111.106,-77.4999 112.762,-70.6988"/>
</g>
<!-- Node5 -->
<g id="node5" class="node"><title>Node5</title>
<g id="a_node5"><a xlink:href="../../d9/de9/controllib__test__main_8cpp.html#aa61b9540192392bfe67a791ff3c65e05" target="_top" xlink:title="blockDelayTest">
<polygon fill="white" stroke="black" points="660,-78 660,-97 745,-97 745,-78 660,-78"/>
<text text-anchor="middle" x="702.5" y="-85" font-family="Helvetica,sans-Serif" font-size="10.00">blockDelayTest</text>
</a>
</g>
</g>
<!-- Node1&#45;&gt;Node5 -->
<g id="edge6" class="edge"><title>Node1&#45;&gt;Node5</title>
<path fill="none" stroke="midnightblue" d="M112.358,-62.102C242.761,-67.7237 548.023,-80.8836 659.658,-85.6962"/>
<polygon fill="midnightblue" stroke="midnightblue" points="112.297,-58.5962 102.155,-61.6622 111.995,-65.5898 112.297,-58.5962"/>
</g>
<!-- Node7 -->
<g id="node7" class="node"><title>Node7</title>
<g id="a_node7"><a xlink:href="../../d5/d01/class_block_local_position_estimator.html#ad15c4f6a9868f57abfc5b78f4e2165d9" target="_top" xlink:title="BlockLocalPositionEstimator\l::update">
<polygon fill="white" stroke="black" points="138,-0.5 138,-30.5 280,-30.5 280,-0.5 138,-0.5"/>
<text text-anchor="start" x="146" y="-18.5" font-family="Helvetica,sans-Serif" font-size="10.00">BlockLocalPositionEstimator</text>
<text text-anchor="middle" x="209" y="-7.5" font-family="Helvetica,sans-Serif" font-size="10.00">::update</text>
</a>
</g>
</g>
<!-- Node1&#45;&gt;Node7 -->
<g id="edge7" class="edge"><title>Node1&#45;&gt;Node7</title>
<path fill="none" stroke="midnightblue" d="M112.227,-42.5129C126.206,-38.5702 140.989,-34.4006 154.648,-30.5481"/>
<polygon fill="midnightblue" stroke="midnightblue" points="110.892,-39.2527 102.218,-45.3359 112.793,-45.9898 110.892,-39.2527"/>
</g>
<!-- Node3 -->
<g id="node3" class="node"><title>Node3</title>
<g id="a_node3"><a xlink:href="../../dd/d7b/namespacecontrol.html#a213586553ff1fb69f41627504f7e7309" target="_top" xlink:title="control::basicBlocksTest">
<polygon fill="white" stroke="black" points="337.5,-126 337.5,-145 462.5,-145 462.5,-126 337.5,-126"/>
<text text-anchor="middle" x="400" y="-133" font-family="Helvetica,sans-Serif" font-size="10.00">control::basicBlocksTest</text>
</a>
</g>
</g>
<!-- Node2&#45;&gt;Node3 -->
<g id="edge2" class="edge"><title>Node2&#45;&gt;Node3</title>
<path fill="none" stroke="midnightblue" d="M267.742,-109.11C294.622,-114.514 326.203,-120.864 351.65,-125.98"/>
<polygon fill="midnightblue" stroke="midnightblue" points="268.186,-105.629 257.693,-107.089 266.807,-112.492 268.186,-105.629"/>
</g>
<!-- Node6 -->
<g id="node6" class="node"><title>Node6</title>
<g id="a_node6"><a xlink:href="../../d9/de9/controllib__test__main_8cpp.html#a213586553ff1fb69f41627504f7e7309" target="_top" xlink:title="basicBlocksTest">
<polygon fill="white" stroke="black" points="355.5,-88 355.5,-107 444.5,-107 444.5,-88 355.5,-88"/>
<text text-anchor="middle" x="400" y="-95" font-family="Helvetica,sans-Serif" font-size="10.00">basicBlocksTest</text>
</a>
</g>
</g>
<!-- Node2&#45;&gt;Node6 -->
<g id="edge5" class="edge"><title>Node2&#45;&gt;Node6</title>
<path fill="none" stroke="midnightblue" d="M279.028,-97.5C304.554,-97.5 332.759,-97.5 355.405,-97.5"/>
<polygon fill="midnightblue" stroke="midnightblue" points="279.023,-94.0001 269.023,-97.5 279.023,-101 279.023,-94.0001"/>
</g>
<!-- Node4 -->
<g id="node4" class="node"><title>Node4</title>
<g id="a_node4"><a xlink:href="../../d5/d69/tests__main_8h.html#a6d80dfe13b380ca974674e83117d03a9" target="_top" xlink:title="controllib_test_main">
<polygon fill="white" stroke="black" points="520,-107 520,-126 624,-126 624,-107 520,-107"/>
<text text-anchor="middle" x="572" y="-114" font-family="Helvetica,sans-Serif" font-size="10.00">controllib_test_main</text>
</a>
</g>
</g>
<!-- Node3&#45;&gt;Node4 -->
<g id="edge3" class="edge"><title>Node3&#45;&gt;Node4</title>
<path fill="none" stroke="midnightblue" d="M473.07,-127.445C488.783,-125.689 505.099,-123.865 519.803,-122.222"/>
<polygon fill="midnightblue" stroke="midnightblue" points="472.404,-123.998 462.855,-128.587 473.182,-130.954 472.404,-123.998"/>
</g>
<!-- Node4&#45;&gt;Node5 -->
<g id="edge4" class="edge"><title>Node4&#45;&gt;Node5</title>
<path fill="none" stroke="midnightblue" d="M625.385,-104.678C636.909,-102.077 648.961,-99.357 659.988,-96.8685"/>
<polygon fill="midnightblue" stroke="midnightblue" points="624.416,-101.308 615.432,-106.924 625.957,-108.137 624.416,-101.308"/>
</g>
<!-- Node8 -->
<g id="node8" class="node"><title>Node8</title>
<g id="a_node8"><a xlink:href="../../dc/d09/class_local_position_estimator_module.html#a6e620e76d8f8c8d6a87fe2246c30bde9" target="_top" xlink:title="LocalPositionEstimatorModule::run">
<polygon fill="white" stroke="black" points="316,-6 316,-25 484,-25 484,-6 316,-6"/>
<text text-anchor="middle" x="400" y="-13" font-family="Helvetica,sans-Serif" font-size="10.00">LocalPositionEstimatorModule::run</text>
</a>
</g>
</g>
<!-- Node7&#45;&gt;Node8 -->
<g id="edge8" class="edge"><title>Node7&#45;&gt;Node8</title>
<path fill="none" stroke="midnightblue" d="M290.335,-15.5C298.797,-15.5 307.415,-15.5 315.908,-15.5"/>
<polygon fill="midnightblue" stroke="midnightblue" points="290.108,-12.0001 280.108,-15.5 290.108,-19.0001 290.108,-12.0001"/>
</g>
</g>
</svg>
