<?xml version="1.0" encoding="UTF-8" standalone="no"?>
<!DOCTYPE svg PUBLIC "-//W3C//DTD SVG 1.1//EN"
 "http://www.w3.org/Graphics/SVG/1.1/DTD/svg11.dtd">
<!-- Generated by graphviz version 2.38.0 (20140413.2041)
 -->
<!-- Title: src/drivers/boards/eagle/sitl_led.c Pages: 1 -->
<svg width="450pt" height="151pt"
 viewBox="0.00 0.00 450.00 151.00" xmlns="http://www.w3.org/2000/svg" xmlns:xlink="http://www.w3.org/1999/xlink">
<g id="graph0" class="graph" transform="scale(1 1) rotate(0) translate(4 147)">
<title>src/drivers/boards/eagle/sitl_led.c</title>
<polygon fill="white" stroke="none" points="-4,4 -4,-147 446,-147 446,4 -4,4"/>
<!-- Node1 -->
<g id="node1" class="node"><title>Node1</title>
<polygon fill="#bfbfbf" stroke="black" points="206,-112.5 206,-142.5 301,-142.5 301,-112.5 206,-112.5"/>
<text text-anchor="start" x="214" y="-130.5" font-family="Helvetica,sans-Serif" font-size="10.00">src/drivers/boards</text>
<text text-anchor="middle" x="253.5" y="-119.5" font-family="Helvetica,sans-Serif" font-size="10.00">/eagle/sitl_led.c</text>
</g>
<!-- Node2 -->
<g id="node2" class="node"><title>Node2</title>
<g id="a_node2"><a xlink:href="../../d4/d35/px4__config_8h.html" target="_top" xlink:title="Configuration flags used in code. ">
<polygon fill="white" stroke="black" points="133.5,-56.5 133.5,-75.5 205.5,-75.5 205.5,-56.5 133.5,-56.5"/>
<text text-anchor="middle" x="169.5" y="-63.5" font-family="Helvetica,sans-Serif" font-size="10.00">px4_config.h</text>
</a>
</g>
</g>
<!-- Node1&#45;&gt;Node2 -->
<g id="edge1" class="edge"><title>Node1&#45;&gt;Node2</title>
<path fill="none" stroke="midnightblue" d="M233.593,-112.399C220.506,-103.129 203.418,-91.0254 190.178,-81.6469"/>
<polygon fill="midnightblue" stroke="midnightblue" points="191.906,-78.5819 181.723,-75.6578 187.86,-84.2941 191.906,-78.5819"/>
</g>
<!-- Node3 -->
<g id="node3" class="node"><title>Node3</title>
<g id="a_node3"><a xlink:href="../../d7/d53/px4__log_8h.html" target="_top" xlink:title="Platform dependant logging/debug implementation. ">
<polygon fill="white" stroke="black" points="224,-56.5 224,-75.5 283,-75.5 283,-56.5 224,-56.5"/>
<text text-anchor="middle" x="253.5" y="-63.5" font-family="Helvetica,sans-Serif" font-size="10.00">px4_log.h</text>
</a>
</g>
</g>
<!-- Node1&#45;&gt;Node3 -->
<g id="edge2" class="edge"><title>Node1&#45;&gt;Node3</title>
<path fill="none" stroke="midnightblue" d="M253.5,-112.399C253.5,-104.466 253.5,-94.458 253.5,-85.8583"/>
<polygon fill="midnightblue" stroke="midnightblue" points="257,-85.6577 253.5,-75.6578 250,-85.6578 257,-85.6577"/>
</g>
<!-- Node10 -->
<g id="node10" class="node"><title>Node10</title>
<polygon fill="white" stroke="#bfbfbf" points="301.5,-56.5 301.5,-75.5 357.5,-75.5 357.5,-56.5 301.5,-56.5"/>
<text text-anchor="middle" x="329.5" y="-63.5" font-family="Helvetica,sans-Serif" font-size="10.00">stdbool.h</text>
</g>
<!-- Node1&#45;&gt;Node10 -->
<g id="edge10" class="edge"><title>Node1&#45;&gt;Node10</title>
<path fill="none" stroke="midnightblue" d="M271.511,-112.399C283.238,-103.218 298.515,-91.2579 310.445,-81.9182"/>
<polygon fill="midnightblue" stroke="midnightblue" points="312.725,-84.5782 318.441,-75.6578 308.41,-79.0664 312.725,-84.5782"/>
</g>
<!-- Node4 -->
<g id="node4" class="node"><title>Node4</title>
<polygon fill="white" stroke="#bfbfbf" points="0,-0.5 0,-19.5 59,-19.5 59,-0.5 0,-0.5"/>
<text text-anchor="middle" x="29.5" y="-7.5" font-family="Helvetica,sans-Serif" font-size="10.00">inttypes.h</text>
</g>
<!-- Node3&#45;&gt;Node4 -->
<g id="edge3" class="edge"><title>Node3&#45;&gt;Node4</title>
<path fill="none" stroke="midnightblue" d="M223.755,-57.8292C183.897,-48.2207 113.066,-31.1453 68.836,-20.4828"/>
<polygon fill="midnightblue" stroke="midnightblue" points="69.5535,-17.0556 59.0117,-18.1144 67.913,-23.8606 69.5535,-17.0556"/>
</g>
<!-- Node5 -->
<g id="node5" class="node"><title>Node5</title>
<polygon fill="white" stroke="#bfbfbf" points="77,-0.5 77,-19.5 126,-19.5 126,-0.5 77,-0.5"/>
<text text-anchor="middle" x="101.5" y="-7.5" font-family="Helvetica,sans-Serif" font-size="10.00">stdint.h</text>
</g>
<!-- Node3&#45;&gt;Node5 -->
<g id="edge4" class="edge"><title>Node3&#45;&gt;Node5</title>
<path fill="none" stroke="midnightblue" d="M229.415,-56.4435C203.955,-47.3986 163.606,-33.064 135.041,-22.9158"/>
<polygon fill="midnightblue" stroke="midnightblue" points="136.067,-19.5661 125.472,-19.5164 133.723,-26.1622 136.067,-19.5661"/>
</g>
<!-- Node6 -->
<g id="node6" class="node"><title>Node6</title>
<polygon fill="white" stroke="#bfbfbf" points="144.5,-0.5 144.5,-19.5 212.5,-19.5 212.5,-0.5 144.5,-0.5"/>
<text text-anchor="middle" x="178.5" y="-7.5" font-family="Helvetica,sans-Serif" font-size="10.00">sys/cdefs.h</text>
</g>
<!-- Node3&#45;&gt;Node6 -->
<g id="edge5" class="edge"><title>Node3&#45;&gt;Node6</title>
<path fill="none" stroke="midnightblue" d="M241.45,-56.324C230.037,-48.1066 212.669,-35.6017 199.065,-25.8069"/>
<polygon fill="midnightblue" stroke="midnightblue" points="200.93,-22.8366 190.769,-19.8339 196.84,-28.5174 200.93,-22.8366"/>
</g>
<!-- Node7 -->
<g id="node7" class="node"><title>Node7</title>
<polygon fill="white" stroke="#bfbfbf" points="230.5,-0.5 230.5,-19.5 276.5,-19.5 276.5,-0.5 230.5,-0.5"/>
<text text-anchor="middle" x="253.5" y="-7.5" font-family="Helvetica,sans-Serif" font-size="10.00">stdio.h</text>
</g>
<!-- Node3&#45;&gt;Node7 -->
<g id="edge6" class="edge"><title>Node3&#45;&gt;Node7</title>
<path fill="none" stroke="midnightblue" d="M253.5,-56.083C253.5,-49.0059 253.5,-38.8611 253.5,-29.9865"/>
<polygon fill="midnightblue" stroke="midnightblue" points="257,-29.751 253.5,-19.7511 250,-29.7511 257,-29.751"/>
</g>
<!-- Node8 -->
<g id="node8" class="node"><title>Node8</title>
<polygon fill="white" stroke="#bfbfbf" points="294.5,-0.5 294.5,-19.5 346.5,-19.5 346.5,-0.5 294.5,-0.5"/>
<text text-anchor="middle" x="320.5" y="-7.5" font-family="Helvetica,sans-Serif" font-size="10.00">stdarg.h</text>
</g>
<!-- Node3&#45;&gt;Node8 -->
<g id="edge7" class="edge"><title>Node3&#45;&gt;Node8</title>
<path fill="none" stroke="midnightblue" d="M264.265,-56.324C274.266,-48.2631 289.387,-36.0765 301.43,-26.3695"/>
<polygon fill="midnightblue" stroke="midnightblue" points="303.95,-28.8343 309.539,-19.8339 299.557,-23.3841 303.95,-28.8343"/>
</g>
<!-- Node9 -->
<g id="node9" class="node"><title>Node9</title>
<g id="a_node9"><a xlink:href="../../df/dd0/px4__defines_8h.html" target="_top" xlink:title="Generally used magic defines. ">
<polygon fill="white" stroke="black" points="365,-0.5 365,-19.5 442,-19.5 442,-0.5 365,-0.5"/>
<text text-anchor="middle" x="403.5" y="-7.5" font-family="Helvetica,sans-Serif" font-size="10.00">px4_defines.h</text>
</a>
</g>
</g>
<!-- Node3&#45;&gt;Node9 -->
<g id="edge8" class="edge"><title>Node3&#45;&gt;Node9</title>
<path fill="none" stroke="midnightblue" d="M272.179,-56.4435C295.421,-47.3591 335.278,-32.9388 365.08,-22.7831"/>
<polygon fill="midnightblue" stroke="midnightblue" points="366.407,-26.0295 374.763,-19.5164 364.169,-19.3968 366.407,-26.0295"/>
</g>
<!-- Node9&#45;&gt;Node3 -->
<g id="edge9" class="edge"><title>Node9&#45;&gt;Node3</title>
<path fill="none" stroke="midnightblue" d="M384.923,-19.5164C361.73,-28.5852 321.883,-43.0039 292.051,-53.172"/>
<polygon fill="midnightblue" stroke="midnightblue" points="290.713,-49.9298 282.357,-56.4435 292.951,-56.5623 290.713,-49.9298"/>
</g>
</g>
</svg>
