<?xml version="1.0" encoding="UTF-8" standalone="no"?>
<!DOCTYPE svg PUBLIC "-//W3C//DTD SVG 1.1//EN"
 "http://www.w3.org/Graphics/SVG/1.1/DTD/svg11.dtd">
<!-- Generated by graphviz version 2.38.0 (20140413.2041)
 -->
<!-- Title: px4::get_time_micros Pages: 1 -->
<svg width="660pt" height="529pt"
 viewBox="0.00 0.00 660.00 529.00" xmlns="http://www.w3.org/2000/svg" xmlns:xlink="http://www.w3.org/1999/xlink">
<g id="graph0" class="graph" transform="scale(1 1) rotate(0) translate(4 525)">
<title>px4::get_time_micros</title>
<polygon fill="white" stroke="none" points="-4,4 -4,-525 656,-525 656,4 -4,4"/>
<!-- Node1 -->
<g id="node1" class="node"><title>Node1</title>
<polygon fill="#bfbfbf" stroke="black" points="0,-251 0,-270 110,-270 110,-251 0,-251"/>
<text text-anchor="middle" x="55" y="-258" font-family="Helvetica,sans-Serif" font-size="10.00">px4::get_time_micros</text>
</g>
<!-- Node2 -->
<g id="node2" class="node"><title>Node2</title>
<g id="a_node2"><a xlink:href="../../d3/d7e/classpx4_1_1_mavlink.html#a845bfb48fe937f6fc6a74d52fb306dbf" target="_top" xlink:title="Handle SET_ATTITUDE_TARGET mavlink messages. ">
<polygon fill="white" stroke="black" points="160,-490.5 160,-520.5 287,-520.5 287,-490.5 160,-490.5"/>
<text text-anchor="start" x="168" y="-508.5" font-family="Helvetica,sans-Serif" font-size="10.00">px4::Mavlink::handle</text>
<text text-anchor="middle" x="223.5" y="-497.5" font-family="Helvetica,sans-Serif" font-size="10.00">_msg_set_attitude_target</text>
</a>
</g>
</g>
<!-- Node1&#45;&gt;Node2 -->
<g id="edge1" class="edge"><title>Node1&#45;&gt;Node2</title>
<path fill="none" stroke="midnightblue" d="M58.3588,-280.057C64.5642,-322.889 85.2839,-425.61 146,-481.5 150.096,-485.271 154.78,-488.449 159.768,-491.128"/>
<polygon fill="midnightblue" stroke="midnightblue" points="61.8199,-279.533 57.0247,-270.085 54.8818,-280.461 61.8199,-279.533"/>
</g>
<!-- Node5 -->
<g id="node5" class="node"><title>Node5</title>
<g id="a_node5"><a xlink:href="../../d3/d7e/classpx4_1_1_mavlink.html#aa179c7a33a633558ddfa194e23c7ec8d" target="_top" xlink:title="Handle SET_POSITION_TARGET_LOCAL_NED mavlink messages. ">
<polygon fill="white" stroke="black" points="159.5,-431 159.5,-472 287.5,-472 287.5,-431 159.5,-431"/>
<text text-anchor="start" x="167.5" y="-460" font-family="Helvetica,sans-Serif" font-size="10.00">px4::Mavlink::handle</text>
<text text-anchor="start" x="167.5" y="-449" font-family="Helvetica,sans-Serif" font-size="10.00">_msg_set_position_target</text>
<text text-anchor="middle" x="223.5" y="-438" font-family="Helvetica,sans-Serif" font-size="10.00">_local_ned</text>
</a>
</g>
</g>
<!-- Node1&#45;&gt;Node5 -->
<g id="edge4" class="edge"><title>Node1&#45;&gt;Node5</title>
<path fill="none" stroke="midnightblue" d="M61.8735,-279.983C72.9635,-313.621 100.085,-382.793 146,-422.5 150.082,-426.031 154.639,-429.152 159.438,-431.908"/>
<polygon fill="midnightblue" stroke="midnightblue" points="65.0781,-278.508 58.7231,-270.031 58.4045,-280.621 65.0781,-278.508"/>
</g>
<!-- Node6 -->
<g id="node6" class="node"><title>Node6</title>
<g id="a_node6"><a xlink:href="../../d8/da2/class_attitude_estimator.html#a17ebfeb59b65da6e78476cbdd063413b" target="_top" xlink:title="AttitudeEstimator::\lImuCallback">
<polygon fill="white" stroke="black" points="174.5,-382.5 174.5,-412.5 272.5,-412.5 272.5,-382.5 174.5,-382.5"/>
<text text-anchor="start" x="182.5" y="-400.5" font-family="Helvetica,sans-Serif" font-size="10.00">AttitudeEstimator::</text>
<text text-anchor="middle" x="223.5" y="-389.5" font-family="Helvetica,sans-Serif" font-size="10.00">ImuCallback</text>
</a>
</g>
</g>
<!-- Node1&#45;&gt;Node6 -->
<g id="edge6" class="edge"><title>Node1&#45;&gt;Node6</title>
<path fill="none" stroke="midnightblue" d="M66.0704,-279.155C80.5243,-304.205 109.48,-348.456 146,-373.5 154.495,-379.325 164.471,-383.788 174.362,-387.19"/>
<polygon fill="midnightblue" stroke="midnightblue" points="69.0403,-277.295 61.0973,-270.284 62.9343,-280.718 69.0403,-277.295"/>
</g>
<!-- Node9 -->
<g id="node9" class="node"><title>Node9</title>
<g id="a_node9"><a xlink:href="../../de/d5d/class_manual_input.html#a509e0afcc60546dfba83121483ac202e" target="_top" xlink:title="Takes ROS joystick message and converts/publishes to px4 manual control setpoint topic. ">
<polygon fill="white" stroke="black" points="158.5,-295 158.5,-314 288.5,-314 288.5,-295 158.5,-295"/>
<text text-anchor="middle" x="223.5" y="-302" font-family="Helvetica,sans-Serif" font-size="10.00">ManualInput::JoyCallback</text>
</a>
</g>
</g>
<!-- Node1&#45;&gt;Node9 -->
<g id="edge9" class="edge"><title>Node1&#45;&gt;Node9</title>
<path fill="none" stroke="midnightblue" d="M99.5655,-272.862C114.289,-276.97 130.836,-281.512 146,-285.5 158.044,-288.668 171.191,-291.984 183.136,-294.943"/>
<polygon fill="midnightblue" stroke="midnightblue" points="100.277,-269.426 89.7034,-270.099 98.3885,-276.167 100.277,-269.426"/>
</g>
<!-- Node11 -->
<g id="node11" class="node"><title>Node11</title>
<g id="a_node11"><a xlink:href="../../da/df6/class_demo_offboard_attitude_setpoints.html#ad020031757083ea3b22fc4dc3db52e33" target="_top" xlink:title="DemoOffboardAttitudeSetpoints\l::main">
<polygon fill="white" stroke="black" points="146,-245.5 146,-275.5 301,-275.5 301,-245.5 146,-245.5"/>
<text text-anchor="start" x="154" y="-263.5" font-family="Helvetica,sans-Serif" font-size="10.00">DemoOffboardAttitudeSetpoints</text>
<text text-anchor="middle" x="223.5" y="-252.5" font-family="Helvetica,sans-Serif" font-size="10.00">::main</text>
</a>
</g>
</g>
<!-- Node1&#45;&gt;Node11 -->
<g id="edge11" class="edge"><title>Node1&#45;&gt;Node11</title>
<path fill="none" stroke="midnightblue" d="M120.124,-260.5C128.508,-260.5 137.165,-260.5 145.73,-260.5"/>
<polygon fill="midnightblue" stroke="midnightblue" points="120.058,-257 110.058,-260.5 120.058,-264 120.058,-257"/>
</g>
<!-- Node14 -->
<g id="node14" class="node"><title>Node14</title>
<g id="a_node14"><a xlink:href="../../d3/dc6/class_commander.html#a770391f0c7e237475a8e1027389f5d0c" target="_top" xlink:title="Based on manual control input the status will be set. ">
<polygon fill="white" stroke="black" points="154,-196.5 154,-226.5 293,-226.5 293,-196.5 154,-196.5"/>
<text text-anchor="start" x="162" y="-214.5" font-family="Helvetica,sans-Serif" font-size="10.00">Commander::ManualControl</text>
<text text-anchor="middle" x="223.5" y="-203.5" font-family="Helvetica,sans-Serif" font-size="10.00">InputCallback</text>
</a>
</g>
</g>
<!-- Node1&#45;&gt;Node14 -->
<g id="edge14" class="edge"><title>Node1&#45;&gt;Node14</title>
<path fill="none" stroke="midnightblue" d="M98.3184,-248.046C120.559,-241.501 147.987,-233.429 171.405,-226.537"/>
<polygon fill="midnightblue" stroke="midnightblue" points="97.1032,-244.755 88.4981,-250.936 99.0795,-251.47 97.1032,-244.755"/>
</g>
<!-- Node16 -->
<g id="node16" class="node"><title>Node16</title>
<g id="a_node16"><a xlink:href="../../d8/da2/class_attitude_estimator.html#ae4c3c0f0bf2e8694cbfde1c99fa36d11" target="_top" xlink:title="AttitudeEstimator::\lModelStatesCallback">
<polygon fill="white" stroke="black" points="168.5,-333.5 168.5,-363.5 278.5,-363.5 278.5,-333.5 168.5,-333.5"/>
<text text-anchor="start" x="176.5" y="-351.5" font-family="Helvetica,sans-Serif" font-size="10.00">AttitudeEstimator::</text>
<text text-anchor="middle" x="223.5" y="-340.5" font-family="Helvetica,sans-Serif" font-size="10.00">ModelStatesCallback</text>
</a>
</g>
</g>
<!-- Node1&#45;&gt;Node16 -->
<g id="edge16" class="edge"><title>Node1&#45;&gt;Node16</title>
<path fill="none" stroke="midnightblue" d="M75.0223,-276.33C92.5533,-290.287 119.754,-310.388 146,-323.5 153.375,-327.184 161.414,-330.498 169.419,-333.417"/>
<polygon fill="midnightblue" stroke="midnightblue" points="77.2141,-273.601 67.2395,-270.029 72.8097,-279.042 77.2141,-273.601"/>
</g>
<!-- Node17 -->
<g id="node17" class="node"><title>Node17</title>
<g id="a_node17"><a xlink:href="../../df/d3d/class_position_estimator.html#aeec86f7aaa2e3091ec29f5a2f3d451a7" target="_top" xlink:title="PositionEstimator::\lModelStatesCallback">
<polygon fill="white" stroke="black" points="168.5,-98.5 168.5,-128.5 278.5,-128.5 278.5,-98.5 168.5,-98.5"/>
<text text-anchor="start" x="176.5" y="-116.5" font-family="Helvetica,sans-Serif" font-size="10.00">PositionEstimator::</text>
<text text-anchor="middle" x="223.5" y="-105.5" font-family="Helvetica,sans-Serif" font-size="10.00">ModelStatesCallback</text>
</a>
</g>
</g>
<!-- Node1&#45;&gt;Node17 -->
<g id="edge18" class="edge"><title>Node1&#45;&gt;Node17</title>
<path fill="none" stroke="midnightblue" d="M65.1357,-241.568C78.9856,-214.805 107.783,-166.104 146,-138.5 152.683,-133.673 160.349,-129.743 168.189,-126.553"/>
<polygon fill="midnightblue" stroke="midnightblue" points="61.9295,-240.153 60.571,-250.661 68.1855,-243.294 61.9295,-240.153"/>
</g>
<!-- Node19 -->
<g id="node19" class="node"><title>Node19</title>
<g id="a_node19"><a xlink:href="../../d3/dc6/class_commander.html#ac5ac7721a00f0fb0fdf85a13e55919e7" target="_top" xlink:title="Stores the offboard control mode. ">
<polygon fill="white" stroke="black" points="151,-147.5 151,-177.5 296,-177.5 296,-147.5 151,-147.5"/>
<text text-anchor="start" x="159" y="-165.5" font-family="Helvetica,sans-Serif" font-size="10.00">Commander::OffboardControl</text>
<text text-anchor="middle" x="223.5" y="-154.5" font-family="Helvetica,sans-Serif" font-size="10.00">ModeCallback</text>
</a>
</g>
</g>
<!-- Node1&#45;&gt;Node19 -->
<g id="edge20" class="edge"><title>Node1&#45;&gt;Node19</title>
<path fill="none" stroke="midnightblue" d="M73.1556,-243.319C90.2998,-226.985 118.061,-202.715 146,-187.5 152.872,-183.758 160.398,-180.457 167.963,-177.582"/>
<polygon fill="midnightblue" stroke="midnightblue" points="70.3695,-241.147 65.6381,-250.626 75.2484,-246.166 70.3695,-241.147"/>
</g>
<!-- Node20 -->
<g id="node20" class="node"><title>Node20</title>
<g id="a_node20"><a xlink:href="../../d3/d7e/classpx4_1_1_mavlink.html#aad77dddc6bf5ec5f1b5f6abd2f4180f2" target="_top" xlink:title="Simulates output of attitude data from the FCU Equivalent to the mavlink stream ATTITUDE_QUATERNION. ">
<polygon fill="white" stroke="black" points="151.5,-49.5 151.5,-79.5 295.5,-79.5 295.5,-49.5 151.5,-49.5"/>
<text text-anchor="start" x="159.5" y="-67.5" font-family="Helvetica,sans-Serif" font-size="10.00">px4::Mavlink::VehicleAttitude</text>
<text text-anchor="middle" x="223.5" y="-56.5" font-family="Helvetica,sans-Serif" font-size="10.00">Callback</text>
</a>
</g>
</g>
<!-- Node1&#45;&gt;Node20 -->
<g id="edge22" class="edge"><title>Node1&#45;&gt;Node20</title>
<path fill="none" stroke="midnightblue" d="M61.0862,-240.683C71.2015,-205.203 97.1912,-130.702 146,-89.5 150.591,-85.6244 155.798,-82.3455 161.285,-79.5721"/>
<polygon fill="midnightblue" stroke="midnightblue" points="57.5983,-240.171 58.351,-250.739 64.3529,-242.008 57.5983,-240.171"/>
</g>
<!-- Node21 -->
<g id="node21" class="node"><title>Node21</title>
<g id="a_node21"><a xlink:href="../../d3/d7e/classpx4_1_1_mavlink.html#ad905f661abffc241a5e270f8fe719298" target="_top" xlink:title="Simulates output of local position data from the FCU Equivalent to the mavlink stream LOCAL_POSITION_...">
<polygon fill="white" stroke="black" points="156.5,-0.5 156.5,-30.5 290.5,-30.5 290.5,-0.5 156.5,-0.5"/>
<text text-anchor="start" x="164.5" y="-18.5" font-family="Helvetica,sans-Serif" font-size="10.00">px4::Mavlink::VehicleLocal</text>
<text text-anchor="middle" x="223.5" y="-7.5" font-family="Helvetica,sans-Serif" font-size="10.00">PositionCallback</text>
</a>
</g>
</g>
<!-- Node1&#45;&gt;Node21 -->
<g id="edge23" class="edge"><title>Node1&#45;&gt;Node21</title>
<path fill="none" stroke="midnightblue" d="M58.4767,-240.81C64.8855,-198.113 85.9342,-96.3637 146,-40.5 150.195,-36.5986 155.008,-33.3056 160.135,-30.5262"/>
<polygon fill="midnightblue" stroke="midnightblue" points="54.9727,-240.598 57.0643,-250.984 61.9062,-241.56 54.9727,-240.598"/>
</g>
<!-- Node3 -->
<g id="node3" class="node"><title>Node3</title>
<g id="a_node3"><a xlink:href="../../d3/d7e/classpx4_1_1_mavlink.html#a222047a400203b7b74ecf829181f754b" target="_top" xlink:title="Handle incoming mavlink messages ant publish them to ROS (&quot;Mavlink Receiver&quot;) ">
<polygon fill="white" stroke="black" points="355,-469 355,-488 486,-488 486,-469 355,-469"/>
<text text-anchor="middle" x="420.5" y="-476" font-family="Helvetica,sans-Serif" font-size="10.00">px4::Mavlink::handle_msg</text>
</a>
</g>
</g>
<!-- Node2&#45;&gt;Node3 -->
<g id="edge2" class="edge"><title>Node2&#45;&gt;Node3</title>
<path fill="none" stroke="midnightblue" d="M297.047,-495.455C315.949,-492.838 336.192,-490.035 354.666,-487.477"/>
<polygon fill="midnightblue" stroke="midnightblue" points="296.429,-492.007 287.004,-496.846 297.389,-498.941 296.429,-492.007"/>
</g>
<!-- Node4 -->
<g id="node4" class="node"><title>Node4</title>
<g id="a_node4"><a xlink:href="../../d3/d7e/classpx4_1_1_mavlink.html#ab807497a09c90419f684a657c91c4dec" target="_top" xlink:title="px4::Mavlink::Mavlink">
<polygon fill="white" stroke="black" points="540,-469 540,-488 652,-488 652,-469 540,-469"/>
<text text-anchor="middle" x="596" y="-476" font-family="Helvetica,sans-Serif" font-size="10.00">px4::Mavlink::Mavlink</text>
</a>
</g>
</g>
<!-- Node3&#45;&gt;Node4 -->
<g id="edge3" class="edge"><title>Node3&#45;&gt;Node4</title>
<path fill="none" stroke="midnightblue" d="M496.139,-478.5C510.772,-478.5 525.874,-478.5 539.735,-478.5"/>
<polygon fill="midnightblue" stroke="midnightblue" points="496.105,-475 486.105,-478.5 496.105,-482 496.105,-475"/>
</g>
<!-- Node5&#45;&gt;Node3 -->
<g id="edge5" class="edge"><title>Node5&#45;&gt;Node3</title>
<path fill="none" stroke="midnightblue" d="M297.517,-461.61C316.285,-464.209 336.346,-466.986 354.667,-469.523"/>
<polygon fill="midnightblue" stroke="midnightblue" points="297.927,-458.134 287.542,-460.229 296.967,-465.067 297.927,-458.134"/>
</g>
<!-- Node7 -->
<g id="node7" class="node"><title>Node7</title>
<g id="a_node7"><a xlink:href="../../d8/da2/class_attitude_estimator.html#adfc41d87201fa67627f74f844b7a4611" target="_top" xlink:title="AttitudeEstimator::\lAttitudeEstimator">
<polygon fill="white" stroke="black" points="371.5,-382.5 371.5,-412.5 469.5,-412.5 469.5,-382.5 371.5,-382.5"/>
<text text-anchor="start" x="379.5" y="-400.5" font-family="Helvetica,sans-Serif" font-size="10.00">AttitudeEstimator::</text>
<text text-anchor="middle" x="420.5" y="-389.5" font-family="Helvetica,sans-Serif" font-size="10.00">AttitudeEstimator</text>
</a>
</g>
</g>
<!-- Node6&#45;&gt;Node7 -->
<g id="edge7" class="edge"><title>Node6&#45;&gt;Node7</title>
<path fill="none" stroke="midnightblue" d="M282.827,-397.5C311.013,-397.5 344.437,-397.5 371.176,-397.5"/>
<polygon fill="midnightblue" stroke="midnightblue" points="282.702,-394 272.702,-397.5 282.702,-401 282.702,-394"/>
</g>
<!-- Node8 -->
<g id="node8" class="node"><title>Node8</title>
<g id="a_node8"><a xlink:href="../../d8/da2/class_attitude_estimator.html#aa3ae4ffbbb232e4f2bab98654b24c7cd" target="_top" xlink:title="AttitudeEstimator::\l~AttitudeEstimator">
<polygon fill="white" stroke="black" points="371.5,-333.5 371.5,-363.5 469.5,-363.5 469.5,-333.5 371.5,-333.5"/>
<text text-anchor="start" x="379.5" y="-351.5" font-family="Helvetica,sans-Serif" font-size="10.00">AttitudeEstimator::</text>
<text text-anchor="middle" x="420.5" y="-340.5" font-family="Helvetica,sans-Serif" font-size="10.00">~AttitudeEstimator</text>
</a>
</g>
</g>
<!-- Node6&#45;&gt;Node8 -->
<g id="edge8" class="edge"><title>Node6&#45;&gt;Node8</title>
<path fill="none" stroke="midnightblue" d="M282.457,-382.937C310.72,-375.835 344.32,-367.391 371.176,-360.643"/>
<polygon fill="midnightblue" stroke="midnightblue" points="281.548,-379.556 272.702,-385.388 283.254,-386.345 281.548,-379.556"/>
</g>
<!-- Node10 -->
<g id="node10" class="node"><title>Node10</title>
<g id="a_node10"><a xlink:href="../../de/d5d/class_manual_input.html#ad3651fb300a45e3ad1deb46baecd8ad1" target="_top" xlink:title="ManualInput::~ManualInput">
<polygon fill="white" stroke="black" points="353,-295 353,-314 488,-314 488,-295 353,-295"/>
<text text-anchor="middle" x="420.5" y="-302" font-family="Helvetica,sans-Serif" font-size="10.00">ManualInput::~ManualInput</text>
</a>
</g>
</g>
<!-- Node9&#45;&gt;Node10 -->
<g id="edge10" class="edge"><title>Node9&#45;&gt;Node10</title>
<path fill="none" stroke="midnightblue" d="M298.89,-304.5C316.577,-304.5 335.34,-304.5 352.664,-304.5"/>
<polygon fill="midnightblue" stroke="midnightblue" points="298.62,-301 288.62,-304.5 298.62,-308 298.62,-301"/>
</g>
<!-- Node12 -->
<g id="node12" class="node"><title>Node12</title>
<g id="a_node12"><a xlink:href="../../d5/d33/demo__offboard__attitude__setpoints_8cpp.html#a3c04138a5bfe5d72780bb7e82a18e627" target="_top" xlink:title="main">
<polygon fill="white" stroke="black" points="401.5,-254 401.5,-273 439.5,-273 439.5,-254 401.5,-254"/>
<text text-anchor="middle" x="420.5" y="-261" font-family="Helvetica,sans-Serif" font-size="10.00">main</text>
</a>
</g>
</g>
<!-- Node11&#45;&gt;Node12 -->
<g id="edge12" class="edge"><title>Node11&#45;&gt;Node12</title>
<path fill="none" stroke="midnightblue" d="M311.424,-261.837C345.219,-262.357 380.73,-262.904 401.455,-263.222"/>
<polygon fill="midnightblue" stroke="midnightblue" points="311.062,-258.331 301.009,-261.677 310.954,-265.331 311.062,-258.331"/>
</g>
<!-- Node13 -->
<g id="node13" class="node"><title>Node13</title>
<g id="a_node13"><a xlink:href="../../da/df6/class_demo_offboard_attitude_setpoints.html#afbb024f6a9641f697ec499a16ed77802" target="_top" xlink:title="DemoOffboardAttitudeSetpoints\l::~DemoOffboardAttitudeSetpoints">
<polygon fill="white" stroke="black" points="337,-204.5 337,-234.5 504,-234.5 504,-204.5 337,-204.5"/>
<text text-anchor="start" x="345" y="-222.5" font-family="Helvetica,sans-Serif" font-size="10.00">DemoOffboardAttitudeSetpoints</text>
<text text-anchor="middle" x="420.5" y="-211.5" font-family="Helvetica,sans-Serif" font-size="10.00">::~DemoOffboardAttitudeSetpoints</text>
</a>
</g>
</g>
<!-- Node11&#45;&gt;Node13 -->
<g id="edge13" class="edge"><title>Node11&#45;&gt;Node13</title>
<path fill="none" stroke="midnightblue" d="M306.052,-243.353C319.983,-240.424 334.361,-237.401 348.005,-234.532"/>
<polygon fill="midnightblue" stroke="midnightblue" points="305.069,-239.983 296.004,-245.466 306.51,-246.833 305.069,-239.983"/>
</g>
<!-- Node15 -->
<g id="node15" class="node"><title>Node15</title>
<g id="a_node15"><a xlink:href="../../d3/dc6/class_commander.html#af16b5b1c2b22e5158ce822d1b9180b10" target="_top" xlink:title="Commander::~Commander">
<polygon fill="white" stroke="black" points="353,-159 353,-178 488,-178 488,-159 353,-159"/>
<text text-anchor="middle" x="420.5" y="-166" font-family="Helvetica,sans-Serif" font-size="10.00">Commander::~Commander</text>
</a>
</g>
</g>
<!-- Node14&#45;&gt;Node15 -->
<g id="edge15" class="edge"><title>Node14&#45;&gt;Node15</title>
<path fill="none" stroke="midnightblue" d="M302.598,-194.278C327.728,-188.737 354.651,-182.8 376.318,-178.022"/>
<polygon fill="midnightblue" stroke="midnightblue" points="301.713,-190.889 292.702,-196.461 303.221,-197.725 301.713,-190.889"/>
</g>
<!-- Node16&#45;&gt;Node8 -->
<g id="edge17" class="edge"><title>Node16&#45;&gt;Node8</title>
<path fill="none" stroke="midnightblue" d="M288.671,-348.5C315.601,-348.5 346.386,-348.5 371.326,-348.5"/>
<polygon fill="midnightblue" stroke="midnightblue" points="288.559,-345 278.559,-348.5 288.559,-352 288.559,-345"/>
</g>
<!-- Node18 -->
<g id="node18" class="node"><title>Node18</title>
<g id="a_node18"><a xlink:href="../../df/d3d/class_position_estimator.html#ae7f10c229d55e7d78178c60252971ce9" target="_top" xlink:title="PositionEstimator::\l~PositionEstimator">
<polygon fill="white" stroke="black" points="370.5,-98.5 370.5,-128.5 470.5,-128.5 470.5,-98.5 370.5,-98.5"/>
<text text-anchor="start" x="378.5" y="-116.5" font-family="Helvetica,sans-Serif" font-size="10.00">PositionEstimator::</text>
<text text-anchor="middle" x="420.5" y="-105.5" font-family="Helvetica,sans-Serif" font-size="10.00">~PositionEstimator</text>
</a>
</g>
</g>
<!-- Node17&#45;&gt;Node18 -->
<g id="edge19" class="edge"><title>Node17&#45;&gt;Node18</title>
<path fill="none" stroke="midnightblue" d="M288.903,-113.5C315.424,-113.5 345.651,-113.5 370.342,-113.5"/>
<polygon fill="midnightblue" stroke="midnightblue" points="288.559,-110 278.559,-113.5 288.559,-117 288.559,-110"/>
</g>
<!-- Node19&#45;&gt;Node15 -->
<g id="edge21" class="edge"><title>Node19&#45;&gt;Node15</title>
<path fill="none" stroke="midnightblue" d="M306.138,-165.012C321.707,-165.491 337.831,-165.987 352.863,-166.45"/>
<polygon fill="midnightblue" stroke="midnightblue" points="306.106,-161.509 296.004,-164.7 305.891,-168.506 306.106,-161.509"/>
</g>
</g>
</svg>
