<?xml version="1.0" encoding="UTF-8" standalone="no"?>
<!DOCTYPE svg PUBLIC "-//W3C//DTD SVG 1.1//EN"
 "http://www.w3.org/Graphics/SVG/1.1/DTD/svg11.dtd">
<!-- Generated by graphviz version 2.38.0 (20140413.2041)
 -->
<!-- Title: SRF02::cycle Pages: 1 -->
<!--zoomable 429 -->
<svg id="main" version="1.1" xmlns="http://www.w3.org/2000/svg" xmlns:xlink="http://www.w3.org/1999/xlink" xml:space="preserve" onload="init(evt)">
<style type="text/css"><![CDATA[
.edge:hover path { stroke: red; }
.edge:hover polygon { stroke: red; fill: red; }
]]></style>
<script type="text/javascript"><![CDATA[
var edges = document.getElementsByTagName('g');
if (edges && edges.length) {
  for (var i=0;i<edges.length;i++) {
    if (edges[i].id.substr(0,4)=='edge') {
      edges[i].setAttribute('class','edge');
    }
  }
}
]]></script>
        <defs>
                <circle id="rim" cx="0" cy="0" r="7"/>
                <circle id="rim2" cx="0" cy="0" r="3.5"/>
                <g id="zoomPlus">
                        <use xlink:href="#rim" fill="#404040">
                                <set attributeName="fill" to="#808080" begin="zoomplus.mouseover" end="zoomplus.mouseout"/>
                        </use>
                        <path d="M-4,0h8M0,-4v8" fill="none" stroke="white" stroke-width="1.5" pointer-events="none"/>
                </g>
                <g id="zoomMin">
                        <use xlink:href="#rim" fill="#404040">
                                <set attributeName="fill" to="#808080" begin="zoomminus.mouseover" end="zoomminus.mouseout"/>
                        </use>
                        <path d="M-4,0h8" fill="none" stroke="white" stroke-width="1.5" pointer-events="none"/>
                </g>
                <g id="dirArrow">
                        <path fill="none" stroke="white" stroke-width="1.5" d="M0,-3.0v7 M-2.5,-0.5L0,-3.0L2.5,-0.5"/>
                </g>
               <g id="resetDef">
                       <use xlink:href="#rim2" fill="#404040">
                               <set attributeName="fill" to="#808080" begin="reset.mouseover" end="reset.mouseout"/>
                       </use>
               </g>
        </defs>

<script type="text/javascript">
var viewWidth = 1451;
var viewHeight = 429;
var sectionId = 'dynsection-6';
</script>
<script xlink:href="../../svgpan.js"/>
<svg id="graph" class="graph">
<g id="viewport">
<title>SRF02::cycle</title>
<polygon fill="white" stroke="none" points="-4,4 -4,-425 1447,-425 1447,4 -4,4"/>
<!-- Node1 -->
<g id="node1" class="node"><title>Node1</title>
<polygon fill="#bfbfbf" stroke="black" points="0,-70.5 0,-89.5 77,-89.5 77,-70.5 0,-70.5"/>
<text text-anchor="middle" x="38.5" y="-77.5" font-family="Helvetica,sans-Serif" font-size="10.00">SRF02::cycle</text>
</g>
<!-- Node2 -->
<g id="node2" class="node"><title>Node2</title>
<g id="a_node2"><a xlink:href="../../d8/dad/class_s_r_f02.html#af95770566f4d00d7681d2c6d06be42fa" target="_top" xlink:title="SRF02::collect">
<polygon fill="white" stroke="black" points="117.5,-232.5 117.5,-251.5 199.5,-251.5 199.5,-232.5 117.5,-232.5"/>
<text text-anchor="middle" x="158.5" y="-239.5" font-family="Helvetica,sans-Serif" font-size="10.00">SRF02::collect</text>
</a>
</g>
</g>
<!-- Node1&#45;&gt;Node2 -->
<g id="edge1" class="edge"><title>Node1&#45;&gt;Node2</title>
<path fill="none" stroke="midnightblue" d="M46.5281,-89.6487C65.7483,-116.036 119.411,-189.708 144.394,-224.007"/>
<polygon fill="midnightblue" stroke="midnightblue" points="141.643,-226.175 150.36,-232.197 147.301,-222.053 141.643,-226.175"/>
</g>
<!-- Node26 -->
<g id="node26" class="node"><title>Node26</title>
<g id="a_node26"><a xlink:href="../../d8/dad/class_s_r_f02.html#a68ff86a8591c98b7787cae36a7252d5d" target="_top" xlink:title="Static trampoline from the workq context; because we don&#39;t have a generic workq wrapper yet...">
<polygon fill="white" stroke="black" points="240,-70.5 240,-89.5 367,-89.5 367,-70.5 240,-70.5"/>
<text text-anchor="middle" x="303.5" y="-77.5" font-family="Helvetica,sans-Serif" font-size="10.00">SRF02::cycle_trampoline</text>
</a>
</g>
</g>
<!-- Node1&#45;&gt;Node26 -->
<g id="edge27" class="edge"><title>Node1&#45;&gt;Node26</title>
<path fill="none" stroke="midnightblue" d="M77.1815,-75.0994C116.846,-73.1422 180.273,-72.7385 229.741,-73.8882"/>
<polygon fill="midnightblue" stroke="midnightblue" points="229.667,-77.3874 239.754,-74.148 229.848,-70.3897 229.667,-77.3874"/>
</g>
<!-- Node27 -->
<g id="node27" class="node"><title>Node27</title>
<g id="a_node27"><a xlink:href="../../d8/dad/class_s_r_f02.html#a9749ba292e582162ccc9845469c96b9a" target="_top" xlink:title="SRF02::measure">
<polygon fill="white" stroke="black" points="113,-117.5 113,-136.5 204,-136.5 204,-117.5 113,-117.5"/>
<text text-anchor="middle" x="158.5" y="-124.5" font-family="Helvetica,sans-Serif" font-size="10.00">SRF02::measure</text>
</a>
</g>
</g>
<!-- Node1&#45;&gt;Node27 -->
<g id="edge29" class="edge"><title>Node1&#45;&gt;Node27</title>
<path fill="none" stroke="midnightblue" d="M63.3791,-89.5112C80.7774,-96.441 104.582,-105.923 123.898,-113.616"/>
<polygon fill="midnightblue" stroke="midnightblue" points="122.666,-116.893 133.251,-117.342 125.256,-110.39 122.666,-116.893"/>
</g>
<!-- Node28 -->
<g id="node28" class="node"><title>Node28</title>
<g id="a_node28"><a xlink:href="../../d8/dad/class_s_r_f02.html#ae8f959d9700ca0bb08736a2e2f2d37bd" target="_top" xlink:title="Initialise the automatic measurement state machine and start it. ">
<polygon fill="white" stroke="black" points="122,-23.5 122,-42.5 195,-42.5 195,-23.5 122,-23.5"/>
<text text-anchor="middle" x="158.5" y="-30.5" font-family="Helvetica,sans-Serif" font-size="10.00">SRF02::start</text>
</a>
</g>
</g>
<!-- Node1&#45;&gt;Node28 -->
<g id="edge31" class="edge"><title>Node1&#45;&gt;Node28</title>
<path fill="none" stroke="midnightblue" d="M63.3791,-70.4888C80.7774,-63.559 104.582,-54.0775 123.898,-46.3838"/>
<polygon fill="midnightblue" stroke="midnightblue" points="125.256,-49.6103 133.251,-42.6583 122.666,-43.1071 125.256,-49.6103"/>
</g>
<!-- Node3 -->
<g id="node3" class="node"><title>Node3</title>
<g id="a_node3"><a xlink:href="../../d8/da1/integration_8cpp.html#af5ba872dd09316732300733cc164ac1a" target="_top" xlink:title="f">
<polygon fill="white" stroke="black" points="289,-325.5 289,-344.5 318,-344.5 318,-325.5 289,-325.5"/>
<text text-anchor="middle" x="303.5" y="-332.5" font-family="Helvetica,sans-Serif" font-size="10.00">f</text>
</a>
</g>
</g>
<!-- Node2&#45;&gt;Node3 -->
<g id="edge2" class="edge"><title>Node2&#45;&gt;Node3</title>
<path fill="none" stroke="midnightblue" d="M167.389,-251.643C180.74,-267.354 209.345,-298.479 240,-316 252.032,-322.877 266.819,-327.518 278.989,-330.491"/>
<polygon fill="midnightblue" stroke="midnightblue" points="278.353,-333.935 288.875,-332.688 279.872,-327.102 278.353,-333.935"/>
</g>
<!-- Node4 -->
<g id="node4" class="node"><title>Node4</title>
<g id="a_node4"><a xlink:href="../../d8/dad/class_s_r_f02.html#a9bd50406a2edcfbb894619eac0a9d2f5" target="_top" xlink:title="SRF02::get_maximum\l_distance">
<polygon fill="white" stroke="black" points="246,-276 246,-306 361,-306 361,-276 246,-276"/>
<text text-anchor="start" x="254" y="-294" font-family="Helvetica,sans-Serif" font-size="10.00">SRF02::get_maximum</text>
<text text-anchor="middle" x="303.5" y="-283" font-family="Helvetica,sans-Serif" font-size="10.00">_distance</text>
</a>
</g>
</g>
<!-- Node2&#45;&gt;Node4 -->
<g id="edge3" class="edge"><title>Node2&#45;&gt;Node4</title>
<path fill="none" stroke="midnightblue" d="M187.411,-251.564C204.883,-257.551 227.97,-265.462 248.878,-272.626"/>
<polygon fill="midnightblue" stroke="midnightblue" points="248.022,-276.032 258.617,-275.963 250.291,-269.41 248.022,-276.032"/>
</g>
<!-- Node5 -->
<g id="node5" class="node"><title>Node5</title>
<g id="a_node5"><a xlink:href="../../d8/dad/class_s_r_f02.html#a825b22f315ba7ff75d2974df7cfe246b" target="_top" xlink:title="SRF02::get_minimum\l_distance">
<polygon fill="white" stroke="black" points="247.5,-227 247.5,-257 359.5,-257 359.5,-227 247.5,-227"/>
<text text-anchor="start" x="255.5" y="-245" font-family="Helvetica,sans-Serif" font-size="10.00">SRF02::get_minimum</text>
<text text-anchor="middle" x="303.5" y="-234" font-family="Helvetica,sans-Serif" font-size="10.00">_distance</text>
</a>
</g>
</g>
<!-- Node2&#45;&gt;Node5 -->
<g id="edge4" class="edge"><title>Node2&#45;&gt;Node5</title>
<path fill="none" stroke="midnightblue" d="M199.714,-242C211.382,-242 224.434,-242 237.22,-242"/>
<polygon fill="midnightblue" stroke="midnightblue" points="237.384,-245.5 247.384,-242 237.384,-238.5 237.384,-245.5"/>
</g>
<!-- Node6 -->
<g id="node6" class="node"><title>Node6</title>
<g id="a_node6"><a xlink:href="../../d6/d10/drv__hrt_8h.html#a1450e339b7c5b8d47656500167a6676d" target="_top" xlink:title="Get absolute time in [us] (does not wrap). ">
<polygon fill="white" stroke="black" points="918.5,-208.5 918.5,-227.5 1012.5,-227.5 1012.5,-208.5 918.5,-208.5"/>
<text text-anchor="middle" x="965.5" y="-215.5" font-family="Helvetica,sans-Serif" font-size="10.00">hrt_absolute_time</text>
</a>
</g>
</g>
<!-- Node2&#45;&gt;Node6 -->
<g id="edge5" class="edge"><title>Node2&#45;&gt;Node6</title>
<path fill="none" stroke="midnightblue" d="M185.242,-232.466C200.867,-227.067 221.334,-220.677 240,-217 334.336,-198.414 359.351,-198 455.5,-198 455.5,-198 455.5,-198 617,-198 719.887,-198 839.628,-206.847 908.294,-212.772"/>
<polygon fill="midnightblue" stroke="midnightblue" points="908.189,-216.276 918.456,-213.66 908.798,-209.303 908.189,-216.276"/>
</g>
<!-- Node7 -->
<g id="node7" class="node"><title>Node7</title>
<g id="a_node7"><a xlink:href="../../d9/d97/u_o_r_b_8cpp.html#af7a143a80b6b04689a3a4890ce8df4ae" target="_top" xlink:title="orb_publish">
<polygon fill="white" stroke="black" points="270.5,-150.5 270.5,-169.5 336.5,-169.5 336.5,-150.5 270.5,-150.5"/>
<text text-anchor="middle" x="303.5" y="-157.5" font-family="Helvetica,sans-Serif" font-size="10.00">orb_publish</text>
</a>
</g>
</g>
<!-- Node2&#45;&gt;Node7 -->
<g id="edge6" class="edge"><title>Node2&#45;&gt;Node7</title>
<path fill="none" stroke="midnightblue" d="M170.871,-232.346C185.919,-219.924 213.632,-198.251 240,-184 247.342,-180.032 255.483,-176.401 263.396,-173.232"/>
<polygon fill="midnightblue" stroke="midnightblue" points="264.782,-176.449 272.867,-169.602 262.277,-169.913 264.782,-176.449"/>
</g>
<!-- Node23 -->
<g id="node23" class="node"><title>Node23</title>
<g id="a_node23"><a xlink:href="../../dd/d78/perf__counter_8c.html#a29199d9ba42a60894e4f593f677ff2d7" target="_top" xlink:title="Begin a performance event. ">
<polygon fill="white" stroke="black" points="272.5,-401.5 272.5,-420.5 334.5,-420.5 334.5,-401.5 272.5,-401.5"/>
<text text-anchor="middle" x="303.5" y="-408.5" font-family="Helvetica,sans-Serif" font-size="10.00">perf_begin</text>
</a>
</g>
</g>
<!-- Node2&#45;&gt;Node23 -->
<g id="edge24" class="edge"><title>Node2&#45;&gt;Node23</title>
<path fill="none" stroke="midnightblue" d="M161.915,-251.732C169.03,-278.362 192.459,-353.027 240,-392 246.485,-397.316 254.437,-401.146 262.469,-403.905"/>
<polygon fill="midnightblue" stroke="midnightblue" points="261.63,-407.307 272.211,-406.768 263.603,-400.591 261.63,-407.307"/>
</g>
<!-- Node24 -->
<g id="node24" class="node"><title>Node24</title>
<g id="a_node24"><a xlink:href="../../dd/d78/perf__counter_8c.html#a4a775bcac1518a89f1137003985d9e65" target="_top" xlink:title="Count a performance event. ">
<polygon fill="white" stroke="black" points="272.5,-112.5 272.5,-131.5 334.5,-131.5 334.5,-112.5 272.5,-112.5"/>
<text text-anchor="middle" x="303.5" y="-119.5" font-family="Helvetica,sans-Serif" font-size="10.00">perf_count</text>
</a>
</g>
</g>
<!-- Node2&#45;&gt;Node24 -->
<g id="edge25" class="edge"><title>Node2&#45;&gt;Node24</title>
<path fill="none" stroke="midnightblue" d="M164.533,-232.333C175.485,-212.248 203.455,-165.814 240,-141 246.729,-136.431 254.593,-132.931 262.428,-130.259"/>
<polygon fill="midnightblue" stroke="midnightblue" points="263.684,-133.536 272.249,-127.3 261.665,-126.834 263.684,-133.536"/>
</g>
<!-- Node25 -->
<g id="node25" class="node"><title>Node25</title>
<g id="a_node25"><a xlink:href="../../dd/d78/perf__counter_8c.html#a8a89ea6639744897e494e5d2139751aa" target="_top" xlink:title="End a performance event. ">
<polygon fill="white" stroke="black" points="276.5,-363.5 276.5,-382.5 330.5,-382.5 330.5,-363.5 276.5,-363.5"/>
<text text-anchor="middle" x="303.5" y="-370.5" font-family="Helvetica,sans-Serif" font-size="10.00">perf_end</text>
</a>
</g>
</g>
<!-- Node2&#45;&gt;Node25 -->
<g id="edge26" class="edge"><title>Node2&#45;&gt;Node25</title>
<path fill="none" stroke="midnightblue" d="M163.781,-251.731C173.83,-273.443 201.06,-326.12 240,-354 247.855,-359.624 257.403,-363.609 266.648,-366.423"/>
<polygon fill="midnightblue" stroke="midnightblue" points="265.901,-369.846 276.466,-369.039 267.704,-363.082 265.901,-369.846"/>
</g>
<!-- Node8 -->
<g id="node8" class="node"><title>Node8</title>
<g id="a_node8"><a xlink:href="../../d3/da9/classu_o_r_b_1_1_manager.html#a9d829b3ea49d16d03c2fa37ef2bb24a5" target="_top" xlink:title="Method to get the singleton instance for the uORB::Manager. ">
<polygon fill="white" stroke="black" points="744.5,-52 744.5,-82 851.5,-82 851.5,-52 744.5,-52"/>
<text text-anchor="start" x="752.5" y="-70" font-family="Helvetica,sans-Serif" font-size="10.00">uORB::Manager::get</text>
<text text-anchor="middle" x="798" y="-59" font-family="Helvetica,sans-Serif" font-size="10.00">_instance</text>
</a>
</g>
</g>
<!-- Node7&#45;&gt;Node8 -->
<g id="edge7" class="edge"><title>Node7&#45;&gt;Node8</title>
<path fill="none" stroke="midnightblue" d="M336.688,-152.978C346.752,-150.066 357.66,-146.139 367,-141 385.499,-130.821 383.634,-118.413 403,-110 512.172,-62.5753 653.703,-59.6084 734.015,-62.6713"/>
<polygon fill="midnightblue" stroke="midnightblue" points="734.313,-66.1872 744.454,-63.1169 734.612,-59.1936 734.313,-66.1872"/>
</g>
<!-- Node15 -->
<g id="node15" class="node"><title>Node15</title>
<g id="a_node15"><a xlink:href="../../d3/da9/classu_o_r_b_1_1_manager.html#abbe6966f841886ce3003ebc6d2198447" target="_top" xlink:title="Publish new data to a topic. ">
<polygon fill="white" stroke="black" points="403,-120 403,-150 510,-150 510,-120 403,-120"/>
<text text-anchor="start" x="411" y="-138" font-family="Helvetica,sans-Serif" font-size="10.00">uORB::Manager::orb</text>
<text text-anchor="middle" x="456.5" y="-127" font-family="Helvetica,sans-Serif" font-size="10.00">_publish</text>
</a>
</g>
</g>
<!-- Node7&#45;&gt;Node15 -->
<g id="edge14" class="edge"><title>Node7&#45;&gt;Node15</title>
<path fill="none" stroke="midnightblue" d="M336.523,-154.698C352.889,-151.989 373.39,-148.594 392.741,-145.391"/>
<polygon fill="midnightblue" stroke="midnightblue" points="393.433,-148.824 402.727,-143.737 392.29,-141.918 393.433,-148.824"/>
</g>
<!-- Node9 -->
<g id="node9" class="node"><title>Node9</title>
<g id="a_node9"><a xlink:href="../../d3/da9/classu_o_r_b_1_1_manager.html#a083331e24ac4f99ac11a0aab1b1681b4" target="_top" xlink:title="Get the DeviceMaster. ">
<polygon fill="white" stroke="black" points="912,-33 912,-63 1019,-63 1019,-33 912,-33"/>
<text text-anchor="start" x="920" y="-51" font-family="Helvetica,sans-Serif" font-size="10.00">uORB::Manager::get</text>
<text text-anchor="middle" x="965.5" y="-40" font-family="Helvetica,sans-Serif" font-size="10.00">_device_master</text>
</a>
</g>
</g>
<!-- Node8&#45;&gt;Node9 -->
<g id="edge8" class="edge"><title>Node8&#45;&gt;Node9</title>
<path fill="none" stroke="midnightblue" d="M851.82,-60.936C867.723,-59.1103 885.331,-57.0889 901.809,-55.1972"/>
<polygon fill="midnightblue" stroke="midnightblue" points="902.362,-58.6567 911.898,-54.0389 901.564,-51.7024 902.362,-58.6567"/>
</g>
<!-- Node10 -->
<g id="node10" class="node"><title>Node10</title>
<g id="a_node10"><a xlink:href="../../db/dcf/classdevice_1_1_c_dev.html#a04ad8e5b517724c106e06b45e86a2445" target="_top" xlink:title="Initialise the driver and make it ready for use. ">
<polygon fill="white" stroke="black" points="1058.5,-38.5 1058.5,-57.5 1153.5,-57.5 1153.5,-38.5 1058.5,-38.5"/>
<text text-anchor="middle" x="1106" y="-45.5" font-family="Helvetica,sans-Serif" font-size="10.00">device::CDev::init</text>
</a>
</g>
</g>
<!-- Node9&#45;&gt;Node10 -->
<g id="edge9" class="edge"><title>Node9&#45;&gt;Node10</title>
<path fill="none" stroke="midnightblue" d="M1019.26,-48C1028.69,-48 1038.55,-48 1048.09,-48"/>
<polygon fill="midnightblue" stroke="midnightblue" points="1048.29,-51.5001 1058.29,-48 1048.29,-44.5001 1048.29,-51.5001"/>
</g>
<!-- Node11 -->
<g id="node11" class="node"><title>Node11</title>
<g id="a_node11"><a xlink:href="../../dd/dd3/classdevice_1_1_device.html#a88428ba671d9c225504fc2f0aed2a72a" target="_top" xlink:title="Initialise the driver and make it ready for use. ">
<polygon fill="white" stroke="black" points="1191,-57.5 1191,-76.5 1292,-76.5 1292,-57.5 1191,-57.5"/>
<text text-anchor="middle" x="1241.5" y="-64.5" font-family="Helvetica,sans-Serif" font-size="10.00">device::Device::init</text>
</a>
</g>
</g>
<!-- Node10&#45;&gt;Node11 -->
<g id="edge10" class="edge"><title>Node10&#45;&gt;Node11</title>
<path fill="none" stroke="midnightblue" d="M1153.69,-54.6453C1162.43,-55.8893 1171.68,-57.2053 1180.75,-58.4965"/>
<polygon fill="midnightblue" stroke="midnightblue" points="1180.49,-61.9946 1190.88,-59.9386 1181.48,-55.0644 1180.49,-61.9946"/>
</g>
<!-- Node12 -->
<g id="node12" class="node"><title>Node12</title>
<g id="a_node12"><a xlink:href="../../da/dc9/posix_2cdev__platform_8cpp.html#a4c69ea88a27571245bd4dc9c06a3d18b" target="_top" xlink:title="register_driver">
<polygon fill="white" stroke="black" points="1202.5,-19.5 1202.5,-38.5 1280.5,-38.5 1280.5,-19.5 1202.5,-19.5"/>
<text text-anchor="middle" x="1241.5" y="-26.5" font-family="Helvetica,sans-Serif" font-size="10.00">register_driver</text>
</a>
</g>
</g>
<!-- Node10&#45;&gt;Node12 -->
<g id="edge11" class="edge"><title>Node10&#45;&gt;Node12</title>
<path fill="none" stroke="midnightblue" d="M1153.69,-41.3547C1166.15,-39.5823 1179.63,-37.6638 1192.17,-35.8791"/>
<polygon fill="midnightblue" stroke="midnightblue" points="1193.03,-39.2918 1202.43,-34.4176 1192.04,-32.3616 1193.03,-39.2918"/>
</g>
<!-- Node13 -->
<g id="node13" class="node"><title>Node13</title>
<g id="a_node13"><a xlink:href="../../d6/dfb/stubs__posix_8c.html#a12809c44718c21544ceb280dc1a53573" target="_top" xlink:title="pthread_mutex_lock">
<polygon fill="white" stroke="black" points="1333.5,-38.5 1333.5,-57.5 1437.5,-57.5 1437.5,-38.5 1333.5,-38.5"/>
<text text-anchor="middle" x="1385.5" y="-45.5" font-family="Helvetica,sans-Serif" font-size="10.00">pthread_mutex_lock</text>
</a>
</g>
</g>
<!-- Node12&#45;&gt;Node13 -->
<g id="edge12" class="edge"><title>Node12&#45;&gt;Node13</title>
<path fill="none" stroke="midnightblue" d="M1280.55,-34.0917C1293.7,-35.8511 1308.79,-37.8698 1323.32,-39.8136"/>
<polygon fill="midnightblue" stroke="midnightblue" points="1322.88,-43.2861 1333.26,-41.1433 1323.81,-36.3479 1322.88,-43.2861"/>
</g>
<!-- Node14 -->
<g id="node14" class="node"><title>Node14</title>
<g id="a_node14"><a xlink:href="../../d6/dfb/stubs__posix_8c.html#a96184290ffb60e04c53a52869cf960a2" target="_top" xlink:title="pthread_mutex_unlock">
<polygon fill="white" stroke="black" points="1328,-0.5 1328,-19.5 1443,-19.5 1443,-0.5 1328,-0.5"/>
<text text-anchor="middle" x="1385.5" y="-7.5" font-family="Helvetica,sans-Serif" font-size="10.00">pthread_mutex_unlock</text>
</a>
</g>
</g>
<!-- Node12&#45;&gt;Node14 -->
<g id="edge13" class="edge"><title>Node12&#45;&gt;Node14</title>
<path fill="none" stroke="midnightblue" d="M1280.55,-23.9083C1292.03,-22.3731 1304.98,-20.6405 1317.74,-18.9325"/>
<polygon fill="midnightblue" stroke="midnightblue" points="1318.46,-22.3676 1327.91,-17.5722 1317.53,-15.4294 1318.46,-22.3676"/>
</g>
<!-- Node16 -->
<g id="node16" class="node"><title>Node16</title>
<g id="a_node16"><a xlink:href="../../d0/d18/classu_o_r_b_1_1_device_node.html#ae715517a1f3a2f361e37d061b59a4560" target="_top" xlink:title="Method to publish a data to this node. ">
<polygon fill="white" stroke="black" points="546,-115.5 546,-134.5 686,-134.5 686,-115.5 546,-115.5"/>
<text text-anchor="middle" x="616" y="-122.5" font-family="Helvetica,sans-Serif" font-size="10.00">uORB::DeviceNode::publish</text>
</a>
</g>
</g>
<!-- Node15&#45;&gt;Node16 -->
<g id="edge15" class="edge"><title>Node15&#45;&gt;Node16</title>
<path fill="none" stroke="midnightblue" d="M510.383,-131.642C518.541,-131.124 527.115,-130.58 535.698,-130.035"/>
<polygon fill="midnightblue" stroke="midnightblue" points="535.994,-133.523 545.753,-129.397 535.551,-126.537 535.994,-133.523"/>
</g>
<!-- Node16&#45;&gt;Node8 -->
<g id="edge22" class="edge"><title>Node16&#45;&gt;Node8</title>
<path fill="none" stroke="midnightblue" d="M646.41,-115.447C667.456,-108.618 696.465,-99.2198 722,-91 727.893,-89.1031 734.047,-87.1264 740.187,-85.1574"/>
<polygon fill="midnightblue" stroke="midnightblue" points="741.328,-88.4673 749.782,-82.0823 739.191,-81.8012 741.328,-88.4673"/>
</g>
<!-- Node17 -->
<g id="node17" class="node"><title>Node17</title>
<g id="a_node17"><a xlink:href="../../d0/d18/classu_o_r_b_1_1_device_node.html#abdae2690994dd47cce2b579b3785864f" target="_top" xlink:title="writes the published data to the internal buffer to be read by subscribers later. ...">
<polygon fill="white" stroke="black" points="732.5,-150.5 732.5,-169.5 863.5,-169.5 863.5,-150.5 732.5,-150.5"/>
<text text-anchor="middle" x="798" y="-157.5" font-family="Helvetica,sans-Serif" font-size="10.00">uORB::DeviceNode::write</text>
</a>
</g>
</g>
<!-- Node16&#45;&gt;Node17 -->
<g id="edge16" class="edge"><title>Node16&#45;&gt;Node17</title>
<path fill="none" stroke="midnightblue" d="M666.186,-134.564C688.31,-138.866 714.609,-143.98 737.804,-148.49"/>
<polygon fill="midnightblue" stroke="midnightblue" points="737.389,-151.975 747.874,-150.448 738.726,-145.103 737.389,-151.975"/>
</g>
<!-- Node22 -->
<g id="node22" class="node"><title>Node22</title>
<g id="a_node22"><a xlink:href="../../d9/d8a/classu_o_r_b_communicator_1_1_i_channel.html#a3f4690d7b897f5f568cfed2c31d7b734" target="_top" xlink:title="Sends the data message over the communication link. ">
<polygon fill="white" stroke="black" points="722,-101 722,-131 874,-131 874,-101 722,-101"/>
<text text-anchor="start" x="730" y="-119" font-family="Helvetica,sans-Serif" font-size="10.00">uORBCommunicator::IChannel</text>
<text text-anchor="middle" x="798" y="-108" font-family="Helvetica,sans-Serif" font-size="10.00">::send_message</text>
</a>
</g>
</g>
<!-- Node16&#45;&gt;Node22 -->
<g id="edge23" class="edge"><title>Node16&#45;&gt;Node22</title>
<path fill="none" stroke="midnightblue" d="M686.078,-121.546C694.486,-121.126 703.153,-120.692 711.761,-120.262"/>
<polygon fill="midnightblue" stroke="midnightblue" points="712.008,-123.754 721.821,-119.759 711.658,-116.763 712.008,-123.754"/>
</g>
<!-- Node17&#45;&gt;Node6 -->
<g id="edge19" class="edge"><title>Node17&#45;&gt;Node6</title>
<path fill="none" stroke="midnightblue" d="M830.953,-169.567C844.34,-173.745 860.013,-178.859 874,-184 890.269,-189.98 893.809,-192.811 910,-199 915.265,-201.013 920.847,-203.058 926.354,-205.025"/>
<polygon fill="midnightblue" stroke="midnightblue" points="925.503,-208.436 936.098,-208.456 927.828,-201.833 925.503,-208.436"/>
</g>
<!-- Node18 -->
<g id="node18" class="node"><title>Node18</title>
<g id="a_node18"><a xlink:href="../../db/dcf/classdevice_1_1_c_dev.html#a532f13f26f056bd17931efe7db10260e" target="_top" xlink:title="Take the driver lock. ">
<polygon fill="white" stroke="black" points="915,-82.5 915,-101.5 1016,-101.5 1016,-82.5 915,-82.5"/>
<text text-anchor="middle" x="965.5" y="-89.5" font-family="Helvetica,sans-Serif" font-size="10.00">device::CDev::lock</text>
</a>
</g>
</g>
<!-- Node17&#45;&gt;Node18 -->
<g id="edge17" class="edge"><title>Node17&#45;&gt;Node18</title>
<path fill="none" stroke="midnightblue" d="M846.92,-150.425C856.167,-147.695 865.587,-144.267 874,-140 892.324,-130.707 892.037,-120.972 910,-111 913.696,-108.948 917.654,-107.057 921.687,-105.328"/>
<polygon fill="midnightblue" stroke="midnightblue" points="923.131,-108.521 931.146,-101.593 920.56,-102.01 923.131,-108.521"/>
</g>
<!-- Node19 -->
<g id="node19" class="node"><title>Node19</title>
<g id="a_node19"><a xlink:href="../../db/dcf/classdevice_1_1_c_dev.html#af34c341f89cc744e2f327ec01ed5e4dd" target="_top" xlink:title="Release the driver lock. ">
<polygon fill="white" stroke="black" points="910,-170.5 910,-189.5 1021,-189.5 1021,-170.5 910,-170.5"/>
<text text-anchor="middle" x="965.5" y="-177.5" font-family="Helvetica,sans-Serif" font-size="10.00">device::CDev::unlock</text>
</a>
</g>
</g>
<!-- Node17&#45;&gt;Node19 -->
<g id="edge18" class="edge"><title>Node17&#45;&gt;Node19</title>
<path fill="none" stroke="midnightblue" d="M863.935,-167.847C875.702,-169.269 887.973,-170.752 899.735,-172.173"/>
<polygon fill="midnightblue" stroke="midnightblue" points="899.567,-175.679 909.915,-173.404 900.407,-168.729 899.567,-175.679"/>
</g>
<!-- Node20 -->
<g id="node20" class="node"><title>Node20</title>
<g id="a_node20"><a xlink:href="../../db/dcf/classdevice_1_1_c_dev.html#ad40710ea69dbc93561f7b0e3ae3d8435" target="_top" xlink:title="Report new poll events. ">
<polygon fill="white" stroke="black" points="916.5,-121 916.5,-151 1014.5,-151 1014.5,-121 916.5,-121"/>
<text text-anchor="start" x="924.5" y="-139" font-family="Helvetica,sans-Serif" font-size="10.00">device::CDev::poll</text>
<text text-anchor="middle" x="965.5" y="-128" font-family="Helvetica,sans-Serif" font-size="10.00">_notify</text>
</a>
</g>
</g>
<!-- Node17&#45;&gt;Node20 -->
<g id="edge20" class="edge"><title>Node17&#45;&gt;Node20</title>
<path fill="none" stroke="midnightblue" d="M863.935,-150.583C877.863,-148.564 892.497,-146.442 906.157,-144.461"/>
<polygon fill="midnightblue" stroke="midnightblue" points="906.991,-147.876 916.385,-142.977 905.986,-140.949 906.991,-147.876"/>
</g>
<!-- Node21 -->
<g id="node21" class="node"><title>Node21</title>
<g id="a_node21"><a xlink:href="../../db/dcf/classdevice_1_1_c_dev.html#a152b2568dfbe9a096dcc38cca4a15106" target="_top" xlink:title="Internal implementation of poll_notify. ">
<polygon fill="white" stroke="black" points="1057,-121 1057,-151 1155,-151 1155,-121 1057,-121"/>
<text text-anchor="start" x="1065" y="-139" font-family="Helvetica,sans-Serif" font-size="10.00">device::CDev::poll</text>
<text text-anchor="middle" x="1106" y="-128" font-family="Helvetica,sans-Serif" font-size="10.00">_notify_one</text>
</a>
</g>
</g>
<!-- Node20&#45;&gt;Node21 -->
<g id="edge21" class="edge"><title>Node20&#45;&gt;Node21</title>
<path fill="none" stroke="midnightblue" d="M1014.55,-136C1024.85,-136 1035.85,-136 1046.5,-136"/>
<polygon fill="midnightblue" stroke="midnightblue" points="1046.56,-139.5 1056.56,-136 1046.56,-132.5 1046.56,-139.5"/>
</g>
<!-- Node26&#45;&gt;Node1 -->
<g id="edge28" class="edge"><title>Node26&#45;&gt;Node1</title>
<path fill="none" stroke="midnightblue" d="M239.754,-85.852C192.982,-87.1988 130.064,-87.0307 87.3222,-85.3478"/>
<polygon fill="midnightblue" stroke="midnightblue" points="87.326,-81.8446 77.1815,-84.9006 87.0176,-88.8378 87.326,-81.8446"/>
</g>
<!-- Node27&#45;&gt;Node24 -->
<g id="edge30" class="edge"><title>Node27&#45;&gt;Node24</title>
<path fill="none" stroke="midnightblue" d="M204.354,-125.432C222.841,-124.785 244.101,-124.042 262.097,-123.413"/>
<polygon fill="midnightblue" stroke="midnightblue" points="262.399,-126.904 272.27,-123.057 262.154,-119.909 262.399,-126.904"/>
</g>
<!-- Node28&#45;&gt;Node26 -->
<g id="edge32" class="edge"><title>Node28&#45;&gt;Node26</title>
<path fill="none" stroke="midnightblue" d="M188.438,-42.5112C210.004,-49.5992 239.692,-59.3568 263.374,-67.1403"/>
<polygon fill="midnightblue" stroke="midnightblue" points="262.521,-70.5442 273.114,-70.3417 264.707,-63.8942 262.521,-70.5442"/>
</g>
</g>
</svg>
        <g id="navigator" transform="translate(0 0)" fill="#404254">
                <rect fill="#f2f5e9" fill-opacity="0.5" stroke="#606060" stroke-width=".5" x="0" y="0" width="60" height="60"/>
                <use id="zoomplus" xlink:href="#zoomPlus" x="17" y="9" onmousedown="handleZoom(evt,'in')"/>
                <use id="zoomminus" xlink:href="#zoomMin" x="42" y="9" onmousedown="handleZoom(evt,'out')"/>
                <use id="reset" xlink:href="#resetDef" x="30" y="36" onmousedown="handleReset()"/>
                <g id="arrowUp" xlink:href="#dirArrow" transform="translate(30 24)" onmousedown="handlePan(0,-1)">
                  <use xlink:href="#rim" fill="#404040">
                        <set attributeName="fill" to="#808080" begin="arrowUp.mouseover" end="arrowUp.mouseout"/>
                  </use>
                  <path fill="none" stroke="white" stroke-width="1.5" d="M0,-3.0v7 M-2.5,-0.5L0,-3.0L2.5,-0.5"/>
                </g>
                <g id="arrowRight" xlink:href="#dirArrow" transform="rotate(90) translate(36 -43)" onmousedown="handlePan(1,0)">
                  <use xlink:href="#rim" fill="#404040">
                        <set attributeName="fill" to="#808080" begin="arrowRight.mouseover" end="arrowRight.mouseout"/>
                  </use>
                  <path fill="none" stroke="white" stroke-width="1.5" d="M0,-3.0v7 M-2.5,-0.5L0,-3.0L2.5,-0.5"/>
                </g>
                <g id="arrowDown" xlink:href="#dirArrow" transform="rotate(180) translate(-30 -48)" onmousedown="handlePan(0,1)">
                  <use xlink:href="#rim" fill="#404040">
                        <set attributeName="fill" to="#808080" begin="arrowDown.mouseover" end="arrowDown.mouseout"/>
                  </use>
                  <path fill="none" stroke="white" stroke-width="1.5" d="M0,-3.0v7 M-2.5,-0.5L0,-3.0L2.5,-0.5"/>
                </g>
                <g id="arrowLeft" xlink:href="#dirArrow" transform="rotate(270) translate(-36 17)" onmousedown="handlePan(-1,0)">
                  <use xlink:href="#rim" fill="#404040">
                        <set attributeName="fill" to="#808080" begin="arrowLeft.mouseover" end="arrowLeft.mouseout"/>
                  </use>
                  <path fill="none" stroke="white" stroke-width="1.5" d="M0,-3.0v7 M-2.5,-0.5L0,-3.0L2.5,-0.5"/>
                </g>
        </g>
        <svg viewBox="0 0 15 15" width="100%" height="30px" preserveAspectRatio="xMaxYMin meet">
         <g id="arrow_out" transform="scale(0.3 0.3)">
          <a xlink:href="class_s_r_f02_a6add12b637f17b6fb19aeed54e2353c5_cgraph_org.svg" target="_base">
           <rect id="button" ry="5" rx="5" y="6" x="6" height="38" width="38"
                fill="#f2f5e9" fill-opacity="0.5" stroke="#606060" stroke-width="1.0"/>
           <path id="arrow"
             d="M 11.500037,31.436501 C 11.940474,20.09759 22.043105,11.32322 32.158766,21.979434 L 37.068811,17.246167 C 37.068811,17.246167 37.088388,32 37.088388,32 L 22.160133,31.978069 C 22.160133,31.978069 26.997745,27.140456 26.997745,27.140456 C 18.528582,18.264221 13.291696,25.230495 11.500037,31.436501 z"
             style="fill:#404040;"/>
          </a>
         </g>
        </svg>
</svg>
