<?xml version="1.0" encoding="UTF-8" standalone="no"?>
<!DOCTYPE svg PUBLIC "-//W3C//DTD SVG 1.1//EN"
 "http://www.w3.org/Graphics/SVG/1.1/DTD/svg11.dtd">
<!-- Generated by graphviz version 2.40.1 (20161225.0304)
 -->
<!-- Title: src/modules/dataman/dataman.h Pages: 1 -->
<svg width="238pt" height="263pt"
 viewBox="0.00 0.00 237.50 263.00" xmlns="http://www.w3.org/2000/svg" xmlns:xlink="http://www.w3.org/1999/xlink">
<g id="graph0" class="graph" transform="scale(1 1) rotate(0) translate(4 259)">
<title>src/modules/dataman/dataman.h</title>
<polygon fill="#ffffff" stroke="transparent" points="-4,4 -4,-259 233.5,-259 233.5,4 -4,4"/>
<!-- Node0 -->
<g id="node1" class="node">
<title>Node0</title>
<polygon fill="#bfbfbf" stroke="#000000" points="22.5,-224.5 22.5,-254.5 132.5,-254.5 132.5,-224.5 22.5,-224.5"/>
<text text-anchor="start" x="30.5" y="-242.5" font-family="Helvetica,sans-Serif" font-size="10.00" fill="#000000">src/modules/dataman</text>
<text text-anchor="middle" x="77.5" y="-231.5" font-family="Helvetica,sans-Serif" font-size="10.00" fill="#000000">/dataman.h</text>
</g>
<!-- Node1 -->
<g id="node2" class="node">
<title>Node1</title>
<polygon fill="#ffffff" stroke="#bfbfbf" points="0,-168.5 0,-187.5 49,-187.5 49,-168.5 0,-168.5"/>
<text text-anchor="middle" x="24.5" y="-175.5" font-family="Helvetica,sans-Serif" font-size="10.00" fill="#000000">string.h</text>
</g>
<!-- Node0&#45;&gt;Node1 -->
<g id="edge1" class="edge">
<title>Node0&#45;&gt;Node1</title>
<path fill="none" stroke="#191970" d="M64.3989,-224.2977C56.8887,-215.5831 47.43,-204.6075 39.6073,-195.5302"/>
<polygon fill="#191970" stroke="#191970" points="42.1655,-193.1372 32.986,-187.8469 36.8629,-197.707 42.1655,-193.1372"/>
</g>
<!-- Node2 -->
<g id="node3" class="node">
<title>Node2</title>
<g id="a_node3"><a xlink:href="../../d4/d9d/navigation_8h.html" target="_top" xlink:title="Definition of a mission consisting of mission items. ">
<polygon fill="#ffffff" stroke="#000000" points="106.5,-168.5 106.5,-187.5 218.5,-187.5 218.5,-168.5 106.5,-168.5"/>
<text text-anchor="middle" x="162.5" y="-175.5" font-family="Helvetica,sans-Serif" font-size="10.00" fill="#000000">navigator/navigation.h</text>
</a>
</g>
</g>
<!-- Node0&#45;&gt;Node2 -->
<g id="edge2" class="edge">
<title>Node0&#45;&gt;Node2</title>
<path fill="none" stroke="#191970" d="M98.5112,-224.2977C111.2934,-215.0495 127.5946,-203.2551 140.5448,-193.8853"/>
<polygon fill="#191970" stroke="#191970" points="142.8403,-196.5445 148.8904,-187.8469 138.737,-190.8732 142.8403,-196.5445"/>
</g>
<!-- Node5 -->
<g id="node6" class="node">
<title>Node5</title>
<g id="a_node6"><a xlink:href="../../db/d02/build_2doxygen_2u_o_r_b_2topics_2mission_8h.html" target="_top" xlink:title="uORB/topics/mission.h">
<polygon fill="#ffffff" stroke="#000000" points="17.5,-112.5 17.5,-131.5 135.5,-131.5 135.5,-112.5 17.5,-112.5"/>
<text text-anchor="middle" x="76.5" y="-119.5" font-family="Helvetica,sans-Serif" font-size="10.00" fill="#000000">uORB/topics/mission.h</text>
</a>
</g>
</g>
<!-- Node0&#45;&gt;Node5 -->
<g id="edge10" class="edge">
<title>Node0&#45;&gt;Node5</title>
<path fill="none" stroke="#191970" d="M77.3693,-224.1389C77.1891,-202.9692 76.8644,-164.8174 76.6669,-141.6112"/>
<polygon fill="#191970" stroke="#191970" points="80.1664,-141.5293 76.5814,-131.5595 73.1667,-141.5889 80.1664,-141.5293"/>
</g>
<!-- Node3 -->
<g id="node4" class="node">
<title>Node3</title>
<polygon fill="#ffffff" stroke="#bfbfbf" points="106,-.5 106,-19.5 155,-19.5 155,-.5 106,-.5"/>
<text text-anchor="middle" x="130.5" y="-7.5" font-family="Helvetica,sans-Serif" font-size="10.00" fill="#000000">stdint.h</text>
</g>
<!-- Node2&#45;&gt;Node3 -->
<g id="edge3" class="edge">
<title>Node2&#45;&gt;Node3</title>
<path fill="none" stroke="#191970" d="M160.6879,-168.4862C155.6075,-141.8144 141.1499,-65.9117 134.2514,-29.695"/>
<polygon fill="#191970" stroke="#191970" points="137.6814,-28.9963 132.372,-19.8279 130.805,-30.3062 137.6814,-28.9963"/>
</g>
<!-- Node4 -->
<g id="node5" class="node">
<title>Node4</title>
<polygon fill="#ffffff" stroke="#bfbfbf" points="173.5,-.5 173.5,-19.5 229.5,-19.5 229.5,-.5 173.5,-.5"/>
<text text-anchor="middle" x="201.5" y="-7.5" font-family="Helvetica,sans-Serif" font-size="10.00" fill="#000000">stdbool.h</text>
</g>
<!-- Node2&#45;&gt;Node4 -->
<g id="edge4" class="edge">
<title>Node2&#45;&gt;Node4</title>
<path fill="none" stroke="#191970" d="M164.7086,-168.4862C170.9002,-141.8144 188.5205,-65.9117 196.9279,-29.695"/>
<polygon fill="#191970" stroke="#191970" points="200.3665,-30.3603 199.2185,-19.8279 193.5478,-28.7774 200.3665,-30.3603"/>
</g>
<!-- Node2&#45;&gt;Node5 -->
<g id="edge5" class="edge">
<title>Node2&#45;&gt;Node5</title>
<path fill="none" stroke="#191970" d="M147.5199,-168.2455C134.3249,-159.6534 114.8949,-147.0014 99.6921,-137.1018"/>
<polygon fill="#191970" stroke="#191970" points="101.5983,-134.1665 91.3084,-131.6427 97.7785,-140.0325 101.5983,-134.1665"/>
</g>
<!-- Node6 -->
<g id="node7" class="node">
<title>Node6</title>
<g id="a_node7"><a xlink:href="../../db/dd6/u_o_r_b_8h.html" target="_top" xlink:title="API for the uORB lightweight object broker. ">
<polygon fill="#ffffff" stroke="#000000" points="44.5,-56.5 44.5,-75.5 126.5,-75.5 126.5,-56.5 44.5,-56.5"/>
<text text-anchor="middle" x="85.5" y="-63.5" font-family="Helvetica,sans-Serif" font-size="10.00" fill="#000000">uORB/uORB.h</text>
</a>
</g>
</g>
<!-- Node5&#45;&gt;Node6 -->
<g id="edge6" class="edge">
<title>Node5&#45;&gt;Node6</title>
<path fill="none" stroke="#191970" d="M78.0677,-112.2455C79.2421,-104.9382 80.8884,-94.6944 82.3332,-85.7046"/>
<polygon fill="#191970" stroke="#191970" points="85.8191,-86.0714 83.9503,-75.6427 78.9078,-84.9606 85.8191,-86.0714"/>
</g>
<!-- Node6&#45;&gt;Node3 -->
<g id="edge8" class="edge">
<title>Node6&#45;&gt;Node3</title>
<path fill="none" stroke="#191970" d="M93.3384,-56.2455C99.662,-48.3761 108.7224,-37.101 116.3136,-27.6542"/>
<polygon fill="#191970" stroke="#191970" points="119.2158,-29.6302 122.7514,-19.6427 113.7592,-25.2454 119.2158,-29.6302"/>
</g>
<!-- Node6&#45;&gt;Node4 -->
<g id="edge9" class="edge">
<title>Node6&#45;&gt;Node4</title>
<path fill="none" stroke="#191970" d="M105.4411,-56.3733C123.9786,-47.4241 151.8028,-33.9917 172.7413,-23.8835"/>
<polygon fill="#191970" stroke="#191970" points="174.3352,-27.0006 181.8191,-19.5011 171.2919,-20.6967 174.3352,-27.0006"/>
</g>
<!-- Node7 -->
<g id="node8" class="node">
<title>Node7</title>
<polygon fill="#ffffff" stroke="#bfbfbf" points="19.5,-.5 19.5,-19.5 87.5,-19.5 87.5,-.5 19.5,-.5"/>
<text text-anchor="middle" x="53.5" y="-7.5" font-family="Helvetica,sans-Serif" font-size="10.00" fill="#000000">sys/types.h</text>
</g>
<!-- Node6&#45;&gt;Node7 -->
<g id="edge7" class="edge">
<title>Node6&#45;&gt;Node7</title>
<path fill="none" stroke="#191970" d="M79.926,-56.2455C75.5669,-48.617 69.3789,-37.7881 64.0867,-28.5267"/>
<polygon fill="#191970" stroke="#191970" points="67.0104,-26.5886 59.0101,-19.6427 60.9327,-30.0616 67.0104,-26.5886"/>
</g>
</g>
</svg>
