<?xml version="1.0" encoding="UTF-8" standalone="no"?>
<!DOCTYPE svg PUBLIC "-//W3C//DTD SVG 1.1//EN"
 "http://www.w3.org/Graphics/SVG/1.1/DTD/svg11.dtd">
<!-- Generated by graphviz version 2.38.0 (20140413.2041)
 -->
<!-- Title: src/modules/dataman/dataman.h Pages: 1 -->
<svg width="238pt" height="263pt"
 viewBox="0.00 0.00 237.50 263.00" xmlns="http://www.w3.org/2000/svg" xmlns:xlink="http://www.w3.org/1999/xlink">
<g id="graph0" class="graph" transform="scale(1 1) rotate(0) translate(4 259)">
<title>src/modules/dataman/dataman.h</title>
<polygon fill="white" stroke="none" points="-4,4 -4,-259 233.5,-259 233.5,4 -4,4"/>
<!-- Node1 -->
<g id="node1" class="node"><title>Node1</title>
<polygon fill="#bfbfbf" stroke="black" points="22.5,-224.5 22.5,-254.5 132.5,-254.5 132.5,-224.5 22.5,-224.5"/>
<text text-anchor="start" x="30.5" y="-242.5" font-family="Helvetica,sans-Serif" font-size="10.00">src/modules/dataman</text>
<text text-anchor="middle" x="77.5" y="-231.5" font-family="Helvetica,sans-Serif" font-size="10.00">/dataman.h</text>
</g>
<!-- Node2 -->
<g id="node2" class="node"><title>Node2</title>
<polygon fill="white" stroke="#bfbfbf" points="0,-168.5 0,-187.5 49,-187.5 49,-168.5 0,-168.5"/>
<text text-anchor="middle" x="24.5" y="-175.5" font-family="Helvetica,sans-Serif" font-size="10.00">string.h</text>
</g>
<!-- Node1&#45;&gt;Node2 -->
<g id="edge1" class="edge"><title>Node1&#45;&gt;Node2</title>
<path fill="none" stroke="midnightblue" d="M64.9397,-224.399C57.1588,-215.664 47.1364,-204.413 39.016,-195.296"/>
<polygon fill="midnightblue" stroke="midnightblue" points="41.4769,-192.797 32.212,-187.658 36.2499,-197.453 41.4769,-192.797"/>
</g>
<!-- Node3 -->
<g id="node3" class="node"><title>Node3</title>
<g id="a_node3"><a xlink:href="../../d4/d9d/navigation_8h.html" target="_top" xlink:title="Definition of a mission consisting of mission items. ">
<polygon fill="white" stroke="black" points="106.5,-168.5 106.5,-187.5 218.5,-187.5 218.5,-168.5 106.5,-168.5"/>
<text text-anchor="middle" x="162.5" y="-175.5" font-family="Helvetica,sans-Serif" font-size="10.00">navigator/navigation.h</text>
</a>
</g>
</g>
<!-- Node1&#45;&gt;Node3 -->
<g id="edge2" class="edge"><title>Node1&#45;&gt;Node3</title>
<path fill="none" stroke="midnightblue" d="M97.6438,-224.399C110.887,-215.129 128.178,-203.025 141.576,-193.647"/>
<polygon fill="midnightblue" stroke="midnightblue" points="143.947,-196.26 150.132,-187.658 139.932,-190.525 143.947,-196.26"/>
</g>
<!-- Node6 -->
<g id="node6" class="node"><title>Node6</title>
<g id="a_node6"><a xlink:href="../../db/d02/build_2doxygen_2u_o_r_b_2topics_2mission_8h.html" target="_top" xlink:title="uORB/topics/mission.h">
<polygon fill="white" stroke="black" points="17.5,-112.5 17.5,-131.5 135.5,-131.5 135.5,-112.5 17.5,-112.5"/>
<text text-anchor="middle" x="76.5" y="-119.5" font-family="Helvetica,sans-Serif" font-size="10.00">uORB/topics/mission.h</text>
</a>
</g>
</g>
<!-- Node1&#45;&gt;Node6 -->
<g id="edge10" class="edge"><title>Node1&#45;&gt;Node6</title>
<path fill="none" stroke="midnightblue" d="M77.3774,-224.337C77.198,-203.622 76.8638,-165.016 76.6636,-141.899"/>
<polygon fill="midnightblue" stroke="midnightblue" points="80.1616,-141.639 76.5751,-131.669 73.1619,-141.699 80.1616,-141.639"/>
</g>
<!-- Node4 -->
<g id="node4" class="node"><title>Node4</title>
<polygon fill="white" stroke="#bfbfbf" points="106,-0.5 106,-19.5 155,-19.5 155,-0.5 106,-0.5"/>
<text text-anchor="middle" x="130.5" y="-7.5" font-family="Helvetica,sans-Serif" font-size="10.00">stdint.h</text>
</g>
<!-- Node3&#45;&gt;Node4 -->
<g id="edge3" class="edge"><title>Node3&#45;&gt;Node4</title>
<path fill="none" stroke="midnightblue" d="M160.78,-168.075C155.742,-141.945 140.95,-65.2106 134.081,-29.577"/>
<polygon fill="midnightblue" stroke="midnightblue" points="137.481,-28.7248 132.152,-19.5681 130.608,-30.0499 137.481,-28.7248"/>
</g>
<!-- Node5 -->
<g id="node5" class="node"><title>Node5</title>
<polygon fill="white" stroke="#bfbfbf" points="173.5,-0.5 173.5,-19.5 229.5,-19.5 229.5,-0.5 173.5,-0.5"/>
<text text-anchor="middle" x="201.5" y="-7.5" font-family="Helvetica,sans-Serif" font-size="10.00">stdbool.h</text>
</g>
<!-- Node3&#45;&gt;Node5 -->
<g id="edge4" class="edge"><title>Node3&#45;&gt;Node5</title>
<path fill="none" stroke="midnightblue" d="M164.597,-168.075C170.736,-141.945 188.764,-65.2106 197.136,-29.577"/>
<polygon fill="midnightblue" stroke="midnightblue" points="200.607,-30.1036 199.487,-19.5681 193.793,-28.5025 200.607,-30.1036"/>
</g>
<!-- Node3&#45;&gt;Node6 -->
<g id="edge5" class="edge"><title>Node3&#45;&gt;Node6</title>
<path fill="none" stroke="midnightblue" d="M148.683,-168.324C135.267,-159.9 114.676,-146.971 98.9144,-137.074"/>
<polygon fill="midnightblue" stroke="midnightblue" points="100.613,-134.008 90.2831,-131.655 96.8908,-139.936 100.613,-134.008"/>
</g>
<!-- Node7 -->
<g id="node7" class="node"><title>Node7</title>
<g id="a_node7"><a xlink:href="../../db/dd6/u_o_r_b_8h.html" target="_top" xlink:title="API for the uORB lightweight object broker. ">
<polygon fill="white" stroke="black" points="44.5,-56.5 44.5,-75.5 126.5,-75.5 126.5,-56.5 44.5,-56.5"/>
<text text-anchor="middle" x="85.5" y="-63.5" font-family="Helvetica,sans-Serif" font-size="10.00">uORB/uORB.h</text>
</a>
</g>
</g>
<!-- Node6&#45;&gt;Node7 -->
<g id="edge6" class="edge"><title>Node6&#45;&gt;Node7</title>
<path fill="none" stroke="midnightblue" d="M77.9862,-112.083C79.1788,-104.927 80.8941,-94.6353 82.3848,-85.6911"/>
<polygon fill="midnightblue" stroke="midnightblue" points="85.8498,-86.1904 84.0415,-75.7511 78.945,-85.0396 85.8498,-86.1904"/>
</g>
<!-- Node7&#45;&gt;Node4 -->
<g id="edge8" class="edge"><title>Node7&#45;&gt;Node4</title>
<path fill="none" stroke="midnightblue" d="M92.9308,-56.083C99.3527,-48.3768 108.806,-37.0333 116.622,-27.6531"/>
<polygon fill="midnightblue" stroke="midnightblue" points="119.494,-29.674 123.207,-19.7511 114.117,-25.1927 119.494,-29.674"/>
</g>
<!-- Node7&#45;&gt;Node5 -->
<g id="edge9" class="edge"><title>Node7&#45;&gt;Node5</title>
<path fill="none" stroke="midnightblue" d="M103.881,-56.4435C122.716,-47.6751 152.231,-33.9355 173.879,-23.8579"/>
<polygon fill="midnightblue" stroke="midnightblue" points="175.617,-26.9098 183.205,-19.5164 172.662,-20.5637 175.617,-26.9098"/>
</g>
<!-- Node8 -->
<g id="node8" class="node"><title>Node8</title>
<polygon fill="white" stroke="#bfbfbf" points="19.5,-0.5 19.5,-19.5 87.5,-19.5 87.5,-0.5 19.5,-0.5"/>
<text text-anchor="middle" x="53.5" y="-7.5" font-family="Helvetica,sans-Serif" font-size="10.00">sys/types.h</text>
</g>
<!-- Node7&#45;&gt;Node8 -->
<g id="edge7" class="edge"><title>Node7&#45;&gt;Node8</title>
<path fill="none" stroke="midnightblue" d="M80.2159,-56.083C75.789,-48.6127 69.3367,-37.7244 63.8821,-28.5199"/>
<polygon fill="midnightblue" stroke="midnightblue" points="66.7949,-26.5697 58.6858,-19.7511 60.7729,-30.1383 66.7949,-26.5697"/>
</g>
</g>
</svg>
