<?xml version="1.0" encoding="UTF-8" standalone="no"?>
<!DOCTYPE svg PUBLIC "-//W3C//DTD SVG 1.1//EN"
 "http://www.w3.org/Graphics/SVG/1.1/DTD/svg11.dtd">
<!-- Generated by graphviz version 2.38.0 (20140413.2041)
 -->
<!-- Title: LPS25H::start Pages: 1 -->
<svg width="591pt" height="142pt"
 viewBox="0.00 0.00 591.00 142.00" xmlns="http://www.w3.org/2000/svg" xmlns:xlink="http://www.w3.org/1999/xlink">
<g id="graph0" class="graph" transform="scale(1 1) rotate(0) translate(4 138)">
<title>LPS25H::start</title>
<polygon fill="white" stroke="none" points="-4,4 -4,-138 587,-138 587,4 -4,4"/>
<!-- Node1 -->
<g id="node1" class="node"><title>Node1</title>
<polygon fill="#bfbfbf" stroke="black" points="0,-76.5 0,-95.5 79,-95.5 79,-76.5 0,-76.5"/>
<text text-anchor="middle" x="39.5" y="-83.5" font-family="Helvetica,sans-Serif" font-size="10.00">LPS25H::start</text>
</g>
<!-- Node2 -->
<g id="node2" class="node"><title>Node2</title>
<g id="a_node2"><a xlink:href="../../dc/d03/class_l_p_s25_h.html#a9949c12a0c7431a6cd3ffd5c28324592" target="_top" xlink:title="Perform a poll cycle; collect from the previous measurement and start a new one. ">
<polygon fill="white" stroke="black" points="115,-114.5 115,-133.5 198,-133.5 198,-114.5 115,-114.5"/>
<text text-anchor="middle" x="156.5" y="-121.5" font-family="Helvetica,sans-Serif" font-size="10.00">LPS25H::cycle</text>
</a>
</g>
</g>
<!-- Node1&#45;&gt;Node2 -->
<g id="edge1" class="edge"><title>Node1&#45;&gt;Node2</title>
<path fill="none" stroke="midnightblue" d="M79.3153,-98.8259C94.7459,-103.925 112.191,-109.689 126.49,-114.414"/>
<polygon fill="midnightblue" stroke="midnightblue" points="80.1126,-95.4033 69.5194,-95.589 77.9163,-102.05 80.1126,-95.4033"/>
</g>
<!-- Node4 -->
<g id="node4" class="node"><title>Node4</title>
<g id="a_node4"><a xlink:href="../../dc/d03/class_l_p_s25_h.html#a9ed2ed02a0e076781b828049852a67ef" target="_top" xlink:title="LPS25H::ioctl">
<polygon fill="white" stroke="black" points="118,-38.5 118,-57.5 195,-57.5 195,-38.5 118,-38.5"/>
<text text-anchor="middle" x="156.5" y="-45.5" font-family="Helvetica,sans-Serif" font-size="10.00">LPS25H::ioctl</text>
</a>
</g>
</g>
<!-- Node1&#45;&gt;Node4 -->
<g id="edge5" class="edge"><title>Node1&#45;&gt;Node4</title>
<path fill="none" stroke="midnightblue" d="M79.3153,-73.1741C94.7459,-68.0753 112.191,-62.3109 126.49,-57.5859"/>
<polygon fill="midnightblue" stroke="midnightblue" points="77.9163,-69.9502 69.5194,-76.411 80.1126,-76.5967 77.9163,-69.9502"/>
</g>
<!-- Node3 -->
<g id="node3" class="node"><title>Node3</title>
<g id="a_node3"><a xlink:href="../../dc/d03/class_l_p_s25_h.html#a92dfa3fb19111ed9dbdc2915f86ccca4" target="_top" xlink:title="Static trampoline from the workq context; because we don&#39;t have a generic workq wrapper yet...">
<polygon fill="white" stroke="black" points="234,-114.5 234,-133.5 367,-133.5 367,-114.5 234,-114.5"/>
<text text-anchor="middle" x="300.5" y="-121.5" font-family="Helvetica,sans-Serif" font-size="10.00">LPS25H::cycle_trampoline</text>
</a>
</g>
</g>
<!-- Node2&#45;&gt;Node3 -->
<g id="edge2" class="edge"><title>Node2&#45;&gt;Node3</title>
<path fill="none" stroke="midnightblue" d="M208.405,-117.496C216.665,-117.289 225.32,-117.212 233.871,-117.267"/>
<polygon fill="midnightblue" stroke="midnightblue" points="208.072,-114.005 198.192,-117.829 208.3,-121.001 208.072,-114.005"/>
</g>
<!-- Node3&#45;&gt;Node1 -->
<g id="edge4" class="edge"><title>Node3&#45;&gt;Node1</title>
<path fill="none" stroke="midnightblue" d="M241.892,-112.544C227.582,-109.884 212.259,-107.192 198,-105 157.575,-98.7848 111.052,-93.3869 79.1084,-89.9494"/>
<polygon fill="midnightblue" stroke="midnightblue" points="241.628,-116.055 252.103,-114.467 242.924,-109.176 241.628,-116.055"/>
</g>
<!-- Node3&#45;&gt;Node2 -->
<g id="edge3" class="edge"><title>Node3&#45;&gt;Node2</title>
<path fill="none" stroke="midnightblue" d="M223.592,-130.736C214.847,-130.684 206.203,-130.496 198.192,-130.171"/>
<polygon fill="midnightblue" stroke="midnightblue" points="223.872,-134.236 233.871,-130.733 223.87,-127.236 223.872,-134.236"/>
</g>
<!-- Node5 -->
<g id="node5" class="node"><title>Node5</title>
<g id="a_node5"><a xlink:href="../../d8/d04/namespacelps25h.html#a3b32f17e285a77349a84f2c06268f1c5" target="_top" xlink:title="Reset the driver. ">
<polygon fill="white" stroke="black" points="403,-76.5 403,-95.5 476,-95.5 476,-76.5 403,-76.5"/>
<text text-anchor="middle" x="439.5" y="-83.5" font-family="Helvetica,sans-Serif" font-size="10.00">lps25h::reset</text>
</a>
</g>
</g>
<!-- Node4&#45;&gt;Node5 -->
<g id="edge6" class="edge"><title>Node4&#45;&gt;Node5</title>
<path fill="none" stroke="midnightblue" d="M201.125,-60.0393C211.812,-62.6541 223.264,-65.1788 234,-67 292.707,-76.9592 361.845,-82.0103 402.822,-84.3186"/>
<polygon fill="midnightblue" stroke="midnightblue" points="201.715,-56.5784 191.162,-57.5246 200.002,-63.3655 201.715,-56.5784"/>
</g>
<!-- Node7 -->
<g id="node7" class="node"><title>Node7</title>
<g id="a_node7"><a xlink:href="../../d8/d04/namespacelps25h.html#a2b235fc73bc7afc3b81791a2e4775e56" target="_top" xlink:title="start driver for a specific bus option ">
<polygon fill="white" stroke="black" points="254.5,-38.5 254.5,-57.5 346.5,-57.5 346.5,-38.5 254.5,-38.5"/>
<text text-anchor="middle" x="300.5" y="-45.5" font-family="Helvetica,sans-Serif" font-size="10.00">lps25h::start_bus</text>
</a>
</g>
</g>
<!-- Node4&#45;&gt;Node7 -->
<g id="edge8" class="edge"><title>Node4&#45;&gt;Node7</title>
<path fill="none" stroke="midnightblue" d="M205.295,-48C221.123,-48 238.681,-48 254.307,-48"/>
<polygon fill="midnightblue" stroke="midnightblue" points="205.181,-44.5001 195.181,-48 205.181,-51.5001 205.181,-44.5001"/>
</g>
<!-- Node9 -->
<g id="node9" class="node"><title>Node9</title>
<g id="a_node9"><a xlink:href="../../d8/d04/namespacelps25h.html#accc089fb6426d2bed21ea7513ce0b70f" target="_top" xlink:title="Perform some basic functional tests on the driver; make sure we can collect data from the sensor in p...">
<polygon fill="white" stroke="black" points="405.5,-0.5 405.5,-19.5 473.5,-19.5 473.5,-0.5 405.5,-0.5"/>
<text text-anchor="middle" x="439.5" y="-7.5" font-family="Helvetica,sans-Serif" font-size="10.00">lps25h::test</text>
</a>
</g>
</g>
<!-- Node4&#45;&gt;Node9 -->
<g id="edge11" class="edge"><title>Node4&#45;&gt;Node9</title>
<path fill="none" stroke="midnightblue" d="M201.125,-35.9607C211.812,-33.3459 223.264,-30.8212 234,-29 293.938,-18.8321 364.748,-13.7802 405.361,-11.5399"/>
<polygon fill="midnightblue" stroke="midnightblue" points="200.002,-32.6345 191.162,-38.4754 201.715,-39.4216 200.002,-32.6345"/>
</g>
<!-- Node6 -->
<g id="node6" class="node"><title>Node6</title>
<g id="a_node6"><a xlink:href="../../d5/d75/lps25h_8cpp.html#a9eee50e01fdaf781035a3d9c34d8f66b" target="_top" xlink:title="lps25h_main">
<polygon fill="white" stroke="black" points="512,-38.5 512,-57.5 583,-57.5 583,-38.5 512,-38.5"/>
<text text-anchor="middle" x="547.5" y="-45.5" font-family="Helvetica,sans-Serif" font-size="10.00">lps25h_main</text>
</a>
</g>
</g>
<!-- Node5&#45;&gt;Node6 -->
<g id="edge7" class="edge"><title>Node5&#45;&gt;Node6</title>
<path fill="none" stroke="midnightblue" d="M476.684,-73.0282C490.807,-67.9656 506.706,-62.2659 519.76,-57.5859"/>
<polygon fill="midnightblue" stroke="midnightblue" points="475.481,-69.7416 467.248,-76.411 477.843,-76.331 475.481,-69.7416"/>
</g>
<!-- Node8 -->
<g id="node8" class="node"><title>Node8</title>
<g id="a_node8"><a xlink:href="../../d8/d04/namespacelps25h.html#a973255af2396e30f1a9000cd7ee57aea" target="_top" xlink:title="Start the driver. ">
<polygon fill="white" stroke="black" points="404,-38.5 404,-57.5 475,-57.5 475,-38.5 404,-38.5"/>
<text text-anchor="middle" x="439.5" y="-45.5" font-family="Helvetica,sans-Serif" font-size="10.00">lps25h::start</text>
</a>
</g>
</g>
<!-- Node7&#45;&gt;Node8 -->
<g id="edge9" class="edge"><title>Node7&#45;&gt;Node8</title>
<path fill="none" stroke="midnightblue" d="M356.951,-48C372.759,-48 389.53,-48 403.726,-48"/>
<polygon fill="midnightblue" stroke="midnightblue" points="356.739,-44.5001 346.739,-48 356.739,-51.5001 356.739,-44.5001"/>
</g>
<!-- Node8&#45;&gt;Node6 -->
<g id="edge10" class="edge"><title>Node8&#45;&gt;Node6</title>
<path fill="none" stroke="midnightblue" d="M485.354,-48C494.168,-48 503.29,-48 511.714,-48"/>
<polygon fill="midnightblue" stroke="midnightblue" points="485.208,-44.5001 475.208,-48 485.208,-51.5001 485.208,-44.5001"/>
</g>
<!-- Node9&#45;&gt;Node6 -->
<g id="edge12" class="edge"><title>Node9&#45;&gt;Node6</title>
<path fill="none" stroke="midnightblue" d="M476.684,-22.9718C490.807,-28.0344 506.706,-33.7341 519.76,-38.4141"/>
<polygon fill="midnightblue" stroke="midnightblue" points="477.843,-19.669 467.248,-19.589 475.481,-26.2584 477.843,-19.669"/>
</g>
</g>
</svg>
