<?xml version="1.0" encoding="UTF-8" standalone="no"?>
<!DOCTYPE svg PUBLIC "-//W3C//DTD SVG 1.1//EN"
 "http://www.w3.org/Graphics/SVG/1.1/DTD/svg11.dtd">
<!-- Generated by graphviz version 2.38.0 (20140413.2041)
 -->
<!-- Title: FXOS8701CQ::mag_measure_trampoline Pages: 1 -->
<svg width="1542pt" height="291pt"
 viewBox="0.00 0.00 1542.00 291.00" xmlns="http://www.w3.org/2000/svg" xmlns:xlink="http://www.w3.org/1999/xlink">
<g id="graph0" class="graph" transform="scale(1 1) rotate(0) translate(4 287)">
<title>FXOS8701CQ::mag_measure_trampoline</title>
<polygon fill="white" stroke="none" points="-4,4 -4,-287 1538,-287 1538,4 -4,4"/>
<!-- Node1 -->
<g id="node1" class="node"><title>Node1</title>
<polygon fill="#bfbfbf" stroke="black" points="0,-90 0,-120 147,-120 147,-90 0,-90"/>
<text text-anchor="start" x="8" y="-108" font-family="Helvetica,sans-Serif" font-size="10.00">FXOS8701CQ::mag_measure</text>
<text text-anchor="middle" x="73.5" y="-97" font-family="Helvetica,sans-Serif" font-size="10.00">_trampoline</text>
</g>
<!-- Node2 -->
<g id="node2" class="node"><title>Node2</title>
<g id="a_node2"><a xlink:href="../../db/d27/class_f_x_o_s8701_c_q.html#a1ccbb8d7dee4691a405afc44cd01fb10" target="_top" xlink:title="Fetch mag measurements from the sensor and update the report ring. ">
<polygon fill="white" stroke="black" points="183,-95.5 183,-114.5 330,-114.5 330,-95.5 183,-95.5"/>
<text text-anchor="middle" x="256.5" y="-102.5" font-family="Helvetica,sans-Serif" font-size="10.00">FXOS8701CQ::mag_measure</text>
</a>
</g>
</g>
<!-- Node1&#45;&gt;Node2 -->
<g id="edge1" class="edge"><title>Node1&#45;&gt;Node2</title>
<path fill="none" stroke="midnightblue" d="M147.077,-105C155.559,-105 164.261,-105 172.867,-105"/>
<polygon fill="midnightblue" stroke="midnightblue" points="172.907,-108.5 182.907,-105 172.907,-101.5 172.907,-108.5"/>
</g>
<!-- Node3 -->
<g id="node3" class="node"><title>Node3</title>
<g id="a_node3"><a xlink:href="../../d6/d10/drv__hrt_8h.html#a1450e339b7c5b8d47656500167a6676d" target="_top" xlink:title="Get absolute time in [us] (does not wrap). ">
<polygon fill="white" stroke="black" points="1009.5,-263.5 1009.5,-282.5 1103.5,-282.5 1103.5,-263.5 1009.5,-263.5"/>
<text text-anchor="middle" x="1056.5" y="-270.5" font-family="Helvetica,sans-Serif" font-size="10.00">hrt_absolute_time</text>
</a>
</g>
</g>
<!-- Node2&#45;&gt;Node3 -->
<g id="edge2" class="edge"><title>Node2&#45;&gt;Node3</title>
<path fill="none" stroke="midnightblue" d="M266.939,-114.884C301.04,-149.474 422.414,-263 546.5,-263 546.5,-263 546.5,-263 708,-263 810.76,-263 930.542,-267.423 999.251,-270.386"/>
<polygon fill="midnightblue" stroke="midnightblue" points="999.276,-273.891 1009.42,-270.83 999.582,-266.897 999.276,-273.891"/>
</g>
<!-- Node4 -->
<g id="node4" class="node"><title>Node4</title>
<g id="a_node4"><a xlink:href="../../d9/d97/u_o_r_b_8cpp.html#af7a143a80b6b04689a3a4890ce8df4ae" target="_top" xlink:title="orb_publish">
<polygon fill="white" stroke="black" points="379,-152.5 379,-171.5 445,-171.5 445,-152.5 379,-152.5"/>
<text text-anchor="middle" x="412" y="-159.5" font-family="Helvetica,sans-Serif" font-size="10.00">orb_publish</text>
</a>
</g>
</g>
<!-- Node2&#45;&gt;Node4 -->
<g id="edge3" class="edge"><title>Node2&#45;&gt;Node4</title>
<path fill="none" stroke="midnightblue" d="M283.192,-114.541C308.539,-123.953 347.483,-138.414 375.722,-148.9"/>
<polygon fill="midnightblue" stroke="midnightblue" points="374.631,-152.228 385.224,-152.428 377.068,-145.666 374.631,-152.228"/>
</g>
<!-- Node20 -->
<g id="node20" class="node"><title>Node20</title>
<g id="a_node20"><a xlink:href="../../dd/d78/perf__counter_8c.html#a29199d9ba42a60894e4f593f677ff2d7" target="_top" xlink:title="Begin a performance event. ">
<polygon fill="white" stroke="black" points="381,-114.5 381,-133.5 443,-133.5 443,-114.5 381,-114.5"/>
<text text-anchor="middle" x="412" y="-121.5" font-family="Helvetica,sans-Serif" font-size="10.00">perf_begin</text>
</a>
</g>
</g>
<!-- Node2&#45;&gt;Node20 -->
<g id="edge21" class="edge"><title>Node2&#45;&gt;Node20</title>
<path fill="none" stroke="midnightblue" d="M330.204,-113.999C344.128,-115.723 358.23,-117.468 370.671,-119.008"/>
<polygon fill="midnightblue" stroke="midnightblue" points="370.335,-122.493 380.689,-120.248 371.195,-115.546 370.335,-122.493"/>
</g>
<!-- Node21 -->
<g id="node21" class="node"><title>Node21</title>
<g id="a_node21"><a xlink:href="../../dd/d78/perf__counter_8c.html#a8a89ea6639744897e494e5d2139751aa" target="_top" xlink:title="End a performance event. ">
<polygon fill="white" stroke="black" points="385,-76.5 385,-95.5 439,-95.5 439,-76.5 385,-76.5"/>
<text text-anchor="middle" x="412" y="-83.5" font-family="Helvetica,sans-Serif" font-size="10.00">perf_end</text>
</a>
</g>
</g>
<!-- Node2&#45;&gt;Node21 -->
<g id="edge22" class="edge"><title>Node2&#45;&gt;Node21</title>
<path fill="none" stroke="midnightblue" d="M330.204,-96.0008C345.613,-94.0935 361.239,-92.1593 374.59,-90.5067"/>
<polygon fill="midnightblue" stroke="midnightblue" points="375.268,-93.9496 384.762,-89.2477 374.408,-87.0027 375.268,-93.9496"/>
</g>
<!-- Node22 -->
<g id="node22" class="node"><title>Node22</title>
<g id="a_node22"><a xlink:href="../../dd/d78/perf__counter_8c.html#abf86ab96e88f8663417a93dc97b05c4f" target="_top" xlink:title="Return current event_count. ">
<polygon fill="white" stroke="black" points="366,-38.5 366,-57.5 458,-57.5 458,-38.5 366,-38.5"/>
<text text-anchor="middle" x="412" y="-45.5" font-family="Helvetica,sans-Serif" font-size="10.00">perf_event_count</text>
</a>
</g>
</g>
<!-- Node2&#45;&gt;Node22 -->
<g id="edge23" class="edge"><title>Node2&#45;&gt;Node22</title>
<path fill="none" stroke="midnightblue" d="M283.192,-95.4595C308.539,-86.0473 347.483,-71.5862 375.722,-61.1001"/>
<polygon fill="midnightblue" stroke="midnightblue" points="377.068,-64.3339 385.224,-57.5716 374.631,-57.7717 377.068,-64.3339"/>
</g>
<!-- Node23 -->
<g id="node23" class="node"><title>Node23</title>
<g id="a_node23"><a xlink:href="../../da/d0e/rotation_8cpp.html#aa3c61ff4ad576f10e9c754189b1e5757" target="_top" xlink:title="rotate a 3 element float vector in&#45;place ">
<polygon fill="white" stroke="black" points="384.5,-0.5 384.5,-19.5 439.5,-19.5 439.5,-0.5 384.5,-0.5"/>
<text text-anchor="middle" x="412" y="-7.5" font-family="Helvetica,sans-Serif" font-size="10.00">rotate_3f</text>
</a>
</g>
</g>
<!-- Node2&#45;&gt;Node23 -->
<g id="edge24" class="edge"><title>Node2&#45;&gt;Node23</title>
<path fill="none" stroke="midnightblue" d="M269.317,-95.4574C288.687,-80.1132 328.77,-49.5947 366,-29 369.311,-27.1682 372.836,-25.3977 376.398,-23.7227"/>
<polygon fill="midnightblue" stroke="midnightblue" points="378.086,-26.8023 385.797,-19.5359 375.238,-20.4081 378.086,-26.8023"/>
</g>
<!-- Node5 -->
<g id="node5" class="node"><title>Node5</title>
<g id="a_node5"><a xlink:href="../../d3/da9/classu_o_r_b_1_1_manager.html#a9d829b3ea49d16d03c2fa37ef2bb24a5" target="_top" xlink:title="Method to get the singleton instance for the uORB::Manager. ">
<polygon fill="white" stroke="black" points="835.5,-98 835.5,-128 942.5,-128 942.5,-98 835.5,-98"/>
<text text-anchor="start" x="843.5" y="-116" font-family="Helvetica,sans-Serif" font-size="10.00">uORB::Manager::get</text>
<text text-anchor="middle" x="889" y="-105" font-family="Helvetica,sans-Serif" font-size="10.00">_instance</text>
</a>
</g>
</g>
<!-- Node4&#45;&gt;Node5 -->
<g id="edge4" class="edge"><title>Node4&#45;&gt;Node5</title>
<path fill="none" stroke="midnightblue" d="M439.637,-152.461C455.266,-147.282 475.516,-141.282 494,-138 609.608,-117.475 746.923,-113.225 825.125,-112.659"/>
<polygon fill="midnightblue" stroke="midnightblue" points="825.313,-116.158 835.293,-112.604 825.275,-109.158 825.313,-116.158"/>
</g>
<!-- Node12 -->
<g id="node12" class="node"><title>Node12</title>
<g id="a_node12"><a xlink:href="../../d3/da9/classu_o_r_b_1_1_manager.html#abbe6966f841886ce3003ebc6d2198447" target="_top" xlink:title="Publish new data to a topic. ">
<polygon fill="white" stroke="black" points="494,-147 494,-177 601,-177 601,-147 494,-147"/>
<text text-anchor="start" x="502" y="-165" font-family="Helvetica,sans-Serif" font-size="10.00">uORB::Manager::orb</text>
<text text-anchor="middle" x="547.5" y="-154" font-family="Helvetica,sans-Serif" font-size="10.00">_publish</text>
</a>
</g>
</g>
<!-- Node4&#45;&gt;Node12 -->
<g id="edge11" class="edge"><title>Node4&#45;&gt;Node12</title>
<path fill="none" stroke="midnightblue" d="M445.317,-162C456.939,-162 470.479,-162 483.803,-162"/>
<polygon fill="midnightblue" stroke="midnightblue" points="483.914,-165.5 493.914,-162 483.914,-158.5 483.914,-165.5"/>
</g>
<!-- Node6 -->
<g id="node6" class="node"><title>Node6</title>
<g id="a_node6"><a xlink:href="../../d3/da9/classu_o_r_b_1_1_manager.html#a083331e24ac4f99ac11a0aab1b1681b4" target="_top" xlink:title="Get the DeviceMaster. ">
<polygon fill="white" stroke="black" points="1003,-88 1003,-118 1110,-118 1110,-88 1003,-88"/>
<text text-anchor="start" x="1011" y="-106" font-family="Helvetica,sans-Serif" font-size="10.00">uORB::Manager::get</text>
<text text-anchor="middle" x="1056.5" y="-95" font-family="Helvetica,sans-Serif" font-size="10.00">_device_master</text>
</a>
</g>
</g>
<!-- Node5&#45;&gt;Node6 -->
<g id="edge5" class="edge"><title>Node5&#45;&gt;Node6</title>
<path fill="none" stroke="midnightblue" d="M942.82,-109.808C958.723,-108.848 976.331,-107.784 992.809,-106.788"/>
<polygon fill="midnightblue" stroke="midnightblue" points="993.127,-110.275 1002.9,-106.178 992.705,-103.288 993.127,-110.275"/>
</g>
<!-- Node7 -->
<g id="node7" class="node"><title>Node7</title>
<g id="a_node7"><a xlink:href="../../db/dcf/classdevice_1_1_c_dev.html#a04ad8e5b517724c106e06b45e86a2445" target="_top" xlink:title="Initialise the driver and make it ready for use. ">
<polygon fill="white" stroke="black" points="1149.5,-93.5 1149.5,-112.5 1244.5,-112.5 1244.5,-93.5 1149.5,-93.5"/>
<text text-anchor="middle" x="1197" y="-100.5" font-family="Helvetica,sans-Serif" font-size="10.00">device::CDev::init</text>
</a>
</g>
</g>
<!-- Node6&#45;&gt;Node7 -->
<g id="edge6" class="edge"><title>Node6&#45;&gt;Node7</title>
<path fill="none" stroke="midnightblue" d="M1110.26,-103C1119.69,-103 1129.55,-103 1139.09,-103"/>
<polygon fill="midnightblue" stroke="midnightblue" points="1139.29,-106.5 1149.29,-103 1139.29,-99.5001 1139.29,-106.5"/>
</g>
<!-- Node8 -->
<g id="node8" class="node"><title>Node8</title>
<g id="a_node8"><a xlink:href="../../dd/dd3/classdevice_1_1_device.html#a88428ba671d9c225504fc2f0aed2a72a" target="_top" xlink:title="Initialise the driver and make it ready for use. ">
<polygon fill="white" stroke="black" points="1282,-112.5 1282,-131.5 1383,-131.5 1383,-112.5 1282,-112.5"/>
<text text-anchor="middle" x="1332.5" y="-119.5" font-family="Helvetica,sans-Serif" font-size="10.00">device::Device::init</text>
</a>
</g>
</g>
<!-- Node7&#45;&gt;Node8 -->
<g id="edge7" class="edge"><title>Node7&#45;&gt;Node8</title>
<path fill="none" stroke="midnightblue" d="M1244.69,-109.645C1253.43,-110.889 1262.68,-112.205 1271.75,-113.497"/>
<polygon fill="midnightblue" stroke="midnightblue" points="1271.49,-116.995 1281.88,-114.939 1272.48,-110.064 1271.49,-116.995"/>
</g>
<!-- Node9 -->
<g id="node9" class="node"><title>Node9</title>
<g id="a_node9"><a xlink:href="../../da/dc9/posix_2cdev__platform_8cpp.html#a4c69ea88a27571245bd4dc9c06a3d18b" target="_top" xlink:title="register_driver">
<polygon fill="white" stroke="black" points="1293.5,-74.5 1293.5,-93.5 1371.5,-93.5 1371.5,-74.5 1293.5,-74.5"/>
<text text-anchor="middle" x="1332.5" y="-81.5" font-family="Helvetica,sans-Serif" font-size="10.00">register_driver</text>
</a>
</g>
</g>
<!-- Node7&#45;&gt;Node9 -->
<g id="edge8" class="edge"><title>Node7&#45;&gt;Node9</title>
<path fill="none" stroke="midnightblue" d="M1244.69,-96.3547C1257.15,-94.5823 1270.63,-92.6638 1283.17,-90.8791"/>
<polygon fill="midnightblue" stroke="midnightblue" points="1284.03,-94.2918 1293.43,-89.4176 1283.04,-87.3616 1284.03,-94.2918"/>
</g>
<!-- Node10 -->
<g id="node10" class="node"><title>Node10</title>
<g id="a_node10"><a xlink:href="../../d6/dfb/stubs__posix_8c.html#a12809c44718c21544ceb280dc1a53573" target="_top" xlink:title="pthread_mutex_lock">
<polygon fill="white" stroke="black" points="1424.5,-93.5 1424.5,-112.5 1528.5,-112.5 1528.5,-93.5 1424.5,-93.5"/>
<text text-anchor="middle" x="1476.5" y="-100.5" font-family="Helvetica,sans-Serif" font-size="10.00">pthread_mutex_lock</text>
</a>
</g>
</g>
<!-- Node9&#45;&gt;Node10 -->
<g id="edge9" class="edge"><title>Node9&#45;&gt;Node10</title>
<path fill="none" stroke="midnightblue" d="M1371.55,-89.0917C1384.7,-90.8511 1399.79,-92.8698 1414.32,-94.8136"/>
<polygon fill="midnightblue" stroke="midnightblue" points="1413.88,-98.2861 1424.26,-96.1433 1414.81,-91.3479 1413.88,-98.2861"/>
</g>
<!-- Node11 -->
<g id="node11" class="node"><title>Node11</title>
<g id="a_node11"><a xlink:href="../../d6/dfb/stubs__posix_8c.html#a96184290ffb60e04c53a52869cf960a2" target="_top" xlink:title="pthread_mutex_unlock">
<polygon fill="white" stroke="black" points="1419,-55.5 1419,-74.5 1534,-74.5 1534,-55.5 1419,-55.5"/>
<text text-anchor="middle" x="1476.5" y="-62.5" font-family="Helvetica,sans-Serif" font-size="10.00">pthread_mutex_unlock</text>
</a>
</g>
</g>
<!-- Node9&#45;&gt;Node11 -->
<g id="edge10" class="edge"><title>Node9&#45;&gt;Node11</title>
<path fill="none" stroke="midnightblue" d="M1371.55,-78.9083C1383.03,-77.3731 1395.98,-75.6405 1408.74,-73.9325"/>
<polygon fill="midnightblue" stroke="midnightblue" points="1409.46,-77.3676 1418.91,-72.5722 1408.53,-70.4294 1409.46,-77.3676"/>
</g>
<!-- Node13 -->
<g id="node13" class="node"><title>Node13</title>
<g id="a_node13"><a xlink:href="../../d0/d18/classu_o_r_b_1_1_device_node.html#ae715517a1f3a2f361e37d061b59a4560" target="_top" xlink:title="Method to publish a data to this node. ">
<polygon fill="white" stroke="black" points="637,-152.5 637,-171.5 777,-171.5 777,-152.5 637,-152.5"/>
<text text-anchor="middle" x="707" y="-159.5" font-family="Helvetica,sans-Serif" font-size="10.00">uORB::DeviceNode::publish</text>
</a>
</g>
</g>
<!-- Node12&#45;&gt;Node13 -->
<g id="edge12" class="edge"><title>Node12&#45;&gt;Node13</title>
<path fill="none" stroke="midnightblue" d="M601.383,-162C609.541,-162 618.115,-162 626.698,-162"/>
<polygon fill="midnightblue" stroke="midnightblue" points="626.753,-165.5 636.753,-162 626.753,-158.5 626.753,-165.5"/>
</g>
<!-- Node13&#45;&gt;Node5 -->
<g id="edge19" class="edge"><title>Node13&#45;&gt;Node5</title>
<path fill="none" stroke="midnightblue" d="M743.133,-152.436C766.46,-146.086 797.739,-137.571 825.262,-130.079"/>
<polygon fill="midnightblue" stroke="midnightblue" points="826.481,-133.374 835.21,-127.371 824.642,-126.62 826.481,-133.374"/>
</g>
<!-- Node14 -->
<g id="node14" class="node"><title>Node14</title>
<g id="a_node14"><a xlink:href="../../d0/d18/classu_o_r_b_1_1_device_node.html#abdae2690994dd47cce2b579b3785864f" target="_top" xlink:title="writes the published data to the internal buffer to be read by subscribers later. ...">
<polygon fill="white" stroke="black" points="823.5,-196.5 823.5,-215.5 954.5,-215.5 954.5,-196.5 823.5,-196.5"/>
<text text-anchor="middle" x="889" y="-203.5" font-family="Helvetica,sans-Serif" font-size="10.00">uORB::DeviceNode::write</text>
</a>
</g>
</g>
<!-- Node13&#45;&gt;Node14 -->
<g id="edge13" class="edge"><title>Node13&#45;&gt;Node14</title>
<path fill="none" stroke="midnightblue" d="M747.057,-171.547C774.065,-178.149 810.199,-186.982 839.118,-194.051"/>
<polygon fill="midnightblue" stroke="midnightblue" points="838.474,-197.497 849.019,-196.471 840.136,-190.697 838.474,-197.497"/>
</g>
<!-- Node19 -->
<g id="node19" class="node"><title>Node19</title>
<g id="a_node19"><a xlink:href="../../d9/d8a/classu_o_r_b_communicator_1_1_i_channel.html#a3f4690d7b897f5f568cfed2c31d7b734" target="_top" xlink:title="Sends the data message over the communication link. ">
<polygon fill="white" stroke="black" points="813,-147 813,-177 965,-177 965,-147 813,-147"/>
<text text-anchor="start" x="821" y="-165" font-family="Helvetica,sans-Serif" font-size="10.00">uORBCommunicator::IChannel</text>
<text text-anchor="middle" x="889" y="-154" font-family="Helvetica,sans-Serif" font-size="10.00">::send_message</text>
</a>
</g>
</g>
<!-- Node13&#45;&gt;Node19 -->
<g id="edge20" class="edge"><title>Node13&#45;&gt;Node19</title>
<path fill="none" stroke="midnightblue" d="M777.078,-162C785.486,-162 794.153,-162 802.761,-162"/>
<polygon fill="midnightblue" stroke="midnightblue" points="802.821,-165.5 812.821,-162 802.821,-158.5 802.821,-165.5"/>
</g>
<!-- Node14&#45;&gt;Node3 -->
<g id="edge16" class="edge"><title>Node14&#45;&gt;Node3</title>
<path fill="none" stroke="midnightblue" d="M911.089,-215.664C933.278,-225.704 969.311,-241.643 1001,-254 1006.19,-256.025 1011.7,-258.067 1017.15,-260.023"/>
<polygon fill="midnightblue" stroke="midnightblue" points="1016.19,-263.399 1026.79,-263.429 1018.53,-256.798 1016.19,-263.399"/>
</g>
<!-- Node15 -->
<g id="node15" class="node"><title>Node15</title>
<g id="a_node15"><a xlink:href="../../db/dcf/classdevice_1_1_c_dev.html#a532f13f26f056bd17931efe7db10260e" target="_top" xlink:title="Take the driver lock. ">
<polygon fill="white" stroke="black" points="1006,-137.5 1006,-156.5 1107,-156.5 1107,-137.5 1006,-137.5"/>
<text text-anchor="middle" x="1056.5" y="-144.5" font-family="Helvetica,sans-Serif" font-size="10.00">device::CDev::lock</text>
</a>
</g>
</g>
<!-- Node14&#45;&gt;Node15 -->
<g id="edge14" class="edge"><title>Node14&#45;&gt;Node15</title>
<path fill="none" stroke="midnightblue" d="M935.813,-196.402C945.596,-193.798 955.76,-190.665 965,-187 982.014,-180.252 984.358,-174.62 1001,-167 1006.15,-164.64 1011.68,-162.351 1017.15,-160.216"/>
<polygon fill="midnightblue" stroke="midnightblue" points="1018.75,-163.356 1026.88,-156.559 1016.28,-156.804 1018.75,-163.356"/>
</g>
<!-- Node16 -->
<g id="node16" class="node"><title>Node16</title>
<g id="a_node16"><a xlink:href="../../db/dcf/classdevice_1_1_c_dev.html#af34c341f89cc744e2f327ec01ed5e4dd" target="_top" xlink:title="Release the driver lock. ">
<polygon fill="white" stroke="black" points="1001,-225.5 1001,-244.5 1112,-244.5 1112,-225.5 1001,-225.5"/>
<text text-anchor="middle" x="1056.5" y="-232.5" font-family="Helvetica,sans-Serif" font-size="10.00">device::CDev::unlock</text>
</a>
</g>
</g>
<!-- Node14&#45;&gt;Node16 -->
<g id="edge15" class="edge"><title>Node14&#45;&gt;Node16</title>
<path fill="none" stroke="midnightblue" d="M944.65,-215.576C959.556,-218.188 975.843,-221.042 991.231,-223.738"/>
<polygon fill="midnightblue" stroke="midnightblue" points="990.736,-227.205 1001.19,-225.483 991.944,-220.31 990.736,-227.205"/>
</g>
<!-- Node17 -->
<g id="node17" class="node"><title>Node17</title>
<g id="a_node17"><a xlink:href="../../db/dcf/classdevice_1_1_c_dev.html#ad40710ea69dbc93561f7b0e3ae3d8435" target="_top" xlink:title="Report new poll events. ">
<polygon fill="white" stroke="black" points="1007.5,-176 1007.5,-206 1105.5,-206 1105.5,-176 1007.5,-176"/>
<text text-anchor="start" x="1015.5" y="-194" font-family="Helvetica,sans-Serif" font-size="10.00">device::CDev::poll</text>
<text text-anchor="middle" x="1056.5" y="-183" font-family="Helvetica,sans-Serif" font-size="10.00">_notify</text>
</a>
</g>
</g>
<!-- Node14&#45;&gt;Node17 -->
<g id="edge17" class="edge"><title>Node14&#45;&gt;Node17</title>
<path fill="none" stroke="midnightblue" d="M954.935,-200.115C968.863,-198.852 983.497,-197.526 997.157,-196.288"/>
<polygon fill="midnightblue" stroke="midnightblue" points="997.742,-199.749 1007.38,-195.361 997.11,-192.778 997.742,-199.749"/>
</g>
<!-- Node18 -->
<g id="node18" class="node"><title>Node18</title>
<g id="a_node18"><a xlink:href="../../db/dcf/classdevice_1_1_c_dev.html#a152b2568dfbe9a096dcc38cca4a15106" target="_top" xlink:title="Internal implementation of poll_notify. ">
<polygon fill="white" stroke="black" points="1148,-176 1148,-206 1246,-206 1246,-176 1148,-176"/>
<text text-anchor="start" x="1156" y="-194" font-family="Helvetica,sans-Serif" font-size="10.00">device::CDev::poll</text>
<text text-anchor="middle" x="1197" y="-183" font-family="Helvetica,sans-Serif" font-size="10.00">_notify_one</text>
</a>
</g>
</g>
<!-- Node17&#45;&gt;Node18 -->
<g id="edge18" class="edge"><title>Node17&#45;&gt;Node18</title>
<path fill="none" stroke="midnightblue" d="M1105.55,-191C1115.85,-191 1126.85,-191 1137.5,-191"/>
<polygon fill="midnightblue" stroke="midnightblue" points="1137.56,-194.5 1147.56,-191 1137.56,-187.5 1137.56,-194.5"/>
</g>
</g>
</svg>
