<?xml version="1.0" encoding="UTF-8" standalone="no"?>
<!DOCTYPE svg PUBLIC "-//W3C//DTD SVG 1.1//EN"
 "http://www.w3.org/Graphics/SVG/1.1/DTD/svg11.dtd">
<!-- Generated by graphviz version 2.38.0 (20140413.2041)
 -->
<!-- Title: FXOS8701CQ::mag_set_samplerate Pages: 1 -->
<svg width="847pt" height="104pt"
 viewBox="0.00 0.00 847.00 104.00" xmlns="http://www.w3.org/2000/svg" xmlns:xlink="http://www.w3.org/1999/xlink">
<g id="graph0" class="graph" transform="scale(1 1) rotate(0) translate(4 100)">
<title>FXOS8701CQ::mag_set_samplerate</title>
<polygon fill="white" stroke="none" points="-4,4 -4,-100 843,-100 843,4 -4,4"/>
<!-- Node1 -->
<g id="node1" class="node"><title>Node1</title>
<polygon fill="#bfbfbf" stroke="black" points="0,-33 0,-63 123,-63 123,-33 0,-33"/>
<text text-anchor="start" x="8" y="-51" font-family="Helvetica,sans-Serif" font-size="10.00">FXOS8701CQ::mag_set</text>
<text text-anchor="middle" x="61.5" y="-40" font-family="Helvetica,sans-Serif" font-size="10.00">_samplerate</text>
</g>
<!-- Node2 -->
<g id="node2" class="node"><title>Node2</title>
<g id="a_node2"><a xlink:href="../../db/d27/class_f_x_o_s8701_c_q.html#a13ae8e2b03f0bf7c924cc4ac11cad1a4" target="_top" xlink:title="FXOS8701CQ::mag_ioctl">
<polygon fill="white" stroke="black" points="159,-38.5 159,-57.5 287,-57.5 287,-38.5 159,-38.5"/>
<text text-anchor="middle" x="223" y="-45.5" font-family="Helvetica,sans-Serif" font-size="10.00">FXOS8701CQ::mag_ioctl</text>
</a>
</g>
</g>
<!-- Node1&#45;&gt;Node2 -->
<g id="edge1" class="edge"><title>Node1&#45;&gt;Node2</title>
<path fill="none" stroke="midnightblue" d="M133.45,-48C141.883,-48 150.449,-48 158.765,-48"/>
<polygon fill="midnightblue" stroke="midnightblue" points="133.255,-44.5001 123.255,-48 133.255,-51.5001 133.255,-44.5001"/>
</g>
<!-- Node3 -->
<g id="node3" class="node"><title>Node3</title>
<g id="a_node3"><a xlink:href="../../db/d23/class_f_x_o_s8701_c_q__mag.html#a43c0b90480252608c9dda68a5403d7df" target="_top" xlink:title="FXOS8701CQ_mag::ioctl">
<polygon fill="white" stroke="black" points="323,-38.5 323,-57.5 451,-57.5 451,-38.5 323,-38.5"/>
<text text-anchor="middle" x="387" y="-45.5" font-family="Helvetica,sans-Serif" font-size="10.00">FXOS8701CQ_mag::ioctl</text>
</a>
</g>
</g>
<!-- Node2&#45;&gt;Node3 -->
<g id="edge2" class="edge"><title>Node2&#45;&gt;Node3</title>
<path fill="none" stroke="midnightblue" d="M297.374,-48C305.865,-48 314.469,-48 322.808,-48"/>
<polygon fill="midnightblue" stroke="midnightblue" points="297.097,-44.5001 287.097,-48 297.097,-51.5001 297.097,-44.5001"/>
</g>
<!-- Node4 -->
<g id="node4" class="node"><title>Node4</title>
<g id="a_node4"><a xlink:href="../../dd/d38/namespacefxos8701cq.html#af1083744722ff59f6f271098b04454b4" target="_top" xlink:title="Start the driver. ">
<polygon fill="white" stroke="black" points="618,-76.5 618,-95.5 710,-95.5 710,-76.5 618,-76.5"/>
<text text-anchor="middle" x="664" y="-83.5" font-family="Helvetica,sans-Serif" font-size="10.00">fxos8701cq::start</text>
</a>
</g>
</g>
<!-- Node3&#45;&gt;Node4 -->
<g id="edge3" class="edge"><title>Node3&#45;&gt;Node4</title>
<path fill="none" stroke="midnightblue" d="M461.242,-58.399C469.923,-59.6192 478.658,-60.8415 487,-62 531.443,-68.1726 582.221,-75.0815 617.776,-79.8957"/>
<polygon fill="midnightblue" stroke="midnightblue" points="461.495,-54.9001 451.104,-56.9715 460.519,-61.8317 461.495,-54.9001"/>
</g>
<!-- Node6 -->
<g id="node6" class="node"><title>Node6</title>
<g id="a_node6"><a xlink:href="../../dd/d38/namespacefxos8701cq.html#afe3a68cfa922375cce5904bd7b05e2e2" target="_top" xlink:title="Perform some basic functional tests on the driver; make sure we can collect data from the sensor in p...">
<polygon fill="white" stroke="black" points="619.5,-38.5 619.5,-57.5 708.5,-57.5 708.5,-38.5 619.5,-38.5"/>
<text text-anchor="middle" x="664" y="-45.5" font-family="Helvetica,sans-Serif" font-size="10.00">fxos8701cq::test</text>
</a>
</g>
</g>
<!-- Node3&#45;&gt;Node6 -->
<g id="edge5" class="edge"><title>Node3&#45;&gt;Node6</title>
<path fill="none" stroke="midnightblue" d="M461.292,-48C511.734,-48 577.043,-48 619.469,-48"/>
<polygon fill="midnightblue" stroke="midnightblue" points="461.091,-44.5001 451.091,-48 461.091,-51.5001 461.091,-44.5001"/>
</g>
<!-- Node7 -->
<g id="node7" class="node"><title>Node7</title>
<g id="a_node7"><a xlink:href="../../dd/d38/namespacefxos8701cq.html#aaa2d45cc311826d361c9fc1010dc42ab" target="_top" xlink:title="Reset the driver. ">
<polygon fill="white" stroke="black" points="487,-0.5 487,-19.5 582,-19.5 582,-0.5 487,-0.5"/>
<text text-anchor="middle" x="534.5" y="-7.5" font-family="Helvetica,sans-Serif" font-size="10.00">fxos8701cq::reset</text>
</a>
</g>
</g>
<!-- Node3&#45;&gt;Node7 -->
<g id="edge7" class="edge"><title>Node3&#45;&gt;Node7</title>
<path fill="none" stroke="midnightblue" d="M434.653,-35.8157C454.853,-30.54 478.148,-24.4562 497.048,-19.5201"/>
<polygon fill="midnightblue" stroke="midnightblue" points="433.507,-32.4976 424.716,-38.411 435.276,-39.2704 433.507,-32.4976"/>
</g>
<!-- Node5 -->
<g id="node5" class="node"><title>Node5</title>
<g id="a_node5"><a xlink:href="../../df/dc2/fxos8701cq_8cpp.html#abb6795591a4bc49ca6455a6a087d8fcc" target="_top" xlink:title="fxos8701cq_main">
<polygon fill="white" stroke="black" points="746,-38.5 746,-57.5 839,-57.5 839,-38.5 746,-38.5"/>
<text text-anchor="middle" x="792.5" y="-45.5" font-family="Helvetica,sans-Serif" font-size="10.00">fxos8701cq_main</text>
</a>
</g>
</g>
<!-- Node4&#45;&gt;Node5 -->
<g id="edge4" class="edge"><title>Node4&#45;&gt;Node5</title>
<path fill="none" stroke="midnightblue" d="M706.729,-73.4647C723.938,-68.2952 743.56,-62.4009 759.589,-57.5859"/>
<polygon fill="midnightblue" stroke="midnightblue" points="705.492,-70.1819 696.921,-76.411 707.505,-76.886 705.492,-70.1819"/>
</g>
<!-- Node6&#45;&gt;Node5 -->
<g id="edge6" class="edge"><title>Node6&#45;&gt;Node5</title>
<path fill="none" stroke="midnightblue" d="M718.579,-48C727.613,-48 736.917,-48 745.73,-48"/>
<polygon fill="midnightblue" stroke="midnightblue" points="718.534,-44.5001 708.534,-48 718.534,-51.5001 718.534,-44.5001"/>
</g>
<!-- Node7&#45;&gt;Node5 -->
<g id="edge9" class="edge"><title>Node7&#45;&gt;Node5</title>
<path fill="none" stroke="midnightblue" d="M592.286,-14.4386C626.526,-17.5474 670.932,-22.3441 710,-29 724.752,-31.5133 740.827,-35.0799 754.771,-38.4453"/>
<polygon fill="midnightblue" stroke="midnightblue" points="592.273,-10.9239 582.004,-13.5278 591.656,-17.8966 592.273,-10.9239"/>
</g>
<!-- Node7&#45;&gt;Node6 -->
<g id="edge8" class="edge"><title>Node7&#45;&gt;Node6</title>
<path fill="none" stroke="midnightblue" d="M577.559,-22.5353C594.904,-27.7048 614.681,-33.5991 630.837,-38.4141"/>
<polygon fill="midnightblue" stroke="midnightblue" points="578.257,-19.0911 567.674,-19.589 576.257,-25.7995 578.257,-19.0911"/>
</g>
</g>
</svg>
