<?xml version="1.0" encoding="UTF-8" standalone="no"?>
<!DOCTYPE svg PUBLIC "-//W3C//DTD SVG 1.1//EN"
 "http://www.w3.org/Graphics/SVG/1.1/DTD/svg11.dtd">
<!-- Generated by graphviz version 2.38.0 (20140413.2041)
 -->
<!-- Title: FXOS8701CQ::mag_set_range Pages: 1 -->
<!--zoomable 109 -->
<svg id="main" version="1.1" xmlns="http://www.w3.org/2000/svg" xmlns:xlink="http://www.w3.org/1999/xlink" xml:space="preserve" onload="init(evt)">
<style type="text/css"><![CDATA[
.edge:hover path { stroke: red; }
.edge:hover polygon { stroke: red; fill: red; }
]]></style>
<script type="text/javascript"><![CDATA[
var edges = document.getElementsByTagName('g');
if (edges && edges.length) {
  for (var i=0;i<edges.length;i++) {
    if (edges[i].id.substr(0,4)=='edge') {
      edges[i].setAttribute('class','edge');
    }
  }
}
]]></script>
        <defs>
                <circle id="rim" cx="0" cy="0" r="7"/>
                <circle id="rim2" cx="0" cy="0" r="3.5"/>
                <g id="zoomPlus">
                        <use xlink:href="#rim" fill="#404040">
                                <set attributeName="fill" to="#808080" begin="zoomplus.mouseover" end="zoomplus.mouseout"/>
                        </use>
                        <path d="M-4,0h8M0,-4v8" fill="none" stroke="white" stroke-width="1.5" pointer-events="none"/>
                </g>
                <g id="zoomMin">
                        <use xlink:href="#rim" fill="#404040">
                                <set attributeName="fill" to="#808080" begin="zoomminus.mouseover" end="zoomminus.mouseout"/>
                        </use>
                        <path d="M-4,0h8" fill="none" stroke="white" stroke-width="1.5" pointer-events="none"/>
                </g>
                <g id="dirArrow">
                        <path fill="none" stroke="white" stroke-width="1.5" d="M0,-3.0v7 M-2.5,-0.5L0,-3.0L2.5,-0.5"/>
                </g>
               <g id="resetDef">
                       <use xlink:href="#rim2" fill="#404040">
                               <set attributeName="fill" to="#808080" begin="reset.mouseover" end="reset.mouseout"/>
                       </use>
               </g>
        </defs>

<script type="text/javascript">
var viewWidth = 987;
var viewHeight = 109;
var sectionId = 'dynsection-24';
</script>
<script xlink:href="../../svgpan.js"/>
<svg id="graph" class="graph">
<g id="viewport">
<title>FXOS8701CQ::mag_set_range</title>
<polygon fill="white" stroke="none" points="-4,4 -4,-105 983,-105 983,4 -4,4"/>
<!-- Node1 -->
<g id="node1" class="node"><title>Node1</title>
<polygon fill="#bfbfbf" stroke="black" points="0,-47 0,-77 123,-77 123,-47 0,-47"/>
<text text-anchor="start" x="8" y="-65" font-family="Helvetica,sans-Serif" font-size="10.00">FXOS8701CQ::mag_set</text>
<text text-anchor="middle" x="61.5" y="-54" font-family="Helvetica,sans-Serif" font-size="10.00">_range</text>
</g>
<!-- Node2 -->
<g id="node2" class="node"><title>Node2</title>
<g id="a_node2"><a xlink:href="../../db/d27/class_f_x_o_s8701_c_q.html#a38008fa0c43b5d222d37f85d2ad3b820" target="_top" xlink:title="Reset chip. ">
<polygon fill="white" stroke="black" points="159,-52.5 159,-71.5 266,-71.5 266,-52.5 159,-52.5"/>
<text text-anchor="middle" x="212.5" y="-59.5" font-family="Helvetica,sans-Serif" font-size="10.00">FXOS8701CQ::reset</text>
</a>
</g>
</g>
<!-- Node1&#45;&gt;Node2 -->
<g id="edge1" class="edge"><title>Node1&#45;&gt;Node2</title>
<path fill="none" stroke="midnightblue" d="M133.115,-62C141.694,-62 150.341,-62 158.601,-62"/>
<polygon fill="midnightblue" stroke="midnightblue" points="133.104,-58.5001 123.104,-62 133.104,-65.5001 133.104,-58.5001"/>
</g>
<!-- Node3 -->
<g id="node3" class="node"><title>Node3</title>
<g id="a_node3"><a xlink:href="../../db/d27/class_f_x_o_s8701_c_q.html#a84d7a1b2c731f53cfeaeafea9d4d79e5" target="_top" xlink:title="FXOS8701CQ::init">
<polygon fill="white" stroke="black" points="481,-81.5 481,-100.5 579,-100.5 579,-81.5 481,-81.5"/>
<text text-anchor="middle" x="530" y="-88.5" font-family="Helvetica,sans-Serif" font-size="10.00">FXOS8701CQ::init</text>
</a>
</g>
</g>
<!-- Node2&#45;&gt;Node3 -->
<g id="edge2" class="edge"><title>Node2&#45;&gt;Node3</title>
<path fill="none" stroke="midnightblue" d="M260.986,-73.7239C274.189,-76.565 288.586,-79.2769 302,-81 363.429,-88.8906 434.889,-90.864 480.972,-91.2103"/>
<polygon fill="midnightblue" stroke="midnightblue" points="261.679,-70.2927 251.158,-71.5403 260.161,-77.1261 261.679,-70.2927"/>
</g>
<!-- Node6 -->
<g id="node6" class="node"><title>Node6</title>
<g id="a_node6"><a xlink:href="../../db/d27/class_f_x_o_s8701_c_q.html#a5dc4a51b71a66cb35f9179c29e9031f7" target="_top" xlink:title="FXOS8701CQ::ioctl">
<polygon fill="white" stroke="black" points="314,-52.5 314,-71.5 418,-71.5 418,-52.5 314,-52.5"/>
<text text-anchor="middle" x="366" y="-59.5" font-family="Helvetica,sans-Serif" font-size="10.00">FXOS8701CQ::ioctl</text>
</a>
</g>
</g>
<!-- Node2&#45;&gt;Node6 -->
<g id="edge5" class="edge"><title>Node2&#45;&gt;Node6</title>
<path fill="none" stroke="midnightblue" d="M276.388,-62C288.851,-62 301.792,-62 313.809,-62"/>
<polygon fill="midnightblue" stroke="midnightblue" points="276.062,-58.5001 266.062,-62 276.062,-65.5001 276.062,-58.5001"/>
</g>
<!-- Node7 -->
<g id="node7" class="node"><title>Node7</title>
<g id="a_node7"><a xlink:href="../../db/d27/class_f_x_o_s8701_c_q.html#a13ae8e2b03f0bf7c924cc4ac11cad1a4" target="_top" xlink:title="FXOS8701CQ::mag_ioctl">
<polygon fill="white" stroke="black" points="302,-14.5 302,-33.5 430,-33.5 430,-14.5 302,-14.5"/>
<text text-anchor="middle" x="366" y="-21.5" font-family="Helvetica,sans-Serif" font-size="10.00">FXOS8701CQ::mag_ioctl</text>
</a>
</g>
</g>
<!-- Node2&#45;&gt;Node7 -->
<g id="edge6" class="edge"><title>Node2&#45;&gt;Node7</title>
<path fill="none" stroke="midnightblue" d="M261.502,-49.96C282.667,-44.6512 307.186,-38.5012 327.045,-33.5201"/>
<polygon fill="midnightblue" stroke="midnightblue" points="260.578,-46.5832 251.73,-52.411 262.281,-53.3729 260.578,-46.5832"/>
</g>
<!-- Node4 -->
<g id="node4" class="node"><title>Node4</title>
<g id="a_node4"><a xlink:href="../../dd/d38/namespacefxos8701cq.html#af1083744722ff59f6f271098b04454b4" target="_top" xlink:title="Start the driver. ">
<polygon fill="white" stroke="black" points="631.5,-76.5 631.5,-95.5 723.5,-95.5 723.5,-76.5 631.5,-76.5"/>
<text text-anchor="middle" x="677.5" y="-83.5" font-family="Helvetica,sans-Serif" font-size="10.00">fxos8701cq::start</text>
</a>
</g>
</g>
<!-- Node3&#45;&gt;Node4 -->
<g id="edge3" class="edge"><title>Node3&#45;&gt;Node4</title>
<path fill="none" stroke="midnightblue" d="M589.138,-89.0021C603.228,-88.5179 618.081,-88.0075 631.462,-87.5477"/>
<polygon fill="midnightblue" stroke="midnightblue" points="588.919,-85.5075 579.045,-89.349 589.16,-92.5034 588.919,-85.5075"/>
</g>
<!-- Node5 -->
<g id="node5" class="node"><title>Node5</title>
<g id="a_node5"><a xlink:href="../../df/dc2/fxos8701cq_8cpp.html#abb6795591a4bc49ca6455a6a087d8fcc" target="_top" xlink:title="fxos8701cq_main">
<polygon fill="white" stroke="black" points="886,-38.5 886,-57.5 979,-57.5 979,-38.5 886,-38.5"/>
<text text-anchor="middle" x="932.5" y="-45.5" font-family="Helvetica,sans-Serif" font-size="10.00">fxos8701cq_main</text>
</a>
</g>
</g>
<!-- Node4&#45;&gt;Node5 -->
<g id="edge4" class="edge"><title>Node4&#45;&gt;Node5</title>
<path fill="none" stroke="midnightblue" d="M733.957,-81.5381C767.655,-78.4103 811.468,-73.6018 850,-67 864.75,-64.4729 880.824,-60.9036 894.769,-57.5398"/>
<polygon fill="midnightblue" stroke="midnightblue" points="733.484,-78.0666 723.841,-82.455 734.116,-85.038 733.484,-78.0666"/>
</g>
<!-- Node8 -->
<g id="node8" class="node"><title>Node8</title>
<g id="a_node8"><a xlink:href="../../db/d23/class_f_x_o_s8701_c_q__mag.html#a43c0b90480252608c9dda68a5403d7df" target="_top" xlink:title="FXOS8701CQ_mag::ioctl">
<polygon fill="white" stroke="black" points="466,-33.5 466,-52.5 594,-52.5 594,-33.5 466,-33.5"/>
<text text-anchor="middle" x="530" y="-40.5" font-family="Helvetica,sans-Serif" font-size="10.00">FXOS8701CQ_mag::ioctl</text>
</a>
</g>
</g>
<!-- Node7&#45;&gt;Node8 -->
<g id="edge7" class="edge"><title>Node7&#45;&gt;Node8</title>
<path fill="none" stroke="midnightblue" d="M440.094,-32.5727C448.676,-33.5793 457.378,-34.5998 465.808,-35.5886"/>
<polygon fill="midnightblue" stroke="midnightblue" points="440.437,-29.0891 430.097,-31.4003 439.621,-36.0414 440.437,-29.0891"/>
</g>
<!-- Node8&#45;&gt;Node4 -->
<g id="edge8" class="edge"><title>Node8&#45;&gt;Node4</title>
<path fill="none" stroke="midnightblue" d="M573.012,-55.4159C595.716,-62.1257 623.314,-70.2819 644.299,-76.4836"/>
<polygon fill="midnightblue" stroke="midnightblue" points="573.873,-52.0208 563.291,-52.5431 571.889,-58.7338 573.873,-52.0208"/>
</g>
<!-- Node9 -->
<g id="node9" class="node"><title>Node9</title>
<g id="a_node9"><a xlink:href="../../dd/d38/namespacefxos8701cq.html#afe3a68cfa922375cce5904bd7b05e2e2" target="_top" xlink:title="Perform some basic functional tests on the driver; make sure we can collect data from the sensor in p...">
<polygon fill="white" stroke="black" points="761,-38.5 761,-57.5 850,-57.5 850,-38.5 761,-38.5"/>
<text text-anchor="middle" x="805.5" y="-45.5" font-family="Helvetica,sans-Serif" font-size="10.00">fxos8701cq::test</text>
</a>
</g>
</g>
<!-- Node8&#45;&gt;Node9 -->
<g id="edge9" class="edge"><title>Node8&#45;&gt;Node9</title>
<path fill="none" stroke="midnightblue" d="M604.205,-44.3383C654.208,-45.2524 718.786,-46.433 760.901,-47.2029"/>
<polygon fill="midnightblue" stroke="midnightblue" points="604.152,-40.8368 594.09,-44.1534 604.024,-47.8357 604.152,-40.8368"/>
</g>
<!-- Node10 -->
<g id="node10" class="node"><title>Node10</title>
<g id="a_node10"><a xlink:href="../../dd/d38/namespacefxos8701cq.html#aaa2d45cc311826d361c9fc1010dc42ab" target="_top" xlink:title="Reset the driver. ">
<polygon fill="white" stroke="black" points="630,-0.5 630,-19.5 725,-19.5 725,-0.5 630,-0.5"/>
<text text-anchor="middle" x="677.5" y="-7.5" font-family="Helvetica,sans-Serif" font-size="10.00">fxos8701cq::reset</text>
</a>
</g>
</g>
<!-- Node8&#45;&gt;Node10 -->
<g id="edge11" class="edge"><title>Node8&#45;&gt;Node10</title>
<path fill="none" stroke="midnightblue" d="M582.839,-31.2427C599.784,-27.3995 618.383,-23.1812 634.51,-19.5235"/>
<polygon fill="midnightblue" stroke="midnightblue" points="582.063,-27.8298 573.085,-33.455 583.611,-34.6564 582.063,-27.8298"/>
</g>
<!-- Node9&#45;&gt;Node5 -->
<g id="edge10" class="edge"><title>Node9&#45;&gt;Node5</title>
<path fill="none" stroke="midnightblue" d="M860.425,-48C868.914,-48 877.619,-48 885.897,-48"/>
<polygon fill="midnightblue" stroke="midnightblue" points="860.219,-44.5001 850.219,-48 860.219,-51.5001 860.219,-44.5001"/>
</g>
<!-- Node10&#45;&gt;Node5 -->
<g id="edge13" class="edge"><title>Node10&#45;&gt;Node5</title>
<path fill="none" stroke="midnightblue" d="M735.367,-14.5932C768.871,-17.7237 812.003,-22.4899 850,-29 864.75,-31.5271 880.824,-35.0964 894.769,-38.4602"/>
<polygon fill="midnightblue" stroke="midnightblue" points="735.572,-11.0974 725.295,-13.674 734.935,-18.0684 735.572,-11.0974"/>
</g>
<!-- Node10&#45;&gt;Node9 -->
<g id="edge12" class="edge"><title>Node10&#45;&gt;Node9</title>
<path fill="none" stroke="midnightblue" d="M720.064,-22.5353C737.205,-27.7048 756.75,-33.5991 772.715,-38.4141"/>
<polygon fill="midnightblue" stroke="midnightblue" points="720.88,-19.1256 710.295,-19.589 718.859,-25.8274 720.88,-19.1256"/>
</g>
</g>
</svg>
        <g id="navigator" transform="translate(0 0)" fill="#404254">
                <rect fill="#f2f5e9" fill-opacity="0.5" stroke="#606060" stroke-width=".5" x="0" y="0" width="60" height="60"/>
                <use id="zoomplus" xlink:href="#zoomPlus" x="17" y="9" onmousedown="handleZoom(evt,'in')"/>
                <use id="zoomminus" xlink:href="#zoomMin" x="42" y="9" onmousedown="handleZoom(evt,'out')"/>
                <use id="reset" xlink:href="#resetDef" x="30" y="36" onmousedown="handleReset()"/>
                <g id="arrowUp" xlink:href="#dirArrow" transform="translate(30 24)" onmousedown="handlePan(0,-1)">
                  <use xlink:href="#rim" fill="#404040">
                        <set attributeName="fill" to="#808080" begin="arrowUp.mouseover" end="arrowUp.mouseout"/>
                  </use>
                  <path fill="none" stroke="white" stroke-width="1.5" d="M0,-3.0v7 M-2.5,-0.5L0,-3.0L2.5,-0.5"/>
                </g>
                <g id="arrowRight" xlink:href="#dirArrow" transform="rotate(90) translate(36 -43)" onmousedown="handlePan(1,0)">
                  <use xlink:href="#rim" fill="#404040">
                        <set attributeName="fill" to="#808080" begin="arrowRight.mouseover" end="arrowRight.mouseout"/>
                  </use>
                  <path fill="none" stroke="white" stroke-width="1.5" d="M0,-3.0v7 M-2.5,-0.5L0,-3.0L2.5,-0.5"/>
                </g>
                <g id="arrowDown" xlink:href="#dirArrow" transform="rotate(180) translate(-30 -48)" onmousedown="handlePan(0,1)">
                  <use xlink:href="#rim" fill="#404040">
                        <set attributeName="fill" to="#808080" begin="arrowDown.mouseover" end="arrowDown.mouseout"/>
                  </use>
                  <path fill="none" stroke="white" stroke-width="1.5" d="M0,-3.0v7 M-2.5,-0.5L0,-3.0L2.5,-0.5"/>
                </g>
                <g id="arrowLeft" xlink:href="#dirArrow" transform="rotate(270) translate(-36 17)" onmousedown="handlePan(-1,0)">
                  <use xlink:href="#rim" fill="#404040">
                        <set attributeName="fill" to="#808080" begin="arrowLeft.mouseover" end="arrowLeft.mouseout"/>
                  </use>
                  <path fill="none" stroke="white" stroke-width="1.5" d="M0,-3.0v7 M-2.5,-0.5L0,-3.0L2.5,-0.5"/>
                </g>
        </g>
        <svg viewBox="0 0 15 15" width="100%" height="30px" preserveAspectRatio="xMaxYMin meet">
         <g id="arrow_out" transform="scale(0.3 0.3)">
          <a xlink:href="class_f_x_o_s8701_c_q_ac150a0632ad4ca69436ffdc488b3a3cd_icgraph_org.svg" target="_base">
           <rect id="button" ry="5" rx="5" y="6" x="6" height="38" width="38"
                fill="#f2f5e9" fill-opacity="0.5" stroke="#606060" stroke-width="1.0"/>
           <path id="arrow"
             d="M 11.500037,31.436501 C 11.940474,20.09759 22.043105,11.32322 32.158766,21.979434 L 37.068811,17.246167 C 37.068811,17.246167 37.088388,32 37.088388,32 L 22.160133,31.978069 C 22.160133,31.978069 26.997745,27.140456 26.997745,27.140456 C 18.528582,18.264221 13.291696,25.230495 11.500037,31.436501 z"
             style="fill:#404040;"/>
          </a>
         </g>
        </svg>
</svg>
