<?xml version="1.0" encoding="UTF-8" standalone="no"?>
<!DOCTYPE svg PUBLIC "-//W3C//DTD SVG 1.1//EN"
 "http://www.w3.org/Graphics/SVG/1.1/DTD/svg11.dtd">
<!-- Generated by graphviz version 2.38.0 (20140413.2041)
 -->
<!-- Title: FXOS8701CQ::start Pages: 1 -->
<svg width="829pt" height="104pt"
 viewBox="0.00 0.00 829.00 104.00" xmlns="http://www.w3.org/2000/svg" xmlns:xlink="http://www.w3.org/1999/xlink">
<g id="graph0" class="graph" transform="scale(1 1) rotate(0) translate(4 100)">
<title>FXOS8701CQ::start</title>
<polygon fill="white" stroke="none" points="-4,4 -4,-100 825,-100 825,4 -4,4"/>
<!-- Node1 -->
<g id="node1" class="node"><title>Node1</title>
<polygon fill="#bfbfbf" stroke="black" points="0,-57.5 0,-76.5 105,-76.5 105,-57.5 0,-57.5"/>
<text text-anchor="middle" x="52.5" y="-64.5" font-family="Helvetica,sans-Serif" font-size="10.00">FXOS8701CQ::start</text>
</g>
<!-- Node2 -->
<g id="node2" class="node"><title>Node2</title>
<g id="a_node2"><a xlink:href="../../db/d27/class_f_x_o_s8701_c_q.html#a5dc4a51b71a66cb35f9179c29e9031f7" target="_top" xlink:title="FXOS8701CQ::ioctl">
<polygon fill="white" stroke="black" points="153,-76.5 153,-95.5 257,-95.5 257,-76.5 153,-76.5"/>
<text text-anchor="middle" x="205" y="-83.5" font-family="Helvetica,sans-Serif" font-size="10.00">FXOS8701CQ::ioctl</text>
</a>
</g>
</g>
<!-- Node1&#45;&gt;Node2 -->
<g id="edge1" class="edge"><title>Node1&#45;&gt;Node2</title>
<path fill="none" stroke="midnightblue" d="M115.571,-74.8362C127.981,-76.403 140.885,-78.032 152.875,-79.5457"/>
<polygon fill="midnightblue" stroke="midnightblue" points="115.653,-71.3189 105.294,-73.5387 114.776,-78.2638 115.653,-71.3189"/>
</g>
<!-- Node3 -->
<g id="node3" class="node"><title>Node3</title>
<g id="a_node3"><a xlink:href="../../db/d27/class_f_x_o_s8701_c_q.html#a13ae8e2b03f0bf7c924cc4ac11cad1a4" target="_top" xlink:title="FXOS8701CQ::mag_ioctl">
<polygon fill="white" stroke="black" points="141,-38.5 141,-57.5 269,-57.5 269,-38.5 141,-38.5"/>
<text text-anchor="middle" x="205" y="-45.5" font-family="Helvetica,sans-Serif" font-size="10.00">FXOS8701CQ::mag_ioctl</text>
</a>
</g>
</g>
<!-- Node1&#45;&gt;Node3 -->
<g id="edge2" class="edge"><title>Node1&#45;&gt;Node3</title>
<path fill="none" stroke="midnightblue" d="M115.421,-59.1827C123.842,-58.1197 132.492,-57.0276 140.932,-55.962"/>
<polygon fill="midnightblue" stroke="midnightblue" points="114.776,-55.7362 105.294,-60.4613 115.653,-62.6811 114.776,-55.7362"/>
</g>
<!-- Node4 -->
<g id="node4" class="node"><title>Node4</title>
<g id="a_node4"><a xlink:href="../../db/d23/class_f_x_o_s8701_c_q__mag.html#a43c0b90480252608c9dda68a5403d7df" target="_top" xlink:title="FXOS8701CQ_mag::ioctl">
<polygon fill="white" stroke="black" points="305,-38.5 305,-57.5 433,-57.5 433,-38.5 305,-38.5"/>
<text text-anchor="middle" x="369" y="-45.5" font-family="Helvetica,sans-Serif" font-size="10.00">FXOS8701CQ_mag::ioctl</text>
</a>
</g>
</g>
<!-- Node3&#45;&gt;Node4 -->
<g id="edge3" class="edge"><title>Node3&#45;&gt;Node4</title>
<path fill="none" stroke="midnightblue" d="M279.374,-48C287.865,-48 296.469,-48 304.808,-48"/>
<polygon fill="midnightblue" stroke="midnightblue" points="279.097,-44.5001 269.097,-48 279.097,-51.5001 279.097,-44.5001"/>
</g>
<!-- Node5 -->
<g id="node5" class="node"><title>Node5</title>
<g id="a_node5"><a xlink:href="../../dd/d38/namespacefxos8701cq.html#af1083744722ff59f6f271098b04454b4" target="_top" xlink:title="Start the driver. ">
<polygon fill="white" stroke="black" points="600,-76.5 600,-95.5 692,-95.5 692,-76.5 600,-76.5"/>
<text text-anchor="middle" x="646" y="-83.5" font-family="Helvetica,sans-Serif" font-size="10.00">fxos8701cq::start</text>
</a>
</g>
</g>
<!-- Node4&#45;&gt;Node5 -->
<g id="edge4" class="edge"><title>Node4&#45;&gt;Node5</title>
<path fill="none" stroke="midnightblue" d="M443.242,-58.399C451.923,-59.6192 460.658,-60.8415 469,-62 513.443,-68.1726 564.221,-75.0815 599.776,-79.8957"/>
<polygon fill="midnightblue" stroke="midnightblue" points="443.495,-54.9001 433.104,-56.9715 442.519,-61.8317 443.495,-54.9001"/>
</g>
<!-- Node7 -->
<g id="node7" class="node"><title>Node7</title>
<g id="a_node7"><a xlink:href="../../dd/d38/namespacefxos8701cq.html#afe3a68cfa922375cce5904bd7b05e2e2" target="_top" xlink:title="Perform some basic functional tests on the driver; make sure we can collect data from the sensor in p...">
<polygon fill="white" stroke="black" points="601.5,-38.5 601.5,-57.5 690.5,-57.5 690.5,-38.5 601.5,-38.5"/>
<text text-anchor="middle" x="646" y="-45.5" font-family="Helvetica,sans-Serif" font-size="10.00">fxos8701cq::test</text>
</a>
</g>
</g>
<!-- Node4&#45;&gt;Node7 -->
<g id="edge6" class="edge"><title>Node4&#45;&gt;Node7</title>
<path fill="none" stroke="midnightblue" d="M443.292,-48C493.734,-48 559.043,-48 601.469,-48"/>
<polygon fill="midnightblue" stroke="midnightblue" points="443.091,-44.5001 433.091,-48 443.091,-51.5001 443.091,-44.5001"/>
</g>
<!-- Node8 -->
<g id="node8" class="node"><title>Node8</title>
<g id="a_node8"><a xlink:href="../../dd/d38/namespacefxos8701cq.html#aaa2d45cc311826d361c9fc1010dc42ab" target="_top" xlink:title="Reset the driver. ">
<polygon fill="white" stroke="black" points="469,-0.5 469,-19.5 564,-19.5 564,-0.5 469,-0.5"/>
<text text-anchor="middle" x="516.5" y="-7.5" font-family="Helvetica,sans-Serif" font-size="10.00">fxos8701cq::reset</text>
</a>
</g>
</g>
<!-- Node4&#45;&gt;Node8 -->
<g id="edge8" class="edge"><title>Node4&#45;&gt;Node8</title>
<path fill="none" stroke="midnightblue" d="M416.653,-35.8157C436.853,-30.54 460.148,-24.4562 479.048,-19.5201"/>
<polygon fill="midnightblue" stroke="midnightblue" points="415.507,-32.4976 406.716,-38.411 417.276,-39.2704 415.507,-32.4976"/>
</g>
<!-- Node6 -->
<g id="node6" class="node"><title>Node6</title>
<g id="a_node6"><a xlink:href="../../df/dc2/fxos8701cq_8cpp.html#abb6795591a4bc49ca6455a6a087d8fcc" target="_top" xlink:title="fxos8701cq_main">
<polygon fill="white" stroke="black" points="728,-38.5 728,-57.5 821,-57.5 821,-38.5 728,-38.5"/>
<text text-anchor="middle" x="774.5" y="-45.5" font-family="Helvetica,sans-Serif" font-size="10.00">fxos8701cq_main</text>
</a>
</g>
</g>
<!-- Node5&#45;&gt;Node6 -->
<g id="edge5" class="edge"><title>Node5&#45;&gt;Node6</title>
<path fill="none" stroke="midnightblue" d="M688.729,-73.4647C705.938,-68.2952 725.56,-62.4009 741.589,-57.5859"/>
<polygon fill="midnightblue" stroke="midnightblue" points="687.492,-70.1819 678.921,-76.411 689.505,-76.886 687.492,-70.1819"/>
</g>
<!-- Node7&#45;&gt;Node6 -->
<g id="edge7" class="edge"><title>Node7&#45;&gt;Node6</title>
<path fill="none" stroke="midnightblue" d="M700.579,-48C709.613,-48 718.917,-48 727.73,-48"/>
<polygon fill="midnightblue" stroke="midnightblue" points="700.534,-44.5001 690.534,-48 700.534,-51.5001 700.534,-44.5001"/>
</g>
<!-- Node8&#45;&gt;Node6 -->
<g id="edge10" class="edge"><title>Node8&#45;&gt;Node6</title>
<path fill="none" stroke="midnightblue" d="M574.286,-14.4386C608.526,-17.5474 652.932,-22.3441 692,-29 706.752,-31.5133 722.827,-35.0799 736.771,-38.4453"/>
<polygon fill="midnightblue" stroke="midnightblue" points="574.273,-10.9239 564.004,-13.5278 573.656,-17.8966 574.273,-10.9239"/>
</g>
<!-- Node8&#45;&gt;Node7 -->
<g id="edge9" class="edge"><title>Node8&#45;&gt;Node7</title>
<path fill="none" stroke="midnightblue" d="M559.559,-22.5353C576.904,-27.7048 596.681,-33.5991 612.837,-38.4141"/>
<polygon fill="midnightblue" stroke="midnightblue" points="560.257,-19.0911 549.674,-19.589 558.257,-25.7995 560.257,-19.0911"/>
</g>
</g>
</svg>
