<?xml version="1.0" encoding="UTF-8" standalone="no"?>
<!DOCTYPE svg PUBLIC "-//W3C//DTD SVG 1.1//EN"
 "http://www.w3.org/Graphics/SVG/1.1/DTD/svg11.dtd">
<!-- Generated by graphviz version 2.40.1 (20161225.0304)
 -->
<!-- Title: FXOS8701CQ::modify_reg Pages: 1 -->
<svg width="506pt" height="66pt"
 viewBox="0.00 0.00 506.00 66.00" xmlns="http://www.w3.org/2000/svg" xmlns:xlink="http://www.w3.org/1999/xlink">
<g id="graph0" class="graph" transform="scale(1 1) rotate(0) translate(4 62)">
<title>FXOS8701CQ::modify_reg</title>
<polygon fill="#ffffff" stroke="transparent" points="-4,4 -4,-62 502,-62 502,4 -4,4"/>
<!-- Node65 -->
<g id="node1" class="node">
<title>Node65</title>
<polygon fill="#bfbfbf" stroke="#000000" points="0,-19.5 0,-38.5 134,-38.5 134,-19.5 0,-19.5"/>
<text text-anchor="middle" x="67" y="-26.5" font-family="Helvetica,sans-Serif" font-size="10.00" fill="#000000">FXOS8701CQ::modify_reg</text>
</g>
<!-- Node66 -->
<g id="node2" class="node">
<title>Node66</title>
<g id="a_node2"><a xlink:href="../../db/d27/class_f_x_o_s8701_c_q.html#a18a5378116ab9b3c95729405a68139b3" target="_top" xlink:title="Read a register from the FXOS8701C. ">
<polygon fill="#ffffff" stroke="#000000" points="192,-38.5 192,-57.5 315,-57.5 315,-38.5 192,-38.5"/>
<text text-anchor="middle" x="253.5" y="-45.5" font-family="Helvetica,sans-Serif" font-size="10.00" fill="#000000">FXOS8701CQ::read_reg</text>
</a>
</g>
</g>
<!-- Node65&#45;&gt;Node66 -->
<g id="edge1" class="edge">
<title>Node65&#45;&gt;Node66</title>
<path fill="none" stroke="#191970" d="M134.0673,-35.8326C149.5726,-37.4122 166.1288,-39.0989 181.8226,-40.6977"/>
<polygon fill="#191970" stroke="#191970" points="181.6881,-44.2021 191.9913,-41.7337 182.3976,-37.2381 181.6881,-44.2021"/>
</g>
<!-- Node67 -->
<g id="node3" class="node">
<title>Node67</title>
<g id="a_node3"><a xlink:href="../../db/d27/class_f_x_o_s8701_c_q.html#aa6dd2ac39e89cb8a6abc5eaff0755e11" target="_top" xlink:title="Write a register in the FXOS8701C, updating _checked_values. ">
<polygon fill="#ffffff" stroke="#000000" points="170,-.5 170,-19.5 337,-19.5 337,-.5 170,-.5"/>
<text text-anchor="middle" x="253.5" y="-7.5" font-family="Helvetica,sans-Serif" font-size="10.00" fill="#000000">FXOS8701CQ::write_checked_reg</text>
</a>
</g>
</g>
<!-- Node65&#45;&gt;Node67 -->
<g id="edge2" class="edge">
<title>Node65&#45;&gt;Node67</title>
<path fill="none" stroke="#191970" d="M134.0673,-22.1674C142.3988,-21.3186 151.0337,-20.4389 159.6752,-19.5586"/>
<polygon fill="#191970" stroke="#191970" points="160.2111,-23.0222 169.8048,-18.5266 159.5016,-16.0582 160.2111,-23.0222"/>
</g>
<!-- Node68 -->
<g id="node4" class="node">
<title>Node68</title>
<g id="a_node4"><a xlink:href="../../db/d27/class_f_x_o_s8701_c_q.html#a18aa96fbec83b630bbd6096634e0ab22" target="_top" xlink:title="Write a register in the FXOS8701C. ">
<polygon fill="#ffffff" stroke="#000000" points="373,-.5 373,-19.5 498,-19.5 498,-.5 373,-.5"/>
<text text-anchor="middle" x="435.5" y="-7.5" font-family="Helvetica,sans-Serif" font-size="10.00" fill="#000000">FXOS8701CQ::write_reg</text>
</a>
</g>
</g>
<!-- Node67&#45;&gt;Node68 -->
<g id="edge3" class="edge">
<title>Node67&#45;&gt;Node68</title>
<path fill="none" stroke="#191970" d="M337.0426,-10C345.6127,-10 354.2716,-10 362.7125,-10"/>
<polygon fill="#191970" stroke="#191970" points="362.8799,-13.5001 372.8799,-10 362.8798,-6.5001 362.8799,-13.5001"/>
</g>
</g>
</svg>
