<?xml version="1.0" encoding="UTF-8" standalone="no"?>
<!DOCTYPE svg PUBLIC "-//W3C//DTD SVG 1.1//EN"
 "http://www.w3.org/Graphics/SVG/1.1/DTD/svg11.dtd">
<!-- Generated by graphviz version 2.40.1 (20161225.0304)
 -->
<!-- Title: PrecLand::switch_to_state_done Pages: 1 -->
<svg width="390pt" height="39pt"
 viewBox="0.00 0.00 390.00 39.00" xmlns="http://www.w3.org/2000/svg" xmlns:xlink="http://www.w3.org/1999/xlink">
<g id="graph0" class="graph" transform="scale(1 1) rotate(0) translate(4 35)">
<title>PrecLand::switch_to_state_done</title>
<polygon fill="#ffffff" stroke="transparent" points="-4,4 -4,-35 386,-35 386,4 -4,4"/>
<!-- Node413 -->
<g id="node1" class="node">
<title>Node413</title>
<polygon fill="#bfbfbf" stroke="#000000" points="0,-.5 0,-30.5 106,-30.5 106,-.5 0,-.5"/>
<text text-anchor="start" x="8" y="-18.5" font-family="Helvetica,sans-Serif" font-size="10.00" fill="#000000">PrecLand::switch_to</text>
<text text-anchor="middle" x="53" y="-7.5" font-family="Helvetica,sans-Serif" font-size="10.00" fill="#000000">_state_done</text>
</g>
<!-- Node414 -->
<g id="node2" class="node">
<title>Node414</title>
<g id="a_node2"><a xlink:href="../../dd/dd4/class_prec_land.html#a0f4d8c775373884e2d3280bf8de29558" target="_top" xlink:title="This function is called while the mode is active. ">
<polygon fill="#ffffff" stroke="#000000" points="142,-6 142,-25 248,-25 248,-6 142,-6"/>
<text text-anchor="middle" x="195" y="-13" font-family="Helvetica,sans-Serif" font-size="10.00" fill="#000000">PrecLand::on_active</text>
</a>
</g>
</g>
<!-- Node413&#45;&gt;Node414 -->
<g id="edge1" class="edge">
<title>Node413&#45;&gt;Node414</title>
<path fill="none" stroke="#191970" d="M116.5173,-15.5C124.9959,-15.5 133.6185,-15.5 141.8941,-15.5"/>
<polygon fill="#191970" stroke="#191970" points="116.2796,-12.0001 106.2796,-15.5 116.2795,-19.0001 116.2796,-12.0001"/>
</g>
<!-- Node415 -->
<g id="node3" class="node">
<title>Node415</title>
<g id="a_node3"><a xlink:href="../../db/dad/class_mission.html#a14c34cbf0575ae27e9f016b1e038b8e8" target="_top" xlink:title="This function is called while the mode is active. ">
<polygon fill="#ffffff" stroke="#000000" points="284,-6 284,-25 382,-25 382,-6 284,-6"/>
<text text-anchor="middle" x="333" y="-13" font-family="Helvetica,sans-Serif" font-size="10.00" fill="#000000">Mission::on_active</text>
</a>
</g>
</g>
<!-- Node414&#45;&gt;Node415 -->
<g id="edge2" class="edge">
<title>Node414&#45;&gt;Node415</title>
<path fill="none" stroke="#191970" d="M258.607,-15.5C267.0851,-15.5 275.6725,-15.5 283.853,-15.5"/>
<polygon fill="#191970" stroke="#191970" points="258.3544,-12.0001 248.3544,-15.5 258.3544,-19.0001 258.3544,-12.0001"/>
</g>
</g>
</svg>
