<?xml version="1.0" encoding="UTF-8" standalone="no"?>
<!DOCTYPE svg PUBLIC "-//W3C//DTD SVG 1.1//EN"
 "http://www.w3.org/Graphics/SVG/1.1/DTD/svg11.dtd">
<!-- Generated by graphviz version 2.38.0 (20140413.2041)
 -->
<!-- Title: PrecLand::run_state_horizontal_approach Pages: 1 -->
<svg width="609pt" height="608pt"
 viewBox="0.00 0.00 609.00 608.00" xmlns="http://www.w3.org/2000/svg" xmlns:xlink="http://www.w3.org/1999/xlink">
<g id="graph0" class="graph" transform="scale(1 1) rotate(0) translate(4 604)">
<title>PrecLand::run_state_horizontal_approach</title>
<polygon fill="white" stroke="none" points="-4,4 -4,-604 605,-604 605,4 -4,4"/>
<!-- Node1 -->
<g id="node1" class="node"><title>Node1</title>
<polygon fill="#bfbfbf" stroke="black" points="0,-367 0,-397 109,-397 109,-367 0,-367"/>
<text text-anchor="start" x="8" y="-385" font-family="Helvetica,sans-Serif" font-size="10.00">PrecLand::run_state</text>
<text text-anchor="middle" x="54.5" y="-374" font-family="Helvetica,sans-Serif" font-size="10.00">_horizontal_approach</text>
</g>
<!-- Node2 -->
<g id="node2" class="node"><title>Node2</title>
<g id="a_node2"><a xlink:href="../../dd/dd4/class_prec_land.html#add1e7b401526be1047dc4cb814a7cdcf" target="_top" xlink:title="PrecLand::check_state\l_conditions">
<polygon fill="white" stroke="black" points="313,-521 313,-551 430,-551 430,-521 313,-521"/>
<text text-anchor="start" x="321" y="-539" font-family="Helvetica,sans-Serif" font-size="10.00">PrecLand::check_state</text>
<text text-anchor="middle" x="371.5" y="-528" font-family="Helvetica,sans-Serif" font-size="10.00">_conditions</text>
</a>
</g>
</g>
<!-- Node1&#45;&gt;Node2 -->
<g id="edge1" class="edge"><title>Node1&#45;&gt;Node2</title>
<path fill="none" stroke="midnightblue" d="M61.6462,-397.314C73.3761,-424.347 101.706,-480.111 145,-506 192.369,-534.326 255.218,-540.666 302.532,-540.583"/>
<polygon fill="midnightblue" stroke="midnightblue" points="302.724,-544.081 312.684,-540.467 302.644,-537.082 302.724,-544.081"/>
</g>
<!-- Node4 -->
<g id="node4" class="node"><title>Node4</title>
<g id="a_node4"><a xlink:href="../../d6/d10/drv__hrt_8h.html#a1450e339b7c5b8d47656500167a6676d" target="_top" xlink:title="Get absolute time in [us] (does not wrap). ">
<polygon fill="white" stroke="black" points="490,-463.5 490,-482.5 584,-482.5 584,-463.5 490,-463.5"/>
<text text-anchor="middle" x="537" y="-470.5" font-family="Helvetica,sans-Serif" font-size="10.00">hrt_absolute_time</text>
</a>
</g>
</g>
<!-- Node1&#45;&gt;Node4 -->
<g id="edge6" class="edge"><title>Node1&#45;&gt;Node4</title>
<path fill="none" stroke="midnightblue" d="M65.4039,-397.345C79.9395,-418.299 109.241,-454.974 145,-470 258.65,-517.754 407.811,-499.268 484.915,-484.489"/>
<polygon fill="midnightblue" stroke="midnightblue" points="485.722,-487.897 494.855,-482.527 484.366,-481.029 485.722,-487.897"/>
</g>
<!-- Node5 -->
<g id="node5" class="node"><title>Node5</title>
<g id="a_node5"><a xlink:href="../../d0/df9/class_navigator.html#a6b29aee2334c4b825cc3bb95a5c51452" target="_top" xlink:title="Navigator::get_global\l_position">
<polygon fill="white" stroke="black" points="317,-258 317,-288 426,-288 426,-258 317,-258"/>
<text text-anchor="start" x="325" y="-276" font-family="Helvetica,sans-Serif" font-size="10.00">Navigator::get_global</text>
<text text-anchor="middle" x="371.5" y="-265" font-family="Helvetica,sans-Serif" font-size="10.00">_position</text>
</a>
</g>
</g>
<!-- Node1&#45;&gt;Node5 -->
<g id="edge4" class="edge"><title>Node1&#45;&gt;Node5</title>
<path fill="none" stroke="midnightblue" d="M65.8156,-366.674C80.6262,-346.097 110.02,-310.25 145,-294 195.828,-270.387 259.965,-266.559 306.832,-267.804"/>
<polygon fill="midnightblue" stroke="midnightblue" points="306.742,-271.303 316.858,-268.154 306.986,-264.307 306.742,-271.303"/>
</g>
<!-- Node6 -->
<g id="node6" class="node"><title>Node6</title>
<g id="a_node6"><a xlink:href="../../d0/df9/class_navigator.html#a2ac36f2fb34363f3ca882cd8cbeb4171" target="_top" xlink:title="Navigator::get_position\l_setpoint_triplet">
<polygon fill="white" stroke="black" points="313,-346 313,-376 430,-376 430,-346 313,-346"/>
<text text-anchor="start" x="321" y="-364" font-family="Helvetica,sans-Serif" font-size="10.00">Navigator::get_position</text>
<text text-anchor="middle" x="371.5" y="-353" font-family="Helvetica,sans-Serif" font-size="10.00">_setpoint_triplet</text>
</a>
</g>
</g>
<!-- Node1&#45;&gt;Node6 -->
<g id="edge5" class="edge"><title>Node1&#45;&gt;Node6</title>
<path fill="none" stroke="midnightblue" d="M109.293,-378.414C162.752,-374.85 244.907,-369.373 302.78,-365.515"/>
<polygon fill="midnightblue" stroke="midnightblue" points="303.185,-368.996 312.93,-364.838 302.719,-362.011 303.185,-368.996"/>
</g>
<!-- Node7 -->
<g id="node7" class="node"><title>Node7</title>
<g id="a_node7"><a xlink:href="../../d7/d09/geo_8cpp.html#ae2c95a4f45ade7c0c2eae9a670f2740f" target="_top" xlink:title="Transforms a point in the local azimuthal equidistant plane to the geographic coordinate system using...">
<polygon fill="white" stroke="black" points="145,-29.5 145,-48.5 270,-48.5 270,-29.5 145,-29.5"/>
<text text-anchor="middle" x="207.5" y="-36.5" font-family="Helvetica,sans-Serif" font-size="10.00">map_projection_reproject</text>
</a>
</g>
</g>
<!-- Node1&#45;&gt;Node7 -->
<g id="edge7" class="edge"><title>Node1&#45;&gt;Node7</title>
<path fill="none" stroke="midnightblue" d="M61.7476,-366.909C76.1141,-332.303 112.744,-244.62 145,-172 163.152,-131.132 185.372,-83.6808 197.516,-57.9553"/>
<polygon fill="midnightblue" stroke="midnightblue" points="200.813,-59.1698 201.924,-48.6334 194.485,-56.1772 200.813,-59.1698"/>
</g>
<!-- Node10 -->
<g id="node10" class="node"><title>Node10</title>
<g id="a_node10"><a xlink:href="../../d0/df9/class_navigator.html#a5f3df0372d7fe932f8d158c2401890b0" target="_top" xlink:title="Navigator::set_position\l_setpoint_triplet_updated">
<polygon fill="white" stroke="black" points="309,-395 309,-425 434,-425 434,-395 309,-395"/>
<text text-anchor="start" x="317" y="-413" font-family="Helvetica,sans-Serif" font-size="10.00">Navigator::set_position</text>
<text text-anchor="middle" x="371.5" y="-402" font-family="Helvetica,sans-Serif" font-size="10.00">_setpoint_triplet_updated</text>
</a>
</g>
</g>
<!-- Node1&#45;&gt;Node10 -->
<g id="edge10" class="edge"><title>Node1&#45;&gt;Node10</title>
<path fill="none" stroke="midnightblue" d="M109.293,-386.782C161.509,-391.423 241.101,-398.498 298.703,-403.618"/>
<polygon fill="midnightblue" stroke="midnightblue" points="298.56,-407.119 308.83,-404.518 299.18,-400.147 298.56,-407.119"/>
</g>
<!-- Node11 -->
<g id="node11" class="node"><title>Node11</title>
<g id="a_node11"><a xlink:href="../../dd/dd4/class_prec_land.html#af102e3ea17700924dd250ae7c6d4ea3f" target="_top" xlink:title="PrecLand::slewrate">
<polygon fill="white" stroke="black" points="157,-181.5 157,-200.5 258,-200.5 258,-181.5 157,-181.5"/>
<text text-anchor="middle" x="207.5" y="-188.5" font-family="Helvetica,sans-Serif" font-size="10.00">PrecLand::slewrate</text>
</a>
</g>
</g>
<!-- Node1&#45;&gt;Node11 -->
<g id="edge11" class="edge"><title>Node1&#45;&gt;Node11</title>
<path fill="none" stroke="midnightblue" d="M66.1267,-366.792C82.5012,-343.555 115.14,-298.012 145,-261 159.944,-242.476 178.024,-222.124 190.699,-208.163"/>
<polygon fill="midnightblue" stroke="midnightblue" points="193.316,-210.488 197.474,-200.743 188.146,-205.769 193.316,-210.488"/>
</g>
<!-- Node17 -->
<g id="node17" class="node"><title>Node17</title>
<g id="a_node17"><a xlink:href="../../dd/dd4/class_prec_land.html#a31b4cf17fc9f0f030068f6ac5b93cb76" target="_top" xlink:title="PrecLand::switch_to\l_state_descend_above\l_target">
<polygon fill="white" stroke="black" points="149,-558.5 149,-599.5 266,-599.5 266,-558.5 149,-558.5"/>
<text text-anchor="start" x="157" y="-587.5" font-family="Helvetica,sans-Serif" font-size="10.00">PrecLand::switch_to</text>
<text text-anchor="start" x="157" y="-576.5" font-family="Helvetica,sans-Serif" font-size="10.00">_state_descend_above</text>
<text text-anchor="middle" x="207.5" y="-565.5" font-family="Helvetica,sans-Serif" font-size="10.00">_target</text>
</a>
</g>
</g>
<!-- Node1&#45;&gt;Node17 -->
<g id="edge21" class="edge"><title>Node1&#45;&gt;Node17</title>
<path fill="none" stroke="midnightblue" d="M60.6525,-397.14C71.7947,-428.032 100.75,-499.187 145,-544 147.962,-546.999 151.234,-549.824 154.681,-552.466"/>
<polygon fill="midnightblue" stroke="midnightblue" points="152.783,-555.409 162.977,-558.296 156.808,-549.682 152.783,-555.409"/>
</g>
<!-- Node18 -->
<g id="node18" class="node"><title>Node18</title>
<g id="a_node18"><a xlink:href="../../dd/dd4/class_prec_land.html#a80d08dd30b8ebc5f8d716282ae2f8dca" target="_top" xlink:title="PrecLand::switch_to\l_state_fallback">
<polygon fill="white" stroke="black" points="154.5,-304 154.5,-334 260.5,-334 260.5,-304 154.5,-304"/>
<text text-anchor="start" x="162.5" y="-322" font-family="Helvetica,sans-Serif" font-size="10.00">PrecLand::switch_to</text>
<text text-anchor="middle" x="207.5" y="-311" font-family="Helvetica,sans-Serif" font-size="10.00">_state_fallback</text>
</a>
</g>
</g>
<!-- Node1&#45;&gt;Node18 -->
<g id="edge24" class="edge"><title>Node1&#45;&gt;Node18</title>
<path fill="none" stroke="midnightblue" d="M91.6683,-366.91C112.51,-358.214 138.9,-347.204 161.124,-337.932"/>
<polygon fill="midnightblue" stroke="midnightblue" points="162.484,-341.157 170.365,-334.076 159.789,-334.696 162.484,-341.157"/>
</g>
<!-- Node19 -->
<g id="node19" class="node"><title>Node19</title>
<g id="a_node19"><a xlink:href="../../dd/dd4/class_prec_land.html#a1d8b12e28ab37195e9510c67764f5edb" target="_top" xlink:title="PrecLand::switch_to\l_state_start">
<polygon fill="white" stroke="black" points="154.5,-430 154.5,-460 260.5,-460 260.5,-430 154.5,-430"/>
<text text-anchor="start" x="162.5" y="-448" font-family="Helvetica,sans-Serif" font-size="10.00">PrecLand::switch_to</text>
<text text-anchor="middle" x="207.5" y="-437" font-family="Helvetica,sans-Serif" font-size="10.00">_state_start</text>
</a>
</g>
</g>
<!-- Node1&#45;&gt;Node19 -->
<g id="edge29" class="edge"><title>Node1&#45;&gt;Node19</title>
<path fill="none" stroke="midnightblue" d="M91.6683,-397.09C112.51,-405.786 138.9,-416.796 161.124,-426.068"/>
<polygon fill="midnightblue" stroke="midnightblue" points="159.789,-429.304 170.365,-429.924 162.484,-422.843 159.789,-429.304"/>
</g>
<!-- Node3 -->
<g id="node3" class="node"><title>Node3</title>
<g id="a_node3"><a xlink:href="../../d0/df9/class_navigator.html#af681e085bd08b6f8bc6500d2b1658565" target="_top" xlink:title="Navigator::get_local\l_position">
<polygon fill="white" stroke="black" points="485,-270 485,-300 589,-300 589,-270 485,-270"/>
<text text-anchor="start" x="493" y="-288" font-family="Helvetica,sans-Serif" font-size="10.00">Navigator::get_local</text>
<text text-anchor="middle" x="537" y="-277" font-family="Helvetica,sans-Serif" font-size="10.00">_position</text>
</a>
</g>
</g>
<!-- Node2&#45;&gt;Node3 -->
<g id="edge2" class="edge"><title>Node2&#45;&gt;Node3</title>
<path fill="none" stroke="midnightblue" d="M382.482,-520.677C410.083,-478.304 487.573,-359.343 520.685,-308.511"/>
<polygon fill="midnightblue" stroke="midnightblue" points="523.624,-310.412 526.149,-300.123 517.758,-306.592 523.624,-310.412"/>
</g>
<!-- Node2&#45;&gt;Node4 -->
<g id="edge3" class="edge"><title>Node2&#45;&gt;Node4</title>
<path fill="none" stroke="midnightblue" d="M411.662,-520.91C438.972,-510.387 475.078,-496.475 501.343,-486.354"/>
<polygon fill="midnightblue" stroke="midnightblue" points="502.815,-489.538 510.888,-482.676 500.298,-483.006 502.815,-489.538"/>
</g>
<!-- Node8 -->
<g id="node8" class="node"><title>Node8</title>
<g id="a_node8"><a xlink:href="../../dd/d47/namespacemath.html#ae9e716b64956468f69c53a1ee1821a60" target="_top" xlink:title="math::degrees">
<polygon fill="white" stroke="black" points="332,-29.5 332,-48.5 411,-48.5 411,-29.5 332,-29.5"/>
<text text-anchor="middle" x="371.5" y="-36.5" font-family="Helvetica,sans-Serif" font-size="10.00">math::degrees</text>
</a>
</g>
</g>
<!-- Node7&#45;&gt;Node8 -->
<g id="edge8" class="edge"><title>Node7&#45;&gt;Node8</title>
<path fill="none" stroke="midnightblue" d="M270.207,-39C287.224,-39 305.448,-39 321.629,-39"/>
<polygon fill="midnightblue" stroke="midnightblue" points="321.935,-42.5001 331.935,-39 321.935,-35.5001 321.935,-42.5001"/>
</g>
<!-- Node9 -->
<g id="node9" class="node"><title>Node9</title>
<g id="a_node9"><a xlink:href="../../d7/d09/geo_8cpp.html#a7e99116663d8760b551bd9d901273207" target="_top" xlink:title="Checks if projection given as argument was initialized. ">
<polygon fill="white" stroke="black" points="473,-0.5 473,-19.5 601,-19.5 601,-0.5 473,-0.5"/>
<text text-anchor="middle" x="537" y="-7.5" font-family="Helvetica,sans-Serif" font-size="10.00">map_projection_initialized</text>
</a>
</g>
</g>
<!-- Node7&#45;&gt;Node9 -->
<g id="edge9" class="edge"><title>Node7&#45;&gt;Node9</title>
<path fill="none" stroke="midnightblue" d="M250.037,-29.4893C267.261,-25.9159 287.504,-22.1918 306,-20 358.213,-13.8124 417.499,-11.3435 462.801,-10.4052"/>
<polygon fill="midnightblue" stroke="midnightblue" points="462.898,-13.9041 472.831,-10.2177 462.767,-6.90536 462.898,-13.9041"/>
</g>
<!-- Node11&#45;&gt;Node3 -->
<g id="edge18" class="edge"><title>Node11&#45;&gt;Node3</title>
<path fill="none" stroke="midnightblue" d="M220.17,-181.351C237.571,-167.659 271.934,-143.227 306,-134 362.197,-118.778 385.773,-106.33 437,-134 486.704,-160.847 515.489,-224.723 528.176,-260.192"/>
<polygon fill="midnightblue" stroke="midnightblue" points="524.916,-261.475 531.467,-269.802 531.538,-259.207 524.916,-261.475"/>
</g>
<!-- Node11&#45;&gt;Node4 -->
<g id="edge12" class="edge"><title>Node11&#45;&gt;Node4</title>
<path fill="none" stroke="midnightblue" d="M254.353,-181.448C304.489,-173.777 384.653,-169.999 437,-210 474.201,-238.427 456.605,-265.146 473,-309 492.682,-361.646 516.672,-423.476 528.57,-453.99"/>
<polygon fill="midnightblue" stroke="midnightblue" points="525.35,-455.368 532.247,-463.411 531.871,-452.823 525.35,-455.368"/>
</g>
<!-- Node11&#45;&gt;Node6 -->
<g id="edge17" class="edge"><title>Node11&#45;&gt;Node6</title>
<path fill="none" stroke="midnightblue" d="M217.227,-200.783C234.109,-219.643 272.529,-262.237 306,-297 319.591,-311.116 335.179,-326.602 347.626,-338.804"/>
<polygon fill="midnightblue" stroke="midnightblue" points="345.326,-341.45 354.924,-345.936 350.218,-336.444 345.326,-341.45"/>
</g>
<!-- Node12 -->
<g id="node12" class="node"><title>Node12</title>
<g id="a_node12"><a xlink:href="../../d7/d09/geo_8cpp.html#a5ea48079b8cf05b1b7f7d2b96e07b7f3" target="_top" xlink:title="map_projection_project">
<polygon fill="white" stroke="black" points="313,-67.5 313,-86.5 430,-86.5 430,-67.5 313,-67.5"/>
<text text-anchor="middle" x="371.5" y="-74.5" font-family="Helvetica,sans-Serif" font-size="10.00">map_projection_project</text>
</a>
</g>
</g>
<!-- Node11&#45;&gt;Node12 -->
<g id="edge13" class="edge"><title>Node11&#45;&gt;Node12</title>
<path fill="none" stroke="midnightblue" d="M216.668,-181.278C232.312,-163.2 268.312,-124.149 306,-101 312.729,-96.8669 320.283,-93.2682 327.787,-90.2035"/>
<polygon fill="midnightblue" stroke="midnightblue" points="329.107,-93.4457 337.2,-86.607 326.609,-86.9067 329.107,-93.4457"/>
</g>
<!-- Node15 -->
<g id="node15" class="node"><title>Node15</title>
<g id="a_node15"><a xlink:href="../../d1/d71/classmatrix_1_1_vector.html#adfde6b53c2c967f684dd5571d847781e" target="_top" xlink:title="matrix::Vector::length">
<polygon fill="white" stroke="black" points="316.5,-219.5 316.5,-238.5 426.5,-238.5 426.5,-219.5 316.5,-219.5"/>
<text text-anchor="middle" x="371.5" y="-226.5" font-family="Helvetica,sans-Serif" font-size="10.00">matrix::Vector::length</text>
</a>
</g>
</g>
<!-- Node11&#45;&gt;Node15 -->
<g id="edge19" class="edge"><title>Node11&#45;&gt;Node15</title>
<path fill="none" stroke="midnightblue" d="M249.379,-200.589C270.853,-205.626 297.36,-211.844 320.097,-217.177"/>
<polygon fill="midnightblue" stroke="midnightblue" points="319.379,-220.604 329.915,-219.48 320.978,-213.789 319.379,-220.604"/>
</g>
<!-- Node16 -->
<g id="node16" class="node"><title>Node16</title>
<g id="a_node16"><a xlink:href="../../d1/d71/classmatrix_1_1_vector.html#a8cbb2d42da6488e74e0596b0e14bd825" target="_top" xlink:title="matrix::Vector::normalized">
<polygon fill="white" stroke="black" points="306,-143.5 306,-162.5 437,-162.5 437,-143.5 306,-143.5"/>
<text text-anchor="middle" x="371.5" y="-150.5" font-family="Helvetica,sans-Serif" font-size="10.00">matrix::Vector::normalized</text>
</a>
</g>
</g>
<!-- Node11&#45;&gt;Node16 -->
<g id="edge20" class="edge"><title>Node11&#45;&gt;Node16</title>
<path fill="none" stroke="midnightblue" d="M249.379,-181.411C270.853,-176.374 297.36,-170.156 320.097,-164.823"/>
<polygon fill="midnightblue" stroke="midnightblue" points="320.978,-168.211 329.915,-162.52 319.379,-161.396 320.978,-168.211"/>
</g>
<!-- Node12&#45;&gt;Node9 -->
<g id="edge15" class="edge"><title>Node12&#45;&gt;Node9</title>
<path fill="none" stroke="midnightblue" d="M408.675,-67.484C418.006,-64.7201 427.963,-61.4944 437,-58 462.262,-48.2319 489.912,-34.5585 509.555,-24.3028"/>
<polygon fill="midnightblue" stroke="midnightblue" points="511.3,-27.3393 518.508,-19.5748 508.031,-21.1493 511.3,-27.3393"/>
</g>
<!-- Node13 -->
<g id="node13" class="node"><title>Node13</title>
<g id="a_node13"><a xlink:href="../../dd/d47/namespacemath.html#a9ab5768499dc798629f31a3e785ea313" target="_top" xlink:title="math::constrain">
<polygon fill="white" stroke="black" points="495,-95.5 495,-114.5 579,-114.5 579,-95.5 495,-95.5"/>
<text text-anchor="middle" x="537" y="-102.5" font-family="Helvetica,sans-Serif" font-size="10.00">math::constrain</text>
</a>
</g>
</g>
<!-- Node12&#45;&gt;Node13 -->
<g id="edge14" class="edge"><title>Node12&#45;&gt;Node13</title>
<path fill="none" stroke="midnightblue" d="M428.31,-86.5577C446.646,-89.6977 466.924,-93.1704 484.892,-96.2476"/>
<polygon fill="midnightblue" stroke="midnightblue" points="484.443,-99.7216 494.89,-97.9598 485.625,-92.822 484.443,-99.7216"/>
</g>
<!-- Node14 -->
<g id="node14" class="node"><title>Node14</title>
<g id="a_node14"><a xlink:href="../../dd/d47/namespacemath.html#a83e4c85de5ee6f9c0f7b91fd81a8d4f9" target="_top" xlink:title="math::radians">
<polygon fill="white" stroke="black" points="499,-57.5 499,-76.5 575,-76.5 575,-57.5 499,-57.5"/>
<text text-anchor="middle" x="537" y="-64.5" font-family="Helvetica,sans-Serif" font-size="10.00">math::radians</text>
</a>
</g>
</g>
<!-- Node12&#45;&gt;Node14 -->
<g id="edge16" class="edge"><title>Node12&#45;&gt;Node14</title>
<path fill="none" stroke="midnightblue" d="M430.144,-73.4744C449.293,-72.3032 470.38,-71.0134 488.66,-69.8954"/>
<polygon fill="midnightblue" stroke="midnightblue" points="489.01,-73.3806 498.778,-69.2766 488.583,-66.3937 489.01,-73.3806"/>
</g>
<!-- Node17&#45;&gt;Node2 -->
<g id="edge22" class="edge"><title>Node17&#45;&gt;Node2</title>
<path fill="none" stroke="midnightblue" d="M266.071,-563.719C278.342,-560.462 291.398,-556.996 303.973,-553.658"/>
<polygon fill="midnightblue" stroke="midnightblue" points="305.164,-556.964 313.931,-551.015 303.368,-550.198 305.164,-556.964"/>
</g>
<!-- Node17&#45;&gt;Node4 -->
<g id="edge23" class="edge"><title>Node17&#45;&gt;Node4</title>
<path fill="none" stroke="midnightblue" d="M266.297,-584.371C313.993,-586.519 382.45,-584.233 437,-561 473.261,-545.557 505.342,-511.35 522.588,-490.424"/>
<polygon fill="midnightblue" stroke="midnightblue" points="525.323,-492.608 528.843,-482.615 519.859,-488.232 525.323,-492.608"/>
</g>
<!-- Node18&#45;&gt;Node4 -->
<g id="edge28" class="edge"><title>Node18&#45;&gt;Node4</title>
<path fill="none" stroke="midnightblue" d="M260.594,-310.943C309.361,-306.037 382.656,-305.627 437,-336 484.661,-362.638 515.338,-422.925 528.542,-453.876"/>
<polygon fill="midnightblue" stroke="midnightblue" points="525.454,-455.571 532.483,-463.498 531.931,-452.917 525.454,-455.571"/>
</g>
<!-- Node18&#45;&gt;Node5 -->
<g id="edge26" class="edge"><title>Node18&#45;&gt;Node5</title>
<path fill="none" stroke="midnightblue" d="M260.65,-304.192C275.597,-299.948 292.052,-295.275 307.574,-290.868"/>
<polygon fill="midnightblue" stroke="midnightblue" points="308.951,-294.115 317.615,-288.017 307.039,-287.382 308.951,-294.115"/>
</g>
<!-- Node18&#45;&gt;Node6 -->
<g id="edge25" class="edge"><title>Node18&#45;&gt;Node6</title>
<path fill="none" stroke="midnightblue" d="M260.65,-332.52C274.177,-336.027 288.939,-339.855 303.127,-343.533"/>
<polygon fill="midnightblue" stroke="midnightblue" points="302.278,-346.928 312.836,-346.05 304.034,-340.152 302.278,-346.928"/>
</g>
<!-- Node18&#45;&gt;Node10 -->
<g id="edge27" class="edge"><title>Node18&#45;&gt;Node10</title>
<path fill="none" stroke="midnightblue" d="M227.847,-334.024C246.955,-348.388 277.39,-370.017 306,-385 309.936,-387.061 314.082,-389.049 318.295,-390.942"/>
<polygon fill="midnightblue" stroke="midnightblue" points="316.999,-394.194 327.568,-394.924 319.761,-387.762 316.999,-394.194"/>
</g>
<!-- Node19&#45;&gt;Node2 -->
<g id="edge30" class="edge"><title>Node19&#45;&gt;Node2</title>
<path fill="none" stroke="midnightblue" d="M235.251,-460.027C262.453,-475.307 304.762,-499.073 334.808,-515.951"/>
<polygon fill="midnightblue" stroke="midnightblue" points="333.276,-519.105 343.709,-520.951 336.705,-513.002 333.276,-519.105"/>
</g>
<!-- Node19&#45;&gt;Node4 -->
<g id="edge33" class="edge"><title>Node19&#45;&gt;Node4</title>
<path fill="none" stroke="midnightblue" d="M260.755,-449.468C320.505,-454.576 417.972,-462.909 479.459,-468.166"/>
<polygon fill="midnightblue" stroke="midnightblue" points="479.492,-471.682 489.754,-469.046 480.089,-464.707 479.492,-471.682"/>
</g>
<!-- Node19&#45;&gt;Node6 -->
<g id="edge31" class="edge"><title>Node19&#45;&gt;Node6</title>
<path fill="none" stroke="midnightblue" d="M231.107,-429.766C250.471,-417.1 279.368,-399.095 306,-386 310.223,-383.923 314.665,-381.897 319.159,-379.953"/>
<polygon fill="midnightblue" stroke="midnightblue" points="320.526,-383.176 328.405,-376.092 317.829,-376.716 320.526,-383.176"/>
</g>
<!-- Node19&#45;&gt;Node10 -->
<g id="edge32" class="edge"><title>Node19&#45;&gt;Node10</title>
<path fill="none" stroke="midnightblue" d="M260.65,-433.733C272.885,-431.09 286.131,-428.228 299.048,-425.437"/>
<polygon fill="midnightblue" stroke="midnightblue" points="299.804,-428.855 308.84,-423.322 298.326,-422.012 299.804,-428.855"/>
</g>
</g>
</svg>
