<?xml version="1.0" encoding="UTF-8" standalone="no"?>
<!DOCTYPE svg PUBLIC "-//W3C//DTD SVG 1.1//EN"
 "http://www.w3.org/Graphics/SVG/1.1/DTD/svg11.dtd">
<!-- Generated by graphviz version 2.40.1 (20161225.0304)
 -->
<!-- Title: MPU9250_mag::ak8963_check_id Pages: 1 -->
<svg width="983pt" height="129pt"
 viewBox="0.00 0.00 983.00 128.50" xmlns="http://www.w3.org/2000/svg" xmlns:xlink="http://www.w3.org/1999/xlink">
<g id="graph0" class="graph" transform="scale(1 1) rotate(0) translate(4 124.5)">
<title>MPU9250_mag::ak8963_check_id</title>
<polygon fill="#ffffff" stroke="transparent" points="-4,4 -4,-124.5 979,-124.5 979,4 -4,4"/>
<!-- Node23 -->
<g id="node1" class="node">
<title>Node23</title>
<polygon fill="#bfbfbf" stroke="#000000" points="0,-.5 0,-30.5 122,-30.5 122,-.5 0,-.5"/>
<text text-anchor="start" x="8" y="-18.5" font-family="Helvetica,sans-Serif" font-size="10.00" fill="#000000">MPU9250_mag::ak8963</text>
<text text-anchor="middle" x="61" y="-7.5" font-family="Helvetica,sans-Serif" font-size="10.00" fill="#000000">_check_id</text>
</g>
<!-- Node24 -->
<g id="node2" class="node">
<title>Node24</title>
<g id="a_node2"><a xlink:href="../../d5/d16/class_m_p_u9250__mag.html#ad71c13a5e0b2ea6c3aa9a2faf11bc487" target="_top" xlink:title="MPU9250_mag::read_reg">
<polygon fill="#ffffff" stroke="#000000" points="158,-6 158,-25 286,-25 286,-6 158,-6"/>
<text text-anchor="middle" x="222" y="-13" font-family="Helvetica,sans-Serif" font-size="10.00" fill="#000000">MPU9250_mag::read_reg</text>
</a>
</g>
</g>
<!-- Node23&#45;&gt;Node24 -->
<g id="edge1" class="edge">
<title>Node23&#45;&gt;Node24</title>
<path fill="none" stroke="#191970" d="M122.3265,-15.5C130.6027,-15.5 139.1659,-15.5 147.638,-15.5"/>
<polygon fill="#191970" stroke="#191970" points="147.9014,-19.0001 157.9014,-15.5 147.9014,-12.0001 147.9014,-19.0001"/>
</g>
<!-- Node25 -->
<g id="node3" class="node">
<title>Node25</title>
<g id="a_node3"><a xlink:href="../../d5/d16/class_m_p_u9250__mag.html#ae46a0f0911a434547ce139050e0e245e" target="_top" xlink:title="MPU9250_mag::passthrough_read">
<polygon fill="#ffffff" stroke="#000000" points="322,-44 322,-63 489,-63 489,-44 322,-44"/>
<text text-anchor="middle" x="405.5" y="-51" font-family="Helvetica,sans-Serif" font-size="10.00" fill="#000000">MPU9250_mag::passthrough_read</text>
</a>
</g>
</g>
<!-- Node24&#45;&gt;Node25 -->
<g id="edge2" class="edge">
<title>Node24&#45;&gt;Node25</title>
<path fill="none" stroke="#191970" d="M268.3048,-25.089C292.9559,-30.1939 323.4625,-36.5113 349.4447,-41.8918"/>
<polygon fill="#191970" stroke="#191970" points="349.0262,-45.3793 359.5282,-43.9799 350.4457,-38.5248 349.0262,-45.3793"/>
</g>
<!-- Node30 -->
<g id="node8" class="node">
<title>Node30</title>
<g id="a_node8"><a xlink:href="../../dd/dd3/classdevice_1_1_device.html#a0700ecd19a8206ba1a378ca8d2eca273" target="_top" xlink:title="Read directly from the device. ">
<polygon fill="#ffffff" stroke="#000000" points="723,-15 723,-34 830,-34 830,-15 723,-15"/>
<text text-anchor="middle" x="776.5" y="-22" font-family="Helvetica,sans-Serif" font-size="10.00" fill="#000000">device::Device::read</text>
</a>
</g>
</g>
<!-- Node24&#45;&gt;Node30 -->
<g id="edge9" class="edge">
<title>Node24&#45;&gt;Node30</title>
<path fill="none" stroke="#191970" d="M286.3641,-13.4653C376.1569,-11.0903 544.0872,-8.3325 687,-15.5 695.2956,-15.916 704.0075,-16.5477 712.6046,-17.2874"/>
<polygon fill="#191970" stroke="#191970" points="712.3361,-20.7774 722.6124,-18.199 712.9711,-13.8062 712.3361,-20.7774"/>
</g>
<!-- Node26 -->
<g id="node4" class="node">
<title>Node26</title>
<g id="a_node4"><a xlink:href="../../d5/d16/class_m_p_u9250__mag.html#adea1751a0228dde6dbf8dcec6a3caa9c" target="_top" xlink:title="MPU9250_mag::set_passthrough">
<polygon fill="#ffffff" stroke="#000000" points="525,-101 525,-120 687,-120 687,-101 525,-101"/>
<text text-anchor="middle" x="606" y="-108" font-family="Helvetica,sans-Serif" font-size="10.00" fill="#000000">MPU9250_mag::set_passthrough</text>
</a>
</g>
</g>
<!-- Node25&#45;&gt;Node26 -->
<g id="edge3" class="edge">
<title>Node25&#45;&gt;Node26</title>
<path fill="none" stroke="#191970" d="M439.0592,-63.0405C472.8897,-72.6582 525.2643,-87.5477 562.3155,-98.081"/>
<polygon fill="#191970" stroke="#191970" points="561.7554,-101.5603 572.3313,-100.9284 563.6696,-94.8272 561.7554,-101.5603"/>
</g>
<!-- Node27 -->
<g id="node5" class="node">
<title>Node27</title>
<g id="a_node5"><a xlink:href="../../df/dd9/class_m_p_u9250.html#ad1709c24cbe9e442c6f097c855b9bbb8" target="_top" xlink:title="Write a register in the mpu. ">
<polygon fill="#ffffff" stroke="#000000" points="723.5,-72 723.5,-91 829.5,-91 829.5,-72 723.5,-72"/>
<text text-anchor="middle" x="776.5" y="-79" font-family="Helvetica,sans-Serif" font-size="10.00" fill="#000000">MPU9250::write_reg</text>
</a>
</g>
</g>
<!-- Node25&#45;&gt;Node27 -->
<g id="edge8" class="edge">
<title>Node25&#45;&gt;Node27</title>
<path fill="none" stroke="#191970" d="M489.2222,-59.8187C557.244,-64.9524 651.7109,-72.082 713.4577,-76.7421"/>
<polygon fill="#191970" stroke="#191970" points="713.2206,-80.2341 723.4557,-77.4967 713.7475,-73.2539 713.2206,-80.2341"/>
</g>
<!-- Node29 -->
<g id="node7" class="node">
<title>Node29</title>
<g id="a_node7"><a xlink:href="../../d5/d16/class_m_p_u9250__mag.html#af6d0217b27c0a1b0be69979fe77e0e30" target="_top" xlink:title="MPU9250_mag::read_block">
<polygon fill="#ffffff" stroke="#000000" points="537.5,-25 537.5,-44 674.5,-44 674.5,-25 537.5,-25"/>
<text text-anchor="middle" x="606" y="-32" font-family="Helvetica,sans-Serif" font-size="10.00" fill="#000000">MPU9250_mag::read_block</text>
</a>
</g>
</g>
<!-- Node25&#45;&gt;Node29 -->
<g id="edge6" class="edge">
<title>Node25&#45;&gt;Node29</title>
<path fill="none" stroke="#191970" d="M489.0782,-45.5799C501.796,-44.3747 514.8822,-43.1346 527.4867,-41.9402"/>
<polygon fill="#191970" stroke="#191970" points="527.8506,-45.4215 537.4758,-40.9936 527.1902,-38.4527 527.8506,-45.4215"/>
</g>
<!-- Node26&#45;&gt;Node27 -->
<g id="edge4" class="edge">
<title>Node26&#45;&gt;Node27</title>
<path fill="none" stroke="#191970" d="M662.3006,-100.9239C678.6068,-98.1504 696.5166,-95.1042 713.2189,-92.2634"/>
<polygon fill="#191970" stroke="#191970" points="714.1657,-95.6527 723.4372,-90.5253 712.9919,-88.7518 714.1657,-95.6527"/>
</g>
<!-- Node28 -->
<g id="node6" class="node">
<title>Node28</title>
<g id="a_node6"><a xlink:href="../../dd/dd3/classdevice_1_1_device.html#a233074b15f0089e91f498121d4d85a53" target="_top" xlink:title="Write directly to the device. ">
<polygon fill="#ffffff" stroke="#000000" points="866,-72 866,-91 975,-91 975,-72 866,-72"/>
<text text-anchor="middle" x="920.5" y="-79" font-family="Helvetica,sans-Serif" font-size="10.00" fill="#000000">device::Device::write</text>
</a>
</g>
</g>
<!-- Node27&#45;&gt;Node28 -->
<g id="edge5" class="edge">
<title>Node27&#45;&gt;Node28</title>
<path fill="none" stroke="#191970" d="M829.7112,-81.5C838.1185,-81.5 846.8933,-81.5 855.5319,-81.5"/>
<polygon fill="#191970" stroke="#191970" points="855.58,-85.0001 865.5799,-81.5 855.5799,-78.0001 855.58,-85.0001"/>
</g>
<!-- Node29&#45;&gt;Node30 -->
<g id="edge7" class="edge">
<title>Node29&#45;&gt;Node30</title>
<path fill="none" stroke="#191970" d="M674.8574,-30.4614C687.3488,-29.7288 700.3282,-28.9676 712.6674,-28.2438"/>
<polygon fill="#191970" stroke="#191970" points="713.0792,-31.7258 722.8571,-27.6462 712.6693,-24.7378 713.0792,-31.7258"/>
</g>
</g>
</svg>
