<?xml version="1.0" encoding="UTF-8" standalone="no"?>
<!DOCTYPE svg PUBLIC "-//W3C//DTD SVG 1.1//EN"
 "http://www.w3.org/Graphics/SVG/1.1/DTD/svg11.dtd">
<!-- Generated by graphviz version 2.40.1 (20161225.0304)
 -->
<!-- Title: MPU9250_mag::write_reg Pages: 1 -->
<!--zoomable 113 -->
<svg id="main" version="1.1" xmlns="http://www.w3.org/2000/svg" xmlns:xlink="http://www.w3.org/1999/xlink" xml:space="preserve" onload="init(evt)">
<style type="text/css"><![CDATA[
.edge:hover path { stroke: red; }
.edge:hover polygon { stroke: red; fill: red; }
]]></style>
<script type="text/javascript"><![CDATA[
var edges = document.getElementsByTagName('g');
if (edges && edges.length) {
  for (var i=0;i<edges.length;i++) {
    if (edges[i].id.substr(0,4)=='edge') {
      edges[i].setAttribute('class','edge');
    }
  }
}
]]></script>
        <defs>
                <circle id="rim" cx="0" cy="0" r="7"/>
                <circle id="rim2" cx="0" cy="0" r="3.5"/>
                <g id="zoomPlus">
                        <use xlink:href="#rim" fill="#404040">
                                <set attributeName="fill" to="#808080" begin="zoomplus.mouseover" end="zoomplus.mouseout"/>
                        </use>
                        <path d="M-4,0h8M0,-4v8" fill="none" stroke="white" stroke-width="1.5" pointer-events="none"/>
                </g>
                <g id="zoomMin">
                        <use xlink:href="#rim" fill="#404040">
                                <set attributeName="fill" to="#808080" begin="zoomminus.mouseover" end="zoomminus.mouseout"/>
                        </use>
                        <path d="M-4,0h8" fill="none" stroke="white" stroke-width="1.5" pointer-events="none"/>
                </g>
                <g id="dirArrow">
                        <path fill="none" stroke="white" stroke-width="1.5" d="M0,-3.0v7 M-2.5,-0.5L0,-3.0L2.5,-0.5"/>
                </g>
               <g id="resetDef">
                       <use xlink:href="#rim2" fill="#404040">
                               <set attributeName="fill" to="#808080" begin="reset.mouseover" end="reset.mouseout"/>
                       </use>
               </g>
        </defs>

<script type="text/javascript">
var viewWidth = 1219;
var viewHeight = 113;
var sectionId = 'dynsection-30';
</script>
<script xlink:href="../../svgpan.js"/>
<svg id="graph" class="graph">
<g id="viewport">
<title>MPU9250_mag::write_reg</title>
<polygon fill="#ffffff" stroke="transparent" points="-4,4 -4,-108.5 1215,-108.5 1215,4 -4,4"/>
<!-- Node303 -->
<g id="node1" class="node">
<title>Node303</title>
<polygon fill="#bfbfbf" stroke="#000000" points="0,-35.5 0,-54.5 130,-54.5 130,-35.5 0,-35.5"/>
<text text-anchor="middle" x="65" y="-42.5" font-family="Helvetica,sans-Serif" font-size="10.00" fill="#000000">MPU9250_mag::write_reg</text>
</g>
<!-- Node304 -->
<g id="node2" class="node">
<title>Node304</title>
<g id="a_node2"><a xlink:href="../../d5/d16/class_m_p_u9250__mag.html#af8883d49dda86c44a059a284d6c35f70" target="_top" xlink:title="MPU9250_mag::ak8963\l_read_adjustments">
<polygon fill="#ffffff" stroke="#000000" points="166,-74 166,-104 288,-104 288,-74 166,-74"/>
<text text-anchor="start" x="174" y="-92" font-family="Helvetica,sans-Serif" font-size="10.00" fill="#000000">MPU9250_mag::ak8963</text>
<text text-anchor="middle" x="227" y="-81" font-family="Helvetica,sans-Serif" font-size="10.00" fill="#000000">_read_adjustments</text>
</a>
</g>
</g>
<!-- Node303&#45;&gt;Node304 -->
<g id="edge1" class="edge">
<title>Node303&#45;&gt;Node304</title>
<path fill="none" stroke="#191970" d="M109.803,-57.1687C128.9068,-62.3574 151.3923,-68.4646 171.5321,-73.9346"/>
<polygon fill="#191970" stroke="#191970" points="110.7194,-53.7909 100.1516,-54.5473 108.8846,-60.5461 110.7194,-53.7909"/>
</g>
<!-- Node305 -->
<g id="node3" class="node">
<title>Node305</title>
<g id="a_node3"><a xlink:href="../../d5/d16/class_m_p_u9250__mag.html#a1c6736e5581e4034713c7c4dcc85dfc8" target="_top" xlink:title="MPU9250_mag::ak8963\l_setup">
<polygon fill="#ffffff" stroke="#000000" points="324,-36 324,-66 446,-66 446,-36 324,-36"/>
<text text-anchor="start" x="332" y="-54" font-family="Helvetica,sans-Serif" font-size="10.00" fill="#000000">MPU9250_mag::ak8963</text>
<text text-anchor="middle" x="385" y="-43" font-family="Helvetica,sans-Serif" font-size="10.00" fill="#000000">_setup</text>
</a>
</g>
</g>
<!-- Node303&#45;&gt;Node305 -->
<g id="edge13" class="edge">
<title>Node303&#45;&gt;Node305</title>
<path fill="none" stroke="#191970" d="M140.3459,-46.4127C196.2512,-47.461 271.5219,-48.8723 323.7459,-49.8515"/>
<polygon fill="#191970" stroke="#191970" points="140.2064,-42.9096 130.1425,-46.2214 140.0751,-49.9084 140.2064,-42.9096"/>
</g>
<!-- Node306 -->
<g id="node4" class="node">
<title>Node306</title>
<g id="a_node4"><a xlink:href="../../d5/d16/class_m_p_u9250__mag.html#ae13ace90a4918b9b438b79884c95b370" target="_top" xlink:title="MPU9250_mag::ak8963\l_reset">
<polygon fill="#ffffff" stroke="#000000" points="482,-14 482,-44 604,-44 604,-14 482,-14"/>
<text text-anchor="start" x="490" y="-32" font-family="Helvetica,sans-Serif" font-size="10.00" fill="#000000">MPU9250_mag::ak8963</text>
<text text-anchor="middle" x="543" y="-21" font-family="Helvetica,sans-Serif" font-size="10.00" fill="#000000">_reset</text>
</a>
</g>
</g>
<!-- Node303&#45;&gt;Node306 -->
<g id="edge12" class="edge">
<title>Node303&#45;&gt;Node306</title>
<path fill="none" stroke="#191970" d="M140.2068,-38.3891C191.8603,-34.1887 262.0257,-29.151 324,-27 378.1896,-25.1192 391.7807,-26.4411 446,-27 457.6216,-27.1198 470.0253,-27.3203 481.945,-27.5493"/>
<polygon fill="#191970" stroke="#191970" points="139.8107,-34.9098 130.1309,-39.217 140.3839,-41.8863 139.8107,-34.9098"/>
</g>
<!-- Node304&#45;&gt;Node305 -->
<g id="edge2" class="edge">
<title>Node304&#45;&gt;Node305</title>
<path fill="none" stroke="#191970" d="M298.0855,-71.9035C306.6732,-69.8381 315.3868,-67.7424 323.815,-65.7154"/>
<polygon fill="#191970" stroke="#191970" points="296.9912,-68.5668 288.0869,-74.3082 298.6281,-75.3727 296.9912,-68.5668"/>
</g>
<!-- Node305&#45;&gt;Node306 -->
<g id="edge3" class="edge">
<title>Node305&#45;&gt;Node306</title>
<path fill="none" stroke="#191970" d="M456.0855,-41.102C464.6732,-39.9063 473.3868,-38.693 481.815,-37.5194"/>
<polygon fill="#191970" stroke="#191970" points="455.5087,-37.6485 446.0869,-42.4942 456.4741,-44.5816 455.5087,-37.6485"/>
</g>
<!-- Node307 -->
<g id="node5" class="node">
<title>Node307</title>
<g id="a_node5"><a xlink:href="../../df/dd9/class_m_p_u9250.html#a850810ef1e5c7b8a8effca5db13c9ef1" target="_top" xlink:title="MPU9250::init">
<polygon fill="#ffffff" stroke="#000000" points="644.5,-38.5 644.5,-57.5 723.5,-57.5 723.5,-38.5 644.5,-38.5"/>
<text text-anchor="middle" x="684" y="-45.5" font-family="Helvetica,sans-Serif" font-size="10.00" fill="#000000">MPU9250::init</text>
</a>
</g>
</g>
<!-- Node306&#45;&gt;Node307 -->
<g id="edge4" class="edge">
<title>Node306&#45;&gt;Node307</title>
<path fill="none" stroke="#191970" d="M614.03,-38.5714C624.4922,-39.9812 634.9388,-41.3889 644.4482,-42.6703"/>
<polygon fill="#191970" stroke="#191970" points="614.4025,-35.0901 604.0246,-37.2232 613.4676,-42.0274 614.4025,-35.0901"/>
</g>
<!-- Node314 -->
<g id="node12" class="node">
<title>Node314</title>
<g id="a_node12"><a xlink:href="../../df/dd9/class_m_p_u9250.html#aad264083bcac0f15db47c8b0ec5c3f25" target="_top" xlink:title="MPU9250::reset">
<polygon fill="#ffffff" stroke="#000000" points="640,-.5 640,-19.5 728,-19.5 728,-.5 640,-.5"/>
<text text-anchor="middle" x="684" y="-7.5" font-family="Helvetica,sans-Serif" font-size="10.00" fill="#000000">MPU9250::reset</text>
</a>
</g>
</g>
<!-- Node306&#45;&gt;Node314 -->
<g id="edge11" class="edge">
<title>Node306&#45;&gt;Node314</title>
<path fill="none" stroke="#191970" d="M613.9702,-19.4366C622.8017,-18.2466 631.6233,-17.0579 639.8807,-15.9451"/>
<polygon fill="#191970" stroke="#191970" points="613.4676,-15.9726 604.0246,-20.7768 614.4025,-22.9099 613.4676,-15.9726"/>
</g>
<!-- Node308 -->
<g id="node6" class="node">
<title>Node308</title>
<g id="a_node6"><a xlink:href="../../df/d4c/class_df_mpu9250_wrapper.html#a477211cd7ee571404813ba49a6e92746" target="_top" xlink:title="Start automatic measurement. ">
<polygon fill="#ffffff" stroke="#000000" points="764,-57.5 764,-76.5 893,-76.5 893,-57.5 764,-57.5"/>
<text text-anchor="middle" x="828.5" y="-64.5" font-family="Helvetica,sans-Serif" font-size="10.00" fill="#000000">DfMpu9250Wrapper::start</text>
</a>
</g>
</g>
<!-- Node307&#45;&gt;Node308 -->
<g id="edge5" class="edge">
<title>Node307&#45;&gt;Node308</title>
<path fill="none" stroke="#191970" d="M734.021,-54.5771C743.6214,-55.8395 753.802,-57.1781 763.7884,-58.4912"/>
<polygon fill="#191970" stroke="#191970" points="734.2387,-51.0757 723.8678,-53.2421 733.3261,-58.016 734.2387,-51.0757"/>
</g>
<!-- Node311 -->
<g id="node9" class="node">
<title>Node311</title>
<g id="a_node9"><a xlink:href="../../df/d21/namespacempu9250.html#a05201b22e3247f6e9010deb5e9997cc3" target="_top" xlink:title="mpu9250::start_bus">
<polygon fill="#ffffff" stroke="#000000" points="777,-18.5 777,-37.5 880,-37.5 880,-18.5 777,-18.5"/>
<text text-anchor="middle" x="828.5" y="-25.5" font-family="Helvetica,sans-Serif" font-size="10.00" fill="#000000">mpu9250::start_bus</text>
</a>
</g>
</g>
<!-- Node307&#45;&gt;Node311 -->
<g id="edge8" class="edge">
<title>Node307&#45;&gt;Node311</title>
<path fill="none" stroke="#191970" d="M734.1535,-41.0583C747.9573,-39.1478 762.9519,-37.0724 776.8391,-35.1503"/>
<polygon fill="#191970" stroke="#191970" points="733.2935,-37.6439 723.8678,-42.482 734.2532,-44.5778 733.2935,-37.6439"/>
</g>
<!-- Node309 -->
<g id="node7" class="node">
<title>Node309</title>
<g id="a_node7"><a xlink:href="../../d9/d33/namespacedf__mpu9250__wrapper.html#a90362e9bb9eedb77edcd1aaf6fff4b61" target="_top" xlink:title="df_mpu9250_wrapper\l::start">
<polygon fill="#ffffff" stroke="#000000" points="929,-54 929,-84 1039,-84 1039,-54 929,-54"/>
<text text-anchor="start" x="937" y="-72" font-family="Helvetica,sans-Serif" font-size="10.00" fill="#000000">df_mpu9250_wrapper</text>
<text text-anchor="middle" x="984" y="-61" font-family="Helvetica,sans-Serif" font-size="10.00" fill="#000000">::start</text>
</a>
</g>
</g>
<!-- Node308&#45;&gt;Node309 -->
<g id="edge6" class="edge">
<title>Node308&#45;&gt;Node309</title>
<path fill="none" stroke="#191970" d="M903.1669,-67.9603C911.7881,-68.0712 920.4599,-68.1828 928.7575,-68.2895"/>
<polygon fill="#191970" stroke="#191970" points="903.1393,-64.4598 893.0951,-67.8308 903.0492,-71.4592 903.1393,-64.4598"/>
</g>
<!-- Node310 -->
<g id="node8" class="node">
<title>Node310</title>
<g id="a_node8"><a xlink:href="../../da/d7c/df__mpu9250__wrapper_8cpp.html#a164b2fb7a47058cab43b3ba9c78eff47" target="_top" xlink:title="df_mpu9250_wrapper_main">
<polygon fill="#ffffff" stroke="#000000" points="1075,-59.5 1075,-78.5 1211,-78.5 1211,-59.5 1075,-59.5"/>
<text text-anchor="middle" x="1143" y="-66.5" font-family="Helvetica,sans-Serif" font-size="10.00" fill="#000000">df_mpu9250_wrapper_main</text>
</a>
</g>
</g>
<!-- Node309&#45;&gt;Node310 -->
<g id="edge7" class="edge">
<title>Node309&#45;&gt;Node310</title>
<path fill="none" stroke="#191970" d="M1049.2817,-69C1057.6869,-69 1066.3113,-69 1074.7624,-69"/>
<polygon fill="#191970" stroke="#191970" points="1049.1643,-65.5001 1039.1643,-69 1049.1642,-72.5001 1049.1643,-65.5001"/>
</g>
<!-- Node312 -->
<g id="node10" class="node">
<title>Node312</title>
<g id="a_node10"><a xlink:href="../../df/d21/namespacempu9250.html#a673cf6d880f7c04112973ded5fa22065" target="_top" xlink:title="mpu9250::start">
<polygon fill="#ffffff" stroke="#000000" points="943,-15.5 943,-34.5 1025,-34.5 1025,-15.5 943,-15.5"/>
<text text-anchor="middle" x="984" y="-22.5" font-family="Helvetica,sans-Serif" font-size="10.00" fill="#000000">mpu9250::start</text>
</a>
</g>
</g>
<!-- Node311&#45;&gt;Node312 -->
<g id="edge9" class="edge">
<title>Node311&#45;&gt;Node312</title>
<path fill="none" stroke="#191970" d="M890.4679,-26.8045C908.0416,-26.4654 926.7384,-26.1047 942.7594,-25.7956"/>
<polygon fill="#191970" stroke="#191970" points="890.2098,-23.3087 880.2792,-27.001 890.3449,-30.3074 890.2098,-23.3087"/>
</g>
<!-- Node313 -->
<g id="node11" class="node">
<title>Node313</title>
<g id="a_node11"><a xlink:href="../../d9/dc0/mpu9250__main_8cpp.html#a3042bdbce29769738e20356a6f769b2b" target="_top" xlink:title="mpu9250_main">
<polygon fill="#ffffff" stroke="#000000" points="1101.5,-15.5 1101.5,-34.5 1184.5,-34.5 1184.5,-15.5 1101.5,-15.5"/>
<text text-anchor="middle" x="1143" y="-22.5" font-family="Helvetica,sans-Serif" font-size="10.00" fill="#000000">mpu9250_main</text>
</a>
</g>
</g>
<!-- Node312&#45;&gt;Node313 -->
<g id="edge10" class="edge">
<title>Node312&#45;&gt;Node313</title>
<path fill="none" stroke="#191970" d="M1035.5302,-25C1056.8131,-25 1081.1611,-25 1101.2944,-25"/>
<polygon fill="#191970" stroke="#191970" points="1035.3603,-21.5001 1025.3603,-25 1035.3603,-28.5001 1035.3603,-21.5001"/>
</g>
</g>
</svg>
        <g id="navigator" transform="translate(0 0)" fill="#404254">
                <rect fill="#f2f5e9" fill-opacity="0.5" stroke="#606060" stroke-width=".5" x="0" y="0" width="60" height="60"/>
                <use id="zoomplus" xlink:href="#zoomPlus" x="17" y="9" onmousedown="handleZoom(evt,'in')"/>
                <use id="zoomminus" xlink:href="#zoomMin" x="42" y="9" onmousedown="handleZoom(evt,'out')"/>
                <use id="reset" xlink:href="#resetDef" x="30" y="36" onmousedown="handleReset()"/>
                <g id="arrowUp" xlink:href="#dirArrow" transform="translate(30 24)" onmousedown="handlePan(0,-1)">
                  <use xlink:href="#rim" fill="#404040">
                        <set attributeName="fill" to="#808080" begin="arrowUp.mouseover" end="arrowUp.mouseout"/>
                  </use>
                  <path fill="none" stroke="white" stroke-width="1.5" d="M0,-3.0v7 M-2.5,-0.5L0,-3.0L2.5,-0.5"/>
                </g>
                <g id="arrowRight" xlink:href="#dirArrow" transform="rotate(90) translate(36 -43)" onmousedown="handlePan(1,0)">
                  <use xlink:href="#rim" fill="#404040">
                        <set attributeName="fill" to="#808080" begin="arrowRight.mouseover" end="arrowRight.mouseout"/>
                  </use>
                  <path fill="none" stroke="white" stroke-width="1.5" d="M0,-3.0v7 M-2.5,-0.5L0,-3.0L2.5,-0.5"/>
                </g>
                <g id="arrowDown" xlink:href="#dirArrow" transform="rotate(180) translate(-30 -48)" onmousedown="handlePan(0,1)">
                  <use xlink:href="#rim" fill="#404040">
                        <set attributeName="fill" to="#808080" begin="arrowDown.mouseover" end="arrowDown.mouseout"/>
                  </use>
                  <path fill="none" stroke="white" stroke-width="1.5" d="M0,-3.0v7 M-2.5,-0.5L0,-3.0L2.5,-0.5"/>
                </g>
                <g id="arrowLeft" xlink:href="#dirArrow" transform="rotate(270) translate(-36 17)" onmousedown="handlePan(-1,0)">
                  <use xlink:href="#rim" fill="#404040">
                        <set attributeName="fill" to="#808080" begin="arrowLeft.mouseover" end="arrowLeft.mouseout"/>
                  </use>
                  <path fill="none" stroke="white" stroke-width="1.5" d="M0,-3.0v7 M-2.5,-0.5L0,-3.0L2.5,-0.5"/>
                </g>
        </g>
        <svg viewBox="0 0 15 15" width="100%" height="30px" preserveAspectRatio="xMaxYMin meet">
         <g id="arrow_out" transform="scale(0.3 0.3)">
          <a xlink:href="class_m_p_u9250__mag_adc6747d96e400031f52949fabef851f8_icgraph_org.svg" target="_base">
           <rect id="button" ry="5" rx="5" y="6" x="6" height="38" width="38"
                fill="#f2f5e9" fill-opacity="0.5" stroke="#606060" stroke-width="1.0"/>
           <path id="arrow"
             d="M 11.500037,31.436501 C 11.940474,20.09759 22.043105,11.32322 32.158766,21.979434 L 37.068811,17.246167 C 37.068811,17.246167 37.088388,32 37.088388,32 L 22.160133,31.978069 C 22.160133,31.978069 26.997745,27.140456 26.997745,27.140456 C 18.528582,18.264221 13.291696,25.230495 11.500037,31.436501 z"
             style="fill:#404040;"/>
          </a>
         </g>
        </svg>
</svg>
