<?xml version="1.0" encoding="UTF-8" standalone="no"?>
<!DOCTYPE svg PUBLIC "-//W3C//DTD SVG 1.1//EN"
 "http://www.w3.org/Graphics/SVG/1.1/DTD/svg11.dtd">
<!-- Generated by graphviz version 2.40.1 (20161225.0304)
 -->
<!-- Title: MPU9250_mag::read_reg Pages: 1 -->
<!--zoomable 104 -->
<svg id="main" version="1.1" xmlns="http://www.w3.org/2000/svg" xmlns:xlink="http://www.w3.org/1999/xlink" xml:space="preserve" onload="init(evt)">
<style type="text/css"><![CDATA[
.edge:hover path { stroke: red; }
.edge:hover polygon { stroke: red; fill: red; }
]]></style>
<script type="text/javascript"><![CDATA[
var edges = document.getElementsByTagName('g');
if (edges && edges.length) {
  for (var i=0;i<edges.length;i++) {
    if (edges[i].id.substr(0,4)=='edge') {
      edges[i].setAttribute('class','edge');
    }
  }
}
]]></script>
        <defs>
                <circle id="rim" cx="0" cy="0" r="7"/>
                <circle id="rim2" cx="0" cy="0" r="3.5"/>
                <g id="zoomPlus">
                        <use xlink:href="#rim" fill="#404040">
                                <set attributeName="fill" to="#808080" begin="zoomplus.mouseover" end="zoomplus.mouseout"/>
                        </use>
                        <path d="M-4,0h8M0,-4v8" fill="none" stroke="white" stroke-width="1.5" pointer-events="none"/>
                </g>
                <g id="zoomMin">
                        <use xlink:href="#rim" fill="#404040">
                                <set attributeName="fill" to="#808080" begin="zoomminus.mouseover" end="zoomminus.mouseout"/>
                        </use>
                        <path d="M-4,0h8" fill="none" stroke="white" stroke-width="1.5" pointer-events="none"/>
                </g>
                <g id="dirArrow">
                        <path fill="none" stroke="white" stroke-width="1.5" d="M0,-3.0v7 M-2.5,-0.5L0,-3.0L2.5,-0.5"/>
                </g>
               <g id="resetDef">
                       <use xlink:href="#rim2" fill="#404040">
                               <set attributeName="fill" to="#808080" begin="reset.mouseover" end="reset.mouseout"/>
                       </use>
               </g>
        </defs>

<script type="text/javascript">
var viewWidth = 825;
var viewHeight = 104;
var sectionId = 'dynsection-25';
</script>
<script xlink:href="../../svgpan.js"/>
<svg id="graph" class="graph">
<g id="viewport">
<title>MPU9250_mag::read_reg</title>
<polygon fill="#ffffff" stroke="transparent" points="-4,4 -4,-100 821,-100 821,4 -4,4"/>
<!-- Node259 -->
<g id="node1" class="node">
<title>Node259</title>
<polygon fill="#bfbfbf" stroke="#000000" points="0,-.5 0,-19.5 128,-19.5 128,-.5 0,-.5"/>
<text text-anchor="middle" x="64" y="-7.5" font-family="Helvetica,sans-Serif" font-size="10.00" fill="#000000">MPU9250_mag::read_reg</text>
</g>
<!-- Node260 -->
<g id="node2" class="node">
<title>Node260</title>
<g id="a_node2"><a xlink:href="../../d5/d16/class_m_p_u9250__mag.html#ae46a0f0911a434547ce139050e0e245e" target="_top" xlink:title="MPU9250_mag::passthrough_read">
<polygon fill="#ffffff" stroke="#000000" points="164,-38.5 164,-57.5 331,-57.5 331,-38.5 164,-38.5"/>
<text text-anchor="middle" x="247.5" y="-45.5" font-family="Helvetica,sans-Serif" font-size="10.00" fill="#000000">MPU9250_mag::passthrough_read</text>
</a>
</g>
</g>
<!-- Node259&#45;&gt;Node260 -->
<g id="edge1" class="edge">
<title>Node259&#45;&gt;Node260</title>
<path fill="none" stroke="#191970" d="M110.3048,-19.589C134.9559,-24.6939 165.4625,-31.0113 191.4447,-36.3918"/>
<polygon fill="#191970" stroke="#191970" points="191.0262,-39.8793 201.5282,-38.4799 192.4457,-33.0248 191.0262,-39.8793"/>
</g>
<!-- Node262 -->
<g id="node4" class="node">
<title>Node262</title>
<g id="a_node4"><a xlink:href="../../dd/dd3/classdevice_1_1_device.html#a0700ecd19a8206ba1a378ca8d2eca273" target="_top" xlink:title="Read directly from the device. ">
<polygon fill="#ffffff" stroke="#000000" points="565,-.5 565,-19.5 672,-19.5 672,-.5 565,-.5"/>
<text text-anchor="middle" x="618.5" y="-7.5" font-family="Helvetica,sans-Serif" font-size="10.00" fill="#000000">device::Device::read</text>
</a>
</g>
</g>
<!-- Node259&#45;&gt;Node262 -->
<g id="edge8" class="edge">
<title>Node259&#45;&gt;Node262</title>
<path fill="none" stroke="#191970" d="M128.1499,-10C234.9209,-10 447.8688,-10 554.5242,-10"/>
<polygon fill="#191970" stroke="#191970" points="554.8176,-13.5001 564.8175,-10 554.8175,-6.5001 554.8176,-13.5001"/>
</g>
<!-- Node261 -->
<g id="node3" class="node">
<title>Node261</title>
<g id="a_node3"><a xlink:href="../../d5/d16/class_m_p_u9250__mag.html#af6d0217b27c0a1b0be69979fe77e0e30" target="_top" xlink:title="MPU9250_mag::read_block">
<polygon fill="#ffffff" stroke="#000000" points="379.5,-19.5 379.5,-38.5 516.5,-38.5 516.5,-19.5 379.5,-19.5"/>
<text text-anchor="middle" x="448" y="-26.5" font-family="Helvetica,sans-Serif" font-size="10.00" fill="#000000">MPU9250_mag::read_block</text>
</a>
</g>
</g>
<!-- Node260&#45;&gt;Node261 -->
<g id="edge2" class="edge">
<title>Node260&#45;&gt;Node261</title>
<path fill="none" stroke="#191970" d="M331.0782,-40.0799C343.796,-38.8747 356.8822,-37.6346 369.4867,-36.4402"/>
<polygon fill="#191970" stroke="#191970" points="369.8506,-39.9215 379.4758,-35.4936 369.1902,-32.9527 369.8506,-39.9215"/>
</g>
<!-- Node263 -->
<g id="node5" class="node">
<title>Node263</title>
<g id="a_node5"><a xlink:href="../../d5/d16/class_m_p_u9250__mag.html#adea1751a0228dde6dbf8dcec6a3caa9c" target="_top" xlink:title="MPU9250_mag::set_passthrough">
<polygon fill="#ffffff" stroke="#000000" points="367,-57.5 367,-76.5 529,-76.5 529,-57.5 367,-57.5"/>
<text text-anchor="middle" x="448" y="-64.5" font-family="Helvetica,sans-Serif" font-size="10.00" fill="#000000">MPU9250_mag::set_passthrough</text>
</a>
</g>
</g>
<!-- Node260&#45;&gt;Node263 -->
<g id="edge4" class="edge">
<title>Node260&#45;&gt;Node263</title>
<path fill="none" stroke="#191970" d="M331.0782,-55.9201C339.5735,-56.7252 348.2332,-57.5458 356.8039,-58.358"/>
<polygon fill="#191970" stroke="#191970" points="356.5235,-61.847 366.8091,-59.3061 357.1839,-54.8782 356.5235,-61.847"/>
</g>
<!-- Node264 -->
<g id="node6" class="node">
<title>Node264</title>
<g id="a_node6"><a xlink:href="../../df/dd9/class_m_p_u9250.html#ad1709c24cbe9e442c6f097c855b9bbb8" target="_top" xlink:title="Write a register in the mpu. ">
<polygon fill="#ffffff" stroke="#000000" points="565.5,-76.5 565.5,-95.5 671.5,-95.5 671.5,-76.5 565.5,-76.5"/>
<text text-anchor="middle" x="618.5" y="-83.5" font-family="Helvetica,sans-Serif" font-size="10.00" fill="#000000">MPU9250::write_reg</text>
</a>
</g>
</g>
<!-- Node260&#45;&gt;Node264 -->
<g id="edge7" class="edge">
<title>Node260&#45;&gt;Node264</title>
<path fill="none" stroke="#191970" d="M270.3465,-57.5948C294.0289,-66.9814 332.3645,-80.6257 367,-86 430.3745,-95.8337 503.8183,-94.3831 554.9145,-91.3599"/>
<polygon fill="#191970" stroke="#191970" points="555.3859,-94.8373 565.1462,-90.7159 554.9461,-87.8511 555.3859,-94.8373"/>
</g>
<!-- Node261&#45;&gt;Node262 -->
<g id="edge3" class="edge">
<title>Node261&#45;&gt;Node262</title>
<path fill="none" stroke="#191970" d="M516.8574,-21.3267C529.3488,-19.9347 542.3282,-18.4884 554.6674,-17.1133"/>
<polygon fill="#191970" stroke="#191970" points="555.3063,-20.5639 564.8571,-15.9778 554.531,-13.6069 555.3063,-20.5639"/>
</g>
<!-- Node263&#45;&gt;Node264 -->
<g id="edge5" class="edge">
<title>Node263&#45;&gt;Node264</title>
<path fill="none" stroke="#191970" d="M529.2552,-76.0548C537.9139,-77.0197 546.6277,-77.9908 555.0382,-78.928"/>
<polygon fill="#191970" stroke="#191970" points="554.7966,-82.4227 565.1227,-80.0518 555.5719,-75.4657 554.7966,-82.4227"/>
</g>
<!-- Node265 -->
<g id="node7" class="node">
<title>Node265</title>
<g id="a_node7"><a xlink:href="../../dd/dd3/classdevice_1_1_device.html#a233074b15f0089e91f498121d4d85a53" target="_top" xlink:title="Write directly to the device. ">
<polygon fill="#ffffff" stroke="#000000" points="708,-76.5 708,-95.5 817,-95.5 817,-76.5 708,-76.5"/>
<text text-anchor="middle" x="762.5" y="-83.5" font-family="Helvetica,sans-Serif" font-size="10.00" fill="#000000">device::Device::write</text>
</a>
</g>
</g>
<!-- Node264&#45;&gt;Node265 -->
<g id="edge6" class="edge">
<title>Node264&#45;&gt;Node265</title>
<path fill="none" stroke="#191970" d="M671.7112,-86C680.1185,-86 688.8933,-86 697.5319,-86"/>
<polygon fill="#191970" stroke="#191970" points="697.58,-89.5001 707.5799,-86 697.5799,-82.5001 697.58,-89.5001"/>
</g>
</g>
</svg>
        <g id="navigator" transform="translate(0 0)" fill="#404254">
                <rect fill="#f2f5e9" fill-opacity="0.5" stroke="#606060" stroke-width=".5" x="0" y="0" width="60" height="60"/>
                <use id="zoomplus" xlink:href="#zoomPlus" x="17" y="9" onmousedown="handleZoom(evt,'in')"/>
                <use id="zoomminus" xlink:href="#zoomMin" x="42" y="9" onmousedown="handleZoom(evt,'out')"/>
                <use id="reset" xlink:href="#resetDef" x="30" y="36" onmousedown="handleReset()"/>
                <g id="arrowUp" xlink:href="#dirArrow" transform="translate(30 24)" onmousedown="handlePan(0,-1)">
                  <use xlink:href="#rim" fill="#404040">
                        <set attributeName="fill" to="#808080" begin="arrowUp.mouseover" end="arrowUp.mouseout"/>
                  </use>
                  <path fill="none" stroke="white" stroke-width="1.5" d="M0,-3.0v7 M-2.5,-0.5L0,-3.0L2.5,-0.5"/>
                </g>
                <g id="arrowRight" xlink:href="#dirArrow" transform="rotate(90) translate(36 -43)" onmousedown="handlePan(1,0)">
                  <use xlink:href="#rim" fill="#404040">
                        <set attributeName="fill" to="#808080" begin="arrowRight.mouseover" end="arrowRight.mouseout"/>
                  </use>
                  <path fill="none" stroke="white" stroke-width="1.5" d="M0,-3.0v7 M-2.5,-0.5L0,-3.0L2.5,-0.5"/>
                </g>
                <g id="arrowDown" xlink:href="#dirArrow" transform="rotate(180) translate(-30 -48)" onmousedown="handlePan(0,1)">
                  <use xlink:href="#rim" fill="#404040">
                        <set attributeName="fill" to="#808080" begin="arrowDown.mouseover" end="arrowDown.mouseout"/>
                  </use>
                  <path fill="none" stroke="white" stroke-width="1.5" d="M0,-3.0v7 M-2.5,-0.5L0,-3.0L2.5,-0.5"/>
                </g>
                <g id="arrowLeft" xlink:href="#dirArrow" transform="rotate(270) translate(-36 17)" onmousedown="handlePan(-1,0)">
                  <use xlink:href="#rim" fill="#404040">
                        <set attributeName="fill" to="#808080" begin="arrowLeft.mouseover" end="arrowLeft.mouseout"/>
                  </use>
                  <path fill="none" stroke="white" stroke-width="1.5" d="M0,-3.0v7 M-2.5,-0.5L0,-3.0L2.5,-0.5"/>
                </g>
        </g>
        <svg viewBox="0 0 15 15" width="100%" height="30px" preserveAspectRatio="xMaxYMin meet">
         <g id="arrow_out" transform="scale(0.3 0.3)">
          <a xlink:href="class_m_p_u9250__mag_ad71c13a5e0b2ea6c3aa9a2faf11bc487_cgraph_org.svg" target="_base">
           <rect id="button" ry="5" rx="5" y="6" x="6" height="38" width="38"
                fill="#f2f5e9" fill-opacity="0.5" stroke="#606060" stroke-width="1.0"/>
           <path id="arrow"
             d="M 11.500037,31.436501 C 11.940474,20.09759 22.043105,11.32322 32.158766,21.979434 L 37.068811,17.246167 C 37.068811,17.246167 37.088388,32 37.088388,32 L 22.160133,31.978069 C 22.160133,31.978069 26.997745,27.140456 26.997745,27.140456 C 18.528582,18.264221 13.291696,25.230495 11.500037,31.436501 z"
             style="fill:#404040;"/>
          </a>
         </g>
        </svg>
</svg>
