<?xml version="1.0" encoding="UTF-8" standalone="no"?>
<!DOCTYPE svg PUBLIC "-//W3C//DTD SVG 1.1//EN"
 "http://www.w3.org/Graphics/SVG/1.1/DTD/svg11.dtd">
<!-- Generated by graphviz version 2.38.0 (20140413.2041)
 -->
<!-- Title: LSM303AGR::collect Pages: 1 -->
<svg width="717pt" height="47pt"
 viewBox="0.00 0.00 717.00 47.00" xmlns="http://www.w3.org/2000/svg" xmlns:xlink="http://www.w3.org/1999/xlink">
<g id="graph0" class="graph" transform="scale(1 1) rotate(0) translate(4 43)">
<title>LSM303AGR::collect</title>
<polygon fill="white" stroke="none" points="-4,4 -4,-43 713,-43 713,4 -4,4"/>
<!-- Node1 -->
<g id="node1" class="node"><title>Node1</title>
<polygon fill="#bfbfbf" stroke="black" points="0,-19.5 0,-38.5 109,-38.5 109,-19.5 0,-19.5"/>
<text text-anchor="middle" x="54.5" y="-26.5" font-family="Helvetica,sans-Serif" font-size="10.00">LSM303AGR::collect</text>
</g>
<!-- Node2 -->
<g id="node2" class="node"><title>Node2</title>
<g id="a_node2"><a xlink:href="../../dc/d46/class_l_s_m303_a_g_r.html#a42c0c5b8ab244453d11b4283ceb6a7a0" target="_top" xlink:title="Perform a poll cycle; collect from the previous measurement and start a new one. ">
<polygon fill="white" stroke="black" points="145,-19.5 145,-38.5 249,-38.5 249,-19.5 145,-19.5"/>
<text text-anchor="middle" x="197" y="-26.5" font-family="Helvetica,sans-Serif" font-size="10.00">LSM303AGR::cycle</text>
</a>
</g>
</g>
<!-- Node1&#45;&gt;Node2 -->
<g id="edge1" class="edge"><title>Node1&#45;&gt;Node2</title>
<path fill="none" stroke="midnightblue" d="M119.09,-29C127.75,-29 136.547,-29 144.947,-29"/>
<polygon fill="midnightblue" stroke="midnightblue" points="119.018,-25.5001 109.018,-29 119.018,-32.5001 119.018,-25.5001"/>
</g>
<!-- Node3 -->
<g id="node3" class="node"><title>Node3</title>
<g id="a_node3"><a xlink:href="../../dc/d46/class_l_s_m303_a_g_r.html#ab5c17200646a8943f6359c15051605e7" target="_top" xlink:title="Static trampoline from the workq context; because we don&#39;t have a generic workq wrapper yet...">
<polygon fill="white" stroke="black" points="285,-19.5 285,-38.5 439,-38.5 439,-19.5 285,-19.5"/>
<text text-anchor="middle" x="362" y="-26.5" font-family="Helvetica,sans-Serif" font-size="10.00">LSM303AGR::cycle_trampoline</text>
</a>
</g>
</g>
<!-- Node2&#45;&gt;Node3 -->
<g id="edge2" class="edge"><title>Node2&#45;&gt;Node3</title>
<path fill="none" stroke="midnightblue" d="M259.21,-22.4395C267.623,-22.2793 276.344,-22.2207 284.982,-22.2636"/>
<polygon fill="midnightblue" stroke="midnightblue" points="259.039,-18.9425 249.127,-22.6852 259.209,-25.9404 259.039,-18.9425"/>
</g>
<!-- Node3&#45;&gt;Node2 -->
<g id="edge6" class="edge"><title>Node3&#45;&gt;Node2</title>
<path fill="none" stroke="midnightblue" d="M274.716,-35.7397C265.978,-35.7018 257.314,-35.5602 249.127,-35.3148"/>
<polygon fill="midnightblue" stroke="midnightblue" points="274.984,-39.2397 284.982,-35.7364 274.981,-32.2397 274.984,-39.2397"/>
</g>
<!-- Node4 -->
<g id="node4" class="node"><title>Node4</title>
<g id="a_node4"><a xlink:href="../../dc/d46/class_l_s_m303_a_g_r.html#abf655b63f1ac173e11bfc40b5706c55e" target="_top" xlink:title="Start automatic measurement. ">
<polygon fill="white" stroke="black" points="475,-0.5 475,-19.5 575,-19.5 575,-0.5 475,-0.5"/>
<text text-anchor="middle" x="525" y="-7.5" font-family="Helvetica,sans-Serif" font-size="10.00">LSM303AGR::start</text>
</a>
</g>
</g>
<!-- Node3&#45;&gt;Node4 -->
<g id="edge3" class="edge"><title>Node3&#45;&gt;Node4</title>
<path fill="none" stroke="midnightblue" d="M449.412,-18.8023C458.048,-17.7832 466.592,-16.7748 474.645,-15.8245"/>
<polygon fill="midnightblue" stroke="midnightblue" points="448.777,-15.3528 439.257,-20.0008 449.598,-22.3046 448.777,-15.3528"/>
</g>
<!-- Node4&#45;&gt;Node2 -->
<g id="edge5" class="edge"><title>Node4&#45;&gt;Node2</title>
<path fill="none" stroke="midnightblue" d="M464.854,-6.48069C416.372,-4.43993 346.045,-3.41184 285,-10 267.785,-11.8579 248.98,-15.7269 233.273,-19.4916"/>
<polygon fill="midnightblue" stroke="midnightblue" points="464.711,-9.97766 474.857,-6.92916 465.024,-2.98469 464.711,-9.97766"/>
</g>
<!-- Node5 -->
<g id="node5" class="node"><title>Node5</title>
<g id="a_node5"><a xlink:href="../../dc/d46/class_l_s_m303_a_g_r.html#aa4bb36d27f6af7b89db316d9c871d3a2" target="_top" xlink:title="LSM303AGR::ioctl">
<polygon fill="white" stroke="black" points="611,-0.5 611,-19.5 709,-19.5 709,-0.5 611,-0.5"/>
<text text-anchor="middle" x="660" y="-7.5" font-family="Helvetica,sans-Serif" font-size="10.00">LSM303AGR::ioctl</text>
</a>
</g>
</g>
<!-- Node4&#45;&gt;Node5 -->
<g id="edge4" class="edge"><title>Node4&#45;&gt;Node5</title>
<path fill="none" stroke="midnightblue" d="M585.158,-10C593.783,-10 602.573,-10 610.941,-10"/>
<polygon fill="midnightblue" stroke="midnightblue" points="585.146,-6.5001 575.146,-10 585.146,-13.5001 585.146,-6.5001"/>
</g>
</g>
</svg>
