<?xml version="1.0" encoding="UTF-8" standalone="no"?>
<!DOCTYPE svg PUBLIC "-//W3C//DTD SVG 1.1//EN"
 "http://www.w3.org/Graphics/SVG/1.1/DTD/svg11.dtd">
<!-- Generated by graphviz version 2.38.0 (20140413.2041)
 -->
<!-- Title: LidarLiteI2C::write_reg Pages: 1 -->
<svg width="804pt" height="104pt"
 viewBox="0.00 0.00 804.00 104.00" xmlns="http://www.w3.org/2000/svg" xmlns:xlink="http://www.w3.org/1999/xlink">
<g id="graph0" class="graph" transform="scale(1 1) rotate(0) translate(4 100)">
<title>LidarLiteI2C::write_reg</title>
<polygon fill="white" stroke="none" points="-4,4 -4,-100 800,-100 800,4 -4,4"/>
<!-- Node1 -->
<g id="node1" class="node"><title>Node1</title>
<polygon fill="#bfbfbf" stroke="black" points="0,-38.5 0,-57.5 115,-57.5 115,-38.5 0,-38.5"/>
<text text-anchor="middle" x="57.5" y="-45.5" font-family="Helvetica,sans-Serif" font-size="10.00">LidarLiteI2C::write_reg</text>
</g>
<!-- Node2 -->
<g id="node2" class="node"><title>Node2</title>
<g id="a_node2"><a xlink:href="../../dc/dec/class_lidar_lite_i2_c.html#aef3c1d279556d96b6320817159752c93" target="_top" xlink:title="LidarLiteI2C::reset\l_sensor">
<polygon fill="white" stroke="black" points="151,-33 151,-63 248,-63 248,-33 151,-33"/>
<text text-anchor="start" x="159" y="-51" font-family="Helvetica,sans-Serif" font-size="10.00">LidarLiteI2C::reset</text>
<text text-anchor="middle" x="199.5" y="-40" font-family="Helvetica,sans-Serif" font-size="10.00">_sensor</text>
</a>
</g>
</g>
<!-- Node1&#45;&gt;Node2 -->
<g id="edge1" class="edge"><title>Node1&#45;&gt;Node2</title>
<path fill="none" stroke="midnightblue" d="M125.124,-48C133.768,-48 142.48,-48 150.733,-48"/>
<polygon fill="midnightblue" stroke="midnightblue" points="125.04,-44.5001 115.04,-48 125.04,-51.5001 125.04,-44.5001"/>
</g>
<!-- Node3 -->
<g id="node3" class="node"><title>Node3</title>
<g id="a_node3"><a xlink:href="../../dc/dec/class_lidar_lite_i2_c.html#aff0c3615e32f0b251e36cb76c64c4557" target="_top" xlink:title="LidarLiteI2C::collect">
<polygon fill="white" stroke="black" points="288.5,-76.5 288.5,-95.5 392.5,-95.5 392.5,-76.5 288.5,-76.5"/>
<text text-anchor="middle" x="340.5" y="-83.5" font-family="Helvetica,sans-Serif" font-size="10.00">LidarLiteI2C::collect</text>
</a>
</g>
</g>
<!-- Node2&#45;&gt;Node3 -->
<g id="edge2" class="edge"><title>Node2&#45;&gt;Node3</title>
<path fill="none" stroke="midnightblue" d="M258.064,-63.7369C273.914,-68.07 290.618,-72.6365 304.744,-76.4983"/>
<polygon fill="midnightblue" stroke="midnightblue" points="258.905,-60.3384 248.336,-61.0774 257.059,-67.0907 258.905,-60.3384"/>
</g>
<!-- Node8 -->
<g id="node8" class="node"><title>Node8</title>
<g id="a_node8"><a xlink:href="../../dc/dec/class_lidar_lite_i2_c.html#a3d16881e23a324ed38a35283bd9acc82" target="_top" xlink:title="LidarLiteI2C::measure">
<polygon fill="white" stroke="black" points="284,-38.5 284,-57.5 397,-57.5 397,-38.5 284,-38.5"/>
<text text-anchor="middle" x="340.5" y="-45.5" font-family="Helvetica,sans-Serif" font-size="10.00">LidarLiteI2C::measure</text>
</a>
</g>
</g>
<!-- Node2&#45;&gt;Node8 -->
<g id="edge8" class="edge"><title>Node2&#45;&gt;Node8</title>
<path fill="none" stroke="midnightblue" d="M258.463,-48C266.889,-48 275.547,-48 283.924,-48"/>
<polygon fill="midnightblue" stroke="midnightblue" points="258.336,-44.5001 248.336,-48 258.336,-51.5001 258.336,-44.5001"/>
</g>
<!-- Node10 -->
<g id="node10" class="node"><title>Node10</title>
<g id="a_node10"><a xlink:href="../../dc/dec/class_lidar_lite_i2_c.html#a06c908c6fe2e007e73ad05a6e4018ac5" target="_top" xlink:title="LidarLiteI2C::probe">
<polygon fill="white" stroke="black" points="291,-0.5 291,-19.5 390,-19.5 390,-0.5 291,-0.5"/>
<text text-anchor="middle" x="340.5" y="-7.5" font-family="Helvetica,sans-Serif" font-size="10.00">LidarLiteI2C::probe</text>
</a>
</g>
</g>
<!-- Node2&#45;&gt;Node10 -->
<g id="edge12" class="edge"><title>Node2&#45;&gt;Node10</title>
<path fill="none" stroke="midnightblue" d="M258.064,-32.2631C273.914,-27.93 290.618,-23.3635 304.744,-19.5017"/>
<polygon fill="midnightblue" stroke="midnightblue" points="257.059,-28.9093 248.336,-34.9226 258.905,-35.6616 257.059,-28.9093"/>
</g>
<!-- Node4 -->
<g id="node4" class="node"><title>Node4</title>
<g id="a_node4"><a xlink:href="../../dc/dec/class_lidar_lite_i2_c.html#a7b4c0603bc98fdd09ccc9a267feb0bc6" target="_top" xlink:title="Perform a poll cycle; collect from the previous measurement and start a new one. ">
<polygon fill="white" stroke="black" points="433,-38.5 433,-57.5 531,-57.5 531,-38.5 433,-38.5"/>
<text text-anchor="middle" x="482" y="-45.5" font-family="Helvetica,sans-Serif" font-size="10.00">LidarLiteI2C::cycle</text>
</a>
</g>
</g>
<!-- Node3&#45;&gt;Node4 -->
<g id="edge3" class="edge"><title>Node3&#45;&gt;Node4</title>
<path fill="none" stroke="midnightblue" d="M386.456,-73.7538C405.685,-68.516 427.803,-62.4909 445.81,-57.5859"/>
<polygon fill="midnightblue" stroke="midnightblue" points="385.43,-70.4057 376.702,-76.411 387.27,-77.1596 385.43,-70.4057"/>
</g>
<!-- Node7 -->
<g id="node7" class="node"><title>Node7</title>
<g id="a_node7"><a xlink:href="../../dc/dec/class_lidar_lite_i2_c.html#a1f9b81475d188624a5374d25c2c1f1b9" target="_top" xlink:title="LidarLiteI2C::read">
<polygon fill="white" stroke="black" points="435,-76.5 435,-95.5 529,-95.5 529,-76.5 435,-76.5"/>
<text text-anchor="middle" x="482" y="-83.5" font-family="Helvetica,sans-Serif" font-size="10.00">LidarLiteI2C::read</text>
</a>
</g>
</g>
<!-- Node3&#45;&gt;Node7 -->
<g id="edge7" class="edge"><title>Node3&#45;&gt;Node7</title>
<path fill="none" stroke="midnightblue" d="M402.86,-86C413.63,-86 424.669,-86 434.933,-86"/>
<polygon fill="midnightblue" stroke="midnightblue" points="402.653,-82.5001 392.653,-86 402.652,-89.5001 402.653,-82.5001"/>
</g>
<!-- Node5 -->
<g id="node5" class="node"><title>Node5</title>
<g id="a_node5"><a xlink:href="../../dc/dec/class_lidar_lite_i2_c.html#ae2983f4f8b4fa813a683e583b40e5f89" target="_top" xlink:title="Static trampoline from the workq context; because we don&#39;t have a generic workq wrapper yet...">
<polygon fill="white" stroke="black" points="567,-33 567,-63 665,-63 665,-33 567,-33"/>
<text text-anchor="start" x="575" y="-51" font-family="Helvetica,sans-Serif" font-size="10.00">LidarLiteI2C::cycle</text>
<text text-anchor="middle" x="616" y="-40" font-family="Helvetica,sans-Serif" font-size="10.00">_trampoline</text>
</a>
</g>
</g>
<!-- Node4&#45;&gt;Node5 -->
<g id="edge4" class="edge"><title>Node4&#45;&gt;Node5</title>
<path fill="none" stroke="midnightblue" d="M541.292,-41.2911C549.809,-41.1999 558.5,-41.2605 566.786,-41.4727"/>
<polygon fill="midnightblue" stroke="midnightblue" points="540.963,-37.7964 531.028,-41.4775 541.09,-44.7952 540.963,-37.7964"/>
</g>
<!-- Node5&#45;&gt;Node4 -->
<g id="edge5" class="edge"><title>Node5&#45;&gt;Node4</title>
<path fill="none" stroke="midnightblue" d="M556.517,-54.7109C547.997,-54.7998 539.309,-54.737 531.028,-54.5225"/>
<polygon fill="midnightblue" stroke="midnightblue" points="556.85,-58.2056 566.786,-54.5273 556.725,-51.2067 556.85,-58.2056"/>
</g>
<!-- Node6 -->
<g id="node6" class="node"><title>Node6</title>
<g id="a_node6"><a xlink:href="../../dc/dec/class_lidar_lite_i2_c.html#a40b3442828fffb7f7484be66bcd4fe59" target="_top" xlink:title="Initialise the automatic measurement state machine and start it. ">
<polygon fill="white" stroke="black" points="701,-38.5 701,-57.5 796,-57.5 796,-38.5 701,-38.5"/>
<text text-anchor="middle" x="748.5" y="-45.5" font-family="Helvetica,sans-Serif" font-size="10.00">LidarLiteI2C::start</text>
</a>
</g>
</g>
<!-- Node5&#45;&gt;Node6 -->
<g id="edge6" class="edge"><title>Node5&#45;&gt;Node6</title>
<path fill="none" stroke="midnightblue" d="M675.452,-48C683.933,-48 692.569,-48 700.778,-48"/>
<polygon fill="midnightblue" stroke="midnightblue" points="675.223,-44.5001 665.223,-48 675.223,-51.5001 675.223,-44.5001"/>
</g>
<!-- Node8&#45;&gt;Node4 -->
<g id="edge9" class="edge"><title>Node8&#45;&gt;Node4</title>
<path fill="none" stroke="midnightblue" d="M407.139,-48C415.808,-48 424.561,-48 432.861,-48"/>
<polygon fill="midnightblue" stroke="midnightblue" points="407.035,-44.5001 397.035,-48 407.035,-51.5001 407.035,-44.5001"/>
</g>
<!-- Node8&#45;&gt;Node7 -->
<g id="edge11" class="edge"><title>Node8&#45;&gt;Node7</title>
<path fill="none" stroke="midnightblue" d="M386.456,-60.2462C405.685,-65.484 427.803,-71.5091 445.81,-76.4141"/>
<polygon fill="midnightblue" stroke="midnightblue" points="387.27,-56.8404 376.702,-57.589 385.43,-63.5943 387.27,-56.8404"/>
</g>
<!-- Node9 -->
<g id="node9" class="node"><title>Node9</title>
<g id="a_node9"><a xlink:href="../../dc/dec/class_lidar_lite_i2_c.html#a30f027ae49609d2fe3d46eef3f1f59e2" target="_top" xlink:title="LidarLiteI2C::init">
<polygon fill="white" stroke="black" points="438,-0.5 438,-19.5 526,-19.5 526,-0.5 438,-0.5"/>
<text text-anchor="middle" x="482" y="-7.5" font-family="Helvetica,sans-Serif" font-size="10.00">LidarLiteI2C::init</text>
</a>
</g>
</g>
<!-- Node8&#45;&gt;Node9 -->
<g id="edge10" class="edge"><title>Node8&#45;&gt;Node9</title>
<path fill="none" stroke="midnightblue" d="M386.456,-35.7538C405.685,-30.516 427.803,-24.4909 445.81,-19.5859"/>
<polygon fill="midnightblue" stroke="midnightblue" points="385.43,-32.4057 376.702,-38.411 387.27,-39.1596 385.43,-32.4057"/>
</g>
</g>
</svg>
