<?xml version="1.0" encoding="UTF-8" standalone="no"?>
<!DOCTYPE svg PUBLIC "-//W3C//DTD SVG 1.1//EN"
 "http://www.w3.org/Graphics/SVG/1.1/DTD/svg11.dtd">
<!-- Generated by graphviz version 2.38.0 (20140413.2041)
 -->
<!-- Title: LidarLiteI2C::reset_sensor Pages: 1 -->
<svg width="653pt" height="104pt"
 viewBox="0.00 0.00 653.00 104.00" xmlns="http://www.w3.org/2000/svg" xmlns:xlink="http://www.w3.org/1999/xlink">
<g id="graph0" class="graph" transform="scale(1 1) rotate(0) translate(4 100)">
<title>LidarLiteI2C::reset_sensor</title>
<polygon fill="white" stroke="none" points="-4,4 -4,-100 649,-100 649,4 -4,4"/>
<!-- Node1 -->
<g id="node1" class="node"><title>Node1</title>
<polygon fill="#bfbfbf" stroke="black" points="0,-33 0,-63 97,-63 97,-33 0,-33"/>
<text text-anchor="start" x="8" y="-51" font-family="Helvetica,sans-Serif" font-size="10.00">LidarLiteI2C::reset</text>
<text text-anchor="middle" x="48.5" y="-40" font-family="Helvetica,sans-Serif" font-size="10.00">_sensor</text>
</g>
<!-- Node2 -->
<g id="node2" class="node"><title>Node2</title>
<g id="a_node2"><a xlink:href="../../dc/dec/class_lidar_lite_i2_c.html#aff0c3615e32f0b251e36cb76c64c4557" target="_top" xlink:title="LidarLiteI2C::collect">
<polygon fill="white" stroke="black" points="137.5,-76.5 137.5,-95.5 241.5,-95.5 241.5,-76.5 137.5,-76.5"/>
<text text-anchor="middle" x="189.5" y="-83.5" font-family="Helvetica,sans-Serif" font-size="10.00">LidarLiteI2C::collect</text>
</a>
</g>
</g>
<!-- Node1&#45;&gt;Node2 -->
<g id="edge1" class="edge"><title>Node1&#45;&gt;Node2</title>
<path fill="none" stroke="midnightblue" d="M107.064,-63.7369C122.914,-68.07 139.618,-72.6365 153.744,-76.4983"/>
<polygon fill="midnightblue" stroke="midnightblue" points="107.905,-60.3384 97.3359,-61.0774 106.059,-67.0907 107.905,-60.3384"/>
</g>
<!-- Node7 -->
<g id="node7" class="node"><title>Node7</title>
<g id="a_node7"><a xlink:href="../../dc/dec/class_lidar_lite_i2_c.html#a3d16881e23a324ed38a35283bd9acc82" target="_top" xlink:title="LidarLiteI2C::measure">
<polygon fill="white" stroke="black" points="133,-38.5 133,-57.5 246,-57.5 246,-38.5 133,-38.5"/>
<text text-anchor="middle" x="189.5" y="-45.5" font-family="Helvetica,sans-Serif" font-size="10.00">LidarLiteI2C::measure</text>
</a>
</g>
</g>
<!-- Node1&#45;&gt;Node7 -->
<g id="edge7" class="edge"><title>Node1&#45;&gt;Node7</title>
<path fill="none" stroke="midnightblue" d="M107.463,-48C115.889,-48 124.547,-48 132.924,-48"/>
<polygon fill="midnightblue" stroke="midnightblue" points="107.336,-44.5001 97.3359,-48 107.336,-51.5001 107.336,-44.5001"/>
</g>
<!-- Node9 -->
<g id="node9" class="node"><title>Node9</title>
<g id="a_node9"><a xlink:href="../../dc/dec/class_lidar_lite_i2_c.html#a06c908c6fe2e007e73ad05a6e4018ac5" target="_top" xlink:title="LidarLiteI2C::probe">
<polygon fill="white" stroke="black" points="140,-0.5 140,-19.5 239,-19.5 239,-0.5 140,-0.5"/>
<text text-anchor="middle" x="189.5" y="-7.5" font-family="Helvetica,sans-Serif" font-size="10.00">LidarLiteI2C::probe</text>
</a>
</g>
</g>
<!-- Node1&#45;&gt;Node9 -->
<g id="edge11" class="edge"><title>Node1&#45;&gt;Node9</title>
<path fill="none" stroke="midnightblue" d="M107.064,-32.2631C122.914,-27.93 139.618,-23.3635 153.744,-19.5017"/>
<polygon fill="midnightblue" stroke="midnightblue" points="106.059,-28.9093 97.3359,-34.9226 107.905,-35.6616 106.059,-28.9093"/>
</g>
<!-- Node3 -->
<g id="node3" class="node"><title>Node3</title>
<g id="a_node3"><a xlink:href="../../dc/dec/class_lidar_lite_i2_c.html#a7b4c0603bc98fdd09ccc9a267feb0bc6" target="_top" xlink:title="Perform a poll cycle; collect from the previous measurement and start a new one. ">
<polygon fill="white" stroke="black" points="282,-38.5 282,-57.5 380,-57.5 380,-38.5 282,-38.5"/>
<text text-anchor="middle" x="331" y="-45.5" font-family="Helvetica,sans-Serif" font-size="10.00">LidarLiteI2C::cycle</text>
</a>
</g>
</g>
<!-- Node2&#45;&gt;Node3 -->
<g id="edge2" class="edge"><title>Node2&#45;&gt;Node3</title>
<path fill="none" stroke="midnightblue" d="M235.456,-73.7538C254.685,-68.516 276.803,-62.4909 294.81,-57.5859"/>
<polygon fill="midnightblue" stroke="midnightblue" points="234.43,-70.4057 225.702,-76.411 236.27,-77.1596 234.43,-70.4057"/>
</g>
<!-- Node6 -->
<g id="node6" class="node"><title>Node6</title>
<g id="a_node6"><a xlink:href="../../dc/dec/class_lidar_lite_i2_c.html#a1f9b81475d188624a5374d25c2c1f1b9" target="_top" xlink:title="LidarLiteI2C::read">
<polygon fill="white" stroke="black" points="284,-76.5 284,-95.5 378,-95.5 378,-76.5 284,-76.5"/>
<text text-anchor="middle" x="331" y="-83.5" font-family="Helvetica,sans-Serif" font-size="10.00">LidarLiteI2C::read</text>
</a>
</g>
</g>
<!-- Node2&#45;&gt;Node6 -->
<g id="edge6" class="edge"><title>Node2&#45;&gt;Node6</title>
<path fill="none" stroke="midnightblue" d="M251.86,-86C262.63,-86 273.669,-86 283.933,-86"/>
<polygon fill="midnightblue" stroke="midnightblue" points="251.653,-82.5001 241.653,-86 251.652,-89.5001 251.653,-82.5001"/>
</g>
<!-- Node4 -->
<g id="node4" class="node"><title>Node4</title>
<g id="a_node4"><a xlink:href="../../dc/dec/class_lidar_lite_i2_c.html#ae2983f4f8b4fa813a683e583b40e5f89" target="_top" xlink:title="Static trampoline from the workq context; because we don&#39;t have a generic workq wrapper yet...">
<polygon fill="white" stroke="black" points="416,-33 416,-63 514,-63 514,-33 416,-33"/>
<text text-anchor="start" x="424" y="-51" font-family="Helvetica,sans-Serif" font-size="10.00">LidarLiteI2C::cycle</text>
<text text-anchor="middle" x="465" y="-40" font-family="Helvetica,sans-Serif" font-size="10.00">_trampoline</text>
</a>
</g>
</g>
<!-- Node3&#45;&gt;Node4 -->
<g id="edge3" class="edge"><title>Node3&#45;&gt;Node4</title>
<path fill="none" stroke="midnightblue" d="M390.292,-41.2911C398.809,-41.1999 407.5,-41.2605 415.786,-41.4727"/>
<polygon fill="midnightblue" stroke="midnightblue" points="389.963,-37.7964 380.028,-41.4775 390.09,-44.7952 389.963,-37.7964"/>
</g>
<!-- Node4&#45;&gt;Node3 -->
<g id="edge4" class="edge"><title>Node4&#45;&gt;Node3</title>
<path fill="none" stroke="midnightblue" d="M405.517,-54.7109C396.997,-54.7998 388.309,-54.737 380.028,-54.5225"/>
<polygon fill="midnightblue" stroke="midnightblue" points="405.85,-58.2056 415.786,-54.5273 405.725,-51.2067 405.85,-58.2056"/>
</g>
<!-- Node5 -->
<g id="node5" class="node"><title>Node5</title>
<g id="a_node5"><a xlink:href="../../dc/dec/class_lidar_lite_i2_c.html#a40b3442828fffb7f7484be66bcd4fe59" target="_top" xlink:title="Initialise the automatic measurement state machine and start it. ">
<polygon fill="white" stroke="black" points="550,-38.5 550,-57.5 645,-57.5 645,-38.5 550,-38.5"/>
<text text-anchor="middle" x="597.5" y="-45.5" font-family="Helvetica,sans-Serif" font-size="10.00">LidarLiteI2C::start</text>
</a>
</g>
</g>
<!-- Node4&#45;&gt;Node5 -->
<g id="edge5" class="edge"><title>Node4&#45;&gt;Node5</title>
<path fill="none" stroke="midnightblue" d="M524.452,-48C532.933,-48 541.569,-48 549.778,-48"/>
<polygon fill="midnightblue" stroke="midnightblue" points="524.223,-44.5001 514.223,-48 524.223,-51.5001 524.223,-44.5001"/>
</g>
<!-- Node7&#45;&gt;Node3 -->
<g id="edge8" class="edge"><title>Node7&#45;&gt;Node3</title>
<path fill="none" stroke="midnightblue" d="M256.139,-48C264.808,-48 273.561,-48 281.861,-48"/>
<polygon fill="midnightblue" stroke="midnightblue" points="256.035,-44.5001 246.035,-48 256.035,-51.5001 256.035,-44.5001"/>
</g>
<!-- Node7&#45;&gt;Node6 -->
<g id="edge10" class="edge"><title>Node7&#45;&gt;Node6</title>
<path fill="none" stroke="midnightblue" d="M235.456,-60.2462C254.685,-65.484 276.803,-71.5091 294.81,-76.4141"/>
<polygon fill="midnightblue" stroke="midnightblue" points="236.27,-56.8404 225.702,-57.589 234.43,-63.5943 236.27,-56.8404"/>
</g>
<!-- Node8 -->
<g id="node8" class="node"><title>Node8</title>
<g id="a_node8"><a xlink:href="../../dc/dec/class_lidar_lite_i2_c.html#a30f027ae49609d2fe3d46eef3f1f59e2" target="_top" xlink:title="LidarLiteI2C::init">
<polygon fill="white" stroke="black" points="287,-0.5 287,-19.5 375,-19.5 375,-0.5 287,-0.5"/>
<text text-anchor="middle" x="331" y="-7.5" font-family="Helvetica,sans-Serif" font-size="10.00">LidarLiteI2C::init</text>
</a>
</g>
</g>
<!-- Node7&#45;&gt;Node8 -->
<g id="edge9" class="edge"><title>Node7&#45;&gt;Node8</title>
<path fill="none" stroke="midnightblue" d="M235.456,-35.7538C254.685,-30.516 276.803,-24.4909 294.81,-19.5859"/>
<polygon fill="midnightblue" stroke="midnightblue" points="234.43,-32.4057 225.702,-38.411 236.27,-39.1596 234.43,-32.4057"/>
</g>
</g>
</svg>
