<?xml version="1.0" encoding="UTF-8" standalone="no"?>
<!DOCTYPE svg PUBLIC "-//W3C//DTD SVG 1.1//EN"
 "http://www.w3.org/Graphics/SVG/1.1/DTD/svg11.dtd">
<!-- Generated by graphviz version 2.40.1 (20161225.0304)
 -->
<!-- Title: mat_LU_decompose Pages: 1 -->
<!--zoomable 66 -->
<svg id="main" version="1.1" xmlns="http://www.w3.org/2000/svg" xmlns:xlink="http://www.w3.org/1999/xlink" xml:space="preserve" onload="init(evt)">
<style type="text/css"><![CDATA[
.edge:hover path { stroke: red; }
.edge:hover polygon { stroke: red; fill: red; }
]]></style>
<script type="text/javascript"><![CDATA[
var edges = document.getElementsByTagName('g');
if (edges && edges.length) {
  for (var i=0;i<edges.length;i++) {
    if (edges[i].id.substr(0,4)=='edge') {
      edges[i].setAttribute('class','edge');
    }
  }
}
]]></script>
        <defs>
                <circle id="rim" cx="0" cy="0" r="7"/>
                <circle id="rim2" cx="0" cy="0" r="3.5"/>
                <g id="zoomPlus">
                        <use xlink:href="#rim" fill="#404040">
                                <set attributeName="fill" to="#808080" begin="zoomplus.mouseover" end="zoomplus.mouseout"/>
                        </use>
                        <path d="M-4,0h8M0,-4v8" fill="none" stroke="white" stroke-width="1.5" pointer-events="none"/>
                </g>
                <g id="zoomMin">
                        <use xlink:href="#rim" fill="#404040">
                                <set attributeName="fill" to="#808080" begin="zoomminus.mouseover" end="zoomminus.mouseout"/>
                        </use>
                        <path d="M-4,0h8" fill="none" stroke="white" stroke-width="1.5" pointer-events="none"/>
                </g>
                <g id="dirArrow">
                        <path fill="none" stroke="white" stroke-width="1.5" d="M0,-3.0v7 M-2.5,-0.5L0,-3.0L2.5,-0.5"/>
                </g>
               <g id="resetDef">
                       <use xlink:href="#rim2" fill="#404040">
                               <set attributeName="fill" to="#808080" begin="reset.mouseover" end="reset.mouseout"/>
                       </use>
               </g>
        </defs>

<script type="text/javascript">
var viewWidth = 1043;
var viewHeight = 66;
var sectionId = 'dynsection-7';
</script>
<script xlink:href="../../svgpan.js"/>
<svg id="graph" class="graph">
<g id="viewport">
<title>mat_LU_decompose</title>
<polygon fill="#ffffff" stroke="transparent" points="-4,4 -4,-62 1039,-62 1039,4 -4,4"/>
<!-- Node55 -->
<g id="node1" class="node">
<title>Node55</title>
<polygon fill="#bfbfbf" stroke="#000000" points="0,-19.5 0,-38.5 107,-38.5 107,-19.5 0,-19.5"/>
<text text-anchor="middle" x="53.5" y="-26.5" font-family="Helvetica,sans-Serif" font-size="10.00" fill="#000000">mat_LU_decompose</text>
</g>
<!-- Node56 -->
<g id="node2" class="node">
<title>Node56</title>
<g id="a_node2"><a xlink:href="../../d7/da9/calibration__routines_8h.html#a8ca621302d8b4d1daea50380cf715014" target="_top" xlink:title="mat_inverse">
<polygon fill="#ffffff" stroke="#000000" points="143,-19.5 143,-38.5 213,-38.5 213,-19.5 143,-19.5"/>
<text text-anchor="middle" x="178" y="-26.5" font-family="Helvetica,sans-Serif" font-size="10.00" fill="#000000">mat_inverse</text>
</a>
</g>
</g>
<!-- Node55&#45;&gt;Node56 -->
<g id="edge1" class="edge">
<title>Node55&#45;&gt;Node56</title>
<path fill="none" stroke="#191970" d="M117.0319,-29C125.9191,-29 134.7715,-29 142.864,-29"/>
<polygon fill="#191970" stroke="#191970" points="117.0218,-25.5001 107.0217,-29 117.0217,-32.5001 117.0218,-25.5001"/>
</g>
<!-- Node57 -->
<g id="node3" class="node">
<title>Node57</title>
<g id="a_node3"><a xlink:href="../../d7/da9/calibration__routines_8h.html#a952e8c554c5abab172ed93cc60a6f0e1" target="_top" xlink:title="run_lm_ellipsoid_fit">
<polygon fill="#ffffff" stroke="#000000" points="249,-19.5 249,-38.5 349,-38.5 349,-19.5 249,-19.5"/>
<text text-anchor="middle" x="299" y="-26.5" font-family="Helvetica,sans-Serif" font-size="10.00" fill="#000000">run_lm_ellipsoid_fit</text>
</a>
</g>
</g>
<!-- Node56&#45;&gt;Node57 -->
<g id="edge2" class="edge">
<title>Node56&#45;&gt;Node57</title>
<path fill="none" stroke="#191970" d="M223.4487,-29C231.6476,-29 240.2403,-29 248.5709,-29"/>
<polygon fill="#191970" stroke="#191970" points="223.3235,-25.5001 213.3235,-29 223.3234,-32.5001 223.3235,-25.5001"/>
</g>
<!-- Node58 -->
<g id="node4" class="node">
<title>Node58</title>
<g id="a_node4"><a xlink:href="../../d7/da9/calibration__routines_8h.html#a0dee154570febce6c7f20f810536ea62" target="_top" xlink:title="ellipsoid_fit_least\l_squares">
<polygon fill="#ffffff" stroke="#000000" points="385,-14 385,-44 477,-44 477,-14 385,-14"/>
<text text-anchor="start" x="393" y="-32" font-family="Helvetica,sans-Serif" font-size="10.00" fill="#000000">ellipsoid_fit_least</text>
<text text-anchor="middle" x="431" y="-21" font-family="Helvetica,sans-Serif" font-size="10.00" fill="#000000">_squares</text>
</a>
</g>
</g>
<!-- Node57&#45;&gt;Node58 -->
<g id="edge3" class="edge">
<title>Node57&#45;&gt;Node58</title>
<path fill="none" stroke="#191970" d="M359.5253,-29C368.0049,-29 376.606,-29 384.7633,-29"/>
<polygon fill="#191970" stroke="#191970" points="359.2801,-25.5001 349.2801,-29 359.2801,-32.5001 359.2801,-25.5001"/>
</g>
<!-- Node59 -->
<g id="node5" class="node">
<title>Node59</title>
<g id="a_node5"><a xlink:href="../../de/d14/mag__calibration_8cpp.html#a2dc4128b387fe7184c94376b0f695485" target="_top" xlink:title="mag_calibrate_all">
<polygon fill="#ffffff" stroke="#000000" points="513,-19.5 513,-38.5 605,-38.5 605,-19.5 513,-19.5"/>
<text text-anchor="middle" x="559" y="-26.5" font-family="Helvetica,sans-Serif" font-size="10.00" fill="#000000">mag_calibrate_all</text>
</a>
</g>
</g>
<!-- Node58&#45;&gt;Node59 -->
<g id="edge4" class="edge">
<title>Node58&#45;&gt;Node59</title>
<path fill="none" stroke="#191970" d="M487.4423,-29C495.937,-29 504.6118,-29 512.8569,-29"/>
<polygon fill="#191970" stroke="#191970" points="487.211,-25.5001 477.2109,-29 487.2109,-32.5001 487.211,-25.5001"/>
</g>
<!-- Node60 -->
<g id="node6" class="node">
<title>Node60</title>
<g id="a_node6"><a xlink:href="../../d4/db8/mag__calibration_8h.html#afc0e4e0619e1f2846eeec88a20aa9b8e" target="_top" xlink:title="do_mag_calibration">
<polygon fill="#ffffff" stroke="#000000" points="641,-19.5 641,-38.5 742,-38.5 742,-19.5 641,-19.5"/>
<text text-anchor="middle" x="691.5" y="-26.5" font-family="Helvetica,sans-Serif" font-size="10.00" fill="#000000">do_mag_calibration</text>
</a>
</g>
</g>
<!-- Node59&#45;&gt;Node60 -->
<g id="edge5" class="edge">
<title>Node59&#45;&gt;Node60</title>
<path fill="none" stroke="#191970" d="M615.4913,-29C623.9307,-29 632.5861,-29 640.8935,-29"/>
<polygon fill="#191970" stroke="#191970" points="615.3421,-25.5001 605.3421,-29 615.342,-32.5001 615.3421,-25.5001"/>
</g>
<!-- Node61 -->
<g id="node7" class="node">
<title>Node61</title>
<g id="a_node7"><a xlink:href="../../da/d73/_commander_8cpp.html#a9351d6b0ff1efb4fd6d687f143be98c7" target="_top" xlink:title="The daemon app only briefly exists to start the background job. ">
<polygon fill="#ffffff" stroke="#000000" points="797,-38.5 797,-57.5 891,-57.5 891,-38.5 797,-38.5"/>
<text text-anchor="middle" x="844" y="-45.5" font-family="Helvetica,sans-Serif" font-size="10.00" fill="#000000">commander_main</text>
</a>
</g>
</g>
<!-- Node60&#45;&gt;Node61 -->
<g id="edge6" class="edge">
<title>Node60&#45;&gt;Node61</title>
<path fill="none" stroke="#191970" d="M752.3606,-36.5826C767.1489,-38.4251 782.7429,-40.368 796.7908,-42.1182"/>
<polygon fill="#191970" stroke="#191970" points="752.6363,-33.09 742.2803,-35.3267 751.7708,-40.0363 752.6363,-33.09"/>
</g>
<!-- Node62 -->
<g id="node8" class="node">
<title>Node62</title>
<g id="a_node8"><a xlink:href="../../da/d73/_commander_8cpp.html#af62ee6f05861387a2bc3831c160afea8" target="_top" xlink:title="Loop that runs at a lower rate and priority for calibration and parameter tasks. ">
<polygon fill="#ffffff" stroke="#000000" points="778,-.5 778,-19.5 910,-19.5 910,-.5 778,-.5"/>
<text text-anchor="middle" x="844" y="-7.5" font-family="Helvetica,sans-Serif" font-size="10.00" fill="#000000">commander_low_prio_loop</text>
</a>
</g>
</g>
<!-- Node60&#45;&gt;Node62 -->
<g id="edge7" class="edge">
<title>Node60&#45;&gt;Node62</title>
<path fill="none" stroke="#191970" d="M752.3859,-21.4142C760.8004,-20.3659 769.4753,-19.285 777.9775,-18.2258"/>
<polygon fill="#191970" stroke="#191970" points="751.7708,-17.9637 742.2803,-22.6733 752.6363,-24.91 751.7708,-17.9637"/>
</g>
<!-- Node63 -->
<g id="node9" class="node">
<title>Node63</title>
<g id="a_node9"><a xlink:href="../../d3/dc6/class_commander.html#a86abaf98d17aeacd9aef07a0a9a6fb9a" target="_top" xlink:title="Commander::run">
<polygon fill="#ffffff" stroke="#000000" points="946,-.5 946,-19.5 1035,-19.5 1035,-.5 946,-.5"/>
<text text-anchor="middle" x="990.5" y="-7.5" font-family="Helvetica,sans-Serif" font-size="10.00" fill="#000000">Commander::run</text>
</a>
</g>
</g>
<!-- Node62&#45;&gt;Node63 -->
<g id="edge8" class="edge">
<title>Node62&#45;&gt;Node63</title>
<path fill="none" stroke="#191970" d="M920.5141,-10C929.1377,-10 937.7009,-10 945.7242,-10"/>
<polygon fill="#191970" stroke="#191970" points="920.3918,-6.5001 910.3918,-10 920.3917,-13.5001 920.3918,-6.5001"/>
</g>
</g>
</svg>
        <g id="navigator" transform="translate(0 0)" fill="#404254">
                <rect fill="#f2f5e9" fill-opacity="0.5" stroke="#606060" stroke-width=".5" x="0" y="0" width="60" height="60"/>
                <use id="zoomplus" xlink:href="#zoomPlus" x="17" y="9" onmousedown="handleZoom(evt,'in')"/>
                <use id="zoomminus" xlink:href="#zoomMin" x="42" y="9" onmousedown="handleZoom(evt,'out')"/>
                <use id="reset" xlink:href="#resetDef" x="30" y="36" onmousedown="handleReset()"/>
                <g id="arrowUp" xlink:href="#dirArrow" transform="translate(30 24)" onmousedown="handlePan(0,-1)">
                  <use xlink:href="#rim" fill="#404040">
                        <set attributeName="fill" to="#808080" begin="arrowUp.mouseover" end="arrowUp.mouseout"/>
                  </use>
                  <path fill="none" stroke="white" stroke-width="1.5" d="M0,-3.0v7 M-2.5,-0.5L0,-3.0L2.5,-0.5"/>
                </g>
                <g id="arrowRight" xlink:href="#dirArrow" transform="rotate(90) translate(36 -43)" onmousedown="handlePan(1,0)">
                  <use xlink:href="#rim" fill="#404040">
                        <set attributeName="fill" to="#808080" begin="arrowRight.mouseover" end="arrowRight.mouseout"/>
                  </use>
                  <path fill="none" stroke="white" stroke-width="1.5" d="M0,-3.0v7 M-2.5,-0.5L0,-3.0L2.5,-0.5"/>
                </g>
                <g id="arrowDown" xlink:href="#dirArrow" transform="rotate(180) translate(-30 -48)" onmousedown="handlePan(0,1)">
                  <use xlink:href="#rim" fill="#404040">
                        <set attributeName="fill" to="#808080" begin="arrowDown.mouseover" end="arrowDown.mouseout"/>
                  </use>
                  <path fill="none" stroke="white" stroke-width="1.5" d="M0,-3.0v7 M-2.5,-0.5L0,-3.0L2.5,-0.5"/>
                </g>
                <g id="arrowLeft" xlink:href="#dirArrow" transform="rotate(270) translate(-36 17)" onmousedown="handlePan(-1,0)">
                  <use xlink:href="#rim" fill="#404040">
                        <set attributeName="fill" to="#808080" begin="arrowLeft.mouseover" end="arrowLeft.mouseout"/>
                  </use>
                  <path fill="none" stroke="white" stroke-width="1.5" d="M0,-3.0v7 M-2.5,-0.5L0,-3.0L2.5,-0.5"/>
                </g>
        </g>
        <svg viewBox="0 0 15 15" width="100%" height="30px" preserveAspectRatio="xMaxYMin meet">
         <g id="arrow_out" transform="scale(0.3 0.3)">
          <a xlink:href="matrix__alg_8cpp_a71120309d433abdf23de6c2d78440b1c_icgraph_org.svg" target="_base">
           <rect id="button" ry="5" rx="5" y="6" x="6" height="38" width="38"
                fill="#f2f5e9" fill-opacity="0.5" stroke="#606060" stroke-width="1.0"/>
           <path id="arrow"
             d="M 11.500037,31.436501 C 11.940474,20.09759 22.043105,11.32322 32.158766,21.979434 L 37.068811,17.246167 C 37.068811,17.246167 37.088388,32 37.088388,32 L 22.160133,31.978069 C 22.160133,31.978069 26.997745,27.140456 26.997745,27.140456 C 18.528582,18.264221 13.291696,25.230495 11.500037,31.436501 z"
             style="fill:#404040;"/>
          </a>
         </g>
        </svg>
</svg>
