<?xml version="1.0" encoding="UTF-8" standalone="no"?>
<!DOCTYPE svg PUBLIC "-//W3C//DTD SVG 1.1//EN"
 "http://www.w3.org/Graphics/SVG/1.1/DTD/svg11.dtd">
<!-- Generated by graphviz version 2.38.0 (20140413.2041)
 -->
<!-- Title: ToneAlarm::next_number Pages: 1 -->
<svg width="868pt" height="217pt"
 viewBox="0.00 0.00 868.00 216.80" xmlns="http://www.w3.org/2000/svg" xmlns:xlink="http://www.w3.org/1999/xlink">
<g id="graph0" class="graph" transform="scale(1 1) rotate(0) translate(4 212.8)">
<title>ToneAlarm::next_number</title>
<polygon fill="white" stroke="none" points="-4,4 -4,-212.8 864,-212.8 864,4 -4,4"/>
<!-- Node1 -->
<g id="node1" class="node"><title>Node1</title>
<polygon fill="#bfbfbf" stroke="black" points="0,-160.5 0,-179.5 126,-179.5 126,-160.5 0,-160.5"/>
<text text-anchor="middle" x="63" y="-167.5" font-family="Helvetica,sans-Serif" font-size="10.00">ToneAlarm::next_number</text>
</g>
<!-- Node2 -->
<g id="node2" class="node"><title>Node2</title>
<g id="a_node2"><a xlink:href="../../db/d7e/platforms_2posix_2drivers_2tonealrmsim_2tone__alarm_8cpp.html#a9880ab653f080790aa011b9fdd51b0a2" target="_top" xlink:title="do_something">
<polygon fill="white" stroke="black" points="650.5,-101.5 650.5,-120.5 727.5,-120.5 727.5,-101.5 650.5,-101.5"/>
<text text-anchor="middle" x="689" y="-108.5" font-family="Helvetica,sans-Serif" font-size="10.00">do_something</text>
</a>
</g>
</g>
<!-- Node1&#45;&gt;Node2 -->
<g id="edge1" class="edge"><title>Node1&#45;&gt;Node2</title>
<path fill="none" stroke="midnightblue" d="M115.576,-181.59C214.576,-201.439 436.699,-234.29 609,-174 639.467,-163.339 666.949,-135.457 679.998,-120.617"/>
<polygon fill="midnightblue" stroke="midnightblue" points="116.034,-178.111 105.535,-179.536 114.631,-184.969 116.034,-178.111"/>
</g>
<!-- Node3 -->
<g id="node3" class="node"><title>Node3</title>
<g id="a_node3"><a xlink:href="../../d4/df0/class_tone_alarm.html#af526872d49f6a9d3164bb8e123236b01" target="_top" xlink:title="ToneAlarm::next_note">
<polygon fill="white" stroke="black" points="162,-98.5 162,-117.5 275,-117.5 275,-98.5 162,-98.5"/>
<text text-anchor="middle" x="218.5" y="-105.5" font-family="Helvetica,sans-Serif" font-size="10.00">ToneAlarm::next_note</text>
</a>
</g>
</g>
<!-- Node1&#45;&gt;Node3 -->
<g id="edge2" class="edge"><title>Node1&#45;&gt;Node3</title>
<path fill="none" stroke="midnightblue" d="M97.0031,-156.67C126.137,-144.902 167.898,-128.035 193.825,-117.562"/>
<polygon fill="midnightblue" stroke="midnightblue" points="95.6094,-153.458 87.648,-160.448 98.231,-159.948 95.6094,-153.458"/>
</g>
<!-- Node3&#45;&gt;Node2 -->
<g id="edge3" class="edge"><title>Node3&#45;&gt;Node2</title>
<path fill="none" stroke="midnightblue" d="M255.509,-120.873C324.922,-143.806 481.639,-186.416 609,-154 634.272,-147.568 660.191,-131.229 675.158,-120.646"/>
<polygon fill="midnightblue" stroke="midnightblue" points="256.51,-117.517 245.915,-117.644 254.276,-124.151 256.51,-117.517"/>
</g>
<!-- Node4 -->
<g id="node4" class="node"><title>Node4</title>
<g id="a_node4"><a xlink:href="../../d4/df0/class_tone_alarm.html#af8798dde809dba04968d935c81cc0dda" target="_top" xlink:title="ToneAlarm::frequency\l_to_divisor">
<polygon fill="white" stroke="black" points="491,-115 491,-145 604,-145 604,-115 491,-115"/>
<text text-anchor="start" x="499" y="-133" font-family="Helvetica,sans-Serif" font-size="10.00">ToneAlarm::frequency</text>
<text text-anchor="middle" x="547.5" y="-122" font-family="Helvetica,sans-Serif" font-size="10.00">_to_divisor</text>
</a>
</g>
</g>
<!-- Node3&#45;&gt;Node4 -->
<g id="edge4" class="edge"><title>Node3&#45;&gt;Node4</title>
<path fill="none" stroke="midnightblue" d="M285.521,-112.442C345.85,-116.501 434.069,-122.436 490.889,-126.259"/>
<polygon fill="midnightblue" stroke="midnightblue" points="285.554,-108.936 275.342,-111.757 285.084,-115.92 285.554,-108.936"/>
</g>
<!-- Node5 -->
<g id="node5" class="node"><title>Node5</title>
<g id="a_node5"><a xlink:href="../../d4/df0/class_tone_alarm.html#addf61ec3d0d5c438d3b4eb6f787f76c9" target="_top" xlink:title="ToneAlarm::next_trampoline">
<polygon fill="white" stroke="black" points="311,-78.5 311,-97.5 450,-97.5 450,-78.5 311,-78.5"/>
<text text-anchor="middle" x="380.5" y="-85.5" font-family="Helvetica,sans-Serif" font-size="10.00">ToneAlarm::next_trampoline</text>
</a>
</g>
</g>
<!-- Node3&#45;&gt;Node5 -->
<g id="edge5" class="edge"><title>Node3&#45;&gt;Node5</title>
<path fill="none" stroke="midnightblue" d="M261.536,-96.7223C276.638,-94.2098 294.09,-91.8063 310.861,-89.8907"/>
<polygon fill="midnightblue" stroke="midnightblue" points="260.743,-93.3077 251.494,-98.4745 261.947,-100.203 260.743,-93.3077"/>
</g>
<!-- Node5&#45;&gt;Node2 -->
<g id="edge15" class="edge"><title>Node5&#45;&gt;Node2</title>
<path fill="none" stroke="midnightblue" d="M460.21,-93.8579C504.018,-97.1243 559.535,-101.273 609,-105 622.442,-106.013 637.169,-107.129 650.228,-108.122"/>
<polygon fill="midnightblue" stroke="midnightblue" points="460.427,-90.3645 450.194,-93.1113 459.906,-97.3451 460.427,-90.3645"/>
</g>
<!-- Node5&#45;&gt;Node3 -->
<g id="edge12" class="edge"><title>Node5&#45;&gt;Node3</title>
<path fill="none" stroke="midnightblue" d="M337.504,-99.2709C318.394,-102.451 295.515,-105.458 275.011,-107.522"/>
<polygon fill="midnightblue" stroke="midnightblue" points="338.157,-102.71 347.407,-97.5437 336.954,-95.8141 338.157,-102.71"/>
</g>
<!-- Node5&#45;&gt;Node4 -->
<g id="edge14" class="edge"><title>Node5&#45;&gt;Node4</title>
<path fill="none" stroke="midnightblue" d="M428.732,-100.023C448.067,-104.944 470.586,-110.676 490.723,-115.802"/>
<polygon fill="midnightblue" stroke="midnightblue" points="429.495,-96.6055 418.941,-97.5305 427.769,-103.389 429.495,-96.6055"/>
</g>
<!-- Node6 -->
<g id="node6" class="node"><title>Node6</title>
<g id="a_node6"><a xlink:href="../../d4/df0/class_tone_alarm.html#a3a8c115d44be141094ee943ff79bf675" target="_top" xlink:title="ToneAlarm::start_tune">
<polygon fill="white" stroke="black" points="491,-0.5 491,-19.5 604,-19.5 604,-0.5 491,-0.5"/>
<text text-anchor="middle" x="547.5" y="-7.5" font-family="Helvetica,sans-Serif" font-size="10.00">ToneAlarm::start_tune</text>
</a>
</g>
</g>
<!-- Node5&#45;&gt;Node6 -->
<g id="edge6" class="edge"><title>Node5&#45;&gt;Node6</title>
<path fill="none" stroke="midnightblue" d="M404.941,-72.8755C425.653,-59.977 456.992,-41.578 486,-29 494.181,-25.4525 503.242,-22.2477 511.807,-19.524"/>
<polygon fill="midnightblue" stroke="midnightblue" points="402.811,-70.0804 396.219,-78.3741 406.544,-76.0019 402.811,-70.0804"/>
</g>
<!-- Node9 -->
<g id="node9" class="node"><title>Node9</title>
<g id="a_node9"><a xlink:href="../../d4/df0/class_tone_alarm.html#ae67b3e93527a00f2634dc9b5d05b66b8" target="_top" xlink:title="ToneAlarm::~ToneAlarm">
<polygon fill="white" stroke="black" points="486,-38.5 486,-57.5 609,-57.5 609,-38.5 486,-38.5"/>
<text text-anchor="middle" x="547.5" y="-45.5" font-family="Helvetica,sans-Serif" font-size="10.00">ToneAlarm::~ToneAlarm</text>
</a>
</g>
</g>
<!-- Node5&#45;&gt;Node9 -->
<g id="edge13" class="edge"><title>Node5&#45;&gt;Node9</title>
<path fill="none" stroke="midnightblue" d="M430.834,-76.0402C455.285,-70.1127 484.399,-63.0547 507.301,-57.5028"/>
<polygon fill="midnightblue" stroke="midnightblue" points="429.915,-72.6615 421.022,-78.419 431.565,-79.4644 429.915,-72.6615"/>
</g>
<!-- Node6&#45;&gt;Node2 -->
<g id="edge11" class="edge"><title>Node6&#45;&gt;Node2</title>
<path fill="none" stroke="midnightblue" d="M598.251,-23.3445C601.992,-25.0298 605.621,-26.9089 609,-29 640.938,-48.7649 668.985,-84.3603 681.323,-101.401"/>
<polygon fill="midnightblue" stroke="midnightblue" points="599.383,-20.0273 588.799,-19.5438 596.772,-26.5219 599.383,-20.0273"/>
</g>
<!-- Node6&#45;&gt;Node3 -->
<g id="edge7" class="edge"><title>Node6&#45;&gt;Node3</title>
<path fill="none" stroke="midnightblue" d="M489.481,-21.6439C441.333,-32.1013 370.867,-48.8817 311,-69 285.792,-77.4711 257.801,-89.8636 239.497,-98.3941"/>
<polygon fill="midnightblue" stroke="midnightblue" points="490.364,-25.0341 499.404,-19.5094 488.892,-18.1906 490.364,-25.0341"/>
</g>
<!-- Node7 -->
<g id="node7" class="node"><title>Node7</title>
<g id="a_node7"><a xlink:href="../../d4/df0/class_tone_alarm.html#a62402e05d485a152d87668462db90c48" target="_top" xlink:title="ToneAlarm::ioctl">
<polygon fill="white" stroke="black" points="645,-19.5 645,-38.5 733,-38.5 733,-19.5 645,-19.5"/>
<text text-anchor="middle" x="689" y="-26.5" font-family="Helvetica,sans-Serif" font-size="10.00">ToneAlarm::ioctl</text>
</a>
</g>
</g>
<!-- Node6&#45;&gt;Node7 -->
<g id="edge8" class="edge"><title>Node6&#45;&gt;Node7</title>
<path fill="none" stroke="midnightblue" d="M613.962,-18.9159C624.389,-20.3361 634.944,-21.7737 644.69,-23.1012"/>
<polygon fill="midnightblue" stroke="midnightblue" points="614.416,-15.4455 604.035,-17.5639 613.471,-22.3815 614.416,-15.4455"/>
</g>
<!-- Node8 -->
<g id="node8" class="node"><title>Node8</title>
<g id="a_node8"><a xlink:href="../../d4/df0/class_tone_alarm.html#a8acb4b6e35fa114add58f914da418300" target="_top" xlink:title="ToneAlarm::write">
<polygon fill="white" stroke="black" points="769,-0.5 769,-19.5 860,-19.5 860,-0.5 769,-0.5"/>
<text text-anchor="middle" x="814.5" y="-7.5" font-family="Helvetica,sans-Serif" font-size="10.00">ToneAlarm::write</text>
</a>
</g>
</g>
<!-- Node6&#45;&gt;Node8 -->
<g id="edge10" class="edge"><title>Node6&#45;&gt;Node8</title>
<path fill="none" stroke="midnightblue" d="M614.09,-10C662.331,-10 726.615,-10 768.99,-10"/>
<polygon fill="midnightblue" stroke="midnightblue" points="614.053,-6.5001 604.053,-10 614.053,-13.5001 614.053,-6.5001"/>
</g>
<!-- Node7&#45;&gt;Node8 -->
<g id="edge9" class="edge"><title>Node7&#45;&gt;Node8</title>
<path fill="none" stroke="midnightblue" d="M743.122,-20.8273C751.703,-19.5072 760.511,-18.1522 768.865,-16.867"/>
<polygon fill="midnightblue" stroke="midnightblue" points="742.546,-17.3748 733.194,-22.3547 743.61,-24.2934 742.546,-17.3748"/>
</g>
</g>
</svg>
