<?xml version="1.0" encoding="UTF-8" standalone="no"?>
<!DOCTYPE svg PUBLIC "-//W3C//DTD SVG 1.1//EN"
 "http://www.w3.org/Graphics/SVG/1.1/DTD/svg11.dtd">
<!-- Generated by graphviz version 2.40.1 (20161225.0304)
 -->
<!-- Title: PreFlightChecker::setVehicleCanObserveHeadingInFlight Pages: 1 -->
<svg width="414pt" height="39pt"
 viewBox="0.00 0.00 414.00 39.00" xmlns="http://www.w3.org/2000/svg" xmlns:xlink="http://www.w3.org/1999/xlink">
<g id="graph0" class="graph" transform="scale(1 1) rotate(0) translate(4 35)">
<title>PreFlightChecker::setVehicleCanObserveHeadingInFlight</title>
<polygon fill="#ffffff" stroke="transparent" points="-4,4 -4,-35 410,-35 410,4 -4,4"/>
<!-- Node202 -->
<g id="node1" class="node">
<title>Node202</title>
<polygon fill="#bfbfbf" stroke="#000000" points="0,-.5 0,-30.5 144,-30.5 144,-.5 0,-.5"/>
<text text-anchor="start" x="8" y="-18.5" font-family="Helvetica,sans-Serif" font-size="10.00" fill="#000000">PreFlightChecker::setVehicle</text>
<text text-anchor="middle" x="72" y="-7.5" font-family="Helvetica,sans-Serif" font-size="10.00" fill="#000000">CanObserveHeadingInFlight</text>
</g>
<!-- Node203 -->
<g id="node2" class="node">
<title>Node203</title>
<g id="a_node2"><a xlink:href="../../de/d9c/class_ekf2.html#ad5b24223efc1e4ddfd8aaa980715ee2a" target="_top" xlink:title="Ekf2::runPreFlightChecks">
<polygon fill="#ffffff" stroke="#000000" points="180,-6 180,-25 309,-25 309,-6 180,-6"/>
<text text-anchor="middle" x="244.5" y="-13" font-family="Helvetica,sans-Serif" font-size="10.00" fill="#000000">Ekf2::runPreFlightChecks</text>
</a>
</g>
</g>
<!-- Node202&#45;&gt;Node203 -->
<g id="edge1" class="edge">
<title>Node202&#45;&gt;Node203</title>
<path fill="none" stroke="#191970" d="M154.1926,-15.5C162.7807,-15.5 171.4226,-15.5 179.7766,-15.5"/>
<polygon fill="#191970" stroke="#191970" points="154.1561,-12.0001 144.156,-15.5 154.156,-19.0001 154.1561,-12.0001"/>
</g>
<!-- Node204 -->
<g id="node3" class="node">
<title>Node204</title>
<g id="a_node3"><a xlink:href="../../de/d9c/class_ekf2.html#aa9d0494340430e589883d23899a2bd76" target="_top" xlink:title="Ekf2::Run">
<polygon fill="#ffffff" stroke="#000000" points="345,-6 345,-25 406,-25 406,-6 345,-6"/>
<text text-anchor="middle" x="375.5" y="-13" font-family="Helvetica,sans-Serif" font-size="10.00" fill="#000000">Ekf2::Run</text>
</a>
</g>
</g>
<!-- Node203&#45;&gt;Node204 -->
<g id="edge2" class="edge">
<title>Node203&#45;&gt;Node204</title>
<path fill="none" stroke="#191970" d="M319.357,-15.5C328.2678,-15.5 336.9426,-15.5 344.7036,-15.5"/>
<polygon fill="#191970" stroke="#191970" points="319.2325,-12.0001 309.2324,-15.5 319.2324,-19.0001 319.2325,-12.0001"/>
</g>
</g>
</svg>
