<?xml version="1.0" encoding="UTF-8" standalone="no"?>
<!DOCTYPE svg PUBLIC "-//W3C//DTD SVG 1.1//EN"
 "http://www.w3.org/Graphics/SVG/1.1/DTD/svg11.dtd">
<!-- Generated by graphviz version 2.40.1 (20161225.0304)
 -->
<!-- Title: GPSHelper::gotRTCMMessage Pages: 1 -->
<svg width="1501pt" height="526pt"
 viewBox="0.00 0.00 1501.00 526.00" xmlns="http://www.w3.org/2000/svg" xmlns:xlink="http://www.w3.org/1999/xlink">
<g id="graph0" class="graph" transform="scale(1 1) rotate(0) translate(4 522)">
<title>GPSHelper::gotRTCMMessage</title>
<polygon fill="#ffffff" stroke="transparent" points="-4,4 -4,-522 1497,-522 1497,4 -4,4"/>
<!-- Node33 -->
<g id="node1" class="node">
<title>Node33</title>
<polygon fill="#bfbfbf" stroke="#000000" points="0,-233.5 0,-252.5 155,-252.5 155,-233.5 0,-233.5"/>
<text text-anchor="middle" x="77.5" y="-240.5" font-family="Helvetica,sans-Serif" font-size="10.00" fill="#000000">GPSHelper::gotRTCMMessage</text>
</g>
<!-- Node34 -->
<g id="node2" class="node">
<title>Node34</title>
<g id="a_node2"><a xlink:href="../../dd/d0a/class_g_p_s_driver_ashtech.html#aa363d656a797f8a2542bc656861e6168" target="_top" xlink:title="GPSDriverAshtech::parseChar">
<polygon fill="#ffffff" stroke="#000000" points="191,-334.5 191,-353.5 342,-353.5 342,-334.5 191,-334.5"/>
<text text-anchor="middle" x="266.5" y="-341.5" font-family="Helvetica,sans-Serif" font-size="10.00" fill="#000000">GPSDriverAshtech::parseChar</text>
</a>
</g>
</g>
<!-- Node33&#45;&gt;Node34 -->
<g id="edge1" class="edge">
<title>Node33&#45;&gt;Node34</title>
<path fill="none" stroke="#191970" d="M104.508,-257.4328C143.7191,-278.3869 215.3516,-316.6667 248.6289,-334.4498"/>
<polygon fill="#191970" stroke="#191970" points="105.7499,-254.1282 95.2807,-252.5018 102.4507,-260.3019 105.7499,-254.1282"/>
</g>
<!-- Node43 -->
<g id="node11" class="node">
<title>Node43</title>
<g id="a_node11"><a xlink:href="../../d7/da1/class_g_p_s_driver_s_b_f.html#ab1268322b3cd934c069a134b8444eea8" target="_top" xlink:title="Parse the binary SBF packet. ">
<polygon fill="#ffffff" stroke="#000000" points="199.5,-233.5 199.5,-252.5 333.5,-252.5 333.5,-233.5 199.5,-233.5"/>
<text text-anchor="middle" x="266.5" y="-240.5" font-family="Helvetica,sans-Serif" font-size="10.00" fill="#000000">GPSDriverSBF::parseChar</text>
</a>
</g>
</g>
<!-- Node33&#45;&gt;Node43 -->
<g id="edge16" class="edge">
<title>Node33&#45;&gt;Node43</title>
<path fill="none" stroke="#191970" d="M165.2255,-243C176.702,-243 188.3125,-243 199.3751,-243"/>
<polygon fill="#191970" stroke="#191970" points="165.1918,-239.5001 155.1917,-243 165.1917,-246.5001 165.1918,-239.5001"/>
</g>
<!-- Node46 -->
<g id="node14" class="node">
<title>Node46</title>
<g id="a_node14"><a xlink:href="../../d2/dc5/class_g_p_s_driver_u_b_x.html#a8fb26fb23f2b793d0f11d903a09f606d" target="_top" xlink:title="Parse the binary UBX packet. ">
<polygon fill="#ffffff" stroke="#000000" points="198.5,-88.5 198.5,-107.5 334.5,-107.5 334.5,-88.5 198.5,-88.5"/>
<text text-anchor="middle" x="266.5" y="-95.5" font-family="Helvetica,sans-Serif" font-size="10.00" fill="#000000">GPSDriverUBX::parseChar</text>
</a>
</g>
</g>
<!-- Node33&#45;&gt;Node46 -->
<g id="edge19" class="edge">
<title>Node33&#45;&gt;Node46</title>
<path fill="none" stroke="#191970" d="M97.9706,-227.2951C137.156,-197.2322 221.7217,-132.3537 253.8057,-107.739"/>
<polygon fill="#191970" stroke="#191970" points="95.7044,-224.6222 89.9008,-233.4861 99.9653,-230.1761 95.7044,-224.6222"/>
</g>
<!-- Node35 -->
<g id="node3" class="node">
<title>Node35</title>
<g id="a_node3"><a xlink:href="../../dd/d0a/class_g_p_s_driver_ashtech.html#a33d6a07ed337cafb5e45ca15cbe8d983" target="_top" xlink:title="receive &amp; handle new data from the device ">
<polygon fill="#ffffff" stroke="#000000" points="378,-384.5 378,-403.5 515,-403.5 515,-384.5 378,-384.5"/>
<text text-anchor="middle" x="446.5" y="-391.5" font-family="Helvetica,sans-Serif" font-size="10.00" fill="#000000">GPSDriverAshtech::receive</text>
</a>
</g>
</g>
<!-- Node34&#45;&gt;Node35 -->
<g id="edge2" class="edge">
<title>Node34&#45;&gt;Node35</title>
<path fill="none" stroke="#191970" d="M310.5465,-356.2351C341.8086,-364.9191 383.1805,-376.4113 412.0412,-384.4281"/>
<polygon fill="#191970" stroke="#191970" points="311.3523,-352.8265 300.7803,-353.5223 309.4787,-359.5711 311.3523,-352.8265"/>
</g>
<!-- Node36 -->
<g id="node4" class="node">
<title>Node36</title>
<g id="a_node4"><a xlink:href="../../dd/d0a/class_g_p_s_driver_ashtech.html#a7c3c68a1533ffdf98ce95eeed32db916" target="_top" xlink:title="receive data for at least the specified amount of time ">
<polygon fill="#ffffff" stroke="#000000" points="551,-353.5 551,-372.5 709,-372.5 709,-353.5 551,-353.5"/>
<text text-anchor="middle" x="630" y="-360.5" font-family="Helvetica,sans-Serif" font-size="10.00" fill="#000000">GPSDriverAshtech::receiveWait</text>
</a>
</g>
</g>
<!-- Node35&#45;&gt;Node36 -->
<g id="edge3" class="edge">
<title>Node35&#45;&gt;Node36</title>
<path fill="none" stroke="#191970" d="M512.7224,-382.8126C532.6268,-379.45 554.2726,-375.7932 573.4872,-372.5471"/>
<polygon fill="#191970" stroke="#191970" points="512.0803,-379.3714 502.8031,-384.4883 513.2464,-386.2736 512.0803,-379.3714"/>
</g>
<!-- Node38 -->
<g id="node6" class="node">
<title>Node38</title>
<g id="a_node6"><a xlink:href="../../dd/d0a/class_g_p_s_driver_ashtech.html#a04eeb8d4cab06961f727d646222c5ccb" target="_top" xlink:title="GPSDriverAshtech::waitFor\lReply">
<polygon fill="#ffffff" stroke="#000000" points="561,-411 561,-441 699,-441 699,-411 561,-411"/>
<text text-anchor="start" x="569" y="-429" font-family="Helvetica,sans-Serif" font-size="10.00" fill="#000000">GPSDriverAshtech::waitFor</text>
<text text-anchor="middle" x="630" y="-418" font-family="Helvetica,sans-Serif" font-size="10.00" fill="#000000">Reply</text>
</a>
</g>
</g>
<!-- Node35&#45;&gt;Node38 -->
<g id="edge5" class="edge">
<title>Node35&#45;&gt;Node38</title>
<path fill="none" stroke="#191970" d="M510.9575,-405.2405C527.1464,-408.0637 544.5824,-411.1043 560.984,-413.9645"/>
<polygon fill="#191970" stroke="#191970" points="511.5119,-401.7845 501.0592,-403.5144 510.3092,-408.6804 511.5119,-401.7845"/>
</g>
<!-- Node37 -->
<g id="node5" class="node">
<title>Node37</title>
<g id="a_node5"><a xlink:href="../../dd/d0a/class_g_p_s_driver_ashtech.html#acd7387d6bb1d7a766c3a584e1bbb3d4c" target="_top" xlink:title="configure the device ">
<polygon fill="#ffffff" stroke="#000000" points="972.5,-344.5 972.5,-363.5 1118.5,-363.5 1118.5,-344.5 972.5,-344.5"/>
<text text-anchor="middle" x="1045.5" y="-351.5" font-family="Helvetica,sans-Serif" font-size="10.00" fill="#000000">GPSDriverAshtech::configure</text>
</a>
</g>
</g>
<!-- Node36&#45;&gt;Node37 -->
<g id="edge4" class="edge">
<title>Node36&#45;&gt;Node37</title>
<path fill="none" stroke="#191970" d="M719.569,-361.0599C795.064,-359.4246 901.7576,-357.1136 972.2367,-355.5869"/>
<polygon fill="#191970" stroke="#191970" points="719.0522,-357.5702 709.1304,-361.286 719.2039,-364.5685 719.0522,-357.5702"/>
</g>
<!-- Node38&#45;&gt;Node37 -->
<g id="edge9" class="edge">
<title>Node38&#45;&gt;Node37</title>
<path fill="none" stroke="#191970" d="M709.1506,-412.2844C791.5651,-398.0032 918.4851,-376.0098 990.5472,-363.5225"/>
<polygon fill="#191970" stroke="#191970" points="708.3333,-408.8737 699.0778,-414.0298 709.5286,-415.771 708.3333,-408.8737"/>
</g>
<!-- Node39 -->
<g id="node7" class="node">
<title>Node39</title>
<g id="a_node7"><a xlink:href="../../dd/d0a/class_g_p_s_driver_ashtech.html#aa9c1abdf3104dcbdc19cd33bbefa3b70" target="_top" xlink:title="enable output of correction output ">
<polygon fill="#ffffff" stroke="#000000" points="1172.5,-427 1172.5,-457 1312.5,-457 1312.5,-427 1172.5,-427"/>
<text text-anchor="start" x="1180.5" y="-445" font-family="Helvetica,sans-Serif" font-size="10.00" fill="#000000">GPSDriverAshtech::activate</text>
<text text-anchor="middle" x="1242.5" y="-434" font-family="Helvetica,sans-Serif" font-size="10.00" fill="#000000">CorrectionOutput</text>
</a>
</g>
</g>
<!-- Node38&#45;&gt;Node39 -->
<g id="edge6" class="edge">
<title>Node38&#45;&gt;Node39</title>
<path fill="none" stroke="#191970" d="M678.5969,-444.2695C698.8214,-450.9536 722.7371,-457.6872 745,-461 896.1091,-483.4857 1075.7127,-465.8646 1172.4311,-452.7998"/>
<polygon fill="#191970" stroke="#191970" points="679.5829,-440.9081 668.9885,-441.0074 677.3325,-447.5365 679.5829,-440.9081"/>
</g>
<!-- Node41 -->
<g id="node9" class="node">
<title>Node41</title>
<g id="a_node9"><a xlink:href="../../dd/d0a/class_g_p_s_driver_ashtech.html#ac4edd10a7718c533fe4022d49454eb3d" target="_top" xlink:title="Write a command and wait for a (N)Ack. ">
<polygon fill="#ffffff" stroke="#000000" points="759.5,-421 759.5,-451 914.5,-451 914.5,-421 759.5,-421"/>
<text text-anchor="start" x="767.5" y="-439" font-family="Helvetica,sans-Serif" font-size="10.00" fill="#000000">GPSDriverAshtech::writeAcked</text>
<text text-anchor="middle" x="837" y="-428" font-family="Helvetica,sans-Serif" font-size="10.00" fill="#000000">Command</text>
</a>
</g>
</g>
<!-- Node38&#45;&gt;Node41 -->
<g id="edge10" class="edge">
<title>Node38&#45;&gt;Node41</title>
<path fill="none" stroke="#191970" d="M709.2972,-429.8308C725.6923,-430.6228 742.9456,-431.4563 759.2836,-432.2456"/>
<polygon fill="#191970" stroke="#191970" points="709.3731,-426.3305 699.2158,-429.3438 709.0352,-433.3223 709.3731,-426.3305"/>
</g>
<!-- Node40 -->
<g id="node8" class="node">
<title>Node40</title>
<g id="a_node8"><a xlink:href="../../dd/d0a/class_g_p_s_driver_ashtech.html#a5495dfedac462e88411392bf96785a30" target="_top" xlink:title="GPSDriverAshtech::handle\lMessage">
<polygon fill="#ffffff" stroke="#000000" points="1359,-427 1359,-457 1493,-457 1493,-427 1359,-427"/>
<text text-anchor="start" x="1367" y="-445" font-family="Helvetica,sans-Serif" font-size="10.00" fill="#000000">GPSDriverAshtech::handle</text>
<text text-anchor="middle" x="1426" y="-434" font-family="Helvetica,sans-Serif" font-size="10.00" fill="#000000">Message</text>
</a>
</g>
</g>
<!-- Node39&#45;&gt;Node40 -->
<g id="edge7" class="edge">
<title>Node39&#45;&gt;Node40</title>
<path fill="none" stroke="#191970" d="M1322.7198,-442C1334.7951,-442 1347.1411,-442 1358.9033,-442"/>
<polygon fill="#191970" stroke="#191970" points="1322.659,-438.5001 1312.6589,-442 1322.6589,-445.5001 1322.659,-438.5001"/>
</g>
<!-- Node40&#45;&gt;Node35 -->
<g id="edge8" class="edge">
<title>Node40&#45;&gt;Node35</title>
<path fill="none" stroke="#191970" d="M1370.9551,-460.096C1297.5687,-482.5747 1163.2381,-518 1045.5,-518 837,-518 837,-518 837,-518 706.4475,-518 672.9647,-497.5679 551,-451 517.2139,-438.1 480.7868,-416.2006 461.1178,-403.6338"/>
<polygon fill="#191970" stroke="#191970" points="1372.3817,-463.3182 1380.8976,-457.0152 1370.3097,-456.6319 1372.3817,-463.3182"/>
</g>
<!-- Node41&#45;&gt;Node37 -->
<g id="edge15" class="edge">
<title>Node41&#45;&gt;Node37</title>
<path fill="none" stroke="#191970" d="M904.9204,-417.4136C913.26,-414.1062 921.4831,-410.3132 929,-406 947.5678,-395.3459 946.0623,-383.9818 965,-374 973.1531,-369.7026 982.261,-366.3039 991.3366,-363.6231"/>
<polygon fill="#191970" stroke="#191970" points="903.6261,-414.1608 895.4868,-420.9433 906.0792,-420.717 903.6261,-414.1608"/>
</g>
<!-- Node41&#45;&gt;Node39 -->
<g id="edge11" class="edge">
<title>Node41&#45;&gt;Node39</title>
<path fill="none" stroke="#191970" d="M924.9467,-437.3013C999.0146,-438.3973 1103.5717,-439.9443 1172.1744,-440.9594"/>
<polygon fill="#191970" stroke="#191970" points="924.7554,-433.7982 914.7047,-437.1498 924.6518,-440.7974 924.7554,-433.7982"/>
</g>
<!-- Node42 -->
<g id="node10" class="node">
<title>Node42</title>
<g id="a_node10"><a xlink:href="../../dd/d0a/class_g_p_s_driver_ashtech.html#aaacbdcb8a570a99895563fcf462f38ab" target="_top" xlink:title="GPSDriverAshtech::activate\lRTCMOutput">
<polygon fill="#ffffff" stroke="#000000" points="975.5,-383 975.5,-413 1115.5,-413 1115.5,-383 975.5,-383"/>
<text text-anchor="start" x="983.5" y="-401" font-family="Helvetica,sans-Serif" font-size="10.00" fill="#000000">GPSDriverAshtech::activate</text>
<text text-anchor="middle" x="1045.5" y="-390" font-family="Helvetica,sans-Serif" font-size="10.00" fill="#000000">RTCMOutput</text>
</a>
</g>
</g>
<!-- Node41&#45;&gt;Node42 -->
<g id="edge12" class="edge">
<title>Node41&#45;&gt;Node42</title>
<path fill="none" stroke="#191970" d="M924.5373,-420.046C941.4936,-416.9556 959.0556,-413.7549 975.3655,-410.7823"/>
<polygon fill="#191970" stroke="#191970" points="923.8481,-416.6138 914.6377,-421.8502 925.1032,-423.5004 923.8481,-416.6138"/>
</g>
<!-- Node42&#45;&gt;Node39 -->
<g id="edge13" class="edge">
<title>Node42&#45;&gt;Node39</title>
<path fill="none" stroke="#191970" d="M1122.8154,-415.2684C1140.1279,-419.1352 1158.3569,-423.2066 1175.2236,-426.9738"/>
<polygon fill="#191970" stroke="#191970" points="1123.2677,-411.7833 1112.7452,-413.0192 1121.7418,-418.6149 1123.2677,-411.7833"/>
</g>
<!-- Node42&#45;&gt;Node40 -->
<g id="edge14" class="edge">
<title>Node42&#45;&gt;Node40</title>
<path fill="none" stroke="#191970" d="M1125.8339,-400.4548C1181.4409,-402.9678 1257.0237,-407.9992 1323,-418 1337.9767,-420.2702 1353.9975,-423.5697 1368.8341,-426.9993"/>
<polygon fill="#191970" stroke="#191970" points="1125.8326,-396.9516 1115.6902,-400.0143 1125.5288,-403.945 1125.8326,-396.9516"/>
</g>
<!-- Node44 -->
<g id="node12" class="node">
<title>Node44</title>
<g id="a_node12"><a xlink:href="../../d7/da1/class_g_p_s_driver_s_b_f.html#a09e652b35c1a267877d898bdfd747fd5" target="_top" xlink:title="receive &amp; handle new data from the device ">
<polygon fill="#ffffff" stroke="#000000" points="386,-233.5 386,-252.5 507,-252.5 507,-233.5 386,-233.5"/>
<text text-anchor="middle" x="446.5" y="-240.5" font-family="Helvetica,sans-Serif" font-size="10.00" fill="#000000">GPSDriverSBF::receive</text>
</a>
</g>
</g>
<!-- Node43&#45;&gt;Node44 -->
<g id="edge17" class="edge">
<title>Node43&#45;&gt;Node44</title>
<path fill="none" stroke="#191970" d="M343.7156,-243C357.8424,-243 372.3981,-243 385.9522,-243"/>
<polygon fill="#191970" stroke="#191970" points="343.5254,-239.5001 333.5254,-243 343.5253,-246.5001 343.5254,-239.5001"/>
</g>
<!-- Node45 -->
<g id="node13" class="node">
<title>Node45</title>
<g id="a_node13"><a xlink:href="../../d7/da1/class_g_p_s_driver_s_b_f.html#ac1ef73231ddf34fe5896b819f707d81a" target="_top" xlink:title="GPSDriverSBF::configure">
<polygon fill="#ffffff" stroke="#000000" points="565.5,-233.5 565.5,-252.5 694.5,-252.5 694.5,-233.5 565.5,-233.5"/>
<text text-anchor="middle" x="630" y="-240.5" font-family="Helvetica,sans-Serif" font-size="10.00" fill="#000000">GPSDriverSBF::configure</text>
</a>
</g>
</g>
<!-- Node44&#45;&gt;Node45 -->
<g id="edge18" class="edge">
<title>Node44&#45;&gt;Node45</title>
<path fill="none" stroke="#191970" d="M517.3348,-243C533.1436,-243 549.8274,-243 565.3703,-243"/>
<polygon fill="#191970" stroke="#191970" points="517.0934,-239.5001 507.0933,-243 517.0933,-246.5001 517.0934,-239.5001"/>
</g>
<!-- Node47 -->
<g id="node15" class="node">
<title>Node47</title>
<g id="a_node15"><a xlink:href="../../d2/dc5/class_g_p_s_driver_u_b_x.html#af01fa3241c4688400fe3f6d855340d94" target="_top" xlink:title="receive &amp; handle new data from the device ">
<polygon fill="#ffffff" stroke="#000000" points="385.5,-88.5 385.5,-107.5 507.5,-107.5 507.5,-88.5 385.5,-88.5"/>
<text text-anchor="middle" x="446.5" y="-95.5" font-family="Helvetica,sans-Serif" font-size="10.00" fill="#000000">GPSDriverUBX::receive</text>
</a>
</g>
</g>
<!-- Node46&#45;&gt;Node47 -->
<g id="edge20" class="edge">
<title>Node46&#45;&gt;Node47</title>
<path fill="none" stroke="#191970" d="M344.8547,-98C358.449,-98 372.4039,-98 385.4504,-98"/>
<polygon fill="#191970" stroke="#191970" points="344.5503,-94.5001 334.5503,-98 344.5502,-101.5001 344.5503,-94.5001"/>
</g>
<!-- Node48 -->
<g id="node16" class="node">
<title>Node48</title>
<g id="a_node16"><a xlink:href="../../d2/dc5/class_g_p_s_driver_u_b_x.html#a435183becff817ea04bb8dbee3b27938" target="_top" xlink:title="configure the device ">
<polygon fill="#ffffff" stroke="#000000" points="1360.5,-211.5 1360.5,-230.5 1491.5,-230.5 1491.5,-211.5 1360.5,-211.5"/>
<text text-anchor="middle" x="1426" y="-218.5" font-family="Helvetica,sans-Serif" font-size="10.00" fill="#000000">GPSDriverUBX::configure</text>
</a>
</g>
</g>
<!-- Node47&#45;&gt;Node48 -->
<g id="edge21" class="edge">
<title>Node47&#45;&gt;Node48</title>
<path fill="none" stroke="#191970" d="M504.7107,-86.3262C508.1964,-85.5579 511.6471,-84.7794 515,-84 659.0598,-50.5135 689.0995,0 837,0 837,0 837,0 1045.5,0 1179.3473,0 1214.527,-38.5862 1323,-117 1363.3651,-146.1794 1402.2978,-191.6407 1418.3303,-211.3479"/>
<polygon fill="#191970" stroke="#191970" points="503.8829,-82.9242 494.8471,-88.4564 505.3606,-89.7664 503.8829,-82.9242"/>
</g>
<!-- Node49 -->
<g id="node17" class="node">
<title>Node49</title>
<g id="a_node17"><a xlink:href="../../d2/dc5/class_g_p_s_driver_u_b_x.html#a69d3e7aee41d76fb0650e045d75e63db" target="_top" xlink:title="Wait for message acknowledge. ">
<polygon fill="#ffffff" stroke="#000000" points="560,-164.5 560,-183.5 700,-183.5 700,-164.5 560,-164.5"/>
<text text-anchor="middle" x="630" y="-171.5" font-family="Helvetica,sans-Serif" font-size="10.00" fill="#000000">GPSDriverUBX::waitForAck</text>
</a>
</g>
</g>
<!-- Node47&#45;&gt;Node49 -->
<g id="edge22" class="edge">
<title>Node47&#45;&gt;Node49</title>
<path fill="none" stroke="#191970" d="M479.0265,-111.4715C515.7725,-126.6905 574.6499,-151.0757 606.9483,-164.4527"/>
<polygon fill="#191970" stroke="#191970" points="480.3186,-108.2184 469.7404,-107.6255 477.6401,-114.6856 480.3186,-108.2184"/>
</g>
<!-- Node49&#45;&gt;Node48 -->
<g id="edge30" class="edge">
<title>Node49&#45;&gt;Node48</title>
<path fill="none" stroke="#191970" d="M653.4897,-189.3414C681.2551,-207.1383 726.074,-234.7239 745,-240 979.1281,-305.2685 1276.1953,-253.5072 1384.2868,-230.5459"/>
<polygon fill="#191970" stroke="#191970" points="655.0897,-186.2085 644.7894,-183.7276 651.2944,-192.0903 655.0897,-186.2085"/>
</g>
<!-- Node50 -->
<g id="node18" class="node">
<title>Node50</title>
<g id="a_node18"><a xlink:href="../../d2/dc5/class_g_p_s_driver_u_b_x.html#a6d819221ed27daddd63c8f0c9a4c1e73" target="_top" xlink:title="GPSDriverUBX::activateRTCMOutput">
<polygon fill="#ffffff" stroke="#000000" points="745,-104.5 745,-123.5 929,-123.5 929,-104.5 745,-104.5"/>
<text text-anchor="middle" x="837" y="-111.5" font-family="Helvetica,sans-Serif" font-size="10.00" fill="#000000">GPSDriverUBX::activateRTCMOutput</text>
</a>
</g>
</g>
<!-- Node49&#45;&gt;Node50 -->
<g id="edge23" class="edge">
<title>Node49&#45;&gt;Node50</title>
<path fill="none" stroke="#191970" d="M668.9239,-161.3026C691.1334,-154.1865 719.5387,-145.3017 745,-138 762.6126,-132.9491 782.2481,-127.7662 798.841,-123.5154"/>
<polygon fill="#191970" stroke="#191970" points="667.6353,-158.0404 659.1883,-164.4356 669.7798,-164.7039 667.6353,-158.0404"/>
</g>
<!-- Node52 -->
<g id="node20" class="node">
<title>Node52</title>
<g id="a_node20"><a xlink:href="../../d2/dc5/class_g_p_s_driver_u_b_x.html#afc6bdbe210a98edae84e5e515a079bac" target="_top" xlink:title="Start or restart the survey&#45;in procees. ">
<polygon fill="#ffffff" stroke="#000000" points="1163.5,-126.5 1163.5,-145.5 1321.5,-145.5 1321.5,-126.5 1163.5,-126.5"/>
<text text-anchor="middle" x="1242.5" y="-133.5" font-family="Helvetica,sans-Serif" font-size="10.00" fill="#000000">GPSDriverUBX::restartSurveyIn</text>
</a>
</g>
</g>
<!-- Node49&#45;&gt;Node52 -->
<g id="edge38" class="edge">
<title>Node49&#45;&gt;Node52</title>
<path fill="none" stroke="#191970" d="M647.0856,-157.2055C668.0869,-137.8575 705.7886,-107.1707 745,-95 916.9526,-41.6281 1137.4568,-101.8827 1214.4682,-126.4918"/>
<polygon fill="#191970" stroke="#191970" points="644.5047,-154.8289 639.6407,-164.2412 649.3127,-159.9165 644.5047,-154.8289"/>
</g>
<!-- Node53 -->
<g id="node21" class="node">
<title>Node53</title>
<g id="a_node21"><a xlink:href="../../d2/dc5/class_g_p_s_driver_u_b_x.html#a6e57c1a45646725148eb8896a3c4dba5" target="_top" xlink:title="restartSurveyIn for protocol version &lt; 27 (_proto_ver_27_or_higher == false) ">
<polygon fill="#ffffff" stroke="#000000" points="971,-143 971,-173 1120,-173 1120,-143 971,-143"/>
<text text-anchor="start" x="979" y="-161" font-family="Helvetica,sans-Serif" font-size="10.00" fill="#000000">GPSDriverUBX::restartSurvey</text>
<text text-anchor="middle" x="1045.5" y="-150" font-family="Helvetica,sans-Serif" font-size="10.00" fill="#000000">InPreV27</text>
</a>
</g>
</g>
<!-- Node49&#45;&gt;Node53 -->
<g id="edge39" class="edge">
<title>Node49&#45;&gt;Node53</title>
<path fill="none" stroke="#191970" d="M710.401,-170.9039C785.7811,-168.0012 897.5784,-163.6961 970.9856,-160.8694"/>
<polygon fill="#191970" stroke="#191970" points="709.8719,-167.4216 700.0141,-171.3039 710.1414,-174.4164 709.8719,-167.4216"/>
</g>
<!-- Node54 -->
<g id="node22" class="node">
<title>Node54</title>
<g id="a_node22"><a xlink:href="../../d2/dc5/class_g_p_s_driver_u_b_x.html#ad6f376f00e941e04544f2701b7fb3683" target="_top" xlink:title="Send configuration values and desired message rates. ">
<polygon fill="#ffffff" stroke="#000000" points="1162,-306.5 1162,-325.5 1323,-325.5 1323,-306.5 1162,-306.5"/>
<text text-anchor="middle" x="1242.5" y="-313.5" font-family="Helvetica,sans-Serif" font-size="10.00" fill="#000000">GPSDriverUBX::configureDevice</text>
</a>
</g>
</g>
<!-- Node49&#45;&gt;Node54 -->
<g id="edge31" class="edge">
<title>Node49&#45;&gt;Node54</title>
<path fill="none" stroke="#191970" d="M660.2335,-188.2736C676.1972,-196.9267 695.268,-209.1622 709,-224 732.2271,-249.0975 716.1375,-273.6605 745,-292 812.009,-334.5782 1038.8516,-328.4229 1161.7593,-321.5394"/>
<polygon fill="#191970" stroke="#191970" points="661.7433,-185.1138 651.2572,-183.6002 658.5107,-191.3227 661.7433,-185.1138"/>
</g>
<!-- Node55 -->
<g id="node23" class="node">
<title>Node55</title>
<g id="a_node23"><a xlink:href="../../d2/dc5/class_g_p_s_driver_u_b_x.html#a01ad75d6fd2d895fb72a8641a9cf793f" target="_top" xlink:title="Send configuration values and desired message rates (for protocol version &lt; 27) ">
<polygon fill="#ffffff" stroke="#000000" points="965,-206 965,-236 1126,-236 1126,-206 965,-206"/>
<text text-anchor="start" x="973" y="-224" font-family="Helvetica,sans-Serif" font-size="10.00" fill="#000000">GPSDriverUBX::configureDevice</text>
<text text-anchor="middle" x="1045.5" y="-213" font-family="Helvetica,sans-Serif" font-size="10.00" fill="#000000">PreV27</text>
</a>
</g>
</g>
<!-- Node49&#45;&gt;Node55 -->
<g id="edge33" class="edge">
<title>Node49&#45;&gt;Node55</title>
<path fill="none" stroke="#191970" d="M656.7072,-188.048C679.4674,-199.1859 713.4165,-213.863 745,-220 818.4901,-234.2798 904.0118,-232.8648 964.9851,-228.8635"/>
<polygon fill="#191970" stroke="#191970" points="658.1861,-184.8743 647.6773,-183.5265 655.0519,-191.1335 658.1861,-184.8743"/>
</g>
<!-- Node56 -->
<g id="node24" class="node">
<title>Node56</title>
<g id="a_node24"><a xlink:href="../../d2/dc5/class_g_p_s_driver_u_b_x.html#aa98487cab6ea29baec6fd2746011c88a" target="_top" xlink:title="Combines the configure_message_rate &amp; wait_for_ack calls. ">
<polygon fill="#ffffff" stroke="#000000" points="752,-181 752,-211 922,-211 922,-181 752,-181"/>
<text text-anchor="start" x="760" y="-199" font-family="Helvetica,sans-Serif" font-size="10.00" fill="#000000">GPSDriverUBX::configureMessage</text>
<text text-anchor="middle" x="837" y="-188" font-family="Helvetica,sans-Serif" font-size="10.00" fill="#000000">RateAndAck</text>
</a>
</g>
</g>
<!-- Node49&#45;&gt;Node56 -->
<g id="edge35" class="edge">
<title>Node49&#45;&gt;Node56</title>
<path fill="none" stroke="#191970" d="M710.3733,-182.5421C723.9984,-183.9902 738.1869,-185.4981 751.9277,-186.9585"/>
<polygon fill="#191970" stroke="#191970" points="710.3947,-179.0247 700.0808,-181.4482 709.6548,-185.9855 710.3947,-179.0247"/>
</g>
<!-- Node51 -->
<g id="node19" class="node">
<title>Node51</title>
<g id="a_node19"><a xlink:href="../../d2/dc5/class_g_p_s_driver_u_b_x.html#a7741a82a136afc6332281f4a52426cc9" target="_top" xlink:title="Finish payload rx. ">
<polygon fill="#ffffff" stroke="#000000" points="965,-28.5 965,-47.5 1126,-47.5 1126,-28.5 965,-28.5"/>
<text text-anchor="middle" x="1045.5" y="-35.5" font-family="Helvetica,sans-Serif" font-size="10.00" fill="#000000">GPSDriverUBX::payloadRxDone</text>
</a>
</g>
</g>
<!-- Node50&#45;&gt;Node51 -->
<g id="edge24" class="edge">
<title>Node50&#45;&gt;Node51</title>
<path fill="none" stroke="#191970" d="M872.8974,-100.9151C914.5692,-85.7254 982.2967,-61.0381 1019.3077,-47.5473"/>
<polygon fill="#191970" stroke="#191970" points="871.6033,-97.6615 863.4067,-104.3745 874.0006,-104.2382 871.6033,-97.6615"/>
</g>
<!-- Node50&#45;&gt;Node52 -->
<g id="edge26" class="edge">
<title>Node50&#45;&gt;Node52</title>
<path fill="none" stroke="#191970" d="M939.1194,-119.5404C1008.6903,-123.3149 1099.4388,-128.2384 1163.4979,-131.7138"/>
<polygon fill="#191970" stroke="#191970" points="939.1892,-116.0391 929.0142,-118.9921 938.8099,-123.0288 939.1892,-116.0391"/>
</g>
<!-- Node50&#45;&gt;Node53 -->
<g id="edge28" class="edge">
<title>Node50&#45;&gt;Node53</title>
<path fill="none" stroke="#191970" d="M892.3084,-125.6718C917.3887,-130.9645 947.3578,-137.2889 974.1107,-142.9346"/>
<polygon fill="#191970" stroke="#191970" points="892.7486,-122.1877 882.2414,-123.5473 891.3032,-129.0368 892.7486,-122.1877"/>
</g>
<!-- Node51&#45;&gt;Node46 -->
<g id="edge25" class="edge">
<title>Node51&#45;&gt;Node46</title>
<path fill="none" stroke="#191970" d="M954.6515,-40.4873C825.9575,-44.713 583.3594,-55.2656 378,-79 357.4203,-81.3785 334.8663,-85.0234 315.4603,-88.487"/>
<polygon fill="#191970" stroke="#191970" points="954.9718,-43.9789 964.8535,-40.1578 954.7457,-36.9825 954.9718,-43.9789"/>
</g>
<!-- Node52&#45;&gt;Node48 -->
<g id="edge27" class="edge">
<title>Node52&#45;&gt;Node48</title>
<path fill="none" stroke="#191970" d="M1272.5805,-149.9338C1310.027,-167.2795 1372.9924,-196.4461 1405.3825,-211.4497"/>
<polygon fill="#191970" stroke="#191970" points="1273.738,-146.6127 1263.1931,-145.5854 1270.7958,-152.9644 1273.738,-146.6127"/>
</g>
<!-- Node53&#45;&gt;Node52 -->
<g id="edge29" class="edge">
<title>Node53&#45;&gt;Node52</title>
<path fill="none" stroke="#191970" d="M1130.2278,-148.538C1141.1718,-147.3158 1152.3472,-146.0678 1163.1992,-144.8559"/>
<polygon fill="#191970" stroke="#191970" points="1129.8079,-145.0631 1120.2582,-149.6514 1130.5849,-152.0198 1129.8079,-145.0631"/>
</g>
<!-- Node54&#45;&gt;Node48 -->
<g id="edge32" class="edge">
<title>Node54&#45;&gt;Node48</title>
<path fill="none" stroke="#191970" d="M1293.4408,-303.4531C1303.4564,-300.256 1313.7271,-296.4409 1323,-292 1359.0424,-274.7389 1396.4838,-245.6119 1414.6936,-230.5934"/>
<polygon fill="#191970" stroke="#191970" points="1292.1139,-300.1979 1283.5566,-306.4446 1294.1417,-306.8977 1292.1139,-300.1979"/>
</g>
<!-- Node55&#45;&gt;Node48 -->
<g id="edge34" class="edge">
<title>Node55&#45;&gt;Node48</title>
<path fill="none" stroke="#191970" d="M1136.6094,-221C1205.5232,-221 1298.5209,-221 1360.2851,-221"/>
<polygon fill="#191970" stroke="#191970" points="1136.1943,-217.5001 1126.1943,-221 1136.1942,-224.5001 1136.1943,-217.5001"/>
</g>
<!-- Node56&#45;&gt;Node53 -->
<g id="edge37" class="edge">
<title>Node56&#45;&gt;Node53</title>
<path fill="none" stroke="#191970" d="M929.4206,-179.156C943.2636,-176.633 957.3884,-174.0587 970.8018,-171.6141"/>
<polygon fill="#191970" stroke="#191970" points="928.6151,-175.745 919.4047,-180.9814 929.8702,-182.6316 928.6151,-175.745"/>
</g>
<!-- Node56&#45;&gt;Node55 -->
<g id="edge36" class="edge">
<title>Node56&#45;&gt;Node55</title>
<path fill="none" stroke="#191970" d="M932.068,-207.399C942.9723,-208.7065 954.0116,-210.0302 964.7037,-211.3122"/>
<polygon fill="#191970" stroke="#191970" points="932.4512,-203.92 922.1057,-206.2045 931.6178,-210.8702 932.4512,-203.92"/>
</g>
</g>
</svg>
