<?xml version="1.0" encoding="UTF-8" standalone="no"?>
<!DOCTYPE svg PUBLIC "-//W3C//DTD SVG 1.1//EN"
 "http://www.w3.org/Graphics/SVG/1.1/DTD/svg11.dtd">
<!-- Generated by graphviz version 2.40.1 (20161225.0304)
 -->
<!-- Title: FlightTask::applyCommandParameters Pages: 1 -->
<svg width="679pt" height="78pt"
 viewBox="0.00 0.00 679.00 77.50" xmlns="http://www.w3.org/2000/svg" xmlns:xlink="http://www.w3.org/1999/xlink">
<g id="graph0" class="graph" transform="scale(1 1) rotate(0) translate(4 73.5)">
<title>FlightTask::applyCommandParameters</title>
<polygon fill="#ffffff" stroke="transparent" points="-4,4 -4,-73.5 675,-73.5 675,4 -4,4"/>
<!-- Node265 -->
<g id="node1" class="node">
<title>Node265</title>
<polygon fill="#bfbfbf" stroke="#000000" points="0,-22.5 0,-52.5 137,-52.5 137,-22.5 0,-22.5"/>
<text text-anchor="start" x="8" y="-40.5" font-family="Helvetica,sans-Serif" font-size="10.00" fill="#000000">FlightTask::applyCommand</text>
<text text-anchor="middle" x="68.5" y="-29.5" font-family="Helvetica,sans-Serif" font-size="10.00" fill="#000000">Parameters</text>
</g>
<!-- Node266 -->
<g id="node2" class="node">
<title>Node266</title>
<g id="a_node2"><a xlink:href="../../dc/d0c/class_flight_tasks.html#a8264a8ba9d1c4535dcfbca0a414d16de" target="_top" xlink:title="Check for vehicle commands (received via MAVLink), evaluate and acknowledge them. ...">
<polygon fill="#ffffff" stroke="#000000" points="180.5,-50 180.5,-69 333.5,-69 333.5,-50 180.5,-50"/>
<text text-anchor="middle" x="257" y="-57" font-family="Helvetica,sans-Serif" font-size="10.00" fill="#000000">FlightTasks::_updateCommand</text>
</a>
</g>
</g>
<!-- Node265&#45;&gt;Node266 -->
<g id="edge1" class="edge">
<title>Node265&#45;&gt;Node266</title>
<path fill="none" stroke="#191970" d="M147.123,-46.6762C158.1618,-47.9645 169.4948,-49.2872 180.4933,-50.5708"/>
<polygon fill="#191970" stroke="#191970" points="147.4244,-43.1877 137.0861,-45.5047 146.6129,-50.1405 147.4244,-43.1877"/>
</g>
<!-- Node269 -->
<g id="node5" class="node">
<title>Node269</title>
<g id="a_node5"><a xlink:href="../../de/de4/class_flight_task_manual.html#a16249ae1f0f40c812e0c58265e707916" target="_top" xlink:title="To be called to adopt parameters from an arrived vehicle command. ">
<polygon fill="#ffffff" stroke="#000000" points="173,-.5 173,-30.5 341,-30.5 341,-.5 173,-.5"/>
<text text-anchor="start" x="181" y="-18.5" font-family="Helvetica,sans-Serif" font-size="10.00" fill="#000000">FlightTaskManual::applyCommand</text>
<text text-anchor="middle" x="257" y="-7.5" font-family="Helvetica,sans-Serif" font-size="10.00" fill="#000000">Parameters</text>
</a>
</g>
</g>
<!-- Node265&#45;&gt;Node269 -->
<g id="edge4" class="edge">
<title>Node265&#45;&gt;Node269</title>
<path fill="none" stroke="#191970" d="M147.2491,-28.3091C155.6652,-27.3269 164.2509,-26.3248 172.7277,-25.3355"/>
<polygon fill="#191970" stroke="#191970" points="146.6129,-24.8595 137.0861,-29.4953 147.4244,-31.8123 146.6129,-24.8595"/>
</g>
<!-- Node267 -->
<g id="node3" class="node">
<title>Node267</title>
<g id="a_node3"><a xlink:href="../../dc/d0c/class_flight_tasks.html#add80b7c3af85774bd332f6667cbf7c7b" target="_top" xlink:title="Call regularly in the control loop cycle to execute the task. ">
<polygon fill="#ffffff" stroke="#000000" points="377,-50 377,-69 480,-69 480,-50 377,-50"/>
<text text-anchor="middle" x="428.5" y="-57" font-family="Helvetica,sans-Serif" font-size="10.00" fill="#000000">FlightTasks::update</text>
</a>
</g>
</g>
<!-- Node266&#45;&gt;Node267 -->
<g id="edge2" class="edge">
<title>Node266&#45;&gt;Node267</title>
<path fill="none" stroke="#191970" d="M344.0413,-59.5C355.2941,-59.5 366.5172,-59.5 376.9354,-59.5"/>
<polygon fill="#191970" stroke="#191970" points="343.721,-56.0001 333.721,-59.5 343.7209,-63.0001 343.721,-56.0001"/>
</g>
<!-- Node268 -->
<g id="node4" class="node">
<title>Node268</title>
<g id="a_node4"><a xlink:href="../../dd/d4e/class_multicopter_position_control.html#a295b07c9916c3949dab8c3584415e392" target="_top" xlink:title="MulticopterPositionControl::Run">
<polygon fill="#ffffff" stroke="#000000" points="516,-50 516,-69 671,-69 671,-50 516,-50"/>
<text text-anchor="middle" x="593.5" y="-57" font-family="Helvetica,sans-Serif" font-size="10.00" fill="#000000">MulticopterPositionControl::Run</text>
</a>
</g>
</g>
<!-- Node267&#45;&gt;Node268 -->
<g id="edge3" class="edge">
<title>Node267&#45;&gt;Node268</title>
<path fill="none" stroke="#191970" d="M490.2907,-59.5C498.6632,-59.5 507.3399,-59.5 515.9446,-59.5"/>
<polygon fill="#191970" stroke="#191970" points="490.2544,-56.0001 480.2543,-59.5 490.2543,-63.0001 490.2544,-56.0001"/>
</g>
</g>
</svg>
