<?xml version="1.0" encoding="UTF-8" standalone="no"?>
<!DOCTYPE svg PUBLIC "-//W3C//DTD SVG 1.1//EN"
 "http://www.w3.org/Graphics/SVG/1.1/DTD/svg11.dtd">
<!-- Generated by graphviz version 2.40.1 (20161225.0304)
 -->
<!-- Title: FlightTask::_setDefaultConstraints Pages: 1 -->
<!--zoomable 418 -->
<svg id="main" version="1.1" xmlns="http://www.w3.org/2000/svg" xmlns:xlink="http://www.w3.org/1999/xlink" xml:space="preserve" onload="init(evt)">
<style type="text/css"><![CDATA[
.edge:hover path { stroke: red; }
.edge:hover polygon { stroke: red; fill: red; }
]]></style>
<script type="text/javascript"><![CDATA[
var edges = document.getElementsByTagName('g');
if (edges && edges.length) {
  for (var i=0;i<edges.length;i++) {
    if (edges[i].id.substr(0,4)=='edge') {
      edges[i].setAttribute('class','edge');
    }
  }
}
]]></script>
        <defs>
                <circle id="rim" cx="0" cy="0" r="7"/>
                <circle id="rim2" cx="0" cy="0" r="3.5"/>
                <g id="zoomPlus">
                        <use xlink:href="#rim" fill="#404040">
                                <set attributeName="fill" to="#808080" begin="zoomplus.mouseover" end="zoomplus.mouseout"/>
                        </use>
                        <path d="M-4,0h8M0,-4v8" fill="none" stroke="white" stroke-width="1.5" pointer-events="none"/>
                </g>
                <g id="zoomMin">
                        <use xlink:href="#rim" fill="#404040">
                                <set attributeName="fill" to="#808080" begin="zoomminus.mouseover" end="zoomminus.mouseout"/>
                        </use>
                        <path d="M-4,0h8" fill="none" stroke="white" stroke-width="1.5" pointer-events="none"/>
                </g>
                <g id="dirArrow">
                        <path fill="none" stroke="white" stroke-width="1.5" d="M0,-3.0v7 M-2.5,-0.5L0,-3.0L2.5,-0.5"/>
                </g>
               <g id="resetDef">
                       <use xlink:href="#rim2" fill="#404040">
                               <set attributeName="fill" to="#808080" begin="reset.mouseover" end="reset.mouseout"/>
                       </use>
               </g>
        </defs>

<script type="text/javascript">
var viewWidth = 871;
var viewHeight = 418;
var sectionId = 'dynsection-20';
</script>
<script xlink:href="../../svgpan.js"/>
<svg id="graph" class="graph">
<g id="viewport">
<title>FlightTask::_setDefaultConstraints</title>
<polygon fill="#ffffff" stroke="transparent" points="-4,4 -4,-414 867,-414 867,4 -4,4"/>
<!-- Node194 -->
<g id="node1" class="node">
<title>Node194</title>
<polygon fill="#bfbfbf" stroke="#000000" points="0,-230 0,-249 169,-249 169,-230 0,-230"/>
<text text-anchor="middle" x="84.5" y="-237" font-family="Helvetica,sans-Serif" font-size="10.00" fill="#000000">FlightTask::_setDefaultConstraints</text>
</g>
<!-- Node195 -->
<g id="node2" class="node">
<title>Node195</title>
<g id="a_node2"><a xlink:href="../../d8/d0b/class_flight_task_auto.html#ab720584c5da218041ec912b18286ff99" target="_top" xlink:title="Set constraints to default values. ">
<polygon fill="#ffffff" stroke="#000000" points="205,-300.5 205,-330.5 344,-330.5 344,-300.5 205,-300.5"/>
<text text-anchor="start" x="213" y="-318.5" font-family="Helvetica,sans-Serif" font-size="10.00" fill="#000000">FlightTaskAuto::_setDefault</text>
<text text-anchor="middle" x="274.5" y="-307.5" font-family="Helvetica,sans-Serif" font-size="10.00" fill="#000000">Constraints</text>
</a>
</g>
</g>
<!-- Node194&#45;&gt;Node195 -->
<g id="edge1" class="edge">
<title>Node194&#45;&gt;Node195</title>
<path fill="none" stroke="#191970" d="M117.8686,-252.8475C151.1537,-266.1615 202.198,-286.5792 236.8983,-300.4593"/>
<polygon fill="#191970" stroke="#191970" points="119.1483,-249.5898 108.5636,-249.1255 116.5485,-256.0891 119.1483,-249.5898"/>
</g>
<!-- Node200 -->
<g id="node7" class="node">
<title>Node200</title>
<g id="a_node7"><a xlink:href="../../da/dbc/class_flight_task.html#a5c435eaddd85a158eb25a793fafdbaee" target="_top" xlink:title="Call once on the event where you switch to the task. ">
<polygon fill="#ffffff" stroke="#000000" points="223,-208 223,-227 326,-227 326,-208 223,-208"/>
<text text-anchor="middle" x="274.5" y="-215" font-family="Helvetica,sans-Serif" font-size="10.00" fill="#000000">FlightTask::activate</text>
</a>
</g>
</g>
<!-- Node194&#45;&gt;Node200 -->
<g id="edge6" class="edge">
<title>Node194&#45;&gt;Node200</title>
<path fill="none" stroke="#191970" d="M177.0532,-228.7833C192.8073,-226.9592 208.6511,-225.1246 222.8503,-223.4805"/>
<polygon fill="#191970" stroke="#191970" points="176.2627,-225.3514 166.7317,-229.9784 177.0679,-232.3049 176.2627,-225.3514"/>
</g>
<!-- Node196 -->
<g id="node3" class="node">
<title>Node196</title>
<g id="a_node3"><a xlink:href="../../d8/d0b/class_flight_task_auto.html#a33f9f23f915d8f20c6701ea46a8fd879" target="_top" xlink:title="Call once on the event where you switch to the task. ">
<polygon fill="#ffffff" stroke="#000000" points="382,-361 382,-380 505,-380 505,-361 382,-361"/>
<text text-anchor="middle" x="443.5" y="-368" font-family="Helvetica,sans-Serif" font-size="10.00" fill="#000000">FlightTaskAuto::activate</text>
</a>
</g>
</g>
<!-- Node195&#45;&gt;Node196 -->
<g id="edge2" class="edge">
<title>Node195&#45;&gt;Node196</title>
<path fill="none" stroke="#191970" d="M327.161,-333.9099C343.998,-339.6777 362.7433,-345.9762 380,-351.5 389.9731,-354.6923 400.8797,-358.0159 410.7959,-360.9741"/>
<polygon fill="#191970" stroke="#191970" points="328.0886,-330.5277 317.4939,-330.5851 325.8119,-337.1472 328.0886,-330.5277"/>
</g>
<!-- Node197 -->
<g id="node4" class="node">
<title>Node197</title>
<g id="a_node4"><a xlink:href="../../d0/d5e/class_flight_task_auto_mapper.html#adb374033b9f6183dbd1997fbb3529738" target="_top" xlink:title="Call once on the event where you switch to the task. ">
<polygon fill="#ffffff" stroke="#000000" points="550,-379.5 550,-409.5 665,-409.5 665,-379.5 550,-379.5"/>
<text text-anchor="start" x="558" y="-397.5" font-family="Helvetica,sans-Serif" font-size="10.00" fill="#000000">FlightTaskAutoMapper</text>
<text text-anchor="middle" x="607.5" y="-386.5" font-family="Helvetica,sans-Serif" font-size="10.00" fill="#000000">::activate</text>
</a>
</g>
</g>
<!-- Node196&#45;&gt;Node197 -->
<g id="edge3" class="edge">
<title>Node196&#45;&gt;Node197</title>
<path fill="none" stroke="#191970" d="M515.1627,-380.9872C526.7984,-382.69 538.7163,-384.4341 549.959,-386.0794"/>
<polygon fill="#191970" stroke="#191970" points="515.4356,-377.49 505.0341,-379.505 514.4219,-384.4162 515.4356,-377.49"/>
</g>
<!-- Node198 -->
<g id="node5" class="node">
<title>Node198</title>
<g id="a_node5"><a xlink:href="../../d6/daa/class_flight_task_auto_mapper2.html#a62405161e521d9b9673c333c43635ded" target="_top" xlink:title="Call once on the event where you switch to the task. ">
<polygon fill="#ffffff" stroke="#000000" points="547.5,-330.5 547.5,-360.5 667.5,-360.5 667.5,-330.5 547.5,-330.5"/>
<text text-anchor="start" x="555.5" y="-348.5" font-family="Helvetica,sans-Serif" font-size="10.00" fill="#000000">FlightTaskAutoMapper2</text>
<text text-anchor="middle" x="607.5" y="-337.5" font-family="Helvetica,sans-Serif" font-size="10.00" fill="#000000">::activate</text>
</a>
</g>
</g>
<!-- Node196&#45;&gt;Node198 -->
<g id="edge4" class="edge">
<title>Node196&#45;&gt;Node198</title>
<path fill="none" stroke="#191970" d="M515.1932,-359.5712C525.8906,-357.9405 536.8257,-356.2735 547.2547,-354.6837"/>
<polygon fill="#191970" stroke="#191970" points="514.3925,-356.1527 505.0341,-361.1198 515.4474,-363.0728 514.3925,-356.1527"/>
</g>
<!-- Node199 -->
<g id="node6" class="node">
<title>Node199</title>
<g id="a_node6"><a xlink:href="../../d1/da1/class_flight_task_auto_line_smooth_vel.html#a710f93ba9337ef9cd2dcba03bb0e5790" target="_top" xlink:title="Call once on the event where you switch to the task. ">
<polygon fill="#ffffff" stroke="#000000" points="718.5,-330.5 718.5,-360.5 852.5,-360.5 852.5,-330.5 718.5,-330.5"/>
<text text-anchor="start" x="726.5" y="-348.5" font-family="Helvetica,sans-Serif" font-size="10.00" fill="#000000">FlightTaskAutoLineSmooth</text>
<text text-anchor="middle" x="785.5" y="-337.5" font-family="Helvetica,sans-Serif" font-size="10.00" fill="#000000">Vel::activate</text>
</a>
</g>
</g>
<!-- Node198&#45;&gt;Node199 -->
<g id="edge5" class="edge">
<title>Node198&#45;&gt;Node199</title>
<path fill="none" stroke="#191970" d="M677.8137,-345.5C691.134,-345.5 705.039,-345.5 718.2613,-345.5"/>
<polygon fill="#191970" stroke="#191970" points="677.7627,-342.0001 667.7627,-345.5 677.7626,-349.0001 677.7627,-342.0001"/>
</g>
<!-- Node200&#45;&gt;Node196 -->
<g id="edge8" class="edge">
<title>Node200&#45;&gt;Node196</title>
<path fill="none" stroke="#191970" d="M292.6246,-234.6419C307.3596,-249.064 328.2181,-270.6203 344,-291.5 362.7518,-316.3089 355.4431,-332.4194 380,-351.5 384.9977,-355.3832 390.7789,-358.4748 396.7764,-360.9358"/>
<polygon fill="#191970" stroke="#191970" points="294.7641,-231.8425 285.1396,-227.4132 289.9013,-236.8777 294.7641,-231.8425"/>
</g>
<!-- Node201 -->
<g id="node8" class="node">
<title>Node201</title>
<g id="a_node8"><a xlink:href="../../dc/d0c/class_flight_tasks.html#adbfe677fc3a415e08f897d938cc641d8" target="_top" xlink:title="Switch to a specific task (for normal usage) ">
<polygon fill="#ffffff" stroke="#000000" points="381.5,-323 381.5,-342 505.5,-342 505.5,-323 381.5,-323"/>
<text text-anchor="middle" x="443.5" y="-330" font-family="Helvetica,sans-Serif" font-size="10.00" fill="#000000">FlightTasks::switchTask</text>
</a>
</g>
</g>
<!-- Node200&#45;&gt;Node201 -->
<g id="edge7" class="edge">
<title>Node200&#45;&gt;Node201</title>
<path fill="none" stroke="#191970" d="M289.0966,-234.899C307.982,-256.3461 342.8885,-292.521 380,-313.5 386.7117,-317.2941 394.2597,-320.4036 401.7467,-322.9271"/>
<polygon fill="#191970" stroke="#191970" points="291.6395,-232.4885 282.4551,-227.2067 286.3411,-237.0632 291.6395,-232.4885"/>
</g>
<!-- Node202 -->
<g id="node9" class="node">
<title>Node202</title>
<g id="a_node9"><a xlink:href="../../d8/d7f/class_flight_task_descend.html#a56e9311bb56faa47f3c6ae33a222a161" target="_top" xlink:title="Call once on the event where you switch to the task. ">
<polygon fill="#ffffff" stroke="#000000" points="390,-273.5 390,-303.5 497,-303.5 497,-273.5 390,-273.5"/>
<text text-anchor="start" x="398" y="-291.5" font-family="Helvetica,sans-Serif" font-size="10.00" fill="#000000">FlightTaskDescend::</text>
<text text-anchor="middle" x="443.5" y="-280.5" font-family="Helvetica,sans-Serif" font-size="10.00" fill="#000000">activate</text>
</a>
</g>
</g>
<!-- Node200&#45;&gt;Node202 -->
<g id="edge9" class="edge">
<title>Node200&#45;&gt;Node202</title>
<path fill="none" stroke="#191970" d="M304.3202,-231.3368C325.341,-240.9547 354.2261,-253.8986 380,-264.5 387.3026,-267.5037 395.1323,-270.5791 402.713,-273.4829"/>
<polygon fill="#191970" stroke="#191970" points="305.5163,-228.0347 294.9682,-227.0401 302.5938,-234.3955 305.5163,-228.0347"/>
</g>
<!-- Node203 -->
<g id="node10" class="node">
<title>Node203</title>
<g id="a_node10"><a xlink:href="../../da/dd2/class_flight_task_failsafe.html#aabc201e111b5a313362057c72b32a78f" target="_top" xlink:title="Call once on the event where you switch to the task. ">
<polygon fill="#ffffff" stroke="#000000" points="395,-224.5 395,-254.5 492,-254.5 492,-224.5 395,-224.5"/>
<text text-anchor="start" x="403" y="-242.5" font-family="Helvetica,sans-Serif" font-size="10.00" fill="#000000">FlightTaskFailsafe</text>
<text text-anchor="middle" x="443.5" y="-231.5" font-family="Helvetica,sans-Serif" font-size="10.00" fill="#000000">::activate</text>
</a>
</g>
</g>
<!-- Node200&#45;&gt;Node203 -->
<g id="edge10" class="edge">
<title>Node200&#45;&gt;Node203</title>
<path fill="none" stroke="#191970" d="M336.0555,-225.5131C355.3955,-228.0308 376.4706,-230.7743 394.7918,-233.1593"/>
<polygon fill="#191970" stroke="#191970" points="336.492,-222.0405 326.1239,-224.2203 335.5884,-228.982 336.492,-222.0405"/>
</g>
<!-- Node204 -->
<g id="node11" class="node">
<title>Node204</title>
<g id="a_node11"><a xlink:href="../../da/dbc/class_flight_task.html#ad5bb0b1e3d751c3c106405e4b30c7348" target="_top" xlink:title="Call this to reset an active Flight Task. ">
<polygon fill="#ffffff" stroke="#000000" points="387,-186 387,-205 500,-205 500,-186 387,-186"/>
<text text-anchor="middle" x="443.5" y="-193" font-family="Helvetica,sans-Serif" font-size="10.00" fill="#000000">FlightTask::reActivate</text>
</a>
</g>
</g>
<!-- Node200&#45;&gt;Node204 -->
<g id="edge11" class="edge">
<title>Node200&#45;&gt;Node204</title>
<path fill="none" stroke="#191970" d="M336.2472,-209.4619C352.8078,-207.3061 370.6281,-204.9863 386.895,-202.8687"/>
<polygon fill="#191970" stroke="#191970" points="335.5884,-206.018 326.1239,-210.7797 336.492,-212.9595 335.5884,-206.018"/>
</g>
<!-- Node207 -->
<g id="node14" class="node">
<title>Node207</title>
<g id="a_node14"><a xlink:href="../../da/dbc/class_flight_task.html#adc254d6f0f38487df20a894b0fa017ab" target="_top" xlink:title="FlightTask::FlightTask">
<polygon fill="#ffffff" stroke="#000000" points="550.5,-167 550.5,-186 664.5,-186 664.5,-167 550.5,-167"/>
<text text-anchor="middle" x="607.5" y="-174" font-family="Helvetica,sans-Serif" font-size="10.00" fill="#000000">FlightTask::FlightTask</text>
</a>
</g>
</g>
<!-- Node200&#45;&gt;Node207 -->
<g id="edge15" class="edge">
<title>Node200&#45;&gt;Node207</title>
<path fill="none" stroke="#191970" d="M302.1206,-203.4993C322.9306,-193.7693 352.4889,-181.6579 380,-176.5 437.2597,-165.7648 504.0607,-167.4002 550.3993,-170.7149"/>
<polygon fill="#191970" stroke="#191970" points="300.437,-200.425 292.9346,-207.906 303.4647,-206.7364 300.437,-200.425"/>
</g>
<!-- Node208 -->
<g id="node15" class="node">
<title>Node208</title>
<g id="a_node15"><a xlink:href="../../d8/d4c/class_flight_task_manual_altitude.html#a8b10a2e30bf3f117352da876f12b509c" target="_top" xlink:title="Call once on the event where you switch to the task. ">
<polygon fill="#ffffff" stroke="#000000" points="380,-98.5 380,-128.5 507,-128.5 507,-98.5 380,-98.5"/>
<text text-anchor="start" x="388" y="-116.5" font-family="Helvetica,sans-Serif" font-size="10.00" fill="#000000">FlightTaskManualAltitude</text>
<text text-anchor="middle" x="443.5" y="-105.5" font-family="Helvetica,sans-Serif" font-size="10.00" fill="#000000">::activate</text>
</a>
</g>
</g>
<!-- Node200&#45;&gt;Node208 -->
<g id="edge16" class="edge">
<title>Node200&#45;&gt;Node208</title>
<path fill="none" stroke="#191970" d="M294.7762,-201.7118C315.5259,-185.9357 349.0281,-161.5025 380,-143.5 389.0656,-138.2306 399.2064,-133.116 408.677,-128.6468"/>
<polygon fill="#191970" stroke="#191970" points="292.5138,-199.036 286.7087,-207.8989 296.7738,-204.5905 292.5138,-199.036"/>
</g>
<!-- Node214 -->
<g id="node21" class="node">
<title>Node214</title>
<g id="a_node21"><a xlink:href="../../df/d3f/class_flight_task_offboard.html#a1baa5498182cb4f2ede72ec41d956ce4" target="_top" xlink:title="Call once on the event where you switch to the task. ">
<polygon fill="#ffffff" stroke="#000000" points="393.5,-49.5 393.5,-79.5 493.5,-79.5 493.5,-49.5 393.5,-49.5"/>
<text text-anchor="start" x="401.5" y="-67.5" font-family="Helvetica,sans-Serif" font-size="10.00" fill="#000000">FlightTaskOffboard</text>
<text text-anchor="middle" x="443.5" y="-56.5" font-family="Helvetica,sans-Serif" font-size="10.00" fill="#000000">::activate</text>
</a>
</g>
</g>
<!-- Node200&#45;&gt;Node214 -->
<g id="edge22" class="edge">
<title>Node200&#45;&gt;Node214</title>
<path fill="none" stroke="#191970" d="M285.3349,-199.134C302.3221,-171.7712 337.6919,-120.235 380,-89.5 385.1762,-85.7397 390.9941,-82.4534 396.9527,-79.6085"/>
<polygon fill="#191970" stroke="#191970" points="282.3131,-197.3671 280.1118,-207.7308 288.2955,-201.0019 282.3131,-197.3671"/>
</g>
<!-- Node215 -->
<g id="node22" class="node">
<title>Node215</title>
<g id="a_node22"><a xlink:href="../../d6/daf/class_flight_task_transition.html#a14066f69ad570b345fa891ee16e75a1d" target="_top" xlink:title="Call once on the event where you switch to the task. ">
<polygon fill="#ffffff" stroke="#000000" points="391,-.5 391,-30.5 496,-30.5 496,-.5 391,-.5"/>
<text text-anchor="start" x="399" y="-18.5" font-family="Helvetica,sans-Serif" font-size="10.00" fill="#000000">FlightTaskTransition</text>
<text text-anchor="middle" x="443.5" y="-7.5" font-family="Helvetica,sans-Serif" font-size="10.00" fill="#000000">::activate</text>
</a>
</g>
</g>
<!-- Node200&#45;&gt;Node215 -->
<g id="edge23" class="edge">
<title>Node200&#45;&gt;Node215</title>
<path fill="none" stroke="#191970" d="M283.7526,-198.4523C304.0005,-157.4144 352.6117,-62.5015 380,-39.5 384.0612,-36.0893 388.6567,-33.136 393.4733,-30.5849"/>
<polygon fill="#191970" stroke="#191970" points="280.5038,-197.1284 279.2462,-207.6484 286.7896,-200.2088 280.5038,-197.1284"/>
</g>
<!-- Node205 -->
<g id="node12" class="node">
<title>Node205</title>
<g id="a_node12"><a xlink:href="../../dc/d0c/class_flight_tasks.html#ab0ad84cee380875369ad44f7745dacb2" target="_top" xlink:title="This method will re&#45;activate current task. ">
<polygon fill="#ffffff" stroke="#000000" points="548.5,-205 548.5,-224 666.5,-224 666.5,-205 548.5,-205"/>
<text text-anchor="middle" x="607.5" y="-212" font-family="Helvetica,sans-Serif" font-size="10.00" fill="#000000">FlightTasks::reActivate</text>
</a>
</g>
</g>
<!-- Node204&#45;&gt;Node205 -->
<g id="edge12" class="edge">
<title>Node204&#45;&gt;Node205</title>
<path fill="none" stroke="#191970" d="M510.3882,-203.2492C523.0059,-204.711 536.118,-206.2301 548.4733,-207.6615"/>
<polygon fill="#191970" stroke="#191970" points="510.7354,-199.7661 500.399,-202.092 509.9297,-206.7196 510.7354,-199.7661"/>
</g>
<!-- Node204&#45;&gt;Node207 -->
<g id="edge14" class="edge">
<title>Node204&#45;&gt;Node207</title>
<path fill="none" stroke="#191970" d="M510.4194,-187.7471C523.6938,-186.2093 537.5143,-184.6081 550.424,-183.1125"/>
<polygon fill="#191970" stroke="#191970" points="509.9297,-184.2804 500.399,-188.908 510.7354,-191.2339 509.9297,-184.2804"/>
</g>
<!-- Node206 -->
<g id="node13" class="node">
<title>Node206</title>
<g id="a_node13"><a xlink:href="../../dd/d4e/class_multicopter_position_control.html#a295b07c9916c3949dab8c3584415e392" target="_top" xlink:title="MulticopterPositionControl::Run">
<polygon fill="#ffffff" stroke="#000000" points="708,-205 708,-224 863,-224 863,-205 708,-205"/>
<text text-anchor="middle" x="785.5" y="-212" font-family="Helvetica,sans-Serif" font-size="10.00" fill="#000000">MulticopterPositionControl::Run</text>
</a>
</g>
</g>
<!-- Node205&#45;&gt;Node206 -->
<g id="edge13" class="edge">
<title>Node205&#45;&gt;Node206</title>
<path fill="none" stroke="#191970" d="M676.7943,-214.5C686.9585,-214.5 697.4837,-214.5 707.8029,-214.5"/>
<polygon fill="#191970" stroke="#191970" points="676.7715,-211.0001 666.7714,-214.5 676.7714,-218.0001 676.7715,-211.0001"/>
</g>
<!-- Node209 -->
<g id="node16" class="node">
<title>Node209</title>
<g id="a_node16"><a xlink:href="../../d4/d12/class_flight_task_manual_altitude_smooth_vel.html#a74f584ef9505b2deed2d9488075ddb26" target="_top" xlink:title="Call once on the event where you switch to the task. ">
<polygon fill="#ffffff" stroke="#000000" points="544,-117.5 544,-147.5 671,-147.5 671,-117.5 544,-117.5"/>
<text text-anchor="start" x="552" y="-135.5" font-family="Helvetica,sans-Serif" font-size="10.00" fill="#000000">FlightTaskManualAltitude</text>
<text text-anchor="middle" x="607.5" y="-124.5" font-family="Helvetica,sans-Serif" font-size="10.00" fill="#000000">SmoothVel::activate</text>
</a>
</g>
</g>
<!-- Node208&#45;&gt;Node209 -->
<g id="edge17" class="edge">
<title>Node208&#45;&gt;Node209</title>
<path fill="none" stroke="#191970" d="M517.5734,-122.0817C526.328,-123.0959 535.2043,-124.1243 543.798,-125.1199"/>
<polygon fill="#191970" stroke="#191970" points="517.7127,-118.5745 507.3763,-120.9003 516.907,-125.528 517.7127,-118.5745"/>
</g>
<!-- Node210 -->
<g id="node17" class="node">
<title>Node210</title>
<g id="a_node17"><a xlink:href="../../da/d83/class_flight_task_manual_position.html#ac11168bf92c606c7332d5d77272d4255" target="_top" xlink:title="Call once on the event where you switch to the task. ">
<polygon fill="#ffffff" stroke="#000000" points="543,-68.5 543,-98.5 672,-98.5 672,-68.5 543,-68.5"/>
<text text-anchor="start" x="551" y="-86.5" font-family="Helvetica,sans-Serif" font-size="10.00" fill="#000000">FlightTaskManualPosition</text>
<text text-anchor="middle" x="607.5" y="-75.5" font-family="Helvetica,sans-Serif" font-size="10.00" fill="#000000">::activate</text>
</a>
</g>
</g>
<!-- Node208&#45;&gt;Node210 -->
<g id="edge18" class="edge">
<title>Node208&#45;&gt;Node210</title>
<path fill="none" stroke="#191970" d="M517.3416,-99.9924C525.8966,-98.4274 534.5713,-96.8406 542.9881,-95.301"/>
<polygon fill="#191970" stroke="#191970" points="516.5832,-96.573 507.3763,-101.8153 517.8429,-103.4587 516.5832,-96.573"/>
</g>
<!-- Node213 -->
<g id="node20" class="node">
<title>Node213</title>
<g id="a_node20"><a xlink:href="../../d2/d7a/class_flight_task_orbit.html#adac43c9356388c33de18a069584b9642" target="_top" xlink:title="Call once on the event where you switch to the task. ">
<polygon fill="#ffffff" stroke="#000000" points="545.5,-30 545.5,-49 669.5,-49 669.5,-30 545.5,-30"/>
<text text-anchor="middle" x="607.5" y="-37" font-family="Helvetica,sans-Serif" font-size="10.00" fill="#000000">FlightTaskOrbit::activate</text>
</a>
</g>
</g>
<!-- Node208&#45;&gt;Node213 -->
<g id="edge21" class="edge">
<title>Node208&#45;&gt;Node213</title>
<path fill="none" stroke="#191970" d="M498.268,-94.1743C501.2696,-92.692 504.2005,-91.133 507,-89.5 524.9905,-79.0062 524.6995,-69.4432 543,-59.5 550.7262,-55.3022 559.4613,-51.8474 567.9512,-49.0606"/>
<polygon fill="#191970" stroke="#191970" points="496.7328,-91.0278 489.1113,-98.3874 499.6588,-97.387 496.7328,-91.0278"/>
</g>
<!-- Node211 -->
<g id="node18" class="node">
<title>Node211</title>
<g id="a_node18"><a xlink:href="../../d7/d80/class_flight_task_manual_position_smooth_vel.html#a6c1da77ea10aa897a9457c6885833419" target="_top" xlink:title="Call once on the event where you switch to the task. ">
<polygon fill="#ffffff" stroke="#000000" points="721,-90.5 721,-120.5 850,-120.5 850,-90.5 721,-90.5"/>
<text text-anchor="start" x="729" y="-108.5" font-family="Helvetica,sans-Serif" font-size="10.00" fill="#000000">FlightTaskManualPosition</text>
<text text-anchor="middle" x="785.5" y="-97.5" font-family="Helvetica,sans-Serif" font-size="10.00" fill="#000000">SmoothVel::activate</text>
</a>
</g>
</g>
<!-- Node210&#45;&gt;Node211 -->
<g id="edge19" class="edge">
<title>Node210&#45;&gt;Node211</title>
<path fill="none" stroke="#191970" d="M682.2175,-92.7347C695.0763,-94.324 708.3436,-95.9638 720.9076,-97.5167"/>
<polygon fill="#191970" stroke="#191970" points="682.3676,-89.2267 672.0138,-91.4736 681.5089,-96.1739 682.3676,-89.2267"/>
</g>
<!-- Node212 -->
<g id="node19" class="node">
<title>Node212</title>
<g id="a_node19"><a xlink:href="../../d9/d48/class_flight_task_sport.html#a835b9539a1573fd5ec3d01bda1601239" target="_top" xlink:title="Call once on the event where you switch to the task. ">
<polygon fill="#ffffff" stroke="#000000" points="722.5,-52 722.5,-71 848.5,-71 848.5,-52 722.5,-52"/>
<text text-anchor="middle" x="785.5" y="-59" font-family="Helvetica,sans-Serif" font-size="10.00" fill="#000000">FlightTaskSport::activate</text>
</a>
</g>
</g>
<!-- Node210&#45;&gt;Node212 -->
<g id="edge20" class="edge">
<title>Node210&#45;&gt;Node212</title>
<path fill="none" stroke="#191970" d="M682.1459,-74.2741C695.5363,-72.6191 709.3719,-70.9091 722.3969,-69.2993"/>
<polygon fill="#191970" stroke="#191970" points="681.5089,-70.8261 672.0138,-75.5264 682.3676,-77.7733 681.5089,-70.8261"/>
</g>
</g>
</svg>
        <g id="navigator" transform="translate(0 0)" fill="#404254">
                <rect fill="#f2f5e9" fill-opacity="0.5" stroke="#606060" stroke-width=".5" x="0" y="0" width="60" height="60"/>
                <use id="zoomplus" xlink:href="#zoomPlus" x="17" y="9" onmousedown="handleZoom(evt,'in')"/>
                <use id="zoomminus" xlink:href="#zoomMin" x="42" y="9" onmousedown="handleZoom(evt,'out')"/>
                <use id="reset" xlink:href="#resetDef" x="30" y="36" onmousedown="handleReset()"/>
                <g id="arrowUp" xlink:href="#dirArrow" transform="translate(30 24)" onmousedown="handlePan(0,-1)">
                  <use xlink:href="#rim" fill="#404040">
                        <set attributeName="fill" to="#808080" begin="arrowUp.mouseover" end="arrowUp.mouseout"/>
                  </use>
                  <path fill="none" stroke="white" stroke-width="1.5" d="M0,-3.0v7 M-2.5,-0.5L0,-3.0L2.5,-0.5"/>
                </g>
                <g id="arrowRight" xlink:href="#dirArrow" transform="rotate(90) translate(36 -43)" onmousedown="handlePan(1,0)">
                  <use xlink:href="#rim" fill="#404040">
                        <set attributeName="fill" to="#808080" begin="arrowRight.mouseover" end="arrowRight.mouseout"/>
                  </use>
                  <path fill="none" stroke="white" stroke-width="1.5" d="M0,-3.0v7 M-2.5,-0.5L0,-3.0L2.5,-0.5"/>
                </g>
                <g id="arrowDown" xlink:href="#dirArrow" transform="rotate(180) translate(-30 -48)" onmousedown="handlePan(0,1)">
                  <use xlink:href="#rim" fill="#404040">
                        <set attributeName="fill" to="#808080" begin="arrowDown.mouseover" end="arrowDown.mouseout"/>
                  </use>
                  <path fill="none" stroke="white" stroke-width="1.5" d="M0,-3.0v7 M-2.5,-0.5L0,-3.0L2.5,-0.5"/>
                </g>
                <g id="arrowLeft" xlink:href="#dirArrow" transform="rotate(270) translate(-36 17)" onmousedown="handlePan(-1,0)">
                  <use xlink:href="#rim" fill="#404040">
                        <set attributeName="fill" to="#808080" begin="arrowLeft.mouseover" end="arrowLeft.mouseout"/>
                  </use>
                  <path fill="none" stroke="white" stroke-width="1.5" d="M0,-3.0v7 M-2.5,-0.5L0,-3.0L2.5,-0.5"/>
                </g>
        </g>
        <svg viewBox="0 0 15 15" width="100%" height="30px" preserveAspectRatio="xMaxYMin meet">
         <g id="arrow_out" transform="scale(0.3 0.3)">
          <a xlink:href="class_flight_task_a1b7eb2b27c8c892ccf742241f0059760_icgraph_org.svg" target="_base">
           <rect id="button" ry="5" rx="5" y="6" x="6" height="38" width="38"
                fill="#f2f5e9" fill-opacity="0.5" stroke="#606060" stroke-width="1.0"/>
           <path id="arrow"
             d="M 11.500037,31.436501 C 11.940474,20.09759 22.043105,11.32322 32.158766,21.979434 L 37.068811,17.246167 C 37.068811,17.246167 37.088388,32 37.088388,32 L 22.160133,31.978069 C 22.160133,31.978069 26.997745,27.140456 26.997745,27.140456 C 18.528582,18.264221 13.291696,25.230495 11.500037,31.436501 z"
             style="fill:#404040;"/>
          </a>
         </g>
        </svg>
</svg>
