<?xml version="1.0" encoding="UTF-8" standalone="no"?>
<!DOCTYPE svg PUBLIC "-//W3C//DTD SVG 1.1//EN"
 "http://www.w3.org/Graphics/SVG/1.1/DTD/svg11.dtd">
<!-- Generated by graphviz version 2.38.0 (20140413.2041)
 -->
<!-- Title: FlightTask::getAvoidanceWaypoint Pages: 1 -->
<svg width="1136pt" height="88pt"
 viewBox="0.00 0.00 1136.00 88.00" xmlns="http://www.w3.org/2000/svg" xmlns:xlink="http://www.w3.org/1999/xlink">
<g id="graph0" class="graph" transform="scale(1 1) rotate(0) translate(4 84)">
<title>FlightTask::getAvoidanceWaypoint</title>
<polygon fill="white" stroke="none" points="-4,4 -4,-84 1132,-84 1132,4 -4,4"/>
<!-- Node1 -->
<g id="node1" class="node"><title>Node1</title>
<polygon fill="#bfbfbf" stroke="black" points="0,-30 0,-60 128,-60 128,-30 0,-30"/>
<text text-anchor="start" x="8" y="-48" font-family="Helvetica,sans-Serif" font-size="10.00">FlightTask::getAvoidance</text>
<text text-anchor="middle" x="64" y="-37" font-family="Helvetica,sans-Serif" font-size="10.00">Waypoint</text>
</g>
<!-- Node2 -->
<g id="node2" class="node"><title>Node2</title>
<g id="a_node2"><a xlink:href="../../dc/d0c/class_flight_tasks.html#a1f07acad3a899df3dfa586b2b8e359ae" target="_top" xlink:title="Get task avoidance desired waypoints. ">
<polygon fill="white" stroke="black" points="164,-30 164,-60 297,-60 297,-30 164,-30"/>
<text text-anchor="start" x="172" y="-48" font-family="Helvetica,sans-Serif" font-size="10.00">FlightTasks::getAvoidance</text>
<text text-anchor="middle" x="230.5" y="-37" font-family="Helvetica,sans-Serif" font-size="10.00">Waypoint</text>
</a>
</g>
</g>
<!-- Node1&#45;&gt;Node2 -->
<g id="edge1" class="edge"><title>Node1&#45;&gt;Node2</title>
<path fill="none" stroke="midnightblue" d="M138.377,-45C146.851,-45 155.451,-45 163.813,-45"/>
<polygon fill="midnightblue" stroke="midnightblue" points="138.13,-41.5001 128.13,-45 138.13,-48.5001 138.13,-41.5001"/>
</g>
<!-- Node3 -->
<g id="node3" class="node"><title>Node3</title>
<g id="a_node3"><a xlink:href="../../dc/d0c/class_flight_tasks.html#a480987e23ccc705b407d5ad5b40ac4f6" target="_top" xlink:title="FlightTasks::~FlightTasks">
<polygon fill="white" stroke="black" points="340.5,-60.5 340.5,-79.5 471.5,-79.5 471.5,-60.5 340.5,-60.5"/>
<text text-anchor="middle" x="406" y="-67.5" font-family="Helvetica,sans-Serif" font-size="10.00">FlightTasks::~FlightTasks</text>
</a>
</g>
</g>
<!-- Node2&#45;&gt;Node3 -->
<g id="edge2" class="edge"><title>Node2&#45;&gt;Node3</title>
<path fill="none" stroke="midnightblue" d="M307.19,-55.9064C318.284,-57.5048 329.622,-59.1386 340.464,-60.7009"/>
<polygon fill="midnightblue" stroke="midnightblue" points="307.49,-52.4135 297.093,-54.4514 306.491,-59.3419 307.49,-52.4135"/>
</g>
<!-- Node4 -->
<g id="node4" class="node"><title>Node4</title>
<g id="a_node4"><a xlink:href="../../dd/d4e/class_multicopter_position_control.html#a3e2734c11e2986c712bacfc71dc62db9" target="_top" xlink:title="Fill desired vehicle_trajectory_waypoint: point1: current position, desired velocity point2: current ...">
<polygon fill="white" stroke="black" points="333,-0.5 333,-41.5 479,-41.5 479,-0.5 333,-0.5"/>
<text text-anchor="start" x="341" y="-29.5" font-family="Helvetica,sans-Serif" font-size="10.00">MulticopterPositionControl</text>
<text text-anchor="start" x="341" y="-18.5" font-family="Helvetica,sans-Serif" font-size="10.00">::update_avoidance_waypoint</text>
<text text-anchor="middle" x="406" y="-7.5" font-family="Helvetica,sans-Serif" font-size="10.00">_desired</text>
</a>
</g>
</g>
<!-- Node2&#45;&gt;Node4 -->
<g id="edge3" class="edge"><title>Node2&#45;&gt;Node4</title>
<path fill="none" stroke="midnightblue" d="M307.08,-34.5451C315.664,-33.3578 324.395,-32.1499 332.932,-30.9691"/>
<polygon fill="midnightblue" stroke="midnightblue" points="306.519,-31.0893 297.093,-35.9266 307.478,-38.0233 306.519,-31.0893"/>
</g>
<!-- Node5 -->
<g id="node5" class="node"><title>Node5</title>
<g id="a_node5"><a xlink:href="../../dd/d4e/class_multicopter_position_control.html#a80765880029027fea4cbfbcd8d351e75" target="_top" xlink:title="Main sensor collection task. ">
<polygon fill="white" stroke="black" points="515,-6 515,-36 646,-36 646,-6 515,-6"/>
<text text-anchor="start" x="523" y="-24" font-family="Helvetica,sans-Serif" font-size="10.00">MulticopterPositionControl</text>
<text text-anchor="middle" x="580.5" y="-13" font-family="Helvetica,sans-Serif" font-size="10.00">::task_main</text>
</a>
</g>
</g>
<!-- Node4&#45;&gt;Node5 -->
<g id="edge4" class="edge"><title>Node4&#45;&gt;Node5</title>
<path fill="none" stroke="midnightblue" d="M489.193,-21C497.781,-21 506.423,-21 514.777,-21"/>
<polygon fill="midnightblue" stroke="midnightblue" points="489.156,-17.5001 479.156,-21 489.156,-24.5001 489.156,-17.5001"/>
</g>
<!-- Node6 -->
<g id="node6" class="node"><title>Node6</title>
<g id="a_node6"><a xlink:href="../../dd/d4e/class_multicopter_position_control.html#a13fd2690dfd7020b492665a2112ea79a" target="_top" xlink:title="Shim for calling task_main from task_create. ">
<polygon fill="white" stroke="black" points="682,-6 682,-36 813,-36 813,-6 682,-6"/>
<text text-anchor="start" x="690" y="-24" font-family="Helvetica,sans-Serif" font-size="10.00">MulticopterPositionControl</text>
<text text-anchor="middle" x="747.5" y="-13" font-family="Helvetica,sans-Serif" font-size="10.00">::task_main_trampoline</text>
</a>
</g>
</g>
<!-- Node5&#45;&gt;Node6 -->
<g id="edge5" class="edge"><title>Node5&#45;&gt;Node6</title>
<path fill="none" stroke="midnightblue" d="M656.239,-21C664.821,-21 673.516,-21 681.948,-21"/>
<polygon fill="midnightblue" stroke="midnightblue" points="656.239,-17.5001 646.239,-21 656.239,-24.5001 656.239,-17.5001"/>
</g>
<!-- Node7 -->
<g id="node7" class="node"><title>Node7</title>
<g id="a_node7"><a xlink:href="../../dd/d4e/class_multicopter_position_control.html#a88e3626ffe7511b0d13ea49b15eb5ef9" target="_top" xlink:title="Start task. ">
<polygon fill="white" stroke="black" points="849,-6 849,-36 980,-36 980,-6 849,-6"/>
<text text-anchor="start" x="857" y="-24" font-family="Helvetica,sans-Serif" font-size="10.00">MulticopterPositionControl</text>
<text text-anchor="middle" x="914.5" y="-13" font-family="Helvetica,sans-Serif" font-size="10.00">::start</text>
</a>
</g>
</g>
<!-- Node6&#45;&gt;Node7 -->
<g id="edge6" class="edge"><title>Node6&#45;&gt;Node7</title>
<path fill="none" stroke="midnightblue" d="M823.239,-21C831.821,-21 840.516,-21 848.948,-21"/>
<polygon fill="midnightblue" stroke="midnightblue" points="823.239,-17.5001 813.239,-21 823.239,-24.5001 823.239,-17.5001"/>
</g>
<!-- Node8 -->
<g id="node8" class="node"><title>Node8</title>
<g id="a_node8"><a xlink:href="../../dd/d8c/mc__pos__control__main_8cpp.html#a7884ebd670051753c0536cd46034cca8" target="_top" xlink:title="Multicopter position control app start / stop handling function. ">
<polygon fill="white" stroke="black" points="1016,-11.5 1016,-30.5 1128,-30.5 1128,-11.5 1016,-11.5"/>
<text text-anchor="middle" x="1072" y="-18.5" font-family="Helvetica,sans-Serif" font-size="10.00">mc_pos_control_main</text>
</a>
</g>
</g>
<!-- Node7&#45;&gt;Node8 -->
<g id="edge7" class="edge"><title>Node7&#45;&gt;Node8</title>
<path fill="none" stroke="midnightblue" d="M990.167,-21C998.788,-21 1007.46,-21 1015.76,-21"/>
<polygon fill="midnightblue" stroke="midnightblue" points="990.095,-17.5001 980.095,-21 990.095,-24.5001 990.095,-17.5001"/>
</g>
</g>
</svg>
