<?xml version="1.0" encoding="UTF-8" standalone="no"?>
<!DOCTYPE svg PUBLIC "-//W3C//DTD SVG 1.1//EN"
 "http://www.w3.org/Graphics/SVG/1.1/DTD/svg11.dtd">
<!-- Generated by graphviz version 2.40.1 (20161225.0304)
 -->
<!-- Title: BMM150 Pages: 1 -->
<svg width="164pt" height="391pt"
 viewBox="0.00 0.00 163.50 391.00" xmlns="http://www.w3.org/2000/svg" xmlns:xlink="http://www.w3.org/1999/xlink">
<g id="graph0" class="graph" transform="scale(1 1) rotate(0) translate(4 387)">
<title>BMM150</title>
<polygon fill="#ffffff" stroke="transparent" points="-4,4 -4,-387 159.5,-387 159.5,4 -4,4"/>
<!-- Node0 -->
<g id="node1" class="node">
<title>Node0</title>
<polygon fill="#bfbfbf" stroke="#000000" points="6,-.5 6,-288.5 112,-288.5 112,-.5 6,-.5"/>
<text text-anchor="middle" x="59" y="-276.5" font-family="Helvetica,sans-Serif" font-size="10.00" fill="#000000">BMM150</text>
<polyline fill="none" stroke="#000000" points="6,-269.5 112,-269.5 "/>
<text text-anchor="start" x="14" y="-257.5" font-family="Helvetica,sans-Serif" font-size="10.00" fill="#000000">&#45; _running</text>
<text text-anchor="start" x="14" y="-246.5" font-family="Helvetica,sans-Serif" font-size="10.00" fill="#000000">&#45; _call_interval</text>
<text text-anchor="start" x="14" y="-235.5" font-family="Helvetica,sans-Serif" font-size="10.00" fill="#000000">&#45; _report</text>
<text text-anchor="start" x="14" y="-224.5" font-family="Helvetica,sans-Serif" font-size="10.00" fill="#000000">&#45; _reports</text>
<text text-anchor="start" x="14" y="-213.5" font-family="Helvetica,sans-Serif" font-size="10.00" fill="#000000">&#45; _collect_phase</text>
<text text-anchor="start" x="14" y="-202.5" font-family="Helvetica,sans-Serif" font-size="10.00" fill="#000000">&#45; _scale</text>
<text text-anchor="start" x="14" y="-191.5" font-family="Helvetica,sans-Serif" font-size="10.00" fill="#000000">and 27 more...</text>
<polyline fill="none" stroke="#000000" points="6,-184.5 112,-184.5 "/>
<text text-anchor="start" x="14" y="-172.5" font-family="Helvetica,sans-Serif" font-size="10.00" fill="#000000">+ BMM150()</text>
<text text-anchor="start" x="14" y="-161.5" font-family="Helvetica,sans-Serif" font-size="10.00" fill="#000000">+ ~BMM150()</text>
<text text-anchor="start" x="14" y="-150.5" font-family="Helvetica,sans-Serif" font-size="10.00" fill="#000000">+ init()</text>
<text text-anchor="start" x="14" y="-139.5" font-family="Helvetica,sans-Serif" font-size="10.00" fill="#000000">+ read()</text>
<text text-anchor="start" x="14" y="-128.5" font-family="Helvetica,sans-Serif" font-size="10.00" fill="#000000">+ ioctl()</text>
<text text-anchor="start" x="14" y="-117.5" font-family="Helvetica,sans-Serif" font-size="10.00" fill="#000000">+ stop()</text>
<text text-anchor="start" x="14" y="-106.5" font-family="Helvetica,sans-Serif" font-size="10.00" fill="#000000">+ print_info()</text>
<text text-anchor="start" x="14" y="-95.5" font-family="Helvetica,sans-Serif" font-size="10.00" fill="#000000">+ print_registers()</text>
<text text-anchor="start" x="14" y="-84.5" font-family="Helvetica,sans-Serif" font-size="10.00" fill="#000000"># probe()</text>
<text text-anchor="start" x="14" y="-73.5" font-family="Helvetica,sans-Serif" font-size="10.00" fill="#000000">&#45; init_trim_registers()</text>
<text text-anchor="start" x="14" y="-62.5" font-family="Helvetica,sans-Serif" font-size="10.00" fill="#000000">&#45; start()</text>
<text text-anchor="start" x="14" y="-51.5" font-family="Helvetica,sans-Serif" font-size="10.00" fill="#000000">&#45; measure()</text>
<text text-anchor="start" x="14" y="-40.5" font-family="Helvetica,sans-Serif" font-size="10.00" fill="#000000">&#45; collect()</text>
<text text-anchor="start" x="14" y="-29.5" font-family="Helvetica,sans-Serif" font-size="10.00" fill="#000000">&#45; Run()</text>
<text text-anchor="start" x="14" y="-18.5" font-family="Helvetica,sans-Serif" font-size="10.00" fill="#000000">&#45; get_data()</text>
<text text-anchor="start" x="14" y="-7.5" font-family="Helvetica,sans-Serif" font-size="10.00" fill="#000000">and 12 more...</text>
</g>
<!-- Node1 -->
<g id="node2" class="node">
<title>Node1</title>
<polygon fill="#ffffff" stroke="#bfbfbf" points="0,-325.5 0,-382.5 32,-382.5 32,-325.5 0,-325.5"/>
<text text-anchor="middle" x="16" y="-370.5" font-family="Helvetica,sans-Serif" font-size="10.00" fill="#000000">I2C</text>
<polyline fill="none" stroke="#bfbfbf" points="0,-363.5 32,-363.5 "/>
<text text-anchor="middle" x="16" y="-351.5" font-family="Helvetica,sans-Serif" font-size="10.00" fill="#000000"> </text>
<polyline fill="none" stroke="#bfbfbf" points="0,-344.5 32,-344.5 "/>
<text text-anchor="middle" x="16" y="-332.5" font-family="Helvetica,sans-Serif" font-size="10.00" fill="#000000"> </text>
</g>
<!-- Node1&#45;&gt;Node0 -->
<g id="edge1" class="edge">
<title>Node1&#45;&gt;Node0</title>
<path fill="none" stroke="#191970" d="M23.9061,-315.4806C25.5825,-307.3132 27.4458,-298.235 29.415,-288.6407"/>
<polygon fill="none" stroke="#191970" points="20.4709,-314.8097 21.8888,-325.3092 27.328,-316.2171 20.4709,-314.8097"/>
</g>
<!-- Node2 -->
<g id="node3" class="node">
<title>Node2</title>
<polygon fill="#ffffff" stroke="#bfbfbf" points="50.5,-325.5 50.5,-382.5 155.5,-382.5 155.5,-325.5 50.5,-325.5"/>
<text text-anchor="middle" x="103" y="-370.5" font-family="Helvetica,sans-Serif" font-size="10.00" fill="#000000">ScheduledWorkItem</text>
<polyline fill="none" stroke="#bfbfbf" points="50.5,-363.5 155.5,-363.5 "/>
<text text-anchor="middle" x="103" y="-351.5" font-family="Helvetica,sans-Serif" font-size="10.00" fill="#000000"> </text>
<polyline fill="none" stroke="#bfbfbf" points="50.5,-344.5 155.5,-344.5 "/>
<text text-anchor="middle" x="103" y="-332.5" font-family="Helvetica,sans-Serif" font-size="10.00" fill="#000000"> </text>
</g>
<!-- Node2&#45;&gt;Node0 -->
<g id="edge2" class="edge">
<title>Node2&#45;&gt;Node0</title>
<path fill="none" stroke="#191970" d="M94.91,-315.4806C93.1947,-307.3132 91.288,-298.235 89.273,-288.6407"/>
<polygon fill="none" stroke="#191970" points="91.4935,-316.2421 96.9742,-325.3092 98.344,-314.8033 91.4935,-316.2421"/>
</g>
</g>
</svg>
