<?xml version="1.0" encoding="UTF-8" standalone="no"?>
<!DOCTYPE svg PUBLIC "-//W3C//DTD SVG 1.1//EN"
 "http://www.w3.org/Graphics/SVG/1.1/DTD/svg11.dtd">
<!-- Generated by graphviz version 2.38.0 (20140413.2041)
 -->
<!-- Title: src/modules/uORB/uORBManager.hpp Pages: 1 -->
<!--zoomable 588 -->
<svg id="main" version="1.1" xmlns="http://www.w3.org/2000/svg" xmlns:xlink="http://www.w3.org/1999/xlink" xml:space="preserve" onload="init(evt)">
<style type="text/css"><![CDATA[
.edge:hover path { stroke: red; }
.edge:hover polygon { stroke: red; fill: red; }
]]></style>
<script type="text/javascript"><![CDATA[
var edges = document.getElementsByTagName('g');
if (edges && edges.length) {
  for (var i=0;i<edges.length;i++) {
    if (edges[i].id.substr(0,4)=='edge') {
      edges[i].setAttribute('class','edge');
    }
  }
}
]]></script>
        <defs>
                <circle id="rim" cx="0" cy="0" r="7"/>
                <circle id="rim2" cx="0" cy="0" r="3.5"/>
                <g id="zoomPlus">
                        <use xlink:href="#rim" fill="#404040">
                                <set attributeName="fill" to="#808080" begin="zoomplus.mouseover" end="zoomplus.mouseout"/>
                        </use>
                        <path d="M-4,0h8M0,-4v8" fill="none" stroke="white" stroke-width="1.5" pointer-events="none"/>
                </g>
                <g id="zoomMin">
                        <use xlink:href="#rim" fill="#404040">
                                <set attributeName="fill" to="#808080" begin="zoomminus.mouseover" end="zoomminus.mouseout"/>
                        </use>
                        <path d="M-4,0h8" fill="none" stroke="white" stroke-width="1.5" pointer-events="none"/>
                </g>
                <g id="dirArrow">
                        <path fill="none" stroke="white" stroke-width="1.5" d="M0,-3.0v7 M-2.5,-0.5L0,-3.0L2.5,-0.5"/>
                </g>
               <g id="resetDef">
                       <use xlink:href="#rim2" fill="#404040">
                               <set attributeName="fill" to="#808080" begin="reset.mouseover" end="reset.mouseout"/>
                       </use>
               </g>
        </defs>

<script type="text/javascript">
var viewWidth = 1432;
var viewHeight = 588;
var sectionId = 'dynsection-0';
</script>
<script xlink:href="../../svgpan.js"/>
<svg id="graph" class="graph">
<g id="viewport">
<title>src/modules/uORB/uORBManager.hpp</title>
<polygon fill="white" stroke="none" points="-4,4 -4,-584 1427.5,-584 1427.5,4 -4,4"/>
<!-- Node1 -->
<g id="node1" class="node"><title>Node1</title>
<polygon fill="#bfbfbf" stroke="black" points="1228.5,-560.5 1228.5,-579.5 1414.5,-579.5 1414.5,-560.5 1228.5,-560.5"/>
<text text-anchor="middle" x="1321.5" y="-567.5" font-family="Helvetica,sans-Serif" font-size="10.00">src/modules/uORB/uORBManager.hpp</text>
</g>
<!-- Node2 -->
<g id="node2" class="node"><title>Node2</title>
<g id="a_node2"><a xlink:href="../../d6/d6e/u_o_r_b_common_8hpp.html" target="_top" xlink:title="uORBCommon.hpp">
<polygon fill="white" stroke="black" points="638.5,-448.5 638.5,-467.5 740.5,-467.5 740.5,-448.5 638.5,-448.5"/>
<text text-anchor="middle" x="689.5" y="-455.5" font-family="Helvetica,sans-Serif" font-size="10.00">uORBCommon.hpp</text>
</a>
</g>
</g>
<!-- Node1&#45;&gt;Node2 -->
<g id="edge1" class="edge"><title>Node1&#45;&gt;Node2</title>
<path fill="none" stroke="midnightblue" d="M1272.43,-560.46C1157.76,-540.502 872.567,-490.863 748.6,-469.286"/>
<polygon fill="midnightblue" stroke="midnightblue" points="748.987,-465.801 738.535,-467.535 747.787,-472.698 748.987,-465.801"/>
</g>
<!-- Node10 -->
<g id="node10" class="node"><title>Node10</title>
<polygon fill="white" stroke="#bfbfbf" points="917,-0.5 917,-19.5 966,-19.5 966,-0.5 917,-0.5"/>
<text text-anchor="middle" x="941.5" y="-7.5" font-family="Helvetica,sans-Serif" font-size="10.00">stdint.h</text>
</g>
<!-- Node1&#45;&gt;Node10 -->
<g id="edge66" class="edge"><title>Node1&#45;&gt;Node10</title>
<path fill="none" stroke="midnightblue" d="M1327.62,-560.349C1339.71,-542.377 1365.5,-499.314 1365.5,-459 1365.5,-459 1365.5,-459 1365.5,-121 1365.5,-40.7573 1077.37,-18.0601 976.152,-12.5621"/>
<polygon fill="midnightblue" stroke="midnightblue" points="976.297,-9.06503 966.129,-12.0413 975.934,-16.0556 976.297,-9.06503"/>
</g>
<!-- Node38 -->
<g id="node38" class="node"><title>Node38</title>
<g id="a_node38"><a xlink:href="../../df/df3/u_o_r_b_devices_8hpp.html" target="_top" xlink:title="uORBDevices.hpp">
<polygon fill="white" stroke="black" points="1195.5,-504.5 1195.5,-523.5 1293.5,-523.5 1293.5,-504.5 1195.5,-504.5"/>
<text text-anchor="middle" x="1244.5" y="-511.5" font-family="Helvetica,sans-Serif" font-size="10.00">uORBDevices.hpp</text>
</a>
</g>
</g>
<!-- Node1&#45;&gt;Node38 -->
<g id="edge61" class="edge"><title>Node1&#45;&gt;Node38</title>
<path fill="none" stroke="midnightblue" d="M1309.13,-560.324C1297.34,-552.058 1279.37,-539.453 1265.36,-529.632"/>
<polygon fill="midnightblue" stroke="midnightblue" points="1267.04,-526.531 1256.84,-523.655 1263.02,-532.262 1267.04,-526.531"/>
</g>
<!-- Node39 -->
<g id="node39" class="node"><title>Node39</title>
<polygon fill="white" stroke="#bfbfbf" points="1296,-448.5 1296,-467.5 1337,-467.5 1337,-448.5 1296,-448.5"/>
<text text-anchor="middle" x="1316.5" y="-455.5" font-family="Helvetica,sans-Serif" font-size="10.00">string</text>
</g>
<!-- Node1&#45;&gt;Node39 -->
<g id="edge67" class="edge"><title>Node1&#45;&gt;Node39</title>
<path fill="none" stroke="midnightblue" d="M1321.11,-560.368C1320.3,-542.617 1318.44,-501.666 1317.35,-477.597"/>
<polygon fill="midnightblue" stroke="midnightblue" points="1320.84,-477.422 1316.89,-467.591 1313.85,-477.74 1320.84,-477.422"/>
</g>
<!-- Node41 -->
<g id="node41" class="node"><title>Node41</title>
<polygon fill="white" stroke="#bfbfbf" points="1393.5,-504.5 1393.5,-523.5 1423.5,-523.5 1423.5,-504.5 1393.5,-504.5"/>
<text text-anchor="middle" x="1408.5" y="-511.5" font-family="Helvetica,sans-Serif" font-size="10.00">set</text>
</g>
<!-- Node1&#45;&gt;Node41 -->
<g id="edge68" class="edge"><title>Node1&#45;&gt;Node41</title>
<path fill="none" stroke="midnightblue" d="M1335.48,-560.324C1349.05,-551.9 1369.88,-538.971 1385.82,-529.074"/>
<polygon fill="midnightblue" stroke="midnightblue" points="1387.91,-531.902 1394.56,-523.655 1384.21,-525.954 1387.91,-531.902"/>
</g>
<!-- Node3 -->
<g id="node3" class="node"><title>Node3</title>
<g id="a_node3"><a xlink:href="../../db/de9/device_8h.html" target="_top" xlink:title="drivers/device/device.h">
<polygon fill="white" stroke="black" points="631,-392.5 631,-411.5 748,-411.5 748,-392.5 631,-392.5"/>
<text text-anchor="middle" x="689.5" y="-399.5" font-family="Helvetica,sans-Serif" font-size="10.00">drivers/device/device.h</text>
</a>
</g>
</g>
<!-- Node2&#45;&gt;Node3 -->
<g id="edge2" class="edge"><title>Node2&#45;&gt;Node3</title>
<path fill="none" stroke="midnightblue" d="M689.5,-448.083C689.5,-441.006 689.5,-430.861 689.5,-421.986"/>
<polygon fill="midnightblue" stroke="midnightblue" points="693,-421.751 689.5,-411.751 686,-421.751 693,-421.751"/>
</g>
<!-- Node25 -->
<g id="node25" class="node"><title>Node25</title>
<g id="a_node25"><a xlink:href="../../d8/d61/drv__orb__dev_8h.html" target="_top" xlink:title="uORB published object driver. ">
<polygon fill="white" stroke="black" points="850.5,-168.5 850.5,-187.5 928.5,-187.5 928.5,-168.5 850.5,-168.5"/>
<text text-anchor="middle" x="889.5" y="-175.5" font-family="Helvetica,sans-Serif" font-size="10.00">drv_orb_dev.h</text>
</a>
</g>
</g>
<!-- Node2&#45;&gt;Node25 -->
<g id="edge43" class="edge"><title>Node2&#45;&gt;Node25</title>
<path fill="none" stroke="midnightblue" d="M727.584,-448.462C774.623,-435.404 848.5,-405.573 848.5,-347 848.5,-347 848.5,-347 848.5,-289 848.5,-254.515 866.411,-217.562 878.557,-196.468"/>
<polygon fill="midnightblue" stroke="midnightblue" points="881.665,-198.09 883.799,-187.712 875.659,-194.494 881.665,-198.09"/>
</g>
<!-- Node30 -->
<g id="node30" class="node"><title>Node30</title>
<g id="a_node30"><a xlink:href="../../d6/d40/err_8h.html" target="_top" xlink:title="Simple error/warning functions, heavily inspired by the BSD functions of the same names...">
<polygon fill="white" stroke="black" points="449,-112.5 449,-131.5 530,-131.5 530,-112.5 449,-112.5"/>
<text text-anchor="middle" x="489.5" y="-119.5" font-family="Helvetica,sans-Serif" font-size="10.00">systemlib/err.h</text>
</a>
</g>
</g>
<!-- Node2&#45;&gt;Node30 -->
<g id="edge44" class="edge"><title>Node2&#45;&gt;Node30</title>
<path fill="none" stroke="midnightblue" d="M638.274,-449.297C551.637,-434.811 385.5,-400.11 385.5,-347 385.5,-347 385.5,-347 385.5,-233 385.5,-202.902 385.478,-191.325 404.5,-168 416.586,-153.181 434.869,-142.615 451.386,-135.462"/>
<polygon fill="midnightblue" stroke="midnightblue" points="452.887,-138.631 460.847,-131.639 450.264,-132.141 452.887,-138.631"/>
</g>
<!-- Node33 -->
<g id="node33" class="node"><title>Node33</title>
<g id="a_node33"><a xlink:href="../../db/dd6/u_o_r_b_8h.html" target="_top" xlink:title="API for the uORB lightweight object broker. ">
<polygon fill="white" stroke="black" points="267.5,-168.5 267.5,-187.5 319.5,-187.5 319.5,-168.5 267.5,-168.5"/>
<text text-anchor="middle" x="293.5" y="-175.5" font-family="Helvetica,sans-Serif" font-size="10.00">uORB.h</text>
</a>
</g>
</g>
<!-- Node2&#45;&gt;Node33 -->
<g id="edge49" class="edge"><title>Node2&#45;&gt;Node33</title>
<path fill="none" stroke="midnightblue" d="M638.414,-454.385C560.383,-449.628 415.879,-437.589 371.5,-412 339.689,-393.658 320.5,-383.72 320.5,-347 320.5,-347 320.5,-347 320.5,-289 320.5,-255.861 308.799,-218.682 300.803,-197.144"/>
<polygon fill="midnightblue" stroke="midnightblue" points="304.009,-195.73 297.141,-187.662 297.478,-198.252 304.009,-195.73"/>
</g>
<!-- Node34 -->
<g id="node34" class="node"><title>Node34</title>
<g id="a_node34"><a xlink:href="../../d6/d10/drv__hrt_8h.html" target="_top" xlink:title="High&#45;resolution timer with callouts and timekeeping. ">
<polygon fill="white" stroke="black" points="128,-224.5 128,-243.5 215,-243.5 215,-224.5 128,-224.5"/>
<text text-anchor="middle" x="171.5" y="-231.5" font-family="Helvetica,sans-Serif" font-size="10.00">drivers/drv_hrt.h</text>
</a>
</g>
</g>
<!-- Node2&#45;&gt;Node34 -->
<g id="edge53" class="edge"><title>Node2&#45;&gt;Node34</title>
<path fill="none" stroke="midnightblue" d="M638.35,-455.883C547.42,-453.104 361.974,-443.622 306.5,-412 240.493,-374.375 196.251,-290.154 179.272,-253.092"/>
<polygon fill="midnightblue" stroke="midnightblue" points="182.306,-251.302 175.046,-243.586 175.91,-254.145 182.306,-251.302"/>
</g>
<!-- Node4 -->
<g id="node4" class="node"><title>Node4</title>
<g id="a_node4"><a xlink:href="../../d7/dfb/_device_8hpp.html" target="_top" xlink:title="Definitions for the generic base classes in the device framework. ">
<polygon fill="white" stroke="black" points="687.5,-280.5 687.5,-299.5 753.5,-299.5 753.5,-280.5 687.5,-280.5"/>
<text text-anchor="middle" x="720.5" y="-287.5" font-family="Helvetica,sans-Serif" font-size="10.00">Device.hpp</text>
</a>
</g>
</g>
<!-- Node3&#45;&gt;Node4 -->
<g id="edge3" class="edge"><title>Node3&#45;&gt;Node4</title>
<path fill="none" stroke="midnightblue" d="M691.933,-392.368C696.958,-374.537 708.58,-333.295 715.351,-309.272"/>
<polygon fill="midnightblue" stroke="midnightblue" points="718.735,-310.166 718.079,-299.591 711.997,-308.267 718.735,-310.166"/>
</g>
<!-- Node27 -->
<g id="node27" class="node"><title>Node27</title>
<g id="a_node27"><a xlink:href="../../d3/da5/_c_dev_8hpp.html" target="_top" xlink:title="Definitions for the generic base classes in the device framework. ">
<polygon fill="white" stroke="black" points="629,-336.5 629,-355.5 690,-355.5 690,-336.5 629,-336.5"/>
<text text-anchor="middle" x="659.5" y="-343.5" font-family="Helvetica,sans-Serif" font-size="10.00">CDev.hpp</text>
</a>
</g>
</g>
<!-- Node3&#45;&gt;Node27 -->
<g id="edge37" class="edge"><title>Node3&#45;&gt;Node27</title>
<path fill="none" stroke="midnightblue" d="M684.546,-392.083C680.396,-384.613 674.347,-373.724 669.233,-364.52"/>
<polygon fill="midnightblue" stroke="midnightblue" points="672.278,-362.793 664.362,-355.751 666.159,-366.192 672.278,-362.793"/>
</g>
<!-- Node5 -->
<g id="node5" class="node"><title>Node5</title>
<g id="a_node5"><a xlink:href="../../d4/d35/px4__config_8h.html" target="_top" xlink:title="Configuration flags used in code. ">
<polygon fill="white" stroke="black" points="679.5,-224.5 679.5,-243.5 751.5,-243.5 751.5,-224.5 679.5,-224.5"/>
<text text-anchor="middle" x="715.5" y="-231.5" font-family="Helvetica,sans-Serif" font-size="10.00">px4_config.h</text>
</a>
</g>
</g>
<!-- Node4&#45;&gt;Node5 -->
<g id="edge4" class="edge"><title>Node4&#45;&gt;Node5</title>
<path fill="none" stroke="midnightblue" d="M719.674,-280.083C719.019,-273.006 718.08,-262.861 717.258,-253.986"/>
<polygon fill="midnightblue" stroke="midnightblue" points="720.717,-253.386 716.31,-243.751 713.747,-254.031 720.717,-253.386"/>
</g>
<!-- Node6 -->
<g id="node6" class="node"><title>Node6</title>
<g id="a_node6"><a xlink:href="../../d2/de9/px4__posix_8h.html" target="_top" xlink:title="Includes POSIX&#45;like functions for virtual character devices. ">
<polygon fill="white" stroke="black" points="587,-224.5 587,-243.5 656,-243.5 656,-224.5 587,-224.5"/>
<text text-anchor="middle" x="621.5" y="-231.5" font-family="Helvetica,sans-Serif" font-size="10.00">px4_posix.h</text>
</a>
</g>
</g>
<!-- Node4&#45;&gt;Node6 -->
<g id="edge5" class="edge"><title>Node4&#45;&gt;Node6</title>
<path fill="none" stroke="midnightblue" d="M704.594,-280.324C688.862,-271.743 664.558,-258.486 646.291,-248.522"/>
<polygon fill="midnightblue" stroke="midnightblue" points="647.822,-245.37 637.367,-243.655 644.47,-251.516 647.822,-245.37"/>
</g>
<!-- Node22 -->
<g id="node22" class="node"><title>Node22</title>
<g id="a_node22"><a xlink:href="../../d3/dc5/drv__device_8h.html" target="_top" xlink:title="Generic device / sensor interface. ">
<polygon fill="white" stroke="black" points="1021.5,-224.5 1021.5,-243.5 1125.5,-243.5 1125.5,-224.5 1021.5,-224.5"/>
<text text-anchor="middle" x="1073.5" y="-231.5" font-family="Helvetica,sans-Serif" font-size="10.00">drivers/drv_device.h</text>
</a>
</g>
</g>
<!-- Node4&#45;&gt;Node22 -->
<g id="edge23" class="edge"><title>Node4&#45;&gt;Node22</title>
<path fill="none" stroke="midnightblue" d="M753.709,-283.92C812.557,-274.918 936.001,-256.034 1011.13,-244.54"/>
<polygon fill="midnightblue" stroke="midnightblue" points="1012.05,-247.941 1021.4,-242.969 1010.99,-241.022 1012.05,-247.941"/>
</g>
<!-- Node7 -->
<g id="node7" class="node"><title>Node7</title>
<g id="a_node7"><a xlink:href="../../df/dd0/px4__defines_8h.html" target="_top" xlink:title="Generally used magic defines. ">
<polygon fill="white" stroke="black" points="678,-112.5 678,-131.5 755,-131.5 755,-112.5 678,-112.5"/>
<text text-anchor="middle" x="716.5" y="-119.5" font-family="Helvetica,sans-Serif" font-size="10.00">px4_defines.h</text>
</a>
</g>
</g>
<!-- Node6&#45;&gt;Node7 -->
<g id="edge6" class="edge"><title>Node6&#45;&gt;Node7</title>
<path fill="none" stroke="midnightblue" d="M589.784,-224.42C556.095,-213.734 510.269,-193.709 530.5,-168 534.831,-162.497 614.163,-144.718 667.808,-133.223"/>
<polygon fill="midnightblue" stroke="midnightblue" points="668.784,-136.594 677.833,-131.084 667.323,-129.748 668.784,-136.594"/>
</g>
<!-- Node6&#45;&gt;Node10 -->
<g id="edge16" class="edge"><title>Node6&#45;&gt;Node10</title>
<path fill="none" stroke="midnightblue" d="M656.243,-225.638C705.283,-215.054 790.233,-195.939 802.5,-188 866.689,-146.46 913.963,-65.0058 932.677,-28.929"/>
<polygon fill="midnightblue" stroke="midnightblue" points="935.979,-30.1566 937.373,-19.6538 929.733,-26.9948 935.979,-30.1566"/>
</g>
<!-- Node14 -->
<g id="node14" class="node"><title>Node14</title>
<g id="a_node14"><a xlink:href="../../da/d65/px4__tasks_8h.html" target="_top" xlink:title="px4_tasks.h">
<polygon fill="white" stroke="black" points="413.5,-168.5 413.5,-187.5 483.5,-187.5 483.5,-168.5 413.5,-168.5"/>
<text text-anchor="middle" x="448.5" y="-175.5" font-family="Helvetica,sans-Serif" font-size="10.00">px4_tasks.h</text>
</a>
</g>
</g>
<!-- Node6&#45;&gt;Node14 -->
<g id="edge14" class="edge"><title>Node6&#45;&gt;Node14</title>
<path fill="none" stroke="midnightblue" d="M594.088,-224.444C564.731,-215.28 517.981,-200.688 485.404,-190.519"/>
<polygon fill="midnightblue" stroke="midnightblue" points="486.373,-187.155 475.784,-187.516 484.287,-193.837 486.373,-187.155"/>
</g>
<!-- Node16 -->
<g id="node16" class="node"><title>Node16</title>
<polygon fill="white" stroke="#bfbfbf" points="743,-168.5 743,-187.5 794,-187.5 794,-168.5 743,-168.5"/>
<text text-anchor="middle" x="768.5" y="-175.5" font-family="Helvetica,sans-Serif" font-size="10.00">unistd.h</text>
</g>
<!-- Node6&#45;&gt;Node16 -->
<g id="edge17" class="edge"><title>Node6&#45;&gt;Node16</title>
<path fill="none" stroke="midnightblue" d="M644.793,-224.444C669.307,-215.438 708.096,-201.189 735.7,-191.049"/>
<polygon fill="midnightblue" stroke="midnightblue" points="737.137,-194.25 745.316,-187.516 734.723,-187.679 737.137,-194.25"/>
</g>
<!-- Node17 -->
<g id="node17" class="node"><title>Node17</title>
<polygon fill="white" stroke="#bfbfbf" points="539.5,-168.5 539.5,-187.5 583.5,-187.5 583.5,-168.5 539.5,-168.5"/>
<text text-anchor="middle" x="561.5" y="-175.5" font-family="Helvetica,sans-Serif" font-size="10.00">fcntl.h</text>
</g>
<!-- Node6&#45;&gt;Node17 -->
<g id="edge18" class="edge"><title>Node6&#45;&gt;Node17</title>
<path fill="none" stroke="midnightblue" d="M611.86,-224.324C602.99,-216.341 589.625,-204.313 578.892,-194.653"/>
<polygon fill="midnightblue" stroke="midnightblue" points="581.09,-191.922 571.315,-187.834 576.407,-197.125 581.09,-191.922"/>
</g>
<!-- Node18 -->
<g id="node18" class="node"><title>Node18</title>
<polygon fill="white" stroke="#bfbfbf" points="601.5,-168.5 601.5,-187.5 641.5,-187.5 641.5,-168.5 601.5,-168.5"/>
<text text-anchor="middle" x="621.5" y="-175.5" font-family="Helvetica,sans-Serif" font-size="10.00">poll.h</text>
</g>
<!-- Node6&#45;&gt;Node18 -->
<g id="edge19" class="edge"><title>Node6&#45;&gt;Node18</title>
<path fill="none" stroke="midnightblue" d="M621.5,-224.083C621.5,-217.006 621.5,-206.861 621.5,-197.986"/>
<polygon fill="midnightblue" stroke="midnightblue" points="625,-197.751 621.5,-187.751 618,-197.751 625,-197.751"/>
</g>
<!-- Node19 -->
<g id="node19" class="node"><title>Node19</title>
<polygon fill="white" stroke="#bfbfbf" points="205.5,-112.5 205.5,-131.5 273.5,-131.5 273.5,-112.5 205.5,-112.5"/>
<text text-anchor="middle" x="239.5" y="-119.5" font-family="Helvetica,sans-Serif" font-size="10.00">sys/types.h</text>
</g>
<!-- Node6&#45;&gt;Node19 -->
<g id="edge20" class="edge"><title>Node6&#45;&gt;Node19</title>
<path fill="none" stroke="midnightblue" d="M586.76,-226.832C580.682,-225.83 574.413,-224.845 568.5,-224 499.845,-214.191 311.498,-232.731 258.5,-188 245.183,-176.76 240.918,-156.747 239.686,-141.887"/>
<polygon fill="midnightblue" stroke="midnightblue" points="243.177,-141.593 239.236,-131.758 236.184,-141.904 243.177,-141.593"/>
</g>
<!-- Node20 -->
<g id="node20" class="node"><title>Node20</title>
<g id="a_node20"><a xlink:href="../../d4/d7f/px4__sem_8h.html" target="_top" xlink:title="Synchronization primitive: Semaphore. ">
<polygon fill="white" stroke="black" points="660,-168.5 660,-187.5 725,-187.5 725,-168.5 660,-168.5"/>
<text text-anchor="middle" x="692.5" y="-175.5" font-family="Helvetica,sans-Serif" font-size="10.00">px4_sem.h</text>
</a>
</g>
</g>
<!-- Node6&#45;&gt;Node20 -->
<g id="edge21" class="edge"><title>Node6&#45;&gt;Node20</title>
<path fill="none" stroke="midnightblue" d="M632.907,-224.324C643.609,-216.185 659.841,-203.839 672.663,-194.087"/>
<polygon fill="midnightblue" stroke="midnightblue" points="675.044,-196.673 680.885,-187.834 670.807,-191.102 675.044,-196.673"/>
</g>
<!-- Node8 -->
<g id="node8" class="node"><title>Node8</title>
<g id="a_node8"><a xlink:href="../../d7/d53/px4__log_8h.html" target="_top" xlink:title="Platform dependant logging/debug implementation. ">
<polygon fill="white" stroke="black" points="642,-56.5 642,-75.5 701,-75.5 701,-56.5 642,-56.5"/>
<text text-anchor="middle" x="671.5" y="-63.5" font-family="Helvetica,sans-Serif" font-size="10.00">px4_log.h</text>
</a>
</g>
</g>
<!-- Node7&#45;&gt;Node8 -->
<g id="edge7" class="edge"><title>Node7&#45;&gt;Node8</title>
<path fill="none" stroke="midnightblue" d="M704.155,-112.324C696.185,-104.733 686.406,-93.4823 679.413,-84.0898"/>
<polygon fill="midnightblue" stroke="midnightblue" points="682.275,-82.0744 673.713,-75.8339 676.514,-86.0516 682.275,-82.0744"/>
</g>
<!-- Node8&#45;&gt;Node7 -->
<g id="edge13" class="edge"><title>Node8&#45;&gt;Node7</title>
<path fill="none" stroke="midnightblue" d="M683.924,-75.7511C691.863,-83.3265 701.579,-94.5048 708.546,-103.855"/>
<polygon fill="midnightblue" stroke="midnightblue" points="705.669,-105.849 714.235,-112.083 711.427,-101.867 705.669,-105.849"/>
</g>
<!-- Node9 -->
<g id="node9" class="node"><title>Node9</title>
<polygon fill="white" stroke="#bfbfbf" points="179,-0.5 179,-19.5 238,-19.5 238,-0.5 179,-0.5"/>
<text text-anchor="middle" x="208.5" y="-7.5" font-family="Helvetica,sans-Serif" font-size="10.00">inttypes.h</text>
</g>
<!-- Node8&#45;&gt;Node9 -->
<g id="edge8" class="edge"><title>Node8&#45;&gt;Node9</title>
<path fill="none" stroke="midnightblue" d="M641.833,-61.5399C561.487,-52.1691 339.602,-26.2905 248.418,-15.6557"/>
<polygon fill="midnightblue" stroke="midnightblue" points="248.557,-12.1482 238.219,-14.4661 247.746,-19.1011 248.557,-12.1482"/>
</g>
<!-- Node8&#45;&gt;Node10 -->
<g id="edge9" class="edge"><title>Node8&#45;&gt;Node10</title>
<path fill="none" stroke="midnightblue" d="M701.167,-59.0666C751.511,-48.9979 853.403,-28.6194 906.906,-17.9187"/>
<polygon fill="midnightblue" stroke="midnightblue" points="907.813,-21.3068 916.932,-15.9136 906.44,-14.4428 907.813,-21.3068"/>
</g>
<!-- Node11 -->
<g id="node11" class="node"><title>Node11</title>
<polygon fill="white" stroke="#bfbfbf" points="599.5,-0.5 599.5,-19.5 667.5,-19.5 667.5,-0.5 599.5,-0.5"/>
<text text-anchor="middle" x="633.5" y="-7.5" font-family="Helvetica,sans-Serif" font-size="10.00">sys/cdefs.h</text>
</g>
<!-- Node8&#45;&gt;Node11 -->
<g id="edge10" class="edge"><title>Node8&#45;&gt;Node11</title>
<path fill="none" stroke="midnightblue" d="M665.225,-56.083C659.858,-48.4554 651.982,-37.2645 645.421,-27.9408"/>
<polygon fill="midnightblue" stroke="midnightblue" points="648.275,-25.9149 639.658,-19.7511 642.551,-29.9434 648.275,-25.9149"/>
</g>
<!-- Node12 -->
<g id="node12" class="node"><title>Node12</title>
<polygon fill="white" stroke="#bfbfbf" points="685.5,-0.5 685.5,-19.5 731.5,-19.5 731.5,-0.5 685.5,-0.5"/>
<text text-anchor="middle" x="708.5" y="-7.5" font-family="Helvetica,sans-Serif" font-size="10.00">stdio.h</text>
</g>
<!-- Node8&#45;&gt;Node12 -->
<g id="edge11" class="edge"><title>Node8&#45;&gt;Node12</title>
<path fill="none" stroke="midnightblue" d="M677.61,-56.083C682.782,-48.5341 690.346,-37.4948 696.694,-28.2298"/>
<polygon fill="midnightblue" stroke="midnightblue" points="699.739,-29.9787 702.504,-19.7511 693.964,-26.0221 699.739,-29.9787"/>
</g>
<!-- Node13 -->
<g id="node13" class="node"><title>Node13</title>
<polygon fill="white" stroke="#bfbfbf" points="438.5,-0.5 438.5,-19.5 490.5,-19.5 490.5,-0.5 438.5,-0.5"/>
<text text-anchor="middle" x="464.5" y="-7.5" font-family="Helvetica,sans-Serif" font-size="10.00">stdarg.h</text>
</g>
<!-- Node8&#45;&gt;Node13 -->
<g id="edge12" class="edge"><title>Node8&#45;&gt;Node13</title>
<path fill="none" stroke="midnightblue" d="M641.842,-57.2631C604.511,-47.5247 540.438,-30.8099 500.386,-20.3614"/>
<polygon fill="midnightblue" stroke="midnightblue" points="501.065,-16.9217 490.505,-17.784 499.298,-23.695 501.065,-16.9217"/>
</g>
<!-- Node15 -->
<g id="node15" class="node"><title>Node15</title>
<polygon fill="white" stroke="#bfbfbf" points="374.5,-112.5 374.5,-131.5 430.5,-131.5 430.5,-112.5 374.5,-112.5"/>
<text text-anchor="middle" x="402.5" y="-119.5" font-family="Helvetica,sans-Serif" font-size="10.00">stdbool.h</text>
</g>
<!-- Node14&#45;&gt;Node15 -->
<g id="edge15" class="edge"><title>Node14&#45;&gt;Node15</title>
<path fill="none" stroke="midnightblue" d="M440.904,-168.083C434.273,-160.298 424.479,-148.801 416.442,-139.367"/>
<polygon fill="midnightblue" stroke="midnightblue" points="419.104,-137.094 409.955,-131.751 413.775,-141.633 419.104,-137.094"/>
</g>
<!-- Node21 -->
<g id="node21" class="node"><title>Node21</title>
<polygon fill="white" stroke="#bfbfbf" points="587,-112.5 587,-131.5 660,-131.5 660,-112.5 587,-112.5"/>
<text text-anchor="middle" x="623.5" y="-119.5" font-family="Helvetica,sans-Serif" font-size="10.00">semaphore.h</text>
</g>
<!-- Node20&#45;&gt;Node21 -->
<g id="edge22" class="edge"><title>Node20&#45;&gt;Node21</title>
<path fill="none" stroke="midnightblue" d="M681.414,-168.324C671.014,-160.185 655.239,-147.839 642.778,-138.087"/>
<polygon fill="midnightblue" stroke="midnightblue" points="644.82,-135.241 634.788,-131.834 640.506,-140.753 644.82,-135.241"/>
</g>
<!-- Node22&#45;&gt;Node10 -->
<g id="edge24" class="edge"><title>Node22&#45;&gt;Node10</title>
<path fill="none" stroke="midnightblue" d="M1093.41,-224.41C1107.72,-217.04 1125.96,-204.916 1134.5,-188 1146.45,-164.337 1118.11,-117.482 1113.5,-112 1076.26,-67.7245 1014.37,-38.222 975.866,-23.0677"/>
<polygon fill="midnightblue" stroke="midnightblue" points="976.728,-19.6504 966.138,-19.3485 974.228,-26.1889 976.728,-19.6504"/>
</g>
<!-- Node23 -->
<g id="node23" class="node"><title>Node23</title>
<polygon fill="white" stroke="#bfbfbf" points="1042.5,-112.5 1042.5,-131.5 1104.5,-131.5 1104.5,-112.5 1042.5,-112.5"/>
<text text-anchor="middle" x="1073.5" y="-119.5" font-family="Helvetica,sans-Serif" font-size="10.00">sys/ioctl.h</text>
</g>
<!-- Node22&#45;&gt;Node23 -->
<g id="edge25" class="edge"><title>Node22&#45;&gt;Node23</title>
<path fill="none" stroke="midnightblue" d="M1086.56,-224.436C1097.41,-216.471 1112.07,-203.515 1118.5,-188 1126.3,-169.17 1109.91,-150.314 1094.77,-137.798"/>
<polygon fill="midnightblue" stroke="midnightblue" points="1096.7,-134.87 1086.65,-131.537 1092.43,-140.414 1096.7,-134.87"/>
</g>
<!-- Node24 -->
<g id="node24" class="node"><title>Node24</title>
<g id="a_node24"><a xlink:href="../../df/dae/drv__sensor_8h.html" target="_top" xlink:title="Common sensor API and ioctl definitions. ">
<polygon fill="white" stroke="black" points="1037,-168.5 1037,-187.5 1110,-187.5 1110,-168.5 1037,-168.5"/>
<text text-anchor="middle" x="1073.5" y="-175.5" font-family="Helvetica,sans-Serif" font-size="10.00">drv_sensor.h</text>
</a>
</g>
</g>
<!-- Node22&#45;&gt;Node24 -->
<g id="edge26" class="edge"><title>Node22&#45;&gt;Node24</title>
<path fill="none" stroke="midnightblue" d="M1068.33,-224.083C1066.82,-216.927 1066.39,-206.635 1067.04,-197.691"/>
<polygon fill="midnightblue" stroke="midnightblue" points="1070.52,-198.126 1068.37,-187.751 1063.58,-197.2 1070.52,-198.126"/>
</g>
<!-- Node22&#45;&gt;Node25 -->
<g id="edge31" class="edge"><title>Node22&#45;&gt;Node25</title>
<path fill="none" stroke="midnightblue" d="M1044.34,-224.444C1012.99,-215.241 962.969,-200.562 928.303,-190.388"/>
<polygon fill="midnightblue" stroke="midnightblue" points="929.1,-186.974 918.519,-187.516 927.129,-193.691 929.1,-186.974"/>
</g>
<!-- Node26 -->
<g id="node26" class="node"><title>Node26</title>
<polygon fill="white" stroke="#bfbfbf" points="946.5,-168.5 946.5,-187.5 1018.5,-187.5 1018.5,-168.5 946.5,-168.5"/>
<text text-anchor="middle" x="982.5" y="-175.5" font-family="Helvetica,sans-Serif" font-size="10.00">DevIOCTL.h</text>
</g>
<!-- Node22&#45;&gt;Node26 -->
<g id="edge36" class="edge"><title>Node22&#45;&gt;Node26</title>
<path fill="none" stroke="midnightblue" d="M1058.88,-224.324C1044.55,-215.822 1022.49,-202.729 1005.75,-192.797"/>
<polygon fill="midnightblue" stroke="midnightblue" points="1007.47,-189.748 997.084,-187.655 1003.9,-195.768 1007.47,-189.748"/>
</g>
<!-- Node24&#45;&gt;Node7 -->
<g id="edge27" class="edge"><title>Node24&#45;&gt;Node7</title>
<path fill="none" stroke="midnightblue" d="M1036.87,-169.664C1033.71,-169.081 1030.55,-168.518 1027.5,-168 935.222,-152.307 826.939,-137.436 765.555,-129.334"/>
<polygon fill="midnightblue" stroke="midnightblue" points="765.755,-125.83 755.385,-127.997 764.843,-132.771 765.755,-125.83"/>
</g>
<!-- Node24&#45;&gt;Node10 -->
<g id="edge28" class="edge"><title>Node24&#45;&gt;Node10</title>
<path fill="none" stroke="midnightblue" d="M1065.33,-168.211C1057.09,-159.265 1044.12,-144.916 1033.5,-132 1003.75,-95.8362 971.042,-51.6714 953.769,-27.9722"/>
<polygon fill="midnightblue" stroke="midnightblue" points="956.457,-25.7178 947.749,-19.683 950.793,-29.8311 956.457,-25.7178"/>
</g>
<!-- Node24&#45;&gt;Node22 -->
<g id="edge30" class="edge"><title>Node24&#45;&gt;Node22</title>
<path fill="none" stroke="midnightblue" d="M1078.63,-187.751C1080.16,-194.858 1080.6,-205.136 1079.97,-214.101"/>
<polygon fill="midnightblue" stroke="midnightblue" points="1076.49,-213.713 1078.67,-224.083 1083.43,-214.622 1076.49,-213.713"/>
</g>
<!-- Node24&#45;&gt;Node23 -->
<g id="edge29" class="edge"><title>Node24&#45;&gt;Node23</title>
<path fill="none" stroke="midnightblue" d="M1073.5,-168.083C1073.5,-161.006 1073.5,-150.861 1073.5,-141.986"/>
<polygon fill="midnightblue" stroke="midnightblue" points="1077,-141.751 1073.5,-131.751 1070,-141.751 1077,-141.751"/>
</g>
<!-- Node25&#45;&gt;Node7 -->
<g id="edge32" class="edge"><title>Node25&#45;&gt;Node7</title>
<path fill="none" stroke="midnightblue" d="M862.088,-168.444C832.731,-159.28 785.981,-144.688 753.404,-134.519"/>
<polygon fill="midnightblue" stroke="midnightblue" points="754.373,-131.155 743.784,-131.516 752.287,-137.837 754.373,-131.155"/>
</g>
<!-- Node25&#45;&gt;Node10 -->
<g id="edge35" class="edge"><title>Node25&#45;&gt;Node10</title>
<path fill="none" stroke="midnightblue" d="M892.296,-168.075C900.516,-141.832 924.727,-64.5453 935.825,-29.1165"/>
<polygon fill="midnightblue" stroke="midnightblue" points="939.167,-30.1571 938.816,-19.5681 932.487,-28.0646 939.167,-30.1571"/>
</g>
<!-- Node25&#45;&gt;Node19 -->
<g id="edge33" class="edge"><title>Node25&#45;&gt;Node19</title>
<path fill="none" stroke="midnightblue" d="M850.108,-172.728C835.201,-171.164 818.075,-169.428 802.5,-168 609.56,-150.312 379.054,-133.12 283.917,-126.196"/>
<polygon fill="midnightblue" stroke="midnightblue" points="284.024,-122.695 273.797,-125.461 283.517,-129.677 284.024,-122.695"/>
</g>
<!-- Node25&#45;&gt;Node23 -->
<g id="edge34" class="edge"><title>Node25&#45;&gt;Node23</title>
<path fill="none" stroke="midnightblue" d="M918.655,-168.444C950.013,-159.241 1000.03,-144.562 1034.7,-134.388"/>
<polygon fill="midnightblue" stroke="midnightblue" points="1035.87,-137.691 1044.48,-131.516 1033.9,-130.974 1035.87,-137.691"/>
</g>
<!-- Node27&#45;&gt;Node4 -->
<g id="edge38" class="edge"><title>Node27&#45;&gt;Node4</title>
<path fill="none" stroke="midnightblue" d="M669.301,-336.324C678.318,-328.341 691.906,-316.313 702.818,-306.653"/>
<polygon fill="midnightblue" stroke="midnightblue" points="705.353,-309.083 710.521,-299.834 700.713,-303.842 705.353,-309.083"/>
</g>
<!-- Node27&#45;&gt;Node5 -->
<g id="edge39" class="edge"><title>Node27&#45;&gt;Node5</title>
<path fill="none" stroke="midnightblue" d="M660.915,-336.162C663.235,-323.244 668.61,-298.709 678.5,-280 684.101,-269.404 692.445,-258.975 699.792,-250.83"/>
<polygon fill="midnightblue" stroke="midnightblue" points="702.363,-253.204 706.668,-243.523 697.266,-248.407 702.363,-253.204"/>
</g>
<!-- Node27&#45;&gt;Node6 -->
<g id="edge40" class="edge"><title>Node27&#45;&gt;Node6</title>
<path fill="none" stroke="midnightblue" d="M656.518,-336.368C650.358,-318.537 636.111,-277.295 627.812,-253.272"/>
<polygon fill="midnightblue" stroke="midnightblue" points="631.041,-251.9 624.468,-243.591 624.425,-254.186 631.041,-251.9"/>
</g>
<!-- Node28 -->
<g id="node28" class="node"><title>Node28</title>
<g id="a_node28"><a xlink:href="../../da/d7e/posix_2cdev__platform_8hpp.html" target="_top" xlink:title="posix/cdev_platform.hpp">
<polygon fill="white" stroke="black" points="470,-280.5 470,-299.5 593,-299.5 593,-280.5 470,-280.5"/>
<text text-anchor="middle" x="531.5" y="-287.5" font-family="Helvetica,sans-Serif" font-size="10.00">posix/cdev_platform.hpp</text>
</a>
</g>
</g>
<!-- Node27&#45;&gt;Node28 -->
<g id="edge41" class="edge"><title>Node27&#45;&gt;Node28</title>
<path fill="none" stroke="midnightblue" d="M639.218,-336.444C618.153,-327.557 584.983,-313.563 561.014,-303.451"/>
<polygon fill="midnightblue" stroke="midnightblue" points="562.261,-300.179 551.687,-299.516 559.54,-306.628 562.261,-300.179"/>
</g>
<!-- Node29 -->
<g id="node29" class="node"><title>Node29</title>
<polygon fill="white" stroke="#bfbfbf" points="503.5,-224.5 503.5,-243.5 559.5,-243.5 559.5,-224.5 503.5,-224.5"/>
<text text-anchor="middle" x="531.5" y="-231.5" font-family="Helvetica,sans-Serif" font-size="10.00">cinttypes</text>
</g>
<!-- Node28&#45;&gt;Node29 -->
<g id="edge42" class="edge"><title>Node28&#45;&gt;Node29</title>
<path fill="none" stroke="midnightblue" d="M531.5,-280.083C531.5,-273.006 531.5,-262.861 531.5,-253.986"/>
<polygon fill="midnightblue" stroke="midnightblue" points="535,-253.751 531.5,-243.751 528,-253.751 535,-253.751"/>
</g>
<!-- Node30&#45;&gt;Node8 -->
<g id="edge45" class="edge"><title>Node30&#45;&gt;Node8</title>
<path fill="none" stroke="midnightblue" d="M518.338,-112.444C549.356,-103.241 598.829,-88.5617 633.118,-78.3879"/>
<polygon fill="midnightblue" stroke="midnightblue" points="634.205,-81.7164 642.796,-75.5164 632.214,-75.0055 634.205,-81.7164"/>
</g>
<!-- Node30&#45;&gt;Node13 -->
<g id="edge46" class="edge"><title>Node30&#45;&gt;Node13</title>
<path fill="none" stroke="midnightblue" d="M467.041,-112.382C451.731,-105.184 432.637,-93.2883 423.5,-76 414.137,-58.2839 429.871,-38.983 444.478,-26.0543"/>
<polygon fill="midnightblue" stroke="midnightblue" points="446.834,-28.6478 452.31,-19.5779 442.373,-23.2532 446.834,-28.6478"/>
</g>
<!-- Node31 -->
<g id="node31" class="node"><title>Node31</title>
<polygon fill="white" stroke="#bfbfbf" points="433,-56.5 433,-75.5 480,-75.5 480,-56.5 433,-56.5"/>
<text text-anchor="middle" x="456.5" y="-63.5" font-family="Helvetica,sans-Serif" font-size="10.00">errno.h</text>
</g>
<!-- Node30&#45;&gt;Node31 -->
<g id="edge47" class="edge"><title>Node30&#45;&gt;Node31</title>
<path fill="none" stroke="midnightblue" d="M484.051,-112.083C479.486,-104.613 472.832,-93.7244 467.207,-84.5199"/>
<polygon fill="midnightblue" stroke="midnightblue" points="470.049,-82.4588 461.848,-75.7511 464.076,-86.109 470.049,-82.4588"/>
</g>
<!-- Node32 -->
<g id="node32" class="node"><title>Node32</title>
<polygon fill="white" stroke="#bfbfbf" points="498.5,-56.5 498.5,-75.5 546.5,-75.5 546.5,-56.5 498.5,-56.5"/>
<text text-anchor="middle" x="522.5" y="-63.5" font-family="Helvetica,sans-Serif" font-size="10.00">stdlib.h</text>
</g>
<!-- Node30&#45;&gt;Node32 -->
<g id="edge48" class="edge"><title>Node30&#45;&gt;Node32</title>
<path fill="none" stroke="midnightblue" d="M494.949,-112.083C499.514,-104.613 506.168,-93.7244 511.793,-84.5199"/>
<polygon fill="midnightblue" stroke="midnightblue" points="514.924,-86.109 517.152,-75.7511 508.951,-82.4588 514.924,-86.109"/>
</g>
<!-- Node33&#45;&gt;Node10 -->
<g id="edge51" class="edge"><title>Node33&#45;&gt;Node10</title>
<path fill="none" stroke="midnightblue" d="M299.554,-168.246C316.175,-145.033 365.174,-81.9146 423.5,-56 467.459,-36.4688 797.327,-18.265 906.518,-12.7185"/>
<polygon fill="midnightblue" stroke="midnightblue" points="906.862,-16.2057 916.673,-12.2069 906.51,-9.21454 906.862,-16.2057"/>
</g>
<!-- Node33&#45;&gt;Node15 -->
<g id="edge52" class="edge"><title>Node33&#45;&gt;Node15</title>
<path fill="none" stroke="midnightblue" d="M311.013,-168.324C328.572,-159.625 355.831,-146.12 376.031,-136.113"/>
<polygon fill="midnightblue" stroke="midnightblue" points="377.624,-139.23 385.031,-131.655 374.516,-132.958 377.624,-139.23"/>
</g>
<!-- Node33&#45;&gt;Node19 -->
<g id="edge50" class="edge"><title>Node33&#45;&gt;Node19</title>
<path fill="none" stroke="midnightblue" d="M284.583,-168.083C276.72,-160.22 265.069,-148.569 255.581,-139.081"/>
<polygon fill="midnightblue" stroke="midnightblue" points="257.797,-136.347 248.251,-131.751 252.847,-141.297 257.797,-136.347"/>
</g>
<!-- Node34&#45;&gt;Node9 -->
<g id="edge56" class="edge"><title>Node34&#45;&gt;Node9</title>
<path fill="none" stroke="midnightblue" d="M145.289,-224.414C128.65,-217.445 108.443,-205.809 98.5,-188 94.1669,-180.239 97.6393,-176.847 98.5,-168 100.956,-142.755 97.6821,-134.443 109.5,-112 128.672,-75.5901 165.17,-43.5666 188.093,-25.7904"/>
<polygon fill="midnightblue" stroke="midnightblue" points="190.286,-28.5201 196.149,-19.6956 186.062,-22.9377 190.286,-28.5201"/>
</g>
<!-- Node34&#45;&gt;Node15 -->
<g id="edge55" class="edge"><title>Node34&#45;&gt;Node15</title>
<path fill="none" stroke="midnightblue" d="M215.123,-225.867C247.784,-219.283 292.791,-207.505 328.5,-188 352.051,-175.136 374.537,-153.616 388.413,-138.888"/>
<polygon fill="midnightblue" stroke="midnightblue" points="391.007,-141.237 395.188,-131.502 385.849,-136.505 391.007,-141.237"/>
</g>
<!-- Node34&#45;&gt;Node19 -->
<g id="edge54" class="edge"><title>Node34&#45;&gt;Node19</title>
<path fill="none" stroke="midnightblue" d="M176.836,-224.368C188.008,-206.296 214.045,-164.176 228.801,-140.307"/>
<polygon fill="midnightblue" stroke="midnightblue" points="231.908,-141.938 234.189,-131.591 225.954,-138.257 231.908,-141.938"/>
</g>
<!-- Node35 -->
<g id="node35" class="node"><title>Node35</title>
<g id="a_node35"><a xlink:href="../../d3/d2d/px4__time_8h.html" target="_top" xlink:title="px4_time.h">
<polygon fill="white" stroke="black" points="108,-168.5 108,-187.5 173,-187.5 173,-168.5 108,-168.5"/>
<text text-anchor="middle" x="140.5" y="-175.5" font-family="Helvetica,sans-Serif" font-size="10.00">px4_time.h</text>
</a>
</g>
</g>
<!-- Node34&#45;&gt;Node35 -->
<g id="edge57" class="edge"><title>Node34&#45;&gt;Node35</title>
<path fill="none" stroke="midnightblue" d="M166.381,-224.083C162.092,-216.613 155.842,-205.724 150.558,-196.52"/>
<polygon fill="midnightblue" stroke="midnightblue" points="153.538,-194.681 145.524,-187.751 147.467,-198.166 153.538,-194.681"/>
</g>
<!-- Node37 -->
<g id="node37" class="node"><title>Node37</title>
<polygon fill="white" stroke="#bfbfbf" points="0,-168.5 0,-187.5 51,-187.5 51,-168.5 0,-168.5"/>
<text text-anchor="middle" x="25.5" y="-175.5" font-family="Helvetica,sans-Serif" font-size="10.00">queue.h</text>
</g>
<!-- Node34&#45;&gt;Node37 -->
<g id="edge60" class="edge"><title>Node34&#45;&gt;Node37</title>
<path fill="none" stroke="midnightblue" d="M148.366,-224.444C124.018,-215.438 85.4929,-201.189 58.077,-191.049"/>
<polygon fill="midnightblue" stroke="midnightblue" points="59.1191,-187.703 48.5259,-187.516 56.6908,-194.268 59.1191,-187.703"/>
</g>
<!-- Node35&#45;&gt;Node19 -->
<g id="edge58" class="edge"><title>Node35&#45;&gt;Node19</title>
<path fill="none" stroke="midnightblue" d="M156.406,-168.324C172.138,-159.743 196.442,-146.486 214.709,-136.522"/>
<polygon fill="midnightblue" stroke="midnightblue" points="216.53,-139.516 223.633,-131.655 213.178,-133.37 216.53,-139.516"/>
</g>
<!-- Node36 -->
<g id="node36" class="node"><title>Node36</title>
<polygon fill="white" stroke="#bfbfbf" points="118.5,-112.5 118.5,-131.5 162.5,-131.5 162.5,-112.5 118.5,-112.5"/>
<text text-anchor="middle" x="140.5" y="-119.5" font-family="Helvetica,sans-Serif" font-size="10.00">time.h</text>
</g>
<!-- Node35&#45;&gt;Node36 -->
<g id="edge59" class="edge"><title>Node35&#45;&gt;Node36</title>
<path fill="none" stroke="midnightblue" d="M140.5,-168.083C140.5,-161.006 140.5,-150.861 140.5,-141.986"/>
<polygon fill="midnightblue" stroke="midnightblue" points="144,-141.751 140.5,-131.751 137,-141.751 144,-141.751"/>
</g>
<!-- Node38&#45;&gt;Node2 -->
<g id="edge63" class="edge"><title>Node38&#45;&gt;Node2</title>
<path fill="none" stroke="midnightblue" d="M1195.25,-508.208C1093.76,-498.333 861.582,-475.743 750.672,-464.952"/>
<polygon fill="midnightblue" stroke="midnightblue" points="750.939,-461.461 740.647,-463.976 750.261,-468.428 750.939,-461.461"/>
</g>
<!-- Node38&#45;&gt;Node10 -->
<g id="edge62" class="edge"><title>Node38&#45;&gt;Node10</title>
<path fill="none" stroke="midnightblue" d="M1240.45,-504.379C1232.27,-486.114 1214.5,-441.996 1214.5,-403 1214.5,-403 1214.5,-403 1214.5,-121 1214.5,-70.2267 1049.99,-31.9951 976.379,-17.4298"/>
<polygon fill="midnightblue" stroke="midnightblue" points="976.692,-13.9253 966.208,-15.4539 975.357,-20.7968 976.692,-13.9253"/>
</g>
<!-- Node38&#45;&gt;Node39 -->
<g id="edge64" class="edge"><title>Node38&#45;&gt;Node39</title>
<path fill="none" stroke="midnightblue" d="M1256.07,-504.324C1266.92,-496.185 1283.38,-483.839 1296.38,-474.087"/>
<polygon fill="midnightblue" stroke="midnightblue" points="1298.82,-476.634 1304.72,-467.834 1294.62,-471.034 1298.82,-476.634"/>
</g>
<!-- Node40 -->
<g id="node40" class="node"><title>Node40</title>
<polygon fill="white" stroke="#bfbfbf" points="1243,-448.5 1243,-467.5 1278,-467.5 1278,-448.5 1243,-448.5"/>
<text text-anchor="middle" x="1260.5" y="-455.5" font-family="Helvetica,sans-Serif" font-size="10.00">map</text>
</g>
<!-- Node38&#45;&gt;Node40 -->
<g id="edge65" class="edge"><title>Node38&#45;&gt;Node40</title>
<path fill="none" stroke="midnightblue" d="M1247.14,-504.083C1249.29,-496.849 1252.38,-486.409 1255.05,-477.397"/>
<polygon fill="midnightblue" stroke="midnightblue" points="1258.42,-478.333 1257.91,-467.751 1251.71,-476.345 1258.42,-478.333"/>
</g>
</g>
</svg>
        <g id="navigator" transform="translate(0 0)" fill="#404254">
                <rect fill="#f2f5e9" fill-opacity="0.5" stroke="#606060" stroke-width=".5" x="0" y="0" width="60" height="60"/>
                <use id="zoomplus" xlink:href="#zoomPlus" x="17" y="9" onmousedown="handleZoom(evt,'in')"/>
                <use id="zoomminus" xlink:href="#zoomMin" x="42" y="9" onmousedown="handleZoom(evt,'out')"/>
                <use id="reset" xlink:href="#resetDef" x="30" y="36" onmousedown="handleReset()"/>
                <g id="arrowUp" xlink:href="#dirArrow" transform="translate(30 24)" onmousedown="handlePan(0,-1)">
                  <use xlink:href="#rim" fill="#404040">
                        <set attributeName="fill" to="#808080" begin="arrowUp.mouseover" end="arrowUp.mouseout"/>
                  </use>
                  <path fill="none" stroke="white" stroke-width="1.5" d="M0,-3.0v7 M-2.5,-0.5L0,-3.0L2.5,-0.5"/>
                </g>
                <g id="arrowRight" xlink:href="#dirArrow" transform="rotate(90) translate(36 -43)" onmousedown="handlePan(1,0)">
                  <use xlink:href="#rim" fill="#404040">
                        <set attributeName="fill" to="#808080" begin="arrowRight.mouseover" end="arrowRight.mouseout"/>
                  </use>
                  <path fill="none" stroke="white" stroke-width="1.5" d="M0,-3.0v7 M-2.5,-0.5L0,-3.0L2.5,-0.5"/>
                </g>
                <g id="arrowDown" xlink:href="#dirArrow" transform="rotate(180) translate(-30 -48)" onmousedown="handlePan(0,1)">
                  <use xlink:href="#rim" fill="#404040">
                        <set attributeName="fill" to="#808080" begin="arrowDown.mouseover" end="arrowDown.mouseout"/>
                  </use>
                  <path fill="none" stroke="white" stroke-width="1.5" d="M0,-3.0v7 M-2.5,-0.5L0,-3.0L2.5,-0.5"/>
                </g>
                <g id="arrowLeft" xlink:href="#dirArrow" transform="rotate(270) translate(-36 17)" onmousedown="handlePan(-1,0)">
                  <use xlink:href="#rim" fill="#404040">
                        <set attributeName="fill" to="#808080" begin="arrowLeft.mouseover" end="arrowLeft.mouseout"/>
                  </use>
                  <path fill="none" stroke="white" stroke-width="1.5" d="M0,-3.0v7 M-2.5,-0.5L0,-3.0L2.5,-0.5"/>
                </g>
        </g>
        <svg viewBox="0 0 15 15" width="100%" height="30px" preserveAspectRatio="xMaxYMin meet">
         <g id="arrow_out" transform="scale(0.3 0.3)">
          <a xlink:href="u_o_r_b_manager_8hpp__incl_org.svg" target="_base">
           <rect id="button" ry="5" rx="5" y="6" x="6" height="38" width="38"
                fill="#f2f5e9" fill-opacity="0.5" stroke="#606060" stroke-width="1.0"/>
           <path id="arrow"
             d="M 11.500037,31.436501 C 11.940474,20.09759 22.043105,11.32322 32.158766,21.979434 L 37.068811,17.246167 C 37.068811,17.246167 37.088388,32 37.088388,32 L 22.160133,31.978069 C 22.160133,31.978069 26.997745,27.140456 26.997745,27.140456 C 18.528582,18.264221 13.291696,25.230495 11.500037,31.436501 z"
             style="fill:#404040;"/>
          </a>
         </g>
        </svg>
</svg>
