<?xml version="1.0" encoding="UTF-8" standalone="no"?>
<!DOCTYPE svg PUBLIC "-//W3C//DTD SVG 1.1//EN"
 "http://www.w3.org/Graphics/SVG/1.1/DTD/svg11.dtd">
<!-- Generated by graphviz version 2.38.0 (20140413.2041)
 -->
<!-- Title: i2c_tx_setup Pages: 1 -->
<svg width="310pt" height="104pt"
 viewBox="0.00 0.00 310.00 104.00" xmlns="http://www.w3.org/2000/svg" xmlns:xlink="http://www.w3.org/1999/xlink">
<g id="graph0" class="graph" transform="scale(1 1) rotate(0) translate(4 100)">
<title>i2c_tx_setup</title>
<polygon fill="white" stroke="none" points="-4,4 -4,-100 306,-100 306,4 -4,4"/>
<!-- Node1 -->
<g id="node1" class="node"><title>Node1</title>
<polygon fill="#bfbfbf" stroke="black" points="0,-38.5 0,-57.5 72,-57.5 72,-38.5 0,-38.5"/>
<text text-anchor="middle" x="36" y="-45.5" font-family="Helvetica,sans-Serif" font-size="10.00">i2c_tx_setup</text>
</g>
<!-- Node2 -->
<g id="node2" class="node"><title>Node2</title>
<g id="a_node2"><a xlink:href="../../df/d19/modules_2px4iofirmware_2i2c_8c.html#a6e0c3d6111e056066c95e34dfd9a0114" target="_top" xlink:title="i2c_rx_complete">
<polygon fill="white" stroke="black" points="108,-76.5 108,-95.5 196,-95.5 196,-76.5 108,-76.5"/>
<text text-anchor="middle" x="152" y="-83.5" font-family="Helvetica,sans-Serif" font-size="10.00">i2c_rx_complete</text>
</a>
</g>
</g>
<!-- Node1&#45;&gt;Node2 -->
<g id="edge1" class="edge"><title>Node1&#45;&gt;Node2</title>
<path fill="none" stroke="midnightblue" d="M75.4778,-60.8259C90.7742,-65.9247 108.067,-71.6891 122.242,-76.4141"/>
<polygon fill="midnightblue" stroke="midnightblue" points="76.3607,-57.431 65.767,-57.589 74.147,-64.0717 76.3607,-57.431"/>
</g>
<!-- Node4 -->
<g id="node4" class="node"><title>Node4</title>
<g id="a_node4"><a xlink:href="../../df/d19/modules_2px4iofirmware_2i2c_8c.html#aa5d3f4c859150b81f1e9639a0c92346b" target="_top" xlink:title="i2c_tx_complete">
<polygon fill="white" stroke="black" points="108,-38.5 108,-57.5 196,-57.5 196,-38.5 108,-38.5"/>
<text text-anchor="middle" x="152" y="-45.5" font-family="Helvetica,sans-Serif" font-size="10.00">i2c_tx_complete</text>
</a>
</g>
</g>
<!-- Node1&#45;&gt;Node4 -->
<g id="edge3" class="edge"><title>Node1&#45;&gt;Node4</title>
<path fill="none" stroke="midnightblue" d="M82.1755,-48C90.5972,-48 99.3791,-48 107.741,-48"/>
<polygon fill="midnightblue" stroke="midnightblue" points="82.134,-44.5001 72.134,-48 82.1339,-51.5001 82.134,-44.5001"/>
</g>
<!-- Node5 -->
<g id="node5" class="node"><title>Node5</title>
<g id="a_node5"><a xlink:href="../../d8/d05/px4io_8h.html#a86489e4b72e9a378e39ebc48b6c95ece" target="_top" xlink:title="FMU communications. ">
<polygon fill="white" stroke="black" points="116,-0.5 116,-19.5 188,-19.5 188,-0.5 116,-0.5"/>
<text text-anchor="middle" x="152" y="-7.5" font-family="Helvetica,sans-Serif" font-size="10.00">interface_init</text>
</a>
</g>
</g>
<!-- Node1&#45;&gt;Node5 -->
<g id="edge5" class="edge"><title>Node1&#45;&gt;Node5</title>
<path fill="none" stroke="midnightblue" d="M75.4778,-35.1741C90.7742,-30.0753 108.067,-24.3109 122.242,-19.5859"/>
<polygon fill="midnightblue" stroke="midnightblue" points="74.147,-31.9283 65.767,-38.411 76.3607,-38.569 74.147,-31.9283"/>
</g>
<!-- Node3 -->
<g id="node3" class="node"><title>Node3</title>
<g id="a_node3"><a xlink:href="../../df/d19/modules_2px4iofirmware_2i2c_8c.html#a472799252680873b5cdfba8541bb89ec" target="_top" xlink:title="i2c_interrupt">
<polygon fill="white" stroke="black" points="232,-57.5 232,-76.5 302,-76.5 302,-57.5 232,-57.5"/>
<text text-anchor="middle" x="267" y="-64.5" font-family="Helvetica,sans-Serif" font-size="10.00">i2c_interrupt</text>
</a>
</g>
</g>
<!-- Node2&#45;&gt;Node3 -->
<g id="edge2" class="edge"><title>Node2&#45;&gt;Node3</title>
<path fill="none" stroke="midnightblue" d="M205.906,-77.1043C214.727,-75.6212 223.665,-74.1183 231.856,-72.7411"/>
<polygon fill="midnightblue" stroke="midnightblue" points="205.324,-73.6529 196.043,-78.7627 206.485,-80.556 205.324,-73.6529"/>
</g>
<!-- Node4&#45;&gt;Node3 -->
<g id="edge4" class="edge"><title>Node4&#45;&gt;Node3</title>
<path fill="none" stroke="midnightblue" d="M205.906,-56.8957C214.727,-58.3788 223.665,-59.8817 231.856,-61.2589"/>
<polygon fill="midnightblue" stroke="midnightblue" points="206.485,-53.444 196.043,-55.2373 205.324,-60.3471 206.485,-53.444"/>
</g>
<!-- Node6 -->
<g id="node6" class="node"><title>Node6</title>
<g id="a_node6"><a xlink:href="../../dd/d87/px4io_8c.html#aab5de16adab7a0da95ed57a9aba3c626" target="_top" xlink:title="user_start">
<polygon fill="white" stroke="black" points="237,-0.5 237,-19.5 297,-19.5 297,-0.5 237,-0.5"/>
<text text-anchor="middle" x="267" y="-7.5" font-family="Helvetica,sans-Serif" font-size="10.00">user_start</text>
</a>
</g>
</g>
<!-- Node5&#45;&gt;Node6 -->
<g id="edge6" class="edge"><title>Node5&#45;&gt;Node6</title>
<path fill="none" stroke="midnightblue" d="M198.344,-10C211.364,-10 225.207,-10 236.957,-10"/>
<polygon fill="midnightblue" stroke="midnightblue" points="198.135,-6.5001 188.134,-10 198.134,-13.5001 198.135,-6.5001"/>
</g>
</g>
</svg>
