<?xml version="1.0" encoding="UTF-8" standalone="no"?>
<!DOCTYPE svg PUBLIC "-//W3C//DTD SVG 1.1//EN"
 "http://www.w3.org/Graphics/SVG/1.1/DTD/svg11.dtd">
<!-- Generated by graphviz version 2.40.1 (20161225.0304)
 -->
<!-- Title: BMA180::set_lowpass Pages: 1 -->
<svg width="403pt" height="66pt"
 viewBox="0.00 0.00 403.00 66.00" xmlns="http://www.w3.org/2000/svg" xmlns:xlink="http://www.w3.org/1999/xlink">
<g id="graph0" class="graph" transform="scale(1 1) rotate(0) translate(4 62)">
<title>BMA180::set_lowpass</title>
<polygon fill="#ffffff" stroke="transparent" points="-4,4 -4,-62 399,-62 399,4 -4,4"/>
<!-- Node263 -->
<g id="node1" class="node">
<title>Node263</title>
<polygon fill="#bfbfbf" stroke="#000000" points="0,-19.5 0,-38.5 115,-38.5 115,-19.5 0,-19.5"/>
<text text-anchor="middle" x="57.5" y="-26.5" font-family="Helvetica,sans-Serif" font-size="10.00" fill="#000000">BMA180::set_lowpass</text>
</g>
<!-- Node264 -->
<g id="node2" class="node">
<title>Node264</title>
<g id="a_node2"><a xlink:href="../../de/d59/class_b_m_a180.html#a4295722b5a06f3044b7064bd3c24aff4" target="_top" xlink:title="Modify a register in the BMA180. ">
<polygon fill="#ffffff" stroke="#000000" points="151,-.5 151,-19.5 259,-19.5 259,-.5 151,-.5"/>
<text text-anchor="middle" x="205" y="-7.5" font-family="Helvetica,sans-Serif" font-size="10.00" fill="#000000">BMA180::modify_reg</text>
</a>
</g>
</g>
<!-- Node263&#45;&gt;Node264 -->
<g id="edge1" class="edge">
<title>Node263&#45;&gt;Node264</title>
<path fill="none" stroke="#191970" d="M115.3726,-21.5452C123.6351,-20.4809 132.1768,-19.3806 140.5557,-18.3013"/>
<polygon fill="#191970" stroke="#191970" points="141.1947,-21.748 150.6656,-16.999 140.3004,-14.8054 141.1947,-21.748"/>
</g>
<!-- Node265 -->
<g id="node3" class="node">
<title>Node265</title>
<g id="a_node3"><a xlink:href="../../de/d59/class_b_m_a180.html#a8f040718e1682ddf0a50f7547b0c88f2" target="_top" xlink:title="Read a register from the BMA180. ">
<polygon fill="#ffffff" stroke="#000000" points="296,-38.5 296,-57.5 394,-57.5 394,-38.5 296,-38.5"/>
<text text-anchor="middle" x="345" y="-45.5" font-family="Helvetica,sans-Serif" font-size="10.00" fill="#000000">BMA180::read_reg</text>
</a>
</g>
</g>
<!-- Node263&#45;&gt;Node265 -->
<g id="edge4" class="edge">
<title>Node263&#45;&gt;Node265</title>
<path fill="none" stroke="#191970" d="M115.3341,-32.8221C164.884,-36.0967 235.9459,-40.7929 285.8671,-44.0921"/>
<polygon fill="#191970" stroke="#191970" points="285.6608,-47.586 295.8699,-44.7531 286.1225,-40.6012 285.6608,-47.586"/>
</g>
<!-- Node264&#45;&gt;Node265 -->
<g id="edge2" class="edge">
<title>Node264&#45;&gt;Node265</title>
<path fill="none" stroke="#191970" d="M240.3279,-19.589C258.4006,-24.4944 280.5984,-30.5196 299.8945,-35.7571"/>
<polygon fill="#191970" stroke="#191970" points="299.1157,-39.1723 309.6834,-38.4141 300.9494,-32.4167 299.1157,-39.1723"/>
</g>
<!-- Node266 -->
<g id="node4" class="node">
<title>Node266</title>
<g id="a_node4"><a xlink:href="../../de/d59/class_b_m_a180.html#aa12d0a2808bcc9e99447ed6218d82890" target="_top" xlink:title="Write a register in the BMA180. ">
<polygon fill="#ffffff" stroke="#000000" points="295,-.5 295,-19.5 395,-19.5 395,-.5 295,-.5"/>
<text text-anchor="middle" x="345" y="-7.5" font-family="Helvetica,sans-Serif" font-size="10.00" fill="#000000">BMA180::write_reg</text>
</a>
</g>
</g>
<!-- Node264&#45;&gt;Node266 -->
<g id="edge3" class="edge">
<title>Node264&#45;&gt;Node266</title>
<path fill="none" stroke="#191970" d="M259.1277,-10C267.4426,-10 276.0729,-10 284.515,-10"/>
<polygon fill="#191970" stroke="#191970" points="284.6855,-13.5001 294.6855,-10 284.6854,-6.5001 284.6855,-13.5001"/>
</g>
</g>
</svg>
