<?xml version="1.0" encoding="UTF-8" standalone="no"?>
<!DOCTYPE svg PUBLIC "-//W3C//DTD SVG 1.1//EN"
 "http://www.w3.org/Graphics/SVG/1.1/DTD/svg11.dtd">
<!-- Generated by graphviz version 2.40.1 (20161225.0304)
 -->
<!-- Title: bmp280::IBMP280::get_calibration Pages: 1 -->
<!--zoomable 154 -->
<svg id="main" version="1.1" xmlns="http://www.w3.org/2000/svg" xmlns:xlink="http://www.w3.org/1999/xlink" xml:space="preserve" onload="init(evt)">
<style type="text/css"><![CDATA[
.edge:hover path { stroke: red; }
.edge:hover polygon { stroke: red; fill: red; }
]]></style>
<script type="text/javascript"><![CDATA[
var edges = document.getElementsByTagName('g');
if (edges && edges.length) {
  for (var i=0;i<edges.length;i++) {
    if (edges[i].id.substr(0,4)=='edge') {
      edges[i].setAttribute('class','edge');
    }
  }
}
]]></script>
        <defs>
                <circle id="rim" cx="0" cy="0" r="7"/>
                <circle id="rim2" cx="0" cy="0" r="3.5"/>
                <g id="zoomPlus">
                        <use xlink:href="#rim" fill="#404040">
                                <set attributeName="fill" to="#808080" begin="zoomplus.mouseover" end="zoomplus.mouseout"/>
                        </use>
                        <path d="M-4,0h8M0,-4v8" fill="none" stroke="white" stroke-width="1.5" pointer-events="none"/>
                </g>
                <g id="zoomMin">
                        <use xlink:href="#rim" fill="#404040">
                                <set attributeName="fill" to="#808080" begin="zoomminus.mouseover" end="zoomminus.mouseout"/>
                        </use>
                        <path d="M-4,0h8" fill="none" stroke="white" stroke-width="1.5" pointer-events="none"/>
                </g>
                <g id="dirArrow">
                        <path fill="none" stroke="white" stroke-width="1.5" d="M0,-3.0v7 M-2.5,-0.5L0,-3.0L2.5,-0.5"/>
                </g>
               <g id="resetDef">
                       <use xlink:href="#rim2" fill="#404040">
                               <set attributeName="fill" to="#808080" begin="reset.mouseover" end="reset.mouseout"/>
                       </use>
               </g>
        </defs>

<script type="text/javascript">
var viewWidth = 708;
var viewHeight = 154;
var sectionId = 'dynsection-1';
</script>
<script xlink:href="../../svgpan.js"/>
<svg id="graph" class="graph">
<g id="viewport">
<title>bmp280::IBMP280::get_calibration</title>
<polygon fill="#ffffff" stroke="transparent" points="-4,4 -4,-149.5 704,-149.5 704,4 -4,4"/>
<!-- Node3 -->
<g id="node1" class="node">
<title>Node3</title>
<polygon fill="#bfbfbf" stroke="#000000" points="0,-71 0,-101 117,-101 117,-71 0,-71"/>
<text text-anchor="start" x="8" y="-89" font-family="Helvetica,sans-Serif" font-size="10.00" fill="#000000">bmp280::IBMP280::get</text>
<text text-anchor="middle" x="58.5" y="-78" font-family="Helvetica,sans-Serif" font-size="10.00" fill="#000000">_calibration</text>
</g>
<!-- Node4 -->
<g id="node2" class="node">
<title>Node4</title>
<g id="a_node2"><a xlink:href="../../d1/daf/class_b_m_p280.html#a19cb357451895c41f211837684d90f84" target="_top" xlink:title="BMP280::init">
<polygon fill="#ffffff" stroke="#000000" points="153,-76.5 153,-95.5 226,-95.5 226,-76.5 153,-76.5"/>
<text text-anchor="middle" x="189.5" y="-83.5" font-family="Helvetica,sans-Serif" font-size="10.00" fill="#000000">BMP280::init</text>
</a>
</g>
</g>
<!-- Node3&#45;&gt;Node4 -->
<g id="edge1" class="edge">
<title>Node3&#45;&gt;Node4</title>
<path fill="none" stroke="#191970" d="M127.3727,-86C136.1212,-86 144.7894,-86 152.7505,-86"/>
<polygon fill="#191970" stroke="#191970" points="127.1032,-82.5001 117.1032,-86 127.1031,-89.5001 127.1032,-82.5001"/>
</g>
<!-- Node5 -->
<g id="node3" class="node">
<title>Node5</title>
<g id="a_node3"><a xlink:href="../../db/de6/class_df_bmp280_wrapper.html#afa29b3109398937f91ac9df7fc542e5a" target="_top" xlink:title="Start automatic measurement. ">
<polygon fill="#ffffff" stroke="#000000" points="262,-107.5 262,-126.5 387,-126.5 387,-107.5 262,-107.5"/>
<text text-anchor="middle" x="324.5" y="-114.5" font-family="Helvetica,sans-Serif" font-size="10.00" fill="#000000">DfBmp280Wrapper::start</text>
</a>
</g>
</g>
<!-- Node4&#45;&gt;Node5 -->
<g id="edge2" class="edge">
<title>Node4&#45;&gt;Node5</title>
<path fill="none" stroke="#191970" d="M236.2031,-96.7244C251.31,-100.1934 267.9573,-104.0161 282.6866,-107.3984"/>
<polygon fill="#191970" stroke="#191970" points="236.5626,-93.2159 226.0329,-94.389 234.9959,-100.0384 236.5626,-93.2159"/>
</g>
<!-- Node8 -->
<g id="node6" class="node">
<title>Node8</title>
<g id="a_node6"><a xlink:href="../../dc/d5d/namespacebmp280.html#a46ca323dc841bfbe75928ccef91ad749" target="_top" xlink:title="bmp280::start_bus">
<polygon fill="#ffffff" stroke="#000000" points="275.5,-57.5 275.5,-76.5 373.5,-76.5 373.5,-57.5 275.5,-57.5"/>
<text text-anchor="middle" x="324.5" y="-64.5" font-family="Helvetica,sans-Serif" font-size="10.00" fill="#000000">bmp280::start_bus</text>
</a>
</g>
</g>
<!-- Node4&#45;&gt;Node8 -->
<g id="edge5" class="edge">
<title>Node4&#45;&gt;Node8</title>
<path fill="none" stroke="#191970" d="M236.312,-79.4116C248.8987,-77.6402 262.5477,-75.7192 275.262,-73.9298"/>
<polygon fill="#191970" stroke="#191970" points="235.4475,-75.9987 226.0329,-80.8583 236.4232,-82.9304 235.4475,-75.9987"/>
</g>
<!-- Node6 -->
<g id="node4" class="node">
<title>Node6</title>
<g id="a_node4"><a xlink:href="../../d5/ded/namespacedf__bmp280__wrapper.html#ad9b55e45815d137f66c4629db9b6e4ef" target="_top" xlink:title="Attempt to start driver on all available I2C busses. ">
<polygon fill="#ffffff" stroke="#000000" points="423,-115 423,-145 533,-145 533,-115 423,-115"/>
<text text-anchor="start" x="431" y="-133" font-family="Helvetica,sans-Serif" font-size="10.00" fill="#000000">df_bmp280_wrapper::</text>
<text text-anchor="middle" x="478" y="-122" font-family="Helvetica,sans-Serif" font-size="10.00" fill="#000000">start</text>
</a>
</g>
</g>
<!-- Node5&#45;&gt;Node6 -->
<g id="edge3" class="edge">
<title>Node5&#45;&gt;Node6</title>
<path fill="none" stroke="#191970" d="M397.3781,-123.1721C405.9444,-123.8976 414.5752,-124.6285 422.8422,-125.3287"/>
<polygon fill="#191970" stroke="#191970" points="397.6369,-119.6816 387.3772,-122.3251 397.0462,-126.6566 397.6369,-119.6816"/>
</g>
<!-- Node7 -->
<g id="node5" class="node">
<title>Node7</title>
<g id="a_node5"><a xlink:href="../../d3/d30/df__bmp280__wrapper_8cpp.html#a8dabc96381e6fe19aa059cf51f8963f1" target="_top" xlink:title="df_bmp280_wrapper_main">
<polygon fill="#ffffff" stroke="#000000" points="569,-120.5 569,-139.5 700,-139.5 700,-120.5 569,-120.5"/>
<text text-anchor="middle" x="634.5" y="-127.5" font-family="Helvetica,sans-Serif" font-size="10.00" fill="#000000">df_bmp280_wrapper_main</text>
</a>
</g>
</g>
<!-- Node6&#45;&gt;Node7 -->
<g id="edge4" class="edge">
<title>Node6&#45;&gt;Node7</title>
<path fill="none" stroke="#191970" d="M543.3299,-130C551.7603,-130 560.3965,-130 568.8323,-130"/>
<polygon fill="#191970" stroke="#191970" points="543.1761,-126.5001 533.176,-130 543.176,-133.5001 543.1761,-126.5001"/>
</g>
<!-- Node9 -->
<g id="node7" class="node">
<title>Node9</title>
<g id="a_node7"><a xlink:href="../../df/d89/namespacerm3100.html#a1f0663af1da0c49baa8687320182faa9" target="_top" xlink:title="Starts the driver. ">
<polygon fill="#ffffff" stroke="#000000" points="441,-76.5 441,-95.5 515,-95.5 515,-76.5 441,-76.5"/>
<text text-anchor="middle" x="478" y="-83.5" font-family="Helvetica,sans-Serif" font-size="10.00" fill="#000000">rm3100::start</text>
</a>
</g>
</g>
<!-- Node8&#45;&gt;Node9 -->
<g id="edge6" class="edge">
<title>Node8&#45;&gt;Node9</title>
<path fill="none" stroke="#191970" d="M384.0517,-74.3712C403.1804,-76.7389 423.8115,-79.2926 440.8542,-81.4021"/>
<polygon fill="#191970" stroke="#191970" points="384.2675,-70.8713 373.9133,-73.1163 383.4076,-77.8183 384.2675,-70.8713"/>
</g>
<!-- Node11 -->
<g id="node9" class="node">
<title>Node11</title>
<g id="a_node9"><a xlink:href="../../d9/d1e/namespacelis3mdl.html#a10774d9132d6d1c7dae8c9346e77d6f3" target="_top" xlink:title="Starts the driver. ">
<polygon fill="#ffffff" stroke="#000000" points="441.5,-38.5 441.5,-57.5 514.5,-57.5 514.5,-38.5 441.5,-38.5"/>
<text text-anchor="middle" x="478" y="-45.5" font-family="Helvetica,sans-Serif" font-size="10.00" fill="#000000">lis3mdl::start</text>
</a>
</g>
</g>
<!-- Node8&#45;&gt;Node11 -->
<g id="edge8" class="edge">
<title>Node8&#45;&gt;Node11</title>
<path fill="none" stroke="#191970" d="M383.8684,-59.6515C403.2303,-57.2549 424.15,-54.6655 441.3396,-52.5378"/>
<polygon fill="#191970" stroke="#191970" points="383.4076,-56.1817 373.9133,-60.8837 384.2675,-63.1287 383.4076,-56.1817"/>
</g>
<!-- Node13 -->
<g id="node11" class="node">
<title>Node13</title>
<g id="a_node11"><a xlink:href="../../dc/d5d/namespacebmp280.html#a6aa94234ba9cde402bea81154bc616ba" target="_top" xlink:title="bmp280::start">
<polygon fill="#ffffff" stroke="#000000" points="439.5,-.5 439.5,-19.5 516.5,-19.5 516.5,-.5 439.5,-.5"/>
<text text-anchor="middle" x="478" y="-7.5" font-family="Helvetica,sans-Serif" font-size="10.00" fill="#000000">bmp280::start</text>
</a>
</g>
</g>
<!-- Node8&#45;&gt;Node13 -->
<g id="edge10" class="edge">
<title>Node8&#45;&gt;Node13</title>
<path fill="none" stroke="#191970" d="M358.1092,-53.6935C377.0963,-46.2619 401.3033,-36.9299 423,-29 431.6345,-25.8442 441.0801,-22.5312 449.6691,-19.5714"/>
<polygon fill="#191970" stroke="#191970" points="356.7261,-50.4764 348.697,-57.389 359.2844,-56.9921 356.7261,-50.4764"/>
</g>
<!-- Node10 -->
<g id="node8" class="node">
<title>Node10</title>
<g id="a_node8"><a xlink:href="../../d1/d11/rm3100__main_8cpp.html#a8851abf4a5db1d0259ea78f5bd53f697" target="_top" xlink:title="Driver &#39;main&#39; command. ">
<polygon fill="#ffffff" stroke="#000000" points="597,-76.5 597,-95.5 672,-95.5 672,-76.5 597,-76.5"/>
<text text-anchor="middle" x="634.5" y="-83.5" font-family="Helvetica,sans-Serif" font-size="10.00" fill="#000000">rm3100_main</text>
</a>
</g>
</g>
<!-- Node9&#45;&gt;Node10 -->
<g id="edge7" class="edge">
<title>Node9&#45;&gt;Node10</title>
<path fill="none" stroke="#191970" d="M525.2887,-86C548.2144,-86 575.3674,-86 596.8635,-86"/>
<polygon fill="#191970" stroke="#191970" points="525.0883,-82.5001 515.0883,-86 525.0883,-89.5001 525.0883,-82.5001"/>
</g>
<!-- Node12 -->
<g id="node10" class="node">
<title>Node12</title>
<g id="a_node10"><a xlink:href="../../de/d50/lis3mdl__main_8cpp.html#a5a1a250829c9ac5a02805549f24e87af" target="_top" xlink:title="Driver &#39;main&#39; command. ">
<polygon fill="#ffffff" stroke="#000000" points="597.5,-38.5 597.5,-57.5 671.5,-57.5 671.5,-38.5 597.5,-38.5"/>
<text text-anchor="middle" x="634.5" y="-45.5" font-family="Helvetica,sans-Serif" font-size="10.00" fill="#000000">lis3mdl_main</text>
</a>
</g>
</g>
<!-- Node11&#45;&gt;Node12 -->
<g id="edge9" class="edge">
<title>Node11&#45;&gt;Node12</title>
<path fill="none" stroke="#191970" d="M524.6968,-48C547.9703,-48 575.717,-48 597.4953,-48"/>
<polygon fill="#191970" stroke="#191970" points="524.6923,-44.5001 514.6923,-48 524.6923,-51.5001 524.6923,-44.5001"/>
</g>
<!-- Node14 -->
<g id="node12" class="node">
<title>Node14</title>
<g id="a_node12"><a xlink:href="../../d7/dd6/bmp280__main_8cpp.html#a18609c5745affa47a4a79f461c25ae7e" target="_top" xlink:title="bmp280_main">
<polygon fill="#ffffff" stroke="#000000" points="596,-.5 596,-19.5 673,-19.5 673,-.5 596,-.5"/>
<text text-anchor="middle" x="634.5" y="-7.5" font-family="Helvetica,sans-Serif" font-size="10.00" fill="#000000">bmp280_main</text>
</a>
</g>
</g>
<!-- Node13&#45;&gt;Node14 -->
<g id="edge11" class="edge">
<title>Node13&#45;&gt;Node14</title>
<path fill="none" stroke="#191970" d="M526.9461,-10C549.2016,-10 575.1536,-10 595.9887,-10"/>
<polygon fill="#191970" stroke="#191970" points="526.6854,-6.5001 516.6854,-10 526.6854,-13.5001 526.6854,-6.5001"/>
</g>
</g>
</svg>
        <g id="navigator" transform="translate(0 0)" fill="#404254">
                <rect fill="#f2f5e9" fill-opacity="0.5" stroke="#606060" stroke-width=".5" x="0" y="0" width="60" height="60"/>
                <use id="zoomplus" xlink:href="#zoomPlus" x="17" y="9" onmousedown="handleZoom(evt,'in')"/>
                <use id="zoomminus" xlink:href="#zoomMin" x="42" y="9" onmousedown="handleZoom(evt,'out')"/>
                <use id="reset" xlink:href="#resetDef" x="30" y="36" onmousedown="handleReset()"/>
                <g id="arrowUp" xlink:href="#dirArrow" transform="translate(30 24)" onmousedown="handlePan(0,-1)">
                  <use xlink:href="#rim" fill="#404040">
                        <set attributeName="fill" to="#808080" begin="arrowUp.mouseover" end="arrowUp.mouseout"/>
                  </use>
                  <path fill="none" stroke="white" stroke-width="1.5" d="M0,-3.0v7 M-2.5,-0.5L0,-3.0L2.5,-0.5"/>
                </g>
                <g id="arrowRight" xlink:href="#dirArrow" transform="rotate(90) translate(36 -43)" onmousedown="handlePan(1,0)">
                  <use xlink:href="#rim" fill="#404040">
                        <set attributeName="fill" to="#808080" begin="arrowRight.mouseover" end="arrowRight.mouseout"/>
                  </use>
                  <path fill="none" stroke="white" stroke-width="1.5" d="M0,-3.0v7 M-2.5,-0.5L0,-3.0L2.5,-0.5"/>
                </g>
                <g id="arrowDown" xlink:href="#dirArrow" transform="rotate(180) translate(-30 -48)" onmousedown="handlePan(0,1)">
                  <use xlink:href="#rim" fill="#404040">
                        <set attributeName="fill" to="#808080" begin="arrowDown.mouseover" end="arrowDown.mouseout"/>
                  </use>
                  <path fill="none" stroke="white" stroke-width="1.5" d="M0,-3.0v7 M-2.5,-0.5L0,-3.0L2.5,-0.5"/>
                </g>
                <g id="arrowLeft" xlink:href="#dirArrow" transform="rotate(270) translate(-36 17)" onmousedown="handlePan(-1,0)">
                  <use xlink:href="#rim" fill="#404040">
                        <set attributeName="fill" to="#808080" begin="arrowLeft.mouseover" end="arrowLeft.mouseout"/>
                  </use>
                  <path fill="none" stroke="white" stroke-width="1.5" d="M0,-3.0v7 M-2.5,-0.5L0,-3.0L2.5,-0.5"/>
                </g>
        </g>
        <svg viewBox="0 0 15 15" width="100%" height="30px" preserveAspectRatio="xMaxYMin meet">
         <g id="arrow_out" transform="scale(0.3 0.3)">
          <a xlink:href="classbmp280_1_1_i_b_m_p280_ad35f4ba52fafe9bc0239eed303fed58b_icgraph_org.svg" target="_base">
           <rect id="button" ry="5" rx="5" y="6" x="6" height="38" width="38"
                fill="#f2f5e9" fill-opacity="0.5" stroke="#606060" stroke-width="1.0"/>
           <path id="arrow"
             d="M 11.500037,31.436501 C 11.940474,20.09759 22.043105,11.32322 32.158766,21.979434 L 37.068811,17.246167 C 37.068811,17.246167 37.088388,32 37.088388,32 L 22.160133,31.978069 C 22.160133,31.978069 26.997745,27.140456 26.997745,27.140456 C 18.528582,18.264221 13.291696,25.230495 11.500037,31.436501 z"
             style="fill:#404040;"/>
          </a>
         </g>
        </svg>
</svg>
