<?xml version="1.0" encoding="UTF-8" standalone="no"?>
<!DOCTYPE svg PUBLIC "-//W3C//DTD SVG 1.1//EN"
 "http://www.w3.org/Graphics/SVG/1.1/DTD/svg11.dtd">
<!-- Generated by graphviz version 2.40.1 (20161225.0304)
 -->
<!-- Title: get_distance_to_arc Pages: 1 -->
<svg width="588pt" height="332pt"
 viewBox="0.00 0.00 588.00 332.00" xmlns="http://www.w3.org/2000/svg" xmlns:xlink="http://www.w3.org/1999/xlink">
<g id="graph0" class="graph" transform="scale(1 1) rotate(0) translate(4 328)">
<title>get_distance_to_arc</title>
<polygon fill="#ffffff" stroke="transparent" points="-4,4 -4,-328 584,-328 584,4 -4,4"/>
<!-- Node82 -->
<g id="node1" class="node">
<title>Node82</title>
<polygon fill="#bfbfbf" stroke="#000000" points="0,-206.5 0,-225.5 104,-225.5 104,-206.5 0,-206.5"/>
<text text-anchor="middle" x="52" y="-213.5" font-family="Helvetica,sans-Serif" font-size="10.00" fill="#000000">get_distance_to_arc</text>
</g>
<!-- Node83 -->
<g id="node2" class="node">
<title>Node83</title>
<g id="a_node2"><a xlink:href="../../d0/de4/namespacematrix.html#a2e09123c750ed3a0315a31f3b27a3ed9" target="_top" xlink:title="matrix::cos">
<polygon fill="#ffffff" stroke="#000000" points="295,-190.5 295,-209.5 360,-209.5 360,-190.5 295,-190.5"/>
<text text-anchor="middle" x="327.5" y="-197.5" font-family="Helvetica,sans-Serif" font-size="10.00" fill="#000000">matrix::cos</text>
</a>
</g>
</g>
<!-- Node82&#45;&gt;Node83 -->
<g id="edge1" class="edge">
<title>Node82&#45;&gt;Node83</title>
<path fill="none" stroke="#191970" d="M104.3122,-220.6292C144.3467,-223.2454 200.8516,-224.9367 250,-219 261.9138,-217.5609 274.6386,-214.9202 286.2615,-212.0559"/>
<polygon fill="#191970" stroke="#191970" points="287.3355,-215.3935 296.1437,-209.5058 285.5864,-208.6155 287.3355,-215.3935"/>
</g>
<!-- Node84 -->
<g id="node3" class="node">
<title>Node84</title>
<g id="a_node3"><a xlink:href="../../d0/de4/namespacematrix.html#a761295febb473ca1226309513533e801" target="_top" xlink:title="matrix::sin">
<polygon fill="#ffffff" stroke="#000000" points="409.5,-209.5 409.5,-228.5 471.5,-228.5 471.5,-209.5 409.5,-209.5"/>
<text text-anchor="middle" x="440.5" y="-216.5" font-family="Helvetica,sans-Serif" font-size="10.00" fill="#000000">matrix::sin</text>
</a>
</g>
</g>
<!-- Node82&#45;&gt;Node84 -->
<g id="edge19" class="edge">
<title>Node82&#45;&gt;Node84</title>
<path fill="none" stroke="#191970" d="M87.6844,-225.5086C103.5739,-229.2734 122.5935,-233.1423 140,-235 241.203,-245.8009 267.8382,-246.1805 369,-235 378.9467,-233.9007 389.5324,-231.966 399.425,-229.8132"/>
<polygon fill="#191970" stroke="#191970" points="400.4642,-233.1657 409.4274,-227.5166 398.8977,-226.3432 400.4642,-233.1657"/>
</g>
<!-- Node85 -->
<g id="node4" class="node">
<title>Node85</title>
<g id="a_node4"><a xlink:href="../../d8/da1/integration_8cpp.html#af5ba872dd09316732300733cc164ac1a" target="_top" xlink:title="f">
<polygon fill="#ffffff" stroke="#000000" points="180.5,-304.5 180.5,-323.5 209.5,-323.5 209.5,-304.5 180.5,-304.5"/>
<text text-anchor="middle" x="195" y="-311.5" font-family="Helvetica,sans-Serif" font-size="10.00" fill="#000000">f</text>
</a>
</g>
</g>
<!-- Node82&#45;&gt;Node85 -->
<g id="edge4" class="edge">
<title>Node82&#45;&gt;Node85</title>
<path fill="none" stroke="#191970" d="M61.561,-225.6727C76.9835,-240.8791 108.7901,-270.6357 140,-290 149.6936,-296.0144 161.1572,-301.2747 171.1032,-305.3255"/>
<polygon fill="#191970" stroke="#191970" points="169.8331,-308.5869 180.4215,-308.9564 172.3746,-302.0645 169.8331,-308.5869"/>
</g>
<!-- Node86 -->
<g id="node5" class="node">
<title>Node86</title>
<g id="a_node5"><a xlink:href="../../d7/d09/geo_8cpp.html#a71a3f1dd74077ca88d95a943768c728b" target="_top" xlink:title="Returns the bearing to the next waypoint in radians. ">
<polygon fill="#ffffff" stroke="#000000" points="143,-179 143,-209 247,-209 247,-179 143,-179"/>
<text text-anchor="start" x="151" y="-197" font-family="Helvetica,sans-Serif" font-size="10.00" fill="#000000">get_bearing_to_next</text>
<text text-anchor="middle" x="195" y="-186" font-family="Helvetica,sans-Serif" font-size="10.00" fill="#000000">_waypoint</text>
</a>
</g>
</g>
<!-- Node82&#45;&gt;Node86 -->
<g id="edge6" class="edge">
<title>Node82&#45;&gt;Node86</title>
<path fill="none" stroke="#191970" d="M104.0308,-207.9953C113.3954,-206.5546 123.2423,-205.0396 132.8594,-203.5601"/>
<polygon fill="#191970" stroke="#191970" points="133.4168,-207.0156 142.7683,-202.0356 132.3523,-200.097 133.4168,-207.0156"/>
</g>
<!-- Node88 -->
<g id="node7" class="node">
<title>Node88</title>
<g id="a_node7"><a xlink:href="../../d0/de4/namespacematrix.html#ad36650ba691474397ef7ba79da6d3782" target="_top" xlink:title="Wrap value in range [&#45;π, π) ">
<polygon fill="#ffffff" stroke="#000000" points="286,-152.5 286,-171.5 369,-171.5 369,-152.5 286,-152.5"/>
<text text-anchor="middle" x="327.5" y="-159.5" font-family="Helvetica,sans-Serif" font-size="10.00" fill="#000000">matrix::wrap_pi</text>
</a>
</g>
</g>
<!-- Node82&#45;&gt;Node88 -->
<g id="edge20" class="edge">
<title>Node82&#45;&gt;Node88</title>
<path fill="none" stroke="#191970" d="M65.2058,-206.4518C81.7491,-195.1015 111.408,-176.7266 140,-169 184.5537,-156.96 237.2218,-156.1027 275.3763,-157.738"/>
<polygon fill="#191970" stroke="#191970" points="275.5712,-161.2521 285.7342,-158.2582 275.9223,-154.261 275.5712,-161.2521"/>
</g>
<!-- Node91 -->
<g id="node10" class="node">
<title>Node91</title>
<g id="a_node10"><a xlink:href="../../d7/d09/geo_8cpp.html#aa534a8020615f97fdd342c587211d557" target="_top" xlink:title="Returns the distance to the next waypoint in meters. ">
<polygon fill="#ffffff" stroke="#000000" points="140,-81 140,-111 250,-111 250,-81 140,-81"/>
<text text-anchor="start" x="148" y="-99" font-family="Helvetica,sans-Serif" font-size="10.00" fill="#000000">get_distance_to_next</text>
<text text-anchor="middle" x="195" y="-88" font-family="Helvetica,sans-Serif" font-size="10.00" fill="#000000">_waypoint</text>
</a>
</g>
</g>
<!-- Node82&#45;&gt;Node91 -->
<g id="edge13" class="edge">
<title>Node82&#45;&gt;Node91</title>
<path fill="none" stroke="#191970" d="M61.9759,-206.2672C77.9669,-190.8203 110.5383,-159.986 140,-136 147.8828,-129.5823 156.6841,-122.9571 164.8945,-116.99"/>
<polygon fill="#191970" stroke="#191970" points="167.0916,-119.7213 173.1735,-111.046 163.0091,-114.035 167.0916,-119.7213"/>
</g>
<!-- Node83&#45;&gt;Node84 -->
<g id="edge2" class="edge">
<title>Node83&#45;&gt;Node84</title>
<path fill="none" stroke="#191970" d="M360.1843,-199.3096C374.9073,-201.0454 392.2712,-203.9529 407.0804,-207.1586"/>
<polygon fill="#191970" stroke="#191970" points="406.3301,-210.5773 416.861,-209.4147 407.9036,-203.7564 406.3301,-210.5773"/>
</g>
<!-- Node84&#45;&gt;Node83 -->
<g id="edge3" class="edge">
<title>Node84&#45;&gt;Node83</title>
<path fill="none" stroke="#191970" d="M409.3956,-219.8733C394.3781,-218.1672 376.3379,-215.1751 361.0162,-211.8623"/>
<polygon fill="#191970" stroke="#191970" points="361.4448,-208.3693 350.9137,-209.5295 359.8698,-215.1898 361.4448,-208.3693"/>
</g>
<!-- Node85&#45;&gt;Node84 -->
<g id="edge5" class="edge">
<title>Node85&#45;&gt;Node84</title>
<path fill="none" stroke="#191970" d="M209.8866,-315.0085C241.1426,-316.4924 315.1568,-316.6416 369,-290 393.7389,-277.7592 415.1435,-253.6367 427.9263,-236.9285"/>
<polygon fill="#191970" stroke="#191970" points="430.9979,-238.6599 434.1073,-228.5316 425.3605,-234.5102 430.9979,-238.6599"/>
</g>
<!-- Node86&#45;&gt;Node83 -->
<g id="edge7" class="edge">
<title>Node86&#45;&gt;Node83</title>
<path fill="none" stroke="#191970" d="M247.3675,-196.3714C259.7878,-196.9338 272.8897,-197.5271 284.8192,-198.0673"/>
<polygon fill="#191970" stroke="#191970" points="284.8062,-201.5702 294.9543,-198.5262 285.1229,-194.5774 284.8062,-201.5702"/>
</g>
<!-- Node86&#45;&gt;Node84 -->
<g id="edge9" class="edge">
<title>Node86&#45;&gt;Node84</title>
<path fill="none" stroke="#191970" d="M240.3314,-209.0223C254.761,-213.1073 270.8996,-216.9635 286,-219 324.0926,-224.1373 367.9503,-223.5232 399.1829,-221.9869"/>
<polygon fill="#191970" stroke="#191970" points="399.4695,-225.4766 409.2642,-221.4375 399.0885,-218.4869 399.4695,-225.4766"/>
</g>
<!-- Node87 -->
<g id="node6" class="node">
<title>Node87</title>
<g id="a_node6"><a xlink:href="../../dd/d47/namespacemath.html#a7e34369248d5d1565073dc552dd90d5c" target="_top" xlink:title="math::radians">
<polygon fill="#ffffff" stroke="#000000" points="289.5,-114.5 289.5,-133.5 365.5,-133.5 365.5,-114.5 289.5,-114.5"/>
<text text-anchor="middle" x="327.5" y="-121.5" font-family="Helvetica,sans-Serif" font-size="10.00" fill="#000000">math::radians</text>
</a>
</g>
</g>
<!-- Node86&#45;&gt;Node87 -->
<g id="edge8" class="edge">
<title>Node86&#45;&gt;Node87</title>
<path fill="none" stroke="#191970" d="M220.5856,-178.9243C238.6574,-168.4584 263.5569,-154.4027 286,-143 289.3777,-141.2839 292.9414,-139.546 296.5037,-137.8544"/>
<polygon fill="#191970" stroke="#191970" points="298.2093,-140.9212 305.8014,-133.5313 295.258,-134.5738 298.2093,-140.9212"/>
</g>
<!-- Node86&#45;&gt;Node88 -->
<g id="edge10" class="edge">
<title>Node86&#45;&gt;Node88</title>
<path fill="none" stroke="#191970" d="M247.3675,-181.3528C257.4584,-178.9157 267.9991,-176.37 277.9956,-173.9558"/>
<polygon fill="#191970" stroke="#191970" points="278.8748,-177.3441 287.7737,-171.5943 277.2315,-170.5398 278.8748,-177.3441"/>
</g>
<!-- Node89 -->
<g id="node8" class="node">
<title>Node89</title>
<g id="a_node8"><a xlink:href="../../d0/de4/namespacematrix.html#aa5b19a62b4fa28f9a499ac931ca81c4a" target="_top" xlink:title="Wrap value to stay in range [low, high) ">
<polygon fill="#ffffff" stroke="#000000" points="405,-152.5 405,-171.5 476,-171.5 476,-152.5 405,-152.5"/>
<text text-anchor="middle" x="440.5" y="-159.5" font-family="Helvetica,sans-Serif" font-size="10.00" fill="#000000">matrix::wrap</text>
</a>
</g>
</g>
<!-- Node88&#45;&gt;Node89 -->
<g id="edge11" class="edge">
<title>Node88&#45;&gt;Node89</title>
<path fill="none" stroke="#191970" d="M369.256,-162C377.5696,-162 386.3411,-162 394.7794,-162"/>
<polygon fill="#191970" stroke="#191970" points="394.854,-165.5001 404.854,-162 394.8539,-158.5001 394.854,-165.5001"/>
</g>
<!-- Node90 -->
<g id="node9" class="node">
<title>Node90</title>
<g id="a_node9"><a xlink:href="../../d0/de4/namespacematrix.html#a89504e6c83cabce5358bb65ee75f07fe" target="_top" xlink:title="matrix::floor">
<polygon fill="#ffffff" stroke="#000000" points="512,-152.5 512,-171.5 580,-171.5 580,-152.5 512,-152.5"/>
<text text-anchor="middle" x="546" y="-159.5" font-family="Helvetica,sans-Serif" font-size="10.00" fill="#000000">matrix::floor</text>
</a>
</g>
</g>
<!-- Node89&#45;&gt;Node90 -->
<g id="edge12" class="edge">
<title>Node89&#45;&gt;Node90</title>
<path fill="none" stroke="#191970" d="M476.2175,-162C484.3772,-162 493.146,-162 501.6192,-162"/>
<polygon fill="#191970" stroke="#191970" points="501.7472,-165.5001 511.7472,-162 501.7471,-158.5001 501.7472,-165.5001"/>
</g>
<!-- Node91&#45;&gt;Node83 -->
<g id="edge16" class="edge">
<title>Node91&#45;&gt;Node83</title>
<path fill="none" stroke="#191970" d="M208.2775,-111.0839C225.0033,-129.4096 255.2888,-160.4223 286,-181 288.5509,-182.7092 291.2804,-184.3363 294.076,-185.867"/>
<polygon fill="#191970" stroke="#191970" points="292.5874,-189.0361 303.0928,-190.4103 295.7373,-182.7848 292.5874,-189.0361"/>
</g>
<!-- Node91&#45;&gt;Node84 -->
<g id="edge15" class="edge">
<title>Node91&#45;&gt;Node84</title>
<path fill="none" stroke="#191970" d="M250.1174,-85.1243C286.809,-80.9793 334.4407,-81.8581 369,-105 400.0559,-125.7959 383.9923,-150.087 405,-181 410.0665,-188.4555 416.581,-195.8757 422.6433,-202.1541"/>
<polygon fill="#191970" stroke="#191970" points="420.3802,-204.8397 429.9373,-209.4128 425.3179,-199.878 420.3802,-204.8397"/>
</g>
<!-- Node91&#45;&gt;Node87 -->
<g id="edge14" class="edge">
<title>Node91&#45;&gt;Node87</title>
<path fill="none" stroke="#191970" d="M250.0408,-107.6313C259.7529,-109.6836 269.796,-111.8059 279.3023,-113.8148"/>
<polygon fill="#191970" stroke="#191970" points="278.8582,-117.2982 289.3658,-115.9414 280.3055,-110.4494 278.8582,-117.2982"/>
</g>
<!-- Node92 -->
<g id="node11" class="node">
<title>Node92</title>
<g id="a_node11"><a xlink:href="../../d0/de4/namespacematrix.html#a2dc2eb787a0bdc7634060b2a27a45714" target="_top" xlink:title="matrix::atan2">
<polygon fill="#ffffff" stroke="#000000" points="290.5,-38.5 290.5,-57.5 364.5,-57.5 364.5,-38.5 290.5,-38.5"/>
<text text-anchor="middle" x="327.5" y="-45.5" font-family="Helvetica,sans-Serif" font-size="10.00" fill="#000000">matrix::atan2</text>
</a>
</g>
</g>
<!-- Node91&#45;&gt;Node92 -->
<g id="edge17" class="edge">
<title>Node91&#45;&gt;Node92</title>
<path fill="none" stroke="#191970" d="M236.5603,-80.9442C254.1974,-74.5549 274.5589,-67.1787 291.5381,-61.0277"/>
<polygon fill="#191970" stroke="#191970" points="292.8882,-64.2613 301.0982,-57.5644 290.5039,-57.6798 292.8882,-64.2613"/>
</g>
<!-- Node93 -->
<g id="node12" class="node">
<title>Node93</title>
<g id="a_node12"><a xlink:href="../../d0/de4/namespacematrix.html#a3fd7237277d21ed856d97c311c0e2db7" target="_top" xlink:title="matrix::sqrt">
<polygon fill="#ffffff" stroke="#000000" points="294.5,-.5 294.5,-19.5 360.5,-19.5 360.5,-.5 294.5,-.5"/>
<text text-anchor="middle" x="327.5" y="-7.5" font-family="Helvetica,sans-Serif" font-size="10.00" fill="#000000">matrix::sqrt</text>
</a>
</g>
</g>
<!-- Node91&#45;&gt;Node93 -->
<g id="edge18" class="edge">
<title>Node91&#45;&gt;Node93</title>
<path fill="none" stroke="#191970" d="M213.0525,-80.9745C230.8836,-66.5602 259.2863,-44.7238 286,-29 288.8681,-27.3118 291.9122,-25.6661 294.9973,-24.0944"/>
<polygon fill="#191970" stroke="#191970" points="296.7561,-27.1319 304.2406,-19.633 293.7133,-20.8279 296.7561,-27.1319"/>
</g>
</g>
</svg>
