<?xml version="1.0" encoding="UTF-8" standalone="no"?>
<!DOCTYPE svg PUBLIC "-//W3C//DTD SVG 1.1//EN"
 "http://www.w3.org/Graphics/SVG/1.1/DTD/svg11.dtd">
<!-- Generated by graphviz version 2.40.1 (20161225.0304)
 -->
<!-- Title: VirtualCanIface::receive Pages: 1 -->
<svg width="279pt" height="142pt"
 viewBox="0.00 0.00 279.00 142.00" xmlns="http://www.w3.org/2000/svg" xmlns:xlink="http://www.w3.org/1999/xlink">
<g id="graph0" class="graph" transform="scale(1 1) rotate(0) translate(4 138)">
<title>VirtualCanIface::receive</title>
<polygon fill="#ffffff" stroke="transparent" points="-4,4 -4,-138 275,-138 275,4 -4,4"/>
<!-- Node23 -->
<g id="node1" class="node">
<title>Node23</title>
<polygon fill="#bfbfbf" stroke="#000000" points="0,-57.5 0,-76.5 122,-76.5 122,-57.5 0,-57.5"/>
<text text-anchor="middle" x="61" y="-64.5" font-family="Helvetica,sans-Serif" font-size="10.00" fill="#000000">VirtualCanIface::receive</text>
</g>
<!-- Node24 -->
<g id="node2" class="node">
<title>Node24</title>
<g id="a_node2"><a xlink:href="../../d4/da4/class_queue.html#a225f5d08888ea72a4dfe73f235761e5d" target="_top" xlink:title="Queue::isEmpty">
<polygon fill="#ffffff" stroke="#000000" points="171,-114.5 171,-133.5 258,-133.5 258,-114.5 171,-114.5"/>
<text text-anchor="middle" x="214.5" y="-121.5" font-family="Helvetica,sans-Serif" font-size="10.00" fill="#000000">Queue::isEmpty</text>
</a>
</g>
</g>
<!-- Node23&#45;&gt;Node24 -->
<g id="edge1" class="edge">
<title>Node23&#45;&gt;Node24</title>
<path fill="none" stroke="#191970" d="M84.3988,-76.5379C103.97,-84.426 132.6748,-95.7874 158,-105 163.6073,-107.0398 169.5547,-109.1245 175.4046,-111.1305"/>
<polygon fill="#191970" stroke="#191970" points="174.4861,-114.5146 185.0804,-114.4102 176.7333,-107.8851 174.4861,-114.5146"/>
</g>
<!-- Node25 -->
<g id="node3" class="node">
<title>Node25</title>
<g id="a_node3"><a xlink:href="../../d2/d70/namespace_micro_bench_h_r_t.html#aca2d9f12c0defb51efac182da6a55f12" target="_top" xlink:title="MicroBenchHRT::lock">
<polygon fill="#ffffff" stroke="#000000" points="158,-76.5 158,-95.5 271,-95.5 271,-76.5 158,-76.5"/>
<text text-anchor="middle" x="214.5" y="-83.5" font-family="Helvetica,sans-Serif" font-size="10.00" fill="#000000">MicroBenchHRT::lock</text>
</a>
</g>
</g>
<!-- Node23&#45;&gt;Node25 -->
<g id="edge2" class="edge">
<title>Node23&#45;&gt;Node25</title>
<path fill="none" stroke="#191970" d="M122.1083,-74.5639C130.4297,-75.5939 139.0073,-76.6556 147.427,-77.6978"/>
<polygon fill="#191970" stroke="#191970" points="147.2368,-81.2009 157.5911,-78.9559 148.0968,-74.2539 147.2368,-81.2009"/>
</g>
<!-- Node26 -->
<g id="node4" class="node">
<title>Node26</title>
<g id="a_node4"><a xlink:href="../../d4/da4/class_queue.html#aaa5d5958feddf65b9c66d6276f57d782" target="_top" xlink:title="Accesses the first element. ">
<polygon fill="#ffffff" stroke="#000000" points="178.5,-38.5 178.5,-57.5 250.5,-57.5 250.5,-38.5 178.5,-38.5"/>
<text text-anchor="middle" x="214.5" y="-45.5" font-family="Helvetica,sans-Serif" font-size="10.00" fill="#000000">Queue::peek</text>
</a>
</g>
</g>
<!-- Node23&#45;&gt;Node26 -->
<g id="edge3" class="edge">
<title>Node23&#45;&gt;Node26</title>
<path fill="none" stroke="#191970" d="M122.1083,-59.4361C137.4474,-57.5375 153.6569,-55.5311 168.1435,-53.7379"/>
<polygon fill="#191970" stroke="#191970" points="168.8561,-57.1765 178.3504,-52.4745 167.9962,-50.2295 168.8561,-57.1765"/>
</g>
<!-- Node27 -->
<g id="node5" class="node">
<title>Node27</title>
<g id="a_node5"><a xlink:href="../../d4/da4/class_queue.html#a02ea784625fe33b5793d00c3b02b4878" target="_top" xlink:title="Removes the first element. ">
<polygon fill="#ffffff" stroke="#000000" points="181,-.5 181,-19.5 248,-19.5 248,-.5 181,-.5"/>
<text text-anchor="middle" x="214.5" y="-7.5" font-family="Helvetica,sans-Serif" font-size="10.00" fill="#000000">Queue::pop</text>
</a>
</g>
</g>
<!-- Node23&#45;&gt;Node27 -->
<g id="edge4" class="edge">
<title>Node23&#45;&gt;Node27</title>
<path fill="none" stroke="#191970" d="M84.3988,-57.4621C103.97,-49.574 132.6748,-38.2126 158,-29 163.6073,-26.9602 169.5547,-24.8755 175.4046,-22.8695"/>
<polygon fill="#191970" stroke="#191970" points="176.7333,-26.1149 185.0804,-19.5898 174.4861,-19.4854 176.7333,-26.1149"/>
</g>
</g>
</svg>
