<?xml version="1.0" encoding="UTF-8" standalone="no"?>
<!DOCTYPE svg PUBLIC "-//W3C//DTD SVG 1.1//EN"
 "http://www.w3.org/Graphics/SVG/1.1/DTD/svg11.dtd">
<!-- Generated by graphviz version 2.38.0 (20140413.2041)
 -->
<!-- Title: src/lib/version/version.h Pages: 1 -->
<svg width="289pt" height="140pt"
 viewBox="0.00 0.00 288.50 140.00" xmlns="http://www.w3.org/2000/svg" xmlns:xlink="http://www.w3.org/1999/xlink">
<g id="graph0" class="graph" transform="scale(1 1) rotate(0) translate(4 136)">
<title>src/lib/version/version.h</title>
<polygon fill="white" stroke="none" points="-4,4 -4,-136 284.5,-136 284.5,4 -4,4"/>
<!-- Node1 -->
<g id="node1" class="node"><title>Node1</title>
<polygon fill="#bfbfbf" stroke="black" points="92,-112.5 92,-131.5 212,-131.5 212,-112.5 92,-112.5"/>
<text text-anchor="middle" x="152" y="-119.5" font-family="Helvetica,sans-Serif" font-size="10.00">src/lib/version/version.h</text>
</g>
<!-- Node2 -->
<g id="node2" class="node"><title>Node2</title>
<g id="a_node2"><a xlink:href="../../d4/d35/px4__config_8h.html" target="_top" xlink:title="Configuration flags used in code. ">
<polygon fill="white" stroke="black" points="0,-56.5 0,-75.5 72,-75.5 72,-56.5 0,-56.5"/>
<text text-anchor="middle" x="36" y="-63.5" font-family="Helvetica,sans-Serif" font-size="10.00">px4_config.h</text>
</a>
</g>
</g>
<!-- Node1&#45;&gt;Node2 -->
<g id="edge1" class="edge"><title>Node1&#45;&gt;Node2</title>
<path fill="none" stroke="midnightblue" d="M133.619,-112.444C114.784,-103.675 85.2688,-89.9355 63.6207,-79.8579"/>
<polygon fill="midnightblue" stroke="midnightblue" points="64.8375,-76.5637 54.2946,-75.5164 61.8833,-82.9098 64.8375,-76.5637"/>
</g>
<!-- Node3 -->
<g id="node3" class="node"><title>Node3</title>
<g id="a_node3"><a xlink:href="../../de/d37/px4__macros_8h.html" target="_top" xlink:title="A set of useful macros for enhanced runtime and compile time error detection and warning suppression...">
<polygon fill="white" stroke="black" points="90.5,-56.5 90.5,-75.5 213.5,-75.5 213.5,-56.5 90.5,-56.5"/>
<text text-anchor="middle" x="152" y="-63.5" font-family="Helvetica,sans-Serif" font-size="10.00">systemlib/px4_macros.h</text>
</a>
</g>
</g>
<!-- Node1&#45;&gt;Node3 -->
<g id="edge2" class="edge"><title>Node1&#45;&gt;Node3</title>
<path fill="none" stroke="midnightblue" d="M152,-112.083C152,-105.006 152,-94.8611 152,-85.9865"/>
<polygon fill="midnightblue" stroke="midnightblue" points="155.5,-85.751 152,-75.7511 148.5,-85.7511 155.5,-85.751"/>
</g>
<!-- Node5 -->
<g id="node5" class="node"><title>Node5</title>
<polygon fill="white" stroke="#bfbfbf" points="231.5,-56.5 231.5,-75.5 280.5,-75.5 280.5,-56.5 231.5,-56.5"/>
<text text-anchor="middle" x="256" y="-63.5" font-family="Helvetica,sans-Serif" font-size="10.00">stdint.h</text>
</g>
<!-- Node1&#45;&gt;Node5 -->
<g id="edge4" class="edge"><title>Node1&#45;&gt;Node5</title>
<path fill="none" stroke="midnightblue" d="M168.709,-112.324C185.312,-103.703 211.002,-90.3643 230.22,-80.3855"/>
<polygon fill="midnightblue" stroke="midnightblue" points="232.07,-83.3689 239.332,-75.6545 228.844,-77.1565 232.07,-83.3689"/>
</g>
<!-- Node4 -->
<g id="node4" class="node"><title>Node4</title>
<polygon fill="white" stroke="#bfbfbf" points="126,-0.5 126,-19.5 178,-19.5 178,-0.5 126,-0.5"/>
<text text-anchor="middle" x="152" y="-7.5" font-family="Helvetica,sans-Serif" font-size="10.00">assert.h</text>
</g>
<!-- Node3&#45;&gt;Node4 -->
<g id="edge3" class="edge"><title>Node3&#45;&gt;Node4</title>
<path fill="none" stroke="midnightblue" d="M152,-56.083C152,-49.0059 152,-38.8611 152,-29.9865"/>
<polygon fill="midnightblue" stroke="midnightblue" points="155.5,-29.751 152,-19.7511 148.5,-29.7511 155.5,-29.751"/>
</g>
</g>
</svg>
