<?xml version="1.0" encoding="UTF-8" standalone="no"?>
<!DOCTYPE svg PUBLIC "-//W3C//DTD SVG 1.1//EN"
 "http://www.w3.org/Graphics/SVG/1.1/DTD/svg11.dtd">
<!-- Generated by graphviz version 2.40.1 (20161225.0304)
 -->
<!-- Title: Mavlink::update_radio_status Pages: 1 -->
<svg width="1408pt" height="39pt"
 viewBox="0.00 0.00 1408.00 39.00" xmlns="http://www.w3.org/2000/svg" xmlns:xlink="http://www.w3.org/1999/xlink">
<g id="graph0" class="graph" transform="scale(1 1) rotate(0) translate(4 35)">
<title>Mavlink::update_radio_status</title>
<polygon fill="#ffffff" stroke="transparent" points="-4,4 -4,-35 1404,-35 1404,4 -4,4"/>
<!-- Node2711 -->
<g id="node1" class="node">
<title>Node2711</title>
<polygon fill="#bfbfbf" stroke="#000000" points="0,-.5 0,-30.5 112,-30.5 112,-.5 0,-.5"/>
<text text-anchor="start" x="8" y="-18.5" font-family="Helvetica,sans-Serif" font-size="10.00" fill="#000000">Mavlink::update_radio</text>
<text text-anchor="middle" x="56" y="-7.5" font-family="Helvetica,sans-Serif" font-size="10.00" fill="#000000">_status</text>
</g>
<!-- Node2712 -->
<g id="node2" class="node">
<title>Node2712</title>
<g id="a_node2"><a xlink:href="../../da/d89/class_mavlink_receiver.html#a4d8e84998fa00b9a967e0b5c56375e8b" target="_top" xlink:title="MavlinkReceiver::handle\l_message_radio_status">
<polygon fill="#ffffff" stroke="#000000" points="148,-.5 148,-30.5 272,-30.5 272,-.5 148,-.5"/>
<text text-anchor="start" x="156" y="-18.5" font-family="Helvetica,sans-Serif" font-size="10.00" fill="#000000">MavlinkReceiver::handle</text>
<text text-anchor="middle" x="210" y="-7.5" font-family="Helvetica,sans-Serif" font-size="10.00" fill="#000000">_message_radio_status</text>
</a>
</g>
</g>
<!-- Node2711&#45;&gt;Node2712 -->
<g id="edge1" class="edge">
<title>Node2711&#45;&gt;Node2712</title>
<path fill="none" stroke="#191970" d="M122.2456,-15.5C130.7131,-15.5 139.3576,-15.5 147.7585,-15.5"/>
<polygon fill="#191970" stroke="#191970" points="122.0332,-12.0001 112.0332,-15.5 122.0331,-19.0001 122.0332,-12.0001"/>
</g>
<!-- Node2713 -->
<g id="node3" class="node">
<title>Node2713</title>
<g id="a_node3"><a xlink:href="../../da/d89/class_mavlink_receiver.html#ac939c806679dc4278968b1d3e865cc72" target="_top" xlink:title="MavlinkReceiver::handle\l_message">
<polygon fill="#ffffff" stroke="#000000" points="308,-.5 308,-30.5 432,-30.5 432,-.5 308,-.5"/>
<text text-anchor="start" x="316" y="-18.5" font-family="Helvetica,sans-Serif" font-size="10.00" fill="#000000">MavlinkReceiver::handle</text>
<text text-anchor="middle" x="370" y="-7.5" font-family="Helvetica,sans-Serif" font-size="10.00" fill="#000000">_message</text>
</a>
</g>
</g>
<!-- Node2712&#45;&gt;Node2713 -->
<g id="edge2" class="edge">
<title>Node2712&#45;&gt;Node2713</title>
<path fill="none" stroke="#191970" d="M282.5453,-15.5C290.996,-15.5 299.5587,-15.5 307.8518,-15.5"/>
<polygon fill="#191970" stroke="#191970" points="282.3184,-12.0001 272.3183,-15.5 282.3183,-19.0001 282.3184,-12.0001"/>
</g>
<!-- Node2714 -->
<g id="node4" class="node">
<title>Node2714</title>
<g id="a_node4"><a xlink:href="../../da/d89/class_mavlink_receiver.html#a2a2904ed386bbb6a4ff3528527006a58" target="_top" xlink:title="Receive data from UART/UDP. ">
<polygon fill="#ffffff" stroke="#000000" points="468,-6 468,-25 581,-25 581,-6 468,-6"/>
<text text-anchor="middle" x="524.5" y="-13" font-family="Helvetica,sans-Serif" font-size="10.00" fill="#000000">MavlinkReceiver::Run</text>
</a>
</g>
</g>
<!-- Node2713&#45;&gt;Node2714 -->
<g id="edge3" class="edge">
<title>Node2713&#45;&gt;Node2714</title>
<path fill="none" stroke="#191970" d="M442.6549,-15.5C451.118,-15.5 459.6549,-15.5 467.8575,-15.5"/>
<polygon fill="#191970" stroke="#191970" points="442.3958,-12.0001 432.3957,-15.5 442.3957,-19.0001 442.3958,-12.0001"/>
</g>
<!-- Node2715 -->
<g id="node5" class="node">
<title>Node2715</title>
<g id="a_node5"><a xlink:href="../../da/d89/class_mavlink_receiver.html#a4e6d064186fe746bc3934959a991a908" target="_top" xlink:title="MavlinkReceiver::start\l_helper">
<polygon fill="#ffffff" stroke="#000000" points="617,-.5 617,-30.5 732,-30.5 732,-.5 617,-.5"/>
<text text-anchor="start" x="625" y="-18.5" font-family="Helvetica,sans-Serif" font-size="10.00" fill="#000000">MavlinkReceiver::start</text>
<text text-anchor="middle" x="674.5" y="-7.5" font-family="Helvetica,sans-Serif" font-size="10.00" fill="#000000">_helper</text>
</a>
</g>
</g>
<!-- Node2714&#45;&gt;Node2715 -->
<g id="edge4" class="edge">
<title>Node2714&#45;&gt;Node2715</title>
<path fill="none" stroke="#191970" d="M591.4079,-15.5C599.8497,-15.5 608.4299,-15.5 616.7139,-15.5"/>
<polygon fill="#191970" stroke="#191970" points="591.2086,-12.0001 581.2086,-15.5 591.2085,-19.0001 591.2086,-12.0001"/>
</g>
<!-- Node2716 -->
<g id="node6" class="node">
<title>Node2716</title>
<g id="a_node6"><a xlink:href="../../da/d89/class_mavlink_receiver.html#aae6564d759626eeebeb19a9dfbdcaf6d" target="_top" xlink:title="Start the receiver thread. ">
<polygon fill="#ffffff" stroke="#000000" points="768,-.5 768,-30.5 895,-30.5 895,-.5 768,-.5"/>
<text text-anchor="start" x="776" y="-18.5" font-family="Helvetica,sans-Serif" font-size="10.00" fill="#000000">MavlinkReceiver::receive</text>
<text text-anchor="middle" x="831.5" y="-7.5" font-family="Helvetica,sans-Serif" font-size="10.00" fill="#000000">_start</text>
</a>
</g>
</g>
<!-- Node2715&#45;&gt;Node2716 -->
<g id="edge5" class="edge">
<title>Node2715&#45;&gt;Node2716</title>
<path fill="none" stroke="#191970" d="M742.3019,-15.5C750.782,-15.5 759.4318,-15.5 767.8454,-15.5"/>
<polygon fill="#191970" stroke="#191970" points="742.0695,-12.0001 732.0695,-15.5 742.0695,-19.0001 742.0695,-12.0001"/>
</g>
<!-- Node2717 -->
<g id="node7" class="node">
<title>Node2717</title>
<g id="a_node7"><a xlink:href="../../df/d1f/class_mavlink.html#a2325401a575b272fc1474d502388241f" target="_top" xlink:title="Main mavlink task. ">
<polygon fill="#ffffff" stroke="#000000" points="931,-6 931,-25 1032,-25 1032,-6 931,-6"/>
<text text-anchor="middle" x="981.5" y="-13" font-family="Helvetica,sans-Serif" font-size="10.00" fill="#000000">Mavlink::task_main</text>
</a>
</g>
</g>
<!-- Node2716&#45;&gt;Node2717 -->
<g id="edge6" class="edge">
<title>Node2716&#45;&gt;Node2717</title>
<path fill="none" stroke="#191970" d="M905.2854,-15.5C913.9828,-15.5 922.702,-15.5 930.9749,-15.5"/>
<polygon fill="#191970" stroke="#191970" points="905.1135,-12.0001 895.1135,-15.5 905.1135,-19.0001 905.1135,-12.0001"/>
</g>
<!-- Node2718 -->
<g id="node8" class="node">
<title>Node2718</title>
<g id="a_node8"><a xlink:href="../../df/d1f/class_mavlink.html#aad2c17a259e6cfbfe20113c8da8f6cae" target="_top" xlink:title="Mavlink::start_helper">
<polygon fill="#ffffff" stroke="#000000" points="1068,-6 1068,-25 1175,-25 1175,-6 1068,-6"/>
<text text-anchor="middle" x="1121.5" y="-13" font-family="Helvetica,sans-Serif" font-size="10.00" fill="#000000">Mavlink::start_helper</text>
</a>
</g>
</g>
<!-- Node2717&#45;&gt;Node2718 -->
<g id="edge7" class="edge">
<title>Node2717&#45;&gt;Node2718</title>
<path fill="none" stroke="#191970" d="M1042.2551,-15.5C1050.7299,-15.5 1059.3886,-15.5 1067.7227,-15.5"/>
<polygon fill="#191970" stroke="#191970" points="1042.0432,-12.0001 1032.0432,-15.5 1042.0432,-19.0001 1042.0432,-12.0001"/>
</g>
<!-- Node2719 -->
<g id="node9" class="node">
<title>Node2719</title>
<g id="a_node9"><a xlink:href="../../df/d1f/class_mavlink.html#a3f96c3503833a477332c8584bb8fbc67" target="_top" xlink:title="Start the mavlink task. ">
<polygon fill="#ffffff" stroke="#000000" points="1211,-6 1211,-25 1287,-25 1287,-6 1211,-6"/>
<text text-anchor="middle" x="1249" y="-13" font-family="Helvetica,sans-Serif" font-size="10.00" fill="#000000">Mavlink::start</text>
</a>
</g>
</g>
<!-- Node2718&#45;&gt;Node2719 -->
<g id="edge8" class="edge">
<title>Node2718&#45;&gt;Node2719</title>
<path fill="none" stroke="#191970" d="M1185.3846,-15.5C1194.0906,-15.5 1202.7932,-15.5 1210.843,-15.5"/>
<polygon fill="#191970" stroke="#191970" points="1185.202,-12.0001 1175.2019,-15.5 1185.2019,-19.0001 1185.202,-12.0001"/>
</g>
<!-- Node2720 -->
<g id="node10" class="node">
<title>Node2720</title>
<g id="a_node10"><a xlink:href="../../de/d24/mavlink__main_8cpp.html#ab81e9b009119f143f3b54a1390b92427" target="_top" xlink:title="Mavlink app start / stop handling function. ">
<polygon fill="#ffffff" stroke="#000000" points="1323,-6 1323,-25 1400,-25 1400,-6 1323,-6"/>
<text text-anchor="middle" x="1361.5" y="-13" font-family="Helvetica,sans-Serif" font-size="10.00" fill="#000000">mavlink_main</text>
</a>
</g>
</g>
<!-- Node2719&#45;&gt;Node2720 -->
<g id="edge9" class="edge">
<title>Node2719&#45;&gt;Node2720</title>
<path fill="none" stroke="#191970" d="M1297.2672,-15.5C1305.7573,-15.5 1314.495,-15.5 1322.6854,-15.5"/>
<polygon fill="#191970" stroke="#191970" points="1297.0874,-12.0001 1287.0874,-15.5 1297.0873,-19.0001 1297.0874,-12.0001"/>
</g>
</g>
</svg>
