<?xml version="1.0" encoding="UTF-8" standalone="no"?>
<!DOCTYPE svg PUBLIC "-//W3C//DTD SVG 1.1//EN"
 "http://www.w3.org/Graphics/SVG/1.1/DTD/svg11.dtd">
<!-- Generated by graphviz version 2.38.0 (20140413.2041)
 -->
<!-- Title: Mavlink::task_main Pages: 1 -->
<!--zoomable 194 -->
<svg id="main" version="1.1" xmlns="http://www.w3.org/2000/svg" xmlns:xlink="http://www.w3.org/1999/xlink" xml:space="preserve" onload="init(evt)">
<style type="text/css"><![CDATA[
.edge:hover path { stroke: red; }
.edge:hover polygon { stroke: red; fill: red; }
]]></style>
<script type="text/javascript"><![CDATA[
var edges = document.getElementsByTagName('g');
if (edges && edges.length) {
  for (var i=0;i<edges.length;i++) {
    if (edges[i].id.substr(0,4)=='edge') {
      edges[i].setAttribute('class','edge');
    }
  }
}
]]></script>
        <defs>
                <circle id="rim" cx="0" cy="0" r="7"/>
                <circle id="rim2" cx="0" cy="0" r="3.5"/>
                <g id="zoomPlus">
                        <use xlink:href="#rim" fill="#404040">
                                <set attributeName="fill" to="#808080" begin="zoomplus.mouseover" end="zoomplus.mouseout"/>
                        </use>
                        <path d="M-4,0h8M0,-4v8" fill="none" stroke="white" stroke-width="1.5" pointer-events="none"/>
                </g>
                <g id="zoomMin">
                        <use xlink:href="#rim" fill="#404040">
                                <set attributeName="fill" to="#808080" begin="zoomminus.mouseover" end="zoomminus.mouseout"/>
                        </use>
                        <path d="M-4,0h8" fill="none" stroke="white" stroke-width="1.5" pointer-events="none"/>
                </g>
                <g id="dirArrow">
                        <path fill="none" stroke="white" stroke-width="1.5" d="M0,-3.0v7 M-2.5,-0.5L0,-3.0L2.5,-0.5"/>
                </g>
               <g id="resetDef">
                       <use xlink:href="#rim2" fill="#404040">
                               <set attributeName="fill" to="#808080" begin="reset.mouseover" end="reset.mouseout"/>
                       </use>
               </g>
        </defs>

<script type="text/javascript">
var viewWidth = 1561;
var viewHeight = 194;
var sectionId = 'dynsection-144';
</script>
<script xlink:href="../../svgpan.js"/>
<svg id="graph" class="graph">
<g id="viewport">
<title>Mavlink::task_main</title>
<polygon fill="white" stroke="none" points="-4,4 -4,-189.5 1557,-189.5 1557,4 -4,4"/>
<!-- Node1 -->
<g id="node1" class="node"><title>Node1</title>
<polygon fill="#bfbfbf" stroke="black" points="0,-9.5 0,-28.5 101,-28.5 101,-9.5 0,-9.5"/>
<text text-anchor="middle" x="50.5" y="-16.5" font-family="Helvetica,sans-Serif" font-size="10.00">Mavlink::task_main</text>
</g>
<!-- Node2 -->
<g id="node2" class="node"><title>Node2</title>
<g id="a_node2"><a xlink:href="../../df/d1f/class_mavlink.html#aad2c17a259e6cfbfe20113c8da8f6cae" target="_top" xlink:title="Mavlink::start_helper">
<polygon fill="white" stroke="black" points="137,-28.5 137,-47.5 244,-47.5 244,-28.5 137,-28.5"/>
<text text-anchor="middle" x="190.5" y="-35.5" font-family="Helvetica,sans-Serif" font-size="10.00">Mavlink::start_helper</text>
</a>
</g>
</g>
<!-- Node1&#45;&gt;Node2 -->
<g id="edge1" class="edge"><title>Node1&#45;&gt;Node2</title>
<path fill="none" stroke="midnightblue" d="M111.246,-27.2259C119.803,-28.4041 128.554,-29.6089 136.959,-30.7661"/>
<polygon fill="midnightblue" stroke="midnightblue" points="111.705,-23.7562 101.321,-25.8594 110.75,-30.6908 111.705,-23.7562"/>
</g>
<!-- Node3 -->
<g id="node3" class="node"><title>Node3</title>
<g id="a_node3"><a xlink:href="../../df/d1f/class_mavlink.html#af06ea4dffa8d7b911690a99456a4814a" target="_top" xlink:title="Mavlink::broadcast\l_enabled">
<polygon fill="white" stroke="black" points="280,-67 280,-97 379,-97 379,-67 280,-67"/>
<text text-anchor="start" x="288" y="-85" font-family="Helvetica,sans-Serif" font-size="10.00">Mavlink::broadcast</text>
<text text-anchor="middle" x="329.5" y="-74" font-family="Helvetica,sans-Serif" font-size="10.00">_enabled</text>
</a>
</g>
</g>
<!-- Node2&#45;&gt;Node3 -->
<g id="edge2" class="edge"><title>Node2&#45;&gt;Node3</title>
<path fill="none" stroke="midnightblue" d="M231.179,-50.7436C246.938,-55.8048 265.185,-61.6653 281.592,-66.9346"/>
<polygon fill="midnightblue" stroke="midnightblue" points="231.818,-47.2729 221.227,-47.5473 229.678,-53.9376 231.818,-47.2729"/>
</g>
<!-- Node17 -->
<g id="node17" class="node"><title>Node17</title>
<g id="a_node17"><a xlink:href="../../df/d1f/class_mavlink.html#a3f96c3503833a477332c8584bb8fbc67" target="_top" xlink:title="Start the mavlink task. ">
<polygon fill="white" stroke="black" points="291.5,-28.5 291.5,-47.5 367.5,-47.5 367.5,-28.5 291.5,-28.5"/>
<text text-anchor="middle" x="329.5" y="-35.5" font-family="Helvetica,sans-Serif" font-size="10.00">Mavlink::start</text>
</a>
</g>
</g>
<!-- Node2&#45;&gt;Node17 -->
<g id="edge19" class="edge"><title>Node2&#45;&gt;Node17</title>
<path fill="none" stroke="midnightblue" d="M254.132,-38C266.786,-38 279.708,-38 291.155,-38"/>
<polygon fill="midnightblue" stroke="midnightblue" points="254.076,-34.5001 244.076,-38 254.076,-41.5001 254.076,-34.5001"/>
</g>
<!-- Node4 -->
<g id="node4" class="node"><title>Node4</title>
<g id="a_node4"><a xlink:href="../../df/d1f/class_mavlink.html#aacd190d885c0a9f521f0d7d0673f2b6f" target="_top" xlink:title="Flush the transmit buffer and send one MAVLink packet. ">
<polygon fill="white" stroke="black" points="428.5,-116.5 428.5,-135.5 540.5,-135.5 540.5,-116.5 428.5,-116.5"/>
<text text-anchor="middle" x="484.5" y="-123.5" font-family="Helvetica,sans-Serif" font-size="10.00">Mavlink::send_packet</text>
</a>
</g>
</g>
<!-- Node3&#45;&gt;Node4 -->
<g id="edge3" class="edge"><title>Node3&#45;&gt;Node4</title>
<path fill="none" stroke="midnightblue" d="M388.992,-98.8214C409.677,-104.77 432.225,-111.254 450.107,-116.397"/>
<polygon fill="midnightblue" stroke="midnightblue" points="389.909,-95.4431 379.331,-96.0428 387.974,-102.17 389.909,-95.4431"/>
</g>
<!-- Node12 -->
<g id="node12" class="node"><title>Node12</title>
<g id="a_node12"><a xlink:href="../../df/d1f/class_mavlink.html#afcac36b1b581d47b7181374d35edbd54" target="_top" xlink:title="Set the boot complete flag on all instances. ">
<polygon fill="white" stroke="black" points="415,-72.5 415,-91.5 554,-91.5 554,-72.5 415,-72.5"/>
<text text-anchor="middle" x="484.5" y="-79.5" font-family="Helvetica,sans-Serif" font-size="10.00">Mavlink::set_boot_complete</text>
</a>
</g>
</g>
<!-- Node3&#45;&gt;Node12 -->
<g id="edge12" class="edge"><title>Node3&#45;&gt;Node12</title>
<path fill="none" stroke="midnightblue" d="M389.593,-75.4078C397.839,-75.2559 406.371,-75.2137 414.775,-75.2811"/>
<polygon fill="midnightblue" stroke="midnightblue" points="389.242,-71.9152 379.331,-75.6588 389.413,-78.9131 389.242,-71.9152"/>
</g>
<!-- Node5 -->
<g id="node5" class="node"><title>Node5</title>
<g id="a_node5"><a xlink:href="../../df/d1f/class_mavlink.html#a3aa1fb0ca3f0d77b10a8954618a51abb" target="_top" xlink:title="Get the manual input generation mode. ">
<polygon fill="white" stroke="black" points="598,-155 598,-185 720,-185 720,-155 598,-155"/>
<text text-anchor="start" x="606" y="-173" font-family="Helvetica,sans-Serif" font-size="10.00">Mavlink::get_manual</text>
<text text-anchor="middle" x="659" y="-162" font-family="Helvetica,sans-Serif" font-size="10.00">_input_mode_generation</text>
</a>
</g>
</g>
<!-- Node4&#45;&gt;Node5 -->
<g id="edge4" class="edge"><title>Node4&#45;&gt;Node5</title>
<path fill="none" stroke="midnightblue" d="M532.648,-138.026C553.109,-143.245 577.295,-149.414 598.937,-154.935"/>
<polygon fill="midnightblue" stroke="midnightblue" points="533.485,-134.628 522.93,-135.547 531.755,-141.41 533.485,-134.628"/>
</g>
<!-- Node11 -->
<g id="node11" class="node"><title>Node11</title>
<g id="a_node11"><a xlink:href="../../de/d24/mavlink__main_8cpp.html#a646c2f3486de3d8574422fc4ef1940a2" target="_top" xlink:title="mavlink_end_uart_send">
<polygon fill="white" stroke="black" points="599.5,-116.5 599.5,-135.5 718.5,-135.5 718.5,-116.5 599.5,-116.5"/>
<text text-anchor="middle" x="659" y="-123.5" font-family="Helvetica,sans-Serif" font-size="10.00">mavlink_end_uart_send</text>
</a>
</g>
</g>
<!-- Node4&#45;&gt;Node11 -->
<g id="edge11" class="edge"><title>Node4&#45;&gt;Node11</title>
<path fill="none" stroke="midnightblue" d="M550.848,-126C566.772,-126 583.707,-126 599.3,-126"/>
<polygon fill="midnightblue" stroke="midnightblue" points="550.554,-122.5 540.554,-126 550.554,-129.5 550.554,-122.5"/>
</g>
<!-- Node6 -->
<g id="node6" class="node"><title>Node6</title>
<g id="a_node6"><a xlink:href="../../da/d89/class_mavlink_receiver.html#af99bf01b6ae13dab05c36c0125e179bc" target="_top" xlink:title="MavlinkReceiver::handle\l_message_manual_control">
<polygon fill="white" stroke="black" points="766.5,-145 766.5,-175 899.5,-175 899.5,-145 766.5,-145"/>
<text text-anchor="start" x="774.5" y="-163" font-family="Helvetica,sans-Serif" font-size="10.00">MavlinkReceiver::handle</text>
<text text-anchor="middle" x="833" y="-152" font-family="Helvetica,sans-Serif" font-size="10.00">_message_manual_control</text>
</a>
</g>
</g>
<!-- Node5&#45;&gt;Node6 -->
<g id="edge5" class="edge"><title>Node5&#45;&gt;Node6</title>
<path fill="none" stroke="midnightblue" d="M730.45,-165.904C742.308,-165.215 754.575,-164.501 766.307,-163.819"/>
<polygon fill="midnightblue" stroke="midnightblue" points="729.937,-162.428 720.157,-166.502 730.344,-169.416 729.937,-162.428"/>
</g>
<!-- Node7 -->
<g id="node7" class="node"><title>Node7</title>
<g id="a_node7"><a xlink:href="../../da/d89/class_mavlink_receiver.html#ac939c806679dc4278968b1d3e865cc72" target="_top" xlink:title="MavlinkReceiver::handle\l_message">
<polygon fill="white" stroke="black" points="945,-126 945,-156 1069,-156 1069,-126 945,-126"/>
<text text-anchor="start" x="953" y="-144" font-family="Helvetica,sans-Serif" font-size="10.00">MavlinkReceiver::handle</text>
<text text-anchor="middle" x="1007" y="-133" font-family="Helvetica,sans-Serif" font-size="10.00">_message</text>
</a>
</g>
</g>
<!-- Node6&#45;&gt;Node7 -->
<g id="edge6" class="edge"><title>Node6&#45;&gt;Node7</title>
<path fill="none" stroke="midnightblue" d="M909.759,-151.631C921.515,-150.333 933.531,-149.005 944.91,-147.748"/>
<polygon fill="midnightblue" stroke="midnightblue" points="909.072,-148.186 899.516,-152.763 909.84,-155.143 909.072,-148.186"/>
</g>
<!-- Node8 -->
<g id="node8" class="node"><title>Node8</title>
<g id="a_node8"><a xlink:href="../../da/d89/class_mavlink_receiver.html#abf05ea2b60baafd446100f897f9274ab" target="_top" xlink:title="Receive data from UART. ">
<polygon fill="white" stroke="black" points="1112,-67 1112,-97 1239,-97 1239,-67 1112,-67"/>
<text text-anchor="start" x="1120" y="-85" font-family="Helvetica,sans-Serif" font-size="10.00">MavlinkReceiver::receive</text>
<text text-anchor="middle" x="1175.5" y="-74" font-family="Helvetica,sans-Serif" font-size="10.00">_thread</text>
</a>
</g>
</g>
<!-- Node7&#45;&gt;Node8 -->
<g id="edge7" class="edge"><title>Node7&#45;&gt;Node8</title>
<path fill="none" stroke="midnightblue" d="M1060.12,-122.531C1083.29,-114.32 1110.22,-104.776 1132.13,-97.0134"/>
<polygon fill="midnightblue" stroke="midnightblue" points="1058.7,-119.32 1050.45,-125.959 1061.04,-125.918 1058.7,-119.32"/>
</g>
<!-- Node9 -->
<g id="node9" class="node"><title>Node9</title>
<g id="a_node9"><a xlink:href="../../da/d89/class_mavlink_receiver.html#a4e6d064186fe746bc3934959a991a908" target="_top" xlink:title="MavlinkReceiver::start\l_helper">
<polygon fill="white" stroke="black" points="1275,-48 1275,-78 1390,-78 1390,-48 1275,-48"/>
<text text-anchor="start" x="1283" y="-66" font-family="Helvetica,sans-Serif" font-size="10.00">MavlinkReceiver::start</text>
<text text-anchor="middle" x="1332.5" y="-55" font-family="Helvetica,sans-Serif" font-size="10.00">_helper</text>
</a>
</g>
</g>
<!-- Node8&#45;&gt;Node9 -->
<g id="edge8" class="edge"><title>Node8&#45;&gt;Node9</title>
<path fill="none" stroke="midnightblue" d="M1249.11,-73.0994C1257.69,-72.0474 1266.35,-70.9856 1274.67,-69.9657"/>
<polygon fill="midnightblue" stroke="midnightblue" points="1248.6,-69.636 1239.1,-74.3267 1249.45,-76.584 1248.6,-69.636"/>
</g>
<!-- Node10 -->
<g id="node10" class="node"><title>Node10</title>
<g id="a_node10"><a xlink:href="../../da/d89/class_mavlink_receiver.html#aae6564d759626eeebeb19a9dfbdcaf6d" target="_top" xlink:title="Start the receiver thread. ">
<polygon fill="white" stroke="black" points="1426,-16 1426,-46 1553,-46 1553,-16 1426,-16"/>
<text text-anchor="start" x="1434" y="-34" font-family="Helvetica,sans-Serif" font-size="10.00">MavlinkReceiver::receive</text>
<text text-anchor="middle" x="1489.5" y="-23" font-family="Helvetica,sans-Serif" font-size="10.00">_start</text>
</a>
</g>
</g>
<!-- Node9&#45;&gt;Node10 -->
<g id="edge9" class="edge"><title>Node9&#45;&gt;Node10</title>
<path fill="none" stroke="midnightblue" d="M1400.24,-49.2221C1408.76,-47.4621 1417.46,-45.6655 1425.92,-43.9198"/>
<polygon fill="midnightblue" stroke="midnightblue" points="1399.42,-45.8164 1390.34,-51.2661 1400.84,-52.6718 1399.42,-45.8164"/>
</g>
<!-- Node10&#45;&gt;Node1 -->
<g id="edge10" class="edge"><title>Node10&#45;&gt;Node1</title>
<path fill="none" stroke="midnightblue" d="M1415.69,-19.6484C1352.59,-10.7981 1258.74,-0 1176.5,-0 328.5,-0 328.5,-0 328.5,-0 248.844,-0 156.605,-7.91693 101.218,-13.5299"/>
<polygon fill="midnightblue" stroke="midnightblue" points="1415.54,-23.1626 1425.93,-21.1062 1416.53,-16.2324 1415.54,-23.1626"/>
</g>
<!-- Node12&#45;&gt;Node3 -->
<g id="edge13" class="edge"><title>Node12&#45;&gt;Node3</title>
<path fill="none" stroke="midnightblue" d="M404.655,-88.7472C396.027,-88.7264 387.439,-88.5911 379.331,-88.3412"/>
<polygon fill="midnightblue" stroke="midnightblue" points="404.785,-92.2469 414.775,-88.7189 404.766,-85.247 404.785,-92.2469"/>
</g>
<!-- Node13 -->
<g id="node13" class="node"><title>Node13</title>
<g id="a_node13"><a xlink:href="../../de/d24/mavlink__main_8cpp.html#ab81e9b009119f143f3b54a1390b92427" target="_top" xlink:title="mavlink app start / stop handling function ">
<polygon fill="white" stroke="black" points="620.5,-28.5 620.5,-47.5 697.5,-47.5 697.5,-28.5 620.5,-28.5"/>
<text text-anchor="middle" x="659" y="-35.5" font-family="Helvetica,sans-Serif" font-size="10.00">mavlink_main</text>
</a>
</g>
</g>
<!-- Node12&#45;&gt;Node13 -->
<g id="edge14" class="edge"><title>Node12&#45;&gt;Node13</title>
<path fill="none" stroke="midnightblue" d="M532.788,-69.9383C560.453,-62.8815 594.89,-54.0976 620.643,-47.5287"/>
<polygon fill="midnightblue" stroke="midnightblue" points="531.755,-66.5896 522.93,-72.4527 533.485,-73.3724 531.755,-66.5896"/>
</g>
<!-- Node14 -->
<g id="node14" class="node"><title>Node14</title>
<g id="a_node14"><a xlink:href="../../df/d61/class_mavlink_parameters_manager.html#acd8734b77582ad7626f5230c1707e04c" target="_top" xlink:title="send a single param if a PARAM_REQUEST_LIST is in progress ">
<polygon fill="white" stroke="black" points="590,-67 590,-97 728,-97 728,-67 590,-67"/>
<text text-anchor="start" x="598" y="-85" font-family="Helvetica,sans-Serif" font-size="10.00">MavlinkParametersManager</text>
<text text-anchor="middle" x="659" y="-74" font-family="Helvetica,sans-Serif" font-size="10.00">::send_one</text>
</a>
</g>
</g>
<!-- Node12&#45;&gt;Node14 -->
<g id="edge15" class="edge"><title>Node12&#45;&gt;Node14</title>
<path fill="none" stroke="midnightblue" d="M564.448,-82C572.93,-82 581.506,-82 589.846,-82"/>
<polygon fill="midnightblue" stroke="midnightblue" points="564.172,-78.5001 554.172,-82 564.172,-85.5001 564.172,-78.5001"/>
</g>
<!-- Node15 -->
<g id="node15" class="node"><title>Node15</title>
<g id="a_node15"><a xlink:href="../../df/d61/class_mavlink_parameters_manager.html#a3a6dff51ef5aba4f3dda19610510a45d" target="_top" xlink:title="Handle any open param send transfer. ">
<polygon fill="white" stroke="black" points="764,-67 764,-97 902,-97 902,-67 764,-67"/>
<text text-anchor="start" x="772" y="-85" font-family="Helvetica,sans-Serif" font-size="10.00">MavlinkParametersManager</text>
<text text-anchor="middle" x="833" y="-74" font-family="Helvetica,sans-Serif" font-size="10.00">::send_params</text>
</a>
</g>
</g>
<!-- Node14&#45;&gt;Node15 -->
<g id="edge16" class="edge"><title>Node14&#45;&gt;Node15</title>
<path fill="none" stroke="midnightblue" d="M738.637,-82C747.025,-82 755.508,-82 763.762,-82"/>
<polygon fill="midnightblue" stroke="midnightblue" points="738.473,-78.5001 728.473,-82 738.473,-85.5001 738.473,-78.5001"/>
</g>
<!-- Node16 -->
<g id="node16" class="node"><title>Node16</title>
<g id="a_node16"><a xlink:href="../../df/d61/class_mavlink_parameters_manager.html#adbcd587c4ec1c0b94fe259047f8ec82e" target="_top" xlink:title="Handle sending of messages. ">
<polygon fill="white" stroke="black" points="938,-67 938,-97 1076,-97 1076,-67 938,-67"/>
<text text-anchor="start" x="946" y="-85" font-family="Helvetica,sans-Serif" font-size="10.00">MavlinkParametersManager</text>
<text text-anchor="middle" x="1007" y="-74" font-family="Helvetica,sans-Serif" font-size="10.00">::send</text>
</a>
</g>
</g>
<!-- Node15&#45;&gt;Node16 -->
<g id="edge17" class="edge"><title>Node15&#45;&gt;Node16</title>
<path fill="none" stroke="midnightblue" d="M912.637,-82C921.025,-82 929.508,-82 937.762,-82"/>
<polygon fill="midnightblue" stroke="midnightblue" points="912.473,-78.5001 902.473,-82 912.473,-85.5001 912.473,-78.5001"/>
</g>
<!-- Node16&#45;&gt;Node8 -->
<g id="edge18" class="edge"><title>Node16&#45;&gt;Node8</title>
<path fill="none" stroke="midnightblue" d="M1086.21,-82C1094.77,-82 1103.41,-82 1111.76,-82"/>
<polygon fill="midnightblue" stroke="midnightblue" points="1086.2,-78.5001 1076.2,-82 1086.2,-85.5001 1086.2,-78.5001"/>
</g>
<!-- Node17&#45;&gt;Node13 -->
<g id="edge20" class="edge"><title>Node17&#45;&gt;Node13</title>
<path fill="none" stroke="midnightblue" d="M377.803,-38C443.301,-38 560.305,-38 620.281,-38"/>
<polygon fill="midnightblue" stroke="midnightblue" points="377.75,-34.5001 367.75,-38 377.75,-41.5001 377.75,-34.5001"/>
</g>
</g>
</svg>
        <g id="navigator" transform="translate(0 0)" fill="#404254">
                <rect fill="#f2f5e9" fill-opacity="0.5" stroke="#606060" stroke-width=".5" x="0" y="0" width="60" height="60"/>
                <use id="zoomplus" xlink:href="#zoomPlus" x="17" y="9" onmousedown="handleZoom(evt,'in')"/>
                <use id="zoomminus" xlink:href="#zoomMin" x="42" y="9" onmousedown="handleZoom(evt,'out')"/>
                <use id="reset" xlink:href="#resetDef" x="30" y="36" onmousedown="handleReset()"/>
                <g id="arrowUp" xlink:href="#dirArrow" transform="translate(30 24)" onmousedown="handlePan(0,-1)">
                  <use xlink:href="#rim" fill="#404040">
                        <set attributeName="fill" to="#808080" begin="arrowUp.mouseover" end="arrowUp.mouseout"/>
                  </use>
                  <path fill="none" stroke="white" stroke-width="1.5" d="M0,-3.0v7 M-2.5,-0.5L0,-3.0L2.5,-0.5"/>
                </g>
                <g id="arrowRight" xlink:href="#dirArrow" transform="rotate(90) translate(36 -43)" onmousedown="handlePan(1,0)">
                  <use xlink:href="#rim" fill="#404040">
                        <set attributeName="fill" to="#808080" begin="arrowRight.mouseover" end="arrowRight.mouseout"/>
                  </use>
                  <path fill="none" stroke="white" stroke-width="1.5" d="M0,-3.0v7 M-2.5,-0.5L0,-3.0L2.5,-0.5"/>
                </g>
                <g id="arrowDown" xlink:href="#dirArrow" transform="rotate(180) translate(-30 -48)" onmousedown="handlePan(0,1)">
                  <use xlink:href="#rim" fill="#404040">
                        <set attributeName="fill" to="#808080" begin="arrowDown.mouseover" end="arrowDown.mouseout"/>
                  </use>
                  <path fill="none" stroke="white" stroke-width="1.5" d="M0,-3.0v7 M-2.5,-0.5L0,-3.0L2.5,-0.5"/>
                </g>
                <g id="arrowLeft" xlink:href="#dirArrow" transform="rotate(270) translate(-36 17)" onmousedown="handlePan(-1,0)">
                  <use xlink:href="#rim" fill="#404040">
                        <set attributeName="fill" to="#808080" begin="arrowLeft.mouseover" end="arrowLeft.mouseout"/>
                  </use>
                  <path fill="none" stroke="white" stroke-width="1.5" d="M0,-3.0v7 M-2.5,-0.5L0,-3.0L2.5,-0.5"/>
                </g>
        </g>
        <svg viewBox="0 0 15 15" width="100%" height="30px" preserveAspectRatio="xMaxYMin meet">
         <g id="arrow_out" transform="scale(0.3 0.3)">
          <a xlink:href="class_mavlink_a2325401a575b272fc1474d502388241f_icgraph_org.svg" target="_base">
           <rect id="button" ry="5" rx="5" y="6" x="6" height="38" width="38"
                fill="#f2f5e9" fill-opacity="0.5" stroke="#606060" stroke-width="1.0"/>
           <path id="arrow"
             d="M 11.500037,31.436501 C 11.940474,20.09759 22.043105,11.32322 32.158766,21.979434 L 37.068811,17.246167 C 37.068811,17.246167 37.088388,32 37.088388,32 L 22.160133,31.978069 C 22.160133,31.978069 26.997745,27.140456 26.997745,27.140456 C 18.528582,18.264221 13.291696,25.230495 11.500037,31.436501 z"
             style="fill:#404040;"/>
          </a>
         </g>
        </svg>
</svg>
