<?xml version="1.0" encoding="UTF-8" standalone="no"?>
<!DOCTYPE svg PUBLIC "-//W3C//DTD SVG 1.1//EN"
 "http://www.w3.org/Graphics/SVG/1.1/DTD/svg11.dtd">
<!-- Generated by graphviz version 2.40.1 (20161225.0304)
 -->
<!-- Title: Mavlink::try_start_ulog_streaming Pages: 1 -->
<svg width="732pt" height="166pt"
 viewBox="0.00 0.00 732.00 165.50" xmlns="http://www.w3.org/2000/svg" xmlns:xlink="http://www.w3.org/1999/xlink">
<g id="graph0" class="graph" transform="scale(1 1) rotate(0) translate(4 161.5)">
<title>Mavlink::try_start_ulog_streaming</title>
<polygon fill="#ffffff" stroke="transparent" points="-4,4 -4,-161.5 728,-161.5 728,4 -4,4"/>
<!-- Node2683 -->
<g id="node1" class="node">
<title>Node2683</title>
<polygon fill="#bfbfbf" stroke="#000000" points="0,-91.5 0,-121.5 92,-121.5 92,-91.5 0,-91.5"/>
<text text-anchor="start" x="8" y="-109.5" font-family="Helvetica,sans-Serif" font-size="10.00" fill="#000000">Mavlink::try_start</text>
<text text-anchor="middle" x="46" y="-98.5" font-family="Helvetica,sans-Serif" font-size="10.00" fill="#000000">_ulog_streaming</text>
</g>
<!-- Node2684 -->
<g id="node2" class="node">
<title>Node2684</title>
<g id="a_node2"><a xlink:href="../../d8/da1/integration_8cpp.html#af5ba872dd09316732300733cc164ac1a" target="_top" xlink:title="f">
<polygon fill="#ffffff" stroke="#000000" points="171.5,-125 171.5,-144 200.5,-144 200.5,-125 171.5,-125"/>
<text text-anchor="middle" x="186" y="-132" font-family="Helvetica,sans-Serif" font-size="10.00" fill="#000000">f</text>
</a>
</g>
</g>
<!-- Node2683&#45;&gt;Node2684 -->
<g id="edge1" class="edge">
<title>Node2683&#45;&gt;Node2684</title>
<path fill="none" stroke="#191970" d="M92.2292,-115.7458C115.2395,-120.3479 142.1385,-125.7277 161.2111,-129.5422"/>
<polygon fill="#191970" stroke="#191970" points="160.695,-133.0082 171.1873,-131.5375 162.0679,-126.1442 160.695,-133.0082"/>
</g>
<!-- Node2687 -->
<g id="node5" class="node">
<title>Node2687</title>
<g id="a_node5"><a xlink:href="../../dd/dcb/class_mavlink_u_log.html#a5dc99afb25974d33e3c9da1936fd1cc3" target="_top" xlink:title="try to start a new stream. ">
<polygon fill="#ffffff" stroke="#000000" points="128,-78 128,-97 244,-97 244,-78 128,-78"/>
<text text-anchor="middle" x="186" y="-85" font-family="Helvetica,sans-Serif" font-size="10.00" fill="#000000">MavlinkULog::try_start</text>
</a>
</g>
</g>
<!-- Node2683&#45;&gt;Node2687 -->
<g id="edge5" class="edge">
<title>Node2683&#45;&gt;Node2687</title>
<path fill="none" stroke="#191970" d="M92.2292,-100.226C100.3581,-99.1228 108.9723,-97.9538 117.5553,-96.7889"/>
<polygon fill="#191970" stroke="#191970" points="118.1473,-100.2408 127.5858,-95.4276 117.2059,-93.3043 118.1473,-100.2408"/>
</g>
<!-- Node2685 -->
<g id="node3" class="node">
<title>Node2685</title>
<g id="a_node3"><a xlink:href="../../d0/de4/namespacematrix.html#a761295febb473ca1226309513533e801" target="_top" xlink:title="matrix::sin">
<polygon fill="#ffffff" stroke="#000000" points="317.5,-138 317.5,-157 379.5,-157 379.5,-138 317.5,-138"/>
<text text-anchor="middle" x="348.5" y="-145" font-family="Helvetica,sans-Serif" font-size="10.00" fill="#000000">matrix::sin</text>
</a>
</g>
</g>
<!-- Node2684&#45;&gt;Node2685 -->
<g id="edge2" class="edge">
<title>Node2684&#45;&gt;Node2685</title>
<path fill="none" stroke="#191970" d="M200.7074,-135.6766C224.497,-137.5798 272.2642,-141.4011 307.0743,-144.1859"/>
<polygon fill="#191970" stroke="#191970" points="307.1733,-147.705 317.4206,-145.0137 307.7316,-140.7273 307.1733,-147.705"/>
</g>
<!-- Node2686 -->
<g id="node4" class="node">
<title>Node2686</title>
<g id="a_node4"><a xlink:href="../../d0/de4/namespacematrix.html#a2e09123c750ed3a0315a31f3b27a3ed9" target="_top" xlink:title="matrix::cos">
<polygon fill="#ffffff" stroke="#000000" points="486,-138 486,-157 551,-157 551,-138 486,-138"/>
<text text-anchor="middle" x="518.5" y="-145" font-family="Helvetica,sans-Serif" font-size="10.00" fill="#000000">matrix::cos</text>
</a>
</g>
</g>
<!-- Node2685&#45;&gt;Node2686 -->
<g id="edge3" class="edge">
<title>Node2685&#45;&gt;Node2686</title>
<path fill="none" stroke="#191970" d="M379.6806,-142.1359C406.6045,-140.5104 445.7668,-140.3148 475.6365,-141.549"/>
<polygon fill="#191970" stroke="#191970" points="475.6198,-145.0523 485.7789,-142.0452 475.9619,-138.0607 475.6198,-145.0523"/>
</g>
<!-- Node2686&#45;&gt;Node2685 -->
<g id="edge4" class="edge">
<title>Node2686&#45;&gt;Node2685</title>
<path fill="none" stroke="#191970" d="M485.7789,-152.9548C458.3998,-154.5262 419.1895,-154.6677 389.679,-153.3794"/>
<polygon fill="#191970" stroke="#191970" points="389.8476,-149.8835 379.6806,-152.8641 389.4872,-156.8743 389.8476,-149.8835"/>
</g>
<!-- Node2688 -->
<g id="node6" class="node">
<title>Node2688</title>
<g id="a_node6"><a xlink:href="../../dd/dcb/class_mavlink_u_log.html#ab3e3d607158eea82aa0016256eb06da4" target="_top" xlink:title="MavlinkULog::lock">
<polygon fill="#ffffff" stroke="#000000" points="299.5,-97 299.5,-116 397.5,-116 397.5,-97 299.5,-97"/>
<text text-anchor="middle" x="348.5" y="-104" font-family="Helvetica,sans-Serif" font-size="10.00" fill="#000000">MavlinkULog::lock</text>
</a>
</g>
</g>
<!-- Node2687&#45;&gt;Node2688 -->
<g id="edge6" class="edge">
<title>Node2687&#45;&gt;Node2688</title>
<path fill="none" stroke="#191970" d="M244.2072,-94.3058C258.8581,-96.0188 274.5986,-97.8592 289.2976,-99.5779"/>
<polygon fill="#191970" stroke="#191970" points="288.9424,-103.0601 299.2812,-100.7452 289.7554,-96.1075 288.9424,-103.0601"/>
</g>
<!-- Node2689 -->
<g id="node7" class="node">
<title>Node2689</title>
<g id="a_node7"><a xlink:href="../../dd/dcb/class_mavlink_u_log.html#af6ec3ab02c7c79804d53be131c9264e3" target="_top" xlink:title="MavlinkULog::MavlinkULog">
<polygon fill="#ffffff" stroke="#000000" points="280,-59 280,-78 417,-78 417,-59 280,-59"/>
<text text-anchor="middle" x="348.5" y="-66" font-family="Helvetica,sans-Serif" font-size="10.00" fill="#000000">MavlinkULog::MavlinkULog</text>
</a>
</g>
</g>
<!-- Node2687&#45;&gt;Node2689 -->
<g id="edge7" class="edge">
<title>Node2687&#45;&gt;Node2689</title>
<path fill="none" stroke="#191970" d="M244.2072,-80.6942C252.5202,-79.7223 261.184,-78.7093 269.8092,-77.7008"/>
<polygon fill="#191970" stroke="#191970" points="270.3677,-81.1594 279.8936,-76.5217 269.5547,-74.2068 270.3677,-81.1594"/>
</g>
<!-- Node2692 -->
<g id="node10" class="node">
<title>Node2692</title>
<g id="a_node10"><a xlink:href="../../dd/dcb/class_mavlink_u_log.html#a99ea3dd437b2517573149a6cb1f5d82e" target="_top" xlink:title="MavlinkULog::unlock">
<polygon fill="#ffffff" stroke="#000000" points="294.5,-15 294.5,-34 402.5,-34 402.5,-15 294.5,-15"/>
<text text-anchor="middle" x="348.5" y="-22" font-family="Helvetica,sans-Serif" font-size="10.00" fill="#000000">MavlinkULog::unlock</text>
</a>
</g>
</g>
<!-- Node2687&#45;&gt;Node2692 -->
<g id="edge10" class="edge">
<title>Node2687&#45;&gt;Node2692</title>
<path fill="none" stroke="#191970" d="M209.0907,-77.9087C228.0656,-70.089 255.6837,-58.8491 280,-49.5 290.3873,-45.5063 301.7179,-41.3075 312.1193,-37.5154"/>
<polygon fill="#191970" stroke="#191970" points="313.5382,-40.724 321.7458,-34.0243 311.1517,-34.1433 313.5382,-40.724"/>
</g>
<!-- Node2690 -->
<g id="node8" class="node">
<title>Node2690</title>
<g id="a_node8"><a xlink:href="../../d6/d4c/classu_o_r_b_1_1_subscription_data.html#a8c8967077b39cd29e07652cefe2293a9" target="_top" xlink:title="uORB::SubscriptionData\l::update">
<polygon fill="#ffffff" stroke="#000000" points="456,-88.5 456,-118.5 581,-118.5 581,-88.5 456,-88.5"/>
<text text-anchor="start" x="464" y="-106.5" font-family="Helvetica,sans-Serif" font-size="10.00" fill="#000000">uORB::SubscriptionData</text>
<text text-anchor="middle" x="518.5" y="-95.5" font-family="Helvetica,sans-Serif" font-size="10.00" fill="#000000">::update</text>
</a>
</g>
</g>
<!-- Node2689&#45;&gt;Node2690 -->
<g id="edge8" class="edge">
<title>Node2689&#45;&gt;Node2690</title>
<path fill="none" stroke="#191970" d="M394.9532,-78.0639C410.6496,-81.2955 428.5708,-84.9852 445.8028,-88.5329"/>
<polygon fill="#191970" stroke="#191970" points="445.3468,-92.0124 455.8471,-90.6009 446.7584,-85.1562 445.3468,-92.0124"/>
</g>
<!-- Node2691 -->
<g id="node9" class="node">
<title>Node2691</title>
<g id="a_node9"><a xlink:href="../../d6/d10/drv__hrt_8h.html#a1450e339b7c5b8d47656500167a6676d" target="_top" xlink:title="Get absolute time in [us] (does not wrap). ">
<polygon fill="#ffffff" stroke="#000000" points="625,-50 625,-69 719,-69 719,-50 625,-50"/>
<text text-anchor="middle" x="672" y="-57" font-family="Helvetica,sans-Serif" font-size="10.00" fill="#000000">hrt_absolute_time</text>
</a>
</g>
</g>
<!-- Node2689&#45;&gt;Node2691 -->
<g id="edge9" class="edge">
<title>Node2689&#45;&gt;Node2691</title>
<path fill="none" stroke="#191970" d="M417.106,-66.5913C475.8249,-64.9577 559.3868,-62.633 614.6166,-61.0964"/>
<polygon fill="#191970" stroke="#191970" points="615.0291,-64.5864 624.9279,-60.8096 614.8344,-57.5891 615.0291,-64.5864"/>
</g>
<!-- Node2693 -->
<g id="node11" class="node">
<title>Node2693</title>
<g id="a_node11"><a xlink:href="../../dd/dcb/class_mavlink_u_log.html#a8656441a029e32e0f7d4530463161195" target="_top" xlink:title="MavlinkULog::publish_ack">
<polygon fill="#ffffff" stroke="#000000" points="453,-12 453,-31 584,-31 584,-12 453,-12"/>
<text text-anchor="middle" x="518.5" y="-19" font-family="Helvetica,sans-Serif" font-size="10.00" fill="#000000">MavlinkULog::publish_ack</text>
</a>
</g>
</g>
<!-- Node2692&#45;&gt;Node2693 -->
<g id="edge11" class="edge">
<title>Node2692&#45;&gt;Node2693</title>
<path fill="none" stroke="#191970" d="M402.7565,-23.5425C415.4555,-23.3184 429.2127,-23.0757 442.6604,-22.8383"/>
<polygon fill="#191970" stroke="#191970" points="442.9243,-26.3343 452.861,-22.6583 442.8007,-19.3354 442.9243,-26.3343"/>
</g>
<!-- Node2693&#45;&gt;Node2691 -->
<g id="edge12" class="edge">
<title>Node2693&#45;&gt;Node2691</title>
<path fill="none" stroke="#191970" d="M557.2345,-31.089C577.3993,-36.0809 602.2479,-42.2324 623.6611,-47.5334"/>
<polygon fill="#191970" stroke="#191970" points="622.9959,-50.9743 633.544,-49.9799 624.6781,-44.1794 622.9959,-50.9743"/>
</g>
<!-- Node2694 -->
<g id="node12" class="node">
<title>Node2694</title>
<g id="a_node12"><a xlink:href="../../d3/de9/classu_o_r_b_1_1_publication.html#a91d62138475fc6ab2c96859a8abc896c" target="_top" xlink:title="Publish the struct. ">
<polygon fill="#ffffff" stroke="#000000" points="620,-.5 620,-30.5 724,-30.5 724,-.5 620,-.5"/>
<text text-anchor="start" x="628" y="-18.5" font-family="Helvetica,sans-Serif" font-size="10.00" fill="#000000">uORB::Publication::</text>
<text text-anchor="middle" x="672" y="-7.5" font-family="Helvetica,sans-Serif" font-size="10.00" fill="#000000">publish</text>
</a>
</g>
</g>
<!-- Node2693&#45;&gt;Node2694 -->
<g id="edge13" class="edge">
<title>Node2693&#45;&gt;Node2694</title>
<path fill="none" stroke="#191970" d="M584.0431,-18.9381C592.5011,-18.6075 601.1446,-18.2696 609.5509,-17.941"/>
<polygon fill="#191970" stroke="#191970" points="609.803,-21.4339 619.6586,-17.5459 609.5295,-14.4393 609.803,-21.4339"/>
</g>
</g>
</svg>
