<?xml version="1.0" encoding="UTF-8" standalone="no"?>
<!DOCTYPE svg PUBLIC "-//W3C//DTD SVG 1.1//EN"
 "http://www.w3.org/Graphics/SVG/1.1/DTD/svg11.dtd">
<!-- Generated by graphviz version 2.38.0 (20140413.2041)
 -->
<!-- Title: Mavlink::boot_complete Pages: 1 -->
<svg width="1717pt" height="234pt"
 viewBox="0.00 0.00 1717.00 233.58" xmlns="http://www.w3.org/2000/svg" xmlns:xlink="http://www.w3.org/1999/xlink">
<g id="graph0" class="graph" transform="scale(1 1) rotate(0) translate(4 229.583)">
<title>Mavlink::boot_complete</title>
<polygon fill="white" stroke="none" points="-4,4 -4,-229.583 1713,-229.583 1713,4 -4,4"/>
<!-- Node1 -->
<g id="node1" class="node"><title>Node1</title>
<polygon fill="#bfbfbf" stroke="black" points="0,-78 0,-97 120,-97 120,-78 0,-78"/>
<text text-anchor="middle" x="60" y="-85" font-family="Helvetica,sans-Serif" font-size="10.00">Mavlink::boot_complete</text>
</g>
<!-- Node2 -->
<g id="node2" class="node"><title>Node2</title>
<g id="a_node2"><a xlink:href="../../da/d89/class_mavlink_receiver.html#abf05ea2b60baafd446100f897f9274ab" target="_top" xlink:title="Receive data from UART. ">
<polygon fill="white" stroke="black" points="156,-145.5 156,-175.5 283,-175.5 283,-145.5 156,-145.5"/>
<text text-anchor="start" x="164" y="-163.5" font-family="Helvetica,sans-Serif" font-size="10.00">MavlinkReceiver::receive</text>
<text text-anchor="middle" x="219.5" y="-152.5" font-family="Helvetica,sans-Serif" font-size="10.00">_thread</text>
</a>
</g>
</g>
<!-- Node1&#45;&gt;Node2 -->
<g id="edge1" class="edge"><title>Node1&#45;&gt;Node2</title>
<path fill="none" stroke="midnightblue" d="M90.9585,-101.386C118.075,-113.954 157.927,-132.425 185.848,-145.366"/>
<polygon fill="midnightblue" stroke="midnightblue" points="92.1351,-98.0732 81.5904,-97.0435 89.1914,-104.424 92.1351,-98.0732"/>
</g>
<!-- Node16 -->
<g id="node16" class="node"><title>Node16</title>
<g id="a_node16"><a xlink:href="../../df/d61/class_mavlink_parameters_manager.html#acd8734b77582ad7626f5230c1707e04c" target="_top" xlink:title="send a single param if a PARAM_REQUEST_LIST is in progress ">
<polygon fill="white" stroke="black" points="1223,-0.5 1223,-30.5 1361,-30.5 1361,-0.5 1223,-0.5"/>
<text text-anchor="start" x="1231" y="-18.5" font-family="Helvetica,sans-Serif" font-size="10.00">MavlinkParametersManager</text>
<text text-anchor="middle" x="1292" y="-7.5" font-family="Helvetica,sans-Serif" font-size="10.00">::send_one</text>
</a>
</g>
</g>
<!-- Node1&#45;&gt;Node16 -->
<g id="edge22" class="edge"><title>Node1&#45;&gt;Node16</title>
<path fill="none" stroke="midnightblue" d="M95.0265,-74.399C152.101,-53.6365 271.14,-15.5 375.5,-15.5 375.5,-15.5 375.5,-15.5 963.5,-15.5 1053.19,-15.5 1156.7,-15.5 1222.94,-15.5"/>
<polygon fill="midnightblue" stroke="midnightblue" points="93.6028,-71.1936 85.4327,-77.939 96.026,-77.7608 93.6028,-71.1936"/>
</g>
<!-- Node3 -->
<g id="node3" class="node"><title>Node3</title>
<g id="a_node3"><a xlink:href="../../da/d89/class_mavlink_receiver.html#a4e6d064186fe746bc3934959a991a908" target="_top" xlink:title="MavlinkReceiver::start\l_helper">
<polygon fill="white" stroke="black" points="319,-121.5 319,-151.5 434,-151.5 434,-121.5 319,-121.5"/>
<text text-anchor="start" x="327" y="-139.5" font-family="Helvetica,sans-Serif" font-size="10.00">MavlinkReceiver::start</text>
<text text-anchor="middle" x="376.5" y="-128.5" font-family="Helvetica,sans-Serif" font-size="10.00">_helper</text>
</a>
</g>
</g>
<!-- Node2&#45;&gt;Node3 -->
<g id="edge2" class="edge"><title>Node2&#45;&gt;Node3</title>
<path fill="none" stroke="midnightblue" d="M293.11,-149.257C301.692,-147.928 310.355,-146.587 318.674,-145.299"/>
<polygon fill="midnightblue" stroke="midnightblue" points="292.444,-145.818 283.098,-150.807 293.515,-152.736 292.444,-145.818"/>
</g>
<!-- Node4 -->
<g id="node4" class="node"><title>Node4</title>
<g id="a_node4"><a xlink:href="../../da/d89/class_mavlink_receiver.html#aae6564d759626eeebeb19a9dfbdcaf6d" target="_top" xlink:title="Start the receiver thread. ">
<polygon fill="white" stroke="black" points="470,-102.5 470,-132.5 597,-132.5 597,-102.5 470,-102.5"/>
<text text-anchor="start" x="478" y="-120.5" font-family="Helvetica,sans-Serif" font-size="10.00">MavlinkReceiver::receive</text>
<text text-anchor="middle" x="533.5" y="-109.5" font-family="Helvetica,sans-Serif" font-size="10.00">_start</text>
</a>
</g>
</g>
<!-- Node3&#45;&gt;Node4 -->
<g id="edge3" class="edge"><title>Node3&#45;&gt;Node4</title>
<path fill="none" stroke="midnightblue" d="M444.515,-128.285C452.951,-127.251 461.556,-126.196 469.92,-125.171"/>
<polygon fill="midnightblue" stroke="midnightblue" points="443.836,-124.842 434.336,-129.533 444.688,-131.79 443.836,-124.842"/>
</g>
<!-- Node5 -->
<g id="node5" class="node"><title>Node5</title>
<g id="a_node5"><a xlink:href="../../df/d1f/class_mavlink.html#a2325401a575b272fc1474d502388241f" target="_top" xlink:title="Main mavlink task. ">
<polygon fill="white" stroke="black" points="633,-99 633,-118 734,-118 734,-99 633,-99"/>
<text text-anchor="middle" x="683.5" y="-106" font-family="Helvetica,sans-Serif" font-size="10.00">Mavlink::task_main</text>
</a>
</g>
</g>
<!-- Node4&#45;&gt;Node5 -->
<g id="edge4" class="edge"><title>Node4&#45;&gt;Node5</title>
<path fill="none" stroke="midnightblue" d="M607.302,-113.073C615.883,-112.551 624.486,-112.028 632.649,-111.532"/>
<polygon fill="midnightblue" stroke="midnightblue" points="607.034,-109.583 597.265,-113.683 607.459,-116.57 607.034,-109.583"/>
</g>
<!-- Node6 -->
<g id="node6" class="node"><title>Node6</title>
<g id="a_node6"><a xlink:href="../../df/d1f/class_mavlink.html#aad2c17a259e6cfbfe20113c8da8f6cae" target="_top" xlink:title="Mavlink::start_helper">
<polygon fill="white" stroke="black" points="770,-94 770,-113 877,-113 877,-94 770,-94"/>
<text text-anchor="middle" x="823.5" y="-101" font-family="Helvetica,sans-Serif" font-size="10.00">Mavlink::start_helper</text>
</a>
</g>
</g>
<!-- Node5&#45;&gt;Node6 -->
<g id="edge5" class="edge"><title>Node5&#45;&gt;Node6</title>
<path fill="none" stroke="midnightblue" d="M744.525,-106.325C752.993,-106.018 761.646,-105.705 769.959,-105.404"/>
<polygon fill="midnightblue" stroke="midnightblue" points="744.188,-102.835 734.321,-106.695 744.441,-109.83 744.188,-102.835"/>
</g>
<!-- Node7 -->
<g id="node7" class="node"><title>Node7</title>
<g id="a_node7"><a xlink:href="../../df/d1f/class_mavlink.html#a3f96c3503833a477332c8584bb8fbc67" target="_top" xlink:title="Start the mavlink task. ">
<polygon fill="white" stroke="black" points="924.5,-94 924.5,-113 1000.5,-113 1000.5,-94 924.5,-94"/>
<text text-anchor="middle" x="962.5" y="-101" font-family="Helvetica,sans-Serif" font-size="10.00">Mavlink::start</text>
</a>
</g>
</g>
<!-- Node6&#45;&gt;Node7 -->
<g id="edge6" class="edge"><title>Node6&#45;&gt;Node7</title>
<path fill="none" stroke="midnightblue" d="M887.132,-103.5C899.786,-103.5 912.708,-103.5 924.155,-103.5"/>
<polygon fill="midnightblue" stroke="midnightblue" points="887.076,-100 877.076,-103.5 887.076,-107 887.076,-100"/>
</g>
<!-- Node9 -->
<g id="node9" class="node"><title>Node9</title>
<g id="a_node9"><a xlink:href="../../df/d1f/class_mavlink.html#af06ea4dffa8d7b911690a99456a4814a" target="_top" xlink:title="Mavlink::broadcast\l_enabled">
<polygon fill="white" stroke="black" points="913,-44.5 913,-74.5 1012,-74.5 1012,-44.5 913,-44.5"/>
<text text-anchor="start" x="921" y="-62.5" font-family="Helvetica,sans-Serif" font-size="10.00">Mavlink::broadcast</text>
<text text-anchor="middle" x="962.5" y="-51.5" font-family="Helvetica,sans-Serif" font-size="10.00">_enabled</text>
</a>
</g>
</g>
<!-- Node6&#45;&gt;Node9 -->
<g id="edge8" class="edge"><title>Node6&#45;&gt;Node9</title>
<path fill="none" stroke="midnightblue" d="M864.179,-90.7564C879.938,-85.6952 898.185,-79.8347 914.592,-74.5654"/>
<polygon fill="midnightblue" stroke="midnightblue" points="862.678,-87.5624 854.227,-93.9527 864.818,-94.2271 862.678,-87.5624"/>
</g>
<!-- Node8 -->
<g id="node8" class="node"><title>Node8</title>
<g id="a_node8"><a xlink:href="../../de/d24/mavlink__main_8cpp.html#ab81e9b009119f143f3b54a1390b92427" target="_top" xlink:title="mavlink app start / stop handling function ">
<polygon fill="white" stroke="black" points="1253.5,-50 1253.5,-69 1330.5,-69 1330.5,-50 1253.5,-50"/>
<text text-anchor="middle" x="1292" y="-57" font-family="Helvetica,sans-Serif" font-size="10.00">mavlink_main</text>
</a>
</g>
</g>
<!-- Node7&#45;&gt;Node8 -->
<g id="edge7" class="edge"><title>Node7&#45;&gt;Node8</title>
<path fill="none" stroke="midnightblue" d="M1010.9,-99.1599C1056.22,-94.7825 1126.44,-87.4087 1187,-78.5 1208.97,-75.268 1233.41,-70.8466 1253.07,-67.0821"/>
<polygon fill="midnightblue" stroke="midnightblue" points="1010.4,-95.6917 1000.77,-100.128 1011.06,-102.66 1010.4,-95.6917"/>
</g>
<!-- Node10 -->
<g id="node10" class="node"><title>Node10</title>
<g id="a_node10"><a xlink:href="../../df/d1f/class_mavlink.html#aacd190d885c0a9f521f0d7d0673f2b6f" target="_top" xlink:title="Flush the transmit buffer and send one MAVLink packet. ">
<polygon fill="white" stroke="black" points="1061.5,-126 1061.5,-145 1173.5,-145 1173.5,-126 1061.5,-126"/>
<text text-anchor="middle" x="1117.5" y="-133" font-family="Helvetica,sans-Serif" font-size="10.00">Mavlink::send_packet</text>
</a>
</g>
</g>
<!-- Node9&#45;&gt;Node10 -->
<g id="edge9" class="edge"><title>Node9&#45;&gt;Node10</title>
<path fill="none" stroke="midnightblue" d="M1002.74,-78.9909C1032.93,-93.9871 1073.36,-114.072 1097.01,-125.817"/>
<polygon fill="midnightblue" stroke="midnightblue" points="1004.24,-75.8293 993.728,-74.5152 1001.13,-82.0985 1004.24,-75.8293"/>
</g>
<!-- Node15 -->
<g id="node15" class="node"><title>Node15</title>
<g id="a_node15"><a xlink:href="../../df/d1f/class_mavlink.html#afcac36b1b581d47b7181374d35edbd54" target="_top" xlink:title="Set the boot complete flag on all instances. ">
<polygon fill="white" stroke="black" points="1048,-50 1048,-69 1187,-69 1187,-50 1048,-50"/>
<text text-anchor="middle" x="1117.5" y="-57" font-family="Helvetica,sans-Serif" font-size="10.00">Mavlink::set_boot_complete</text>
</a>
</g>
</g>
<!-- Node9&#45;&gt;Node15 -->
<g id="edge15" class="edge"><title>Node9&#45;&gt;Node15</title>
<path fill="none" stroke="midnightblue" d="M1022.59,-52.9078C1030.84,-52.7559 1039.37,-52.7137 1047.78,-52.7811"/>
<polygon fill="midnightblue" stroke="midnightblue" points="1022.24,-49.4152 1012.33,-53.1588 1022.41,-56.4131 1022.24,-49.4152"/>
</g>
<!-- Node11 -->
<g id="node11" class="node"><title>Node11</title>
<g id="a_node11"><a xlink:href="../../de/d24/mavlink__main_8cpp.html#a646c2f3486de3d8574422fc4ef1940a2" target="_top" xlink:title="mavlink_end_uart_send">
<polygon fill="white" stroke="black" points="1232.5,-88 1232.5,-107 1351.5,-107 1351.5,-88 1232.5,-88"/>
<text text-anchor="middle" x="1292" y="-95" font-family="Helvetica,sans-Serif" font-size="10.00">mavlink_end_uart_send</text>
</a>
</g>
</g>
<!-- Node10&#45;&gt;Node11 -->
<g id="edge10" class="edge"><title>Node10&#45;&gt;Node11</title>
<path fill="none" stroke="midnightblue" d="M1171.85,-123.747C1196.24,-118.374 1224.76,-112.091 1247.78,-107.02"/>
<polygon fill="midnightblue" stroke="midnightblue" points="1171.04,-120.342 1162.03,-125.911 1172.55,-127.178 1171.04,-120.342"/>
</g>
<!-- Node12 -->
<g id="node12" class="node"><title>Node12</title>
<g id="a_node12"><a xlink:href="../../df/d1f/class_mavlink.html#a3aa1fb0ca3f0d77b10a8954618a51abb" target="_top" xlink:title="Get the manual input generation mode. ">
<polygon fill="white" stroke="black" points="1231,-126.5 1231,-156.5 1353,-156.5 1353,-126.5 1231,-126.5"/>
<text text-anchor="start" x="1239" y="-144.5" font-family="Helvetica,sans-Serif" font-size="10.00">Mavlink::get_manual</text>
<text text-anchor="middle" x="1292" y="-133.5" font-family="Helvetica,sans-Serif" font-size="10.00">_input_mode_generation</text>
</a>
</g>
</g>
<!-- Node10&#45;&gt;Node12 -->
<g id="edge11" class="edge"><title>Node10&#45;&gt;Node12</title>
<path fill="none" stroke="midnightblue" d="M1183.57,-137.763C1199.07,-138.302 1215.53,-138.875 1230.8,-139.406"/>
<polygon fill="midnightblue" stroke="midnightblue" points="1183.67,-134.265 1173.55,-137.415 1183.43,-141.261 1183.67,-134.265"/>
</g>
<!-- Node13 -->
<g id="node13" class="node"><title>Node13</title>
<g id="a_node13"><a xlink:href="../../da/d89/class_mavlink_receiver.html#af99bf01b6ae13dab05c36c0125e179bc" target="_top" xlink:title="MavlinkReceiver::handle\l_message_manual_control">
<polygon fill="white" stroke="black" points="1399.5,-126.5 1399.5,-156.5 1532.5,-156.5 1532.5,-126.5 1399.5,-126.5"/>
<text text-anchor="start" x="1407.5" y="-144.5" font-family="Helvetica,sans-Serif" font-size="10.00">MavlinkReceiver::handle</text>
<text text-anchor="middle" x="1466" y="-133.5" font-family="Helvetica,sans-Serif" font-size="10.00">_message_manual_control</text>
</a>
</g>
</g>
<!-- Node12&#45;&gt;Node13 -->
<g id="edge12" class="edge"><title>Node12&#45;&gt;Node13</title>
<path fill="none" stroke="midnightblue" d="M1363.45,-141.5C1375.31,-141.5 1387.58,-141.5 1399.31,-141.5"/>
<polygon fill="midnightblue" stroke="midnightblue" points="1363.16,-138 1353.16,-141.5 1363.16,-145 1363.16,-138"/>
</g>
<!-- Node14 -->
<g id="node14" class="node"><title>Node14</title>
<g id="a_node14"><a xlink:href="../../da/d89/class_mavlink_receiver.html#ac939c806679dc4278968b1d3e865cc72" target="_top" xlink:title="MavlinkReceiver::handle\l_message">
<polygon fill="white" stroke="black" points="1578,-126.5 1578,-156.5 1702,-156.5 1702,-126.5 1578,-126.5"/>
<text text-anchor="start" x="1586" y="-144.5" font-family="Helvetica,sans-Serif" font-size="10.00">MavlinkReceiver::handle</text>
<text text-anchor="middle" x="1640" y="-133.5" font-family="Helvetica,sans-Serif" font-size="10.00">_message</text>
</a>
</g>
</g>
<!-- Node13&#45;&gt;Node14 -->
<g id="edge13" class="edge"><title>Node13&#45;&gt;Node14</title>
<path fill="none" stroke="midnightblue" d="M1542.76,-141.5C1554.52,-141.5 1566.53,-141.5 1577.91,-141.5"/>
<polygon fill="midnightblue" stroke="midnightblue" points="1542.52,-138 1532.52,-141.5 1542.52,-145 1542.52,-138"/>
</g>
<!-- Node14&#45;&gt;Node2 -->
<g id="edge14" class="edge"><title>Node14&#45;&gt;Node2</title>
<path fill="none" stroke="midnightblue" d="M1609.51,-162.272C1589.46,-175.271 1561.81,-191.096 1535,-199.5 1431.87,-231.832 1401.08,-223.5 1293,-223.5 532.5,-223.5 532.5,-223.5 532.5,-223.5 437.013,-223.5 411.647,-222.612 319,-199.5 295.979,-193.757 271.148,-183.899 252.176,-175.531"/>
<polygon fill="midnightblue" stroke="midnightblue" points="1611.48,-165.164 1617.88,-156.72 1607.61,-159.33 1611.48,-165.164"/>
</g>
<!-- Node15&#45;&gt;Node8 -->
<g id="edge16" class="edge"><title>Node15&#45;&gt;Node8</title>
<path fill="none" stroke="midnightblue" d="M1197.3,-59.5C1216.81,-59.5 1236.82,-59.5 1253.32,-59.5"/>
<polygon fill="midnightblue" stroke="midnightblue" points="1197.17,-56.0001 1187.17,-59.5 1197.17,-63.0001 1197.17,-56.0001"/>
</g>
<!-- Node15&#45;&gt;Node9 -->
<g id="edge17" class="edge"><title>Node15&#45;&gt;Node9</title>
<path fill="none" stroke="midnightblue" d="M1037.66,-66.2472C1029.03,-66.2264 1020.44,-66.0911 1012.33,-65.8412"/>
<polygon fill="midnightblue" stroke="midnightblue" points="1037.79,-69.7469 1047.78,-66.2189 1037.77,-62.747 1037.79,-69.7469"/>
</g>
<!-- Node15&#45;&gt;Node16 -->
<g id="edge18" class="edge"><title>Node15&#45;&gt;Node16</title>
<path fill="none" stroke="midnightblue" d="M1165.65,-47.4739C1186.11,-42.2547 1210.3,-36.0856 1231.94,-30.5654"/>
<polygon fill="midnightblue" stroke="midnightblue" points="1164.75,-44.0896 1155.93,-49.9527 1166.48,-50.8724 1164.75,-44.0896"/>
</g>
<!-- Node17 -->
<g id="node17" class="node"><title>Node17</title>
<g id="a_node17"><a xlink:href="../../df/d61/class_mavlink_parameters_manager.html#a3a6dff51ef5aba4f3dda19610510a45d" target="_top" xlink:title="Handle any open param send transfer. ">
<polygon fill="white" stroke="black" points="1397,-20.5 1397,-50.5 1535,-50.5 1535,-20.5 1397,-20.5"/>
<text text-anchor="start" x="1405" y="-38.5" font-family="Helvetica,sans-Serif" font-size="10.00">MavlinkParametersManager</text>
<text text-anchor="middle" x="1466" y="-27.5" font-family="Helvetica,sans-Serif" font-size="10.00">::send_params</text>
</a>
</g>
</g>
<!-- Node16&#45;&gt;Node17 -->
<g id="edge19" class="edge"><title>Node16&#45;&gt;Node17</title>
<path fill="none" stroke="midnightblue" d="M1371.64,-24.6438C1380.03,-25.6192 1388.51,-26.6056 1396.76,-27.5654"/>
<polygon fill="midnightblue" stroke="midnightblue" points="1371.81,-21.1405 1361.47,-23.462 1371,-28.0937 1371.81,-21.1405"/>
</g>
<!-- Node18 -->
<g id="node18" class="node"><title>Node18</title>
<g id="a_node18"><a xlink:href="../../df/d61/class_mavlink_parameters_manager.html#adbcd587c4ec1c0b94fe259047f8ec82e" target="_top" xlink:title="Handle sending of messages. ">
<polygon fill="white" stroke="black" points="1571,-39.5 1571,-69.5 1709,-69.5 1709,-39.5 1571,-39.5"/>
<text text-anchor="start" x="1579" y="-57.5" font-family="Helvetica,sans-Serif" font-size="10.00">MavlinkParametersManager</text>
<text text-anchor="middle" x="1640" y="-46.5" font-family="Helvetica,sans-Serif" font-size="10.00">::send</text>
</a>
</g>
</g>
<!-- Node17&#45;&gt;Node18 -->
<g id="edge20" class="edge"><title>Node17&#45;&gt;Node18</title>
<path fill="none" stroke="midnightblue" d="M1545.64,-44.1866C1554.03,-45.1133 1562.51,-46.0503 1570.76,-46.9621"/>
<polygon fill="midnightblue" stroke="midnightblue" points="1545.8,-40.6831 1535.47,-43.0639 1545.03,-47.6408 1545.8,-40.6831"/>
</g>
<!-- Node18&#45;&gt;Node2 -->
<g id="edge21" class="edge"><title>Node18&#45;&gt;Node2</title>
<path fill="none" stroke="midnightblue" d="M1612.7,-76.3126C1599.58,-87.7143 1583.83,-102.238 1571,-116.5 1552.93,-136.591 1558.59,-152.312 1535,-165.5 1440.8,-218.167 1400.92,-185.5 1293,-185.5 532.5,-185.5 532.5,-185.5 532.5,-185.5 445.827,-185.5 346.042,-175.795 283.13,-168.479"/>
<polygon fill="midnightblue" stroke="midnightblue" points="1615.16,-78.8133 1620.47,-69.647 1610.6,-73.4993 1615.16,-78.8133"/>
</g>
</g>
</svg>
