<?xml version="1.0" encoding="UTF-8" standalone="no"?>
<!DOCTYPE svg PUBLIC "-//W3C//DTD SVG 1.1//EN"
 "http://www.w3.org/Graphics/SVG/1.1/DTD/svg11.dtd">
<!-- Generated by graphviz version 2.38.0 (20140413.2041)
 -->
<!-- Title: Mavlink::set_hil_enabled Pages: 1 -->
<!--zoomable 232 -->
<svg id="main" version="1.1" xmlns="http://www.w3.org/2000/svg" xmlns:xlink="http://www.w3.org/1999/xlink" xml:space="preserve" onload="init(evt)">
<style type="text/css"><![CDATA[
.edge:hover path { stroke: red; }
.edge:hover polygon { stroke: red; fill: red; }
]]></style>
<script type="text/javascript"><![CDATA[
var edges = document.getElementsByTagName('g');
if (edges && edges.length) {
  for (var i=0;i<edges.length;i++) {
    if (edges[i].id.substr(0,4)=='edge') {
      edges[i].setAttribute('class','edge');
    }
  }
}
]]></script>
        <defs>
                <circle id="rim" cx="0" cy="0" r="7"/>
                <circle id="rim2" cx="0" cy="0" r="3.5"/>
                <g id="zoomPlus">
                        <use xlink:href="#rim" fill="#404040">
                                <set attributeName="fill" to="#808080" begin="zoomplus.mouseover" end="zoomplus.mouseout"/>
                        </use>
                        <path d="M-4,0h8M0,-4v8" fill="none" stroke="white" stroke-width="1.5" pointer-events="none"/>
                </g>
                <g id="zoomMin">
                        <use xlink:href="#rim" fill="#404040">
                                <set attributeName="fill" to="#808080" begin="zoomminus.mouseover" end="zoomminus.mouseout"/>
                        </use>
                        <path d="M-4,0h8" fill="none" stroke="white" stroke-width="1.5" pointer-events="none"/>
                </g>
                <g id="dirArrow">
                        <path fill="none" stroke="white" stroke-width="1.5" d="M0,-3.0v7 M-2.5,-0.5L0,-3.0L2.5,-0.5"/>
                </g>
               <g id="resetDef">
                       <use xlink:href="#rim2" fill="#404040">
                               <set attributeName="fill" to="#808080" begin="reset.mouseover" end="reset.mouseout"/>
                       </use>
               </g>
        </defs>

<script type="text/javascript">
var viewWidth = 1946;
var viewHeight = 232;
var sectionId = 'dynsection-129';
</script>
<script xlink:href="../../svgpan.js"/>
<svg id="graph" class="graph">
<g id="viewport">
<title>Mavlink::set_hil_enabled</title>
<polygon fill="white" stroke="none" points="-4,4 -4,-228.077 1942,-228.077 1942,4 -4,4"/>
<!-- Node1 -->
<g id="node1" class="node"><title>Node1</title>
<polygon fill="#bfbfbf" stroke="black" points="0,-38.5 0,-57.5 124,-57.5 124,-38.5 0,-38.5"/>
<text text-anchor="middle" x="62" y="-45.5" font-family="Helvetica,sans-Serif" font-size="10.00">Mavlink::set_hil_enabled</text>
</g>
<!-- Node2 -->
<g id="node2" class="node"><title>Node2</title>
<g id="a_node2"><a xlink:href="../../df/d1f/class_mavlink.html#af06ea4dffa8d7b911690a99456a4814a" target="_top" xlink:title="Mavlink::broadcast\l_enabled">
<polygon fill="white" stroke="black" points="160,-85 160,-115 259,-115 259,-85 160,-85"/>
<text text-anchor="start" x="168" y="-103" font-family="Helvetica,sans-Serif" font-size="10.00">Mavlink::broadcast</text>
<text text-anchor="middle" x="209.5" y="-92" font-family="Helvetica,sans-Serif" font-size="10.00">_enabled</text>
</a>
</g>
</g>
<!-- Node1&#45;&gt;Node2 -->
<g id="edge1" class="edge"><title>Node1&#45;&gt;Node2</title>
<path fill="none" stroke="midnightblue" d="M99.2158,-60.9431C119.552,-68.211 145.032,-77.3172 166.272,-84.9082"/>
<polygon fill="midnightblue" stroke="midnightblue" points="100.282,-57.6072 89.6869,-57.5376 97.9257,-64.1989 100.282,-57.6072"/>
</g>
<!-- Node10 -->
<g id="node10" class="node"><title>Node10</title>
<g id="a_node10"><a xlink:href="../../df/d1f/class_mavlink.html#a2325401a575b272fc1474d502388241f" target="_top" xlink:title="Main mavlink task. ">
<polygon fill="white" stroke="black" points="1469,-0.5 1469,-19.5 1570,-19.5 1570,-0.5 1469,-0.5"/>
<text text-anchor="middle" x="1519.5" y="-7.5" font-family="Helvetica,sans-Serif" font-size="10.00">Mavlink::task_main</text>
</a>
</g>
</g>
<!-- Node1&#45;&gt;Node10 -->
<g id="edge22" class="edge"><title>Node1&#45;&gt;Node10</title>
<path fill="none" stroke="midnightblue" d="M119.412,-36.5637C179.602,-25.3735 277.875,-10 363.5,-10 363.5,-10 363.5,-10 1213.5,-10 1303.52,-10 1408.48,-10 1468.84,-10"/>
<polygon fill="midnightblue" stroke="midnightblue" points="118.536,-33.1672 109.358,-38.46 119.834,-40.0459 118.536,-33.1672"/>
</g>
<!-- Node3 -->
<g id="node3" class="node"><title>Node3</title>
<g id="a_node3"><a xlink:href="../../df/d1f/class_mavlink.html#aacd190d885c0a9f521f0d7d0673f2b6f" target="_top" xlink:title="Flush the transmit buffer and send one MAVLink packet. ">
<polygon fill="white" stroke="black" points="308.5,-90.5 308.5,-109.5 420.5,-109.5 420.5,-90.5 308.5,-90.5"/>
<text text-anchor="middle" x="364.5" y="-97.5" font-family="Helvetica,sans-Serif" font-size="10.00">Mavlink::send_packet</text>
</a>
</g>
</g>
<!-- Node2&#45;&gt;Node3 -->
<g id="edge2" class="edge"><title>Node2&#45;&gt;Node3</title>
<path fill="none" stroke="midnightblue" d="M269.446,-100C282.282,-100 295.815,-100 308.491,-100"/>
<polygon fill="midnightblue" stroke="midnightblue" points="269.331,-96.5001 259.331,-100 269.331,-103.5 269.331,-96.5001"/>
</g>
<!-- Node15 -->
<g id="node15" class="node"><title>Node15</title>
<g id="a_node15"><a xlink:href="../../df/d1f/class_mavlink.html#afcac36b1b581d47b7181374d35edbd54" target="_top" xlink:title="Set the boot complete flag on all instances. ">
<polygon fill="white" stroke="black" points="295,-155.5 295,-174.5 434,-174.5 434,-155.5 295,-155.5"/>
<text text-anchor="middle" x="364.5" y="-162.5" font-family="Helvetica,sans-Serif" font-size="10.00">Mavlink::set_boot_complete</text>
</a>
</g>
</g>
<!-- Node2&#45;&gt;Node15 -->
<g id="edge15" class="edge"><title>Node2&#45;&gt;Node15</title>
<path fill="none" stroke="midnightblue" d="M268.844,-118.208C298.641,-130.293 332.339,-145.473 350.4,-155.448"/>
<polygon fill="midnightblue" stroke="midnightblue" points="269.916,-114.868 259.331,-114.404 267.316,-121.367 269.916,-114.868"/>
</g>
<!-- Node4 -->
<g id="node4" class="node"><title>Node4</title>
<g id="a_node4"><a xlink:href="../../df/d1f/class_mavlink.html#a3aa1fb0ca3f0d77b10a8954618a51abb" target="_top" xlink:title="Get the manual input generation mode. ">
<polygon fill="white" stroke="black" points="478,-115 478,-145 600,-145 600,-115 478,-115"/>
<text text-anchor="start" x="486" y="-133" font-family="Helvetica,sans-Serif" font-size="10.00">Mavlink::get_manual</text>
<text text-anchor="middle" x="539" y="-122" font-family="Helvetica,sans-Serif" font-size="10.00">_input_mode_generation</text>
</a>
</g>
</g>
<!-- Node3&#45;&gt;Node4 -->
<g id="edge3" class="edge"><title>Node3&#45;&gt;Node4</title>
<path fill="none" stroke="midnightblue" d="M430.573,-111.317C446.066,-114.012 462.531,-116.875 477.796,-119.53"/>
<polygon fill="midnightblue" stroke="midnightblue" points="431.006,-107.84 420.554,-109.575 429.807,-114.736 431.006,-107.84"/>
</g>
<!-- Node14 -->
<g id="node14" class="node"><title>Node14</title>
<g id="a_node14"><a xlink:href="../../de/d24/mavlink__main_8cpp.html#a646c2f3486de3d8574422fc4ef1940a2" target="_top" xlink:title="mavlink_end_uart_send">
<polygon fill="white" stroke="black" points="479.5,-76.5 479.5,-95.5 598.5,-95.5 598.5,-76.5 479.5,-76.5"/>
<text text-anchor="middle" x="539" y="-83.5" font-family="Helvetica,sans-Serif" font-size="10.00">mavlink_end_uart_send</text>
</a>
</g>
</g>
<!-- Node3&#45;&gt;Node14 -->
<g id="edge14" class="edge"><title>Node3&#45;&gt;Node14</title>
<path fill="none" stroke="midnightblue" d="M430.848,-94.6964C446.772,-93.404 463.707,-92.0295 479.3,-90.764"/>
<polygon fill="midnightblue" stroke="midnightblue" points="430.238,-91.2343 420.554,-95.5318 430.805,-98.2113 430.238,-91.2343"/>
</g>
<!-- Node5 -->
<g id="node5" class="node"><title>Node5</title>
<g id="a_node5"><a xlink:href="../../da/d89/class_mavlink_receiver.html#af99bf01b6ae13dab05c36c0125e179bc" target="_top" xlink:title="MavlinkReceiver::handle\l_message_manual_control">
<polygon fill="white" stroke="black" points="646.5,-115 646.5,-145 779.5,-145 779.5,-115 646.5,-115"/>
<text text-anchor="start" x="654.5" y="-133" font-family="Helvetica,sans-Serif" font-size="10.00">MavlinkReceiver::handle</text>
<text text-anchor="middle" x="713" y="-122" font-family="Helvetica,sans-Serif" font-size="10.00">_message_manual_control</text>
</a>
</g>
</g>
<!-- Node4&#45;&gt;Node5 -->
<g id="edge4" class="edge"><title>Node4&#45;&gt;Node5</title>
<path fill="none" stroke="midnightblue" d="M610.45,-130C622.308,-130 634.575,-130 646.307,-130"/>
<polygon fill="midnightblue" stroke="midnightblue" points="610.157,-126.5 600.157,-130 610.157,-133.5 610.157,-126.5"/>
</g>
<!-- Node6 -->
<g id="node6" class="node"><title>Node6</title>
<g id="a_node6"><a xlink:href="../../da/d89/class_mavlink_receiver.html#ac939c806679dc4278968b1d3e865cc72" target="_top" xlink:title="MavlinkReceiver::handle\l_message">
<polygon fill="white" stroke="black" points="825,-115 825,-145 949,-145 949,-115 825,-115"/>
<text text-anchor="start" x="833" y="-133" font-family="Helvetica,sans-Serif" font-size="10.00">MavlinkReceiver::handle</text>
<text text-anchor="middle" x="887" y="-122" font-family="Helvetica,sans-Serif" font-size="10.00">_message</text>
</a>
</g>
</g>
<!-- Node5&#45;&gt;Node6 -->
<g id="edge5" class="edge"><title>Node5&#45;&gt;Node6</title>
<path fill="none" stroke="midnightblue" d="M789.759,-130C801.515,-130 813.531,-130 824.91,-130"/>
<polygon fill="midnightblue" stroke="midnightblue" points="789.517,-126.5 779.516,-130 789.516,-133.5 789.517,-126.5"/>
</g>
<!-- Node7 -->
<g id="node7" class="node"><title>Node7</title>
<g id="a_node7"><a xlink:href="../../da/d89/class_mavlink_receiver.html#abf05ea2b60baafd446100f897f9274ab" target="_top" xlink:title="Receive data from UART. ">
<polygon fill="white" stroke="black" points="992,-115 992,-145 1119,-145 1119,-115 992,-115"/>
<text text-anchor="start" x="1000" y="-133" font-family="Helvetica,sans-Serif" font-size="10.00">MavlinkReceiver::receive</text>
<text text-anchor="middle" x="1055.5" y="-122" font-family="Helvetica,sans-Serif" font-size="10.00">_thread</text>
</a>
</g>
</g>
<!-- Node6&#45;&gt;Node7 -->
<g id="edge6" class="edge"><title>Node6&#45;&gt;Node7</title>
<path fill="none" stroke="midnightblue" d="M959.301,-130C970.102,-130 981.178,-130 991.78,-130"/>
<polygon fill="midnightblue" stroke="midnightblue" points="959.053,-126.5 949.053,-130 959.053,-133.5 959.053,-126.5"/>
</g>
<!-- Node8 -->
<g id="node8" class="node"><title>Node8</title>
<g id="a_node8"><a xlink:href="../../da/d89/class_mavlink_receiver.html#a4e6d064186fe746bc3934959a991a908" target="_top" xlink:title="MavlinkReceiver::start\l_helper">
<polygon fill="white" stroke="black" points="1155,-106 1155,-136 1270,-136 1270,-106 1155,-106"/>
<text text-anchor="start" x="1163" y="-124" font-family="Helvetica,sans-Serif" font-size="10.00">MavlinkReceiver::start</text>
<text text-anchor="middle" x="1212.5" y="-113" font-family="Helvetica,sans-Serif" font-size="10.00">_helper</text>
</a>
</g>
</g>
<!-- Node7&#45;&gt;Node8 -->
<g id="edge7" class="edge"><title>Node7&#45;&gt;Node8</title>
<path fill="none" stroke="midnightblue" d="M1129.11,-125.784C1137.69,-125.286 1146.35,-124.783 1154.67,-124.3"/>
<polygon fill="midnightblue" stroke="midnightblue" points="1128.88,-122.291 1119.1,-126.365 1129.28,-129.28 1128.88,-122.291"/>
</g>
<!-- Node9 -->
<g id="node9" class="node"><title>Node9</title>
<g id="a_node9"><a xlink:href="../../da/d89/class_mavlink_receiver.html#aae6564d759626eeebeb19a9dfbdcaf6d" target="_top" xlink:title="Start the receiver thread. ">
<polygon fill="white" stroke="black" points="1306,-87 1306,-117 1433,-117 1433,-87 1306,-87"/>
<text text-anchor="start" x="1314" y="-105" font-family="Helvetica,sans-Serif" font-size="10.00">MavlinkReceiver::receive</text>
<text text-anchor="middle" x="1369.5" y="-94" font-family="Helvetica,sans-Serif" font-size="10.00">_start</text>
</a>
</g>
</g>
<!-- Node8&#45;&gt;Node9 -->
<g id="edge8" class="edge"><title>Node8&#45;&gt;Node9</title>
<path fill="none" stroke="midnightblue" d="M1280.51,-112.785C1288.95,-111.751 1297.56,-110.696 1305.92,-109.671"/>
<polygon fill="midnightblue" stroke="midnightblue" points="1279.84,-109.342 1270.34,-114.033 1280.69,-116.29 1279.84,-109.342"/>
</g>
<!-- Node9&#45;&gt;Node10 -->
<g id="edge9" class="edge"><title>Node9&#45;&gt;Node10</title>
<path fill="none" stroke="midnightblue" d="M1403.69,-81.3675C1434.74,-62.0681 1479.73,-34.1009 1503.1,-19.5718"/>
<polygon fill="midnightblue" stroke="midnightblue" points="1401.58,-78.5562 1394.94,-86.8081 1405.28,-84.5012 1401.58,-78.5562"/>
</g>
<!-- Node11 -->
<g id="node11" class="node"><title>Node11</title>
<g id="a_node11"><a xlink:href="../../df/d1f/class_mavlink.html#aad2c17a259e6cfbfe20113c8da8f6cae" target="_top" xlink:title="Mavlink::start_helper">
<polygon fill="white" stroke="black" points="1606,-38.5 1606,-57.5 1713,-57.5 1713,-38.5 1606,-38.5"/>
<text text-anchor="middle" x="1659.5" y="-45.5" font-family="Helvetica,sans-Serif" font-size="10.00">Mavlink::start_helper</text>
</a>
</g>
</g>
<!-- Node10&#45;&gt;Node11 -->
<g id="edge10" class="edge"><title>Node10&#45;&gt;Node11</title>
<path fill="none" stroke="midnightblue" d="M1564.97,-22.2462C1583.99,-27.484 1605.88,-33.5091 1623.69,-38.4141"/>
<polygon fill="midnightblue" stroke="midnightblue" points="1565.89,-18.8695 1555.32,-19.589 1564.04,-25.6183 1565.89,-18.8695"/>
</g>
<!-- Node11&#45;&gt;Node2 -->
<g id="edge13" class="edge"><title>Node11&#45;&gt;Node2</title>
<path fill="none" stroke="midnightblue" d="M1595.78,-48C1537.44,-48 1448.09,-48 1370.5,-48 538,-48 538,-48 538,-48 437.972,-48 322.862,-71.9537 259.22,-87.3459"/>
<polygon fill="midnightblue" stroke="midnightblue" points="1595.95,-51.5001 1605.95,-48 1595.95,-44.5001 1595.95,-51.5001"/>
</g>
<!-- Node12 -->
<g id="node12" class="node"><title>Node12</title>
<g id="a_node12"><a xlink:href="../../df/d1f/class_mavlink.html#a3f96c3503833a477332c8584bb8fbc67" target="_top" xlink:title="Start the mavlink task. ">
<polygon fill="white" stroke="black" points="1749,-106.5 1749,-125.5 1825,-125.5 1825,-106.5 1749,-106.5"/>
<text text-anchor="middle" x="1787" y="-113.5" font-family="Helvetica,sans-Serif" font-size="10.00">Mavlink::start</text>
</a>
</g>
</g>
<!-- Node11&#45;&gt;Node12 -->
<g id="edge11" class="edge"><title>Node11&#45;&gt;Node12</title>
<path fill="none" stroke="midnightblue" d="M1687.32,-62.5344C1711.81,-75.8014 1747.3,-95.0314 1768.38,-106.45"/>
<polygon fill="midnightblue" stroke="midnightblue" points="1688.67,-59.2852 1678.21,-57.5985 1685.34,-65.4398 1688.67,-59.2852"/>
</g>
<!-- Node13 -->
<g id="node13" class="node"><title>Node13</title>
<g id="a_node13"><a xlink:href="../../de/d24/mavlink__main_8cpp.html#ab81e9b009119f143f3b54a1390b92427" target="_top" xlink:title="mavlink app start / stop handling function ">
<polygon fill="white" stroke="black" points="1861,-159.5 1861,-178.5 1938,-178.5 1938,-159.5 1861,-159.5"/>
<text text-anchor="middle" x="1899.5" y="-166.5" font-family="Helvetica,sans-Serif" font-size="10.00">mavlink_main</text>
</a>
</g>
</g>
<!-- Node12&#45;&gt;Node13 -->
<g id="edge12" class="edge"><title>Node12&#45;&gt;Node13</title>
<path fill="none" stroke="midnightblue" d="M1817.03,-129.923C1836.44,-139.234 1861.47,-151.241 1878.64,-159.474"/>
<polygon fill="midnightblue" stroke="midnightblue" points="1818.54,-126.767 1808.01,-125.598 1815.51,-133.078 1818.54,-126.767"/>
</g>
<!-- Node15&#45;&gt;Node2 -->
<g id="edge16" class="edge"><title>Node15&#45;&gt;Node2</title>
<path fill="none" stroke="midnightblue" d="M317.916,-151.868C290.349,-141.128 256.341,-126.28 234.071,-115.05"/>
<polygon fill="midnightblue" stroke="midnightblue" points="316.779,-155.181 327.369,-155.484 319.279,-148.642 316.779,-155.181"/>
</g>
<!-- Node15&#45;&gt;Node13 -->
<g id="edge17" class="edge"><title>Node15&#45;&gt;Node13</title>
<path fill="none" stroke="midnightblue" d="M395.233,-178.635C415.785,-187.423 444.003,-198.247 470,-204 575.338,-227.31 604.113,-223 712,-223 712,-223 712,-223 1660.5,-223 1739.94,-223 1830.69,-194.032 1873.56,-178.53"/>
<polygon fill="midnightblue" stroke="midnightblue" points="396.367,-175.311 385.802,-174.516 393.565,-181.726 396.367,-175.311"/>
</g>
<!-- Node16 -->
<g id="node16" class="node"><title>Node16</title>
<g id="a_node16"><a xlink:href="../../df/d61/class_mavlink_parameters_manager.html#acd8734b77582ad7626f5230c1707e04c" target="_top" xlink:title="send a single param if a PARAM_REQUEST_LIST is in progress ">
<polygon fill="white" stroke="black" points="470,-164 470,-194 608,-194 608,-164 470,-164"/>
<text text-anchor="start" x="478" y="-182" font-family="Helvetica,sans-Serif" font-size="10.00">MavlinkParametersManager</text>
<text text-anchor="middle" x="539" y="-171" font-family="Helvetica,sans-Serif" font-size="10.00">::send_one</text>
</a>
</g>
</g>
<!-- Node15&#45;&gt;Node16 -->
<g id="edge18" class="edge"><title>Node15&#45;&gt;Node16</title>
<path fill="none" stroke="midnightblue" d="M444.169,-171.385C452.741,-172.08 461.414,-172.784 469.846,-173.469"/>
<polygon fill="midnightblue" stroke="midnightblue" points="444.423,-167.894 434.172,-170.573 443.856,-174.871 444.423,-167.894"/>
</g>
<!-- Node17 -->
<g id="node17" class="node"><title>Node17</title>
<g id="a_node17"><a xlink:href="../../df/d61/class_mavlink_parameters_manager.html#a3a6dff51ef5aba4f3dda19610510a45d" target="_top" xlink:title="Handle any open param send transfer. ">
<polygon fill="white" stroke="black" points="644,-164 644,-194 782,-194 782,-164 644,-164"/>
<text text-anchor="start" x="652" y="-182" font-family="Helvetica,sans-Serif" font-size="10.00">MavlinkParametersManager</text>
<text text-anchor="middle" x="713" y="-171" font-family="Helvetica,sans-Serif" font-size="10.00">::send_params</text>
</a>
</g>
</g>
<!-- Node16&#45;&gt;Node17 -->
<g id="edge19" class="edge"><title>Node16&#45;&gt;Node17</title>
<path fill="none" stroke="midnightblue" d="M618.637,-179C627.025,-179 635.508,-179 643.762,-179"/>
<polygon fill="midnightblue" stroke="midnightblue" points="618.473,-175.5 608.473,-179 618.473,-182.5 618.473,-175.5"/>
</g>
<!-- Node18 -->
<g id="node18" class="node"><title>Node18</title>
<g id="a_node18"><a xlink:href="../../df/d61/class_mavlink_parameters_manager.html#adbcd587c4ec1c0b94fe259047f8ec82e" target="_top" xlink:title="Handle sending of messages. ">
<polygon fill="white" stroke="black" points="818,-164 818,-194 956,-194 956,-164 818,-164"/>
<text text-anchor="start" x="826" y="-182" font-family="Helvetica,sans-Serif" font-size="10.00">MavlinkParametersManager</text>
<text text-anchor="middle" x="887" y="-171" font-family="Helvetica,sans-Serif" font-size="10.00">::send</text>
</a>
</g>
</g>
<!-- Node17&#45;&gt;Node18 -->
<g id="edge20" class="edge"><title>Node17&#45;&gt;Node18</title>
<path fill="none" stroke="midnightblue" d="M792.637,-179C801.025,-179 809.508,-179 817.762,-179"/>
<polygon fill="midnightblue" stroke="midnightblue" points="792.473,-175.5 782.473,-179 792.473,-182.5 792.473,-175.5"/>
</g>
<!-- Node18&#45;&gt;Node7 -->
<g id="edge21" class="edge"><title>Node18&#45;&gt;Node7</title>
<path fill="none" stroke="midnightblue" d="M949.051,-161.033C966.891,-155.783 986.197,-150.101 1003.36,-145.052"/>
<polygon fill="midnightblue" stroke="midnightblue" points="947.919,-157.718 939.314,-163.899 949.895,-164.433 947.919,-157.718"/>
</g>
</g>
</svg>
        <g id="navigator" transform="translate(0 0)" fill="#404254">
                <rect fill="#f2f5e9" fill-opacity="0.5" stroke="#606060" stroke-width=".5" x="0" y="0" width="60" height="60"/>
                <use id="zoomplus" xlink:href="#zoomPlus" x="17" y="9" onmousedown="handleZoom(evt,'in')"/>
                <use id="zoomminus" xlink:href="#zoomMin" x="42" y="9" onmousedown="handleZoom(evt,'out')"/>
                <use id="reset" xlink:href="#resetDef" x="30" y="36" onmousedown="handleReset()"/>
                <g id="arrowUp" xlink:href="#dirArrow" transform="translate(30 24)" onmousedown="handlePan(0,-1)">
                  <use xlink:href="#rim" fill="#404040">
                        <set attributeName="fill" to="#808080" begin="arrowUp.mouseover" end="arrowUp.mouseout"/>
                  </use>
                  <path fill="none" stroke="white" stroke-width="1.5" d="M0,-3.0v7 M-2.5,-0.5L0,-3.0L2.5,-0.5"/>
                </g>
                <g id="arrowRight" xlink:href="#dirArrow" transform="rotate(90) translate(36 -43)" onmousedown="handlePan(1,0)">
                  <use xlink:href="#rim" fill="#404040">
                        <set attributeName="fill" to="#808080" begin="arrowRight.mouseover" end="arrowRight.mouseout"/>
                  </use>
                  <path fill="none" stroke="white" stroke-width="1.5" d="M0,-3.0v7 M-2.5,-0.5L0,-3.0L2.5,-0.5"/>
                </g>
                <g id="arrowDown" xlink:href="#dirArrow" transform="rotate(180) translate(-30 -48)" onmousedown="handlePan(0,1)">
                  <use xlink:href="#rim" fill="#404040">
                        <set attributeName="fill" to="#808080" begin="arrowDown.mouseover" end="arrowDown.mouseout"/>
                  </use>
                  <path fill="none" stroke="white" stroke-width="1.5" d="M0,-3.0v7 M-2.5,-0.5L0,-3.0L2.5,-0.5"/>
                </g>
                <g id="arrowLeft" xlink:href="#dirArrow" transform="rotate(270) translate(-36 17)" onmousedown="handlePan(-1,0)">
                  <use xlink:href="#rim" fill="#404040">
                        <set attributeName="fill" to="#808080" begin="arrowLeft.mouseover" end="arrowLeft.mouseout"/>
                  </use>
                  <path fill="none" stroke="white" stroke-width="1.5" d="M0,-3.0v7 M-2.5,-0.5L0,-3.0L2.5,-0.5"/>
                </g>
        </g>
        <svg viewBox="0 0 15 15" width="100%" height="30px" preserveAspectRatio="xMaxYMin meet">
         <g id="arrow_out" transform="scale(0.3 0.3)">
          <a xlink:href="class_mavlink_aad92fc54f22931354d829d906b1dcb87_icgraph_org.svg" target="_base">
           <rect id="button" ry="5" rx="5" y="6" x="6" height="38" width="38"
                fill="#f2f5e9" fill-opacity="0.5" stroke="#606060" stroke-width="1.0"/>
           <path id="arrow"
             d="M 11.500037,31.436501 C 11.940474,20.09759 22.043105,11.32322 32.158766,21.979434 L 37.068811,17.246167 C 37.068811,17.246167 37.088388,32 37.088388,32 L 22.160133,31.978069 C 22.160133,31.978069 26.997745,27.140456 26.997745,27.140456 C 18.528582,18.264221 13.291696,25.230495 11.500037,31.436501 z"
             style="fill:#404040;"/>
          </a>
         </g>
        </svg>
</svg>
