<?xml version="1.0" encoding="UTF-8" standalone="no"?>
<!DOCTYPE svg PUBLIC "-//W3C//DTD SVG 1.1//EN"
 "http://www.w3.org/Graphics/SVG/1.1/DTD/svg11.dtd">
<!-- Generated by graphviz version 2.38.0 (20140413.2041)
 -->
<!-- Title: Mavlink::forward_message Pages: 1 -->
<svg width="462pt" height="116pt"
 viewBox="0.00 0.00 462.00 116.00" xmlns="http://www.w3.org/2000/svg" xmlns:xlink="http://www.w3.org/1999/xlink">
<g id="graph0" class="graph" transform="scale(1 1) rotate(0) translate(4 112)">
<title>Mavlink::forward_message</title>
<polygon fill="white" stroke="none" points="-4,4 -4,-112 458,-112 458,4 -4,4"/>
<!-- Node1 -->
<g id="node1" class="node"><title>Node1</title>
<polygon fill="#bfbfbf" stroke="black" points="0,-44.5 0,-63.5 134,-63.5 134,-44.5 0,-44.5"/>
<text text-anchor="middle" x="67" y="-51.5" font-family="Helvetica,sans-Serif" font-size="10.00">Mavlink::forward_message</text>
</g>
<!-- Node2 -->
<g id="node2" class="node"><title>Node2</title>
<g id="a_node2"><a xlink:href="../../df/d1f/class_mavlink.html#ac072e28c067a66b0301c90092e3995a7" target="_top" xlink:title="Mavlink::pass_message">
<polygon fill="white" stroke="black" points="170,-44.5 170,-63.5 292,-63.5 292,-44.5 170,-44.5"/>
<text text-anchor="middle" x="231" y="-51.5" font-family="Helvetica,sans-Serif" font-size="10.00">Mavlink::pass_message</text>
</a>
</g>
</g>
<!-- Node1&#45;&gt;Node2 -->
<g id="edge1" class="edge"><title>Node1&#45;&gt;Node2</title>
<path fill="none" stroke="midnightblue" d="M134.359,-54C142.745,-54 151.348,-54 159.792,-54"/>
<polygon fill="midnightblue" stroke="midnightblue" points="159.987,-57.5001 169.987,-54 159.987,-50.5001 159.987,-57.5001"/>
</g>
<!-- Node3 -->
<g id="node3" class="node"><title>Node3</title>
<g id="a_node3"><a xlink:href="../../d6/dfb/stubs__posix_8c.html#a12809c44718c21544ceb280dc1a53573" target="_top" xlink:title="pthread_mutex_lock">
<polygon fill="white" stroke="black" points="339,-88.5 339,-107.5 443,-107.5 443,-88.5 339,-88.5"/>
<text text-anchor="middle" x="391" y="-95.5" font-family="Helvetica,sans-Serif" font-size="10.00">pthread_mutex_lock</text>
</a>
</g>
</g>
<!-- Node2&#45;&gt;Node3 -->
<g id="edge2" class="edge"><title>Node2&#45;&gt;Node3</title>
<path fill="none" stroke="midnightblue" d="M266.284,-63.5473C289.68,-70.0627 320.878,-78.7508 346.091,-85.7722"/>
<polygon fill="midnightblue" stroke="midnightblue" points="345.211,-89.1602 355.783,-88.4713 347.089,-82.4168 345.211,-89.1602"/>
</g>
<!-- Node4 -->
<g id="node4" class="node"><title>Node4</title>
<g id="a_node4"><a xlink:href="../../df/d1f/class_mavlink.html#a1c7d9b0bcbd0ba099fe6ef7958e4f527" target="_top" xlink:title="Mavlink::message_buffer\l_write">
<polygon fill="white" stroke="black" points="328,-39 328,-69 454,-69 454,-39 328,-39"/>
<text text-anchor="start" x="336" y="-57" font-family="Helvetica,sans-Serif" font-size="10.00">Mavlink::message_buffer</text>
<text text-anchor="middle" x="391" y="-46" font-family="Helvetica,sans-Serif" font-size="10.00">_write</text>
</a>
</g>
</g>
<!-- Node2&#45;&gt;Node4 -->
<g id="edge3" class="edge"><title>Node2&#45;&gt;Node4</title>
<path fill="none" stroke="midnightblue" d="M292.184,-54C300.583,-54 309.284,-54 317.875,-54"/>
<polygon fill="midnightblue" stroke="midnightblue" points="317.886,-57.5001 327.886,-54 317.885,-50.5001 317.886,-57.5001"/>
</g>
<!-- Node5 -->
<g id="node5" class="node"><title>Node5</title>
<g id="a_node5"><a xlink:href="../../d6/dfb/stubs__posix_8c.html#a96184290ffb60e04c53a52869cf960a2" target="_top" xlink:title="pthread_mutex_unlock">
<polygon fill="white" stroke="black" points="333.5,-0.5 333.5,-19.5 448.5,-19.5 448.5,-0.5 333.5,-0.5"/>
<text text-anchor="middle" x="391" y="-7.5" font-family="Helvetica,sans-Serif" font-size="10.00">pthread_mutex_unlock</text>
</a>
</g>
</g>
<!-- Node2&#45;&gt;Node5 -->
<g id="edge4" class="edge"><title>Node2&#45;&gt;Node5</title>
<path fill="none" stroke="midnightblue" d="M266.284,-44.4527C289.68,-37.9373 320.878,-29.2492 346.091,-22.2278"/>
<polygon fill="midnightblue" stroke="midnightblue" points="347.089,-25.5832 355.783,-19.5287 345.211,-18.8398 347.089,-25.5832"/>
</g>
</g>
</svg>
