<?xml version="1.0" encoding="UTF-8" standalone="no"?>
<!DOCTYPE svg PUBLIC "-//W3C//DTD SVG 1.1//EN"
 "http://www.w3.org/Graphics/SVG/1.1/DTD/svg11.dtd">
<!-- Generated by graphviz version 2.40.1 (20161225.0304)
 -->
<!-- Title: set_nav_state Pages: 1 -->
<svg width="520pt" height="302pt"
 viewBox="0.00 0.00 520.00 302.00" xmlns="http://www.w3.org/2000/svg" xmlns:xlink="http://www.w3.org/1999/xlink">
<g id="graph0" class="graph" transform="scale(1 1) rotate(0) translate(4 298)">
<title>set_nav_state</title>
<polygon fill="#ffffff" stroke="transparent" points="-4,4 -4,-298 516,-298 516,4 -4,4"/>
<!-- Node193 -->
<g id="node1" class="node">
<title>Node193</title>
<polygon fill="#bfbfbf" stroke="#000000" points="0,-143 0,-162 78,-162 78,-143 0,-143"/>
<text text-anchor="middle" x="39" y="-150" font-family="Helvetica,sans-Serif" font-size="10.00" fill="#000000">set_nav_state</text>
</g>
<!-- Node194 -->
<g id="node2" class="node">
<title>Node194</title>
<g id="a_node2"><a xlink:href="../../df/d25/state__machine__helper_8cpp.html#a304c1fd1a66bc2c63e0e804cdee1e3ea" target="_top" xlink:title="check_invalid_pos_nav\l_state">
<polygon fill="#ffffff" stroke="#000000" points="116,-263.5 116,-293.5 234,-293.5 234,-263.5 116,-263.5"/>
<text text-anchor="start" x="124" y="-281.5" font-family="Helvetica,sans-Serif" font-size="10.00" fill="#000000">check_invalid_pos_nav</text>
<text text-anchor="middle" x="175" y="-270.5" font-family="Helvetica,sans-Serif" font-size="10.00" fill="#000000">_state</text>
</a>
</g>
</g>
<!-- Node193&#45;&gt;Node194 -->
<g id="edge1" class="edge">
<title>Node193&#45;&gt;Node194</title>
<path fill="none" stroke="#191970" d="M44.4631,-162.1122C55.5045,-180.8363 82.1557,-222.6258 114,-248.5 118.5181,-252.1711 123.56,-255.5413 128.7559,-258.5903"/>
<polygon fill="#191970" stroke="#191970" points="127.1271,-261.6887 137.5805,-263.4146 130.485,-255.5466 127.1271,-261.6887"/>
</g>
<!-- Node195 -->
<g id="node3" class="node">
<title>Node195</title>
<g id="a_node3"><a xlink:href="../../df/d25/state__machine__helper_8cpp.html#a540c6635715556661b9f882df5b82188" target="_top" xlink:title="Enable failsafe and report to user. ">
<polygon fill="#ffffff" stroke="#000000" points="286,-247 286,-266 368,-266 368,-247 286,-247"/>
<text text-anchor="middle" x="327" y="-254" font-family="Helvetica,sans-Serif" font-size="10.00" fill="#000000">enable_failsafe</text>
</a>
</g>
</g>
<!-- Node193&#45;&gt;Node195 -->
<g id="edge3" class="edge">
<title>Node193&#45;&gt;Node195</title>
<path fill="none" stroke="#191970" d="M47.5985,-162.3812C60.5124,-176.5402 86.3642,-202.3404 114,-215.5 165.7306,-240.1331 231.2086,-249.9682 275.8204,-253.8939"/>
<polygon fill="#191970" stroke="#191970" points="275.5989,-257.3874 285.8493,-254.708 276.1653,-250.4103 275.5989,-257.3874"/>
</g>
<!-- Node196 -->
<g id="node4" class="node">
<title>Node196</title>
<g id="a_node4"><a xlink:href="../../df/d25/state__machine__helper_8cpp.html#a224cf6c5d191a71969240e8029bdce8b" target="_top" xlink:title="reset_link_loss_globals">
<polygon fill="#ffffff" stroke="#000000" points="116,-187 116,-206 234,-206 234,-187 116,-187"/>
<text text-anchor="middle" x="175" y="-194" font-family="Helvetica,sans-Serif" font-size="10.00" fill="#000000">reset_link_loss_globals</text>
</a>
</g>
</g>
<!-- Node193&#45;&gt;Node196 -->
<g id="edge4" class="edge">
<title>Node193&#45;&gt;Node196</title>
<path fill="none" stroke="#191970" d="M67.0925,-162.0106C81.1558,-166.7344 98.4548,-172.4887 114,-177.5 120.5256,-179.6037 127.4563,-181.7991 134.2159,-183.9195"/>
<polygon fill="#191970" stroke="#191970" points="133.3415,-187.313 143.9302,-186.9528 135.4279,-180.6312 133.3415,-187.313"/>
</g>
<!-- Node197 -->
<g id="node5" class="node">
<title>Node197</title>
<g id="a_node5"><a xlink:href="../../df/d25/state__machine__helper_8cpp.html#a09d2237e1fe93addcb59ada1dd6e64e9" target="_top" xlink:title="reset_offboard_loss\l_globals">
<polygon fill="#ffffff" stroke="#000000" points="124,-137.5 124,-167.5 226,-167.5 226,-137.5 124,-137.5"/>
<text text-anchor="start" x="132" y="-155.5" font-family="Helvetica,sans-Serif" font-size="10.00" fill="#000000">reset_offboard_loss</text>
<text text-anchor="middle" x="175" y="-144.5" font-family="Helvetica,sans-Serif" font-size="10.00" fill="#000000">_globals</text>
</a>
</g>
</g>
<!-- Node193&#45;&gt;Node197 -->
<g id="edge5" class="edge">
<title>Node193&#45;&gt;Node197</title>
<path fill="none" stroke="#191970" d="M78.3368,-152.5C89.2584,-152.5 101.3875,-152.5 113.2599,-152.5"/>
<polygon fill="#191970" stroke="#191970" points="113.5903,-156.0001 123.5903,-152.5 113.5903,-149.0001 113.5903,-156.0001"/>
</g>
<!-- Node198 -->
<g id="node6" class="node">
<title>Node198</title>
<g id="a_node6"><a xlink:href="../../df/d25/state__machine__helper_8cpp.html#ae8ba9a46324dfa3cc3ff2424540c8ad1" target="_top" xlink:title="set_link_loss_nav_state">
<polygon fill="#ffffff" stroke="#000000" points="114,-99 114,-118 236,-118 236,-99 114,-99"/>
<text text-anchor="middle" x="175" y="-106" font-family="Helvetica,sans-Serif" font-size="10.00" fill="#000000">set_link_loss_nav_state</text>
</a>
</g>
</g>
<!-- Node193&#45;&gt;Node198 -->
<g id="edge6" class="edge">
<title>Node193&#45;&gt;Node198</title>
<path fill="none" stroke="#191970" d="M67.0925,-142.9894C81.1558,-138.2656 98.4548,-132.5113 114,-127.5 120.5256,-125.3963 127.4563,-123.2009 134.2159,-121.0805"/>
<polygon fill="#191970" stroke="#191970" points="135.4279,-124.3688 143.9302,-118.0472 133.3415,-117.687 135.4279,-124.3688"/>
</g>
<!-- Node201 -->
<g id="node9" class="node">
<title>Node201</title>
<g id="a_node9"><a xlink:href="../../df/d25/state__machine__helper_8cpp.html#a93b5cbe059e923e05a1e96c13d519d8d" target="_top" xlink:title="set_offboard_loss_nav\l_state">
<polygon fill="#ffffff" stroke="#000000" points="117.5,-49.5 117.5,-79.5 232.5,-79.5 232.5,-49.5 117.5,-49.5"/>
<text text-anchor="start" x="125.5" y="-67.5" font-family="Helvetica,sans-Serif" font-size="10.00" fill="#000000">set_offboard_loss_nav</text>
<text text-anchor="middle" x="175" y="-56.5" font-family="Helvetica,sans-Serif" font-size="10.00" fill="#000000">_state</text>
</a>
</g>
</g>
<!-- Node193&#45;&gt;Node201 -->
<g id="edge9" class="edge">
<title>Node193&#45;&gt;Node201</title>
<path fill="none" stroke="#191970" d="M48.431,-142.8799C61.9562,-129.5014 88.0975,-105.1611 114,-89.5 117.1739,-87.581 120.5218,-85.7472 123.9486,-84.0079"/>
<polygon fill="#191970" stroke="#191970" points="125.616,-87.0905 133.1392,-79.6305 122.6059,-80.7707 125.616,-87.0905"/>
</g>
<!-- Node202 -->
<g id="node10" class="node">
<title>Node202</title>
<g id="a_node10"><a xlink:href="../../df/d25/state__machine__helper_8cpp.html#a04b449e8947a689e5d9eb9dc7b6c7d68" target="_top" xlink:title="set_offboard_loss_rc\l_nav_state">
<polygon fill="#ffffff" stroke="#000000" points="121.5,-.5 121.5,-30.5 228.5,-30.5 228.5,-.5 121.5,-.5"/>
<text text-anchor="start" x="129.5" y="-18.5" font-family="Helvetica,sans-Serif" font-size="10.00" fill="#000000">set_offboard_loss_rc</text>
<text text-anchor="middle" x="175" y="-7.5" font-family="Helvetica,sans-Serif" font-size="10.00" fill="#000000">_nav_state</text>
</a>
</g>
</g>
<!-- Node193&#45;&gt;Node202 -->
<g id="edge10" class="edge">
<title>Node193&#45;&gt;Node202</title>
<path fill="none" stroke="#191970" d="M42.9392,-142.8939C52.2015,-121.422 77.3779,-69.1051 114,-39.5 115.5599,-38.239 117.1941,-37.0379 118.885,-35.8944"/>
<polygon fill="#191970" stroke="#191970" points="120.9163,-38.7589 127.7308,-30.6464 117.3446,-32.7387 120.9163,-38.7589"/>
</g>
<!-- Node194&#45;&gt;Node195 -->
<g id="edge2" class="edge">
<title>Node194&#45;&gt;Node195</title>
<path fill="none" stroke="#191970" d="M234.2024,-269.9312C247.8861,-267.9507 262.3345,-265.8595 275.6506,-263.9321"/>
<polygon fill="#191970" stroke="#191970" points="276.1859,-267.3912 285.5814,-262.4948 275.1832,-260.4634 276.1859,-267.3912"/>
</g>
<!-- Node199 -->
<g id="node7" class="node">
<title>Node199</title>
<g id="a_node7"><a xlink:href="../../df/d25/state__machine__helper_8cpp.html#a12cdf6d677418283df9b76837a479420" target="_top" xlink:title="main_state_transition">
<polygon fill="#ffffff" stroke="#000000" points="272,-99 272,-118 382,-118 382,-99 272,-99"/>
<text text-anchor="middle" x="327" y="-106" font-family="Helvetica,sans-Serif" font-size="10.00" fill="#000000">main_state_transition</text>
</a>
</g>
</g>
<!-- Node198&#45;&gt;Node199 -->
<g id="edge7" class="edge">
<title>Node198&#45;&gt;Node199</title>
<path fill="none" stroke="#191970" d="M236.3861,-108.5C244.704,-108.5 253.2646,-108.5 261.6488,-108.5"/>
<polygon fill="#191970" stroke="#191970" points="261.7601,-112.0001 271.7601,-108.5 261.76,-105.0001 261.7601,-112.0001"/>
</g>
<!-- Node200 -->
<g id="node8" class="node">
<title>Node200</title>
<g id="a_node8"><a xlink:href="../../d6/d10/drv__hrt_8h.html#a1450e339b7c5b8d47656500167a6676d" target="_top" xlink:title="Get absolute time in [us] (does not wrap). ">
<polygon fill="#ffffff" stroke="#000000" points="418,-99 418,-118 512,-118 512,-99 418,-99"/>
<text text-anchor="middle" x="465" y="-106" font-family="Helvetica,sans-Serif" font-size="10.00" fill="#000000">hrt_absolute_time</text>
</a>
</g>
</g>
<!-- Node199&#45;&gt;Node200 -->
<g id="edge8" class="edge">
<title>Node199&#45;&gt;Node200</title>
<path fill="none" stroke="#191970" d="M382.3347,-108.5C390.6511,-108.5 399.2434,-108.5 407.6018,-108.5"/>
<polygon fill="#191970" stroke="#191970" points="407.647,-112.0001 417.647,-108.5 407.647,-105.0001 407.647,-112.0001"/>
</g>
</g>
</svg>
