<?xml version="1.0" encoding="UTF-8" standalone="no"?>
<!DOCTYPE svg PUBLIC "-//W3C//DTD SVG 1.1//EN"
 "http://www.w3.org/Graphics/SVG/1.1/DTD/svg11.dtd">
<!-- Generated by graphviz version 2.40.1 (20161225.0304)
 -->
<!-- Title: isr_debug Pages: 1 -->
<svg width="1013pt" height="175pt"
 viewBox="0.00 0.00 1013.00 174.80" xmlns="http://www.w3.org/2000/svg" xmlns:xlink="http://www.w3.org/1999/xlink">
<g id="graph0" class="graph" transform="scale(1 1) rotate(0) translate(4 170.7999)">
<title>isr_debug</title>
<polygon fill="#ffffff" stroke="transparent" points="-4,4 -4,-170.7999 1009,-170.7999 1009,4 -4,4"/>
<!-- Node35 -->
<g id="node1" class="node">
<title>Node35</title>
<polygon fill="#bfbfbf" stroke="#000000" points="0,-71.2999 0,-90.2999 59,-90.2999 59,-71.2999 0,-71.2999"/>
<text text-anchor="middle" x="29.5" y="-78.2999" font-family="Helvetica,sans-Serif" font-size="10.00" fill="#000000">isr_debug</text>
</g>
<!-- Node36 -->
<g id="node2" class="node">
<title>Node36</title>
<g id="a_node2"><a xlink:href="../../d8/d05/px4io_8h.html#a3b26101148510641898ef9875be36e67" target="_top" xlink:title="mixer_handle_text">
<polygon fill="#ffffff" stroke="#000000" points="111,-147.2999 111,-166.2999 207,-166.2999 207,-147.2999 111,-147.2999"/>
<text text-anchor="middle" x="159" y="-154.2999" font-family="Helvetica,sans-Serif" font-size="10.00" fill="#000000">mixer_handle_text</text>
</a>
</g>
</g>
<!-- Node35&#45;&gt;Node36 -->
<g id="edge1" class="edge">
<title>Node35&#45;&gt;Node36</title>
<path fill="none" stroke="#191970" d="M45.1924,-97.9576C57.6043,-110.5976 75.9623,-127.3412 95,-137.7999 101.9077,-141.5947 109.6614,-144.7141 117.3241,-147.2492"/>
<polygon fill="#191970" stroke="#191970" points="47.7146,-95.5309 38.2797,-90.7107 42.6494,-100.3625 47.7146,-95.5309"/>
</g>
<!-- Node42 -->
<g id="node8" class="node">
<title>Node42</title>
<g id="a_node8"><a xlink:href="../../dd/d87/px4io_8c.html#aab5de16adab7a0da95ed57a9aba3c626" target="_top" xlink:title="user_start">
<polygon fill="#ffffff" stroke="#000000" points="945,-71.2999 945,-90.2999 1005,-90.2999 1005,-71.2999 945,-71.2999"/>
<text text-anchor="middle" x="975" y="-78.2999" font-family="Helvetica,sans-Serif" font-size="10.00" fill="#000000">user_start</text>
</a>
</g>
</g>
<!-- Node35&#45;&gt;Node42 -->
<g id="edge18" class="edge">
<title>Node35&#45;&gt;Node42</title>
<path fill="none" stroke="#191970" d="M69.1476,-80.7999C121.1251,-80.7999 215.1404,-80.7999 295.5,-80.7999 295.5,-80.7999 295.5,-80.7999 761,-80.7999 826.5747,-80.7999 903.452,-80.7999 944.876,-80.7999"/>
<polygon fill="#191970" stroke="#191970" points="69.0217,-77.3 59.0217,-80.7999 69.0217,-84.3 69.0217,-77.3"/>
</g>
<!-- Node44 -->
<g id="node10" class="node">
<title>Node44</title>
<g id="a_node10"><a xlink:href="../../d8/d05/px4io_8h.html#a10b6b903aa091e91ca155b186b06c0b6" target="_top" xlink:title="mixer_handle_text_create\l_mixer">
<polygon fill="#ffffff" stroke="#000000" points="95,-21.7999 95,-51.7999 223,-51.7999 223,-21.7999 95,-21.7999"/>
<text text-anchor="start" x="103" y="-39.7999" font-family="Helvetica,sans-Serif" font-size="10.00" fill="#000000">mixer_handle_text_create</text>
<text text-anchor="middle" x="159" y="-28.7999" font-family="Helvetica,sans-Serif" font-size="10.00" fill="#000000">_mixer</text>
</a>
</g>
</g>
<!-- Node35&#45;&gt;Node44 -->
<g id="edge12" class="edge">
<title>Node35&#45;&gt;Node44</title>
<path fill="none" stroke="#191970" d="M67.4329,-67.9114C82.2311,-62.8835 99.299,-57.0844 114.6599,-51.8652"/>
<polygon fill="#191970" stroke="#191970" points="65.942,-64.7214 57.5996,-71.2525 68.194,-71.3493 65.942,-64.7214"/>
</g>
<!-- Node45 -->
<g id="node11" class="node">
<title>Node45</title>
<g id="a_node11"><a xlink:href="../../d8/d05/px4io_8h.html#ae4335b0132a371f64a91cbc19cb518e4" target="_top" xlink:title="mixer_tick">
<polygon fill="#ffffff" stroke="#000000" points="264.5,-27.2999 264.5,-46.2999 326.5,-46.2999 326.5,-27.2999 264.5,-27.2999"/>
<text text-anchor="middle" x="295.5" y="-34.2999" font-family="Helvetica,sans-Serif" font-size="10.00" fill="#000000">mixer_tick</text>
</a>
</g>
</g>
<!-- Node35&#45;&gt;Node45 -->
<g id="edge15" class="edge">
<title>Node35&#45;&gt;Node45</title>
<path fill="none" stroke="#191970" d="M40.4523,-62.6651C51.7448,-45.9029 71.0548,-22.0852 95,-11.7999 155.9166,14.3661 236.1704,-11.7301 274.0057,-27.1821"/>
<polygon fill="#191970" stroke="#191970" points="37.4812,-60.8145 35.025,-71.1208 43.3721,-64.5957 37.4812,-60.8145"/>
</g>
<!-- Node46 -->
<g id="node12" class="node">
<title>Node46</title>
<g id="a_node12"><a xlink:href="../../d4/d28/registers_8c.html#acb76ce9506a2d7ebd08998a39fba7358" target="_top" xlink:title="registers_set_one">
<polygon fill="#ffffff" stroke="#000000" points="112,-109.2999 112,-128.2999 206,-128.2999 206,-109.2999 112,-109.2999"/>
<text text-anchor="middle" x="159" y="-116.2999" font-family="Helvetica,sans-Serif" font-size="10.00" fill="#000000">registers_set_one</text>
</a>
</g>
</g>
<!-- Node35&#45;&gt;Node46 -->
<g id="edge16" class="edge">
<title>Node35&#45;&gt;Node46</title>
<path fill="none" stroke="#191970" d="M69.0124,-92.3942C87.3322,-97.7699 108.8474,-104.0833 126.2459,-109.1886"/>
<polygon fill="#191970" stroke="#191970" points="69.7908,-88.9751 59.2099,-89.5178 67.8198,-95.6919 69.7908,-88.9751"/>
</g>
<!-- Node37 -->
<g id="node3" class="node">
<title>Node37</title>
<g id="a_node3"><a xlink:href="../../d4/d28/registers_8c.html#a79ff516383f902f7c580f60972f88484" target="_top" xlink:title="Register space. ">
<polygon fill="#ffffff" stroke="#000000" points="259,-109.2999 259,-128.2999 332,-128.2999 332,-109.2999 259,-109.2999"/>
<text text-anchor="middle" x="295.5" y="-116.2999" font-family="Helvetica,sans-Serif" font-size="10.00" fill="#000000">registers_set</text>
</a>
</g>
</g>
<!-- Node36&#45;&gt;Node37 -->
<g id="edge2" class="edge">
<title>Node36&#45;&gt;Node37</title>
<path fill="none" stroke="#191970" d="M203.2487,-144.4815C222.003,-139.2606 243.528,-133.2683 261.0663,-128.3858"/>
<polygon fill="#191970" stroke="#191970" points="202.1397,-141.1571 193.4447,-147.2108 204.0171,-147.9007 202.1397,-141.1571"/>
</g>
<!-- Node38 -->
<g id="node4" class="node">
<title>Node38</title>
<g id="a_node4"><a xlink:href="../../d8/d90/serial_8c.html#a7a47545978c88c7e8b180736034a49ef" target="_top" xlink:title="rx_handle_packet">
<polygon fill="#ffffff" stroke="#000000" points="368,-109.2999 368,-128.2999 461,-128.2999 461,-109.2999 368,-109.2999"/>
<text text-anchor="middle" x="414.5" y="-116.2999" font-family="Helvetica,sans-Serif" font-size="10.00" fill="#000000">rx_handle_packet</text>
</a>
</g>
</g>
<!-- Node37&#45;&gt;Node38 -->
<g id="edge3" class="edge">
<title>Node37&#45;&gt;Node38</title>
<path fill="none" stroke="#191970" d="M342.4346,-118.7999C350.7186,-118.7999 359.3431,-118.7999 367.6255,-118.7999"/>
<polygon fill="#191970" stroke="#191970" points="342.175,-115.3 332.1749,-118.7999 342.1749,-122.3 342.175,-115.3"/>
</g>
<!-- Node39 -->
<g id="node5" class="node">
<title>Node39</title>
<g id="a_node5"><a xlink:href="../../d8/d90/serial_8c.html#a9ea429bf8993556bd90658d40f5b875e" target="_top" xlink:title="rx_dma_callback">
<polygon fill="#ffffff" stroke="#000000" points="497,-109.2999 497,-128.2999 587,-128.2999 587,-109.2999 497,-109.2999"/>
<text text-anchor="middle" x="542" y="-116.2999" font-family="Helvetica,sans-Serif" font-size="10.00" fill="#000000">rx_dma_callback</text>
</a>
</g>
</g>
<!-- Node38&#45;&gt;Node39 -->
<g id="edge4" class="edge">
<title>Node38&#45;&gt;Node39</title>
<path fill="none" stroke="#191970" d="M471.5234,-118.7999C480.0438,-118.7999 488.7264,-118.7999 496.953,-118.7999"/>
<polygon fill="#191970" stroke="#191970" points="471.2523,-115.3 461.2523,-118.7999 471.2523,-122.3 471.2523,-115.3"/>
</g>
<!-- Node40 -->
<g id="node6" class="node">
<title>Node40</title>
<g id="a_node6"><a xlink:href="../../d8/d90/serial_8c.html#a4f42595963508e10e538baddbf85204a" target="_top" xlink:title="serial_interrupt">
<polygon fill="#ffffff" stroke="#000000" points="721,-147.2999 721,-166.2999 801,-166.2999 801,-147.2999 721,-147.2999"/>
<text text-anchor="middle" x="761" y="-154.2999" font-family="Helvetica,sans-Serif" font-size="10.00" fill="#000000">serial_interrupt</text>
</a>
</g>
</g>
<!-- Node39&#45;&gt;Node40 -->
<g id="edge5" class="edge">
<title>Node39&#45;&gt;Node40</title>
<path fill="none" stroke="#191970" d="M589.245,-130.6662C600.2804,-133.2196 612.0183,-135.7605 623,-137.7999 655.8134,-143.8934 693.351,-148.9385 720.9844,-152.2948"/>
<polygon fill="#191970" stroke="#191970" points="589.8863,-127.2215 579.3498,-128.3317 588.279,-134.0345 589.8863,-127.2215"/>
</g>
<!-- Node43 -->
<g id="node9" class="node">
<title>Node43</title>
<g id="a_node9"><a xlink:href="../../d8/d90/serial_8c.html#ab490e77cf58b14849740525ba5dc47ef" target="_top" xlink:title="dma_reset">
<polygon fill="#ffffff" stroke="#000000" points="623,-109.2999 623,-128.2999 685,-128.2999 685,-109.2999 623,-109.2999"/>
<text text-anchor="middle" x="654" y="-116.2999" font-family="Helvetica,sans-Serif" font-size="10.00" fill="#000000">dma_reset</text>
</a>
</g>
</g>
<!-- Node39&#45;&gt;Node43 -->
<g id="edge8" class="edge">
<title>Node39&#45;&gt;Node43</title>
<path fill="none" stroke="#191970" d="M597.3817,-112.0502C606.0784,-112.0399 614.795,-112.2467 622.6924,-112.6706"/>
<polygon fill="#191970" stroke="#191970" points="597.1927,-108.552 587.2319,-112.162 597.2698,-115.5516 597.1927,-108.552"/>
</g>
<!-- Node41 -->
<g id="node7" class="node">
<title>Node41</title>
<g id="a_node7"><a xlink:href="../../d8/d90/serial_8c.html#a86489e4b72e9a378e39ebc48b6c95ece" target="_top" xlink:title="FMU communications. ">
<polygon fill="#ffffff" stroke="#000000" points="837,-109.2999 837,-128.2999 909,-128.2999 909,-109.2999 837,-109.2999"/>
<text text-anchor="middle" x="873" y="-116.2999" font-family="Helvetica,sans-Serif" font-size="10.00" fill="#000000">interface_init</text>
</a>
</g>
</g>
<!-- Node40&#45;&gt;Node41 -->
<g id="edge6" class="edge">
<title>Node40&#45;&gt;Node41</title>
<path fill="none" stroke="#191970" d="M798.8027,-143.9739C813.8308,-138.8751 830.8205,-133.1108 844.7467,-128.3858"/>
<polygon fill="#191970" stroke="#191970" points="797.6076,-140.6834 789.2623,-147.2108 799.8567,-147.3122 797.6076,-140.6834"/>
</g>
<!-- Node41&#45;&gt;Node42 -->
<g id="edge7" class="edge">
<title>Node41&#45;&gt;Node42</title>
<path fill="none" stroke="#191970" d="M908.2115,-105.6819C921.7022,-100.6559 936.8281,-95.0208 949.2693,-90.3858"/>
<polygon fill="#191970" stroke="#191970" points="906.8878,-102.4399 898.7389,-109.2108 909.3316,-108.9995 906.8878,-102.4399"/>
</g>
<!-- Node43&#45;&gt;Node39 -->
<g id="edge10" class="edge">
<title>Node43&#45;&gt;Node39</title>
<path fill="none" stroke="#191970" d="M612.5463,-125.3432C604.2986,-125.5825 595.5986,-125.614 587.2319,-125.4377"/>
<polygon fill="#191970" stroke="#191970" points="612.8435,-128.8341 622.6924,-124.9291 612.558,-121.8399 612.8435,-128.8341"/>
</g>
<!-- Node43&#45;&gt;Node40 -->
<g id="edge11" class="edge">
<title>Node43&#45;&gt;Node40</title>
<path fill="none" stroke="#191970" d="M690.5258,-131.7716C704.7812,-136.8343 720.8302,-142.5339 734.008,-147.2139"/>
<polygon fill="#191970" stroke="#191970" points="691.5953,-128.4374 681.0006,-128.3889 689.2527,-135.0337 691.5953,-128.4374"/>
</g>
<!-- Node43&#45;&gt;Node41 -->
<g id="edge9" class="edge">
<title>Node43&#45;&gt;Node41</title>
<path fill="none" stroke="#191970" d="M695.5415,-118.7999C736.3896,-118.7999 798.1051,-118.7999 836.9459,-118.7999"/>
<polygon fill="#191970" stroke="#191970" points="695.3774,-115.3 685.3774,-118.7999 695.3773,-122.3 695.3774,-115.3"/>
</g>
<!-- Node44&#45;&gt;Node45 -->
<g id="edge13" class="edge">
<title>Node44&#45;&gt;Node45</title>
<path fill="none" stroke="#191970" d="M233.275,-36.7999C244.1597,-36.7999 254.8384,-36.7999 264.1922,-36.7999"/>
<polygon fill="#191970" stroke="#191970" points="233.253,-33.3 223.253,-36.7999 233.253,-40.3 233.253,-33.3"/>
</g>
<!-- Node45&#45;&gt;Node42 -->
<g id="edge14" class="edge">
<title>Node45&#45;&gt;Node42</title>
<path fill="none" stroke="#191970" d="M336.8212,-37.6097C385.7845,-38.4982 469.8305,-39.7999 542,-39.7999 542,-39.7999 542,-39.7999 761,-39.7999 827.5782,-39.7999 903.7598,-59.1788 944.8715,-71.2906"/>
<polygon fill="#191970" stroke="#191970" points="336.6913,-34.1068 326.6284,-37.4215 336.562,-41.1056 336.6913,-34.1068"/>
</g>
<!-- Node46&#45;&gt;Node37 -->
<g id="edge17" class="edge">
<title>Node46&#45;&gt;Node37</title>
<path fill="none" stroke="#191970" d="M216.6524,-118.7999C230.9968,-118.7999 245.9814,-118.7999 258.9878,-118.7999"/>
<polygon fill="#191970" stroke="#191970" points="216.358,-115.2999 206.358,-118.7999 216.358,-122.2999 216.358,-115.2999"/>
</g>
</g>
</svg>
