<?xml version="1.0" encoding="UTF-8" standalone="no"?>
<!DOCTYPE svg PUBLIC "-//W3C//DTD SVG 1.1//EN"
 "http://www.w3.org/Graphics/SVG/1.1/DTD/svg11.dtd">
<!-- Generated by graphviz version 2.38.0 (20140413.2041)
 -->
<!-- Title: do_gyro_calibration Pages: 1 -->
<svg width="402pt" height="66pt"
 viewBox="0.00 0.00 402.00 66.00" xmlns="http://www.w3.org/2000/svg" xmlns:xlink="http://www.w3.org/1999/xlink">
<g id="graph0" class="graph" transform="scale(1 1) rotate(0) translate(4 62)">
<title>do_gyro_calibration</title>
<polygon fill="white" stroke="none" points="-4,4 -4,-62 398,-62 398,4 -4,4"/>
<!-- Node1 -->
<g id="node1" class="node"><title>Node1</title>
<polygon fill="#bfbfbf" stroke="black" points="0,-19.5 0,-38.5 101,-38.5 101,-19.5 0,-19.5"/>
<text text-anchor="middle" x="50.5" y="-26.5" font-family="Helvetica,sans-Serif" font-size="10.00">do_gyro_calibration</text>
</g>
<!-- Node2 -->
<g id="node2" class="node"><title>Node2</title>
<g id="a_node2"><a xlink:href="../../da/d73/_commander_8cpp.html#af62ee6f05861387a2bc3831c160afea8" target="_top" xlink:title="Loop that runs at a lower rate and priority for calibration and parameter tasks. ">
<polygon fill="white" stroke="black" points="137,-38.5 137,-57.5 269,-57.5 269,-38.5 137,-38.5"/>
<text text-anchor="middle" x="203" y="-45.5" font-family="Helvetica,sans-Serif" font-size="10.00">commander_low_prio_loop</text>
</a>
</g>
</g>
<!-- Node1&#45;&gt;Node2 -->
<g id="edge1" class="edge"><title>Node1&#45;&gt;Node2</title>
<path fill="none" stroke="midnightblue" d="M111.264,-36.5449C119.651,-37.6037 128.306,-38.6964 136.788,-39.7672"/>
<polygon fill="midnightblue" stroke="midnightblue" points="111.556,-33.0541 101.196,-35.274 110.679,-39.999 111.556,-33.0541"/>
</g>
<!-- Node4 -->
<g id="node4" class="node"><title>Node4</title>
<g id="a_node4"><a xlink:href="../../da/d73/_commander_8cpp.html#a9351d6b0ff1efb4fd6d687f143be98c7" target="_top" xlink:title="The daemon app only briefly exists to start the background job. ">
<polygon fill="white" stroke="black" points="156,-0.5 156,-19.5 250,-19.5 250,-0.5 156,-0.5"/>
<text text-anchor="middle" x="203" y="-7.5" font-family="Helvetica,sans-Serif" font-size="10.00">commander_main</text>
</a>
</g>
</g>
<!-- Node1&#45;&gt;Node4 -->
<g id="edge3" class="edge"><title>Node1&#45;&gt;Node4</title>
<path fill="none" stroke="midnightblue" d="M111.312,-21.449C126.159,-19.5746 141.845,-17.5943 155.92,-15.8174"/>
<polygon fill="midnightblue" stroke="midnightblue" points="110.679,-18.001 101.196,-22.726 111.556,-24.9459 110.679,-18.001"/>
</g>
<!-- Node3 -->
<g id="node3" class="node"><title>Node3</title>
<g id="a_node3"><a xlink:href="../../d3/dc6/class_commander.html#a86abaf98d17aeacd9aef07a0a9a6fb9a" target="_top" xlink:title="Commander::run">
<polygon fill="white" stroke="black" points="305,-38.5 305,-57.5 394,-57.5 394,-38.5 305,-38.5"/>
<text text-anchor="middle" x="349.5" y="-45.5" font-family="Helvetica,sans-Serif" font-size="10.00">Commander::run</text>
</a>
</g>
</g>
<!-- Node2&#45;&gt;Node3 -->
<g id="edge2" class="edge"><title>Node2&#45;&gt;Node3</title>
<path fill="none" stroke="midnightblue" d="M279.337,-48C288.091,-48 296.784,-48 304.902,-48"/>
<polygon fill="midnightblue" stroke="midnightblue" points="279.064,-44.5001 269.064,-48 279.064,-51.5001 279.064,-44.5001"/>
</g>
</g>
</svg>
