<?xml version="1.0" encoding="UTF-8" standalone="no"?>
<!DOCTYPE svg PUBLIC "-//W3C//DTD SVG 1.1//EN"
 "http://www.w3.org/Graphics/SVG/1.1/DTD/svg11.dtd">
<!-- Generated by graphviz version 2.38.0 (20140413.2041)
 -->
<!-- Title: orb_stat Pages: 1 -->
<svg width="786pt" height="142pt"
 viewBox="0.00 0.00 786.00 142.00" xmlns="http://www.w3.org/2000/svg" xmlns:xlink="http://www.w3.org/1999/xlink">
<g id="graph0" class="graph" transform="scale(1 1) rotate(0) translate(4 138)">
<title>orb_stat</title>
<polygon fill="white" stroke="none" points="-4,4 -4,-138 782,-138 782,4 -4,4"/>
<!-- Node1 -->
<g id="node1" class="node"><title>Node1</title>
<polygon fill="#bfbfbf" stroke="black" points="0,-57.5 0,-76.5 52,-76.5 52,-57.5 0,-57.5"/>
<text text-anchor="middle" x="26" y="-64.5" font-family="Helvetica,sans-Serif" font-size="10.00">orb_stat</text>
</g>
<!-- Node2 -->
<g id="node2" class="node"><title>Node2</title>
<g id="a_node2"><a xlink:href="../../d3/da9/classu_o_r_b_1_1_manager.html#a9d829b3ea49d16d03c2fa37ef2bb24a5" target="_top" xlink:title="Method to get the singleton instance for the uORB::Manager. ">
<polygon fill="white" stroke="black" points="98.5,-74 98.5,-104 205.5,-104 205.5,-74 98.5,-74"/>
<text text-anchor="start" x="106.5" y="-92" font-family="Helvetica,sans-Serif" font-size="10.00">uORB::Manager::get</text>
<text text-anchor="middle" x="152" y="-81" font-family="Helvetica,sans-Serif" font-size="10.00">_instance</text>
</a>
</g>
</g>
<!-- Node1&#45;&gt;Node2 -->
<g id="edge1" class="edge"><title>Node1&#45;&gt;Node2</title>
<path fill="none" stroke="midnightblue" d="M52.0933,-71.452C62.5912,-73.3146 75.3088,-75.5709 88.0784,-77.8365"/>
<polygon fill="midnightblue" stroke="midnightblue" points="87.8315,-81.3473 98.2892,-79.6481 89.0544,-74.4549 87.8315,-81.3473"/>
</g>
<!-- Node9 -->
<g id="node9" class="node"><title>Node9</title>
<g id="a_node9"><a xlink:href="../../d3/da9/classu_o_r_b_1_1_manager.html#a60db0c79ba79363868fb979f21a469b4" target="_top" xlink:title="Return the last time that the topic was updated. ">
<polygon fill="white" stroke="black" points="88,-35.5 88,-54.5 216,-54.5 216,-35.5 88,-35.5"/>
<text text-anchor="middle" x="152" y="-42.5" font-family="Helvetica,sans-Serif" font-size="10.00">uORB::Manager::orb_stat</text>
</a>
</g>
</g>
<!-- Node1&#45;&gt;Node9 -->
<g id="edge8" class="edge"><title>Node1&#45;&gt;Node9</title>
<path fill="none" stroke="midnightblue" d="M52.0933,-62.548C62.3679,-60.7251 74.7686,-58.5249 87.2634,-56.3081"/>
<polygon fill="midnightblue" stroke="midnightblue" points="88.0306,-59.7267 97.2654,-54.5336 86.8077,-52.8344 88.0306,-59.7267"/>
</g>
<!-- Node3 -->
<g id="node3" class="node"><title>Node3</title>
<g id="a_node3"><a xlink:href="../../d3/da9/classu_o_r_b_1_1_manager.html#a083331e24ac4f99ac11a0aab1b1681b4" target="_top" xlink:title="Get the DeviceMaster. ">
<polygon fill="white" stroke="black" points="252,-74 252,-104 359,-104 359,-74 252,-74"/>
<text text-anchor="start" x="260" y="-92" font-family="Helvetica,sans-Serif" font-size="10.00">uORB::Manager::get</text>
<text text-anchor="middle" x="305.5" y="-81" font-family="Helvetica,sans-Serif" font-size="10.00">_device_master</text>
</a>
</g>
</g>
<!-- Node2&#45;&gt;Node3 -->
<g id="edge2" class="edge"><title>Node2&#45;&gt;Node3</title>
<path fill="none" stroke="midnightblue" d="M205.562,-89C217.13,-89 229.496,-89 241.429,-89"/>
<polygon fill="midnightblue" stroke="midnightblue" points="241.774,-92.5001 251.774,-89 241.774,-85.5001 241.774,-92.5001"/>
</g>
<!-- Node4 -->
<g id="node4" class="node"><title>Node4</title>
<g id="a_node4"><a xlink:href="../../db/dcf/classdevice_1_1_c_dev.html#a04ad8e5b517724c106e06b45e86a2445" target="_top" xlink:title="Initialise the driver and make it ready for use. ">
<polygon fill="white" stroke="black" points="395,-79.5 395,-98.5 490,-98.5 490,-79.5 395,-79.5"/>
<text text-anchor="middle" x="442.5" y="-86.5" font-family="Helvetica,sans-Serif" font-size="10.00">device::CDev::init</text>
</a>
</g>
</g>
<!-- Node3&#45;&gt;Node4 -->
<g id="edge3" class="edge"><title>Node3&#45;&gt;Node4</title>
<path fill="none" stroke="midnightblue" d="M359.081,-89C367.503,-89 376.25,-89 384.763,-89"/>
<polygon fill="midnightblue" stroke="midnightblue" points="384.993,-92.5001 394.993,-89 384.993,-85.5001 384.993,-92.5001"/>
</g>
<!-- Node5 -->
<g id="node5" class="node"><title>Node5</title>
<g id="a_node5"><a xlink:href="../../dd/dd3/classdevice_1_1_device.html#a88428ba671d9c225504fc2f0aed2a72a" target="_top" xlink:title="Initialise the driver and make it ready for use. ">
<polygon fill="white" stroke="black" points="526,-114.5 526,-133.5 627,-133.5 627,-114.5 526,-114.5"/>
<text text-anchor="middle" x="576.5" y="-121.5" font-family="Helvetica,sans-Serif" font-size="10.00">device::Device::init</text>
</a>
</g>
</g>
<!-- Node4&#45;&gt;Node5 -->
<g id="edge4" class="edge"><title>Node4&#45;&gt;Node5</title>
<path fill="none" stroke="midnightblue" d="M479.57,-98.5639C494.994,-102.654 513.185,-107.477 529.556,-111.818"/>
<polygon fill="midnightblue" stroke="midnightblue" points="528.911,-115.268 539.474,-114.448 530.705,-108.502 528.911,-115.268"/>
</g>
<!-- Node6 -->
<g id="node6" class="node"><title>Node6</title>
<g id="a_node6"><a xlink:href="../../da/dc9/posix_2cdev__platform_8cpp.html#a4c69ea88a27571245bd4dc9c06a3d18b" target="_top" xlink:title="register_driver">
<polygon fill="white" stroke="black" points="537.5,-76.5 537.5,-95.5 615.5,-95.5 615.5,-76.5 537.5,-76.5"/>
<text text-anchor="middle" x="576.5" y="-83.5" font-family="Helvetica,sans-Serif" font-size="10.00">register_driver</text>
</a>
</g>
</g>
<!-- Node4&#45;&gt;Node6 -->
<g id="edge5" class="edge"><title>Node4&#45;&gt;Node6</title>
<path fill="none" stroke="midnightblue" d="M490.038,-87.9423C501.979,-87.6709 514.854,-87.3783 526.896,-87.1046"/>
<polygon fill="midnightblue" stroke="midnightblue" points="527.303,-90.5964 537.22,-86.87 527.143,-83.5982 527.303,-90.5964"/>
</g>
<!-- Node7 -->
<g id="node7" class="node"><title>Node7</title>
<g id="a_node7"><a xlink:href="../../d6/dfb/stubs__posix_8c.html#a12809c44718c21544ceb280dc1a53573" target="_top" xlink:title="pthread_mutex_lock">
<polygon fill="white" stroke="black" points="668.5,-76.5 668.5,-95.5 772.5,-95.5 772.5,-76.5 668.5,-76.5"/>
<text text-anchor="middle" x="720.5" y="-83.5" font-family="Helvetica,sans-Serif" font-size="10.00">pthread_mutex_lock</text>
</a>
</g>
</g>
<!-- Node6&#45;&gt;Node7 -->
<g id="edge6" class="edge"><title>Node6&#45;&gt;Node7</title>
<path fill="none" stroke="midnightblue" d="M615.553,-86C628.577,-86 643.5,-86 657.898,-86"/>
<polygon fill="midnightblue" stroke="midnightblue" points="658.255,-89.5001 668.255,-86 658.255,-82.5001 658.255,-89.5001"/>
</g>
<!-- Node8 -->
<g id="node8" class="node"><title>Node8</title>
<g id="a_node8"><a xlink:href="../../d6/dfb/stubs__posix_8c.html#a96184290ffb60e04c53a52869cf960a2" target="_top" xlink:title="pthread_mutex_unlock">
<polygon fill="white" stroke="black" points="663,-38.5 663,-57.5 778,-57.5 778,-38.5 663,-38.5"/>
<text text-anchor="middle" x="720.5" y="-45.5" font-family="Helvetica,sans-Serif" font-size="10.00">pthread_mutex_unlock</text>
</a>
</g>
</g>
<!-- Node6&#45;&gt;Node8 -->
<g id="edge7" class="edge"><title>Node6&#45;&gt;Node8</title>
<path fill="none" stroke="midnightblue" d="M613.333,-76.411C631.663,-71.5056 654.178,-65.4804 673.75,-60.2429"/>
<polygon fill="midnightblue" stroke="midnightblue" points="674.924,-63.5521 683.679,-57.5859 673.114,-56.7901 674.924,-63.5521"/>
</g>
<!-- Node10 -->
<g id="node10" class="node"><title>Node10</title>
<g id="a_node10"><a xlink:href="../../da/dc9/posix_2cdev__platform_8cpp.html#a9c7539e3995014273bd29fb01758763e" target="_top" xlink:title="px4_ioctl">
<polygon fill="white" stroke="black" points="414.5,-35.5 414.5,-54.5 470.5,-54.5 470.5,-35.5 414.5,-35.5"/>
<text text-anchor="middle" x="442.5" y="-42.5" font-family="Helvetica,sans-Serif" font-size="10.00">px4_ioctl</text>
</a>
</g>
</g>
<!-- Node9&#45;&gt;Node10 -->
<g id="edge9" class="edge"><title>Node9&#45;&gt;Node10</title>
<path fill="none" stroke="midnightblue" d="M216.313,-45C273.831,-45 356.735,-45 404.252,-45"/>
<polygon fill="midnightblue" stroke="midnightblue" points="404.4,-48.5001 414.4,-45 404.4,-41.5001 404.4,-48.5001"/>
</g>
<!-- Node11 -->
<g id="node11" class="node"><title>Node11</title>
<g id="a_node11"><a xlink:href="../../da/dc9/posix_2cdev__platform_8cpp.html#a06fbe4d696a8fc67079810478882f8b9" target="_top" xlink:title="get_vdev">
<polygon fill="white" stroke="black" points="548.5,-38.5 548.5,-57.5 604.5,-57.5 604.5,-38.5 548.5,-38.5"/>
<text text-anchor="middle" x="576.5" y="-45.5" font-family="Helvetica,sans-Serif" font-size="10.00">get_vdev</text>
</a>
</g>
</g>
<!-- Node10&#45;&gt;Node11 -->
<g id="edge10" class="edge"><title>Node10&#45;&gt;Node11</title>
<path fill="none" stroke="midnightblue" d="M470.531,-45.6143C489.977,-46.0563 516.454,-46.658 537.951,-47.1466"/>
<polygon fill="midnightblue" stroke="midnightblue" points="537.975,-50.648 548.052,-47.3762 538.134,-43.6498 537.975,-50.648"/>
</g>
<!-- Node12 -->
<g id="node12" class="node"><title>Node12</title>
<g id="a_node12"><a xlink:href="../../db/dcf/classdevice_1_1_c_dev.html#a8a73e7749516363c59d3eac6d6343083" target="_top" xlink:title="Perform an ioctl operation on the device. ">
<polygon fill="white" stroke="black" points="526,-0.5 526,-19.5 627,-19.5 627,-0.5 526,-0.5"/>
<text text-anchor="middle" x="576.5" y="-7.5" font-family="Helvetica,sans-Serif" font-size="10.00">device::CDev::ioctl</text>
</a>
</g>
</g>
<!-- Node10&#45;&gt;Node12 -->
<g id="edge13" class="edge"><title>Node10&#45;&gt;Node12</title>
<path fill="none" stroke="midnightblue" d="M470.531,-37.8328C487.565,-33.316 509.996,-27.3685 529.748,-22.1313"/>
<polygon fill="midnightblue" stroke="midnightblue" points="530.721,-25.4941 539.49,-19.548 528.927,-18.7279 530.721,-25.4941"/>
</g>
<!-- Node11&#45;&gt;Node7 -->
<g id="edge11" class="edge"><title>Node11&#45;&gt;Node7</title>
<path fill="none" stroke="midnightblue" d="M604.543,-55.237C624.17,-60.4892 651.185,-67.7186 674.095,-73.8495"/>
<polygon fill="midnightblue" stroke="midnightblue" points="673.394,-77.285 683.959,-76.4891 675.204,-70.5229 673.394,-77.285"/>
</g>
<!-- Node11&#45;&gt;Node8 -->
<g id="edge12" class="edge"><title>Node11&#45;&gt;Node8</title>
<path fill="none" stroke="midnightblue" d="M604.543,-48C618.204,-48 635.444,-48 652.388,-48"/>
<polygon fill="midnightblue" stroke="midnightblue" points="652.865,-51.5001 662.865,-48 652.865,-44.5001 652.865,-51.5001"/>
</g>
</g>
</svg>
