<?xml version="1.0" encoding="UTF-8" standalone="no"?>
<!DOCTYPE svg PUBLIC "-//W3C//DTD SVG 1.1//EN"
 "http://www.w3.org/Graphics/SVG/1.1/DTD/svg11.dtd">
<!-- Generated by graphviz version 2.40.1 (20161225.0304)
 -->
<!-- Title: calc_IAS_corrected Pages: 1 -->
<svg width="370pt" height="28pt"
 viewBox="0.00 0.00 370.00 28.00" xmlns="http://www.w3.org/2000/svg" xmlns:xlink="http://www.w3.org/1999/xlink">
<g id="graph0" class="graph" transform="scale(1 1) rotate(0) translate(4 24)">
<title>calc_IAS_corrected</title>
<polygon fill="#ffffff" stroke="transparent" points="-4,4 -4,-24 366,-24 366,4 -4,4"/>
<!-- Node38 -->
<g id="node1" class="node">
<title>Node38</title>
<polygon fill="#bfbfbf" stroke="#000000" points="0,-.5 0,-19.5 102,-19.5 102,-.5 0,-.5"/>
<text text-anchor="middle" x="51" y="-7.5" font-family="Helvetica,sans-Serif" font-size="10.00" fill="#000000">calc_IAS_corrected</text>
</g>
<!-- Node39 -->
<g id="node2" class="node">
<title>Node39</title>
<g id="a_node2"><a xlink:href="../../d1/d44/class_sensors.html#af7a783c126015ac22eb5de001d6c6680" target="_top" xlink:title="Poll the differential pressure sensor for updated data. ">
<polygon fill="#ffffff" stroke="#000000" points="138,-.5 138,-19.5 254,-19.5 254,-.5 138,-.5"/>
<text text-anchor="middle" x="196" y="-7.5" font-family="Helvetica,sans-Serif" font-size="10.00" fill="#000000">Sensors::diff_pres_poll</text>
</a>
</g>
</g>
<!-- Node38&#45;&gt;Node39 -->
<g id="edge1" class="edge">
<title>Node38&#45;&gt;Node39</title>
<path fill="none" stroke="#191970" d="M112.33,-10C120.8104,-10 129.4997,-10 137.9187,-10"/>
<polygon fill="#191970" stroke="#191970" points="112.1216,-6.5001 102.1216,-10 112.1215,-13.5001 112.1216,-6.5001"/>
</g>
<!-- Node40 -->
<g id="node3" class="node">
<title>Node40</title>
<g id="a_node3"><a xlink:href="../../d1/d44/class_sensors.html#a35b423ba540194dbfee0d7b580946e79" target="_top" xlink:title="Sensors::run">
<polygon fill="#ffffff" stroke="#000000" points="290,-.5 290,-19.5 362,-19.5 362,-.5 290,-.5"/>
<text text-anchor="middle" x="326" y="-7.5" font-family="Helvetica,sans-Serif" font-size="10.00" fill="#000000">Sensors::run</text>
</a>
</g>
</g>
<!-- Node39&#45;&gt;Node40 -->
<g id="edge2" class="edge">
<title>Node39&#45;&gt;Node40</title>
<path fill="none" stroke="#191970" d="M264.1751,-10C273.051,-10 281.8476,-10 289.9011,-10"/>
<polygon fill="#191970" stroke="#191970" points="264.1559,-6.5001 254.1558,-10 264.1558,-13.5001 264.1559,-6.5001"/>
</g>
</g>
</svg>
