<?xml version="1.0" encoding="UTF-8" standalone="no"?>
<!DOCTYPE svg PUBLIC "-//W3C//DTD SVG 1.1//EN"
 "http://www.w3.org/Graphics/SVG/1.1/DTD/svg11.dtd">
<!-- Generated by graphviz version 2.40.1 (20161225.0304)
 -->
<!-- Title: land_detector::FixedwingLandDetector::_get_landed_state Pages: 1 -->
<svg width="457pt" height="408pt"
 viewBox="0.00 0.00 457.00 408.00" xmlns="http://www.w3.org/2000/svg" xmlns:xlink="http://www.w3.org/1999/xlink">
<g id="graph0" class="graph" transform="scale(1 1) rotate(0) translate(4 404)">
<title>land_detector::FixedwingLandDetector::_get_landed_state</title>
<polygon fill="#ffffff" stroke="transparent" points="-4,4 -4,-404 453,-404 453,4 -4,4"/>
<!-- Node5 -->
<g id="node1" class="node">
<title>Node5</title>
<polygon fill="#bfbfbf" stroke="#000000" points="0,-185 0,-215 161,-215 161,-185 0,-185"/>
<text text-anchor="start" x="8" y="-203" font-family="Helvetica,sans-Serif" font-size="10.00" fill="#000000">land_detector::Fixedwing</text>
<text text-anchor="middle" x="80.5" y="-192" font-family="Helvetica,sans-Serif" font-size="10.00" fill="#000000">LandDetector::_get_landed_state</text>
</g>
<!-- Node6 -->
<g id="node2" class="node">
<title>Node6</title>
<g id="a_node2"><a xlink:href="../../d6/d10/drv__hrt_8h.html#af3323411019f0236c77bf283463cb50b" target="_top" xlink:title="Compute the delta between a timestamp taken in the past and now. ">
<polygon fill="#ffffff" stroke="#000000" points="197,-190.5 197,-209.5 288,-209.5 288,-190.5 197,-190.5"/>
<text text-anchor="middle" x="242.5" y="-197.5" font-family="Helvetica,sans-Serif" font-size="10.00" fill="#000000">hrt_elapsed_time</text>
</a>
</g>
</g>
<!-- Node5&#45;&gt;Node6 -->
<g id="edge1" class="edge">
<title>Node5&#45;&gt;Node6</title>
<path fill="none" stroke="#191970" d="M161.0254,-200C169.6239,-200 178.2296,-200 186.4548,-200"/>
<polygon fill="#191970" stroke="#191970" points="186.6408,-203.5001 196.6408,-200 186.6407,-196.5001 186.6408,-203.5001"/>
</g>
<!-- Node7 -->
<g id="node3" class="node">
<title>Node7</title>
<g id="a_node3"><a xlink:href="../../d6/d10/drv__hrt_8h.html#a1450e339b7c5b8d47656500167a6676d" target="_top" xlink:title="Get absolute time in [us] (does not wrap). ">
<polygon fill="#ffffff" stroke="#000000" points="339.5,-380.5 339.5,-399.5 433.5,-399.5 433.5,-380.5 339.5,-380.5"/>
<text text-anchor="middle" x="386.5" y="-387.5" font-family="Helvetica,sans-Serif" font-size="10.00" fill="#000000">hrt_absolute_time</text>
</a>
</g>
</g>
<!-- Node6&#45;&gt;Node7 -->
<g id="edge2" class="edge">
<title>Node6&#45;&gt;Node7</title>
<path fill="none" stroke="#191970" d="M244.2938,-209.798C250.1427,-238.921 271.4024,-325.7378 324,-371 325.9557,-372.6829 328.0573,-374.2168 330.2636,-375.6148"/>
<polygon fill="#191970" stroke="#191970" points="328.7306,-378.7635 339.2042,-380.3613 332.013,-372.5808 328.7306,-378.7635"/>
</g>
<!-- Node8 -->
<g id="node4" class="node">
<title>Node8</title>
<g id="a_node4"><a xlink:href="../../d6/d10/drv__hrt_8h.html#a185fdd7c4d51c3f7ef22133ef56f9a55" target="_top" xlink:title="Call callout(arg) after delay has elapsed. ">
<polygon fill="#ffffff" stroke="#000000" points="350,-342.5 350,-361.5 423,-361.5 423,-342.5 350,-342.5"/>
<text text-anchor="middle" x="386.5" y="-349.5" font-family="Helvetica,sans-Serif" font-size="10.00" fill="#000000">hrt_call_after</text>
</a>
</g>
</g>
<!-- Node6&#45;&gt;Node8 -->
<g id="edge3" class="edge">
<title>Node6&#45;&gt;Node8</title>
<path fill="none" stroke="#191970" d="M245.6854,-209.6898C254.2379,-234.1855 280.0779,-299.047 324,-333 328.8284,-336.7325 334.3885,-339.7354 340.1594,-342.1504"/>
<polygon fill="#191970" stroke="#191970" points="339.384,-345.5911 349.9784,-345.6848 341.7548,-339.0047 339.384,-345.5911"/>
</g>
<!-- Node9 -->
<g id="node5" class="node">
<title>Node9</title>
<g id="a_node5"><a xlink:href="../../d6/d10/drv__hrt_8h.html#a7d49af6c126c7e49c903e2e47e70d716" target="_top" xlink:title="Call callout(arg) at absolute time calltime. ">
<polygon fill="#ffffff" stroke="#000000" points="355.5,-304.5 355.5,-323.5 417.5,-323.5 417.5,-304.5 355.5,-304.5"/>
<text text-anchor="middle" x="386.5" y="-311.5" font-family="Helvetica,sans-Serif" font-size="10.00" fill="#000000">hrt_call_at</text>
</a>
</g>
</g>
<!-- Node6&#45;&gt;Node9 -->
<g id="edge4" class="edge">
<title>Node6&#45;&gt;Node9</title>
<path fill="none" stroke="#191970" d="M248.1333,-209.6651C259.8033,-228.8391 288.5186,-271.8332 324,-295 330.5367,-299.268 338.077,-302.6145 345.6085,-305.2264"/>
<polygon fill="#191970" stroke="#191970" points="344.8319,-308.6495 355.4193,-308.2528 346.8953,-301.9606 344.8319,-308.6495"/>
</g>
<!-- Node10 -->
<g id="node6" class="node">
<title>Node10</title>
<g id="a_node6"><a xlink:href="../../d6/d10/drv__hrt_8h.html#a2c90bdef11ab9384cde0fa4c080ec697" target="_top" xlink:title="hrt_call_delay">
<polygon fill="#ffffff" stroke="#000000" points="348,-266.5 348,-285.5 425,-285.5 425,-266.5 348,-266.5"/>
<text text-anchor="middle" x="386.5" y="-273.5" font-family="Helvetica,sans-Serif" font-size="10.00" fill="#000000">hrt_call_delay</text>
</a>
</g>
</g>
<!-- Node6&#45;&gt;Node10 -->
<g id="edge5" class="edge">
<title>Node6&#45;&gt;Node10</title>
<path fill="none" stroke="#191970" d="M253.6535,-209.5386C268.72,-222 296.8277,-243.783 324,-257 328.5989,-259.237 333.5169,-261.2754 338.4988,-263.1158"/>
<polygon fill="#191970" stroke="#191970" points="337.4965,-266.4722 348.0912,-266.4111 339.7708,-259.8519 337.4965,-266.4722"/>
</g>
<!-- Node11 -->
<g id="node7" class="node">
<title>Node11</title>
<g id="a_node7"><a xlink:href="../../d6/d10/drv__hrt_8h.html#afef961eed389b142649f3d904df16cd2" target="_top" xlink:title="Call callout(arg) after delay, and then after every interval. ">
<polygon fill="#ffffff" stroke="#000000" points="348,-228.5 348,-247.5 425,-247.5 425,-228.5 348,-228.5"/>
<text text-anchor="middle" x="386.5" y="-235.5" font-family="Helvetica,sans-Serif" font-size="10.00" fill="#000000">hrt_call_every</text>
</a>
</g>
</g>
<!-- Node6&#45;&gt;Node11 -->
<g id="edge6" class="edge">
<title>Node6&#45;&gt;Node11</title>
<path fill="none" stroke="#191970" d="M278.8373,-209.589C297.5829,-214.5358 320.6432,-220.6211 340.6066,-225.8892"/>
<polygon fill="#191970" stroke="#191970" points="339.8619,-229.3125 350.424,-228.4799 341.6481,-222.5442 339.8619,-229.3125"/>
</g>
<!-- Node12 -->
<g id="node8" class="node">
<title>Node12</title>
<g id="a_node8"><a xlink:href="../../d6/d10/drv__hrt_8h.html#a0d90b23c796be1ed96cc58db0a38046d" target="_top" xlink:title="Initialise a hrt_call structure. ">
<polygon fill="#ffffff" stroke="#000000" points="353.5,-190.5 353.5,-209.5 419.5,-209.5 419.5,-190.5 353.5,-190.5"/>
<text text-anchor="middle" x="386.5" y="-197.5" font-family="Helvetica,sans-Serif" font-size="10.00" fill="#000000">hrt_call_init</text>
</a>
</g>
</g>
<!-- Node6&#45;&gt;Node12 -->
<g id="edge7" class="edge">
<title>Node6&#45;&gt;Node12</title>
<path fill="none" stroke="#191970" d="M288.0625,-200C305.5308,-200 325.41,-200 342.7087,-200"/>
<polygon fill="#191970" stroke="#191970" points="343.1016,-203.5001 353.1016,-200 343.1015,-196.5001 343.1016,-203.5001"/>
</g>
<!-- Node13 -->
<g id="node9" class="node">
<title>Node13</title>
<g id="a_node9"><a xlink:href="../../d6/d10/drv__hrt_8h.html#a384e9e9c38310512247c86560adb0b6d" target="_top" xlink:title="If this returns true, the entry has been invoked and removed from the callout list, or it has never been entered. ">
<polygon fill="#ffffff" stroke="#000000" points="357,-152.5 357,-171.5 416,-171.5 416,-152.5 357,-152.5"/>
<text text-anchor="middle" x="386.5" y="-159.5" font-family="Helvetica,sans-Serif" font-size="10.00" fill="#000000">hrt_called</text>
</a>
</g>
</g>
<!-- Node6&#45;&gt;Node13 -->
<g id="edge8" class="edge">
<title>Node6&#45;&gt;Node13</title>
<path fill="none" stroke="#191970" d="M278.8373,-190.411C299.6961,-184.9066 325.8973,-177.9924 347.2294,-172.3631"/>
<polygon fill="#191970" stroke="#191970" points="348.1816,-175.7317 356.9575,-169.7959 346.3955,-168.9634 348.1816,-175.7317"/>
</g>
<!-- Node14 -->
<g id="node10" class="node">
<title>Node14</title>
<g id="a_node10"><a xlink:href="../../d6/d10/drv__hrt_8h.html#aa4f22acddbadeed844ef6329629d2837" target="_top" xlink:title="Remove the entry from the callout list. ">
<polygon fill="#ffffff" stroke="#000000" points="355.5,-114.5 355.5,-133.5 417.5,-133.5 417.5,-114.5 355.5,-114.5"/>
<text text-anchor="middle" x="386.5" y="-121.5" font-family="Helvetica,sans-Serif" font-size="10.00" fill="#000000">hrt_cancel</text>
</a>
</g>
</g>
<!-- Node6&#45;&gt;Node14 -->
<g id="edge9" class="edge">
<title>Node6&#45;&gt;Node14</title>
<path fill="none" stroke="#191970" d="M253.6535,-190.4614C268.72,-178 296.8277,-156.217 324,-143 330.731,-139.7259 338.1456,-136.8772 345.4438,-134.4521"/>
<polygon fill="#191970" stroke="#191970" points="346.7365,-137.7156 355.2487,-131.4075 344.6606,-131.0305 346.7365,-137.7156"/>
</g>
<!-- Node15 -->
<g id="node11" class="node">
<title>Node15</title>
<g id="a_node11"><a xlink:href="../../d6/d10/drv__hrt_8h.html#a721dee0a94d421de75e4836aed05c0b8" target="_top" xlink:title="Compute the delta between a timestamp taken in the past and now. ">
<polygon fill="#ffffff" stroke="#000000" points="324,-76.5 324,-95.5 449,-95.5 449,-76.5 324,-76.5"/>
<text text-anchor="middle" x="386.5" y="-83.5" font-family="Helvetica,sans-Serif" font-size="10.00" fill="#000000">hrt_elapsed_time_atomic</text>
</a>
</g>
</g>
<!-- Node6&#45;&gt;Node15 -->
<g id="edge10" class="edge">
<title>Node6&#45;&gt;Node15</title>
<path fill="none" stroke="#191970" d="M248.1333,-190.3349C259.8033,-171.1609 288.5186,-128.1668 324,-105 327.1278,-102.9578 330.4853,-101.1266 333.9617,-99.4859"/>
<polygon fill="#191970" stroke="#191970" points="335.477,-102.6463 343.3654,-95.5736 332.7881,-96.1833 335.477,-102.6463"/>
</g>
<!-- Node16 -->
<g id="node12" class="node">
<title>Node16</title>
<g id="a_node12"><a xlink:href="../../d6/d10/drv__hrt_8h.html#a4d623c5e3d99e6855ac85e606bd87e1c" target="_top" xlink:title="hrt_init">
<polygon fill="#ffffff" stroke="#000000" points="363.5,-38.5 363.5,-57.5 409.5,-57.5 409.5,-38.5 363.5,-38.5"/>
<text text-anchor="middle" x="386.5" y="-45.5" font-family="Helvetica,sans-Serif" font-size="10.00" fill="#000000">hrt_init</text>
</a>
</g>
</g>
<!-- Node6&#45;&gt;Node16 -->
<g id="edge11" class="edge">
<title>Node6&#45;&gt;Node16</title>
<path fill="none" stroke="#191970" d="M245.6854,-190.3102C254.2379,-165.8145 280.0779,-100.953 324,-67 332.4792,-60.4454 343.2149,-56.1409 353.3857,-53.3184"/>
<polygon fill="#191970" stroke="#191970" points="354.3492,-56.6869 363.2638,-50.9616 352.7246,-49.878 354.3492,-56.6869"/>
</g>
<!-- Node17 -->
<g id="node13" class="node">
<title>Node17</title>
<g id="a_node13"><a xlink:href="../../d6/d10/drv__hrt_8h.html#a37665926e3f760d970b8d2e5d63c94f8" target="_top" xlink:title="Store the absolute time in an interrupt&#45;safe fashion. ">
<polygon fill="#ffffff" stroke="#000000" points="326,-.5 326,-19.5 447,-19.5 447,-.5 326,-.5"/>
<text text-anchor="middle" x="386.5" y="-7.5" font-family="Helvetica,sans-Serif" font-size="10.00" fill="#000000">hrt_store_absolute_time</text>
</a>
</g>
</g>
<!-- Node6&#45;&gt;Node17 -->
<g id="edge12" class="edge">
<title>Node6&#45;&gt;Node17</title>
<path fill="none" stroke="#191970" d="M244.2938,-190.202C250.1427,-161.079 271.4024,-74.2622 324,-29 325.9557,-27.3171 328.0573,-25.7832 330.2636,-24.3852"/>
<polygon fill="#191970" stroke="#191970" points="332.013,-27.4192 339.2042,-19.6387 328.7306,-21.2365 332.013,-27.4192"/>
</g>
</g>
</svg>
