<?xml version="1.0" encoding="UTF-8" standalone="no"?>
<!DOCTYPE svg PUBLIC "-//W3C//DTD SVG 1.1//EN"
 "http://www.w3.org/Graphics/SVG/1.1/DTD/svg11.dtd">
<!-- Generated by graphviz version 2.38.0 (20140413.2041)
 -->
<!-- Title: TimestampedList&lt; T &gt; Pages: 1 -->
<svg width="124pt" height="386pt"
 viewBox="0.00 0.00 124.00 386.00" xmlns="http://www.w3.org/2000/svg" xmlns:xlink="http://www.w3.org/1999/xlink">
<g id="graph0" class="graph" transform="scale(1 1) rotate(0) translate(4 382)">
<title>TimestampedList&lt; T &gt;</title>
<polygon fill="white" stroke="none" points="-4,4 -4,-382 120,-382 120,4 -4,4"/>
<!-- Node1 -->
<g id="node1" class="node"><title>Node1</title>
<polygon fill="#bfbfbf" stroke="black" points="-7.10543e-15,-0.5 -7.10543e-15,-156.5 116,-156.5 116,-0.5 -7.10543e-15,-0.5"/>
<text text-anchor="middle" x="58" y="-144.5" font-family="Helvetica,sans-Serif" font-size="10.00">TimestampedList&lt; T &gt;</text>
<polyline fill="none" stroke="black" points="-7.10543e-15,-137.5 116,-137.5 "/>
<text text-anchor="start" x="8" y="-125.5" font-family="Helvetica,sans-Serif" font-size="10.00">&#45; _list_len</text>
<text text-anchor="start" x="8" y="-114.5" font-family="Helvetica,sans-Serif" font-size="10.00">&#45; _current_i</text>
<polyline fill="none" stroke="black" points="-7.10543e-15,-107.5 116,-107.5 "/>
<text text-anchor="start" x="8" y="-95.5" font-family="Helvetica,sans-Serif" font-size="10.00">+ TimestampedList()</text>
<text text-anchor="start" x="8" y="-84.5" font-family="Helvetica,sans-Serif" font-size="10.00">+ ~TimestampedList()</text>
<text text-anchor="start" x="8" y="-73.5" font-family="Helvetica,sans-Serif" font-size="10.00">+ put()</text>
<text text-anchor="start" x="8" y="-62.5" font-family="Helvetica,sans-Serif" font-size="10.00">+ reset_to_start()</text>
<text text-anchor="start" x="8" y="-51.5" font-family="Helvetica,sans-Serif" font-size="10.00">+ get_next()</text>
<text text-anchor="start" x="8" y="-40.5" font-family="Helvetica,sans-Serif" font-size="10.00">+ drop_current()</text>
<text text-anchor="start" x="8" y="-29.5" font-family="Helvetica,sans-Serif" font-size="10.00">+ update_current()</text>
<text text-anchor="start" x="8" y="-18.5" font-family="Helvetica,sans-Serif" font-size="10.00">+ TimestampedList()</text>
<text text-anchor="start" x="8" y="-7.5" font-family="Helvetica,sans-Serif" font-size="10.00">+ operator=()</text>
</g>
<!-- Node2 -->
<g id="node2" class="node"><title>Node2</title>
<g id="a_node2"><a xlink:href="../../d9/da3/struct_timestamped_list_1_1item__t.html" target="_top" xlink:title="{TimestampedList\&lt; T\l \&gt;::item_t\n|+ timestamp_us\l|}">
<polygon fill="white" stroke="black" points="4.5,-204.5 4.5,-272.5 111.5,-272.5 111.5,-204.5 4.5,-204.5"/>
<text text-anchor="start" x="12.5" y="-260.5" font-family="Helvetica,sans-Serif" font-size="10.00">TimestampedList&lt; T</text>
<text text-anchor="middle" x="58" y="-249.5" font-family="Helvetica,sans-Serif" font-size="10.00"> &gt;::item_t</text>
<polyline fill="none" stroke="black" points="4.5,-242.5 111.5,-242.5 "/>
<text text-anchor="start" x="12.5" y="-230.5" font-family="Helvetica,sans-Serif" font-size="10.00">+ timestamp_us</text>
<polyline fill="none" stroke="black" points="4.5,-223.5 111.5,-223.5 "/>
<text text-anchor="middle" x="58" y="-211.5" font-family="Helvetica,sans-Serif" font-size="10.00"> </text>
</a>
</g>
</g>
<!-- Node2&#45;&gt;Node1 -->
<g id="edge1" class="edge"><title>Node2&#45;&gt;Node1</title>
<path fill="none" stroke="#404040" d="M58,-204.378C58,-193.749 58,-181.424 58,-168.742"/>
<polygon fill="none" stroke="#404040" points="58.0001,-168.516 54,-162.516 58,-156.516 62,-162.516 58.0001,-168.516"/>
<text text-anchor="middle" x="70.5" y="-178" font-family="Helvetica,sans-Serif" font-size="10.00"> &#45;_list</text>
</g>
<!-- Node3 -->
<g id="node3" class="node"><title>Node3</title>
<polygon fill="white" stroke="#bfbfbf" points="43.5,-320.5 43.5,-377.5 72.5,-377.5 72.5,-320.5 43.5,-320.5"/>
<text text-anchor="middle" x="58" y="-365.5" font-family="Helvetica,sans-Serif" font-size="10.00">T</text>
<polyline fill="none" stroke="#bfbfbf" points="43.5,-358.5 72.5,-358.5 "/>
<text text-anchor="middle" x="58" y="-346.5" font-family="Helvetica,sans-Serif" font-size="10.00"> </text>
<polyline fill="none" stroke="#bfbfbf" points="43.5,-339.5 72.5,-339.5 "/>
<text text-anchor="middle" x="58" y="-327.5" font-family="Helvetica,sans-Serif" font-size="10.00"> </text>
</g>
<!-- Node3&#45;&gt;Node2 -->
<g id="edge2" class="edge"><title>Node3&#45;&gt;Node2</title>
<path fill="none" stroke="#404040" d="M58,-320.34C58,-309.529 58,-296.847 58,-284.775"/>
<polygon fill="none" stroke="#404040" points="58.0001,-284.519 54,-278.519 58,-272.519 62,-278.519 58.0001,-284.519"/>
<text text-anchor="middle" x="74.5" y="-294" font-family="Helvetica,sans-Serif" font-size="10.00"> +value</text>
</g>
</g>
</svg>
