<?xml version="1.0" encoding="UTF-8" standalone="no"?>
<!DOCTYPE svg PUBLIC "-//W3C//DTD SVG 1.1//EN"
 "http://www.w3.org/Graphics/SVG/1.1/DTD/svg11.dtd">
<!-- Generated by graphviz version 2.38.0 (20140413.2041)
 -->
<!-- Title: Mission::index_closest_mission_item Pages: 1 -->
<svg width="533pt" height="134pt"
 viewBox="0.00 0.00 533.00 133.75" xmlns="http://www.w3.org/2000/svg" xmlns:xlink="http://www.w3.org/1999/xlink">
<g id="graph0" class="graph" transform="scale(1 1) rotate(0) translate(4 129.753)">
<title>Mission::index_closest_mission_item</title>
<polygon fill="white" stroke="none" points="-4,4 -4,-129.753 529,-129.753 529,4 -4,4"/>
<!-- Node1 -->
<g id="node1" class="node"><title>Node1</title>
<polygon fill="#bfbfbf" stroke="black" points="0,-63.5 0,-93.5 116,-93.5 116,-63.5 0,-63.5"/>
<text text-anchor="start" x="8" y="-81.5" font-family="Helvetica,sans-Serif" font-size="10.00">Mission::index_closest</text>
<text text-anchor="middle" x="58" y="-70.5" font-family="Helvetica,sans-Serif" font-size="10.00">_mission_item</text>
</g>
<!-- Node2 -->
<g id="node2" class="node"><title>Node2</title>
<g id="a_node2"><a xlink:href="../../db/dad/class_mission.html#a66faf42bbcad511839c305a80893ee38" target="_top" xlink:title="Mission::get_mission\l_waypoints_changed">
<polygon fill="white" stroke="black" points="302,-44.5 302,-74.5 411,-74.5 411,-44.5 302,-44.5"/>
<text text-anchor="start" x="310" y="-62.5" font-family="Helvetica,sans-Serif" font-size="10.00">Mission::get_mission</text>
<text text-anchor="middle" x="356.5" y="-51.5" font-family="Helvetica,sans-Serif" font-size="10.00">_waypoints_changed</text>
</a>
</g>
</g>
<!-- Node1&#45;&gt;Node2 -->
<g id="edge1" class="edge"><title>Node1&#45;&gt;Node2</title>
<path fill="none" stroke="midnightblue" d="M97.0955,-97.9724C113.533,-105.334 133.258,-112.819 152,-116.5 201.717,-126.265 217.356,-130.675 266,-116.5 293.944,-108.357 321.487,-88.5532 338.48,-74.584"/>
<polygon fill="midnightblue" stroke="midnightblue" points="98.3745,-94.7077 87.8294,-93.6823 95.4334,-101.06 98.3745,-94.7077"/>
</g>
<!-- Node4 -->
<g id="node4" class="node"><title>Node4</title>
<g id="a_node4"><a xlink:href="../../db/dad/class_mission.html#a3561ffcb7a9229e67b0ff553f4853ea3" target="_top" xlink:title="This function is called one time when mode becomes active, pos_sp_triplet must be initialized here...">
<polygon fill="white" stroke="black" points="152,-88 152,-107 266,-107 266,-88 152,-88"/>
<text text-anchor="middle" x="209" y="-95" font-family="Helvetica,sans-Serif" font-size="10.00">Mission::on_activation</text>
</a>
</g>
</g>
<!-- Node1&#45;&gt;Node4 -->
<g id="edge3" class="edge"><title>Node1&#45;&gt;Node4</title>
<path fill="none" stroke="midnightblue" d="M126.129,-87.06C134.677,-88.1501 143.356,-89.2568 151.709,-90.322"/>
<polygon fill="midnightblue" stroke="midnightblue" points="126.544,-83.5847 116.181,-85.7916 125.658,-90.5285 126.544,-83.5847"/>
</g>
<!-- Node5 -->
<g id="node5" class="node"><title>Node5</title>
<g id="a_node5"><a xlink:href="../../db/dad/class_mission.html#a14c34cbf0575ae27e9f016b1e038b8e8" target="_top" xlink:title="This function is called while the mode is active. ">
<polygon fill="white" stroke="black" points="160,-50 160,-69 258,-69 258,-50 160,-50"/>
<text text-anchor="middle" x="209" y="-57" font-family="Helvetica,sans-Serif" font-size="10.00">Mission::on_active</text>
</a>
</g>
</g>
<!-- Node1&#45;&gt;Node5 -->
<g id="edge4" class="edge"><title>Node1&#45;&gt;Node5</title>
<path fill="none" stroke="midnightblue" d="M126.113,-69.942C137.514,-68.4882 149.148,-67.0047 159.933,-65.6294"/>
<polygon fill="midnightblue" stroke="midnightblue" points="125.658,-66.4715 116.181,-71.2084 126.544,-73.4153 125.658,-66.4715"/>
</g>
<!-- Node6 -->
<g id="node6" class="node"><title>Node6</title>
<g id="a_node6"><a xlink:href="../../db/dad/class_mission.html#a6f21d148124ca9c56513e0962f99f1a6" target="_top" xlink:title="Mission::set_closest\l_item_as_current">
<polygon fill="white" stroke="black" points="155.5,-0.5 155.5,-30.5 262.5,-30.5 262.5,-0.5 155.5,-0.5"/>
<text text-anchor="start" x="163.5" y="-18.5" font-family="Helvetica,sans-Serif" font-size="10.00">Mission::set_closest</text>
<text text-anchor="middle" x="209" y="-7.5" font-family="Helvetica,sans-Serif" font-size="10.00">_item_as_current</text>
</a>
</g>
</g>
<!-- Node1&#45;&gt;Node6 -->
<g id="edge5" class="edge"><title>Node1&#45;&gt;Node6</title>
<path fill="none" stroke="midnightblue" d="M104.104,-59.429C125.977,-50.1808 151.876,-39.2303 172.344,-30.576"/>
<polygon fill="midnightblue" stroke="midnightblue" points="102.537,-56.2918 94.6892,-63.4099 105.263,-62.7392 102.537,-56.2918"/>
</g>
<!-- Node3 -->
<g id="node3" class="node"><title>Node3</title>
<g id="a_node3"><a xlink:href="../../d0/df9/class_navigator.html#a3017930bf9ef9f3d6ead0a79989e4086" target="_top" xlink:title="Navigator::run">
<polygon fill="white" stroke="black" points="447,-28 447,-47 525,-47 525,-28 447,-28"/>
<text text-anchor="middle" x="486" y="-35" font-family="Helvetica,sans-Serif" font-size="10.00">Navigator::run</text>
</a>
</g>
</g>
<!-- Node2&#45;&gt;Node3 -->
<g id="edge2" class="edge"><title>Node2&#45;&gt;Node3</title>
<path fill="none" stroke="midnightblue" d="M421.101,-48.5258C429.901,-47.0072 438.706,-45.488 446.843,-44.084"/>
<polygon fill="midnightblue" stroke="midnightblue" points="420.461,-45.0843 411.202,-50.2338 421.651,-51.9824 420.461,-45.0843"/>
</g>
<!-- Node6&#45;&gt;Node2 -->
<g id="edge6" class="edge"><title>Node6&#45;&gt;Node2</title>
<path fill="none" stroke="midnightblue" d="M269.565,-33.5129C281.524,-37.1292 293.974,-40.8941 305.564,-44.3991"/>
<polygon fill="midnightblue" stroke="midnightblue" points="270.251,-30.0637 259.666,-30.5192 268.225,-36.7641 270.251,-30.0637"/>
</g>
<!-- Node6&#45;&gt;Node3 -->
<g id="edge7" class="edge"><title>Node6&#45;&gt;Node3</title>
<path fill="none" stroke="midnightblue" d="M272.769,-20.5215C326.335,-24.8068 401.634,-30.8307 446.65,-34.432"/>
<polygon fill="midnightblue" stroke="midnightblue" points="272.945,-17.0245 262.697,-19.7158 272.386,-24.0022 272.945,-17.0245"/>
</g>
</g>
</svg>
