<?xml version="1.0" encoding="UTF-8" standalone="no"?>
<!DOCTYPE svg PUBLIC "-//W3C//DTD SVG 1.1//EN"
 "http://www.w3.org/Graphics/SVG/1.1/DTD/svg11.dtd">
<!-- Generated by graphviz version 2.40.1 (20161225.0304)
 -->
<!-- Title: Mission::copy_position_if_valid Pages: 1 -->
<svg width="1144pt" height="192pt"
 viewBox="0.00 0.00 1144.00 192.00" xmlns="http://www.w3.org/2000/svg" xmlns:xlink="http://www.w3.org/1999/xlink">
<g id="graph0" class="graph" transform="scale(1 1) rotate(0) translate(4 188)">
<title>Mission::copy_position_if_valid</title>
<polygon fill="#ffffff" stroke="transparent" points="-4,4 -4,-188 1140,-188 1140,4 -4,4"/>
<!-- Node158 -->
<g id="node1" class="node">
<title>Node158</title>
<polygon fill="#bfbfbf" stroke="#000000" points="0,-107 0,-137 116,-137 116,-107 0,-107"/>
<text text-anchor="start" x="8" y="-125" font-family="Helvetica,sans-Serif" font-size="10.00" fill="#000000">Mission::copy_position</text>
<text text-anchor="middle" x="58" y="-114" font-family="Helvetica,sans-Serif" font-size="10.00" fill="#000000">_if_valid</text>
</g>
<!-- Node159 -->
<g id="node2" class="node">
<title>Node159</title>
<g id="a_node2"><a xlink:href="../../db/dad/class_mission.html#a33116a4afecc113b67d233f14de287ff" target="_top" xlink:title="Mission::get_landing_alt">
<polygon fill="#ffffff" stroke="#000000" points="428,-146.5 428,-165.5 550,-165.5 550,-146.5 428,-146.5"/>
<text text-anchor="middle" x="489" y="-153.5" font-family="Helvetica,sans-Serif" font-size="10.00" fill="#000000">Mission::get_landing_alt</text>
</a>
</g>
</g>
<!-- Node158&#45;&gt;Node159 -->
<g id="edge1" class="edge">
<title>Node158&#45;&gt;Node159</title>
<path fill="none" stroke="#191970" d="M119.1623,-139.5326C130.0228,-142.0953 141.2861,-144.404 152,-146 247.5249,-160.2295 359.909,-160.2705 427.7367,-158.5016"/>
<polygon fill="#191970" stroke="#191970" points="119.8748,-136.1037 109.3289,-137.1208 118.2073,-142.9022 119.8748,-136.1037"/>
</g>
<!-- Node163 -->
<g id="node6" class="node">
<title>Node163</title>
<g id="a_node6"><a xlink:href="../../db/dad/class_mission.html#a0f8f3ea8f7e1b4342278c137a5f4d256" target="_top" xlink:title="Create mission item to align towards next waypoint. ">
<polygon fill="#ffffff" stroke="#000000" points="152,-107 152,-137 247,-137 247,-107 152,-107"/>
<text text-anchor="start" x="160" y="-125" font-family="Helvetica,sans-Serif" font-size="10.00" fill="#000000">Mission::set_align</text>
<text text-anchor="middle" x="199.5" y="-114" font-family="Helvetica,sans-Serif" font-size="10.00" fill="#000000">_mission_item</text>
</a>
</g>
</g>
<!-- Node158&#45;&gt;Node163 -->
<g id="edge5" class="edge">
<title>Node158&#45;&gt;Node163</title>
<path fill="none" stroke="#191970" d="M126.622,-122C135.0696,-122 143.5576,-122 151.6038,-122"/>
<polygon fill="#191970" stroke="#191970" points="126.3704,-118.5001 116.3704,-122 126.3704,-125.5001 126.3704,-118.5001"/>
</g>
<!-- Node164 -->
<g id="node7" class="node">
<title>Node164</title>
<g id="a_node7"><a xlink:href="../../db/dad/class_mission.html#a2f25f09d8e1688237be7a0abb28d542a" target="_top" xlink:title="Set new mission items. ">
<polygon fill="#ffffff" stroke="#000000" points="283,-66 283,-96 392,-96 392,-66 283,-66"/>
<text text-anchor="start" x="291" y="-84" font-family="Helvetica,sans-Serif" font-size="10.00" fill="#000000">Mission::set_mission</text>
<text text-anchor="middle" x="337.5" y="-73" font-family="Helvetica,sans-Serif" font-size="10.00" fill="#000000">_items</text>
</a>
</g>
</g>
<!-- Node158&#45;&gt;Node164 -->
<g id="edge20" class="edge">
<title>Node158&#45;&gt;Node164</title>
<path fill="none" stroke="#191970" d="M118.0743,-104.3639C129.2745,-101.5499 140.9353,-98.9334 152,-97 195.6235,-89.3774 245.682,-85.3311 282.7946,-83.2164"/>
<polygon fill="#191970" stroke="#191970" points="117.1799,-100.98 108.3769,-106.8755 118.935,-107.7564 117.1799,-100.98"/>
</g>
<!-- Node160 -->
<g id="node3" class="node">
<title>Node160</title>
<g id="a_node3"><a xlink:href="../../d0/df9/class_navigator.html#a8e3be5708b076504322f33b7ef49f8a6" target="_top" xlink:title="Navigator::get_mission\l_landing_alt">
<polygon fill="#ffffff" stroke="#000000" points="586,-153 586,-183 703,-183 703,-153 586,-153"/>
<text text-anchor="start" x="594" y="-171" font-family="Helvetica,sans-Serif" font-size="10.00" fill="#000000">Navigator::get_mission</text>
<text text-anchor="middle" x="644.5" y="-160" font-family="Helvetica,sans-Serif" font-size="10.00" fill="#000000">_landing_alt</text>
</a>
</g>
</g>
<!-- Node159&#45;&gt;Node160 -->
<g id="edge2" class="edge">
<title>Node159&#45;&gt;Node160</title>
<path fill="none" stroke="#191970" d="M560.0932,-161.4863C568.7469,-162.1541 577.5114,-162.8305 585.9536,-163.4819"/>
<polygon fill="#191970" stroke="#191970" points="560.2511,-157.9882 550.0114,-160.7083 559.7124,-164.9674 560.2511,-157.9882"/>
</g>
<!-- Node161 -->
<g id="node4" class="node">
<title>Node161</title>
<g id="a_node4"><a xlink:href="../../d8/d7e/class_r_t_l.html#afa1df82479ac4da9c9d4f3d14798de22" target="_top" xlink:title="RTL::find_RTL_destination">
<polygon fill="#ffffff" stroke="#000000" points="739,-164.5 739,-183.5 873,-183.5 873,-164.5 739,-164.5"/>
<text text-anchor="middle" x="806" y="-171.5" font-family="Helvetica,sans-Serif" font-size="10.00" fill="#000000">RTL::find_RTL_destination</text>
</a>
</g>
</g>
<!-- Node160&#45;&gt;Node161 -->
<g id="edge3" class="edge">
<title>Node160&#45;&gt;Node161</title>
<path fill="none" stroke="#191970" d="M713.4105,-170.5601C721.8223,-170.8727 730.4093,-171.1917 738.7957,-171.5032"/>
<polygon fill="#191970" stroke="#191970" points="713.3851,-167.0569 703.2621,-170.1831 713.1252,-174.0521 713.3851,-167.0569"/>
</g>
<!-- Node162 -->
<g id="node5" class="node">
<title>Node162</title>
<g id="a_node5"><a xlink:href="../../d8/d7e/class_r_t_l.html#a70662870a113a01441428953874548e2" target="_top" xlink:title="This function is called while the mode is inactive. ">
<polygon fill="#ffffff" stroke="#000000" points="909.5,-164.5 909.5,-183.5 1000.5,-183.5 1000.5,-164.5 909.5,-164.5"/>
<text text-anchor="middle" x="955" y="-171.5" font-family="Helvetica,sans-Serif" font-size="10.00" fill="#000000">RTL::on_inactive</text>
</a>
</g>
</g>
<!-- Node161&#45;&gt;Node162 -->
<g id="edge4" class="edge">
<title>Node161&#45;&gt;Node162</title>
<path fill="none" stroke="#191970" d="M883.1344,-174C892.036,-174 900.8874,-174 909.1793,-174"/>
<polygon fill="#191970" stroke="#191970" points="883.09,-170.5001 873.09,-174 883.09,-177.5001 883.09,-170.5001"/>
</g>
<!-- Node163&#45;&gt;Node159 -->
<g id="edge19" class="edge">
<title>Node163&#45;&gt;Node159</title>
<path fill="none" stroke="#191970" d="M257.4968,-128.8114C306.8448,-134.607 377.509,-142.9061 427.7621,-148.808"/>
<polygon fill="#191970" stroke="#191970" points="257.6451,-125.3048 247.305,-127.6144 256.8285,-132.257 257.6451,-125.3048"/>
</g>
<!-- Node163&#45;&gt;Node164 -->
<g id="edge6" class="edge">
<title>Node163&#45;&gt;Node164</title>
<path fill="none" stroke="#191970" d="M257.1226,-104.8802C267.0047,-101.9442 277.207,-98.9131 286.8883,-96.0368"/>
<polygon fill="#191970" stroke="#191970" points="255.9675,-101.5721 247.3784,-107.7753 257.9611,-108.2823 255.9675,-101.5721"/>
</g>
<!-- Node164&#45;&gt;Node159 -->
<g id="edge18" class="edge">
<title>Node164&#45;&gt;Node159</title>
<path fill="none" stroke="#191970" d="M377.4236,-100.7641C407.0913,-115.4511 446.2849,-134.8539 469.451,-146.3223"/>
<polygon fill="#191970" stroke="#191970" points="378.6731,-97.4773 368.1583,-96.1774 375.5674,-103.7507 378.6731,-97.4773"/>
</g>
<!-- Node165 -->
<g id="node8" class="node">
<title>Node165</title>
<g id="a_node8"><a xlink:href="../../db/dad/class_mission.html#a3561ffcb7a9229e67b0ff553f4853ea3" target="_top" xlink:title="This function is called one time when mode becomes active, pos_sp_triplet must be initialized here...">
<polygon fill="#ffffff" stroke="#000000" points="432,-38.5 432,-57.5 546,-57.5 546,-38.5 432,-38.5"/>
<text text-anchor="middle" x="489" y="-45.5" font-family="Helvetica,sans-Serif" font-size="10.00" fill="#000000">Mission::on_activation</text>
</a>
</g>
</g>
<!-- Node164&#45;&gt;Node165 -->
<g id="edge7" class="edge">
<title>Node164&#45;&gt;Node165</title>
<path fill="none" stroke="#191970" d="M402.1599,-66.9157C416.722,-63.7437 431.8429,-60.4501 445.307,-57.5173"/>
<polygon fill="#191970" stroke="#191970" points="401.2209,-63.538 392.195,-69.0862 402.7108,-70.3777 401.2209,-63.538"/>
</g>
<!-- Node166 -->
<g id="node9" class="node">
<title>Node166</title>
<g id="a_node9"><a xlink:href="../../db/dad/class_mission.html#a14c34cbf0575ae27e9f016b1e038b8e8" target="_top" xlink:title="This function is called while the mode is active. ">
<polygon fill="#ffffff" stroke="#000000" points="440,-.5 440,-19.5 538,-19.5 538,-.5 440,-.5"/>
<text text-anchor="middle" x="489" y="-7.5" font-family="Helvetica,sans-Serif" font-size="10.00" fill="#000000">Mission::on_active</text>
</a>
</g>
</g>
<!-- Node164&#45;&gt;Node166 -->
<g id="edge8" class="edge">
<title>Node164&#45;&gt;Node166</title>
<path fill="none" stroke="#191970" d="M369.4854,-60.3178C386.4132,-49.9718 407.8233,-37.8111 428,-29 436.1321,-25.4487 445.1386,-22.2615 453.679,-19.5577"/>
<polygon fill="#191970" stroke="#191970" points="367.2292,-57.5987 360.5784,-65.8461 370.9207,-63.5463 367.2292,-57.5987"/>
</g>
<!-- Node167 -->
<g id="node10" class="node">
<title>Node167</title>
<g id="a_node10"><a xlink:href="../../db/dad/class_mission.html#ae6c818eff59e74f3d610e9ed14b51864" target="_top" xlink:title="Mission::set_current\l_mission_index">
<polygon fill="#ffffff" stroke="#000000" points="436.5,-77 436.5,-107 541.5,-107 541.5,-77 436.5,-77"/>
<text text-anchor="start" x="444.5" y="-95" font-family="Helvetica,sans-Serif" font-size="10.00" fill="#000000">Mission::set_current</text>
<text text-anchor="middle" x="489" y="-84" font-family="Helvetica,sans-Serif" font-size="10.00" fill="#000000">_mission_index</text>
</a>
</g>
</g>
<!-- Node164&#45;&gt;Node167 -->
<g id="edge9" class="edge">
<title>Node164&#45;&gt;Node167</title>
<path fill="none" stroke="#191970" d="M402.4781,-85.7179C413.8083,-86.5405 425.4666,-87.387 436.4113,-88.1817"/>
<polygon fill="#191970" stroke="#191970" points="402.4222,-82.2047 392.195,-84.9713 401.9152,-89.1863 402.4222,-82.2047"/>
</g>
<!-- Node168 -->
<g id="node11" class="node">
<title>Node168</title>
<g id="a_node11"><a xlink:href="../../db/dad/class_mission.html#a0d0bfe31ec4e43f1de757a81f2b40598" target="_top" xlink:title="Mission::land_start">
<polygon fill="#ffffff" stroke="#000000" points="595,-82.5 595,-101.5 694,-101.5 694,-82.5 595,-82.5"/>
<text text-anchor="middle" x="644.5" y="-89.5" font-family="Helvetica,sans-Serif" font-size="10.00" fill="#000000">Mission::land_start</text>
</a>
</g>
</g>
<!-- Node167&#45;&gt;Node168 -->
<g id="edge10" class="edge">
<title>Node167&#45;&gt;Node168</title>
<path fill="none" stroke="#191970" d="M551.893,-92C566.1752,-92 581.152,-92 594.7977,-92"/>
<polygon fill="#191970" stroke="#191970" points="551.6452,-88.5001 541.6452,-92 551.6452,-95.5001 551.6452,-88.5001"/>
</g>
<!-- Node170 -->
<g id="node13" class="node">
<title>Node170</title>
<g id="a_node13"><a xlink:href="../../d0/df9/class_navigator.html#a3017930bf9ef9f3d6ead0a79989e4086" target="_top" xlink:title="Navigator::run">
<polygon fill="#ffffff" stroke="#000000" points="916,-76.5 916,-95.5 994,-95.5 994,-76.5 916,-76.5"/>
<text text-anchor="middle" x="955" y="-83.5" font-family="Helvetica,sans-Serif" font-size="10.00" fill="#000000">Navigator::run</text>
</a>
</g>
</g>
<!-- Node167&#45;&gt;Node170 -->
<g id="edge17" class="edge">
<title>Node167&#45;&gt;Node170</title>
<path fill="none" stroke="#191970" d="M551.4881,-77.9206C562.9125,-75.8723 574.7712,-74.0894 586,-73 705.7895,-61.3785 848.3474,-73.7957 915.8455,-81.2426"/>
<polygon fill="#191970" stroke="#191970" points="550.77,-74.4942 541.5869,-79.7783 552.0609,-81.3742 550.77,-74.4942"/>
</g>
<!-- Node169 -->
<g id="node12" class="node">
<title>Node169</title>
<g id="a_node12"><a xlink:href="../../d0/df9/class_navigator.html#a0a39ebe10ae1314fe8378c1d98481160" target="_top" xlink:title="Navigator::start_mission\l_landing">
<polygon fill="#ffffff" stroke="#000000" points="744.5,-115 744.5,-145 867.5,-145 867.5,-115 744.5,-115"/>
<text text-anchor="start" x="752.5" y="-133" font-family="Helvetica,sans-Serif" font-size="10.00" fill="#000000">Navigator::start_mission</text>
<text text-anchor="middle" x="806" y="-122" font-family="Helvetica,sans-Serif" font-size="10.00" fill="#000000">_landing</text>
</a>
</g>
</g>
<!-- Node168&#45;&gt;Node169 -->
<g id="edge11" class="edge">
<title>Node168&#45;&gt;Node169</title>
<path fill="none" stroke="#191970" d="M695.2361,-103.9379C710.8555,-107.6131 728.2217,-111.6992 744.4831,-115.5254"/>
<polygon fill="#191970" stroke="#191970" points="695.7891,-100.4725 685.2533,-101.589 694.1858,-107.2864 695.7891,-100.4725"/>
</g>
<!-- Node168&#45;&gt;Node170 -->
<g id="edge16" class="edge">
<title>Node168&#45;&gt;Node170</title>
<path fill="none" stroke="#191970" d="M704.1343,-90.8476C766.5141,-89.6422 862.6226,-87.7851 915.955,-86.7545"/>
<polygon fill="#191970" stroke="#191970" points="703.9735,-87.35 694.043,-91.0426 704.1088,-94.3487 703.9735,-87.35"/>
</g>
<!-- Node169&#45;&gt;Node170 -->
<g id="edge12" class="edge">
<title>Node169&#45;&gt;Node170</title>
<path fill="none" stroke="#191970" d="M866.4537,-112.1479C885.6497,-106.4793 906.1366,-100.4295 922.5644,-95.5783"/>
<polygon fill="#191970" stroke="#191970" points="865.4599,-108.7919 856.8606,-114.9808 867.4425,-115.5053 865.4599,-108.7919"/>
</g>
<!-- Node171 -->
<g id="node14" class="node">
<title>Node171</title>
<g id="a_node14"><a xlink:href="../../d8/d7e/class_r_t_l.html#ac93a9b9eced62dcee0c700ee8f5faca7" target="_top" xlink:title="Set the RTL item. ">
<polygon fill="#ffffff" stroke="#000000" points="909,-120.5 909,-139.5 1001,-139.5 1001,-120.5 909,-120.5"/>
<text text-anchor="middle" x="955" y="-127.5" font-family="Helvetica,sans-Serif" font-size="10.00" fill="#000000">RTL::set_rtl_item</text>
</a>
</g>
</g>
<!-- Node169&#45;&gt;Node171 -->
<g id="edge13" class="edge">
<title>Node169&#45;&gt;Node171</title>
<path fill="none" stroke="#191970" d="M877.9632,-130C888.515,-130 899.1348,-130 908.9744,-130"/>
<polygon fill="#191970" stroke="#191970" points="877.895,-126.5001 867.895,-130 877.8949,-133.5001 877.895,-126.5001"/>
</g>
<!-- Node172 -->
<g id="node15" class="node">
<title>Node172</title>
<g id="a_node15"><a xlink:href="../../d8/d7e/class_r_t_l.html#a08d3ece18df6bf8f59cbd73c05aceafe" target="_top" xlink:title="This function is called one time when mode becomes active, pos_sp_triplet must be initialized here...">
<polygon fill="#ffffff" stroke="#000000" points="1037,-139.5 1037,-158.5 1136,-158.5 1136,-139.5 1037,-139.5"/>
<text text-anchor="middle" x="1086.5" y="-146.5" font-family="Helvetica,sans-Serif" font-size="10.00" fill="#000000">RTL::on_activation</text>
</a>
</g>
</g>
<!-- Node171&#45;&gt;Node172 -->
<g id="edge14" class="edge">
<title>Node171&#45;&gt;Node172</title>
<path fill="none" stroke="#191970" d="M1011.2668,-138.1298C1019.8201,-139.3656 1028.5922,-140.6331 1036.9875,-141.8461"/>
<polygon fill="#191970" stroke="#191970" points="1011.7597,-134.6648 1001.362,-136.6987 1010.7587,-141.5928 1011.7597,-134.6648"/>
</g>
<!-- Node173 -->
<g id="node16" class="node">
<title>Node173</title>
<g id="a_node16"><a xlink:href="../../d8/d7e/class_r_t_l.html#a897039ae531d95ffd7f953edbc714b88" target="_top" xlink:title="This function is called while the mode is active. ">
<polygon fill="#ffffff" stroke="#000000" points="1045,-101.5 1045,-120.5 1128,-120.5 1128,-101.5 1045,-101.5"/>
<text text-anchor="middle" x="1086.5" y="-108.5" font-family="Helvetica,sans-Serif" font-size="10.00" fill="#000000">RTL::on_active</text>
</a>
</g>
</g>
<!-- Node171&#45;&gt;Node173 -->
<g id="edge15" class="edge">
<title>Node171&#45;&gt;Node173</title>
<path fill="none" stroke="#191970" d="M1011.5243,-121.833C1022.7437,-120.2119 1034.3288,-118.538 1044.9377,-117.0052"/>
<polygon fill="#191970" stroke="#191970" points="1010.7587,-118.4072 1001.362,-123.3013 1011.7597,-125.3352 1010.7587,-118.4072"/>
</g>
</g>
</svg>
