<?xml version="1.0" encoding="UTF-8" standalone="no"?>
<!DOCTYPE svg PUBLIC "-//W3C//DTD SVG 1.1//EN"
 "http://www.w3.org/Graphics/SVG/1.1/DTD/svg11.dtd">
<!-- Generated by graphviz version 2.40.1 (20161225.0304)
 -->
<!-- Title: VL53LXX::sensorTuning Pages: 1 -->
<svg width="572pt" height="28pt"
 viewBox="0.00 0.00 572.00 28.00" xmlns="http://www.w3.org/2000/svg" xmlns:xlink="http://www.w3.org/1999/xlink">
<g id="graph0" class="graph" transform="scale(1 1) rotate(0) translate(4 24)">
<title>VL53LXX::sensorTuning</title>
<polygon fill="#ffffff" stroke="transparent" points="-4,4 -4,-24 568,-24 568,4 -4,4"/>
<!-- Node730 -->
<g id="node1" class="node">
<title>Node730</title>
<polygon fill="#bfbfbf" stroke="#000000" points="0,-.5 0,-19.5 122,-19.5 122,-.5 0,-.5"/>
<text text-anchor="middle" x="61" y="-7.5" font-family="Helvetica,sans-Serif" font-size="10.00" fill="#000000">VL53LXX::sensorTuning</text>
</g>
<!-- Node731 -->
<g id="node2" class="node">
<title>Node731</title>
<g id="a_node2"><a xlink:href="../../de/dfe/class_v_l53_l_x_x.html#aa575c16fc434273abe372424ce7479fe" target="_top" xlink:title="VL53LXX::spadCalculations">
<polygon fill="#ffffff" stroke="#000000" points="158,-.5 158,-19.5 297,-19.5 297,-.5 158,-.5"/>
<text text-anchor="middle" x="227.5" y="-7.5" font-family="Helvetica,sans-Serif" font-size="10.00" fill="#000000">VL53LXX::spadCalculations</text>
</a>
</g>
</g>
<!-- Node730&#45;&gt;Node731 -->
<g id="edge1" class="edge">
<title>Node730&#45;&gt;Node731</title>
<path fill="none" stroke="#191970" d="M132.245,-10C140.6888,-10 149.3008,-10 157.7238,-10"/>
<polygon fill="#191970" stroke="#191970" points="132.0531,-6.5001 122.053,-10 132.053,-13.5001 132.0531,-6.5001"/>
</g>
<!-- Node732 -->
<g id="node3" class="node">
<title>Node732</title>
<g id="a_node3"><a xlink:href="../../de/dfe/class_v_l53_l_x_x.html#a1f37db226c057dc98209ec68d5161510" target="_top" xlink:title="VL53LXX::sensorInit">
<polygon fill="#ffffff" stroke="#000000" points="333,-.5 333,-19.5 440,-19.5 440,-.5 333,-.5"/>
<text text-anchor="middle" x="386.5" y="-7.5" font-family="Helvetica,sans-Serif" font-size="10.00" fill="#000000">VL53LXX::sensorInit</text>
</a>
</g>
</g>
<!-- Node731&#45;&gt;Node732 -->
<g id="edge2" class="edge">
<title>Node731&#45;&gt;Node732</title>
<path fill="none" stroke="#191970" d="M307.2827,-10C315.8564,-10 324.4258,-10 332.5919,-10"/>
<polygon fill="#191970" stroke="#191970" points="307.2398,-6.5001 297.2397,-10 307.2397,-13.5001 307.2398,-6.5001"/>
</g>
<!-- Node733 -->
<g id="node4" class="node">
<title>Node733</title>
<g id="a_node4"><a xlink:href="../../de/dfe/class_v_l53_l_x_x.html#aab8c0e4c39fdb8ee9b8ad821502a30bf" target="_top" xlink:title="VL53LXX::probe">
<polygon fill="#ffffff" stroke="#000000" points="476,-.5 476,-19.5 564,-19.5 564,-.5 476,-.5"/>
<text text-anchor="middle" x="520" y="-7.5" font-family="Helvetica,sans-Serif" font-size="10.00" fill="#000000">VL53LXX::probe</text>
</a>
</g>
</g>
<!-- Node732&#45;&gt;Node733 -->
<g id="edge3" class="edge">
<title>Node732&#45;&gt;Node733</title>
<path fill="none" stroke="#191970" d="M450.1711,-10C458.8672,-10 467.633,-10 475.8766,-10"/>
<polygon fill="#191970" stroke="#191970" points="450.0304,-6.5001 440.0303,-10 450.0303,-13.5001 450.0304,-6.5001"/>
</g>
</g>
</svg>
