<?xml version="1.0" encoding="UTF-8" standalone="no"?>
<!DOCTYPE svg PUBLIC "-//W3C//DTD SVG 1.1//EN"
 "http://www.w3.org/Graphics/SVG/1.1/DTD/svg11.dtd">
<!-- Generated by graphviz version 2.40.1 (20161225.0304)
 -->
<!-- Title: PX4IO::handle_motor_test Pages: 1 -->
<!--zoomable 680 -->
<svg id="main" version="1.1" xmlns="http://www.w3.org/2000/svg" xmlns:xlink="http://www.w3.org/1999/xlink" xml:space="preserve" onload="init(evt)">
<style type="text/css"><![CDATA[
.edge:hover path { stroke: red; }
.edge:hover polygon { stroke: red; fill: red; }
]]></style>
<script type="text/javascript"><![CDATA[
var edges = document.getElementsByTagName('g');
if (edges && edges.length) {
  for (var i=0;i<edges.length;i++) {
    if (edges[i].id.substr(0,4)=='edge') {
      edges[i].setAttribute('class','edge');
    }
  }
}
]]></script>
        <defs>
                <circle id="rim" cx="0" cy="0" r="7"/>
                <circle id="rim2" cx="0" cy="0" r="3.5"/>
                <g id="zoomPlus">
                        <use xlink:href="#rim" fill="#404040">
                                <set attributeName="fill" to="#808080" begin="zoomplus.mouseover" end="zoomplus.mouseout"/>
                        </use>
                        <path d="M-4,0h8M0,-4v8" fill="none" stroke="white" stroke-width="1.5" pointer-events="none"/>
                </g>
                <g id="zoomMin">
                        <use xlink:href="#rim" fill="#404040">
                                <set attributeName="fill" to="#808080" begin="zoomminus.mouseover" end="zoomminus.mouseout"/>
                        </use>
                        <path d="M-4,0h8" fill="none" stroke="white" stroke-width="1.5" pointer-events="none"/>
                </g>
                <g id="dirArrow">
                        <path fill="none" stroke="white" stroke-width="1.5" d="M0,-3.0v7 M-2.5,-0.5L0,-3.0L2.5,-0.5"/>
                </g>
               <g id="resetDef">
                       <use xlink:href="#rim2" fill="#404040">
                               <set attributeName="fill" to="#808080" begin="reset.mouseover" end="reset.mouseout"/>
                       </use>
               </g>
        </defs>

<script type="text/javascript">
var viewWidth = 1433;
var viewHeight = 680;
var sectionId = 'dynsection-9';
</script>
<script xlink:href="../../svgpan.js"/>
<svg id="graph" class="graph">
<g id="viewport">
<title>PX4IO::handle_motor_test</title>
<polygon fill="#ffffff" stroke="transparent" points="-4,4 -4,-676 1429,-676 1429,4 -4,4"/>
<!-- Node47 -->
<g id="node1" class="node">
<title>Node47</title>
<polygon fill="#bfbfbf" stroke="#000000" points="0,-234.5 0,-253.5 132,-253.5 132,-234.5 0,-234.5"/>
<text text-anchor="middle" x="66" y="-241.5" font-family="Helvetica,sans-Serif" font-size="10.00" fill="#000000">PX4IO::handle_motor_test</text>
</g>
<!-- Node48 -->
<g id="node2" class="node">
<title>Node48</title>
<g id="a_node2"><a xlink:href="../../d6/d10/drv__hrt_8h.html#a1450e339b7c5b8d47656500167a6676d" target="_top" xlink:title="Get absolute time in [us] (does not wrap). ">
<polygon fill="#ffffff" stroke="#000000" points="323.5,-652.5 323.5,-671.5 417.5,-671.5 417.5,-652.5 323.5,-652.5"/>
<text text-anchor="middle" x="370.5" y="-659.5" font-family="Helvetica,sans-Serif" font-size="10.00" fill="#000000">hrt_absolute_time</text>
</a>
</g>
</g>
<!-- Node47&#45;&gt;Node48 -->
<g id="edge1" class="edge">
<title>Node47&#45;&gt;Node48</title>
<path fill="none" stroke="#191970" d="M69.2405,-253.5678C80.361,-285.7762 119.0022,-392.6811 168,-472 219.6202,-555.5641 226.3796,-588.3583 308,-643 311.054,-645.0445 314.3363,-646.8759 317.7402,-648.5153"/>
<polygon fill="#191970" stroke="#191970" points="316.388,-651.7436 326.9612,-652.4212 319.1183,-645.298 316.388,-651.7436"/>
</g>
<!-- Node49 -->
<g id="node3" class="node">
<title>Node49</title>
<g id="a_node3"><a xlink:href="../../d6/d10/drv__hrt_8h.html#af3323411019f0236c77bf283463cb50b" target="_top" xlink:title="Compute the delta between a timestamp taken in the past and now. ">
<polygon fill="#ffffff" stroke="#000000" points="174.5,-443.5 174.5,-462.5 265.5,-462.5 265.5,-443.5 174.5,-443.5"/>
<text text-anchor="middle" x="220" y="-450.5" font-family="Helvetica,sans-Serif" font-size="10.00" fill="#000000">hrt_elapsed_time</text>
</a>
</g>
</g>
<!-- Node47&#45;&gt;Node49 -->
<g id="edge2" class="edge">
<title>Node47&#45;&gt;Node49</title>
<path fill="none" stroke="#191970" d="M73.0172,-253.5234C96.9184,-285.9607 175.4072,-392.4812 206.8259,-435.1209"/>
<polygon fill="#191970" stroke="#191970" points="204.1918,-437.4463 212.9416,-443.4207 209.8272,-433.2939 204.1918,-437.4463"/>
</g>
<!-- Node60 -->
<g id="node14" class="node">
<title>Node60</title>
<g id="a_node14"><a xlink:href="../../d1/dde/class_p_x4_i_o.html#a78a41abc35fc123c07895b4eba64b5f3" target="_top" xlink:title="read register(s) ">
<polygon fill="#ffffff" stroke="#000000" points="171.5,-234.5 171.5,-253.5 268.5,-253.5 268.5,-234.5 171.5,-234.5"/>
<text text-anchor="middle" x="220" y="-241.5" font-family="Helvetica,sans-Serif" font-size="10.00" fill="#000000">PX4IO::io_reg_get</text>
</a>
</g>
</g>
<!-- Node47&#45;&gt;Node60 -->
<g id="edge14" class="edge">
<title>Node47&#45;&gt;Node60</title>
<path fill="none" stroke="#191970" d="M132.2036,-244C141.7824,-244 151.5887,-244 161.0135,-244"/>
<polygon fill="#191970" stroke="#191970" points="161.0619,-247.5001 171.0618,-244 161.0618,-240.5001 161.0619,-247.5001"/>
</g>
<!-- Node62 -->
<g id="node16" class="node">
<title>Node62</title>
<g id="a_node16"><a xlink:href="../../d1/dde/class_p_x4_i_o.html#aba8d6360b436affe17f67a8df1784c55" target="_top" xlink:title="write register(s) ">
<polygon fill="#ffffff" stroke="#000000" points="171.5,-196.5 171.5,-215.5 268.5,-215.5 268.5,-196.5 171.5,-196.5"/>
<text text-anchor="middle" x="220" y="-203.5" font-family="Helvetica,sans-Serif" font-size="10.00" fill="#000000">PX4IO::io_reg_set</text>
</a>
</g>
</g>
<!-- Node47&#45;&gt;Node62 -->
<g id="edge16" class="edge">
<title>Node47&#45;&gt;Node62</title>
<path fill="none" stroke="#191970" d="M104.8607,-234.411C125.0911,-229.4191 150.0207,-223.2676 171.5036,-217.9666"/>
<polygon fill="#191970" stroke="#191970" points="172.5485,-221.3139 181.4187,-215.5201 170.8714,-214.5177 172.5485,-221.3139"/>
</g>
<!-- Node64 -->
<g id="node18" class="node">
<title>Node64</title>
<g id="a_node18"><a xlink:href="../../d0/d65/classu_o_r_b_1_1_subscription.html#a2376542413f8b31c20bcbfc1a11b13ea" target="_top" xlink:title="Update the struct. ">
<polygon fill="#ffffff" stroke="#000000" points="168,-147 168,-177 272,-177 272,-147 168,-147"/>
<text text-anchor="start" x="176" y="-165" font-family="Helvetica,sans-Serif" font-size="10.00" fill="#000000">uORB::Subscription</text>
<text text-anchor="middle" x="220" y="-154" font-family="Helvetica,sans-Serif" font-size="10.00" fill="#000000">::update</text>
</a>
</g>
</g>
<!-- Node47&#45;&gt;Node64 -->
<g id="edge18" class="edge">
<title>Node47&#45;&gt;Node64</title>
<path fill="none" stroke="#191970" d="M82.437,-234.4037C102.4562,-222.812 137.3933,-202.8902 168,-187 171.5005,-185.1826 175.1544,-183.3329 178.8316,-181.5037"/>
<polygon fill="#191970" stroke="#191970" points="180.5119,-184.5779 187.9463,-177.0294 177.4272,-178.2942 180.5119,-184.5779"/>
</g>
<!-- Node49&#45;&gt;Node48 -->
<g id="edge3" class="edge">
<title>Node49&#45;&gt;Node48</title>
<path fill="none" stroke="#191970" d="M224.1713,-462.5683C240.6177,-500.2175 300.4414,-636.4227 308,-643 309.9838,-644.7262 312.121,-646.2956 314.3675,-647.7224"/>
<polygon fill="#191970" stroke="#191970" points="313.0058,-650.9618 323.481,-652.549 316.2819,-644.7758 313.0058,-650.9618"/>
</g>
<!-- Node50 -->
<g id="node4" class="node">
<title>Node50</title>
<g id="a_node4"><a xlink:href="../../d6/d10/drv__hrt_8h.html#a185fdd7c4d51c3f7ef22133ef56f9a55" target="_top" xlink:title="Call callout(arg) after delay has elapsed. ">
<polygon fill="#ffffff" stroke="#000000" points="334,-424.5 334,-443.5 407,-443.5 407,-424.5 334,-424.5"/>
<text text-anchor="middle" x="370.5" y="-431.5" font-family="Helvetica,sans-Serif" font-size="10.00" fill="#000000">hrt_call_after</text>
</a>
</g>
</g>
<!-- Node49&#45;&gt;Node50 -->
<g id="edge4" class="edge">
<title>Node49&#45;&gt;Node50</title>
<path fill="none" stroke="#191970" d="M265.5634,-447.2478C283.9588,-444.9255 305.173,-442.2473 323.6923,-439.9093"/>
<polygon fill="#191970" stroke="#191970" points="324.1857,-443.3749 333.6685,-438.6498 323.3088,-436.43 324.1857,-443.3749"/>
</g>
<!-- Node51 -->
<g id="node5" class="node">
<title>Node51</title>
<g id="a_node5"><a xlink:href="../../d6/d10/drv__hrt_8h.html#a7d49af6c126c7e49c903e2e47e70d716" target="_top" xlink:title="Call callout(arg) at absolute time calltime. ">
<polygon fill="#ffffff" stroke="#000000" points="339.5,-386.5 339.5,-405.5 401.5,-405.5 401.5,-386.5 339.5,-386.5"/>
<text text-anchor="middle" x="370.5" y="-393.5" font-family="Helvetica,sans-Serif" font-size="10.00" fill="#000000">hrt_call_at</text>
</a>
</g>
</g>
<!-- Node49&#45;&gt;Node51 -->
<g id="edge5" class="edge">
<title>Node49&#45;&gt;Node51</title>
<path fill="none" stroke="#191970" d="M240.3612,-443.431C258.0297,-435.3157 284.4069,-423.649 308,-415 314.9545,-412.4505 322.4286,-409.9653 329.7044,-407.6773"/>
<polygon fill="#191970" stroke="#191970" points="330.9018,-410.9711 339.4357,-404.6923 328.849,-404.2788 330.9018,-410.9711"/>
</g>
<!-- Node52 -->
<g id="node6" class="node">
<title>Node52</title>
<g id="a_node6"><a xlink:href="../../d6/d10/drv__hrt_8h.html#a2c90bdef11ab9384cde0fa4c080ec697" target="_top" xlink:title="hrt_call_delay">
<polygon fill="#ffffff" stroke="#000000" points="332,-348.5 332,-367.5 409,-367.5 409,-348.5 332,-348.5"/>
<text text-anchor="middle" x="370.5" y="-355.5" font-family="Helvetica,sans-Serif" font-size="10.00" fill="#000000">hrt_call_delay</text>
</a>
</g>
</g>
<!-- Node49&#45;&gt;Node52 -->
<g id="edge6" class="edge">
<title>Node49&#45;&gt;Node52</title>
<path fill="none" stroke="#191970" d="M228.5275,-443.384C243.2231,-427.3751 274.9399,-395.2217 308,-377 312.4788,-374.5314 317.319,-372.343 322.2543,-370.4126"/>
<polygon fill="#191970" stroke="#191970" points="323.5482,-373.6671 331.7924,-367.0125 321.1977,-367.0735 323.5482,-373.6671"/>
</g>
<!-- Node53 -->
<g id="node7" class="node">
<title>Node53</title>
<g id="a_node7"><a xlink:href="../../d6/d10/drv__hrt_8h.html#afef961eed389b142649f3d904df16cd2" target="_top" xlink:title="Call callout(arg) after delay, and then after every interval. ">
<polygon fill="#ffffff" stroke="#000000" points="332,-310.5 332,-329.5 409,-329.5 409,-310.5 332,-310.5"/>
<text text-anchor="middle" x="370.5" y="-317.5" font-family="Helvetica,sans-Serif" font-size="10.00" fill="#000000">hrt_call_every</text>
</a>
</g>
</g>
<!-- Node49&#45;&gt;Node53 -->
<g id="edge7" class="edge">
<title>Node49&#45;&gt;Node53</title>
<path fill="none" stroke="#191970" d="M224.7137,-443.4288C235.9806,-421.5463 266.6443,-367.5527 308,-339 312.3222,-336.0159 317.1261,-333.4896 322.0959,-331.3532"/>
<polygon fill="#191970" stroke="#191970" points="323.6501,-334.5079 331.7745,-327.7075 321.1826,-327.9572 323.6501,-334.5079"/>
</g>
<!-- Node54 -->
<g id="node8" class="node">
<title>Node54</title>
<g id="a_node8"><a xlink:href="../../d6/d10/drv__hrt_8h.html#a0d90b23c796be1ed96cc58db0a38046d" target="_top" xlink:title="Initialise a hrt_call structure. ">
<polygon fill="#ffffff" stroke="#000000" points="337.5,-272.5 337.5,-291.5 403.5,-291.5 403.5,-272.5 337.5,-272.5"/>
<text text-anchor="middle" x="370.5" y="-279.5" font-family="Helvetica,sans-Serif" font-size="10.00" fill="#000000">hrt_call_init</text>
</a>
</g>
</g>
<!-- Node49&#45;&gt;Node54 -->
<g id="edge8" class="edge">
<title>Node49&#45;&gt;Node54</title>
<path fill="none" stroke="#191970" d="M222.8802,-443.1295C231.2721,-416.1238 258.3089,-340.4134 308,-301 313.8033,-296.397 320.7135,-292.9061 327.7881,-290.2593"/>
<polygon fill="#191970" stroke="#191970" points="329.0031,-293.5451 337.4487,-287.1481 326.8572,-286.8821 329.0031,-293.5451"/>
</g>
<!-- Node55 -->
<g id="node9" class="node">
<title>Node55</title>
<g id="a_node9"><a xlink:href="../../d6/d10/drv__hrt_8h.html#a384e9e9c38310512247c86560adb0b6d" target="_top" xlink:title="If this returns true, the entry has been invoked and removed from the callout list, or it has never been entered. ">
<polygon fill="#ffffff" stroke="#000000" points="341,-614.5 341,-633.5 400,-633.5 400,-614.5 341,-614.5"/>
<text text-anchor="middle" x="370.5" y="-621.5" font-family="Helvetica,sans-Serif" font-size="10.00" fill="#000000">hrt_called</text>
</a>
</g>
</g>
<!-- Node49&#45;&gt;Node55 -->
<g id="edge9" class="edge">
<title>Node49&#45;&gt;Node55</title>
<path fill="none" stroke="#191970" d="M222.8802,-462.8705C231.2721,-489.8762 258.3089,-565.5866 308,-605 314.7695,-610.3694 323.0454,-614.2257 331.3314,-616.9939"/>
<polygon fill="#191970" stroke="#191970" points="330.3955,-620.3665 340.9734,-619.7692 332.3317,-613.6397 330.3955,-620.3665"/>
</g>
<!-- Node56 -->
<g id="node10" class="node">
<title>Node56</title>
<g id="a_node10"><a xlink:href="../../d6/d10/drv__hrt_8h.html#aa4f22acddbadeed844ef6329629d2837" target="_top" xlink:title="Remove the entry from the callout list. ">
<polygon fill="#ffffff" stroke="#000000" points="339.5,-576.5 339.5,-595.5 401.5,-595.5 401.5,-576.5 339.5,-576.5"/>
<text text-anchor="middle" x="370.5" y="-583.5" font-family="Helvetica,sans-Serif" font-size="10.00" fill="#000000">hrt_cancel</text>
</a>
</g>
</g>
<!-- Node49&#45;&gt;Node56 -->
<g id="edge10" class="edge">
<title>Node49&#45;&gt;Node56</title>
<path fill="none" stroke="#191970" d="M224.7137,-462.5712C235.9806,-484.4537 266.6443,-538.4473 308,-567 314.4243,-571.4354 321.9126,-574.8593 329.4282,-577.4949"/>
<polygon fill="#191970" stroke="#191970" points="328.6493,-580.9174 339.2368,-580.5245 330.7151,-574.2292 328.6493,-580.9174"/>
</g>
<!-- Node57 -->
<g id="node11" class="node">
<title>Node57</title>
<g id="a_node11"><a xlink:href="../../d6/d10/drv__hrt_8h.html#a721dee0a94d421de75e4836aed05c0b8" target="_top" xlink:title="Compute the delta between a timestamp taken in the past and now. ">
<polygon fill="#ffffff" stroke="#000000" points="308,-538.5 308,-557.5 433,-557.5 433,-538.5 308,-538.5"/>
<text text-anchor="middle" x="370.5" y="-545.5" font-family="Helvetica,sans-Serif" font-size="10.00" fill="#000000">hrt_elapsed_time_atomic</text>
</a>
</g>
</g>
<!-- Node49&#45;&gt;Node57 -->
<g id="edge11" class="edge">
<title>Node49&#45;&gt;Node57</title>
<path fill="none" stroke="#191970" d="M228.5275,-462.616C243.2231,-478.6249 274.9399,-510.7783 308,-529 311.962,-531.1838 316.2069,-533.1483 320.5502,-534.9089"/>
<polygon fill="#191970" stroke="#191970" points="319.5507,-538.2706 330.1441,-538.4434 321.9706,-531.7021 319.5507,-538.2706"/>
</g>
<!-- Node58 -->
<g id="node12" class="node">
<title>Node58</title>
<g id="a_node12"><a xlink:href="../../d6/d10/drv__hrt_8h.html#a4d623c5e3d99e6855ac85e606bd87e1c" target="_top" xlink:title="hrt_init">
<polygon fill="#ffffff" stroke="#000000" points="347.5,-500.5 347.5,-519.5 393.5,-519.5 393.5,-500.5 347.5,-500.5"/>
<text text-anchor="middle" x="370.5" y="-507.5" font-family="Helvetica,sans-Serif" font-size="10.00" fill="#000000">hrt_init</text>
</a>
</g>
</g>
<!-- Node49&#45;&gt;Node58 -->
<g id="edge12" class="edge">
<title>Node49&#45;&gt;Node58</title>
<path fill="none" stroke="#191970" d="M240.3612,-462.569C258.0297,-470.6843 284.4069,-482.351 308,-491 317.5625,-494.5055 328.1072,-497.8897 337.7682,-500.8063"/>
<polygon fill="#191970" stroke="#191970" points="336.8562,-504.1863 347.438,-503.6619 338.8388,-497.4729 336.8562,-504.1863"/>
</g>
<!-- Node59 -->
<g id="node13" class="node">
<title>Node59</title>
<g id="a_node13"><a xlink:href="../../d6/d10/drv__hrt_8h.html#a37665926e3f760d970b8d2e5d63c94f8" target="_top" xlink:title="Store the absolute time in an interrupt&#45;safe fashion. ">
<polygon fill="#ffffff" stroke="#000000" points="310,-462.5 310,-481.5 431,-481.5 431,-462.5 310,-462.5"/>
<text text-anchor="middle" x="370.5" y="-469.5" font-family="Helvetica,sans-Serif" font-size="10.00" fill="#000000">hrt_store_absolute_time</text>
</a>
</g>
</g>
<!-- Node49&#45;&gt;Node59 -->
<g id="edge13" class="edge">
<title>Node49&#45;&gt;Node59</title>
<path fill="none" stroke="#191970" d="M265.5634,-458.7522C276.3366,-460.1123 288.0766,-461.5944 299.676,-463.0588"/>
<polygon fill="#191970" stroke="#191970" points="299.4456,-466.5574 309.8052,-464.3375 300.3224,-459.6125 299.4456,-466.5574"/>
</g>
<!-- Node61 -->
<g id="node15" class="node">
<title>Node61</title>
<g id="a_node15"><a xlink:href="../../dd/dd3/classdevice_1_1_device.html#a0700ecd19a8206ba1a378ca8d2eca273" target="_top" xlink:title="Read directly from the device. ">
<polygon fill="#ffffff" stroke="#000000" points="317,-234.5 317,-253.5 424,-253.5 424,-234.5 317,-234.5"/>
<text text-anchor="middle" x="370.5" y="-241.5" font-family="Helvetica,sans-Serif" font-size="10.00" fill="#000000">device::Device::read</text>
</a>
</g>
</g>
<!-- Node60&#45;&gt;Node61 -->
<g id="edge15" class="edge">
<title>Node60&#45;&gt;Node61</title>
<path fill="none" stroke="#191970" d="M268.863,-244C280.9859,-244 294.1549,-244 306.8702,-244"/>
<polygon fill="#191970" stroke="#191970" points="306.9419,-247.5001 316.9418,-244 306.9418,-240.5001 306.9419,-247.5001"/>
</g>
<!-- Node63 -->
<g id="node17" class="node">
<title>Node63</title>
<g id="a_node17"><a xlink:href="../../dd/dd3/classdevice_1_1_device.html#a233074b15f0089e91f498121d4d85a53" target="_top" xlink:title="Write directly to the device. ">
<polygon fill="#ffffff" stroke="#000000" points="316,-196.5 316,-215.5 425,-215.5 425,-196.5 316,-196.5"/>
<text text-anchor="middle" x="370.5" y="-203.5" font-family="Helvetica,sans-Serif" font-size="10.00" fill="#000000">device::Device::write</text>
</a>
</g>
</g>
<!-- Node62&#45;&gt;Node63 -->
<g id="edge17" class="edge">
<title>Node62&#45;&gt;Node63</title>
<path fill="none" stroke="#191970" d="M268.863,-206C280.5976,-206 293.3124,-206 305.6472,-206"/>
<polygon fill="#191970" stroke="#191970" points="305.8893,-209.5001 315.8892,-206 305.8892,-202.5001 305.8893,-209.5001"/>
</g>
<!-- Node65 -->
<g id="node19" class="node">
<title>Node65</title>
<g id="a_node19"><a xlink:href="../../d0/d65/classu_o_r_b_1_1_subscription.html#a788d1848a46abe88a093be9a1f7cb2ca" target="_top" xlink:title="Check if there is a new update. ">
<polygon fill="#ffffff" stroke="#000000" points="318.5,-98 318.5,-128 422.5,-128 422.5,-98 318.5,-98"/>
<text text-anchor="start" x="326.5" y="-116" font-family="Helvetica,sans-Serif" font-size="10.00" fill="#000000">uORB::Subscription</text>
<text text-anchor="middle" x="370.5" y="-105" font-family="Helvetica,sans-Serif" font-size="10.00" fill="#000000">::updated</text>
</a>
</g>
</g>
<!-- Node64&#45;&gt;Node65 -->
<g id="edge19" class="edge">
<title>Node64&#45;&gt;Node65</title>
<path fill="none" stroke="#191970" d="M266.383,-146.8986C281.6175,-141.9385 298.7126,-136.3726 314.5781,-131.2071"/>
<polygon fill="#191970" stroke="#191970" points="315.845,-134.4756 324.2702,-128.0516 313.6779,-127.8195 315.845,-134.4756"/>
</g>
<!-- Node82 -->
<g id="node36" class="node">
<title>Node82</title>
<g id="a_node36"><a xlink:href="../../d0/d65/classu_o_r_b_1_1_subscription.html#a17a37eb5624b409379db434400de4582" target="_top" xlink:title="Copy the struct. ">
<polygon fill="#ffffff" stroke="#000000" points="318.5,-147 318.5,-177 422.5,-177 422.5,-147 318.5,-147"/>
<text text-anchor="start" x="326.5" y="-165" font-family="Helvetica,sans-Serif" font-size="10.00" fill="#000000">uORB::Subscription</text>
<text text-anchor="middle" x="370.5" y="-154" font-family="Helvetica,sans-Serif" font-size="10.00" fill="#000000">::copy</text>
</a>
</g>
</g>
<!-- Node64&#45;&gt;Node82 -->
<g id="edge39" class="edge">
<title>Node64&#45;&gt;Node82</title>
<path fill="none" stroke="#191970" d="M272.2152,-162C283.772,-162 296.131,-162 308.0488,-162"/>
<polygon fill="#191970" stroke="#191970" points="308.3771,-165.5001 318.3771,-162 308.377,-158.5001 308.3771,-165.5001"/>
</g>
<!-- Node66 -->
<g id="node20" class="node">
<title>Node66</title>
<g id="a_node20"><a xlink:href="../../d0/d65/classu_o_r_b_1_1_subscription.html#a9c16cd791d522e477bfafbbc09729bc2" target="_top" xlink:title="uORB::Subscription\l::advertised">
<polygon fill="#ffffff" stroke="#000000" points="482.5,-123 482.5,-153 586.5,-153 586.5,-123 482.5,-123"/>
<text text-anchor="start" x="490.5" y="-141" font-family="Helvetica,sans-Serif" font-size="10.00" fill="#000000">uORB::Subscription</text>
<text text-anchor="middle" x="534.5" y="-130" font-family="Helvetica,sans-Serif" font-size="10.00" fill="#000000">::advertised</text>
</a>
</g>
</g>
<!-- Node65&#45;&gt;Node66 -->
<g id="edge20" class="edge">
<title>Node65&#45;&gt;Node66</title>
<path fill="none" stroke="#191970" d="M422.8415,-120.9789C438.6004,-123.3812 456.0482,-126.0409 472.3771,-128.53"/>
<polygon fill="#191970" stroke="#191970" points="471.9611,-132.007 482.3744,-130.054 473.016,-125.0869 471.9611,-132.007"/>
</g>
<!-- Node80 -->
<g id="node34" class="node">
<title>Node80</title>
<g id="a_node34"><a xlink:href="../../d0/d18/classu_o_r_b_1_1_device_node.html#a45adbc432af16d0f7dd5b8e0b4c0cc8b" target="_top" xlink:title="uORB::DeviceNode::published\l_message_count">
<polygon fill="#ffffff" stroke="#000000" points="943,-30 943,-60 1094,-60 1094,-30 943,-30"/>
<text text-anchor="start" x="951" y="-48" font-family="Helvetica,sans-Serif" font-size="10.00" fill="#000000">uORB::DeviceNode::published</text>
<text text-anchor="middle" x="1018.5" y="-37" font-family="Helvetica,sans-Serif" font-size="10.00" fill="#000000">_message_count</text>
</a>
</g>
</g>
<!-- Node65&#45;&gt;Node80 -->
<g id="edge38" class="edge">
<title>Node65&#45;&gt;Node80</title>
<path fill="none" stroke="#191970" d="M422.5809,-101.2678C475.889,-89.7606 561.2763,-72.7122 636,-64 737.4409,-52.1728 854.8563,-47.6982 932.5559,-46.0109"/>
<polygon fill="#191970" stroke="#191970" points="932.8507,-49.5057 942.7763,-45.8001 932.7062,-42.5072 932.8507,-49.5057"/>
</g>
<!-- Node67 -->
<g id="node21" class="node">
<title>Node67</title>
<g id="a_node21"><a xlink:href="../../d0/d65/classu_o_r_b_1_1_subscription.html#af4675ee1722445e07e50d1a984b8d8c0" target="_top" xlink:title="uORB::Subscription\l::valid">
<polygon fill="#ffffff" stroke="#000000" points="649.5,-123 649.5,-153 753.5,-153 753.5,-123 649.5,-123"/>
<text text-anchor="start" x="657.5" y="-141" font-family="Helvetica,sans-Serif" font-size="10.00" fill="#000000">uORB::Subscription</text>
<text text-anchor="middle" x="701.5" y="-130" font-family="Helvetica,sans-Serif" font-size="10.00" fill="#000000">::valid</text>
</a>
</g>
</g>
<!-- Node66&#45;&gt;Node67 -->
<g id="edge21" class="edge">
<title>Node66&#45;&gt;Node67</title>
<path fill="none" stroke="#191970" d="M586.8816,-138C603.3583,-138 621.7214,-138 638.8368,-138"/>
<polygon fill="#191970" stroke="#191970" points="639.3043,-141.5001 649.3042,-138 639.3042,-134.5001 639.3043,-141.5001"/>
</g>
<!-- Node68 -->
<g id="node22" class="node">
<title>Node68</title>
<g id="a_node22"><a xlink:href="../../d0/d18/classu_o_r_b_1_1_device_node.html#a16d1880bc99853428a8d8a240f24857b" target="_top" xlink:title="Return true if this topic has been advertised. ">
<polygon fill="#ffffff" stroke="#000000" points="643,-74 643,-104 760,-104 760,-74 643,-74"/>
<text text-anchor="start" x="651" y="-92" font-family="Helvetica,sans-Serif" font-size="10.00" fill="#000000">uORB::DeviceNode::is</text>
<text text-anchor="middle" x="701.5" y="-81" font-family="Helvetica,sans-Serif" font-size="10.00" fill="#000000">_advertised</text>
</a>
</g>
</g>
<!-- Node66&#45;&gt;Node68 -->
<g id="edge22" class="edge">
<title>Node66&#45;&gt;Node68</title>
<path fill="none" stroke="#191970" d="M585.9682,-122.8986C603.1919,-117.8449 622.5588,-112.1624 640.4422,-106.9152"/>
<polygon fill="#191970" stroke="#191970" points="641.5917,-110.2255 650.2018,-104.0516 639.6209,-103.5087 641.5917,-110.2255"/>
</g>
<!-- Node69 -->
<g id="node23" class="node">
<title>Node69</title>
<g id="a_node23"><a xlink:href="../../d0/d65/classu_o_r_b_1_1_subscription.html#af22634979d2da6afada8cdd3f84a236d" target="_top" xlink:title="uORB::Subscription\l::init">
<polygon fill="#ffffff" stroke="#000000" points="649.5,-172 649.5,-202 753.5,-202 753.5,-172 649.5,-172"/>
<text text-anchor="start" x="657.5" y="-190" font-family="Helvetica,sans-Serif" font-size="10.00" fill="#000000">uORB::Subscription</text>
<text text-anchor="middle" x="701.5" y="-179" font-family="Helvetica,sans-Serif" font-size="10.00" fill="#000000">::init</text>
</a>
</g>
</g>
<!-- Node66&#45;&gt;Node69 -->
<g id="edge23" class="edge">
<title>Node66&#45;&gt;Node69</title>
<path fill="none" stroke="#191970" d="M585.9682,-153.1014C603.1919,-158.1551 622.5588,-163.8376 640.4422,-169.0848"/>
<polygon fill="#191970" stroke="#191970" points="639.6209,-172.4913 650.2018,-171.9484 641.5917,-165.7745 639.6209,-172.4913"/>
</g>
<!-- Node70 -->
<g id="node24" class="node">
<title>Node70</title>
<g id="a_node24"><a xlink:href="../../d0/d65/classu_o_r_b_1_1_subscription.html#acb0fbd4b56d5e3c8edca15206e110223" target="_top" xlink:title="uORB::Subscription\l::subscribe">
<polygon fill="#ffffff" stroke="#000000" points="803,-172 803,-202 907,-202 907,-172 803,-172"/>
<text text-anchor="start" x="811" y="-190" font-family="Helvetica,sans-Serif" font-size="10.00" fill="#000000">uORB::Subscription</text>
<text text-anchor="middle" x="855" y="-179" font-family="Helvetica,sans-Serif" font-size="10.00" fill="#000000">::subscribe</text>
</a>
</g>
</g>
<!-- Node69&#45;&gt;Node70 -->
<g id="edge24" class="edge">
<title>Node69&#45;&gt;Node70</title>
<path fill="none" stroke="#191970" d="M753.8967,-187C766.3693,-187 779.7992,-187 792.6681,-187"/>
<polygon fill="#191970" stroke="#191970" points="792.8395,-190.5001 802.8395,-187 792.8394,-183.5001 792.8395,-190.5001"/>
</g>
<!-- Node71 -->
<g id="node25" class="node">
<title>Node71</title>
<g id="a_node25"><a xlink:href="../../d3/da9/classu_o_r_b_1_1_manager.html#a9d829b3ea49d16d03c2fa37ef2bb24a5" target="_top" xlink:title="Method to get the singleton instance for the uORB::Manager. ">
<polygon fill="#ffffff" stroke="#000000" points="1152.5,-126 1152.5,-156 1259.5,-156 1259.5,-126 1152.5,-126"/>
<text text-anchor="start" x="1160.5" y="-144" font-family="Helvetica,sans-Serif" font-size="10.00" fill="#000000">uORB::Manager::get</text>
<text text-anchor="middle" x="1206" y="-133" font-family="Helvetica,sans-Serif" font-size="10.00" fill="#000000">_instance</text>
</a>
</g>
</g>
<!-- Node70&#45;&gt;Node71 -->
<g id="edge25" class="edge">
<title>Node70&#45;&gt;Node71</title>
<path fill="none" stroke="#191970" d="M907.3385,-173.2445C919.014,-170.5305 931.379,-167.9293 943,-166 1010.5857,-154.7798 1088.8411,-148.1419 1142.3048,-144.5588"/>
<polygon fill="#191970" stroke="#191970" points="1142.5731,-148.0488 1152.3234,-143.9037 1142.1163,-141.0637 1142.5731,-148.0488"/>
</g>
<!-- Node72 -->
<g id="node26" class="node">
<title>Node72</title>
<g id="a_node26"><a xlink:href="../../d3/da9/classu_o_r_b_1_1_manager.html#a083331e24ac4f99ac11a0aab1b1681b4" target="_top" xlink:title="Get the DeviceMaster. ">
<polygon fill="#ffffff" stroke="#000000" points="1318,-197 1318,-227 1425,-227 1425,-197 1318,-197"/>
<text text-anchor="start" x="1326" y="-215" font-family="Helvetica,sans-Serif" font-size="10.00" fill="#000000">uORB::Manager::get</text>
<text text-anchor="middle" x="1371.5" y="-204" font-family="Helvetica,sans-Serif" font-size="10.00" fill="#000000">_device_master</text>
</a>
</g>
</g>
<!-- Node70&#45;&gt;Node72 -->
<g id="edge27" class="edge">
<title>Node70&#45;&gt;Node72</title>
<path fill="none" stroke="#191970" d="M886.4759,-202.0678C957.7375,-234.1492 1136.5317,-303.1916 1282,-264 1304.6074,-257.9092 1327.3855,-244.549 1344.3048,-232.8964"/>
<polygon fill="#191970" stroke="#191970" points="1346.4661,-235.6543 1352.5865,-227.0061 1342.4089,-229.95 1346.4661,-235.6543"/>
</g>
<!-- Node73 -->
<g id="node27" class="node">
<title>Node73</title>
<g id="a_node27"><a xlink:href="../../dd/d9d/classu_o_r_b_1_1_device_master.html#a793df66a48dcabdd0f5bd8c85beee13c" target="_top" xlink:title="Public interface for getDeviceNodeLocked(). ">
<polygon fill="#ffffff" stroke="#000000" points="963.5,-175 963.5,-205 1073.5,-205 1073.5,-175 963.5,-175"/>
<text text-anchor="start" x="971.5" y="-193" font-family="Helvetica,sans-Serif" font-size="10.00" fill="#000000">uORB::DeviceMaster</text>
<text text-anchor="middle" x="1018.5" y="-182" font-family="Helvetica,sans-Serif" font-size="10.00" fill="#000000">::getDeviceNode</text>
</a>
</g>
</g>
<!-- Node70&#45;&gt;Node73 -->
<g id="edge28" class="edge">
<title>Node70&#45;&gt;Node73</title>
<path fill="none" stroke="#191970" d="M907.182,-187.9575C921.7611,-188.225 937.7902,-188.5191 953.0323,-188.7988"/>
<polygon fill="#191970" stroke="#191970" points="953.3687,-192.3054 963.4312,-188.9896 953.4972,-185.3066 953.3687,-192.3054"/>
</g>
<!-- Node76 -->
<g id="node30" class="node">
<title>Node76</title>
<g id="a_node30"><a xlink:href="../../d0/d18/classu_o_r_b_1_1_device_node.html#abb03278ff4ddd2a50e0f2996e856f2cc" target="_top" xlink:title="Add the subscriber to the node&#39;s list of subscriber. ">
<polygon fill="#ffffff" stroke="#000000" points="956,-79 956,-109 1081,-109 1081,-79 956,-79"/>
<text text-anchor="start" x="964" y="-97" font-family="Helvetica,sans-Serif" font-size="10.00" fill="#000000">uORB::DeviceNode::add</text>
<text text-anchor="middle" x="1018.5" y="-86" font-family="Helvetica,sans-Serif" font-size="10.00" fill="#000000">_internal_subscriber</text>
</a>
</g>
</g>
<!-- Node70&#45;&gt;Node76 -->
<g id="edge31" class="edge">
<title>Node70&#45;&gt;Node76</title>
<path fill="none" stroke="#191970" d="M876.141,-171.7802C893.6287,-159.508 919.3447,-142.1826 943,-129 952.759,-123.5615 963.5111,-118.2151 973.7659,-113.4014"/>
<polygon fill="#191970" stroke="#191970" points="975.3856,-116.5088 983.0011,-109.1429 972.4544,-110.152 975.3856,-116.5088"/>
</g>
<!-- Node70&#45;&gt;Node80 -->
<g id="edge36" class="edge">
<title>Node70&#45;&gt;Node80</title>
<path fill="none" stroke="#191970" d="M862.2492,-171.9462C875.0615,-146.908 904.0749,-96.7242 943,-69 945.1075,-67.4989 947.313,-66.0888 949.5907,-64.7645"/>
<polygon fill="#191970" stroke="#191970" points="951.4005,-67.7691 958.6793,-60.0704 948.1883,-61.5497 951.4005,-67.7691"/>
</g>
<!-- Node81 -->
<g id="node35" class="node">
<title>Node81</title>
<g id="a_node35"><a xlink:href="../../d0/d18/classu_o_r_b_1_1_device_node.html#a7877236ac1912c32c2ab6ae06899392d" target="_top" xlink:title="uORB::DeviceNode::get\l_queue_size">
<polygon fill="#ffffff" stroke="#000000" points="957,-312 957,-342 1080,-342 1080,-312 957,-312"/>
<text text-anchor="start" x="965" y="-330" font-family="Helvetica,sans-Serif" font-size="10.00" fill="#000000">uORB::DeviceNode::get</text>
<text text-anchor="middle" x="1018.5" y="-319" font-family="Helvetica,sans-Serif" font-size="10.00" fill="#000000">_queue_size</text>
</a>
</g>
</g>
<!-- Node70&#45;&gt;Node81 -->
<g id="edge37" class="edge">
<title>Node70&#45;&gt;Node81</title>
<path fill="none" stroke="#191970" d="M863.6103,-202.2376C877.5153,-225.6054 907.0257,-270.3753 943,-297 948.4082,-301.0026 954.4224,-304.5553 960.6291,-307.6866"/>
<polygon fill="#191970" stroke="#191970" points="959.2704,-310.9149 969.812,-311.9762 962.2331,-304.5728 959.2704,-310.9149"/>
</g>
<!-- Node71&#45;&gt;Node72 -->
<g id="edge26" class="edge">
<title>Node71&#45;&gt;Node72</title>
<path fill="none" stroke="#191970" d="M1255.4748,-156.0243C1264.3952,-159.0859 1273.5431,-162.4615 1282,-166 1300.1877,-173.61 1319.7325,-183.4497 1335.9036,-192.0744"/>
<polygon fill="#191970" stroke="#191970" points="1334.5371,-195.3142 1344.9992,-196.9861 1337.8632,-189.1549 1334.5371,-195.3142"/>
</g>
<!-- Node74 -->
<g id="node28" class="node">
<title>Node74</title>
<g id="a_node28"><a xlink:href="../../dd/d9d/classu_o_r_b_1_1_device_master.html#a7e0c3156fdf5875a74d1ad727930a70a" target="_top" xlink:title="uORB::DeviceMaster\l::lock">
<polygon fill="#ffffff" stroke="#000000" points="1151,-175 1151,-205 1261,-205 1261,-175 1151,-175"/>
<text text-anchor="start" x="1159" y="-193" font-family="Helvetica,sans-Serif" font-size="10.00" fill="#000000">uORB::DeviceMaster</text>
<text text-anchor="middle" x="1206" y="-182" font-family="Helvetica,sans-Serif" font-size="10.00" fill="#000000">::lock</text>
</a>
</g>
</g>
<!-- Node73&#45;&gt;Node74 -->
<g id="edge29" class="edge">
<title>Node73&#45;&gt;Node74</title>
<path fill="none" stroke="#191970" d="M1073.7421,-190C1094.7243,-190 1118.8213,-190 1140.65,-190"/>
<polygon fill="#191970" stroke="#191970" points="1140.8291,-193.5001 1150.8291,-190 1140.829,-186.5001 1140.8291,-193.5001"/>
</g>
<!-- Node75 -->
<g id="node29" class="node">
<title>Node75</title>
<g id="a_node29"><a xlink:href="../../dd/d9d/classu_o_r_b_1_1_device_master.html#a5b85000ee723a160ca6ea6bce730efc3" target="_top" xlink:title="uORB::DeviceMaster\l::unlock">
<polygon fill="#ffffff" stroke="#000000" points="1151,-224 1151,-254 1261,-254 1261,-224 1151,-224"/>
<text text-anchor="start" x="1159" y="-242" font-family="Helvetica,sans-Serif" font-size="10.00" fill="#000000">uORB::DeviceMaster</text>
<text text-anchor="middle" x="1206" y="-231" font-family="Helvetica,sans-Serif" font-size="10.00" fill="#000000">::unlock</text>
</a>
</g>
</g>
<!-- Node73&#45;&gt;Node75 -->
<g id="edge30" class="edge">
<title>Node73&#45;&gt;Node75</title>
<path fill="none" stroke="#191970" d="M1073.7421,-204.4366C1094.8192,-209.9448 1119.0395,-216.2743 1140.9462,-221.9993"/>
<polygon fill="#191970" stroke="#191970" points="1140.269,-225.4398 1150.8291,-224.582 1142.039,-218.6672 1140.269,-225.4398"/>
</g>
<!-- Node76&#45;&gt;Node71 -->
<g id="edge33" class="edge">
<title>Node76&#45;&gt;Node71</title>
<path fill="none" stroke="#191970" d="M1078.3417,-109.0003C1098.7885,-114.1257 1121.7223,-119.8744 1142.4508,-125.0703"/>
<polygon fill="#191970" stroke="#191970" points="1141.8779,-128.5349 1152.4289,-127.5715 1143.58,-121.745 1141.8779,-128.5349"/>
</g>
<!-- Node77 -->
<g id="node31" class="node">
<title>Node77</title>
<g id="a_node31"><a xlink:href="../../d8/d26/classcdev_1_1_c_dev.html#ae676cccee31dd393ab681414a146d868" target="_top" xlink:title="Take the driver lock. ">
<polygon fill="#ffffff" stroke="#000000" points="1159.5,-38.5 1159.5,-57.5 1252.5,-57.5 1252.5,-38.5 1159.5,-38.5"/>
<text text-anchor="middle" x="1206" y="-45.5" font-family="Helvetica,sans-Serif" font-size="10.00" fill="#000000">cdev::CDev::lock</text>
</a>
</g>
</g>
<!-- Node76&#45;&gt;Node77 -->
<g id="edge32" class="edge">
<title>Node76&#45;&gt;Node77</title>
<path fill="none" stroke="#191970" d="M1079.8945,-78.9379C1105.0332,-72.7705 1133.7096,-65.7353 1157.3582,-59.9335"/>
<polygon fill="#191970" stroke="#191970" points="1158.2825,-63.3106 1167.1605,-57.5286 1156.6146,-56.5122 1158.2825,-63.3106"/>
</g>
<!-- Node78 -->
<g id="node32" class="node">
<title>Node78</title>
<g id="a_node32"><a xlink:href="../../d8/d26/classcdev_1_1_c_dev.html#af65273e0578b277deea057dc7d558e9d" target="_top" xlink:title="Release the driver lock. ">
<polygon fill="#ffffff" stroke="#000000" points="1154,-.5 1154,-19.5 1258,-19.5 1258,-.5 1154,-.5"/>
<text text-anchor="middle" x="1206" y="-7.5" font-family="Helvetica,sans-Serif" font-size="10.00" fill="#000000">cdev::CDev::unlock</text>
</a>
</g>
</g>
<!-- Node76&#45;&gt;Node78 -->
<g id="edge34" class="edge">
<title>Node76&#45;&gt;Node78</title>
<path fill="none" stroke="#191970" d="M1074.8648,-78.9924C1081.563,-76.1621 1088.1054,-72.8525 1094,-69 1114.0209,-55.9152 1109.5039,-41.3272 1130,-29 1134.4034,-26.3516 1139.1624,-24.0711 1144.0761,-22.1076"/>
<polygon fill="#191970" stroke="#191970" points="1145.4075,-25.3491 1153.6634,-18.7089 1143.0686,-18.7514 1145.4075,-25.3491"/>
</g>
<!-- Node79 -->
<g id="node33" class="node">
<title>Node79</title>
<g id="a_node33"><a xlink:href="../../d9/d8a/classu_o_r_b_communicator_1_1_i_channel.html#a2fdcab300f1c9ccf8c43858493ca9358" target="_top" xlink:title="Interface to notify the remote entity of a topic being unadvertised and is no longer publishing messa...">
<polygon fill="#ffffff" stroke="#000000" points="1130,-77 1130,-107 1282,-107 1282,-77 1130,-77"/>
<text text-anchor="start" x="1138" y="-95" font-family="Helvetica,sans-Serif" font-size="10.00" fill="#000000">uORBCommunicator::IChannel</text>
<text text-anchor="middle" x="1206" y="-84" font-family="Helvetica,sans-Serif" font-size="10.00" fill="#000000">::add_subscription</text>
</a>
</g>
</g>
<!-- Node76&#45;&gt;Node79 -->
<g id="edge35" class="edge">
<title>Node76&#45;&gt;Node79</title>
<path fill="none" stroke="#191970" d="M1081.1955,-93.3312C1093.46,-93.2004 1106.5239,-93.0611 1119.4066,-92.9237"/>
<polygon fill="#191970" stroke="#191970" points="1119.7185,-96.4206 1129.6806,-92.8141 1119.6438,-89.421 1119.7185,-96.4206"/>
</g>
<!-- Node82&#45;&gt;Node66 -->
<g id="edge40" class="edge">
<title>Node82&#45;&gt;Node66</title>
<path fill="none" stroke="#191970" d="M422.8415,-154.3403C438.6004,-152.0341 456.0482,-149.4807 472.3771,-147.0912"/>
<polygon fill="#191970" stroke="#191970" points="472.9866,-150.5393 482.3744,-145.6281 471.9729,-143.6131 472.9866,-150.5393"/>
</g>
<!-- Node83 -->
<g id="node37" class="node">
<title>Node83</title>
<g id="a_node37"><a xlink:href="../../d0/d18/classu_o_r_b_1_1_device_node.html#a89d9a792e1e38e04c65baba20f29d780" target="_top" xlink:title="Copies data and the corresponding generation from a node to the buffer provided. ">
<polygon fill="#ffffff" stroke="#000000" points="469,-199.5 469,-218.5 600,-218.5 600,-199.5 469,-199.5"/>
<text text-anchor="middle" x="534.5" y="-206.5" font-family="Helvetica,sans-Serif" font-size="10.00" fill="#000000">uORB::DeviceNode::copy</text>
</a>
</g>
</g>
<!-- Node82&#45;&gt;Node83 -->
<g id="edge41" class="edge">
<title>Node82&#45;&gt;Node83</title>
<path fill="none" stroke="#191970" d="M422.8415,-177.0003C445.0151,-183.3549 470.5326,-190.6679 491.5716,-196.6973"/>
<polygon fill="#191970" stroke="#191970" points="490.6222,-200.0661 501.1995,-199.4566 492.5507,-193.337 490.6222,-200.0661"/>
</g>
<!-- Node84 -->
<g id="node38" class="node">
<title>Node84</title>
<g id="a_node38"><a xlink:href="../../d0/d18/classu_o_r_b_1_1_device_node.html#a78fb27934bdfd069855885da1be4bb5f" target="_top" xlink:title="Copies data and the corresponding generation from a node to the buffer provided. ">
<polygon fill="#ffffff" stroke="#000000" points="636,-221 636,-251 767,-251 767,-221 636,-221"/>
<text text-anchor="start" x="644" y="-239" font-family="Helvetica,sans-Serif" font-size="10.00" fill="#000000">uORB::DeviceNode::copy</text>
<text text-anchor="middle" x="701.5" y="-228" font-family="Helvetica,sans-Serif" font-size="10.00" fill="#000000">_locked</text>
</a>
</g>
</g>
<!-- Node83&#45;&gt;Node84 -->
<g id="edge42" class="edge">
<title>Node83&#45;&gt;Node84</title>
<path fill="none" stroke="#191970" d="M593.378,-218.5192C603.875,-220.2163 614.9421,-222.0056 625.8302,-223.766"/>
<polygon fill="#191970" stroke="#191970" points="625.327,-227.23 635.7575,-225.371 626.4443,-220.3197 625.327,-227.23"/>
</g>
</g>
</svg>
        <g id="navigator" transform="translate(0 0)" fill="#404254">
                <rect fill="#f2f5e9" fill-opacity="0.5" stroke="#606060" stroke-width=".5" x="0" y="0" width="60" height="60"/>
                <use id="zoomplus" xlink:href="#zoomPlus" x="17" y="9" onmousedown="handleZoom(evt,'in')"/>
                <use id="zoomminus" xlink:href="#zoomMin" x="42" y="9" onmousedown="handleZoom(evt,'out')"/>
                <use id="reset" xlink:href="#resetDef" x="30" y="36" onmousedown="handleReset()"/>
                <g id="arrowUp" xlink:href="#dirArrow" transform="translate(30 24)" onmousedown="handlePan(0,-1)">
                  <use xlink:href="#rim" fill="#404040">
                        <set attributeName="fill" to="#808080" begin="arrowUp.mouseover" end="arrowUp.mouseout"/>
                  </use>
                  <path fill="none" stroke="white" stroke-width="1.5" d="M0,-3.0v7 M-2.5,-0.5L0,-3.0L2.5,-0.5"/>
                </g>
                <g id="arrowRight" xlink:href="#dirArrow" transform="rotate(90) translate(36 -43)" onmousedown="handlePan(1,0)">
                  <use xlink:href="#rim" fill="#404040">
                        <set attributeName="fill" to="#808080" begin="arrowRight.mouseover" end="arrowRight.mouseout"/>
                  </use>
                  <path fill="none" stroke="white" stroke-width="1.5" d="M0,-3.0v7 M-2.5,-0.5L0,-3.0L2.5,-0.5"/>
                </g>
                <g id="arrowDown" xlink:href="#dirArrow" transform="rotate(180) translate(-30 -48)" onmousedown="handlePan(0,1)">
                  <use xlink:href="#rim" fill="#404040">
                        <set attributeName="fill" to="#808080" begin="arrowDown.mouseover" end="arrowDown.mouseout"/>
                  </use>
                  <path fill="none" stroke="white" stroke-width="1.5" d="M0,-3.0v7 M-2.5,-0.5L0,-3.0L2.5,-0.5"/>
                </g>
                <g id="arrowLeft" xlink:href="#dirArrow" transform="rotate(270) translate(-36 17)" onmousedown="handlePan(-1,0)">
                  <use xlink:href="#rim" fill="#404040">
                        <set attributeName="fill" to="#808080" begin="arrowLeft.mouseover" end="arrowLeft.mouseout"/>
                  </use>
                  <path fill="none" stroke="white" stroke-width="1.5" d="M0,-3.0v7 M-2.5,-0.5L0,-3.0L2.5,-0.5"/>
                </g>
        </g>
        <svg viewBox="0 0 15 15" width="100%" height="30px" preserveAspectRatio="xMaxYMin meet">
         <g id="arrow_out" transform="scale(0.3 0.3)">
          <a xlink:href="class_p_x4_i_o_af587d72e007771e652f8f54aa8d60721_cgraph_org.svg" target="_base">
           <rect id="button" ry="5" rx="5" y="6" x="6" height="38" width="38"
                fill="#f2f5e9" fill-opacity="0.5" stroke="#606060" stroke-width="1.0"/>
           <path id="arrow"
             d="M 11.500037,31.436501 C 11.940474,20.09759 22.043105,11.32322 32.158766,21.979434 L 37.068811,17.246167 C 37.068811,17.246167 37.088388,32 37.088388,32 L 22.160133,31.978069 C 22.160133,31.978069 26.997745,27.140456 26.997745,27.140456 C 18.528582,18.264221 13.291696,25.230495 11.500037,31.436501 z"
             style="fill:#404040;"/>
          </a>
         </g>
        </svg>
</svg>
