<?xml version="1.0" encoding="UTF-8" standalone="no"?>
<!DOCTYPE svg PUBLIC "-//W3C//DTD SVG 1.1//EN"
 "http://www.w3.org/Graphics/SVG/1.1/DTD/svg11.dtd">
<!-- Generated by graphviz version 2.40.1 (20161225.0304)
 -->
<!-- Title: PX4IO::disable_rc_handling Pages: 1 -->
<svg width="717pt" height="66pt"
 viewBox="0.00 0.00 717.00 66.00" xmlns="http://www.w3.org/2000/svg" xmlns:xlink="http://www.w3.org/1999/xlink">
<g id="graph0" class="graph" transform="scale(1 1) rotate(0) translate(4 62)">
<title>PX4IO::disable_rc_handling</title>
<polygon fill="#ffffff" stroke="transparent" points="-4,4 -4,-62 713,-62 713,4 -4,4"/>
<!-- Node16 -->
<g id="node1" class="node">
<title>Node16</title>
<polygon fill="#bfbfbf" stroke="#000000" points="0,-19.5 0,-38.5 137,-38.5 137,-19.5 0,-19.5"/>
<text text-anchor="middle" x="68.5" y="-26.5" font-family="Helvetica,sans-Serif" font-size="10.00" fill="#000000">PX4IO::disable_rc_handling</text>
</g>
<!-- Node17 -->
<g id="node2" class="node">
<title>Node17</title>
<g id="a_node2"><a xlink:href="../../d1/dde/class_p_x4_i_o.html#a74cb890a6900e694628206508712f623" target="_top" xlink:title="Disable RC input handling. ">
<polygon fill="#ffffff" stroke="#000000" points="173,-14 173,-44 282,-44 282,-14 173,-14"/>
<text text-anchor="start" x="181" y="-32" font-family="Helvetica,sans-Serif" font-size="10.00" fill="#000000">PX4IO::io_disable_rc</text>
<text text-anchor="middle" x="227.5" y="-21" font-family="Helvetica,sans-Serif" font-size="10.00" fill="#000000">_handling</text>
</a>
</g>
</g>
<!-- Node16&#45;&gt;Node17 -->
<g id="edge1" class="edge">
<title>Node16&#45;&gt;Node17</title>
<path fill="none" stroke="#191970" d="M137.315,-29C145.7878,-29 154.4256,-29 162.8339,-29"/>
<polygon fill="#191970" stroke="#191970" points="162.9498,-32.5001 172.9498,-29 162.9498,-25.5001 162.9498,-32.5001"/>
</g>
<!-- Node18 -->
<g id="node3" class="node">
<title>Node18</title>
<g id="a_node3"><a xlink:href="../../d1/dde/class_p_x4_i_o.html#a41f657665797289b1d5b42a1fddda190" target="_top" xlink:title="modify a register ">
<polygon fill="#ffffff" stroke="#000000" points="318,-19.5 318,-38.5 431,-38.5 431,-19.5 318,-19.5"/>
<text text-anchor="middle" x="374.5" y="-26.5" font-family="Helvetica,sans-Serif" font-size="10.00" fill="#000000">PX4IO::io_reg_modify</text>
</a>
</g>
</g>
<!-- Node17&#45;&gt;Node18 -->
<g id="edge2" class="edge">
<title>Node17&#45;&gt;Node18</title>
<path fill="none" stroke="#191970" d="M282.2374,-29C290.4781,-29 299.0561,-29 307.5179,-29"/>
<polygon fill="#191970" stroke="#191970" points="307.7514,-32.5001 317.7514,-29 307.7514,-25.5001 307.7514,-32.5001"/>
</g>
<!-- Node19 -->
<g id="node4" class="node">
<title>Node19</title>
<g id="a_node4"><a xlink:href="../../d1/dde/class_p_x4_i_o.html#a78a41abc35fc123c07895b4eba64b5f3" target="_top" xlink:title="read register(s) ">
<polygon fill="#ffffff" stroke="#000000" points="467,-38.5 467,-57.5 564,-57.5 564,-38.5 467,-38.5"/>
<text text-anchor="middle" x="515.5" y="-45.5" font-family="Helvetica,sans-Serif" font-size="10.00" fill="#000000">PX4IO::io_reg_get</text>
</a>
</g>
</g>
<!-- Node18&#45;&gt;Node19 -->
<g id="edge3" class="edge">
<title>Node18&#45;&gt;Node19</title>
<path fill="none" stroke="#191970" d="M431.0377,-36.6185C439.4259,-37.7489 448.0888,-38.9162 456.5254,-40.0531"/>
<polygon fill="#191970" stroke="#191970" points="456.2925,-43.5532 466.6703,-41.4201 457.2273,-36.6159 456.2925,-43.5532"/>
</g>
<!-- Node21 -->
<g id="node6" class="node">
<title>Node21</title>
<g id="a_node6"><a xlink:href="../../d1/dde/class_p_x4_i_o.html#aba8d6360b436affe17f67a8df1784c55" target="_top" xlink:title="write register(s) ">
<polygon fill="#ffffff" stroke="#000000" points="467,-.5 467,-19.5 564,-19.5 564,-.5 467,-.5"/>
<text text-anchor="middle" x="515.5" y="-7.5" font-family="Helvetica,sans-Serif" font-size="10.00" fill="#000000">PX4IO::io_reg_set</text>
</a>
</g>
</g>
<!-- Node18&#45;&gt;Node21 -->
<g id="edge5" class="edge">
<title>Node18&#45;&gt;Node21</title>
<path fill="none" stroke="#191970" d="M431.0377,-21.3815C439.4259,-20.2511 448.0888,-19.0838 456.5254,-17.9469"/>
<polygon fill="#191970" stroke="#191970" points="457.2273,-21.3841 466.6703,-16.5799 456.2925,-14.4468 457.2273,-21.3841"/>
</g>
<!-- Node20 -->
<g id="node5" class="node">
<title>Node20</title>
<g id="a_node5"><a xlink:href="../../dd/dd3/classdevice_1_1_device.html#a0700ecd19a8206ba1a378ca8d2eca273" target="_top" xlink:title="Read directly from the device. ">
<polygon fill="#ffffff" stroke="#000000" points="601,-38.5 601,-57.5 708,-57.5 708,-38.5 601,-38.5"/>
<text text-anchor="middle" x="654.5" y="-45.5" font-family="Helvetica,sans-Serif" font-size="10.00" fill="#000000">device::Device::read</text>
</a>
</g>
</g>
<!-- Node19&#45;&gt;Node20 -->
<g id="edge4" class="edge">
<title>Node19&#45;&gt;Node20</title>
<path fill="none" stroke="#191970" d="M564.1155,-48C572.7614,-48 581.8827,-48 590.8721,-48"/>
<polygon fill="#191970" stroke="#191970" points="590.933,-51.5001 600.933,-48 590.9329,-44.5001 590.933,-51.5001"/>
</g>
<!-- Node22 -->
<g id="node7" class="node">
<title>Node22</title>
<g id="a_node7"><a xlink:href="../../dd/dd3/classdevice_1_1_device.html#a233074b15f0089e91f498121d4d85a53" target="_top" xlink:title="Write directly to the device. ">
<polygon fill="#ffffff" stroke="#000000" points="600,-.5 600,-19.5 709,-19.5 709,-.5 600,-.5"/>
<text text-anchor="middle" x="654.5" y="-7.5" font-family="Helvetica,sans-Serif" font-size="10.00" fill="#000000">device::Device::write</text>
</a>
</g>
</g>
<!-- Node21&#45;&gt;Node22 -->
<g id="edge6" class="edge">
<title>Node21&#45;&gt;Node22</title>
<path fill="none" stroke="#191970" d="M564.1155,-10C572.4434,-10 581.2123,-10 589.8796,-10"/>
<polygon fill="#191970" stroke="#191970" points="589.975,-13.5001 599.9749,-10 589.9749,-6.5001 589.975,-13.5001"/>
</g>
</g>
</svg>
