<?xml version="1.0" encoding="UTF-8" standalone="no"?>
<!DOCTYPE svg PUBLIC "-//W3C//DTD SVG 1.1//EN"
 "http://www.w3.org/Graphics/SVG/1.1/DTD/svg11.dtd">
<!-- Generated by graphviz version 2.40.1 (20161225.0304)
 -->
<!-- Title: FlightTaskSport::activate Pages: 1 -->
<svg width="986pt" height="252pt"
 viewBox="0.00 0.00 986.00 251.50" xmlns="http://www.w3.org/2000/svg" xmlns:xlink="http://www.w3.org/1999/xlink">
<g id="graph0" class="graph" transform="scale(1 1) rotate(0) translate(4 247.5)">
<title>FlightTaskSport::activate</title>
<polygon fill="#ffffff" stroke="transparent" points="-4,4 -4,-247.5 982,-247.5 982,4 -4,4"/>
<!-- Node4 -->
<g id="node1" class="node">
<title>Node4</title>
<polygon fill="#bfbfbf" stroke="#000000" points="0,-6 0,-25 126,-25 126,-6 0,-6"/>
<text text-anchor="middle" x="63" y="-13" font-family="Helvetica,sans-Serif" font-size="10.00" fill="#000000">FlightTaskSport::activate</text>
</g>
<!-- Node5 -->
<g id="node2" class="node">
<title>Node5</title>
<g id="a_node2"><a xlink:href="../../da/d83/class_flight_task_manual_position.html#ac11168bf92c606c7332d5d77272d4255" target="_top" xlink:title="Call once on the event where you switch to the task. ">
<polygon fill="#ffffff" stroke="#000000" points="162,-.5 162,-30.5 291,-30.5 291,-.5 162,-.5"/>
<text text-anchor="start" x="170" y="-18.5" font-family="Helvetica,sans-Serif" font-size="10.00" fill="#000000">FlightTaskManualPosition</text>
<text text-anchor="middle" x="226.5" y="-7.5" font-family="Helvetica,sans-Serif" font-size="10.00" fill="#000000">::activate</text>
</a>
</g>
</g>
<!-- Node4&#45;&gt;Node5 -->
<g id="edge1" class="edge">
<title>Node4&#45;&gt;Node5</title>
<path fill="none" stroke="#191970" d="M126.2134,-15.5C134.5185,-15.5 143.0931,-15.5 151.5692,-15.5"/>
<polygon fill="#191970" stroke="#191970" points="151.8346,-19.0001 161.8346,-15.5 151.8346,-12.0001 151.8346,-19.0001"/>
</g>
<!-- Node6 -->
<g id="node3" class="node">
<title>Node6</title>
<g id="a_node3"><a xlink:href="../../d8/d4c/class_flight_task_manual_altitude.html#a8b10a2e30bf3f117352da876f12b509c" target="_top" xlink:title="Call once on the event where you switch to the task. ">
<polygon fill="#ffffff" stroke="#000000" points="327,-57.5 327,-87.5 454,-87.5 454,-57.5 327,-57.5"/>
<text text-anchor="start" x="335" y="-75.5" font-family="Helvetica,sans-Serif" font-size="10.00" fill="#000000">FlightTaskManualAltitude</text>
<text text-anchor="middle" x="390.5" y="-64.5" font-family="Helvetica,sans-Serif" font-size="10.00" fill="#000000">::activate</text>
</a>
</g>
</g>
<!-- Node5&#45;&gt;Node6 -->
<g id="edge2" class="edge">
<title>Node5&#45;&gt;Node6</title>
<path fill="none" stroke="#191970" d="M270.0184,-30.6253C290.7665,-37.8365 315.7655,-46.5252 337.601,-54.1144"/>
<polygon fill="#191970" stroke="#191970" points="336.4682,-57.426 347.063,-57.403 338.7663,-50.8139 336.4682,-57.426"/>
</g>
<!-- Node13 -->
<g id="node10" class="node">
<title>Node13</title>
<g id="a_node10"><a xlink:href="../../dd/d47/namespacemath.html#a7e34369248d5d1565073dc552dd90d5c" target="_top" xlink:title="math::radians">
<polygon fill="#ffffff" stroke="#000000" points="868,-22 868,-41 944,-41 944,-22 868,-22"/>
<text text-anchor="middle" x="906" y="-29" font-family="Helvetica,sans-Serif" font-size="10.00" fill="#000000">math::radians</text>
</a>
</g>
</g>
<!-- Node5&#45;&gt;Node13 -->
<g id="edge16" class="edge">
<title>Node5&#45;&gt;Node13</title>
<path fill="none" stroke="#191970" d="M291.0383,-17.0197C426.4206,-20.2075 737.4678,-27.5316 857.507,-30.3581"/>
<polygon fill="#191970" stroke="#191970" points="857.764,-33.8651 867.8436,-30.6015 857.9288,-26.867 857.764,-33.8651"/>
</g>
<!-- Node7 -->
<g id="node4" class="node">
<title>Node7</title>
<g id="a_node4"><a xlink:href="../../da/dbc/class_flight_task.html#a5c435eaddd85a158eb25a793fafdbaee" target="_top" xlink:title="Call once on the event where you switch to the task. ">
<polygon fill="#ffffff" stroke="#000000" points="490,-98 490,-117 593,-117 593,-98 490,-98"/>
<text text-anchor="middle" x="541.5" y="-105" font-family="Helvetica,sans-Serif" font-size="10.00" fill="#000000">FlightTask::activate</text>
</a>
</g>
</g>
<!-- Node6&#45;&gt;Node7 -->
<g id="edge3" class="edge">
<title>Node6&#45;&gt;Node7</title>
<path fill="none" stroke="#191970" d="M454.1,-87.2417C466.1937,-90.0449 478.7054,-92.945 490.3514,-95.6444"/>
<polygon fill="#191970" stroke="#191970" points="489.7985,-99.1089 500.3306,-97.9574 491.3792,-92.2897 489.7985,-99.1089"/>
</g>
<!-- Node6&#45;&gt;Node13 -->
<g id="edge15" class="edge">
<title>Node6&#45;&gt;Node13</title>
<path fill="none" stroke="#191970" d="M454.239,-66.2104C502.2564,-61.5719 569.729,-55.2658 629,-50.5 709.1218,-44.0577 802.3938,-37.9466 857.6893,-34.4686"/>
<polygon fill="#191970" stroke="#191970" points="858.1319,-37.9478 867.8936,-33.8296 857.6944,-30.9615 858.1319,-37.9478"/>
</g>
<!-- Node15 -->
<g id="node12" class="node">
<title>Node15</title>
<g id="a_node12"><a xlink:href="../../d8/da1/integration_8cpp.html#af5ba872dd09316732300733cc164ac1a" target="_top" xlink:title="f">
<polygon fill="#ffffff" stroke="#000000" points="527,-180 527,-199 556,-199 556,-180 527,-180"/>
<text text-anchor="middle" x="541.5" y="-187" font-family="Helvetica,sans-Serif" font-size="10.00" fill="#000000">f</text>
</a>
</g>
</g>
<!-- Node6&#45;&gt;Node15 -->
<g id="edge11" class="edge">
<title>Node6&#45;&gt;Node15</title>
<path fill="none" stroke="#191970" d="M409.9315,-87.5562C438.5172,-109.7054 491.6694,-150.8896 520.9053,-173.5426"/>
<polygon fill="#191970" stroke="#191970" points="519.1085,-176.578 529.1571,-179.9363 523.396,-171.0446 519.1085,-176.578"/>
</g>
<!-- Node8 -->
<g id="node5" class="node">
<title>Node8</title>
<g id="a_node5"><a xlink:href="../../da/dbc/class_flight_task.html#aa18c941259721f9145d7ebb46c12db74" target="_top" xlink:title="Monitor the EKF reset counters and call the appropriate handling functions in case of a reset event...">
<polygon fill="#ffffff" stroke="#000000" points="649.5,-174.5 649.5,-204.5 777.5,-204.5 777.5,-174.5 649.5,-174.5"/>
<text text-anchor="start" x="657.5" y="-192.5" font-family="Helvetica,sans-Serif" font-size="10.00" fill="#000000">FlightTask::_initEkfReset</text>
<text text-anchor="middle" x="713.5" y="-181.5" font-family="Helvetica,sans-Serif" font-size="10.00" fill="#000000">Counters</text>
</a>
</g>
</g>
<!-- Node7&#45;&gt;Node8 -->
<g id="edge4" class="edge">
<title>Node7&#45;&gt;Node8</title>
<path fill="none" stroke="#191970" d="M553.5848,-117.0141C569.8826,-129.4483 600.1943,-151.2013 629,-164.5 634.0351,-166.8246 639.3386,-168.9921 644.7334,-171.0004"/>
<polygon fill="#191970" stroke="#191970" points="643.9098,-174.421 654.5046,-174.443 646.236,-167.8188 643.9098,-174.421"/>
</g>
<!-- Node10 -->
<g id="node7" class="node">
<title>Node10</title>
<g id="a_node7"><a xlink:href="../../da/dbc/class_flight_task.html#a46347ff9c49771017f76291832e07f0d" target="_top" xlink:title="Reset all setpoints to NAN. ">
<polygon fill="#ffffff" stroke="#000000" points="645,-98 645,-117 782,-117 782,-98 645,-98"/>
<text text-anchor="middle" x="713.5" y="-105" font-family="Helvetica,sans-Serif" font-size="10.00" fill="#000000">FlightTask::_resetSetpoints</text>
</a>
</g>
</g>
<!-- Node7&#45;&gt;Node10 -->
<g id="edge6" class="edge">
<title>Node7&#45;&gt;Node10</title>
<path fill="none" stroke="#191970" d="M593.1057,-107.5C606.1643,-107.5 620.4897,-107.5 634.5612,-107.5"/>
<polygon fill="#191970" stroke="#191970" points="634.7409,-111.0001 644.7409,-107.5 634.7408,-104.0001 634.7409,-111.0001"/>
</g>
<!-- Node12 -->
<g id="node9" class="node">
<title>Node12</title>
<g id="a_node9"><a xlink:href="../../da/dbc/class_flight_task.html#a1b7eb2b27c8c892ccf742241f0059760" target="_top" xlink:title="Set constraints to default values. ">
<polygon fill="#ffffff" stroke="#000000" points="629,-60 629,-79 798,-79 798,-60 629,-60"/>
<text text-anchor="middle" x="713.5" y="-67" font-family="Helvetica,sans-Serif" font-size="10.00" fill="#000000">FlightTask::_setDefaultConstraints</text>
</a>
</g>
</g>
<!-- Node7&#45;&gt;Node12 -->
<g id="edge8" class="edge">
<title>Node7&#45;&gt;Node12</title>
<path fill="none" stroke="#191970" d="M584.9029,-97.911C607.9068,-92.8287 636.3509,-86.5446 660.6342,-81.1797"/>
<polygon fill="#191970" stroke="#191970" points="661.3998,-84.595 670.4092,-79.0201 659.8896,-77.7598 661.3998,-84.595"/>
</g>
<!-- Node14 -->
<g id="node11" class="node">
<title>Node14</title>
<g id="a_node11"><a xlink:href="../../d6/d10/drv__hrt_8h.html#a1450e339b7c5b8d47656500167a6676d" target="_top" xlink:title="Get absolute time in [us] (does not wrap). ">
<polygon fill="#ffffff" stroke="#000000" points="666.5,-136 666.5,-155 760.5,-155 760.5,-136 666.5,-136"/>
<text text-anchor="middle" x="713.5" y="-143" font-family="Helvetica,sans-Serif" font-size="10.00" fill="#000000">hrt_absolute_time</text>
</a>
</g>
</g>
<!-- Node7&#45;&gt;Node14 -->
<g id="edge10" class="edge">
<title>Node7&#45;&gt;Node14</title>
<path fill="none" stroke="#191970" d="M584.9029,-117.089C607.9068,-122.1713 636.3509,-128.4554 660.6342,-133.8203"/>
<polygon fill="#191970" stroke="#191970" points="659.8896,-137.2402 670.4092,-135.9799 661.3998,-130.405 659.8896,-137.2402"/>
</g>
<!-- Node9 -->
<g id="node6" class="node">
<title>Node9</title>
<g id="a_node6"><a xlink:href="../../d6/d4c/classu_o_r_b_1_1_subscription_data.html#ab75614b7adbc3ba5cbf0c3ec82e70fd2" target="_top" xlink:title="uORB::SubscriptionData::get">
<polygon fill="#ffffff" stroke="#000000" points="834,-180 834,-199 978,-199 978,-180 834,-180"/>
<text text-anchor="middle" x="906" y="-187" font-family="Helvetica,sans-Serif" font-size="10.00" fill="#000000">uORB::SubscriptionData::get</text>
</a>
</g>
</g>
<!-- Node8&#45;&gt;Node9 -->
<g id="edge5" class="edge">
<title>Node8&#45;&gt;Node9</title>
<path fill="none" stroke="#191970" d="M777.5997,-189.5C792.4034,-189.5 808.3534,-189.5 823.8091,-189.5"/>
<polygon fill="#191970" stroke="#191970" points="823.8773,-193.0001 833.8773,-189.5 823.8773,-186.0001 823.8773,-193.0001"/>
</g>
<!-- Node11 -->
<g id="node8" class="node">
<title>Node11</title>
<g id="a_node8"><a xlink:href="../../dd/df8/classmatrix_1_1_matrix.html#a4163a26330438ee8657f840c8ef13fcd" target="_top" xlink:title="matrix::Matrix::setAll">
<polygon fill="#ffffff" stroke="#000000" points="852.5,-98 852.5,-117 959.5,-117 959.5,-98 852.5,-98"/>
<text text-anchor="middle" x="906" y="-105" font-family="Helvetica,sans-Serif" font-size="10.00" fill="#000000">matrix::Matrix::setAll</text>
</a>
</g>
</g>
<!-- Node10&#45;&gt;Node11 -->
<g id="edge7" class="edge">
<title>Node10&#45;&gt;Node11</title>
<path fill="none" stroke="#191970" d="M782.1816,-107.5C801.7682,-107.5 823.0181,-107.5 842.2942,-107.5"/>
<polygon fill="#191970" stroke="#191970" points="842.475,-111.0001 852.4749,-107.5 842.4749,-104.0001 842.475,-111.0001"/>
</g>
<!-- Node12&#45;&gt;Node13 -->
<g id="edge9" class="edge">
<title>Node12&#45;&gt;Node13</title>
<path fill="none" stroke="#191970" d="M762.0759,-59.911C791.3679,-54.1287 828.5413,-46.7906 857.7708,-41.0206"/>
<polygon fill="#191970" stroke="#191970" points="858.6196,-44.4206 867.7524,-39.0502 857.2639,-37.5532 858.6196,-44.4206"/>
</g>
<!-- Node16 -->
<g id="node13" class="node">
<title>Node16</title>
<g id="a_node13"><a xlink:href="../../d0/de4/namespacematrix.html#a761295febb473ca1226309513533e801" target="_top" xlink:title="matrix::sin">
<polygon fill="#ffffff" stroke="#000000" points="682.5,-224 682.5,-243 744.5,-243 744.5,-224 682.5,-224"/>
<text text-anchor="middle" x="713.5" y="-231" font-family="Helvetica,sans-Serif" font-size="10.00" fill="#000000">matrix::sin</text>
</a>
</g>
</g>
<!-- Node15&#45;&gt;Node16 -->
<g id="edge12" class="edge">
<title>Node15&#45;&gt;Node16</title>
<path fill="none" stroke="#191970" d="M556.0116,-193.6491C573.3358,-198.5632 603.207,-206.9124 629,-213.5 642.9675,-217.0673 658.2905,-220.7602 672.0074,-223.987"/>
<polygon fill="#191970" stroke="#191970" points="671.6006,-227.4862 682.1347,-226.354 673.1937,-220.6699 671.6006,-227.4862"/>
</g>
<!-- Node17 -->
<g id="node14" class="node">
<title>Node17</title>
<g id="a_node14"><a xlink:href="../../d0/de4/namespacematrix.html#a2e09123c750ed3a0315a31f3b27a3ed9" target="_top" xlink:title="matrix::cos">
<polygon fill="#ffffff" stroke="#000000" points="873.5,-224 873.5,-243 938.5,-243 938.5,-224 873.5,-224"/>
<text text-anchor="middle" x="906" y="-231" font-family="Helvetica,sans-Serif" font-size="10.00" fill="#000000">matrix::cos</text>
</a>
</g>
</g>
<!-- Node16&#45;&gt;Node17 -->
<g id="edge13" class="edge">
<title>Node16&#45;&gt;Node17</title>
<path fill="none" stroke="#191970" d="M744.8569,-228.3593C777.0495,-226.4294 827.3713,-226.2353 863.2103,-227.7771"/>
<polygon fill="#191970" stroke="#191970" points="863.2067,-231.2811 873.3688,-228.2844 863.5559,-224.2899 863.2067,-231.2811"/>
</g>
<!-- Node17&#45;&gt;Node16 -->
<g id="edge14" class="edge">
<title>Node17&#45;&gt;Node16</title>
<path fill="none" stroke="#191970" d="M873.3688,-238.7156C840.7069,-240.6001 790.3429,-240.7487 754.8889,-239.1615"/>
<polygon fill="#191970" stroke="#191970" points="755.0249,-235.6639 744.8569,-238.6407 754.6619,-242.6545 755.0249,-235.6639"/>
</g>
</g>
</svg>
