<?xml version="1.0" encoding="UTF-8" standalone="no"?>
<!DOCTYPE svg PUBLIC "-//W3C//DTD SVG 1.1//EN"
 "http://www.w3.org/Graphics/SVG/1.1/DTD/svg11.dtd">
<!-- Generated by graphviz version 2.38.0 (20140413.2041)
 -->
<!-- Title: BlinkM::init Pages: 1 -->
<svg width="340pt" height="104pt"
 viewBox="0.00 0.00 340.00 104.00" xmlns="http://www.w3.org/2000/svg" xmlns:xlink="http://www.w3.org/1999/xlink">
<g id="graph0" class="graph" transform="scale(1 1) rotate(0) translate(4 100)">
<title>BlinkM::init</title>
<polygon fill="white" stroke="none" points="-4,4 -4,-100 336,-100 336,4 -4,4"/>
<!-- Node1 -->
<g id="node1" class="node"><title>Node1</title>
<polygon fill="#bfbfbf" stroke="black" points="0,-38.5 0,-57.5 65,-57.5 65,-38.5 0,-38.5"/>
<text text-anchor="middle" x="32.5" y="-45.5" font-family="Helvetica,sans-Serif" font-size="10.00">BlinkM::init</text>
</g>
<!-- Node2 -->
<g id="node2" class="node"><title>Node2</title>
<g id="a_node2"><a xlink:href="../../d9/d1e/namespacelis3mdl.html#af7304d396b9385f9dfe55796aa805025" target="_top" xlink:title="Initializes the driver – sets defaults and starts a cycle. ">
<polygon fill="white" stroke="black" points="118.5,-76.5 118.5,-95.5 184.5,-95.5 184.5,-76.5 118.5,-76.5"/>
<text text-anchor="middle" x="151.5" y="-83.5" font-family="Helvetica,sans-Serif" font-size="10.00">lis3mdl::init</text>
</a>
</g>
</g>
<!-- Node1&#45;&gt;Node2 -->
<g id="edge1" class="edge"><title>Node1&#45;&gt;Node2</title>
<path fill="none" stroke="midnightblue" d="M63.024,-57.589C77.7119,-62.3594 95.6601,-68.1888 111.468,-73.3229"/>
<polygon fill="midnightblue" stroke="midnightblue" points="110.393,-76.6538 120.985,-76.4141 112.556,-69.9961 110.393,-76.6538"/>
</g>
<!-- Node4 -->
<g id="node4" class="node"><title>Node4</title>
<g id="a_node4"><a xlink:href="../../d8/d7e/class_blink_m.html#aa3245e4cd042d8cfc7ce83bfdc199393" target="_top" xlink:title="BlinkM::set_rgb">
<polygon fill="white" stroke="black" points="109,-38.5 109,-57.5 194,-57.5 194,-38.5 109,-38.5"/>
<text text-anchor="middle" x="151.5" y="-45.5" font-family="Helvetica,sans-Serif" font-size="10.00">BlinkM::set_rgb</text>
</a>
</g>
</g>
<!-- Node1&#45;&gt;Node4 -->
<g id="edge3" class="edge"><title>Node1&#45;&gt;Node4</title>
<path fill="none" stroke="midnightblue" d="M65.1619,-48C75.4211,-48 87.0863,-48 98.4256,-48"/>
<polygon fill="midnightblue" stroke="midnightblue" points="98.6979,-51.5001 108.698,-48 98.6978,-44.5001 98.6979,-51.5001"/>
</g>
<!-- Node5 -->
<g id="node5" class="node"><title>Node5</title>
<g id="a_node5"><a xlink:href="../../d8/d7e/class_blink_m.html#a440bfe6e5d336ff0475cec6b211d6f5b" target="_top" xlink:title="BlinkM::stop_script">
<polygon fill="white" stroke="black" points="101,-0.5 101,-19.5 202,-19.5 202,-0.5 101,-0.5"/>
<text text-anchor="middle" x="151.5" y="-7.5" font-family="Helvetica,sans-Serif" font-size="10.00">BlinkM::stop_script</text>
</a>
</g>
</g>
<!-- Node1&#45;&gt;Node5 -->
<g id="edge4" class="edge"><title>Node1&#45;&gt;Node5</title>
<path fill="none" stroke="midnightblue" d="M63.024,-38.411C77.7119,-33.6406 95.6601,-27.8112 111.468,-22.6771"/>
<polygon fill="midnightblue" stroke="midnightblue" points="112.556,-26.0039 120.985,-19.5859 110.393,-19.3462 112.556,-26.0039"/>
</g>
<!-- Node3 -->
<g id="node3" class="node"><title>Node3</title>
<g id="a_node3"><a xlink:href="../../dc/d5d/namespacebmp280.html#ada27253111a67d74f9740385dc8937bb" target="_top" xlink:title="find a bus structure for a busid ">
<polygon fill="white" stroke="black" points="238,-76.5 238,-95.5 332,-95.5 332,-76.5 238,-76.5"/>
<text text-anchor="middle" x="285" y="-83.5" font-family="Helvetica,sans-Serif" font-size="10.00">bmp280::find_bus</text>
</a>
</g>
</g>
<!-- Node2&#45;&gt;Node3 -->
<g id="edge2" class="edge"><title>Node2&#45;&gt;Node3</title>
<path fill="none" stroke="midnightblue" d="M184.669,-86C197.642,-86 213,-86 227.713,-86"/>
<polygon fill="midnightblue" stroke="midnightblue" points="227.758,-89.5001 237.758,-86 227.758,-82.5001 227.758,-89.5001"/>
</g>
</g>
</svg>
