<?xml version="1.0" encoding="UTF-8" standalone="no"?>
<!DOCTYPE svg PUBLIC "-//W3C//DTD SVG 1.1//EN"
 "http://www.w3.org/Graphics/SVG/1.1/DTD/svg11.dtd">
<!-- Generated by graphviz version 2.38.0 (20140413.2041)
 -->
<!-- Title: BlockLocalPositionEstimator::landingTargetCheckTimeout Pages: 1 -->
<svg width="713pt" height="39pt"
 viewBox="0.00 0.00 713.00 39.00" xmlns="http://www.w3.org/2000/svg" xmlns:xlink="http://www.w3.org/1999/xlink">
<g id="graph0" class="graph" transform="scale(1 1) rotate(0) translate(4 35)">
<title>BlockLocalPositionEstimator::landingTargetCheckTimeout</title>
<polygon fill="white" stroke="none" points="-4,4 -4,-35 709,-35 709,4 -4,4"/>
<!-- Node1 -->
<g id="node1" class="node"><title>Node1</title>
<polygon fill="#bfbfbf" stroke="black" points="0,-0.5 0,-30.5 145,-30.5 145,-0.5 0,-0.5"/>
<text text-anchor="start" x="8" y="-18.5" font-family="Helvetica,sans-Serif" font-size="10.00">BlockLocalPositionEstimator</text>
<text text-anchor="middle" x="72.5" y="-7.5" font-family="Helvetica,sans-Serif" font-size="10.00">::landingTargetCheckTimeout</text>
</g>
<!-- Node2 -->
<g id="node2" class="node"><title>Node2</title>
<g id="a_node2"><a xlink:href="../../d5/d01/class_block_local_position_estimator.html#ad2b07b7a15eb516281a3b4f90ebe783c" target="_top" xlink:title="BlockLocalPositionEstimator\l::checkTimeouts">
<polygon fill="white" stroke="black" points="181,-0.5 181,-30.5 323,-30.5 323,-0.5 181,-0.5"/>
<text text-anchor="start" x="189" y="-18.5" font-family="Helvetica,sans-Serif" font-size="10.00">BlockLocalPositionEstimator</text>
<text text-anchor="middle" x="252" y="-7.5" font-family="Helvetica,sans-Serif" font-size="10.00">::checkTimeouts</text>
</a>
</g>
</g>
<!-- Node1&#45;&gt;Node2 -->
<g id="edge1" class="edge"><title>Node1&#45;&gt;Node2</title>
<path fill="none" stroke="midnightblue" d="M155.447,-15.5C163.911,-15.5 172.458,-15.5 180.778,-15.5"/>
<polygon fill="midnightblue" stroke="midnightblue" points="155.184,-12.0001 145.184,-15.5 155.184,-19.0001 155.184,-12.0001"/>
</g>
<!-- Node3 -->
<g id="node3" class="node"><title>Node3</title>
<g id="a_node3"><a xlink:href="../../d5/d01/class_block_local_position_estimator.html#ad15c4f6a9868f57abfc5b78f4e2165d9" target="_top" xlink:title="BlockLocalPositionEstimator\l::update">
<polygon fill="white" stroke="black" points="359,-0.5 359,-30.5 501,-30.5 501,-0.5 359,-0.5"/>
<text text-anchor="start" x="367" y="-18.5" font-family="Helvetica,sans-Serif" font-size="10.00">BlockLocalPositionEstimator</text>
<text text-anchor="middle" x="430" y="-7.5" font-family="Helvetica,sans-Serif" font-size="10.00">::update</text>
</a>
</g>
</g>
<!-- Node2&#45;&gt;Node3 -->
<g id="edge2" class="edge"><title>Node2&#45;&gt;Node3</title>
<path fill="none" stroke="midnightblue" d="M333.101,-15.5C341.706,-15.5 350.412,-15.5 358.888,-15.5"/>
<polygon fill="midnightblue" stroke="midnightblue" points="333.066,-12.0001 323.066,-15.5 333.066,-19.0001 333.066,-12.0001"/>
</g>
<!-- Node4 -->
<g id="node4" class="node"><title>Node4</title>
<g id="a_node4"><a xlink:href="../../dc/d09/class_local_position_estimator_module.html#a6e620e76d8f8c8d6a87fe2246c30bde9" target="_top" xlink:title="LocalPositionEstimatorModule::run">
<polygon fill="white" stroke="black" points="537,-6 537,-25 705,-25 705,-6 537,-6"/>
<text text-anchor="middle" x="621" y="-13" font-family="Helvetica,sans-Serif" font-size="10.00">LocalPositionEstimatorModule::run</text>
</a>
</g>
</g>
<!-- Node3&#45;&gt;Node4 -->
<g id="edge3" class="edge"><title>Node3&#45;&gt;Node4</title>
<path fill="none" stroke="midnightblue" d="M511.335,-15.5C519.797,-15.5 528.415,-15.5 536.908,-15.5"/>
<polygon fill="midnightblue" stroke="midnightblue" points="511.108,-12.0001 501.108,-15.5 511.108,-19.0001 511.108,-12.0001"/>
</g>
</g>
</svg>
