<?xml version="1.0" encoding="UTF-8" standalone="no"?>
<!DOCTYPE svg PUBLIC "-//W3C//DTD SVG 1.1//EN"
 "http://www.w3.org/Graphics/SVG/1.1/DTD/svg11.dtd">
<!-- Generated by graphviz version 2.40.1 (20161225.0304)
 -->
<!-- Title: set_link_loss_nav_state Pages: 1 -->
<svg width="406pt" height="28pt"
 viewBox="0.00 0.00 406.00 28.00" xmlns="http://www.w3.org/2000/svg" xmlns:xlink="http://www.w3.org/1999/xlink">
<g id="graph0" class="graph" transform="scale(1 1) rotate(0) translate(4 24)">
<title>set_link_loss_nav_state</title>
<polygon fill="#ffffff" stroke="transparent" points="-4,4 -4,-24 402,-24 402,4 -4,4"/>
<!-- Node201 -->
<g id="node1" class="node">
<title>Node201</title>
<polygon fill="#bfbfbf" stroke="#000000" points="0,-.5 0,-19.5 122,-19.5 122,-.5 0,-.5"/>
<text text-anchor="middle" x="61" y="-7.5" font-family="Helvetica,sans-Serif" font-size="10.00" fill="#000000">set_link_loss_nav_state</text>
</g>
<!-- Node202 -->
<g id="node2" class="node">
<title>Node202</title>
<g id="a_node2"><a xlink:href="../../df/d25/state__machine__helper_8cpp.html#a12cdf6d677418283df9b76837a479420" target="_top" xlink:title="main_state_transition">
<polygon fill="#ffffff" stroke="#000000" points="158,-.5 158,-19.5 268,-19.5 268,-.5 158,-.5"/>
<text text-anchor="middle" x="213" y="-7.5" font-family="Helvetica,sans-Serif" font-size="10.00" fill="#000000">main_state_transition</text>
</a>
</g>
</g>
<!-- Node201&#45;&gt;Node202 -->
<g id="edge1" class="edge">
<title>Node201&#45;&gt;Node202</title>
<path fill="none" stroke="#191970" d="M122.3861,-10C130.704,-10 139.2646,-10 147.6488,-10"/>
<polygon fill="#191970" stroke="#191970" points="147.7601,-13.5001 157.7601,-10 147.76,-6.5001 147.7601,-13.5001"/>
</g>
<!-- Node203 -->
<g id="node3" class="node">
<title>Node203</title>
<g id="a_node3"><a xlink:href="../../d6/d10/drv__hrt_8h.html#a1450e339b7c5b8d47656500167a6676d" target="_top" xlink:title="Get absolute time in [us] (does not wrap). ">
<polygon fill="#ffffff" stroke="#000000" points="304,-.5 304,-19.5 398,-19.5 398,-.5 304,-.5"/>
<text text-anchor="middle" x="351" y="-7.5" font-family="Helvetica,sans-Serif" font-size="10.00" fill="#000000">hrt_absolute_time</text>
</a>
</g>
</g>
<!-- Node202&#45;&gt;Node203 -->
<g id="edge2" class="edge">
<title>Node202&#45;&gt;Node203</title>
<path fill="none" stroke="#191970" d="M268.3347,-10C276.6511,-10 285.2434,-10 293.6018,-10"/>
<polygon fill="#191970" stroke="#191970" points="293.647,-13.5001 303.647,-10 293.647,-6.5001 293.647,-13.5001"/>
</g>
</g>
</svg>
