<?xml version="1.0" encoding="UTF-8" standalone="no"?>
<!DOCTYPE svg PUBLIC "-//W3C//DTD SVG 1.1//EN"
 "http://www.w3.org/Graphics/SVG/1.1/DTD/svg11.dtd">
<!-- Generated by graphviz version 2.40.1 (20161225.0304)
 -->
<!-- Title: control::BlockOutput::get Pages: 1 -->
<svg width="715pt" height="85pt"
 viewBox="0.00 0.00 715.00 85.00" xmlns="http://www.w3.org/2000/svg" xmlns:xlink="http://www.w3.org/1999/xlink">
<g id="graph0" class="graph" transform="scale(1 1) rotate(0) translate(4 81)">
<title>control::BlockOutput::get</title>
<polygon fill="#ffffff" stroke="transparent" points="-4,4 -4,-81 711,-81 711,4 -4,4"/>
<!-- Node5 -->
<g id="node1" class="node">
<title>Node5</title>
<polygon fill="#bfbfbf" stroke="#000000" points="0,-19.5 0,-38.5 125,-38.5 125,-19.5 0,-19.5"/>
<text text-anchor="middle" x="62.5" y="-26.5" font-family="Helvetica,sans-Serif" font-size="10.00" fill="#000000">control::BlockOutput::get</text>
</g>
<!-- Node6 -->
<g id="node2" class="node">
<title>Node6</title>
<g id="a_node2"><a xlink:href="../../dd/d7b/namespacecontrol.html#a3e72da6a3ac7bc8a7a0c8f07753cb330" target="_top" xlink:title="control::blockOutputTest">
<polygon fill="#ffffff" stroke="#000000" points="161,-38.5 161,-57.5 285,-57.5 285,-38.5 161,-38.5"/>
<text text-anchor="middle" x="223" y="-45.5" font-family="Helvetica,sans-Serif" font-size="10.00" fill="#000000">control::blockOutputTest</text>
</a>
</g>
</g>
<!-- Node5&#45;&gt;Node6 -->
<g id="edge1" class="edge">
<title>Node5&#45;&gt;Node6</title>
<path fill="none" stroke="#191970" d="M135.0682,-37.5906C143.7011,-38.6126 152.4537,-39.6487 160.9214,-40.6511"/>
<polygon fill="#191970" stroke="#191970" points="135.3552,-34.1002 125.0131,-36.4003 134.5322,-41.0517 135.3552,-34.1002"/>
</g>
<!-- Node11 -->
<g id="node7" class="node">
<title>Node11</title>
<g id="a_node7"><a xlink:href="../../d9/de9/controllib__test__main_8cpp.html#a3e72da6a3ac7bc8a7a0c8f07753cb330" target="_top" xlink:title="blockOutputTest">
<polygon fill="#ffffff" stroke="#000000" points="178.5,-.5 178.5,-19.5 267.5,-19.5 267.5,-.5 178.5,-.5"/>
<text text-anchor="middle" x="223" y="-7.5" font-family="Helvetica,sans-Serif" font-size="10.00" fill="#000000">blockOutputTest</text>
</a>
</g>
</g>
<!-- Node5&#45;&gt;Node11 -->
<g id="edge6" class="edge">
<title>Node5&#45;&gt;Node11</title>
<path fill="none" stroke="#191970" d="M135.1186,-20.4034C149.8306,-18.6618 164.8879,-16.8793 178.2885,-15.293"/>
<polygon fill="#191970" stroke="#191970" points="134.5322,-16.9483 125.0131,-21.5997 135.3552,-23.8998 134.5322,-16.9483"/>
</g>
<!-- Node7 -->
<g id="node3" class="node">
<title>Node7</title>
<g id="a_node3"><a xlink:href="../../dd/d7b/namespacecontrol.html#a213586553ff1fb69f41627504f7e7309" target="_top" xlink:title="control::basicBlocksTest">
<polygon fill="#ffffff" stroke="#000000" points="321,-57.5 321,-76.5 446,-76.5 446,-57.5 321,-57.5"/>
<text text-anchor="middle" x="383.5" y="-64.5" font-family="Helvetica,sans-Serif" font-size="10.00" fill="#000000">control::basicBlocksTest</text>
</a>
</g>
</g>
<!-- Node6&#45;&gt;Node7 -->
<g id="edge2" class="edge">
<title>Node6&#45;&gt;Node7</title>
<path fill="none" stroke="#191970" d="M295.0586,-56.5303C303.6514,-57.5475 312.3708,-58.5797 320.8171,-59.5796"/>
<polygon fill="#191970" stroke="#191970" points="295.3956,-53.0458 285.0535,-55.3459 294.5727,-59.9973 295.3956,-53.0458"/>
</g>
<!-- Node10 -->
<g id="node6" class="node">
<title>Node10</title>
<g id="a_node6"><a xlink:href="../../d9/de9/controllib__test__main_8cpp.html#a213586553ff1fb69f41627504f7e7309" target="_top" xlink:title="basicBlocksTest">
<polygon fill="#ffffff" stroke="#000000" points="339,-19.5 339,-38.5 428,-38.5 428,-19.5 339,-19.5"/>
<text text-anchor="middle" x="383.5" y="-26.5" font-family="Helvetica,sans-Serif" font-size="10.00" fill="#000000">basicBlocksTest</text>
</a>
</g>
</g>
<!-- Node6&#45;&gt;Node10 -->
<g id="edge5" class="edge">
<title>Node6&#45;&gt;Node10</title>
<path fill="none" stroke="#191970" d="M295.185,-39.4547C309.9401,-37.708 325.0626,-35.9178 338.53,-34.3236"/>
<polygon fill="#191970" stroke="#191970" points="294.5727,-36.0027 285.0535,-40.6541 295.3956,-42.9542 294.5727,-36.0027"/>
</g>
<!-- Node8 -->
<g id="node4" class="node">
<title>Node8</title>
<g id="a_node4"><a xlink:href="../../d5/d69/tests__main_8h.html#a6d80dfe13b380ca974674e83117d03a9" target="_top" xlink:title="controllib_test_main">
<polygon fill="#ffffff" stroke="#000000" points="482,-57.5 482,-76.5 586,-76.5 586,-57.5 482,-57.5"/>
<text text-anchor="middle" x="534" y="-64.5" font-family="Helvetica,sans-Serif" font-size="10.00" fill="#000000">controllib_test_main</text>
</a>
</g>
</g>
<!-- Node7&#45;&gt;Node8 -->
<g id="edge3" class="edge">
<title>Node7&#45;&gt;Node8</title>
<path fill="none" stroke="#191970" d="M456.18,-67C464.8781,-67 473.6221,-67 481.9463,-67"/>
<polygon fill="#191970" stroke="#191970" points="456.0181,-63.5001 446.0181,-67 456.018,-70.5001 456.0181,-63.5001"/>
</g>
<!-- Node9 -->
<g id="node5" class="node">
<title>Node9</title>
<g id="a_node5"><a xlink:href="../../d9/de9/controllib__test__main_8cpp.html#aa61b9540192392bfe67a791ff3c65e05" target="_top" xlink:title="blockDelayTest">
<polygon fill="#ffffff" stroke="#000000" points="622,-57.5 622,-76.5 707,-76.5 707,-57.5 622,-57.5"/>
<text text-anchor="middle" x="664.5" y="-64.5" font-family="Helvetica,sans-Serif" font-size="10.00" fill="#000000">blockDelayTest</text>
</a>
</g>
</g>
<!-- Node8&#45;&gt;Node9 -->
<g id="edge4" class="edge">
<title>Node8&#45;&gt;Node9</title>
<path fill="none" stroke="#191970" d="M596.362,-67C604.9669,-67 613.6389,-67 621.7779,-67"/>
<polygon fill="#191970" stroke="#191970" points="596.3274,-63.5001 586.3274,-67 596.3274,-70.5001 596.3274,-63.5001"/>
</g>
</g>
</svg>
