<?xml version="1.0" encoding="UTF-8" standalone="no"?>
<!DOCTYPE svg PUBLIC "-//W3C//DTD SVG 1.1//EN"
 "http://www.w3.org/Graphics/SVG/1.1/DTD/svg11.dtd">
<!-- Generated by graphviz version 2.40.1 (20161225.0304)
 -->
<!-- Title: src/drivers/imu/mpu6000/MPU6000.hpp Pages: 1 -->
<svg width="558pt" height="106pt"
 viewBox="0.00 0.00 558.00 106.00" xmlns="http://www.w3.org/2000/svg" xmlns:xlink="http://www.w3.org/1999/xlink">
<g id="graph0" class="graph" transform="scale(1 1) rotate(0) translate(4 102)">
<title>src/drivers/imu/mpu6000/MPU6000.hpp</title>
<polygon fill="#ffffff" stroke="transparent" points="-4,4 -4,-102 554,-102 554,4 -4,4"/>
<!-- Node77 -->
<g id="node1" class="node">
<title>Node77</title>
<polygon fill="#bfbfbf" stroke="#000000" points="213,-67.5 213,-97.5 337,-97.5 337,-67.5 213,-67.5"/>
<text text-anchor="start" x="221" y="-85.5" font-family="Helvetica,sans-Serif" font-size="10.00" fill="#000000">src/drivers/imu/mpu6000</text>
<text text-anchor="middle" x="275" y="-74.5" font-family="Helvetica,sans-Serif" font-size="10.00" fill="#000000">/MPU6000.hpp</text>
</g>
<!-- Node78 -->
<g id="node2" class="node">
<title>Node78</title>
<g id="a_node2"><a xlink:href="../../de/d0d/_m_p_u6000_8cpp.html" target="_top" xlink:title="Driver for the Invensense MPU6000, MPU6050, ICM20608, and ICM20602 connected via SPI or I2C...">
<polygon fill="#ffffff" stroke="#000000" points="0,-.5 0,-30.5 124,-30.5 124,-.5 0,-.5"/>
<text text-anchor="start" x="8" y="-18.5" font-family="Helvetica,sans-Serif" font-size="10.00" fill="#000000">src/drivers/imu/mpu6000</text>
<text text-anchor="middle" x="62" y="-7.5" font-family="Helvetica,sans-Serif" font-size="10.00" fill="#000000">/MPU6000.cpp</text>
</a>
</g>
</g>
<!-- Node77&#45;&gt;Node78 -->
<g id="edge1" class="edge">
<title>Node77&#45;&gt;Node78</title>
<path fill="none" stroke="#191970" d="M217.4973,-64.4123C183.8545,-53.8298 141.8702,-40.6235 110.0098,-30.6017"/>
<polygon fill="#191970" stroke="#191970" points="216.6092,-67.802 227.1986,-67.4639 218.7097,-61.1245 216.6092,-67.802"/>
</g>
<!-- Node79 -->
<g id="node3" class="node">
<title>Node79</title>
<g id="a_node3"><a xlink:href="../../d6/d78/_m_p_u6000___i2_c_8cpp.html" target="_top" xlink:title="I2C interface for MPU6000 /MPU6050. ">
<polygon fill="#ffffff" stroke="#000000" points="142,-.5 142,-30.5 266,-30.5 266,-.5 142,-.5"/>
<text text-anchor="start" x="150" y="-18.5" font-family="Helvetica,sans-Serif" font-size="10.00" fill="#000000">src/drivers/imu/mpu6000</text>
<text text-anchor="middle" x="204" y="-7.5" font-family="Helvetica,sans-Serif" font-size="10.00" fill="#000000">/MPU6000_I2C.cpp</text>
</a>
</g>
</g>
<!-- Node77&#45;&gt;Node79 -->
<g id="edge2" class="edge">
<title>Node77&#45;&gt;Node79</title>
<path fill="none" stroke="#191970" d="M251.3806,-60.2113C241.0905,-50.5009 229.2949,-39.3698 220.0472,-30.6432"/>
<polygon fill="#191970" stroke="#191970" points="249.2139,-62.979 258.889,-67.2967 254.0181,-57.8879 249.2139,-62.979"/>
</g>
<!-- Node80 -->
<g id="node4" class="node">
<title>Node80</title>
<g id="a_node4"><a xlink:href="../../df/dcc/mpu6000__main_8cpp.html" target="_top" xlink:title="src/drivers/imu/mpu6000\l/mpu6000_main.cpp">
<polygon fill="#ffffff" stroke="#000000" points="284,-.5 284,-30.5 408,-30.5 408,-.5 284,-.5"/>
<text text-anchor="start" x="292" y="-18.5" font-family="Helvetica,sans-Serif" font-size="10.00" fill="#000000">src/drivers/imu/mpu6000</text>
<text text-anchor="middle" x="346" y="-7.5" font-family="Helvetica,sans-Serif" font-size="10.00" fill="#000000">/mpu6000_main.cpp</text>
</a>
</g>
</g>
<!-- Node77&#45;&gt;Node80 -->
<g id="edge3" class="edge">
<title>Node77&#45;&gt;Node80</title>
<path fill="none" stroke="#191970" d="M298.6194,-60.2113C308.9095,-50.5009 320.7051,-39.3698 329.9528,-30.6432"/>
<polygon fill="#191970" stroke="#191970" points="295.9819,-57.8879 291.111,-67.2967 300.7861,-62.979 295.9819,-57.8879"/>
</g>
<!-- Node81 -->
<g id="node5" class="node">
<title>Node81</title>
<g id="a_node5"><a xlink:href="../../d7/dc1/_m_p_u6000___s_p_i_8cpp.html" target="_top" xlink:title="Driver for the Invensense MPU6000 connected via SPI. ">
<polygon fill="#ffffff" stroke="#000000" points="426,-.5 426,-30.5 550,-30.5 550,-.5 426,-.5"/>
<text text-anchor="start" x="434" y="-18.5" font-family="Helvetica,sans-Serif" font-size="10.00" fill="#000000">src/drivers/imu/mpu6000</text>
<text text-anchor="middle" x="488" y="-7.5" font-family="Helvetica,sans-Serif" font-size="10.00" fill="#000000">/MPU6000_SPI.cpp</text>
</a>
</g>
</g>
<!-- Node77&#45;&gt;Node81 -->
<g id="edge4" class="edge">
<title>Node77&#45;&gt;Node81</title>
<path fill="none" stroke="#191970" d="M332.5027,-64.4123C366.1455,-53.8298 408.1298,-40.6235 439.9902,-30.6017"/>
<polygon fill="#191970" stroke="#191970" points="331.2903,-61.1245 322.8014,-67.4639 333.3908,-67.802 331.2903,-61.1245"/>
</g>
</g>
</svg>
