<?xml version="1.0" encoding="UTF-8" standalone="no"?>
<!DOCTYPE svg PUBLIC "-//W3C//DTD SVG 1.1//EN"
 "http://www.w3.org/Graphics/SVG/1.1/DTD/svg11.dtd">
<!-- Generated by graphviz version 2.38.0 (20140413.2041)
 -->
<!-- Title: TFMINI::get_maximum_distance Pages: 1 -->
<!--zoomable 72 -->
<svg id="main" version="1.1" xmlns="http://www.w3.org/2000/svg" xmlns:xlink="http://www.w3.org/1999/xlink" xml:space="preserve" onload="init(evt)">
<style type="text/css"><![CDATA[
.edge:hover path { stroke: red; }
.edge:hover polygon { stroke: red; fill: red; }
]]></style>
<script type="text/javascript"><![CDATA[
var edges = document.getElementsByTagName('g');
if (edges && edges.length) {
  for (var i=0;i<edges.length;i++) {
    if (edges[i].id.substr(0,4)=='edge') {
      edges[i].setAttribute('class','edge');
    }
  }
}
]]></script>
        <defs>
                <circle id="rim" cx="0" cy="0" r="7"/>
                <circle id="rim2" cx="0" cy="0" r="3.5"/>
                <g id="zoomPlus">
                        <use xlink:href="#rim" fill="#404040">
                                <set attributeName="fill" to="#808080" begin="zoomplus.mouseover" end="zoomplus.mouseout"/>
                        </use>
                        <path d="M-4,0h8M0,-4v8" fill="none" stroke="white" stroke-width="1.5" pointer-events="none"/>
                </g>
                <g id="zoomMin">
                        <use xlink:href="#rim" fill="#404040">
                                <set attributeName="fill" to="#808080" begin="zoomminus.mouseover" end="zoomminus.mouseout"/>
                        </use>
                        <path d="M-4,0h8" fill="none" stroke="white" stroke-width="1.5" pointer-events="none"/>
                </g>
                <g id="dirArrow">
                        <path fill="none" stroke="white" stroke-width="1.5" d="M0,-3.0v7 M-2.5,-0.5L0,-3.0L2.5,-0.5"/>
                </g>
               <g id="resetDef">
                       <use xlink:href="#rim2" fill="#404040">
                               <set attributeName="fill" to="#808080" begin="reset.mouseover" end="reset.mouseout"/>
                       </use>
               </g>
        </defs>

<script type="text/javascript">
var viewWidth = 751;
var viewHeight = 72;
var sectionId = 'dynsection-10';
</script>
<script xlink:href="../../svgpan.js"/>
<svg id="graph" class="graph">
<g id="viewport">
<title>TFMINI::get_maximum_distance</title>
<polygon fill="white" stroke="none" points="-4,4 -4,-67.5 747,-67.5 747,4 -4,4"/>
<!-- Node1 -->
<g id="node1" class="node"><title>Node1</title>
<polygon fill="#bfbfbf" stroke="black" points="0,-0.5 0,-30.5 118,-30.5 118,-0.5 0,-0.5"/>
<text text-anchor="start" x="8" y="-18.5" font-family="Helvetica,sans-Serif" font-size="10.00">TFMINI::get_maximum</text>
<text text-anchor="middle" x="59" y="-7.5" font-family="Helvetica,sans-Serif" font-size="10.00">_distance</text>
</g>
<!-- Node2 -->
<g id="node2" class="node"><title>Node2</title>
<g id="a_node2"><a xlink:href="../../d8/d56/class_t_f_m_i_n_i.html#ad84428a299daf0435ade5e64db908f13" target="_top" xlink:title="TFMINI::collect">
<polygon fill="white" stroke="black" points="154,-6 154,-25 239,-25 239,-6 154,-6"/>
<text text-anchor="middle" x="196.5" y="-13" font-family="Helvetica,sans-Serif" font-size="10.00">TFMINI::collect</text>
</a>
</g>
</g>
<!-- Node1&#45;&gt;Node2 -->
<g id="edge1" class="edge"><title>Node1&#45;&gt;Node2</title>
<path fill="none" stroke="midnightblue" d="M128.358,-15.5C136.992,-15.5 145.613,-15.5 153.659,-15.5"/>
<polygon fill="midnightblue" stroke="midnightblue" points="128.251,-12.0001 118.251,-15.5 128.251,-19.0001 128.251,-12.0001"/>
</g>
<!-- Node3 -->
<g id="node3" class="node"><title>Node3</title>
<g id="a_node3"><a xlink:href="../../d8/d56/class_t_f_m_i_n_i.html#a55e2ea5d275a9ec29ca6bdd1bf682b1e" target="_top" xlink:title="Perform a poll cycle; collect from the previous measurement and start a new one. ">
<polygon fill="white" stroke="black" points="275,-44 275,-63 355,-63 355,-44 275,-44"/>
<text text-anchor="middle" x="315" y="-51" font-family="Helvetica,sans-Serif" font-size="10.00">TFMINI::cycle</text>
</a>
</g>
</g>
<!-- Node2&#45;&gt;Node3 -->
<g id="edge2" class="edge"><title>Node2&#45;&gt;Node3</title>
<path fill="none" stroke="midnightblue" d="M236.822,-28.3259C252.453,-33.4247 270.126,-39.1891 284.612,-43.9141"/>
<polygon fill="midnightblue" stroke="midnightblue" points="237.49,-24.8626 226.898,-25.089 235.32,-31.5175 237.49,-24.8626"/>
</g>
<!-- Node7 -->
<g id="node7" class="node"><title>Node7</title>
<g id="a_node7"><a xlink:href="../../d8/d56/class_t_f_m_i_n_i.html#ab7d99c5e05cb38281c893b4f4610c41b" target="_top" xlink:title="Perform a read from the device. ">
<polygon fill="white" stroke="black" points="277.5,-6 277.5,-25 352.5,-25 352.5,-6 277.5,-6"/>
<text text-anchor="middle" x="315" y="-13" font-family="Helvetica,sans-Serif" font-size="10.00">TFMINI::read</text>
</a>
</g>
</g>
<!-- Node2&#45;&gt;Node7 -->
<g id="edge8" class="edge"><title>Node2&#45;&gt;Node7</title>
<path fill="none" stroke="midnightblue" d="M249.299,-8.78693C258.704,-8.67886 268.335,-8.80798 277.197,-9.1743"/>
<polygon fill="midnightblue" stroke="midnightblue" points="249.155,-5.28908 239.23,-8.9973 249.301,-12.2876 249.155,-5.28908"/>
</g>
<!-- Node4 -->
<g id="node4" class="node"><title>Node4</title>
<g id="a_node4"><a xlink:href="../../d8/d56/class_t_f_m_i_n_i.html#affc93dc2fb514e11ceb62e0fe1ca54af" target="_top" xlink:title="Static trampoline from the workq context; because we don&#39;t have a generic workq wrapper yet...">
<polygon fill="white" stroke="black" points="391,-44 391,-63 521,-63 521,-44 391,-44"/>
<text text-anchor="middle" x="456" y="-51" font-family="Helvetica,sans-Serif" font-size="10.00">TFMINI::cycle_trampoline</text>
</a>
</g>
</g>
<!-- Node3&#45;&gt;Node4 -->
<g id="edge3" class="edge"><title>Node3&#45;&gt;Node4</title>
<path fill="none" stroke="midnightblue" d="M365.334,-47.0092C373.632,-46.7902 382.349,-46.71 390.954,-46.7685"/>
<polygon fill="midnightblue" stroke="midnightblue" points="364.963,-43.5197 355.089,-47.3607 365.203,-50.5156 364.963,-43.5197"/>
</g>
<!-- Node4&#45;&gt;Node3 -->
<g id="edge4" class="edge"><title>Node4&#45;&gt;Node3</title>
<path fill="none" stroke="midnightblue" d="M380.895,-60.2368C371.996,-60.1858 363.199,-59.9866 355.089,-59.6393"/>
<polygon fill="midnightblue" stroke="midnightblue" points="380.955,-63.7369 390.954,-60.2315 380.952,-56.7369 380.955,-63.7369"/>
</g>
<!-- Node5 -->
<g id="node5" class="node"><title>Node5</title>
<g id="a_node5"><a xlink:href="../../d8/d56/class_t_f_m_i_n_i.html#ab5cfe0cfa65d6270385b6edcdac8ba4c" target="_top" xlink:title="Initialise the automatic measurement state machine and start it. ">
<polygon fill="white" stroke="black" points="557,-25 557,-44 633,-44 633,-25 557,-25"/>
<text text-anchor="middle" x="595" y="-32" font-family="Helvetica,sans-Serif" font-size="10.00">TFMINI::start</text>
</a>
</g>
</g>
<!-- Node4&#45;&gt;Node5 -->
<g id="edge5" class="edge"><title>Node4&#45;&gt;Node5</title>
<path fill="none" stroke="midnightblue" d="M531.152,-43.2161C540.047,-41.9826 548.813,-40.7667 556.847,-39.6526"/>
<polygon fill="midnightblue" stroke="midnightblue" points="530.512,-39.7713 521.088,-44.6119 531.474,-46.7049 530.512,-39.7713"/>
</g>
<!-- Node5&#45;&gt;Node3 -->
<g id="edge7" class="edge"><title>Node5&#45;&gt;Node3</title>
<path fill="none" stroke="midnightblue" d="M546.745,-31.2035C505.471,-29.1085 444.035,-27.8867 391,-34.5 376.072,-36.3615 359.85,-40.2309 346.324,-43.995"/>
<polygon fill="midnightblue" stroke="midnightblue" points="546.611,-34.7013 556.786,-31.7507 546.992,-27.7116 546.611,-34.7013"/>
</g>
<!-- Node6 -->
<g id="node6" class="node"><title>Node6</title>
<g id="a_node6"><a xlink:href="../../d8/d56/class_t_f_m_i_n_i.html#a958f99958667030e94e27d6c46662e12" target="_top" xlink:title="Perform an ioctl operation on the device. ">
<polygon fill="white" stroke="black" points="669,-25 669,-44 743,-44 743,-25 669,-25"/>
<text text-anchor="middle" x="706" y="-32" font-family="Helvetica,sans-Serif" font-size="10.00">TFMINI::ioctl</text>
</a>
</g>
</g>
<!-- Node5&#45;&gt;Node6 -->
<g id="edge6" class="edge"><title>Node5&#45;&gt;Node6</title>
<path fill="none" stroke="midnightblue" d="M643.384,-34.5C651.868,-34.5 660.587,-34.5 668.699,-34.5"/>
<polygon fill="midnightblue" stroke="midnightblue" points="643.207,-31.0001 633.207,-34.5 643.207,-38.0001 643.207,-31.0001"/>
</g>
<!-- Node7&#45;&gt;Node2 -->
<g id="edge9" class="edge"><title>Node7&#45;&gt;Node2</title>
<path fill="none" stroke="midnightblue" d="M267.03,-22.1362C257.832,-22.3239 248.243,-22.2794 239.23,-22.0027"/>
<polygon fill="midnightblue" stroke="midnightblue" points="267.309,-25.6294 277.197,-21.8257 267.095,-18.6327 267.309,-25.6294"/>
</g>
</g>
</svg>
        <g id="navigator" transform="translate(0 0)" fill="#404254">
                <rect fill="#f2f5e9" fill-opacity="0.5" stroke="#606060" stroke-width=".5" x="0" y="0" width="60" height="60"/>
                <use id="zoomplus" xlink:href="#zoomPlus" x="17" y="9" onmousedown="handleZoom(evt,'in')"/>
                <use id="zoomminus" xlink:href="#zoomMin" x="42" y="9" onmousedown="handleZoom(evt,'out')"/>
                <use id="reset" xlink:href="#resetDef" x="30" y="36" onmousedown="handleReset()"/>
                <g id="arrowUp" xlink:href="#dirArrow" transform="translate(30 24)" onmousedown="handlePan(0,-1)">
                  <use xlink:href="#rim" fill="#404040">
                        <set attributeName="fill" to="#808080" begin="arrowUp.mouseover" end="arrowUp.mouseout"/>
                  </use>
                  <path fill="none" stroke="white" stroke-width="1.5" d="M0,-3.0v7 M-2.5,-0.5L0,-3.0L2.5,-0.5"/>
                </g>
                <g id="arrowRight" xlink:href="#dirArrow" transform="rotate(90) translate(36 -43)" onmousedown="handlePan(1,0)">
                  <use xlink:href="#rim" fill="#404040">
                        <set attributeName="fill" to="#808080" begin="arrowRight.mouseover" end="arrowRight.mouseout"/>
                  </use>
                  <path fill="none" stroke="white" stroke-width="1.5" d="M0,-3.0v7 M-2.5,-0.5L0,-3.0L2.5,-0.5"/>
                </g>
                <g id="arrowDown" xlink:href="#dirArrow" transform="rotate(180) translate(-30 -48)" onmousedown="handlePan(0,1)">
                  <use xlink:href="#rim" fill="#404040">
                        <set attributeName="fill" to="#808080" begin="arrowDown.mouseover" end="arrowDown.mouseout"/>
                  </use>
                  <path fill="none" stroke="white" stroke-width="1.5" d="M0,-3.0v7 M-2.5,-0.5L0,-3.0L2.5,-0.5"/>
                </g>
                <g id="arrowLeft" xlink:href="#dirArrow" transform="rotate(270) translate(-36 17)" onmousedown="handlePan(-1,0)">
                  <use xlink:href="#rim" fill="#404040">
                        <set attributeName="fill" to="#808080" begin="arrowLeft.mouseover" end="arrowLeft.mouseout"/>
                  </use>
                  <path fill="none" stroke="white" stroke-width="1.5" d="M0,-3.0v7 M-2.5,-0.5L0,-3.0L2.5,-0.5"/>
                </g>
        </g>
        <svg viewBox="0 0 15 15" width="100%" height="30px" preserveAspectRatio="xMaxYMin meet">
         <g id="arrow_out" transform="scale(0.3 0.3)">
          <a xlink:href="class_t_f_m_i_n_i_a9a50551404e0745a24f1e3c2b0d088d1_icgraph_org.svg" target="_base">
           <rect id="button" ry="5" rx="5" y="6" x="6" height="38" width="38"
                fill="#f2f5e9" fill-opacity="0.5" stroke="#606060" stroke-width="1.0"/>
           <path id="arrow"
             d="M 11.500037,31.436501 C 11.940474,20.09759 22.043105,11.32322 32.158766,21.979434 L 37.068811,17.246167 C 37.068811,17.246167 37.088388,32 37.088388,32 L 22.160133,31.978069 C 22.160133,31.978069 26.997745,27.140456 26.997745,27.140456 C 18.528582,18.264221 13.291696,25.230495 11.500037,31.436501 z"
             style="fill:#404040;"/>
          </a>
         </g>
        </svg>
</svg>
