<?xml version="1.0" encoding="UTF-8" standalone="no"?>
<!DOCTYPE svg PUBLIC "-//W3C//DTD SVG 1.1//EN"
 "http://www.w3.org/Graphics/SVG/1.1/DTD/svg11.dtd">
<!-- Generated by graphviz version 2.40.1 (20161225.0304)
 -->
<!-- Title: UavcanGnssBridge::gnss_fix_sub_cb Pages: 1 -->
<!--zoomable 408 -->
<svg id="main" version="1.1" xmlns="http://www.w3.org/2000/svg" xmlns:xlink="http://www.w3.org/1999/xlink" xml:space="preserve" onload="init(evt)">
<style type="text/css"><![CDATA[
.edge:hover path { stroke: red; }
.edge:hover polygon { stroke: red; fill: red; }
]]></style>
<script type="text/javascript"><![CDATA[
var edges = document.getElementsByTagName('g');
if (edges && edges.length) {
  for (var i=0;i<edges.length;i++) {
    if (edges[i].id.substr(0,4)=='edge') {
      edges[i].setAttribute('class','edge');
    }
  }
}
]]></script>
        <defs>
                <circle id="rim" cx="0" cy="0" r="7"/>
                <circle id="rim2" cx="0" cy="0" r="3.5"/>
                <g id="zoomPlus">
                        <use xlink:href="#rim" fill="#404040">
                                <set attributeName="fill" to="#808080" begin="zoomplus.mouseover" end="zoomplus.mouseout"/>
                        </use>
                        <path d="M-4,0h8M0,-4v8" fill="none" stroke="white" stroke-width="1.5" pointer-events="none"/>
                </g>
                <g id="zoomMin">
                        <use xlink:href="#rim" fill="#404040">
                                <set attributeName="fill" to="#808080" begin="zoomminus.mouseover" end="zoomminus.mouseout"/>
                        </use>
                        <path d="M-4,0h8" fill="none" stroke="white" stroke-width="1.5" pointer-events="none"/>
                </g>
                <g id="dirArrow">
                        <path fill="none" stroke="white" stroke-width="1.5" d="M0,-3.0v7 M-2.5,-0.5L0,-3.0L2.5,-0.5"/>
                </g>
               <g id="resetDef">
                       <use xlink:href="#rim2" fill="#404040">
                               <set attributeName="fill" to="#808080" begin="reset.mouseover" end="reset.mouseout"/>
                       </use>
               </g>
        </defs>

<script type="text/javascript">
var viewWidth = 651;
var viewHeight = 408;
var sectionId = 'dynsection-10';
</script>
<script xlink:href="../../svgpan.js"/>
<svg id="graph" class="graph">
<g id="viewport">
<title>UavcanGnssBridge::gnss_fix_sub_cb</title>
<polygon fill="#ffffff" stroke="transparent" points="-4,4 -4,-404 647,-404 647,4 -4,4"/>
<!-- Node100 -->
<g id="node1" class="node">
<title>Node100</title>
<polygon fill="#bfbfbf" stroke="#000000" points="0,-223 0,-253 128,-253 128,-223 0,-223"/>
<text text-anchor="start" x="8" y="-241" font-family="Helvetica,sans-Serif" font-size="10.00" fill="#000000">UavcanGnssBridge::gnss</text>
<text text-anchor="middle" x="64" y="-230" font-family="Helvetica,sans-Serif" font-size="10.00" fill="#000000">_fix_sub_cb</text>
</g>
<!-- Node101 -->
<g id="node2" class="node">
<title>Node101</title>
<g id="a_node2"><a xlink:href="../../d3/dff/class_uavcan_gnss_bridge.html#a4cd3575e4ddf03e6e69155aa6673d0c3" target="_top" xlink:title="UavcanGnssBridge::process_fixx">
<polygon fill="#ffffff" stroke="#000000" points="164,-228.5 164,-247.5 327,-247.5 327,-228.5 164,-228.5"/>
<text text-anchor="middle" x="245.5" y="-235.5" font-family="Helvetica,sans-Serif" font-size="10.00" fill="#000000">UavcanGnssBridge::process_fixx</text>
</a>
</g>
</g>
<!-- Node100&#45;&gt;Node101 -->
<g id="edge1" class="edge">
<title>Node100&#45;&gt;Node101</title>
<path fill="none" stroke="#191970" d="M128.2455,-238C136.5279,-238 145.1332,-238 153.7505,-238"/>
<polygon fill="#191970" stroke="#191970" points="153.8533,-241.5001 163.8533,-238 153.8533,-234.5001 153.8533,-241.5001"/>
</g>
<!-- Node102 -->
<g id="node3" class="node">
<title>Node102</title>
<g id="a_node3"><a xlink:href="../../d6/d10/drv__hrt_8h.html#a1450e339b7c5b8d47656500167a6676d" target="_top" xlink:title="Get absolute time in [us] (does not wrap). ">
<polygon fill="#ffffff" stroke="#000000" points="533.5,-380.5 533.5,-399.5 627.5,-399.5 627.5,-380.5 533.5,-380.5"/>
<text text-anchor="middle" x="580.5" y="-387.5" font-family="Helvetica,sans-Serif" font-size="10.00" fill="#000000">hrt_absolute_time</text>
</a>
</g>
</g>
<!-- Node101&#45;&gt;Node102 -->
<g id="edge2" class="edge">
<title>Node101&#45;&gt;Node102</title>
<path fill="none" stroke="#191970" d="M262.6017,-247.5409C304.9144,-270.88 418.2997,-331.8023 518,-371 523.6121,-373.2064 529.5891,-375.3159 535.5375,-377.2736"/>
<polygon fill="#191970" stroke="#191970" points="534.8613,-380.7308 545.4514,-380.4153 536.9759,-374.0579 534.8613,-380.7308"/>
</g>
<!-- Node103 -->
<g id="node4" class="node">
<title>Node103</title>
<g id="a_node4"><a xlink:href="../../dd/d47/namespacemath.html#ad42187b143e9e0e96bb14c7edcfbfef6" target="_top" xlink:title="math::max">
<polygon fill="#ffffff" stroke="#000000" points="391,-247.5 391,-266.5 454,-266.5 454,-247.5 391,-247.5"/>
<text text-anchor="middle" x="422.5" y="-254.5" font-family="Helvetica,sans-Serif" font-size="10.00" fill="#000000">math::max</text>
</a>
</g>
</g>
<!-- Node101&#45;&gt;Node103 -->
<g id="edge3" class="edge">
<title>Node101&#45;&gt;Node103</title>
<path fill="none" stroke="#191970" d="M327.006,-246.7492C345.6128,-248.7466 364.6345,-250.7885 380.7536,-252.5187"/>
<polygon fill="#191970" stroke="#191970" points="380.577,-256.0198 390.8934,-253.6072 381.3241,-249.0598 380.577,-256.0198"/>
</g>
<!-- Node104 -->
<g id="node5" class="node">
<title>Node104</title>
<g id="a_node5"><a xlink:href="../../d6/d10/drv__hrt_8h.html#af3323411019f0236c77bf283463cb50b" target="_top" xlink:title="Compute the delta between a timestamp taken in the past and now. ">
<polygon fill="#ffffff" stroke="#000000" points="377,-209.5 377,-228.5 468,-228.5 468,-209.5 377,-209.5"/>
<text text-anchor="middle" x="422.5" y="-216.5" font-family="Helvetica,sans-Serif" font-size="10.00" fill="#000000">hrt_elapsed_time</text>
</a>
</g>
</g>
<!-- Node101&#45;&gt;Node104 -->
<g id="edge4" class="edge">
<title>Node101&#45;&gt;Node104</title>
<path fill="none" stroke="#191970" d="M327.006,-229.2508C340.332,-227.8203 353.8709,-226.367 366.4038,-225.0216"/>
<polygon fill="#191970" stroke="#191970" points="367.0988,-228.4672 376.6681,-223.9198 366.3516,-221.5072 367.0988,-228.4672"/>
</g>
<!-- Node115 -->
<g id="node16" class="node">
<title>Node115</title>
<g id="a_node16"><a xlink:href="../../d5/d79/classu_o_r_b_1_1_publication_multi.html#a4af79dc500945d9d71efd25d301ddc92" target="_top" xlink:title="Publish the struct. ">
<polygon fill="#ffffff" stroke="#000000" points="363,-160 363,-190 482,-190 482,-160 363,-160"/>
<text text-anchor="start" x="371" y="-178" font-family="Helvetica,sans-Serif" font-size="10.00" fill="#000000">uORB::PublicationMulti</text>
<text text-anchor="middle" x="422.5" y="-167" font-family="Helvetica,sans-Serif" font-size="10.00" fill="#000000">::publish</text>
</a>
</g>
</g>
<!-- Node101&#45;&gt;Node115 -->
<g id="edge16" class="edge">
<title>Node101&#45;&gt;Node115</title>
<path fill="none" stroke="#191970" d="M272.3825,-228.4317C298.3248,-219.198 338.2904,-204.9729 370.4639,-193.5213"/>
<polygon fill="#191970" stroke="#191970" points="371.927,-196.7157 380.1744,-190.065 369.5797,-190.121 371.927,-196.7157"/>
</g>
<!-- Node104&#45;&gt;Node102 -->
<g id="edge5" class="edge">
<title>Node104&#45;&gt;Node102</title>
<path fill="none" stroke="#191970" d="M468.2086,-228.2029C473.3342,-230.7209 478.103,-233.9246 482,-238 524.3223,-282.26 475.3695,-327.0368 518,-371 520.0354,-373.099 522.2947,-374.968 524.7122,-376.632"/>
<polygon fill="#191970" stroke="#191970" points="523.0125,-379.6915 533.4455,-381.5358 526.4397,-373.5879 523.0125,-379.6915"/>
</g>
<!-- Node105 -->
<g id="node6" class="node">
<title>Node105</title>
<g id="a_node6"><a xlink:href="../../d6/d10/drv__hrt_8h.html#a185fdd7c4d51c3f7ef22133ef56f9a55" target="_top" xlink:title="Call callout(arg) after delay has elapsed. ">
<polygon fill="#ffffff" stroke="#000000" points="544,-342.5 544,-361.5 617,-361.5 617,-342.5 544,-342.5"/>
<text text-anchor="middle" x="580.5" y="-349.5" font-family="Helvetica,sans-Serif" font-size="10.00" fill="#000000">hrt_call_after</text>
</a>
</g>
</g>
<!-- Node104&#45;&gt;Node105 -->
<g id="edge6" class="edge">
<title>Node104&#45;&gt;Node105</title>
<path fill="none" stroke="#191970" d="M467.8376,-228.5754C473.0239,-231.0325 477.9083,-234.1201 482,-238 514.7642,-269.068 485.0195,-302.1616 518,-333 522.6752,-337.3715 528.3266,-340.739 534.2966,-343.3327"/>
<polygon fill="#191970" stroke="#191970" points="533.2518,-346.6769 543.8458,-346.8046 535.6437,-340.0982 533.2518,-346.6769"/>
</g>
<!-- Node106 -->
<g id="node7" class="node">
<title>Node106</title>
<g id="a_node7"><a xlink:href="../../d6/d10/drv__hrt_8h.html#a7d49af6c126c7e49c903e2e47e70d716" target="_top" xlink:title="Call callout(arg) at absolute time calltime. ">
<polygon fill="#ffffff" stroke="#000000" points="549.5,-304.5 549.5,-323.5 611.5,-323.5 611.5,-304.5 549.5,-304.5"/>
<text text-anchor="middle" x="580.5" y="-311.5" font-family="Helvetica,sans-Serif" font-size="10.00" fill="#000000">hrt_call_at</text>
</a>
</g>
</g>
<!-- Node104&#45;&gt;Node106 -->
<g id="edge7" class="edge">
<title>Node104&#45;&gt;Node106</title>
<path fill="none" stroke="#191970" d="M465.2929,-228.6111C471.2499,-231.073 477.0248,-234.1524 482,-238 505.7019,-256.3302 494.1706,-276.8358 518,-295 524.3418,-299.8341 531.9148,-303.4461 539.5642,-306.1425"/>
<polygon fill="#191970" stroke="#191970" points="538.621,-309.5141 549.2074,-309.0916 540.6682,-302.8201 538.621,-309.5141"/>
</g>
<!-- Node107 -->
<g id="node8" class="node">
<title>Node107</title>
<g id="a_node8"><a xlink:href="../../d6/d10/drv__hrt_8h.html#a2c90bdef11ab9384cde0fa4c080ec697" target="_top" xlink:title="hrt_call_delay">
<polygon fill="#ffffff" stroke="#000000" points="542,-266.5 542,-285.5 619,-285.5 619,-266.5 542,-266.5"/>
<text text-anchor="middle" x="580.5" y="-273.5" font-family="Helvetica,sans-Serif" font-size="10.00" fill="#000000">hrt_call_delay</text>
</a>
</g>
</g>
<!-- Node104&#45;&gt;Node107 -->
<g id="edge8" class="edge">
<title>Node104&#45;&gt;Node107</title>
<path fill="none" stroke="#191970" d="M455.9221,-228.5316C464.5288,-231.2953 473.7009,-234.517 482,-238 498.6821,-245.0012 501.2694,-250.1155 518,-257 523.4422,-259.2394 529.246,-261.3516 535.0413,-263.2962"/>
<polygon fill="#191970" stroke="#191970" points="534.1297,-266.6794 544.7209,-266.4033 536.2692,-260.0143 534.1297,-266.6794"/>
</g>
<!-- Node108 -->
<g id="node9" class="node">
<title>Node108</title>
<g id="a_node9"><a xlink:href="../../d6/d10/drv__hrt_8h.html#afef961eed389b142649f3d904df16cd2" target="_top" xlink:title="Call callout(arg) after delay, and then after every interval. ">
<polygon fill="#ffffff" stroke="#000000" points="542,-228.5 542,-247.5 619,-247.5 619,-228.5 542,-228.5"/>
<text text-anchor="middle" x="580.5" y="-235.5" font-family="Helvetica,sans-Serif" font-size="10.00" fill="#000000">hrt_call_every</text>
</a>
</g>
</g>
<!-- Node104&#45;&gt;Node108 -->
<g id="edge9" class="edge">
<title>Node104&#45;&gt;Node108</title>
<path fill="none" stroke="#191970" d="M468.2001,-224.4956C488.1597,-226.8958 511.5905,-229.7134 531.8712,-232.1522"/>
<polygon fill="#191970" stroke="#191970" points="531.5025,-235.633 541.8489,-233.3521 532.3383,-228.6831 531.5025,-235.633"/>
</g>
<!-- Node109 -->
<g id="node10" class="node">
<title>Node109</title>
<g id="a_node10"><a xlink:href="../../d6/d10/drv__hrt_8h.html#a0d90b23c796be1ed96cc58db0a38046d" target="_top" xlink:title="Initialise a hrt_call structure. ">
<polygon fill="#ffffff" stroke="#000000" points="547.5,-190.5 547.5,-209.5 613.5,-209.5 613.5,-190.5 547.5,-190.5"/>
<text text-anchor="middle" x="580.5" y="-197.5" font-family="Helvetica,sans-Serif" font-size="10.00" fill="#000000">hrt_call_init</text>
</a>
</g>
</g>
<!-- Node104&#45;&gt;Node109 -->
<g id="edge10" class="edge">
<title>Node104&#45;&gt;Node109</title>
<path fill="none" stroke="#191970" d="M468.2001,-213.5044C489.9739,-210.886 515.8787,-207.7709 537.3185,-205.1927"/>
<polygon fill="#191970" stroke="#191970" points="537.9366,-208.6437 547.4472,-203.9747 537.1008,-201.6938 537.9366,-208.6437"/>
</g>
<!-- Node110 -->
<g id="node11" class="node">
<title>Node110</title>
<g id="a_node11"><a xlink:href="../../d6/d10/drv__hrt_8h.html#a384e9e9c38310512247c86560adb0b6d" target="_top" xlink:title="If this returns true, the entry has been invoked and removed from the callout list, or it has never been entered. ">
<polygon fill="#ffffff" stroke="#000000" points="551,-152.5 551,-171.5 610,-171.5 610,-152.5 551,-152.5"/>
<text text-anchor="middle" x="580.5" y="-159.5" font-family="Helvetica,sans-Serif" font-size="10.00" fill="#000000">hrt_called</text>
</a>
</g>
</g>
<!-- Node104&#45;&gt;Node110 -->
<g id="edge11" class="edge">
<title>Node104&#45;&gt;Node110</title>
<path fill="none" stroke="#191970" d="M455.9221,-209.4684C464.5288,-206.7047 473.7009,-203.483 482,-200 498.6821,-192.9988 501.2694,-187.8845 518,-181 525.3742,-177.9656 533.4125,-175.1647 541.1937,-172.698"/>
<polygon fill="#191970" stroke="#191970" points="542.2964,-176.021 550.8432,-169.7598 540.2573,-169.3245 542.2964,-176.021"/>
</g>
<!-- Node111 -->
<g id="node12" class="node">
<title>Node111</title>
<g id="a_node12"><a xlink:href="../../d6/d10/drv__hrt_8h.html#aa4f22acddbadeed844ef6329629d2837" target="_top" xlink:title="Remove the entry from the callout list. ">
<polygon fill="#ffffff" stroke="#000000" points="549.5,-114.5 549.5,-133.5 611.5,-133.5 611.5,-114.5 549.5,-114.5"/>
<text text-anchor="middle" x="580.5" y="-121.5" font-family="Helvetica,sans-Serif" font-size="10.00" fill="#000000">hrt_cancel</text>
</a>
</g>
</g>
<!-- Node104&#45;&gt;Node111 -->
<g id="edge12" class="edge">
<title>Node104&#45;&gt;Node111</title>
<path fill="none" stroke="#191970" d="M465.2929,-209.3889C471.2499,-206.927 477.0248,-203.8476 482,-200 505.7019,-181.6698 494.1706,-161.1642 518,-143 524.3418,-138.1659 531.9148,-134.5539 539.5642,-131.8575"/>
<polygon fill="#191970" stroke="#191970" points="540.6682,-135.1799 549.2074,-128.9084 538.621,-128.4859 540.6682,-135.1799"/>
</g>
<!-- Node112 -->
<g id="node13" class="node">
<title>Node112</title>
<g id="a_node13"><a xlink:href="../../d6/d10/drv__hrt_8h.html#a721dee0a94d421de75e4836aed05c0b8" target="_top" xlink:title="Compute the delta between a timestamp taken in the past and now. ">
<polygon fill="#ffffff" stroke="#000000" points="518,-76.5 518,-95.5 643,-95.5 643,-76.5 518,-76.5"/>
<text text-anchor="middle" x="580.5" y="-83.5" font-family="Helvetica,sans-Serif" font-size="10.00" fill="#000000">hrt_elapsed_time_atomic</text>
</a>
</g>
</g>
<!-- Node104&#45;&gt;Node112 -->
<g id="edge13" class="edge">
<title>Node104&#45;&gt;Node112</title>
<path fill="none" stroke="#191970" d="M467.8376,-209.4246C473.0239,-206.9675 477.9083,-203.8799 482,-200 514.7642,-168.932 485.0195,-135.8384 518,-105 519.6826,-103.4266 521.4918,-101.9833 523.3967,-100.6594"/>
<polygon fill="#191970" stroke="#191970" points="525.3247,-103.5887 532.2672,-95.5854 521.849,-97.5125 525.3247,-103.5887"/>
</g>
<!-- Node113 -->
<g id="node14" class="node">
<title>Node113</title>
<g id="a_node14"><a xlink:href="../../d6/d10/drv__hrt_8h.html#a4d623c5e3d99e6855ac85e606bd87e1c" target="_top" xlink:title="hrt_init">
<polygon fill="#ffffff" stroke="#000000" points="557.5,-38.5 557.5,-57.5 603.5,-57.5 603.5,-38.5 557.5,-38.5"/>
<text text-anchor="middle" x="580.5" y="-45.5" font-family="Helvetica,sans-Serif" font-size="10.00" fill="#000000">hrt_init</text>
</a>
</g>
</g>
<!-- Node104&#45;&gt;Node113 -->
<g id="edge14" class="edge">
<title>Node104&#45;&gt;Node113</title>
<path fill="none" stroke="#191970" d="M468.2086,-209.7971C473.3342,-207.2791 478.103,-204.0754 482,-200 524.3223,-155.74 475.3695,-110.9632 518,-67 525.7777,-58.9791 536.8251,-54.3178 547.4737,-51.6181"/>
<polygon fill="#191970" stroke="#191970" points="548.3424,-55.0131 557.4413,-49.5853 546.9435,-48.1543 548.3424,-55.0131"/>
</g>
<!-- Node114 -->
<g id="node15" class="node">
<title>Node114</title>
<g id="a_node15"><a xlink:href="../../d6/d10/drv__hrt_8h.html#a37665926e3f760d970b8d2e5d63c94f8" target="_top" xlink:title="Store the absolute time in an interrupt&#45;safe fashion. ">
<polygon fill="#ffffff" stroke="#000000" points="520,-.5 520,-19.5 641,-19.5 641,-.5 520,-.5"/>
<text text-anchor="middle" x="580.5" y="-7.5" font-family="Helvetica,sans-Serif" font-size="10.00" fill="#000000">hrt_store_absolute_time</text>
</a>
</g>
</g>
<!-- Node104&#45;&gt;Node114 -->
<g id="edge15" class="edge">
<title>Node104&#45;&gt;Node114</title>
<path fill="none" stroke="#191970" d="M468.1382,-210.1514C473.3402,-207.5784 478.1477,-204.265 482,-200 534.0587,-142.3642 465.5399,-86.2708 518,-29 519.2113,-27.6776 520.5114,-26.4461 521.8847,-25.2993"/>
<polygon fill="#191970" stroke="#191970" points="524.0496,-28.0631 530.4423,-19.6142 520.1761,-22.2325 524.0496,-28.0631"/>
</g>
</g>
</svg>
        <g id="navigator" transform="translate(0 0)" fill="#404254">
                <rect fill="#f2f5e9" fill-opacity="0.5" stroke="#606060" stroke-width=".5" x="0" y="0" width="60" height="60"/>
                <use id="zoomplus" xlink:href="#zoomPlus" x="17" y="9" onmousedown="handleZoom(evt,'in')"/>
                <use id="zoomminus" xlink:href="#zoomMin" x="42" y="9" onmousedown="handleZoom(evt,'out')"/>
                <use id="reset" xlink:href="#resetDef" x="30" y="36" onmousedown="handleReset()"/>
                <g id="arrowUp" xlink:href="#dirArrow" transform="translate(30 24)" onmousedown="handlePan(0,-1)">
                  <use xlink:href="#rim" fill="#404040">
                        <set attributeName="fill" to="#808080" begin="arrowUp.mouseover" end="arrowUp.mouseout"/>
                  </use>
                  <path fill="none" stroke="white" stroke-width="1.5" d="M0,-3.0v7 M-2.5,-0.5L0,-3.0L2.5,-0.5"/>
                </g>
                <g id="arrowRight" xlink:href="#dirArrow" transform="rotate(90) translate(36 -43)" onmousedown="handlePan(1,0)">
                  <use xlink:href="#rim" fill="#404040">
                        <set attributeName="fill" to="#808080" begin="arrowRight.mouseover" end="arrowRight.mouseout"/>
                  </use>
                  <path fill="none" stroke="white" stroke-width="1.5" d="M0,-3.0v7 M-2.5,-0.5L0,-3.0L2.5,-0.5"/>
                </g>
                <g id="arrowDown" xlink:href="#dirArrow" transform="rotate(180) translate(-30 -48)" onmousedown="handlePan(0,1)">
                  <use xlink:href="#rim" fill="#404040">
                        <set attributeName="fill" to="#808080" begin="arrowDown.mouseover" end="arrowDown.mouseout"/>
                  </use>
                  <path fill="none" stroke="white" stroke-width="1.5" d="M0,-3.0v7 M-2.5,-0.5L0,-3.0L2.5,-0.5"/>
                </g>
                <g id="arrowLeft" xlink:href="#dirArrow" transform="rotate(270) translate(-36 17)" onmousedown="handlePan(-1,0)">
                  <use xlink:href="#rim" fill="#404040">
                        <set attributeName="fill" to="#808080" begin="arrowLeft.mouseover" end="arrowLeft.mouseout"/>
                  </use>
                  <path fill="none" stroke="white" stroke-width="1.5" d="M0,-3.0v7 M-2.5,-0.5L0,-3.0L2.5,-0.5"/>
                </g>
        </g>
        <svg viewBox="0 0 15 15" width="100%" height="30px" preserveAspectRatio="xMaxYMin meet">
         <g id="arrow_out" transform="scale(0.3 0.3)">
          <a xlink:href="class_uavcan_gnss_bridge_ae6b976cade652ec4e2810eaa60d74484_cgraph_org.svg" target="_base">
           <rect id="button" ry="5" rx="5" y="6" x="6" height="38" width="38"
                fill="#f2f5e9" fill-opacity="0.5" stroke="#606060" stroke-width="1.0"/>
           <path id="arrow"
             d="M 11.500037,31.436501 C 11.940474,20.09759 22.043105,11.32322 32.158766,21.979434 L 37.068811,17.246167 C 37.068811,17.246167 37.088388,32 37.088388,32 L 22.160133,31.978069 C 22.160133,31.978069 26.997745,27.140456 26.997745,27.140456 C 18.528582,18.264221 13.291696,25.230495 11.500037,31.436501 z"
             style="fill:#404040;"/>
          </a>
         </g>
        </svg>
</svg>
