<?xml version="1.0" encoding="UTF-8" standalone="no"?>
<!DOCTYPE svg PUBLIC "-//W3C//DTD SVG 1.1//EN"
 "http://www.w3.org/Graphics/SVG/1.1/DTD/svg11.dtd">
<!-- Generated by graphviz version 2.38.0 (20140413.2041)
 -->
<!-- Title: px4::logger::Logger::Logger Pages: 1 -->
<svg width="235pt" height="104pt"
 viewBox="0.00 0.00 235.00 104.00" xmlns="http://www.w3.org/2000/svg" xmlns:xlink="http://www.w3.org/1999/xlink">
<g id="graph0" class="graph" transform="scale(1 1) rotate(0) translate(4 100)">
<title>px4::logger::Logger::Logger</title>
<polygon fill="white" stroke="none" points="-4,4 -4,-100 231,-100 231,4 -4,4"/>
<!-- Node1 -->
<g id="node1" class="node"><title>Node1</title>
<polygon fill="#bfbfbf" stroke="black" points="0,-33 0,-63 100,-63 100,-33 0,-33"/>
<text text-anchor="start" x="8" y="-51" font-family="Helvetica,sans-Serif" font-size="10.00">px4::logger::Logger</text>
<text text-anchor="middle" x="50" y="-40" font-family="Helvetica,sans-Serif" font-size="10.00">::Logger</text>
</g>
<!-- Node2 -->
<g id="node2" class="node"><title>Node2</title>
<g id="a_node2"><a xlink:href="../../d8/d9f/u_o_r_b_topics_8h.html#a1457ee2166d29f0fd6148b5ec63cf32c" target="_top" xlink:title="orb_get_topics">
<polygon fill="white" stroke="black" points="141.5,-76.5 141.5,-95.5 221.5,-95.5 221.5,-76.5 141.5,-76.5"/>
<text text-anchor="middle" x="181.5" y="-83.5" font-family="Helvetica,sans-Serif" font-size="10.00">orb_get_topics</text>
</a>
</g>
</g>
<!-- Node1&#45;&gt;Node2 -->
<g id="edge1" class="edge"><title>Node1&#45;&gt;Node2</title>
<path fill="none" stroke="midnightblue" d="M100.328,-62.4746C112.725,-66.1123 125.923,-69.985 137.956,-73.516"/>
<polygon fill="midnightblue" stroke="midnightblue" points="137.166,-76.9318 147.747,-76.3891 139.137,-70.215 137.166,-76.9318"/>
</g>
<!-- Node3 -->
<g id="node3" class="node"><title>Node3</title>
<g id="a_node3"><a xlink:href="../../d8/d9f/u_o_r_b_topics_8h.html#a242e4babf1597f56989322220bd4e2f8" target="_top" xlink:title="orb_topics_count">
<polygon fill="white" stroke="black" points="136,-38.5 136,-57.5 227,-57.5 227,-38.5 136,-38.5"/>
<text text-anchor="middle" x="181.5" y="-45.5" font-family="Helvetica,sans-Serif" font-size="10.00">orb_topics_count</text>
</a>
</g>
</g>
<!-- Node1&#45;&gt;Node3 -->
<g id="edge2" class="edge"><title>Node1&#45;&gt;Node3</title>
<path fill="none" stroke="midnightblue" d="M100.328,-48C108.662,-48 117.357,-48 125.818,-48"/>
<polygon fill="midnightblue" stroke="midnightblue" points="125.982,-51.5001 135.982,-48 125.982,-44.5001 125.982,-51.5001"/>
</g>
<!-- Node4 -->
<g id="node4" class="node"><title>Node4</title>
<g id="a_node4"><a xlink:href="../../d9/da5/param_8c.html#ac0eb17a3cb026fd36cc681b5ef762531" target="_top" xlink:title="Look up a parameter by name. ">
<polygon fill="white" stroke="black" points="149,-0.5 149,-19.5 214,-19.5 214,-0.5 149,-0.5"/>
<text text-anchor="middle" x="181.5" y="-7.5" font-family="Helvetica,sans-Serif" font-size="10.00">param_find</text>
</a>
</g>
</g>
<!-- Node1&#45;&gt;Node4 -->
<g id="edge3" class="edge"><title>Node1&#45;&gt;Node4</title>
<path fill="none" stroke="midnightblue" d="M100.328,-33.5254C113.187,-29.752 126.908,-25.7258 139.297,-22.0903"/>
<polygon fill="midnightblue" stroke="midnightblue" points="140.296,-25.4449 148.906,-19.2708 138.325,-18.7281 140.296,-25.4449"/>
</g>
</g>
</svg>
