<?xml version="1.0" encoding="UTF-8" standalone="no"?>
<!DOCTYPE svg PUBLIC "-//W3C//DTD SVG 1.1//EN"
 "http://www.w3.org/Graphics/SVG/1.1/DTD/svg11.dtd">
<!-- Generated by graphviz version 2.40.1 (20161225.0304)
 -->
<!-- Title: px4::logger::Logger::add_vision_and_avoidance_topics Pages: 1 -->
<svg width="447pt" height="50pt"
 viewBox="0.00 0.00 447.00 50.00" xmlns="http://www.w3.org/2000/svg" xmlns:xlink="http://www.w3.org/1999/xlink">
<g id="graph0" class="graph" transform="scale(1 1) rotate(0) translate(4 46)">
<title>px4::logger::Logger::add_vision_and_avoidance_topics</title>
<polygon fill="#ffffff" stroke="transparent" points="-4,4 -4,-46 443,-46 443,4 -4,4"/>
<!-- Node121 -->
<g id="node1" class="node">
<title>Node121</title>
<polygon fill="#bfbfbf" stroke="#000000" points="0,-.5 0,-41.5 140,-41.5 140,-.5 0,-.5"/>
<text text-anchor="start" x="8" y="-29.5" font-family="Helvetica,sans-Serif" font-size="10.00" fill="#000000">px4::logger::Logger</text>
<text text-anchor="start" x="8" y="-18.5" font-family="Helvetica,sans-Serif" font-size="10.00" fill="#000000">::add_vision_and_avoidance</text>
<text text-anchor="middle" x="70" y="-7.5" font-family="Helvetica,sans-Serif" font-size="10.00" fill="#000000">_topics</text>
</g>
<!-- Node122 -->
<g id="node2" class="node">
<title>Node122</title>
<g id="a_node2"><a xlink:href="../../d1/d23/classpx4_1_1logger_1_1_logger.html#a7ad3b3f6dd8edececf4e8c3478a1d590" target="_top" xlink:title="Add topic subscriptions based on the _sdlog_profile_handle parameter. ">
<polygon fill="#ffffff" stroke="#000000" points="176,-.5 176,-41.5 284,-41.5 284,-.5 176,-.5"/>
<text text-anchor="start" x="184" y="-29.5" font-family="Helvetica,sans-Serif" font-size="10.00" fill="#000000">px4::logger::Logger</text>
<text text-anchor="start" x="184" y="-18.5" font-family="Helvetica,sans-Serif" font-size="10.00" fill="#000000">::initialize_configured</text>
<text text-anchor="middle" x="230" y="-7.5" font-family="Helvetica,sans-Serif" font-size="10.00" fill="#000000">_topics</text>
</a>
</g>
</g>
<!-- Node121&#45;&gt;Node122 -->
<g id="edge1" class="edge">
<title>Node121&#45;&gt;Node122</title>
<path fill="none" stroke="#191970" d="M150.2844,-21C158.9121,-21 167.5354,-21 175.7528,-21"/>
<polygon fill="#191970" stroke="#191970" points="150.1784,-17.5001 140.1783,-21 150.1783,-24.5001 150.1784,-17.5001"/>
</g>
<!-- Node123 -->
<g id="node3" class="node">
<title>Node123</title>
<g id="a_node3"><a xlink:href="../../d1/d23/classpx4_1_1logger_1_1_logger.html#a68543e963a7f5706e96e53c14fdf8daa" target="_top" xlink:title="px4::logger::Logger::run">
<polygon fill="#ffffff" stroke="#000000" points="320,-11.5 320,-30.5 439,-30.5 439,-11.5 320,-11.5"/>
<text text-anchor="middle" x="379.5" y="-18.5" font-family="Helvetica,sans-Serif" font-size="10.00" fill="#000000">px4::logger::Logger::run</text>
</a>
</g>
</g>
<!-- Node122&#45;&gt;Node123 -->
<g id="edge2" class="edge">
<title>Node122&#45;&gt;Node123</title>
<path fill="none" stroke="#191970" d="M294.5327,-21C302.9386,-21 311.5201,-21 319.8413,-21"/>
<polygon fill="#191970" stroke="#191970" points="294.3959,-17.5001 284.3958,-21 294.3958,-24.5001 294.3959,-17.5001"/>
</g>
</g>
</svg>
