<?xml version="1.0" encoding="UTF-8" standalone="no"?>
<!DOCTYPE svg PUBLIC "-//W3C//DTD SVG 1.1//EN"
 "http://www.w3.org/Graphics/SVG/1.1/DTD/svg11.dtd">
<!-- Generated by graphviz version 2.38.0 (20140413.2041)
 -->
<!-- Title: PX4FMU::set_pwm_alt_channels Pages: 1 -->
<svg width="626pt" height="115pt"
 viewBox="0.00 0.00 626.00 114.50" xmlns="http://www.w3.org/2000/svg" xmlns:xlink="http://www.w3.org/1999/xlink">
<g id="graph0" class="graph" transform="scale(1 1) rotate(0) translate(4 110.5)">
<title>PX4FMU::set_pwm_alt_channels</title>
<polygon fill="white" stroke="none" points="-4,4 -4,-110.5 622,-110.5 622,4 -4,4"/>
<!-- Node1 -->
<g id="node1" class="node"><title>Node1</title>
<polygon fill="#bfbfbf" stroke="black" points="0,-24.5 0,-54.5 119,-54.5 119,-24.5 0,-24.5"/>
<text text-anchor="start" x="8" y="-42.5" font-family="Helvetica,sans-Serif" font-size="10.00">PX4FMU::set_pwm_alt</text>
<text text-anchor="middle" x="59.5" y="-31.5" font-family="Helvetica,sans-Serif" font-size="10.00">_channels</text>
</g>
<!-- Node2 -->
<g id="node2" class="node"><title>Node2</title>
<g id="a_node2"><a xlink:href="../../df/d64/class_p_x4_f_m_u.html#ad7cf9fdfc88afa49cfc167e13b214420" target="_top" xlink:title="PX4FMU::set_pwm_rate">
<polygon fill="white" stroke="black" points="155,-30 155,-49 280,-49 280,-30 155,-30"/>
<text text-anchor="middle" x="217.5" y="-37" font-family="Helvetica,sans-Serif" font-size="10.00">PX4FMU::set_pwm_rate</text>
</a>
</g>
</g>
<!-- Node1&#45;&gt;Node2 -->
<g id="edge1" class="edge"><title>Node1&#45;&gt;Node2</title>
<path fill="none" stroke="midnightblue" d="M119.032,-39.5C127.421,-39.5 136.131,-39.5 144.739,-39.5"/>
<polygon fill="midnightblue" stroke="midnightblue" points="144.772,-43.0001 154.772,-39.5 144.772,-36.0001 144.772,-43.0001"/>
</g>
<!-- Node3 -->
<g id="node3" class="node"><title>Node3</title>
<g id="a_node3"><a xlink:href="../../d0/dbb/drv__pwm__output_8h.html#a3e7cac2ed4064fa4e922de9df79b495a" target="_top" xlink:title="Get a bitmap of output channels assigned to a given rate group. ">
<polygon fill="white" stroke="black" points="316,-49.5 316,-79.5 439,-79.5 439,-49.5 316,-49.5"/>
<text text-anchor="start" x="324" y="-67.5" font-family="Helvetica,sans-Serif" font-size="10.00">up_pwm_servo_get_rate</text>
<text text-anchor="middle" x="377.5" y="-56.5" font-family="Helvetica,sans-Serif" font-size="10.00">_group</text>
</a>
</g>
</g>
<!-- Node2&#45;&gt;Node3 -->
<g id="edge2" class="edge"><title>Node2&#45;&gt;Node3</title>
<path fill="none" stroke="midnightblue" d="M278.684,-49.0227C287.554,-50.4263 296.761,-51.8831 305.821,-53.3165"/>
<polygon fill="midnightblue" stroke="midnightblue" points="305.536,-56.815 315.96,-54.9209 306.63,-49.901 305.536,-56.815"/>
</g>
<!-- Node6 -->
<g id="node6" class="node"><title>Node6</title>
<g id="a_node6"><a xlink:href="../../d0/dbb/drv__pwm__output_8h.html#aace3976c339490fde77b5691afb34fcc" target="_top" xlink:title="Set the update rate for a given rate group. ">
<polygon fill="white" stroke="black" points="316,-0.5 316,-30.5 439,-30.5 439,-0.5 316,-0.5"/>
<text text-anchor="start" x="324" y="-18.5" font-family="Helvetica,sans-Serif" font-size="10.00">up_pwm_servo_set_rate</text>
<text text-anchor="middle" x="377.5" y="-7.5" font-family="Helvetica,sans-Serif" font-size="10.00">_group_update</text>
</a>
</g>
</g>
<!-- Node2&#45;&gt;Node6 -->
<g id="edge5" class="edge"><title>Node2&#45;&gt;Node6</title>
<path fill="none" stroke="midnightblue" d="M280.039,-30.1523C288.509,-28.8657 297.261,-27.5363 305.878,-26.2274"/>
<polygon fill="midnightblue" stroke="midnightblue" points="306.546,-29.6661 315.907,-24.704 305.495,-22.7455 306.546,-29.6661"/>
</g>
<!-- Node4 -->
<g id="node4" class="node"><title>Node4</title>
<g id="a_node4"><a xlink:href="../../df/d04/kinetis_2drv__io__timer_8c.html#aad3a035250ee099bc93058614b0c0991" target="_top" xlink:title="io_timer_get_group">
<polygon fill="white" stroke="black" points="497,-87 497,-106 596,-106 596,-87 497,-87"/>
<text text-anchor="middle" x="546.5" y="-94" font-family="Helvetica,sans-Serif" font-size="10.00">io_timer_get_group</text>
</a>
</g>
</g>
<!-- Node3&#45;&gt;Node4 -->
<g id="edge3" class="edge"><title>Node3&#45;&gt;Node4</title>
<path fill="none" stroke="midnightblue" d="M439.263,-76.1433C454.793,-79.1191 471.459,-82.3126 486.879,-85.2673"/>
<polygon fill="midnightblue" stroke="midnightblue" points="486.328,-88.7253 496.808,-87.1699 487.646,-81.8504 486.328,-88.7253"/>
</g>
<!-- Node5 -->
<g id="node5" class="node"><title>Node5</title>
<g id="a_node5"><a xlink:href="../../df/d04/kinetis_2drv__io__timer_8c.html#aa05b59458783481df45d51f51d8eb30f" target="_top" xlink:title="io_timer_get_mode_channels">
<polygon fill="white" stroke="black" points="475,-49 475,-68 618,-68 618,-49 475,-49"/>
<text text-anchor="middle" x="546.5" y="-56" font-family="Helvetica,sans-Serif" font-size="10.00">io_timer_get_mode_channels</text>
</a>
</g>
</g>
<!-- Node3&#45;&gt;Node5 -->
<g id="edge4" class="edge"><title>Node3&#45;&gt;Node5</title>
<path fill="none" stroke="midnightblue" d="M439.263,-62.3169C447.575,-62.0183 456.212,-61.7079 464.81,-61.3991"/>
<polygon fill="midnightblue" stroke="midnightblue" points="464.994,-64.8948 474.862,-61.0379 464.743,-57.8993 464.994,-64.8948"/>
</g>
<!-- Node7 -->
<g id="node7" class="node"><title>Node7</title>
<g id="a_node7"><a xlink:href="../../df/d04/kinetis_2drv__io__timer_8c.html#ac0ff22c1218384d5e8d2a1edd783e8eb" target="_top" xlink:title="io_timer_set_rate">
<polygon fill="white" stroke="black" points="500.5,-6 500.5,-25 592.5,-25 592.5,-6 500.5,-6"/>
<text text-anchor="middle" x="546.5" y="-13" font-family="Helvetica,sans-Serif" font-size="10.00">io_timer_set_rate</text>
</a>
</g>
</g>
<!-- Node6&#45;&gt;Node7 -->
<g id="edge6" class="edge"><title>Node6&#45;&gt;Node7</title>
<path fill="none" stroke="midnightblue" d="M439.263,-15.5C455.864,-15.5 473.763,-15.5 490.051,-15.5"/>
<polygon fill="midnightblue" stroke="midnightblue" points="490.492,-19.0001 500.492,-15.5 490.492,-12.0001 490.492,-19.0001"/>
</g>
</g>
</svg>
