<?xml version="1.0" encoding="UTF-8" standalone="no"?>
<!DOCTYPE svg PUBLIC "-//W3C//DTD SVG 1.1//EN"
 "http://www.w3.org/Graphics/SVG/1.1/DTD/svg11.dtd">
<!-- Generated by graphviz version 2.38.0 (20140413.2041)
 -->
<!-- Title: PX4FMU::set_pwm_alt_channels Pages: 1 -->
<svg width="616pt" height="39pt"
 viewBox="0.00 0.00 616.00 39.00" xmlns="http://www.w3.org/2000/svg" xmlns:xlink="http://www.w3.org/1999/xlink">
<g id="graph0" class="graph" transform="scale(1 1) rotate(0) translate(4 35)">
<title>PX4FMU::set_pwm_alt_channels</title>
<polygon fill="white" stroke="none" points="-4,4 -4,-35 612,-35 612,4 -4,4"/>
<!-- Node1 -->
<g id="node1" class="node"><title>Node1</title>
<polygon fill="#bfbfbf" stroke="black" points="0,-0.5 0,-30.5 119,-30.5 119,-0.5 0,-0.5"/>
<text text-anchor="start" x="8" y="-18.5" font-family="Helvetica,sans-Serif" font-size="10.00">PX4FMU::set_pwm_alt</text>
<text text-anchor="middle" x="59.5" y="-7.5" font-family="Helvetica,sans-Serif" font-size="10.00">_channels</text>
</g>
<!-- Node2 -->
<g id="node2" class="node"><title>Node2</title>
<g id="a_node2"><a xlink:href="../../df/d64/class_p_x4_f_m_u.html#afaf6d3dbe9e8b90780abc3cdb53ffd83" target="_top" xlink:title="PX4FMU::get_mode">
<polygon fill="white" stroke="black" points="155,-6 155,-25 261,-25 261,-6 155,-6"/>
<text text-anchor="middle" x="208" y="-13" font-family="Helvetica,sans-Serif" font-size="10.00">PX4FMU::get_mode</text>
</a>
</g>
</g>
<!-- Node1&#45;&gt;Node2 -->
<g id="edge1" class="edge"><title>Node1&#45;&gt;Node2</title>
<path fill="none" stroke="midnightblue" d="M129.279,-15.5C137.884,-15.5 146.573,-15.5 154.866,-15.5"/>
<polygon fill="midnightblue" stroke="midnightblue" points="129.243,-12.0001 119.243,-15.5 129.243,-19.0001 129.243,-12.0001"/>
</g>
<!-- Node3 -->
<g id="node3" class="node"><title>Node3</title>
<g id="a_node3"><a xlink:href="../../df/d64/class_p_x4_f_m_u.html#ae9c7f7c1c52a03cf6a1229f4b0fc475b" target="_top" xlink:title="change the FMU mode of the running module ">
<polygon fill="white" stroke="black" points="297,-6 297,-25 429,-25 429,-6 297,-6"/>
<text text-anchor="middle" x="363" y="-13" font-family="Helvetica,sans-Serif" font-size="10.00">PX4FMU::fmu_new_mode</text>
</a>
</g>
</g>
<!-- Node2&#45;&gt;Node3 -->
<g id="edge2" class="edge"><title>Node2&#45;&gt;Node3</title>
<path fill="none" stroke="midnightblue" d="M271.309,-15.5C279.694,-15.5 288.316,-15.5 296.75,-15.5"/>
<polygon fill="midnightblue" stroke="midnightblue" points="271.226,-12.0001 261.226,-15.5 271.226,-19.0001 271.226,-12.0001"/>
</g>
<!-- Node4 -->
<g id="node4" class="node"><title>Node4</title>
<g id="a_node4"><a xlink:href="../../df/d64/class_p_x4_f_m_u.html#a2be5e5695b54ad07a8e905b64992a46d" target="_top" xlink:title="PX4FMU::custom_command">
<polygon fill="white" stroke="black" points="465,-6 465,-25 608,-25 608,-6 465,-6"/>
<text text-anchor="middle" x="536.5" y="-13" font-family="Helvetica,sans-Serif" font-size="10.00">PX4FMU::custom_command</text>
</a>
</g>
</g>
<!-- Node3&#45;&gt;Node4 -->
<g id="edge3" class="edge"><title>Node3&#45;&gt;Node4</title>
<path fill="none" stroke="midnightblue" d="M439.534,-15.5C447.976,-15.5 456.551,-15.5 464.927,-15.5"/>
<polygon fill="midnightblue" stroke="midnightblue" points="439.326,-12.0001 429.326,-15.5 439.326,-19.0001 439.326,-12.0001"/>
</g>
</g>
</svg>
