<?xml version="1.0" encoding="UTF-8" standalone="no"?>
<!DOCTYPE svg PUBLIC "-//W3C//DTD SVG 1.1//EN"
 "http://www.w3.org/Graphics/SVG/1.1/DTD/svg11.dtd">
<!-- Generated by graphviz version 2.38.0 (20140413.2041)
 -->
<!-- Title: load_mon::LoadMon::_ram_used Pages: 1 -->
<svg width="702pt" height="137pt"
 viewBox="0.00 0.00 702.00 137.00" xmlns="http://www.w3.org/2000/svg" xmlns:xlink="http://www.w3.org/1999/xlink">
<g id="graph0" class="graph" transform="scale(1 1) rotate(0) translate(4 133)">
<title>load_mon::LoadMon::_ram_used</title>
<polygon fill="white" stroke="none" points="-4,4 -4,-133 698,-133 698,4 -4,4"/>
<!-- Node1 -->
<g id="node1" class="node"><title>Node1</title>
<polygon fill="#bfbfbf" stroke="black" points="0,-0.5 0,-30.5 110,-30.5 110,-0.5 0,-0.5"/>
<text text-anchor="start" x="8" y="-18.5" font-family="Helvetica,sans-Serif" font-size="10.00">load_mon::LoadMon::</text>
<text text-anchor="middle" x="55" y="-7.5" font-family="Helvetica,sans-Serif" font-size="10.00">_ram_used</text>
</g>
<!-- Node2 -->
<g id="node2" class="node"><title>Node2</title>
<g id="a_node2"><a xlink:href="../../d1/dd7/classload__mon_1_1_load_mon.html#a7acbec65633d8231e25aec920cf24d47" target="_top" xlink:title="Do a calculation of the CPU load and publish it. ">
<polygon fill="white" stroke="black" points="146,-22.5 146,-52.5 256,-52.5 256,-22.5 146,-22.5"/>
<text text-anchor="start" x="154" y="-40.5" font-family="Helvetica,sans-Serif" font-size="10.00">load_mon::LoadMon::</text>
<text text-anchor="middle" x="201" y="-29.5" font-family="Helvetica,sans-Serif" font-size="10.00">_compute</text>
</a>
</g>
</g>
<!-- Node1&#45;&gt;Node2 -->
<g id="edge1" class="edge"><title>Node1&#45;&gt;Node2</title>
<path fill="none" stroke="midnightblue" d="M119.991,-25.2763C128.561,-26.5857 137.284,-27.9184 145.667,-29.1992"/>
<polygon fill="midnightblue" stroke="midnightblue" points="120.444,-21.8051 110.03,-23.7546 119.387,-28.7248 120.444,-21.8051"/>
</g>
<!-- Node4 -->
<g id="node4" class="node"><title>Node4</title>
<g id="a_node4"><a xlink:href="../../d1/dd7/classload__mon_1_1_load_mon.html#ad8d5ef81735c02607b233bc3b3f95ba6" target="_top" xlink:title="load_mon::LoadMon::\lcustom_command">
<polygon fill="white" stroke="black" points="584,-32.5 584,-62.5 694,-62.5 694,-32.5 584,-32.5"/>
<text text-anchor="start" x="592" y="-50.5" font-family="Helvetica,sans-Serif" font-size="10.00">load_mon::LoadMon::</text>
<text text-anchor="middle" x="639" y="-39.5" font-family="Helvetica,sans-Serif" font-size="10.00">custom_command</text>
</a>
</g>
</g>
<!-- Node1&#45;&gt;Node4 -->
<g id="edge9" class="edge"><title>Node1&#45;&gt;Node4</title>
<path fill="none" stroke="midnightblue" d="M120.305,-13.0955C128.942,-12.849 137.686,-12.6385 146,-12.5 194.882,-11.6855 207.162,-10.2673 256,-12.5 373.089,-17.8528 509.735,-32.3885 583.705,-40.9505"/>
<polygon fill="midnightblue" stroke="midnightblue" points="120.137,-9.59889 110.248,-13.3993 120.349,-16.5957 120.137,-9.59889"/>
</g>
<!-- Node3 -->
<g id="node3" class="node"><title>Node3</title>
<g id="a_node3"><a xlink:href="../../d1/dd7/classload__mon_1_1_load_mon.html#a9d15d9e986bf98f23a9f51957f643477" target="_top" xlink:title="Do a compute and schedule the next cycle. ">
<polygon fill="white" stroke="black" points="292,-79.5 292,-109.5 402,-109.5 402,-79.5 292,-79.5"/>
<text text-anchor="start" x="300" y="-97.5" font-family="Helvetica,sans-Serif" font-size="10.00">load_mon::LoadMon::</text>
<text text-anchor="middle" x="347" y="-86.5" font-family="Helvetica,sans-Serif" font-size="10.00">_cycle</text>
</a>
</g>
</g>
<!-- Node2&#45;&gt;Node3 -->
<g id="edge2" class="edge"><title>Node2&#45;&gt;Node3</title>
<path fill="none" stroke="midnightblue" d="M249.52,-56.3099C268.372,-63.7723 289.767,-72.2409 307.61,-79.304"/>
<polygon fill="midnightblue" stroke="midnightblue" points="250.798,-53.0515 240.211,-52.6253 248.221,-59.5602 250.798,-53.0515"/>
</g>
<!-- Node2&#45;&gt;Node4 -->
<g id="edge8" class="edge"><title>Node2&#45;&gt;Node4</title>
<path fill="none" stroke="midnightblue" d="M266.495,-38.9792C352.482,-40.9514 503.16,-44.4073 583.664,-46.2538"/>
<polygon fill="midnightblue" stroke="midnightblue" points="266.416,-35.4766 256.338,-38.7463 266.255,-42.4748 266.416,-35.4766"/>
</g>
<!-- Node3&#45;&gt;Node4 -->
<g id="edge3" class="edge"><title>Node3&#45;&gt;Node4</title>
<path fill="none" stroke="midnightblue" d="M412.211,-84.0935C463.62,-75.7616 534.93,-64.2044 583.568,-56.3218"/>
<polygon fill="midnightblue" stroke="midnightblue" points="411.518,-80.66 402.207,-85.7148 412.638,-87.5698 411.518,-80.66"/>
</g>
<!-- Node5 -->
<g id="node5" class="node"><title>Node5</title>
<g id="a_node5"><a xlink:href="../../d1/dd7/classload__mon_1_1_load_mon.html#a4f9d701d79fa9052b7e6cf27546515db" target="_top" xlink:title="Trampoline for the work queue. ">
<polygon fill="white" stroke="black" points="438,-98.5 438,-128.5 548,-128.5 548,-98.5 438,-98.5"/>
<text text-anchor="start" x="446" y="-116.5" font-family="Helvetica,sans-Serif" font-size="10.00">load_mon::LoadMon::</text>
<text text-anchor="middle" x="493" y="-105.5" font-family="Helvetica,sans-Serif" font-size="10.00">cycle_trampoline</text>
</a>
</g>
</g>
<!-- Node3&#45;&gt;Node5 -->
<g id="edge4" class="edge"><title>Node3&#45;&gt;Node5</title>
<path fill="none" stroke="midnightblue" d="M411.991,-96.2305C420.561,-97.2812 429.284,-98.4811 437.667,-99.765"/>
<polygon fill="midnightblue" stroke="midnightblue" points="412.368,-92.7508 402.03,-95.0694 411.557,-99.7038 412.368,-92.7508"/>
</g>
<!-- Node5&#45;&gt;Node3 -->
<g id="edge7" class="edge"><title>Node5&#45;&gt;Node3</title>
<path fill="none" stroke="midnightblue" d="M427.7,-111.731C419.126,-110.677 410.405,-109.474 402.03,-108.189"/>
<polygon fill="midnightblue" stroke="midnightblue" points="427.328,-115.212 437.667,-112.897 428.141,-108.259 427.328,-115.212"/>
</g>
<!-- Node5&#45;&gt;Node4 -->
<g id="edge5" class="edge"><title>Node5&#45;&gt;Node4</title>
<path fill="none" stroke="midnightblue" d="M536.155,-94.1788C558.15,-84.098 584.659,-71.9481 605.117,-62.5713"/>
<polygon fill="midnightblue" stroke="midnightblue" points="534.669,-91.0099 527.037,-98.3583 537.585,-97.3734 534.669,-91.0099"/>
</g>
<!-- Node6 -->
<g id="node6" class="node"><title>Node6</title>
<g id="a_node6"><a xlink:href="../../d1/dd7/classload__mon_1_1_load_mon.html#a3e1c6f7079fea23c4cbc29bfcda73ac4" target="_top" xlink:title="load_mon::LoadMon::\ltask_spawn">
<polygon fill="white" stroke="black" points="584,-98.5 584,-128.5 694,-128.5 694,-98.5 584,-98.5"/>
<text text-anchor="start" x="592" y="-116.5" font-family="Helvetica,sans-Serif" font-size="10.00">load_mon::LoadMon::</text>
<text text-anchor="middle" x="639" y="-105.5" font-family="Helvetica,sans-Serif" font-size="10.00">task_spawn</text>
</a>
</g>
</g>
<!-- Node5&#45;&gt;Node6 -->
<g id="edge6" class="edge"><title>Node5&#45;&gt;Node6</title>
<path fill="none" stroke="midnightblue" d="M558.27,-113.5C566.75,-113.5 575.375,-113.5 583.667,-113.5"/>
<polygon fill="midnightblue" stroke="midnightblue" points="558.03,-110 548.03,-113.5 558.03,-117 558.03,-110"/>
</g>
</g>
</svg>
