<?xml version="1.0" encoding="UTF-8" standalone="no"?>
<!DOCTYPE svg PUBLIC "-//W3C//DTD SVG 1.1//EN"
 "http://www.w3.org/Graphics/SVG/1.1/DTD/svg11.dtd">
<!-- Generated by graphviz version 2.38.0 (20140413.2041)
 -->
<!-- Title: FlightTaskOrbit::activate Pages: 1 -->
<svg width="924pt" height="218pt"
 viewBox="0.00 0.00 924.00 218.00" xmlns="http://www.w3.org/2000/svg" xmlns:xlink="http://www.w3.org/1999/xlink">
<g id="graph0" class="graph" transform="scale(1 1) rotate(0) translate(4 214)">
<title>FlightTaskOrbit::activate</title>
<polygon fill="white" stroke="none" points="-4,4 -4,-214 920,-214 920,4 -4,4"/>
<!-- Node1 -->
<g id="node1" class="node"><title>Node1</title>
<polygon fill="#bfbfbf" stroke="black" points="0,-38.5 0,-57.5 124,-57.5 124,-38.5 0,-38.5"/>
<text text-anchor="middle" x="62" y="-45.5" font-family="Helvetica,sans-Serif" font-size="10.00">FlightTaskOrbit::activate</text>
</g>
<!-- Node2 -->
<g id="node2" class="node"><title>Node2</title>
<g id="a_node2"><a xlink:href="../../d8/d4c/class_flight_task_manual_altitude.html#a0977797686e694f8dd0368de1c0dce10" target="_top" xlink:title="Call once on the event where you switch to the task. ">
<polygon fill="white" stroke="black" points="160,-33 160,-63 287,-63 287,-33 160,-33"/>
<text text-anchor="start" x="168" y="-51" font-family="Helvetica,sans-Serif" font-size="10.00">FlightTaskManualAltitude</text>
<text text-anchor="middle" x="223.5" y="-40" font-family="Helvetica,sans-Serif" font-size="10.00">::activate</text>
</a>
</g>
</g>
<!-- Node1&#45;&gt;Node2 -->
<g id="edge1" class="edge"><title>Node1&#45;&gt;Node2</title>
<path fill="none" stroke="midnightblue" d="M124.211,-48C132.517,-48 141.108,-48 149.595,-48"/>
<polygon fill="midnightblue" stroke="midnightblue" points="149.869,-51.5001 159.869,-48 149.869,-44.5001 149.869,-51.5001"/>
</g>
<!-- Node3 -->
<g id="node3" class="node"><title>Node3</title>
<g id="a_node3"><a xlink:href="../../da/dc5/class_flight_task_manual_stabilized.html#a77961640d53500c727879d2a098fc4ff" target="_top" xlink:title="Call once on the event where you switch to the task. ">
<polygon fill="white" stroke="black" points="323,-33 323,-63 460,-63 460,-33 323,-33"/>
<text text-anchor="start" x="331" y="-51" font-family="Helvetica,sans-Serif" font-size="10.00">FlightTaskManualStabilized</text>
<text text-anchor="middle" x="391.5" y="-40" font-family="Helvetica,sans-Serif" font-size="10.00">::activate</text>
</a>
</g>
</g>
<!-- Node2&#45;&gt;Node3 -->
<g id="edge2" class="edge"><title>Node2&#45;&gt;Node3</title>
<path fill="none" stroke="midnightblue" d="M287.257,-48C295.638,-48 304.312,-48 312.909,-48"/>
<polygon fill="midnightblue" stroke="midnightblue" points="312.942,-51.5001 322.942,-48 312.942,-44.5001 312.942,-51.5001"/>
</g>
<!-- Node4 -->
<g id="node4" class="node"><title>Node4</title>
<g id="a_node4"><a xlink:href="../../da/dbc/class_flight_task.html#ac12e077bda3e2e96ffd2a4027b6ba71d" target="_top" xlink:title="Call once on the event where you switch to the task. ">
<polygon fill="white" stroke="black" points="496,-114.5 496,-133.5 599,-133.5 599,-114.5 496,-114.5"/>
<text text-anchor="middle" x="547.5" y="-121.5" font-family="Helvetica,sans-Serif" font-size="10.00">FlightTask::activate</text>
</a>
</g>
</g>
<!-- Node3&#45;&gt;Node4 -->
<g id="edge3" class="edge"><title>Node3&#45;&gt;Node4</title>
<path fill="none" stroke="midnightblue" d="M422.925,-63.0152C450.406,-76.5769 490.564,-96.3951 517.571,-109.723"/>
<polygon fill="midnightblue" stroke="midnightblue" points="516.362,-113.03 526.879,-114.317 519.46,-106.753 516.362,-113.03"/>
</g>
<!-- Node7 -->
<g id="node7" class="node"><title>Node7</title>
<g id="a_node7"><a xlink:href="../../dd/d47/namespacemath.html#a83e4c85de5ee6f9c0f7b91fd81a8d4f9" target="_top" xlink:title="math::radians">
<polygon fill="white" stroke="black" points="840,-95.5 840,-114.5 916,-114.5 916,-95.5 840,-95.5"/>
<text text-anchor="middle" x="878" y="-102.5" font-family="Helvetica,sans-Serif" font-size="10.00">math::radians</text>
</a>
</g>
</g>
<!-- Node3&#45;&gt;Node7 -->
<g id="edge10" class="edge"><title>Node3&#45;&gt;Node7</title>
<path fill="none" stroke="midnightblue" d="M460.142,-42.3324C542.82,-37.3933 686.258,-35.2938 804,-67 821.935,-71.8297 840.48,-81.5534 854.39,-89.9553"/>
<polygon fill="midnightblue" stroke="midnightblue" points="852.882,-93.141 863.215,-95.4843 856.599,-87.2091 852.882,-93.141"/>
</g>
<!-- Node10 -->
<g id="node10" class="node"><title>Node10</title>
<g id="a_node10"><a xlink:href="../../d8/da1/integration_8cpp.html#af5ba872dd09316732300733cc164ac1a" target="_top" xlink:title="f">
<polygon fill="white" stroke="black" points="533,-0.5 533,-19.5 562,-19.5 562,-0.5 533,-0.5"/>
<text text-anchor="middle" x="547.5" y="-7.5" font-family="Helvetica,sans-Serif" font-size="10.00">f</text>
</a>
</g>
</g>
<!-- Node3&#45;&gt;Node10 -->
<g id="edge9" class="edge"><title>Node3&#45;&gt;Node10</title>
<path fill="none" stroke="midnightblue" d="M453.365,-32.9814C477.822,-26.9464 504.554,-20.3504 523.08,-15.779"/>
<polygon fill="midnightblue" stroke="midnightblue" points="524.09,-19.1349 532.96,-13.341 522.413,-12.3387 524.09,-19.1349"/>
</g>
<!-- Node5 -->
<g id="node5" class="node"><title>Node5</title>
<g id="a_node5"><a xlink:href="../../da/dbc/class_flight_task.html#a46347ff9c49771017f76291832e07f0d" target="_top" xlink:title="Reset all setpoints to NAN. ">
<polygon fill="white" stroke="black" points="651,-190.5 651,-209.5 788,-209.5 788,-190.5 651,-190.5"/>
<text text-anchor="middle" x="719.5" y="-197.5" font-family="Helvetica,sans-Serif" font-size="10.00">FlightTask::_resetSetpoints</text>
</a>
</g>
</g>
<!-- Node4&#45;&gt;Node5 -->
<g id="edge4" class="edge"><title>Node4&#45;&gt;Node5</title>
<path fill="none" stroke="midnightblue" d="M560.033,-133.582C575.918,-146.297 605.885,-168.581 635,-181 640.923,-183.527 647.232,-185.742 653.627,-187.679"/>
<polygon fill="midnightblue" stroke="midnightblue" points="653.13,-191.175 663.703,-190.5 655.017,-184.434 653.13,-191.175"/>
</g>
<!-- Node6 -->
<g id="node6" class="node"><title>Node6</title>
<g id="a_node6"><a xlink:href="../../da/dbc/class_flight_task.html#a1b7eb2b27c8c892ccf742241f0059760" target="_top" xlink:title="Set constraints to default values. ">
<polygon fill="white" stroke="black" points="635,-152.5 635,-171.5 804,-171.5 804,-152.5 635,-152.5"/>
<text text-anchor="middle" x="719.5" y="-159.5" font-family="Helvetica,sans-Serif" font-size="10.00">FlightTask::_setDefaultConstraints</text>
</a>
</g>
</g>
<!-- Node4&#45;&gt;Node6 -->
<g id="edge5" class="edge"><title>Node4&#45;&gt;Node6</title>
<path fill="none" stroke="midnightblue" d="M591.398,-133.589C614.034,-138.649 641.998,-144.9 665.929,-150.249"/>
<polygon fill="midnightblue" stroke="midnightblue" points="665.388,-153.714 675.91,-152.48 666.915,-146.883 665.388,-153.714"/>
</g>
<!-- Node8 -->
<g id="node8" class="node"><title>Node8</title>
<g id="a_node8"><a xlink:href="../../d0/d65/classu_o_r_b_1_1_subscription.html#aa01d2ff362359aa05b64e93c6df668e0" target="_top" xlink:title="uORB::Subscription::get">
<polygon fill="white" stroke="black" points="658,-114.5 658,-133.5 781,-133.5 781,-114.5 658,-114.5"/>
<text text-anchor="middle" x="719.5" y="-121.5" font-family="Helvetica,sans-Serif" font-size="10.00">uORB::Subscription::get</text>
</a>
</g>
</g>
<!-- Node4&#45;&gt;Node8 -->
<g id="edge7" class="edge"><title>Node4&#45;&gt;Node8</title>
<path fill="none" stroke="midnightblue" d="M599.045,-124C614.364,-124 631.48,-124 647.863,-124"/>
<polygon fill="midnightblue" stroke="midnightblue" points="647.946,-127.5 657.946,-124 647.946,-120.5 647.946,-127.5"/>
</g>
<!-- Node9 -->
<g id="node9" class="node"><title>Node9</title>
<g id="a_node9"><a xlink:href="../../d6/d10/drv__hrt_8h.html#a1450e339b7c5b8d47656500167a6676d" target="_top" xlink:title="Get absolute time in [us] (does not wrap). ">
<polygon fill="white" stroke="black" points="672.5,-76.5 672.5,-95.5 766.5,-95.5 766.5,-76.5 672.5,-76.5"/>
<text text-anchor="middle" x="719.5" y="-83.5" font-family="Helvetica,sans-Serif" font-size="10.00">hrt_absolute_time</text>
</a>
</g>
</g>
<!-- Node4&#45;&gt;Node9 -->
<g id="edge8" class="edge"><title>Node4&#45;&gt;Node9</title>
<path fill="none" stroke="midnightblue" d="M591.398,-114.411C614.034,-109.351 641.998,-103.1 665.929,-97.7512"/>
<polygon fill="midnightblue" stroke="midnightblue" points="666.915,-101.117 675.91,-95.5201 665.388,-94.2859 666.915,-101.117"/>
</g>
<!-- Node6&#45;&gt;Node7 -->
<g id="edge6" class="edge"><title>Node6&#45;&gt;Node7</title>
<path fill="none" stroke="midnightblue" d="M771.885,-152.488C782.644,-149.892 793.812,-146.74 804,-143 820.891,-136.799 838.83,-127.503 852.698,-119.657"/>
<polygon fill="midnightblue" stroke="midnightblue" points="854.684,-122.552 861.586,-114.513 851.177,-116.493 854.684,-122.552"/>
</g>
</g>
</svg>
