<?xml version="1.0" encoding="UTF-8" standalone="no"?>
<!DOCTYPE svg PUBLIC "-//W3C//DTD SVG 1.1//EN"
 "http://www.w3.org/Graphics/SVG/1.1/DTD/svg11.dtd">
<!-- Generated by graphviz version 2.38.0 (20140413.2041)
 -->
<!-- Title: ACCELSIM::start Pages: 1 -->
<svg width="634pt" height="256pt"
 viewBox="0.00 0.00 634.00 256.00" xmlns="http://www.w3.org/2000/svg" xmlns:xlink="http://www.w3.org/1999/xlink">
<g id="graph0" class="graph" transform="scale(1 1) rotate(0) translate(4 252)">
<title>ACCELSIM::start</title>
<polygon fill="white" stroke="none" points="-4,4 -4,-252 630,-252 630,4 -4,4"/>
<!-- Node1 -->
<g id="node1" class="node"><title>Node1</title>
<polygon fill="#bfbfbf" stroke="black" points="0,-76.5 0,-95.5 94,-95.5 94,-76.5 0,-76.5"/>
<text text-anchor="middle" x="47" y="-83.5" font-family="Helvetica,sans-Serif" font-size="10.00">ACCELSIM::start</text>
</g>
<!-- Node2 -->
<g id="node2" class="node"><title>Node2</title>
<g id="a_node2"><a xlink:href="../../d6/d47/dataman_8cpp.html#a1a2cdf68c15e00b9b2b48792edcdd43c" target="_top" xlink:title="start">
<polygon fill="white" stroke="black" points="158.5,-95.5 158.5,-114.5 194.5,-114.5 194.5,-95.5 158.5,-95.5"/>
<text text-anchor="middle" x="176.5" y="-102.5" font-family="Helvetica,sans-Serif" font-size="10.00">start</text>
</a>
</g>
</g>
<!-- Node1&#45;&gt;Node2 -->
<g id="edge1" class="edge"><title>Node1&#45;&gt;Node2</title>
<path fill="none" stroke="midnightblue" d="M94.0304,-92.8594C112.228,-95.5713 132.519,-98.595 148.298,-100.946"/>
<polygon fill="midnightblue" stroke="midnightblue" points="148.014,-104.443 158.421,-102.455 149.046,-97.5191 148.014,-104.443"/>
</g>
<!-- Node13 -->
<g id="node13" class="node"><title>Node13</title>
<g id="a_node13"><a xlink:href="../../de/d74/class_a_c_c_e_l_s_i_m.html#a071fad6c5a48c733c72c87a923a736ef" target="_top" xlink:title="Override Stop automatic measurement. ">
<polygon fill="white" stroke="black" points="130,-57.5 130,-76.5 223,-76.5 223,-57.5 130,-57.5"/>
<text text-anchor="middle" x="176.5" y="-64.5" font-family="Helvetica,sans-Serif" font-size="10.00">ACCELSIM::stop</text>
</a>
</g>
</g>
<!-- Node1&#45;&gt;Node13 -->
<g id="edge13" class="edge"><title>Node1&#45;&gt;Node13</title>
<path fill="none" stroke="midnightblue" d="M94.0304,-79.1406C102.438,-77.8876 111.293,-76.5681 119.943,-75.2791"/>
<polygon fill="midnightblue" stroke="midnightblue" points="120.59,-78.7214 129.965,-73.7857 119.558,-71.7979 120.59,-78.7214"/>
</g>
<!-- Node3 -->
<g id="node3" class="node"><title>Node3</title>
<g id="a_node3"><a xlink:href="../../da/d65/px4__tasks_8h.html#a9c9c04f140b8e63904e0e0c6597a5fc8" target="_top" xlink:title="Starts a task and performs any specific accounting, scheduler setup, etc. ">
<polygon fill="white" stroke="black" points="259,-133.5 259,-152.5 373,-152.5 373,-133.5 259,-133.5"/>
<text text-anchor="middle" x="316" y="-140.5" font-family="Helvetica,sans-Serif" font-size="10.00">px4_task_spawn_cmd</text>
</a>
</g>
</g>
<!-- Node2&#45;&gt;Node3 -->
<g id="edge2" class="edge"><title>Node2&#45;&gt;Node3</title>
<path fill="none" stroke="midnightblue" d="M194.636,-109.736C213.512,-114.952 244.62,-123.55 270.482,-130.697"/>
<polygon fill="midnightblue" stroke="midnightblue" points="269.892,-134.165 280.463,-133.455 271.757,-127.418 269.892,-134.165"/>
</g>
<!-- Node4 -->
<g id="node4" class="node"><title>Node4</title>
<g id="a_node4"><a xlink:href="../../d6/d47/dataman_8cpp.html#ab125feda9347bf0ad3821d9a4a57be87" target="_top" xlink:title="task_main">
<polygon fill="white" stroke="black" points="285,-95.5 285,-114.5 347,-114.5 347,-95.5 285,-95.5"/>
<text text-anchor="middle" x="316" y="-102.5" font-family="Helvetica,sans-Serif" font-size="10.00">task_main</text>
</a>
</g>
</g>
<!-- Node2&#45;&gt;Node4 -->
<g id="edge3" class="edge"><title>Node2&#45;&gt;Node4</title>
<path fill="none" stroke="midnightblue" d="M194.636,-105C214.529,-105 248.007,-105 274.614,-105"/>
<polygon fill="midnightblue" stroke="midnightblue" points="274.798,-108.5 284.798,-105 274.798,-101.5 274.798,-108.5"/>
</g>
<!-- Node5 -->
<g id="node5" class="node"><title>Node5</title>
<g id="a_node5"><a xlink:href="../../d6/d47/dataman_8cpp.html#a1ef147f3115799ec851dd6fd29a7f619" target="_top" xlink:title="dequeue_work_item">
<polygon fill="white" stroke="black" points="409,-190.5 409,-209.5 513,-209.5 513,-190.5 409,-190.5"/>
<text text-anchor="middle" x="461" y="-197.5" font-family="Helvetica,sans-Serif" font-size="10.00">dequeue_work_item</text>
</a>
</g>
</g>
<!-- Node4&#45;&gt;Node5 -->
<g id="edge4" class="edge"><title>Node4&#45;&gt;Node5</title>
<path fill="none" stroke="midnightblue" d="M347.217,-111.4C356.106,-114.259 365.459,-118.313 373,-124 395.442,-140.926 387.547,-157.837 409,-176 413.497,-179.808 418.701,-183.152 424.029,-186.04"/>
<polygon fill="midnightblue" stroke="midnightblue" points="422.496,-189.186 433.013,-190.472 425.593,-182.909 422.496,-189.186"/>
</g>
<!-- Node7 -->
<g id="node7" class="node"><title>Node7</title>
<g id="a_node7"><a xlink:href="../../d6/d59/sq__remfirst_8c.html#a728a42b33fc1c7894f0840dbe164302b" target="_top" xlink:title="sq_remfirst">
<polygon fill="white" stroke="black" points="555,-152.5 555,-171.5 620,-171.5 620,-152.5 555,-152.5"/>
<text text-anchor="middle" x="587.5" y="-159.5" font-family="Helvetica,sans-Serif" font-size="10.00">sq_remfirst</text>
</a>
</g>
</g>
<!-- Node4&#45;&gt;Node7 -->
<g id="edge12" class="edge"><title>Node4&#45;&gt;Node7</title>
<path fill="none" stroke="midnightblue" d="M347.266,-114.293C355.7,-117.144 364.795,-120.469 373,-124 389.618,-131.151 391.696,-137.72 409,-143 453.921,-156.706 507.858,-160.843 544.396,-161.937"/>
<polygon fill="midnightblue" stroke="midnightblue" points="544.602,-165.443 554.682,-162.178 544.767,-158.445 544.602,-165.443"/>
</g>
<!-- Node9 -->
<g id="node9" class="node"><title>Node9</title>
<g id="a_node9"><a xlink:href="../../d6/d47/dataman_8cpp.html#a1a94689dd210dec0f39d57daf21125a7" target="_top" xlink:title="destroy_q">
<polygon fill="white" stroke="black" points="431.5,-114.5 431.5,-133.5 490.5,-133.5 490.5,-114.5 431.5,-114.5"/>
<text text-anchor="middle" x="461" y="-121.5" font-family="Helvetica,sans-Serif" font-size="10.00">destroy_q</text>
</a>
</g>
</g>
<!-- Node4&#45;&gt;Node9 -->
<g id="edge8" class="edge"><title>Node4&#45;&gt;Node9</title>
<path fill="none" stroke="midnightblue" d="M347.327,-109.029C368.798,-111.882 397.783,-115.733 420.978,-118.815"/>
<polygon fill="midnightblue" stroke="midnightblue" points="420.806,-122.323 431.18,-120.171 421.728,-115.384 420.806,-122.323"/>
</g>
<!-- Node10 -->
<g id="node10" class="node"><title>Node10</title>
<g id="a_node10"><a xlink:href="../../d6/d47/dataman_8cpp.html#abefc3578000f8ce9445b3259ef483ab8" target="_top" xlink:title="init_q">
<polygon fill="white" stroke="black" points="441,-76.5 441,-95.5 481,-95.5 481,-76.5 441,-76.5"/>
<text text-anchor="middle" x="461" y="-83.5" font-family="Helvetica,sans-Serif" font-size="10.00">init_q</text>
</a>
</g>
</g>
<!-- Node4&#45;&gt;Node10 -->
<g id="edge9" class="edge"><title>Node4&#45;&gt;Node10</title>
<path fill="none" stroke="midnightblue" d="M347.327,-100.971C371.894,-97.7064 406.299,-93.1351 430.612,-89.9048"/>
<polygon fill="midnightblue" stroke="midnightblue" points="431.225,-93.3541 440.677,-88.5674 430.303,-86.415 431.225,-93.3541"/>
</g>
<!-- Node11 -->
<g id="node11" class="node"><title>Node11</title>
<g id="a_node11"><a xlink:href="../../d9/da5/param_8c.html#ac0eb17a3cb026fd36cc681b5ef762531" target="_top" xlink:title="Look up a parameter by name. ">
<polygon fill="white" stroke="black" points="428.5,-38.5 428.5,-57.5 493.5,-57.5 493.5,-38.5 428.5,-38.5"/>
<text text-anchor="middle" x="461" y="-45.5" font-family="Helvetica,sans-Serif" font-size="10.00">param_find</text>
</a>
</g>
</g>
<!-- Node4&#45;&gt;Node11 -->
<g id="edge10" class="edge"><title>Node4&#45;&gt;Node11</title>
<path fill="none" stroke="midnightblue" d="M347.266,-95.7075C355.7,-92.8558 364.795,-89.5305 373,-86 389.618,-78.8489 392.489,-74.3956 409,-67 413.454,-65.0048 418.188,-63.0412 422.906,-61.1776"/>
<polygon fill="midnightblue" stroke="midnightblue" points="424.387,-64.3583 432.475,-57.515 421.885,-57.8208 424.387,-64.3583"/>
</g>
<!-- Node12 -->
<g id="node12" class="node"><title>Node12</title>
<g id="a_node12"><a xlink:href="../../d9/da5/param_8c.html#acda250bde94d605ace974a67c1012d4a" target="_top" xlink:title="Copy the value of a parameter. ">
<polygon fill="white" stroke="black" points="430,-0.5 430,-19.5 492,-19.5 492,-0.5 430,-0.5"/>
<text text-anchor="middle" x="461" y="-7.5" font-family="Helvetica,sans-Serif" font-size="10.00">param_get</text>
</a>
</g>
</g>
<!-- Node4&#45;&gt;Node12 -->
<g id="edge11" class="edge"><title>Node4&#45;&gt;Node12</title>
<path fill="none" stroke="midnightblue" d="M347.077,-98.8871C356.059,-96.032 365.5,-91.9088 373,-86 396.536,-67.4572 385.74,-47.8882 409,-29 412.52,-26.1419 416.512,-23.6877 420.675,-21.5864"/>
<polygon fill="midnightblue" stroke="midnightblue" points="422.188,-24.7447 429.947,-17.5303 419.383,-18.3315 422.188,-24.7447"/>
</g>
<!-- Node6 -->
<g id="node6" class="node"><title>Node6</title>
<g id="a_node6"><a xlink:href="../../d6/d47/dataman_8cpp.html#a0ba409860a05272f9cab723bd8358d05" target="_top" xlink:title="lock_queue">
<polygon fill="white" stroke="black" points="554.5,-228.5 554.5,-247.5 620.5,-247.5 620.5,-228.5 554.5,-228.5"/>
<text text-anchor="middle" x="587.5" y="-235.5" font-family="Helvetica,sans-Serif" font-size="10.00">lock_queue</text>
</a>
</g>
</g>
<!-- Node5&#45;&gt;Node6 -->
<g id="edge5" class="edge"><title>Node5&#45;&gt;Node6</title>
<path fill="none" stroke="midnightblue" d="M493.417,-209.589C509.193,-214.404 528.505,-220.299 545.441,-225.468"/>
<polygon fill="midnightblue" stroke="midnightblue" points="544.507,-228.842 555.093,-228.414 546.551,-222.147 544.507,-228.842"/>
</g>
<!-- Node5&#45;&gt;Node7 -->
<g id="edge6" class="edge"><title>Node5&#45;&gt;Node7</title>
<path fill="none" stroke="midnightblue" d="M493.417,-190.411C509.193,-185.596 528.505,-179.701 545.441,-174.532"/>
<polygon fill="midnightblue" stroke="midnightblue" points="546.551,-177.853 555.093,-171.586 544.507,-171.158 546.551,-177.853"/>
</g>
<!-- Node8 -->
<g id="node8" class="node"><title>Node8</title>
<g id="a_node8"><a xlink:href="../../d6/d47/dataman_8cpp.html#a237e22359180c49a601391c8d8fde80e" target="_top" xlink:title="unlock_queue">
<polygon fill="white" stroke="black" points="549,-190.5 549,-209.5 626,-209.5 626,-190.5 549,-190.5"/>
<text text-anchor="middle" x="587.5" y="-197.5" font-family="Helvetica,sans-Serif" font-size="10.00">unlock_queue</text>
</a>
</g>
</g>
<!-- Node5&#45;&gt;Node8 -->
<g id="edge7" class="edge"><title>Node5&#45;&gt;Node8</title>
<path fill="none" stroke="midnightblue" d="M513.358,-200C521.741,-200 530.396,-200 538.69,-200"/>
<polygon fill="midnightblue" stroke="midnightblue" points="538.953,-203.5 548.953,-200 538.953,-196.5 538.953,-203.5"/>
</g>
<!-- Node14 -->
<g id="node14" class="node"><title>Node14</title>
<g id="a_node14"><a xlink:href="../../d6/d47/dataman_8cpp.html#acc7baf226fbd7801b4118c7a009ff257" target="_top" xlink:title="stop">
<polygon fill="white" stroke="black" points="298.5,-57.5 298.5,-76.5 333.5,-76.5 333.5,-57.5 298.5,-57.5"/>
<text text-anchor="middle" x="316" y="-64.5" font-family="Helvetica,sans-Serif" font-size="10.00">stop</text>
</a>
</g>
</g>
<!-- Node13&#45;&gt;Node14 -->
<g id="edge14" class="edge"><title>Node13&#45;&gt;Node14</title>
<path fill="none" stroke="midnightblue" d="M223.286,-67C244.836,-67 269.789,-67 288.221,-67"/>
<polygon fill="midnightblue" stroke="midnightblue" points="288.245,-70.5001 298.245,-67 288.245,-63.5001 288.245,-70.5001"/>
</g>
</g>
</svg>
