<?xml version="1.0" encoding="UTF-8" standalone="no"?>
<!DOCTYPE svg PUBLIC "-//W3C//DTD SVG 1.1//EN"
 "http://www.w3.org/Graphics/SVG/1.1/DTD/svg11.dtd">
<!-- Generated by graphviz version 2.38.0 (20140413.2041)
 -->
<!-- Title: src/lib/ecl/EKF/ekf.h Pages: 1 -->
<!--zoomable 95 -->
<svg id="main" version="1.1" xmlns="http://www.w3.org/2000/svg" xmlns:xlink="http://www.w3.org/1999/xlink" xml:space="preserve" onload="init(evt)">
<style type="text/css"><![CDATA[
.edge:hover path { stroke: red; }
.edge:hover polygon { stroke: red; fill: red; }
]]></style>
<script type="text/javascript"><![CDATA[
var edges = document.getElementsByTagName('g');
if (edges && edges.length) {
  for (var i=0;i<edges.length;i++) {
    if (edges[i].id.substr(0,4)=='edge') {
      edges[i].setAttribute('class','edge');
    }
  }
}
]]></script>
        <defs>
                <circle id="rim" cx="0" cy="0" r="7"/>
                <circle id="rim2" cx="0" cy="0" r="3.5"/>
                <g id="zoomPlus">
                        <use xlink:href="#rim" fill="#404040">
                                <set attributeName="fill" to="#808080" begin="zoomplus.mouseover" end="zoomplus.mouseout"/>
                        </use>
                        <path d="M-4,0h8M0,-4v8" fill="none" stroke="white" stroke-width="1.5" pointer-events="none"/>
                </g>
                <g id="zoomMin">
                        <use xlink:href="#rim" fill="#404040">
                                <set attributeName="fill" to="#808080" begin="zoomminus.mouseover" end="zoomminus.mouseout"/>
                        </use>
                        <path d="M-4,0h8" fill="none" stroke="white" stroke-width="1.5" pointer-events="none"/>
                </g>
                <g id="dirArrow">
                        <path fill="none" stroke="white" stroke-width="1.5" d="M0,-3.0v7 M-2.5,-0.5L0,-3.0L2.5,-0.5"/>
                </g>
               <g id="resetDef">
                       <use xlink:href="#rim2" fill="#404040">
                               <set attributeName="fill" to="#808080" begin="reset.mouseover" end="reset.mouseout"/>
                       </use>
               </g>
        </defs>

<script type="text/javascript">
var viewWidth = 1827;
var viewHeight = 95;
var sectionId = 'dynsection-1';
</script>
<script xlink:href="../../svgpan.js"/>
<svg id="graph" class="graph">
<g id="viewport">
<title>src/lib/ecl/EKF/ekf.h</title>
<polygon fill="white" stroke="none" points="-4,4 -4,-91 1823,-91 1823,4 -4,4"/>
<!-- Node1 -->
<g id="node1" class="node"><title>Node1</title>
<polygon fill="#bfbfbf" stroke="black" points="886.5,-67.5 886.5,-86.5 992.5,-86.5 992.5,-67.5 886.5,-67.5"/>
<text text-anchor="middle" x="939.5" y="-74.5" font-family="Helvetica,sans-Serif" font-size="10.00">src/lib/ecl/EKF/ekf.h</text>
</g>
<!-- Node2 -->
<g id="node2" class="node"><title>Node2</title>
<g id="a_node2"><a xlink:href="../../d6/db6/airspeed__fusion_8cpp.html" target="_top" xlink:title="airspeed fusion methods. ">
<polygon fill="white" stroke="black" points="0,-0.5 0,-30.5 121,-30.5 121,-0.5 0,-0.5"/>
<text text-anchor="start" x="8" y="-18.5" font-family="Helvetica,sans-Serif" font-size="10.00">src/lib/ecl/EKF/airspeed</text>
<text text-anchor="middle" x="60.5" y="-7.5" font-family="Helvetica,sans-Serif" font-size="10.00">_fusion.cpp</text>
</a>
</g>
</g>
<!-- Node1&#45;&gt;Node2 -->
<g id="edge1" class="edge"><title>Node1&#45;&gt;Node2</title>
<path fill="none" stroke="midnightblue" d="M875.946,-75.67C739.072,-74.2574 406.461,-67.0534 130.5,-31 127.423,-30.5981 124.28,-30.1363 121.113,-29.6304"/>
<polygon fill="midnightblue" stroke="midnightblue" points="876.208,-79.1726 886.241,-75.769 876.275,-72.1729 876.208,-79.1726"/>
</g>
<!-- Node3 -->
<g id="node3" class="node"><title>Node3</title>
<g id="a_node3"><a xlink:href="../../d0/d92/control_8cpp.html" target="_top" xlink:title="Control functions for ekf attitude and position estimator. ">
<polygon fill="white" stroke="black" points="139.5,-6 139.5,-25 271.5,-25 271.5,-6 139.5,-6"/>
<text text-anchor="middle" x="205.5" y="-13" font-family="Helvetica,sans-Serif" font-size="10.00">src/lib/ecl/EKF/control.cpp</text>
</a>
</g>
</g>
<!-- Node1&#45;&gt;Node3 -->
<g id="edge2" class="edge"><title>Node1&#45;&gt;Node3</title>
<path fill="none" stroke="midnightblue" d="M876.05,-74.2575C758.253,-70.4484 497.955,-59.3362 280.5,-31 268.796,-29.4748 256.165,-27.2576 244.666,-25.0138"/>
<polygon fill="midnightblue" stroke="midnightblue" points="876.215,-77.7644 886.321,-74.5827 876.437,-70.7679 876.215,-77.7644"/>
</g>
<!-- Node4 -->
<g id="node4" class="node"><title>Node4</title>
<g id="a_node4"><a xlink:href="../../d5/d38/covariance_8cpp.html" target="_top" xlink:title="Contains functions for initialising, predicting and updating the state covariance matrix...">
<polygon fill="white" stroke="black" points="289.5,-6 289.5,-25 439.5,-25 439.5,-6 289.5,-6"/>
<text text-anchor="middle" x="364.5" y="-13" font-family="Helvetica,sans-Serif" font-size="10.00">src/lib/ecl/EKF/covariance.cpp</text>
</a>
</g>
</g>
<!-- Node1&#45;&gt;Node4 -->
<g id="edge3" class="edge"><title>Node1&#45;&gt;Node4</title>
<path fill="none" stroke="midnightblue" d="M876.141,-71.8115C782.431,-65.2505 601.463,-51.1792 448.5,-31 436.029,-29.3548 422.579,-27.2036 410.175,-25.0637"/>
<polygon fill="midnightblue" stroke="midnightblue" points="876.087,-75.3161 886.306,-72.5177 876.572,-68.333 876.087,-75.3161"/>
</g>
<!-- Node5 -->
<g id="node5" class="node"><title>Node5</title>
<g id="a_node5"><a xlink:href="../../d4/dd8/drag__fusion_8cpp.html" target="_top" xlink:title="body frame drag fusion methods used for multi&#45;rotor wind estimation. ">
<polygon fill="white" stroke="black" points="458,-0.5 458,-30.5 561,-30.5 561,-0.5 458,-0.5"/>
<text text-anchor="start" x="466" y="-18.5" font-family="Helvetica,sans-Serif" font-size="10.00">src/lib/ecl/EKF/drag</text>
<text text-anchor="middle" x="509.5" y="-7.5" font-family="Helvetica,sans-Serif" font-size="10.00">_fusion.cpp</text>
</a>
</g>
</g>
<!-- Node1&#45;&gt;Node5 -->
<g id="edge4" class="edge"><title>Node1&#45;&gt;Node5</title>
<path fill="none" stroke="midnightblue" d="M876.31,-70.4668C802.569,-63.5082 677.129,-50.1129 570.5,-31 567.5,-30.4622 564.426,-29.8687 561.331,-29.2379"/>
<polygon fill="midnightblue" stroke="midnightblue" points="876.083,-73.9607 886.365,-71.4059 876.734,-66.991 876.083,-73.9607"/>
</g>
<!-- Node6 -->
<g id="node6" class="node"><title>Node6</title>
<g id="a_node6"><a xlink:href="../../dd/d7a/ekf_8cpp.html" target="_top" xlink:title="Core functions for ekf attitude and position estimator. ">
<polygon fill="white" stroke="black" points="579.5,-6 579.5,-25 695.5,-25 695.5,-6 579.5,-6"/>
<text text-anchor="middle" x="637.5" y="-13" font-family="Helvetica,sans-Serif" font-size="10.00">src/lib/ecl/EKF/ekf.cpp</text>
</a>
</g>
</g>
<!-- Node1&#45;&gt;Node6 -->
<g id="edge5" class="edge"><title>Node1&#45;&gt;Node6</title>
<path fill="none" stroke="midnightblue" d="M882.947,-65.5634C835.299,-56.6761 765.361,-43.411 704.5,-31 695.288,-29.1214 685.381,-27.0214 676.085,-25.0155"/>
<polygon fill="midnightblue" stroke="midnightblue" points="882.591,-69.0572 893.063,-67.4469 883.872,-62.1755 882.591,-69.0572"/>
</g>
<!-- Node7 -->
<g id="node7" class="node"><title>Node7</title>
<g id="a_node7"><a xlink:href="../../dd/d5c/ekf__helper_8cpp.html" target="_top" xlink:title="Definition of ekf helper functions. ">
<polygon fill="white" stroke="black" points="713.5,-0.5 713.5,-30.5 811.5,-30.5 811.5,-0.5 713.5,-0.5"/>
<text text-anchor="start" x="721.5" y="-18.5" font-family="Helvetica,sans-Serif" font-size="10.00">src/lib/ecl/EKF/ekf</text>
<text text-anchor="middle" x="762.5" y="-7.5" font-family="Helvetica,sans-Serif" font-size="10.00">_helper.cpp</text>
</a>
</g>
</g>
<!-- Node1&#45;&gt;Node7 -->
<g id="edge6" class="edge"><title>Node1&#45;&gt;Node7</title>
<path fill="none" stroke="midnightblue" d="M904.488,-64.2303C875.666,-54.5417 834.732,-40.7815 804.215,-30.523"/>
<polygon fill="midnightblue" stroke="midnightblue" points="903.546,-67.6062 914.14,-67.4751 905.777,-60.9711 903.546,-67.6062"/>
</g>
<!-- Node8 -->
<g id="node8" class="node"><title>Node8</title>
<g id="a_node8"><a xlink:href="../../d5/ddc/gps__checks_8cpp.html" target="_top" xlink:title="Perform pre&#45;flight and in&#45;flight GPS quality checks. ">
<polygon fill="white" stroke="black" points="829.5,-0.5 829.5,-30.5 929.5,-30.5 929.5,-0.5 829.5,-0.5"/>
<text text-anchor="start" x="837.5" y="-18.5" font-family="Helvetica,sans-Serif" font-size="10.00">src/lib/ecl/EKF/gps</text>
<text text-anchor="middle" x="879.5" y="-7.5" font-family="Helvetica,sans-Serif" font-size="10.00">_checks.cpp</text>
</a>
</g>
</g>
<!-- Node1&#45;&gt;Node8 -->
<g id="edge7" class="edge"><title>Node1&#45;&gt;Node8</title>
<path fill="none" stroke="midnightblue" d="M923.738,-60.369C914.404,-51.1127 902.676,-39.4824 893.641,-30.523"/>
<polygon fill="midnightblue" stroke="midnightblue" points="921.338,-62.9189 930.903,-67.4751 926.267,-57.9484 921.338,-62.9189"/>
</g>
<!-- Node9 -->
<g id="node9" class="node"><title>Node9</title>
<g id="a_node9"><a xlink:href="../../d7/d21/mag__fusion_8cpp.html" target="_top" xlink:title="src/lib/ecl/EKF/mag\l_fusion.cpp">
<polygon fill="white" stroke="black" points="948,-0.5 948,-30.5 1051,-30.5 1051,-0.5 948,-0.5"/>
<text text-anchor="start" x="956" y="-18.5" font-family="Helvetica,sans-Serif" font-size="10.00">src/lib/ecl/EKF/mag</text>
<text text-anchor="middle" x="999.5" y="-7.5" font-family="Helvetica,sans-Serif" font-size="10.00">_fusion.cpp</text>
</a>
</g>
</g>
<!-- Node1&#45;&gt;Node9 -->
<g id="edge8" class="edge"><title>Node1&#45;&gt;Node9</title>
<path fill="none" stroke="midnightblue" d="M955.262,-60.369C964.596,-51.1127 976.324,-39.4824 985.359,-30.523"/>
<polygon fill="midnightblue" stroke="midnightblue" points="952.733,-57.9484 948.097,-67.4751 957.662,-62.9189 952.733,-57.9484"/>
</g>
<!-- Node10 -->
<g id="node10" class="node"><title>Node10</title>
<g id="a_node10"><a xlink:href="../../d9/d01/optflow__fusion_8cpp.html" target="_top" xlink:title="src/lib/ecl/EKF/optflow\l_fusion.cpp">
<polygon fill="white" stroke="black" points="1069.5,-0.5 1069.5,-30.5 1185.5,-30.5 1185.5,-0.5 1069.5,-0.5"/>
<text text-anchor="start" x="1077.5" y="-18.5" font-family="Helvetica,sans-Serif" font-size="10.00">src/lib/ecl/EKF/optflow</text>
<text text-anchor="middle" x="1127.5" y="-7.5" font-family="Helvetica,sans-Serif" font-size="10.00">_fusion.cpp</text>
</a>
</g>
</g>
<!-- Node1&#45;&gt;Node10 -->
<g id="edge9" class="edge"><title>Node1&#45;&gt;Node10</title>
<path fill="none" stroke="midnightblue" d="M976.288,-64.357C1006.92,-54.6619 1050.64,-40.8263 1083.19,-30.523"/>
<polygon fill="midnightblue" stroke="midnightblue" points="974.914,-61.1208 966.436,-67.4751 977.026,-67.7945 974.914,-61.1208"/>
</g>
<!-- Node11 -->
<g id="node11" class="node"><title>Node11</title>
<g id="a_node11"><a xlink:href="../../d8/d93/sideslip__fusion_8cpp.html" target="_top" xlink:title="sideslip fusion methods. ">
<polygon fill="white" stroke="black" points="1204,-0.5 1204,-30.5 1321,-30.5 1321,-0.5 1204,-0.5"/>
<text text-anchor="start" x="1212" y="-18.5" font-family="Helvetica,sans-Serif" font-size="10.00">src/lib/ecl/EKF/sideslip</text>
<text text-anchor="middle" x="1262.5" y="-7.5" font-family="Helvetica,sans-Serif" font-size="10.00">_fusion.cpp</text>
</a>
</g>
</g>
<!-- Node1&#45;&gt;Node11 -->
<g id="edge10" class="edge"><title>Node1&#45;&gt;Node11</title>
<path fill="none" stroke="midnightblue" d="M1000.89,-65.7928C1052.62,-57.0437 1128.52,-43.8525 1194.5,-31 1197.58,-30.3999 1200.74,-29.7722 1203.92,-29.1286"/>
<polygon fill="midnightblue" stroke="midnightblue" points="1000.16,-62.367 990.883,-67.482 1001.33,-69.2695 1000.16,-62.367"/>
</g>
<!-- Node12 -->
<g id="node12" class="node"><title>Node12</title>
<g id="a_node12"><a xlink:href="../../da/d47/ecl_2_e_k_f_2terrain__estimator_8cpp.html" target="_top" xlink:title="src/lib/ecl/EKF/terrain\l_estimator.cpp">
<polygon fill="white" stroke="black" points="1339,-0.5 1339,-30.5 1450,-30.5 1450,-0.5 1339,-0.5"/>
<text text-anchor="start" x="1347" y="-18.5" font-family="Helvetica,sans-Serif" font-size="10.00">src/lib/ecl/EKF/terrain</text>
<text text-anchor="middle" x="1394.5" y="-7.5" font-family="Helvetica,sans-Serif" font-size="10.00">_estimator.cpp</text>
</a>
</g>
</g>
<!-- Node1&#45;&gt;Node12 -->
<g id="edge11" class="edge"><title>Node1&#45;&gt;Node12</title>
<path fill="none" stroke="midnightblue" d="M1002.65,-70.8507C1080.2,-64.0409 1215.59,-50.5706 1330.5,-31 1333.2,-30.5409 1335.95,-30.0405 1338.72,-29.5105"/>
<polygon fill="midnightblue" stroke="midnightblue" points="1002.22,-67.3747 992.565,-71.7276 1002.83,-74.3484 1002.22,-67.3747"/>
</g>
<!-- Node13 -->
<g id="node13" class="node"><title>Node13</title>
<g id="a_node13"><a xlink:href="../../d5/de4/base_8cpp.html" target="_top" xlink:title="Tests for the estimator base class. ">
<polygon fill="white" stroke="black" points="1467.5,-0.5 1467.5,-30.5 1573.5,-30.5 1573.5,-0.5 1467.5,-0.5"/>
<text text-anchor="start" x="1475.5" y="-18.5" font-family="Helvetica,sans-Serif" font-size="10.00">src/lib/ecl/EKF/tests</text>
<text text-anchor="middle" x="1520.5" y="-7.5" font-family="Helvetica,sans-Serif" font-size="10.00">/base/base.cpp</text>
</a>
</g>
</g>
<!-- Node1&#45;&gt;Node13 -->
<g id="edge12" class="edge"><title>Node1&#45;&gt;Node13</title>
<path fill="none" stroke="midnightblue" d="M1002.65,-73.532C1100.88,-69.0202 1295.98,-57.3628 1459.5,-31 1462.08,-30.5842 1464.71,-30.1189 1467.36,-29.617"/>
<polygon fill="midnightblue" stroke="midnightblue" points="1002.42,-70.0385 992.592,-73.9845 1002.74,-77.0315 1002.42,-70.0385"/>
</g>
<!-- Node14 -->
<g id="node14" class="node"><title>Node14</title>
<g id="a_node14"><a xlink:href="../../de/daf/vel__pos__fusion_8cpp.html" target="_top" xlink:title="Function for fusing gps and baro measurements/. ">
<polygon fill="white" stroke="black" points="1591,-0.5 1591,-30.5 1688,-30.5 1688,-0.5 1591,-0.5"/>
<text text-anchor="start" x="1599" y="-18.5" font-family="Helvetica,sans-Serif" font-size="10.00">src/lib/ecl/EKF/vel</text>
<text text-anchor="middle" x="1639.5" y="-7.5" font-family="Helvetica,sans-Serif" font-size="10.00">_pos_fusion.cpp</text>
</a>
</g>
</g>
<!-- Node1&#45;&gt;Node14 -->
<g id="edge13" class="edge"><title>Node1&#45;&gt;Node14</title>
<path fill="none" stroke="midnightblue" d="M1002.9,-75.3187C1118.74,-73.2429 1372.03,-64.8553 1582.5,-31 1585.22,-30.5622 1588,-30.0554 1590.8,-29.4991"/>
<polygon fill="midnightblue" stroke="midnightblue" points="1002.74,-71.821 992.797,-75.49 1002.85,-78.82 1002.74,-71.821"/>
</g>
<!-- Node15 -->
<g id="node15" class="node"><title>Node15</title>
<g id="a_node15"><a xlink:href="../../d3/d87/ekf2__main_8cpp.html" target="_top" xlink:title="Implementation of the attitude and position estimator. ">
<polygon fill="white" stroke="black" points="1706,-0.5 1706,-30.5 1819,-30.5 1819,-0.5 1706,-0.5"/>
<text text-anchor="start" x="1714" y="-18.5" font-family="Helvetica,sans-Serif" font-size="10.00">src/modules/ekf2/ekf2</text>
<text text-anchor="middle" x="1762.5" y="-7.5" font-family="Helvetica,sans-Serif" font-size="10.00">_main.cpp</text>
</a>
</g>
</g>
<!-- Node1&#45;&gt;Node15 -->
<g id="edge14" class="edge"><title>Node1&#45;&gt;Node15</title>
<path fill="none" stroke="midnightblue" d="M1002.84,-75.6578C1133.41,-74.202 1441.7,-66.8895 1697.5,-31 1700.25,-30.6145 1703.05,-30.1738 1705.88,-29.6916"/>
<polygon fill="midnightblue" stroke="midnightblue" points="1002.59,-72.1601 992.63,-75.7636 1002.67,-79.1597 1002.59,-72.1601"/>
</g>
</g>
</svg>
        <g id="navigator" transform="translate(0 0)" fill="#404254">
                <rect fill="#f2f5e9" fill-opacity="0.5" stroke="#606060" stroke-width=".5" x="0" y="0" width="60" height="60"/>
                <use id="zoomplus" xlink:href="#zoomPlus" x="17" y="9" onmousedown="handleZoom(evt,'in')"/>
                <use id="zoomminus" xlink:href="#zoomMin" x="42" y="9" onmousedown="handleZoom(evt,'out')"/>
                <use id="reset" xlink:href="#resetDef" x="30" y="36" onmousedown="handleReset()"/>
                <g id="arrowUp" xlink:href="#dirArrow" transform="translate(30 24)" onmousedown="handlePan(0,-1)">
                  <use xlink:href="#rim" fill="#404040">
                        <set attributeName="fill" to="#808080" begin="arrowUp.mouseover" end="arrowUp.mouseout"/>
                  </use>
                  <path fill="none" stroke="white" stroke-width="1.5" d="M0,-3.0v7 M-2.5,-0.5L0,-3.0L2.5,-0.5"/>
                </g>
                <g id="arrowRight" xlink:href="#dirArrow" transform="rotate(90) translate(36 -43)" onmousedown="handlePan(1,0)">
                  <use xlink:href="#rim" fill="#404040">
                        <set attributeName="fill" to="#808080" begin="arrowRight.mouseover" end="arrowRight.mouseout"/>
                  </use>
                  <path fill="none" stroke="white" stroke-width="1.5" d="M0,-3.0v7 M-2.5,-0.5L0,-3.0L2.5,-0.5"/>
                </g>
                <g id="arrowDown" xlink:href="#dirArrow" transform="rotate(180) translate(-30 -48)" onmousedown="handlePan(0,1)">
                  <use xlink:href="#rim" fill="#404040">
                        <set attributeName="fill" to="#808080" begin="arrowDown.mouseover" end="arrowDown.mouseout"/>
                  </use>
                  <path fill="none" stroke="white" stroke-width="1.5" d="M0,-3.0v7 M-2.5,-0.5L0,-3.0L2.5,-0.5"/>
                </g>
                <g id="arrowLeft" xlink:href="#dirArrow" transform="rotate(270) translate(-36 17)" onmousedown="handlePan(-1,0)">
                  <use xlink:href="#rim" fill="#404040">
                        <set attributeName="fill" to="#808080" begin="arrowLeft.mouseover" end="arrowLeft.mouseout"/>
                  </use>
                  <path fill="none" stroke="white" stroke-width="1.5" d="M0,-3.0v7 M-2.5,-0.5L0,-3.0L2.5,-0.5"/>
                </g>
        </g>
        <svg viewBox="0 0 15 15" width="100%" height="30px" preserveAspectRatio="xMaxYMin meet">
         <g id="arrow_out" transform="scale(0.3 0.3)">
          <a xlink:href="ekf_8h__dep__incl_org.svg" target="_base">
           <rect id="button" ry="5" rx="5" y="6" x="6" height="38" width="38"
                fill="#f2f5e9" fill-opacity="0.5" stroke="#606060" stroke-width="1.0"/>
           <path id="arrow"
             d="M 11.500037,31.436501 C 11.940474,20.09759 22.043105,11.32322 32.158766,21.979434 L 37.068811,17.246167 C 37.068811,17.246167 37.088388,32 37.088388,32 L 22.160133,31.978069 C 22.160133,31.978069 26.997745,27.140456 26.997745,27.140456 C 18.528582,18.264221 13.291696,25.230495 11.500037,31.436501 z"
             style="fill:#404040;"/>
          </a>
         </g>
        </svg>
</svg>
