<?xml version="1.0" encoding="UTF-8" standalone="no"?>
<!DOCTYPE svg PUBLIC "-//W3C//DTD SVG 1.1//EN"
 "http://www.w3.org/Graphics/SVG/1.1/DTD/svg11.dtd">
<!-- Generated by graphviz version 2.38.0 (20140413.2041)
 -->
<!-- Title: MK::ioctl Pages: 1 -->
<!--zoomable 652 -->
<svg id="main" version="1.1" xmlns="http://www.w3.org/2000/svg" xmlns:xlink="http://www.w3.org/1999/xlink" xml:space="preserve" onload="init(evt)">
<style type="text/css"><![CDATA[
.edge:hover path { stroke: red; }
.edge:hover polygon { stroke: red; fill: red; }
]]></style>
<script type="text/javascript"><![CDATA[
var edges = document.getElementsByTagName('g');
if (edges && edges.length) {
  for (var i=0;i<edges.length;i++) {
    if (edges[i].id.substr(0,4)=='edge') {
      edges[i].setAttribute('class','edge');
    }
  }
}
]]></script>
        <defs>
                <circle id="rim" cx="0" cy="0" r="7"/>
                <circle id="rim2" cx="0" cy="0" r="3.5"/>
                <g id="zoomPlus">
                        <use xlink:href="#rim" fill="#404040">
                                <set attributeName="fill" to="#808080" begin="zoomplus.mouseover" end="zoomplus.mouseout"/>
                        </use>
                        <path d="M-4,0h8M0,-4v8" fill="none" stroke="white" stroke-width="1.5" pointer-events="none"/>
                </g>
                <g id="zoomMin">
                        <use xlink:href="#rim" fill="#404040">
                                <set attributeName="fill" to="#808080" begin="zoomminus.mouseover" end="zoomminus.mouseout"/>
                        </use>
                        <path d="M-4,0h8" fill="none" stroke="white" stroke-width="1.5" pointer-events="none"/>
                </g>
                <g id="dirArrow">
                        <path fill="none" stroke="white" stroke-width="1.5" d="M0,-3.0v7 M-2.5,-0.5L0,-3.0L2.5,-0.5"/>
                </g>
               <g id="resetDef">
                       <use xlink:href="#rim2" fill="#404040">
                               <set attributeName="fill" to="#808080" begin="reset.mouseover" end="reset.mouseout"/>
                       </use>
               </g>
        </defs>

<script type="text/javascript">
var viewWidth = 1108;
var viewHeight = 652;
var sectionId = 'dynsection-5';
</script>
<script xlink:href="../../svgpan.js"/>
<svg id="graph" class="graph">
<g id="viewport">
<title>MK::ioctl</title>
<polygon fill="white" stroke="none" points="-4,4 -4,-648 1104,-648 1104,4 -4,4"/>
<!-- Node1 -->
<g id="node1" class="node"><title>Node1</title>
<polygon fill="#bfbfbf" stroke="black" points="0,-434.5 0,-453.5 56,-453.5 56,-434.5 0,-434.5"/>
<text text-anchor="middle" x="28" y="-441.5" font-family="Helvetica,sans-Serif" font-size="10.00">MK::ioctl</text>
</g>
<!-- Node2 -->
<g id="node2" class="node"><title>Node2</title>
<g id="a_node2"><a xlink:href="../../d8/de7/class_m_k.html#a1ea687fc2159fd16fc840b48773602cb" target="_top" xlink:title="MK::pwm_ioctl">
<polygon fill="white" stroke="black" points="92,-434.5 92,-453.5 174,-453.5 174,-434.5 92,-434.5"/>
<text text-anchor="middle" x="133" y="-441.5" font-family="Helvetica,sans-Serif" font-size="10.00">MK::pwm_ioctl</text>
</a>
</g>
</g>
<!-- Node1&#45;&gt;Node2 -->
<g id="edge1" class="edge"><title>Node1&#45;&gt;Node2</title>
<path fill="none" stroke="midnightblue" d="M56.062,-444C63.9446,-444 72.8216,-444 81.6533,-444"/>
<polygon fill="midnightblue" stroke="midnightblue" points="81.9379,-447.5 91.9379,-444 81.9379,-440.5 81.9379,-447.5"/>
</g>
<!-- Node3 -->
<g id="node3" class="node"><title>Node3</title>
<g id="a_node3"><a xlink:href="../../d2/d70/namespace_micro_bench_h_r_t.html#aca2d9f12c0defb51efac182da6a55f12" target="_top" xlink:title="MicroBenchHRT::lock">
<polygon fill="white" stroke="black" points="220.5,-624.5 220.5,-643.5 333.5,-643.5 333.5,-624.5 220.5,-624.5"/>
<text text-anchor="middle" x="277" y="-631.5" font-family="Helvetica,sans-Serif" font-size="10.00">MicroBenchHRT::lock</text>
</a>
</g>
</g>
<!-- Node2&#45;&gt;Node3 -->
<g id="edge2" class="edge"><title>Node2&#45;&gt;Node3</title>
<path fill="none" stroke="midnightblue" d="M135.427,-453.821C140.196,-483.008 158.304,-569.984 210,-615 211.967,-616.713 214.08,-618.272 216.299,-619.69"/>
<polygon fill="midnightblue" stroke="midnightblue" points="214.834,-622.876 225.304,-624.497 218.13,-616.7 214.834,-622.876"/>
</g>
<!-- Node4 -->
<g id="node4" class="node"><title>Node4</title>
<g id="a_node4"><a xlink:href="../../d8/de7/class_m_k.html#a574f9da9fc9ad5117c47dfad3941b422" target="_top" xlink:title="MK::mk_servo_arm">
<polygon fill="white" stroke="black" points="226,-586.5 226,-605.5 328,-605.5 328,-586.5 226,-586.5"/>
<text text-anchor="middle" x="277" y="-593.5" font-family="Helvetica,sans-Serif" font-size="10.00">MK::mk_servo_arm</text>
</a>
</g>
</g>
<!-- Node2&#45;&gt;Node4 -->
<g id="edge3" class="edge"><title>Node2&#45;&gt;Node4</title>
<path fill="none" stroke="midnightblue" d="M136.743,-453.722C144.185,-478.293 167.132,-543.317 210,-577 212.329,-578.83 214.828,-580.484 217.442,-581.979"/>
<polygon fill="midnightblue" stroke="midnightblue" points="216.165,-585.25 226.689,-586.471 219.224,-578.953 216.165,-585.25"/>
</g>
<!-- Node5 -->
<g id="node5" class="node"><title>Node5</title>
<g id="a_node5"><a xlink:href="../../d8/de7/class_m_k.html#a081cda8fcdb3ea39dcfb1dd37390bd7c" target="_top" xlink:title="MK::mk_servo_set">
<polygon fill="white" stroke="black" points="227.5,-548.5 227.5,-567.5 326.5,-567.5 326.5,-548.5 227.5,-548.5"/>
<text text-anchor="middle" x="277" y="-555.5" font-family="Helvetica,sans-Serif" font-size="10.00">MK::mk_servo_set</text>
</a>
</g>
</g>
<!-- Node2&#45;&gt;Node5 -->
<g id="edge4" class="edge"><title>Node2&#45;&gt;Node5</title>
<path fill="none" stroke="midnightblue" d="M139.052,-453.719C149.574,-472.989 175.735,-516.148 210,-539 213.109,-541.074 216.447,-542.924 219.909,-544.576"/>
<polygon fill="midnightblue" stroke="midnightblue" points="218.722,-547.873 229.299,-548.497 221.42,-541.413 218.722,-547.873"/>
</g>
<!-- Node6 -->
<g id="node6" class="node"><title>Node6</title>
<g id="a_node6"><a xlink:href="../../d8/de7/class_m_k.html#af18fbe235a7fed9e830e18698dba28a7" target="_top" xlink:title="MK::scaling">
<polygon fill="white" stroke="black" points="243,-510.5 243,-529.5 311,-529.5 311,-510.5 243,-510.5"/>
<text text-anchor="middle" x="277" y="-517.5" font-family="Helvetica,sans-Serif" font-size="10.00">MK::scaling</text>
</a>
</g>
</g>
<!-- Node2&#45;&gt;Node6 -->
<g id="edge5" class="edge"><title>Node2&#45;&gt;Node6</title>
<path fill="none" stroke="midnightblue" d="M144.49,-453.862C158.432,-466.474 184.309,-488.211 210,-501 217.205,-504.587 225.199,-507.603 233.065,-510.1"/>
<polygon fill="midnightblue" stroke="midnightblue" points="232.31,-513.526 242.891,-512.99 234.285,-506.811 232.31,-513.526"/>
</g>
<!-- Node7 -->
<g id="node7" class="node"><title>Node7</title>
<g id="a_node7"><a xlink:href="../../d8/de7/class_m_k.html#a84c1b546a033071703b886b07b55b12c" target="_top" xlink:title="MK::control_callback">
<polygon fill="white" stroke="black" points="223,-472.5 223,-491.5 331,-491.5 331,-472.5 223,-472.5"/>
<text text-anchor="middle" x="277" y="-479.5" font-family="Helvetica,sans-Serif" font-size="10.00">MK::control_callback</text>
</a>
</g>
</g>
<!-- Node2&#45;&gt;Node7 -->
<g id="edge6" class="edge"><title>Node2&#45;&gt;Node7</title>
<path fill="none" stroke="midnightblue" d="M169.833,-453.589C188.163,-458.494 210.678,-464.52 230.25,-469.757"/>
<polygon fill="midnightblue" stroke="midnightblue" points="229.614,-473.21 240.179,-472.414 231.424,-466.448 229.614,-473.21"/>
</g>
<!-- Node8 -->
<g id="node8" class="node"><title>Node8</title>
<g id="a_node8"><a xlink:href="../../d3/dc4/class_simple_mixer.html#ab191e02e844721ff723b79413d82f90e" target="_top" xlink:title="Check that the mixer configuration as loaded is sensible. ">
<polygon fill="white" stroke="black" points="225.5,-434.5 225.5,-453.5 328.5,-453.5 328.5,-434.5 225.5,-434.5"/>
<text text-anchor="middle" x="277" y="-441.5" font-family="Helvetica,sans-Serif" font-size="10.00">SimpleMixer::check</text>
</a>
</g>
</g>
<!-- Node2&#45;&gt;Node8 -->
<g id="edge7" class="edge"><title>Node2&#45;&gt;Node8</title>
<path fill="none" stroke="midnightblue" d="M174.312,-444C186.988,-444 201.279,-444 215.056,-444"/>
<polygon fill="midnightblue" stroke="midnightblue" points="215.455,-447.5 225.455,-444 215.455,-440.5 215.455,-447.5"/>
</g>
<!-- Node10 -->
<g id="node10" class="node"><title>Node10</title>
<g id="a_node10"><a xlink:href="../../d9/dbb/class_mixer_group.html#ae68ac6b84a9213ca7c984d935d90d33b" target="_top" xlink:title="Add a mixer to the group. ">
<polygon fill="white" stroke="black" points="387,-396.5 387,-415.5 505,-415.5 505,-396.5 387,-396.5"/>
<text text-anchor="middle" x="446" y="-403.5" font-family="Helvetica,sans-Serif" font-size="10.00">MixerGroup::add_mixer</text>
</a>
</g>
</g>
<!-- Node2&#45;&gt;Node10 -->
<g id="edge9" class="edge"><title>Node2&#45;&gt;Node10</title>
<path fill="none" stroke="midnightblue" d="M167.048,-434.482C180.299,-430.996 195.774,-427.337 210,-425 265.691,-415.851 329.564,-411.046 376.649,-408.559"/>
<polygon fill="midnightblue" stroke="midnightblue" points="376.922,-412.05 386.732,-408.048 376.568,-405.059 376.922,-412.05"/>
</g>
<!-- Node11 -->
<g id="node11" class="node"><title>Node11</title>
<g id="a_node11"><a xlink:href="../../d9/dbb/class_mixer_group.html#a7bd735772388a8b1d9f4cc41dd8ec7d1" target="_top" xlink:title="Adds mixers to the group based on a text description in a buffer. ">
<polygon fill="white" stroke="black" points="210,-358.5 210,-377.5 344,-377.5 344,-358.5 210,-358.5"/>
<text text-anchor="middle" x="277" y="-365.5" font-family="Helvetica,sans-Serif" font-size="10.00">MixerGroup::load_from_buf</text>
</a>
</g>
</g>
<!-- Node2&#45;&gt;Node11 -->
<g id="edge10" class="edge"><title>Node2&#45;&gt;Node11</title>
<path fill="none" stroke="midnightblue" d="M146.039,-434.341C160.543,-423.051 185.965,-404.342 210,-392 217.959,-387.913 226.778,-384.197 235.311,-380.975"/>
<polygon fill="midnightblue" stroke="midnightblue" points="236.549,-384.249 244.761,-377.554 234.167,-377.667 236.549,-384.249"/>
</g>
<!-- Node31 -->
<g id="node31" class="node"><title>Node31</title>
<g id="a_node31"><a xlink:href="../../d8/de7/class_m_k.html#a848697da0ff07cafa4b7c190e08b91ba" target="_top" xlink:title="MK::set_rc_min_value">
<polygon fill="white" stroke="black" points="220,-320.5 220,-339.5 334,-339.5 334,-320.5 220,-320.5"/>
<text text-anchor="middle" x="277" y="-327.5" font-family="Helvetica,sans-Serif" font-size="10.00">MK::set_rc_min_value</text>
</a>
</g>
</g>
<!-- Node2&#45;&gt;Node31 -->
<g id="edge41" class="edge"><title>Node2&#45;&gt;Node31</title>
<path fill="none" stroke="midnightblue" d="M139.052,-434.281C149.574,-415.011 175.735,-371.852 210,-349 213.109,-346.926 216.447,-345.076 219.909,-343.424"/>
<polygon fill="midnightblue" stroke="midnightblue" points="221.42,-346.587 229.299,-339.503 218.722,-340.127 221.42,-346.587"/>
</g>
<!-- Node32 -->
<g id="node32" class="node"><title>Node32</title>
<g id="a_node32"><a xlink:href="../../d8/de7/class_m_k.html#ae74cad77d82a1b88f6c4686c49f246ff" target="_top" xlink:title="MK::set_rc_max_value">
<polygon fill="white" stroke="black" points="218.5,-282.5 218.5,-301.5 335.5,-301.5 335.5,-282.5 218.5,-282.5"/>
<text text-anchor="middle" x="277" y="-289.5" font-family="Helvetica,sans-Serif" font-size="10.00">MK::set_rc_max_value</text>
</a>
</g>
</g>
<!-- Node2&#45;&gt;Node32 -->
<g id="edge42" class="edge"><title>Node2&#45;&gt;Node32</title>
<path fill="none" stroke="midnightblue" d="M136.743,-434.278C144.185,-409.707 167.132,-344.683 210,-311 212.329,-309.17 214.828,-307.516 217.442,-306.021"/>
<polygon fill="midnightblue" stroke="midnightblue" points="219.224,-309.047 226.689,-301.529 216.165,-302.75 219.224,-309.047"/>
</g>
<!-- Node33 -->
<g id="node33" class="node"><title>Node33</title>
<g id="a_node33"><a xlink:href="../../d2/d70/namespace_micro_bench_h_r_t.html#ac6bf27b1e2346f606a10e520ea86cb7f" target="_top" xlink:title="MicroBenchHRT::unlock">
<polygon fill="white" stroke="black" points="215,-244.5 215,-263.5 339,-263.5 339,-244.5 215,-244.5"/>
<text text-anchor="middle" x="277" y="-251.5" font-family="Helvetica,sans-Serif" font-size="10.00">MicroBenchHRT::unlock</text>
</a>
</g>
</g>
<!-- Node2&#45;&gt;Node33 -->
<g id="edge43" class="edge"><title>Node2&#45;&gt;Node33</title>
<path fill="none" stroke="midnightblue" d="M135.427,-434.179C140.196,-404.992 158.304,-318.016 210,-273 211.967,-271.287 214.08,-269.728 216.299,-268.31"/>
<polygon fill="midnightblue" stroke="midnightblue" points="218.13,-271.3 225.304,-263.503 214.834,-265.124 218.13,-271.3"/>
</g>
<!-- Node9 -->
<g id="node9" class="node"><title>Node9</title>
<g id="a_node9"><a xlink:href="../../de/d2d/class_mixer.html#a11251e4c91b83d1c0781a1842619394c" target="_top" xlink:title="Validate a scaler. ">
<polygon fill="white" stroke="black" points="395.5,-434.5 395.5,-453.5 496.5,-453.5 496.5,-434.5 395.5,-434.5"/>
<text text-anchor="middle" x="446" y="-441.5" font-family="Helvetica,sans-Serif" font-size="10.00">Mixer::scale_check</text>
</a>
</g>
</g>
<!-- Node8&#45;&gt;Node9 -->
<g id="edge8" class="edge"><title>Node8&#45;&gt;Node9</title>
<path fill="none" stroke="midnightblue" d="M328.559,-444C346.46,-444 366.767,-444 385.352,-444"/>
<polygon fill="midnightblue" stroke="midnightblue" points="385.475,-447.5 395.475,-444 385.474,-440.5 385.475,-447.5"/>
</g>
<!-- Node11&#45;&gt;Node10 -->
<g id="edge11" class="edge"><title>Node11&#45;&gt;Node10</title>
<path fill="none" stroke="midnightblue" d="M320.141,-377.589C342.377,-382.649 369.848,-388.9 393.356,-394.249"/>
<polygon fill="midnightblue" stroke="midnightblue" points="392.635,-397.674 403.162,-396.48 394.188,-390.848 392.635,-397.674"/>
</g>
<!-- Node12 -->
<g id="node12" class="node"><title>Node12</title>
<g id="a_node12"><a xlink:href="../../d8/d40/class_null_mixer.html#a898d2500fcf86c626c17c9080497eb65" target="_top" xlink:title="Factory method. ">
<polygon fill="white" stroke="black" points="393.5,-257.5 393.5,-276.5 498.5,-276.5 498.5,-257.5 393.5,-257.5"/>
<text text-anchor="middle" x="446" y="-264.5" font-family="Helvetica,sans-Serif" font-size="10.00">NullMixer::from_text</text>
</a>
</g>
</g>
<!-- Node11&#45;&gt;Node12 -->
<g id="edge12" class="edge"><title>Node11&#45;&gt;Node12</title>
<path fill="none" stroke="midnightblue" d="M323.379,-358.421C330.555,-355.936 337.684,-352.841 344,-349 363.878,-336.912 362.263,-326.054 380,-311 392.541,-300.357 407.706,-289.968 420.232,-281.961"/>
<polygon fill="midnightblue" stroke="midnightblue" points="422.199,-284.859 428.812,-276.581 418.481,-278.928 422.199,-284.859"/>
</g>
<!-- Node15 -->
<g id="node15" class="node"><title>Node15</title>
<g id="a_node15"><a xlink:href="../../d3/dc4/class_simple_mixer.html#a4db178ad15ab4ff1815f92fccb472bb3" target="_top" xlink:title="Factory method with full external configuration. ">
<polygon fill="white" stroke="black" points="387,-131.5 387,-150.5 505,-150.5 505,-131.5 387,-131.5"/>
<text text-anchor="middle" x="446" y="-138.5" font-family="Helvetica,sans-Serif" font-size="10.00">SimpleMixer::from_text</text>
</a>
</g>
</g>
<!-- Node11&#45;&gt;Node15 -->
<g id="edge15" class="edge"><title>Node11&#45;&gt;Node15</title>
<path fill="none" stroke="midnightblue" d="M329.977,-358.36C335.107,-355.907 339.916,-352.838 344,-349 378.727,-316.365 359.523,-291.032 380,-248 395.55,-215.322 418.368,-179.889 432.423,-159.108"/>
<polygon fill="midnightblue" stroke="midnightblue" points="435.449,-160.883 438.206,-150.653 429.671,-156.931 435.449,-160.883"/>
</g>
<!-- Node22 -->
<g id="node22" class="node"><title>Node22</title>
<g id="a_node22"><a xlink:href="../../d5/dd1/class_multirotor_mixer.html#a16fb4d4340fa2eda5a361b5b9bf9666b" target="_top" xlink:title="Factory method. ">
<polygon fill="white" stroke="black" points="382,-358.5 382,-377.5 510,-377.5 510,-358.5 382,-358.5"/>
<text text-anchor="middle" x="446" y="-365.5" font-family="Helvetica,sans-Serif" font-size="10.00">MultirotorMixer::from_text</text>
</a>
</g>
</g>
<!-- Node11&#45;&gt;Node22 -->
<g id="edge26" class="edge"><title>Node11&#45;&gt;Node22</title>
<path fill="none" stroke="midnightblue" d="M344.003,-368C353.078,-368 362.442,-368 371.639,-368"/>
<polygon fill="midnightblue" stroke="midnightblue" points="371.928,-371.5 381.928,-368 371.928,-364.5 371.928,-371.5"/>
</g>
<!-- Node29 -->
<g id="node29" class="node"><title>Node29</title>
<g id="a_node29"><a xlink:href="../../d3/d18/class_helicopter_mixer.html#aa74c76554b6aecf5e5f5498472764f1f" target="_top" xlink:title="Factory method. ">
<polygon fill="white" stroke="black" points="380,-320.5 380,-339.5 512,-339.5 512,-320.5 380,-320.5"/>
<text text-anchor="middle" x="446" y="-327.5" font-family="Helvetica,sans-Serif" font-size="10.00">HelicopterMixer::from_text</text>
</a>
</g>
</g>
<!-- Node11&#45;&gt;Node29 -->
<g id="edge36" class="edge"><title>Node11&#45;&gt;Node29</title>
<path fill="none" stroke="midnightblue" d="M320.141,-358.411C342.377,-353.351 369.848,-347.1 393.356,-341.751"/>
<polygon fill="midnightblue" stroke="midnightblue" points="394.188,-345.152 403.162,-339.52 392.635,-338.326 394.188,-345.152"/>
</g>
<!-- Node13 -->
<g id="node13" class="node"><title>Node13</title>
<g id="a_node13"><a xlink:href="../../de/d2d/class_mixer.html#ae496f246c8434d0c6d3fcff164e81640" target="_top" xlink:title="Check wether the string is well formed and suitable for parsing. ">
<polygon fill="white" stroke="black" points="569,-252 569,-282 662,-282 662,-252 569,-252"/>
<text text-anchor="start" x="577" y="-270" font-family="Helvetica,sans-Serif" font-size="10.00">Mixer::string_well</text>
<text text-anchor="middle" x="615.5" y="-259" font-family="Helvetica,sans-Serif" font-size="10.00">_formed</text>
</a>
</g>
</g>
<!-- Node12&#45;&gt;Node13 -->
<g id="edge13" class="edge"><title>Node12&#45;&gt;Node13</title>
<path fill="none" stroke="midnightblue" d="M498.622,-267C517.607,-267 539.188,-267 558.537,-267"/>
<polygon fill="midnightblue" stroke="midnightblue" points="558.726,-270.5 568.726,-267 558.726,-263.5 558.726,-270.5"/>
</g>
<!-- Node14 -->
<g id="node14" class="node"><title>Node14</title>
<g id="a_node14"><a xlink:href="../../d8/d40/class_null_mixer.html#a54bdcbfea2e55f5c43a5211e52fb9da2" target="_top" xlink:title="NullMixer::NullMixer">
<polygon fill="white" stroke="black" points="563,-213.5 563,-232.5 668,-232.5 668,-213.5 563,-213.5"/>
<text text-anchor="middle" x="615.5" y="-220.5" font-family="Helvetica,sans-Serif" font-size="10.00">NullMixer::NullMixer</text>
</a>
</g>
</g>
<!-- Node12&#45;&gt;Node14 -->
<g id="edge14" class="edge"><title>Node12&#45;&gt;Node14</title>
<path fill="none" stroke="midnightblue" d="M483.345,-257.453C508.258,-250.908 541.515,-242.172 568.306,-235.135"/>
<polygon fill="midnightblue" stroke="midnightblue" points="569.443,-238.455 578.226,-232.529 567.665,-231.684 569.443,-238.455"/>
</g>
<!-- Node15&#45;&gt;Node13 -->
<g id="edge16" class="edge"><title>Node15&#45;&gt;Node13</title>
<path fill="none" stroke="midnightblue" d="M454.311,-150.705C469.645,-170.453 507.146,-215.67 548,-242 551.716,-244.395 555.695,-246.609 559.791,-248.647"/>
<polygon fill="midnightblue" stroke="midnightblue" points="558.338,-251.831 568.886,-252.826 561.261,-245.47 558.338,-251.831"/>
</g>
<!-- Node16 -->
<g id="node16" class="node"><title>Node16</title>
<g id="a_node16"><a xlink:href="../../de/d2d/class_mixer.html#a2f8fa80f069727fcb9a1abb25e007470" target="_top" xlink:title="Skip a line. ">
<polygon fill="white" stroke="black" points="740,-175.5 740,-194.5 820,-194.5 820,-175.5 740,-175.5"/>
<text text-anchor="middle" x="780" y="-182.5" font-family="Helvetica,sans-Serif" font-size="10.00">Mixer::skipline</text>
</a>
</g>
</g>
<!-- Node15&#45;&gt;Node16 -->
<g id="edge17" class="edge"><title>Node15&#45;&gt;Node16</title>
<path fill="none" stroke="midnightblue" d="M481.803,-150.605C501.157,-155.608 525.758,-161.415 548,-165 610.255,-175.036 682.818,-180.278 729.761,-182.836"/>
<polygon fill="midnightblue" stroke="midnightblue" points="729.788,-186.342 739.957,-183.371 730.154,-179.352 729.788,-186.342"/>
</g>
<!-- Node17 -->
<g id="node17" class="node"><title>Node17</title>
<g id="a_node17"><a xlink:href="../../de/d2d/class_mixer.html#af7700fca6686a37e9b84b8028843010a" target="_top" xlink:title="Find next tag and return it (0 is returned if no tag is found) ">
<polygon fill="white" stroke="black" points="568,-0.5 568,-19.5 663,-19.5 663,-0.5 568,-0.5"/>
<text text-anchor="middle" x="615.5" y="-7.5" font-family="Helvetica,sans-Serif" font-size="10.00">Mixer::findnexttag</text>
</a>
</g>
</g>
<!-- Node15&#45;&gt;Node17 -->
<g id="edge18" class="edge"><title>Node15&#45;&gt;Node17</title>
<path fill="none" stroke="midnightblue" d="M453.006,-131.245C466.915,-109.483 503.567,-56.7117 548,-29 551.399,-26.8803 555.041,-24.9904 558.805,-23.3065"/>
<polygon fill="midnightblue" stroke="midnightblue" points="560.335,-26.4652 568.345,-19.531 557.759,-19.9564 560.335,-26.4652"/>
</g>
<!-- Node18 -->
<g id="node18" class="node"><title>Node18</title>
<g id="a_node18"><a xlink:href="../../d3/dc4/class_simple_mixer.html#a3748661dfe004123e411d995c673f4fc" target="_top" xlink:title="SimpleMixer::parse\l_output_scaler">
<polygon fill="white" stroke="black" points="565,-77 565,-107 666,-107 666,-77 565,-77"/>
<text text-anchor="start" x="573" y="-95" font-family="Helvetica,sans-Serif" font-size="10.00">SimpleMixer::parse</text>
<text text-anchor="middle" x="615.5" y="-84" font-family="Helvetica,sans-Serif" font-size="10.00">_output_scaler</text>
</a>
</g>
</g>
<!-- Node15&#45;&gt;Node18 -->
<g id="edge19" class="edge"><title>Node15&#45;&gt;Node18</title>
<path fill="none" stroke="midnightblue" d="M479.693,-131.436C501.042,-125.191 529.548,-116.852 554.847,-109.451"/>
<polygon fill="midnightblue" stroke="midnightblue" points="556.113,-112.727 564.728,-106.56 554.148,-106.009 556.113,-112.727"/>
</g>
<!-- Node20 -->
<g id="node20" class="node"><title>Node20</title>
<g id="a_node20"><a xlink:href="../../d3/dc4/class_simple_mixer.html#a8a8f623c91b686cedb8ceeb77b09f491" target="_top" xlink:title="SimpleMixer::parse\l_control_scaler">
<polygon fill="white" stroke="black" points="565,-126 565,-156 666,-156 666,-126 565,-126"/>
<text text-anchor="start" x="573" y="-144" font-family="Helvetica,sans-Serif" font-size="10.00">SimpleMixer::parse</text>
<text text-anchor="middle" x="615.5" y="-133" font-family="Helvetica,sans-Serif" font-size="10.00">_control_scaler</text>
</a>
</g>
</g>
<!-- Node15&#45;&gt;Node20 -->
<g id="edge22" class="edge"><title>Node15&#45;&gt;Node20</title>
<path fill="none" stroke="midnightblue" d="M505.113,-141C521.08,-141 538.423,-141 554.495,-141"/>
<polygon fill="midnightblue" stroke="midnightblue" points="554.845,-144.5 564.845,-141 554.845,-137.5 554.845,-144.5"/>
</g>
<!-- Node21 -->
<g id="node21" class="node"><title>Node21</title>
<g id="a_node21"><a xlink:href="../../d3/dc4/class_simple_mixer.html#a0b0ce6973b9dc3c2dea6ee924a480715" target="_top" xlink:title="Constructor. ">
<polygon fill="white" stroke="black" points="550,-38.5 550,-57.5 681,-57.5 681,-38.5 550,-38.5"/>
<text text-anchor="middle" x="615.5" y="-45.5" font-family="Helvetica,sans-Serif" font-size="10.00">SimpleMixer::SimpleMixer</text>
</a>
</g>
</g>
<!-- Node15&#45;&gt;Node21 -->
<g id="edge25" class="edge"><title>Node15&#45;&gt;Node21</title>
<path fill="none" stroke="midnightblue" d="M457.38,-131.415C474.824,-115.787 511.687,-84.7794 548,-67 552.666,-64.7156 557.654,-62.6606 562.722,-60.8228"/>
<polygon fill="midnightblue" stroke="midnightblue" points="564.129,-64.0429 572.504,-57.553 561.91,-57.404 564.129,-64.0429"/>
</g>
<!-- Node18&#45;&gt;Node16 -->
<g id="edge21" class="edge"><title>Node18&#45;&gt;Node16</title>
<path fill="none" stroke="midnightblue" d="M666.303,-106.567C672.176,-109.257 677.89,-112.385 683,-116 703.627,-130.593 698.732,-144.912 719,-160 724.974,-164.447 731.856,-168.263 738.78,-171.478"/>
<polygon fill="midnightblue" stroke="midnightblue" points="737.597,-174.778 748.168,-175.491 740.349,-168.342 737.597,-174.778"/>
</g>
<!-- Node19 -->
<g id="node19" class="node"><title>Node19</title>
<g id="a_node19"><a xlink:href="../../de/d2d/class_mixer.html#a6cf503fd87b4ffe395978376cfd0f3e4" target="_top" xlink:title="Find a tag. ">
<polygon fill="white" stroke="black" points="742,-131.5 742,-150.5 818,-150.5 818,-131.5 742,-131.5"/>
<text text-anchor="middle" x="780" y="-138.5" font-family="Helvetica,sans-Serif" font-size="10.00">Mixer::findtag</text>
</a>
</g>
</g>
<!-- Node18&#45;&gt;Node19 -->
<g id="edge20" class="edge"><title>Node18&#45;&gt;Node19</title>
<path fill="none" stroke="midnightblue" d="M666.138,-106.968C688.963,-113.851 715.732,-121.922 737.47,-128.477"/>
<polygon fill="midnightblue" stroke="midnightblue" points="736.486,-131.836 747.071,-131.372 738.507,-125.134 736.486,-131.836"/>
</g>
<!-- Node20&#45;&gt;Node16 -->
<g id="edge24" class="edge"><title>Node20&#45;&gt;Node16</title>
<path fill="none" stroke="midnightblue" d="M666.138,-154.441C687.813,-160.309 713.044,-167.141 734.146,-172.855"/>
<polygon fill="midnightblue" stroke="midnightblue" points="733.263,-176.242 743.831,-175.477 735.093,-169.485 733.263,-176.242"/>
</g>
<!-- Node20&#45;&gt;Node19 -->
<g id="edge23" class="edge"><title>Node20&#45;&gt;Node19</title>
<path fill="none" stroke="midnightblue" d="M666.138,-141C686.978,-141 711.105,-141 731.689,-141"/>
<polygon fill="midnightblue" stroke="midnightblue" points="731.786,-144.5 741.786,-141 731.786,-137.5 731.786,-144.5"/>
</g>
<!-- Node22&#45;&gt;Node13 -->
<g id="edge27" class="edge"><title>Node22&#45;&gt;Node13</title>
<path fill="none" stroke="midnightblue" d="M488.515,-358.498C496.53,-355.938 504.698,-352.797 512,-349 542.387,-333.197 572.423,-307.687 592.046,-289.314"/>
<polygon fill="midnightblue" stroke="midnightblue" points="594.716,-291.604 599.538,-282.17 589.886,-286.538 594.716,-291.604"/>
</g>
<!-- Node22&#45;&gt;Node16 -->
<g id="edge28" class="edge"><title>Node22&#45;&gt;Node16</title>
<path fill="none" stroke="midnightblue" d="M489.312,-377.516C497.096,-380.054 504.975,-383.184 512,-387 530.554,-397.079 528.205,-410.652 548,-418 604.249,-438.881 633.143,-451.381 683,-418 756.719,-368.642 773.885,-251.285 777.836,-204.623"/>
<polygon fill="midnightblue" stroke="midnightblue" points="781.33,-204.829 778.568,-194.601 774.349,-204.319 781.33,-204.829"/>
</g>
<!-- Node23 -->
<g id="node23" class="node"><title>Node23</title>
<g id="a_node23"><a xlink:href="../../d5/dd1/class_multirotor_mixer.html#a4d5cdf8a2011732337db808bbc8d48bc" target="_top" xlink:title="MultirotorMixer::Multirotor\lMixer">
<polygon fill="white" stroke="black" points="551.5,-504 551.5,-534 679.5,-534 679.5,-504 551.5,-504"/>
<text text-anchor="start" x="559.5" y="-522" font-family="Helvetica,sans-Serif" font-size="10.00">MultirotorMixer::Multirotor</text>
<text text-anchor="middle" x="615.5" y="-511" font-family="Helvetica,sans-Serif" font-size="10.00">Mixer</text>
</a>
</g>
</g>
<!-- Node22&#45;&gt;Node23 -->
<g id="edge29" class="edge"><title>Node22&#45;&gt;Node23</title>
<path fill="none" stroke="midnightblue" d="M497.885,-377.564C503.055,-380.028 507.902,-383.121 512,-387 546.914,-420.048 515.473,-453.601 548,-489 551.307,-492.599 555.129,-495.795 559.234,-498.628"/>
<polygon fill="midnightblue" stroke="midnightblue" points="557.623,-501.744 567.987,-503.943 561.256,-495.761 557.623,-501.744"/>
</g>
<!-- Node27 -->
<g id="node27" class="node"><title>Node27</title>
<g id="a_node27"><a xlink:href="../../d8/da1/integration_8cpp.html#af5ba872dd09316732300733cc164ac1a" target="_top" xlink:title="f">
<polygon fill="white" stroke="black" points="1043.5,-479.5 1043.5,-498.5 1072.5,-498.5 1072.5,-479.5 1043.5,-479.5"/>
<text text-anchor="middle" x="1058" y="-486.5" font-family="Helvetica,sans-Serif" font-size="10.00">f</text>
</a>
</g>
</g>
<!-- Node22&#45;&gt;Node27 -->
<g id="edge35" class="edge"><title>Node22&#45;&gt;Node27</title>
<path fill="none" stroke="midnightblue" d="M494.681,-377.625C500.842,-380.077 506.805,-383.15 512,-387 535.472,-404.396 522.967,-426.938 548,-442 631.131,-492.018 943.563,-490.881 1032.96,-489.485"/>
<polygon fill="midnightblue" stroke="midnightblue" points="1033.24,-492.981 1043.18,-489.308 1033.12,-485.982 1033.24,-492.981"/>
</g>
<!-- Node24 -->
<g id="node24" class="node"><title>Node24</title>
<g id="a_node24"><a xlink:href="../../d5/dd1/class_multirotor_mixer.html#a4b2b1bf433ca84310d8e479be25cb0c8" target="_top" xlink:title="MultirotorMixer::actuator\lControlsCallback">
<polygon fill="white" stroke="black" points="719,-553 719,-583 841,-583 841,-553 719,-553"/>
<text text-anchor="start" x="727" y="-571" font-family="Helvetica,sans-Serif" font-size="10.00">MultirotorMixer::actuator</text>
<text text-anchor="middle" x="780" y="-560" font-family="Helvetica,sans-Serif" font-size="10.00">ControlsCallback</text>
</a>
</g>
</g>
<!-- Node23&#45;&gt;Node24 -->
<g id="edge30" class="edge"><title>Node23&#45;&gt;Node24</title>
<path fill="none" stroke="midnightblue" d="M666.581,-534.101C683.186,-539.108 701.837,-544.732 719.104,-549.939"/>
<polygon fill="midnightblue" stroke="midnightblue" points="718.499,-553.412 729.084,-552.948 720.52,-546.71 718.499,-553.412"/>
</g>
<!-- Node28 -->
<g id="node28" class="node"><title>Node28</title>
<g id="a_node28"><a xlink:href="../../d5/dd1/class_multirotor_mixer.html#a001a6db48e10048b62f840701b64163c" target="_top" xlink:title="MultirotorMixer::actuator\lArmedCallback">
<polygon fill="white" stroke="black" points="719,-504 719,-534 841,-534 841,-504 719,-504"/>
<text text-anchor="start" x="727" y="-522" font-family="Helvetica,sans-Serif" font-size="10.00">MultirotorMixer::actuator</text>
<text text-anchor="middle" x="780" y="-511" font-family="Helvetica,sans-Serif" font-size="10.00">ArmedCallback</text>
</a>
</g>
</g>
<!-- Node23&#45;&gt;Node28 -->
<g id="edge34" class="edge"><title>Node23&#45;&gt;Node28</title>
<path fill="none" stroke="midnightblue" d="M679.792,-519C689.216,-519 698.979,-519 708.54,-519"/>
<polygon fill="midnightblue" stroke="midnightblue" points="708.809,-522.5 718.808,-519 708.808,-515.5 708.809,-522.5"/>
</g>
<!-- Node25 -->
<g id="node25" class="node"><title>Node25</title>
<g id="a_node25"><a xlink:href="../../d5/dd1/class_multirotor_mixer.html#ad3f0c1aa972a5a731d4a392af32111f2" target="_top" xlink:title="MultirotorMixer::mix">
<polygon fill="white" stroke="black" points="877,-544.5 877,-563.5 980,-563.5 980,-544.5 877,-544.5"/>
<text text-anchor="middle" x="928.5" y="-551.5" font-family="Helvetica,sans-Serif" font-size="10.00">MultirotorMixer::mix</text>
</a>
</g>
</g>
<!-- Node24&#45;&gt;Node25 -->
<g id="edge31" class="edge"><title>Node24&#45;&gt;Node25</title>
<path fill="none" stroke="midnightblue" d="M841.01,-562.265C849.437,-561.46 858.105,-560.632 866.549,-559.825"/>
<polygon fill="midnightblue" stroke="midnightblue" points="867.085,-563.29 876.706,-558.854 866.419,-556.321 867.085,-563.29"/>
</g>
<!-- Node26 -->
<g id="node26" class="node"><title>Node26</title>
<g id="a_node26"><a xlink:href="../../dd/d47/namespacemath.html#a9ab5768499dc798629f31a3e785ea313" target="_top" xlink:title="math::constrain">
<polygon fill="white" stroke="black" points="1016,-544.5 1016,-563.5 1100,-563.5 1100,-544.5 1016,-544.5"/>
<text text-anchor="middle" x="1058" y="-551.5" font-family="Helvetica,sans-Serif" font-size="10.00">math::constrain</text>
</a>
</g>
</g>
<!-- Node25&#45;&gt;Node26 -->
<g id="edge32" class="edge"><title>Node25&#45;&gt;Node26</title>
<path fill="none" stroke="midnightblue" d="M980.258,-554C988.651,-554 997.358,-554 1005.76,-554"/>
<polygon fill="midnightblue" stroke="midnightblue" points="1005.82,-557.5 1015.82,-554 1005.82,-550.5 1005.82,-557.5"/>
</g>
<!-- Node25&#45;&gt;Node27 -->
<g id="edge33" class="edge"><title>Node25&#45;&gt;Node27</title>
<path fill="none" stroke="midnightblue" d="M948.313,-544.409C971.184,-532.749 1009.76,-513.085 1034.27,-500.589"/>
<polygon fill="midnightblue" stroke="midnightblue" points="1035.9,-503.688 1043.22,-496.028 1032.72,-497.451 1035.9,-503.688"/>
</g>
<!-- Node29&#45;&gt;Node13 -->
<g id="edge40" class="edge"><title>Node29&#45;&gt;Node13</title>
<path fill="none" stroke="midnightblue" d="M472.44,-320.432C496.884,-311.238 534.484,-297.095 564.863,-285.67"/>
<polygon fill="midnightblue" stroke="midnightblue" points="566.318,-288.861 574.446,-282.065 563.854,-282.31 566.318,-288.861"/>
</g>
<!-- Node29&#45;&gt;Node16 -->
<g id="edge39" class="edge"><title>Node29&#45;&gt;Node16</title>
<path fill="none" stroke="midnightblue" d="M486.523,-339.563C535.77,-349.249 620.988,-358.512 683,-325 731.451,-298.816 760.321,-236.258 772.38,-204.383"/>
<polygon fill="midnightblue" stroke="midnightblue" points="775.719,-205.44 775.828,-194.846 769.136,-203.06 775.719,-205.44"/>
</g>
<!-- Node29&#45;&gt;Node19 -->
<g id="edge37" class="edge"><title>Node29&#45;&gt;Node19</title>
<path fill="none" stroke="midnightblue" d="M512.06,-326.917C573.001,-322.705 658.295,-312.979 683,-291 726.194,-252.572 680.523,-209.15 719,-166 722.802,-161.736 727.447,-158.181 732.452,-155.221"/>
<polygon fill="midnightblue" stroke="midnightblue" points="734.409,-158.153 741.747,-150.511 731.245,-151.909 734.409,-158.153"/>
</g>
<!-- Node30 -->
<g id="node30" class="node"><title>Node30</title>
<g id="a_node30"><a xlink:href="../../d3/d18/class_helicopter_mixer.html#a24f1a82968f6a11e0fa951beba6c0428" target="_top" xlink:title="Constructor. ">
<polygon fill="white" stroke="black" points="548,-378 548,-408 683,-408 683,-378 548,-378"/>
<text text-anchor="start" x="556" y="-396" font-family="Helvetica,sans-Serif" font-size="10.00">HelicopterMixer::Helicopter</text>
<text text-anchor="middle" x="615.5" y="-385" font-family="Helvetica,sans-Serif" font-size="10.00">Mixer</text>
</a>
</g>
</g>
<!-- Node29&#45;&gt;Node30 -->
<g id="edge38" class="edge"><title>Node29&#45;&gt;Node30</title>
<path fill="none" stroke="midnightblue" d="M482.672,-339.584C492.27,-342.391 502.595,-345.621 512,-349 532.331,-356.305 554.406,-365.598 572.845,-373.76"/>
<polygon fill="midnightblue" stroke="midnightblue" points="571.57,-377.024 582.128,-377.909 574.426,-370.633 571.57,-377.024"/>
</g>
</g>
</svg>
        <g id="navigator" transform="translate(0 0)" fill="#404254">
                <rect fill="#f2f5e9" fill-opacity="0.5" stroke="#606060" stroke-width=".5" x="0" y="0" width="60" height="60"/>
                <use id="zoomplus" xlink:href="#zoomPlus" x="17" y="9" onmousedown="handleZoom(evt,'in')"/>
                <use id="zoomminus" xlink:href="#zoomMin" x="42" y="9" onmousedown="handleZoom(evt,'out')"/>
                <use id="reset" xlink:href="#resetDef" x="30" y="36" onmousedown="handleReset()"/>
                <g id="arrowUp" xlink:href="#dirArrow" transform="translate(30 24)" onmousedown="handlePan(0,-1)">
                  <use xlink:href="#rim" fill="#404040">
                        <set attributeName="fill" to="#808080" begin="arrowUp.mouseover" end="arrowUp.mouseout"/>
                  </use>
                  <path fill="none" stroke="white" stroke-width="1.5" d="M0,-3.0v7 M-2.5,-0.5L0,-3.0L2.5,-0.5"/>
                </g>
                <g id="arrowRight" xlink:href="#dirArrow" transform="rotate(90) translate(36 -43)" onmousedown="handlePan(1,0)">
                  <use xlink:href="#rim" fill="#404040">
                        <set attributeName="fill" to="#808080" begin="arrowRight.mouseover" end="arrowRight.mouseout"/>
                  </use>
                  <path fill="none" stroke="white" stroke-width="1.5" d="M0,-3.0v7 M-2.5,-0.5L0,-3.0L2.5,-0.5"/>
                </g>
                <g id="arrowDown" xlink:href="#dirArrow" transform="rotate(180) translate(-30 -48)" onmousedown="handlePan(0,1)">
                  <use xlink:href="#rim" fill="#404040">
                        <set attributeName="fill" to="#808080" begin="arrowDown.mouseover" end="arrowDown.mouseout"/>
                  </use>
                  <path fill="none" stroke="white" stroke-width="1.5" d="M0,-3.0v7 M-2.5,-0.5L0,-3.0L2.5,-0.5"/>
                </g>
                <g id="arrowLeft" xlink:href="#dirArrow" transform="rotate(270) translate(-36 17)" onmousedown="handlePan(-1,0)">
                  <use xlink:href="#rim" fill="#404040">
                        <set attributeName="fill" to="#808080" begin="arrowLeft.mouseover" end="arrowLeft.mouseout"/>
                  </use>
                  <path fill="none" stroke="white" stroke-width="1.5" d="M0,-3.0v7 M-2.5,-0.5L0,-3.0L2.5,-0.5"/>
                </g>
        </g>
        <svg viewBox="0 0 15 15" width="100%" height="30px" preserveAspectRatio="xMaxYMin meet">
         <g id="arrow_out" transform="scale(0.3 0.3)">
          <a xlink:href="class_m_k_a6260d558e7b3321b891b1906ecba0901_cgraph_org.svg" target="_base">
           <rect id="button" ry="5" rx="5" y="6" x="6" height="38" width="38"
                fill="#f2f5e9" fill-opacity="0.5" stroke="#606060" stroke-width="1.0"/>
           <path id="arrow"
             d="M 11.500037,31.436501 C 11.940474,20.09759 22.043105,11.32322 32.158766,21.979434 L 37.068811,17.246167 C 37.068811,17.246167 37.088388,32 37.088388,32 L 22.160133,31.978069 C 22.160133,31.978069 26.997745,27.140456 26.997745,27.140456 C 18.528582,18.264221 13.291696,25.230495 11.500037,31.436501 z"
             style="fill:#404040;"/>
          </a>
         </g>
        </svg>
</svg>
