<?xml version="1.0" encoding="UTF-8" standalone="no"?>
<!DOCTYPE svg PUBLIC "-//W3C//DTD SVG 1.1//EN"
 "http://www.w3.org/Graphics/SVG/1.1/DTD/svg11.dtd">
<!-- Generated by graphviz version 2.38.0 (20140413.2041)
 -->
<!-- Title: uORB::Manager::orb_check Pages: 1 -->
<svg width="774pt" height="2036pt"
 viewBox="0.00 0.00 774.00 2035.50" xmlns="http://www.w3.org/2000/svg" xmlns:xlink="http://www.w3.org/1999/xlink">
<g id="graph0" class="graph" transform="scale(1 1) rotate(0) translate(4 2031.5)">
<title>uORB::Manager::orb_check</title>
<polygon fill="white" stroke="none" points="-4,4 -4,-2031.5 770,-2031.5 770,4 -4,4"/>
<!-- Node1 -->
<g id="node1" class="node"><title>Node1</title>
<polygon fill="#bfbfbf" stroke="black" points="0,-1646.5 0,-1676.5 107,-1676.5 107,-1646.5 0,-1646.5"/>
<text text-anchor="start" x="8" y="-1664.5" font-family="Helvetica,sans-Serif" font-size="10.00">uORB::Manager::orb</text>
<text text-anchor="middle" x="53.5" y="-1653.5" font-family="Helvetica,sans-Serif" font-size="10.00">_check</text>
</g>
<!-- Node2 -->
<g id="node2" class="node"><title>Node2</title>
<g id="a_node2"><a xlink:href="../../d3/da9/classu_o_r_b_1_1_manager.html#a42e075fba5970aa0730faab182e2083f" target="_top" xlink:title="Advertise as the publisher of a topic. ">
<polygon fill="white" stroke="black" points="143,-1860.5 143,-1890.5 250,-1890.5 250,-1860.5 143,-1860.5"/>
<text text-anchor="start" x="151" y="-1878.5" font-family="Helvetica,sans-Serif" font-size="10.00">uORB::Manager::orb</text>
<text text-anchor="middle" x="196.5" y="-1867.5" font-family="Helvetica,sans-Serif" font-size="10.00">_advertise</text>
</a>
</g>
</g>
<!-- Node1&#45;&gt;Node2 -->
<g id="edge1" class="edge"><title>Node1&#45;&gt;Node2</title>
<path fill="none" stroke="midnightblue" d="M69.9398,-1684.93C99.0709,-1729.15 161.387,-1823.73 185.596,-1860.47"/>
<polygon fill="midnightblue" stroke="midnightblue" points="72.8394,-1682.97 64.4148,-1676.55 66.9941,-1686.82 72.8394,-1682.97"/>
</g>
<!-- Node10 -->
<g id="node10" class="node"><title>Node10</title>
<g id="a_node10"><a xlink:href="../../db/dd6/u_o_r_b_8h.html#a07321835961fc4716cef539db2fde628" target="_top" xlink:title="orb_check">
<polygon fill="white" stroke="red" points="308.5,-1078 308.5,-1097 370.5,-1097 370.5,-1078 308.5,-1078"/>
<text text-anchor="middle" x="339.5" y="-1085" font-family="Helvetica,sans-Serif" font-size="10.00">orb_check</text>
</a>
</g>
</g>
<!-- Node1&#45;&gt;Node10 -->
<g id="edge9" class="edge"><title>Node1&#45;&gt;Node10</title>
<path fill="none" stroke="midnightblue" d="M66.3861,-1637.48C115.445,-1538.32 301.132,-1163.02 333.631,-1097.34"/>
<polygon fill="midnightblue" stroke="midnightblue" points="63.248,-1635.93 61.9503,-1646.44 69.522,-1639.03 63.248,-1635.93"/>
</g>
<!-- Node3 -->
<g id="node3" class="node"><title>Node3</title>
<g id="a_node3"><a xlink:href="../../db/dd6/u_o_r_b_8h.html#a4fb3ce3262e359641938be9b6e0019f0" target="_top" xlink:title="orb_advertise">
<polygon fill="white" stroke="red" points="302,-1866 302,-1885 377,-1885 377,-1866 302,-1866"/>
<text text-anchor="middle" x="339.5" y="-1873" font-family="Helvetica,sans-Serif" font-size="10.00">orb_advertise</text>
</a>
</g>
</g>
<!-- Node2&#45;&gt;Node3 -->
<g id="edge2" class="edge"><title>Node2&#45;&gt;Node3</title>
<path fill="none" stroke="midnightblue" d="M260.238,-1875.5C274.444,-1875.5 289.076,-1875.5 301.788,-1875.5"/>
<polygon fill="midnightblue" stroke="midnightblue" points="260.003,-1872 250.003,-1875.5 260.003,-1879 260.003,-1872"/>
</g>
<!-- Node7 -->
<g id="node7" class="node"><title>Node7</title>
<g id="a_node7"><a xlink:href="../../db/dd6/u_o_r_b_8h.html#a3caf751f3b3ad790628fc954a541bb85" target="_top" xlink:title="orb_advertise_queue">
<polygon fill="white" stroke="red" points="286,-1964 286,-1983 393,-1983 393,-1964 286,-1964"/>
<text text-anchor="middle" x="339.5" y="-1971" font-family="Helvetica,sans-Serif" font-size="10.00">orb_advertise_queue</text>
</a>
</g>
</g>
<!-- Node2&#45;&gt;Node7 -->
<g id="edge6" class="edge"><title>Node2&#45;&gt;Node7</title>
<path fill="none" stroke="midnightblue" d="M227.635,-1896.44C257.611,-1917.28 302.271,-1948.32 324.657,-1963.88"/>
<polygon fill="midnightblue" stroke="midnightblue" points="229.431,-1893.43 219.222,-1890.6 225.436,-1899.18 229.431,-1893.43"/>
</g>
<!-- Node4 -->
<g id="node4" class="node"><title>Node4</title>
<g id="a_node4"><a xlink:href="../../d3/de0/class_muorb_test_example.html#a72bc5988dfea86bfe367c9aeb6be7eba" target="_top" xlink:title="MuorbTestExample::DefaultTest">
<polygon fill="white" stroke="red" points="429,-1822 429,-1841 587,-1841 587,-1822 429,-1822"/>
<text text-anchor="middle" x="508" y="-1829" font-family="Helvetica,sans-Serif" font-size="10.00">MuorbTestExample::DefaultTest</text>
</a>
</g>
</g>
<!-- Node3&#45;&gt;Node4 -->
<g id="edge3" class="edge"><title>Node3&#45;&gt;Node4</title>
<path fill="none" stroke="midnightblue" d="M382.953,-1863.17C397.52,-1859.03 413.945,-1854.46 429,-1850.5 441.131,-1847.31 454.374,-1844.01 466.446,-1841.08"/>
<polygon fill="midnightblue" stroke="midnightblue" points="381.858,-1859.84 373.205,-1865.95 383.782,-1866.57 381.858,-1859.84"/>
</g>
<!-- Node5 -->
<g id="node5" class="node"><title>Node5</title>
<g id="a_node5"><a xlink:href="../../d7/d6f/class_vtol_attitude_control.html#a59658352cd03b2f47f823c5428eb8f1e" target="_top" xlink:title="Prepare message for fw attitude rates setpoint topic. ">
<polygon fill="white" stroke="black" points="454.5,-1909.5 454.5,-1939.5 561.5,-1939.5 561.5,-1909.5 454.5,-1909.5"/>
<text text-anchor="start" x="462.5" y="-1927.5" font-family="Helvetica,sans-Serif" font-size="10.00">VtolAttitudeControl</text>
<text text-anchor="middle" x="508" y="-1916.5" font-family="Helvetica,sans-Serif" font-size="10.00">::fill_fw_att_rates_sp</text>
</a>
</g>
</g>
<!-- Node3&#45;&gt;Node5 -->
<g id="edge4" class="edge"><title>Node3&#45;&gt;Node5</title>
<path fill="none" stroke="midnightblue" d="M382.818,-1887.95C405.059,-1894.5 432.487,-1902.57 455.905,-1909.46"/>
<polygon fill="midnightblue" stroke="midnightblue" points="383.579,-1884.53 372.998,-1885.06 381.603,-1891.24 383.579,-1884.53"/>
</g>
<!-- Node6 -->
<g id="node6" class="node"><title>Node6</title>
<g id="a_node6"><a xlink:href="../../d7/d6f/class_vtol_attitude_control.html#a4e7fe5853770c2b1dfcdae8816c88458" target="_top" xlink:title="Prepare message for mc attitude rates setpoint topic. ">
<polygon fill="white" stroke="black" points="453,-1860.5 453,-1890.5 563,-1890.5 563,-1860.5 453,-1860.5"/>
<text text-anchor="start" x="461" y="-1878.5" font-family="Helvetica,sans-Serif" font-size="10.00">VtolAttitudeControl</text>
<text text-anchor="middle" x="508" y="-1867.5" font-family="Helvetica,sans-Serif" font-size="10.00">::fill_mc_att_rates_sp</text>
</a>
</g>
</g>
<!-- Node3&#45;&gt;Node6 -->
<g id="edge5" class="edge"><title>Node3&#45;&gt;Node6</title>
<path fill="none" stroke="midnightblue" d="M387.048,-1875.5C407.48,-1875.5 431.601,-1875.5 452.834,-1875.5"/>
<polygon fill="midnightblue" stroke="midnightblue" points="387.039,-1872 377.039,-1875.5 387.039,-1879 387.039,-1872"/>
</g>
<!-- Node8 -->
<g id="node8" class="node"><title>Node8</title>
<g id="a_node8"><a xlink:href="../../dc/d0c/class_flight_tasks.html#a8264a8ba9d1c4535dcfbca0a414d16de" target="_top" xlink:title="Check for vehicle commands (received via MAVLink), evaluate and acknowledge them. ...">
<polygon fill="white" stroke="red" points="431.5,-2008 431.5,-2027 584.5,-2027 584.5,-2008 431.5,-2008"/>
<text text-anchor="middle" x="508" y="-2015" font-family="Helvetica,sans-Serif" font-size="10.00">FlightTasks::_updateCommand</text>
</a>
</g>
</g>
<!-- Node7&#45;&gt;Node8 -->
<g id="edge7" class="edge"><title>Node7&#45;&gt;Node8</title>
<path fill="none" stroke="midnightblue" d="M385.245,-1985.76C399.245,-1989.57 414.755,-1993.74 429,-1997.5 442.112,-2000.96 456.486,-2004.67 469.283,-2007.94"/>
<polygon fill="midnightblue" stroke="midnightblue" points="385.926,-1982.32 375.358,-1983.07 384.088,-1989.08 385.926,-1982.32"/>
</g>
<!-- Node9 -->
<g id="node9" class="node"><title>Node9</title>
<g id="a_node9"><a xlink:href="../../dc/d86/class_camera_trigger.html#a19206d547f751409dedd3fd1c93995f4" target="_top" xlink:title="Vehicle command handler. ">
<polygon fill="white" stroke="red" points="453,-1958.5 453,-1988.5 563,-1988.5 563,-1958.5 453,-1958.5"/>
<text text-anchor="start" x="461" y="-1976.5" font-family="Helvetica,sans-Serif" font-size="10.00">CameraTrigger::cycle</text>
<text text-anchor="middle" x="508" y="-1965.5" font-family="Helvetica,sans-Serif" font-size="10.00">_trampoline</text>
</a>
</g>
</g>
<!-- Node7&#45;&gt;Node9 -->
<g id="edge8" class="edge"><title>Node7&#45;&gt;Node9</title>
<path fill="none" stroke="midnightblue" d="M403.202,-1973.5C419.569,-1973.5 437.066,-1973.5 452.942,-1973.5"/>
<polygon fill="midnightblue" stroke="midnightblue" points="403.182,-1970 393.182,-1973.5 403.182,-1977 403.182,-1970"/>
</g>
<!-- Node10&#45;&gt;Node4 -->
<g id="edge41" class="edge"><title>Node10&#45;&gt;Node4</title>
<path fill="none" stroke="midnightblue" d="M341.585,-1107.27C347.832,-1217.99 380.638,-1758.1 429,-1812.5 432.334,-1816.25 436.272,-1819.32 440.579,-1821.83"/>
<polygon fill="midnightblue" stroke="midnightblue" points="345.073,-1106.96 341.022,-1097.17 338.084,-1107.35 345.073,-1106.96"/>
</g>
<!-- Node10&#45;&gt;Node5 -->
<g id="edge46" class="edge"><title>Node10&#45;&gt;Node5</title>
<path fill="none" stroke="midnightblue" d="M341.382,-1107.32C346.812,-1225.66 377.201,-1836.04 429,-1899.5 435.564,-1907.54 444.727,-1913.03 454.474,-1916.77"/>
<polygon fill="midnightblue" stroke="midnightblue" points="344.871,-1107 340.922,-1097.17 337.878,-1107.32 344.871,-1107"/>
</g>
<!-- Node10&#45;&gt;Node6 -->
<g id="edge47" class="edge"><title>Node10&#45;&gt;Node6</title>
<path fill="none" stroke="midnightblue" d="M341.519,-1107.17C347.577,-1220.9 380.235,-1791.18 429,-1850.5 435.231,-1858.08 443.769,-1863.39 452.919,-1867.1"/>
<polygon fill="midnightblue" stroke="midnightblue" points="345.011,-1106.91 340.99,-1097.11 338.02,-1107.28 345.011,-1106.91"/>
</g>
<!-- Node10&#45;&gt;Node8 -->
<g id="edge20" class="edge"><title>Node10&#45;&gt;Node8</title>
<path fill="none" stroke="midnightblue" d="M341.79,-1107.42C350.296,-1237.56 398.927,-1962.4 429,-1997.5 432.638,-2001.75 437.044,-2005.15 441.888,-2007.88"/>
<polygon fill="midnightblue" stroke="midnightblue" points="345.273,-1107.05 341.131,-1097.3 338.288,-1107.5 345.273,-1107.05"/>
</g>
<!-- Node10&#45;&gt;Node9 -->
<g id="edge40" class="edge"><title>Node10&#45;&gt;Node9</title>
<path fill="none" stroke="midnightblue" d="M341.254,-1107.36C346.076,-1229.95 374.148,-1880.88 429,-1948.5 435.181,-1956.12 443.697,-1961.45 452.84,-1965.17"/>
<polygon fill="midnightblue" stroke="midnightblue" points="344.744,-1107.04 340.86,-1097.18 337.75,-1107.31 344.744,-1107.04"/>
</g>
<!-- Node11 -->
<g id="node11" class="node"><title>Node11</title>
<g id="a_node11"><a xlink:href="../../d3/d6e/classlanding__target__estimator_1_1_landing_target_estimator.html#aaacb4593467952edc1c28c3bf54c9784" target="_top" xlink:title="landing_target_estimator\l::LandingTargetEstimator\l::_check_params">
<polygon fill="white" stroke="red" points="445,-1146 445,-1187 571,-1187 571,-1146 445,-1146"/>
<text text-anchor="start" x="453" y="-1175" font-family="Helvetica,sans-Serif" font-size="10.00">landing_target_estimator</text>
<text text-anchor="start" x="453" y="-1164" font-family="Helvetica,sans-Serif" font-size="10.00">::LandingTargetEstimator</text>
<text text-anchor="middle" x="508" y="-1153" font-family="Helvetica,sans-Serif" font-size="10.00">::_check_params</text>
</a>
</g>
</g>
<!-- Node10&#45;&gt;Node11 -->
<g id="edge10" class="edge"><title>Node10&#45;&gt;Node11</title>
<path fill="none" stroke="midnightblue" d="M365.114,-1102.34C382.61,-1112.58 406.841,-1126.17 429,-1136.5 435.969,-1139.75 443.395,-1142.94 450.792,-1145.96"/>
<polygon fill="midnightblue" stroke="midnightblue" points="366.532,-1099.11 356.143,-1097.03 362.968,-1105.13 366.532,-1099.11"/>
</g>
<!-- Node12 -->
<g id="node12" class="node"><title>Node12</title>
<g id="a_node12"><a xlink:href="../../d8/d1f/classland__detector_1_1_land_detector.html#a269e103b9078510d8031ab1c73fc1e1d" target="_top" xlink:title="land_detector::LandDetector\l::_check_params">
<polygon fill="white" stroke="red" points="438,-1097.5 438,-1127.5 578,-1127.5 578,-1097.5 438,-1097.5"/>
<text text-anchor="start" x="446" y="-1115.5" font-family="Helvetica,sans-Serif" font-size="10.00">land_detector::LandDetector</text>
<text text-anchor="middle" x="508" y="-1104.5" font-family="Helvetica,sans-Serif" font-size="10.00">::_check_params</text>
</a>
</g>
</g>
<!-- Node10&#45;&gt;Node12 -->
<g id="edge11" class="edge"><title>Node10&#45;&gt;Node12</title>
<path fill="none" stroke="midnightblue" d="M380.823,-1093.55C397.911,-1096.12 418.32,-1099.18 437.693,-1102.09"/>
<polygon fill="midnightblue" stroke="midnightblue" points="381.061,-1090.05 370.652,-1092.03 380.021,-1096.97 381.061,-1090.05"/>
</g>
<!-- Node13 -->
<g id="node13" class="node"><title>Node13</title>
<g id="a_node13"><a xlink:href="../../d2/d86/classvmount_1_1_output_base.html#a63ca320abfe9fe7e2e54be97a3bb1335" target="_top" xlink:title="check if vehicle position changed and update the setpoint angles if in gps mode ">
<polygon fill="white" stroke="red" points="443,-1048.5 443,-1078.5 573,-1078.5 573,-1048.5 443,-1048.5"/>
<text text-anchor="start" x="451" y="-1066.5" font-family="Helvetica,sans-Serif" font-size="10.00">vmount::OutputBase</text>
<text text-anchor="middle" x="508" y="-1055.5" font-family="Helvetica,sans-Serif" font-size="10.00">::_handle_position_update</text>
</a>
</g>
</g>
<!-- Node10&#45;&gt;Node13 -->
<g id="edge12" class="edge"><title>Node10&#45;&gt;Node13</title>
<path fill="none" stroke="midnightblue" d="M380.582,-1081.72C399.263,-1079.03 421.954,-1075.76 442.927,-1072.74"/>
<polygon fill="midnightblue" stroke="midnightblue" points="380.05,-1078.26 370.652,-1083.15 381.049,-1085.19 380.05,-1078.26"/>
</g>
<!-- Node14 -->
<g id="node14" class="node"><title>Node14</title>
<g id="a_node14"><a xlink:href="../../d3/d6e/classlanding__target__estimator_1_1_landing_target_estimator.html#a41ae6e5aa3c8209591af80be7d0766d9" target="_top" xlink:title="landing_target_estimator\l::LandingTargetEstimator\l::_orb_update">
<polygon fill="white" stroke="red" points="445,-989 445,-1030 571,-1030 571,-989 445,-989"/>
<text text-anchor="start" x="453" y="-1018" font-family="Helvetica,sans-Serif" font-size="10.00">landing_target_estimator</text>
<text text-anchor="start" x="453" y="-1007" font-family="Helvetica,sans-Serif" font-size="10.00">::LandingTargetEstimator</text>
<text text-anchor="middle" x="508" y="-996" font-family="Helvetica,sans-Serif" font-size="10.00">::_orb_update</text>
</a>
</g>
</g>
<!-- Node10&#45;&gt;Node14 -->
<g id="edge13" class="edge"><title>Node10&#45;&gt;Node14</title>
<path fill="none" stroke="midnightblue" d="M365.078,-1072.59C382.558,-1062.31 406.784,-1048.71 429,-1038.5 435.301,-1035.6 441.981,-1032.77 448.677,-1030.09"/>
<polygon fill="midnightblue" stroke="midnightblue" points="362.924,-1069.8 356.117,-1077.91 366.501,-1075.81 362.924,-1069.8"/>
</g>
<!-- Node15 -->
<g id="node15" class="node"><title>Node15</title>
<g id="a_node15"><a xlink:href="../../d8/d1f/classland__detector_1_1_land_detector.html#a415c9a8d7195f4550fae8edf6eb84870" target="_top" xlink:title="Convenience function for polling uORB subscriptions. ">
<polygon fill="white" stroke="red" points="438,-940.5 438,-970.5 578,-970.5 578,-940.5 438,-940.5"/>
<text text-anchor="start" x="446" y="-958.5" font-family="Helvetica,sans-Serif" font-size="10.00">land_detector::LandDetector</text>
<text text-anchor="middle" x="508" y="-947.5" font-family="Helvetica,sans-Serif" font-size="10.00">::_orb_update</text>
</a>
</g>
</g>
<!-- Node10&#45;&gt;Node15 -->
<g id="edge14" class="edge"><title>Node10&#45;&gt;Node15</title>
<path fill="none" stroke="midnightblue" d="M350.92,-1068.97C365.39,-1044.89 393.803,-1003.14 429,-979.5 434.058,-976.103 439.617,-973.171 445.366,-970.642"/>
<polygon fill="midnightblue" stroke="midnightblue" points="347.771,-1067.42 345.753,-1077.82 353.817,-1070.95 347.771,-1067.42"/>
</g>
<!-- Node16 -->
<g id="node16" class="node"><title>Node16</title>
<g id="a_node16"><a xlink:href="../../d9/d0b/class_df_a_k8963_wrapper.html#ab55ed30cea532bcb2cccf58268e9bb40" target="_top" xlink:title="DfAK8963Wrapper::_publish">
<polygon fill="white" stroke="black" points="438,-902 438,-921 578,-921 578,-902 438,-902"/>
<text text-anchor="middle" x="508" y="-909" font-family="Helvetica,sans-Serif" font-size="10.00">DfAK8963Wrapper::_publish</text>
</a>
</g>
</g>
<!-- Node10&#45;&gt;Node16 -->
<g id="edge15" class="edge"><title>Node10&#45;&gt;Node16</title>
<path fill="none" stroke="midnightblue" d="M345.879,-1068.03C356.176,-1034.53 381.941,-966.143 429,-930.5 434.111,-926.629 439.903,-923.536 445.968,-921.066"/>
<polygon fill="midnightblue" stroke="midnightblue" points="342.424,-1067.38 342.972,-1077.96 349.142,-1069.34 342.424,-1067.38"/>
</g>
<!-- Node17 -->
<g id="node17" class="node"><title>Node17</title>
<g id="a_node17"><a xlink:href="../../d7/d3e/class_df_hmc5883_wrapper.html#a9a09f3f8a4592611e2c99b42c6e14104" target="_top" xlink:title="DfHmc5883Wrapper::\l_publish">
<polygon fill="white" stroke="black" points="452,-852.5 452,-882.5 564,-882.5 564,-852.5 452,-852.5"/>
<text text-anchor="start" x="460" y="-870.5" font-family="Helvetica,sans-Serif" font-size="10.00">DfHmc5883Wrapper::</text>
<text text-anchor="middle" x="508" y="-859.5" font-family="Helvetica,sans-Serif" font-size="10.00">_publish</text>
</a>
</g>
</g>
<!-- Node10&#45;&gt;Node17 -->
<g id="edge16" class="edge"><title>Node10&#45;&gt;Node17</title>
<path fill="none" stroke="midnightblue" d="M343.934,-1067.89C351.802,-1028.79 374.802,-940.755 429,-892.5 435.585,-886.637 443.555,-882.148 451.854,-878.711"/>
<polygon fill="midnightblue" stroke="midnightblue" points="340.489,-1067.27 342.067,-1077.75 347.366,-1068.57 340.489,-1067.27"/>
</g>
<!-- Node18 -->
<g id="node18" class="node"><title>Node18</title>
<g id="a_node18"><a xlink:href="../../d8/dfe/class_df_m_p_u6050_wrapper.html#a6751a630160031b4901b8269d87452ef" target="_top" xlink:title="DfMPU6050Wrapper::\l_publish">
<polygon fill="white" stroke="black" points="451.5,-803.5 451.5,-833.5 564.5,-833.5 564.5,-803.5 451.5,-803.5"/>
<text text-anchor="start" x="459.5" y="-821.5" font-family="Helvetica,sans-Serif" font-size="10.00">DfMPU6050Wrapper::</text>
<text text-anchor="middle" x="508" y="-810.5" font-family="Helvetica,sans-Serif" font-size="10.00">_publish</text>
</a>
</g>
</g>
<!-- Node10&#45;&gt;Node18 -->
<g id="edge17" class="edge"><title>Node10&#45;&gt;Node18</title>
<path fill="none" stroke="midnightblue" d="M341.831,-1067.73C346.017,-1021.5 362.903,-905.489 429,-842.5 435.359,-836.44 443.213,-831.907 451.465,-828.518"/>
<polygon fill="midnightblue" stroke="midnightblue" points="338.326,-1067.66 341.019,-1077.91 345.304,-1068.22 338.326,-1067.66"/>
</g>
<!-- Node19 -->
<g id="node19" class="node"><title>Node19</title>
<g id="a_node19"><a xlink:href="../../df/d43/class_df_lsm9ds1_wrapper.html#a90885ef37d746377c85a37142ace5d93" target="_top" xlink:title="DfLsm9ds1Wrapper::\l_publish">
<polygon fill="white" stroke="black" points="453,-754.5 453,-784.5 563,-784.5 563,-754.5 453,-754.5"/>
<text text-anchor="start" x="461" y="-772.5" font-family="Helvetica,sans-Serif" font-size="10.00">DfLsm9ds1Wrapper::</text>
<text text-anchor="middle" x="508" y="-761.5" font-family="Helvetica,sans-Serif" font-size="10.00">_publish</text>
</a>
</g>
</g>
<!-- Node10&#45;&gt;Node19 -->
<g id="edge18" class="edge"><title>Node10&#45;&gt;Node19</title>
<path fill="none" stroke="midnightblue" d="M340.445,-1067.45C341.419,-1014.84 351.446,-871.529 429,-793.5 435.592,-786.868 443.969,-782.06 452.773,-778.577"/>
<polygon fill="midnightblue" stroke="midnightblue" points="336.943,-1067.73 340.354,-1077.76 343.942,-1067.79 336.943,-1067.73"/>
</g>
<!-- Node20 -->
<g id="node20" class="node"><title>Node20</title>
<g id="a_node20"><a xlink:href="../../df/d4c/class_df_mpu9250_wrapper.html#a731b19d90418d3ec545122f2d097040e" target="_top" xlink:title="DfMpu9250Wrapper::\l_publish">
<polygon fill="white" stroke="black" points="453,-705.5 453,-735.5 563,-735.5 563,-705.5 453,-705.5"/>
<text text-anchor="start" x="461" y="-723.5" font-family="Helvetica,sans-Serif" font-size="10.00">DfMpu9250Wrapper::</text>
<text text-anchor="middle" x="508" y="-712.5" font-family="Helvetica,sans-Serif" font-size="10.00">_publish</text>
</a>
</g>
</g>
<!-- Node10&#45;&gt;Node20 -->
<g id="edge19" class="edge"><title>Node10&#45;&gt;Node20</title>
<path fill="none" stroke="midnightblue" d="M343.059,-1067.68C351.927,-1001.91 383.321,-792.329 429,-744.5 435.556,-737.635 444.023,-732.72 452.952,-729.203"/>
<polygon fill="midnightblue" stroke="midnightblue" points="339.548,-1067.53 341.707,-1077.91 346.487,-1068.45 339.548,-1067.53"/>
</g>
<!-- Node21 -->
<g id="node21" class="node"><title>Node21</title>
<g id="a_node21"><a xlink:href="../../d4/d81/class_q_shell.html#a841068be620274486bc99c869656b547" target="_top" xlink:title="QShell::_wait_for_retval">
<polygon fill="white" stroke="red" points="447.5,-667 447.5,-686 568.5,-686 568.5,-667 447.5,-667"/>
<text text-anchor="middle" x="508" y="-674" font-family="Helvetica,sans-Serif" font-size="10.00">QShell::_wait_for_retval</text>
</a>
</g>
</g>
<!-- Node10&#45;&gt;Node21 -->
<g id="edge21" class="edge"><title>Node10&#45;&gt;Node21</title>
<path fill="none" stroke="midnightblue" d="M342.259,-1067.61C349.026,-995.57 375.714,-749.694 429,-695.5 434.179,-690.233 440.557,-686.332 447.415,-683.458"/>
<polygon fill="midnightblue" stroke="midnightblue" points="338.737,-1067.68 341.312,-1077.96 345.708,-1068.32 338.737,-1067.68"/>
</g>
<!-- Node22 -->
<g id="node22" class="node"><title>Node22</title>
<g id="a_node22"><a xlink:href="../../d9/dc3/classsensors_1_1_voted_sensors_update.html#a7360066d2a00dc90121e1e90278c4fcd" target="_top" xlink:title="Poll the accelerometer for updated data. ">
<polygon fill="white" stroke="red" points="433,-617.5 433,-647.5 583,-647.5 583,-617.5 433,-617.5"/>
<text text-anchor="start" x="441" y="-635.5" font-family="Helvetica,sans-Serif" font-size="10.00">sensors::VotedSensorsUpdate</text>
<text text-anchor="middle" x="508" y="-624.5" font-family="Helvetica,sans-Serif" font-size="10.00">::accel_poll</text>
</a>
</g>
</g>
<!-- Node10&#45;&gt;Node22 -->
<g id="edge22" class="edge"><title>Node10&#45;&gt;Node22</title>
<path fill="none" stroke="midnightblue" d="M341.957,-1067.79C347.948,-991.916 373.049,-719.795 429,-657.5 432.421,-653.691 436.422,-650.46 440.773,-647.718"/>
<polygon fill="midnightblue" stroke="midnightblue" points="338.459,-1067.63 341.184,-1077.87 345.439,-1068.17 338.459,-1067.63"/>
</g>
<!-- Node23 -->
<g id="node23" class="node"><title>Node23</title>
<g id="a_node23"><a xlink:href="../../d7/d6f/class_vtol_attitude_control.html#a42cd6eed7b21156b0bd5c8d2ef88ac5f" target="_top" xlink:title="Check for inputs from fw attitude controller. ">
<polygon fill="white" stroke="black" points="458.5,-558 458.5,-599 557.5,-599 557.5,-558 458.5,-558"/>
<text text-anchor="start" x="466.5" y="-587" font-family="Helvetica,sans-Serif" font-size="10.00">VtolAttitudeControl</text>
<text text-anchor="start" x="466.5" y="-576" font-family="Helvetica,sans-Serif" font-size="10.00">::actuator_controls</text>
<text text-anchor="middle" x="508" y="-565" font-family="Helvetica,sans-Serif" font-size="10.00">_fw_poll</text>
</a>
</g>
</g>
<!-- Node10&#45;&gt;Node23 -->
<g id="edge23" class="edge"><title>Node10&#45;&gt;Node23</title>
<path fill="none" stroke="midnightblue" d="M341.625,-1067.2C346.553,-985.174 368.746,-679.242 429,-607.5 436.619,-598.428 447.36,-592.193 458.441,-587.907"/>
<polygon fill="midnightblue" stroke="midnightblue" points="338.106,-1067.43 341.021,-1077.62 345.094,-1067.84 338.106,-1067.43"/>
</g>
<!-- Node24 -->
<g id="node24" class="node"><title>Node24</title>
<g id="a_node24"><a xlink:href="../../d7/d6f/class_vtol_attitude_control.html#aeebb39f28919cb37c208d3ba955bf42c" target="_top" xlink:title="Check for inputs from mc attitude controller. ">
<polygon fill="white" stroke="black" points="458.5,-498 458.5,-539 557.5,-539 557.5,-498 458.5,-498"/>
<text text-anchor="start" x="466.5" y="-527" font-family="Helvetica,sans-Serif" font-size="10.00">VtolAttitudeControl</text>
<text text-anchor="start" x="466.5" y="-516" font-family="Helvetica,sans-Serif" font-size="10.00">::actuator_controls</text>
<text text-anchor="middle" x="508" y="-505" font-family="Helvetica,sans-Serif" font-size="10.00">_mc_poll</text>
</a>
</g>
</g>
<!-- Node10&#45;&gt;Node24 -->
<g id="edge24" class="edge"><title>Node10&#45;&gt;Node24</title>
<path fill="none" stroke="midnightblue" d="M341.184,-1067.58C344.564,-980.096 362.114,-630.676 429,-548.5 436.51,-539.273 447.212,-532.879 458.29,-528.45"/>
<polygon fill="midnightblue" stroke="midnightblue" points="337.681,-1067.61 340.811,-1077.73 344.676,-1067.87 337.681,-1067.61"/>
</g>
<!-- Node25 -->
<g id="node25" class="node"><title>Node25</title>
<g id="a_node25"><a xlink:href="../../d6/dda/arm__auth_8h.html#abf123d7c61c3f3d48f367a5ab4335318" target="_top" xlink:title="arm_auth_update">
<polygon fill="white" stroke="red" points="462,-460 462,-479 554,-479 554,-460 462,-460"/>
<text text-anchor="middle" x="508" y="-467" font-family="Helvetica,sans-Serif" font-size="10.00">arm_auth_update</text>
</a>
</g>
</g>
<!-- Node10&#45;&gt;Node25 -->
<g id="edge25" class="edge"><title>Node10&#45;&gt;Node25</title>
<path fill="none" stroke="midnightblue" d="M340.568,-1067.86C341.297,-974.463 349.112,-576.12 429,-488.5 437.451,-479.231 449.601,-474.13 461.804,-471.414"/>
<polygon fill="midnightblue" stroke="midnightblue" points="337.068,-1067.89 340.509,-1077.91 344.068,-1067.93 337.068,-1067.89"/>
</g>
<!-- Node26 -->
<g id="node26" class="node"><title>Node26</title>
<g id="a_node26"><a xlink:href="../../d9/dc3/classsensors_1_1_voted_sensors_update.html#a653f7a53eb74b9af44d3cb5edc60f06b" target="_top" xlink:title="Poll the barometer for updated data. ">
<polygon fill="white" stroke="red" points="433,-410.5 433,-440.5 583,-440.5 583,-410.5 433,-410.5"/>
<text text-anchor="start" x="441" y="-428.5" font-family="Helvetica,sans-Serif" font-size="10.00">sensors::VotedSensorsUpdate</text>
<text text-anchor="middle" x="508" y="-417.5" font-family="Helvetica,sans-Serif" font-size="10.00">::baro_poll</text>
</a>
</g>
</g>
<!-- Node10&#45;&gt;Node26 -->
<g id="edge26" class="edge"><title>Node10&#45;&gt;Node26</title>
<path fill="none" stroke="midnightblue" d="M340.513,-1067.67C340.974,-970.706 347.677,-547.18 429,-450.5 432.204,-446.691 435.99,-443.457 440.138,-440.71"/>
<polygon fill="midnightblue" stroke="midnightblue" points="337.013,-1067.83 340.484,-1077.84 344.013,-1067.85 337.013,-1067.83"/>
</g>
<!-- Node27 -->
<g id="node27" class="node"><title>Node27</title>
<g id="a_node27"><a xlink:href="../../d9/d0c/class_multicopter_attitude_control.html#addc37534f96e52475895fa1ea65f4de1" target="_top" xlink:title="Check for parameter update and handle it. ">
<polygon fill="white" stroke="red" points="443,-361.5 443,-391.5 573,-391.5 573,-361.5 443,-361.5"/>
<text text-anchor="start" x="451" y="-379.5" font-family="Helvetica,sans-Serif" font-size="10.00">MulticopterAttitudeControl</text>
<text text-anchor="middle" x="508" y="-368.5" font-family="Helvetica,sans-Serif" font-size="10.00">::battery_status_poll</text>
</a>
</g>
</g>
<!-- Node10&#45;&gt;Node27 -->
<g id="edge27" class="edge"><title>Node10&#45;&gt;Node27</title>
<path fill="none" stroke="midnightblue" d="M340.266,-1067.4C339.485,-965.296 340.955,-504.987 429,-400.5 432.834,-395.949 437.51,-392.246 442.648,-389.234"/>
<polygon fill="midnightblue" stroke="midnightblue" points="336.768,-1067.6 340.362,-1077.56 343.768,-1067.53 336.768,-1067.6"/>
</g>
<!-- Node28 -->
<g id="node28" class="node"><title>Node28</title>
<g id="a_node28"><a xlink:href="../../de/dbb/class_ground_rover_attitude_control.html#afb5b7cf06bd9d16e618b019d6d2409ab" target="_top" xlink:title="GroundRoverAttitudeControl\l::battery_status_poll">
<polygon fill="white" stroke="red" points="438,-312.5 438,-342.5 578,-342.5 578,-312.5 438,-312.5"/>
<text text-anchor="start" x="446" y="-330.5" font-family="Helvetica,sans-Serif" font-size="10.00">GroundRoverAttitudeControl</text>
<text text-anchor="middle" x="508" y="-319.5" font-family="Helvetica,sans-Serif" font-size="10.00">::battery_status_poll</text>
</a>
</g>
</g>
<!-- Node10&#45;&gt;Node28 -->
<g id="edge28" class="edge"><title>Node10&#45;&gt;Node28</title>
<path fill="none" stroke="midnightblue" d="M341.596,-1067.83C347.966,-956.484 381.582,-408.257 429,-351.5 431.816,-348.129 435.094,-345.223 438.68,-342.718"/>
<polygon fill="midnightblue" stroke="midnightblue" points="338.093,-1067.79 341.023,-1077.97 345.082,-1068.18 338.093,-1067.79"/>
</g>
<!-- Node29 -->
<g id="node29" class="node"><title>Node29</title>
<g id="a_node29"><a xlink:href="../../d3/dff/class_uavcan_gnss_bridge.html#aa60fadb3d81a859baf84bdb92f01863e" target="_top" xlink:title="UavcanGnssBridge::broadcast\l_from_orb">
<polygon fill="white" stroke="red" points="433,-263.5 433,-293.5 583,-293.5 583,-263.5 433,-263.5"/>
<text text-anchor="start" x="441" y="-281.5" font-family="Helvetica,sans-Serif" font-size="10.00">UavcanGnssBridge::broadcast</text>
<text text-anchor="middle" x="508" y="-270.5" font-family="Helvetica,sans-Serif" font-size="10.00">_from_orb</text>
</a>
</g>
</g>
<!-- Node10&#45;&gt;Node29 -->
<g id="edge29" class="edge"><title>Node10&#45;&gt;Node29</title>
<path fill="none" stroke="midnightblue" d="M341.452,-1067.62C347.181,-951.435 378.537,-363.359 429,-302.5 431.803,-299.119 435.072,-296.205 438.651,-293.694"/>
<polygon fill="midnightblue" stroke="midnightblue" points="337.943,-1067.72 340.952,-1077.88 344.934,-1068.06 337.943,-1067.72"/>
</g>
<!-- Node30 -->
<g id="node30" class="node"><title>Node30</title>
<g id="a_node30"><a xlink:href="../../d4/d5e/drivers_2telemetry_2hott_2messages_8h.html#ab3839711a8ad6fc60c813a5df8515093" target="_top" xlink:title="build_gps_response">
<polygon fill="white" stroke="red" points="456.5,-225 456.5,-244 559.5,-244 559.5,-225 456.5,-225"/>
<text text-anchor="middle" x="508" y="-232" font-family="Helvetica,sans-Serif" font-size="10.00">build_gps_response</text>
</a>
</g>
</g>
<!-- Node10&#45;&gt;Node30 -->
<g id="edge30" class="edge"><title>Node10&#45;&gt;Node30</title>
<path fill="none" stroke="midnightblue" d="M341.264,-1067.47C346.056,-946.544 373.56,-316.865 429,-253.5 436.067,-245.423 445.939,-240.486 456.29,-237.531"/>
<polygon fill="midnightblue" stroke="midnightblue" points="337.753,-1067.69 340.861,-1077.82 344.748,-1067.97 337.753,-1067.69"/>
</g>
<!-- Node31 -->
<g id="node31" class="node"><title>Node31</title>
<g id="a_node31"><a xlink:href="../../d7/da9/calibration__routines_8h.html#af94714b5ecb1dd4531b222f0b1d5ad4e" target="_top" xlink:title="Called at the beginning of calibration in order to subscribe to the cancel command. ">
<polygon fill="white" stroke="red" points="441,-187 441,-206 575,-206 575,-187 441,-187"/>
<text text-anchor="middle" x="508" y="-194" font-family="Helvetica,sans-Serif" font-size="10.00">calibrate_cancel_subscribe</text>
</a>
</g>
</g>
<!-- Node10&#45;&gt;Node31 -->
<g id="edge31" class="edge"><title>Node10&#45;&gt;Node31</title>
<path fill="none" stroke="midnightblue" d="M341.158,-1067.72C345.444,-944.232 371.033,-282.059 429,-215.5 432.387,-211.611 436.424,-208.449 440.853,-205.886"/>
<polygon fill="midnightblue" stroke="midnightblue" points="337.653,-1067.84 340.81,-1077.96 344.648,-1068.08 337.653,-1067.84"/>
</g>
<!-- Node32 -->
<g id="node32" class="node"><title>Node32</title>
<g id="a_node32"><a xlink:href="../../da/d17/classevents_1_1_subscriber_handler.html#a5cece8500c7ed7351247b2642d31900c" target="_top" xlink:title="events::SubscriberHandler\l::check_for_updates">
<polygon fill="white" stroke="red" points="442,-137.5 442,-167.5 574,-167.5 574,-137.5 442,-137.5"/>
<text text-anchor="start" x="450" y="-155.5" font-family="Helvetica,sans-Serif" font-size="10.00">events::SubscriberHandler</text>
<text text-anchor="middle" x="508" y="-144.5" font-family="Helvetica,sans-Serif" font-size="10.00">::check_for_updates</text>
</a>
</g>
</g>
<!-- Node10&#45;&gt;Node32 -->
<g id="edge32" class="edge"><title>Node10&#45;&gt;Node32</title>
<path fill="none" stroke="midnightblue" d="M341.136,-1067.71C345.369,-941.234 371.075,-249.309 429,-177.5 432.571,-173.073 436.931,-169.419 441.745,-166.404"/>
<polygon fill="midnightblue" stroke="midnightblue" points="337.633,-1067.75 340.802,-1077.86 344.629,-1067.98 337.633,-1067.75"/>
</g>
<!-- Node33 -->
<g id="node33" class="node"><title>Node33</title>
<g id="a_node33"><a xlink:href="../../d0/df9/class_navigator.html#a34945eedcd82eda8a50bd1890c0d09cc" target="_top" xlink:title="Check nearby traffic for potential collisions. ">
<polygon fill="white" stroke="red" points="447.5,-99 447.5,-118 568.5,-118 568.5,-99 447.5,-99"/>
<text text-anchor="middle" x="508" y="-106" font-family="Helvetica,sans-Serif" font-size="10.00">Navigator::check_traffic</text>
</a>
</g>
</g>
<!-- Node10&#45;&gt;Node33 -->
<g id="edge33" class="edge"><title>Node10&#45;&gt;Node33</title>
<path fill="none" stroke="midnightblue" d="M340.964,-1067.79C344.205,-937.347 365.252,-201.383 429,-127.5 433.917,-121.802 440.23,-117.662 447.131,-114.677"/>
<polygon fill="midnightblue" stroke="midnightblue" points="337.462,-1067.83 340.718,-1077.91 344.46,-1068 337.462,-1067.83"/>
</g>
<!-- Node34 -->
<g id="node34" class="node"><title>Node34</title>
<g id="a_node34"><a xlink:href="../../d1/d23/classpx4_1_1logger_1_1_logger.html#a55a07bd6f5959c9b8bdeeb7d63e4817a" target="_top" xlink:title="px4::logger::Logger\l::copy_if_updated_multi">
<polygon fill="white" stroke="red" points="448,-49.5 448,-79.5 568,-79.5 568,-49.5 448,-49.5"/>
<text text-anchor="start" x="456" y="-67.5" font-family="Helvetica,sans-Serif" font-size="10.00">px4::logger::Logger</text>
<text text-anchor="middle" x="508" y="-56.5" font-family="Helvetica,sans-Serif" font-size="10.00">::copy_if_updated_multi</text>
</a>
</g>
</g>
<!-- Node10&#45;&gt;Node34 -->
<g id="edge34" class="edge"><title>Node10&#45;&gt;Node34</title>
<path fill="none" stroke="midnightblue" d="M340.963,-1067.49C344.234,-933.419 365.597,-168.787 429,-89.5 433.973,-83.2807 440.503,-78.586 447.671,-75.0466"/>
<polygon fill="midnightblue" stroke="midnightblue" points="337.455,-1067.78 340.716,-1077.87 344.453,-1067.95 337.455,-1067.78"/>
</g>
<!-- Node35 -->
<g id="node35" class="node"><title>Node35</title>
<g id="a_node35"><a xlink:href="../../de/df6/class_wind_estimator_module.html#a0f33419010318d9c7f836538e489d102" target="_top" xlink:title="WindEstimatorModule\l::cycle">
<polygon fill="white" stroke="red" points="451.5,-0.5 451.5,-30.5 564.5,-30.5 564.5,-0.5 451.5,-0.5"/>
<text text-anchor="start" x="459.5" y="-18.5" font-family="Helvetica,sans-Serif" font-size="10.00">WindEstimatorModule</text>
<text text-anchor="middle" x="508" y="-7.5" font-family="Helvetica,sans-Serif" font-size="10.00">::cycle</text>
</a>
</g>
</g>
<!-- Node10&#45;&gt;Node35 -->
<g id="edge35" class="edge"><title>Node10&#45;&gt;Node35</title>
<path fill="none" stroke="midnightblue" d="M340.866,-1067.33C343.549,-928.941 361.998,-122.649 429,-39.5 434.778,-32.3291 442.651,-27.2524 451.182,-23.6688"/>
<polygon fill="midnightblue" stroke="midnightblue" points="337.36,-1067.63 340.671,-1077.7 344.358,-1067.76 337.36,-1067.63"/>
</g>
<!-- Node36 -->
<g id="node36" class="node"><title>Node36</title>
<g id="a_node36"><a xlink:href="../../d4/d39/class_r_c_input.html#ace64f958902ab60b6bd9b8aea6060bd0" target="_top" xlink:title="run the main loop: if running as task, continuously iterate, otherwise execute only one single cycle ...">
<polygon fill="white" stroke="red" points="466.5,-1784 466.5,-1803 549.5,-1803 549.5,-1784 466.5,-1784"/>
<text text-anchor="middle" x="508" y="-1791" font-family="Helvetica,sans-Serif" font-size="10.00">RCInput::cycle</text>
</a>
</g>
</g>
<!-- Node10&#45;&gt;Node36 -->
<g id="edge36" class="edge"><title>Node10&#45;&gt;Node36</title>
<path fill="none" stroke="midnightblue" d="M340.159,-1107.06C338.799,-1208.34 337.689,-1672.47 429,-1774.5 438.387,-1784.99 452.509,-1790.16 466.167,-1792.58"/>
<polygon fill="midnightblue" stroke="midnightblue" points="343.659,-1107.06 340.312,-1097.01 336.66,-1106.95 343.659,-1107.06"/>
</g>
<!-- Node37 -->
<g id="node37" class="node"><title>Node37</title>
<g id="a_node37"><a xlink:href="../../d2/da9/class_t_a_p___e_s_c.html#a4edd57e3842a3ed37fd6af6f9a0113a4" target="_top" xlink:title="TAP_ESC::cycle">
<polygon fill="white" stroke="red" points="462,-1746 462,-1765 554,-1765 554,-1746 462,-1746"/>
<text text-anchor="middle" x="508" y="-1753" font-family="Helvetica,sans-Serif" font-size="10.00">TAP_ESC::cycle</text>
</a>
</g>
</g>
<!-- Node10&#45;&gt;Node37 -->
<g id="edge37" class="edge"><title>Node10&#45;&gt;Node37</title>
<path fill="none" stroke="midnightblue" d="M340.32,-1107.52C339.846,-1206.29 342.752,-1640.84 429,-1736.5 437.4,-1745.82 449.534,-1750.93 461.738,-1753.65"/>
<polygon fill="midnightblue" stroke="midnightblue" points="343.82,-1107.43 340.387,-1097.41 336.82,-1107.38 343.82,-1107.43"/>
</g>
<!-- Node38 -->
<g id="node38" class="node"><title>Node38</title>
<g id="a_node38"><a xlink:href="../../df/d64/class_p_x4_f_m_u.html#a43ad674cda8424c0e73eef495a49e88c" target="_top" xlink:title="run the main loop: if running as task, continuously iterate, otherwise execute only one single cycle ...">
<polygon fill="white" stroke="red" points="465,-1708 465,-1727 551,-1727 551,-1708 465,-1708"/>
<text text-anchor="middle" x="508" y="-1715" font-family="Helvetica,sans-Serif" font-size="10.00">PX4FMU::cycle</text>
</a>
</g>
</g>
<!-- Node10&#45;&gt;Node38 -->
<g id="edge38" class="edge"><title>Node10&#45;&gt;Node38</title>
<path fill="none" stroke="midnightblue" d="M340.507,-1107.53C340.955,-1202.78 347.672,-1609.05 429,-1698.5 438.095,-1708.5 451.496,-1713.65 464.634,-1716.19"/>
<polygon fill="midnightblue" stroke="midnightblue" points="344.006,-1107.27 340.479,-1097.28 337.006,-1107.29 344.006,-1107.27"/>
</g>
<!-- Node39 -->
<g id="node39" class="node"><title>Node39</title>
<g id="a_node39"><a xlink:href="../../d3/d49/classpx4_1_1bst_1_1_b_s_t.html#a65ce990aa49256b1f415396fa80bddec" target="_top" xlink:title="px4::bst::BST::cycle">
<polygon fill="white" stroke="red" points="454.5,-1670 454.5,-1689 561.5,-1689 561.5,-1670 454.5,-1670"/>
<text text-anchor="middle" x="508" y="-1677" font-family="Helvetica,sans-Serif" font-size="10.00">px4::bst::BST::cycle</text>
</a>
</g>
</g>
<!-- Node10&#45;&gt;Node39 -->
<g id="edge39" class="edge"><title>Node10&#45;&gt;Node39</title>
<path fill="none" stroke="midnightblue" d="M340.713,-1107.14C342.102,-1198.06 352.47,-1577.11 429,-1660.5 435.691,-1667.79 444.671,-1672.5 454.154,-1675.5"/>
<polygon fill="midnightblue" stroke="midnightblue" points="344.212,-1107.06 340.579,-1097.11 337.213,-1107.15 344.212,-1107.06"/>
</g>
<!-- Node40 -->
<g id="node40" class="node"><title>Node40</title>
<g id="a_node40"><a xlink:href="../../d1/d44/class_sensors.html#af7a783c126015ac22eb5de001d6c6680" target="_top" xlink:title="Poll the differential pressure sensor for updated data. ">
<polygon fill="white" stroke="red" points="450,-1632 450,-1651 566,-1651 566,-1632 450,-1632"/>
<text text-anchor="middle" x="508" y="-1639" font-family="Helvetica,sans-Serif" font-size="10.00">Sensors::diff_pres_poll</text>
</a>
</g>
</g>
<!-- Node10&#45;&gt;Node40 -->
<g id="edge42" class="edge"><title>Node10&#45;&gt;Node40</title>
<path fill="none" stroke="midnightblue" d="M340.958,-1107.49C343.381,-1195.24 357.46,-1545.38 429,-1622.5 434.687,-1628.63 441.993,-1632.93 449.847,-1635.92"/>
<polygon fill="midnightblue" stroke="midnightblue" points="344.453,-1107.21 340.698,-1097.3 337.455,-1107.39 344.453,-1107.21"/>
</g>
<!-- Node41 -->
<g id="node41" class="node"><title>Node41</title>
<g id="a_node41"><a xlink:href="../../d1/d14/esc__calibration_8h.html#a076fa55d1c50ba98926631180977e012" target="_top" xlink:title="do_esc_calibration">
<polygon fill="white" stroke="red" points="459,-1594 459,-1613 557,-1613 557,-1594 459,-1594"/>
<text text-anchor="middle" x="508" y="-1601" font-family="Helvetica,sans-Serif" font-size="10.00">do_esc_calibration</text>
</a>
</g>
</g>
<!-- Node10&#45;&gt;Node41 -->
<g id="edge43" class="edge"><title>Node10&#45;&gt;Node41</title>
<path fill="none" stroke="midnightblue" d="M341.219,-1107.12C344.672,-1190.37 362.241,-1513.42 429,-1584.5 436.824,-1592.83 447.639,-1597.77 458.725,-1600.65"/>
<polygon fill="midnightblue" stroke="midnightblue" points="344.712,-1106.87 340.822,-1097.01 337.718,-1107.14 344.712,-1106.87"/>
</g>
<!-- Node42 -->
<g id="node42" class="node"><title>Node42</title>
<g id="a_node42"><a xlink:href="../../d3/dc5/rc__calibration_8h.html#a0e46b1efe365665e7ae7eba4aefae32b" target="_top" xlink:title="do_trim_calibration">
<polygon fill="white" stroke="red" points="459,-1556 459,-1575 557,-1575 557,-1556 459,-1556"/>
<text text-anchor="middle" x="508" y="-1563" font-family="Helvetica,sans-Serif" font-size="10.00">do_trim_calibration</text>
</a>
</g>
</g>
<!-- Node10&#45;&gt;Node42 -->
<g id="edge44" class="edge"><title>Node10&#45;&gt;Node42</title>
<path fill="none" stroke="midnightblue" d="M341.534,-1107.12C346.108,-1186.34 367.109,-1481.53 429,-1546.5 436.883,-1554.77 447.719,-1559.7 458.807,-1562.57"/>
<polygon fill="midnightblue" stroke="midnightblue" points="345.024,-1106.84 340.976,-1097.05 338.035,-1107.23 345.024,-1106.84"/>
</g>
<!-- Node43 -->
<g id="node43" class="node"><title>Node43</title>
<g id="a_node43"><a xlink:href="../../d4/d4c/esc__calib_8c.html#af19cf40642301c03cf95f3509c0ad671" target="_top" xlink:title="esc_calib_main">
<polygon fill="white" stroke="black" points="466,-1518 466,-1537 550,-1537 550,-1518 466,-1518"/>
<text text-anchor="middle" x="508" y="-1525" font-family="Helvetica,sans-Serif" font-size="10.00">esc_calib_main</text>
</a>
</g>
</g>
<!-- Node10&#45;&gt;Node43 -->
<g id="edge45" class="edge"><title>Node10&#45;&gt;Node43</title>
<path fill="none" stroke="midnightblue" d="M341.955,-1107.34C347.865,-1182.5 372.502,-1448.5 429,-1507.5 438.572,-1517.5 452.406,-1522.75 465.773,-1525.44"/>
<polygon fill="midnightblue" stroke="midnightblue" points="345.442,-1107.03 341.191,-1097.33 338.462,-1107.56 345.442,-1107.03"/>
</g>
<!-- Node44 -->
<g id="node44" class="node"><title>Node44</title>
<g id="a_node44"><a xlink:href="../../d4/df0/class_tone_alarm.html#af8798dde809dba04968d935c81cc0dda" target="_top" xlink:title="ToneAlarm::frequency\l_to_divisor">
<polygon fill="white" stroke="black" points="451.5,-1468.5 451.5,-1498.5 564.5,-1498.5 564.5,-1468.5 451.5,-1468.5"/>
<text text-anchor="start" x="459.5" y="-1486.5" font-family="Helvetica,sans-Serif" font-size="10.00">ToneAlarm::frequency</text>
<text text-anchor="middle" x="508" y="-1475.5" font-family="Helvetica,sans-Serif" font-size="10.00">_to_divisor</text>
</a>
</g>
</g>
<!-- Node10&#45;&gt;Node44 -->
<g id="edge48" class="edge"><title>Node10&#45;&gt;Node44</title>
<path fill="none" stroke="midnightblue" d="M342.644,-1107.11C350.552,-1176.03 380.181,-1405.82 429,-1458.5 435.09,-1465.07 442.906,-1469.92 451.23,-1473.5"/>
<polygon fill="midnightblue" stroke="midnightblue" points="346.12,-1106.7 341.526,-1097.15 339.164,-1107.48 346.12,-1106.7"/>
</g>
<!-- Node45 -->
<g id="node45" class="node"><title>Node45</title>
<g id="a_node45"><a xlink:href="../../d4/de1/frsky__telemetry_8cpp.html#ac7ef296957e318ce7c370f98299e300d" target="_top" xlink:title="The daemon thread. ">
<polygon fill="white" stroke="red" points="623,-1411 623,-1430 766,-1430 766,-1411 623,-1411"/>
<text text-anchor="middle" x="694.5" y="-1418" font-family="Helvetica,sans-Serif" font-size="10.00">frsky_telemetry_thread_main</text>
</a>
</g>
</g>
<!-- Node10&#45;&gt;Node45 -->
<g id="edge49" class="edge"><title>Node10&#45;&gt;Node45</title>
<path fill="none" stroke="midnightblue" d="M339.815,-1107.18C339.125,-1160.59 345.191,-1309.11 429,-1381.5 457.278,-1405.92 554.603,-1415.05 622.943,-1418.46"/>
<polygon fill="midnightblue" stroke="midnightblue" points="343.318,-1107.1 340.048,-1097.02 336.32,-1106.94 343.318,-1107.1"/>
</g>
<!-- Node46 -->
<g id="node46" class="node"><title>Node46</title>
<g id="a_node46"><a xlink:href="../../d4/dcf/frsky__data_8h.html#a0f9db2bcbfa0c8506b460ea616cf2084" target="_top" xlink:title="frsky_update_topics">
<polygon fill="white" stroke="black" points="456,-1430 456,-1449 560,-1449 560,-1430 456,-1430"/>
<text text-anchor="middle" x="508" y="-1437" font-family="Helvetica,sans-Serif" font-size="10.00">frsky_update_topics</text>
</a>
</g>
</g>
<!-- Node10&#45;&gt;Node46 -->
<g id="edge50" class="edge"><title>Node10&#45;&gt;Node46</title>
<path fill="none" stroke="midnightblue" d="M339.704,-1107.19C338.546,-1163.45 343.141,-1326.59 429,-1415.5 436.283,-1423.04 445.873,-1428.23 455.828,-1431.79"/>
<polygon fill="midnightblue" stroke="midnightblue" points="343.204,-1107.24 340.001,-1097.14 336.207,-1107.03 343.204,-1107.24"/>
</g>
<!-- Node47 -->
<g id="node47" class="node"><title>Node47</title>
<g id="a_node47"><a xlink:href="../../d0/df9/class_navigator.html#a21f48c860b5696de967822a045a35770" target="_top" xlink:title="Navigator::fw_pos_ctrl\l_status_update">
<polygon fill="white" stroke="red" points="450.5,-1342.5 450.5,-1372.5 565.5,-1372.5 565.5,-1342.5 450.5,-1342.5"/>
<text text-anchor="start" x="458.5" y="-1360.5" font-family="Helvetica,sans-Serif" font-size="10.00">Navigator::fw_pos_ctrl</text>
<text text-anchor="middle" x="508" y="-1349.5" font-family="Helvetica,sans-Serif" font-size="10.00">_status_update</text>
</a>
</g>
</g>
<!-- Node10&#45;&gt;Node47 -->
<g id="edge52" class="edge"><title>Node10&#45;&gt;Node47</title>
<path fill="none" stroke="midnightblue" d="M341.881,-1107.22C346.172,-1153.33 363.272,-1269.13 429,-1332.5 435.04,-1338.32 442.439,-1342.79 450.249,-1346.22"/>
<polygon fill="midnightblue" stroke="midnightblue" points="345.354,-1106.74 341.044,-1097.07 338.377,-1107.32 345.354,-1106.74"/>
</g>
<!-- Node48 -->
<g id="node48" class="node"><title>Node48</title>
<g id="a_node48"><a xlink:href="../../d7/d6f/class_vtol_attitude_control.html#a19f35f53d8cc1551c21d17bdd3a6c267" target="_top" xlink:title="Check for fw virtual attitude setpoint updates. ">
<polygon fill="white" stroke="black" points="449.5,-1293.5 449.5,-1323.5 566.5,-1323.5 566.5,-1293.5 449.5,-1293.5"/>
<text text-anchor="start" x="457.5" y="-1311.5" font-family="Helvetica,sans-Serif" font-size="10.00">VtolAttitudeControl</text>
<text text-anchor="middle" x="508" y="-1300.5" font-family="Helvetica,sans-Serif" font-size="10.00">::fw_virtual_att_sp_poll</text>
</a>
</g>
</g>
<!-- Node10&#45;&gt;Node48 -->
<g id="edge53" class="edge"><title>Node10&#45;&gt;Node48</title>
<path fill="none" stroke="midnightblue" d="M343.903,-1107.21C351.715,-1146.51 374.618,-1234.99 429,-1283.5 434.942,-1288.8 442.018,-1292.98 449.445,-1296.27"/>
<polygon fill="midnightblue" stroke="midnightblue" points="347.328,-1106.49 342.05,-1097.3 340.447,-1107.77 347.328,-1106.49"/>
</g>
<!-- Node49 -->
<g id="node49" class="node"><title>Node49</title>
<g id="a_node49"><a xlink:href="../../de/d9c/class_ekf2.html#a09f46e987a26d9909726d8f0e11a6028" target="_top" xlink:title="get subscription index of first downward&#45;facing range sensor ">
<polygon fill="white" stroke="red" points="445,-1255 445,-1274 571,-1274 571,-1255 445,-1255"/>
<text text-anchor="middle" x="508" y="-1262" font-family="Helvetica,sans-Serif" font-size="10.00">Ekf2::getRangeSubIndex</text>
</a>
</g>
</g>
<!-- Node10&#45;&gt;Node49 -->
<g id="edge54" class="edge"><title>Node10&#45;&gt;Node49</title>
<path fill="none" stroke="midnightblue" d="M345.924,-1106.91C356.29,-1140.33 382.156,-1208.57 429,-1244.5 434.657,-1248.84 441.156,-1252.24 447.937,-1254.91"/>
<polygon fill="midnightblue" stroke="midnightblue" points="349.189,-1105.61 342.995,-1097.01 342.476,-1107.59 349.189,-1105.61"/>
</g>
<!-- Node50 -->
<g id="node50" class="node"><title>Node50</title>
<g id="a_node50"><a xlink:href="../../d3/d25/class_fixedwing_attitude_control.html#a3fd6fda7dbdc9e012673cdeb44f05975" target="_top" xlink:title="FixedwingAttitudeControl\l::global_pos_poll">
<polygon fill="white" stroke="red" points="445,-1205.5 445,-1235.5 571,-1235.5 571,-1205.5 445,-1205.5"/>
<text text-anchor="start" x="453" y="-1223.5" font-family="Helvetica,sans-Serif" font-size="10.00">FixedwingAttitudeControl</text>
<text text-anchor="middle" x="508" y="-1212.5" font-family="Helvetica,sans-Serif" font-size="10.00">::global_pos_poll</text>
</a>
</g>
</g>
<!-- Node10&#45;&gt;Node50 -->
<g id="edge55" class="edge"><title>Node10&#45;&gt;Node50</title>
<path fill="none" stroke="midnightblue" d="M350.878,-1106.21C365.3,-1130.51 393.661,-1172.65 429,-1196.5 434.05,-1199.91 439.604,-1202.85 445.35,-1205.38"/>
<polygon fill="midnightblue" stroke="midnightblue" points="353.754,-1104.19 345.729,-1097.27 347.689,-1107.68 353.754,-1104.19"/>
</g>
<!-- Node46&#45;&gt;Node45 -->
<g id="edge51" class="edge"><title>Node46&#45;&gt;Node45</title>
<path fill="none" stroke="midnightblue" d="M570.587,-1433.16C587.309,-1431.44 605.548,-1429.56 622.734,-1427.79"/>
<polygon fill="midnightblue" stroke="midnightblue" points="569.982,-1429.7 560.394,-1434.21 570.699,-1436.66 569.982,-1429.7"/>
</g>
</g>
</svg>
