<?xml version="1.0" encoding="UTF-8" standalone="no"?>
<!DOCTYPE svg PUBLIC "-//W3C//DTD SVG 1.1//EN"
 "http://www.w3.org/Graphics/SVG/1.1/DTD/svg11.dtd">
<!-- Generated by graphviz version 2.40.1 (20161225.0304)
 -->
<!-- Title: uORB::Manager::orb_exists Pages: 1 -->
<svg width="591pt" height="385pt"
 viewBox="0.00 0.00 591.00 384.50" xmlns="http://www.w3.org/2000/svg" xmlns:xlink="http://www.w3.org/1999/xlink">
<g id="graph0" class="graph" transform="scale(1 1) rotate(0) translate(4 380.5)">
<title>uORB::Manager::orb_exists</title>
<polygon fill="#ffffff" stroke="transparent" points="-4,4 -4,-380.5 587,-380.5 587,4 -4,4"/>
<!-- Node4192 -->
<g id="node1" class="node">
<title>Node4192</title>
<polygon fill="#bfbfbf" stroke="#000000" points="0,-185 0,-215 107,-215 107,-185 0,-185"/>
<text text-anchor="start" x="8" y="-203" font-family="Helvetica,sans-Serif" font-size="10.00" fill="#000000">uORB::Manager::orb</text>
<text text-anchor="middle" x="53.5" y="-192" font-family="Helvetica,sans-Serif" font-size="10.00" fill="#000000">_exists</text>
</g>
<!-- Node4193 -->
<g id="node2" class="node">
<title>Node4193</title>
<g id="a_node2"><a xlink:href="../../d3/da9/classu_o_r_b_1_1_manager.html#a083331e24ac4f99ac11a0aab1b1681b4" target="_top" xlink:title="Get the DeviceMaster. ">
<polygon fill="#ffffff" stroke="#000000" points="156.5,-346 156.5,-376 263.5,-376 263.5,-346 156.5,-346"/>
<text text-anchor="start" x="164.5" y="-364" font-family="Helvetica,sans-Serif" font-size="10.00" fill="#000000">uORB::Manager::get</text>
<text text-anchor="middle" x="210" y="-353" font-family="Helvetica,sans-Serif" font-size="10.00" fill="#000000">_device_master</text>
</a>
</g>
</g>
<!-- Node4192&#45;&gt;Node4193 -->
<g id="edge1" class="edge">
<title>Node4192&#45;&gt;Node4193</title>
<path fill="none" stroke="#191970" d="M59.4552,-215.0707C71.2452,-243.0426 100.178,-303.2103 143,-337 144.7732,-338.3992 146.6349,-339.721 148.5632,-340.9692"/>
<polygon fill="#191970" stroke="#191970" points="146.9558,-344.0814 157.3785,-345.9833 150.4167,-337.9968 146.9558,-344.0814"/>
</g>
<!-- Node4194 -->
<g id="node3" class="node">
<title>Node4194</title>
<g id="a_node3"><a xlink:href="../../dd/d9d/classu_o_r_b_1_1_device_master.html#a793df66a48dcabdd0f5bd8c85beee13c" target="_top" xlink:title="Public interface for getDeviceNodeLocked(). ">
<polygon fill="#ffffff" stroke="#000000" points="155,-297 155,-327 265,-327 265,-297 155,-297"/>
<text text-anchor="start" x="163" y="-315" font-family="Helvetica,sans-Serif" font-size="10.00" fill="#000000">uORB::DeviceMaster</text>
<text text-anchor="middle" x="210" y="-304" font-family="Helvetica,sans-Serif" font-size="10.00" fill="#000000">::getDeviceNode</text>
</a>
</g>
</g>
<!-- Node4192&#45;&gt;Node4194 -->
<g id="edge2" class="edge">
<title>Node4192&#45;&gt;Node4194</title>
<path fill="none" stroke="#191970" d="M65.2803,-215.0985C81.0792,-234.4342 110.8845,-267.8447 143,-288 145.5853,-289.6225 148.2955,-291.1553 151.0825,-292.6007"/>
<polygon fill="#191970" stroke="#191970" points="149.6508,-295.7954 160.1856,-296.922 152.6527,-289.4717 149.6508,-295.7954"/>
</g>
<!-- Node4197 -->
<g id="node6" class="node">
<title>Node4197</title>
<g id="a_node6"><a xlink:href="../../d0/d18/classu_o_r_b_1_1_device_node.html#a16d1880bc99853428a8d8a240f24857b" target="_top" xlink:title="Return true if this topic has been advertised. ">
<polygon fill="#ffffff" stroke="#000000" points="151.5,-248 151.5,-278 268.5,-278 268.5,-248 151.5,-248"/>
<text text-anchor="start" x="159.5" y="-266" font-family="Helvetica,sans-Serif" font-size="10.00" fill="#000000">uORB::DeviceNode::is</text>
<text text-anchor="middle" x="210" y="-255" font-family="Helvetica,sans-Serif" font-size="10.00" fill="#000000">_advertised</text>
</a>
</g>
</g>
<!-- Node4192&#45;&gt;Node4197 -->
<g id="edge5" class="edge">
<title>Node4192&#45;&gt;Node4197</title>
<path fill="none" stroke="#191970" d="M88.2044,-215.1584C104.7287,-222.267 124.8103,-230.749 143,-238 148.1897,-240.0688 153.6252,-242.1827 159.0596,-244.2621"/>
<polygon fill="#191970" stroke="#191970" points="158.1959,-247.6777 168.7872,-247.9502 160.6776,-241.1323 158.1959,-247.6777"/>
</g>
<!-- Node4198 -->
<g id="node7" class="node">
<title>Node4198</title>
<g id="a_node7"><a xlink:href="../../d6/d20/classu_o_r_b_1_1_utils.html#a83fea5453fe535f1b39fd7b7a1c858aa" target="_top" xlink:title="uORB::Utils::node_mkpath">
<polygon fill="#ffffff" stroke="#000000" points="143,-209.5 143,-228.5 277,-228.5 277,-209.5 143,-209.5"/>
<text text-anchor="middle" x="210" y="-216.5" font-family="Helvetica,sans-Serif" font-size="10.00" fill="#000000">uORB::Utils::node_mkpath</text>
</a>
</g>
</g>
<!-- Node4192&#45;&gt;Node4198 -->
<g id="edge6" class="edge">
<title>Node4192&#45;&gt;Node4198</title>
<path fill="none" stroke="#191970" d="M107.3584,-206.5387C115.5564,-207.534 124.1512,-208.5775 132.7304,-209.619"/>
<polygon fill="#191970" stroke="#191970" points="132.4206,-213.107 142.7696,-210.8378 133.2643,-206.1581 132.4206,-213.107"/>
</g>
<!-- Node4199 -->
<g id="node8" class="node">
<title>Node4199</title>
<g id="a_node8"><a xlink:href="../../da/dc9/posix_2cdev__platform_8cpp.html#a437c1aaa6a5b9b5f368579a2076cb373" target="_top" xlink:title="px4_access">
<polygon fill="#ffffff" stroke="#000000" points="175.5,-171.5 175.5,-190.5 244.5,-190.5 244.5,-171.5 175.5,-171.5"/>
<text text-anchor="middle" x="210" y="-178.5" font-family="Helvetica,sans-Serif" font-size="10.00" fill="#000000">px4_access</text>
</a>
</g>
</g>
<!-- Node4192&#45;&gt;Node4199 -->
<g id="edge7" class="edge">
<title>Node4192&#45;&gt;Node4199</title>
<path fill="none" stroke="#191970" d="M107.3584,-193.4613C126.2197,-191.1714 147.1818,-188.6265 165.2199,-186.4366"/>
<polygon fill="#191970" stroke="#191970" points="165.6803,-189.9065 175.1856,-185.2267 164.8366,-182.9575 165.6803,-189.9065"/>
</g>
<!-- Node4201 -->
<g id="node10" class="node">
<title>Node4201</title>
<g id="a_node10"><a xlink:href="../../da/dc9/posix_2cdev__platform_8cpp.html#a050ecef08105582119cf1adf517a9c06" target="_top" xlink:title="px4_close">
<polygon fill="#ffffff" stroke="#000000" points="179.5,-76.5 179.5,-95.5 240.5,-95.5 240.5,-76.5 179.5,-76.5"/>
<text text-anchor="middle" x="210" y="-83.5" font-family="Helvetica,sans-Serif" font-size="10.00" fill="#000000">px4_close</text>
</a>
</g>
</g>
<!-- Node4192&#45;&gt;Node4201 -->
<g id="edge9" class="edge">
<title>Node4192&#45;&gt;Node4201</title>
<path fill="none" stroke="#191970" d="M69.5701,-184.7333C86.9279,-168.6403 115.7651,-143.0336 143,-124 155.3158,-115.3929 169.7273,-107.021 182.0225,-100.3358"/>
<polygon fill="#191970" stroke="#191970" points="183.7673,-103.372 190.9424,-95.5765 180.472,-97.1961 183.7673,-103.372"/>
</g>
<!-- Node4207 -->
<g id="node16" class="node">
<title>Node4207</title>
<g id="a_node16"><a xlink:href="../../da/dc9/posix_2cdev__platform_8cpp.html#a9c7539e3995014273bd29fb01758763e" target="_top" xlink:title="px4_ioctl">
<polygon fill="#ffffff" stroke="#000000" points="182,-38.5 182,-57.5 238,-57.5 238,-38.5 182,-38.5"/>
<text text-anchor="middle" x="210" y="-45.5" font-family="Helvetica,sans-Serif" font-size="10.00" fill="#000000">px4_ioctl</text>
</a>
</g>
</g>
<!-- Node4192&#45;&gt;Node4207 -->
<g id="edge15" class="edge">
<title>Node4192&#45;&gt;Node4207</title>
<path fill="none" stroke="#191970" d="M59.5566,-184.6667C71.3257,-156.8821 99.9653,-98.2061 143,-67 151.5156,-60.825 161.9813,-56.6527 172.0882,-53.8351"/>
<polygon fill="#191970" stroke="#191970" points="173.0904,-57.1938 181.99,-51.445 171.4479,-50.3892 173.0904,-57.1938"/>
</g>
<!-- Node4209 -->
<g id="node18" class="node">
<title>Node4209</title>
<g id="a_node18"><a xlink:href="../../da/dc9/posix_2cdev__platform_8cpp.html#ae90495d7ed25116c6e19cd9163d8ed02" target="_top" xlink:title="px4_open">
<polygon fill="#ffffff" stroke="#000000" points="180.5,-133.5 180.5,-152.5 239.5,-152.5 239.5,-133.5 180.5,-133.5"/>
<text text-anchor="middle" x="210" y="-140.5" font-family="Helvetica,sans-Serif" font-size="10.00" fill="#000000">px4_open</text>
</a>
</g>
</g>
<!-- Node4192&#45;&gt;Node4209 -->
<g id="edge18" class="edge">
<title>Node4192&#45;&gt;Node4209</title>
<path fill="none" stroke="#191970" d="M86.2644,-184.9233C103.0359,-177.5053 123.8955,-168.7348 143,-162 151.8764,-158.8709 161.5496,-155.8879 170.7143,-153.2516"/>
<polygon fill="#191970" stroke="#191970" points="171.7139,-156.6064 180.3975,-150.5365 169.8239,-149.8663 171.7139,-156.6064"/>
</g>
<!-- Node4195 -->
<g id="node4" class="node">
<title>Node4195</title>
<g id="a_node4"><a xlink:href="../../dd/d9d/classu_o_r_b_1_1_device_master.html#a7e0c3156fdf5875a74d1ad727930a70a" target="_top" xlink:title="uORB::DeviceMaster\l::lock">
<polygon fill="#ffffff" stroke="#000000" points="315.5,-321 315.5,-351 425.5,-351 425.5,-321 315.5,-321"/>
<text text-anchor="start" x="323.5" y="-339" font-family="Helvetica,sans-Serif" font-size="10.00" fill="#000000">uORB::DeviceMaster</text>
<text text-anchor="middle" x="370.5" y="-328" font-family="Helvetica,sans-Serif" font-size="10.00" fill="#000000">::lock</text>
</a>
</g>
</g>
<!-- Node4194&#45;&gt;Node4195 -->
<g id="edge3" class="edge">
<title>Node4194&#45;&gt;Node4195</title>
<path fill="none" stroke="#191970" d="M265.235,-320.2594C278.1693,-322.1935 292.0669,-324.2717 305.3872,-326.2635"/>
<polygon fill="#191970" stroke="#191970" points="305.0275,-329.7486 315.4352,-327.766 306.0628,-322.8255 305.0275,-329.7486"/>
</g>
<!-- Node4196 -->
<g id="node5" class="node">
<title>Node4196</title>
<g id="a_node5"><a xlink:href="../../dd/d9d/classu_o_r_b_1_1_device_master.html#a5b85000ee723a160ca6ea6bce730efc3" target="_top" xlink:title="uORB::DeviceMaster\l::unlock">
<polygon fill="#ffffff" stroke="#000000" points="315.5,-272 315.5,-302 425.5,-302 425.5,-272 315.5,-272"/>
<text text-anchor="start" x="323.5" y="-290" font-family="Helvetica,sans-Serif" font-size="10.00" fill="#000000">uORB::DeviceMaster</text>
<text text-anchor="middle" x="370.5" y="-279" font-family="Helvetica,sans-Serif" font-size="10.00" fill="#000000">::unlock</text>
</a>
</g>
</g>
<!-- Node4194&#45;&gt;Node4196 -->
<g id="edge4" class="edge">
<title>Node4194&#45;&gt;Node4196</title>
<path fill="none" stroke="#191970" d="M265.235,-303.3964C278.1693,-301.3817 292.0669,-299.217 305.3872,-297.1422"/>
<polygon fill="#191970" stroke="#191970" points="306.093,-300.5745 315.4352,-295.5771 305.0156,-293.6579 306.093,-300.5745"/>
</g>
<!-- Node4200 -->
<g id="node9" class="node">
<title>Node4200</title>
<g id="a_node9"><a xlink:href="../../da/dc9/posix_2cdev__platform_8cpp.html#a3fe15a0fdcd00e34f4a29b3cea4c7c46" target="_top" xlink:title="getDev">
<polygon fill="#ffffff" stroke="#000000" points="346.5,-190.5 346.5,-209.5 394.5,-209.5 394.5,-190.5 346.5,-190.5"/>
<text text-anchor="middle" x="370.5" y="-197.5" font-family="Helvetica,sans-Serif" font-size="10.00" fill="#000000">getDev</text>
</a>
</g>
</g>
<!-- Node4199&#45;&gt;Node4200 -->
<g id="edge8" class="edge">
<title>Node4199&#45;&gt;Node4200</title>
<path fill="none" stroke="#191970" d="M244.8261,-185.1227C271.8482,-188.3216 309.1158,-192.7333 336.0438,-195.9211"/>
<polygon fill="#191970" stroke="#191970" points="335.8304,-199.4202 346.1726,-197.1201 336.6534,-192.4687 335.8304,-199.4202"/>
</g>
<!-- Node4202 -->
<g id="node11" class="node">
<title>Node4202</title>
<g id="a_node11"><a xlink:href="../../d8/d26/classcdev_1_1_c_dev.html#aa4b6921cbd58b12e005fa5656f0fe546" target="_top" xlink:title="Handle a close of the device. ">
<polygon fill="#ffffff" stroke="#000000" points="321.5,-76.5 321.5,-95.5 419.5,-95.5 419.5,-76.5 321.5,-76.5"/>
<text text-anchor="middle" x="370.5" y="-83.5" font-family="Helvetica,sans-Serif" font-size="10.00" fill="#000000">cdev::CDev::close</text>
</a>
</g>
</g>
<!-- Node4201&#45;&gt;Node4202 -->
<g id="edge10" class="edge">
<title>Node4201&#45;&gt;Node4202</title>
<path fill="none" stroke="#191970" d="M240.5666,-86C260.542,-86 287.2884,-86 311.3213,-86"/>
<polygon fill="#191970" stroke="#191970" points="311.4274,-89.5001 321.4274,-86 311.4273,-82.5001 311.4274,-89.5001"/>
</g>
<!-- Node4206 -->
<g id="node15" class="node">
<title>Node4206</title>
<g id="a_node15"><a xlink:href="../../da/dc9/posix_2cdev__platform_8cpp.html#abea81ef5044c7986b51a035f42582323" target="_top" xlink:title="get_vdev">
<polygon fill="#ffffff" stroke="#000000" points="342.5,-38.5 342.5,-57.5 398.5,-57.5 398.5,-38.5 342.5,-38.5"/>
<text text-anchor="middle" x="370.5" y="-45.5" font-family="Helvetica,sans-Serif" font-size="10.00" fill="#000000">get_vdev</text>
</a>
</g>
</g>
<!-- Node4201&#45;&gt;Node4206 -->
<g id="edge14" class="edge">
<title>Node4201&#45;&gt;Node4206</title>
<path fill="none" stroke="#191970" d="M240.5666,-78.763C266.731,-72.5684 304.5121,-63.6233 332.5963,-56.9741"/>
<polygon fill="#191970" stroke="#191970" points="333.5403,-60.3474 342.4649,-54.6376 331.9275,-53.5357 333.5403,-60.3474"/>
</g>
<!-- Node4203 -->
<g id="node12" class="node">
<title>Node4203</title>
<g id="a_node12"><a xlink:href="../../d8/d26/classcdev_1_1_c_dev.html#aa702ea380fc8be473512558e5e4463ee" target="_top" xlink:title="Notification of the last close. ">
<polygon fill="#ffffff" stroke="#000000" points="464,-19.5 464,-38.5 583,-38.5 583,-19.5 464,-19.5"/>
<text text-anchor="middle" x="523.5" y="-26.5" font-family="Helvetica,sans-Serif" font-size="10.00" fill="#000000">cdev::CDev::close_last</text>
</a>
</g>
</g>
<!-- Node4202&#45;&gt;Node4203 -->
<g id="edge11" class="edge">
<title>Node4202&#45;&gt;Node4203</title>
<path fill="none" stroke="#191970" d="M402.4857,-76.4781C410.8899,-73.6929 419.874,-70.4584 428,-67 444.6467,-59.9151 447.3179,-55.0012 464,-48 469.1869,-45.8231 474.7149,-43.7483 480.2327,-41.8236"/>
<polygon fill="#191970" stroke="#191970" points="481.704,-45.0222 490.0779,-38.5316 479.4841,-38.3835 481.704,-45.0222"/>
</g>
<!-- Node4204 -->
<g id="node13" class="node">
<title>Node4204</title>
<g id="a_node13"><a xlink:href="../../d8/d26/classcdev_1_1_c_dev.html#ae676cccee31dd393ab681414a146d868" target="_top" xlink:title="Take the driver lock. ">
<polygon fill="#ffffff" stroke="#000000" points="477,-57.5 477,-76.5 570,-76.5 570,-57.5 477,-57.5"/>
<text text-anchor="middle" x="523.5" y="-64.5" font-family="Helvetica,sans-Serif" font-size="10.00" fill="#000000">cdev::CDev::lock</text>
</a>
</g>
</g>
<!-- Node4202&#45;&gt;Node4204 -->
<g id="edge12" class="edge">
<title>Node4202&#45;&gt;Node4204</title>
<path fill="none" stroke="#191970" d="M419.7523,-79.8837C434.8009,-78.0149 451.4677,-75.9452 466.9601,-74.0213"/>
<polygon fill="#191970" stroke="#191970" points="467.4501,-77.4874 476.9425,-72.7816 466.5874,-70.5408 467.4501,-77.4874"/>
</g>
<!-- Node4205 -->
<g id="node14" class="node">
<title>Node4205</title>
<g id="a_node14"><a xlink:href="../../d8/d26/classcdev_1_1_c_dev.html#af65273e0578b277deea057dc7d558e9d" target="_top" xlink:title="Release the driver lock. ">
<polygon fill="#ffffff" stroke="#000000" points="471.5,-95.5 471.5,-114.5 575.5,-114.5 575.5,-95.5 471.5,-95.5"/>
<text text-anchor="middle" x="523.5" y="-102.5" font-family="Helvetica,sans-Serif" font-size="10.00" fill="#000000">cdev::CDev::unlock</text>
</a>
</g>
</g>
<!-- Node4202&#45;&gt;Node4205 -->
<g id="edge13" class="edge">
<title>Node4202&#45;&gt;Node4205</title>
<path fill="none" stroke="#191970" d="M419.7523,-92.1163C433.0381,-93.7662 447.5851,-95.5727 461.4718,-97.2972"/>
<polygon fill="#191970" stroke="#191970" points="461.0842,-100.7758 471.4393,-98.5349 461.9469,-93.8292 461.0842,-100.7758"/>
</g>
<!-- Node4207&#45;&gt;Node4206 -->
<g id="edge16" class="edge">
<title>Node4207&#45;&gt;Node4206</title>
<path fill="none" stroke="#191970" d="M238.3247,-48C264.4536,-48 303.4528,-48 332.3229,-48"/>
<polygon fill="#191970" stroke="#191970" points="332.4585,-51.5001 342.4584,-48 332.4584,-44.5001 332.4585,-51.5001"/>
</g>
<!-- Node4208 -->
<g id="node17" class="node">
<title>Node4208</title>
<g id="a_node17"><a xlink:href="../../d8/d26/classcdev_1_1_c_dev.html#a8a73e7749516363c59d3eac6d6343083" target="_top" xlink:title="Perform an ioctl operation on the device. ">
<polygon fill="#ffffff" stroke="#000000" points="324,-.5 324,-19.5 417,-19.5 417,-.5 324,-.5"/>
<text text-anchor="middle" x="370.5" y="-7.5" font-family="Helvetica,sans-Serif" font-size="10.00" fill="#000000">cdev::CDev::ioctl</text>
</a>
</g>
</g>
<!-- Node4207&#45;&gt;Node4208 -->
<g id="edge17" class="edge">
<title>Node4207&#45;&gt;Node4208</title>
<path fill="none" stroke="#191970" d="M238.3247,-41.2938C260.9077,-35.9471 293.1047,-28.3241 320.067,-21.9405"/>
<polygon fill="#191970" stroke="#191970" points="321.1886,-25.2718 330.1132,-19.562 319.5758,-18.4601 321.1886,-25.2718"/>
</g>
<!-- Node4209&#45;&gt;Node4200 -->
<g id="edge22" class="edge">
<title>Node4209&#45;&gt;Node4200</title>
<path fill="none" stroke="#191970" d="M239.798,-150.017C251.571,-153.1581 265.1028,-157.2347 277,-162 293.7945,-168.7269 296.3533,-173.9151 313,-181 320.5501,-184.2133 328.841,-187.2334 336.7192,-189.8792"/>
<polygon fill="#191970" stroke="#191970" points="335.7988,-193.2602 346.3908,-193.017 337.959,-186.6018 335.7988,-193.2602"/>
</g>
<!-- Node4210 -->
<g id="node19" class="node">
<title>Node4210</title>
<g id="a_node19"><a xlink:href="../../dc/db4/classcdev_1_1_v_file.html#a76418692ad24fb60ee14bdb5ae66d19d" target="_top" xlink:title="cdev::VFile::createFile">
<polygon fill="#ffffff" stroke="#000000" points="313,-152.5 313,-171.5 428,-171.5 428,-152.5 313,-152.5"/>
<text text-anchor="middle" x="370.5" y="-159.5" font-family="Helvetica,sans-Serif" font-size="10.00" fill="#000000">cdev::VFile::createFile</text>
</a>
</g>
</g>
<!-- Node4209&#45;&gt;Node4210 -->
<g id="edge19" class="edge">
<title>Node4209&#45;&gt;Node4210</title>
<path fill="none" stroke="#191970" d="M239.8127,-146.5292C257.5797,-148.6325 280.8934,-151.3924 302.9044,-153.998"/>
<polygon fill="#191970" stroke="#191970" points="302.559,-157.4815 312.9012,-155.1814 303.382,-150.53 302.559,-157.4815"/>
</g>
<!-- Node4213 -->
<g id="node22" class="node">
<title>Node4213</title>
<g id="a_node22"><a xlink:href="../../d8/d26/classcdev_1_1_c_dev.html#a398ee881e4eb691f7622e8f2e6da7863" target="_top" xlink:title="Handle an open of the device. ">
<polygon fill="#ffffff" stroke="#000000" points="322.5,-114.5 322.5,-133.5 418.5,-133.5 418.5,-114.5 322.5,-114.5"/>
<text text-anchor="middle" x="370.5" y="-121.5" font-family="Helvetica,sans-Serif" font-size="10.00" fill="#000000">cdev::CDev::open</text>
</a>
</g>
</g>
<!-- Node4209&#45;&gt;Node4213 -->
<g id="edge23" class="edge">
<title>Node4209&#45;&gt;Node4213</title>
<path fill="none" stroke="#191970" d="M239.8127,-139.4708C260.1304,-137.0656 287.7019,-133.8016 312.2836,-130.8917"/>
<polygon fill="#191970" stroke="#191970" points="312.7278,-134.3636 322.247,-129.7122 311.9048,-127.4121 312.7278,-134.3636"/>
</g>
<!-- Node4211 -->
<g id="node20" class="node">
<title>Node4211</title>
<g id="a_node20"><a xlink:href="../../da/dc9/posix_2cdev__platform_8cpp.html#aa770be826c3eeb8554e677a3a4c9c11c" target="_top" xlink:title="register_driver">
<polygon fill="#ffffff" stroke="#000000" points="484.5,-209.5 484.5,-228.5 562.5,-228.5 562.5,-209.5 484.5,-209.5"/>
<text text-anchor="middle" x="523.5" y="-216.5" font-family="Helvetica,sans-Serif" font-size="10.00" fill="#000000">register_driver</text>
</a>
</g>
</g>
<!-- Node4210&#45;&gt;Node4211 -->
<g id="edge20" class="edge">
<title>Node4210&#45;&gt;Node4211</title>
<path fill="none" stroke="#191970" d="M402.4857,-171.5219C410.8899,-174.3071 419.874,-177.5416 428,-181 444.6467,-188.0849 447.3179,-192.9988 464,-200 469.1869,-202.1769 474.7149,-204.2517 480.2327,-206.1764"/>
<polygon fill="#191970" stroke="#191970" points="479.4841,-209.6165 490.0779,-209.4684 481.704,-202.9778 479.4841,-209.6165"/>
</g>
<!-- Node4212 -->
<g id="node21" class="node">
<title>Node4212</title>
<g id="a_node21"><a xlink:href="../../dc/db4/classcdev_1_1_v_file.html#a48ae3db836c0e14085465455ebbc9c99" target="_top" xlink:title="cdev::VFile::VFile">
<polygon fill="#ffffff" stroke="#000000" points="476,-171.5 476,-190.5 571,-190.5 571,-171.5 476,-171.5"/>
<text text-anchor="middle" x="523.5" y="-178.5" font-family="Helvetica,sans-Serif" font-size="10.00" fill="#000000">cdev::VFile::VFile</text>
</a>
</g>
</g>
<!-- Node4210&#45;&gt;Node4212 -->
<g id="edge21" class="edge">
<title>Node4210&#45;&gt;Node4212</title>
<path fill="none" stroke="#191970" d="M428.3427,-169.1831C440.5073,-170.6937 453.3421,-172.2876 465.512,-173.7989"/>
<polygon fill="#191970" stroke="#191970" points="465.1938,-177.2862 475.5489,-175.0453 466.0565,-170.3395 465.1938,-177.2862"/>
</g>
<!-- Node4213&#45;&gt;Node4204 -->
<g id="edge24" class="edge">
<title>Node4213&#45;&gt;Node4204</title>
<path fill="none" stroke="#191970" d="M402.4857,-114.4781C410.8899,-111.6929 419.874,-108.4584 428,-105 444.6467,-97.9151 447.3179,-93.0012 464,-86 469.1869,-83.8231 474.7149,-81.7483 480.2327,-79.8236"/>
<polygon fill="#191970" stroke="#191970" points="481.704,-83.0222 490.0779,-76.5316 479.4841,-76.3835 481.704,-83.0222"/>
</g>
<!-- Node4213&#45;&gt;Node4205 -->
<g id="edge26" class="edge">
<title>Node4213&#45;&gt;Node4205</title>
<path fill="none" stroke="#191970" d="M418.9102,-117.9883C432.3658,-116.3173 447.1678,-114.4792 461.2953,-112.7248"/>
<polygon fill="#191970" stroke="#191970" points="461.9419,-116.1714 471.4343,-111.4657 461.0792,-109.2248 461.9419,-116.1714"/>
</g>
<!-- Node4214 -->
<g id="node23" class="node">
<title>Node4214</title>
<g id="a_node23"><a xlink:href="../../d8/d26/classcdev_1_1_c_dev.html#add6ba5112cbd1b9c3d61c148040a5c76" target="_top" xlink:title="Notification of the first open. ">
<polygon fill="#ffffff" stroke="#000000" points="464.5,-133.5 464.5,-152.5 582.5,-152.5 582.5,-133.5 464.5,-133.5"/>
<text text-anchor="middle" x="523.5" y="-140.5" font-family="Helvetica,sans-Serif" font-size="10.00" fill="#000000">cdev::CDev::open_first</text>
</a>
</g>
</g>
<!-- Node4213&#45;&gt;Node4214 -->
<g id="edge25" class="edge">
<title>Node4213&#45;&gt;Node4214</title>
<path fill="none" stroke="#191970" d="M418.9102,-130.0117C430.1956,-131.4132 442.4281,-132.9322 454.4154,-134.4209"/>
<polygon fill="#191970" stroke="#191970" points="454.0458,-137.9018 464.4009,-135.6609 454.9085,-130.9551 454.0458,-137.9018"/>
</g>
</g>
</svg>
