<?xml version="1.0" encoding="UTF-8" standalone="no"?>
<!DOCTYPE svg PUBLIC "-//W3C//DTD SVG 1.1//EN"
 "http://www.w3.org/Graphics/SVG/1.1/DTD/svg11.dtd">
<!-- Generated by graphviz version 2.38.0 (20140413.2041)
 -->
<!-- Title: px4::logger::LogWriter Pages: 1 -->
<svg width="308pt" height="694pt"
 viewBox="0.00 0.00 307.50 694.00" xmlns="http://www.w3.org/2000/svg" xmlns:xlink="http://www.w3.org/1999/xlink">
<g id="graph0" class="graph" transform="scale(1 1) rotate(0) translate(4 690)">
<title>px4::logger::LogWriter</title>
<polygon fill="white" stroke="none" points="-4,4 -4,-690 303.5,-690 303.5,4 -4,4"/>
<!-- Node1 -->
<g id="node1" class="node"><title>Node1</title>
<polygon fill="#bfbfbf" stroke="black" points="100.5,-0.5 100.5,-156.5 213.5,-156.5 213.5,-0.5 100.5,-0.5"/>
<text text-anchor="middle" x="157" y="-144.5" font-family="Helvetica,sans-Serif" font-size="10.00">px4::logger::LogWriter</text>
<polyline fill="none" stroke="black" points="100.5,-137.5 213.5,-137.5 "/>
<text text-anchor="start" x="108.5" y="-125.5" font-family="Helvetica,sans-Serif" font-size="10.00">+ BackendFile</text>
<text text-anchor="start" x="108.5" y="-114.5" font-family="Helvetica,sans-Serif" font-size="10.00">+ BackendMavlink</text>
<text text-anchor="start" x="108.5" y="-103.5" font-family="Helvetica,sans-Serif" font-size="10.00">+ BackendAll</text>
<text text-anchor="start" x="108.5" y="-92.5" font-family="Helvetica,sans-Serif" font-size="10.00">&#45; _backend</text>
<polyline fill="none" stroke="black" points="100.5,-85.5 213.5,-85.5 "/>
<text text-anchor="start" x="108.5" y="-73.5" font-family="Helvetica,sans-Serif" font-size="10.00">+ LogWriter()</text>
<text text-anchor="start" x="108.5" y="-62.5" font-family="Helvetica,sans-Serif" font-size="10.00">+ ~LogWriter()</text>
<text text-anchor="start" x="108.5" y="-51.5" font-family="Helvetica,sans-Serif" font-size="10.00">+ init()</text>
<text text-anchor="start" x="108.5" y="-40.5" font-family="Helvetica,sans-Serif" font-size="10.00">+ backend()</text>
<text text-anchor="start" x="108.5" y="-29.5" font-family="Helvetica,sans-Serif" font-size="10.00">+ thread_stop()</text>
<text text-anchor="start" x="108.5" y="-18.5" font-family="Helvetica,sans-Serif" font-size="10.00">+ start_log_file()</text>
<text text-anchor="start" x="108.5" y="-7.5" font-family="Helvetica,sans-Serif" font-size="10.00">and 17 more...</text>
</g>
<!-- Node2 -->
<g id="node2" class="node"><title>Node2</title>
<g id="a_node2"><a xlink:href="../../d9/d99/classpx4_1_1logger_1_1_log_writer_mavlink.html" target="_top" xlink:title="Writes logging data to uORB, and then sent via mavlink. ">
<polygon fill="white" stroke="black" points="0,-265 0,-465 146,-465 146,-265 0,-265"/>
<text text-anchor="middle" x="73" y="-453" font-family="Helvetica,sans-Serif" font-size="10.00">px4::logger::LogWriterMavlink</text>
<polyline fill="none" stroke="black" points="0,-446 146,-446 "/>
<text text-anchor="start" x="8" y="-434" font-family="Helvetica,sans-Serif" font-size="10.00">&#45; _ulog_stream_pub</text>
<text text-anchor="start" x="8" y="-423" font-family="Helvetica,sans-Serif" font-size="10.00">&#45; _ulog_stream_ack_sub</text>
<text text-anchor="start" x="8" y="-412" font-family="Helvetica,sans-Serif" font-size="10.00">&#45; _need_reliable_transfer</text>
<text text-anchor="start" x="8" y="-401" font-family="Helvetica,sans-Serif" font-size="10.00">&#45; _is_started</text>
<text text-anchor="start" x="8" y="-390" font-family="Helvetica,sans-Serif" font-size="10.00">&#45; _queue_size</text>
<polyline fill="none" stroke="black" points="0,-383 146,-383 "/>
<text text-anchor="start" x="8" y="-371" font-family="Helvetica,sans-Serif" font-size="10.00">+ LogWriterMavlink()</text>
<text text-anchor="start" x="8" y="-360" font-family="Helvetica,sans-Serif" font-size="10.00">+ ~LogWriterMavlink()</text>
<text text-anchor="start" x="8" y="-349" font-family="Helvetica,sans-Serif" font-size="10.00">+ init()</text>
<text text-anchor="start" x="8" y="-338" font-family="Helvetica,sans-Serif" font-size="10.00">+ start_log()</text>
<text text-anchor="start" x="8" y="-327" font-family="Helvetica,sans-Serif" font-size="10.00">+ stop_log()</text>
<text text-anchor="start" x="8" y="-316" font-family="Helvetica,sans-Serif" font-size="10.00">+ is_started()</text>
<text text-anchor="start" x="8" y="-305" font-family="Helvetica,sans-Serif" font-size="10.00">+ write_message()</text>
<text text-anchor="start" x="8" y="-294" font-family="Helvetica,sans-Serif" font-size="10.00">+ set_need_reliable_transfer()</text>
<text text-anchor="start" x="8" y="-283" font-family="Helvetica,sans-Serif" font-size="10.00">+ need_reliable_transfer()</text>
<text text-anchor="start" x="8" y="-272" font-family="Helvetica,sans-Serif" font-size="10.00">&#45; publish_message()</text>
</a>
</g>
</g>
<!-- Node2&#45;&gt;Node1 -->
<g id="edge1" class="edge"><title>Node2&#45;&gt;Node1</title>
<path fill="none" stroke="#404040" d="M75.1962,-264.878C78.1796,-235.302 83.7857,-203.253 94,-175 94.8705,-172.592 95.8131,-170.185 96.8183,-167.783"/>
<polygon fill="none" stroke="#404040" points="96.9381,-167.522 95.8055,-160.401 101.944,-156.616 103.076,-163.738 96.9381,-167.522"/>
<text text-anchor="middle" x="140.5" y="-200" font-family="Helvetica,sans-Serif" font-size="10.00"> &#45;_log_writer_mavlink</text>
<text text-anchor="start" x="94" y="-189" font-family="Helvetica,sans-Serif" font-size="10.00">&#45;_log_writer_mavlink</text>
<text text-anchor="middle" x="140.5" y="-178" font-family="Helvetica,sans-Serif" font-size="10.00">_for_write</text>
</g>
<!-- Node3 -->
<g id="node3" class="node"><title>Node3</title>
<g id="a_node3"><a xlink:href="../../d3/dae/structulog__stream__s.html" target="_top" xlink:title="{ulog_stream_s\n|+ timestamp\l+ sequence\l+ length\l+ first_message_offset\l+ flags\l+ data\l+ _padding0\l|}">
<polygon fill="white" stroke="black" points="14.5,-562.5 14.5,-685.5 131.5,-685.5 131.5,-562.5 14.5,-562.5"/>
<text text-anchor="middle" x="73" y="-673.5" font-family="Helvetica,sans-Serif" font-size="10.00">ulog_stream_s</text>
<polyline fill="none" stroke="black" points="14.5,-666.5 131.5,-666.5 "/>
<text text-anchor="start" x="22.5" y="-654.5" font-family="Helvetica,sans-Serif" font-size="10.00">+ timestamp</text>
<text text-anchor="start" x="22.5" y="-643.5" font-family="Helvetica,sans-Serif" font-size="10.00">+ sequence</text>
<text text-anchor="start" x="22.5" y="-632.5" font-family="Helvetica,sans-Serif" font-size="10.00">+ length</text>
<text text-anchor="start" x="22.5" y="-621.5" font-family="Helvetica,sans-Serif" font-size="10.00">+ first_message_offset</text>
<text text-anchor="start" x="22.5" y="-610.5" font-family="Helvetica,sans-Serif" font-size="10.00">+ flags</text>
<text text-anchor="start" x="22.5" y="-599.5" font-family="Helvetica,sans-Serif" font-size="10.00">+ data</text>
<text text-anchor="start" x="22.5" y="-588.5" font-family="Helvetica,sans-Serif" font-size="10.00">+ _padding0</text>
<polyline fill="none" stroke="black" points="14.5,-581.5 131.5,-581.5 "/>
<text text-anchor="middle" x="73" y="-569.5" font-family="Helvetica,sans-Serif" font-size="10.00"> </text>
</a>
</g>
</g>
<!-- Node3&#45;&gt;Node2 -->
<g id="edge2" class="edge"><title>Node3&#45;&gt;Node2</title>
<path fill="none" stroke="#404040" d="M73,-562.42C73,-536.921 73,-506.415 73,-477.134"/>
<polygon fill="none" stroke="#404040" points="73.0001,-477.118 69,-471.118 73,-465.118 77,-471.118 73.0001,-477.118"/>
<text text-anchor="middle" x="117.5" y="-530.5" font-family="Helvetica,sans-Serif" font-size="10.00"> &#45;_ulog_stream_data</text>
</g>
<!-- Node4 -->
<g id="node4" class="node"><title>Node4</title>
<g id="a_node4"><a xlink:href="../../df/d78/classpx4_1_1logger_1_1_log_writer_file.html" target="_top" xlink:title="Writes logging data to a file. ">
<polygon fill="white" stroke="black" points="164.5,-226.5 164.5,-503.5 299.5,-503.5 299.5,-226.5 164.5,-226.5"/>
<text text-anchor="middle" x="232" y="-491.5" font-family="Helvetica,sans-Serif" font-size="10.00">px4::logger::LogWriterFile</text>
<polyline fill="none" stroke="black" points="164.5,-484.5 299.5,-484.5 "/>
<text text-anchor="start" x="172.5" y="-472.5" font-family="Helvetica,sans-Serif" font-size="10.00">&#45; _fd</text>
<text text-anchor="start" x="172.5" y="-461.5" font-family="Helvetica,sans-Serif" font-size="10.00">&#45; _buffer</text>
<text text-anchor="start" x="172.5" y="-450.5" font-family="Helvetica,sans-Serif" font-size="10.00">&#45; _buffer_size</text>
<text text-anchor="start" x="172.5" y="-439.5" font-family="Helvetica,sans-Serif" font-size="10.00">&#45; _head</text>
<text text-anchor="start" x="172.5" y="-428.5" font-family="Helvetica,sans-Serif" font-size="10.00">&#45; _count</text>
<text text-anchor="start" x="172.5" y="-417.5" font-family="Helvetica,sans-Serif" font-size="10.00">&#45; _total_written</text>
<text text-anchor="start" x="172.5" y="-406.5" font-family="Helvetica,sans-Serif" font-size="10.00">and 7 more...</text>
<text text-anchor="start" x="172.5" y="-395.5" font-family="Helvetica,sans-Serif" font-size="10.00">&#45; _min_write_chunk</text>
<polyline fill="none" stroke="black" points="164.5,-388.5 299.5,-388.5 "/>
<text text-anchor="start" x="172.5" y="-376.5" font-family="Helvetica,sans-Serif" font-size="10.00">+ LogWriterFile()</text>
<text text-anchor="start" x="172.5" y="-365.5" font-family="Helvetica,sans-Serif" font-size="10.00">+ ~LogWriterFile()</text>
<text text-anchor="start" x="172.5" y="-354.5" font-family="Helvetica,sans-Serif" font-size="10.00">+ init()</text>
<text text-anchor="start" x="172.5" y="-343.5" font-family="Helvetica,sans-Serif" font-size="10.00">+ thread_start()</text>
<text text-anchor="start" x="172.5" y="-332.5" font-family="Helvetica,sans-Serif" font-size="10.00">+ thread_stop()</text>
<text text-anchor="start" x="172.5" y="-321.5" font-family="Helvetica,sans-Serif" font-size="10.00">+ start_log()</text>
<text text-anchor="start" x="172.5" y="-310.5" font-family="Helvetica,sans-Serif" font-size="10.00">and 12 more...</text>
<text text-anchor="start" x="172.5" y="-299.5" font-family="Helvetica,sans-Serif" font-size="10.00">&#45; run()</text>
<text text-anchor="start" x="172.5" y="-288.5" font-family="Helvetica,sans-Serif" font-size="10.00">&#45; get_read_ptr()</text>
<text text-anchor="start" x="172.5" y="-277.5" font-family="Helvetica,sans-Serif" font-size="10.00">&#45; mark_read()</text>
<text text-anchor="start" x="172.5" y="-266.5" font-family="Helvetica,sans-Serif" font-size="10.00">&#45; hardfault_store_filename()</text>
<text text-anchor="start" x="172.5" y="-255.5" font-family="Helvetica,sans-Serif" font-size="10.00">&#45; write()</text>
<text text-anchor="start" x="172.5" y="-244.5" font-family="Helvetica,sans-Serif" font-size="10.00">&#45; write_no_check()</text>
<text text-anchor="start" x="172.5" y="-233.5" font-family="Helvetica,sans-Serif" font-size="10.00">&#45; run_helper()</text>
</a>
</g>
</g>
<!-- Node4&#45;&gt;Node1 -->
<g id="edge3" class="edge"><title>Node4&#45;&gt;Node1</title>
<path fill="none" stroke="#404040" d="M204.329,-226.448C200.192,-209.045 195.719,-191.548 191,-175 190.357,-172.747 189.69,-170.47 189.001,-168.178"/>
<polygon fill="none" stroke="#404040" points="188.973,-168.086 183.37,-163.546 185.406,-156.628 191.009,-161.168 188.973,-168.086"/>
<text text-anchor="middle" x="236" y="-200" font-family="Helvetica,sans-Serif" font-size="10.00"> &#45;_log_writer_file</text>
<text text-anchor="start" x="200" y="-189" font-family="Helvetica,sans-Serif" font-size="10.00">&#45;_log_writer_file</text>
<text text-anchor="middle" x="236" y="-178" font-family="Helvetica,sans-Serif" font-size="10.00">_for_write</text>
</g>
<!-- Node5 -->
<g id="node5" class="node"><title>Node5</title>
<g id="a_node5"><a xlink:href="../../d2/db8/structperf__ctr__header.html" target="_top" xlink:title="Header common to all counters. ">
<polygon fill="white" stroke="black" points="190,-584.5 190,-663.5 274,-663.5 274,-584.5 190,-584.5"/>
<text text-anchor="middle" x="232" y="-651.5" font-family="Helvetica,sans-Serif" font-size="10.00">perf_ctr_header</text>
<polyline fill="none" stroke="black" points="190,-644.5 274,-644.5 "/>
<text text-anchor="start" x="198" y="-632.5" font-family="Helvetica,sans-Serif" font-size="10.00">+ link</text>
<text text-anchor="start" x="198" y="-621.5" font-family="Helvetica,sans-Serif" font-size="10.00">+ type</text>
<text text-anchor="start" x="198" y="-610.5" font-family="Helvetica,sans-Serif" font-size="10.00">+ name</text>
<polyline fill="none" stroke="black" points="190,-603.5 274,-603.5 "/>
<text text-anchor="middle" x="232" y="-591.5" font-family="Helvetica,sans-Serif" font-size="10.00"> </text>
</a>
</g>
</g>
<!-- Node5&#45;&gt;Node4 -->
<g id="edge4" class="edge"><title>Node5&#45;&gt;Node4</title>
<path fill="none" stroke="#404040" d="M232,-584.246C232,-565.241 232,-541.004 232,-515.637"/>
<polygon fill="none" stroke="#404040" points="232,-515.516 228,-509.516 232,-503.516 236,-509.516 232,-515.516"/>
<text text-anchor="middle" x="259.5" y="-536" font-family="Helvetica,sans-Serif" font-size="10.00"> &#45;_perf_write</text>
<text text-anchor="middle" x="259.5" y="-525" font-family="Helvetica,sans-Serif" font-size="10.00">&#45;_perf_fsync</text>
</g>
</g>
</svg>
