<?xml version="1.0" encoding="UTF-8" standalone="no"?>
<!DOCTYPE svg PUBLIC "-//W3C//DTD SVG 1.1//EN"
 "http://www.w3.org/Graphics/SVG/1.1/DTD/svg11.dtd">
<!-- Generated by graphviz version 2.38.0 (20140413.2041)
 -->
<!-- Title: src/modules/uavcannode/uavcannode_main.cpp Pages: 1 -->
<svg width="2358pt" height="330pt"
 viewBox="0.00 0.00 2358.12 330.00" xmlns="http://www.w3.org/2000/svg" xmlns:xlink="http://www.w3.org/1999/xlink">
<g id="graph0" class="graph" transform="scale(1 1) rotate(0) translate(4 326)">
<title>src/modules/uavcannode/uavcannode_main.cpp</title>
<polygon fill="white" stroke="none" points="-4,4 -4,-326 2354.12,-326 2354.12,4 -4,4"/>
<!-- Node1 -->
<g id="node1" class="node"><title>Node1</title>
<polygon fill="#bfbfbf" stroke="black" points="1416.12,-291.5 1416.12,-321.5 1541.12,-321.5 1541.12,-291.5 1416.12,-291.5"/>
<text text-anchor="start" x="1424.12" y="-309.5" font-family="Helvetica,sans-Serif" font-size="10.00">src/modules/uavcannode</text>
<text text-anchor="middle" x="1478.62" y="-298.5" font-family="Helvetica,sans-Serif" font-size="10.00">/uavcannode_main.cpp</text>
</g>
<!-- Node2 -->
<g id="node2" class="node"><title>Node2</title>
<g id="a_node2"><a xlink:href="../../d4/d35/px4__config_8h.html" target="_top" xlink:title="Configuration flags used in code. ">
<polygon fill="white" stroke="black" points="1335.62,-0.5 1335.62,-19.5 1407.62,-19.5 1407.62,-0.5 1335.62,-0.5"/>
<text text-anchor="middle" x="1371.62" y="-7.5" font-family="Helvetica,sans-Serif" font-size="10.00">px4_config.h</text>
</a>
</g>
</g>
<!-- Node1&#45;&gt;Node2 -->
<g id="edge1" class="edge"><title>Node1&#45;&gt;Node2</title>
<path fill="none" stroke="midnightblue" d="M1497.03,-291.38C1521.7,-272.757 1564.47,-241.57 1582.62,-235 1736.88,-179.163 2045.15,-298.415 1945.62,-168 1880.46,-82.627 1542.55,-32.3718 1417.89,-16.5022"/>
<polygon fill="midnightblue" stroke="midnightblue" points="1418.25,-13.0201 1407.89,-15.2453 1417.37,-19.9654 1418.25,-13.0201"/>
</g>
<!-- Node3 -->
<g id="node3" class="node"><title>Node3</title>
<g id="a_node3"><a xlink:href="../../d7/d53/px4__log_8h.html" target="_top" xlink:title="Platform dependant logging/debug implementation. ">
<polygon fill="white" stroke="black" points="1112.12,-174 1112.12,-193 1171.12,-193 1171.12,-174 1112.12,-174"/>
<text text-anchor="middle" x="1141.62" y="-181" font-family="Helvetica,sans-Serif" font-size="10.00">px4_log.h</text>
</a>
</g>
</g>
<!-- Node1&#45;&gt;Node3 -->
<g id="edge2" class="edge"><title>Node1&#45;&gt;Node3</title>
<path fill="none" stroke="midnightblue" d="M1416.11,-303.67C1333.77,-299.945 1195.14,-288.711 1158.62,-255 1144.62,-242.082 1141.23,-219.812 1140.8,-203.754"/>
<polygon fill="midnightblue" stroke="midnightblue" points="1144.3,-203.415 1140.9,-193.382 1137.3,-203.348 1144.3,-203.415"/>
</g>
<!-- Node10 -->
<g id="node10" class="node"><title>Node10</title>
<g id="a_node10"><a xlink:href="../../da/d65/px4__tasks_8h.html" target="_top" xlink:title="px4_tasks.h">
<polygon fill="white" stroke="black" points="463.618,-235.5 463.618,-254.5 533.618,-254.5 533.618,-235.5 463.618,-235.5"/>
<text text-anchor="middle" x="498.618" y="-242.5" font-family="Helvetica,sans-Serif" font-size="10.00">px4_tasks.h</text>
</a>
</g>
</g>
<!-- Node1&#45;&gt;Node10 -->
<g id="edge10" class="edge"><title>Node1&#45;&gt;Node10</title>
<path fill="none" stroke="midnightblue" d="M1415.86,-303.977C1267.05,-299.946 881.248,-287.026 560.618,-255 555.139,-254.453 549.403,-253.77 543.725,-253.027"/>
<polygon fill="midnightblue" stroke="midnightblue" points="544.019,-249.534 533.635,-251.64 543.066,-256.469 544.019,-249.534"/>
</g>
<!-- Node12 -->
<g id="node12" class="node"><title>Node12</title>
<g id="a_node12"><a xlink:href="../../d8/dc7/px4__workqueue_8h.html" target="_top" xlink:title="px4_workqueue.h">
<polygon fill="white" stroke="black" points="1592.12,-235.5 1592.12,-254.5 1685.12,-254.5 1685.12,-235.5 1592.12,-235.5"/>
<text text-anchor="middle" x="1638.62" y="-242.5" font-family="Helvetica,sans-Serif" font-size="10.00">px4_workqueue.h</text>
</a>
</g>
</g>
<!-- Node1&#45;&gt;Node12 -->
<g id="edge12" class="edge"><title>Node1&#45;&gt;Node12</title>
<path fill="none" stroke="midnightblue" d="M1516.54,-291.399C1543.74,-281.283 1580.02,-267.791 1605.95,-258.149"/>
<polygon fill="midnightblue" stroke="midnightblue" points="1607.18,-261.424 1615.34,-254.658 1604.74,-254.863 1607.18,-261.424"/>
</g>
<!-- Node13 -->
<g id="node13" class="node"><title>Node13</title>
<polygon fill="white" stroke="#bfbfbf" points="1703.12,-235.5 1703.12,-254.5 1748.12,-254.5 1748.12,-235.5 1703.12,-235.5"/>
<text text-anchor="middle" x="1725.62" y="-242.5" font-family="Helvetica,sans-Serif" font-size="10.00">cstdlib</text>
</g>
<!-- Node1&#45;&gt;Node13 -->
<g id="edge13" class="edge"><title>Node1&#45;&gt;Node13</title>
<path fill="none" stroke="midnightblue" d="M1541.36,-291.52C1581.98,-282.293 1636.24,-269.643 1693.04,-255.063"/>
<polygon fill="midnightblue" stroke="midnightblue" points="1694.12,-258.401 1702.93,-252.514 1692.37,-251.623 1694.12,-258.401"/>
</g>
<!-- Node14 -->
<g id="node14" class="node"><title>Node14</title>
<polygon fill="white" stroke="#bfbfbf" points="1766.62,-235.5 1766.62,-254.5 1812.62,-254.5 1812.62,-235.5 1766.62,-235.5"/>
<text text-anchor="middle" x="1789.62" y="-242.5" font-family="Helvetica,sans-Serif" font-size="10.00">cstring</text>
</g>
<!-- Node1&#45;&gt;Node14 -->
<g id="edge14" class="edge"><title>Node1&#45;&gt;Node14</title>
<path fill="none" stroke="midnightblue" d="M1541.31,-295.703C1597.86,-286.49 1683.18,-271.651 1756.62,-255 1756.72,-254.977 1756.82,-254.954 1756.92,-254.931"/>
<polygon fill="midnightblue" stroke="midnightblue" points="1757.73,-258.337 1766.6,-252.55 1756.06,-251.54 1757.73,-258.337"/>
</g>
<!-- Node15 -->
<g id="node15" class="node"><title>Node15</title>
<polygon fill="white" stroke="#bfbfbf" points="1830.62,-235.5 1830.62,-254.5 1874.62,-254.5 1874.62,-235.5 1830.62,-235.5"/>
<text text-anchor="middle" x="1852.62" y="-242.5" font-family="Helvetica,sans-Serif" font-size="10.00">fcntl.h</text>
</g>
<!-- Node1&#45;&gt;Node15 -->
<g id="edge15" class="edge"><title>Node1&#45;&gt;Node15</title>
<path fill="none" stroke="midnightblue" d="M1541.36,-298.866C1608.33,-291.201 1717.63,-277.017 1820.43,-255.01"/>
<polygon fill="midnightblue" stroke="midnightblue" points="1821.33,-258.397 1830.36,-252.856 1819.85,-251.556 1821.33,-258.397"/>
</g>
<!-- Node16 -->
<g id="node16" class="node"><title>Node16</title>
<g id="a_node16"><a xlink:href="../../d6/d40/err_8h.html" target="_top" xlink:title="Simple error/warning functions, heavily inspired by the BSD functions of the same names...">
<polygon fill="white" stroke="black" points="1030.12,-235.5 1030.12,-254.5 1111.12,-254.5 1111.12,-235.5 1030.12,-235.5"/>
<text text-anchor="middle" x="1070.62" y="-242.5" font-family="Helvetica,sans-Serif" font-size="10.00">systemlib/err.h</text>
</a>
</g>
</g>
<!-- Node1&#45;&gt;Node16 -->
<g id="edge16" class="edge"><title>Node1&#45;&gt;Node16</title>
<path fill="none" stroke="midnightblue" d="M1416.07,-296.939C1345.47,-287.185 1227.2,-270.576 1125.62,-255 1124.15,-254.775 1122.67,-254.546 1121.17,-254.312"/>
<polygon fill="midnightblue" stroke="midnightblue" points="1121.58,-250.833 1111.15,-252.728 1120.48,-257.747 1121.58,-250.833"/>
</g>
<!-- Node19 -->
<g id="node19" class="node"><title>Node19</title>
<g id="a_node19"><a xlink:href="../../d5/d33/param_8h.html" target="_top" xlink:title="Global flash based parameter store. ">
<polygon fill="white" stroke="black" points="319.618,-235.5 319.618,-254.5 423.618,-254.5 423.618,-235.5 319.618,-235.5"/>
<text text-anchor="middle" x="371.618" y="-242.5" font-family="Helvetica,sans-Serif" font-size="10.00">parameters/param.h</text>
</a>
</g>
</g>
<!-- Node1&#45;&gt;Node19 -->
<g id="edge21" class="edge"><title>Node1&#45;&gt;Node19</title>
<path fill="none" stroke="midnightblue" d="M1415.91,-303.69C1255.66,-298.787 818.156,-283.649 454.618,-255 447.92,-254.472 440.925,-253.84 433.962,-253.159"/>
<polygon fill="midnightblue" stroke="midnightblue" points="434.122,-249.658 423.82,-252.133 433.417,-256.622 434.122,-249.658"/>
</g>
<!-- Node21 -->
<g id="node21" class="node"><title>Node21</title>
<g id="a_node21"><a xlink:href="../../d9/dc3/lib_2mixer_2mixer_8h.html" target="_top" xlink:title="lib/mixer/mixer.h">
<polygon fill="white" stroke="black" points="19.1184,-235.5 19.1184,-254.5 108.118,-254.5 108.118,-235.5 19.1184,-235.5"/>
<text text-anchor="middle" x="63.6184" y="-242.5" font-family="Helvetica,sans-Serif" font-size="10.00">lib/mixer/mixer.h</text>
</a>
</g>
</g>
<!-- Node1&#45;&gt;Node21 -->
<g id="edge25" class="edge"><title>Node1&#45;&gt;Node21</title>
<path fill="none" stroke="midnightblue" d="M1415.81,-304.008C1227.55,-299.333 651.52,-283.556 174.618,-255 156.222,-253.898 136.135,-252.369 118.168,-250.884"/>
<polygon fill="midnightblue" stroke="midnightblue" points="118.405,-247.392 108.147,-250.042 117.819,-254.367 118.405,-247.392"/>
</g>
<!-- Node25 -->
<g id="node25" class="node"><title>Node25</title>
<g id="a_node25"><a xlink:href="../../df/dfc/version_8h.html" target="_top" xlink:title="Tools for system version detection. ">
<polygon fill="white" stroke="black" points="66.1184,-174 66.1184,-193 157.118,-193 157.118,-174 66.1184,-174"/>
<text text-anchor="middle" x="111.618" y="-181" font-family="Helvetica,sans-Serif" font-size="10.00">version/version.h</text>
</a>
</g>
</g>
<!-- Node1&#45;&gt;Node25 -->
<g id="edge33" class="edge"><title>Node1&#45;&gt;Node25</title>
<path fill="none" stroke="midnightblue" d="M1415.92,-305.237C1205.43,-303.971 525.179,-296.674 310.618,-255 247.368,-242.715 177.149,-214.059 139.356,-197.308"/>
<polygon fill="midnightblue" stroke="midnightblue" points="140.585,-194.023 130.029,-193.122 137.719,-200.41 140.585,-194.023"/>
</g>
<!-- Node28 -->
<g id="node28" class="node"><title>Node28</title>
<polygon fill="white" stroke="#bfbfbf" points="1892.62,-235.5 1892.62,-254.5 1966.62,-254.5 1966.62,-235.5 1892.62,-235.5"/>
<text text-anchor="middle" x="1929.62" y="-242.5" font-family="Helvetica,sans-Serif" font-size="10.00">nuttx/board.h</text>
</g>
<!-- Node1&#45;&gt;Node28 -->
<g id="edge38" class="edge"><title>Node1&#45;&gt;Node28</title>
<path fill="none" stroke="midnightblue" d="M1541.25,-299.049C1618.97,-290.741 1755.76,-275.127 1882.61,-255.068"/>
<polygon fill="midnightblue" stroke="midnightblue" points="1883.18,-258.521 1892.5,-253.491 1882.07,-251.609 1883.18,-258.521"/>
</g>
<!-- Node29 -->
<g id="node29" class="node"><title>Node29</title>
<polygon fill="white" stroke="#bfbfbf" points="1984.62,-235.5 1984.62,-254.5 2070.62,-254.5 2070.62,-235.5 1984.62,-235.5"/>
<text text-anchor="middle" x="2027.62" y="-242.5" font-family="Helvetica,sans-Serif" font-size="10.00">arch/chip/chip.h</text>
</g>
<!-- Node1&#45;&gt;Node29 -->
<g id="edge39" class="edge"><title>Node1&#45;&gt;Node29</title>
<path fill="none" stroke="midnightblue" d="M1541.16,-300.562C1633.6,-292.949 1812.36,-277.033 1974.37,-255.085"/>
<polygon fill="midnightblue" stroke="midnightblue" points="1975.09,-258.519 1984.52,-253.698 1974.14,-251.583 1975.09,-258.519"/>
</g>
<!-- Node30 -->
<g id="node30" class="node"><title>Node30</title>
<g id="a_node30"><a xlink:href="../../d6/d10/drv__hrt_8h.html" target="_top" xlink:title="High&#45;resolution timer with callouts and timekeeping. ">
<polygon fill="white" stroke="black" points="810.118,-235.5 810.118,-254.5 897.118,-254.5 897.118,-235.5 810.118,-235.5"/>
<text text-anchor="middle" x="853.618" y="-242.5" font-family="Helvetica,sans-Serif" font-size="10.00">drivers/drv_hrt.h</text>
</a>
</g>
</g>
<!-- Node1&#45;&gt;Node30 -->
<g id="edge40" class="edge"><title>Node1&#45;&gt;Node30</title>
<path fill="none" stroke="midnightblue" d="M1416.12,-299.55C1293.38,-287.865 1022.77,-262.103 907.413,-251.121"/>
<polygon fill="midnightblue" stroke="midnightblue" points="907.687,-247.632 897.401,-250.168 907.024,-254.6 907.687,-247.632"/>
</g>
<!-- Node34 -->
<g id="node34" class="node"><title>Node34</title>
<g id="a_node34"><a xlink:href="../../d0/dbb/drv__pwm__output_8h.html" target="_top" xlink:title="drivers/drv_pwm_output.h">
<polygon fill="white" stroke="black" points="570.118,-235.5 570.118,-254.5 699.118,-254.5 699.118,-235.5 570.118,-235.5"/>
<text text-anchor="middle" x="634.618" y="-242.5" font-family="Helvetica,sans-Serif" font-size="10.00">drivers/drv_pwm_output.h</text>
</a>
</g>
</g>
<!-- Node1&#45;&gt;Node34 -->
<g id="edge48" class="edge"><title>Node1&#45;&gt;Node34</title>
<path fill="none" stroke="midnightblue" d="M1415.87,-301.076C1263.29,-290.32 873.373,-262.832 709.231,-251.26"/>
<polygon fill="midnightblue" stroke="midnightblue" points="709.444,-247.766 699.223,-250.554 708.952,-254.749 709.444,-247.766"/>
</g>
<!-- Node37 -->
<g id="node37" class="node"><title>Node37</title>
<g id="a_node37"><a xlink:href="../../df/dcd/uavcannode__main_8hpp.html" target="_top" xlink:title="uavcannode_main.hpp">
<polygon fill="white" stroke="black" points="1421.62,-235.5 1421.62,-254.5 1535.62,-254.5 1535.62,-235.5 1421.62,-235.5"/>
<text text-anchor="middle" x="1478.62" y="-242.5" font-family="Helvetica,sans-Serif" font-size="10.00">uavcannode_main.hpp</text>
</a>
</g>
</g>
<!-- Node1&#45;&gt;Node37 -->
<g id="edge58" class="edge"><title>Node1&#45;&gt;Node37</title>
<path fill="none" stroke="midnightblue" d="M1478.62,-291.399C1478.62,-283.466 1478.62,-273.458 1478.62,-264.858"/>
<polygon fill="midnightblue" stroke="midnightblue" points="1482.12,-264.658 1478.62,-254.658 1475.12,-264.658 1482.12,-264.658"/>
</g>
<!-- Node45 -->
<g id="node45" class="node"><title>Node45</title>
<g id="a_node45"><a xlink:href="../../d1/d85/uavcannode_2indication__controller_8hpp.html" target="_top" xlink:title="indication_controller.hpp">
<polygon fill="white" stroke="black" points="1167.62,-235.5 1167.62,-254.5 1289.62,-254.5 1289.62,-235.5 1167.62,-235.5"/>
<text text-anchor="middle" x="1228.62" y="-242.5" font-family="Helvetica,sans-Serif" font-size="10.00">indication_controller.hpp</text>
</a>
</g>
</g>
<!-- Node1&#45;&gt;Node45 -->
<g id="edge70" class="edge"><title>Node1&#45;&gt;Node45</title>
<path fill="none" stroke="midnightblue" d="M1419.69,-291.475C1375.24,-280.896 1315.15,-266.595 1274.31,-256.874"/>
<polygon fill="midnightblue" stroke="midnightblue" points="1274.9,-253.417 1264.36,-254.506 1273.28,-260.227 1274.9,-253.417"/>
</g>
<!-- Node46 -->
<g id="node46" class="node"><title>Node46</title>
<g id="a_node46"><a xlink:href="../../dc/dc9/sim__controller_8hpp.html" target="_top" xlink:title="sim_controller.hpp">
<polygon fill="white" stroke="black" points="1307.62,-235.5 1307.62,-254.5 1403.62,-254.5 1403.62,-235.5 1307.62,-235.5"/>
<text text-anchor="middle" x="1355.62" y="-242.5" font-family="Helvetica,sans-Serif" font-size="10.00">sim_controller.hpp</text>
</a>
</g>
</g>
<!-- Node1&#45;&gt;Node46 -->
<g id="edge72" class="edge"><title>Node1&#45;&gt;Node46</title>
<path fill="none" stroke="midnightblue" d="M1449.47,-291.399C1429.2,-281.595 1402.38,-268.619 1382.6,-259.052"/>
<polygon fill="midnightblue" stroke="midnightblue" points="1384.04,-255.862 1373.52,-254.658 1380.99,-262.163 1384.04,-255.862"/>
</g>
<!-- Node47 -->
<g id="node47" class="node"><title>Node47</title>
<g id="a_node47"><a xlink:href="../../d1/dee/resources_8hpp.html" target="_top" xlink:title="resources.hpp">
<polygon fill="white" stroke="black" points="2088.62,-235.5 2088.62,-254.5 2166.62,-254.5 2166.62,-235.5 2088.62,-235.5"/>
<text text-anchor="middle" x="2127.62" y="-242.5" font-family="Helvetica,sans-Serif" font-size="10.00">resources.hpp</text>
</a>
</g>
</g>
<!-- Node1&#45;&gt;Node47 -->
<g id="edge74" class="edge"><title>Node1&#45;&gt;Node47</title>
<path fill="none" stroke="midnightblue" d="M1541.14,-302.343C1648.81,-296.446 1876.31,-281.975 2078.18,-255.067"/>
<polygon fill="midnightblue" stroke="midnightblue" points="2078.93,-258.496 2088.38,-253.693 2078,-251.559 2078.93,-258.496"/>
</g>
<!-- Node48 -->
<g id="node48" class="node"><title>Node48</title>
<g id="a_node48"><a xlink:href="../../d6/d6d/uavcannode_2led_8hpp.html" target="_top" xlink:title="led.hpp">
<polygon fill="white" stroke="black" points="2184.62,-235.5 2184.62,-254.5 2232.62,-254.5 2232.62,-235.5 2184.62,-235.5"/>
<text text-anchor="middle" x="2208.62" y="-242.5" font-family="Helvetica,sans-Serif" font-size="10.00">led.hpp</text>
</a>
</g>
</g>
<!-- Node1&#45;&gt;Node48 -->
<g id="edge75" class="edge"><title>Node1&#45;&gt;Node48</title>
<path fill="none" stroke="midnightblue" d="M1541.59,-305.012C1662.74,-303.19 1936.59,-294.787 2174.71,-254.813"/>
<polygon fill="midnightblue" stroke="midnightblue" points="2175.32,-258.26 2184.59,-253.132 2174.14,-251.359 2175.32,-258.26"/>
</g>
<!-- Node49 -->
<g id="node49" class="node"><title>Node49</title>
<g id="a_node49"><a xlink:href="../../de/d9b/boot__app__shared_8h.html" target="_top" xlink:title="boot_app_shared.h">
<polygon fill="white" stroke="black" points="2251.12,-235.5 2251.12,-254.5 2350.12,-254.5 2350.12,-235.5 2251.12,-235.5"/>
<text text-anchor="middle" x="2300.62" y="-242.5" font-family="Helvetica,sans-Serif" font-size="10.00">boot_app_shared.h</text>
</a>
</g>
</g>
<!-- Node1&#45;&gt;Node49 -->
<g id="edge76" class="edge"><title>Node1&#45;&gt;Node49</title>
<path fill="none" stroke="midnightblue" d="M1541.58,-303.152C1670.66,-297.942 1974.78,-283.642 2240.84,-254.982"/>
<polygon fill="midnightblue" stroke="midnightblue" points="2241.52,-258.429 2251.08,-253.869 2240.76,-251.47 2241.52,-258.429"/>
</g>
<!-- Node4 -->
<g id="node4" class="node"><title>Node4</title>
<polygon fill="white" stroke="#bfbfbf" points="943.118,-112.5 943.118,-131.5 1002.12,-131.5 1002.12,-112.5 943.118,-112.5"/>
<text text-anchor="middle" x="972.618" y="-119.5" font-family="Helvetica,sans-Serif" font-size="10.00">inttypes.h</text>
</g>
<!-- Node3&#45;&gt;Node4 -->
<g id="edge3" class="edge"><title>Node3&#45;&gt;Node4</title>
<path fill="none" stroke="midnightblue" d="M1118.97,-173.979C1113.61,-171.993 1107.92,-169.903 1102.62,-168 1070.53,-156.482 1033.8,-143.815 1007.59,-134.864"/>
<polygon fill="midnightblue" stroke="midnightblue" points="1008.68,-131.539 998.087,-131.625 1006.42,-138.165 1008.68,-131.539"/>
</g>
<!-- Node5 -->
<g id="node5" class="node"><title>Node5</title>
<polygon fill="white" stroke="#bfbfbf" points="386.118,-112.5 386.118,-131.5 435.118,-131.5 435.118,-112.5 386.118,-112.5"/>
<text text-anchor="middle" x="410.618" y="-119.5" font-family="Helvetica,sans-Serif" font-size="10.00">stdint.h</text>
</g>
<!-- Node3&#45;&gt;Node5 -->
<g id="edge4" class="edge"><title>Node3&#45;&gt;Node5</title>
<path fill="none" stroke="midnightblue" d="M1122.11,-173.978C1115.98,-171.648 1109.12,-169.386 1102.62,-168 858.262,-115.912 790.915,-148.562 541.618,-132 509.031,-129.835 471.891,-127.275 445.5,-125.439"/>
<polygon fill="midnightblue" stroke="midnightblue" points="445.462,-121.928 435.243,-124.725 444.976,-128.911 445.462,-121.928"/>
</g>
<!-- Node6 -->
<g id="node6" class="node"><title>Node6</title>
<polygon fill="white" stroke="#bfbfbf" points="1027.62,-112.5 1027.62,-131.5 1095.62,-131.5 1095.62,-112.5 1027.62,-112.5"/>
<text text-anchor="middle" x="1061.62" y="-119.5" font-family="Helvetica,sans-Serif" font-size="10.00">sys/cdefs.h</text>
</g>
<!-- Node3&#45;&gt;Node6 -->
<g id="edge5" class="edge"><title>Node3&#45;&gt;Node6</title>
<path fill="none" stroke="midnightblue" d="M1130.16,-173.975C1117.44,-164.52 1096.71,-149.096 1081.37,-137.687"/>
<polygon fill="midnightblue" stroke="midnightblue" points="1083.17,-134.669 1073.06,-131.509 1078.99,-140.285 1083.17,-134.669"/>
</g>
<!-- Node7 -->
<g id="node7" class="node"><title>Node7</title>
<polygon fill="white" stroke="#bfbfbf" points="1113.62,-112.5 1113.62,-131.5 1159.62,-131.5 1159.62,-112.5 1113.62,-112.5"/>
<text text-anchor="middle" x="1136.62" y="-119.5" font-family="Helvetica,sans-Serif" font-size="10.00">stdio.h</text>
</g>
<!-- Node3&#45;&gt;Node7 -->
<g id="edge6" class="edge"><title>Node3&#45;&gt;Node7</title>
<path fill="none" stroke="midnightblue" d="M1140.9,-173.975C1140.2,-165.58 1139.1,-152.481 1138.19,-141.663"/>
<polygon fill="midnightblue" stroke="midnightblue" points="1141.66,-141.181 1137.33,-131.509 1134.68,-141.767 1141.66,-141.181"/>
</g>
<!-- Node8 -->
<g id="node8" class="node"><title>Node8</title>
<polygon fill="white" stroke="#bfbfbf" points="1177.62,-112.5 1177.62,-131.5 1229.62,-131.5 1229.62,-112.5 1177.62,-112.5"/>
<text text-anchor="middle" x="1203.62" y="-119.5" font-family="Helvetica,sans-Serif" font-size="10.00">stdarg.h</text>
</g>
<!-- Node3&#45;&gt;Node8 -->
<g id="edge7" class="edge"><title>Node3&#45;&gt;Node8</title>
<path fill="none" stroke="midnightblue" d="M1150.5,-173.975C1160.08,-164.785 1175.53,-149.956 1187.3,-138.656"/>
<polygon fill="midnightblue" stroke="midnightblue" points="1189.96,-140.958 1194.75,-131.509 1185.11,-135.908 1189.96,-140.958"/>
</g>
<!-- Node9 -->
<g id="node9" class="node"><title>Node9</title>
<g id="a_node9"><a xlink:href="../../df/dd0/px4__defines_8h.html" target="_top" xlink:title="Generally used magic defines. ">
<polygon fill="white" stroke="black" points="717.118,-112.5 717.118,-131.5 794.118,-131.5 794.118,-112.5 717.118,-112.5"/>
<text text-anchor="middle" x="755.618" y="-119.5" font-family="Helvetica,sans-Serif" font-size="10.00">px4_defines.h</text>
</a>
</g>
</g>
<!-- Node3&#45;&gt;Node9 -->
<g id="edge8" class="edge"><title>Node3&#45;&gt;Node9</title>
<path fill="none" stroke="midnightblue" d="M1112.61,-173.934C1106.33,-171.717 1099.79,-169.526 1093.62,-168 1039.51,-154.617 884.667,-137.298 804.629,-128.562"/>
<polygon fill="midnightblue" stroke="midnightblue" points="804.637,-125.042 794.317,-127.438 803.879,-132.001 804.637,-125.042"/>
</g>
<!-- Node9&#45;&gt;Node3 -->
<g id="edge9" class="edge"><title>Node9&#45;&gt;Node3</title>
<path fill="none" stroke="midnightblue" d="M794.41,-126.424C874.027,-134.153 1052.65,-153.415 1111.62,-168 1114.51,-168.715 1117.48,-169.577 1120.4,-170.518"/>
<polygon fill="midnightblue" stroke="midnightblue" points="1119.29,-173.838 1129.88,-173.934 1121.66,-167.253 1119.29,-173.838"/>
</g>
<!-- Node11 -->
<g id="node11" class="node"><title>Node11</title>
<polygon fill="white" stroke="#bfbfbf" points="369.618,-174 369.618,-193 425.618,-193 425.618,-174 369.618,-174"/>
<text text-anchor="middle" x="397.618" y="-181" font-family="Helvetica,sans-Serif" font-size="10.00">stdbool.h</text>
</g>
<!-- Node10&#45;&gt;Node11 -->
<g id="edge11" class="edge"><title>Node10&#45;&gt;Node11</title>
<path fill="none" stroke="midnightblue" d="M484.148,-235.475C467.647,-225.755 440.44,-209.727 420.937,-198.237"/>
<polygon fill="midnightblue" stroke="midnightblue" points="422.455,-195.069 412.062,-193.009 418.902,-201.101 422.455,-195.069"/>
</g>
<!-- Node16&#45;&gt;Node3 -->
<g id="edge17" class="edge"><title>Node16&#45;&gt;Node3</title>
<path fill="none" stroke="midnightblue" d="M1080.79,-235.475C1091.97,-226.108 1110.14,-210.884 1123.71,-199.508"/>
<polygon fill="midnightblue" stroke="midnightblue" points="1126.05,-202.115 1131.46,-193.009 1121.55,-196.75 1126.05,-202.115"/>
</g>
<!-- Node16&#45;&gt;Node8 -->
<g id="edge18" class="edge"><title>Node16&#45;&gt;Node8</title>
<path fill="none" stroke="midnightblue" d="M1111.29,-236.129C1134.22,-229.732 1161.76,-218.457 1179.62,-199 1194.06,-183.263 1199.81,-158.869 1202.1,-141.981"/>
<polygon fill="midnightblue" stroke="midnightblue" points="1205.62,-142.002 1203.2,-131.688 1198.66,-141.261 1205.62,-142.002"/>
</g>
<!-- Node17 -->
<g id="node17" class="node"><title>Node17</title>
<polygon fill="white" stroke="#bfbfbf" points="1047.12,-174 1047.12,-193 1094.12,-193 1094.12,-174 1047.12,-174"/>
<text text-anchor="middle" x="1070.62" y="-181" font-family="Helvetica,sans-Serif" font-size="10.00">errno.h</text>
</g>
<!-- Node16&#45;&gt;Node17 -->
<g id="edge19" class="edge"><title>Node16&#45;&gt;Node17</title>
<path fill="none" stroke="midnightblue" d="M1070.62,-235.475C1070.62,-227.08 1070.62,-213.981 1070.62,-203.163"/>
<polygon fill="midnightblue" stroke="midnightblue" points="1074.12,-203.009 1070.62,-193.009 1067.12,-203.009 1074.12,-203.009"/>
</g>
<!-- Node18 -->
<g id="node18" class="node"><title>Node18</title>
<polygon fill="white" stroke="#bfbfbf" points="980.618,-174 980.618,-193 1028.62,-193 1028.62,-174 980.618,-174"/>
<text text-anchor="middle" x="1004.62" y="-181" font-family="Helvetica,sans-Serif" font-size="10.00">stdlib.h</text>
</g>
<!-- Node16&#45;&gt;Node18 -->
<g id="edge20" class="edge"><title>Node16&#45;&gt;Node18</title>
<path fill="none" stroke="midnightblue" d="M1061.16,-235.475C1050.87,-226.197 1034.2,-211.171 1021.62,-199.831"/>
<polygon fill="midnightblue" stroke="midnightblue" points="1023.83,-197.105 1014.06,-193.009 1019.14,-202.305 1023.83,-197.105"/>
</g>
<!-- Node19&#45;&gt;Node5 -->
<g id="edge22" class="edge"><title>Node19&#45;&gt;Node5</title>
<path fill="none" stroke="midnightblue" d="M319.439,-238.75C258.474,-230.541 170.059,-210.924 204.618,-168 225.72,-141.791 322.745,-130.018 375.769,-125.464"/>
<polygon fill="midnightblue" stroke="midnightblue" points="376.381,-128.925 386.062,-124.623 375.81,-121.949 376.381,-128.925"/>
</g>
<!-- Node19&#45;&gt;Node11 -->
<g id="edge23" class="edge"><title>Node19&#45;&gt;Node11</title>
<path fill="none" stroke="midnightblue" d="M375.344,-235.475C379.089,-226.904 384.978,-213.427 389.76,-202.483"/>
<polygon fill="midnightblue" stroke="midnightblue" points="393.103,-203.574 393.9,-193.009 386.689,-200.771 393.103,-203.574"/>
</g>
<!-- Node20 -->
<g id="node20" class="node"><title>Node20</title>
<polygon fill="white" stroke="#bfbfbf" points="630.618,-112.5 630.618,-131.5 698.618,-131.5 698.618,-112.5 630.618,-112.5"/>
<text text-anchor="middle" x="664.618" y="-119.5" font-family="Helvetica,sans-Serif" font-size="10.00">sys/types.h</text>
</g>
<!-- Node19&#45;&gt;Node20 -->
<g id="edge24" class="edge"><title>Node19&#45;&gt;Node20</title>
<path fill="none" stroke="midnightblue" d="M366.483,-235.258C358.096,-219.71 343.976,-187.096 360.618,-168 397.283,-125.931 548.754,-140.439 620.42,-131.834"/>
<polygon fill="midnightblue" stroke="midnightblue" points="620.998,-135.287 630.392,-130.387 619.993,-128.359 620.998,-135.287"/>
</g>
<!-- Node21&#45;&gt;Node2 -->
<g id="edge26" class="edge"><title>Node21&#45;&gt;Node2</title>
<path fill="none" stroke="midnightblue" d="M56.9744,-235.481C34.9045,-206.122 -31.7817,-108.104 18.6184,-56 64.9862,-8.06441 1093.05,-9.75813 1325.28,-10.7564"/>
<polygon fill="midnightblue" stroke="midnightblue" points="1325.41,-14.2569 1335.42,-10.8017 1325.44,-7.25694 1325.41,-14.2569"/>
</g>
<!-- Node22 -->
<g id="node22" class="node"><title>Node22</title>
<g id="a_node22"><a xlink:href="../../d5/d7b/drv__mixer_8h.html" target="_top" xlink:title="Mixer ioctl interfaces. ">
<polygon fill="white" stroke="black" points="213.618,-174 213.618,-193 313.618,-193 313.618,-174 213.618,-174"/>
<text text-anchor="middle" x="263.618" y="-181" font-family="Helvetica,sans-Serif" font-size="10.00">drivers/drv_mixer.h</text>
</a>
</g>
</g>
<!-- Node21&#45;&gt;Node22 -->
<g id="edge27" class="edge"><title>Node21&#45;&gt;Node22</title>
<path fill="none" stroke="midnightblue" d="M92.2735,-235.475C127.175,-225.092 186.269,-207.512 225.118,-195.954"/>
<polygon fill="midnightblue" stroke="midnightblue" points="226.43,-199.215 235.016,-193.009 224.434,-192.506 226.43,-199.215"/>
</g>
<!-- Node24 -->
<g id="node24" class="node"><title>Node24</title>
<g id="a_node24"><a xlink:href="../../d1/d63/mixer__load_8h.html" target="_top" xlink:title="mixer_load.h">
<polygon fill="white" stroke="black" points="27.6184,-56.5 27.6184,-75.5 99.6184,-75.5 99.6184,-56.5 27.6184,-56.5"/>
<text text-anchor="middle" x="63.6184" y="-63.5" font-family="Helvetica,sans-Serif" font-size="10.00">mixer_load.h</text>
</a>
</g>
</g>
<!-- Node21&#45;&gt;Node24 -->
<g id="edge31" class="edge"><title>Node21&#45;&gt;Node24</title>
<path fill="none" stroke="midnightblue" d="M61.8795,-235.419C60.1466,-226.399 57.6057,-211.77 56.6184,-199 53.5043,-158.721 57.9831,-111.42 61.0848,-85.8004"/>
<polygon fill="midnightblue" stroke="midnightblue" points="64.585,-86.0212 62.3808,-75.6582 57.6414,-85.1338 64.585,-86.0212"/>
</g>
<!-- Node22&#45;&gt;Node5 -->
<g id="edge29" class="edge"><title>Node22&#45;&gt;Node5</title>
<path fill="none" stroke="midnightblue" d="M284.68,-173.975C309.677,-163.857 351.56,-146.905 380.105,-135.351"/>
<polygon fill="midnightblue" stroke="midnightblue" points="381.64,-138.505 389.596,-131.509 379.013,-132.017 381.64,-138.505"/>
</g>
<!-- Node22&#45;&gt;Node9 -->
<g id="edge28" class="edge"><title>Node22&#45;&gt;Node9</title>
<path fill="none" stroke="midnightblue" d="M313.904,-174.543C328.913,-172.287 345.415,-169.924 360.618,-168 511.137,-148.952 552.421,-154.069 706.572,-132.034"/>
<polygon fill="midnightblue" stroke="midnightblue" points="707.495,-135.438 716.891,-130.543 706.493,-128.51 707.495,-135.438"/>
</g>
<!-- Node23 -->
<g id="node23" class="node"><title>Node23</title>
<polygon fill="white" stroke="#bfbfbf" points="550.618,-112.5 550.618,-131.5 612.618,-131.5 612.618,-112.5 550.618,-112.5"/>
<text text-anchor="middle" x="581.618" y="-119.5" font-family="Helvetica,sans-Serif" font-size="10.00">sys/ioctl.h</text>
</g>
<!-- Node22&#45;&gt;Node23 -->
<g id="edge30" class="edge"><title>Node22&#45;&gt;Node23</title>
<path fill="none" stroke="midnightblue" d="M299.77,-173.995C308.844,-171.947 318.573,-169.825 327.618,-168 402.21,-152.952 489.68,-138.055 540.073,-129.738"/>
<polygon fill="midnightblue" stroke="midnightblue" points="540.946,-133.142 550.246,-128.066 539.81,-126.235 540.946,-133.142"/>
</g>
<!-- Node24&#45;&gt;Node2 -->
<g id="edge32" class="edge"><title>Node24&#45;&gt;Node2</title>
<path fill="none" stroke="midnightblue" d="M99.8518,-57.8528C104.471,-57.126 109.146,-56.4801 113.618,-56 355.512,-30.0367 1128.17,-15.1971 1325.42,-11.7706"/>
<polygon fill="midnightblue" stroke="midnightblue" points="1325.52,-15.2696 1335.45,-11.5976 1325.4,-8.27068 1325.52,-15.2696"/>
</g>
<!-- Node25&#45;&gt;Node2 -->
<g id="edge34" class="edge"><title>Node25&#45;&gt;Node2</title>
<path fill="none" stroke="midnightblue" d="M113.297,-173.912C118.51,-149.895 136.905,-82.0917 182.618,-56 233.038,-27.2224 1111.98,-14.2833 1325.27,-11.5591"/>
<polygon fill="midnightblue" stroke="midnightblue" points="1325.54,-15.056 1335.5,-11.4298 1325.45,-8.05656 1325.54,-15.056"/>
</g>
<!-- Node25&#45;&gt;Node5 -->
<g id="edge37" class="edge"><title>Node25&#45;&gt;Node5</title>
<path fill="none" stroke="midnightblue" d="M145.502,-173.992C154.009,-171.944 163.132,-169.823 171.618,-168 244.152,-152.418 329.71,-137.026 376.242,-128.904"/>
<polygon fill="midnightblue" stroke="midnightblue" points="376.855,-132.35 386.108,-127.189 375.656,-125.454 376.855,-132.35"/>
</g>
<!-- Node26 -->
<g id="node26" class="node"><title>Node26</title>
<g id="a_node26"><a xlink:href="../../de/d37/px4__macros_8h.html" target="_top" xlink:title="A set of useful macros for enhanced runtime and compile time error detection and warning suppression...">
<polygon fill="white" stroke="black" points="156.118,-112.5 156.118,-131.5 279.118,-131.5 279.118,-112.5 156.118,-112.5"/>
<text text-anchor="middle" x="217.618" y="-119.5" font-family="Helvetica,sans-Serif" font-size="10.00">systemlib/px4_macros.h</text>
</a>
</g>
</g>
<!-- Node25&#45;&gt;Node26 -->
<g id="edge35" class="edge"><title>Node25&#45;&gt;Node26</title>
<path fill="none" stroke="midnightblue" d="M126.806,-173.975C144.28,-164.166 173.197,-147.935 193.702,-136.425"/>
<polygon fill="midnightblue" stroke="midnightblue" points="195.452,-139.456 202.459,-131.509 192.026,-133.352 195.452,-139.456"/>
</g>
<!-- Node27 -->
<g id="node27" class="node"><title>Node27</title>
<polygon fill="white" stroke="#bfbfbf" points="191.618,-56.5 191.618,-75.5 243.618,-75.5 243.618,-56.5 191.618,-56.5"/>
<text text-anchor="middle" x="217.618" y="-63.5" font-family="Helvetica,sans-Serif" font-size="10.00">assert.h</text>
</g>
<!-- Node26&#45;&gt;Node27 -->
<g id="edge36" class="edge"><title>Node26&#45;&gt;Node27</title>
<path fill="none" stroke="midnightblue" d="M217.618,-112.083C217.618,-105.006 217.618,-94.8611 217.618,-85.9865"/>
<polygon fill="midnightblue" stroke="midnightblue" points="221.118,-85.751 217.618,-75.7511 214.118,-85.7511 221.118,-85.751"/>
</g>
<!-- Node30&#45;&gt;Node4 -->
<g id="edge43" class="edge"><title>Node30&#45;&gt;Node4</title>
<path fill="none" stroke="midnightblue" d="M875.967,-235.39C893.154,-227.872 916.597,-215.564 932.618,-199 948.605,-182.472 959.847,-158.277 966.259,-141.65"/>
<polygon fill="midnightblue" stroke="midnightblue" points="969.649,-142.567 969.776,-131.973 963.07,-140.176 969.649,-142.567"/>
</g>
<!-- Node30&#45;&gt;Node11 -->
<g id="edge42" class="edge"><title>Node30&#45;&gt;Node11</title>
<path fill="none" stroke="midnightblue" d="M810.025,-240.798C717.68,-233.773 505.057,-216.256 434.618,-199 431.791,-198.307 428.891,-197.449 426.019,-196.499"/>
<polygon fill="midnightblue" stroke="midnightblue" points="427.101,-193.168 416.507,-193.02 424.696,-199.742 427.101,-193.168"/>
</g>
<!-- Node30&#45;&gt;Node20 -->
<g id="edge41" class="edge"><title>Node30&#45;&gt;Node20</title>
<path fill="none" stroke="midnightblue" d="M839.552,-235.487C824.799,-226.522 800.973,-211.938 780.618,-199 747.254,-177.792 708.966,-152.523 685.798,-137.128"/>
<polygon fill="midnightblue" stroke="midnightblue" points="687.682,-134.177 677.417,-131.551 683.804,-140.005 687.682,-134.177"/>
</g>
<!-- Node31 -->
<g id="node31" class="node"><title>Node31</title>
<g id="a_node31"><a xlink:href="../../d3/d2d/px4__time_8h.html" target="_top" xlink:title="px4_time.h">
<polygon fill="white" stroke="black" points="859.118,-174 859.118,-193 924.118,-193 924.118,-174 859.118,-174"/>
<text text-anchor="middle" x="891.618" y="-181" font-family="Helvetica,sans-Serif" font-size="10.00">px4_time.h</text>
</a>
</g>
</g>
<!-- Node30&#45;&gt;Node31 -->
<g id="edge44" class="edge"><title>Node30&#45;&gt;Node31</title>
<path fill="none" stroke="midnightblue" d="M859.063,-235.475C864.706,-226.638 873.679,-212.589 880.777,-201.475"/>
<polygon fill="midnightblue" stroke="midnightblue" points="883.751,-203.321 886.184,-193.009 877.852,-199.553 883.751,-203.321"/>
</g>
<!-- Node33 -->
<g id="node33" class="node"><title>Node33</title>
<polygon fill="white" stroke="#bfbfbf" points="790.118,-174 790.118,-193 841.118,-193 841.118,-174 790.118,-174"/>
<text text-anchor="middle" x="815.618" y="-181" font-family="Helvetica,sans-Serif" font-size="10.00">queue.h</text>
</g>
<!-- Node30&#45;&gt;Node33 -->
<g id="edge47" class="edge"><title>Node30&#45;&gt;Node33</title>
<path fill="none" stroke="midnightblue" d="M848.174,-235.475C842.53,-226.638 833.557,-212.589 826.46,-201.475"/>
<polygon fill="midnightblue" stroke="midnightblue" points="829.385,-199.553 821.053,-193.009 823.486,-203.321 829.385,-199.553"/>
</g>
<!-- Node31&#45;&gt;Node20 -->
<g id="edge45" class="edge"><title>Node31&#45;&gt;Node20</title>
<path fill="none" stroke="midnightblue" d="M868.197,-173.979C862.178,-171.91 855.688,-169.782 849.618,-168 801.929,-154.001 746.438,-140.923 708.763,-132.513"/>
<polygon fill="midnightblue" stroke="midnightblue" points="709.15,-129.014 698.63,-130.267 707.636,-135.848 709.15,-129.014"/>
</g>
<!-- Node32 -->
<g id="node32" class="node"><title>Node32</title>
<polygon fill="white" stroke="#bfbfbf" points="869.618,-112.5 869.618,-131.5 913.618,-131.5 913.618,-112.5 869.618,-112.5"/>
<text text-anchor="middle" x="891.618" y="-119.5" font-family="Helvetica,sans-Serif" font-size="10.00">time.h</text>
</g>
<!-- Node31&#45;&gt;Node32 -->
<g id="edge46" class="edge"><title>Node31&#45;&gt;Node32</title>
<path fill="none" stroke="midnightblue" d="M891.618,-173.975C891.618,-165.58 891.618,-152.481 891.618,-141.663"/>
<polygon fill="midnightblue" stroke="midnightblue" points="895.118,-141.509 891.618,-131.509 888.118,-141.509 895.118,-141.509"/>
</g>
<!-- Node34&#45;&gt;Node5 -->
<g id="edge50" class="edge"><title>Node34&#45;&gt;Node5</title>
<path fill="none" stroke="midnightblue" d="M625.13,-235.438C607.823,-220.177 569.503,-188 532.618,-168 504.536,-152.773 470.224,-140.63 445.149,-132.815"/>
<polygon fill="midnightblue" stroke="midnightblue" points="445.937,-129.396 435.351,-129.834 443.899,-136.093 445.937,-129.396"/>
</g>
<!-- Node34&#45;&gt;Node9 -->
<g id="edge49" class="edge"><title>Node34&#45;&gt;Node9</title>
<path fill="none" stroke="midnightblue" d="M652.126,-235.366C667.201,-227.356 688.938,-214.374 704.618,-199 722.283,-181.68 737.324,-157.318 746.4,-140.885"/>
<polygon fill="midnightblue" stroke="midnightblue" points="749.622,-142.28 751.25,-131.811 743.449,-138.98 749.622,-142.28"/>
</g>
<!-- Node34&#45;&gt;Node23 -->
<g id="edge51" class="edge"><title>Node34&#45;&gt;Node23</title>
<path fill="none" stroke="midnightblue" d="M628.945,-235.291C623.314,-226.408 614.671,-212.106 608.618,-199 599.832,-179.973 592.09,-157.216 587.175,-141.595"/>
<polygon fill="midnightblue" stroke="midnightblue" points="590.399,-140.17 584.121,-131.636 583.707,-142.223 590.399,-140.17"/>
</g>
<!-- Node35 -->
<g id="node35" class="node"><title>Node35</title>
<polygon fill="white" stroke="#bfbfbf" points="443.618,-174 443.618,-193 523.618,-193 523.618,-174 443.618,-174"/>
<text text-anchor="middle" x="483.618" y="-181" font-family="Helvetica,sans-Serif" font-size="10.00">board_config.h</text>
</g>
<!-- Node34&#45;&gt;Node35 -->
<g id="edge52" class="edge"><title>Node34&#45;&gt;Node35</title>
<path fill="none" stroke="midnightblue" d="M612.984,-235.475C587.194,-225.313 543.908,-208.256 514.579,-196.7"/>
<polygon fill="midnightblue" stroke="midnightblue" points="515.8,-193.419 505.213,-193.009 513.234,-199.932 515.8,-193.419"/>
</g>
<!-- Node36 -->
<g id="node36" class="node"><title>Node36</title>
<g id="a_node36"><a xlink:href="../../d8/d61/drv__orb__dev_8h.html" target="_top" xlink:title="uORB published object driver. ">
<polygon fill="white" stroke="black" points="617.618,-174 617.618,-193 695.618,-193 695.618,-174 617.618,-174"/>
<text text-anchor="middle" x="656.618" y="-181" font-family="Helvetica,sans-Serif" font-size="10.00">drv_orb_dev.h</text>
</a>
</g>
</g>
<!-- Node34&#45;&gt;Node36 -->
<g id="edge53" class="edge"><title>Node34&#45;&gt;Node36</title>
<path fill="none" stroke="midnightblue" d="M637.77,-235.475C640.94,-226.904 645.923,-213.427 649.969,-202.483"/>
<polygon fill="midnightblue" stroke="midnightblue" points="653.287,-203.602 653.472,-193.009 646.721,-201.175 653.287,-203.602"/>
</g>
<!-- Node36&#45;&gt;Node5 -->
<g id="edge57" class="edge"><title>Node36&#45;&gt;Node5</title>
<path fill="none" stroke="midnightblue" d="M621.373,-173.975C574.438,-162.623 491.932,-142.667 445.29,-131.386"/>
<polygon fill="midnightblue" stroke="midnightblue" points="445.896,-127.932 435.353,-128.983 444.25,-134.736 445.896,-127.932"/>
</g>
<!-- Node36&#45;&gt;Node9 -->
<g id="edge54" class="edge"><title>Node36&#45;&gt;Node9</title>
<path fill="none" stroke="midnightblue" d="M670.803,-173.975C686.976,-164.255 713.645,-148.227 732.762,-136.737"/>
<polygon fill="midnightblue" stroke="midnightblue" points="734.692,-139.66 741.46,-131.509 731.086,-133.661 734.692,-139.66"/>
</g>
<!-- Node36&#45;&gt;Node20 -->
<g id="edge55" class="edge"><title>Node36&#45;&gt;Node20</title>
<path fill="none" stroke="midnightblue" d="M657.765,-173.975C658.893,-165.58 660.655,-152.481 662.109,-141.663"/>
<polygon fill="midnightblue" stroke="midnightblue" points="665.61,-141.886 663.474,-131.509 658.673,-140.953 665.61,-141.886"/>
</g>
<!-- Node36&#45;&gt;Node23 -->
<g id="edge56" class="edge"><title>Node36&#45;&gt;Node23</title>
<path fill="none" stroke="midnightblue" d="M645.873,-173.975C634.066,-164.608 614.875,-149.384 600.536,-138.008"/>
<polygon fill="midnightblue" stroke="midnightblue" points="602.354,-134.982 592.344,-131.509 598.003,-140.466 602.354,-134.982"/>
</g>
<!-- Node37&#45;&gt;Node2 -->
<g id="edge59" class="edge"><title>Node37&#45;&gt;Node2</title>
<path fill="none" stroke="midnightblue" d="M1444.8,-235.413C1425.7,-228.735 1403.2,-217.418 1390.62,-199 1354.88,-146.696 1362.25,-66.3313 1368.02,-29.9979"/>
<polygon fill="midnightblue" stroke="midnightblue" points="1371.52,-30.2912 1369.79,-19.8399 1364.63,-29.094 1371.52,-30.2912"/>
</g>
<!-- Node38 -->
<g id="node38" class="node"><title>Node38</title>
<polygon fill="white" stroke="#bfbfbf" points="1228.12,-168.5 1228.12,-198.5 1343.12,-198.5 1343.12,-168.5 1228.12,-168.5"/>
<text text-anchor="start" x="1236.12" y="-186.5" font-family="Helvetica,sans-Serif" font-size="10.00">uavcan_stm32/uavcan</text>
<text text-anchor="middle" x="1285.62" y="-175.5" font-family="Helvetica,sans-Serif" font-size="10.00">_stm32.hpp</text>
</g>
<!-- Node37&#45;&gt;Node38 -->
<g id="edge60" class="edge"><title>Node37&#45;&gt;Node38</title>
<path fill="none" stroke="midnightblue" d="M1450.97,-235.475C1422.38,-226.664 1376.99,-212.668 1340.99,-201.57"/>
<polygon fill="midnightblue" stroke="midnightblue" points="1341.69,-198.124 1331.1,-198.523 1339.63,-204.814 1341.69,-198.124"/>
</g>
<!-- Node39 -->
<g id="node39" class="node"><title>Node39</title>
<g id="a_node39"><a xlink:href="../../db/de9/device_8h.html" target="_top" xlink:title="drivers/device/device.h">
<polygon fill="white" stroke="black" points="1532.12,-174 1532.12,-193 1649.12,-193 1649.12,-174 1532.12,-174"/>
<text text-anchor="middle" x="1590.62" y="-181" font-family="Helvetica,sans-Serif" font-size="10.00">drivers/device/device.h</text>
</a>
</g>
</g>
<!-- Node37&#45;&gt;Node39 -->
<g id="edge61" class="edge"><title>Node37&#45;&gt;Node39</title>
<path fill="none" stroke="midnightblue" d="M1494.67,-235.475C1513.21,-225.622 1543.96,-209.288 1565.64,-197.77"/>
<polygon fill="midnightblue" stroke="midnightblue" points="1567.41,-200.792 1574.6,-193.009 1564.13,-194.61 1567.41,-200.792"/>
</g>
<!-- Node42 -->
<g id="node42" class="node"><title>Node42</title>
<polygon fill="white" stroke="#bfbfbf" points="1399.62,-168.5 1399.62,-198.5 1513.62,-198.5 1513.62,-168.5 1399.62,-168.5"/>
<text text-anchor="start" x="1407.62" y="-186.5" font-family="Helvetica,sans-Serif" font-size="10.00">uavcan/protocol/global</text>
<text text-anchor="middle" x="1456.62" y="-175.5" font-family="Helvetica,sans-Serif" font-size="10.00">_time_sync_slave.hpp</text>
</g>
<!-- Node37&#45;&gt;Node42 -->
<g id="edge67" class="edge"><title>Node37&#45;&gt;Node42</title>
<path fill="none" stroke="midnightblue" d="M1475.47,-235.475C1472.82,-228.32 1468.91,-217.748 1465.34,-208.084"/>
<polygon fill="midnightblue" stroke="midnightblue" points="1468.55,-206.689 1461.8,-198.523 1461.99,-209.116 1468.55,-206.689"/>
</g>
<!-- Node43 -->
<g id="node43" class="node"><title>Node43</title>
<polygon fill="white" stroke="#bfbfbf" points="1667.12,-168.5 1667.12,-198.5 1802.12,-198.5 1802.12,-168.5 1667.12,-168.5"/>
<text text-anchor="start" x="1675.12" y="-186.5" font-family="Helvetica,sans-Serif" font-size="10.00">uavcan/protocol/file</text>
<text text-anchor="middle" x="1734.62" y="-175.5" font-family="Helvetica,sans-Serif" font-size="10.00">/BeginFirmwareUpdate.hpp</text>
</g>
<!-- Node37&#45;&gt;Node43 -->
<g id="edge68" class="edge"><title>Node37&#45;&gt;Node43</title>
<path fill="none" stroke="midnightblue" d="M1515.3,-235.475C1554.1,-226.456 1616.27,-212.008 1664.52,-200.792"/>
<polygon fill="midnightblue" stroke="midnightblue" points="1665.34,-204.196 1674.28,-198.523 1663.75,-197.378 1665.34,-204.196"/>
</g>
<!-- Node44 -->
<g id="node44" class="node"><title>Node44</title>
<polygon fill="white" stroke="#bfbfbf" points="1820.62,-174 1820.62,-193 1936.62,-193 1936.62,-174 1820.62,-174"/>
<text text-anchor="middle" x="1878.62" y="-181" font-family="Helvetica,sans-Serif" font-size="10.00">uavcan/node/timer.hpp</text>
</g>
<!-- Node37&#45;&gt;Node44 -->
<g id="edge69" class="edge"><title>Node37&#45;&gt;Node44</title>
<path fill="none" stroke="midnightblue" d="M1535.66,-236.507C1623.41,-224.945 1784.19,-203.603 1810.62,-199 1817.25,-197.845 1824.22,-196.505 1831.06,-195.116"/>
<polygon fill="midnightblue" stroke="midnightblue" points="1831.87,-198.523 1840.95,-193.061 1830.45,-191.67 1831.87,-198.523"/>
</g>
<!-- Node40 -->
<g id="node40" class="node"><title>Node40</title>
<g id="a_node40"><a xlink:href="../../d7/dfb/_device_8hpp.html" target="_top" xlink:title="Definitions for the generic base classes in the device framework. ">
<polygon fill="white" stroke="red" points="1453.62,-56.5 1453.62,-75.5 1519.62,-75.5 1519.62,-56.5 1453.62,-56.5"/>
<text text-anchor="middle" x="1486.62" y="-63.5" font-family="Helvetica,sans-Serif" font-size="10.00">Device.hpp</text>
</a>
</g>
</g>
<!-- Node39&#45;&gt;Node40 -->
<g id="edge62" class="edge"><title>Node39&#45;&gt;Node40</title>
<path fill="none" stroke="midnightblue" d="M1582.8,-173.819C1565.49,-154.588 1523.66,-108.141 1501.3,-83.3054"/>
<polygon fill="midnightblue" stroke="midnightblue" points="1503.82,-80.8714 1494.53,-75.782 1498.62,-85.5554 1503.82,-80.8714"/>
</g>
<!-- Node41 -->
<g id="node41" class="node"><title>Node41</title>
<g id="a_node41"><a xlink:href="../../d3/da5/_c_dev_8hpp.html" target="_top" xlink:title="Definitions for the generic base classes in the device framework. ">
<polygon fill="white" stroke="red" points="1456.12,-112.5 1456.12,-131.5 1517.12,-131.5 1517.12,-112.5 1456.12,-112.5"/>
<text text-anchor="middle" x="1486.62" y="-119.5" font-family="Helvetica,sans-Serif" font-size="10.00">CDev.hpp</text>
</a>
</g>
</g>
<!-- Node39&#45;&gt;Node41 -->
<g id="edge64" class="edge"><title>Node39&#45;&gt;Node41</title>
<path fill="none" stroke="midnightblue" d="M1575.72,-173.975C1558.65,-164.211 1530.46,-148.081 1510.36,-136.581"/>
<polygon fill="midnightblue" stroke="midnightblue" points="1511.91,-133.437 1501.49,-131.509 1508.43,-139.513 1511.91,-133.437"/>
</g>
<!-- Node40&#45;&gt;Node2 -->
<g id="edge63" class="edge"><title>Node40&#45;&gt;Node2</title>
<path fill="none" stroke="midnightblue" d="M1468.4,-56.4435C1449.72,-47.6751 1420.46,-33.9355 1399,-23.8579"/>
<polygon fill="midnightblue" stroke="midnightblue" points="1400.29,-20.5988 1389.76,-19.5164 1397.32,-26.935 1400.29,-20.5988"/>
</g>
<!-- Node41&#45;&gt;Node2 -->
<g id="edge66" class="edge"><title>Node41&#45;&gt;Node2</title>
<path fill="none" stroke="midnightblue" d="M1477.59,-112.368C1458.28,-93.8941 1412.7,-50.2926 1388.08,-26.7436"/>
<polygon fill="midnightblue" stroke="midnightblue" points="1390.25,-23.9744 1380.6,-19.5914 1385.41,-29.0329 1390.25,-23.9744"/>
</g>
<!-- Node41&#45;&gt;Node40 -->
<g id="edge65" class="edge"><title>Node41&#45;&gt;Node40</title>
<path fill="none" stroke="midnightblue" d="M1486.62,-112.083C1486.62,-105.006 1486.62,-94.8611 1486.62,-85.9865"/>
<polygon fill="midnightblue" stroke="midnightblue" points="1490.12,-85.751 1486.62,-75.7511 1483.12,-85.7511 1490.12,-85.751"/>
</g>
<!-- Node45&#45;&gt;Node38 -->
<g id="edge71" class="edge"><title>Node45&#45;&gt;Node38</title>
<path fill="none" stroke="midnightblue" d="M1236.79,-235.475C1244.14,-227.793 1255.28,-216.172 1265.06,-205.964"/>
<polygon fill="midnightblue" stroke="midnightblue" points="1267.79,-208.165 1272.18,-198.523 1262.74,-203.323 1267.79,-208.165"/>
</g>
<!-- Node46&#45;&gt;Node38 -->
<g id="edge73" class="edge"><title>Node46&#45;&gt;Node38</title>
<path fill="none" stroke="midnightblue" d="M1345.59,-235.475C1336.29,-227.567 1322.07,-215.485 1309.82,-205.067"/>
<polygon fill="midnightblue" stroke="midnightblue" points="1312,-202.333 1302.12,-198.523 1307.47,-207.666 1312,-202.333"/>
</g>
<!-- Node50 -->
<g id="node50" class="node"><title>Node50</title>
<polygon fill="white" stroke="#bfbfbf" points="2257.62,-174 2257.62,-193 2343.62,-193 2343.62,-174 2257.62,-174"/>
<text text-anchor="middle" x="2300.62" y="-181" font-family="Helvetica,sans-Serif" font-size="10.00">nuttx/compiler.h</text>
</g>
<!-- Node49&#45;&gt;Node50 -->
<g id="edge77" class="edge"><title>Node49&#45;&gt;Node50</title>
<path fill="none" stroke="midnightblue" d="M2300.62,-235.475C2300.62,-227.08 2300.62,-213.981 2300.62,-203.163"/>
<polygon fill="midnightblue" stroke="midnightblue" points="2304.12,-203.009 2300.62,-193.009 2297.12,-203.009 2304.12,-203.009"/>
</g>
</g>
</svg>
