<?xml version="1.0" encoding="UTF-8" standalone="no"?>
<!DOCTYPE svg PUBLIC "-//W3C//DTD SVG 1.1//EN"
 "http://www.w3.org/Graphics/SVG/1.1/DTD/svg11.dtd">
<!-- Generated by graphviz version 2.38.0 (20140413.2041)
 -->
<!-- Title: MavlinkULog::handle_ack Pages: 1 -->
<!--zoomable 222 -->
<svg id="main" version="1.1" xmlns="http://www.w3.org/2000/svg" xmlns:xlink="http://www.w3.org/1999/xlink" xml:space="preserve" onload="init(evt)">
<style type="text/css"><![CDATA[
.edge:hover path { stroke: red; }
.edge:hover polygon { stroke: red; fill: red; }
]]></style>
<script type="text/javascript"><![CDATA[
var edges = document.getElementsByTagName('g');
if (edges && edges.length) {
  for (var i=0;i<edges.length;i++) {
    if (edges[i].id.substr(0,4)=='edge') {
      edges[i].setAttribute('class','edge');
    }
  }
}
]]></script>
        <defs>
                <circle id="rim" cx="0" cy="0" r="7"/>
                <circle id="rim2" cx="0" cy="0" r="3.5"/>
                <g id="zoomPlus">
                        <use xlink:href="#rim" fill="#404040">
                                <set attributeName="fill" to="#808080" begin="zoomplus.mouseover" end="zoomplus.mouseout"/>
                        </use>
                        <path d="M-4,0h8M0,-4v8" fill="none" stroke="white" stroke-width="1.5" pointer-events="none"/>
                </g>
                <g id="zoomMin">
                        <use xlink:href="#rim" fill="#404040">
                                <set attributeName="fill" to="#808080" begin="zoomminus.mouseover" end="zoomminus.mouseout"/>
                        </use>
                        <path d="M-4,0h8" fill="none" stroke="white" stroke-width="1.5" pointer-events="none"/>
                </g>
                <g id="dirArrow">
                        <path fill="none" stroke="white" stroke-width="1.5" d="M0,-3.0v7 M-2.5,-0.5L0,-3.0L2.5,-0.5"/>
                </g>
               <g id="resetDef">
                       <use xlink:href="#rim2" fill="#404040">
                               <set attributeName="fill" to="#808080" begin="reset.mouseover" end="reset.mouseout"/>
                       </use>
               </g>
        </defs>

<script type="text/javascript">
var viewWidth = 2046;
var viewHeight = 222;
var sectionId = 'dynsection-8';
</script>
<script xlink:href="../../svgpan.js"/>
<svg id="graph" class="graph">
<g id="viewport">
<title>MavlinkULog::handle_ack</title>
<polygon fill="white" stroke="none" points="-4,4 -4,-218 2042,-218 2042,4 -4,4"/>
<!-- Node1 -->
<g id="node1" class="node"><title>Node1</title>
<polygon fill="#bfbfbf" stroke="black" points="0,-65.5 0,-84.5 129,-84.5 129,-65.5 0,-65.5"/>
<text text-anchor="middle" x="64.5" y="-72.5" font-family="Helvetica,sans-Serif" font-size="10.00">MavlinkULog::handle_ack</text>
</g>
<!-- Node2 -->
<g id="node2" class="node"><title>Node2</title>
<g id="a_node2"><a xlink:href="../../da/d89/class_mavlink_receiver.html#ac4cf0694938f80c809b15a3922d1b9b3" target="_top" xlink:title="MavlinkReceiver::handle\l_message_logging_ack">
<polygon fill="white" stroke="black" points="165,-60 165,-90 289,-90 289,-60 165,-60"/>
<text text-anchor="start" x="173" y="-78" font-family="Helvetica,sans-Serif" font-size="10.00">MavlinkReceiver::handle</text>
<text text-anchor="middle" x="227" y="-67" font-family="Helvetica,sans-Serif" font-size="10.00">_message_logging_ack</text>
</a>
</g>
</g>
<!-- Node1&#45;&gt;Node2 -->
<g id="edge1" class="edge"><title>Node1&#45;&gt;Node2</title>
<path fill="none" stroke="midnightblue" d="M139.65,-75C148.114,-75 156.67,-75 164.937,-75"/>
<polygon fill="midnightblue" stroke="midnightblue" points="139.395,-71.5001 129.395,-75 139.395,-78.5001 139.395,-71.5001"/>
</g>
<!-- Node3 -->
<g id="node3" class="node"><title>Node3</title>
<g id="a_node3"><a xlink:href="../../da/d89/class_mavlink_receiver.html#ac939c806679dc4278968b1d3e865cc72" target="_top" xlink:title="MavlinkReceiver::handle\l_message">
<polygon fill="white" stroke="black" points="325,-60 325,-90 449,-90 449,-60 325,-60"/>
<text text-anchor="start" x="333" y="-78" font-family="Helvetica,sans-Serif" font-size="10.00">MavlinkReceiver::handle</text>
<text text-anchor="middle" x="387" y="-67" font-family="Helvetica,sans-Serif" font-size="10.00">_message</text>
</a>
</g>
</g>
<!-- Node2&#45;&gt;Node3 -->
<g id="edge2" class="edge"><title>Node2&#45;&gt;Node3</title>
<path fill="none" stroke="midnightblue" d="M299.366,-75C307.863,-75 316.478,-75 324.815,-75"/>
<polygon fill="midnightblue" stroke="midnightblue" points="299.087,-71.5001 289.087,-75 299.087,-78.5001 299.087,-71.5001"/>
</g>
<!-- Node4 -->
<g id="node4" class="node"><title>Node4</title>
<g id="a_node4"><a xlink:href="../../da/d89/class_mavlink_receiver.html#abf05ea2b60baafd446100f897f9274ab" target="_top" xlink:title="Receive data from UART. ">
<polygon fill="white" stroke="black" points="485,-136 485,-166 612,-166 612,-136 485,-136"/>
<text text-anchor="start" x="493" y="-154" font-family="Helvetica,sans-Serif" font-size="10.00">MavlinkReceiver::receive</text>
<text text-anchor="middle" x="548.5" y="-143" font-family="Helvetica,sans-Serif" font-size="10.00">_thread</text>
</a>
</g>
</g>
<!-- Node3&#45;&gt;Node4 -->
<g id="edge3" class="edge"><title>Node3&#45;&gt;Node4</title>
<path fill="none" stroke="midnightblue" d="M428.722,-94.4034C455.78,-107.296 490.793,-123.98 515.781,-135.886"/>
<polygon fill="midnightblue" stroke="midnightblue" points="430.045,-91.1571 419.512,-90.0152 427.034,-97.4764 430.045,-91.1571"/>
</g>
<!-- Node5 -->
<g id="node5" class="node"><title>Node5</title>
<g id="a_node5"><a xlink:href="../../da/d89/class_mavlink_receiver.html#a4e6d064186fe746bc3934959a991a908" target="_top" xlink:title="MavlinkReceiver::start\l_helper">
<polygon fill="white" stroke="black" points="648,-136 648,-166 763,-166 763,-136 648,-136"/>
<text text-anchor="start" x="656" y="-154" font-family="Helvetica,sans-Serif" font-size="10.00">MavlinkReceiver::start</text>
<text text-anchor="middle" x="705.5" y="-143" font-family="Helvetica,sans-Serif" font-size="10.00">_helper</text>
</a>
</g>
</g>
<!-- Node4&#45;&gt;Node5 -->
<g id="edge4" class="edge"><title>Node4&#45;&gt;Node5</title>
<path fill="none" stroke="midnightblue" d="M622.11,-151C630.692,-151 639.355,-151 647.674,-151"/>
<polygon fill="midnightblue" stroke="midnightblue" points="622.098,-147.5 612.098,-151 622.098,-154.5 622.098,-147.5"/>
</g>
<!-- Node6 -->
<g id="node6" class="node"><title>Node6</title>
<g id="a_node6"><a xlink:href="../../da/d89/class_mavlink_receiver.html#aae6564d759626eeebeb19a9dfbdcaf6d" target="_top" xlink:title="Start the receiver thread. ">
<polygon fill="white" stroke="black" points="799,-136 799,-166 926,-166 926,-136 799,-136"/>
<text text-anchor="start" x="807" y="-154" font-family="Helvetica,sans-Serif" font-size="10.00">MavlinkReceiver::receive</text>
<text text-anchor="middle" x="862.5" y="-143" font-family="Helvetica,sans-Serif" font-size="10.00">_start</text>
</a>
</g>
</g>
<!-- Node5&#45;&gt;Node6 -->
<g id="edge5" class="edge"><title>Node5&#45;&gt;Node6</title>
<path fill="none" stroke="midnightblue" d="M773.515,-151C781.951,-151 790.556,-151 798.92,-151"/>
<polygon fill="midnightblue" stroke="midnightblue" points="773.336,-147.5 763.336,-151 773.336,-154.5 773.336,-147.5"/>
</g>
<!-- Node7 -->
<g id="node7" class="node"><title>Node7</title>
<g id="a_node7"><a xlink:href="../../df/d1f/class_mavlink.html#a2325401a575b272fc1474d502388241f" target="_top" xlink:title="Main mavlink task. ">
<polygon fill="white" stroke="black" points="962,-141.5 962,-160.5 1063,-160.5 1063,-141.5 962,-141.5"/>
<text text-anchor="middle" x="1012.5" y="-148.5" font-family="Helvetica,sans-Serif" font-size="10.00">Mavlink::task_main</text>
</a>
</g>
</g>
<!-- Node6&#45;&gt;Node7 -->
<g id="edge6" class="edge"><title>Node6&#45;&gt;Node7</title>
<path fill="none" stroke="midnightblue" d="M936.302,-151C944.883,-151 953.486,-151 961.649,-151"/>
<polygon fill="midnightblue" stroke="midnightblue" points="936.265,-147.5 926.265,-151 936.265,-154.5 936.265,-147.5"/>
</g>
<!-- Node8 -->
<g id="node8" class="node"><title>Node8</title>
<g id="a_node8"><a xlink:href="../../df/d1f/class_mavlink.html#aad2c17a259e6cfbfe20113c8da8f6cae" target="_top" xlink:title="Mavlink::start_helper">
<polygon fill="white" stroke="black" points="1099,-141.5 1099,-160.5 1206,-160.5 1206,-141.5 1099,-141.5"/>
<text text-anchor="middle" x="1152.5" y="-148.5" font-family="Helvetica,sans-Serif" font-size="10.00">Mavlink::start_helper</text>
</a>
</g>
</g>
<!-- Node7&#45;&gt;Node8 -->
<g id="edge7" class="edge"><title>Node7&#45;&gt;Node8</title>
<path fill="none" stroke="midnightblue" d="M1073.52,-151C1081.99,-151 1090.65,-151 1098.96,-151"/>
<polygon fill="midnightblue" stroke="midnightblue" points="1073.32,-147.5 1063.32,-151 1073.32,-154.5 1073.32,-147.5"/>
</g>
<!-- Node9 -->
<g id="node9" class="node"><title>Node9</title>
<g id="a_node9"><a xlink:href="../../df/d1f/class_mavlink.html#af06ea4dffa8d7b911690a99456a4814a" target="_top" xlink:title="Mavlink::broadcast\l_enabled">
<polygon fill="white" stroke="black" points="1242,-117 1242,-147 1341,-147 1341,-117 1242,-117"/>
<text text-anchor="start" x="1250" y="-135" font-family="Helvetica,sans-Serif" font-size="10.00">Mavlink::broadcast</text>
<text text-anchor="middle" x="1291.5" y="-124" font-family="Helvetica,sans-Serif" font-size="10.00">_enabled</text>
</a>
</g>
</g>
<!-- Node8&#45;&gt;Node9 -->
<g id="edge8" class="edge"><title>Node8&#45;&gt;Node9</title>
<path fill="none" stroke="midnightblue" d="M1216.13,-142.314C1224.78,-141.115 1233.55,-139.899 1241.89,-138.742"/>
<polygon fill="midnightblue" stroke="midnightblue" points="1215.5,-138.868 1206.08,-143.708 1216.46,-145.801 1215.5,-138.868"/>
</g>
<!-- Node19 -->
<g id="node19" class="node"><title>Node19</title>
<g id="a_node19"><a xlink:href="../../df/d1f/class_mavlink.html#a3f96c3503833a477332c8584bb8fbc67" target="_top" xlink:title="Start the mavlink task. ">
<polygon fill="white" stroke="black" points="1253.5,-166.5 1253.5,-185.5 1329.5,-185.5 1329.5,-166.5 1253.5,-166.5"/>
<text text-anchor="middle" x="1291.5" y="-173.5" font-family="Helvetica,sans-Serif" font-size="10.00">Mavlink::start</text>
</a>
</g>
</g>
<!-- Node8&#45;&gt;Node19 -->
<g id="edge21" class="edge"><title>Node8&#45;&gt;Node19</title>
<path fill="none" stroke="midnightblue" d="M1215.86,-162.38C1228.68,-164.719 1241.78,-167.11 1253.36,-169.223"/>
<polygon fill="midnightblue" stroke="midnightblue" points="1216.15,-158.875 1205.68,-160.523 1214.89,-165.761 1216.15,-158.875"/>
</g>
<!-- Node10 -->
<g id="node10" class="node"><title>Node10</title>
<g id="a_node10"><a xlink:href="../../df/d1f/class_mavlink.html#aacd190d885c0a9f521f0d7d0673f2b6f" target="_top" xlink:title="Flush the transmit buffer and send one MAVLink packet. ">
<polygon fill="white" stroke="black" points="1390.5,-78.5 1390.5,-97.5 1502.5,-97.5 1502.5,-78.5 1390.5,-78.5"/>
<text text-anchor="middle" x="1446.5" y="-85.5" font-family="Helvetica,sans-Serif" font-size="10.00">Mavlink::send_packet</text>
</a>
</g>
</g>
<!-- Node9&#45;&gt;Node10 -->
<g id="edge9" class="edge"><title>Node9&#45;&gt;Node10</title>
<path fill="none" stroke="midnightblue" d="M1350.99,-115.179C1371.68,-109.23 1394.22,-102.746 1412.11,-97.6033"/>
<polygon fill="midnightblue" stroke="midnightblue" points="1349.97,-111.83 1341.33,-117.957 1351.91,-118.557 1349.97,-111.83"/>
</g>
<!-- Node14 -->
<g id="node14" class="node"><title>Node14</title>
<g id="a_node14"><a xlink:href="../../df/d1f/class_mavlink.html#afcac36b1b581d47b7181374d35edbd54" target="_top" xlink:title="Set the boot complete flag on all instances. ">
<polygon fill="white" stroke="black" points="1377,-122.5 1377,-141.5 1516,-141.5 1516,-122.5 1377,-122.5"/>
<text text-anchor="middle" x="1446.5" y="-129.5" font-family="Helvetica,sans-Serif" font-size="10.00">Mavlink::set_boot_complete</text>
</a>
</g>
</g>
<!-- Node9&#45;&gt;Node14 -->
<g id="edge14" class="edge"><title>Node9&#45;&gt;Node14</title>
<path fill="none" stroke="midnightblue" d="M1351.59,-125.408C1359.84,-125.256 1368.37,-125.214 1376.78,-125.281"/>
<polygon fill="midnightblue" stroke="midnightblue" points="1351.24,-121.915 1341.33,-125.659 1351.41,-128.913 1351.24,-121.915"/>
</g>
<!-- Node11 -->
<g id="node11" class="node"><title>Node11</title>
<g id="a_node11"><a xlink:href="../../df/d1f/class_mavlink.html#a3aa1fb0ca3f0d77b10a8954618a51abb" target="_top" xlink:title="Get the manual input generation mode. ">
<polygon fill="white" stroke="black" points="1560,-29 1560,-59 1682,-59 1682,-29 1560,-29"/>
<text text-anchor="start" x="1568" y="-47" font-family="Helvetica,sans-Serif" font-size="10.00">Mavlink::get_manual</text>
<text text-anchor="middle" x="1621" y="-36" font-family="Helvetica,sans-Serif" font-size="10.00">_input_mode_generation</text>
</a>
</g>
</g>
<!-- Node10&#45;&gt;Node11 -->
<g id="edge10" class="edge"><title>Node10&#45;&gt;Node11</title>
<path fill="none" stroke="midnightblue" d="M1494.65,-75.9739C1515.11,-70.7547 1539.3,-64.5856 1560.94,-59.0654"/>
<polygon fill="midnightblue" stroke="midnightblue" points="1493.75,-72.5896 1484.93,-78.4527 1495.48,-79.3724 1493.75,-72.5896"/>
</g>
<!-- Node13 -->
<g id="node13" class="node"><title>Node13</title>
<g id="a_node13"><a xlink:href="../../de/d24/mavlink__main_8cpp.html#a646c2f3486de3d8574422fc4ef1940a2" target="_top" xlink:title="mavlink_end_uart_send">
<polygon fill="white" stroke="black" points="1561.5,-78.5 1561.5,-97.5 1680.5,-97.5 1680.5,-78.5 1561.5,-78.5"/>
<text text-anchor="middle" x="1621" y="-85.5" font-family="Helvetica,sans-Serif" font-size="10.00">mavlink_end_uart_send</text>
</a>
</g>
</g>
<!-- Node10&#45;&gt;Node13 -->
<g id="edge13" class="edge"><title>Node10&#45;&gt;Node13</title>
<path fill="none" stroke="midnightblue" d="M1512.85,-88C1528.77,-88 1545.71,-88 1561.3,-88"/>
<polygon fill="midnightblue" stroke="midnightblue" points="1512.55,-84.5001 1502.55,-88 1512.55,-91.5001 1512.55,-84.5001"/>
</g>
<!-- Node12 -->
<g id="node12" class="node"><title>Node12</title>
<g id="a_node12"><a xlink:href="../../da/d89/class_mavlink_receiver.html#af99bf01b6ae13dab05c36c0125e179bc" target="_top" xlink:title="MavlinkReceiver::handle\l_message_manual_control">
<polygon fill="white" stroke="black" points="1728.5,-7 1728.5,-37 1861.5,-37 1861.5,-7 1728.5,-7"/>
<text text-anchor="start" x="1736.5" y="-25" font-family="Helvetica,sans-Serif" font-size="10.00">MavlinkReceiver::handle</text>
<text text-anchor="middle" x="1795" y="-14" font-family="Helvetica,sans-Serif" font-size="10.00">_message_manual_control</text>
</a>
</g>
</g>
<!-- Node11&#45;&gt;Node12 -->
<g id="edge11" class="edge"><title>Node11&#45;&gt;Node12</title>
<path fill="none" stroke="midnightblue" d="M1692.09,-35.0349C1704.06,-33.5039 1716.46,-31.9183 1728.31,-30.4026"/>
<polygon fill="midnightblue" stroke="midnightblue" points="1691.63,-31.5649 1682.16,-36.3055 1692.52,-38.5084 1691.63,-31.5649"/>
</g>
<!-- Node12&#45;&gt;Node3 -->
<g id="edge12" class="edge"><title>Node12&#45;&gt;Node3</title>
<path fill="none" stroke="midnightblue" d="M1718.22,-14.4144C1648.08,-8.05284 1540.86,-0 1447.5,-0 704.5,-0 704.5,-0 704.5,-0 601.725,-0 485.114,-37.9074 426.286,-59.8226"/>
<polygon fill="midnightblue" stroke="midnightblue" points="1718.02,-17.9102 1728.3,-15.3396 1718.66,-10.9396 1718.02,-17.9102"/>
</g>
<!-- Node14&#45;&gt;Node9 -->
<g id="edge15" class="edge"><title>Node14&#45;&gt;Node9</title>
<path fill="none" stroke="midnightblue" d="M1366.66,-138.747C1358.03,-138.726 1349.44,-138.591 1341.33,-138.341"/>
<polygon fill="midnightblue" stroke="midnightblue" points="1366.79,-142.247 1376.78,-138.719 1366.77,-135.247 1366.79,-142.247"/>
</g>
<!-- Node15 -->
<g id="node15" class="node"><title>Node15</title>
<g id="a_node15"><a xlink:href="../../de/d24/mavlink__main_8cpp.html#ab81e9b009119f143f3b54a1390b92427" target="_top" xlink:title="mavlink app start / stop handling function ">
<polygon fill="white" stroke="black" points="1582.5,-166.5 1582.5,-185.5 1659.5,-185.5 1659.5,-166.5 1582.5,-166.5"/>
<text text-anchor="middle" x="1621" y="-173.5" font-family="Helvetica,sans-Serif" font-size="10.00">mavlink_main</text>
</a>
</g>
</g>
<!-- Node14&#45;&gt;Node15 -->
<g id="edge16" class="edge"><title>Node14&#45;&gt;Node15</title>
<path fill="none" stroke="midnightblue" d="M1494.79,-144.062C1522.45,-151.118 1556.89,-159.902 1582.64,-166.471"/>
<polygon fill="midnightblue" stroke="midnightblue" points="1495.48,-140.628 1484.93,-141.547 1493.75,-147.41 1495.48,-140.628"/>
</g>
<!-- Node16 -->
<g id="node16" class="node"><title>Node16</title>
<g id="a_node16"><a xlink:href="../../df/d61/class_mavlink_parameters_manager.html#acd8734b77582ad7626f5230c1707e04c" target="_top" xlink:title="send a single param if a PARAM_REQUEST_LIST is in progress ">
<polygon fill="white" stroke="black" points="1552,-117 1552,-147 1690,-147 1690,-117 1552,-117"/>
<text text-anchor="start" x="1560" y="-135" font-family="Helvetica,sans-Serif" font-size="10.00">MavlinkParametersManager</text>
<text text-anchor="middle" x="1621" y="-124" font-family="Helvetica,sans-Serif" font-size="10.00">::send_one</text>
</a>
</g>
</g>
<!-- Node14&#45;&gt;Node16 -->
<g id="edge17" class="edge"><title>Node14&#45;&gt;Node16</title>
<path fill="none" stroke="midnightblue" d="M1526.45,-132C1534.93,-132 1543.51,-132 1551.85,-132"/>
<polygon fill="midnightblue" stroke="midnightblue" points="1526.17,-128.5 1516.17,-132 1526.17,-135.5 1526.17,-128.5"/>
</g>
<!-- Node17 -->
<g id="node17" class="node"><title>Node17</title>
<g id="a_node17"><a xlink:href="../../df/d61/class_mavlink_parameters_manager.html#a3a6dff51ef5aba4f3dda19610510a45d" target="_top" xlink:title="Handle any open param send transfer. ">
<polygon fill="white" stroke="black" points="1726,-136 1726,-166 1864,-166 1864,-136 1726,-136"/>
<text text-anchor="start" x="1734" y="-154" font-family="Helvetica,sans-Serif" font-size="10.00">MavlinkParametersManager</text>
<text text-anchor="middle" x="1795" y="-143" font-family="Helvetica,sans-Serif" font-size="10.00">::send_params</text>
</a>
</g>
</g>
<!-- Node16&#45;&gt;Node17 -->
<g id="edge18" class="edge"><title>Node16&#45;&gt;Node17</title>
<path fill="none" stroke="midnightblue" d="M1700.64,-140.687C1709.03,-141.613 1717.51,-142.55 1725.76,-143.462"/>
<polygon fill="midnightblue" stroke="midnightblue" points="1700.8,-137.183 1690.47,-139.564 1700.03,-144.141 1700.8,-137.183"/>
</g>
<!-- Node18 -->
<g id="node18" class="node"><title>Node18</title>
<g id="a_node18"><a xlink:href="../../df/d61/class_mavlink_parameters_manager.html#adbcd587c4ec1c0b94fe259047f8ec82e" target="_top" xlink:title="Handle sending of messages. ">
<polygon fill="white" stroke="black" points="1900,-167 1900,-197 2038,-197 2038,-167 1900,-167"/>
<text text-anchor="start" x="1908" y="-185" font-family="Helvetica,sans-Serif" font-size="10.00">MavlinkParametersManager</text>
<text text-anchor="middle" x="1969" y="-174" font-family="Helvetica,sans-Serif" font-size="10.00">::send</text>
</a>
</g>
</g>
<!-- Node17&#45;&gt;Node18 -->
<g id="edge19" class="edge"><title>Node17&#45;&gt;Node18</title>
<path fill="none" stroke="midnightblue" d="M1874.36,-165.123C1882.84,-166.651 1891.42,-168.197 1899.76,-169.701"/>
<polygon fill="midnightblue" stroke="midnightblue" points="1874.94,-161.67 1864.47,-163.341 1873.69,-168.559 1874.94,-161.67"/>
</g>
<!-- Node18&#45;&gt;Node4 -->
<g id="edge20" class="edge"><title>Node18&#45;&gt;Node4</title>
<path fill="none" stroke="midnightblue" d="M1889.83,-193.376C1819.83,-202.573 1714.28,-214 1622,-214 861.5,-214 861.5,-214 861.5,-214 764.933,-214 654.821,-184.644 594.653,-166.01"/>
<polygon fill="midnightblue" stroke="midnightblue" points="1890.44,-196.826 1899.9,-192.037 1889.52,-189.887 1890.44,-196.826"/>
</g>
<!-- Node19&#45;&gt;Node15 -->
<g id="edge22" class="edge"><title>Node19&#45;&gt;Node15</title>
<path fill="none" stroke="midnightblue" d="M1339.8,-176C1405.3,-176 1522.31,-176 1582.28,-176"/>
<polygon fill="midnightblue" stroke="midnightblue" points="1339.75,-172.5 1329.75,-176 1339.75,-179.5 1339.75,-172.5"/>
</g>
</g>
</svg>
        <g id="navigator" transform="translate(0 0)" fill="#404254">
                <rect fill="#f2f5e9" fill-opacity="0.5" stroke="#606060" stroke-width=".5" x="0" y="0" width="60" height="60"/>
                <use id="zoomplus" xlink:href="#zoomPlus" x="17" y="9" onmousedown="handleZoom(evt,'in')"/>
                <use id="zoomminus" xlink:href="#zoomMin" x="42" y="9" onmousedown="handleZoom(evt,'out')"/>
                <use id="reset" xlink:href="#resetDef" x="30" y="36" onmousedown="handleReset()"/>
                <g id="arrowUp" xlink:href="#dirArrow" transform="translate(30 24)" onmousedown="handlePan(0,-1)">
                  <use xlink:href="#rim" fill="#404040">
                        <set attributeName="fill" to="#808080" begin="arrowUp.mouseover" end="arrowUp.mouseout"/>
                  </use>
                  <path fill="none" stroke="white" stroke-width="1.5" d="M0,-3.0v7 M-2.5,-0.5L0,-3.0L2.5,-0.5"/>
                </g>
                <g id="arrowRight" xlink:href="#dirArrow" transform="rotate(90) translate(36 -43)" onmousedown="handlePan(1,0)">
                  <use xlink:href="#rim" fill="#404040">
                        <set attributeName="fill" to="#808080" begin="arrowRight.mouseover" end="arrowRight.mouseout"/>
                  </use>
                  <path fill="none" stroke="white" stroke-width="1.5" d="M0,-3.0v7 M-2.5,-0.5L0,-3.0L2.5,-0.5"/>
                </g>
                <g id="arrowDown" xlink:href="#dirArrow" transform="rotate(180) translate(-30 -48)" onmousedown="handlePan(0,1)">
                  <use xlink:href="#rim" fill="#404040">
                        <set attributeName="fill" to="#808080" begin="arrowDown.mouseover" end="arrowDown.mouseout"/>
                  </use>
                  <path fill="none" stroke="white" stroke-width="1.5" d="M0,-3.0v7 M-2.5,-0.5L0,-3.0L2.5,-0.5"/>
                </g>
                <g id="arrowLeft" xlink:href="#dirArrow" transform="rotate(270) translate(-36 17)" onmousedown="handlePan(-1,0)">
                  <use xlink:href="#rim" fill="#404040">
                        <set attributeName="fill" to="#808080" begin="arrowLeft.mouseover" end="arrowLeft.mouseout"/>
                  </use>
                  <path fill="none" stroke="white" stroke-width="1.5" d="M0,-3.0v7 M-2.5,-0.5L0,-3.0L2.5,-0.5"/>
                </g>
        </g>
        <svg viewBox="0 0 15 15" width="100%" height="30px" preserveAspectRatio="xMaxYMin meet">
         <g id="arrow_out" transform="scale(0.3 0.3)">
          <a xlink:href="class_mavlink_u_log_a3bbc34cea886e7ff388de6412bcc0659_icgraph_org.svg" target="_base">
           <rect id="button" ry="5" rx="5" y="6" x="6" height="38" width="38"
                fill="#f2f5e9" fill-opacity="0.5" stroke="#606060" stroke-width="1.0"/>
           <path id="arrow"
             d="M 11.500037,31.436501 C 11.940474,20.09759 22.043105,11.32322 32.158766,21.979434 L 37.068811,17.246167 C 37.068811,17.246167 37.088388,32 37.088388,32 L 22.160133,31.978069 C 22.160133,31.978069 26.997745,27.140456 26.997745,27.140456 C 18.528582,18.264221 13.291696,25.230495 11.500037,31.436501 z"
             style="fill:#404040;"/>
          </a>
         </g>
        </svg>
</svg>
