<?xml version="1.0" encoding="UTF-8" standalone="no"?>
<!DOCTYPE svg PUBLIC "-//W3C//DTD SVG 1.1//EN"
 "http://www.w3.org/Graphics/SVG/1.1/DTD/svg11.dtd">
<!-- Generated by graphviz version 2.40.1 (20161225.0304)
 -->
<!-- Title: MavlinkReceiver::Run Pages: 1 -->
<!--zoomable 39 -->
<svg id="main" version="1.1" xmlns="http://www.w3.org/2000/svg" xmlns:xlink="http://www.w3.org/1999/xlink" xml:space="preserve" onload="init(evt)">
<style type="text/css"><![CDATA[
.edge:hover path { stroke: red; }
.edge:hover polygon { stroke: red; fill: red; }
]]></style>
<script type="text/javascript"><![CDATA[
var edges = document.getElementsByTagName('g');
if (edges && edges.length) {
  for (var i=0;i<edges.length;i++) {
    if (edges[i].id.substr(0,4)=='edge') {
      edges[i].setAttribute('class','edge');
    }
  }
}
]]></script>
        <defs>
                <circle id="rim" cx="0" cy="0" r="7"/>
                <circle id="rim2" cx="0" cy="0" r="3.5"/>
                <g id="zoomPlus">
                        <use xlink:href="#rim" fill="#404040">
                                <set attributeName="fill" to="#808080" begin="zoomplus.mouseover" end="zoomplus.mouseout"/>
                        </use>
                        <path d="M-4,0h8M0,-4v8" fill="none" stroke="white" stroke-width="1.5" pointer-events="none"/>
                </g>
                <g id="zoomMin">
                        <use xlink:href="#rim" fill="#404040">
                                <set attributeName="fill" to="#808080" begin="zoomminus.mouseover" end="zoomminus.mouseout"/>
                        </use>
                        <path d="M-4,0h8" fill="none" stroke="white" stroke-width="1.5" pointer-events="none"/>
                </g>
                <g id="dirArrow">
                        <path fill="none" stroke="white" stroke-width="1.5" d="M0,-3.0v7 M-2.5,-0.5L0,-3.0L2.5,-0.5"/>
                </g>
               <g id="resetDef">
                       <use xlink:href="#rim2" fill="#404040">
                               <set attributeName="fill" to="#808080" begin="reset.mouseover" end="reset.mouseout"/>
                       </use>
               </g>
        </defs>

<script type="text/javascript">
var viewWidth = 940;
var viewHeight = 39;
var sectionId = 'dynsection-101';
</script>
<script xlink:href="../../svgpan.js"/>
<svg id="graph" class="graph">
<g id="viewport">
<title>MavlinkReceiver::Run</title>
<polygon fill="#ffffff" stroke="transparent" points="-4,4 -4,-35 936,-35 936,4 -4,4"/>
<!-- Node2049 -->
<g id="node1" class="node">
<title>Node2049</title>
<polygon fill="#bfbfbf" stroke="#000000" points="0,-6 0,-25 113,-25 113,-6 0,-6"/>
<text text-anchor="middle" x="56.5" y="-13" font-family="Helvetica,sans-Serif" font-size="10.00" fill="#000000">MavlinkReceiver::Run</text>
</g>
<!-- Node2050 -->
<g id="node2" class="node">
<title>Node2050</title>
<g id="a_node2"><a xlink:href="../../da/d89/class_mavlink_receiver.html#a4e6d064186fe746bc3934959a991a908" target="_top" xlink:title="MavlinkReceiver::start\l_helper">
<polygon fill="#ffffff" stroke="#000000" points="149,-.5 149,-30.5 264,-30.5 264,-.5 149,-.5"/>
<text text-anchor="start" x="157" y="-18.5" font-family="Helvetica,sans-Serif" font-size="10.00" fill="#000000">MavlinkReceiver::start</text>
<text text-anchor="middle" x="206.5" y="-7.5" font-family="Helvetica,sans-Serif" font-size="10.00" fill="#000000">_helper</text>
</a>
</g>
</g>
<!-- Node2049&#45;&gt;Node2050 -->
<g id="edge1" class="edge">
<title>Node2049&#45;&gt;Node2050</title>
<path fill="none" stroke="#191970" d="M123.4079,-15.5C131.8497,-15.5 140.4299,-15.5 148.7139,-15.5"/>
<polygon fill="#191970" stroke="#191970" points="123.2086,-12.0001 113.2086,-15.5 123.2085,-19.0001 123.2086,-12.0001"/>
</g>
<!-- Node2051 -->
<g id="node3" class="node">
<title>Node2051</title>
<g id="a_node3"><a xlink:href="../../da/d89/class_mavlink_receiver.html#aae6564d759626eeebeb19a9dfbdcaf6d" target="_top" xlink:title="Start the receiver thread. ">
<polygon fill="#ffffff" stroke="#000000" points="300,-.5 300,-30.5 427,-30.5 427,-.5 300,-.5"/>
<text text-anchor="start" x="308" y="-18.5" font-family="Helvetica,sans-Serif" font-size="10.00" fill="#000000">MavlinkReceiver::receive</text>
<text text-anchor="middle" x="363.5" y="-7.5" font-family="Helvetica,sans-Serif" font-size="10.00" fill="#000000">_start</text>
</a>
</g>
</g>
<!-- Node2050&#45;&gt;Node2051 -->
<g id="edge2" class="edge">
<title>Node2050&#45;&gt;Node2051</title>
<path fill="none" stroke="#191970" d="M274.3019,-15.5C282.782,-15.5 291.4318,-15.5 299.8454,-15.5"/>
<polygon fill="#191970" stroke="#191970" points="274.0695,-12.0001 264.0695,-15.5 274.0695,-19.0001 274.0695,-12.0001"/>
</g>
<!-- Node2052 -->
<g id="node4" class="node">
<title>Node2052</title>
<g id="a_node4"><a xlink:href="../../df/d1f/class_mavlink.html#a2325401a575b272fc1474d502388241f" target="_top" xlink:title="Main mavlink task. ">
<polygon fill="#ffffff" stroke="#000000" points="463,-6 463,-25 564,-25 564,-6 463,-6"/>
<text text-anchor="middle" x="513.5" y="-13" font-family="Helvetica,sans-Serif" font-size="10.00" fill="#000000">Mavlink::task_main</text>
</a>
</g>
</g>
<!-- Node2051&#45;&gt;Node2052 -->
<g id="edge3" class="edge">
<title>Node2051&#45;&gt;Node2052</title>
<path fill="none" stroke="#191970" d="M437.2854,-15.5C445.9828,-15.5 454.702,-15.5 462.9749,-15.5"/>
<polygon fill="#191970" stroke="#191970" points="437.1135,-12.0001 427.1135,-15.5 437.1135,-19.0001 437.1135,-12.0001"/>
</g>
<!-- Node2053 -->
<g id="node5" class="node">
<title>Node2053</title>
<g id="a_node5"><a xlink:href="../../df/d1f/class_mavlink.html#aad2c17a259e6cfbfe20113c8da8f6cae" target="_top" xlink:title="Mavlink::start_helper">
<polygon fill="#ffffff" stroke="#000000" points="600,-6 600,-25 707,-25 707,-6 600,-6"/>
<text text-anchor="middle" x="653.5" y="-13" font-family="Helvetica,sans-Serif" font-size="10.00" fill="#000000">Mavlink::start_helper</text>
</a>
</g>
</g>
<!-- Node2052&#45;&gt;Node2053 -->
<g id="edge4" class="edge">
<title>Node2052&#45;&gt;Node2053</title>
<path fill="none" stroke="#191970" d="M574.2551,-15.5C582.7299,-15.5 591.3886,-15.5 599.7227,-15.5"/>
<polygon fill="#191970" stroke="#191970" points="574.0432,-12.0001 564.0432,-15.5 574.0432,-19.0001 574.0432,-12.0001"/>
</g>
<!-- Node2054 -->
<g id="node6" class="node">
<title>Node2054</title>
<g id="a_node6"><a xlink:href="../../df/d1f/class_mavlink.html#a3f96c3503833a477332c8584bb8fbc67" target="_top" xlink:title="Start the mavlink task. ">
<polygon fill="#ffffff" stroke="#000000" points="743,-6 743,-25 819,-25 819,-6 743,-6"/>
<text text-anchor="middle" x="781" y="-13" font-family="Helvetica,sans-Serif" font-size="10.00" fill="#000000">Mavlink::start</text>
</a>
</g>
</g>
<!-- Node2053&#45;&gt;Node2054 -->
<g id="edge5" class="edge">
<title>Node2053&#45;&gt;Node2054</title>
<path fill="none" stroke="#191970" d="M717.3846,-15.5C726.0906,-15.5 734.7932,-15.5 742.843,-15.5"/>
<polygon fill="#191970" stroke="#191970" points="717.202,-12.0001 707.2019,-15.5 717.2019,-19.0001 717.202,-12.0001"/>
</g>
<!-- Node2055 -->
<g id="node7" class="node">
<title>Node2055</title>
<g id="a_node7"><a xlink:href="../../de/d24/mavlink__main_8cpp.html#ab81e9b009119f143f3b54a1390b92427" target="_top" xlink:title="Mavlink app start / stop handling function. ">
<polygon fill="#ffffff" stroke="#000000" points="855,-6 855,-25 932,-25 932,-6 855,-6"/>
<text text-anchor="middle" x="893.5" y="-13" font-family="Helvetica,sans-Serif" font-size="10.00" fill="#000000">mavlink_main</text>
</a>
</g>
</g>
<!-- Node2054&#45;&gt;Node2055 -->
<g id="edge6" class="edge">
<title>Node2054&#45;&gt;Node2055</title>
<path fill="none" stroke="#191970" d="M829.2672,-15.5C837.7573,-15.5 846.495,-15.5 854.6854,-15.5"/>
<polygon fill="#191970" stroke="#191970" points="829.0874,-12.0001 819.0874,-15.5 829.0873,-19.0001 829.0874,-12.0001"/>
</g>
</g>
</svg>
        <g id="navigator" transform="translate(0 0)" fill="#404254">
                <rect fill="#f2f5e9" fill-opacity="0.5" stroke="#606060" stroke-width=".5" x="0" y="0" width="60" height="60"/>
                <use id="zoomplus" xlink:href="#zoomPlus" x="17" y="9" onmousedown="handleZoom(evt,'in')"/>
                <use id="zoomminus" xlink:href="#zoomMin" x="42" y="9" onmousedown="handleZoom(evt,'out')"/>
                <use id="reset" xlink:href="#resetDef" x="30" y="36" onmousedown="handleReset()"/>
                <g id="arrowUp" xlink:href="#dirArrow" transform="translate(30 24)" onmousedown="handlePan(0,-1)">
                  <use xlink:href="#rim" fill="#404040">
                        <set attributeName="fill" to="#808080" begin="arrowUp.mouseover" end="arrowUp.mouseout"/>
                  </use>
                  <path fill="none" stroke="white" stroke-width="1.5" d="M0,-3.0v7 M-2.5,-0.5L0,-3.0L2.5,-0.5"/>
                </g>
                <g id="arrowRight" xlink:href="#dirArrow" transform="rotate(90) translate(36 -43)" onmousedown="handlePan(1,0)">
                  <use xlink:href="#rim" fill="#404040">
                        <set attributeName="fill" to="#808080" begin="arrowRight.mouseover" end="arrowRight.mouseout"/>
                  </use>
                  <path fill="none" stroke="white" stroke-width="1.5" d="M0,-3.0v7 M-2.5,-0.5L0,-3.0L2.5,-0.5"/>
                </g>
                <g id="arrowDown" xlink:href="#dirArrow" transform="rotate(180) translate(-30 -48)" onmousedown="handlePan(0,1)">
                  <use xlink:href="#rim" fill="#404040">
                        <set attributeName="fill" to="#808080" begin="arrowDown.mouseover" end="arrowDown.mouseout"/>
                  </use>
                  <path fill="none" stroke="white" stroke-width="1.5" d="M0,-3.0v7 M-2.5,-0.5L0,-3.0L2.5,-0.5"/>
                </g>
                <g id="arrowLeft" xlink:href="#dirArrow" transform="rotate(270) translate(-36 17)" onmousedown="handlePan(-1,0)">
                  <use xlink:href="#rim" fill="#404040">
                        <set attributeName="fill" to="#808080" begin="arrowLeft.mouseover" end="arrowLeft.mouseout"/>
                  </use>
                  <path fill="none" stroke="white" stroke-width="1.5" d="M0,-3.0v7 M-2.5,-0.5L0,-3.0L2.5,-0.5"/>
                </g>
        </g>
        <svg viewBox="0 0 15 15" width="100%" height="30px" preserveAspectRatio="xMaxYMin meet">
         <g id="arrow_out" transform="scale(0.3 0.3)">
          <a xlink:href="class_mavlink_receiver_a2a2904ed386bbb6a4ff3528527006a58_icgraph_org.svg" target="_base">
           <rect id="button" ry="5" rx="5" y="6" x="6" height="38" width="38"
                fill="#f2f5e9" fill-opacity="0.5" stroke="#606060" stroke-width="1.0"/>
           <path id="arrow"
             d="M 11.500037,31.436501 C 11.940474,20.09759 22.043105,11.32322 32.158766,21.979434 L 37.068811,17.246167 C 37.068811,17.246167 37.088388,32 37.088388,32 L 22.160133,31.978069 C 22.160133,31.978069 26.997745,27.140456 26.997745,27.140456 C 18.528582,18.264221 13.291696,25.230495 11.500037,31.436501 z"
             style="fill:#404040;"/>
          </a>
         </g>
        </svg>
</svg>
