<?xml version="1.0" encoding="UTF-8" standalone="no"?>
<!DOCTYPE svg PUBLIC "-//W3C//DTD SVG 1.1//EN"
 "http://www.w3.org/Graphics/SVG/1.1/DTD/svg11.dtd">
<!-- Generated by graphviz version 2.38.0 (20140413.2041)
 -->
<!-- Title: MavlinkReceiver::handle_message_hil_optical_flow Pages: 1 -->
<svg width="1891pt" height="222pt"
 viewBox="0.00 0.00 1891.00 222.00" xmlns="http://www.w3.org/2000/svg" xmlns:xlink="http://www.w3.org/1999/xlink">
<g id="graph0" class="graph" transform="scale(1 1) rotate(0) translate(4 218)">
<title>MavlinkReceiver::handle_message_hil_optical_flow</title>
<polygon fill="white" stroke="none" points="-4,4 -4,-218 1887,-218 1887,4 -4,4"/>
<!-- Node1 -->
<g id="node1" class="node"><title>Node1</title>
<polygon fill="#bfbfbf" stroke="black" points="0,-60 0,-90 134,-90 134,-60 0,-60"/>
<text text-anchor="start" x="8" y="-78" font-family="Helvetica,sans-Serif" font-size="10.00">MavlinkReceiver::handle</text>
<text text-anchor="middle" x="67" y="-67" font-family="Helvetica,sans-Serif" font-size="10.00">_message_hil_optical_flow</text>
</g>
<!-- Node2 -->
<g id="node2" class="node"><title>Node2</title>
<g id="a_node2"><a xlink:href="../../da/d89/class_mavlink_receiver.html#ac939c806679dc4278968b1d3e865cc72" target="_top" xlink:title="MavlinkReceiver::handle\l_message">
<polygon fill="white" stroke="black" points="170,-60 170,-90 294,-90 294,-60 170,-60"/>
<text text-anchor="start" x="178" y="-78" font-family="Helvetica,sans-Serif" font-size="10.00">MavlinkReceiver::handle</text>
<text text-anchor="middle" x="232" y="-67" font-family="Helvetica,sans-Serif" font-size="10.00">_message</text>
</a>
</g>
</g>
<!-- Node1&#45;&gt;Node2 -->
<g id="edge1" class="edge"><title>Node1&#45;&gt;Node2</title>
<path fill="none" stroke="midnightblue" d="M144.548,-75C153.001,-75 161.525,-75 169.754,-75"/>
<polygon fill="midnightblue" stroke="midnightblue" points="144.298,-71.5001 134.298,-75 144.298,-78.5001 144.298,-71.5001"/>
</g>
<!-- Node3 -->
<g id="node3" class="node"><title>Node3</title>
<g id="a_node3"><a xlink:href="../../da/d89/class_mavlink_receiver.html#abf05ea2b60baafd446100f897f9274ab" target="_top" xlink:title="Receive data from UART. ">
<polygon fill="white" stroke="black" points="330,-136 330,-166 457,-166 457,-136 330,-136"/>
<text text-anchor="start" x="338" y="-154" font-family="Helvetica,sans-Serif" font-size="10.00">MavlinkReceiver::receive</text>
<text text-anchor="middle" x="393.5" y="-143" font-family="Helvetica,sans-Serif" font-size="10.00">_thread</text>
</a>
</g>
</g>
<!-- Node2&#45;&gt;Node3 -->
<g id="edge2" class="edge"><title>Node2&#45;&gt;Node3</title>
<path fill="none" stroke="midnightblue" d="M273.722,-94.4034C300.78,-107.296 335.793,-123.98 360.781,-135.886"/>
<polygon fill="midnightblue" stroke="midnightblue" points="275.045,-91.1571 264.512,-90.0152 272.034,-97.4764 275.045,-91.1571"/>
</g>
<!-- Node4 -->
<g id="node4" class="node"><title>Node4</title>
<g id="a_node4"><a xlink:href="../../da/d89/class_mavlink_receiver.html#a4e6d064186fe746bc3934959a991a908" target="_top" xlink:title="MavlinkReceiver::start\l_helper">
<polygon fill="white" stroke="black" points="493,-136 493,-166 608,-166 608,-136 493,-136"/>
<text text-anchor="start" x="501" y="-154" font-family="Helvetica,sans-Serif" font-size="10.00">MavlinkReceiver::start</text>
<text text-anchor="middle" x="550.5" y="-143" font-family="Helvetica,sans-Serif" font-size="10.00">_helper</text>
</a>
</g>
</g>
<!-- Node3&#45;&gt;Node4 -->
<g id="edge3" class="edge"><title>Node3&#45;&gt;Node4</title>
<path fill="none" stroke="midnightblue" d="M467.11,-151C475.692,-151 484.355,-151 492.674,-151"/>
<polygon fill="midnightblue" stroke="midnightblue" points="467.098,-147.5 457.098,-151 467.098,-154.5 467.098,-147.5"/>
</g>
<!-- Node5 -->
<g id="node5" class="node"><title>Node5</title>
<g id="a_node5"><a xlink:href="../../da/d89/class_mavlink_receiver.html#aae6564d759626eeebeb19a9dfbdcaf6d" target="_top" xlink:title="Start the receiver thread. ">
<polygon fill="white" stroke="black" points="644,-136 644,-166 771,-166 771,-136 644,-136"/>
<text text-anchor="start" x="652" y="-154" font-family="Helvetica,sans-Serif" font-size="10.00">MavlinkReceiver::receive</text>
<text text-anchor="middle" x="707.5" y="-143" font-family="Helvetica,sans-Serif" font-size="10.00">_start</text>
</a>
</g>
</g>
<!-- Node4&#45;&gt;Node5 -->
<g id="edge4" class="edge"><title>Node4&#45;&gt;Node5</title>
<path fill="none" stroke="midnightblue" d="M618.515,-151C626.951,-151 635.556,-151 643.92,-151"/>
<polygon fill="midnightblue" stroke="midnightblue" points="618.336,-147.5 608.336,-151 618.336,-154.5 618.336,-147.5"/>
</g>
<!-- Node6 -->
<g id="node6" class="node"><title>Node6</title>
<g id="a_node6"><a xlink:href="../../df/d1f/class_mavlink.html#a2325401a575b272fc1474d502388241f" target="_top" xlink:title="Main mavlink task. ">
<polygon fill="white" stroke="black" points="807,-141.5 807,-160.5 908,-160.5 908,-141.5 807,-141.5"/>
<text text-anchor="middle" x="857.5" y="-148.5" font-family="Helvetica,sans-Serif" font-size="10.00">Mavlink::task_main</text>
</a>
</g>
</g>
<!-- Node5&#45;&gt;Node6 -->
<g id="edge5" class="edge"><title>Node5&#45;&gt;Node6</title>
<path fill="none" stroke="midnightblue" d="M781.302,-151C789.883,-151 798.486,-151 806.649,-151"/>
<polygon fill="midnightblue" stroke="midnightblue" points="781.265,-147.5 771.265,-151 781.265,-154.5 781.265,-147.5"/>
</g>
<!-- Node7 -->
<g id="node7" class="node"><title>Node7</title>
<g id="a_node7"><a xlink:href="../../df/d1f/class_mavlink.html#aad2c17a259e6cfbfe20113c8da8f6cae" target="_top" xlink:title="Mavlink::start_helper">
<polygon fill="white" stroke="black" points="944,-141.5 944,-160.5 1051,-160.5 1051,-141.5 944,-141.5"/>
<text text-anchor="middle" x="997.5" y="-148.5" font-family="Helvetica,sans-Serif" font-size="10.00">Mavlink::start_helper</text>
</a>
</g>
</g>
<!-- Node6&#45;&gt;Node7 -->
<g id="edge6" class="edge"><title>Node6&#45;&gt;Node7</title>
<path fill="none" stroke="midnightblue" d="M918.525,-151C926.993,-151 935.646,-151 943.959,-151"/>
<polygon fill="midnightblue" stroke="midnightblue" points="918.321,-147.5 908.321,-151 918.321,-154.5 918.321,-147.5"/>
</g>
<!-- Node8 -->
<g id="node8" class="node"><title>Node8</title>
<g id="a_node8"><a xlink:href="../../df/d1f/class_mavlink.html#af06ea4dffa8d7b911690a99456a4814a" target="_top" xlink:title="Mavlink::broadcast\l_enabled">
<polygon fill="white" stroke="black" points="1087,-117 1087,-147 1186,-147 1186,-117 1087,-117"/>
<text text-anchor="start" x="1095" y="-135" font-family="Helvetica,sans-Serif" font-size="10.00">Mavlink::broadcast</text>
<text text-anchor="middle" x="1136.5" y="-124" font-family="Helvetica,sans-Serif" font-size="10.00">_enabled</text>
</a>
</g>
</g>
<!-- Node7&#45;&gt;Node8 -->
<g id="edge7" class="edge"><title>Node7&#45;&gt;Node8</title>
<path fill="none" stroke="midnightblue" d="M1061.13,-142.314C1069.78,-141.115 1078.55,-139.899 1086.89,-138.742"/>
<polygon fill="midnightblue" stroke="midnightblue" points="1060.5,-138.868 1051.08,-143.708 1061.46,-145.801 1060.5,-138.868"/>
</g>
<!-- Node18 -->
<g id="node18" class="node"><title>Node18</title>
<g id="a_node18"><a xlink:href="../../df/d1f/class_mavlink.html#a3f96c3503833a477332c8584bb8fbc67" target="_top" xlink:title="Start the mavlink task. ">
<polygon fill="white" stroke="black" points="1098.5,-166.5 1098.5,-185.5 1174.5,-185.5 1174.5,-166.5 1098.5,-166.5"/>
<text text-anchor="middle" x="1136.5" y="-173.5" font-family="Helvetica,sans-Serif" font-size="10.00">Mavlink::start</text>
</a>
</g>
</g>
<!-- Node7&#45;&gt;Node18 -->
<g id="edge20" class="edge"><title>Node7&#45;&gt;Node18</title>
<path fill="none" stroke="midnightblue" d="M1060.86,-162.38C1073.68,-164.719 1086.78,-167.11 1098.36,-169.223"/>
<polygon fill="midnightblue" stroke="midnightblue" points="1061.15,-158.875 1050.68,-160.523 1059.89,-165.761 1061.15,-158.875"/>
</g>
<!-- Node9 -->
<g id="node9" class="node"><title>Node9</title>
<g id="a_node9"><a xlink:href="../../df/d1f/class_mavlink.html#aacd190d885c0a9f521f0d7d0673f2b6f" target="_top" xlink:title="Flush the transmit buffer and send one MAVLink packet. ">
<polygon fill="white" stroke="black" points="1235.5,-78.5 1235.5,-97.5 1347.5,-97.5 1347.5,-78.5 1235.5,-78.5"/>
<text text-anchor="middle" x="1291.5" y="-85.5" font-family="Helvetica,sans-Serif" font-size="10.00">Mavlink::send_packet</text>
</a>
</g>
</g>
<!-- Node8&#45;&gt;Node9 -->
<g id="edge8" class="edge"><title>Node8&#45;&gt;Node9</title>
<path fill="none" stroke="midnightblue" d="M1195.99,-115.179C1216.68,-109.23 1239.22,-102.746 1257.11,-97.6033"/>
<polygon fill="midnightblue" stroke="midnightblue" points="1194.97,-111.83 1186.33,-117.957 1196.91,-118.557 1194.97,-111.83"/>
</g>
<!-- Node13 -->
<g id="node13" class="node"><title>Node13</title>
<g id="a_node13"><a xlink:href="../../df/d1f/class_mavlink.html#afcac36b1b581d47b7181374d35edbd54" target="_top" xlink:title="Set the boot complete flag on all instances. ">
<polygon fill="white" stroke="black" points="1222,-122.5 1222,-141.5 1361,-141.5 1361,-122.5 1222,-122.5"/>
<text text-anchor="middle" x="1291.5" y="-129.5" font-family="Helvetica,sans-Serif" font-size="10.00">Mavlink::set_boot_complete</text>
</a>
</g>
</g>
<!-- Node8&#45;&gt;Node13 -->
<g id="edge13" class="edge"><title>Node8&#45;&gt;Node13</title>
<path fill="none" stroke="midnightblue" d="M1196.59,-125.408C1204.84,-125.256 1213.37,-125.214 1221.78,-125.281"/>
<polygon fill="midnightblue" stroke="midnightblue" points="1196.24,-121.915 1186.33,-125.659 1196.41,-128.913 1196.24,-121.915"/>
</g>
<!-- Node10 -->
<g id="node10" class="node"><title>Node10</title>
<g id="a_node10"><a xlink:href="../../df/d1f/class_mavlink.html#a3aa1fb0ca3f0d77b10a8954618a51abb" target="_top" xlink:title="Get the manual input generation mode. ">
<polygon fill="white" stroke="black" points="1405,-29 1405,-59 1527,-59 1527,-29 1405,-29"/>
<text text-anchor="start" x="1413" y="-47" font-family="Helvetica,sans-Serif" font-size="10.00">Mavlink::get_manual</text>
<text text-anchor="middle" x="1466" y="-36" font-family="Helvetica,sans-Serif" font-size="10.00">_input_mode_generation</text>
</a>
</g>
</g>
<!-- Node9&#45;&gt;Node10 -->
<g id="edge9" class="edge"><title>Node9&#45;&gt;Node10</title>
<path fill="none" stroke="midnightblue" d="M1339.65,-75.9739C1360.11,-70.7547 1384.3,-64.5856 1405.94,-59.0654"/>
<polygon fill="midnightblue" stroke="midnightblue" points="1338.75,-72.5896 1329.93,-78.4527 1340.48,-79.3724 1338.75,-72.5896"/>
</g>
<!-- Node12 -->
<g id="node12" class="node"><title>Node12</title>
<g id="a_node12"><a xlink:href="../../de/d24/mavlink__main_8cpp.html#a646c2f3486de3d8574422fc4ef1940a2" target="_top" xlink:title="mavlink_end_uart_send">
<polygon fill="white" stroke="black" points="1406.5,-78.5 1406.5,-97.5 1525.5,-97.5 1525.5,-78.5 1406.5,-78.5"/>
<text text-anchor="middle" x="1466" y="-85.5" font-family="Helvetica,sans-Serif" font-size="10.00">mavlink_end_uart_send</text>
</a>
</g>
</g>
<!-- Node9&#45;&gt;Node12 -->
<g id="edge12" class="edge"><title>Node9&#45;&gt;Node12</title>
<path fill="none" stroke="midnightblue" d="M1357.85,-88C1373.77,-88 1390.71,-88 1406.3,-88"/>
<polygon fill="midnightblue" stroke="midnightblue" points="1357.55,-84.5001 1347.55,-88 1357.55,-91.5001 1357.55,-84.5001"/>
</g>
<!-- Node11 -->
<g id="node11" class="node"><title>Node11</title>
<g id="a_node11"><a xlink:href="../../da/d89/class_mavlink_receiver.html#af99bf01b6ae13dab05c36c0125e179bc" target="_top" xlink:title="MavlinkReceiver::handle\l_message_manual_control">
<polygon fill="white" stroke="black" points="1573.5,-7 1573.5,-37 1706.5,-37 1706.5,-7 1573.5,-7"/>
<text text-anchor="start" x="1581.5" y="-25" font-family="Helvetica,sans-Serif" font-size="10.00">MavlinkReceiver::handle</text>
<text text-anchor="middle" x="1640" y="-14" font-family="Helvetica,sans-Serif" font-size="10.00">_message_manual_control</text>
</a>
</g>
</g>
<!-- Node10&#45;&gt;Node11 -->
<g id="edge10" class="edge"><title>Node10&#45;&gt;Node11</title>
<path fill="none" stroke="midnightblue" d="M1537.09,-35.0349C1549.06,-33.5039 1561.46,-31.9183 1573.31,-30.4026"/>
<polygon fill="midnightblue" stroke="midnightblue" points="1536.63,-31.5649 1527.16,-36.3055 1537.52,-38.5084 1536.63,-31.5649"/>
</g>
<!-- Node11&#45;&gt;Node2 -->
<g id="edge11" class="edge"><title>Node11&#45;&gt;Node2</title>
<path fill="none" stroke="midnightblue" d="M1563.22,-14.4144C1493.08,-8.05284 1385.86,-0 1292.5,-0 549.5,-0 549.5,-0 549.5,-0 446.725,-0 330.114,-37.9074 271.286,-59.8226"/>
<polygon fill="midnightblue" stroke="midnightblue" points="1563.02,-17.9102 1573.3,-15.3396 1563.66,-10.9396 1563.02,-17.9102"/>
</g>
<!-- Node13&#45;&gt;Node8 -->
<g id="edge14" class="edge"><title>Node13&#45;&gt;Node8</title>
<path fill="none" stroke="midnightblue" d="M1211.66,-138.747C1203.03,-138.726 1194.44,-138.591 1186.33,-138.341"/>
<polygon fill="midnightblue" stroke="midnightblue" points="1211.79,-142.247 1221.78,-138.719 1211.77,-135.247 1211.79,-142.247"/>
</g>
<!-- Node14 -->
<g id="node14" class="node"><title>Node14</title>
<g id="a_node14"><a xlink:href="../../de/d24/mavlink__main_8cpp.html#ab81e9b009119f143f3b54a1390b92427" target="_top" xlink:title="mavlink app start / stop handling function ">
<polygon fill="white" stroke="black" points="1427.5,-166.5 1427.5,-185.5 1504.5,-185.5 1504.5,-166.5 1427.5,-166.5"/>
<text text-anchor="middle" x="1466" y="-173.5" font-family="Helvetica,sans-Serif" font-size="10.00">mavlink_main</text>
</a>
</g>
</g>
<!-- Node13&#45;&gt;Node14 -->
<g id="edge15" class="edge"><title>Node13&#45;&gt;Node14</title>
<path fill="none" stroke="midnightblue" d="M1339.79,-144.062C1367.45,-151.118 1401.89,-159.902 1427.64,-166.471"/>
<polygon fill="midnightblue" stroke="midnightblue" points="1340.48,-140.628 1329.93,-141.547 1338.75,-147.41 1340.48,-140.628"/>
</g>
<!-- Node15 -->
<g id="node15" class="node"><title>Node15</title>
<g id="a_node15"><a xlink:href="../../df/d61/class_mavlink_parameters_manager.html#acd8734b77582ad7626f5230c1707e04c" target="_top" xlink:title="send a single param if a PARAM_REQUEST_LIST is in progress ">
<polygon fill="white" stroke="black" points="1397,-117 1397,-147 1535,-147 1535,-117 1397,-117"/>
<text text-anchor="start" x="1405" y="-135" font-family="Helvetica,sans-Serif" font-size="10.00">MavlinkParametersManager</text>
<text text-anchor="middle" x="1466" y="-124" font-family="Helvetica,sans-Serif" font-size="10.00">::send_one</text>
</a>
</g>
</g>
<!-- Node13&#45;&gt;Node15 -->
<g id="edge16" class="edge"><title>Node13&#45;&gt;Node15</title>
<path fill="none" stroke="midnightblue" d="M1371.45,-132C1379.93,-132 1388.51,-132 1396.85,-132"/>
<polygon fill="midnightblue" stroke="midnightblue" points="1371.17,-128.5 1361.17,-132 1371.17,-135.5 1371.17,-128.5"/>
</g>
<!-- Node16 -->
<g id="node16" class="node"><title>Node16</title>
<g id="a_node16"><a xlink:href="../../df/d61/class_mavlink_parameters_manager.html#a3a6dff51ef5aba4f3dda19610510a45d" target="_top" xlink:title="Handle any open param send transfer. ">
<polygon fill="white" stroke="black" points="1571,-136 1571,-166 1709,-166 1709,-136 1571,-136"/>
<text text-anchor="start" x="1579" y="-154" font-family="Helvetica,sans-Serif" font-size="10.00">MavlinkParametersManager</text>
<text text-anchor="middle" x="1640" y="-143" font-family="Helvetica,sans-Serif" font-size="10.00">::send_params</text>
</a>
</g>
</g>
<!-- Node15&#45;&gt;Node16 -->
<g id="edge17" class="edge"><title>Node15&#45;&gt;Node16</title>
<path fill="none" stroke="midnightblue" d="M1545.64,-140.687C1554.03,-141.613 1562.51,-142.55 1570.76,-143.462"/>
<polygon fill="midnightblue" stroke="midnightblue" points="1545.8,-137.183 1535.47,-139.564 1545.03,-144.141 1545.8,-137.183"/>
</g>
<!-- Node17 -->
<g id="node17" class="node"><title>Node17</title>
<g id="a_node17"><a xlink:href="../../df/d61/class_mavlink_parameters_manager.html#adbcd587c4ec1c0b94fe259047f8ec82e" target="_top" xlink:title="Handle sending of messages. ">
<polygon fill="white" stroke="black" points="1745,-167 1745,-197 1883,-197 1883,-167 1745,-167"/>
<text text-anchor="start" x="1753" y="-185" font-family="Helvetica,sans-Serif" font-size="10.00">MavlinkParametersManager</text>
<text text-anchor="middle" x="1814" y="-174" font-family="Helvetica,sans-Serif" font-size="10.00">::send</text>
</a>
</g>
</g>
<!-- Node16&#45;&gt;Node17 -->
<g id="edge18" class="edge"><title>Node16&#45;&gt;Node17</title>
<path fill="none" stroke="midnightblue" d="M1719.36,-165.123C1727.84,-166.651 1736.42,-168.197 1744.76,-169.701"/>
<polygon fill="midnightblue" stroke="midnightblue" points="1719.94,-161.67 1709.47,-163.341 1718.69,-168.559 1719.94,-161.67"/>
</g>
<!-- Node17&#45;&gt;Node3 -->
<g id="edge19" class="edge"><title>Node17&#45;&gt;Node3</title>
<path fill="none" stroke="midnightblue" d="M1734.83,-193.376C1664.83,-202.573 1559.28,-214 1467,-214 706.5,-214 706.5,-214 706.5,-214 609.933,-214 499.821,-184.644 439.653,-166.01"/>
<polygon fill="midnightblue" stroke="midnightblue" points="1735.44,-196.826 1744.9,-192.037 1734.52,-189.887 1735.44,-196.826"/>
</g>
<!-- Node18&#45;&gt;Node14 -->
<g id="edge21" class="edge"><title>Node18&#45;&gt;Node14</title>
<path fill="none" stroke="midnightblue" d="M1184.8,-176C1250.3,-176 1367.31,-176 1427.28,-176"/>
<polygon fill="midnightblue" stroke="midnightblue" points="1184.75,-172.5 1174.75,-176 1184.75,-179.5 1184.75,-172.5"/>
</g>
</g>
</svg>
