<?xml version="1.0" encoding="UTF-8" standalone="no"?>
<!DOCTYPE svg PUBLIC "-//W3C//DTD SVG 1.1//EN"
 "http://www.w3.org/Graphics/SVG/1.1/DTD/svg11.dtd">
<!-- Generated by graphviz version 2.40.1 (20161225.0304)
 -->
<!-- Title: MavlinkReceiver::handle_message_set_attitude_target Pages: 1 -->
<svg width="1275pt" height="327pt"
 viewBox="0.00 0.00 1275.00 327.00" xmlns="http://www.w3.org/2000/svg" xmlns:xlink="http://www.w3.org/1999/xlink">
<g id="graph0" class="graph" transform="scale(1 1) rotate(0) translate(4 323)">
<title>MavlinkReceiver::handle_message_set_attitude_target</title>
<polygon fill="#ffffff" stroke="transparent" points="-4,4 -4,-323 1271,-323 1271,4 -4,4"/>
<!-- Node989 -->
<g id="node1" class="node">
<title>Node989</title>
<polygon fill="#bfbfbf" stroke="#000000" points="0,-107 0,-148 124,-148 124,-107 0,-107"/>
<text text-anchor="start" x="8" y="-136" font-family="Helvetica,sans-Serif" font-size="10.00" fill="#000000">MavlinkReceiver::handle</text>
<text text-anchor="start" x="8" y="-125" font-family="Helvetica,sans-Serif" font-size="10.00" fill="#000000">_message_set_attitude</text>
<text text-anchor="middle" x="62" y="-114" font-family="Helvetica,sans-Serif" font-size="10.00" fill="#000000">_target</text>
</g>
<!-- Node990 -->
<g id="node2" class="node">
<title>Node990</title>
<g id="a_node2"><a xlink:href="../../d0/d65/classu_o_r_b_1_1_subscription.html#a17a37eb5624b409379db434400de4582" target="_top" xlink:title="Copy the struct. ">
<polygon fill="#ffffff" stroke="#000000" points="165.5,-225.5 165.5,-255.5 269.5,-255.5 269.5,-225.5 165.5,-225.5"/>
<text text-anchor="start" x="173.5" y="-243.5" font-family="Helvetica,sans-Serif" font-size="10.00" fill="#000000">uORB::Subscription</text>
<text text-anchor="middle" x="217.5" y="-232.5" font-family="Helvetica,sans-Serif" font-size="10.00" fill="#000000">::copy</text>
</a>
</g>
</g>
<!-- Node989&#45;&gt;Node990 -->
<g id="edge1" class="edge">
<title>Node989&#45;&gt;Node990</title>
<path fill="none" stroke="#191970" d="M81.08,-148.0986C99.7775,-167.3969 129.7928,-196.0995 160,-215.5 162.928,-217.3805 166.0215,-219.1812 169.1933,-220.8928"/>
<polygon fill="#191970" stroke="#191970" points="167.7632,-224.0914 178.2677,-225.4722 170.917,-217.8421 167.7632,-224.0914"/>
</g>
<!-- Node1009 -->
<g id="node21" class="node">
<title>Node1009</title>
<g id="a_node21"><a xlink:href="../../dd/df8/classmatrix_1_1_matrix.html#a46af950c7f4bdbba51525788362f1d85" target="_top" xlink:title="matrix::Matrix::copyTo">
<polygon fill="#ffffff" stroke="#000000" points="160,-187 160,-206 275,-206 275,-187 160,-187"/>
<text text-anchor="middle" x="217.5" y="-194" font-family="Helvetica,sans-Serif" font-size="10.00" fill="#000000">matrix::Matrix::copyTo</text>
</a>
</g>
</g>
<!-- Node989&#45;&gt;Node1009 -->
<g id="edge22" class="edge">
<title>Node989&#45;&gt;Node1009</title>
<path fill="none" stroke="#191970" d="M100.5646,-148.2237C118.4007,-157.4328 140.0198,-168.0715 160,-176.5 165.8156,-178.9532 172.0469,-181.3503 178.1835,-183.5838"/>
<polygon fill="#191970" stroke="#191970" points="177.0808,-186.9062 187.6755,-186.9437 179.4166,-180.3074 177.0808,-186.9062"/>
</g>
<!-- Node1010 -->
<g id="node22" class="node">
<title>Node1010</title>
<g id="a_node22"><a xlink:href="../../da/d89/class_mavlink_receiver.html#a5165b54723cb25927bf3dce294b6e811" target="_top" xlink:title="MavlinkReceiver::fill\l_thrust">
<polygon fill="#ffffff" stroke="#000000" points="165,-137.5 165,-167.5 270,-167.5 270,-137.5 165,-137.5"/>
<text text-anchor="start" x="173" y="-155.5" font-family="Helvetica,sans-Serif" font-size="10.00" fill="#000000">MavlinkReceiver::fill</text>
<text text-anchor="middle" x="217.5" y="-144.5" font-family="Helvetica,sans-Serif" font-size="10.00" fill="#000000">_thrust</text>
</a>
</g>
</g>
<!-- Node989&#45;&gt;Node1010 -->
<g id="edge23" class="edge">
<title>Node989&#45;&gt;Node1010</title>
<path fill="none" stroke="#191970" d="M124.3518,-137.5244C134.3644,-139.1342 144.732,-140.801 154.7538,-142.4122"/>
<polygon fill="#191970" stroke="#191970" points="154.2056,-145.8689 164.6344,-144.0007 155.3168,-138.9577 154.2056,-145.8689"/>
</g>
<!-- Node1012 -->
<g id="node24" class="node">
<title>Node1012</title>
<g id="a_node24"><a xlink:href="../../df/d1f/class_mavlink.html#a09e1a1e5cee04c28cfec5463aa1db0fb" target="_top" xlink:title="Mavlink::get_forward\l_externalsp">
<polygon fill="#ffffff" stroke="#000000" points="164,-88.5 164,-118.5 271,-118.5 271,-88.5 164,-88.5"/>
<text text-anchor="start" x="172" y="-106.5" font-family="Helvetica,sans-Serif" font-size="10.00" fill="#000000">Mavlink::get_forward</text>
<text text-anchor="middle" x="217.5" y="-95.5" font-family="Helvetica,sans-Serif" font-size="10.00" fill="#000000">_externalsp</text>
</a>
</g>
</g>
<!-- Node989&#45;&gt;Node1012 -->
<g id="edge25" class="edge">
<title>Node989&#45;&gt;Node1012</title>
<path fill="none" stroke="#191970" d="M124.3518,-117.8766C134.0093,-116.386 143.997,-114.8445 153.6861,-113.3491"/>
<polygon fill="#191970" stroke="#191970" points="154.2997,-116.7959 163.6488,-111.8114 153.2319,-109.8778 154.2997,-116.7959"/>
</g>
<!-- Node1013 -->
<g id="node25" class="node">
<title>Node1013</title>
<g id="a_node25"><a xlink:href="../../d6/d10/drv__hrt_8h.html#a1450e339b7c5b8d47656500167a6676d" target="_top" xlink:title="Get absolute time in [us] (does not wrap). ">
<polygon fill="#ffffff" stroke="#000000" points="170.5,-50 170.5,-69 264.5,-69 264.5,-50 170.5,-50"/>
<text text-anchor="middle" x="217.5" y="-57" font-family="Helvetica,sans-Serif" font-size="10.00" fill="#000000">hrt_absolute_time</text>
</a>
</g>
</g>
<!-- Node989&#45;&gt;Node1013 -->
<g id="edge26" class="edge">
<title>Node989&#45;&gt;Node1013</title>
<path fill="none" stroke="#191970" d="M100.0363,-106.875C117.949,-97.5806 139.7788,-86.845 160,-78.5 165.1629,-76.3693 170.6592,-74.3048 176.1282,-72.3706"/>
<polygon fill="#191970" stroke="#191970" points="177.5337,-75.5891 185.865,-69.0438 175.2705,-68.9651 177.5337,-75.5891"/>
</g>
<!-- Node1014 -->
<g id="node26" class="node">
<title>Node1014</title>
<g id="a_node26"><a xlink:href="../../d3/de9/classu_o_r_b_1_1_publication.html#a91d62138475fc6ab2c96859a8abc896c" target="_top" xlink:title="Publish the struct. ">
<polygon fill="#ffffff" stroke="#000000" points="165.5,-.5 165.5,-30.5 269.5,-30.5 269.5,-.5 165.5,-.5"/>
<text text-anchor="start" x="173.5" y="-18.5" font-family="Helvetica,sans-Serif" font-size="10.00" fill="#000000">uORB::Publication::</text>
<text text-anchor="middle" x="217.5" y="-7.5" font-family="Helvetica,sans-Serif" font-size="10.00" fill="#000000">publish</text>
</a>
</g>
</g>
<!-- Node989&#45;&gt;Node1014 -->
<g id="edge27" class="edge">
<title>Node989&#45;&gt;Node1014</title>
<path fill="none" stroke="#191970" d="M81.4833,-106.7866C100.236,-87.7241 130.0827,-59.5946 160,-40.5 162.9334,-38.6278 166.0308,-36.8333 169.2056,-35.1264"/>
<polygon fill="#191970" stroke="#191970" points="170.9271,-38.1783 178.2855,-30.5556 167.7796,-31.9258 170.9271,-38.1783"/>
</g>
<!-- Node991 -->
<g id="node3" class="node">
<title>Node991</title>
<g id="a_node3"><a xlink:href="../../d0/d65/classu_o_r_b_1_1_subscription.html#a9c16cd791d522e477bfafbbc09729bc2" target="_top" xlink:title="uORB::Subscription\l::advertised">
<polygon fill="#ffffff" stroke="#000000" points="324.5,-203.5 324.5,-233.5 428.5,-233.5 428.5,-203.5 324.5,-203.5"/>
<text text-anchor="start" x="332.5" y="-221.5" font-family="Helvetica,sans-Serif" font-size="10.00" fill="#000000">uORB::Subscription</text>
<text text-anchor="middle" x="376.5" y="-210.5" font-family="Helvetica,sans-Serif" font-size="10.00" fill="#000000">::advertised</text>
</a>
</g>
</g>
<!-- Node990&#45;&gt;Node991 -->
<g id="edge2" class="edge">
<title>Node990&#45;&gt;Node991</title>
<path fill="none" stroke="#191970" d="M269.5625,-233.2964C283.8384,-231.3211 299.4597,-229.1597 314.2449,-227.1139"/>
<polygon fill="#191970" stroke="#191970" points="314.8946,-230.5575 324.3205,-225.7198 313.9351,-223.6235 314.8946,-230.5575"/>
</g>
<!-- Node1007 -->
<g id="node19" class="node">
<title>Node1007</title>
<g id="a_node19"><a xlink:href="../../d0/d18/classu_o_r_b_1_1_device_node.html#a89d9a792e1e38e04c65baba20f29d780" target="_top" xlink:title="Copies data and the corresponding generation from a node to the buffer provided. ">
<polygon fill="#ffffff" stroke="#000000" points="311,-280 311,-299 442,-299 442,-280 311,-280"/>
<text text-anchor="middle" x="376.5" y="-287" font-family="Helvetica,sans-Serif" font-size="10.00" fill="#000000">uORB::DeviceNode::copy</text>
</a>
</g>
</g>
<!-- Node990&#45;&gt;Node1007 -->
<g id="edge20" class="edge">
<title>Node990&#45;&gt;Node1007</title>
<path fill="none" stroke="#191970" d="M266.5026,-255.6014C288.7161,-262.4471 314.6737,-270.4466 335.7929,-276.9551"/>
<polygon fill="#191970" stroke="#191970" points="334.8415,-280.3242 345.4288,-279.9246 336.9031,-273.6347 334.8415,-280.3242"/>
</g>
<!-- Node992 -->
<g id="node4" class="node">
<title>Node992</title>
<g id="a_node4"><a xlink:href="../../d0/d65/classu_o_r_b_1_1_subscription.html#af4675ee1722445e07e50d1a984b8d8c0" target="_top" xlink:title="uORB::Subscription\l::valid">
<polygon fill="#ffffff" stroke="#000000" points="491.5,-239.5 491.5,-269.5 595.5,-269.5 595.5,-239.5 491.5,-239.5"/>
<text text-anchor="start" x="499.5" y="-257.5" font-family="Helvetica,sans-Serif" font-size="10.00" fill="#000000">uORB::Subscription</text>
<text text-anchor="middle" x="543.5" y="-246.5" font-family="Helvetica,sans-Serif" font-size="10.00" fill="#000000">::valid</text>
</a>
</g>
</g>
<!-- Node991&#45;&gt;Node992 -->
<g id="edge3" class="edge">
<title>Node991&#45;&gt;Node992</title>
<path fill="none" stroke="#191970" d="M428.8816,-229.7919C445.5137,-233.3772 464.068,-237.3769 481.3208,-241.0961"/>
<polygon fill="#191970" stroke="#191970" points="480.7912,-244.5623 491.3042,-243.2482 482.2663,-237.7194 480.7912,-244.5623"/>
</g>
<!-- Node993 -->
<g id="node5" class="node">
<title>Node993</title>
<g id="a_node5"><a xlink:href="../../d0/d18/classu_o_r_b_1_1_device_node.html#a16d1880bc99853428a8d8a240f24857b" target="_top" xlink:title="Return true if this topic has been advertised. ">
<polygon fill="#ffffff" stroke="#000000" points="485,-190.5 485,-220.5 602,-220.5 602,-190.5 485,-190.5"/>
<text text-anchor="start" x="493" y="-208.5" font-family="Helvetica,sans-Serif" font-size="10.00" fill="#000000">uORB::DeviceNode::is</text>
<text text-anchor="middle" x="543.5" y="-197.5" font-family="Helvetica,sans-Serif" font-size="10.00" fill="#000000">_advertised</text>
</a>
</g>
</g>
<!-- Node991&#45;&gt;Node993 -->
<g id="edge4" class="edge">
<title>Node991&#45;&gt;Node993</title>
<path fill="none" stroke="#191970" d="M428.8816,-214.4224C443.4766,-213.2863 459.5517,-212.0349 474.9286,-210.8379"/>
<polygon fill="#191970" stroke="#191970" points="475.2119,-214.3265 484.91,-210.0609 474.6685,-207.3476 475.2119,-214.3265"/>
</g>
<!-- Node994 -->
<g id="node6" class="node">
<title>Node994</title>
<g id="a_node6"><a xlink:href="../../d0/d65/classu_o_r_b_1_1_subscription.html#af22634979d2da6afada8cdd3f84a236d" target="_top" xlink:title="uORB::Subscription\l::init">
<polygon fill="#ffffff" stroke="#000000" points="491.5,-141.5 491.5,-171.5 595.5,-171.5 595.5,-141.5 491.5,-141.5"/>
<text text-anchor="start" x="499.5" y="-159.5" font-family="Helvetica,sans-Serif" font-size="10.00" fill="#000000">uORB::Subscription</text>
<text text-anchor="middle" x="543.5" y="-148.5" font-family="Helvetica,sans-Serif" font-size="10.00" fill="#000000">::init</text>
</a>
</g>
</g>
<!-- Node991&#45;&gt;Node994 -->
<g id="edge5" class="edge">
<title>Node991&#45;&gt;Node994</title>
<path fill="none" stroke="#191970" d="M416.4882,-203.4553C435.1655,-196.4473 457.7088,-188.0157 478,-180.5 482.7752,-178.7313 487.7488,-176.8962 492.7267,-175.0641"/>
<polygon fill="#191970" stroke="#191970" points="494.0749,-178.2976 502.254,-171.5631 491.6604,-171.7272 494.0749,-178.2976"/>
</g>
<!-- Node995 -->
<g id="node7" class="node">
<title>Node995</title>
<g id="a_node7"><a xlink:href="../../d0/d65/classu_o_r_b_1_1_subscription.html#acb0fbd4b56d5e3c8edca15206e110223" target="_top" xlink:title="uORB::Subscription\l::subscribe">
<polygon fill="#ffffff" stroke="#000000" points="645,-141.5 645,-171.5 749,-171.5 749,-141.5 645,-141.5"/>
<text text-anchor="start" x="653" y="-159.5" font-family="Helvetica,sans-Serif" font-size="10.00" fill="#000000">uORB::Subscription</text>
<text text-anchor="middle" x="697" y="-148.5" font-family="Helvetica,sans-Serif" font-size="10.00" fill="#000000">::subscribe</text>
</a>
</g>
</g>
<!-- Node994&#45;&gt;Node995 -->
<g id="edge6" class="edge">
<title>Node994&#45;&gt;Node995</title>
<path fill="none" stroke="#191970" d="M595.8967,-156.5C608.3693,-156.5 621.7992,-156.5 634.6681,-156.5"/>
<polygon fill="#191970" stroke="#191970" points="634.8395,-160.0001 644.8395,-156.5 634.8394,-153.0001 634.8395,-160.0001"/>
</g>
<!-- Node996 -->
<g id="node8" class="node">
<title>Node996</title>
<g id="a_node8"><a xlink:href="../../d3/da9/classu_o_r_b_1_1_manager.html#a9d829b3ea49d16d03c2fa37ef2bb24a5" target="_top" xlink:title="Method to get the singleton instance for the uORB::Manager. ">
<polygon fill="#ffffff" stroke="#000000" points="994.5,-163.5 994.5,-193.5 1101.5,-193.5 1101.5,-163.5 994.5,-163.5"/>
<text text-anchor="start" x="1002.5" y="-181.5" font-family="Helvetica,sans-Serif" font-size="10.00" fill="#000000">uORB::Manager::get</text>
<text text-anchor="middle" x="1048" y="-170.5" font-family="Helvetica,sans-Serif" font-size="10.00" fill="#000000">_instance</text>
</a>
</g>
</g>
<!-- Node995&#45;&gt;Node996 -->
<g id="edge7" class="edge">
<title>Node995&#45;&gt;Node996</title>
<path fill="none" stroke="#191970" d="M749.1692,-159.7699C811.8376,-163.6978 916.93,-170.2848 984.3218,-174.5088"/>
<polygon fill="#191970" stroke="#191970" points="984.1921,-178.0074 994.3915,-175.1399 984.6301,-171.0211 984.1921,-178.0074"/>
</g>
<!-- Node997 -->
<g id="node9" class="node">
<title>Node997</title>
<g id="a_node9"><a xlink:href="../../d3/da9/classu_o_r_b_1_1_manager.html#a083331e24ac4f99ac11a0aab1b1681b4" target="_top" xlink:title="Get the DeviceMaster. ">
<polygon fill="#ffffff" stroke="#000000" points="1160,-234.5 1160,-264.5 1267,-264.5 1267,-234.5 1160,-234.5"/>
<text text-anchor="start" x="1168" y="-252.5" font-family="Helvetica,sans-Serif" font-size="10.00" fill="#000000">uORB::Manager::get</text>
<text text-anchor="middle" x="1213.5" y="-241.5" font-family="Helvetica,sans-Serif" font-size="10.00" fill="#000000">_device_master</text>
</a>
</g>
</g>
<!-- Node995&#45;&gt;Node997 -->
<g id="edge9" class="edge">
<title>Node995&#45;&gt;Node997</title>
<path fill="none" stroke="#191970" d="M706.9849,-171.8301C721.5705,-192.9826 750.7271,-230.8415 785,-251.5 858.6807,-295.9121 886.7023,-290.2934 972,-301.5 1038.9799,-310.3 1058.7703,-319.074 1124,-301.5 1146.6074,-295.4092 1169.3855,-282.049 1186.3048,-270.3964"/>
<polygon fill="#191970" stroke="#191970" points="1188.4661,-273.1543 1194.5865,-264.5061 1184.4089,-267.45 1188.4661,-273.1543"/>
</g>
<!-- Node998 -->
<g id="node10" class="node">
<title>Node998</title>
<g id="a_node10"><a xlink:href="../../dd/d9d/classu_o_r_b_1_1_device_master.html#a793df66a48dcabdd0f5bd8c85beee13c" target="_top" xlink:title="Public interface for getDeviceNodeLocked(). ">
<polygon fill="#ffffff" stroke="#000000" points="805.5,-212.5 805.5,-242.5 915.5,-242.5 915.5,-212.5 805.5,-212.5"/>
<text text-anchor="start" x="813.5" y="-230.5" font-family="Helvetica,sans-Serif" font-size="10.00" fill="#000000">uORB::DeviceMaster</text>
<text text-anchor="middle" x="860.5" y="-219.5" font-family="Helvetica,sans-Serif" font-size="10.00" fill="#000000">::getDeviceNode</text>
</a>
</g>
</g>
<!-- Node995&#45;&gt;Node998 -->
<g id="edge10" class="edge">
<title>Node995&#45;&gt;Node998</title>
<path fill="none" stroke="#191970" d="M731.6741,-171.5573C756.3859,-182.2884 789.8034,-196.8 816.4102,-208.354"/>
<polygon fill="#191970" stroke="#191970" points="815.3092,-211.6916 825.8758,-212.4644 818.0975,-205.2708 815.3092,-211.6916"/>
</g>
<!-- Node1001 -->
<g id="node13" class="node">
<title>Node1001</title>
<g id="a_node13"><a xlink:href="../../d0/d18/classu_o_r_b_1_1_device_node.html#abb03278ff4ddd2a50e0f2996e856f2cc" target="_top" xlink:title="Add the subscriber to the node&#39;s list of subscriber. ">
<polygon fill="#ffffff" stroke="#000000" points="798,-119.5 798,-149.5 923,-149.5 923,-119.5 798,-119.5"/>
<text text-anchor="start" x="806" y="-137.5" font-family="Helvetica,sans-Serif" font-size="10.00" fill="#000000">uORB::DeviceNode::add</text>
<text text-anchor="middle" x="860.5" y="-126.5" font-family="Helvetica,sans-Serif" font-size="10.00" fill="#000000">_internal_subscriber</text>
</a>
</g>
</g>
<!-- Node995&#45;&gt;Node1001 -->
<g id="edge13" class="edge">
<title>Node995&#45;&gt;Node1001</title>
<path fill="none" stroke="#191970" d="M749.182,-149.4786C761.5444,-147.8151 774.9495,-146.0114 788.0332,-144.2509"/>
<polygon fill="#191970" stroke="#191970" points="788.5092,-147.7185 797.9531,-142.9161 787.5757,-140.781 788.5092,-147.7185"/>
</g>
<!-- Node1005 -->
<g id="node17" class="node">
<title>Node1005</title>
<g id="a_node17"><a xlink:href="../../d0/d18/classu_o_r_b_1_1_device_node.html#a45adbc432af16d0f7dd5b8e0b4c0cc8b" target="_top" xlink:title="uORB::DeviceNode::published\l_message_count">
<polygon fill="#ffffff" stroke="#000000" points="785,-70.5 785,-100.5 936,-100.5 936,-70.5 785,-70.5"/>
<text text-anchor="start" x="793" y="-88.5" font-family="Helvetica,sans-Serif" font-size="10.00" fill="#000000">uORB::DeviceNode::published</text>
<text text-anchor="middle" x="860.5" y="-77.5" font-family="Helvetica,sans-Serif" font-size="10.00" fill="#000000">_message_count</text>
</a>
</g>
</g>
<!-- Node995&#45;&gt;Node1005 -->
<g id="edge18" class="edge">
<title>Node995&#45;&gt;Node1005</title>
<path fill="none" stroke="#191970" d="M722.1943,-141.4526C739.4714,-131.5341 763.1366,-118.7221 785,-109.5 789.6335,-107.5456 794.4835,-105.6599 799.3936,-103.8631"/>
<polygon fill="#191970" stroke="#191970" points="800.6018,-107.1484 808.8693,-100.5228 798.2745,-100.5466 800.6018,-107.1484"/>
</g>
<!-- Node1006 -->
<g id="node18" class="node">
<title>Node1006</title>
<g id="a_node18"><a xlink:href="../../d0/d18/classu_o_r_b_1_1_device_node.html#a7877236ac1912c32c2ab6ae06899392d" target="_top" xlink:title="uORB::DeviceNode::get\l_queue_size">
<polygon fill="#ffffff" stroke="#000000" points="799,-21.5 799,-51.5 922,-51.5 922,-21.5 799,-21.5"/>
<text text-anchor="start" x="807" y="-39.5" font-family="Helvetica,sans-Serif" font-size="10.00" fill="#000000">uORB::DeviceNode::get</text>
<text text-anchor="middle" x="860.5" y="-28.5" font-family="Helvetica,sans-Serif" font-size="10.00" fill="#000000">_queue_size</text>
</a>
</g>
</g>
<!-- Node995&#45;&gt;Node1006 -->
<g id="edge19" class="edge">
<title>Node995&#45;&gt;Node1006</title>
<path fill="none" stroke="#191970" d="M707.0836,-141.2269C721.7863,-120.1113 751.0812,-82.1603 785,-60.5 787.5828,-58.8506 790.288,-57.3065 793.0746,-55.8619"/>
<polygon fill="#191970" stroke="#191970" points="794.6352,-58.9959 802.2016,-51.5796 791.6619,-52.6587 794.6352,-58.9959"/>
</g>
<!-- Node996&#45;&gt;Node997 -->
<g id="edge8" class="edge">
<title>Node996&#45;&gt;Node997</title>
<path fill="none" stroke="#191970" d="M1099.9557,-193.5487C1108.0902,-196.2931 1116.3364,-199.3075 1124,-202.5 1142.5538,-210.2291 1162.4187,-220.449 1178.7086,-229.3842"/>
<polygon fill="#191970" stroke="#191970" points="1177.4092,-232.6664 1187.8497,-234.4681 1180.8116,-226.5488 1177.4092,-232.6664"/>
</g>
<!-- Node999 -->
<g id="node11" class="node">
<title>Node999</title>
<g id="a_node11"><a xlink:href="../../dd/d9d/classu_o_r_b_1_1_device_master.html#a7e0c3156fdf5875a74d1ad727930a70a" target="_top" xlink:title="uORB::DeviceMaster\l::lock">
<polygon fill="#ffffff" stroke="#000000" points="993,-212.5 993,-242.5 1103,-242.5 1103,-212.5 993,-212.5"/>
<text text-anchor="start" x="1001" y="-230.5" font-family="Helvetica,sans-Serif" font-size="10.00" fill="#000000">uORB::DeviceMaster</text>
<text text-anchor="middle" x="1048" y="-219.5" font-family="Helvetica,sans-Serif" font-size="10.00" fill="#000000">::lock</text>
</a>
</g>
</g>
<!-- Node998&#45;&gt;Node999 -->
<g id="edge11" class="edge">
<title>Node998&#45;&gt;Node999</title>
<path fill="none" stroke="#191970" d="M915.7421,-227.5C936.7243,-227.5 960.8213,-227.5 982.65,-227.5"/>
<polygon fill="#191970" stroke="#191970" points="982.8291,-231.0001 992.8291,-227.5 982.829,-224.0001 982.8291,-231.0001"/>
</g>
<!-- Node1000 -->
<g id="node12" class="node">
<title>Node1000</title>
<g id="a_node12"><a xlink:href="../../dd/d9d/classu_o_r_b_1_1_device_master.html#a5b85000ee723a160ca6ea6bce730efc3" target="_top" xlink:title="uORB::DeviceMaster\l::unlock">
<polygon fill="#ffffff" stroke="#000000" points="993,-261.5 993,-291.5 1103,-291.5 1103,-261.5 993,-261.5"/>
<text text-anchor="start" x="1001" y="-279.5" font-family="Helvetica,sans-Serif" font-size="10.00" fill="#000000">uORB::DeviceMaster</text>
<text text-anchor="middle" x="1048" y="-268.5" font-family="Helvetica,sans-Serif" font-size="10.00" fill="#000000">::unlock</text>
</a>
</g>
</g>
<!-- Node998&#45;&gt;Node1000 -->
<g id="edge12" class="edge">
<title>Node998&#45;&gt;Node1000</title>
<path fill="none" stroke="#191970" d="M915.7421,-241.9366C936.8192,-247.4448 961.0395,-253.7743 982.9462,-259.4993"/>
<polygon fill="#191970" stroke="#191970" points="982.269,-262.9398 992.8291,-262.082 984.039,-256.1672 982.269,-262.9398"/>
</g>
<!-- Node1001&#45;&gt;Node996 -->
<g id="edge15" class="edge">
<title>Node1001&#45;&gt;Node996</title>
<path fill="none" stroke="#191970" d="M923.1955,-149.2125C942.9584,-153.8502 964.7969,-158.975 984.608,-163.624"/>
<polygon fill="#191970" stroke="#191970" points="983.9206,-167.0577 994.4558,-165.935 985.5199,-160.2428 983.9206,-167.0577"/>
</g>
<!-- Node1002 -->
<g id="node14" class="node">
<title>Node1002</title>
<g id="a_node14"><a xlink:href="../../d8/d26/classcdev_1_1_c_dev.html#ae676cccee31dd393ab681414a146d868" target="_top" xlink:title="Take the driver lock. ">
<polygon fill="#ffffff" stroke="#000000" points="1001.5,-76 1001.5,-95 1094.5,-95 1094.5,-76 1001.5,-76"/>
<text text-anchor="middle" x="1048" y="-83" font-family="Helvetica,sans-Serif" font-size="10.00" fill="#000000">cdev::CDev::lock</text>
</a>
</g>
</g>
<!-- Node1001&#45;&gt;Node1002 -->
<g id="edge14" class="edge">
<title>Node1001&#45;&gt;Node1002</title>
<path fill="none" stroke="#191970" d="M915.744,-119.427C933.6714,-114.5917 953.6638,-109.2584 972,-104.5 980.8942,-102.1919 990.3873,-99.7787 999.5437,-97.4766"/>
<polygon fill="#191970" stroke="#191970" points="1000.4528,-100.8571 1009.3029,-95.0325 998.7522,-94.0668 1000.4528,-100.8571"/>
</g>
<!-- Node1003 -->
<g id="node15" class="node">
<title>Node1003</title>
<g id="a_node15"><a xlink:href="../../d8/d26/classcdev_1_1_c_dev.html#af65273e0578b277deea057dc7d558e9d" target="_top" xlink:title="Release the driver lock. ">
<polygon fill="#ffffff" stroke="#000000" points="996,-38 996,-57 1100,-57 1100,-38 996,-38"/>
<text text-anchor="middle" x="1048" y="-45" font-family="Helvetica,sans-Serif" font-size="10.00" fill="#000000">cdev::CDev::unlock</text>
</a>
</g>
</g>
<!-- Node1001&#45;&gt;Node1003 -->
<g id="edge16" class="edge">
<title>Node1001&#45;&gt;Node1003</title>
<path fill="none" stroke="#191970" d="M917.7838,-119.3549C924.1837,-116.5647 930.4037,-113.3021 936,-109.5 956.6165,-95.4931 950.8743,-79.7264 972,-66.5 976.4255,-63.7293 981.2329,-61.3623 986.208,-59.3402"/>
<polygon fill="#191970" stroke="#191970" points="987.6907,-62.527 995.926,-55.8614 985.3315,-55.9365 987.6907,-62.527"/>
</g>
<!-- Node1004 -->
<g id="node16" class="node">
<title>Node1004</title>
<g id="a_node16"><a xlink:href="../../d9/d8a/classu_o_r_b_communicator_1_1_i_channel.html#a2fdcab300f1c9ccf8c43858493ca9358" target="_top" xlink:title="Interface to notify the remote entity of a topic being unadvertised and is no longer publishing messa...">
<polygon fill="#ffffff" stroke="#000000" points="972,-114.5 972,-144.5 1124,-144.5 1124,-114.5 972,-114.5"/>
<text text-anchor="start" x="980" y="-132.5" font-family="Helvetica,sans-Serif" font-size="10.00" fill="#000000">uORBCommunicator::IChannel</text>
<text text-anchor="middle" x="1048" y="-121.5" font-family="Helvetica,sans-Serif" font-size="10.00" fill="#000000">::add_subscription</text>
</a>
</g>
</g>
<!-- Node1001&#45;&gt;Node1004 -->
<g id="edge17" class="edge">
<title>Node1001&#45;&gt;Node1004</title>
<path fill="none" stroke="#191970" d="M923.1955,-132.8281C935.46,-132.5011 948.5239,-132.1527 961.4066,-131.8092"/>
<polygon fill="#191970" stroke="#191970" points="961.7775,-135.3006 971.6806,-131.5352 961.5908,-128.3031 961.7775,-135.3006"/>
</g>
<!-- Node1008 -->
<g id="node20" class="node">
<title>Node1008</title>
<g id="a_node20"><a xlink:href="../../d0/d18/classu_o_r_b_1_1_device_node.html#a78fb27934bdfd069855885da1be4bb5f" target="_top" xlink:title="Copies data and the corresponding generation from a node to the buffer provided. ">
<polygon fill="#ffffff" stroke="#000000" points="478,-288.5 478,-318.5 609,-318.5 609,-288.5 478,-288.5"/>
<text text-anchor="start" x="486" y="-306.5" font-family="Helvetica,sans-Serif" font-size="10.00" fill="#000000">uORB::DeviceNode::copy</text>
<text text-anchor="middle" x="543.5" y="-295.5" font-family="Helvetica,sans-Serif" font-size="10.00" fill="#000000">_locked</text>
</a>
</g>
</g>
<!-- Node1007&#45;&gt;Node1008 -->
<g id="edge21" class="edge">
<title>Node1007&#45;&gt;Node1008</title>
<path fill="none" stroke="#191970" d="M442.0235,-294.993C450.496,-295.7033 459.2278,-296.4353 467.8471,-297.1578"/>
<polygon fill="#191970" stroke="#191970" points="467.6339,-300.6522 477.8913,-297.9999 468.2187,-293.6766 467.6339,-300.6522"/>
</g>
<!-- Node1011 -->
<g id="node23" class="node">
<title>Node1011</title>
<g id="a_node23"><a xlink:href="../../df/d1f/class_mavlink.html#acb4aa1dcf0ecb45f9849b050d73241a8" target="_top" xlink:title="Mavlink::get_system_type">
<polygon fill="#ffffff" stroke="#000000" points="311,-143 311,-162 442,-162 442,-143 311,-143"/>
<text text-anchor="middle" x="376.5" y="-150" font-family="Helvetica,sans-Serif" font-size="10.00" fill="#000000">Mavlink::get_system_type</text>
</a>
</g>
</g>
<!-- Node1010&#45;&gt;Node1011 -->
<g id="edge24" class="edge">
<title>Node1010&#45;&gt;Node1011</title>
<path fill="none" stroke="#191970" d="M270.0032,-152.5C279.7724,-152.5 290.1587,-152.5 300.4672,-152.5"/>
<polygon fill="#191970" stroke="#191970" points="300.724,-156.0001 310.724,-152.5 300.7239,-149.0001 300.724,-156.0001"/>
</g>
</g>
</svg>
