<?xml version="1.0" encoding="UTF-8" standalone="no"?>
<!DOCTYPE svg PUBLIC "-//W3C//DTD SVG 1.1//EN"
 "http://www.w3.org/Graphics/SVG/1.1/DTD/svg11.dtd">
<!-- Generated by graphviz version 2.38.0 (20140413.2041)
 -->
<!-- Title: src/drivers/boards/px4cannode&#45;v1/spi.c Pages: 1 -->
<!--zoomable 207 -->
<svg id="main" version="1.1" xmlns="http://www.w3.org/2000/svg" xmlns:xlink="http://www.w3.org/1999/xlink" xml:space="preserve" onload="init(evt)">
<style type="text/css"><![CDATA[
.edge:hover path { stroke: red; }
.edge:hover polygon { stroke: red; fill: red; }
]]></style>
<script type="text/javascript"><![CDATA[
var edges = document.getElementsByTagName('g');
if (edges && edges.length) {
  for (var i=0;i<edges.length;i++) {
    if (edges[i].id.substr(0,4)=='edge') {
      edges[i].setAttribute('class','edge');
    }
  }
}
]]></script>
        <defs>
                <circle id="rim" cx="0" cy="0" r="7"/>
                <circle id="rim2" cx="0" cy="0" r="3.5"/>
                <g id="zoomPlus">
                        <use xlink:href="#rim" fill="#404040">
                                <set attributeName="fill" to="#808080" begin="zoomplus.mouseover" end="zoomplus.mouseout"/>
                        </use>
                        <path d="M-4,0h8M0,-4v8" fill="none" stroke="white" stroke-width="1.5" pointer-events="none"/>
                </g>
                <g id="zoomMin">
                        <use xlink:href="#rim" fill="#404040">
                                <set attributeName="fill" to="#808080" begin="zoomminus.mouseover" end="zoomminus.mouseout"/>
                        </use>
                        <path d="M-4,0h8" fill="none" stroke="white" stroke-width="1.5" pointer-events="none"/>
                </g>
                <g id="dirArrow">
                        <path fill="none" stroke="white" stroke-width="1.5" d="M0,-3.0v7 M-2.5,-0.5L0,-3.0L2.5,-0.5"/>
                </g>
               <g id="resetDef">
                       <use xlink:href="#rim2" fill="#404040">
                               <set attributeName="fill" to="#808080" begin="reset.mouseover" end="reset.mouseout"/>
                       </use>
               </g>
        </defs>

<script type="text/javascript">
var viewWidth = 1013;
var viewHeight = 207;
var sectionId = 'dynsection-0';
</script>
<script xlink:href="../../svgpan.js"/>
<svg id="graph" class="graph">
<g id="viewport">
<title>src/drivers/boards/px4cannode&#45;v1/spi.c</title>
<polygon fill="white" stroke="none" points="-4,4 -4,-203 1009.34,-203 1009.34,4 -4,4"/>
<!-- Node1 -->
<g id="node1" class="node"><title>Node1</title>
<polygon fill="#bfbfbf" stroke="black" points="488.339,-168.5 488.339,-198.5 598.339,-198.5 598.339,-168.5 488.339,-168.5"/>
<text text-anchor="start" x="496.339" y="-186.5" font-family="Helvetica,sans-Serif" font-size="10.00">src/drivers/boards</text>
<text text-anchor="middle" x="543.339" y="-175.5" font-family="Helvetica,sans-Serif" font-size="10.00">/px4cannode&#45;v1/spi.c</text>
</g>
<!-- Node2 -->
<g id="node2" class="node"><title>Node2</title>
<g id="a_node2"><a xlink:href="../../d4/d35/px4__config_8h.html" target="_top" xlink:title="Configuration flags used in code. ">
<polygon fill="white" stroke="black" points="13.3394,-56.5 13.3394,-75.5 85.3394,-75.5 85.3394,-56.5 13.3394,-56.5"/>
<text text-anchor="middle" x="49.3394" y="-63.5" font-family="Helvetica,sans-Serif" font-size="10.00">px4_config.h</text>
</a>
</g>
</g>
<!-- Node1&#45;&gt;Node2 -->
<g id="edge1" class="edge"><title>Node1&#45;&gt;Node2</title>
<path fill="none" stroke="midnightblue" d="M488.043,-181.761C412.712,-179.284 274.491,-169.472 163.339,-132 128.014,-120.091 91.2742,-96.8514 69.359,-81.6304"/>
<polygon fill="midnightblue" stroke="midnightblue" points="71.1052,-78.5782 60.9217,-75.6545 67.0592,-84.2905 71.1052,-78.5782"/>
</g>
<!-- Node3 -->
<g id="node3" class="node"><title>Node3</title>
<polygon fill="white" stroke="#bfbfbf" points="84.8394,-0.5 84.8394,-19.5 133.839,-19.5 133.839,-0.5 84.8394,-0.5"/>
<text text-anchor="middle" x="109.339" y="-7.5" font-family="Helvetica,sans-Serif" font-size="10.00">stdint.h</text>
</g>
<!-- Node1&#45;&gt;Node3 -->
<g id="edge2" class="edge"><title>Node1&#45;&gt;Node3</title>
<path fill="none" stroke="midnightblue" d="M488.289,-181.21C361.36,-176.844 55.1332,-157.861 4.33939,-76 -14.7753,-45.1941 37.1772,-26.7246 74.6499,-17.7353"/>
<polygon fill="midnightblue" stroke="midnightblue" points="75.782,-21.0678 84.7641,-15.4489 74.2385,-14.2401 75.782,-21.0678"/>
</g>
<!-- Node4 -->
<g id="node4" class="node"><title>Node4</title>
<polygon fill="white" stroke="#bfbfbf" points="443.339,-112.5 443.339,-131.5 499.339,-131.5 499.339,-112.5 443.339,-112.5"/>
<text text-anchor="middle" x="471.339" y="-119.5" font-family="Helvetica,sans-Serif" font-size="10.00">stdbool.h</text>
</g>
<!-- Node1&#45;&gt;Node4 -->
<g id="edge3" class="edge"><title>Node1&#45;&gt;Node4</title>
<path fill="none" stroke="midnightblue" d="M526.276,-168.399C515.275,-159.308 500.974,-147.49 489.722,-138.191"/>
<polygon fill="midnightblue" stroke="midnightblue" points="491.754,-135.33 481.816,-131.658 487.295,-140.726 491.754,-135.33"/>
</g>
<!-- Node5 -->
<g id="node5" class="node"><title>Node5</title>
<polygon fill="white" stroke="#bfbfbf" points="346.839,-0.5 346.839,-19.5 393.839,-19.5 393.839,-0.5 346.839,-0.5"/>
<text text-anchor="middle" x="370.339" y="-7.5" font-family="Helvetica,sans-Serif" font-size="10.00">errno.h</text>
</g>
<!-- Node1&#45;&gt;Node5 -->
<g id="edge4" class="edge"><title>Node1&#45;&gt;Node5</title>
<path fill="none" stroke="midnightblue" d="M495.681,-168.409C474.881,-160.385 451.4,-148.56 434.339,-132 407.241,-105.697 414.238,-89.2536 396.339,-56 391.36,-46.7491 385.531,-36.6041 380.656,-28.2921"/>
<polygon fill="midnightblue" stroke="midnightblue" points="383.583,-26.3651 375.479,-19.54 377.558,-29.9289 383.583,-26.3651"/>
</g>
<!-- Node6 -->
<g id="node6" class="node"><title>Node6</title>
<polygon fill="white" stroke="#bfbfbf" points="517.839,-112.5 517.839,-131.5 568.839,-131.5 568.839,-112.5 517.839,-112.5"/>
<text text-anchor="middle" x="543.339" y="-119.5" font-family="Helvetica,sans-Serif" font-size="10.00">debug.h</text>
</g>
<!-- Node1&#45;&gt;Node6 -->
<g id="edge5" class="edge"><title>Node1&#45;&gt;Node6</title>
<path fill="none" stroke="midnightblue" d="M543.339,-168.399C543.339,-160.466 543.339,-150.458 543.339,-141.858"/>
<polygon fill="midnightblue" stroke="midnightblue" points="546.839,-141.658 543.339,-131.658 539.839,-141.658 546.839,-141.658"/>
</g>
<!-- Node7 -->
<g id="node7" class="node"><title>Node7</title>
<polygon fill="white" stroke="#bfbfbf" points="587.339,-112.5 587.339,-131.5 665.339,-131.5 665.339,-112.5 587.339,-112.5"/>
<text text-anchor="middle" x="626.339" y="-119.5" font-family="Helvetica,sans-Serif" font-size="10.00">nuttx/spi/spi.h</text>
</g>
<!-- Node1&#45;&gt;Node7 -->
<g id="edge6" class="edge"><title>Node1&#45;&gt;Node7</title>
<path fill="none" stroke="midnightblue" d="M563.009,-168.399C575.94,-159.129 592.825,-147.025 605.908,-137.647"/>
<polygon fill="midnightblue" stroke="midnightblue" points="608.174,-140.329 614.262,-131.658 604.096,-134.639 608.174,-140.329"/>
</g>
<!-- Node8 -->
<g id="node8" class="node"><title>Node8</title>
<polygon fill="white" stroke="#bfbfbf" points="683.339,-112.5 683.339,-131.5 781.339,-131.5 781.339,-112.5 683.339,-112.5"/>
<text text-anchor="middle" x="732.339" y="-119.5" font-family="Helvetica,sans-Serif" font-size="10.00">arch/board/board.h</text>
</g>
<!-- Node1&#45;&gt;Node8 -->
<g id="edge7" class="edge"><title>Node1&#45;&gt;Node8</title>
<path fill="none" stroke="midnightblue" d="M588.13,-168.399C620.788,-158.118 664.52,-144.351 695.232,-134.682"/>
<polygon fill="midnightblue" stroke="midnightblue" points="696.627,-137.912 705.114,-131.571 694.525,-131.235 696.627,-137.912"/>
</g>
<!-- Node9 -->
<g id="node9" class="node"><title>Node9</title>
<polygon fill="white" stroke="#bfbfbf" points="799.339,-112.5 799.339,-131.5 873.339,-131.5 873.339,-112.5 799.339,-112.5"/>
<text text-anchor="middle" x="836.339" y="-119.5" font-family="Helvetica,sans-Serif" font-size="10.00">nuttx/board.h</text>
</g>
<!-- Node1&#45;&gt;Node9 -->
<g id="edge8" class="edge"><title>Node1&#45;&gt;Node9</title>
<path fill="none" stroke="midnightblue" d="M598.45,-171.309C653.466,-160.136 737.11,-143.151 789.154,-132.582"/>
<polygon fill="midnightblue" stroke="midnightblue" points="790.02,-135.978 799.124,-130.557 788.627,-129.118 790.02,-135.978"/>
</g>
<!-- Node10 -->
<g id="node10" class="node"><title>Node10</title>
<polygon fill="white" stroke="#bfbfbf" points="891.839,-112.5 891.839,-131.5 934.839,-131.5 934.839,-112.5 891.839,-112.5"/>
<text text-anchor="middle" x="913.339" y="-119.5" font-family="Helvetica,sans-Serif" font-size="10.00">chip.h</text>
</g>
<!-- Node1&#45;&gt;Node10 -->
<g id="edge9" class="edge"><title>Node1&#45;&gt;Node10</title>
<path fill="none" stroke="midnightblue" d="M598.356,-176.614C663.722,-169.107 776.16,-154.58 881.875,-131.825"/>
<polygon fill="midnightblue" stroke="midnightblue" points="882.73,-135.22 891.754,-129.669 881.238,-128.381 882.73,-135.22"/>
</g>
<!-- Node11 -->
<g id="node11" class="node"><title>Node11</title>
<polygon fill="white" stroke="#bfbfbf" points="953.339,-112.5 953.339,-131.5 1005.34,-131.5 1005.34,-112.5 953.339,-112.5"/>
<text text-anchor="middle" x="979.339" y="-119.5" font-family="Helvetica,sans-Serif" font-size="10.00">stm32.h</text>
</g>
<!-- Node1&#45;&gt;Node11 -->
<g id="edge10" class="edge"><title>Node1&#45;&gt;Node11</title>
<path fill="none" stroke="midnightblue" d="M598.493,-177.78C674.149,-170.814 814.47,-156.139 943.024,-132.043"/>
<polygon fill="midnightblue" stroke="midnightblue" points="943.875,-135.445 953.047,-130.141 942.569,-128.567 943.875,-135.445"/>
</g>
<!-- Node12 -->
<g id="node12" class="node"><title>Node12</title>
<g id="a_node12"><a xlink:href="../../d5/d3f/px4cannode-v1_2board__config_8h.html" target="_top" xlink:title="board_config.h">
<polygon fill="white" stroke="black" points="172.339,-112.5 172.339,-131.5 252.339,-131.5 252.339,-112.5 172.339,-112.5"/>
<text text-anchor="middle" x="212.339" y="-119.5" font-family="Helvetica,sans-Serif" font-size="10.00">board_config.h</text>
</a>
</g>
</g>
<!-- Node1&#45;&gt;Node12 -->
<g id="edge11" class="edge"><title>Node1&#45;&gt;Node12</title>
<path fill="none" stroke="midnightblue" d="M488.31,-172.608C425.403,-161.3 323.306,-142.947 262.507,-132.018"/>
<polygon fill="midnightblue" stroke="midnightblue" points="262.847,-128.523 252.385,-130.199 261.608,-135.413 262.847,-128.523"/>
</g>
<!-- Node12&#45;&gt;Node2 -->
<g id="edge12" class="edge"><title>Node12&#45;&gt;Node2</title>
<path fill="none" stroke="midnightblue" d="M186.512,-112.444C159.09,-103.359 115.562,-88.9388 84.907,-78.7831"/>
<polygon fill="midnightblue" stroke="midnightblue" points="85.6397,-75.3389 75.0464,-75.5164 83.4383,-81.9837 85.6397,-75.3389"/>
</g>
<!-- Node12&#45;&gt;Node3 -->
<g id="edge14" class="edge"><title>Node12&#45;&gt;Node3</title>
<path fill="none" stroke="midnightblue" d="M187.54,-112.479C169.925,-105.269 146.904,-93.3179 132.339,-76 121.153,-62.6991 115.257,-43.5781 112.249,-29.5168"/>
<polygon fill="midnightblue" stroke="midnightblue" points="115.664,-28.7329 110.41,-19.5325 108.78,-30.0012 115.664,-28.7329"/>
</g>
<!-- Node13 -->
<g id="node13" class="node"><title>Node13</title>
<polygon fill="white" stroke="#bfbfbf" points="301.339,-56.5 301.339,-75.5 387.339,-75.5 387.339,-56.5 301.339,-56.5"/>
<text text-anchor="middle" x="344.339" y="-63.5" font-family="Helvetica,sans-Serif" font-size="10.00">nuttx/compiler.h</text>
</g>
<!-- Node12&#45;&gt;Node13 -->
<g id="edge13" class="edge"><title>Node12&#45;&gt;Node13</title>
<path fill="none" stroke="midnightblue" d="M233.255,-112.444C255.075,-103.517 289.489,-89.4387 314.232,-79.3168"/>
<polygon fill="midnightblue" stroke="midnightblue" points="315.591,-82.5422 323.521,-75.5164 312.941,-76.0634 315.591,-82.5422"/>
</g>
<!-- Node14 -->
<g id="node14" class="node"><title>Node14</title>
<g id="a_node14"><a xlink:href="../../d6/df6/board__common_8h.html" target="_top" xlink:title="Provide the the common board interfaces. ">
<polygon fill="white" stroke="black" points="141.839,-56.5 141.839,-75.5 282.839,-75.5 282.839,-56.5 141.839,-56.5"/>
<text text-anchor="middle" x="212.339" y="-63.5" font-family="Helvetica,sans-Serif" font-size="10.00">../common/board_common.h</text>
</a>
</g>
</g>
<!-- Node12&#45;&gt;Node14 -->
<g id="edge15" class="edge"><title>Node12&#45;&gt;Node14</title>
<path fill="none" stroke="midnightblue" d="M212.339,-112.083C212.339,-105.006 212.339,-94.8611 212.339,-85.9865"/>
<polygon fill="midnightblue" stroke="midnightblue" points="215.839,-85.751 212.339,-75.7511 208.839,-85.7511 215.839,-85.751"/>
</g>
<!-- Node14&#45;&gt;Node3 -->
<g id="edge17" class="edge"><title>Node14&#45;&gt;Node3</title>
<path fill="none" stroke="midnightblue" d="M195.791,-56.324C179.348,-47.7034 153.905,-34.3643 134.871,-24.3855"/>
<polygon fill="midnightblue" stroke="midnightblue" points="136.329,-21.198 125.847,-19.6545 133.079,-27.3977 136.329,-21.198"/>
</g>
<!-- Node14&#45;&gt;Node5 -->
<g id="edge16" class="edge"><title>Node14&#45;&gt;Node5</title>
<path fill="none" stroke="midnightblue" d="M237.375,-56.4435C264.346,-47.2255 307.393,-32.5135 337.166,-22.3379"/>
<polygon fill="midnightblue" stroke="midnightblue" points="338.381,-25.6215 346.711,-19.0755 336.117,-18.9977 338.381,-25.6215"/>
</g>
<!-- Node15 -->
<g id="node15" class="node"><title>Node15</title>
<g id="a_node15"><a xlink:href="../../d1/df9/board__internal__common_8h.html" target="_top" xlink:title="Provide the internal common board interfaces that should only be used in the board source...">
<polygon fill="white" stroke="black" points="152.339,-0.5 152.339,-19.5 280.339,-19.5 280.339,-0.5 152.339,-0.5"/>
<text text-anchor="middle" x="216.339" y="-7.5" font-family="Helvetica,sans-Serif" font-size="10.00">board_internal_common.h</text>
</a>
</g>
</g>
<!-- Node14&#45;&gt;Node15 -->
<g id="edge18" class="edge"><title>Node14&#45;&gt;Node15</title>
<path fill="none" stroke="midnightblue" d="M213,-56.083C213.524,-49.0059 214.276,-38.8611 214.933,-29.9865"/>
<polygon fill="midnightblue" stroke="midnightblue" points="218.443,-29.9823 215.691,-19.7511 211.462,-29.4652 218.443,-29.9823"/>
</g>
</g>
</svg>
        <g id="navigator" transform="translate(0 0)" fill="#404254">
                <rect fill="#f2f5e9" fill-opacity="0.5" stroke="#606060" stroke-width=".5" x="0" y="0" width="60" height="60"/>
                <use id="zoomplus" xlink:href="#zoomPlus" x="17" y="9" onmousedown="handleZoom(evt,'in')"/>
                <use id="zoomminus" xlink:href="#zoomMin" x="42" y="9" onmousedown="handleZoom(evt,'out')"/>
                <use id="reset" xlink:href="#resetDef" x="30" y="36" onmousedown="handleReset()"/>
                <g id="arrowUp" xlink:href="#dirArrow" transform="translate(30 24)" onmousedown="handlePan(0,-1)">
                  <use xlink:href="#rim" fill="#404040">
                        <set attributeName="fill" to="#808080" begin="arrowUp.mouseover" end="arrowUp.mouseout"/>
                  </use>
                  <path fill="none" stroke="white" stroke-width="1.5" d="M0,-3.0v7 M-2.5,-0.5L0,-3.0L2.5,-0.5"/>
                </g>
                <g id="arrowRight" xlink:href="#dirArrow" transform="rotate(90) translate(36 -43)" onmousedown="handlePan(1,0)">
                  <use xlink:href="#rim" fill="#404040">
                        <set attributeName="fill" to="#808080" begin="arrowRight.mouseover" end="arrowRight.mouseout"/>
                  </use>
                  <path fill="none" stroke="white" stroke-width="1.5" d="M0,-3.0v7 M-2.5,-0.5L0,-3.0L2.5,-0.5"/>
                </g>
                <g id="arrowDown" xlink:href="#dirArrow" transform="rotate(180) translate(-30 -48)" onmousedown="handlePan(0,1)">
                  <use xlink:href="#rim" fill="#404040">
                        <set attributeName="fill" to="#808080" begin="arrowDown.mouseover" end="arrowDown.mouseout"/>
                  </use>
                  <path fill="none" stroke="white" stroke-width="1.5" d="M0,-3.0v7 M-2.5,-0.5L0,-3.0L2.5,-0.5"/>
                </g>
                <g id="arrowLeft" xlink:href="#dirArrow" transform="rotate(270) translate(-36 17)" onmousedown="handlePan(-1,0)">
                  <use xlink:href="#rim" fill="#404040">
                        <set attributeName="fill" to="#808080" begin="arrowLeft.mouseover" end="arrowLeft.mouseout"/>
                  </use>
                  <path fill="none" stroke="white" stroke-width="1.5" d="M0,-3.0v7 M-2.5,-0.5L0,-3.0L2.5,-0.5"/>
                </g>
        </g>
        <svg viewBox="0 0 15 15" width="100%" height="30px" preserveAspectRatio="xMaxYMin meet">
         <g id="arrow_out" transform="scale(0.3 0.3)">
          <a xlink:href="px4cannode-v1_2spi_8c__incl_org.svg" target="_base">
           <rect id="button" ry="5" rx="5" y="6" x="6" height="38" width="38"
                fill="#f2f5e9" fill-opacity="0.5" stroke="#606060" stroke-width="1.0"/>
           <path id="arrow"
             d="M 11.500037,31.436501 C 11.940474,20.09759 22.043105,11.32322 32.158766,21.979434 L 37.068811,17.246167 C 37.068811,17.246167 37.088388,32 37.088388,32 L 22.160133,31.978069 C 22.160133,31.978069 26.997745,27.140456 26.997745,27.140456 C 18.528582,18.264221 13.291696,25.230495 11.500037,31.436501 z"
             style="fill:#404040;"/>
          </a>
         </g>
        </svg>
</svg>
