<?xml version="1.0" encoding="UTF-8" standalone="no"?>
<!DOCTYPE svg PUBLIC "-//W3C//DTD SVG 1.1//EN"
 "http://www.w3.org/Graphics/SVG/1.1/DTD/svg11.dtd">
<!-- Generated by graphviz version 2.38.0 (20140413.2041)
 -->
<!-- Title: IridiumSBD::clear_mo_buffer Pages: 1 -->
<svg width="690pt" height="252pt"
 viewBox="0.00 0.00 690.00 251.50" xmlns="http://www.w3.org/2000/svg" xmlns:xlink="http://www.w3.org/1999/xlink">
<g id="graph0" class="graph" transform="scale(1 1) rotate(0) translate(4 247.5)">
<title>IridiumSBD::clear_mo_buffer</title>
<polygon fill="white" stroke="none" points="-4,4 -4,-247.5 686,-247.5 686,4 -4,4"/>
<!-- Node1 -->
<g id="node1" class="node"><title>Node1</title>
<polygon fill="#bfbfbf" stroke="black" points="0,-55 0,-85 113,-85 113,-55 0,-55"/>
<text text-anchor="start" x="8" y="-73" font-family="Helvetica,sans-Serif" font-size="10.00">IridiumSBD::clear_mo</text>
<text text-anchor="middle" x="56.5" y="-62" font-family="Helvetica,sans-Serif" font-size="10.00">_buffer</text>
</g>
<!-- Node2 -->
<g id="node2" class="node"><title>Node2</title>
<g id="a_node2"><a xlink:href="../../d9/d04/class_iridium_s_b_d.html#abf5bc1e986efa858f207cb7c9cb651f2" target="_top" xlink:title="IridiumSBD::read_at\l_command">
<polygon fill="white" stroke="black" points="150,-77 150,-107 255,-107 255,-77 150,-77"/>
<text text-anchor="start" x="158" y="-95" font-family="Helvetica,sans-Serif" font-size="10.00">IridiumSBD::read_at</text>
<text text-anchor="middle" x="202.5" y="-84" font-family="Helvetica,sans-Serif" font-size="10.00">_command</text>
</a>
</g>
</g>
<!-- Node1&#45;&gt;Node2 -->
<g id="edge1" class="edge"><title>Node1&#45;&gt;Node2</title>
<path fill="none" stroke="midnightblue" d="M113.174,-78.5058C121.915,-79.8411 130.994,-81.2282 139.859,-82.5826"/>
<polygon fill="midnightblue" stroke="midnightblue" points="139.334,-86.0429 149.748,-84.0934 140.391,-79.1232 139.334,-86.0429"/>
</g>
<!-- Node11 -->
<g id="node11" class="node"><title>Node11</title>
<g id="a_node11"><a xlink:href="../../d9/d04/class_iridium_s_b_d.html#a072a63e324ee9d7f531a4cc9b83949f9" target="_top" xlink:title="IridiumSBD::write_at">
<polygon fill="white" stroke="black" points="149,-38.5 149,-57.5 256,-57.5 256,-38.5 149,-38.5"/>
<text text-anchor="middle" x="202.5" y="-45.5" font-family="Helvetica,sans-Serif" font-size="10.00">IridiumSBD::write_at</text>
</a>
</g>
</g>
<!-- Node1&#45;&gt;Node11 -->
<g id="edge10" class="edge"><title>Node1&#45;&gt;Node11</title>
<path fill="none" stroke="midnightblue" d="M113.174,-61.4942C121.593,-60.208 130.326,-58.8738 138.88,-57.567"/>
<polygon fill="midnightblue" stroke="midnightblue" points="139.452,-61.0202 148.809,-56.05 138.395,-54.1005 139.452,-61.0202"/>
</g>
<!-- Node3 -->
<g id="node3" class="node"><title>Node3</title>
<g id="a_node3"><a xlink:href="../../d9/d04/class_iridium_s_b_d.html#a9bf6a2383544e478ea80f23b7342c3eb" target="_top" xlink:title="IridiumSBD::read_at">
<polygon fill="white" stroke="black" points="292,-82.5 292,-101.5 397,-101.5 397,-82.5 292,-82.5"/>
<text text-anchor="middle" x="344.5" y="-89.5" font-family="Helvetica,sans-Serif" font-size="10.00">IridiumSBD::read_at</text>
</a>
</g>
</g>
<!-- Node2&#45;&gt;Node3 -->
<g id="edge2" class="edge"><title>Node2&#45;&gt;Node3</title>
<path fill="none" stroke="midnightblue" d="M255.233,-92C263.855,-92 272.874,-92 281.716,-92"/>
<polygon fill="midnightblue" stroke="midnightblue" points="281.98,-95.5001 291.98,-92 281.98,-88.5001 281.98,-95.5001"/>
</g>
<!-- Node4 -->
<g id="node4" class="node"><title>Node4</title>
<g id="a_node4"><a xlink:href="../../db/dcf/classdevice_1_1_c_dev.html#a4e87079d3480b1d29fecc06314bb4c36" target="_top" xlink:title="Perform a poll setup/teardown operation. ">
<polygon fill="white" stroke="black" points="433,-144.5 433,-163.5 531,-163.5 531,-144.5 433,-144.5"/>
<text text-anchor="middle" x="482" y="-151.5" font-family="Helvetica,sans-Serif" font-size="10.00">device::CDev::poll</text>
</a>
</g>
</g>
<!-- Node3&#45;&gt;Node4 -->
<g id="edge3" class="edge"><title>Node3&#45;&gt;Node4</title>
<path fill="none" stroke="midnightblue" d="M366.375,-101.552C388.888,-111.853 424.944,-128.351 450.603,-140.091"/>
<polygon fill="midnightblue" stroke="midnightblue" points="449.329,-143.357 459.878,-144.335 452.241,-136.992 449.329,-143.357"/>
</g>
<!-- Node8 -->
<g id="node8" class="node"><title>Node8</title>
<g id="a_node8"><a xlink:href="../../d9/d04/class_iridium_s_b_d.html#a428f0761b398ad33b8321315a46e1eae" target="_top" xlink:title="IridiumSBD::read">
<polygon fill="white" stroke="black" points="436,-76.5 436,-95.5 528,-95.5 528,-76.5 436,-76.5"/>
<text text-anchor="middle" x="482" y="-83.5" font-family="Helvetica,sans-Serif" font-size="10.00">IridiumSBD::read</text>
</a>
</g>
</g>
<!-- Node3&#45;&gt;Node8 -->
<g id="edge7" class="edge"><title>Node3&#45;&gt;Node8</title>
<path fill="none" stroke="midnightblue" d="M397.113,-89.7145C406.45,-89.3011 416.221,-88.8684 425.66,-88.4505"/>
<polygon fill="midnightblue" stroke="midnightblue" points="425.899,-91.9434 435.735,-88.0044 425.59,-84.9503 425.899,-91.9434"/>
</g>
<!-- Node5 -->
<g id="node5" class="node"><title>Node5</title>
<g id="a_node5"><a xlink:href="../../db/dcf/classdevice_1_1_c_dev.html#a63c9bb78722c6d0be5dc52cf9cc6bb52" target="_top" xlink:title="Store a pollwaiter in a slot where we can find it later. ">
<polygon fill="white" stroke="black" points="572.5,-213 572.5,-243 676.5,-243 676.5,-213 572.5,-213"/>
<text text-anchor="start" x="580.5" y="-231" font-family="Helvetica,sans-Serif" font-size="10.00">device::CDev::store</text>
<text text-anchor="middle" x="624.5" y="-220" font-family="Helvetica,sans-Serif" font-size="10.00">_poll_waiter</text>
</a>
</g>
</g>
<!-- Node4&#45;&gt;Node5 -->
<g id="edge4" class="edge"><title>Node4&#45;&gt;Node5</title>
<path fill="none" stroke="midnightblue" d="M497.829,-163.661C514.349,-174.225 542.025,-191.336 567,-204 570.137,-205.591 573.404,-207.17 576.715,-208.714"/>
<polygon fill="midnightblue" stroke="midnightblue" points="575.54,-212.024 586.094,-212.955 578.424,-205.646 575.54,-212.024"/>
</g>
<!-- Node6 -->
<g id="node6" class="node"><title>Node6</title>
<g id="a_node6"><a xlink:href="../../db/dcf/classdevice_1_1_c_dev.html#a45d9c9e0630344d2d71002e015ddebab" target="_top" xlink:title="Check the current state of the device for poll events from the perspective of the file...">
<polygon fill="white" stroke="black" points="575.5,-164 575.5,-194 673.5,-194 673.5,-164 575.5,-164"/>
<text text-anchor="start" x="583.5" y="-182" font-family="Helvetica,sans-Serif" font-size="10.00">device::CDev::poll</text>
<text text-anchor="middle" x="624.5" y="-171" font-family="Helvetica,sans-Serif" font-size="10.00">_state</text>
</a>
</g>
</g>
<!-- Node4&#45;&gt;Node6 -->
<g id="edge5" class="edge"><title>Node4&#45;&gt;Node6</title>
<path fill="none" stroke="midnightblue" d="M531.352,-162.604C542.17,-164.528 553.757,-166.59 564.938,-168.58"/>
<polygon fill="midnightblue" stroke="midnightblue" points="564.6,-172.075 575.059,-170.381 565.827,-165.183 564.6,-172.075"/>
</g>
<!-- Node7 -->
<g id="node7" class="node"><title>Node7</title>
<g id="a_node7"><a xlink:href="../../db/dcf/classdevice_1_1_c_dev.html#ab16e9c91aca41e5c7067f0d978ceee2a" target="_top" xlink:title="Remove a poll waiter. ">
<polygon fill="white" stroke="black" points="567,-115 567,-145 682,-145 682,-115 567,-115"/>
<text text-anchor="start" x="575" y="-133" font-family="Helvetica,sans-Serif" font-size="10.00">device::CDev::remove</text>
<text text-anchor="middle" x="624.5" y="-122" font-family="Helvetica,sans-Serif" font-size="10.00">_poll_waiter</text>
</a>
</g>
</g>
<!-- Node4&#45;&gt;Node7 -->
<g id="edge6" class="edge"><title>Node4&#45;&gt;Node7</title>
<path fill="none" stroke="midnightblue" d="M531.352,-145.741C539.568,-144.337 548.227,-142.858 556.816,-141.391"/>
<polygon fill="midnightblue" stroke="midnightblue" points="557.566,-144.813 566.834,-139.68 556.388,-137.913 557.566,-144.813"/>
</g>
<!-- Node9 -->
<g id="node9" class="node"><title>Node9</title>
<g id="a_node9"><a xlink:href="../../d6/dfb/stubs__posix_8c.html#a12809c44718c21544ceb280dc1a53573" target="_top" xlink:title="pthread_mutex_lock">
<polygon fill="white" stroke="black" points="572.5,-38.5 572.5,-57.5 676.5,-57.5 676.5,-38.5 572.5,-38.5"/>
<text text-anchor="middle" x="624.5" y="-45.5" font-family="Helvetica,sans-Serif" font-size="10.00">pthread_mutex_lock</text>
</a>
</g>
</g>
<!-- Node8&#45;&gt;Node9 -->
<g id="edge8" class="edge"><title>Node8&#45;&gt;Node9</title>
<path fill="none" stroke="midnightblue" d="M518.454,-76.411C536.591,-71.5056 558.868,-65.4804 578.233,-60.2429"/>
<polygon fill="midnightblue" stroke="midnightblue" points="579.318,-63.5754 588.057,-57.5859 577.49,-56.8182 579.318,-63.5754"/>
</g>
<!-- Node10 -->
<g id="node10" class="node"><title>Node10</title>
<g id="a_node10"><a xlink:href="../../d6/dfb/stubs__posix_8c.html#a96184290ffb60e04c53a52869cf960a2" target="_top" xlink:title="pthread_mutex_unlock">
<polygon fill="white" stroke="black" points="567,-76.5 567,-95.5 682,-95.5 682,-76.5 567,-76.5"/>
<text text-anchor="middle" x="624.5" y="-83.5" font-family="Helvetica,sans-Serif" font-size="10.00">pthread_mutex_unlock</text>
</a>
</g>
</g>
<!-- Node8&#45;&gt;Node10 -->
<g id="edge9" class="edge"><title>Node8&#45;&gt;Node10</title>
<path fill="none" stroke="midnightblue" d="M528.228,-86C537.338,-86 547.093,-86 556.759,-86"/>
<polygon fill="midnightblue" stroke="midnightblue" points="556.769,-89.5001 566.769,-86 556.769,-82.5001 556.769,-89.5001"/>
</g>
<!-- Node12 -->
<g id="node12" class="node"><title>Node12</title>
<g id="a_node12"><a xlink:href="../../d9/d04/class_iridium_s_b_d.html#a356a320d842d4b23e0eb1f4f44932b7d" target="_top" xlink:title="IridiumSBD::write">
<polygon fill="white" stroke="black" points="435,-38.5 435,-57.5 529,-57.5 529,-38.5 435,-38.5"/>
<text text-anchor="middle" x="482" y="-45.5" font-family="Helvetica,sans-Serif" font-size="10.00">IridiumSBD::write</text>
</a>
</g>
</g>
<!-- Node11&#45;&gt;Node12 -->
<g id="edge11" class="edge"><title>Node11&#45;&gt;Node12</title>
<path fill="none" stroke="midnightblue" d="M256.022,-48C304.138,-48 375.175,-48 424.504,-48"/>
<polygon fill="midnightblue" stroke="midnightblue" points="424.685,-51.5001 434.685,-48 424.685,-44.5001 424.685,-51.5001"/>
</g>
<!-- Node12&#45;&gt;Node9 -->
<g id="edge12" class="edge"><title>Node12&#45;&gt;Node9</title>
<path fill="none" stroke="midnightblue" d="M529.005,-48C539.544,-48 550.913,-48 561.987,-48"/>
<polygon fill="midnightblue" stroke="midnightblue" points="562.043,-51.5001 572.043,-48 562.043,-44.5001 562.043,-51.5001"/>
</g>
<!-- Node12&#45;&gt;Node10 -->
<g id="edge14" class="edge"><title>Node12&#45;&gt;Node10</title>
<path fill="none" stroke="midnightblue" d="M518.454,-57.589C536.591,-62.4944 558.868,-68.5196 578.233,-73.7571"/>
<polygon fill="midnightblue" stroke="midnightblue" points="577.49,-77.1818 588.057,-76.4141 579.318,-70.4246 577.49,-77.1818"/>
</g>
<!-- Node13 -->
<g id="node13" class="node"><title>Node13</title>
<g id="a_node13"><a xlink:href="../../d6/d10/drv__hrt_8h.html#a1450e339b7c5b8d47656500167a6676d" target="_top" xlink:title="Get absolute time in [us] (does not wrap). ">
<polygon fill="white" stroke="black" points="577.5,-0.5 577.5,-19.5 671.5,-19.5 671.5,-0.5 577.5,-0.5"/>
<text text-anchor="middle" x="624.5" y="-7.5" font-family="Helvetica,sans-Serif" font-size="10.00">hrt_absolute_time</text>
</a>
</g>
</g>
<!-- Node12&#45;&gt;Node13 -->
<g id="edge13" class="edge"><title>Node12&#45;&gt;Node13</title>
<path fill="none" stroke="midnightblue" d="M518.454,-38.411C536.591,-33.5056 558.868,-27.4804 578.233,-22.2429"/>
<polygon fill="midnightblue" stroke="midnightblue" points="579.318,-25.5754 588.057,-19.5859 577.49,-18.8182 579.318,-25.5754"/>
</g>
</g>
</svg>
