<?xml version="1.0" encoding="UTF-8" standalone="no"?>
<!DOCTYPE svg PUBLIC "-//W3C//DTD SVG 1.1//EN"
 "http://www.w3.org/Graphics/SVG/1.1/DTD/svg11.dtd">
<!-- Generated by graphviz version 2.40.1 (20161225.0304)
 -->
<!-- Title: IridiumSBD::sbdsession_loop Pages: 1 -->
<svg width="711pt" height="39pt"
 viewBox="0.00 0.00 711.00 39.00" xmlns="http://www.w3.org/2000/svg" xmlns:xlink="http://www.w3.org/1999/xlink">
<g id="graph0" class="graph" transform="scale(1 1) rotate(0) translate(4 35)">
<title>IridiumSBD::sbdsession_loop</title>
<polygon fill="#ffffff" stroke="transparent" points="-4,4 -4,-35 707,-35 707,4 -4,4"/>
<!-- Node551 -->
<g id="node1" class="node">
<title>Node551</title>
<polygon fill="#bfbfbf" stroke="#000000" points="0,-6 0,-25 146,-25 146,-6 0,-6"/>
<text text-anchor="middle" x="73" y="-13" font-family="Helvetica,sans-Serif" font-size="10.00" fill="#000000">IridiumSBD::sbdsession_loop</text>
</g>
<!-- Node552 -->
<g id="node2" class="node">
<title>Node552</title>
<g id="a_node2"><a xlink:href="../../d9/d04/class_iridium_s_b_d.html#a6dd3144baaf960466525fe7cbdc9741b" target="_top" xlink:title="IridiumSBD::main_loop">
<polygon fill="#ffffff" stroke="#000000" points="182,-6 182,-25 299,-25 299,-6 182,-6"/>
<text text-anchor="middle" x="240.5" y="-13" font-family="Helvetica,sans-Serif" font-size="10.00" fill="#000000">IridiumSBD::main_loop</text>
</a>
</g>
</g>
<!-- Node551&#45;&gt;Node552 -->
<g id="edge1" class="edge">
<title>Node551&#45;&gt;Node552</title>
<path fill="none" stroke="#191970" d="M156.5251,-15.5C165.112,-15.5 173.702,-15.5 181.9341,-15.5"/>
<polygon fill="#191970" stroke="#191970" points="156.468,-12.0001 146.4679,-15.5 156.4679,-19.0001 156.468,-12.0001"/>
</g>
<!-- Node553 -->
<g id="node3" class="node">
<title>Node553</title>
<g id="a_node3"><a xlink:href="../../d9/d04/class_iridium_s_b_d.html#ab29a80aa1d6f79a9cdf21ed7d87553b5" target="_top" xlink:title="IridiumSBD::main_loop\l_helper">
<polygon fill="#ffffff" stroke="#000000" points="335,-.5 335,-30.5 452,-30.5 452,-.5 335,-.5"/>
<text text-anchor="start" x="343" y="-18.5" font-family="Helvetica,sans-Serif" font-size="10.00" fill="#000000">IridiumSBD::main_loop</text>
<text text-anchor="middle" x="393.5" y="-7.5" font-family="Helvetica,sans-Serif" font-size="10.00" fill="#000000">_helper</text>
</a>
</g>
</g>
<!-- Node552&#45;&gt;Node553 -->
<g id="edge2" class="edge">
<title>Node552&#45;&gt;Node553</title>
<path fill="none" stroke="#191970" d="M309.4932,-15.5C317.9927,-15.5 326.617,-15.5 334.9409,-15.5"/>
<polygon fill="#191970" stroke="#191970" points="309.2163,-12.0001 299.2162,-15.5 309.2162,-19.0001 309.2163,-12.0001"/>
</g>
<!-- Node554 -->
<g id="node4" class="node">
<title>Node554</title>
<g id="a_node4"><a xlink:href="../../d9/d04/class_iridium_s_b_d.html#a88d103f9f838d847bc4a2fb88806b813" target="_top" xlink:title="IridiumSBD::start">
<polygon fill="#ffffff" stroke="#000000" points="488,-6 488,-25 580,-25 580,-6 488,-6"/>
<text text-anchor="middle" x="534" y="-13" font-family="Helvetica,sans-Serif" font-size="10.00" fill="#000000">IridiumSBD::start</text>
</a>
</g>
</g>
<!-- Node553&#45;&gt;Node554 -->
<g id="edge3" class="edge">
<title>Node553&#45;&gt;Node554</title>
<path fill="none" stroke="#191970" d="M462.3707,-15.5C471.0121,-15.5 479.6814,-15.5 487.8552,-15.5"/>
<polygon fill="#191970" stroke="#191970" points="462.2706,-12.0001 452.2706,-15.5 462.2705,-19.0001 462.2706,-12.0001"/>
</g>
<!-- Node555 -->
<g id="node5" class="node">
<title>Node555</title>
<g id="a_node5"><a xlink:href="../../d1/dc6/_iridium_s_b_d_8h.html#ac104cd5434631b2a7bdf1f39ff0bbb1b" target="_top" xlink:title="iridiumsbd_main">
<polygon fill="#ffffff" stroke="#000000" points="616,-6 616,-25 703,-25 703,-6 616,-6"/>
<text text-anchor="middle" x="659.5" y="-13" font-family="Helvetica,sans-Serif" font-size="10.00" fill="#000000">iridiumsbd_main</text>
</a>
</g>
</g>
<!-- Node554&#45;&gt;Node555 -->
<g id="edge4" class="edge">
<title>Node554&#45;&gt;Node555</title>
<path fill="none" stroke="#191970" d="M590.0952,-15.5C598.7805,-15.5 607.6378,-15.5 615.9914,-15.5"/>
<polygon fill="#191970" stroke="#191970" points="590.019,-12.0001 580.0189,-15.5 590.0189,-19.0001 590.019,-12.0001"/>
</g>
</g>
</svg>
