<?xml version="1.0" encoding="UTF-8" standalone="no"?>
<!DOCTYPE svg PUBLIC "-//W3C//DTD SVG 1.1//EN"
 "http://www.w3.org/Graphics/SVG/1.1/DTD/svg11.dtd">
<!-- Generated by graphviz version 2.40.1 (20161225.0304)
 -->
<!-- Title: src/lib/parameters/tinybson/tinybson.cpp Pages: 1 -->
<svg width="729pt" height="173pt"
 viewBox="0.00 0.00 729.00 173.00" xmlns="http://www.w3.org/2000/svg" xmlns:xlink="http://www.w3.org/1999/xlink">
<g id="graph0" class="graph" transform="scale(1 1) rotate(0) translate(4 169)">
<title>src/lib/parameters/tinybson/tinybson.cpp</title>
<polygon fill="#ffffff" stroke="transparent" points="-4,4 -4,-169 725,-169 725,4 -4,4"/>
<!-- Node0 -->
<g id="node1" class="node">
<title>Node0</title>
<polygon fill="#bfbfbf" stroke="#000000" points="196.5,-134.5 196.5,-164.5 311.5,-164.5 311.5,-134.5 196.5,-134.5"/>
<text text-anchor="start" x="204.5" y="-152.5" font-family="Helvetica,sans-Serif" font-size="10.00" fill="#000000">src/lib/parameters</text>
<text text-anchor="middle" x="254" y="-141.5" font-family="Helvetica,sans-Serif" font-size="10.00" fill="#000000">/tinybson/tinybson.cpp</text>
</g>
<!-- Node1 -->
<g id="node2" class="node">
<title>Node1</title>
<polygon fill="#ffffff" stroke="#bfbfbf" points="0,-67.5 0,-97.5 116,-97.5 116,-67.5 0,-67.5"/>
<text text-anchor="start" x="8" y="-85.5" font-family="Helvetica,sans-Serif" font-size="10.00" fill="#000000">px4_platform_common</text>
<text text-anchor="middle" x="58" y="-74.5" font-family="Helvetica,sans-Serif" font-size="10.00" fill="#000000">/posix.h</text>
</g>
<!-- Node0&#45;&gt;Node1 -->
<g id="edge1" class="edge">
<title>Node0&#45;&gt;Node1</title>
<path fill="none" stroke="#191970" d="M210.0138,-134.4639C180.9883,-124.5419 142.7697,-111.4774 111.9158,-100.9304"/>
<polygon fill="#191970" stroke="#191970" points="112.7726,-97.5245 102.1781,-97.6017 110.5084,-104.1482 112.7726,-97.5245"/>
</g>
<!-- Node2 -->
<g id="node3" class="node">
<title>Node2</title>
<polygon fill="#ffffff" stroke="#bfbfbf" points="134.5,-73 134.5,-92 185.5,-92 185.5,-73 134.5,-73"/>
<text text-anchor="middle" x="160" y="-80" font-family="Helvetica,sans-Serif" font-size="10.00" fill="#000000">unistd.h</text>
</g>
<!-- Node0&#45;&gt;Node2 -->
<g id="edge2" class="edge">
<title>Node0&#45;&gt;Node2</title>
<path fill="none" stroke="#191970" d="M232.6699,-134.2967C217.4555,-123.4524 197.0643,-108.9182 181.7547,-98.006"/>
<polygon fill="#191970" stroke="#191970" points="183.5802,-95.0091 173.4055,-92.055 179.5172,-100.7093 183.5802,-95.0091"/>
</g>
<!-- Node3 -->
<g id="node4" class="node">
<title>Node3</title>
<polygon fill="#ffffff" stroke="#bfbfbf" points="203.5,-73 203.5,-92 252.5,-92 252.5,-73 203.5,-73"/>
<text text-anchor="middle" x="228" y="-80" font-family="Helvetica,sans-Serif" font-size="10.00" fill="#000000">string.h</text>
</g>
<!-- Node0&#45;&gt;Node3 -->
<g id="edge3" class="edge">
<title>Node0&#45;&gt;Node3</title>
<path fill="none" stroke="#191970" d="M248.1002,-134.2967C244.3246,-124.5672 239.3963,-111.8675 235.3647,-101.4784"/>
<polygon fill="#191970" stroke="#191970" points="238.5886,-100.1114 231.7079,-92.055 232.0628,-102.6439 238.5886,-100.1114"/>
</g>
<!-- Node4 -->
<g id="node5" class="node">
<title>Node4</title>
<polygon fill="#ffffff" stroke="#bfbfbf" points="175,-6 175,-25 223,-25 223,-6 175,-6"/>
<text text-anchor="middle" x="199" y="-13" font-family="Helvetica,sans-Serif" font-size="10.00" fill="#000000">stdlib.h</text>
</g>
<!-- Node0&#45;&gt;Node4 -->
<g id="edge4" class="edge">
<title>Node0&#45;&gt;Node4</title>
<path fill="none" stroke="#191970" d="M259.6481,-134.3986C265.1128,-117.2178 271.1992,-88.7308 261,-67 253.8025,-51.6648 239.5471,-39.3165 226.5187,-30.5595"/>
<polygon fill="#191970" stroke="#191970" points="228.1261,-27.4359 217.7969,-25.0782 224.4013,-33.3627 228.1261,-27.4359"/>
</g>
<!-- Node5 -->
<g id="node6" class="node">
<title>Node5</title>
<g id="a_node6"><a xlink:href="../../d6/d40/err_8h.html" target="_top" xlink:title="Simple error/warning functions, heavily inspired by the BSD functions of the same names...">
<polygon fill="#ffffff" stroke="#000000" points="309.5,-73 309.5,-92 390.5,-92 390.5,-73 309.5,-73"/>
<text text-anchor="middle" x="350" y="-80" font-family="Helvetica,sans-Serif" font-size="10.00" fill="#000000">systemlib/err.h</text>
</a>
</g>
</g>
<!-- Node0&#45;&gt;Node5 -->
<g id="edge5" class="edge">
<title>Node0&#45;&gt;Node5</title>
<path fill="none" stroke="#191970" d="M275.7839,-134.2967C291.322,-123.4524 312.1471,-108.9182 327.7824,-98.006"/>
<polygon fill="#191970" stroke="#191970" points="330.1121,-100.6483 336.3093,-92.055 326.1058,-94.908 330.1121,-100.6483"/>
</g>
<!-- Node9 -->
<g id="node10" class="node">
<title>Node9</title>
<g id="a_node10"><a xlink:href="../../d1/de1/tinybson_8h.html" target="_top" xlink:title="A simple subset SAX&#45;style BSON parser and generator. ">
<polygon fill="#ffffff" stroke="#000000" points="553,-73 553,-92 615,-92 615,-73 553,-73"/>
<text text-anchor="middle" x="584" y="-80" font-family="Helvetica,sans-Serif" font-size="10.00" fill="#000000">tinybson.h</text>
</a>
</g>
</g>
<!-- Node0&#45;&gt;Node9 -->
<g id="edge10" class="edge">
<title>Node0&#45;&gt;Node9</title>
<path fill="none" stroke="#191970" d="M311.8592,-137.7528C377.9488,-124.3346 484.4415,-102.7134 542.6823,-90.8887"/>
<polygon fill="#191970" stroke="#191970" points="543.5282,-94.2885 552.6319,-88.8687 542.1354,-87.4285 543.5282,-94.2885"/>
</g>
<!-- Node5&#45;&gt;Node4 -->
<g id="edge9" class="edge">
<title>Node5&#45;&gt;Node4</title>
<path fill="none" stroke="#191970" d="M327.2965,-72.8117C303.4763,-62.5954 264.9845,-45.9408 232,-31 230.8324,-30.4711 229.6431,-29.929 228.4427,-29.3789"/>
<polygon fill="#191970" stroke="#191970" points="229.7482,-26.1263 219.2035,-25.0972 226.8049,-32.4775 229.7482,-26.1263"/>
</g>
<!-- Node6 -->
<g id="node7" class="node">
<title>Node6</title>
<polygon fill="#ffffff" stroke="#bfbfbf" points="241,-.5 241,-30.5 357,-30.5 357,-.5 241,-.5"/>
<text text-anchor="start" x="249" y="-18.5" font-family="Helvetica,sans-Serif" font-size="10.00" fill="#000000">px4_platform_common</text>
<text text-anchor="middle" x="299" y="-7.5" font-family="Helvetica,sans-Serif" font-size="10.00" fill="#000000">/log.h</text>
</g>
<!-- Node5&#45;&gt;Node6 -->
<g id="edge6" class="edge">
<title>Node5&#45;&gt;Node6</title>
<path fill="none" stroke="#191970" d="M342.6929,-72.9005C335.9109,-63.9908 325.5465,-50.3748 316.614,-38.6399"/>
<polygon fill="#191970" stroke="#191970" points="319.2763,-36.3589 310.4345,-30.5218 313.7064,-40.5987 319.2763,-36.3589"/>
</g>
<!-- Node7 -->
<g id="node8" class="node">
<title>Node7</title>
<polygon fill="#ffffff" stroke="#bfbfbf" points="375,-6 375,-25 427,-25 427,-6 375,-6"/>
<text text-anchor="middle" x="401" y="-13" font-family="Helvetica,sans-Serif" font-size="10.00" fill="#000000">stdarg.h</text>
</g>
<!-- Node5&#45;&gt;Node7 -->
<g id="edge7" class="edge">
<title>Node5&#45;&gt;Node7</title>
<path fill="none" stroke="#191970" d="M357.3071,-72.9005C365.1843,-62.552 377.8946,-45.8542 387.5806,-33.1295"/>
<polygon fill="#191970" stroke="#191970" points="390.4346,-35.1586 393.7065,-25.0817 384.8646,-30.9188 390.4346,-35.1586"/>
</g>
<!-- Node8 -->
<g id="node9" class="node">
<title>Node8</title>
<polygon fill="#ffffff" stroke="#bfbfbf" points="445.5,-6 445.5,-25 492.5,-25 492.5,-6 445.5,-6"/>
<text text-anchor="middle" x="469" y="-13" font-family="Helvetica,sans-Serif" font-size="10.00" fill="#000000">errno.h</text>
</g>
<!-- Node5&#45;&gt;Node8 -->
<g id="edge8" class="edge">
<title>Node5&#45;&gt;Node8</title>
<path fill="none" stroke="#191970" d="M367.0498,-72.9005C386.9323,-61.7062 420.0105,-43.0823 443.078,-30.0947"/>
<polygon fill="#191970" stroke="#191970" points="444.9852,-33.0376 451.9818,-25.0817 441.5509,-26.938 444.9852,-33.0376"/>
</g>
<!-- Node10 -->
<g id="node11" class="node">
<title>Node10</title>
<polygon fill="#ffffff" stroke="#bfbfbf" points="511,-6 511,-25 579,-25 579,-6 511,-6"/>
<text text-anchor="middle" x="545" y="-13" font-family="Helvetica,sans-Serif" font-size="10.00" fill="#000000">sys/types.h</text>
</g>
<!-- Node9&#45;&gt;Node10 -->
<g id="edge11" class="edge">
<title>Node9&#45;&gt;Node10</title>
<path fill="none" stroke="#191970" d="M578.4123,-72.9005C572.5043,-62.751 563.0413,-46.4941 555.6918,-33.8679"/>
<polygon fill="#191970" stroke="#191970" points="558.633,-31.9634 550.5774,-25.0817 552.5833,-35.4849 558.633,-31.9634"/>
</g>
<!-- Node11 -->
<g id="node12" class="node">
<title>Node11</title>
<polygon fill="#ffffff" stroke="#bfbfbf" points="597.5,-6 597.5,-25 646.5,-25 646.5,-6 597.5,-6"/>
<text text-anchor="middle" x="622" y="-13" font-family="Helvetica,sans-Serif" font-size="10.00" fill="#000000">stdint.h</text>
</g>
<!-- Node9&#45;&gt;Node11 -->
<g id="edge12" class="edge">
<title>Node9&#45;&gt;Node11</title>
<path fill="none" stroke="#191970" d="M589.4445,-72.9005C595.2009,-62.751 604.4213,-46.4941 611.5824,-33.8679"/>
<polygon fill="#191970" stroke="#191970" points="614.6766,-35.5067 616.5656,-25.0817 608.5877,-32.0533 614.6766,-35.5067"/>
</g>
<!-- Node12 -->
<g id="node13" class="node">
<title>Node12</title>
<polygon fill="#ffffff" stroke="#bfbfbf" points="665,-6 665,-25 721,-25 721,-6 665,-6"/>
<text text-anchor="middle" x="693" y="-13" font-family="Helvetica,sans-Serif" font-size="10.00" fill="#000000">stdbool.h</text>
</g>
<!-- Node9&#45;&gt;Node12 -->
<g id="edge13" class="edge">
<title>Node9&#45;&gt;Node12</title>
<path fill="none" stroke="#191970" d="M599.617,-72.9005C617.6669,-61.8057 647.5896,-43.4128 668.6908,-30.4424"/>
<polygon fill="#191970" stroke="#191970" points="670.7255,-33.3001 677.4119,-25.0817 667.0598,-27.3366 670.7255,-33.3001"/>
</g>
</g>
</svg>
