<?xml version="1.0" encoding="UTF-8" standalone="no"?>
<!DOCTYPE svg PUBLIC "-//W3C//DTD SVG 1.1//EN"
 "http://www.w3.org/Graphics/SVG/1.1/DTD/svg11.dtd">
<!-- Generated by graphviz version 2.38.0 (20140413.2041)
 -->
<!-- Title: vmount::OutputBase Pages: 1 -->
<svg width="278pt" height="424pt"
 viewBox="0.00 0.00 278.00 424.00" xmlns="http://www.w3.org/2000/svg" xmlns:xlink="http://www.w3.org/1999/xlink">
<g id="graph0" class="graph" transform="scale(1 1) rotate(0) translate(4 420)">
<title>vmount::OutputBase</title>
<polygon fill="white" stroke="none" points="-4,4 -4,-420 274,-420 274,4 -4,4"/>
<!-- Node1 -->
<g id="node1" class="node"><title>Node1</title>
<polygon fill="#bfbfbf" stroke="black" points="61.5,-138.5 61.5,-415.5 210.5,-415.5 210.5,-138.5 61.5,-138.5"/>
<text text-anchor="middle" x="136" y="-403.5" font-family="Helvetica,sans-Serif" font-size="10.00">vmount::OutputBase</text>
<polyline fill="none" stroke="black" points="61.5,-396.5 210.5,-396.5 "/>
<text text-anchor="start" x="69.5" y="-384.5" font-family="Helvetica,sans-Serif" font-size="10.00"># _projection_reference</text>
<text text-anchor="start" x="69.5" y="-373.5" font-family="Helvetica,sans-Serif" font-size="10.00"># _config</text>
<text text-anchor="start" x="69.5" y="-362.5" font-family="Helvetica,sans-Serif" font-size="10.00"># _cur_control_data</text>
<text text-anchor="start" x="69.5" y="-351.5" font-family="Helvetica,sans-Serif" font-size="10.00"># _angle_setpoints</text>
<text text-anchor="start" x="69.5" y="-340.5" font-family="Helvetica,sans-Serif" font-size="10.00"># _angle_speeds</text>
<text text-anchor="start" x="69.5" y="-329.5" font-family="Helvetica,sans-Serif" font-size="10.00"># _stabilize</text>
<text text-anchor="start" x="69.5" y="-318.5" font-family="Helvetica,sans-Serif" font-size="10.00"># _angle_outputs</text>
<text text-anchor="start" x="69.5" y="-307.5" font-family="Helvetica,sans-Serif" font-size="10.00"># _last_update</text>
<text text-anchor="start" x="69.5" y="-296.5" font-family="Helvetica,sans-Serif" font-size="10.00">&#45; _vehicle_attitude_sub</text>
<text text-anchor="start" x="69.5" y="-285.5" font-family="Helvetica,sans-Serif" font-size="10.00">&#45; _vehicle_global_position_sub</text>
<text text-anchor="start" x="69.5" y="-274.5" font-family="Helvetica,sans-Serif" font-size="10.00">&#45; _mount_orientation_pub</text>
<polyline fill="none" stroke="black" points="61.5,-267.5 210.5,-267.5 "/>
<text text-anchor="start" x="69.5" y="-255.5" font-family="Helvetica,sans-Serif" font-size="10.00">+ OutputBase()</text>
<text text-anchor="start" x="69.5" y="-244.5" font-family="Helvetica,sans-Serif" font-size="10.00">+ ~OutputBase()</text>
<text text-anchor="start" x="69.5" y="-233.5" font-family="Helvetica,sans-Serif" font-size="10.00">+ initialize()</text>
<text text-anchor="start" x="69.5" y="-222.5" font-family="Helvetica,sans-Serif" font-size="10.00">+ update()</text>
<text text-anchor="start" x="69.5" y="-211.5" font-family="Helvetica,sans-Serif" font-size="10.00">+ print_status()</text>
<text text-anchor="start" x="69.5" y="-200.5" font-family="Helvetica,sans-Serif" font-size="10.00">+ publish()</text>
<text text-anchor="start" x="69.5" y="-189.5" font-family="Helvetica,sans-Serif" font-size="10.00"># _calculate_pitch()</text>
<text text-anchor="start" x="69.5" y="-178.5" font-family="Helvetica,sans-Serif" font-size="10.00"># _set_angle_setpoints()</text>
<text text-anchor="start" x="69.5" y="-167.5" font-family="Helvetica,sans-Serif" font-size="10.00"># _handle_position_update()</text>
<text text-anchor="start" x="69.5" y="-156.5" font-family="Helvetica,sans-Serif" font-size="10.00"># _calculate_output_angles()</text>
<text text-anchor="start" x="69.5" y="-145.5" font-family="Helvetica,sans-Serif" font-size="10.00"># _get_vehicle_attitude_sub()</text>
</g>
<!-- Node2 -->
<g id="node2" class="node"><title>Node2</title>
<g id="a_node2"><a xlink:href="../../d8/db5/classvmount_1_1_output_mavlink.html" target="_top" xlink:title="class OutputMavlink Output via vehicle_command topic ">
<polygon fill="white" stroke="black" points="0,-6 0,-96 128,-96 128,-6 0,-6"/>
<text text-anchor="middle" x="64" y="-84" font-family="Helvetica,sans-Serif" font-size="10.00">vmount::OutputMavlink</text>
<polyline fill="none" stroke="black" points="0,-77 128,-77 "/>
<text text-anchor="start" x="8" y="-65" font-family="Helvetica,sans-Serif" font-size="10.00">&#45; _vehicle_command_pub</text>
<polyline fill="none" stroke="black" points="0,-58 128,-58 "/>
<text text-anchor="start" x="8" y="-46" font-family="Helvetica,sans-Serif" font-size="10.00">+ OutputMavlink()</text>
<text text-anchor="start" x="8" y="-35" font-family="Helvetica,sans-Serif" font-size="10.00">+ ~OutputMavlink()</text>
<text text-anchor="start" x="8" y="-24" font-family="Helvetica,sans-Serif" font-size="10.00">+ update()</text>
<text text-anchor="start" x="8" y="-13" font-family="Helvetica,sans-Serif" font-size="10.00">+ print_status()</text>
</a>
</g>
</g>
<!-- Node1&#45;&gt;Node2 -->
<g id="edge1" class="edge"><title>Node1&#45;&gt;Node2</title>
<path fill="none" stroke="midnightblue" d="M88.6062,-128.552C84.9274,-117.107 81.4255,-106.213 78.2777,-96.4194"/>
<polygon fill="none" stroke="midnightblue" points="85.3418,-129.835 91.7341,-138.284 92.006,-127.692 85.3418,-129.835"/>
</g>
<!-- Node3 -->
<g id="node3" class="node"><title>Node3</title>
<g id="a_node3"><a xlink:href="../../dc/de6/classvmount_1_1_output_r_c.html" target="_top" xlink:title="class OutputRC Output via actuator_controls_2 topic ">
<polygon fill="white" stroke="black" points="146,-0.5 146,-101.5 270,-101.5 270,-0.5 146,-0.5"/>
<text text-anchor="middle" x="208" y="-89.5" font-family="Helvetica,sans-Serif" font-size="10.00">vmount::OutputRC</text>
<polyline fill="none" stroke="black" points="146,-82.5 270,-82.5 "/>
<text text-anchor="start" x="154" y="-70.5" font-family="Helvetica,sans-Serif" font-size="10.00">&#45; _actuator_controls_pub</text>
<text text-anchor="start" x="154" y="-59.5" font-family="Helvetica,sans-Serif" font-size="10.00">&#45; _retract_gimbal</text>
<polyline fill="none" stroke="black" points="146,-52.5 270,-52.5 "/>
<text text-anchor="start" x="154" y="-40.5" font-family="Helvetica,sans-Serif" font-size="10.00">+ OutputRC()</text>
<text text-anchor="start" x="154" y="-29.5" font-family="Helvetica,sans-Serif" font-size="10.00">+ ~OutputRC()</text>
<text text-anchor="start" x="154" y="-18.5" font-family="Helvetica,sans-Serif" font-size="10.00">+ update()</text>
<text text-anchor="start" x="154" y="-7.5" font-family="Helvetica,sans-Serif" font-size="10.00">+ print_status()</text>
</a>
</g>
</g>
<!-- Node1&#45;&gt;Node3 -->
<g id="edge2" class="edge"><title>Node1&#45;&gt;Node3</title>
<path fill="none" stroke="midnightblue" d="M183.419,-128.474C186.408,-119.175 189.28,-110.241 191.939,-101.966"/>
<polygon fill="none" stroke="midnightblue" points="179.994,-127.692 180.266,-138.284 186.658,-129.835 179.994,-127.692"/>
</g>
</g>
</svg>
