<?xml version="1.0" encoding="UTF-8" standalone="no"?>
<!DOCTYPE svg PUBLIC "-//W3C//DTD SVG 1.1//EN"
 "http://www.w3.org/Graphics/SVG/1.1/DTD/svg11.dtd">
<!-- Generated by graphviz version 2.38.0 (20140413.2041)
 -->
<!-- Title: landing_target_estimator::LandingTargetEstimator::update Pages: 1 -->
<svg width="490pt" height="50pt"
 viewBox="0.00 0.00 490.00 50.00" xmlns="http://www.w3.org/2000/svg" xmlns:xlink="http://www.w3.org/1999/xlink">
<g id="graph0" class="graph" transform="scale(1 1) rotate(0) translate(4 46)">
<title>landing_target_estimator::LandingTargetEstimator::update</title>
<polygon fill="white" stroke="none" points="-4,4 -4,-46 486,-46 486,4 -4,4"/>
<!-- Node1 -->
<g id="node1" class="node"><title>Node1</title>
<polygon fill="#bfbfbf" stroke="black" points="0,-0.5 0,-41.5 126,-41.5 126,-0.5 0,-0.5"/>
<text text-anchor="start" x="8" y="-29.5" font-family="Helvetica,sans-Serif" font-size="10.00">landing_target_estimator</text>
<text text-anchor="start" x="8" y="-18.5" font-family="Helvetica,sans-Serif" font-size="10.00">::LandingTargetEstimator</text>
<text text-anchor="middle" x="63" y="-7.5" font-family="Helvetica,sans-Serif" font-size="10.00">::update</text>
</g>
<!-- Node2 -->
<g id="node2" class="node"><title>Node2</title>
<g id="a_node2"><a xlink:href="../../d0/def/namespacelanding__target__estimator.html#a0ebf814a809f42f4e95626f0cc9d08f0" target="_top" xlink:title="Mainloop of daemon. ">
<polygon fill="white" stroke="black" points="162,-0.5 162,-41.5 291,-41.5 291,-0.5 162,-0.5"/>
<text text-anchor="start" x="170" y="-29.5" font-family="Helvetica,sans-Serif" font-size="10.00">landing_target_estimator</text>
<text text-anchor="start" x="170" y="-18.5" font-family="Helvetica,sans-Serif" font-size="10.00">::landing_target_estimator</text>
<text text-anchor="middle" x="226.5" y="-7.5" font-family="Helvetica,sans-Serif" font-size="10.00">_thread_main</text>
</a>
</g>
</g>
<!-- Node1&#45;&gt;Node2 -->
<g id="edge1" class="edge"><title>Node1&#45;&gt;Node2</title>
<path fill="none" stroke="midnightblue" d="M136.633,-21C145.058,-21 153.602,-21 161.893,-21"/>
<polygon fill="midnightblue" stroke="midnightblue" points="136.44,-17.5001 126.44,-21 136.44,-24.5001 136.44,-17.5001"/>
</g>
<!-- Node3 -->
<g id="node3" class="node"><title>Node3</title>
<g id="a_node3"><a xlink:href="../../d0/def/namespacelanding__target__estimator.html#aadaacb76f344235d5a1df57481bdc95a" target="_top" xlink:title="Landing target position estimator app start / stop handling function This makes the module accessible...">
<polygon fill="white" stroke="black" points="327,-6 327,-36 482,-36 482,-6 327,-6"/>
<text text-anchor="start" x="335" y="-24" font-family="Helvetica,sans-Serif" font-size="10.00">landing_target_estimator</text>
<text text-anchor="middle" x="404.5" y="-13" font-family="Helvetica,sans-Serif" font-size="10.00">::landing_target_estimator_main</text>
</a>
</g>
</g>
<!-- Node2&#45;&gt;Node3 -->
<g id="edge2" class="edge"><title>Node2&#45;&gt;Node3</title>
<path fill="none" stroke="midnightblue" d="M301.249,-21C309.709,-21 318.35,-21 326.848,-21"/>
<polygon fill="midnightblue" stroke="midnightblue" points="301.04,-17.5001 291.04,-21 301.04,-24.5001 301.04,-17.5001"/>
</g>
</g>
</svg>
