<?xml version="1.0" encoding="UTF-8" standalone="no"?>
<!DOCTYPE svg PUBLIC "-//W3C//DTD SVG 1.1//EN"
 "http://www.w3.org/Graphics/SVG/1.1/DTD/svg11.dtd">
<!-- Generated by graphviz version 2.40.1 (20161225.0304)
 -->
<!-- Title: px4::logger::LogWriter::is_started Pages: 1 -->
<!--zoomable 575 -->
<svg id="main" version="1.1" xmlns="http://www.w3.org/2000/svg" xmlns:xlink="http://www.w3.org/1999/xlink" xml:space="preserve" onload="init(evt)">
<style type="text/css"><![CDATA[
.edge:hover path { stroke: red; }
.edge:hover polygon { stroke: red; fill: red; }
]]></style>
<script type="text/javascript"><![CDATA[
var edges = document.getElementsByTagName('g');
if (edges && edges.length) {
  for (var i=0;i<edges.length;i++) {
    if (edges[i].id.substr(0,4)=='edge') {
      edges[i].setAttribute('class','edge');
    }
  }
}
]]></script>
        <defs>
                <circle id="rim" cx="0" cy="0" r="7"/>
                <circle id="rim2" cx="0" cy="0" r="3.5"/>
                <g id="zoomPlus">
                        <use xlink:href="#rim" fill="#404040">
                                <set attributeName="fill" to="#808080" begin="zoomplus.mouseover" end="zoomplus.mouseout"/>
                        </use>
                        <path d="M-4,0h8M0,-4v8" fill="none" stroke="white" stroke-width="1.5" pointer-events="none"/>
                </g>
                <g id="zoomMin">
                        <use xlink:href="#rim" fill="#404040">
                                <set attributeName="fill" to="#808080" begin="zoomminus.mouseover" end="zoomminus.mouseout"/>
                        </use>
                        <path d="M-4,0h8" fill="none" stroke="white" stroke-width="1.5" pointer-events="none"/>
                </g>
                <g id="dirArrow">
                        <path fill="none" stroke="white" stroke-width="1.5" d="M0,-3.0v7 M-2.5,-0.5L0,-3.0L2.5,-0.5"/>
                </g>
               <g id="resetDef">
                       <use xlink:href="#rim2" fill="#404040">
                               <set attributeName="fill" to="#808080" begin="reset.mouseover" end="reset.mouseout"/>
                       </use>
               </g>
        </defs>

<script type="text/javascript">
var viewWidth = 1301;
var viewHeight = 575;
var sectionId = 'dynsection-11';
</script>
<script xlink:href="../../svgpan.js"/>
<svg id="graph" class="graph">
<g id="viewport">
<title>px4::logger::LogWriter::is_started</title>
<polygon fill="#ffffff" stroke="transparent" points="-4,4 -4,-570.5 1297,-570.5 1297,4 -4,4"/>
<!-- Node397 -->
<g id="node1" class="node">
<title>Node397</title>
<polygon fill="#bfbfbf" stroke="#000000" points="0,-145.5 0,-175.5 113,-175.5 113,-145.5 0,-145.5"/>
<text text-anchor="start" x="8" y="-163.5" font-family="Helvetica,sans-Serif" font-size="10.00" fill="#000000">px4::logger::LogWriter</text>
<text text-anchor="middle" x="56.5" y="-152.5" font-family="Helvetica,sans-Serif" font-size="10.00" fill="#000000">::is_started</text>
</g>
<!-- Node398 -->
<g id="node2" class="node">
<title>Node398</title>
<g id="a_node2"><a xlink:href="../../d9/d99/classpx4_1_1logger_1_1_log_writer_mavlink.html#ae16e2d991c4911e53ce21a2eccbc6296" target="_top" xlink:title="px4::logger::LogWriterMavlink\l::is_started">
<polygon fill="#ffffff" stroke="#000000" points="149,-170.5 149,-200.5 295,-200.5 295,-170.5 149,-170.5"/>
<text text-anchor="start" x="157" y="-188.5" font-family="Helvetica,sans-Serif" font-size="10.00" fill="#000000">px4::logger::LogWriterMavlink</text>
<text text-anchor="middle" x="222" y="-177.5" font-family="Helvetica,sans-Serif" font-size="10.00" fill="#000000">::is_started</text>
</a>
</g>
</g>
<!-- Node397&#45;&gt;Node398 -->
<g id="edge1" class="edge">
<title>Node397&#45;&gt;Node398</title>
<path fill="none" stroke="#191970" d="M113.4557,-169.1036C121.6547,-170.3421 130.2291,-171.6373 138.8098,-172.9335"/>
<polygon fill="#191970" stroke="#191970" points="138.4529,-176.4192 148.8635,-174.4522 139.4985,-169.4977 138.4529,-176.4192"/>
</g>
<!-- Node429 -->
<g id="node33" class="node">
<title>Node429</title>
<g id="a_node33"><a xlink:href="../../df/d78/classpx4_1_1logger_1_1_log_writer_file.html#ad6b90cdb5047aeb065939164cd840493" target="_top" xlink:title="px4::logger::LogWriterFile\l::is_started">
<polygon fill="#ffffff" stroke="#000000" points="158,-121.5 158,-151.5 286,-151.5 286,-121.5 158,-121.5"/>
<text text-anchor="start" x="166" y="-139.5" font-family="Helvetica,sans-Serif" font-size="10.00" fill="#000000">px4::logger::LogWriterFile</text>
<text text-anchor="middle" x="222" y="-128.5" font-family="Helvetica,sans-Serif" font-size="10.00" fill="#000000">::is_started</text>
</a>
</g>
</g>
<!-- Node397&#45;&gt;Node429 -->
<g id="edge36" class="edge">
<title>Node397&#45;&gt;Node429</title>
<path fill="none" stroke="#191970" d="M113.4557,-152.2406C124.5204,-150.636 136.2687,-148.9323 147.7937,-147.261"/>
<polygon fill="#191970" stroke="#191970" points="148.4471,-150.703 157.8413,-145.804 147.4425,-143.7754 148.4471,-150.703"/>
</g>
<!-- Node399 -->
<g id="node3" class="node">
<title>Node399</title>
<g id="a_node3"><a xlink:href="../../d9/d99/classpx4_1_1logger_1_1_log_writer_mavlink.html#a715caf561d7426e6d75b47ea69c26b8b" target="_top" xlink:title="px4::logger::LogWriterMavlink\l::write_message">
<polygon fill="#ffffff" stroke="#000000" points="331,-170.5 331,-200.5 477,-200.5 477,-170.5 331,-170.5"/>
<text text-anchor="start" x="339" y="-188.5" font-family="Helvetica,sans-Serif" font-size="10.00" fill="#000000">px4::logger::LogWriterMavlink</text>
<text text-anchor="middle" x="404" y="-177.5" font-family="Helvetica,sans-Serif" font-size="10.00" fill="#000000">::write_message</text>
</a>
</g>
</g>
<!-- Node398&#45;&gt;Node399 -->
<g id="edge2" class="edge">
<title>Node398&#45;&gt;Node399</title>
<path fill="none" stroke="#191970" d="M295.2397,-178.8656C303.5962,-178.7556 312.1607,-178.7241 320.6361,-178.7712"/>
<polygon fill="#191970" stroke="#191970" points="320.8778,-182.2735 330.9103,-178.8676 320.9436,-175.2738 320.8778,-182.2735"/>
</g>
<!-- Node428 -->
<g id="node32" class="node">
<title>Node428</title>
<g id="a_node32"><a xlink:href="../../d9/d99/classpx4_1_1logger_1_1_log_writer_mavlink.html#ad98bea03afa190941133b7ea37c5ac07" target="_top" xlink:title="px4::logger::LogWriterMavlink\l::set_need_reliable_transfer">
<polygon fill="#ffffff" stroke="#000000" points="331,-121.5 331,-151.5 477,-151.5 477,-121.5 331,-121.5"/>
<text text-anchor="start" x="339" y="-139.5" font-family="Helvetica,sans-Serif" font-size="10.00" fill="#000000">px4::logger::LogWriterMavlink</text>
<text text-anchor="middle" x="404" y="-128.5" font-family="Helvetica,sans-Serif" font-size="10.00" fill="#000000">::set_need_reliable_transfer</text>
</a>
</g>
</g>
<!-- Node398&#45;&gt;Node428 -->
<g id="edge34" class="edge">
<title>Node398&#45;&gt;Node428</title>
<path fill="none" stroke="#191970" d="M278.0911,-170.3986C297.1225,-165.2747 318.555,-159.5044 338.2691,-154.1968"/>
<polygon fill="#191970" stroke="#191970" points="339.3479,-157.531 348.0941,-151.5516 337.5281,-150.7717 339.3479,-157.531"/>
</g>
<!-- Node399&#45;&gt;Node398 -->
<g id="edge3" class="edge">
<title>Node399&#45;&gt;Node398</title>
<path fill="none" stroke="#191970" d="M330.9103,-192.1324C322.5562,-192.2434 313.9925,-192.2758 305.516,-192.2297"/>
<polygon fill="#191970" stroke="#191970" points="305.2717,-188.7273 295.2397,-192.1344 305.2067,-195.727 305.2717,-188.7273"/>
</g>
<!-- Node400 -->
<g id="node4" class="node">
<title>Node400</title>
<g id="a_node4"><a xlink:href="../../dd/d47/namespacemath.html#a0590ec5bbbdad228b5a47307af425055" target="_top" xlink:title="math::min">
<polygon fill="#ffffff" stroke="#000000" points="556,-176 556,-195 616,-195 616,-176 556,-176"/>
<text text-anchor="middle" x="586" y="-183" font-family="Helvetica,sans-Serif" font-size="10.00" fill="#000000">math::min</text>
</a>
</g>
</g>
<!-- Node399&#45;&gt;Node400 -->
<g id="edge4" class="edge">
<title>Node399&#45;&gt;Node400</title>
<path fill="none" stroke="#191970" d="M477.2397,-185.5C500.6232,-185.5 525.6346,-185.5 545.7693,-185.5"/>
<polygon fill="#191970" stroke="#191970" points="545.8196,-189.0001 555.8196,-185.5 545.8195,-182.0001 545.8196,-189.0001"/>
</g>
<!-- Node401 -->
<g id="node5" class="node">
<title>Node401</title>
<g id="a_node5"><a xlink:href="../../d9/d99/classpx4_1_1logger_1_1_log_writer_mavlink.html#a9198b429adaaa9df6ba778ffed5a44ba" target="_top" xlink:title="publish message, wait for ack if needed &amp; reset message ">
<polygon fill="#ffffff" stroke="#000000" points="513,-124.5 513,-154.5 659,-154.5 659,-124.5 513,-124.5"/>
<text text-anchor="start" x="521" y="-142.5" font-family="Helvetica,sans-Serif" font-size="10.00" fill="#000000">px4::logger::LogWriterMavlink</text>
<text text-anchor="middle" x="586" y="-131.5" font-family="Helvetica,sans-Serif" font-size="10.00" fill="#000000">::publish_message</text>
</a>
</g>
</g>
<!-- Node399&#45;&gt;Node401 -->
<g id="edge5" class="edge">
<title>Node399&#45;&gt;Node401</title>
<path fill="none" stroke="#191970" d="M463.5936,-170.4379C480.4926,-166.1667 499.0385,-161.4793 516.4699,-157.0735"/>
<polygon fill="#191970" stroke="#191970" points="517.746,-160.3611 526.5835,-154.5174 516.0307,-153.5746 517.746,-160.3611"/>
</g>
<!-- Node402 -->
<g id="node6" class="node">
<title>Node402</title>
<g id="a_node6"><a xlink:href="../../d6/d10/drv__hrt_8h.html#a1450e339b7c5b8d47656500167a6676d" target="_top" xlink:title="Get absolute time in [us] (does not wrap). ">
<polygon fill="#ffffff" stroke="#000000" points="896.5,-547 896.5,-566 990.5,-566 990.5,-547 896.5,-547"/>
<text text-anchor="middle" x="943.5" y="-554" font-family="Helvetica,sans-Serif" font-size="10.00" fill="#000000">hrt_absolute_time</text>
</a>
</g>
</g>
<!-- Node401&#45;&gt;Node402 -->
<g id="edge6" class="edge">
<title>Node401&#45;&gt;Node402</title>
<path fill="none" stroke="#191970" d="M644.7181,-154.579C650.0943,-157.8109 655.0084,-161.7351 659,-166.5 716.9984,-235.7345 651.912,-287.1233 695,-366.5 747.9508,-464.046 780.475,-482.7101 877,-537.5 880.924,-539.7273 885.1288,-541.7102 889.4476,-543.4723"/>
<polygon fill="#191970" stroke="#191970" points="888.4255,-546.8254 899.0191,-546.9866 890.8382,-540.2543 888.4255,-546.8254"/>
</g>
<!-- Node403 -->
<g id="node7" class="node">
<title>Node403</title>
<g id="a_node7"><a xlink:href="../../d9/d39/classu_o_r_b_1_1_publication_queued.html#aff357a02d25bf3f21d571af5228ef235" target="_top" xlink:title="Publish the struct. ">
<polygon fill="#ffffff" stroke="#000000" points="702.5,-146.5 702.5,-176.5 833.5,-176.5 833.5,-146.5 702.5,-146.5"/>
<text text-anchor="start" x="710.5" y="-164.5" font-family="Helvetica,sans-Serif" font-size="10.00" fill="#000000">uORB::PublicationQueued</text>
<text text-anchor="middle" x="768" y="-153.5" font-family="Helvetica,sans-Serif" font-size="10.00" fill="#000000">::publish</text>
</a>
</g>
</g>
<!-- Node401&#45;&gt;Node403 -->
<g id="edge7" class="edge">
<title>Node401&#45;&gt;Node403</title>
<path fill="none" stroke="#191970" d="M659.2397,-148.3531C670.1296,-149.6695 681.3727,-151.0286 692.3118,-152.3509"/>
<polygon fill="#191970" stroke="#191970" points="691.9058,-155.8272 702.2536,-153.5526 692.7459,-148.8778 691.9058,-155.8272"/>
</g>
<!-- Node404 -->
<g id="node8" class="node">
<title>Node404</title>
<g id="a_node8"><a xlink:href="../../da/dc9/posix_2cdev__platform_8cpp.html#ab58015a6dcb46cf377c9091677cd4417" target="_top" xlink:title="px4_poll">
<polygon fill="#ffffff" stroke="#000000" points="741.5,-108 741.5,-127 794.5,-127 794.5,-108 741.5,-108"/>
<text text-anchor="middle" x="768" y="-115" font-family="Helvetica,sans-Serif" font-size="10.00" fill="#000000">px4_poll</text>
</a>
</g>
</g>
<!-- Node401&#45;&gt;Node404 -->
<g id="edge8" class="edge">
<title>Node401&#45;&gt;Node404</title>
<path fill="none" stroke="#191970" d="M659.2397,-130.6469C684.0824,-127.6439 710.7626,-124.4188 731.4803,-121.9145"/>
<polygon fill="#191970" stroke="#191970" points="731.9252,-125.3863 741.4329,-120.7114 731.0851,-118.4368 731.9252,-125.3863"/>
</g>
<!-- Node410 -->
<g id="node14" class="node">
<title>Node410</title>
<g id="a_node14"><a xlink:href="../../d9/d97/u_o_r_b_8cpp.html#a2c09f842c44c64a06bcfe7a921f63cdf" target="_top" xlink:title="orb_copy">
<polygon fill="#ffffff" stroke="#000000" points="740,-70 740,-89 796,-89 796,-70 740,-70"/>
<text text-anchor="middle" x="768" y="-77" font-family="Helvetica,sans-Serif" font-size="10.00" fill="#000000">orb_copy</text>
</a>
</g>
</g>
<!-- Node401&#45;&gt;Node410 -->
<g id="edge14" class="edge">
<title>Node401&#45;&gt;Node410</title>
<path fill="none" stroke="#191970" d="M622.9921,-124.479C643.9334,-116.2559 670.7179,-106.2033 695,-98.5 706.1818,-94.9526 718.4764,-91.5615 729.7359,-88.6515"/>
<polygon fill="#191970" stroke="#191970" points="730.8881,-91.9703 739.7237,-86.1237 729.1706,-85.1843 730.8881,-91.9703"/>
</g>
<!-- Node416 -->
<g id="node20" class="node">
<title>Node416</title>
<g id="a_node20"><a xlink:href="../../d6/d10/drv__hrt_8h.html#af3323411019f0236c77bf283463cb50b" target="_top" xlink:title="Compute the delta between a timestamp taken in the past and now. ">
<polygon fill="#ffffff" stroke="#000000" points="722.5,-338 722.5,-357 813.5,-357 813.5,-338 722.5,-338"/>
<text text-anchor="middle" x="768" y="-345" font-family="Helvetica,sans-Serif" font-size="10.00" fill="#000000">hrt_elapsed_time</text>
</a>
</g>
</g>
<!-- Node401&#45;&gt;Node416 -->
<g id="edge21" class="edge">
<title>Node401&#45;&gt;Node416</title>
<path fill="none" stroke="#191970" d="M639.7518,-154.5317C646.6408,-157.8115 653.2752,-161.7606 659,-166.5 713.5197,-211.6353 747.7766,-291.5574 761.3433,-328.1858"/>
<polygon fill="#191970" stroke="#191970" points="758.0828,-329.4626 764.7556,-337.6921 764.6713,-327.0976 758.0828,-329.4626"/>
</g>
<!-- Node427 -->
<g id="node31" class="node">
<title>Node427</title>
<g id="a_node31"><a xlink:href="../../d9/d99/classpx4_1_1logger_1_1_log_writer_mavlink.html#a35bca730eef6b144418144edee4262df" target="_top" xlink:title="px4::logger::LogWriterMavlink\l::stop_log">
<polygon fill="#ffffff" stroke="#000000" points="695,-20.5 695,-50.5 841,-50.5 841,-20.5 695,-20.5"/>
<text text-anchor="start" x="703" y="-38.5" font-family="Helvetica,sans-Serif" font-size="10.00" fill="#000000">px4::logger::LogWriterMavlink</text>
<text text-anchor="middle" x="768" y="-27.5" font-family="Helvetica,sans-Serif" font-size="10.00" fill="#000000">::stop_log</text>
</a>
</g>
</g>
<!-- Node401&#45;&gt;Node427 -->
<g id="edge33" class="edge">
<title>Node401&#45;&gt;Node427</title>
<path fill="none" stroke="#191970" d="M603.4297,-124.3224C624.0963,-106.9529 660.1472,-78.5807 695,-60.5 699.2363,-58.3023 703.7072,-56.2322 708.2654,-54.2966"/>
<polygon fill="#191970" stroke="#191970" points="709.718,-57.4851 717.6972,-50.5149 707.1129,-50.9879 709.718,-57.4851"/>
</g>
<!-- Node405 -->
<g id="node9" class="node">
<title>Node405</title>
<g id="a_node9"><a xlink:href="../../da/dc9/posix_2cdev__platform_8cpp.html#abea81ef5044c7986b51a035f42582323" target="_top" xlink:title="get_vdev">
<polygon fill="#ffffff" stroke="#000000" points="1218,-88 1218,-107 1274,-107 1274,-88 1218,-88"/>
<text text-anchor="middle" x="1246" y="-95" font-family="Helvetica,sans-Serif" font-size="10.00" fill="#000000">get_vdev</text>
</a>
</g>
</g>
<!-- Node404&#45;&gt;Node405 -->
<g id="edge9" class="edge">
<title>Node404&#45;&gt;Node405</title>
<path fill="none" stroke="#191970" d="M794.7236,-116.3819C874.9925,-113.0233 1114.1877,-103.0152 1207.8176,-99.0976"/>
<polygon fill="#191970" stroke="#191970" points="1208.132,-102.5876 1217.9769,-98.6725 1207.8393,-95.5937 1208.132,-102.5876"/>
</g>
<!-- Node406 -->
<g id="node10" class="node">
<title>Node406</title>
<g id="a_node10"><a xlink:href="../../d8/d26/classcdev_1_1_c_dev.html#a4e87079d3480b1d29fecc06314bb4c36" target="_top" xlink:title="Perform a poll setup/teardown operation. ">
<polygon fill="#ffffff" stroke="#000000" points="898.5,-129 898.5,-148 988.5,-148 988.5,-129 898.5,-129"/>
<text text-anchor="middle" x="943.5" y="-136" font-family="Helvetica,sans-Serif" font-size="10.00" fill="#000000">cdev::CDev::poll</text>
</a>
</g>
</g>
<!-- Node404&#45;&gt;Node406 -->
<g id="edge10" class="edge">
<title>Node404&#45;&gt;Node406</title>
<path fill="none" stroke="#191970" d="M794.6547,-120.6894C819.38,-123.648 856.9527,-128.1439 888.1615,-131.8783"/>
<polygon fill="#191970" stroke="#191970" points="888.1285,-135.3992 898.4736,-133.1122 888.9603,-128.4488 888.1285,-135.3992"/>
</g>
<!-- Node407 -->
<g id="node11" class="node">
<title>Node407</title>
<g id="a_node11"><a xlink:href="../../d8/d26/classcdev_1_1_c_dev.html#a3db33a5bc64680d29da9470f606f4457" target="_top" xlink:title="Check the current state of the device for poll events from the perspective of the file...">
<polygon fill="#ffffff" stroke="#000000" points="1046,-225 1046,-244 1163,-244 1163,-225 1046,-225"/>
<text text-anchor="middle" x="1104.5" y="-232" font-family="Helvetica,sans-Serif" font-size="10.00" fill="#000000">cdev::CDev::poll_state</text>
</a>
</g>
</g>
<!-- Node406&#45;&gt;Node407 -->
<g id="edge11" class="edge">
<title>Node406&#45;&gt;Node407</title>
<path fill="none" stroke="#191970" d="M988.5374,-146.5115C996.165,-149.1849 1003.6573,-152.7491 1010,-157.5 1033.9813,-175.4631 1022.4856,-195.9298 1046,-214.5 1048.9087,-216.7971 1052.0971,-218.8384 1055.4368,-220.6511"/>
<polygon fill="#191970" stroke="#191970" points="1054.0037,-223.8449 1064.5424,-224.9342 1056.9833,-217.5106 1054.0037,-223.8449"/>
</g>
<!-- Node408 -->
<g id="node12" class="node">
<title>Node408</title>
<g id="a_node12"><a xlink:href="../../d8/d26/classcdev_1_1_c_dev.html#ab16e9c91aca41e5c7067f0d978ceee2a" target="_top" xlink:title="Remove a poll waiter. ">
<polygon fill="#ffffff" stroke="#000000" points="1051,-175.5 1051,-205.5 1158,-205.5 1158,-175.5 1051,-175.5"/>
<text text-anchor="start" x="1059" y="-193.5" font-family="Helvetica,sans-Serif" font-size="10.00" fill="#000000">cdev::CDev::remove</text>
<text text-anchor="middle" x="1104.5" y="-182.5" font-family="Helvetica,sans-Serif" font-size="10.00" fill="#000000">_poll_waiter</text>
</a>
</g>
</g>
<!-- Node406&#45;&gt;Node408 -->
<g id="edge12" class="edge">
<title>Node406&#45;&gt;Node408</title>
<path fill="none" stroke="#191970" d="M978.4717,-148.0828C988.6726,-150.9884 999.8137,-154.2692 1010,-157.5 1024.1317,-161.9821 1039.3394,-167.1418 1053.3366,-172.0296"/>
<polygon fill="#191970" stroke="#191970" points="1052.2106,-175.3437 1062.8054,-175.3584 1054.5322,-168.7399 1052.2106,-175.3437"/>
</g>
<!-- Node409 -->
<g id="node13" class="node">
<title>Node409</title>
<g id="a_node13"><a xlink:href="../../d8/d26/classcdev_1_1_c_dev.html#a63c9bb78722c6d0be5dc52cf9cc6bb52" target="_top" xlink:title="Store a pollwaiter in a slot where we can find it later. ">
<polygon fill="#ffffff" stroke="#000000" points="1046,-126.5 1046,-156.5 1163,-156.5 1163,-126.5 1046,-126.5"/>
<text text-anchor="start" x="1054" y="-144.5" font-family="Helvetica,sans-Serif" font-size="10.00" fill="#000000">cdev::CDev::store_poll</text>
<text text-anchor="middle" x="1104.5" y="-133.5" font-family="Helvetica,sans-Serif" font-size="10.00" fill="#000000">_waiter</text>
</a>
</g>
</g>
<!-- Node406&#45;&gt;Node409 -->
<g id="edge13" class="edge">
<title>Node406&#45;&gt;Node409</title>
<path fill="none" stroke="#191970" d="M988.7759,-139.3437C1003.272,-139.6138 1019.6663,-139.9192 1035.4599,-140.2135"/>
<polygon fill="#191970" stroke="#191970" points="1035.6622,-143.7178 1045.7257,-140.4048 1035.7927,-136.719 1035.6622,-143.7178"/>
</g>
<!-- Node411 -->
<g id="node15" class="node">
<title>Node411</title>
<g id="a_node15"><a xlink:href="../../d3/da9/classu_o_r_b_1_1_manager.html#a9d829b3ea49d16d03c2fa37ef2bb24a5" target="_top" xlink:title="Method to get the singleton instance for the uORB::Manager. ">
<polygon fill="#ffffff" stroke="#000000" points="890,-.5 890,-30.5 997,-30.5 997,-.5 890,-.5"/>
<text text-anchor="start" x="898" y="-18.5" font-family="Helvetica,sans-Serif" font-size="10.00" fill="#000000">uORB::Manager::get</text>
<text text-anchor="middle" x="943.5" y="-7.5" font-family="Helvetica,sans-Serif" font-size="10.00" fill="#000000">_instance</text>
</a>
</g>
</g>
<!-- Node410&#45;&gt;Node411 -->
<g id="edge15" class="edge">
<title>Node410&#45;&gt;Node411</title>
<path fill="none" stroke="#191970" d="M796.198,-73.3007C809.9438,-69.896 826.5802,-65.2013 841,-59.5 857.8244,-52.848 860.5,-47.9201 877,-40.5 881.6613,-38.4038 886.5559,-36.3312 891.4861,-34.3295"/>
<polygon fill="#191970" stroke="#191970" points="892.9493,-37.5146 900.9593,-30.5798 890.373,-31.0059 892.9493,-37.5146"/>
</g>
<!-- Node413 -->
<g id="node17" class="node">
<title>Node413</title>
<g id="a_node17"><a xlink:href="../../d3/da9/classu_o_r_b_1_1_manager.html#af1048c82b439300c706fe0a083b61f90" target="_top" xlink:title="Fetch data from a topic. ">
<polygon fill="#ffffff" stroke="#000000" points="877,-50 877,-69 1010,-69 1010,-50 877,-50"/>
<text text-anchor="middle" x="943.5" y="-57" font-family="Helvetica,sans-Serif" font-size="10.00" fill="#000000">uORB::Manager::orb_copy</text>
</a>
</g>
</g>
<!-- Node410&#45;&gt;Node413 -->
<g id="edge17" class="edge">
<title>Node410&#45;&gt;Node413</title>
<path fill="none" stroke="#191970" d="M796.1971,-76.2867C815.2731,-74.1127 841.4586,-71.1286 866.4655,-68.2789"/>
<polygon fill="#191970" stroke="#191970" points="867.1736,-71.7209 876.7129,-67.1111 866.3809,-64.7659 867.1736,-71.7209"/>
</g>
<!-- Node412 -->
<g id="node16" class="node">
<title>Node412</title>
<g id="a_node16"><a xlink:href="../../d3/da9/classu_o_r_b_1_1_manager.html#a083331e24ac4f99ac11a0aab1b1681b4" target="_top" xlink:title="Get the DeviceMaster. ">
<polygon fill="#ffffff" stroke="#000000" points="1051,-.5 1051,-30.5 1158,-30.5 1158,-.5 1051,-.5"/>
<text text-anchor="start" x="1059" y="-18.5" font-family="Helvetica,sans-Serif" font-size="10.00" fill="#000000">uORB::Manager::get</text>
<text text-anchor="middle" x="1104.5" y="-7.5" font-family="Helvetica,sans-Serif" font-size="10.00" fill="#000000">_device_master</text>
</a>
</g>
</g>
<!-- Node411&#45;&gt;Node412 -->
<g id="edge16" class="edge">
<title>Node411&#45;&gt;Node412</title>
<path fill="none" stroke="#191970" d="M997.1107,-15.5C1011.0227,-15.5 1026.1452,-15.5 1040.5316,-15.5"/>
<polygon fill="#191970" stroke="#191970" points="1040.8492,-19.0001 1050.8491,-15.5 1040.8491,-12.0001 1040.8492,-19.0001"/>
</g>
<!-- Node414 -->
<g id="node18" class="node">
<title>Node414</title>
<g id="a_node18"><a xlink:href="../../da/dc9/posix_2cdev__platform_8cpp.html#a2fc1ca62e376a5c0dd2ad9be1b196afa" target="_top" xlink:title="px4_read">
<polygon fill="#ffffff" stroke="#000000" points="1076.5,-50 1076.5,-69 1132.5,-69 1132.5,-50 1076.5,-50"/>
<text text-anchor="middle" x="1104.5" y="-57" font-family="Helvetica,sans-Serif" font-size="10.00" fill="#000000">px4_read</text>
</a>
</g>
</g>
<!-- Node413&#45;&gt;Node414 -->
<g id="edge18" class="edge">
<title>Node413&#45;&gt;Node414</title>
<path fill="none" stroke="#191970" d="M1010.3798,-59.5C1029.2316,-59.5 1049.1098,-59.5 1065.7155,-59.5"/>
<polygon fill="#191970" stroke="#191970" points="1066.1116,-63.0001 1076.1116,-59.5 1066.1116,-56.0001 1066.1116,-63.0001"/>
</g>
<!-- Node414&#45;&gt;Node405 -->
<g id="edge19" class="edge">
<title>Node414&#45;&gt;Node405</title>
<path fill="none" stroke="#191970" d="M1132.7946,-67.0985C1154.3889,-72.8977 1184.3567,-80.9456 1208.0346,-87.3044"/>
<polygon fill="#191970" stroke="#191970" points="1207.1889,-90.7012 1217.7545,-89.9146 1209.0045,-83.9407 1207.1889,-90.7012"/>
</g>
<!-- Node415 -->
<g id="node19" class="node">
<title>Node415</title>
<g id="a_node19"><a xlink:href="../../d8/d26/classcdev_1_1_c_dev.html#a27aeca35ca67af03a4206b8409ec615b" target="_top" xlink:title="Perform a read from the device. ">
<polygon fill="#ffffff" stroke="#000000" points="1199,-50 1199,-69 1293,-69 1293,-50 1199,-50"/>
<text text-anchor="middle" x="1246" y="-57" font-family="Helvetica,sans-Serif" font-size="10.00" fill="#000000">cdev::CDev::read</text>
</a>
</g>
</g>
<!-- Node414&#45;&gt;Node415 -->
<g id="edge20" class="edge">
<title>Node414&#45;&gt;Node415</title>
<path fill="none" stroke="#191970" d="M1132.7946,-59.5C1148.7918,-59.5 1169.3844,-59.5 1188.6109,-59.5"/>
<polygon fill="#191970" stroke="#191970" points="1188.8104,-63.0001 1198.8103,-59.5 1188.8103,-56.0001 1188.8104,-63.0001"/>
</g>
<!-- Node416&#45;&gt;Node402 -->
<g id="edge22" class="edge">
<title>Node416&#45;&gt;Node402</title>
<path fill="none" stroke="#191970" d="M774.3303,-357.2132C787.3428,-377.3075 817.8192,-425.0346 841,-466.5 858.2642,-497.382 849.7113,-514.9815 877,-537.5 880.0894,-540.0494 883.5029,-542.257 887.1036,-544.1686"/>
<polygon fill="#191970" stroke="#191970" points="885.8059,-547.4227 896.3612,-548.3367 888.6797,-541.0398 885.8059,-547.4227"/>
</g>
<!-- Node417 -->
<g id="node21" class="node">
<title>Node417</title>
<g id="a_node21"><a xlink:href="../../d6/d10/drv__hrt_8h.html#a185fdd7c4d51c3f7ef22133ef56f9a55" target="_top" xlink:title="Call callout(arg) after delay has elapsed. ">
<polygon fill="#ffffff" stroke="#000000" points="907,-319 907,-338 980,-338 980,-319 907,-319"/>
<text text-anchor="middle" x="943.5" y="-326" font-family="Helvetica,sans-Serif" font-size="10.00" fill="#000000">hrt_call_after</text>
</a>
</g>
</g>
<!-- Node416&#45;&gt;Node417 -->
<g id="edge23" class="edge">
<title>Node416&#45;&gt;Node417</title>
<path fill="none" stroke="#191970" d="M813.6524,-342.5576C839.1818,-339.7937 870.9414,-336.3553 896.6604,-333.571"/>
<polygon fill="#191970" stroke="#191970" points="897.3496,-337.0169 906.9147,-332.4608 896.5961,-330.0575 897.3496,-337.0169"/>
</g>
<!-- Node418 -->
<g id="node22" class="node">
<title>Node418</title>
<g id="a_node22"><a xlink:href="../../d6/d10/drv__hrt_8h.html#a7d49af6c126c7e49c903e2e47e70d716" target="_top" xlink:title="Call callout(arg) at absolute time calltime. ">
<polygon fill="#ffffff" stroke="#000000" points="912.5,-281 912.5,-300 974.5,-300 974.5,-281 912.5,-281"/>
<text text-anchor="middle" x="943.5" y="-288" font-family="Helvetica,sans-Serif" font-size="10.00" fill="#000000">hrt_call_at</text>
</a>
</g>
</g>
<!-- Node416&#45;&gt;Node418 -->
<g id="edge24" class="edge">
<title>Node416&#45;&gt;Node418</title>
<path fill="none" stroke="#191970" d="M794.2896,-337.8613C816.2797,-329.9133 848.5345,-318.5203 877,-309.5 885.2269,-306.893 894.0763,-304.2522 902.55,-301.802"/>
<polygon fill="#191970" stroke="#191970" points="903.6111,-305.139 912.2651,-299.0268 901.6883,-298.4082 903.6111,-305.139"/>
</g>
<!-- Node419 -->
<g id="node23" class="node">
<title>Node419</title>
<g id="a_node23"><a xlink:href="../../d6/d10/drv__hrt_8h.html#a2c90bdef11ab9384cde0fa4c080ec697" target="_top" xlink:title="hrt_call_delay">
<polygon fill="#ffffff" stroke="#000000" points="905,-243 905,-262 982,-262 982,-243 905,-243"/>
<text text-anchor="middle" x="943.5" y="-250" font-family="Helvetica,sans-Serif" font-size="10.00" fill="#000000">hrt_call_delay</text>
</a>
</g>
</g>
<!-- Node416&#45;&gt;Node419 -->
<g id="edge25" class="edge">
<title>Node416&#45;&gt;Node419</title>
<path fill="none" stroke="#191970" d="M778.995,-337.9479C797.8349,-322.0331 838.0354,-290.0148 877,-271.5 882.6936,-268.7945 888.8488,-266.3997 895.0367,-264.3018"/>
<polygon fill="#191970" stroke="#191970" points="896.2408,-267.5921 904.7259,-261.2475 894.1363,-260.9159 896.2408,-267.5921"/>
</g>
<!-- Node420 -->
<g id="node24" class="node">
<title>Node420</title>
<g id="a_node24"><a xlink:href="../../d6/d10/drv__hrt_8h.html#afef961eed389b142649f3d904df16cd2" target="_top" xlink:title="Call callout(arg) after delay, and then after every interval. ">
<polygon fill="#ffffff" stroke="#000000" points="905,-205 905,-224 982,-224 982,-205 905,-205"/>
<text text-anchor="middle" x="943.5" y="-212" font-family="Helvetica,sans-Serif" font-size="10.00" fill="#000000">hrt_call_every</text>
</a>
</g>
</g>
<!-- Node416&#45;&gt;Node420 -->
<g id="edge26" class="edge">
<title>Node416&#45;&gt;Node420</title>
<path fill="none" stroke="#191970" d="M774.4068,-337.9135C789.5575,-315.9987 829.8791,-261.9419 877,-233.5 882.5318,-230.1611 888.6763,-227.3863 894.9316,-225.0861"/>
<polygon fill="#191970" stroke="#191970" points="896.373,-228.2966 904.7802,-221.8492 894.1873,-221.6466 896.373,-228.2966"/>
</g>
<!-- Node421 -->
<g id="node25" class="node">
<title>Node421</title>
<g id="a_node25"><a xlink:href="../../d6/d10/drv__hrt_8h.html#a0d90b23c796be1ed96cc58db0a38046d" target="_top" xlink:title="Initialise a hrt_call structure. ">
<polygon fill="#ffffff" stroke="#000000" points="910.5,-167 910.5,-186 976.5,-186 976.5,-167 910.5,-167"/>
<text text-anchor="middle" x="943.5" y="-174" font-family="Helvetica,sans-Serif" font-size="10.00" fill="#000000">hrt_call_init</text>
</a>
</g>
</g>
<!-- Node416&#45;&gt;Node421 -->
<g id="edge27" class="edge">
<title>Node416&#45;&gt;Node421</title>
<path fill="none" stroke="#191970" d="M772.0617,-337.9621C783.9735,-311.1581 821.5082,-234.5733 877,-195.5 884.0564,-190.5314 892.3924,-186.8551 900.7333,-184.1371"/>
<polygon fill="#191970" stroke="#191970" points="901.7937,-187.4743 910.4507,-181.3665 899.8743,-180.7426 901.7937,-187.4743"/>
</g>
<!-- Node422 -->
<g id="node26" class="node">
<title>Node422</title>
<g id="a_node26"><a xlink:href="../../d6/d10/drv__hrt_8h.html#a384e9e9c38310512247c86560adb0b6d" target="_top" xlink:title="If this returns true, the entry has been invoked and removed from the callout list, or it has never been entered. ">
<polygon fill="#ffffff" stroke="#000000" points="914,-509 914,-528 973,-528 973,-509 914,-509"/>
<text text-anchor="middle" x="943.5" y="-516" font-family="Helvetica,sans-Serif" font-size="10.00" fill="#000000">hrt_called</text>
</a>
</g>
</g>
<!-- Node416&#45;&gt;Node422 -->
<g id="edge28" class="edge">
<title>Node416&#45;&gt;Node422</title>
<path fill="none" stroke="#191970" d="M773.7993,-357.2395C792.0426,-387.5853 848.7231,-479.5894 877,-499.5 885.0151,-505.1437 894.6813,-509.12 904.1303,-511.9186"/>
<polygon fill="#191970" stroke="#191970" points="903.262,-515.3091 913.8202,-514.4291 905.0177,-508.5329 903.262,-515.3091"/>
</g>
<!-- Node423 -->
<g id="node27" class="node">
<title>Node423</title>
<g id="a_node27"><a xlink:href="../../d6/d10/drv__hrt_8h.html#aa4f22acddbadeed844ef6329629d2837" target="_top" xlink:title="Remove the entry from the callout list. ">
<polygon fill="#ffffff" stroke="#000000" points="912.5,-471 912.5,-490 974.5,-490 974.5,-471 912.5,-471"/>
<text text-anchor="middle" x="943.5" y="-478" font-family="Helvetica,sans-Serif" font-size="10.00" fill="#000000">hrt_cancel</text>
</a>
</g>
</g>
<!-- Node416&#45;&gt;Node423 -->
<g id="edge29" class="edge">
<title>Node416&#45;&gt;Node423</title>
<path fill="none" stroke="#191970" d="M774.4068,-357.0865C789.5575,-379.0013 829.8791,-433.0581 877,-461.5 884.7676,-466.1885 893.7434,-469.7645 902.5374,-472.4764"/>
<polygon fill="#191970" stroke="#191970" points="901.7435,-475.8882 912.3149,-475.1842 903.6118,-469.1421 901.7435,-475.8882"/>
</g>
<!-- Node424 -->
<g id="node28" class="node">
<title>Node424</title>
<g id="a_node28"><a xlink:href="../../d6/d10/drv__hrt_8h.html#a721dee0a94d421de75e4836aed05c0b8" target="_top" xlink:title="Compute the delta between a timestamp taken in the past and now. ">
<polygon fill="#ffffff" stroke="#000000" points="881,-433 881,-452 1006,-452 1006,-433 881,-433"/>
<text text-anchor="middle" x="943.5" y="-440" font-family="Helvetica,sans-Serif" font-size="10.00" fill="#000000">hrt_elapsed_time_atomic</text>
</a>
</g>
</g>
<!-- Node416&#45;&gt;Node424 -->
<g id="edge30" class="edge">
<title>Node416&#45;&gt;Node424</title>
<path fill="none" stroke="#191970" d="M778.995,-357.0521C797.8349,-372.9669 838.0354,-404.9852 877,-423.5 881.8803,-425.819 887.0996,-427.9097 892.388,-429.7809"/>
<polygon fill="#191970" stroke="#191970" points="891.3305,-433.1175 901.9234,-432.9137 893.5155,-426.4672 891.3305,-433.1175"/>
</g>
<!-- Node425 -->
<g id="node29" class="node">
<title>Node425</title>
<g id="a_node29"><a xlink:href="../../d6/d10/drv__hrt_8h.html#a4d623c5e3d99e6855ac85e606bd87e1c" target="_top" xlink:title="hrt_init">
<polygon fill="#ffffff" stroke="#000000" points="920.5,-395 920.5,-414 966.5,-414 966.5,-395 920.5,-395"/>
<text text-anchor="middle" x="943.5" y="-402" font-family="Helvetica,sans-Serif" font-size="10.00" fill="#000000">hrt_init</text>
</a>
</g>
</g>
<!-- Node416&#45;&gt;Node425 -->
<g id="edge31" class="edge">
<title>Node416&#45;&gt;Node425</title>
<path fill="none" stroke="#191970" d="M794.2896,-357.1387C816.2797,-365.0867 848.5345,-376.4797 877,-385.5 887.8426,-388.9358 899.7662,-392.4304 910.4863,-395.4699"/>
<polygon fill="#191970" stroke="#191970" points="909.7473,-398.8976 920.321,-398.2278 911.6374,-392.1576 909.7473,-398.8976"/>
</g>
<!-- Node426 -->
<g id="node30" class="node">
<title>Node426</title>
<g id="a_node30"><a xlink:href="../../d6/d10/drv__hrt_8h.html#a37665926e3f760d970b8d2e5d63c94f8" target="_top" xlink:title="Store the absolute time in an interrupt&#45;safe fashion. ">
<polygon fill="#ffffff" stroke="#000000" points="883,-357 883,-376 1004,-376 1004,-357 883,-357"/>
<text text-anchor="middle" x="943.5" y="-364" font-family="Helvetica,sans-Serif" font-size="10.00" fill="#000000">hrt_store_absolute_time</text>
</a>
</g>
</g>
<!-- Node416&#45;&gt;Node426 -->
<g id="edge32" class="edge">
<title>Node416&#45;&gt;Node426</title>
<path fill="none" stroke="#191970" d="M813.6524,-352.4424C831.7241,-354.3989 852.9178,-356.6934 872.8807,-358.8546"/>
<polygon fill="#191970" stroke="#191970" points="872.5538,-362.3396 882.8725,-359.9363 873.3073,-355.3802 872.5538,-362.3396"/>
</g>
<!-- Node428&#45;&gt;Node401 -->
<g id="edge35" class="edge">
<title>Node428&#45;&gt;Node401</title>
<path fill="none" stroke="#191970" d="M477.2397,-137.7072C485.5962,-137.845 494.1607,-137.9862 502.6361,-138.1259"/>
<polygon fill="#191970" stroke="#191970" points="502.8539,-141.6298 512.9103,-138.2952 502.9694,-134.6308 502.8539,-141.6298"/>
</g>
</g>
</svg>
        <g id="navigator" transform="translate(0 0)" fill="#404254">
                <rect fill="#f2f5e9" fill-opacity="0.5" stroke="#606060" stroke-width=".5" x="0" y="0" width="60" height="60"/>
                <use id="zoomplus" xlink:href="#zoomPlus" x="17" y="9" onmousedown="handleZoom(evt,'in')"/>
                <use id="zoomminus" xlink:href="#zoomMin" x="42" y="9" onmousedown="handleZoom(evt,'out')"/>
                <use id="reset" xlink:href="#resetDef" x="30" y="36" onmousedown="handleReset()"/>
                <g id="arrowUp" xlink:href="#dirArrow" transform="translate(30 24)" onmousedown="handlePan(0,-1)">
                  <use xlink:href="#rim" fill="#404040">
                        <set attributeName="fill" to="#808080" begin="arrowUp.mouseover" end="arrowUp.mouseout"/>
                  </use>
                  <path fill="none" stroke="white" stroke-width="1.5" d="M0,-3.0v7 M-2.5,-0.5L0,-3.0L2.5,-0.5"/>
                </g>
                <g id="arrowRight" xlink:href="#dirArrow" transform="rotate(90) translate(36 -43)" onmousedown="handlePan(1,0)">
                  <use xlink:href="#rim" fill="#404040">
                        <set attributeName="fill" to="#808080" begin="arrowRight.mouseover" end="arrowRight.mouseout"/>
                  </use>
                  <path fill="none" stroke="white" stroke-width="1.5" d="M0,-3.0v7 M-2.5,-0.5L0,-3.0L2.5,-0.5"/>
                </g>
                <g id="arrowDown" xlink:href="#dirArrow" transform="rotate(180) translate(-30 -48)" onmousedown="handlePan(0,1)">
                  <use xlink:href="#rim" fill="#404040">
                        <set attributeName="fill" to="#808080" begin="arrowDown.mouseover" end="arrowDown.mouseout"/>
                  </use>
                  <path fill="none" stroke="white" stroke-width="1.5" d="M0,-3.0v7 M-2.5,-0.5L0,-3.0L2.5,-0.5"/>
                </g>
                <g id="arrowLeft" xlink:href="#dirArrow" transform="rotate(270) translate(-36 17)" onmousedown="handlePan(-1,0)">
                  <use xlink:href="#rim" fill="#404040">
                        <set attributeName="fill" to="#808080" begin="arrowLeft.mouseover" end="arrowLeft.mouseout"/>
                  </use>
                  <path fill="none" stroke="white" stroke-width="1.5" d="M0,-3.0v7 M-2.5,-0.5L0,-3.0L2.5,-0.5"/>
                </g>
        </g>
        <svg viewBox="0 0 15 15" width="100%" height="30px" preserveAspectRatio="xMaxYMin meet">
         <g id="arrow_out" transform="scale(0.3 0.3)">
          <a xlink:href="classpx4_1_1logger_1_1_log_writer_a103890b419a06196175d44a886aa6e7d_cgraph_org.svg" target="_base">
           <rect id="button" ry="5" rx="5" y="6" x="6" height="38" width="38"
                fill="#f2f5e9" fill-opacity="0.5" stroke="#606060" stroke-width="1.0"/>
           <path id="arrow"
             d="M 11.500037,31.436501 C 11.940474,20.09759 22.043105,11.32322 32.158766,21.979434 L 37.068811,17.246167 C 37.068811,17.246167 37.088388,32 37.088388,32 L 22.160133,31.978069 C 22.160133,31.978069 26.997745,27.140456 26.997745,27.140456 C 18.528582,18.264221 13.291696,25.230495 11.500037,31.436501 z"
             style="fill:#404040;"/>
          </a>
         </g>
        </svg>
</svg>
