<?xml version="1.0" encoding="UTF-8" standalone="no"?>
<!DOCTYPE svg PUBLIC "-//W3C//DTD SVG 1.1//EN"
 "http://www.w3.org/Graphics/SVG/1.1/DTD/svg11.dtd">
<!-- Generated by graphviz version 2.38.0 (20140413.2041)
 -->
<!-- Title: px4::logger::LogWriter::is_started Pages: 1 -->
<!--zoomable 215 -->
<svg id="main" version="1.1" xmlns="http://www.w3.org/2000/svg" xmlns:xlink="http://www.w3.org/1999/xlink" xml:space="preserve" onload="init(evt)">
<style type="text/css"><![CDATA[
.edge:hover path { stroke: red; }
.edge:hover polygon { stroke: red; fill: red; }
]]></style>
<script type="text/javascript"><![CDATA[
var edges = document.getElementsByTagName('g');
if (edges && edges.length) {
  for (var i=0;i<edges.length;i++) {
    if (edges[i].id.substr(0,4)=='edge') {
      edges[i].setAttribute('class','edge');
    }
  }
}
]]></script>
        <defs>
                <circle id="rim" cx="0" cy="0" r="7"/>
                <circle id="rim2" cx="0" cy="0" r="3.5"/>
                <g id="zoomPlus">
                        <use xlink:href="#rim" fill="#404040">
                                <set attributeName="fill" to="#808080" begin="zoomplus.mouseover" end="zoomplus.mouseout"/>
                        </use>
                        <path d="M-4,0h8M0,-4v8" fill="none" stroke="white" stroke-width="1.5" pointer-events="none"/>
                </g>
                <g id="zoomMin">
                        <use xlink:href="#rim" fill="#404040">
                                <set attributeName="fill" to="#808080" begin="zoomminus.mouseover" end="zoomminus.mouseout"/>
                        </use>
                        <path d="M-4,0h8" fill="none" stroke="white" stroke-width="1.5" pointer-events="none"/>
                </g>
                <g id="dirArrow">
                        <path fill="none" stroke="white" stroke-width="1.5" d="M0,-3.0v7 M-2.5,-0.5L0,-3.0L2.5,-0.5"/>
                </g>
               <g id="resetDef">
                       <use xlink:href="#rim2" fill="#404040">
                               <set attributeName="fill" to="#808080" begin="reset.mouseover" end="reset.mouseout"/>
                       </use>
               </g>
        </defs>

<script type="text/javascript">
var viewWidth = 600;
var viewHeight = 215;
var sectionId = 'dynsection-10';
</script>
<script xlink:href="../../svgpan.js"/>
<svg id="graph" class="graph">
<g id="viewport">
<title>px4::logger::LogWriter::is_started</title>
<polygon fill="white" stroke="none" points="-4,4 -4,-211 596,-211 596,4 -4,4"/>
<!-- Node1 -->
<g id="node1" class="node"><title>Node1</title>
<polygon fill="#bfbfbf" stroke="black" points="0,-64.5 0,-94.5 113,-94.5 113,-64.5 0,-64.5"/>
<text text-anchor="start" x="8" y="-82.5" font-family="Helvetica,sans-Serif" font-size="10.00">px4::logger::LogWriter</text>
<text text-anchor="middle" x="56.5" y="-71.5" font-family="Helvetica,sans-Serif" font-size="10.00">::is_started</text>
</g>
<!-- Node2 -->
<g id="node2" class="node"><title>Node2</title>
<g id="a_node2"><a xlink:href="../../d8/d19/classpx4_1_1logger_1_1_log_writer.html#a331cecaa22ecd90b3cdccafb209c6dc4" target="_top" xlink:title="px4::logger::LogWriter\l::backend">
<polygon fill="white" stroke="black" points="149,-132.5 149,-162.5 262,-162.5 262,-132.5 149,-132.5"/>
<text text-anchor="start" x="157" y="-150.5" font-family="Helvetica,sans-Serif" font-size="10.00">px4::logger::LogWriter</text>
<text text-anchor="middle" x="205.5" y="-139.5" font-family="Helvetica,sans-Serif" font-size="10.00">::backend</text>
</a>
</g>
</g>
<!-- Node1&#45;&gt;Node2 -->
<g id="edge1" class="edge"><title>Node1&#45;&gt;Node2</title>
<path fill="none" stroke="midnightblue" d="M99.3289,-98.8494C122.382,-109.514 150.576,-122.556 171.967,-132.451"/>
<polygon fill="midnightblue" stroke="midnightblue" points="100.67,-95.6133 90.1241,-94.5914 97.7306,-101.966 100.67,-95.6133"/>
</g>
<!-- Node4 -->
<g id="node4" class="node"><title>Node4</title>
<g id="a_node4"><a xlink:href="../../d1/d23/classpx4_1_1logger_1_1_logger.html#a68543e963a7f5706e96e53c14fdf8daa" target="_top" xlink:title="px4::logger::Logger::run">
<polygon fill="white" stroke="black" points="473,-94 473,-113 592,-113 592,-94 473,-94"/>
<text text-anchor="middle" x="532.5" y="-101" font-family="Helvetica,sans-Serif" font-size="10.00">px4::logger::Logger::run</text>
</a>
</g>
</g>
<!-- Node1&#45;&gt;Node4 -->
<g id="edge7" class="edge"><title>Node1&#45;&gt;Node4</title>
<path fill="none" stroke="midnightblue" d="M123.46,-74.0893C199.424,-69.068 327.799,-64.2997 437,-78.5 459.551,-81.4325 484.385,-88.1447 502.934,-93.8763"/>
<polygon fill="midnightblue" stroke="midnightblue" points="122.834,-70.6237 113.096,-74.7975 123.312,-77.6075 122.834,-70.6237"/>
</g>
<!-- Node5 -->
<g id="node5" class="node"><title>Node5</title>
<g id="a_node5"><a xlink:href="../../d1/d23/classpx4_1_1logger_1_1_logger.html#a8b8522c1627ae32d642e8a6b3f39d78a" target="_top" xlink:title="px4::logger::Logger\l::start_log_file">
<polygon fill="white" stroke="black" points="317.5,-88.5 317.5,-118.5 417.5,-118.5 417.5,-88.5 317.5,-88.5"/>
<text text-anchor="start" x="325.5" y="-106.5" font-family="Helvetica,sans-Serif" font-size="10.00">px4::logger::Logger</text>
<text text-anchor="middle" x="367.5" y="-95.5" font-family="Helvetica,sans-Serif" font-size="10.00">::start_log_file</text>
</a>
</g>
</g>
<!-- Node1&#45;&gt;Node5 -->
<g id="edge8" class="edge"><title>Node1&#45;&gt;Node5</title>
<path fill="none" stroke="midnightblue" d="M123.289,-84.6099C181.45,-89.1272 264.978,-95.6148 317.456,-99.6908"/>
<polygon fill="midnightblue" stroke="midnightblue" points="123.341,-81.1034 113.1,-83.8184 122.799,-88.0824 123.341,-81.1034"/>
</g>
<!-- Node6 -->
<g id="node6" class="node"><title>Node6</title>
<g id="a_node6"><a xlink:href="../../d1/d23/classpx4_1_1logger_1_1_logger.html#aabf3bd800d91afa723ca1c7086a94c39" target="_top" xlink:title="px4::logger::Logger\l::stop_log_file">
<polygon fill="white" stroke="black" points="155.5,-0.5 155.5,-30.5 255.5,-30.5 255.5,-0.5 155.5,-0.5"/>
<text text-anchor="start" x="163.5" y="-18.5" font-family="Helvetica,sans-Serif" font-size="10.00">px4::logger::Logger</text>
<text text-anchor="middle" x="205.5" y="-7.5" font-family="Helvetica,sans-Serif" font-size="10.00">::stop_log_file</text>
</a>
</g>
</g>
<!-- Node1&#45;&gt;Node6 -->
<g id="edge9" class="edge"><title>Node1&#45;&gt;Node6</title>
<path fill="none" stroke="midnightblue" d="M101.397,-60.3882C123.342,-50.8342 149.513,-39.4399 169.997,-30.5219"/>
<polygon fill="midnightblue" stroke="midnightblue" points="99.7365,-57.2939 91.965,-64.4948 102.531,-63.712 99.7365,-57.2939"/>
</g>
<!-- Node3 -->
<g id="node3" class="node"><title>Node3</title>
<g id="a_node3"><a xlink:href="../../d1/d23/classpx4_1_1logger_1_1_logger.html#a200ba0903d384e28507898c4813db256" target="_top" xlink:title="get the configured backend as string ">
<polygon fill="white" stroke="black" points="298,-176.5 298,-206.5 437,-206.5 437,-176.5 298,-176.5"/>
<text text-anchor="start" x="306" y="-194.5" font-family="Helvetica,sans-Serif" font-size="10.00">px4::logger::Logger</text>
<text text-anchor="middle" x="367.5" y="-183.5" font-family="Helvetica,sans-Serif" font-size="10.00">::configured_backend_mode</text>
</a>
</g>
</g>
<!-- Node2&#45;&gt;Node3 -->
<g id="edge2" class="edge"><title>Node2&#45;&gt;Node3</title>
<path fill="none" stroke="midnightblue" d="M270.874,-165.203C284.461,-168.939 298.673,-172.847 311.859,-176.474"/>
<polygon fill="midnightblue" stroke="midnightblue" points="271.686,-161.796 261.115,-162.519 269.829,-168.546 271.686,-161.796"/>
</g>
<!-- Node2&#45;&gt;Node4 -->
<g id="edge4" class="edge"><title>Node2&#45;&gt;Node4</title>
<path fill="none" stroke="midnightblue" d="M272.445,-144.623C318.736,-141.91 381.954,-136.815 437,-127.5 458.029,-123.941 481.25,-118.072 499.411,-113.028"/>
<polygon fill="midnightblue" stroke="midnightblue" points="272.031,-141.14 262.244,-145.198 272.425,-148.129 272.031,-141.14"/>
</g>
<!-- Node2&#45;&gt;Node5 -->
<g id="edge5" class="edge"><title>Node2&#45;&gt;Node5</title>
<path fill="none" stroke="midnightblue" d="M271.139,-129.724C286.605,-125.471 302.867,-120.999 317.494,-116.977"/>
<polygon fill="midnightblue" stroke="midnightblue" points="269.829,-126.454 261.115,-132.481 271.686,-133.204 269.829,-126.454"/>
</g>
<!-- Node3&#45;&gt;Node4 -->
<g id="edge3" class="edge"><title>Node3&#45;&gt;Node4</title>
<path fill="none" stroke="midnightblue" d="M414.906,-172.213C422.376,-168.813 429.962,-165.179 437,-161.5 466.343,-146.163 498.915,-125.253 517.131,-113.182"/>
<polygon fill="midnightblue" stroke="midnightblue" points="413.265,-169.112 405.556,-176.38 416.114,-175.506 413.265,-169.112"/>
</g>
<!-- Node5&#45;&gt;Node4 -->
<g id="edge6" class="edge"><title>Node5&#45;&gt;Node4</title>
<path fill="none" stroke="midnightblue" d="M428.24,-103.5C442.795,-103.5 458.349,-103.5 472.852,-103.5"/>
<polygon fill="midnightblue" stroke="midnightblue" points="427.848,-100 417.848,-103.5 427.848,-107 427.848,-100"/>
</g>
<!-- Node6&#45;&gt;Node4 -->
<g id="edge10" class="edge"><title>Node6&#45;&gt;Node4</title>
<path fill="none" stroke="midnightblue" d="M265.667,-16.4174C313.189,-18.7453 380.997,-25.693 437,-45.5 469.304,-56.9252 502.372,-80.5029 519.524,-93.8099"/>
<polygon fill="midnightblue" stroke="midnightblue" points="265.69,-12.9152 255.547,-15.9763 265.385,-19.9085 265.69,-12.9152"/>
</g>
</g>
</svg>
        <g id="navigator" transform="translate(0 0)" fill="#404254">
                <rect fill="#f2f5e9" fill-opacity="0.5" stroke="#606060" stroke-width=".5" x="0" y="0" width="60" height="60"/>
                <use id="zoomplus" xlink:href="#zoomPlus" x="17" y="9" onmousedown="handleZoom(evt,'in')"/>
                <use id="zoomminus" xlink:href="#zoomMin" x="42" y="9" onmousedown="handleZoom(evt,'out')"/>
                <use id="reset" xlink:href="#resetDef" x="30" y="36" onmousedown="handleReset()"/>
                <g id="arrowUp" xlink:href="#dirArrow" transform="translate(30 24)" onmousedown="handlePan(0,-1)">
                  <use xlink:href="#rim" fill="#404040">
                        <set attributeName="fill" to="#808080" begin="arrowUp.mouseover" end="arrowUp.mouseout"/>
                  </use>
                  <path fill="none" stroke="white" stroke-width="1.5" d="M0,-3.0v7 M-2.5,-0.5L0,-3.0L2.5,-0.5"/>
                </g>
                <g id="arrowRight" xlink:href="#dirArrow" transform="rotate(90) translate(36 -43)" onmousedown="handlePan(1,0)">
                  <use xlink:href="#rim" fill="#404040">
                        <set attributeName="fill" to="#808080" begin="arrowRight.mouseover" end="arrowRight.mouseout"/>
                  </use>
                  <path fill="none" stroke="white" stroke-width="1.5" d="M0,-3.0v7 M-2.5,-0.5L0,-3.0L2.5,-0.5"/>
                </g>
                <g id="arrowDown" xlink:href="#dirArrow" transform="rotate(180) translate(-30 -48)" onmousedown="handlePan(0,1)">
                  <use xlink:href="#rim" fill="#404040">
                        <set attributeName="fill" to="#808080" begin="arrowDown.mouseover" end="arrowDown.mouseout"/>
                  </use>
                  <path fill="none" stroke="white" stroke-width="1.5" d="M0,-3.0v7 M-2.5,-0.5L0,-3.0L2.5,-0.5"/>
                </g>
                <g id="arrowLeft" xlink:href="#dirArrow" transform="rotate(270) translate(-36 17)" onmousedown="handlePan(-1,0)">
                  <use xlink:href="#rim" fill="#404040">
                        <set attributeName="fill" to="#808080" begin="arrowLeft.mouseover" end="arrowLeft.mouseout"/>
                  </use>
                  <path fill="none" stroke="white" stroke-width="1.5" d="M0,-3.0v7 M-2.5,-0.5L0,-3.0L2.5,-0.5"/>
                </g>
        </g>
        <svg viewBox="0 0 15 15" width="100%" height="30px" preserveAspectRatio="xMaxYMin meet">
         <g id="arrow_out" transform="scale(0.3 0.3)">
          <a xlink:href="classpx4_1_1logger_1_1_log_writer_a2d2e1f688e99e970d759c4fa810ab7cd_icgraph_org.svg" target="_base">
           <rect id="button" ry="5" rx="5" y="6" x="6" height="38" width="38"
                fill="#f2f5e9" fill-opacity="0.5" stroke="#606060" stroke-width="1.0"/>
           <path id="arrow"
             d="M 11.500037,31.436501 C 11.940474,20.09759 22.043105,11.32322 32.158766,21.979434 L 37.068811,17.246167 C 37.068811,17.246167 37.088388,32 37.088388,32 L 22.160133,31.978069 C 22.160133,31.978069 26.997745,27.140456 26.997745,27.140456 C 18.528582,18.264221 13.291696,25.230495 11.500037,31.436501 z"
             style="fill:#404040;"/>
          </a>
         </g>
        </svg>
</svg>
