<?xml version="1.0" encoding="UTF-8" standalone="no"?>
<!DOCTYPE svg PUBLIC "-//W3C//DTD SVG 1.1//EN"
 "http://www.w3.org/Graphics/SVG/1.1/DTD/svg11.dtd">
<!-- Generated by graphviz version 2.38.0 (20140413.2041)
 -->
<!-- Title: px4::logger::LogWriter::write_message Pages: 1 -->
<svg width="1094pt" height="571pt"
 viewBox="0.00 0.00 1094.00 570.91" xmlns="http://www.w3.org/2000/svg" xmlns:xlink="http://www.w3.org/1999/xlink">
<g id="graph0" class="graph" transform="scale(1 1) rotate(0) translate(4 566.905)">
<title>px4::logger::LogWriter::write_message</title>
<polygon fill="white" stroke="none" points="-4,4 -4,-566.905 1090,-566.905 1090,4 -4,4"/>
<!-- Node1 -->
<g id="node1" class="node"><title>Node1</title>
<polygon fill="#bfbfbf" stroke="black" points="0,-428.405 0,-458.405 113,-458.405 113,-428.405 0,-428.405"/>
<text text-anchor="start" x="8" y="-446.405" font-family="Helvetica,sans-Serif" font-size="10.00">px4::logger::LogWriter</text>
<text text-anchor="middle" x="56.5" y="-435.405" font-family="Helvetica,sans-Serif" font-size="10.00">::write_message</text>
</g>
<!-- Node2 -->
<g id="node2" class="node"><title>Node2</title>
<g id="a_node2"><a xlink:href="../../d8/d19/classpx4_1_1logger_1_1_log_writer.html#a331cecaa22ecd90b3cdccafb209c6dc4" target="_top" xlink:title="px4::logger::LogWriter\l::backend">
<polygon fill="white" stroke="black" points="631,-532.405 631,-562.405 744,-562.405 744,-532.405 631,-532.405"/>
<text text-anchor="start" x="639" y="-550.405" font-family="Helvetica,sans-Serif" font-size="10.00">px4::logger::LogWriter</text>
<text text-anchor="middle" x="687.5" y="-539.405" font-family="Helvetica,sans-Serif" font-size="10.00">::backend</text>
</a>
</g>
</g>
<!-- Node1&#45;&gt;Node2 -->
<g id="edge1" class="edge"><title>Node1&#45;&gt;Node2</title>
<path fill="none" stroke="midnightblue" d="M112.858,-461.557C158.55,-475.853 225.338,-495.181 285,-506.405 407.225,-529.4 552.979,-540.218 630.874,-544.691"/>
<polygon fill="midnightblue" stroke="midnightblue" points="113.742,-458.166 103.152,-458.497 111.637,-464.842 113.742,-458.166"/>
</g>
<!-- Node6 -->
<g id="node6" class="node"><title>Node6</title>
<g id="a_node6"><a xlink:href="../../d1/d23/classpx4_1_1logger_1_1_logger.html#ac86db42b9da1cb2b7bf7ea92d1782274" target="_top" xlink:title="Write exactly one ulog message to the logger and handle dropouts. ">
<polygon fill="white" stroke="black" points="149,-316.405 149,-346.405 249,-346.405 249,-316.405 149,-316.405"/>
<text text-anchor="start" x="157" y="-334.405" font-family="Helvetica,sans-Serif" font-size="10.00">px4::logger::Logger</text>
<text text-anchor="middle" x="199" y="-323.405" font-family="Helvetica,sans-Serif" font-size="10.00">::write_message</text>
</a>
</g>
</g>
<!-- Node1&#45;&gt;Node6 -->
<g id="edge7" class="edge"><title>Node1&#45;&gt;Node6</title>
<path fill="none" stroke="midnightblue" d="M84.5324,-421.857C112.211,-399.792 154.528,-366.059 178.903,-346.629"/>
<polygon fill="midnightblue" stroke="midnightblue" points="82.0863,-419.33 76.4485,-428.301 86.4497,-424.804 82.0863,-419.33"/>
</g>
<!-- Node3 -->
<g id="node3" class="node"><title>Node3</title>
<g id="a_node3"><a xlink:href="../../d1/d23/classpx4_1_1logger_1_1_logger.html#a200ba0903d384e28507898c4813db256" target="_top" xlink:title="get the configured backend as string ">
<polygon fill="white" stroke="black" points="792,-465.405 792,-495.405 931,-495.405 931,-465.405 792,-465.405"/>
<text text-anchor="start" x="800" y="-483.405" font-family="Helvetica,sans-Serif" font-size="10.00">px4::logger::Logger</text>
<text text-anchor="middle" x="861.5" y="-472.405" font-family="Helvetica,sans-Serif" font-size="10.00">::configured_backend_mode</text>
</a>
</g>
</g>
<!-- Node2&#45;&gt;Node3 -->
<g id="edge2" class="edge"><title>Node2&#45;&gt;Node3</title>
<path fill="none" stroke="midnightblue" d="M736.692,-528.633C763.552,-518.17 796.556,-505.314 821.731,-495.507"/>
<polygon fill="midnightblue" stroke="midnightblue" points="735.148,-525.478 727.1,-532.369 737.689,-532.001 735.148,-525.478"/>
</g>
<!-- Node4 -->
<g id="node4" class="node"><title>Node4</title>
<g id="a_node4"><a xlink:href="../../d1/d23/classpx4_1_1logger_1_1_logger.html#a68543e963a7f5706e96e53c14fdf8daa" target="_top" xlink:title="px4::logger::Logger::run">
<polygon fill="white" stroke="black" points="967,-229.905 967,-248.905 1086,-248.905 1086,-229.905 967,-229.905"/>
<text text-anchor="middle" x="1026.5" y="-236.905" font-family="Helvetica,sans-Serif" font-size="10.00">px4::logger::Logger::run</text>
</a>
</g>
</g>
<!-- Node2&#45;&gt;Node4 -->
<g id="edge4" class="edge"><title>Node2&#45;&gt;Node4</title>
<path fill="none" stroke="midnightblue" d="M754.268,-553.027C807.791,-553.974 882.204,-546.544 931,-505.405 1013.81,-435.593 1024.07,-288.078 1025.33,-249.047"/>
<polygon fill="midnightblue" stroke="midnightblue" points="754.286,-549.526 744.192,-552.746 754.091,-556.523 754.286,-549.526"/>
</g>
<!-- Node5 -->
<g id="node5" class="node"><title>Node5</title>
<g id="a_node5"><a xlink:href="../../d1/d23/classpx4_1_1logger_1_1_logger.html#a8b8522c1627ae32d642e8a6b3f39d78a" target="_top" xlink:title="px4::logger::Logger\l::start_log_file">
<polygon fill="white" stroke="black" points="811.5,-298.405 811.5,-328.405 911.5,-328.405 911.5,-298.405 811.5,-298.405"/>
<text text-anchor="start" x="819.5" y="-316.405" font-family="Helvetica,sans-Serif" font-size="10.00">px4::logger::Logger</text>
<text text-anchor="middle" x="861.5" y="-305.405" font-family="Helvetica,sans-Serif" font-size="10.00">::start_log_file</text>
</a>
</g>
</g>
<!-- Node2&#45;&gt;Node5 -->
<g id="edge5" class="edge"><title>Node2&#45;&gt;Node5</title>
<path fill="none" stroke="midnightblue" d="M717.282,-525.889C730.568,-514.735 745.652,-500.161 756,-484.405 782.161,-444.573 766.748,-423.82 792,-383.405 805.425,-361.92 826.428,-341.731 841.639,-328.609"/>
<polygon fill="midnightblue" stroke="midnightblue" points="714.857,-523.35 709.301,-532.371 719.27,-528.784 714.857,-523.35"/>
</g>
<!-- Node3&#45;&gt;Node4 -->
<g id="edge3" class="edge"><title>Node3&#45;&gt;Node4</title>
<path fill="none" stroke="midnightblue" d="M898.842,-459.92C910.135,-452.326 921.975,-442.959 931,-432.405 982.402,-372.293 1013.48,-279.384 1022.64,-249.223"/>
<polygon fill="midnightblue" stroke="midnightblue" points="896.884,-457.018 890.368,-465.372 900.672,-462.904 896.884,-457.018"/>
</g>
<!-- Node5&#45;&gt;Node4 -->
<g id="edge6" class="edge"><title>Node5&#45;&gt;Node4</title>
<path fill="none" stroke="midnightblue" d="M915.686,-294.761C920.896,-292.706 926.075,-290.571 931,-288.405 958.915,-276.135 990.103,-259.326 1008.75,-248.927"/>
<polygon fill="midnightblue" stroke="midnightblue" points="914.394,-291.508 906.318,-298.365 916.908,-298.041 914.394,-291.508"/>
</g>
<!-- Node6&#45;&gt;Node4 -->
<g id="edge8" class="edge"><title>Node6&#45;&gt;Node4</title>
<path fill="none" stroke="midnightblue" d="M209.408,-306.45C222.244,-275.363 247.961,-222.338 285,-189.405 370.929,-113.003 406.017,-83.4055 521,-83.4055 521,-83.4055 521,-83.4055 688.5,-83.4055 796.608,-83.4055 837.32,-48.4472 931,-102.405 982.828,-132.258 1012.63,-203.407 1022.14,-229.55"/>
<polygon fill="midnightblue" stroke="midnightblue" points="206.016,-305.506 205.551,-316.091 212.515,-308.106 206.016,-305.506"/>
</g>
<!-- Node7 -->
<g id="node7" class="node"><title>Node7</title>
<g id="a_node7"><a xlink:href="../../d1/d23/classpx4_1_1logger_1_1_logger.html#aa40b58ace4c34d57e28bbe5eb18c134e" target="_top" xlink:title="Write an ADD_LOGGED_MSG to the log for a given subscription and instance. ">
<polygon fill="white" stroke="black" points="461,-395.405 461,-425.405 583,-425.405 583,-395.405 461,-395.405"/>
<text text-anchor="start" x="469" y="-413.405" font-family="Helvetica,sans-Serif" font-size="10.00">px4::logger::Logger</text>
<text text-anchor="middle" x="522" y="-402.405" font-family="Helvetica,sans-Serif" font-size="10.00">::write_add_logged_msg</text>
</a>
</g>
</g>
<!-- Node6&#45;&gt;Node7 -->
<g id="edge9" class="edge"><title>Node6&#45;&gt;Node7</title>
<path fill="none" stroke="midnightblue" d="M244.284,-350.312C257.245,-355.376 271.549,-360.517 285,-364.405 343.748,-381.389 412.545,-393.999 460.649,-401.679"/>
<polygon fill="midnightblue" stroke="midnightblue" points="245.256,-346.931 234.671,-346.477 242.662,-353.433 245.256,-346.931"/>
</g>
<!-- Node11 -->
<g id="node11" class="node"><title>Node11</title>
<g id="a_node11"><a xlink:href="../../d1/d23/classpx4_1_1logger_1_1_logger.html#a1922c4ca5ffd567c35022a9916137f6d" target="_top" xlink:title="px4::logger::Logger\l::write_changed_parameters">
<polygon fill="white" stroke="black" points="285,-24.4055 285,-54.4055 425,-54.4055 425,-24.4055 285,-24.4055"/>
<text text-anchor="start" x="293" y="-42.4055" font-family="Helvetica,sans-Serif" font-size="10.00">px4::logger::Logger</text>
<text text-anchor="middle" x="355" y="-31.4055" font-family="Helvetica,sans-Serif" font-size="10.00">::write_changed_parameters</text>
</a>
</g>
</g>
<!-- Node6&#45;&gt;Node11 -->
<g id="edge16" class="edge"><title>Node6&#45;&gt;Node11</title>
<path fill="none" stroke="midnightblue" d="M201.459,-306.133C205.701,-255.089 222.11,-138.671 285,-69.4055 290.532,-63.3128 297.52,-58.402 304.912,-54.4604"/>
<polygon fill="midnightblue" stroke="midnightblue" points="197.957,-306.038 200.708,-316.269 204.938,-306.555 197.957,-306.038"/>
</g>
<!-- Node12 -->
<g id="node12" class="node"><title>Node12</title>
<g id="a_node12"><a xlink:href="../../d1/d23/classpx4_1_1logger_1_1_logger.html#ae3da77cc33cea95cab42e341c21f7a6e" target="_top" xlink:title="px4::logger::Logger\l::write_formats">
<polygon fill="white" stroke="black" points="637.5,-297.405 637.5,-327.405 737.5,-327.405 737.5,-297.405 637.5,-297.405"/>
<text text-anchor="start" x="645.5" y="-315.405" font-family="Helvetica,sans-Serif" font-size="10.00">px4::logger::Logger</text>
<text text-anchor="middle" x="687.5" y="-304.405" font-family="Helvetica,sans-Serif" font-size="10.00">::write_formats</text>
</a>
</g>
</g>
<!-- Node6&#45;&gt;Node12 -->
<g id="edge18" class="edge"><title>Node6&#45;&gt;Node12</title>
<path fill="none" stroke="midnightblue" d="M259.564,-329.079C356.727,-325.285 547.496,-317.834 637.406,-314.323"/>
<polygon fill="midnightblue" stroke="midnightblue" points="259.181,-325.591 249.326,-329.479 259.455,-332.586 259.181,-325.591"/>
</g>
<!-- Node13 -->
<g id="node13" class="node"><title>Node13</title>
<g id="a_node13"><a xlink:href="../../d1/d23/classpx4_1_1logger_1_1_logger.html#a2cd14e980d6cf54d311ef04a6e2f6576" target="_top" xlink:title="write the file header with file magic and timestamp. ">
<polygon fill="white" stroke="black" points="637.5,-248.405 637.5,-278.405 737.5,-278.405 737.5,-248.405 637.5,-248.405"/>
<text text-anchor="start" x="645.5" y="-266.405" font-family="Helvetica,sans-Serif" font-size="10.00">px4::logger::Logger</text>
<text text-anchor="middle" x="687.5" y="-255.405" font-family="Helvetica,sans-Serif" font-size="10.00">::write_header</text>
</a>
</g>
</g>
<!-- Node6&#45;&gt;Node13 -->
<g id="edge21" class="edge"><title>Node6&#45;&gt;Node13</title>
<path fill="none" stroke="midnightblue" d="M259.415,-323.005C267.999,-321.795 276.726,-320.567 285,-319.405 412.022,-301.581 561.676,-280.753 637.36,-270.233"/>
<polygon fill="midnightblue" stroke="midnightblue" points="258.852,-319.549 249.439,-324.412 259.83,-326.481 258.852,-319.549"/>
</g>
<!-- Node14 -->
<g id="node14" class="node"><title>Node14</title>
<g id="a_node14"><a xlink:href="../../d1/d23/classpx4_1_1logger_1_1_logger.html#aad75655a39296e402e2780c12bcf9c62" target="_top" xlink:title="px4::logger::Logger\l::write_info">
<polygon fill="white" stroke="black" points="305,-417.405 305,-447.405 405,-447.405 405,-417.405 305,-417.405"/>
<text text-anchor="start" x="313" y="-435.405" font-family="Helvetica,sans-Serif" font-size="10.00">px4::logger::Logger</text>
<text text-anchor="middle" x="355" y="-424.405" font-family="Helvetica,sans-Serif" font-size="10.00">::write_info</text>
</a>
</g>
</g>
<!-- Node6&#45;&gt;Node14 -->
<g id="edge24" class="edge"><title>Node6&#45;&gt;Node14</title>
<path fill="none" stroke="midnightblue" d="M222.706,-353.473C239.08,-368.58 262.221,-388.345 285,-402.405 294.004,-407.963 304.217,-413.007 313.974,-417.306"/>
<polygon fill="midnightblue" stroke="midnightblue" points="224.933,-350.762 215.243,-346.476 220.145,-355.869 224.933,-350.762"/>
</g>
<!-- Node16 -->
<g id="node16" class="node"><title>Node16</title>
<g id="a_node16"><a xlink:href="../../d1/d23/classpx4_1_1logger_1_1_logger.html#abc77eb15aa77b10765c2603a0d44e0ff" target="_top" xlink:title="px4::logger::Logger\l::write_info_multiple">
<polygon fill="white" stroke="black" points="303,-199.405 303,-229.405 407,-229.405 407,-199.405 303,-199.405"/>
<text text-anchor="start" x="311" y="-217.405" font-family="Helvetica,sans-Serif" font-size="10.00">px4::logger::Logger</text>
<text text-anchor="middle" x="355" y="-206.405" font-family="Helvetica,sans-Serif" font-size="10.00">::write_info_multiple</text>
</a>
</g>
</g>
<!-- Node6&#45;&gt;Node16 -->
<g id="edge28" class="edge"><title>Node6&#45;&gt;Node16</title>
<path fill="none" stroke="midnightblue" d="M222.748,-308.856C239.301,-293.013 262.641,-271.806 285,-255.405 297.809,-246.01 312.893,-236.852 325.686,-229.583"/>
<polygon fill="midnightblue" stroke="midnightblue" points="219.954,-306.69 215.202,-316.159 224.822,-311.72 219.954,-306.69"/>
</g>
<!-- Node23 -->
<g id="node23" class="node"><title>Node23</title>
<g id="a_node23"><a xlink:href="../../d1/d23/classpx4_1_1logger_1_1_logger.html#abb096f3f7d2f75e334dc0d64a55ff16e" target="_top" xlink:title="generic common template method for write_info variants ">
<polygon fill="white" stroke="black" points="301.5,-466.405 301.5,-496.405 408.5,-496.405 408.5,-466.405 301.5,-466.405"/>
<text text-anchor="start" x="309.5" y="-484.405" font-family="Helvetica,sans-Serif" font-size="10.00">px4::logger::Logger</text>
<text text-anchor="middle" x="355" y="-473.405" font-family="Helvetica,sans-Serif" font-size="10.00">::write_info_template</text>
</a>
</g>
</g>
<!-- Node6&#45;&gt;Node23 -->
<g id="edge42" class="edge"><title>Node6&#45;&gt;Node23</title>
<path fill="none" stroke="midnightblue" d="M210.844,-355.886C224.407,-383.881 250.151,-429.325 285,-456.405 289.93,-460.236 295.5,-463.517 301.286,-466.317"/>
<polygon fill="midnightblue" stroke="midnightblue" points="213.981,-354.332 206.56,-346.771 207.646,-357.31 213.981,-354.332"/>
</g>
<!-- Node24 -->
<g id="node24" class="node"><title>Node24</title>
<g id="a_node24"><a xlink:href="../../d1/d23/classpx4_1_1logger_1_1_logger.html#aeb300ff4e6c1aaf4e18b3b1585c0f57c" target="_top" xlink:title="px4::logger::Logger\l::write_parameters">
<polygon fill="white" stroke="black" points="637.5,-346.405 637.5,-376.405 737.5,-376.405 737.5,-346.405 637.5,-346.405"/>
<text text-anchor="start" x="645.5" y="-364.405" font-family="Helvetica,sans-Serif" font-size="10.00">px4::logger::Logger</text>
<text text-anchor="middle" x="687.5" y="-353.405" font-family="Helvetica,sans-Serif" font-size="10.00">::write_parameters</text>
</a>
</g>
</g>
<!-- Node6&#45;&gt;Node24 -->
<g id="edge43" class="edge"><title>Node6&#45;&gt;Node24</title>
<path fill="none" stroke="midnightblue" d="M259.564,-335.079C356.727,-341.07 547.496,-352.834 637.406,-358.378"/>
<polygon fill="midnightblue" stroke="midnightblue" points="259.522,-331.569 249.326,-334.447 259.091,-338.556 259.522,-331.569"/>
</g>
<!-- Node8 -->
<g id="node8" class="node"><title>Node8</title>
<g id="a_node8"><a xlink:href="../../d1/d23/classpx4_1_1logger_1_1_logger.html#a55a07bd6f5959c9b8bdeeb7d63e4817a" target="_top" xlink:title="px4::logger::Logger\l::copy_if_updated_multi">
<polygon fill="white" stroke="black" points="801.5,-393.405 801.5,-423.405 921.5,-423.405 921.5,-393.405 801.5,-393.405"/>
<text text-anchor="start" x="809.5" y="-411.405" font-family="Helvetica,sans-Serif" font-size="10.00">px4::logger::Logger</text>
<text text-anchor="middle" x="861.5" y="-400.405" font-family="Helvetica,sans-Serif" font-size="10.00">::copy_if_updated_multi</text>
</a>
</g>
</g>
<!-- Node7&#45;&gt;Node8 -->
<g id="edge10" class="edge"><title>Node7&#45;&gt;Node8</title>
<path fill="none" stroke="midnightblue" d="M543.513,-432.859C561.437,-450.688 589.196,-474.252 619,-484.405 676.636,-504.041 698.407,-504.166 756,-484.405 775.173,-477.827 775.695,-468.447 792,-456.405 807.302,-445.104 824.881,-432.8 838.399,-423.479"/>
<polygon fill="midnightblue" stroke="midnightblue" points="545.945,-430.339 536.457,-425.624 540.934,-435.227 545.945,-430.339"/>
</g>
<!-- Node9 -->
<g id="node9" class="node"><title>Node9</title>
<g id="a_node9"><a xlink:href="../../d1/d23/classpx4_1_1logger_1_1_logger.html#a5c827b9922d8f6587745fc990fe7855a" target="_top" xlink:title="Write an ADD_LOGGED_MSG to the log for a all current subscriptions and instances. ...">
<polygon fill="white" stroke="black" points="619,-395.405 619,-425.405 756,-425.405 756,-395.405 619,-395.405"/>
<text text-anchor="start" x="627" y="-413.405" font-family="Helvetica,sans-Serif" font-size="10.00">px4::logger::Logger</text>
<text text-anchor="middle" x="687.5" y="-402.405" font-family="Helvetica,sans-Serif" font-size="10.00">::write_all_add_logged_msg</text>
</a>
</g>
</g>
<!-- Node7&#45;&gt;Node9 -->
<g id="edge12" class="edge"><title>Node7&#45;&gt;Node9</title>
<path fill="none" stroke="midnightblue" d="M593.564,-410.405C601.968,-410.405 610.533,-410.405 618.895,-410.405"/>
<polygon fill="midnightblue" stroke="midnightblue" points="593.417,-406.906 583.417,-410.405 593.417,-413.906 593.417,-406.906"/>
</g>
<!-- Node8&#45;&gt;Node4 -->
<g id="edge11" class="edge"><title>Node8&#45;&gt;Node4</title>
<path fill="none" stroke="midnightblue" d="M884.387,-385.713C920.388,-348.386 990.646,-275.543 1016.05,-249.205"/>
<polygon fill="midnightblue" stroke="midnightblue" points="881.676,-383.482 877.253,-393.11 886.714,-388.342 881.676,-383.482"/>
</g>
<!-- Node9&#45;&gt;Node5 -->
<g id="edge13" class="edge"><title>Node9&#45;&gt;Node5</title>
<path fill="none" stroke="midnightblue" d="M743.375,-391.41C747.705,-389.51 751.961,-387.503 756,-385.405 787.87,-368.854 821.521,-344.19 841.765,-328.455"/>
<polygon fill="midnightblue" stroke="midnightblue" points="741.716,-388.309 733.835,-395.39 744.411,-394.769 741.716,-388.309"/>
</g>
<!-- Node10 -->
<g id="node10" class="node"><title>Node10</title>
<g id="a_node10"><a xlink:href="../../d1/d23/classpx4_1_1logger_1_1_logger.html#ade524d17cb3995a527f23e10dfd04f5b" target="_top" xlink:title="px4::logger::Logger\l::start_log_mavlink">
<polygon fill="white" stroke="black" points="811.5,-249.405 811.5,-279.405 911.5,-279.405 911.5,-249.405 811.5,-249.405"/>
<text text-anchor="start" x="819.5" y="-267.405" font-family="Helvetica,sans-Serif" font-size="10.00">px4::logger::Logger</text>
<text text-anchor="middle" x="861.5" y="-256.405" font-family="Helvetica,sans-Serif" font-size="10.00">::start_log_mavlink</text>
</a>
</g>
</g>
<!-- Node9&#45;&gt;Node10 -->
<g id="edge14" class="edge"><title>Node9&#45;&gt;Node10</title>
<path fill="none" stroke="midnightblue" d="M751.365,-389.531C752.991,-388.237 754.541,-386.863 756,-385.405 788.527,-352.9 759.187,-320.621 792,-288.405 797.485,-283.02 804.245,-278.839 811.362,-275.593"/>
<polygon fill="midnightblue" stroke="midnightblue" points="749.042,-386.876 742.702,-395.364 752.951,-392.682 749.042,-386.876"/>
</g>
<!-- Node10&#45;&gt;Node4 -->
<g id="edge15" class="edge"><title>Node10&#45;&gt;Node4</title>
<path fill="none" stroke="midnightblue" d="M921.816,-255.308C936.493,-253.057 952.208,-250.647 966.852,-248.401"/>
<polygon fill="midnightblue" stroke="midnightblue" points="921.202,-251.861 911.848,-256.837 922.263,-258.78 921.202,-251.861"/>
</g>
<!-- Node11&#45;&gt;Node4 -->
<g id="edge17" class="edge"><title>Node11&#45;&gt;Node4</title>
<path fill="none" stroke="midnightblue" d="M428.206,-22.4089C544.03,0.598838 774.217,28.4069 931,-69.4055 992.023,-107.476 1016.92,-199.882 1023.56,-229.85"/>
<polygon fill="midnightblue" stroke="midnightblue" points="427.478,-18.9851 418.375,-24.4051 428.872,-25.8451 427.478,-18.9851"/>
</g>
<!-- Node12&#45;&gt;Node5 -->
<g id="edge19" class="edge"><title>Node12&#45;&gt;Node5</title>
<path fill="none" stroke="midnightblue" d="M748.019,-312.752C768.636,-312.871 791.502,-313.004 811.205,-313.119"/>
<polygon fill="midnightblue" stroke="midnightblue" points="747.809,-309.25 737.788,-312.692 747.768,-316.25 747.809,-309.25"/>
</g>
<!-- Node12&#45;&gt;Node10 -->
<g id="edge20" class="edge"><title>Node12&#45;&gt;Node10</title>
<path fill="none" stroke="midnightblue" d="M747.455,-295.953C768.218,-290.159 791.322,-283.711 811.205,-278.162"/>
<polygon fill="midnightblue" stroke="midnightblue" points="746.479,-292.591 737.788,-298.651 748.361,-299.334 746.479,-292.591"/>
</g>
<!-- Node13&#45;&gt;Node5 -->
<g id="edge22" class="edge"><title>Node13&#45;&gt;Node5</title>
<path fill="none" stroke="midnightblue" d="M747.455,-280.543C768.218,-286.579 791.322,-293.296 811.205,-299.075"/>
<polygon fill="midnightblue" stroke="midnightblue" points="748.368,-277.164 737.788,-277.733 746.414,-283.886 748.368,-277.164"/>
</g>
<!-- Node13&#45;&gt;Node10 -->
<g id="edge23" class="edge"><title>Node13&#45;&gt;Node10</title>
<path fill="none" stroke="midnightblue" d="M748.019,-263.752C768.636,-263.871 791.502,-264.004 811.205,-264.119"/>
<polygon fill="midnightblue" stroke="midnightblue" points="747.809,-260.25 737.788,-263.692 747.768,-267.25 747.809,-260.25"/>
</g>
<!-- Node15 -->
<g id="node15" class="node"><title>Node15</title>
<g id="a_node15"><a xlink:href="../../d1/d23/classpx4_1_1logger_1_1_logger.html#ac0af196c7ee13d419fc7e43bb826e4a2" target="_top" xlink:title="px4::logger::Logger\l::write_version">
<polygon fill="white" stroke="black" points="637.5,-444.405 637.5,-474.405 737.5,-474.405 737.5,-444.405 637.5,-444.405"/>
<text text-anchor="start" x="645.5" y="-462.405" font-family="Helvetica,sans-Serif" font-size="10.00">px4::logger::Logger</text>
<text text-anchor="middle" x="687.5" y="-451.405" font-family="Helvetica,sans-Serif" font-size="10.00">::write_version</text>
</a>
</g>
</g>
<!-- Node14&#45;&gt;Node15 -->
<g id="edge25" class="edge"><title>Node14&#45;&gt;Node15</title>
<path fill="none" stroke="midnightblue" d="M415.369,-437.256C478.8,-442.438 578.186,-450.557 637.378,-455.392"/>
<polygon fill="midnightblue" stroke="midnightblue" points="415.374,-433.744 405.122,-436.418 414.804,-440.721 415.374,-433.744"/>
</g>
<!-- Node15&#45;&gt;Node5 -->
<g id="edge26" class="edge"><title>Node15&#45;&gt;Node5</title>
<path fill="none" stroke="midnightblue" d="M746.571,-440.65C749.879,-438.748 753.053,-436.671 756,-434.405 777.996,-417.495 774.241,-404.722 792,-383.405 808.652,-363.418 829.867,-342.318 844.244,-328.575"/>
<polygon fill="midnightblue" stroke="midnightblue" points="744.857,-437.595 737.564,-445.281 748.058,-443.82 744.857,-437.595"/>
</g>
<!-- Node15&#45;&gt;Node10 -->
<g id="edge27" class="edge"><title>Node15&#45;&gt;Node10</title>
<path fill="none" stroke="midnightblue" d="M746.73,-442.506C750.129,-440.149 753.269,-437.464 756,-434.405 800.515,-384.556 747.046,-337.859 792,-288.405 797.255,-282.624 803.983,-278.236 811.161,-274.904"/>
<polygon fill="midnightblue" stroke="midnightblue" points="744.693,-439.643 737.832,-447.717 748.23,-445.684 744.693,-439.643"/>
</g>
<!-- Node17 -->
<g id="node17" class="node"><title>Node17</title>
<g id="a_node17"><a xlink:href="../../d1/d23/classpx4_1_1logger_1_1_logger.html#a1518c6c522bd97c985de145657cf8e58" target="_top" xlink:title="callback to write the performance counters ">
<polygon fill="white" stroke="black" points="465.5,-199.405 465.5,-229.405 578.5,-229.405 578.5,-199.405 465.5,-199.405"/>
<text text-anchor="start" x="473.5" y="-217.405" font-family="Helvetica,sans-Serif" font-size="10.00">px4::logger::Logger</text>
<text text-anchor="middle" x="522" y="-206.405" font-family="Helvetica,sans-Serif" font-size="10.00">::perf_iterate_callback</text>
</a>
</g>
</g>
<!-- Node16&#45;&gt;Node17 -->
<g id="edge29" class="edge"><title>Node16&#45;&gt;Node17</title>
<path fill="none" stroke="midnightblue" d="M417.457,-214.405C433.189,-214.405 450.015,-214.405 465.431,-214.405"/>
<polygon fill="midnightblue" stroke="midnightblue" points="417.303,-210.906 407.303,-214.405 417.303,-217.906 417.303,-210.906"/>
</g>
<!-- Node20 -->
<g id="node20" class="node"><title>Node20</title>
<g id="a_node20"><a xlink:href="../../d1/d23/classpx4_1_1logger_1_1_logger.html#a37dfb72c80d4e6b9698b19bcb05084d6" target="_top" xlink:title="callback for print_load_buffer() to print the process load ">
<polygon fill="white" stroke="black" points="469,-150.405 469,-180.405 575,-180.405 575,-150.405 469,-150.405"/>
<text text-anchor="start" x="477" y="-168.405" font-family="Helvetica,sans-Serif" font-size="10.00">px4::logger::Logger</text>
<text text-anchor="middle" x="522" y="-157.405" font-family="Helvetica,sans-Serif" font-size="10.00">::print_load_callback</text>
</a>
</g>
</g>
<!-- Node16&#45;&gt;Node20 -->
<g id="edge35" class="edge"><title>Node16&#45;&gt;Node20</title>
<path fill="none" stroke="midnightblue" d="M416.501,-196.439C434.18,-191.188 453.313,-185.507 470.316,-180.457"/>
<polygon fill="midnightblue" stroke="midnightblue" points="415.442,-193.102 406.852,-199.304 417.434,-199.812 415.442,-193.102"/>
</g>
<!-- Node18 -->
<g id="node18" class="node"><title>Node18</title>
<g id="a_node18"><a xlink:href="../../d1/d23/classpx4_1_1logger_1_1_logger.html#a77b27d1ea4cc84e531d4f63b02b6587b" target="_top" xlink:title="write performance counters ">
<polygon fill="white" stroke="black" points="637.5,-199.405 637.5,-229.405 737.5,-229.405 737.5,-199.405 637.5,-199.405"/>
<text text-anchor="start" x="645.5" y="-217.405" font-family="Helvetica,sans-Serif" font-size="10.00">px4::logger::Logger</text>
<text text-anchor="middle" x="687.5" y="-206.405" font-family="Helvetica,sans-Serif" font-size="10.00">::write_perf_data</text>
</a>
</g>
</g>
<!-- Node17&#45;&gt;Node18 -->
<g id="edge30" class="edge"><title>Node17&#45;&gt;Node18</title>
<path fill="none" stroke="midnightblue" d="M589.207,-214.405C605.252,-214.405 622.126,-214.405 637.232,-214.405"/>
<polygon fill="midnightblue" stroke="midnightblue" points="588.81,-210.906 578.81,-214.405 588.81,-217.906 588.81,-210.906"/>
</g>
<!-- Node18&#45;&gt;Node5 -->
<g id="edge31" class="edge"><title>Node18&#45;&gt;Node5</title>
<path fill="none" stroke="midnightblue" d="M746.544,-232.301C749.859,-234.154 753.041,-236.183 756,-238.405 777.895,-254.85 770.174,-271.869 792,-288.405 797.853,-292.84 804.569,-296.548 811.458,-299.631"/>
<polygon fill="midnightblue" stroke="midnightblue" points="748.037,-229.135 737.526,-227.804 744.913,-235.399 748.037,-229.135"/>
</g>
<!-- Node18&#45;&gt;Node10 -->
<g id="edge32" class="edge"><title>Node18&#45;&gt;Node10</title>
<path fill="none" stroke="midnightblue" d="M747.455,-231.543C768.218,-237.579 791.322,-244.296 811.205,-250.075"/>
<polygon fill="midnightblue" stroke="midnightblue" points="748.368,-228.164 737.788,-228.733 746.414,-234.886 748.368,-228.164"/>
</g>
<!-- Node19 -->
<g id="node19" class="node"><title>Node19</title>
<g id="a_node19"><a xlink:href="../../d1/d23/classpx4_1_1logger_1_1_logger.html#aabf3bd800d91afa723ca1c7086a94c39" target="_top" xlink:title="px4::logger::Logger\l::stop_log_file">
<polygon fill="white" stroke="black" points="811.5,-200.405 811.5,-230.405 911.5,-230.405 911.5,-200.405 811.5,-200.405"/>
<text text-anchor="start" x="819.5" y="-218.405" font-family="Helvetica,sans-Serif" font-size="10.00">px4::logger::Logger</text>
<text text-anchor="middle" x="861.5" y="-207.405" font-family="Helvetica,sans-Serif" font-size="10.00">::stop_log_file</text>
</a>
</g>
</g>
<!-- Node18&#45;&gt;Node19 -->
<g id="edge33" class="edge"><title>Node18&#45;&gt;Node19</title>
<path fill="none" stroke="midnightblue" d="M748.019,-214.752C768.636,-214.871 791.502,-215.004 811.205,-215.119"/>
<polygon fill="midnightblue" stroke="midnightblue" points="747.809,-211.25 737.788,-214.692 747.768,-218.25 747.809,-211.25"/>
</g>
<!-- Node19&#45;&gt;Node4 -->
<g id="edge34" class="edge"><title>Node19&#45;&gt;Node4</title>
<path fill="none" stroke="midnightblue" d="M921.816,-224.139C936.493,-226.3 952.208,-228.614 966.852,-230.77"/>
<polygon fill="midnightblue" stroke="midnightblue" points="922.251,-220.665 911.848,-222.671 921.231,-227.591 922.251,-220.665"/>
</g>
<!-- Node21 -->
<g id="node21" class="node"><title>Node21</title>
<g id="a_node21"><a xlink:href="../../d1/d23/classpx4_1_1logger_1_1_logger.html#a2e8815353f916530d838f13c1f2e0ee7" target="_top" xlink:title="initialize the output for the process load, so that ~1 second later it will be written to the log ...">
<polygon fill="white" stroke="black" points="631,-150.405 631,-180.405 744,-180.405 744,-150.405 631,-150.405"/>
<text text-anchor="start" x="639" y="-168.405" font-family="Helvetica,sans-Serif" font-size="10.00">px4::logger::Logger</text>
<text text-anchor="middle" x="687.5" y="-157.405" font-family="Helvetica,sans-Serif" font-size="10.00">::initialize_load_output</text>
</a>
</g>
</g>
<!-- Node20&#45;&gt;Node21 -->
<g id="edge36" class="edge"><title>Node20&#45;&gt;Node21</title>
<path fill="none" stroke="midnightblue" d="M585.37,-165.405C600.337,-165.405 616.224,-165.405 630.863,-165.405"/>
<polygon fill="midnightblue" stroke="midnightblue" points="585.182,-161.906 575.182,-165.405 585.182,-168.906 585.182,-161.906"/>
</g>
<!-- Node22 -->
<g id="node22" class="node"><title>Node22</title>
<g id="a_node22"><a xlink:href="../../d1/d23/classpx4_1_1logger_1_1_logger.html#a4e5bcf7638c7e8c4e51333c9b56d70f4" target="_top" xlink:title="write the process load, which was previously initialized with initialize_load_output() ...">
<polygon fill="white" stroke="black" points="811.5,-112.405 811.5,-142.405 911.5,-142.405 911.5,-112.405 811.5,-112.405"/>
<text text-anchor="start" x="819.5" y="-130.405" font-family="Helvetica,sans-Serif" font-size="10.00">px4::logger::Logger</text>
<text text-anchor="middle" x="861.5" y="-119.405" font-family="Helvetica,sans-Serif" font-size="10.00">::write_load_output</text>
</a>
</g>
</g>
<!-- Node20&#45;&gt;Node22 -->
<g id="edge40" class="edge"><title>Node20&#45;&gt;Node22</title>
<path fill="none" stroke="midnightblue" d="M582.767,-147.865C594.68,-144.93 607.167,-142.246 619,-140.405 684.968,-130.147 762.152,-127.617 811.172,-127.172"/>
<polygon fill="midnightblue" stroke="midnightblue" points="581.747,-144.513 572.922,-150.376 583.477,-151.296 581.747,-144.513"/>
</g>
<!-- Node21&#45;&gt;Node4 -->
<g id="edge37" class="edge"><title>Node21&#45;&gt;Node4</title>
<path fill="none" stroke="midnightblue" d="M754.322,-165.573C803.847,-167.274 872.889,-173.03 931,-190.405 961.277,-199.458 993.27,-218.28 1011.18,-229.781"/>
<polygon fill="midnightblue" stroke="midnightblue" points="754.16,-162.067 744.061,-165.269 753.953,-169.064 754.16,-162.067"/>
</g>
<!-- Node21&#45;&gt;Node5 -->
<g id="edge38" class="edge"><title>Node21&#45;&gt;Node5</title>
<path fill="none" stroke="midnightblue" d="M752.538,-186.266C753.74,-187.264 754.897,-188.31 756,-189.405 789.224,-222.393 758.914,-255.28 792,-288.405 797.457,-293.869 804.203,-298.149 811.314,-301.498"/>
<polygon fill="midnightblue" stroke="midnightblue" points="754.238,-183.185 744.031,-180.344 750.239,-188.93 754.238,-183.185"/>
</g>
<!-- Node21&#45;&gt;Node10 -->
<g id="edge39" class="edge"><title>Node21&#45;&gt;Node10</title>
<path fill="none" stroke="midnightblue" d="M750.182,-185.442C752.195,-186.69 754.142,-188.01 756,-189.405 777.895,-205.85 770.174,-222.869 792,-239.405 797.853,-243.84 804.569,-247.548 811.458,-250.631"/>
<polygon fill="midnightblue" stroke="midnightblue" points="751.463,-182.153 741.01,-180.423 748.103,-188.294 751.463,-182.153"/>
</g>
<!-- Node22&#45;&gt;Node4 -->
<g id="edge41" class="edge"><title>Node22&#45;&gt;Node4</title>
<path fill="none" stroke="midnightblue" d="M911.461,-146.668C918.195,-149.94 924.889,-153.542 931,-157.405 965.518,-179.227 1000.3,-213.221 1016.35,-229.741"/>
<polygon fill="midnightblue" stroke="midnightblue" points="912.849,-143.454 902.305,-142.418 909.902,-149.803 912.849,-143.454"/>
</g>
<!-- Node24&#45;&gt;Node5 -->
<g id="edge44" class="edge"><title>Node24&#45;&gt;Node5</title>
<path fill="none" stroke="midnightblue" d="M747.455,-344.953C768.218,-339.159 791.322,-332.711 811.205,-327.162"/>
<polygon fill="midnightblue" stroke="midnightblue" points="746.479,-341.591 737.788,-347.651 748.361,-348.334 746.479,-341.591"/>
</g>
<!-- Node24&#45;&gt;Node10 -->
<g id="edge45" class="edge"><title>Node24&#45;&gt;Node10</title>
<path fill="none" stroke="midnightblue" d="M746.96,-342.285C750.12,-340.481 753.16,-338.525 756,-336.405 777.373,-320.459 770.486,-304.162 792,-288.405 797.795,-284.161 804.405,-280.617 811.18,-277.672"/>
<polygon fill="midnightblue" stroke="midnightblue" points="745.11,-339.3 737.804,-346.973 748.3,-345.531 745.11,-339.3"/>
</g>
</g>
</svg>
