<?xml version="1.0" encoding="UTF-8" standalone="no"?>
<!DOCTYPE svg PUBLIC "-//W3C//DTD SVG 1.1//EN"
 "http://www.w3.org/Graphics/SVG/1.1/DTD/svg11.dtd">
<!-- Generated by graphviz version 2.38.0 (20140413.2041)
 -->
<!-- Title: build/doxygen/uORB/topics/system_power.h Pages: 1 -->
<svg width="959pt" height="117pt"
 viewBox="0.00 0.00 958.50 117.00" xmlns="http://www.w3.org/2000/svg" xmlns:xlink="http://www.w3.org/1999/xlink">
<g id="graph0" class="graph" transform="scale(1 1) rotate(0) translate(4 113)">
<title>build/doxygen/uORB/topics/system_power.h</title>
<polygon fill="white" stroke="none" points="-4,4 -4,-113 954.5,-113 954.5,4 -4,4"/>
<!-- Node1 -->
<g id="node1" class="node"><title>Node1</title>
<polygon fill="#bfbfbf" stroke="black" points="390.5,-78.5 390.5,-108.5 511.5,-108.5 511.5,-78.5 390.5,-78.5"/>
<text text-anchor="start" x="398.5" y="-96.5" font-family="Helvetica,sans-Serif" font-size="10.00">build/doxygen/uORB</text>
<text text-anchor="middle" x="451" y="-85.5" font-family="Helvetica,sans-Serif" font-size="10.00">/topics/system_power.h</text>
</g>
<!-- Node2 -->
<g id="node2" class="node"><title>Node2</title>
<g id="a_node2"><a xlink:href="../../db/dc7/ms4525__airspeed_8cpp.html" target="_top" xlink:title="src/drivers/differential\l_pressure/ms4525/ms4525\l_airspeed.cpp">
<polygon fill="white" stroke="black" points="0,-0.5 0,-41.5 134,-41.5 134,-0.5 0,-0.5"/>
<text text-anchor="start" x="8" y="-29.5" font-family="Helvetica,sans-Serif" font-size="10.00">src/drivers/differential</text>
<text text-anchor="start" x="8" y="-18.5" font-family="Helvetica,sans-Serif" font-size="10.00">_pressure/ms4525/ms4525</text>
<text text-anchor="middle" x="67" y="-7.5" font-family="Helvetica,sans-Serif" font-size="10.00">_airspeed.cpp</text>
</a>
</g>
</g>
<!-- Node1&#45;&gt;Node2 -->
<g id="edge1" class="edge"><title>Node1&#45;&gt;Node2</title>
<path fill="none" stroke="midnightblue" d="M380.318,-82.8565C317.66,-73.8459 223.825,-59.2205 143,-42 140.064,-41.3745 137.072,-40.7088 134.054,-40.0145"/>
<polygon fill="midnightblue" stroke="midnightblue" points="380.091,-86.3595 390.486,-84.3087 381.081,-79.4298 380.091,-86.3595"/>
</g>
<!-- Node3 -->
<g id="node3" class="node"><title>Node3</title>
<g id="a_node3"><a xlink:href="../../de/d97/kinetis_2adc_2adc_8cpp.html" target="_top" xlink:title="src/drivers/kinetis\l/adc/adc.cpp">
<polygon fill="white" stroke="black" points="152,-6 152,-36 246,-36 246,-6 152,-6"/>
<text text-anchor="start" x="160" y="-24" font-family="Helvetica,sans-Serif" font-size="10.00">src/drivers/kinetis</text>
<text text-anchor="middle" x="199" y="-13" font-family="Helvetica,sans-Serif" font-size="10.00">/adc/adc.cpp</text>
</a>
</g>
</g>
<!-- Node1&#45;&gt;Node3 -->
<g id="edge2" class="edge"><title>Node1&#45;&gt;Node3</title>
<path fill="none" stroke="midnightblue" d="M380.727,-76.0352C343.188,-66.828 296.324,-54.6742 255,-42 249.078,-40.1837 242.856,-38.1202 236.799,-36.0251"/>
<polygon fill="midnightblue" stroke="midnightblue" points="380.013,-79.4634 390.557,-78.4312 381.67,-72.6625 380.013,-79.4634"/>
</g>
<!-- Node4 -->
<g id="node4" class="node"><title>Node4</title>
<g id="a_node4"><a xlink:href="../../df/dc9/samv7_2adc_2adc_8cpp.html" target="_top" xlink:title="src/drivers/samv7/adc\l/adc.cpp">
<polygon fill="white" stroke="black" points="264.5,-6 264.5,-36 377.5,-36 377.5,-6 264.5,-6"/>
<text text-anchor="start" x="272.5" y="-24" font-family="Helvetica,sans-Serif" font-size="10.00">src/drivers/samv7/adc</text>
<text text-anchor="middle" x="321" y="-13" font-family="Helvetica,sans-Serif" font-size="10.00">/adc.cpp</text>
</a>
</g>
</g>
<!-- Node1&#45;&gt;Node4 -->
<g id="edge3" class="edge"><title>Node1&#45;&gt;Node4</title>
<path fill="none" stroke="midnightblue" d="M416.071,-73.5576C394.308,-61.7557 366.778,-46.8255 346.95,-36.0729"/>
<polygon fill="midnightblue" stroke="midnightblue" points="414.546,-76.7122 425.005,-78.4027 417.883,-70.5588 414.546,-76.7122"/>
</g>
<!-- Node5 -->
<g id="node5" class="node"><title>Node5</title>
<g id="a_node5"><a xlink:href="../../df/d49/stm32_2adc_2adc_8cpp.html" target="_top" xlink:title="src/drivers/stm32/adc\l/adc.cpp">
<polygon fill="white" stroke="black" points="395.5,-6 395.5,-36 506.5,-36 506.5,-6 395.5,-6"/>
<text text-anchor="start" x="403.5" y="-24" font-family="Helvetica,sans-Serif" font-size="10.00">src/drivers/stm32/adc</text>
<text text-anchor="middle" x="451" y="-13" font-family="Helvetica,sans-Serif" font-size="10.00">/adc.cpp</text>
</a>
</g>
</g>
<!-- Node1&#45;&gt;Node5 -->
<g id="edge4" class="edge"><title>Node1&#45;&gt;Node5</title>
<path fill="none" stroke="midnightblue" d="M451,-68.2317C451,-57.5679 451,-45.4145 451,-36.2455"/>
<polygon fill="midnightblue" stroke="midnightblue" points="447.5,-68.2332 451,-78.2333 454.5,-68.2333 447.5,-68.2332"/>
</g>
<!-- Node6 -->
<g id="node6" class="node"><title>Node6</title>
<g id="a_node6"><a xlink:href="../../da/d73/_commander_8cpp.html" target="_top" xlink:title="src/modules/commander\l/Commander.cpp">
<polygon fill="white" stroke="black" points="525,-6 525,-36 649,-36 649,-6 525,-6"/>
<text text-anchor="start" x="533" y="-24" font-family="Helvetica,sans-Serif" font-size="10.00">src/modules/commander</text>
<text text-anchor="middle" x="587" y="-13" font-family="Helvetica,sans-Serif" font-size="10.00">/Commander.cpp</text>
</a>
</g>
</g>
<!-- Node1&#45;&gt;Node6 -->
<g id="edge5" class="edge"><title>Node1&#45;&gt;Node6</title>
<path fill="none" stroke="midnightblue" d="M487.237,-73.7155C510.051,-61.8891 539.017,-46.8735 559.852,-36.0729"/>
<polygon fill="midnightblue" stroke="midnightblue" points="485.462,-70.6931 478.195,-78.4027 488.684,-76.9078 485.462,-70.6931"/>
</g>
<!-- Node7 -->
<g id="node7" class="node"><title>Node7</title>
<g id="a_node7"><a xlink:href="../../d7/d24/_preflight_check_8cpp.html" target="_top" xlink:title="Preflight check for main system components. ">
<polygon fill="white" stroke="black" points="667,-6 667,-36 791,-36 791,-6 667,-6"/>
<text text-anchor="start" x="675" y="-24" font-family="Helvetica,sans-Serif" font-size="10.00">src/modules/commander</text>
<text text-anchor="middle" x="729" y="-13" font-family="Helvetica,sans-Serif" font-size="10.00">/PreflightCheck.cpp</text>
</a>
</g>
</g>
<!-- Node1&#45;&gt;Node7 -->
<g id="edge6" class="edge"><title>Node1&#45;&gt;Node7</title>
<path fill="none" stroke="midnightblue" d="M520.893,-76.0976C561.087,-66.503 612.485,-53.9586 658,-42 665.06,-40.1451 672.496,-38.1247 679.79,-36.1044"/>
<polygon fill="midnightblue" stroke="midnightblue" points="519.843,-72.7497 510.926,-78.4712 521.465,-79.5592 519.843,-72.7497"/>
</g>
<!-- Node8 -->
<g id="node8" class="node"><title>Node8</title>
<g id="a_node8"><a xlink:href="../../db/d28/meas__airspeed__sim_8cpp.html" target="_top" xlink:title="src/modules/simulator\l/airspeedsim/meas_airspeed\l_sim.cpp">
<polygon fill="white" stroke="black" points="809.5,-0.5 809.5,-41.5 950.5,-41.5 950.5,-0.5 809.5,-0.5"/>
<text text-anchor="start" x="817.5" y="-29.5" font-family="Helvetica,sans-Serif" font-size="10.00">src/modules/simulator</text>
<text text-anchor="start" x="817.5" y="-18.5" font-family="Helvetica,sans-Serif" font-size="10.00">/airspeedsim/meas_airspeed</text>
<text text-anchor="middle" x="880" y="-7.5" font-family="Helvetica,sans-Serif" font-size="10.00">_sim.cpp</text>
</a>
</g>
</g>
<!-- Node1&#45;&gt;Node8 -->
<g id="edge7" class="edge"><title>Node1&#45;&gt;Node8</title>
<path fill="none" stroke="midnightblue" d="M521.663,-84.4068C592.417,-75.8035 704.244,-60.8471 800,-42 803.09,-41.3918 806.24,-40.7403 809.417,-40.0577"/>
<polygon fill="midnightblue" stroke="midnightblue" points="521.037,-80.9568 511.529,-85.6297 521.876,-87.9064 521.037,-80.9568"/>
</g>
</g>
</svg>
