<?xml version="1.0" encoding="UTF-8" standalone="no"?>
<!DOCTYPE svg PUBLIC "-//W3C//DTD SVG 1.1//EN"
 "http://www.w3.org/Graphics/SVG/1.1/DTD/svg11.dtd">
<!-- Generated by graphviz version 2.40.1 (20161225.0304)
 -->
<!-- Title: ICM20948::set_accel_range Pages: 1 -->
<!--zoomable 122 -->
<svg id="main" version="1.1" xmlns="http://www.w3.org/2000/svg" xmlns:xlink="http://www.w3.org/1999/xlink" xml:space="preserve" onload="init(evt)">
<style type="text/css"><![CDATA[
.edge:hover path { stroke: red; }
.edge:hover polygon { stroke: red; fill: red; }
]]></style>
<script type="text/javascript"><![CDATA[
var edges = document.getElementsByTagName('g');
if (edges && edges.length) {
  for (var i=0;i<edges.length;i++) {
    if (edges[i].id.substr(0,4)=='edge') {
      edges[i].setAttribute('class','edge');
    }
  }
}
]]></script>
        <defs>
                <circle id="rim" cx="0" cy="0" r="7"/>
                <circle id="rim2" cx="0" cy="0" r="3.5"/>
                <g id="zoomPlus">
                        <use xlink:href="#rim" fill="#404040">
                                <set attributeName="fill" to="#808080" begin="zoomplus.mouseover" end="zoomplus.mouseout"/>
                        </use>
                        <path d="M-4,0h8M0,-4v8" fill="none" stroke="white" stroke-width="1.5" pointer-events="none"/>
                </g>
                <g id="zoomMin">
                        <use xlink:href="#rim" fill="#404040">
                                <set attributeName="fill" to="#808080" begin="zoomminus.mouseover" end="zoomminus.mouseout"/>
                        </use>
                        <path d="M-4,0h8" fill="none" stroke="white" stroke-width="1.5" pointer-events="none"/>
                </g>
                <g id="dirArrow">
                        <path fill="none" stroke="white" stroke-width="1.5" d="M0,-3.0v7 M-2.5,-0.5L0,-3.0L2.5,-0.5"/>
                </g>
               <g id="resetDef">
                       <use xlink:href="#rim2" fill="#404040">
                               <set attributeName="fill" to="#808080" begin="reset.mouseover" end="reset.mouseout"/>
                       </use>
               </g>
        </defs>

<script type="text/javascript">
var viewWidth = 989;
var viewHeight = 122;
var sectionId = 'dynsection-38';
</script>
<script xlink:href="../../svgpan.js"/>
<svg id="graph" class="graph">
<g id="viewport">
<title>ICM20948::set_accel_range</title>
<polygon fill="#ffffff" stroke="transparent" points="-4,4 -4,-117.5 985,-117.5 985,4 -4,4"/>
<!-- Node420 -->
<g id="node1" class="node">
<title>Node420</title>
<polygon fill="#bfbfbf" stroke="#000000" points="0,-22.5 0,-52.5 110,-52.5 110,-22.5 0,-22.5"/>
<text text-anchor="start" x="8" y="-40.5" font-family="Helvetica,sans-Serif" font-size="10.00" fill="#000000">ICM20948::set_accel</text>
<text text-anchor="middle" x="55" y="-29.5" font-family="Helvetica,sans-Serif" font-size="10.00" fill="#000000">_range</text>
</g>
<!-- Node421 -->
<g id="node2" class="node">
<title>Node421</title>
<g id="a_node2"><a xlink:href="../../da/d2e/class_i_c_m20948.html#aaa9b0fac9c4b5a8530a93dd8d5b7b806" target="_top" xlink:title="Modify a checked register in the mpu. ">
<polygon fill="#ffffff" stroke="#000000" points="146,-50 146,-69 304,-69 304,-50 146,-50"/>
<text text-anchor="middle" x="225" y="-57" font-family="Helvetica,sans-Serif" font-size="10.00" fill="#000000">ICM20948::modify_checked_reg</text>
</a>
</g>
</g>
<!-- Node420&#45;&gt;Node421 -->
<g id="edge1" class="edge">
<title>Node420&#45;&gt;Node421</title>
<path fill="none" stroke="#191970" d="M110.1941,-44.6428C120.1861,-45.9359 130.8073,-47.3104 141.3995,-48.6811"/>
<polygon fill="#191970" stroke="#191970" points="141.1581,-52.179 151.5246,-49.9914 142.0565,-45.2369 141.1581,-52.179"/>
</g>
<!-- Node428 -->
<g id="node9" class="node">
<title>Node428</title>
<g id="a_node9"><a xlink:href="../../db/def/class_p_x4_accelerometer.html#a13af2eac41b4baaf5b0238e2b2a3891c" target="_top" xlink:title="PX4Accelerometer::set\l_scale">
<polygon fill="#ffffff" stroke="#000000" points="166,-.5 166,-30.5 284,-30.5 284,-.5 166,-.5"/>
<text text-anchor="start" x="174" y="-18.5" font-family="Helvetica,sans-Serif" font-size="10.00" fill="#000000">PX4Accelerometer::set</text>
<text text-anchor="middle" x="225" y="-7.5" font-family="Helvetica,sans-Serif" font-size="10.00" fill="#000000">_scale</text>
</a>
</g>
</g>
<!-- Node420&#45;&gt;Node428 -->
<g id="edge11" class="edge">
<title>Node420&#45;&gt;Node428</title>
<path fill="none" stroke="#191970" d="M110.1941,-30.3572C124.6883,-28.4815 140.5064,-26.4345 155.6395,-24.4761"/>
<polygon fill="#191970" stroke="#191970" points="156.514,-27.8922 165.9821,-23.1376 155.6156,-20.9501 156.514,-27.8922"/>
</g>
<!-- Node422 -->
<g id="node3" class="node">
<title>Node422</title>
<g id="a_node3"><a xlink:href="../../da/d2e/class_i_c_m20948.html#a6a0cad351e917caebcde6f458ed4eee4" target="_top" xlink:title="Read a register from the mpu. ">
<polygon fill="#ffffff" stroke="#000000" points="536,-85 536,-104 641,-104 641,-85 536,-85"/>
<text text-anchor="middle" x="588.5" y="-92" font-family="Helvetica,sans-Serif" font-size="10.00" fill="#000000">ICM20948::read_reg</text>
</a>
</g>
</g>
<!-- Node421&#45;&gt;Node422 -->
<g id="edge2" class="edge">
<title>Node421&#45;&gt;Node422</title>
<path fill="none" stroke="#191970" d="M288.1818,-69.0073C304.9963,-71.3412 323.165,-73.687 340,-75.5 402.9862,-82.283 475.2098,-87.5221 525.5017,-90.7646"/>
<polygon fill="#191970" stroke="#191970" points="525.3713,-94.2633 535.5736,-91.4062 525.8164,-87.2775 525.3713,-94.2633"/>
</g>
<!-- Node426 -->
<g id="node7" class="node">
<title>Node426</title>
<g id="a_node7"><a xlink:href="../../da/d2e/class_i_c_m20948.html#aceecea47eb08c8033d34799f0ba60202" target="_top" xlink:title="Write a register in the mpu, updating _checked_values. ">
<polygon fill="#ffffff" stroke="#000000" points="345,-47 345,-66 494,-66 494,-47 345,-47"/>
<text text-anchor="middle" x="419.5" y="-54" font-family="Helvetica,sans-Serif" font-size="10.00" fill="#000000">ICM20948::write_checked_reg</text>
</a>
</g>
</g>
<!-- Node421&#45;&gt;Node426 -->
<g id="edge7" class="edge">
<title>Node421&#45;&gt;Node426</title>
<path fill="none" stroke="#191970" d="M304.1106,-58.2798C314.2072,-58.1241 324.5742,-57.9642 334.7553,-57.8071"/>
<polygon fill="#191970" stroke="#191970" points="334.9127,-61.3052 344.8575,-57.6513 334.8047,-54.306 334.9127,-61.3052"/>
</g>
<!-- Node423 -->
<g id="node4" class="node">
<title>Node423</title>
<g id="a_node4"><a xlink:href="../../dd/dd3/classdevice_1_1_device.html#a0700ecd19a8206ba1a378ca8d2eca273" target="_top" xlink:title="Read directly from the device. ">
<polygon fill="#ffffff" stroke="#000000" points="873,-94 873,-113 980,-113 980,-94 873,-94"/>
<text text-anchor="middle" x="926.5" y="-101" font-family="Helvetica,sans-Serif" font-size="10.00" fill="#000000">device::Device::read</text>
</a>
</g>
</g>
<!-- Node422&#45;&gt;Node423 -->
<g id="edge3" class="edge">
<title>Node422&#45;&gt;Node423</title>
<path fill="none" stroke="#191970" d="M641.3125,-95.9063C701.111,-97.4985 798.5252,-100.0924 862.5694,-101.7977"/>
<polygon fill="#191970" stroke="#191970" points="862.8532,-105.3064 872.9429,-102.0739 863.0396,-98.3089 862.8532,-105.3064"/>
</g>
<!-- Node424 -->
<g id="node5" class="node">
<title>Node424</title>
<g id="a_node5"><a xlink:href="../../da/d2e/class_i_c_m20948.html#ac98dca5d5ccd271e119bd0732cf7423e" target="_top" xlink:title="Select a register bank in ICM20948. ">
<polygon fill="#ffffff" stroke="#000000" points="678,-66 678,-85 836,-85 836,-66 678,-66"/>
<text text-anchor="middle" x="757" y="-73" font-family="Helvetica,sans-Serif" font-size="10.00" fill="#000000">ICM20948::select_register_bank</text>
</a>
</g>
</g>
<!-- Node422&#45;&gt;Node424 -->
<g id="edge4" class="edge">
<title>Node422&#45;&gt;Node424</title>
<path fill="none" stroke="#191970" d="M641.3521,-88.5404C649.767,-87.5916 658.6695,-86.5877 667.6496,-85.5751"/>
<polygon fill="#191970" stroke="#191970" points="668.2547,-89.0292 677.7995,-84.4306 667.4703,-82.0732 668.2547,-89.0292"/>
</g>
<!-- Node424&#45;&gt;Node423 -->
<g id="edge5" class="edge">
<title>Node424&#45;&gt;Node423</title>
<path fill="none" stroke="#191970" d="M814.8582,-85.0577C830.2778,-87.6049 847.0223,-90.3709 862.7391,-92.9672"/>
<polygon fill="#191970" stroke="#191970" points="862.4578,-96.4681 872.8946,-94.6448 863.5988,-89.5617 862.4578,-96.4681"/>
</g>
<!-- Node425 -->
<g id="node6" class="node">
<title>Node425</title>
<g id="a_node6"><a xlink:href="../../dd/dd3/classdevice_1_1_device.html#a233074b15f0089e91f498121d4d85a53" target="_top" xlink:title="Write directly to the device. ">
<polygon fill="#ffffff" stroke="#000000" points="872,-47 872,-66 981,-66 981,-47 872,-47"/>
<text text-anchor="middle" x="926.5" y="-54" font-family="Helvetica,sans-Serif" font-size="10.00" fill="#000000">device::Device::write</text>
</a>
</g>
</g>
<!-- Node424&#45;&gt;Node425 -->
<g id="edge6" class="edge">
<title>Node424&#45;&gt;Node425</title>
<path fill="none" stroke="#191970" d="M836.291,-66.6119C844.8666,-65.6506 853.5171,-64.681 861.8893,-63.7425"/>
<polygon fill="#191970" stroke="#191970" points="862.3919,-67.2082 871.9398,-62.6159 861.6121,-60.2517 862.3919,-67.2082"/>
</g>
<!-- Node427 -->
<g id="node8" class="node">
<title>Node427</title>
<g id="a_node8"><a xlink:href="../../da/d2e/class_i_c_m20948.html#afa4709b478278444a9da6f8c87428902" target="_top" xlink:title="Write a register in the mpu. ">
<polygon fill="#ffffff" stroke="#000000" points="535,-47 535,-66 642,-66 642,-47 535,-47"/>
<text text-anchor="middle" x="588.5" y="-54" font-family="Helvetica,sans-Serif" font-size="10.00" fill="#000000">ICM20948::write_reg</text>
</a>
</g>
</g>
<!-- Node426&#45;&gt;Node427 -->
<g id="edge8" class="edge">
<title>Node426&#45;&gt;Node427</title>
<path fill="none" stroke="#191970" d="M494.1178,-56.5C504.2899,-56.5 514.6558,-56.5 524.6147,-56.5"/>
<polygon fill="#191970" stroke="#191970" points="524.8206,-60.0001 534.8205,-56.5 524.8205,-53.0001 524.8206,-60.0001"/>
</g>
<!-- Node427&#45;&gt;Node424 -->
<g id="edge9" class="edge">
<title>Node427&#45;&gt;Node424</title>
<path fill="none" stroke="#191970" d="M642.2777,-62.564C650.4463,-63.485 659.0567,-64.4559 667.7382,-65.4349"/>
<polygon fill="#191970" stroke="#191970" points="667.6108,-68.9426 677.9401,-66.5852 668.3952,-61.9867 667.6108,-68.9426"/>
</g>
<!-- Node427&#45;&gt;Node425 -->
<g id="edge10" class="edge">
<title>Node427&#45;&gt;Node425</title>
<path fill="none" stroke="#191970" d="M642.0571,-56.5C701.5684,-56.5 797.6636,-56.5 861.452,-56.5"/>
<polygon fill="#191970" stroke="#191970" points="861.7931,-60.0001 871.7931,-56.5 861.7931,-53.0001 861.7931,-60.0001"/>
</g>
<!-- Node429 -->
<g id="node10" class="node">
<title>Node429</title>
<g id="a_node10"><a xlink:href="../../de/d84/classu_o_r_b_1_1_publication_multi_data.html#ad34053c0417701f6951d21e5b6618b34" target="_top" xlink:title="uORB::PublicationMultiData::get">
<polygon fill="#ffffff" stroke="#000000" points="340,-6 340,-25 499,-25 499,-6 340,-6"/>
<text text-anchor="middle" x="419.5" y="-13" font-family="Helvetica,sans-Serif" font-size="10.00" fill="#000000">uORB::PublicationMultiData::get</text>
</a>
</g>
</g>
<!-- Node428&#45;&gt;Node429 -->
<g id="edge12" class="edge">
<title>Node428&#45;&gt;Node429</title>
<path fill="none" stroke="#191970" d="M284.1486,-15.5C298.5425,-15.5 314.2592,-15.5 329.7224,-15.5"/>
<polygon fill="#191970" stroke="#191970" points="329.831,-19.0001 339.8309,-15.5 329.8309,-12.0001 329.831,-19.0001"/>
</g>
</g>
</svg>
        <g id="navigator" transform="translate(0 0)" fill="#404254">
                <rect fill="#f2f5e9" fill-opacity="0.5" stroke="#606060" stroke-width=".5" x="0" y="0" width="60" height="60"/>
                <use id="zoomplus" xlink:href="#zoomPlus" x="17" y="9" onmousedown="handleZoom(evt,'in')"/>
                <use id="zoomminus" xlink:href="#zoomMin" x="42" y="9" onmousedown="handleZoom(evt,'out')"/>
                <use id="reset" xlink:href="#resetDef" x="30" y="36" onmousedown="handleReset()"/>
                <g id="arrowUp" xlink:href="#dirArrow" transform="translate(30 24)" onmousedown="handlePan(0,-1)">
                  <use xlink:href="#rim" fill="#404040">
                        <set attributeName="fill" to="#808080" begin="arrowUp.mouseover" end="arrowUp.mouseout"/>
                  </use>
                  <path fill="none" stroke="white" stroke-width="1.5" d="M0,-3.0v7 M-2.5,-0.5L0,-3.0L2.5,-0.5"/>
                </g>
                <g id="arrowRight" xlink:href="#dirArrow" transform="rotate(90) translate(36 -43)" onmousedown="handlePan(1,0)">
                  <use xlink:href="#rim" fill="#404040">
                        <set attributeName="fill" to="#808080" begin="arrowRight.mouseover" end="arrowRight.mouseout"/>
                  </use>
                  <path fill="none" stroke="white" stroke-width="1.5" d="M0,-3.0v7 M-2.5,-0.5L0,-3.0L2.5,-0.5"/>
                </g>
                <g id="arrowDown" xlink:href="#dirArrow" transform="rotate(180) translate(-30 -48)" onmousedown="handlePan(0,1)">
                  <use xlink:href="#rim" fill="#404040">
                        <set attributeName="fill" to="#808080" begin="arrowDown.mouseover" end="arrowDown.mouseout"/>
                  </use>
                  <path fill="none" stroke="white" stroke-width="1.5" d="M0,-3.0v7 M-2.5,-0.5L0,-3.0L2.5,-0.5"/>
                </g>
                <g id="arrowLeft" xlink:href="#dirArrow" transform="rotate(270) translate(-36 17)" onmousedown="handlePan(-1,0)">
                  <use xlink:href="#rim" fill="#404040">
                        <set attributeName="fill" to="#808080" begin="arrowLeft.mouseover" end="arrowLeft.mouseout"/>
                  </use>
                  <path fill="none" stroke="white" stroke-width="1.5" d="M0,-3.0v7 M-2.5,-0.5L0,-3.0L2.5,-0.5"/>
                </g>
        </g>
        <svg viewBox="0 0 15 15" width="100%" height="30px" preserveAspectRatio="xMaxYMin meet">
         <g id="arrow_out" transform="scale(0.3 0.3)">
          <a xlink:href="class_i_c_m20948_a107acc9c81bb04d3526bb75e66e6771a_cgraph_org.svg" target="_base">
           <rect id="button" ry="5" rx="5" y="6" x="6" height="38" width="38"
                fill="#f2f5e9" fill-opacity="0.5" stroke="#606060" stroke-width="1.0"/>
           <path id="arrow"
             d="M 11.500037,31.436501 C 11.940474,20.09759 22.043105,11.32322 32.158766,21.979434 L 37.068811,17.246167 C 37.068811,17.246167 37.088388,32 37.088388,32 L 22.160133,31.978069 C 22.160133,31.978069 26.997745,27.140456 26.997745,27.140456 C 18.528582,18.264221 13.291696,25.230495 11.500037,31.436501 z"
             style="fill:#404040;"/>
          </a>
         </g>
        </svg>
</svg>
