<?xml version="1.0" encoding="UTF-8" standalone="no"?>
<!DOCTYPE svg PUBLIC "-//W3C//DTD SVG 1.1//EN"
 "http://www.w3.org/Graphics/SVG/1.1/DTD/svg11.dtd">
<!-- Generated by graphviz version 2.38.0 (20140413.2041)
 -->
<!-- Title: MavlinkShell::shell_start_thread Pages: 1 -->
<!--zoomable 386 -->
<svg id="main" version="1.1" xmlns="http://www.w3.org/2000/svg" xmlns:xlink="http://www.w3.org/1999/xlink" xml:space="preserve" onload="init(evt)">
<style type="text/css"><![CDATA[
.edge:hover path { stroke: red; }
.edge:hover polygon { stroke: red; fill: red; }
]]></style>
<script type="text/javascript"><![CDATA[
var edges = document.getElementsByTagName('g');
if (edges && edges.length) {
  for (var i=0;i<edges.length;i++) {
    if (edges[i].id.substr(0,4)=='edge') {
      edges[i].setAttribute('class','edge');
    }
  }
}
]]></script>
        <defs>
                <circle id="rim" cx="0" cy="0" r="7"/>
                <circle id="rim2" cx="0" cy="0" r="3.5"/>
                <g id="zoomPlus">
                        <use xlink:href="#rim" fill="#404040">
                                <set attributeName="fill" to="#808080" begin="zoomplus.mouseover" end="zoomplus.mouseout"/>
                        </use>
                        <path d="M-4,0h8M0,-4v8" fill="none" stroke="white" stroke-width="1.5" pointer-events="none"/>
                </g>
                <g id="zoomMin">
                        <use xlink:href="#rim" fill="#404040">
                                <set attributeName="fill" to="#808080" begin="zoomminus.mouseover" end="zoomminus.mouseout"/>
                        </use>
                        <path d="M-4,0h8" fill="none" stroke="white" stroke-width="1.5" pointer-events="none"/>
                </g>
                <g id="dirArrow">
                        <path fill="none" stroke="white" stroke-width="1.5" d="M0,-3.0v7 M-2.5,-0.5L0,-3.0L2.5,-0.5"/>
                </g>
               <g id="resetDef">
                       <use xlink:href="#rim2" fill="#404040">
                               <set attributeName="fill" to="#808080" begin="reset.mouseover" end="reset.mouseout"/>
                       </use>
               </g>
        </defs>

<script type="text/javascript">
var viewWidth = 3270;
var viewHeight = 386;
var sectionId = 'dynsection-4';
</script>
<script xlink:href="../../svgpan.js"/>
<svg id="graph" class="graph">
<g id="viewport">
<title>MavlinkShell::shell_start_thread</title>
<polygon fill="white" stroke="none" points="-4,4 -4,-382.372 3266,-382.372 3266,4 -4,4"/>
<!-- Node1 -->
<g id="node1" class="node"><title>Node1</title>
<polygon fill="#bfbfbf" stroke="black" points="0,-178 0,-208 98,-208 98,-178 0,-178"/>
<text text-anchor="start" x="8" y="-196" font-family="Helvetica,sans-Serif" font-size="10.00">MavlinkShell::shell</text>
<text text-anchor="middle" x="49" y="-185" font-family="Helvetica,sans-Serif" font-size="10.00">_start_thread</text>
</g>
<!-- Node2 -->
<g id="node2" class="node"><title>Node2</title>
<g id="a_node2"><a xlink:href="../../d1/dbf/class_mavlink_shell.html#a2a27fc2462e7b2e9fa227dcf6d493955" target="_top" xlink:title="Start the mavlink shell. ">
<polygon fill="white" stroke="black" points="134,-183.5 134,-202.5 232,-202.5 232,-183.5 134,-183.5"/>
<text text-anchor="middle" x="183" y="-190.5" font-family="Helvetica,sans-Serif" font-size="10.00">MavlinkShell::start</text>
</a>
</g>
</g>
<!-- Node1&#45;&gt;Node2 -->
<g id="edge1" class="edge"><title>Node1&#45;&gt;Node2</title>
<path fill="none" stroke="midnightblue" d="M108.292,-193C116.809,-193 125.5,-193 133.786,-193"/>
<polygon fill="midnightblue" stroke="midnightblue" points="108.028,-189.5 98.0284,-193 108.028,-196.5 108.028,-189.5"/>
</g>
<!-- Node3 -->
<g id="node3" class="node"><title>Node3</title>
<g id="a_node3"><a xlink:href="../../df/d1f/class_mavlink.html#ab0cacfa66680d7b28ae3a9eb774b8819" target="_top" xlink:title="get the Mavlink shell. ">
<polygon fill="white" stroke="black" points="268,-183.5 268,-202.5 363,-202.5 363,-183.5 268,-183.5"/>
<text text-anchor="middle" x="315.5" y="-190.5" font-family="Helvetica,sans-Serif" font-size="10.00">Mavlink::get_shell</text>
</a>
</g>
</g>
<!-- Node2&#45;&gt;Node3 -->
<g id="edge2" class="edge"><title>Node2&#45;&gt;Node3</title>
<path fill="none" stroke="midnightblue" d="M242.452,-193C250.933,-193 259.569,-193 267.778,-193"/>
<polygon fill="midnightblue" stroke="midnightblue" points="242.223,-189.5 232.223,-193 242.223,-196.5 242.223,-189.5"/>
</g>
<!-- Node4 -->
<g id="node4" class="node"><title>Node4</title>
<g id="a_node4"><a xlink:href="../../df/d1f/class_mavlink.html#af44bc86938a6f14962231c7e16582222" target="_top" xlink:title="Mavlink::get_main_loop\l_delay">
<polygon fill="white" stroke="black" points="399,-156 399,-186 518,-186 518,-156 399,-156"/>
<text text-anchor="start" x="407" y="-174" font-family="Helvetica,sans-Serif" font-size="10.00">Mavlink::get_main_loop</text>
<text text-anchor="middle" x="458.5" y="-163" font-family="Helvetica,sans-Serif" font-size="10.00">_delay</text>
</a>
</g>
</g>
<!-- Node3&#45;&gt;Node4 -->
<g id="edge3" class="edge"><title>Node3&#45;&gt;Node4</title>
<path fill="none" stroke="midnightblue" d="M373.213,-184.151C381.677,-182.831 390.417,-181.467 398.919,-180.14"/>
<polygon fill="midnightblue" stroke="midnightblue" points="372.4,-180.736 363.059,-185.735 373.479,-187.652 372.4,-180.736"/>
</g>
<!-- Node38 -->
<g id="node38" class="node"><title>Node38</title>
<g id="a_node38"><a xlink:href="../../da/d89/class_mavlink_receiver.html#ab2e7df0af46ac412e1d59956eb0735d5" target="_top" xlink:title="MavlinkReceiver::handle\l_message_serial_control">
<polygon fill="white" stroke="black" points="554,-262 554,-292 679,-292 679,-262 554,-262"/>
<text text-anchor="start" x="562" y="-280" font-family="Helvetica,sans-Serif" font-size="10.00">MavlinkReceiver::handle</text>
<text text-anchor="middle" x="616.5" y="-269" font-family="Helvetica,sans-Serif" font-size="10.00">_message_serial_control</text>
</a>
</g>
</g>
<!-- Node3&#45;&gt;Node38 -->
<g id="edge50" class="edge"><title>Node3&#45;&gt;Node38</title>
<path fill="none" stroke="midnightblue" d="M360.374,-205.326C413.879,-220.357 504.283,-245.755 561.868,-261.933"/>
<polygon fill="midnightblue" stroke="midnightblue" points="361.082,-201.889 350.508,-202.554 359.189,-208.628 361.082,-201.889"/>
</g>
<!-- Node5 -->
<g id="node5" class="node"><title>Node5</title>
<g id="a_node5"><a xlink:href="../../d1/df2/class_mavlink_stream.html#ac861aa2bd187c1856606d25c2b33df95" target="_top" xlink:title="Update subscriptions and send message if necessary. ">
<polygon fill="white" stroke="black" points="558,-161.5 558,-180.5 675,-180.5 675,-161.5 558,-161.5"/>
<text text-anchor="middle" x="616.5" y="-168.5" font-family="Helvetica,sans-Serif" font-size="10.00">MavlinkStream::update</text>
</a>
</g>
</g>
<!-- Node4&#45;&gt;Node5 -->
<g id="edge4" class="edge"><title>Node4&#45;&gt;Node5</title>
<path fill="none" stroke="midnightblue" d="M528.257,-171C538.165,-171 548.275,-171 557.935,-171"/>
<polygon fill="midnightblue" stroke="midnightblue" points="528.033,-167.5 518.032,-171 528.032,-174.5 528.033,-167.5"/>
</g>
<!-- Node6 -->
<g id="node6" class="node"><title>Node6</title>
<g id="a_node6"><a xlink:href="../../df/d1f/class_mavlink.html#a2325401a575b272fc1474d502388241f" target="_top" xlink:title="Main mavlink task. ">
<polygon fill="white" stroke="black" points="1640.5,-59.5 1640.5,-78.5 1741.5,-78.5 1741.5,-59.5 1640.5,-59.5"/>
<text text-anchor="middle" x="1691" y="-66.5" font-family="Helvetica,sans-Serif" font-size="10.00">Mavlink::task_main</text>
</a>
</g>
</g>
<!-- Node5&#45;&gt;Node6 -->
<g id="edge5" class="edge"><title>Node5&#45;&gt;Node6</title>
<path fill="none" stroke="midnightblue" d="M638.825,-155.321C685.52,-122.589 801.376,-50 910.5,-50 910.5,-50 910.5,-50 1374,-50 1468.26,-50 1578.04,-58.5271 1640.25,-64.1563"/>
<polygon fill="midnightblue" stroke="midnightblue" points="636.544,-152.649 630.431,-161.303 640.606,-158.35 636.544,-152.649"/>
</g>
<!-- Node23 -->
<g id="node23" class="node"><title>Node23</title>
<g id="a_node23"><a xlink:href="../../d1/df2/class_mavlink_stream.html#a3f00bff476cba7a35bf8fd1e4a07a211" target="_top" xlink:title="Get the interval. ">
<polygon fill="white" stroke="black" points="715,-156 715,-186 816,-186 816,-156 715,-156"/>
<text text-anchor="start" x="723" y="-174" font-family="Helvetica,sans-Serif" font-size="10.00">MavlinkStream::get</text>
<text text-anchor="middle" x="765.5" y="-163" font-family="Helvetica,sans-Serif" font-size="10.00">_interval</text>
</a>
</g>
</g>
<!-- Node5&#45;&gt;Node23 -->
<g id="edge26" class="edge"><title>Node5&#45;&gt;Node23</title>
<path fill="none" stroke="midnightblue" d="M685.364,-171C695.215,-171 705.203,-171 714.612,-171"/>
<polygon fill="midnightblue" stroke="midnightblue" points="685.176,-167.5 675.176,-171 685.176,-174.5 685.176,-167.5"/>
</g>
<!-- Node7 -->
<g id="node7" class="node"><title>Node7</title>
<g id="a_node7"><a xlink:href="../../df/d1f/class_mavlink.html#aad2c17a259e6cfbfe20113c8da8f6cae" target="_top" xlink:title="Mavlink::start_helper">
<polygon fill="white" stroke="black" points="1807,-59.5 1807,-78.5 1914,-78.5 1914,-59.5 1807,-59.5"/>
<text text-anchor="middle" x="1860.5" y="-66.5" font-family="Helvetica,sans-Serif" font-size="10.00">Mavlink::start_helper</text>
</a>
</g>
</g>
<!-- Node6&#45;&gt;Node7 -->
<g id="edge6" class="edge"><title>Node6&#45;&gt;Node7</title>
<path fill="none" stroke="midnightblue" d="M1751.9,-69C1769.9,-69 1789.5,-69 1806.98,-69"/>
<polygon fill="midnightblue" stroke="midnightblue" points="1751.8,-65.5001 1741.8,-69 1751.8,-72.5001 1751.8,-65.5001"/>
</g>
<!-- Node8 -->
<g id="node8" class="node"><title>Node8</title>
<g id="a_node8"><a xlink:href="../../df/d1f/class_mavlink.html#af06ea4dffa8d7b911690a99456a4814a" target="_top" xlink:title="Mavlink::broadcast\l_enabled">
<polygon fill="white" stroke="black" points="1976,-29 1976,-59 2075,-59 2075,-29 1976,-29"/>
<text text-anchor="start" x="1984" y="-47" font-family="Helvetica,sans-Serif" font-size="10.00">Mavlink::broadcast</text>
<text text-anchor="middle" x="2025.5" y="-36" font-family="Helvetica,sans-Serif" font-size="10.00">_enabled</text>
</a>
</g>
</g>
<!-- Node7&#45;&gt;Node8 -->
<g id="edge7" class="edge"><title>Node7&#45;&gt;Node8</title>
<path fill="none" stroke="midnightblue" d="M1924.35,-59.3604C1941.48,-56.7326 1959.78,-53.9266 1975.98,-51.4415"/>
<polygon fill="midnightblue" stroke="midnightblue" points="1923.78,-55.9076 1914.42,-60.8832 1924.84,-62.8267 1923.78,-55.9076"/>
</g>
<!-- Node22 -->
<g id="node22" class="node"><title>Node22</title>
<g id="a_node22"><a xlink:href="../../df/d1f/class_mavlink.html#a3f96c3503833a477332c8584bb8fbc67" target="_top" xlink:title="Start the mavlink task. ">
<polygon fill="white" stroke="black" points="1987.5,-78.5 1987.5,-97.5 2063.5,-97.5 2063.5,-78.5 1987.5,-78.5"/>
<text text-anchor="middle" x="2025.5" y="-85.5" font-family="Helvetica,sans-Serif" font-size="10.00">Mavlink::start</text>
</a>
</g>
</g>
<!-- Node7&#45;&gt;Node22 -->
<g id="edge24" class="edge"><title>Node7&#45;&gt;Node22</title>
<path fill="none" stroke="midnightblue" d="M1924.37,-76.328C1945.63,-78.8069 1968.69,-81.4943 1987.31,-83.6648"/>
<polygon fill="midnightblue" stroke="midnightblue" points="1924.76,-72.8502 1914.42,-75.1688 1923.95,-79.8031 1924.76,-72.8502"/>
</g>
<!-- Node9 -->
<g id="node9" class="node"><title>Node9</title>
<g id="a_node9"><a xlink:href="../../df/d1f/class_mavlink.html#aacd190d885c0a9f521f0d7d0673f2b6f" target="_top" xlink:title="Flush the transmit buffer and send one MAVLink packet. ">
<polygon fill="white" stroke="black" points="2137.5,-154.5 2137.5,-173.5 2249.5,-173.5 2249.5,-154.5 2137.5,-154.5"/>
<text text-anchor="middle" x="2193.5" y="-161.5" font-family="Helvetica,sans-Serif" font-size="10.00">Mavlink::send_packet</text>
</a>
</g>
</g>
<!-- Node8&#45;&gt;Node9 -->
<g id="edge8" class="edge"><title>Node8&#45;&gt;Node9</title>
<path fill="none" stroke="midnightblue" d="M2078.23,-63.4325C2081.6,-65.1848 2084.89,-67.0425 2088,-69 2128.25,-94.3454 2167.51,-135.833 2184.16,-154.442"/>
<polygon fill="midnightblue" stroke="midnightblue" points="2079.68,-60.2486 2069.16,-59.044 2076.64,-66.5499 2079.68,-60.2486"/>
</g>
<!-- Node17 -->
<g id="node17" class="node"><title>Node17</title>
<g id="a_node17"><a xlink:href="../../df/d1f/class_mavlink.html#afcac36b1b581d47b7181374d35edbd54" target="_top" xlink:title="Set the boot complete flag on all instances. ">
<polygon fill="white" stroke="black" points="2124,-34.5 2124,-53.5 2263,-53.5 2263,-34.5 2124,-34.5"/>
<text text-anchor="middle" x="2193.5" y="-41.5" font-family="Helvetica,sans-Serif" font-size="10.00">Mavlink::set_boot_complete</text>
</a>
</g>
</g>
<!-- Node8&#45;&gt;Node17 -->
<g id="edge17" class="edge"><title>Node8&#45;&gt;Node17</title>
<path fill="none" stroke="midnightblue" d="M2085.62,-37.5046C2098.04,-37.2329 2111.23,-37.1787 2123.96,-37.3418"/>
<polygon fill="midnightblue" stroke="midnightblue" points="2085.31,-34.0118 2075.41,-37.7839 2085.5,-41.0092 2085.31,-34.0118"/>
</g>
<!-- Node10 -->
<g id="node10" class="node"><title>Node10</title>
<g id="a_node10"><a xlink:href="../../df/d1f/class_mavlink.html#a3aa1fb0ca3f0d77b10a8954618a51abb" target="_top" xlink:title="Get the manual input generation mode. ">
<polygon fill="white" stroke="black" points="2307,-203 2307,-233 2429,-233 2429,-203 2307,-203"/>
<text text-anchor="start" x="2315" y="-221" font-family="Helvetica,sans-Serif" font-size="10.00">Mavlink::get_manual</text>
<text text-anchor="middle" x="2368" y="-210" font-family="Helvetica,sans-Serif" font-size="10.00">_input_mode_generation</text>
</a>
</g>
</g>
<!-- Node9&#45;&gt;Node10 -->
<g id="edge9" class="edge"><title>Node9&#45;&gt;Node10</title>
<path fill="none" stroke="midnightblue" d="M2234.55,-176.536C2259.73,-184.421 2292.38,-194.641 2318.96,-202.961"/>
<polygon fill="midnightblue" stroke="midnightblue" points="2235.53,-173.177 2224.94,-173.53 2233.44,-179.858 2235.53,-173.177"/>
</g>
<!-- Node16 -->
<g id="node16" class="node"><title>Node16</title>
<g id="a_node16"><a xlink:href="../../de/d24/mavlink__main_8cpp.html#a646c2f3486de3d8574422fc4ef1940a2" target="_top" xlink:title="mavlink_end_uart_send">
<polygon fill="white" stroke="black" points="2308.5,-126.5 2308.5,-145.5 2427.5,-145.5 2427.5,-126.5 2308.5,-126.5"/>
<text text-anchor="middle" x="2368" y="-133.5" font-family="Helvetica,sans-Serif" font-size="10.00">mavlink_end_uart_send</text>
</a>
</g>
</g>
<!-- Node9&#45;&gt;Node16 -->
<g id="edge16" class="edge"><title>Node9&#45;&gt;Node16</title>
<path fill="none" stroke="midnightblue" d="M2259.85,-153.393C2275.77,-150.808 2292.71,-148.059 2308.3,-145.528"/>
<polygon fill="midnightblue" stroke="midnightblue" points="2258.86,-150.007 2249.55,-155.064 2259.99,-156.916 2258.86,-150.007"/>
</g>
<!-- Node11 -->
<g id="node11" class="node"><title>Node11</title>
<g id="a_node11"><a xlink:href="../../da/d89/class_mavlink_receiver.html#af99bf01b6ae13dab05c36c0125e179bc" target="_top" xlink:title="MavlinkReceiver::handle\l_message_manual_control">
<polygon fill="white" stroke="black" points="2475.5,-203 2475.5,-233 2608.5,-233 2608.5,-203 2475.5,-203"/>
<text text-anchor="start" x="2483.5" y="-221" font-family="Helvetica,sans-Serif" font-size="10.00">MavlinkReceiver::handle</text>
<text text-anchor="middle" x="2542" y="-210" font-family="Helvetica,sans-Serif" font-size="10.00">_message_manual_control</text>
</a>
</g>
</g>
<!-- Node10&#45;&gt;Node11 -->
<g id="edge10" class="edge"><title>Node10&#45;&gt;Node11</title>
<path fill="none" stroke="midnightblue" d="M2439.45,-218C2451.31,-218 2463.58,-218 2475.31,-218"/>
<polygon fill="midnightblue" stroke="midnightblue" points="2439.16,-214.5 2429.16,-218 2439.16,-221.5 2439.16,-214.5"/>
</g>
<!-- Node12 -->
<g id="node12" class="node"><title>Node12</title>
<g id="a_node12"><a xlink:href="../../da/d89/class_mavlink_receiver.html#ac939c806679dc4278968b1d3e865cc72" target="_top" xlink:title="MavlinkReceiver::handle\l_message">
<polygon fill="white" stroke="black" points="2654,-247 2654,-277 2778,-277 2778,-247 2654,-247"/>
<text text-anchor="start" x="2662" y="-265" font-family="Helvetica,sans-Serif" font-size="10.00">MavlinkReceiver::handle</text>
<text text-anchor="middle" x="2716" y="-254" font-family="Helvetica,sans-Serif" font-size="10.00">_message</text>
</a>
</g>
</g>
<!-- Node11&#45;&gt;Node12 -->
<g id="edge11" class="edge"><title>Node11&#45;&gt;Node12</title>
<path fill="none" stroke="midnightblue" d="M2611.78,-235.594C2626.51,-239.363 2641.95,-243.312 2656.26,-246.974"/>
<polygon fill="midnightblue" stroke="midnightblue" points="2612.27,-232.107 2601.71,-233.019 2610.53,-238.888 2612.27,-232.107"/>
</g>
<!-- Node13 -->
<g id="node13" class="node"><title>Node13</title>
<g id="a_node13"><a xlink:href="../../da/d89/class_mavlink_receiver.html#abf05ea2b60baafd446100f897f9274ab" target="_top" xlink:title="Receive data from UART. ">
<polygon fill="white" stroke="black" points="2821,-159 2821,-189 2948,-189 2948,-159 2821,-159"/>
<text text-anchor="start" x="2829" y="-177" font-family="Helvetica,sans-Serif" font-size="10.00">MavlinkReceiver::receive</text>
<text text-anchor="middle" x="2884.5" y="-166" font-family="Helvetica,sans-Serif" font-size="10.00">_thread</text>
</a>
</g>
</g>
<!-- Node12&#45;&gt;Node13 -->
<g id="edge12" class="edge"><title>Node12&#45;&gt;Node13</title>
<path fill="none" stroke="midnightblue" d="M2754.66,-242.095C2785.1,-226.009 2827.28,-203.712 2854.97,-189.077"/>
<polygon fill="midnightblue" stroke="midnightblue" points="2752.83,-239.105 2745.62,-246.872 2756.1,-245.294 2752.83,-239.105"/>
</g>
<!-- Node14 -->
<g id="node14" class="node"><title>Node14</title>
<g id="a_node14"><a xlink:href="../../da/d89/class_mavlink_receiver.html#a4e6d064186fe746bc3934959a991a908" target="_top" xlink:title="MavlinkReceiver::start\l_helper">
<polygon fill="white" stroke="black" points="2984,-94 2984,-124 3099,-124 3099,-94 2984,-94"/>
<text text-anchor="start" x="2992" y="-112" font-family="Helvetica,sans-Serif" font-size="10.00">MavlinkReceiver::start</text>
<text text-anchor="middle" x="3041.5" y="-101" font-family="Helvetica,sans-Serif" font-size="10.00">_helper</text>
</a>
</g>
</g>
<!-- Node13&#45;&gt;Node14 -->
<g id="edge13" class="edge"><title>Node13&#45;&gt;Node14</title>
<path fill="none" stroke="midnightblue" d="M2930.84,-154.985C2954.3,-145.148 2982.53,-133.309 3004.48,-124.106"/>
<polygon fill="midnightblue" stroke="midnightblue" points="2929.32,-151.829 2921.45,-158.924 2932.03,-158.285 2929.32,-151.829"/>
</g>
<!-- Node15 -->
<g id="node15" class="node"><title>Node15</title>
<g id="a_node15"><a xlink:href="../../da/d89/class_mavlink_receiver.html#aae6564d759626eeebeb19a9dfbdcaf6d" target="_top" xlink:title="Start the receiver thread. ">
<polygon fill="white" stroke="black" points="3135,-39 3135,-69 3262,-69 3262,-39 3135,-39"/>
<text text-anchor="start" x="3143" y="-57" font-family="Helvetica,sans-Serif" font-size="10.00">MavlinkReceiver::receive</text>
<text text-anchor="middle" x="3198.5" y="-46" font-family="Helvetica,sans-Serif" font-size="10.00">_start</text>
</a>
</g>
</g>
<!-- Node14&#45;&gt;Node15 -->
<g id="edge14" class="edge"><title>Node14&#45;&gt;Node15</title>
<path fill="none" stroke="midnightblue" d="M3094.34,-90.6066C3114.11,-83.5883 3136.41,-75.6778 3155.2,-69.0108"/>
<polygon fill="midnightblue" stroke="midnightblue" points="3093.11,-87.3283 3084.85,-93.971 3095.45,-93.9253 3093.11,-87.3283"/>
</g>
<!-- Node15&#45;&gt;Node6 -->
<g id="edge15" class="edge"><title>Node15&#45;&gt;Node6</title>
<path fill="none" stroke="midnightblue" d="M3134.14,-36.4736C3071.49,-20.7052 2972.64,-0 2885.5,-0 2024.5,-0 2024.5,-0 2024.5,-0 1908.95,-0 1775.43,-40.4465 1719.19,-59.4058"/>
<polygon fill="midnightblue" stroke="midnightblue" points="3133.32,-39.8768 3143.88,-38.958 3135.05,-33.0941 3133.32,-39.8768"/>
</g>
<!-- Node17&#45;&gt;Node8 -->
<g id="edge18" class="edge"><title>Node17&#45;&gt;Node8</title>
<path fill="none" stroke="midnightblue" d="M2113.57,-50.7428C2100.56,-50.789 2087.41,-50.6134 2075.41,-50.2161"/>
<polygon fill="midnightblue" stroke="midnightblue" points="2113.98,-54.2396 2123.96,-50.6582 2113.93,-47.2399 2113.98,-54.2396"/>
</g>
<!-- Node18 -->
<g id="node18" class="node"><title>Node18</title>
<g id="a_node18"><a xlink:href="../../de/d24/mavlink__main_8cpp.html#ab81e9b009119f143f3b54a1390b92427" target="_top" xlink:title="mavlink app start / stop handling function ">
<polygon fill="white" stroke="black" points="2329.5,-78.5 2329.5,-97.5 2406.5,-97.5 2406.5,-78.5 2329.5,-78.5"/>
<text text-anchor="middle" x="2368" y="-85.5" font-family="Helvetica,sans-Serif" font-size="10.00">mavlink_main</text>
</a>
</g>
</g>
<!-- Node17&#45;&gt;Node18 -->
<g id="edge19" class="edge"><title>Node17&#45;&gt;Node18</title>
<path fill="none" stroke="midnightblue" d="M2241.79,-56.0617C2269.45,-63.1185 2303.89,-71.9024 2329.64,-78.4713"/>
<polygon fill="midnightblue" stroke="midnightblue" points="2242.48,-52.6276 2231.93,-53.5473 2240.75,-59.4104 2242.48,-52.6276"/>
</g>
<!-- Node19 -->
<g id="node19" class="node"><title>Node19</title>
<g id="a_node19"><a xlink:href="../../df/d61/class_mavlink_parameters_manager.html#acd8734b77582ad7626f5230c1707e04c" target="_top" xlink:title="send a single param if a PARAM_REQUEST_LIST is in progress ">
<polygon fill="white" stroke="black" points="2299,-29 2299,-59 2437,-59 2437,-29 2299,-29"/>
<text text-anchor="start" x="2307" y="-47" font-family="Helvetica,sans-Serif" font-size="10.00">MavlinkParametersManager</text>
<text text-anchor="middle" x="2368" y="-36" font-family="Helvetica,sans-Serif" font-size="10.00">::send_one</text>
</a>
</g>
</g>
<!-- Node17&#45;&gt;Node19 -->
<g id="edge20" class="edge"><title>Node17&#45;&gt;Node19</title>
<path fill="none" stroke="midnightblue" d="M2273.45,-44C2281.93,-44 2290.51,-44 2298.85,-44"/>
<polygon fill="midnightblue" stroke="midnightblue" points="2273.17,-40.5001 2263.17,-44 2273.17,-47.5001 2273.17,-40.5001"/>
</g>
<!-- Node20 -->
<g id="node20" class="node"><title>Node20</title>
<g id="a_node20"><a xlink:href="../../df/d61/class_mavlink_parameters_manager.html#a3a6dff51ef5aba4f3dda19610510a45d" target="_top" xlink:title="Handle any open param send transfer. ">
<polygon fill="white" stroke="black" points="2473,-74 2473,-104 2611,-104 2611,-74 2473,-74"/>
<text text-anchor="start" x="2481" y="-92" font-family="Helvetica,sans-Serif" font-size="10.00">MavlinkParametersManager</text>
<text text-anchor="middle" x="2542" y="-81" font-family="Helvetica,sans-Serif" font-size="10.00">::send_params</text>
</a>
</g>
</g>
<!-- Node19&#45;&gt;Node20 -->
<g id="edge21" class="edge"><title>Node19&#45;&gt;Node20</title>
<path fill="none" stroke="midnightblue" d="M2436.75,-61.726C2452.18,-65.7634 2468.44,-70.0159 2483.4,-73.9303"/>
<polygon fill="midnightblue" stroke="midnightblue" points="2437.31,-58.2547 2426.75,-59.1095 2435.54,-65.0267 2437.31,-58.2547"/>
</g>
<!-- Node21 -->
<g id="node21" class="node"><title>Node21</title>
<g id="a_node21"><a xlink:href="../../df/d61/class_mavlink_parameters_manager.html#adbcd587c4ec1c0b94fe259047f8ec82e" target="_top" xlink:title="Handle sending of messages. ">
<polygon fill="white" stroke="black" points="2647,-94 2647,-124 2785,-124 2785,-94 2647,-94"/>
<text text-anchor="start" x="2655" y="-112" font-family="Helvetica,sans-Serif" font-size="10.00">MavlinkParametersManager</text>
<text text-anchor="middle" x="2716" y="-101" font-family="Helvetica,sans-Serif" font-size="10.00">::send</text>
</a>
</g>
</g>
<!-- Node20&#45;&gt;Node21 -->
<g id="edge22" class="edge"><title>Node20&#45;&gt;Node21</title>
<path fill="none" stroke="midnightblue" d="M2621.64,-98.1438C2630.03,-99.1192 2638.51,-100.106 2646.76,-101.065"/>
<polygon fill="midnightblue" stroke="midnightblue" points="2621.81,-94.6405 2611.47,-96.962 2621,-101.594 2621.81,-94.6405"/>
</g>
<!-- Node21&#45;&gt;Node13 -->
<g id="edge23" class="edge"><title>Node21&#45;&gt;Node13</title>
<path fill="none" stroke="midnightblue" d="M2765.04,-127.753C2790.36,-137.641 2821.02,-149.61 2844.8,-158.894"/>
<polygon fill="midnightblue" stroke="midnightblue" points="2766.21,-124.452 2755.62,-124.076 2763.66,-130.973 2766.21,-124.452"/>
</g>
<!-- Node22&#45;&gt;Node18 -->
<g id="edge25" class="edge"><title>Node22&#45;&gt;Node18</title>
<path fill="none" stroke="midnightblue" d="M2073.64,-88C2141.92,-88 2266.99,-88 2329.44,-88"/>
<polygon fill="midnightblue" stroke="midnightblue" points="2073.59,-84.5001 2063.59,-88 2073.59,-91.5001 2073.59,-84.5001"/>
</g>
<!-- Node24 -->
<g id="node24" class="node"><title>Node24</title>
<g id="a_node24"><a xlink:href="../../df/d1f/class_mavlink.html#a2f9d780ec2b8412a769bf49fa5949a45" target="_top" xlink:title="Adjust the stream rates based on the current rate. ">
<polygon fill="white" stroke="black" points="852.5,-181 852.5,-211 970.5,-211 970.5,-181 852.5,-181"/>
<text text-anchor="start" x="860.5" y="-199" font-family="Helvetica,sans-Serif" font-size="10.00">Mavlink::adjust_stream</text>
<text text-anchor="middle" x="911.5" y="-188" font-family="Helvetica,sans-Serif" font-size="10.00">_rates</text>
</a>
</g>
</g>
<!-- Node23&#45;&gt;Node24 -->
<g id="edge27" class="edge"><title>Node23&#45;&gt;Node24</title>
<path fill="none" stroke="midnightblue" d="M826.119,-181.35C834.814,-182.86 843.758,-184.413 852.423,-185.917"/>
<polygon fill="midnightblue" stroke="midnightblue" points="826.508,-177.866 816.057,-179.604 825.311,-184.763 826.508,-177.866"/>
</g>
<!-- Node25 -->
<g id="node25" class="node"><title>Node25</title>
<g id="a_node25"><a xlink:href="../../df/d1f/class_mavlink.html#a34de929d78ada1d08dec376b869d917b" target="_top" xlink:title="Update rate mult so total bitrate will be equal to _datarate. ">
<polygon fill="white" stroke="black" points="1152,-78.5 1152,-97.5 1283,-97.5 1283,-78.5 1152,-78.5"/>
<text text-anchor="middle" x="1217.5" y="-85.5" font-family="Helvetica,sans-Serif" font-size="10.00">Mavlink::update_rate_mult</text>
</a>
</g>
</g>
<!-- Node23&#45;&gt;Node25 -->
<g id="edge28" class="edge"><title>Node23&#45;&gt;Node25</title>
<path fill="none" stroke="midnightblue" d="M795.436,-150.257C811.355,-139.949 831.908,-128.363 852,-122 953.337,-89.9066 1077.84,-85.2356 1151.99,-85.8541"/>
<polygon fill="midnightblue" stroke="midnightblue" points="793.482,-147.353 787.102,-155.811 797.364,-153.178 793.482,-147.353"/>
</g>
<!-- Node26 -->
<g id="node26" class="node"><title>Node26</title>
<g id="a_node26"><a xlink:href="../../df/d1f/class_mavlink.html#a53bdb0583a7d821d066685d408a0bc6a" target="_top" xlink:title="Display the status of all enabled streams. ">
<polygon fill="white" stroke="black" points="852,-132 852,-162 971,-162 971,-132 852,-132"/>
<text text-anchor="start" x="860" y="-150" font-family="Helvetica,sans-Serif" font-size="10.00">Mavlink::display_status</text>
<text text-anchor="middle" x="911.5" y="-139" font-family="Helvetica,sans-Serif" font-size="10.00">_streams</text>
</a>
</g>
</g>
<!-- Node23&#45;&gt;Node26 -->
<g id="edge30" class="edge"><title>Node23&#45;&gt;Node26</title>
<path fill="none" stroke="midnightblue" d="M825.977,-161.087C834.549,-159.658 843.366,-158.189 851.92,-156.763"/>
<polygon fill="midnightblue" stroke="midnightblue" points="825.345,-157.644 816.057,-162.741 826.496,-164.549 825.345,-157.644"/>
</g>
<!-- Node37 -->
<g id="node37" class="node"><title>Node37</title>
<g id="a_node37"><a xlink:href="../../da/d89/class_mavlink_receiver.html#aabdc020e312dbe715fb9472cb3963a0e" target="_top" xlink:title="MavlinkReceiver::get\l_message_interval">
<polygon fill="white" stroke="black" points="1007,-282 1007,-312 1116,-312 1116,-282 1007,-282"/>
<text text-anchor="start" x="1015" y="-300" font-family="Helvetica,sans-Serif" font-size="10.00">MavlinkReceiver::get</text>
<text text-anchor="middle" x="1061.5" y="-289" font-family="Helvetica,sans-Serif" font-size="10.00">_message_interval</text>
</a>
</g>
</g>
<!-- Node23&#45;&gt;Node37 -->
<g id="edge48" class="edge"><title>Node23&#45;&gt;Node37</title>
<path fill="none" stroke="midnightblue" d="M799.033,-191.351C814.714,-200.714 833.989,-211.585 852,-220 905.663,-245.073 969.935,-267.762 1012.8,-281.911"/>
<polygon fill="midnightblue" stroke="midnightblue" points="800.62,-188.22 790.252,-186.042 796.998,-194.211 800.62,-188.22"/>
</g>
<!-- Node25&#45;&gt;Node6 -->
<g id="edge29" class="edge"><title>Node25&#45;&gt;Node6</title>
<path fill="none" stroke="midnightblue" d="M1293.11,-84.9934C1390.21,-81.0807 1557.24,-74.3497 1640.22,-71.006"/>
<polygon fill="midnightblue" stroke="midnightblue" points="1292.92,-81.4981 1283.07,-85.398 1293.2,-88.4924 1292.92,-81.4981"/>
</g>
<!-- Node27 -->
<g id="node27" class="node"><title>Node27</title>
<g id="a_node27"><a xlink:href="../../df/d1f/class_mavlink.html#aeed64d674a9a2aaff43a845a6465b4bc" target="_top" xlink:title="Mavlink::get_status\l_all_instances">
<polygon fill="white" stroke="black" points="1010.5,-132 1010.5,-162 1112.5,-162 1112.5,-132 1010.5,-132"/>
<text text-anchor="start" x="1018.5" y="-150" font-family="Helvetica,sans-Serif" font-size="10.00">Mavlink::get_status</text>
<text text-anchor="middle" x="1061.5" y="-139" font-family="Helvetica,sans-Serif" font-size="10.00">_all_instances</text>
</a>
</g>
</g>
<!-- Node26&#45;&gt;Node27 -->
<g id="edge31" class="edge"><title>Node26&#45;&gt;Node27</title>
<path fill="none" stroke="midnightblue" d="M981.493,-147C991.228,-147 1001.08,-147 1010.37,-147"/>
<polygon fill="midnightblue" stroke="midnightblue" points="981.419,-143.5 971.419,-147 981.419,-150.5 981.419,-143.5"/>
</g>
<!-- Node27&#45;&gt;Node18 -->
<g id="edge47" class="edge"><title>Node27&#45;&gt;Node18</title>
<path fill="none" stroke="midnightblue" d="M1122.59,-140.502C1184.89,-134.334 1285.15,-126 1372,-126 1372,-126 1372,-126 2026.5,-126 2137.14,-126 2266.75,-105.94 2329.36,-94.9698"/>
<polygon fill="midnightblue" stroke="midnightblue" points="1122.15,-137.029 1112.55,-141.51 1122.85,-143.994 1122.15,-137.029"/>
</g>
<!-- Node28 -->
<g id="node28" class="node"><title>Node28</title>
<g id="a_node28"><a xlink:href="../../df/d1f/class_mavlink.html#ac6e1bf432b8d4ab3d7977ea15f36d815" target="_top" xlink:title="Mavlink::get_status">
<polygon fill="white" stroke="black" points="1166.5,-209.5 1166.5,-228.5 1268.5,-228.5 1268.5,-209.5 1166.5,-209.5"/>
<text text-anchor="middle" x="1217.5" y="-216.5" font-family="Helvetica,sans-Serif" font-size="10.00">Mavlink::get_status</text>
</a>
</g>
</g>
<!-- Node27&#45;&gt;Node28 -->
<g id="edge32" class="edge"><title>Node27&#45;&gt;Node28</title>
<path fill="none" stroke="midnightblue" d="M1104.1,-166.451C1133.88,-180.373 1172.68,-198.515 1196.04,-209.433"/>
<polygon fill="midnightblue" stroke="midnightblue" points="1105.32,-163.158 1094.78,-162.094 1102.36,-169.5 1105.32,-163.158"/>
</g>
<!-- Node28&#45;&gt;Node13 -->
<g id="edge34" class="edge"><title>Node28&#45;&gt;Node13</title>
<path fill="none" stroke="midnightblue" d="M1249.34,-232.686C1323.62,-264.355 1518.94,-340 1690,-340 1690,-340 1690,-340 2026.5,-340 2364.46,-340 2483.77,-439.231 2785,-286 2828.16,-264.046 2860.82,-214.404 2875.3,-189.239"/>
<polygon fill="midnightblue" stroke="midnightblue" points="1250.65,-229.439 1240.09,-228.697 1247.88,-235.868 1250.65,-229.439"/>
</g>
<!-- Node29 -->
<g id="node29" class="node"><title>Node29</title>
<g id="a_node29"><a xlink:href="../../de/d24/mavlink__main_8cpp.html#ae6c642b2c7f5e4f54d302f44aaab9e04" target="_top" xlink:title="mavlink_get_channel\l_status">
<polygon fill="white" stroke="black" points="1319,-155 1319,-185 1427,-185 1427,-155 1319,-155"/>
<text text-anchor="start" x="1327" y="-173" font-family="Helvetica,sans-Serif" font-size="10.00">mavlink_get_channel</text>
<text text-anchor="middle" x="1373" y="-162" font-family="Helvetica,sans-Serif" font-size="10.00">_status</text>
</a>
</g>
</g>
<!-- Node28&#45;&gt;Node29 -->
<g id="edge33" class="edge"><title>Node28&#45;&gt;Node29</title>
<path fill="none" stroke="midnightblue" d="M1258.07,-206.369C1278.47,-199.855 1303.5,-191.867 1324.89,-185.037"/>
<polygon fill="midnightblue" stroke="midnightblue" points="1256.92,-203.061 1248.46,-209.436 1259.05,-209.729 1256.92,-203.061"/>
</g>
<!-- Node30 -->
<g id="node30" class="node"><title>Node30</title>
<g id="a_node30"><a xlink:href="../../df/d1f/class_mavlink.html#ad504fc6cb2ec8ed534b6e41e20385ee6" target="_top" xlink:title="Set the MAVLink version. ">
<polygon fill="white" stroke="black" points="1324.5,-204 1324.5,-234 1421.5,-234 1421.5,-204 1324.5,-204"/>
<text text-anchor="start" x="1332.5" y="-222" font-family="Helvetica,sans-Serif" font-size="10.00">Mavlink::set_proto</text>
<text text-anchor="middle" x="1373" y="-211" font-family="Helvetica,sans-Serif" font-size="10.00">_version</text>
</a>
</g>
</g>
<!-- Node28&#45;&gt;Node30 -->
<g id="edge35" class="edge"><title>Node28&#45;&gt;Node30</title>
<path fill="none" stroke="midnightblue" d="M1279.05,-212.386C1294.15,-212.129 1310.12,-212.236 1324.49,-212.706"/>
<polygon fill="midnightblue" stroke="midnightblue" points="1278.68,-208.893 1268.76,-212.621 1278.84,-215.891 1278.68,-208.893"/>
</g>
<!-- Node30&#45;&gt;Node13 -->
<g id="edge39" class="edge"><title>Node30&#45;&gt;Node13</title>
<path fill="none" stroke="midnightblue" d="M1431.85,-217.275C1670.08,-210.174 2574.29,-183.218 2820.99,-175.863"/>
<polygon fill="midnightblue" stroke="midnightblue" points="1431.56,-213.782 1421.67,-217.579 1431.77,-220.779 1431.56,-213.782"/>
</g>
<!-- Node30&#45;&gt;Node28 -->
<g id="edge36" class="edge"><title>Node30&#45;&gt;Node28</title>
<path fill="none" stroke="midnightblue" d="M1314.32,-225.561C1299.34,-225.863 1283.33,-225.803 1268.76,-225.379"/>
<polygon fill="midnightblue" stroke="midnightblue" points="1314.59,-229.056 1324.49,-225.294 1314.4,-222.058 1314.59,-229.056"/>
</g>
<!-- Node31 -->
<g id="node31" class="node"><title>Node31</title>
<g id="a_node31"><a xlink:href="../../df/d1f/class_mavlink.html#ad8fa688a2405620180ff54b89070d991" target="_top" xlink:title="Mavlink::mavlink_update\l_system">
<polygon fill="white" stroke="black" points="1463,-155 1463,-185 1588,-185 1588,-155 1463,-155"/>
<text text-anchor="start" x="1471" y="-173" font-family="Helvetica,sans-Serif" font-size="10.00">Mavlink::mavlink_update</text>
<text text-anchor="middle" x="1525.5" y="-162" font-family="Helvetica,sans-Serif" font-size="10.00">_system</text>
</a>
</g>
</g>
<!-- Node30&#45;&gt;Node31 -->
<g id="edge37" class="edge"><title>Node30&#45;&gt;Node31</title>
<path fill="none" stroke="midnightblue" d="M1430.08,-200.741C1445.96,-195.573 1463.05,-190.008 1478.27,-185.052"/>
<polygon fill="midnightblue" stroke="midnightblue" points="1428.81,-197.475 1420.38,-203.899 1430.98,-204.131 1428.81,-197.475"/>
</g>
<!-- Node32 -->
<g id="node32" class="node"><title>Node32</title>
<g id="a_node32"><a xlink:href="../../df/d1f/class_mavlink.html#a7f0aab53d272dd4f5a39ffe030497460" target="_top" xlink:title="Send the protocol version of MAVLink. ">
<polygon fill="white" stroke="black" points="1467,-243 1467,-273 1584,-273 1584,-243 1467,-243"/>
<text text-anchor="start" x="1475" y="-261" font-family="Helvetica,sans-Serif" font-size="10.00">Mavlink::send_protocol</text>
<text text-anchor="middle" x="1525.5" y="-250" font-family="Helvetica,sans-Serif" font-size="10.00">_version</text>
</a>
</g>
</g>
<!-- Node30&#45;&gt;Node32 -->
<g id="edge40" class="edge"><title>Node30&#45;&gt;Node32</title>
<path fill="none" stroke="midnightblue" d="M1431.61,-233.928C1443.18,-236.926 1455.33,-240.077 1466.9,-243.075"/>
<polygon fill="midnightblue" stroke="midnightblue" points="1432.18,-230.46 1421.62,-231.34 1430.42,-237.237 1432.18,-230.46"/>
</g>
<!-- Node31&#45;&gt;Node6 -->
<g id="edge38" class="edge"><title>Node31&#45;&gt;Node6</title>
<path fill="none" stroke="midnightblue" d="M1559.86,-149.394C1594.74,-127.845 1647.99,-94.9498 1674.25,-78.7323"/>
<polygon fill="midnightblue" stroke="midnightblue" points="1557.65,-146.646 1550.98,-154.879 1561.32,-152.601 1557.65,-146.646"/>
</g>
<!-- Node33 -->
<g id="node33" class="node"><title>Node33</title>
<g id="a_node33"><a xlink:href="../../df/d1f/class_mavlink.html#a6829c4f2061c8b36c6c392b75e7ac986" target="_top" xlink:title="Mavlink::get_mavlink\l_log_pub">
<polygon fill="white" stroke="black" points="1636.5,-232 1636.5,-262 1745.5,-262 1745.5,-232 1636.5,-232"/>
<text text-anchor="start" x="1644.5" y="-250" font-family="Helvetica,sans-Serif" font-size="10.00">Mavlink::get_mavlink</text>
<text text-anchor="middle" x="1691" y="-239" font-family="Helvetica,sans-Serif" font-size="10.00">_log_pub</text>
</a>
</g>
</g>
<!-- Node32&#45;&gt;Node33 -->
<g id="edge41" class="edge"><title>Node32&#45;&gt;Node33</title>
<path fill="none" stroke="midnightblue" d="M1594.26,-253.441C1608.33,-252.495 1622.96,-251.51 1636.43,-250.604"/>
<polygon fill="midnightblue" stroke="midnightblue" points="1593.89,-249.958 1584.14,-254.122 1594.36,-256.943 1593.89,-249.958"/>
</g>
<!-- Node34 -->
<g id="node34" class="node"><title>Node34</title>
<g id="a_node34"><a xlink:href="../../da/d89/class_mavlink_receiver.html#a72518d540ed247b6fcc0fb63592dd319" target="_top" xlink:title="common method to handle both mavlink command types. ">
<polygon fill="white" stroke="black" points="1624,-281 1624,-311 1758,-311 1758,-281 1624,-281"/>
<text text-anchor="start" x="1632" y="-299" font-family="Helvetica,sans-Serif" font-size="10.00">MavlinkReceiver::handle</text>
<text text-anchor="middle" x="1691" y="-288" font-family="Helvetica,sans-Serif" font-size="10.00">_message_command_both</text>
</a>
</g>
</g>
<!-- Node32&#45;&gt;Node34 -->
<g id="edge42" class="edge"><title>Node32&#45;&gt;Node34</title>
<path fill="none" stroke="midnightblue" d="M1593.97,-273.682C1604.35,-276.093 1615.04,-278.578 1625.35,-280.975"/>
<polygon fill="midnightblue" stroke="midnightblue" points="1594.68,-270.252 1584.14,-271.397 1593.09,-277.07 1594.68,-270.252"/>
</g>
<!-- Node35 -->
<g id="node35" class="node"><title>Node35</title>
<g id="a_node35"><a xlink:href="../../da/d89/class_mavlink_receiver.html#aa94397b70b0418675a2934b022de6df4" target="_top" xlink:title="MavlinkReceiver::handle\l_message_command_int">
<polygon fill="white" stroke="black" points="1963,-238 1963,-268 2088,-268 2088,-238 1963,-238"/>
<text text-anchor="start" x="1971" y="-256" font-family="Helvetica,sans-Serif" font-size="10.00">MavlinkReceiver::handle</text>
<text text-anchor="middle" x="2025.5" y="-245" font-family="Helvetica,sans-Serif" font-size="10.00">_message_command_int</text>
</a>
</g>
</g>
<!-- Node34&#45;&gt;Node35 -->
<g id="edge43" class="edge"><title>Node34&#45;&gt;Node35</title>
<path fill="none" stroke="midnightblue" d="M1756.07,-278.616C1768.58,-275.701 1781.64,-272.984 1794,-271 1850.67,-261.904 1915.95,-257.353 1962.54,-255.108"/>
<polygon fill="midnightblue" stroke="midnightblue" points="1755.1,-275.251 1746.19,-280.986 1756.73,-282.058 1755.1,-275.251"/>
</g>
<!-- Node36 -->
<g id="node36" class="node"><title>Node36</title>
<g id="a_node36"><a xlink:href="../../da/d89/class_mavlink_receiver.html#a5345e8389c1ac373ab61074c9b849e22" target="_top" xlink:title="MavlinkReceiver::handle\l_message_command_long">
<polygon fill="white" stroke="black" points="1794,-281 1794,-311 1927,-311 1927,-281 1794,-281"/>
<text text-anchor="start" x="1802" y="-299" font-family="Helvetica,sans-Serif" font-size="10.00">MavlinkReceiver::handle</text>
<text text-anchor="middle" x="1860.5" y="-288" font-family="Helvetica,sans-Serif" font-size="10.00">_message_command_long</text>
</a>
</g>
</g>
<!-- Node34&#45;&gt;Node36 -->
<g id="edge45" class="edge"><title>Node34&#45;&gt;Node36</title>
<path fill="none" stroke="midnightblue" d="M1768.45,-296C1776.91,-296 1785.47,-296 1793.78,-296"/>
<polygon fill="midnightblue" stroke="midnightblue" points="1768.2,-292.5 1758.2,-296 1768.2,-299.5 1768.2,-292.5"/>
</g>
<!-- Node35&#45;&gt;Node12 -->
<g id="edge44" class="edge"><title>Node35&#45;&gt;Node12</title>
<path fill="none" stroke="midnightblue" d="M2098.5,-253.941C2234.41,-255.718 2526.46,-259.535 2653.68,-261.198"/>
<polygon fill="midnightblue" stroke="midnightblue" points="2098.25,-250.438 2088.21,-253.807 2098.16,-257.437 2098.25,-250.438"/>
</g>
<!-- Node36&#45;&gt;Node12 -->
<g id="edge46" class="edge"><title>Node36&#45;&gt;Node12</title>
<path fill="none" stroke="midnightblue" d="M1937.19,-297.434C2004.27,-298.582 2104.9,-300 2192.5,-300 2192.5,-300 2192.5,-300 2369,-300 2469.31,-300 2585.02,-284.022 2653.97,-272.788"/>
<polygon fill="midnightblue" stroke="midnightblue" points="1937.18,-293.934 1927.13,-297.26 1937.06,-300.933 1937.18,-293.934"/>
</g>
<!-- Node37&#45;&gt;Node34 -->
<g id="edge49" class="edge"><title>Node37&#45;&gt;Node34</title>
<path fill="none" stroke="midnightblue" d="M1126.08,-296.899C1245.48,-296.708 1502.1,-296.299 1623.61,-296.106"/>
<polygon fill="midnightblue" stroke="midnightblue" points="1125.99,-293.399 1116,-296.915 1126.01,-300.399 1125.99,-293.399"/>
</g>
<!-- Node38&#45;&gt;Node12 -->
<g id="edge51" class="edge"><title>Node38&#45;&gt;Node12</title>
<path fill="none" stroke="midnightblue" d="M651.77,-297.177C705.161,-326.648 812.284,-378 910.5,-378 910.5,-378 910.5,-378 2026.5,-378 2288.46,-378 2362.19,-383.957 2611,-302 2628.38,-296.274 2630.12,-289.07 2647,-282 2651.2,-280.241 2655.61,-278.573 2660.07,-277.006"/>
<polygon fill="midnightblue" stroke="midnightblue" points="653.183,-293.956 642.748,-292.121 649.761,-300.063 653.183,-293.956"/>
</g>
</g>
</svg>
        <g id="navigator" transform="translate(0 0)" fill="#404254">
                <rect fill="#f2f5e9" fill-opacity="0.5" stroke="#606060" stroke-width=".5" x="0" y="0" width="60" height="60"/>
                <use id="zoomplus" xlink:href="#zoomPlus" x="17" y="9" onmousedown="handleZoom(evt,'in')"/>
                <use id="zoomminus" xlink:href="#zoomMin" x="42" y="9" onmousedown="handleZoom(evt,'out')"/>
                <use id="reset" xlink:href="#resetDef" x="30" y="36" onmousedown="handleReset()"/>
                <g id="arrowUp" xlink:href="#dirArrow" transform="translate(30 24)" onmousedown="handlePan(0,-1)">
                  <use xlink:href="#rim" fill="#404040">
                        <set attributeName="fill" to="#808080" begin="arrowUp.mouseover" end="arrowUp.mouseout"/>
                  </use>
                  <path fill="none" stroke="white" stroke-width="1.5" d="M0,-3.0v7 M-2.5,-0.5L0,-3.0L2.5,-0.5"/>
                </g>
                <g id="arrowRight" xlink:href="#dirArrow" transform="rotate(90) translate(36 -43)" onmousedown="handlePan(1,0)">
                  <use xlink:href="#rim" fill="#404040">
                        <set attributeName="fill" to="#808080" begin="arrowRight.mouseover" end="arrowRight.mouseout"/>
                  </use>
                  <path fill="none" stroke="white" stroke-width="1.5" d="M0,-3.0v7 M-2.5,-0.5L0,-3.0L2.5,-0.5"/>
                </g>
                <g id="arrowDown" xlink:href="#dirArrow" transform="rotate(180) translate(-30 -48)" onmousedown="handlePan(0,1)">
                  <use xlink:href="#rim" fill="#404040">
                        <set attributeName="fill" to="#808080" begin="arrowDown.mouseover" end="arrowDown.mouseout"/>
                  </use>
                  <path fill="none" stroke="white" stroke-width="1.5" d="M0,-3.0v7 M-2.5,-0.5L0,-3.0L2.5,-0.5"/>
                </g>
                <g id="arrowLeft" xlink:href="#dirArrow" transform="rotate(270) translate(-36 17)" onmousedown="handlePan(-1,0)">
                  <use xlink:href="#rim" fill="#404040">
                        <set attributeName="fill" to="#808080" begin="arrowLeft.mouseover" end="arrowLeft.mouseout"/>
                  </use>
                  <path fill="none" stroke="white" stroke-width="1.5" d="M0,-3.0v7 M-2.5,-0.5L0,-3.0L2.5,-0.5"/>
                </g>
        </g>
        <svg viewBox="0 0 15 15" width="100%" height="30px" preserveAspectRatio="xMaxYMin meet">
         <g id="arrow_out" transform="scale(0.3 0.3)">
          <a xlink:href="class_mavlink_shell_ad12b833de772b01102a5b1f707d7c847_icgraph_org.svg" target="_base">
           <rect id="button" ry="5" rx="5" y="6" x="6" height="38" width="38"
                fill="#f2f5e9" fill-opacity="0.5" stroke="#606060" stroke-width="1.0"/>
           <path id="arrow"
             d="M 11.500037,31.436501 C 11.940474,20.09759 22.043105,11.32322 32.158766,21.979434 L 37.068811,17.246167 C 37.068811,17.246167 37.088388,32 37.088388,32 L 22.160133,31.978069 C 22.160133,31.978069 26.997745,27.140456 26.997745,27.140456 C 18.528582,18.264221 13.291696,25.230495 11.500037,31.436501 z"
             style="fill:#404040;"/>
          </a>
         </g>
        </svg>
</svg>
