<?xml version="1.0" encoding="UTF-8" standalone="no"?>
<!DOCTYPE svg PUBLIC "-//W3C//DTD SVG 1.1//EN"
 "http://www.w3.org/Graphics/SVG/1.1/DTD/svg11.dtd">
<!-- Generated by graphviz version 2.38.0 (20140413.2041)
 -->
<!-- Title: MavlinkParametersManager::enque_uavcan_request Pages: 1 -->
<svg width="1909pt" height="232pt"
 viewBox="0.00 0.00 1909.00 231.50" xmlns="http://www.w3.org/2000/svg" xmlns:xlink="http://www.w3.org/1999/xlink">
<g id="graph0" class="graph" transform="scale(1 1) rotate(0) translate(4 227.5)">
<title>MavlinkParametersManager::enque_uavcan_request</title>
<polygon fill="white" stroke="none" points="-4,4 -4,-227.5 1905,-227.5 1905,4 -4,4"/>
<!-- Node1 -->
<g id="node1" class="node"><title>Node1</title>
<polygon fill="#bfbfbf" stroke="black" points="0,-23 0,-53 138,-53 138,-23 0,-23"/>
<text text-anchor="start" x="8" y="-41" font-family="Helvetica,sans-Serif" font-size="10.00">MavlinkParametersManager</text>
<text text-anchor="middle" x="69" y="-30" font-family="Helvetica,sans-Serif" font-size="10.00">::enque_uavcan_request</text>
</g>
<!-- Node2 -->
<g id="node2" class="node"><title>Node2</title>
<g id="a_node2"><a xlink:href="../../df/d61/class_mavlink_parameters_manager.html#afe519f27916dd036565efe8c0b9904d0" target="_top" xlink:title="MavlinkParametersManager\l::handle_message">
<polygon fill="white" stroke="black" points="174,-23 174,-53 312,-53 312,-23 174,-23"/>
<text text-anchor="start" x="182" y="-41" font-family="Helvetica,sans-Serif" font-size="10.00">MavlinkParametersManager</text>
<text text-anchor="middle" x="243" y="-30" font-family="Helvetica,sans-Serif" font-size="10.00">::handle_message</text>
</a>
</g>
</g>
<!-- Node1&#45;&gt;Node2 -->
<g id="edge1" class="edge"><title>Node1&#45;&gt;Node2</title>
<path fill="none" stroke="midnightblue" d="M148.637,-38C157.025,-38 165.508,-38 173.762,-38"/>
<polygon fill="midnightblue" stroke="midnightblue" points="148.473,-34.5001 138.473,-38 148.473,-41.5001 148.473,-34.5001"/>
</g>
<!-- Node3 -->
<g id="node3" class="node"><title>Node3</title>
<g id="a_node3"><a xlink:href="../../da/d89/class_mavlink_receiver.html#abf05ea2b60baafd446100f897f9274ab" target="_top" xlink:title="Receive data from UART. ">
<polygon fill="white" stroke="black" points="348,-23 348,-53 475,-53 475,-23 348,-23"/>
<text text-anchor="start" x="356" y="-41" font-family="Helvetica,sans-Serif" font-size="10.00">MavlinkReceiver::receive</text>
<text text-anchor="middle" x="411.5" y="-30" font-family="Helvetica,sans-Serif" font-size="10.00">_thread</text>
</a>
</g>
</g>
<!-- Node2&#45;&gt;Node3 -->
<g id="edge2" class="edge"><title>Node2&#45;&gt;Node3</title>
<path fill="none" stroke="midnightblue" d="M322.205,-38C330.773,-38 339.412,-38 347.758,-38"/>
<polygon fill="midnightblue" stroke="midnightblue" points="322.202,-34.5001 312.202,-38 322.202,-41.5001 322.202,-34.5001"/>
</g>
<!-- Node4 -->
<g id="node4" class="node"><title>Node4</title>
<g id="a_node4"><a xlink:href="../../da/d89/class_mavlink_receiver.html#a4e6d064186fe746bc3934959a991a908" target="_top" xlink:title="MavlinkReceiver::start\l_helper">
<polygon fill="white" stroke="black" points="511,-67 511,-97 626,-97 626,-67 511,-67"/>
<text text-anchor="start" x="519" y="-85" font-family="Helvetica,sans-Serif" font-size="10.00">MavlinkReceiver::start</text>
<text text-anchor="middle" x="568.5" y="-74" font-family="Helvetica,sans-Serif" font-size="10.00">_helper</text>
</a>
</g>
</g>
<!-- Node3&#45;&gt;Node4 -->
<g id="edge3" class="edge"><title>Node3&#45;&gt;Node4</title>
<path fill="none" stroke="midnightblue" d="M475.246,-55.8118C488.292,-59.515 501.916,-63.3827 514.567,-66.9738"/>
<polygon fill="midnightblue" stroke="midnightblue" points="475.984,-52.3832 465.409,-53.0192 474.073,-59.1171 475.984,-52.3832"/>
</g>
<!-- Node5 -->
<g id="node5" class="node"><title>Node5</title>
<g id="a_node5"><a xlink:href="../../da/d89/class_mavlink_receiver.html#aae6564d759626eeebeb19a9dfbdcaf6d" target="_top" xlink:title="Start the receiver thread. ">
<polygon fill="white" stroke="black" points="662,-67 662,-97 789,-97 789,-67 662,-67"/>
<text text-anchor="start" x="670" y="-85" font-family="Helvetica,sans-Serif" font-size="10.00">MavlinkReceiver::receive</text>
<text text-anchor="middle" x="725.5" y="-74" font-family="Helvetica,sans-Serif" font-size="10.00">_start</text>
</a>
</g>
</g>
<!-- Node4&#45;&gt;Node5 -->
<g id="edge4" class="edge"><title>Node4&#45;&gt;Node5</title>
<path fill="none" stroke="midnightblue" d="M636.515,-82C644.951,-82 653.556,-82 661.92,-82"/>
<polygon fill="midnightblue" stroke="midnightblue" points="636.336,-78.5001 626.336,-82 636.336,-85.5001 636.336,-78.5001"/>
</g>
<!-- Node6 -->
<g id="node6" class="node"><title>Node6</title>
<g id="a_node6"><a xlink:href="../../df/d1f/class_mavlink.html#a2325401a575b272fc1474d502388241f" target="_top" xlink:title="Main mavlink task. ">
<polygon fill="white" stroke="black" points="825,-72.5 825,-91.5 926,-91.5 926,-72.5 825,-72.5"/>
<text text-anchor="middle" x="875.5" y="-79.5" font-family="Helvetica,sans-Serif" font-size="10.00">Mavlink::task_main</text>
</a>
</g>
</g>
<!-- Node5&#45;&gt;Node6 -->
<g id="edge5" class="edge"><title>Node5&#45;&gt;Node6</title>
<path fill="none" stroke="midnightblue" d="M799.302,-82C807.883,-82 816.486,-82 824.649,-82"/>
<polygon fill="midnightblue" stroke="midnightblue" points="799.265,-78.5001 789.265,-82 799.265,-85.5001 799.265,-78.5001"/>
</g>
<!-- Node7 -->
<g id="node7" class="node"><title>Node7</title>
<g id="a_node7"><a xlink:href="../../df/d1f/class_mavlink.html#aad2c17a259e6cfbfe20113c8da8f6cae" target="_top" xlink:title="Mavlink::start_helper">
<polygon fill="white" stroke="black" points="962,-72.5 962,-91.5 1069,-91.5 1069,-72.5 962,-72.5"/>
<text text-anchor="middle" x="1015.5" y="-79.5" font-family="Helvetica,sans-Serif" font-size="10.00">Mavlink::start_helper</text>
</a>
</g>
</g>
<!-- Node6&#45;&gt;Node7 -->
<g id="edge6" class="edge"><title>Node6&#45;&gt;Node7</title>
<path fill="none" stroke="midnightblue" d="M936.525,-82C944.993,-82 953.646,-82 961.959,-82"/>
<polygon fill="midnightblue" stroke="midnightblue" points="936.321,-78.5001 926.321,-82 936.321,-85.5001 936.321,-78.5001"/>
</g>
<!-- Node8 -->
<g id="node8" class="node"><title>Node8</title>
<g id="a_node8"><a xlink:href="../../df/d1f/class_mavlink.html#af06ea4dffa8d7b911690a99456a4814a" target="_top" xlink:title="Mavlink::broadcast\l_enabled">
<polygon fill="white" stroke="black" points="1105,-105 1105,-135 1204,-135 1204,-105 1105,-105"/>
<text text-anchor="start" x="1113" y="-123" font-family="Helvetica,sans-Serif" font-size="10.00">Mavlink::broadcast</text>
<text text-anchor="middle" x="1154.5" y="-112" font-family="Helvetica,sans-Serif" font-size="10.00">_enabled</text>
</a>
</g>
</g>
<!-- Node7&#45;&gt;Node8 -->
<g id="edge7" class="edge"><title>Node7&#45;&gt;Node8</title>
<path fill="none" stroke="midnightblue" d="M1060.99,-94.3409C1075.05,-98.2395 1090.65,-102.566 1104.97,-106.539"/>
<polygon fill="midnightblue" stroke="midnightblue" points="1061.64,-90.8892 1051.07,-91.589 1059.77,-97.6346 1061.64,-90.8892"/>
</g>
<!-- Node19 -->
<g id="node19" class="node"><title>Node19</title>
<g id="a_node19"><a xlink:href="../../df/d1f/class_mavlink.html#a3f96c3503833a477332c8584bb8fbc67" target="_top" xlink:title="Start the mavlink task. ">
<polygon fill="white" stroke="black" points="1116.5,-66.5 1116.5,-85.5 1192.5,-85.5 1192.5,-66.5 1116.5,-66.5"/>
<text text-anchor="middle" x="1154.5" y="-73.5" font-family="Helvetica,sans-Serif" font-size="10.00">Mavlink::start</text>
</a>
</g>
</g>
<!-- Node7&#45;&gt;Node19 -->
<g id="edge21" class="edge"><title>Node7&#45;&gt;Node19</title>
<path fill="none" stroke="midnightblue" d="M1079.13,-79.257C1091.79,-78.7028 1104.71,-78.1369 1116.15,-77.6356"/>
<polygon fill="midnightblue" stroke="midnightblue" points="1078.91,-75.7631 1069.08,-79.6974 1079.22,-82.7564 1078.91,-75.7631"/>
</g>
<!-- Node9 -->
<g id="node9" class="node"><title>Node9</title>
<g id="a_node9"><a xlink:href="../../df/d1f/class_mavlink.html#aacd190d885c0a9f521f0d7d0673f2b6f" target="_top" xlink:title="Flush the transmit buffer and send one MAVLink packet. ">
<polygon fill="white" stroke="black" points="1253.5,-154.5 1253.5,-173.5 1365.5,-173.5 1365.5,-154.5 1253.5,-154.5"/>
<text text-anchor="middle" x="1309.5" y="-161.5" font-family="Helvetica,sans-Serif" font-size="10.00">Mavlink::send_packet</text>
</a>
</g>
</g>
<!-- Node8&#45;&gt;Node9 -->
<g id="edge8" class="edge"><title>Node8&#45;&gt;Node9</title>
<path fill="none" stroke="midnightblue" d="M1213.99,-136.821C1234.68,-142.77 1257.22,-149.254 1275.11,-154.397"/>
<polygon fill="midnightblue" stroke="midnightblue" points="1214.91,-133.443 1204.33,-134.043 1212.97,-140.17 1214.91,-133.443"/>
</g>
<!-- Node14 -->
<g id="node14" class="node"><title>Node14</title>
<g id="a_node14"><a xlink:href="../../df/d1f/class_mavlink.html#afcac36b1b581d47b7181374d35edbd54" target="_top" xlink:title="Set the boot complete flag on all instances. ">
<polygon fill="white" stroke="black" points="1240,-110.5 1240,-129.5 1379,-129.5 1379,-110.5 1240,-110.5"/>
<text text-anchor="middle" x="1309.5" y="-117.5" font-family="Helvetica,sans-Serif" font-size="10.00">Mavlink::set_boot_complete</text>
</a>
</g>
</g>
<!-- Node8&#45;&gt;Node14 -->
<g id="edge14" class="edge"><title>Node8&#45;&gt;Node14</title>
<path fill="none" stroke="midnightblue" d="M1214.59,-113.408C1222.84,-113.256 1231.37,-113.214 1239.78,-113.281"/>
<polygon fill="midnightblue" stroke="midnightblue" points="1214.24,-109.915 1204.33,-113.659 1214.41,-116.913 1214.24,-109.915"/>
</g>
<!-- Node10 -->
<g id="node10" class="node"><title>Node10</title>
<g id="a_node10"><a xlink:href="../../df/d1f/class_mavlink.html#a3aa1fb0ca3f0d77b10a8954618a51abb" target="_top" xlink:title="Get the manual input generation mode. ">
<polygon fill="white" stroke="black" points="1423,-193 1423,-223 1545,-223 1545,-193 1423,-193"/>
<text text-anchor="start" x="1431" y="-211" font-family="Helvetica,sans-Serif" font-size="10.00">Mavlink::get_manual</text>
<text text-anchor="middle" x="1484" y="-200" font-family="Helvetica,sans-Serif" font-size="10.00">_input_mode_generation</text>
</a>
</g>
</g>
<!-- Node9&#45;&gt;Node10 -->
<g id="edge9" class="edge"><title>Node9&#45;&gt;Node10</title>
<path fill="none" stroke="midnightblue" d="M1357.65,-176.026C1378.11,-181.245 1402.3,-187.414 1423.94,-192.935"/>
<polygon fill="midnightblue" stroke="midnightblue" points="1358.48,-172.628 1347.93,-173.547 1356.75,-179.41 1358.48,-172.628"/>
</g>
<!-- Node13 -->
<g id="node13" class="node"><title>Node13</title>
<g id="a_node13"><a xlink:href="../../de/d24/mavlink__main_8cpp.html#a646c2f3486de3d8574422fc4ef1940a2" target="_top" xlink:title="mavlink_end_uart_send">
<polygon fill="white" stroke="black" points="1424.5,-154.5 1424.5,-173.5 1543.5,-173.5 1543.5,-154.5 1424.5,-154.5"/>
<text text-anchor="middle" x="1484" y="-161.5" font-family="Helvetica,sans-Serif" font-size="10.00">mavlink_end_uart_send</text>
</a>
</g>
</g>
<!-- Node9&#45;&gt;Node13 -->
<g id="edge13" class="edge"><title>Node9&#45;&gt;Node13</title>
<path fill="none" stroke="midnightblue" d="M1375.85,-164C1391.77,-164 1408.71,-164 1424.3,-164"/>
<polygon fill="midnightblue" stroke="midnightblue" points="1375.55,-160.5 1365.55,-164 1375.55,-167.5 1375.55,-160.5"/>
</g>
<!-- Node11 -->
<g id="node11" class="node"><title>Node11</title>
<g id="a_node11"><a xlink:href="../../da/d89/class_mavlink_receiver.html#af99bf01b6ae13dab05c36c0125e179bc" target="_top" xlink:title="MavlinkReceiver::handle\l_message_manual_control">
<polygon fill="white" stroke="black" points="1591.5,-164 1591.5,-194 1724.5,-194 1724.5,-164 1591.5,-164"/>
<text text-anchor="start" x="1599.5" y="-182" font-family="Helvetica,sans-Serif" font-size="10.00">MavlinkReceiver::handle</text>
<text text-anchor="middle" x="1658" y="-171" font-family="Helvetica,sans-Serif" font-size="10.00">_message_manual_control</text>
</a>
</g>
</g>
<!-- Node10&#45;&gt;Node11 -->
<g id="edge10" class="edge"><title>Node10&#45;&gt;Node11</title>
<path fill="none" stroke="midnightblue" d="M1555.09,-196.182C1567.06,-194.164 1579.46,-192.074 1591.31,-190.076"/>
<polygon fill="midnightblue" stroke="midnightblue" points="1554.44,-192.743 1545.16,-197.857 1555.6,-199.646 1554.44,-192.743"/>
</g>
<!-- Node12 -->
<g id="node12" class="node"><title>Node12</title>
<g id="a_node12"><a xlink:href="../../da/d89/class_mavlink_receiver.html#ac939c806679dc4278968b1d3e865cc72" target="_top" xlink:title="MavlinkReceiver::handle\l_message">
<polygon fill="white" stroke="black" points="1770,-124 1770,-154 1894,-154 1894,-124 1770,-124"/>
<text text-anchor="start" x="1778" y="-142" font-family="Helvetica,sans-Serif" font-size="10.00">MavlinkReceiver::handle</text>
<text text-anchor="middle" x="1832" y="-131" font-family="Helvetica,sans-Serif" font-size="10.00">_message</text>
</a>
</g>
</g>
<!-- Node11&#45;&gt;Node12 -->
<g id="edge11" class="edge"><title>Node11&#45;&gt;Node12</title>
<path fill="none" stroke="midnightblue" d="M1733.6,-161.652C1745.69,-158.84 1758.08,-155.958 1769.8,-153.232"/>
<polygon fill="midnightblue" stroke="midnightblue" points="1732.48,-158.317 1723.54,-163.992 1734.07,-165.135 1732.48,-158.317"/>
</g>
<!-- Node12&#45;&gt;Node3 -->
<g id="edge12" class="edge"><title>Node12&#45;&gt;Node3</title>
<path fill="none" stroke="midnightblue" d="M1803.12,-117.973C1783.01,-103.871 1754.64,-86.0943 1727,-76 1624.73,-38.6469 1593.87,-38 1485,-38 724.5,-38 724.5,-38 724.5,-38 638.104,-38 538.251,-38 475.248,-38"/>
<polygon fill="midnightblue" stroke="midnightblue" points="1801.31,-120.981 1811.48,-123.955 1805.38,-115.289 1801.31,-120.981"/>
</g>
<!-- Node14&#45;&gt;Node8 -->
<g id="edge15" class="edge"><title>Node14&#45;&gt;Node8</title>
<path fill="none" stroke="midnightblue" d="M1229.66,-126.747C1221.03,-126.726 1212.44,-126.591 1204.33,-126.341"/>
<polygon fill="midnightblue" stroke="midnightblue" points="1229.79,-130.247 1239.78,-126.719 1229.77,-123.247 1229.79,-130.247"/>
</g>
<!-- Node15 -->
<g id="node15" class="node"><title>Node15</title>
<g id="a_node15"><a xlink:href="../../de/d24/mavlink__main_8cpp.html#ab81e9b009119f143f3b54a1390b92427" target="_top" xlink:title="mavlink app start / stop handling function ">
<polygon fill="white" stroke="black" points="1445.5,-66.5 1445.5,-85.5 1522.5,-85.5 1522.5,-66.5 1445.5,-66.5"/>
<text text-anchor="middle" x="1484" y="-73.5" font-family="Helvetica,sans-Serif" font-size="10.00">mavlink_main</text>
</a>
</g>
</g>
<!-- Node14&#45;&gt;Node15 -->
<g id="edge16" class="edge"><title>Node14&#45;&gt;Node15</title>
<path fill="none" stroke="midnightblue" d="M1357.79,-107.938C1385.45,-100.882 1419.89,-92.0976 1445.64,-85.5287"/>
<polygon fill="midnightblue" stroke="midnightblue" points="1356.75,-104.59 1347.93,-110.453 1358.48,-111.372 1356.75,-104.59"/>
</g>
<!-- Node16 -->
<g id="node16" class="node"><title>Node16</title>
<g id="a_node16"><a xlink:href="../../df/d61/class_mavlink_parameters_manager.html#acd8734b77582ad7626f5230c1707e04c" target="_top" xlink:title="send a single param if a PARAM_REQUEST_LIST is in progress ">
<polygon fill="white" stroke="black" points="1415,-105 1415,-135 1553,-135 1553,-105 1415,-105"/>
<text text-anchor="start" x="1423" y="-123" font-family="Helvetica,sans-Serif" font-size="10.00">MavlinkParametersManager</text>
<text text-anchor="middle" x="1484" y="-112" font-family="Helvetica,sans-Serif" font-size="10.00">::send_one</text>
</a>
</g>
</g>
<!-- Node14&#45;&gt;Node16 -->
<g id="edge17" class="edge"><title>Node14&#45;&gt;Node16</title>
<path fill="none" stroke="midnightblue" d="M1389.45,-120C1397.93,-120 1406.51,-120 1414.85,-120"/>
<polygon fill="midnightblue" stroke="midnightblue" points="1389.17,-116.5 1379.17,-120 1389.17,-123.5 1389.17,-116.5"/>
</g>
<!-- Node17 -->
<g id="node17" class="node"><title>Node17</title>
<g id="a_node17"><a xlink:href="../../df/d61/class_mavlink_parameters_manager.html#a3a6dff51ef5aba4f3dda19610510a45d" target="_top" xlink:title="Handle any open param send transfer. ">
<polygon fill="white" stroke="black" points="1589,-86 1589,-116 1727,-116 1727,-86 1589,-86"/>
<text text-anchor="start" x="1597" y="-104" font-family="Helvetica,sans-Serif" font-size="10.00">MavlinkParametersManager</text>
<text text-anchor="middle" x="1658" y="-93" font-family="Helvetica,sans-Serif" font-size="10.00">::send_params</text>
</a>
</g>
</g>
<!-- Node16&#45;&gt;Node17 -->
<g id="edge18" class="edge"><title>Node16&#45;&gt;Node17</title>
<path fill="none" stroke="midnightblue" d="M1563.64,-111.313C1572.03,-110.387 1580.51,-109.45 1588.76,-108.538"/>
<polygon fill="midnightblue" stroke="midnightblue" points="1563.03,-107.859 1553.47,-112.436 1563.8,-114.817 1563.03,-107.859"/>
</g>
<!-- Node18 -->
<g id="node18" class="node"><title>Node18</title>
<g id="a_node18"><a xlink:href="../../df/d61/class_mavlink_parameters_manager.html#adbcd587c4ec1c0b94fe259047f8ec82e" target="_top" xlink:title="Handle sending of messages. ">
<polygon fill="white" stroke="black" points="1763,-35 1763,-65 1901,-65 1901,-35 1763,-35"/>
<text text-anchor="start" x="1771" y="-53" font-family="Helvetica,sans-Serif" font-size="10.00">MavlinkParametersManager</text>
<text text-anchor="middle" x="1832" y="-42" font-family="Helvetica,sans-Serif" font-size="10.00">::send</text>
</a>
</g>
</g>
<!-- Node17&#45;&gt;Node18 -->
<g id="edge19" class="edge"><title>Node17&#45;&gt;Node18</title>
<path fill="none" stroke="midnightblue" d="M1719.29,-83.124C1739.24,-77.2066 1761.24,-70.6859 1780.39,-65.0065"/>
<polygon fill="midnightblue" stroke="midnightblue" points="1718.27,-79.7757 1709.68,-85.9742 1720.26,-86.4869 1718.27,-79.7757"/>
</g>
<!-- Node18&#45;&gt;Node3 -->
<g id="edge20" class="edge"><title>Node18&#45;&gt;Node3</title>
<path fill="none" stroke="midnightblue" d="M1767.36,-32.5281C1754.1,-29.328 1740.15,-26.2834 1727,-24 1620.51,-5.51032 1593.08,-0 1485,-0 724.5,-0 724.5,-0 724.5,-0 637.602,-0 538.082,-14.7049 475.271,-25.8198"/>
<polygon fill="midnightblue" stroke="midnightblue" points="1766.79,-35.994 1777.34,-34.9955 1768.47,-29.1984 1766.79,-35.994"/>
</g>
<!-- Node19&#45;&gt;Node15 -->
<g id="edge22" class="edge"><title>Node19&#45;&gt;Node15</title>
<path fill="none" stroke="midnightblue" d="M1202.8,-76C1268.3,-76 1385.31,-76 1445.28,-76"/>
<polygon fill="midnightblue" stroke="midnightblue" points="1202.75,-72.5001 1192.75,-76 1202.75,-79.5001 1202.75,-72.5001"/>
</g>
</g>
</svg>
