<?xml version="1.0" encoding="UTF-8" standalone="no"?>
<!DOCTYPE svg PUBLIC "-//W3C//DTD SVG 1.1//EN"
 "http://www.w3.org/Graphics/SVG/1.1/DTD/svg11.dtd">
<!-- Generated by graphviz version 2.40.1 (20161225.0304)
 -->
<!-- Title: matrix::Vector3::normalized Pages: 1 -->
<!--zoomable 176 -->
<svg id="main" version="1.1" xmlns="http://www.w3.org/2000/svg" xmlns:xlink="http://www.w3.org/1999/xlink" xml:space="preserve" onload="init(evt)">
<style type="text/css"><![CDATA[
.edge:hover path { stroke: red; }
.edge:hover polygon { stroke: red; fill: red; }
]]></style>
<script type="text/javascript"><![CDATA[
var edges = document.getElementsByTagName('g');
if (edges && edges.length) {
  for (var i=0;i<edges.length;i++) {
    if (edges[i].id.substr(0,4)=='edge') {
      edges[i].setAttribute('class','edge');
    }
  }
}
]]></script>
        <defs>
                <circle id="rim" cx="0" cy="0" r="7"/>
                <circle id="rim2" cx="0" cy="0" r="3.5"/>
                <g id="zoomPlus">
                        <use xlink:href="#rim" fill="#404040">
                                <set attributeName="fill" to="#808080" begin="zoomplus.mouseover" end="zoomplus.mouseout"/>
                        </use>
                        <path d="M-4,0h8M0,-4v8" fill="none" stroke="white" stroke-width="1.5" pointer-events="none"/>
                </g>
                <g id="zoomMin">
                        <use xlink:href="#rim" fill="#404040">
                                <set attributeName="fill" to="#808080" begin="zoomminus.mouseover" end="zoomminus.mouseout"/>
                        </use>
                        <path d="M-4,0h8" fill="none" stroke="white" stroke-width="1.5" pointer-events="none"/>
                </g>
                <g id="dirArrow">
                        <path fill="none" stroke="white" stroke-width="1.5" d="M0,-3.0v7 M-2.5,-0.5L0,-3.0L2.5,-0.5"/>
                </g>
               <g id="resetDef">
                       <use xlink:href="#rim2" fill="#404040">
                               <set attributeName="fill" to="#808080" begin="reset.mouseover" end="reset.mouseout"/>
                       </use>
               </g>
        </defs>

<script type="text/javascript">
var viewWidth = 691;
var viewHeight = 176;
var sectionId = 'dynsection-6';
</script>
<script xlink:href="../../svgpan.js"/>
<svg id="graph" class="graph">
<g id="viewport">
<title>matrix::Vector3::normalized</title>
<polygon fill="#ffffff" stroke="transparent" points="-4,4 -4,-172 687,-172 687,4 -4,4"/>
<!-- Node36 -->
<g id="node1" class="node">
<title>Node36</title>
<polygon fill="#bfbfbf" stroke="#000000" points="0,-88.5 0,-107.5 137,-107.5 137,-88.5 0,-88.5"/>
<text text-anchor="middle" x="68.5" y="-95.5" font-family="Helvetica,sans-Serif" font-size="10.00" fill="#000000">matrix::Vector3::normalized</text>
</g>
<!-- Node37 -->
<g id="node2" class="node">
<title>Node37</title>
<g id="a_node2"><a xlink:href="../../dc/d2e/vector3_8cpp.html#ae66f6b31b5ad750f1fe042a706a4e3d4" target="_top" xlink:title="main">
<polygon fill="#ffffff" stroke="#000000" points="227,-148.5 227,-167.5 265,-167.5 265,-148.5 227,-148.5"/>
<text text-anchor="middle" x="246" y="-155.5" font-family="Helvetica,sans-Serif" font-size="10.00" fill="#000000">main</text>
</a>
</g>
</g>
<!-- Node36&#45;&gt;Node37 -->
<g id="edge1" class="edge">
<title>Node36&#45;&gt;Node37</title>
<path fill="none" stroke="#191970" d="M100.1285,-111.5477C120.6709,-120.0624 148.1524,-130.9238 173,-139 191.059,-144.8697 212.0801,-150.1856 226.9142,-153.692"/>
<polygon fill="#191970" stroke="#191970" points="101.2194,-108.2102 90.6434,-107.5788 98.5173,-114.6677 101.2194,-108.2102"/>
</g>
<!-- Node38 -->
<g id="node3" class="node">
<title>Node38</title>
<g id="a_node3"><a xlink:href="../../d9/d8a/class_follow_target.html#a27f30874e77b0abcf37ce44265e84892" target="_top" xlink:title="This function is called while the mode is active. ">
<polygon fill="#ffffff" stroke="#000000" points="185.5,-110.5 185.5,-129.5 306.5,-129.5 306.5,-110.5 185.5,-110.5"/>
<text text-anchor="middle" x="246" y="-117.5" font-family="Helvetica,sans-Serif" font-size="10.00" fill="#000000">FollowTarget::on_active</text>
</a>
</g>
</g>
<!-- Node36&#45;&gt;Node38 -->
<g id="edge2" class="edge">
<title>Node36&#45;&gt;Node38</title>
<path fill="none" stroke="#191970" d="M147.2897,-107.7655C160.063,-109.3487 173.115,-110.9664 185.3694,-112.4852"/>
<polygon fill="#191970" stroke="#191970" points="147.4807,-104.2625 137.1261,-106.5058 146.6197,-111.2093 147.4807,-104.2625"/>
</g>
<!-- Node39 -->
<g id="node4" class="node">
<title>Node39</title>
<g id="a_node4"><a xlink:href="../../d4/d11/classmatrix_1_1_dcm.html#a4a82aff5d0100af139b43bb67c465a9a" target="_top" xlink:title="matrix::Dcm\&lt; float\l \&gt;::renormalize">
<polygon fill="#ffffff" stroke="#000000" points="197,-61 197,-91 295,-91 295,-61 197,-61"/>
<text text-anchor="start" x="205" y="-79" font-family="Helvetica,sans-Serif" font-size="10.00" fill="#000000">matrix::Dcm&lt; float</text>
<text text-anchor="middle" x="246" y="-68" font-family="Helvetica,sans-Serif" font-size="10.00" fill="#000000"> &gt;::renormalize</text>
</a>
</g>
</g>
<!-- Node36&#45;&gt;Node39 -->
<g id="edge3" class="edge">
<title>Node36&#45;&gt;Node39</title>
<path fill="none" stroke="#191970" d="M147.4923,-88.2094C164.2737,-86.1295 181.5262,-83.9911 196.8105,-82.0967"/>
<polygon fill="#191970" stroke="#191970" points="146.6197,-84.7907 137.1261,-89.4942 147.4807,-91.7375 146.6197,-84.7907"/>
</g>
<!-- Node40 -->
<g id="node5" class="node">
<title>Node40</title>
<g id="a_node5"><a xlink:href="../../d5/d30/namespace_control_math.html#ad717ded6d5b709feff11c5757ce9cfd2" target="_top" xlink:title="Converts thrust vector and yaw set&#45;point to a desired attitude. ">
<polygon fill="#ffffff" stroke="#000000" points="173,-22.5 173,-41.5 319,-41.5 319,-22.5 173,-22.5"/>
<text text-anchor="middle" x="246" y="-29.5" font-family="Helvetica,sans-Serif" font-size="10.00" fill="#000000">ControlMath::thrustToAttitude</text>
</a>
</g>
</g>
<!-- Node36&#45;&gt;Node40 -->
<g id="edge4" class="edge">
<title>Node36&#45;&gt;Node40</title>
<path fill="none" stroke="#191970" d="M96.5466,-83.8326C117.2919,-73.7388 146.4355,-60.3562 173,-51 183.0052,-47.4761 193.9872,-44.28 204.3263,-41.5571"/>
<polygon fill="#191970" stroke="#191970" points="94.792,-80.7952 87.3658,-88.3518 97.8835,-87.0756 94.792,-80.7952"/>
</g>
<!-- Node41 -->
<g id="node6" class="node">
<title>Node41</title>
<g id="a_node6"><a xlink:href="../../d8/d5a/class_position_control.html#a4c871d392085f11713a648289714ba54" target="_top" xlink:title="Get the controllers output attitude setpoint This attitude setpoint was generated from the resulting ...">
<polygon fill="#ffffff" stroke="#000000" points="355,-39 355,-69 492,-69 492,-39 355,-39"/>
<text text-anchor="start" x="363" y="-57" font-family="Helvetica,sans-Serif" font-size="10.00" fill="#000000">PositionControl::getAttitude</text>
<text text-anchor="middle" x="423.5" y="-46" font-family="Helvetica,sans-Serif" font-size="10.00" fill="#000000">Setpoint</text>
</a>
</g>
</g>
<!-- Node40&#45;&gt;Node41 -->
<g id="edge5" class="edge">
<title>Node40&#45;&gt;Node41</title>
<path fill="none" stroke="#191970" d="M329.2014,-42.3123C337.7466,-43.3714 346.3606,-44.4391 354.725,-45.4758"/>
<polygon fill="#191970" stroke="#191970" points="329.5754,-38.8319 319.2208,-41.0753 328.7144,-45.7788 329.5754,-38.8319"/>
</g>
<!-- Node44 -->
<g id="node9" class="node">
<title>Node44</title>
<g id="a_node9"><a xlink:href="../../d8/df1/_control_math_test_8cpp.html#aa8d4cc0bd9d9615b84904414b015d496" target="_top" xlink:title="TEST">
<polygon fill="#ffffff" stroke="#000000" points="402.5,-.5 402.5,-19.5 444.5,-19.5 444.5,-.5 402.5,-.5"/>
<text text-anchor="middle" x="423.5" y="-7.5" font-family="Helvetica,sans-Serif" font-size="10.00" fill="#000000">TEST</text>
</a>
</g>
</g>
<!-- Node40&#45;&gt;Node44 -->
<g id="edge8" class="edge">
<title>Node40&#45;&gt;Node44</title>
<path fill="none" stroke="#191970" d="M329.4846,-21.6526C356.4018,-18.3164 383.9671,-14.8999 402.2299,-12.6363"/>
<polygon fill="#191970" stroke="#191970" points="328.7144,-18.2212 319.2208,-22.9247 329.5754,-25.1681 328.7144,-18.2212"/>
</g>
<!-- Node42 -->
<g id="node7" class="node">
<title>Node42</title>
<g id="a_node7"><a xlink:href="../../dd/d4e/class_multicopter_position_control.html#a295b07c9916c3949dab8c3584415e392" target="_top" xlink:title="MulticopterPositionControl::Run">
<polygon fill="#ffffff" stroke="#000000" points="528,-63.5 528,-82.5 683,-82.5 683,-63.5 528,-63.5"/>
<text text-anchor="middle" x="605.5" y="-70.5" font-family="Helvetica,sans-Serif" font-size="10.00" fill="#000000">MulticopterPositionControl::Run</text>
</a>
</g>
</g>
<!-- Node41&#45;&gt;Node42 -->
<g id="edge6" class="edge">
<title>Node41&#45;&gt;Node42</title>
<path fill="none" stroke="#191970" d="M502.0158,-62.1967C510.5825,-63.091 519.2997,-64.0011 527.8558,-64.8943"/>
<polygon fill="#191970" stroke="#191970" points="502.3564,-58.7133 492.0471,-61.156 501.6296,-65.6755 502.3564,-58.7133"/>
</g>
<!-- Node43 -->
<g id="node8" class="node">
<title>Node43</title>
<g id="a_node8"><a xlink:href="../../d8/d36/_position_control_test_8cpp.html#ac6d3cd16938d51958121f33b5b2d354c" target="_top" xlink:title="TEST">
<polygon fill="#ffffff" stroke="#000000" points="584.5,-25.5 584.5,-44.5 626.5,-44.5 626.5,-25.5 584.5,-25.5"/>
<text text-anchor="middle" x="605.5" y="-32.5" font-family="Helvetica,sans-Serif" font-size="10.00" fill="#000000">TEST</text>
</a>
</g>
</g>
<!-- Node41&#45;&gt;Node43 -->
<g id="edge7" class="edge">
<title>Node41&#45;&gt;Node43</title>
<path fill="none" stroke="#191970" d="M502.1652,-45.7877C532.2654,-42.6454 564.2001,-39.3115 584.4661,-37.1959"/>
<polygon fill="#191970" stroke="#191970" points="501.6296,-42.3245 492.0471,-46.844 502.3564,-49.2867 501.6296,-42.3245"/>
</g>
</g>
</svg>
        <g id="navigator" transform="translate(0 0)" fill="#404254">
                <rect fill="#f2f5e9" fill-opacity="0.5" stroke="#606060" stroke-width=".5" x="0" y="0" width="60" height="60"/>
                <use id="zoomplus" xlink:href="#zoomPlus" x="17" y="9" onmousedown="handleZoom(evt,'in')"/>
                <use id="zoomminus" xlink:href="#zoomMin" x="42" y="9" onmousedown="handleZoom(evt,'out')"/>
                <use id="reset" xlink:href="#resetDef" x="30" y="36" onmousedown="handleReset()"/>
                <g id="arrowUp" xlink:href="#dirArrow" transform="translate(30 24)" onmousedown="handlePan(0,-1)">
                  <use xlink:href="#rim" fill="#404040">
                        <set attributeName="fill" to="#808080" begin="arrowUp.mouseover" end="arrowUp.mouseout"/>
                  </use>
                  <path fill="none" stroke="white" stroke-width="1.5" d="M0,-3.0v7 M-2.5,-0.5L0,-3.0L2.5,-0.5"/>
                </g>
                <g id="arrowRight" xlink:href="#dirArrow" transform="rotate(90) translate(36 -43)" onmousedown="handlePan(1,0)">
                  <use xlink:href="#rim" fill="#404040">
                        <set attributeName="fill" to="#808080" begin="arrowRight.mouseover" end="arrowRight.mouseout"/>
                  </use>
                  <path fill="none" stroke="white" stroke-width="1.5" d="M0,-3.0v7 M-2.5,-0.5L0,-3.0L2.5,-0.5"/>
                </g>
                <g id="arrowDown" xlink:href="#dirArrow" transform="rotate(180) translate(-30 -48)" onmousedown="handlePan(0,1)">
                  <use xlink:href="#rim" fill="#404040">
                        <set attributeName="fill" to="#808080" begin="arrowDown.mouseover" end="arrowDown.mouseout"/>
                  </use>
                  <path fill="none" stroke="white" stroke-width="1.5" d="M0,-3.0v7 M-2.5,-0.5L0,-3.0L2.5,-0.5"/>
                </g>
                <g id="arrowLeft" xlink:href="#dirArrow" transform="rotate(270) translate(-36 17)" onmousedown="handlePan(-1,0)">
                  <use xlink:href="#rim" fill="#404040">
                        <set attributeName="fill" to="#808080" begin="arrowLeft.mouseover" end="arrowLeft.mouseout"/>
                  </use>
                  <path fill="none" stroke="white" stroke-width="1.5" d="M0,-3.0v7 M-2.5,-0.5L0,-3.0L2.5,-0.5"/>
                </g>
        </g>
        <svg viewBox="0 0 15 15" width="100%" height="30px" preserveAspectRatio="xMaxYMin meet">
         <g id="arrow_out" transform="scale(0.3 0.3)">
          <a xlink:href="classmatrix_1_1_vector3_a77e2b6dfb26590217b9cb36e378b014f_icgraph_org.svg" target="_base">
           <rect id="button" ry="5" rx="5" y="6" x="6" height="38" width="38"
                fill="#f2f5e9" fill-opacity="0.5" stroke="#606060" stroke-width="1.0"/>
           <path id="arrow"
             d="M 11.500037,31.436501 C 11.940474,20.09759 22.043105,11.32322 32.158766,21.979434 L 37.068811,17.246167 C 37.068811,17.246167 37.088388,32 37.088388,32 L 22.160133,31.978069 C 22.160133,31.978069 26.997745,27.140456 26.997745,27.140456 C 18.528582,18.264221 13.291696,25.230495 11.500037,31.436501 z"
             style="fill:#404040;"/>
          </a>
         </g>
        </svg>
</svg>
