<?xml version="1.0" encoding="UTF-8" standalone="no"?>
<!DOCTYPE svg PUBLIC "-//W3C//DTD SVG 1.1//EN"
 "http://www.w3.org/Graphics/SVG/1.1/DTD/svg11.dtd">
<!-- Generated by graphviz version 2.40.1 (20161225.0304)
 -->
<!-- Title: src/modules/battery_status/parameters.h Pages: 1 -->
<!--zoomable 285 -->
<svg id="main" version="1.1" xmlns="http://www.w3.org/2000/svg" xmlns:xlink="http://www.w3.org/1999/xlink" xml:space="preserve" onload="init(evt)">
<style type="text/css"><![CDATA[
.edge:hover path { stroke: red; }
.edge:hover polygon { stroke: red; fill: red; }
]]></style>
<script type="text/javascript"><![CDATA[
var edges = document.getElementsByTagName('g');
if (edges && edges.length) {
  for (var i=0;i<edges.length;i++) {
    if (edges[i].id.substr(0,4)=='edge') {
      edges[i].setAttribute('class','edge');
    }
  }
}
]]></script>
        <defs>
                <circle id="rim" cx="0" cy="0" r="7"/>
                <circle id="rim2" cx="0" cy="0" r="3.5"/>
                <g id="zoomPlus">
                        <use xlink:href="#rim" fill="#404040">
                                <set attributeName="fill" to="#808080" begin="zoomplus.mouseover" end="zoomplus.mouseout"/>
                        </use>
                        <path d="M-4,0h8M0,-4v8" fill="none" stroke="white" stroke-width="1.5" pointer-events="none"/>
                </g>
                <g id="zoomMin">
                        <use xlink:href="#rim" fill="#404040">
                                <set attributeName="fill" to="#808080" begin="zoomminus.mouseover" end="zoomminus.mouseout"/>
                        </use>
                        <path d="M-4,0h8" fill="none" stroke="white" stroke-width="1.5" pointer-events="none"/>
                </g>
                <g id="dirArrow">
                        <path fill="none" stroke="white" stroke-width="1.5" d="M0,-3.0v7 M-2.5,-0.5L0,-3.0L2.5,-0.5"/>
                </g>
               <g id="resetDef">
                       <use xlink:href="#rim2" fill="#404040">
                               <set attributeName="fill" to="#808080" begin="reset.mouseover" end="reset.mouseout"/>
                       </use>
               </g>
        </defs>

<script type="text/javascript">
var viewWidth = 528;
var viewHeight = 285;
var sectionId = 'dynsection-0';
</script>
<script xlink:href="../../svgpan.js"/>
<svg id="graph" class="graph">
<g id="viewport">
<title>src/modules/battery_status/parameters.h</title>
<polygon fill="#ffffff" stroke="transparent" points="-4,4 -4,-281 524.4533,-281 524.4533,4 -4,4"/>
<!-- Node0 -->
<g id="node1" class="node">
<title>Node0</title>
<polygon fill="#bfbfbf" stroke="#000000" points="133.5,-246.5 133.5,-276.5 242.5,-276.5 242.5,-246.5 133.5,-246.5"/>
<text text-anchor="start" x="141.5" y="-264.5" font-family="Helvetica,sans-Serif" font-size="10.00" fill="#000000">src/modules/battery</text>
<text text-anchor="middle" x="188" y="-253.5" font-family="Helvetica,sans-Serif" font-size="10.00" fill="#000000">_status/parameters.h</text>
</g>
<!-- Node1 -->
<g id="node2" class="node">
<title>Node1</title>
<polygon fill="#ffffff" stroke="#bfbfbf" points="0,-179.5 0,-209.5 116,-209.5 116,-179.5 0,-179.5"/>
<text text-anchor="start" x="8" y="-197.5" font-family="Helvetica,sans-Serif" font-size="10.00" fill="#000000">px4_platform_common</text>
<text text-anchor="middle" x="58" y="-186.5" font-family="Helvetica,sans-Serif" font-size="10.00" fill="#000000">/px4_config.h</text>
</g>
<!-- Node0&#45;&gt;Node1 -->
<g id="edge1" class="edge">
<title>Node0&#45;&gt;Node1</title>
<path fill="none" stroke="#191970" d="M158.8255,-246.4639C140.4719,-237.0047 116.5765,-224.6894 96.655,-214.4222"/>
<polygon fill="#191970" stroke="#191970" points="98.0193,-211.1879 87.527,-209.7177 94.8124,-217.4101 98.0193,-211.1879"/>
</g>
<!-- Node2 -->
<g id="node3" class="node">
<title>Node2</title>
<g id="a_node3"><a xlink:href="../../dd/d56/drv__rc__input_8h.html" target="_top" xlink:title="R/C input interface. ">
<polygon fill="#ffffff" stroke="#000000" points="235,-185 235,-204 345,-204 345,-185 235,-185"/>
<text text-anchor="middle" x="290" y="-192" font-family="Helvetica,sans-Serif" font-size="10.00" fill="#000000">drivers/drv_rc_input.h</text>
</a>
</g>
</g>
<!-- Node0&#45;&gt;Node2 -->
<g id="edge2" class="edge">
<title>Node0&#45;&gt;Node2</title>
<path fill="none" stroke="#191970" d="M210.8908,-246.4639C227.5425,-235.526 250.0083,-220.769 266.7442,-209.7759"/>
<polygon fill="#191970" stroke="#191970" points="268.9425,-212.5195 275.3791,-204.1039 265.0994,-206.6688 268.9425,-212.5195"/>
</g>
<!-- Node11 -->
<g id="node12" class="node">
<title>Node11</title>
<g id="a_node12"><a xlink:href="../../d5/d33/param_8h.html" target="_top" xlink:title="Global flash based parameter store. ">
<polygon fill="#ffffff" stroke="#000000" points="50,-62 50,-81 154,-81 154,-62 50,-62"/>
<text text-anchor="middle" x="102" y="-69" font-family="Helvetica,sans-Serif" font-size="10.00" fill="#000000">parameters/param.h</text>
</a>
</g>
</g>
<!-- Node0&#45;&gt;Node11 -->
<g id="edge15" class="edge">
<title>Node0&#45;&gt;Node11</title>
<path fill="none" stroke="#191970" d="M181.1076,-246.2727C165.5143,-211.8223 127.5639,-127.9783 110.5266,-90.3378"/>
<polygon fill="#191970" stroke="#191970" points="113.6239,-88.6928 106.3117,-81.0258 107.2467,-91.5793 113.6239,-88.6928"/>
</g>
<!-- Node12 -->
<g id="node13" class="node">
<title>Node12</title>
<polygon fill="#ffffff" stroke="#bfbfbf" points="363.5,-185 363.5,-204 454.5,-204 454.5,-185 363.5,-185"/>
<text text-anchor="middle" x="409" y="-192" font-family="Helvetica,sans-Serif" font-size="10.00" fill="#000000">mathlib/mathlib.h</text>
</g>
<!-- Node0&#45;&gt;Node12 -->
<g id="edge19" class="edge">
<title>Node0&#45;&gt;Node12</title>
<path fill="none" stroke="#191970" d="M237.5967,-246.4639C276.7984,-234.5792 330.8723,-218.1858 367.7332,-207.0108"/>
<polygon fill="#191970" stroke="#191970" points="369.0923,-210.2561 377.6467,-204.0053 367.0614,-203.5572 369.0923,-210.2561"/>
</g>
<!-- Node3 -->
<g id="node4" class="node">
<title>Node3</title>
<polygon fill="#ffffff" stroke="#bfbfbf" points="317.5,-.5 317.5,-19.5 366.5,-19.5 366.5,-.5 317.5,-.5"/>
<text text-anchor="middle" x="342" y="-7.5" font-family="Helvetica,sans-Serif" font-size="10.00" fill="#000000">stdint.h</text>
</g>
<!-- Node2&#45;&gt;Node3 -->
<g id="edge3" class="edge">
<title>Node2&#45;&gt;Node3</title>
<path fill="none" stroke="#191970" d="M320.0154,-184.9353C376.4325,-166.2463 494.4795,-123.5138 515,-87 545.6163,-32.5219 435.3828,-16.493 376.5889,-11.8505"/>
<polygon fill="#191970" stroke="#191970" points="376.8221,-8.3584 366.5966,-11.1316 376.3196,-15.3403 376.8221,-8.3584"/>
</g>
<!-- Node4 -->
<g id="node5" class="node">
<title>Node4</title>
<polygon fill="#ffffff" stroke="#bfbfbf" points="444,-62 444,-81 506,-81 506,-62 444,-62"/>
<text text-anchor="middle" x="475" y="-69" font-family="Helvetica,sans-Serif" font-size="10.00" fill="#000000">sys/ioctl.h</text>
</g>
<!-- Node2&#45;&gt;Node4 -->
<g id="edge4" class="edge">
<title>Node2&#45;&gt;Node4</title>
<path fill="none" stroke="#191970" d="M314.9036,-184.9663C337.3309,-175.823 370.712,-160.8024 397,-143 420.5739,-127.0355 444.1926,-104.195 459.1616,-88.6554"/>
<polygon fill="#191970" stroke="#191970" points="461.8208,-90.9375 466.1549,-81.2697 456.7378,-86.1246 461.8208,-90.9375"/>
</g>
<!-- Node5 -->
<g id="node6" class="node">
<title>Node5</title>
<g id="a_node6"><a xlink:href="../../d5/d67/build_2doxygen_2u_o_r_b_2topics_2input__rc_8h.html" target="_top" xlink:title="uORB/topics/input_rc.h">
<polygon fill="#ffffff" stroke="#000000" points="172.5,-123.5 172.5,-142.5 291.5,-142.5 291.5,-123.5 172.5,-123.5"/>
<text text-anchor="middle" x="232" y="-130.5" font-family="Helvetica,sans-Serif" font-size="10.00" fill="#000000">uORB/topics/input_rc.h</text>
</a>
</g>
</g>
<!-- Node2&#45;&gt;Node5 -->
<g id="edge5" class="edge">
<title>Node2&#45;&gt;Node5</title>
<path fill="none" stroke="#191970" d="M280.9375,-184.8906C272.2207,-175.6478 258.846,-161.466 248.2804,-150.2628"/>
<polygon fill="#191970" stroke="#191970" points="250.5976,-147.6186 241.1903,-142.7449 245.505,-152.4213 250.5976,-147.6186"/>
</g>
<!-- Node9 -->
<g id="node10" class="node">
<title>Node9</title>
<g id="a_node10"><a xlink:href="../../d8/d61/drv__orb__dev_8h.html" target="_top" xlink:title="uORB published object driver. ">
<polygon fill="#ffffff" stroke="#000000" points="310,-123.5 310,-142.5 388,-142.5 388,-123.5 310,-123.5"/>
<text text-anchor="middle" x="349" y="-130.5" font-family="Helvetica,sans-Serif" font-size="10.00" fill="#000000">drv_orb_dev.h</text>
</a>
</g>
</g>
<!-- Node2&#45;&gt;Node9 -->
<g id="edge10" class="edge">
<title>Node2&#45;&gt;Node9</title>
<path fill="none" stroke="#191970" d="M299.2188,-184.8906C308.0858,-175.6478 321.6912,-161.466 332.4389,-150.2628"/>
<polygon fill="#191970" stroke="#191970" points="335.2541,-152.3841 339.6513,-142.7449 330.2027,-147.5381 335.2541,-152.3841"/>
</g>
<!-- Node6 -->
<g id="node7" class="node">
<title>Node6</title>
<g id="a_node7"><a xlink:href="../../db/dd6/u_o_r_b_8h.html" target="_top" xlink:title="API for the uORB lightweight object broker. ">
<polygon fill="#ffffff" stroke="#000000" points="172,-62 172,-81 254,-81 254,-62 172,-62"/>
<text text-anchor="middle" x="213" y="-69" font-family="Helvetica,sans-Serif" font-size="10.00" fill="#000000">uORB/uORB.h</text>
</a>
</g>
</g>
<!-- Node5&#45;&gt;Node6 -->
<g id="edge6" class="edge">
<title>Node5&#45;&gt;Node6</title>
<path fill="none" stroke="#191970" d="M229.0313,-123.3906C226.3698,-114.776 222.3829,-101.8708 219.0509,-91.0858"/>
<polygon fill="#191970" stroke="#191970" points="222.3065,-89.7661 216.0106,-81.2449 215.6184,-91.8324 222.3065,-89.7661"/>
</g>
<!-- Node6&#45;&gt;Node3 -->
<g id="edge8" class="edge">
<title>Node6&#45;&gt;Node3</title>
<path fill="none" stroke="#191970" d="M233.1563,-61.8906C254.551,-51.6908 288.562,-35.4763 312.8702,-23.8875"/>
<polygon fill="#191970" stroke="#191970" points="314.4648,-27.0047 321.9853,-19.5419 311.4524,-20.686 314.4648,-27.0047"/>
</g>
<!-- Node7 -->
<g id="node8" class="node">
<title>Node7</title>
<polygon fill="#ffffff" stroke="#bfbfbf" points="68,-.5 68,-19.5 136,-19.5 136,-.5 68,-.5"/>
<text text-anchor="middle" x="102" y="-7.5" font-family="Helvetica,sans-Serif" font-size="10.00" fill="#000000">sys/types.h</text>
</g>
<!-- Node6&#45;&gt;Node7 -->
<g id="edge7" class="edge">
<title>Node6&#45;&gt;Node7</title>
<path fill="none" stroke="#191970" d="M195.6563,-61.8906C177.5727,-51.8713 149.0141,-36.0483 128.1835,-24.5071"/>
<polygon fill="#191970" stroke="#191970" points="129.6654,-21.3268 119.222,-19.5419 126.2729,-27.4498 129.6654,-21.3268"/>
</g>
<!-- Node8 -->
<g id="node9" class="node">
<title>Node8</title>
<polygon fill="#ffffff" stroke="#bfbfbf" points="169,-.5 169,-19.5 225,-19.5 225,-.5 169,-.5"/>
<text text-anchor="middle" x="197" y="-7.5" font-family="Helvetica,sans-Serif" font-size="10.00" fill="#000000">stdbool.h</text>
</g>
<!-- Node6&#45;&gt;Node8 -->
<g id="edge9" class="edge">
<title>Node6&#45;&gt;Node8</title>
<path fill="none" stroke="#191970" d="M210.5,-61.8906C208.2588,-53.276 204.9014,-40.3708 202.0955,-29.5858"/>
<polygon fill="#191970" stroke="#191970" points="205.4404,-28.5414 199.5352,-19.7449 198.6659,-30.304 205.4404,-28.5414"/>
</g>
<!-- Node9&#45;&gt;Node3 -->
<g id="edge14" class="edge">
<title>Node9&#45;&gt;Node3</title>
<path fill="none" stroke="#191970" d="M364.3074,-123.4046C375.7037,-115.2816 390.3859,-102.4994 397,-87 402.4076,-74.3278 402.8328,-68.4822 397,-56 391.0537,-43.2749 379.6642,-32.8307 368.785,-25.129"/>
<polygon fill="#191970" stroke="#191970" points="370.564,-22.1101 360.2833,-19.5491 366.723,-27.9622 370.564,-22.1101"/>
</g>
<!-- Node9&#45;&gt;Node4 -->
<g id="edge13" class="edge">
<title>Node9&#45;&gt;Node4</title>
<path fill="none" stroke="#191970" d="M368.6875,-123.3906C389.4922,-113.2359 422.511,-97.1196 446.2319,-85.5416"/>
<polygon fill="#191970" stroke="#191970" points="447.9993,-88.5736 455.4507,-81.0419 444.9288,-82.283 447.9993,-88.5736"/>
</g>
<!-- Node9&#45;&gt;Node7 -->
<g id="edge12" class="edge">
<title>Node9&#45;&gt;Node7</title>
<path fill="none" stroke="#191970" d="M309.7487,-124.5966C306.7926,-124.033 303.8517,-123.4939 301,-123 243.5266,-113.0461 79.3121,-130.9824 41,-87 31.9504,-76.611 34.8545,-68.3313 41,-56 47.6003,-42.756 60.0327,-32.3192 71.9605,-24.7581"/>
<polygon fill="#191970" stroke="#191970" points="74.0165,-27.6102 80.8784,-19.5378 70.4801,-21.5691 74.0165,-27.6102"/>
</g>
<!-- Node10 -->
<g id="node11" class="node">
<title>Node10</title>
<polygon fill="#ffffff" stroke="#bfbfbf" points="272,-56.5 272,-86.5 388,-86.5 388,-56.5 272,-56.5"/>
<text text-anchor="start" x="280" y="-74.5" font-family="Helvetica,sans-Serif" font-size="10.00" fill="#000000">px4_platform_common</text>
<text text-anchor="middle" x="330" y="-63.5" font-family="Helvetica,sans-Serif" font-size="10.00" fill="#000000">/defines.h</text>
</g>
<!-- Node9&#45;&gt;Node10 -->
<g id="edge11" class="edge">
<title>Node9&#45;&gt;Node10</title>
<path fill="none" stroke="#191970" d="M346.0313,-123.3906C343.7932,-116.1463 340.6177,-105.8679 337.6827,-96.3676"/>
<polygon fill="#191970" stroke="#191970" points="340.9438,-95.0659 334.6479,-86.5446 334.2557,-97.1322 340.9438,-95.0659"/>
</g>
<!-- Node11&#45;&gt;Node3 -->
<g id="edge16" class="edge">
<title>Node11&#45;&gt;Node3</title>
<path fill="none" stroke="#191970" d="M139.2367,-61.9581C185.2866,-50.1578 263.0408,-30.2333 307.6947,-18.7907"/>
<polygon fill="#191970" stroke="#191970" points="308.6783,-22.1519 317.4965,-16.279 306.9406,-15.3709 308.6783,-22.1519"/>
</g>
<!-- Node11&#45;&gt;Node7 -->
<g id="edge18" class="edge">
<title>Node11&#45;&gt;Node7</title>
<path fill="none" stroke="#191970" d="M102,-61.8906C102,-53.3657 102,-40.6392 102,-29.9235"/>
<polygon fill="#191970" stroke="#191970" points="105.5001,-29.7448 102,-19.7449 98.5001,-29.7449 105.5001,-29.7448"/>
</g>
<!-- Node11&#45;&gt;Node8 -->
<g id="edge17" class="edge">
<title>Node11&#45;&gt;Node8</title>
<path fill="none" stroke="#191970" d="M116.8438,-61.8906C132.0418,-52.0519 155.8848,-36.6167 173.6206,-25.1351"/>
<polygon fill="#191970" stroke="#191970" points="175.768,-27.9144 182.2605,-19.5419 171.9639,-22.0382 175.768,-27.9144"/>
</g>
</g>
</svg>
        <g id="navigator" transform="translate(0 0)" fill="#404254">
                <rect fill="#f2f5e9" fill-opacity="0.5" stroke="#606060" stroke-width=".5" x="0" y="0" width="60" height="60"/>
                <use id="zoomplus" xlink:href="#zoomPlus" x="17" y="9" onmousedown="handleZoom(evt,'in')"/>
                <use id="zoomminus" xlink:href="#zoomMin" x="42" y="9" onmousedown="handleZoom(evt,'out')"/>
                <use id="reset" xlink:href="#resetDef" x="30" y="36" onmousedown="handleReset()"/>
                <g id="arrowUp" xlink:href="#dirArrow" transform="translate(30 24)" onmousedown="handlePan(0,-1)">
                  <use xlink:href="#rim" fill="#404040">
                        <set attributeName="fill" to="#808080" begin="arrowUp.mouseover" end="arrowUp.mouseout"/>
                  </use>
                  <path fill="none" stroke="white" stroke-width="1.5" d="M0,-3.0v7 M-2.5,-0.5L0,-3.0L2.5,-0.5"/>
                </g>
                <g id="arrowRight" xlink:href="#dirArrow" transform="rotate(90) translate(36 -43)" onmousedown="handlePan(1,0)">
                  <use xlink:href="#rim" fill="#404040">
                        <set attributeName="fill" to="#808080" begin="arrowRight.mouseover" end="arrowRight.mouseout"/>
                  </use>
                  <path fill="none" stroke="white" stroke-width="1.5" d="M0,-3.0v7 M-2.5,-0.5L0,-3.0L2.5,-0.5"/>
                </g>
                <g id="arrowDown" xlink:href="#dirArrow" transform="rotate(180) translate(-30 -48)" onmousedown="handlePan(0,1)">
                  <use xlink:href="#rim" fill="#404040">
                        <set attributeName="fill" to="#808080" begin="arrowDown.mouseover" end="arrowDown.mouseout"/>
                  </use>
                  <path fill="none" stroke="white" stroke-width="1.5" d="M0,-3.0v7 M-2.5,-0.5L0,-3.0L2.5,-0.5"/>
                </g>
                <g id="arrowLeft" xlink:href="#dirArrow" transform="rotate(270) translate(-36 17)" onmousedown="handlePan(-1,0)">
                  <use xlink:href="#rim" fill="#404040">
                        <set attributeName="fill" to="#808080" begin="arrowLeft.mouseover" end="arrowLeft.mouseout"/>
                  </use>
                  <path fill="none" stroke="white" stroke-width="1.5" d="M0,-3.0v7 M-2.5,-0.5L0,-3.0L2.5,-0.5"/>
                </g>
        </g>
        <svg viewBox="0 0 15 15" width="100%" height="30px" preserveAspectRatio="xMaxYMin meet">
         <g id="arrow_out" transform="scale(0.3 0.3)">
          <a xlink:href="battery__status_2parameters_8h__incl_org.svg" target="_base">
           <rect id="button" ry="5" rx="5" y="6" x="6" height="38" width="38"
                fill="#f2f5e9" fill-opacity="0.5" stroke="#606060" stroke-width="1.0"/>
           <path id="arrow"
             d="M 11.500037,31.436501 C 11.940474,20.09759 22.043105,11.32322 32.158766,21.979434 L 37.068811,17.246167 C 37.068811,17.246167 37.088388,32 37.088388,32 L 22.160133,31.978069 C 22.160133,31.978069 26.997745,27.140456 26.997745,27.140456 C 18.528582,18.264221 13.291696,25.230495 11.500037,31.436501 z"
             style="fill:#404040;"/>
          </a>
         </g>
        </svg>
</svg>
