<?xml version="1.0" encoding="UTF-8" standalone="no"?>
<!DOCTYPE svg PUBLIC "-//W3C//DTD SVG 1.1//EN"
 "http://www.w3.org/Graphics/SVG/1.1/DTD/svg11.dtd">
<!-- Generated by graphviz version 2.38.0 (20140413.2041)
 -->
<!-- Title: LSM303D_mag::measure Pages: 1 -->
<svg width="654pt" height="28pt"
 viewBox="0.00 0.00 654.00 28.00" xmlns="http://www.w3.org/2000/svg" xmlns:xlink="http://www.w3.org/1999/xlink">
<g id="graph0" class="graph" transform="scale(1 1) rotate(0) translate(4 24)">
<title>LSM303D_mag::measure</title>
<polygon fill="white" stroke="none" points="-4,4 -4,-24 650,-24 650,4 -4,4"/>
<!-- Node1 -->
<g id="node1" class="node"><title>Node1</title>
<polygon fill="#bfbfbf" stroke="black" points="0,-0.5 0,-19.5 128,-19.5 128,-0.5 0,-0.5"/>
<text text-anchor="middle" x="64" y="-7.5" font-family="Helvetica,sans-Serif" font-size="10.00">LSM303D_mag::measure</text>
</g>
<!-- Node2 -->
<g id="node2" class="node"><title>Node2</title>
<g id="a_node2"><a xlink:href="../../d6/dd5/class_l_s_m303_d.html#a83ed1f7ecfe8a2836087557b16f05fcc" target="_top" xlink:title="LSM303D::mag_read">
<polygon fill="white" stroke="black" points="164,-0.5 164,-19.5 273,-19.5 273,-0.5 164,-0.5"/>
<text text-anchor="middle" x="218.5" y="-7.5" font-family="Helvetica,sans-Serif" font-size="10.00">LSM303D::mag_read</text>
</a>
</g>
</g>
<!-- Node1&#45;&gt;Node2 -->
<g id="edge1" class="edge"><title>Node1&#45;&gt;Node2</title>
<path fill="none" stroke="midnightblue" d="M138.366,-10C146.941,-10 155.564,-10 163.801,-10"/>
<polygon fill="midnightblue" stroke="midnightblue" points="138.349,-6.5001 128.349,-10 138.349,-13.5001 138.349,-6.5001"/>
</g>
<!-- Node3 -->
<g id="node3" class="node"><title>Node3</title>
<g id="a_node3"><a xlink:href="../../d9/dfa/class_l_s_m303_d__mag.html#ac520e30f2a6993c905b61dbcb2093bc2" target="_top" xlink:title="LSM303D_mag::read">
<polygon fill="white" stroke="black" points="309,-0.5 309,-19.5 418,-19.5 418,-0.5 309,-0.5"/>
<text text-anchor="middle" x="363.5" y="-7.5" font-family="Helvetica,sans-Serif" font-size="10.00">LSM303D_mag::read</text>
</a>
</g>
</g>
<!-- Node2&#45;&gt;Node3 -->
<g id="edge2" class="edge"><title>Node2&#45;&gt;Node3</title>
<path fill="none" stroke="midnightblue" d="M283.324,-10C291.745,-10 300.31,-10 308.545,-10"/>
<polygon fill="midnightblue" stroke="midnightblue" points="283.155,-6.5001 273.155,-10 283.155,-13.5001 283.155,-6.5001"/>
</g>
<!-- Node4 -->
<g id="node4" class="node"><title>Node4</title>
<g id="a_node4"><a xlink:href="../../de/d88/namespacelsm303d.html#a94efb9af634fbe220e72324d115eef74" target="_top" xlink:title="Perform some basic functional tests on the driver; make sure we can collect data from the sensor in p...">
<polygon fill="white" stroke="black" points="454,-0.5 454,-19.5 530,-19.5 530,-0.5 454,-0.5"/>
<text text-anchor="middle" x="492" y="-7.5" font-family="Helvetica,sans-Serif" font-size="10.00">lsm303d::test</text>
</a>
</g>
</g>
<!-- Node3&#45;&gt;Node4 -->
<g id="edge3" class="edge"><title>Node3&#45;&gt;Node4</title>
<path fill="none" stroke="midnightblue" d="M428.333,-10C437.038,-10 445.728,-10 453.743,-10"/>
<polygon fill="midnightblue" stroke="midnightblue" points="428.147,-6.5001 418.147,-10 428.147,-13.5001 428.147,-6.5001"/>
</g>
<!-- Node5 -->
<g id="node5" class="node"><title>Node5</title>
<g id="a_node5"><a xlink:href="../../d7/daa/lsm303d_8cpp.html#a58648fe66ec5f4a40bea62b2c0c466b3" target="_top" xlink:title="lsm303d_main">
<polygon fill="white" stroke="black" points="566,-0.5 566,-19.5 646,-19.5 646,-0.5 566,-0.5"/>
<text text-anchor="middle" x="606" y="-7.5" font-family="Helvetica,sans-Serif" font-size="10.00">lsm303d_main</text>
</a>
</g>
</g>
<!-- Node4&#45;&gt;Node5 -->
<g id="edge4" class="edge"><title>Node4&#45;&gt;Node5</title>
<path fill="none" stroke="midnightblue" d="M540.469,-10C548.963,-10 557.726,-10 565.951,-10"/>
<polygon fill="midnightblue" stroke="midnightblue" points="540.294,-6.5001 530.294,-10 540.294,-13.5001 540.294,-6.5001"/>
</g>
</g>
</svg>
