<?xml version="1.0" encoding="UTF-8" standalone="no"?>
<!DOCTYPE svg PUBLIC "-//W3C//DTD SVG 1.1//EN"
 "http://www.w3.org/Graphics/SVG/1.1/DTD/svg11.dtd">
<!-- Generated by graphviz version 2.40.1 (20161225.0304)
 -->
<!-- Title: BMI088_gyro::modify_reg Pages: 1 -->
<!--zoomable 88 -->
<svg id="main" version="1.1" xmlns="http://www.w3.org/2000/svg" xmlns:xlink="http://www.w3.org/1999/xlink" xml:space="preserve" onload="init(evt)">
<style type="text/css"><![CDATA[
.edge:hover path { stroke: red; }
.edge:hover polygon { stroke: red; fill: red; }
]]></style>
<script type="text/javascript"><![CDATA[
var edges = document.getElementsByTagName('g');
if (edges && edges.length) {
  for (var i=0;i<edges.length;i++) {
    if (edges[i].id.substr(0,4)=='edge') {
      edges[i].setAttribute('class','edge');
    }
  }
}
]]></script>
        <defs>
                <circle id="rim" cx="0" cy="0" r="7"/>
                <circle id="rim2" cx="0" cy="0" r="3.5"/>
                <g id="zoomPlus">
                        <use xlink:href="#rim" fill="#404040">
                                <set attributeName="fill" to="#808080" begin="zoomplus.mouseover" end="zoomplus.mouseout"/>
                        </use>
                        <path d="M-4,0h8M0,-4v8" fill="none" stroke="white" stroke-width="1.5" pointer-events="none"/>
                </g>
                <g id="zoomMin">
                        <use xlink:href="#rim" fill="#404040">
                                <set attributeName="fill" to="#808080" begin="zoomminus.mouseover" end="zoomminus.mouseout"/>
                        </use>
                        <path d="M-4,0h8" fill="none" stroke="white" stroke-width="1.5" pointer-events="none"/>
                </g>
                <g id="dirArrow">
                        <path fill="none" stroke="white" stroke-width="1.5" d="M0,-3.0v7 M-2.5,-0.5L0,-3.0L2.5,-0.5"/>
                </g>
               <g id="resetDef">
                       <use xlink:href="#rim2" fill="#404040">
                               <set attributeName="fill" to="#808080" begin="reset.mouseover" end="reset.mouseout"/>
                       </use>
               </g>
        </defs>

<script type="text/javascript">
var viewWidth = 557;
var viewHeight = 88;
var sectionId = 'dynsection-13';
</script>
<script xlink:href="../../svgpan.js"/>
<svg id="graph" class="graph">
<g id="viewport">
<title>BMI088_gyro::modify_reg</title>
<polygon fill="#ffffff" stroke="transparent" points="-4,4 -4,-84 553,-84 553,4 -4,4"/>
<!-- Node131 -->
<g id="node1" class="node">
<title>Node131</title>
<polygon fill="#bfbfbf" stroke="#000000" points="0,-30 0,-49 128,-49 128,-30 0,-30"/>
<text text-anchor="middle" x="64" y="-37" font-family="Helvetica,sans-Serif" font-size="10.00" fill="#000000">BMI088_gyro::modify_reg</text>
</g>
<!-- Node132 -->
<g id="node2" class="node">
<title>Node132</title>
<g id="a_node2"><a xlink:href="../../d9/dfa/class_b_m_i088__gyro.html#a85d32ebd9b1f8fba6ef5b72b6b8f16ab" target="_top" xlink:title="BMI088_gyro::gyro_set\l_sample_rate">
<polygon fill="#ffffff" stroke="#000000" points="164,-49.5 164,-79.5 282,-79.5 282,-49.5 164,-49.5"/>
<text text-anchor="start" x="172" y="-67.5" font-family="Helvetica,sans-Serif" font-size="10.00" fill="#000000">BMI088_gyro::gyro_set</text>
<text text-anchor="middle" x="223" y="-56.5" font-family="Helvetica,sans-Serif" font-size="10.00" fill="#000000">_sample_rate</text>
</a>
</g>
</g>
<!-- Node131&#45;&gt;Node132 -->
<g id="edge1" class="edge">
<title>Node131&#45;&gt;Node132</title>
<path fill="none" stroke="#191970" d="M134.6583,-50.6098C144.4309,-52.1464 154.384,-53.7113 163.917,-55.2102"/>
<polygon fill="#191970" stroke="#191970" points="134.987,-47.1185 124.5647,-49.0227 133.8996,-54.0336 134.987,-47.1185"/>
</g>
<!-- Node135 -->
<g id="node5" class="node">
<title>Node135</title>
<g id="a_node5"><a xlink:href="../../d9/dfa/class_b_m_i088__gyro.html#a5f5c8e0f56463da445a98968b56f56eb" target="_top" xlink:title="Set the BMI088_gyro measurement range. ">
<polygon fill="#ffffff" stroke="#000000" points="164,-.5 164,-30.5 282,-30.5 282,-.5 164,-.5"/>
<text text-anchor="start" x="172" y="-18.5" font-family="Helvetica,sans-Serif" font-size="10.00" fill="#000000">BMI088_gyro::set_gyro</text>
<text text-anchor="middle" x="223" y="-7.5" font-family="Helvetica,sans-Serif" font-size="10.00" fill="#000000">_range</text>
</a>
</g>
</g>
<!-- Node131&#45;&gt;Node135 -->
<g id="edge4" class="edge">
<title>Node131&#45;&gt;Node135</title>
<path fill="none" stroke="#191970" d="M137.2647,-28.4412C146.1529,-27.0996 155.1458,-25.7421 163.7952,-24.4366"/>
<polygon fill="#191970" stroke="#191970" points="136.6635,-24.9922 127.2979,-29.9456 137.7083,-31.9138 136.6635,-24.9922"/>
</g>
<!-- Node133 -->
<g id="node3" class="node">
<title>Node133</title>
<g id="a_node3"><a xlink:href="../../d9/dfa/class_b_m_i088__gyro.html#a8084cd2dca8a67e424dc8de44015c168" target="_top" xlink:title="Reset chip. ">
<polygon fill="#ffffff" stroke="#000000" points="318,-30 318,-49 420,-49 420,-30 318,-30"/>
<text text-anchor="middle" x="369" y="-37" font-family="Helvetica,sans-Serif" font-size="10.00" fill="#000000">BMI088_gyro::reset</text>
</a>
</g>
</g>
<!-- Node132&#45;&gt;Node133 -->
<g id="edge2" class="edge">
<title>Node132&#45;&gt;Node133</title>
<path fill="none" stroke="#191970" d="M292.3289,-52.6286C300.8506,-51.1694 309.4392,-49.6988 317.6285,-48.2965"/>
<polygon fill="#191970" stroke="#191970" points="291.6496,-49.1939 282.3838,-54.3315 292.8311,-56.0935 291.6496,-49.1939"/>
</g>
<!-- Node134 -->
<g id="node4" class="node">
<title>Node134</title>
<g id="a_node4"><a xlink:href="../../d9/dfa/class_b_m_i088__gyro.html#a02a49f1e0a2790f17d6bc83153a12c31" target="_top" xlink:title="BMI088_gyro::init">
<polygon fill="#ffffff" stroke="#000000" points="456,-30 456,-49 549,-49 549,-30 456,-30"/>
<text text-anchor="middle" x="502.5" y="-37" font-family="Helvetica,sans-Serif" font-size="10.00" fill="#000000">BMI088_gyro::init</text>
</a>
</g>
</g>
<!-- Node133&#45;&gt;Node134 -->
<g id="edge3" class="edge">
<title>Node133&#45;&gt;Node134</title>
<path fill="none" stroke="#191970" d="M430.286,-39.5C438.9277,-39.5 447.6925,-39.5 455.9956,-39.5"/>
<polygon fill="#191970" stroke="#191970" points="430.2328,-36.0001 420.2328,-39.5 430.2327,-43.0001 430.2328,-36.0001"/>
</g>
<!-- Node135&#45;&gt;Node133 -->
<g id="edge5" class="edge">
<title>Node135&#45;&gt;Node133</title>
<path fill="none" stroke="#191970" d="M292.3289,-26.8965C300.8506,-28.2974 309.4392,-29.7092 317.6285,-31.0554"/>
<polygon fill="#191970" stroke="#191970" points="292.8191,-23.4302 282.3838,-25.2617 291.6836,-30.3375 292.8191,-23.4302"/>
</g>
</g>
</svg>
        <g id="navigator" transform="translate(0 0)" fill="#404254">
                <rect fill="#f2f5e9" fill-opacity="0.5" stroke="#606060" stroke-width=".5" x="0" y="0" width="60" height="60"/>
                <use id="zoomplus" xlink:href="#zoomPlus" x="17" y="9" onmousedown="handleZoom(evt,'in')"/>
                <use id="zoomminus" xlink:href="#zoomMin" x="42" y="9" onmousedown="handleZoom(evt,'out')"/>
                <use id="reset" xlink:href="#resetDef" x="30" y="36" onmousedown="handleReset()"/>
                <g id="arrowUp" xlink:href="#dirArrow" transform="translate(30 24)" onmousedown="handlePan(0,-1)">
                  <use xlink:href="#rim" fill="#404040">
                        <set attributeName="fill" to="#808080" begin="arrowUp.mouseover" end="arrowUp.mouseout"/>
                  </use>
                  <path fill="none" stroke="white" stroke-width="1.5" d="M0,-3.0v7 M-2.5,-0.5L0,-3.0L2.5,-0.5"/>
                </g>
                <g id="arrowRight" xlink:href="#dirArrow" transform="rotate(90) translate(36 -43)" onmousedown="handlePan(1,0)">
                  <use xlink:href="#rim" fill="#404040">
                        <set attributeName="fill" to="#808080" begin="arrowRight.mouseover" end="arrowRight.mouseout"/>
                  </use>
                  <path fill="none" stroke="white" stroke-width="1.5" d="M0,-3.0v7 M-2.5,-0.5L0,-3.0L2.5,-0.5"/>
                </g>
                <g id="arrowDown" xlink:href="#dirArrow" transform="rotate(180) translate(-30 -48)" onmousedown="handlePan(0,1)">
                  <use xlink:href="#rim" fill="#404040">
                        <set attributeName="fill" to="#808080" begin="arrowDown.mouseover" end="arrowDown.mouseout"/>
                  </use>
                  <path fill="none" stroke="white" stroke-width="1.5" d="M0,-3.0v7 M-2.5,-0.5L0,-3.0L2.5,-0.5"/>
                </g>
                <g id="arrowLeft" xlink:href="#dirArrow" transform="rotate(270) translate(-36 17)" onmousedown="handlePan(-1,0)">
                  <use xlink:href="#rim" fill="#404040">
                        <set attributeName="fill" to="#808080" begin="arrowLeft.mouseover" end="arrowLeft.mouseout"/>
                  </use>
                  <path fill="none" stroke="white" stroke-width="1.5" d="M0,-3.0v7 M-2.5,-0.5L0,-3.0L2.5,-0.5"/>
                </g>
        </g>
        <svg viewBox="0 0 15 15" width="100%" height="30px" preserveAspectRatio="xMaxYMin meet">
         <g id="arrow_out" transform="scale(0.3 0.3)">
          <a xlink:href="class_b_m_i088__gyro_a44966f3cee5f996939d543605d572651_icgraph_org.svg" target="_base">
           <rect id="button" ry="5" rx="5" y="6" x="6" height="38" width="38"
                fill="#f2f5e9" fill-opacity="0.5" stroke="#606060" stroke-width="1.0"/>
           <path id="arrow"
             d="M 11.500037,31.436501 C 11.940474,20.09759 22.043105,11.32322 32.158766,21.979434 L 37.068811,17.246167 C 37.068811,17.246167 37.088388,32 37.088388,32 L 22.160133,31.978069 C 22.160133,31.978069 26.997745,27.140456 26.997745,27.140456 C 18.528582,18.264221 13.291696,25.230495 11.500037,31.436501 z"
             style="fill:#404040;"/>
          </a>
         </g>
        </svg>
</svg>
