<?xml version="1.0" encoding="UTF-8" standalone="no"?>
<!DOCTYPE svg PUBLIC "-//W3C//DTD SVG 1.1//EN"
 "http://www.w3.org/Graphics/SVG/1.1/DTD/svg11.dtd">
<!-- Generated by graphviz version 2.40.1 (20161225.0304)
 -->
<!-- Title: src/modules/logger/log_writer_file.h Pages: 1 -->
<svg width="714pt" height="162pt"
 viewBox="0.00 0.00 714.00 162.00" xmlns="http://www.w3.org/2000/svg" xmlns:xlink="http://www.w3.org/1999/xlink">
<g id="graph0" class="graph" transform="scale(1 1) rotate(0) translate(4 158)">
<title>src/modules/logger/log_writer_file.h</title>
<polygon fill="#ffffff" stroke="transparent" points="-4,4 -4,-158 710,-158 710,4 -4,4"/>
<!-- Node0 -->
<g id="node1" class="node">
<title>Node0</title>
<polygon fill="#bfbfbf" stroke="#000000" points="181.5,-123.5 181.5,-153.5 280.5,-153.5 280.5,-123.5 181.5,-123.5"/>
<text text-anchor="start" x="189.5" y="-141.5" font-family="Helvetica,sans-Serif" font-size="10.00" fill="#000000">src/modules/logger</text>
<text text-anchor="middle" x="231" y="-130.5" font-family="Helvetica,sans-Serif" font-size="10.00" fill="#000000">/log_writer_file.h</text>
</g>
<!-- Node1 -->
<g id="node2" class="node">
<title>Node1</title>
<polygon fill="#ffffff" stroke="#bfbfbf" points="0,-.5 0,-30.5 116,-30.5 116,-.5 0,-.5"/>
<text text-anchor="start" x="8" y="-18.5" font-family="Helvetica,sans-Serif" font-size="10.00" fill="#000000">px4_platform_common</text>
<text text-anchor="middle" x="58" y="-7.5" font-family="Helvetica,sans-Serif" font-size="10.00" fill="#000000">/defines.h</text>
</g>
<!-- Node0&#45;&gt;Node1 -->
<g id="edge1" class="edge">
<title>Node0&#45;&gt;Node1</title>
<path fill="none" stroke="#191970" d="M181.492,-127.3494C142.1931,-117.5462 91.5208,-102.4656 77,-87 65.3979,-74.643 60.7085,-56.0255 58.888,-40.8859"/>
<polygon fill="#191970" stroke="#191970" points="62.3492,-40.282 58.0115,-30.6158 55.3746,-40.8773 62.3492,-40.282"/>
</g>
<!-- Node2 -->
<g id="node3" class="node">
<title>Node2</title>
<polygon fill="#ffffff" stroke="#bfbfbf" points="134.5,-6 134.5,-25 183.5,-25 183.5,-6 134.5,-6"/>
<text text-anchor="middle" x="159" y="-13" font-family="Helvetica,sans-Serif" font-size="10.00" fill="#000000">stdint.h</text>
</g>
<!-- Node0&#45;&gt;Node2 -->
<g id="edge2" class="edge">
<title>Node0&#45;&gt;Node2</title>
<path fill="none" stroke="#191970" d="M248.3109,-123.2896C262.9543,-108.5184 279.8182,-85.6548 268,-67 266.8358,-65.1624 221.1887,-43.9804 189.3419,-29.3616"/>
<polygon fill="#191970" stroke="#191970" points="190.5149,-26.0491 179.966,-25.0641 187.5982,-32.4126 190.5149,-26.0491"/>
</g>
<!-- Node3 -->
<g id="node4" class="node">
<title>Node3</title>
<polygon fill="#ffffff" stroke="#bfbfbf" points="202.5,-67.5 202.5,-86.5 259.5,-86.5 259.5,-67.5 202.5,-67.5"/>
<text text-anchor="middle" x="231" y="-74.5" font-family="Helvetica,sans-Serif" font-size="10.00" fill="#000000">pthread.h</text>
</g>
<!-- Node0&#45;&gt;Node3 -->
<g id="edge3" class="edge">
<title>Node0&#45;&gt;Node3</title>
<path fill="none" stroke="#191970" d="M231,-123.2977C231,-115.3834 231,-105.6043 231,-97.0759"/>
<polygon fill="#191970" stroke="#191970" points="234.5001,-96.8469 231,-86.8469 227.5001,-96.847 234.5001,-96.8469"/>
</g>
<!-- Node4 -->
<g id="node5" class="node">
<title>Node4</title>
<g id="a_node5"><a xlink:href="../../d6/d10/drv__hrt_8h.html" target="_top" xlink:title="High&#45;resolution timer with callouts and timekeeping. ">
<polygon fill="#ffffff" stroke="#000000" points="368.5,-67.5 368.5,-86.5 455.5,-86.5 455.5,-67.5 368.5,-67.5"/>
<text text-anchor="middle" x="412" y="-74.5" font-family="Helvetica,sans-Serif" font-size="10.00" fill="#000000">drivers/drv_hrt.h</text>
</a>
</g>
</g>
<!-- Node0&#45;&gt;Node4 -->
<g id="edge4" class="edge">
<title>Node0&#45;&gt;Node4</title>
<path fill="none" stroke="#191970" d="M275.2776,-123.4554C305.6104,-113.149 345.4129,-99.6249 374.2444,-89.8286"/>
<polygon fill="#191970" stroke="#191970" points="375.6091,-93.0615 383.9514,-86.5303 373.357,-86.4336 375.6091,-93.0615"/>
</g>
<!-- Node11 -->
<g id="node12" class="node">
<title>Node11</title>
<g id="a_node12"><a xlink:href="../../db/d79/perf__counter_8h.html" target="_top" xlink:title="Performance measuring tools. ">
<polygon fill="#ffffff" stroke="#000000" points="86,-67.5 86,-86.5 184,-86.5 184,-67.5 86,-67.5"/>
<text text-anchor="middle" x="135" y="-74.5" font-family="Helvetica,sans-Serif" font-size="10.00" fill="#000000">perf/perf_counter.h</text>
</a>
</g>
</g>
<!-- Node0&#45;&gt;Node11 -->
<g id="edge11" class="edge">
<title>Node0&#45;&gt;Node11</title>
<path fill="none" stroke="#191970" d="M207.2697,-123.2977C192.4638,-113.8127 173.4772,-101.6495 158.6807,-92.1705"/>
<polygon fill="#191970" stroke="#191970" points="160.3925,-89.1105 150.0841,-86.6633 156.6165,-95.0047 160.3925,-89.1105"/>
</g>
<!-- Node5 -->
<g id="node6" class="node">
<title>Node5</title>
<polygon fill="#ffffff" stroke="#bfbfbf" points="558,-6 558,-25 620,-25 620,-6 558,-6"/>
<text text-anchor="middle" x="589" y="-13" font-family="Helvetica,sans-Serif" font-size="10.00" fill="#000000">sys/ioctl.h</text>
</g>
<!-- Node4&#45;&gt;Node5 -->
<g id="edge5" class="edge">
<title>Node4&#45;&gt;Node5</title>
<path fill="none" stroke="#191970" d="M441.8,-67.4293C469.6437,-58.3842 512.3084,-44.261 549,-31 551.1056,-30.239 553.2683,-29.443 555.4457,-28.6306"/>
<polygon fill="#191970" stroke="#191970" points="556.8458,-31.8429 564.9537,-25.0229 554.3624,-25.2982 556.8458,-31.8429"/>
</g>
<!-- Node6 -->
<g id="node7" class="node">
<title>Node6</title>
<polygon fill="#ffffff" stroke="#bfbfbf" points="638,-6 638,-25 706,-25 706,-6 638,-6"/>
<text text-anchor="middle" x="672" y="-13" font-family="Helvetica,sans-Serif" font-size="10.00" fill="#000000">sys/types.h</text>
</g>
<!-- Node4&#45;&gt;Node6 -->
<g id="edge6" class="edge">
<title>Node4&#45;&gt;Node6</title>
<path fill="none" stroke="#191970" d="M455.6594,-69.5648C499.7885,-61.6257 569.7388,-47.8759 629,-31 631.7905,-30.2054 634.661,-29.3215 637.5317,-28.3902"/>
<polygon fill="#191970" stroke="#191970" points="638.8419,-31.6414 647.1772,-25.1013 636.5827,-25.016 638.8419,-31.6414"/>
</g>
<!-- Node7 -->
<g id="node8" class="node">
<title>Node7</title>
<polygon fill="#ffffff" stroke="#bfbfbf" points="202,-6 202,-25 258,-25 258,-6 202,-6"/>
<text text-anchor="middle" x="230" y="-13" font-family="Helvetica,sans-Serif" font-size="10.00" fill="#000000">stdbool.h</text>
</g>
<!-- Node4&#45;&gt;Node7 -->
<g id="edge7" class="edge">
<title>Node4&#45;&gt;Node7</title>
<path fill="none" stroke="#191970" d="M378.8907,-67.4174C349.3151,-58.6399 304.9304,-44.9297 267,-31 265.1368,-30.3157 263.2299,-29.5917 261.312,-28.8453"/>
<polygon fill="#191970" stroke="#191970" points="262.3676,-25.4972 251.7841,-25.0066 259.7516,-31.9901 262.3676,-25.4972"/>
</g>
<!-- Node8 -->
<g id="node9" class="node">
<title>Node8</title>
<polygon fill="#ffffff" stroke="#bfbfbf" points="276.5,-6 276.5,-25 335.5,-25 335.5,-6 276.5,-6"/>
<text text-anchor="middle" x="306" y="-13" font-family="Helvetica,sans-Serif" font-size="10.00" fill="#000000">inttypes.h</text>
</g>
<!-- Node4&#45;&gt;Node8 -->
<g id="edge8" class="edge">
<title>Node4&#45;&gt;Node8</title>
<path fill="none" stroke="#191970" d="M395.4375,-67.3906C378.2463,-57.4165 351.1418,-41.6908 331.2734,-30.1633"/>
<polygon fill="#191970" stroke="#191970" points="332.8523,-27.033 322.4462,-25.0419 329.3394,-33.0877 332.8523,-27.033"/>
</g>
<!-- Node9 -->
<g id="node10" class="node">
<title>Node9</title>
<polygon fill="#ffffff" stroke="#bfbfbf" points="354,-.5 354,-30.5 470,-30.5 470,-.5 354,-.5"/>
<text text-anchor="start" x="362" y="-18.5" font-family="Helvetica,sans-Serif" font-size="10.00" fill="#000000">px4_platform_common</text>
<text text-anchor="middle" x="412" y="-7.5" font-family="Helvetica,sans-Serif" font-size="10.00" fill="#000000">/time.h</text>
</g>
<!-- Node4&#45;&gt;Node9 -->
<g id="edge9" class="edge">
<title>Node4&#45;&gt;Node9</title>
<path fill="none" stroke="#191970" d="M412,-67.3906C412,-60.2234 412,-50.0862 412,-40.671"/>
<polygon fill="#191970" stroke="#191970" points="415.5001,-40.5446 412,-30.5446 408.5001,-40.5446 415.5001,-40.5446"/>
</g>
<!-- Node10 -->
<g id="node11" class="node">
<title>Node10</title>
<polygon fill="#ffffff" stroke="#bfbfbf" points="488.5,-6 488.5,-25 539.5,-25 539.5,-6 488.5,-6"/>
<text text-anchor="middle" x="514" y="-13" font-family="Helvetica,sans-Serif" font-size="10.00" fill="#000000">queue.h</text>
</g>
<!-- Node4&#45;&gt;Node10 -->
<g id="edge10" class="edge">
<title>Node4&#45;&gt;Node10</title>
<path fill="none" stroke="#191970" d="M427.9375,-67.3906C444.4051,-57.4616 470.3258,-41.833 489.4204,-30.3201"/>
<polygon fill="#191970" stroke="#191970" points="491.4178,-33.2027 498.1744,-25.0419 487.8034,-27.2081 491.4178,-33.2027"/>
</g>
<!-- Node11&#45;&gt;Node1 -->
<g id="edge13" class="edge">
<title>Node11&#45;&gt;Node1</title>
<path fill="none" stroke="#191970" d="M122.9688,-67.3906C112.8372,-59.2986 97.9658,-47.4207 85.0069,-37.0705"/>
<polygon fill="#191970" stroke="#191970" points="86.8343,-34.0506 76.8363,-30.5446 82.4657,-39.5202 86.8343,-34.0506"/>
</g>
<!-- Node11&#45;&gt;Node2 -->
<g id="edge12" class="edge">
<title>Node11&#45;&gt;Node2</title>
<path fill="none" stroke="#191970" d="M138.75,-67.3906C142.1468,-58.6862 147.2531,-45.6015 151.488,-34.7494"/>
<polygon fill="#191970" stroke="#191970" points="154.8222,-35.8331 155.1971,-25.2449 148.3011,-33.2882 154.8222,-35.8331"/>
</g>
</g>
</svg>
