<?xml version="1.0" encoding="UTF-8" standalone="no"?>
<!DOCTYPE svg PUBLIC "-//W3C//DTD SVG 1.1//EN"
 "http://www.w3.org/Graphics/SVG/1.1/DTD/svg11.dtd">
<!-- Generated by graphviz version 2.38.0 (20140413.2041)
 -->
<!-- Title: ManualInput::JoyCallback Pages: 1 -->
<svg width="302pt" height="104pt"
 viewBox="0.00 0.00 302.00 104.00" xmlns="http://www.w3.org/2000/svg" xmlns:xlink="http://www.w3.org/1999/xlink">
<g id="graph0" class="graph" transform="scale(1 1) rotate(0) translate(4 100)">
<title>ManualInput::JoyCallback</title>
<polygon fill="white" stroke="none" points="-4,4 -4,-100 298,-100 298,4 -4,4"/>
<!-- Node1 -->
<g id="node1" class="node"><title>Node1</title>
<polygon fill="#bfbfbf" stroke="black" points="0,-38.5 0,-57.5 130,-57.5 130,-38.5 0,-38.5"/>
<text text-anchor="middle" x="65" y="-45.5" font-family="Helvetica,sans-Serif" font-size="10.00">ManualInput::JoyCallback</text>
</g>
<!-- Node2 -->
<g id="node2" class="node"><title>Node2</title>
<g id="a_node2"><a xlink:href="../../d5/d47/namespacepx4.html#a127a784e3ef9c673ef83c6db0a918063" target="_top" xlink:title="px4::get_time_micros">
<polygon fill="white" stroke="black" points="175,-76.5 175,-95.5 285,-95.5 285,-76.5 175,-76.5"/>
<text text-anchor="middle" x="230" y="-83.5" font-family="Helvetica,sans-Serif" font-size="10.00">px4::get_time_micros</text>
</a>
</g>
</g>
<!-- Node1&#45;&gt;Node2 -->
<g id="edge1" class="edge"><title>Node1&#45;&gt;Node2</title>
<path fill="none" stroke="midnightblue" d="M107.132,-57.589C128.738,-62.6261 155.409,-68.8438 178.286,-74.1771"/>
<polygon fill="midnightblue" stroke="midnightblue" points="177.63,-77.6181 188.164,-76.4799 179.22,-70.8009 177.63,-77.6181"/>
</g>
<!-- Node3 -->
<g id="node3" class="node"><title>Node3</title>
<g id="a_node3"><a xlink:href="../../de/d5d/class_manual_input.html#a4811222ab30a83c6c2c0d3c6b4355d1a" target="_top" xlink:title="Helper function to map and scale joystick axis. ">
<polygon fill="white" stroke="black" points="173,-38.5 173,-57.5 287,-57.5 287,-38.5 173,-38.5"/>
<text text-anchor="middle" x="230" y="-45.5" font-family="Helvetica,sans-Serif" font-size="10.00">ManualInput::MapAxis</text>
</a>
</g>
</g>
<!-- Node1&#45;&gt;Node3 -->
<g id="edge2" class="edge"><title>Node1&#45;&gt;Node3</title>
<path fill="none" stroke="midnightblue" d="M130.422,-48C141.077,-48 152.139,-48 162.836,-48"/>
<polygon fill="midnightblue" stroke="midnightblue" points="162.955,-51.5001 172.955,-48 162.955,-44.5001 162.955,-51.5001"/>
</g>
<!-- Node4 -->
<g id="node4" class="node"><title>Node4</title>
<g id="a_node4"><a xlink:href="../../de/d5d/class_manual_input.html#a93178cfa874b2cd16838f6ba1bf2a88c" target="_top" xlink:title="Helper function to map joystick buttons. ">
<polygon fill="white" stroke="black" points="166,-0.5 166,-19.5 294,-19.5 294,-0.5 166,-0.5"/>
<text text-anchor="middle" x="230" y="-7.5" font-family="Helvetica,sans-Serif" font-size="10.00">ManualInput::MapButtons</text>
</a>
</g>
</g>
<!-- Node1&#45;&gt;Node4 -->
<g id="edge3" class="edge"><title>Node1&#45;&gt;Node4</title>
<path fill="none" stroke="midnightblue" d="M107.132,-38.411C128.738,-33.3739 155.409,-27.1562 178.286,-21.8229"/>
<polygon fill="midnightblue" stroke="midnightblue" points="179.22,-25.1991 188.164,-19.5201 177.63,-18.3819 179.22,-25.1991"/>
</g>
</g>
</svg>
