<?xml version="1.0" encoding="UTF-8" standalone="no"?>
<!DOCTYPE svg PUBLIC "-//W3C//DTD SVG 1.1//EN"
 "http://www.w3.org/Graphics/SVG/1.1/DTD/svg11.dtd">
<!-- Generated by graphviz version 2.40.1 (20161225.0304)
 -->
<!-- Title: uORB::DeviceNode::print_statistics Pages: 1 -->
<svg width="276pt" height="66pt"
 viewBox="0.00 0.00 276.00 66.00" xmlns="http://www.w3.org/2000/svg" xmlns:xlink="http://www.w3.org/1999/xlink">
<g id="graph0" class="graph" transform="scale(1 1) rotate(0) translate(4 62)">
<title>uORB::DeviceNode::print_statistics</title>
<polygon fill="#ffffff" stroke="transparent" points="-4,4 -4,-62 272,-62 272,4 -4,4"/>
<!-- Node5451 -->
<g id="node1" class="node">
<title>Node5451</title>
<polygon fill="#bfbfbf" stroke="#000000" points="0,-14 0,-44 128,-44 128,-14 0,-14"/>
<text text-anchor="start" x="8" y="-32" font-family="Helvetica,sans-Serif" font-size="10.00" fill="#000000">uORB::DeviceNode::print</text>
<text text-anchor="middle" x="64" y="-21" font-family="Helvetica,sans-Serif" font-size="10.00" fill="#000000">_statistics</text>
</g>
<!-- Node5452 -->
<g id="node2" class="node">
<title>Node5452</title>
<g id="a_node2"><a xlink:href="../../d8/d26/classcdev_1_1_c_dev.html#ae676cccee31dd393ab681414a146d868" target="_top" xlink:title="Take the driver lock. ">
<polygon fill="#ffffff" stroke="#000000" points="169.5,-38.5 169.5,-57.5 262.5,-57.5 262.5,-38.5 169.5,-38.5"/>
<text text-anchor="middle" x="216" y="-45.5" font-family="Helvetica,sans-Serif" font-size="10.00" fill="#000000">cdev::CDev::lock</text>
</a>
</g>
</g>
<!-- Node5451&#45;&gt;Node5452 -->
<g id="edge1" class="edge">
<title>Node5451&#45;&gt;Node5452</title>
<path fill="none" stroke="#191970" d="M128.0211,-37.0026C138.3657,-38.2957 149.014,-39.6268 159.1733,-40.8967"/>
<polygon fill="#191970" stroke="#191970" points="158.7832,-44.3751 169.1401,-42.1425 159.6515,-37.4291 158.7832,-44.3751"/>
</g>
<!-- Node5453 -->
<g id="node3" class="node">
<title>Node5453</title>
<g id="a_node3"><a xlink:href="../../d8/d26/classcdev_1_1_c_dev.html#af65273e0578b277deea057dc7d558e9d" target="_top" xlink:title="Release the driver lock. ">
<polygon fill="#ffffff" stroke="#000000" points="164,-.5 164,-19.5 268,-19.5 268,-.5 164,-.5"/>
<text text-anchor="middle" x="216" y="-7.5" font-family="Helvetica,sans-Serif" font-size="10.00" fill="#000000">cdev::CDev::unlock</text>
</a>
</g>
</g>
<!-- Node5451&#45;&gt;Node5453 -->
<g id="edge2" class="edge">
<title>Node5451&#45;&gt;Node5453</title>
<path fill="none" stroke="#191970" d="M128.0211,-20.9974C136.4426,-19.9447 145.0653,-18.8668 153.4616,-17.8173"/>
<polygon fill="#191970" stroke="#191970" points="154.0736,-21.2681 163.5622,-16.5547 153.2053,-14.3222 154.0736,-21.2681"/>
</g>
</g>
</svg>
