<?xml version="1.0" encoding="UTF-8" standalone="no"?>
<!DOCTYPE svg PUBLIC "-//W3C//DTD SVG 1.1//EN"
 "http://www.w3.org/Graphics/SVG/1.1/DTD/svg11.dtd">
<!-- Generated by graphviz version 2.38.0 (20140413.2041)
 -->
<!-- Title: uORB::DeviceNode::poll_notify_one Pages: 1 -->
<svg width="438pt" height="39pt"
 viewBox="0.00 0.00 438.00 39.00" xmlns="http://www.w3.org/2000/svg" xmlns:xlink="http://www.w3.org/1999/xlink">
<g id="graph0" class="graph" transform="scale(1 1) rotate(0) translate(4 35)">
<title>uORB::DeviceNode::poll_notify_one</title>
<polygon fill="white" stroke="none" points="-4,4 -4,-35 434,-35 434,4 -4,4"/>
<!-- Node1 -->
<g id="node1" class="node"><title>Node1</title>
<polygon fill="#bfbfbf" stroke="black" points="0,-0.5 0,-30.5 125,-30.5 125,-0.5 0,-0.5"/>
<text text-anchor="start" x="8" y="-18.5" font-family="Helvetica,sans-Serif" font-size="10.00">uORB::DeviceNode::poll</text>
<text text-anchor="middle" x="62.5" y="-7.5" font-family="Helvetica,sans-Serif" font-size="10.00">_notify_one</text>
</g>
<!-- Node2 -->
<g id="node2" class="node"><title>Node2</title>
<g id="a_node2"><a xlink:href="../../d0/d18/classu_o_r_b_1_1_device_node.html#a96ecaee3f71270f247ecf838af94128c" target="_top" xlink:title="uORB::DeviceNode::set\l_priority">
<polygon fill="white" stroke="black" points="161,-0.5 161,-30.5 284,-30.5 284,-0.5 161,-0.5"/>
<text text-anchor="start" x="169" y="-18.5" font-family="Helvetica,sans-Serif" font-size="10.00">uORB::DeviceNode::set</text>
<text text-anchor="middle" x="222.5" y="-7.5" font-family="Helvetica,sans-Serif" font-size="10.00">_priority</text>
</a>
</g>
</g>
<!-- Node1&#45;&gt;Node2 -->
<g id="edge1" class="edge"><title>Node1&#45;&gt;Node2</title>
<path fill="none" stroke="midnightblue" d="M135.087,-15.5C143.713,-15.5 152.459,-15.5 160.907,-15.5"/>
<polygon fill="midnightblue" stroke="midnightblue" points="135.039,-12.0001 125.039,-15.5 135.039,-19.0001 135.039,-12.0001"/>
</g>
<!-- Node3 -->
<g id="node3" class="node"><title>Node3</title>
<g id="a_node3"><a xlink:href="../../dd/d9d/classu_o_r_b_1_1_device_master.html#afce9e85ef809e3b06bb150223d5016bb" target="_top" xlink:title="Perform an ioctl operation on the device. ">
<polygon fill="white" stroke="black" points="320,-0.5 320,-30.5 430,-30.5 430,-0.5 320,-0.5"/>
<text text-anchor="start" x="328" y="-18.5" font-family="Helvetica,sans-Serif" font-size="10.00">uORB::DeviceMaster</text>
<text text-anchor="middle" x="375" y="-7.5" font-family="Helvetica,sans-Serif" font-size="10.00">::ioctl</text>
</a>
</g>
</g>
<!-- Node2&#45;&gt;Node3 -->
<g id="edge2" class="edge"><title>Node2&#45;&gt;Node3</title>
<path fill="none" stroke="midnightblue" d="M294.282,-15.5C302.854,-15.5 311.505,-15.5 319.786,-15.5"/>
<polygon fill="midnightblue" stroke="midnightblue" points="294.28,-12.0001 284.28,-15.5 294.28,-19.0001 294.28,-12.0001"/>
</g>
</g>
</svg>
