<?xml version="1.0" encoding="UTF-8" standalone="no"?>
<!DOCTYPE svg PUBLIC "-//W3C//DTD SVG 1.1//EN"
 "http://www.w3.org/Graphics/SVG/1.1/DTD/svg11.dtd">
<!-- Generated by graphviz version 2.40.1 (20161225.0304)
 -->
<!-- Title: uORB::DeviceNode::remove_internal_subscriber Pages: 1 -->
<svg width="459pt" height="78pt"
 viewBox="0.00 0.00 459.00 77.50" xmlns="http://www.w3.org/2000/svg" xmlns:xlink="http://www.w3.org/1999/xlink">
<g id="graph0" class="graph" transform="scale(1 1) rotate(0) translate(4 73.5)">
<title>uORB::DeviceNode::remove_internal_subscriber</title>
<polygon fill="#ffffff" stroke="transparent" points="-4,4 -4,-73.5 455,-73.5 455,4 -4,4"/>
<!-- Node7511 -->
<g id="node1" class="node">
<title>Node7511</title>
<polygon fill="#bfbfbf" stroke="#000000" points="0,-22.5 0,-52.5 142,-52.5 142,-22.5 0,-22.5"/>
<text text-anchor="start" x="8" y="-40.5" font-family="Helvetica,sans-Serif" font-size="10.00" fill="#000000">uORB::DeviceNode::remove</text>
<text text-anchor="middle" x="71" y="-29.5" font-family="Helvetica,sans-Serif" font-size="10.00" fill="#000000">_internal_subscriber</text>
</g>
<!-- Node7512 -->
<g id="node2" class="node">
<title>Node7512</title>
<g id="a_node2"><a xlink:href="../../d0/d18/classu_o_r_b_1_1_device_node.html#a741ea4095595c95eecd27a8b5e0f7994" target="_top" xlink:title="Method to close a subscriber for this topic. ">
<polygon fill="#ffffff" stroke="#000000" points="178,-50 178,-69 311,-69 311,-50 178,-50"/>
<text text-anchor="middle" x="244.5" y="-57" font-family="Helvetica,sans-Serif" font-size="10.00" fill="#000000">uORB::DeviceNode::close</text>
</a>
</g>
</g>
<!-- Node7511&#45;&gt;Node7512 -->
<g id="edge1" class="edge">
<title>Node7511&#45;&gt;Node7512</title>
<path fill="none" stroke="#191970" d="M152.0933,-47.7827C160.6783,-48.8713 169.3374,-49.9693 177.7325,-51.0338"/>
<polygon fill="#191970" stroke="#191970" points="152.4306,-44.2975 142.0697,-46.5117 151.55,-51.2419 152.4306,-44.2975"/>
</g>
<!-- Node7513 -->
<g id="node3" class="node">
<title>Node7513</title>
<g id="a_node3"><a xlink:href="../../d0/d65/classu_o_r_b_1_1_subscription.html#a4228366c28dfaed084710f13e48934be" target="_top" xlink:title="uORB::Subscription\l::unsubscribe">
<polygon fill="#ffffff" stroke="#000000" points="192.5,-.5 192.5,-30.5 296.5,-30.5 296.5,-.5 192.5,-.5"/>
<text text-anchor="start" x="200.5" y="-18.5" font-family="Helvetica,sans-Serif" font-size="10.00" fill="#000000">uORB::Subscription</text>
<text text-anchor="middle" x="244.5" y="-7.5" font-family="Helvetica,sans-Serif" font-size="10.00" fill="#000000">::unsubscribe</text>
</a>
</g>
</g>
<!-- Node7511&#45;&gt;Node7513 -->
<g id="edge2" class="edge">
<title>Node7511&#45;&gt;Node7513</title>
<path fill="none" stroke="#191970" d="M152.0133,-27.2274C165.7432,-25.4865 179.6655,-23.7211 192.3965,-22.1068"/>
<polygon fill="#191970" stroke="#191970" points="151.55,-23.7581 142.0697,-28.4883 152.4306,-30.7025 151.55,-23.7581"/>
</g>
<!-- Node7514 -->
<g id="node4" class="node">
<title>Node7514</title>
<g id="a_node4"><a xlink:href="../../d0/d65/classu_o_r_b_1_1_subscription.html#a7520c849582c1887f3851fd319b3bf45" target="_top" xlink:title="uORB::Subscription\l::~Subscription">
<polygon fill="#ffffff" stroke="#000000" points="347,-.5 347,-30.5 451,-30.5 451,-.5 347,-.5"/>
<text text-anchor="start" x="355" y="-18.5" font-family="Helvetica,sans-Serif" font-size="10.00" fill="#000000">uORB::Subscription</text>
<text text-anchor="middle" x="399" y="-7.5" font-family="Helvetica,sans-Serif" font-size="10.00" fill="#000000">::~Subscription</text>
</a>
</g>
</g>
<!-- Node7513&#45;&gt;Node7514 -->
<g id="edge3" class="edge">
<title>Node7513&#45;&gt;Node7514</title>
<path fill="none" stroke="#191970" d="M307.1858,-15.5C320.3214,-15.5 334.04,-15.5 346.7472,-15.5"/>
<polygon fill="#191970" stroke="#191970" points="306.8067,-12.0001 296.8067,-15.5 306.8066,-19.0001 306.8067,-12.0001"/>
</g>
</g>
</svg>
