<?xml version="1.0" encoding="UTF-8" standalone="no"?>
<!DOCTYPE svg PUBLIC "-//W3C//DTD SVG 1.1//EN"
 "http://www.w3.org/Graphics/SVG/1.1/DTD/svg11.dtd">
<!-- Generated by graphviz version 2.38.0 (20140413.2041)
 -->
<!-- Title: hrt_work_queue_init Pages: 1 -->
<!--zoomable 142 -->
<svg id="main" version="1.1" xmlns="http://www.w3.org/2000/svg" xmlns:xlink="http://www.w3.org/1999/xlink" xml:space="preserve" onload="init(evt)">
<style type="text/css"><![CDATA[
.edge:hover path { stroke: red; }
.edge:hover polygon { stroke: red; fill: red; }
]]></style>
<script type="text/javascript"><![CDATA[
var edges = document.getElementsByTagName('g');
if (edges && edges.length) {
  for (var i=0;i<edges.length;i++) {
    if (edges[i].id.substr(0,4)=='edge') {
      edges[i].setAttribute('class','edge');
    }
  }
}
]]></script>
        <defs>
                <circle id="rim" cx="0" cy="0" r="7"/>
                <circle id="rim2" cx="0" cy="0" r="3.5"/>
                <g id="zoomPlus">
                        <use xlink:href="#rim" fill="#404040">
                                <set attributeName="fill" to="#808080" begin="zoomplus.mouseover" end="zoomplus.mouseout"/>
                        </use>
                        <path d="M-4,0h8M0,-4v8" fill="none" stroke="white" stroke-width="1.5" pointer-events="none"/>
                </g>
                <g id="zoomMin">
                        <use xlink:href="#rim" fill="#404040">
                                <set attributeName="fill" to="#808080" begin="zoomminus.mouseover" end="zoomminus.mouseout"/>
                        </use>
                        <path d="M-4,0h8" fill="none" stroke="white" stroke-width="1.5" pointer-events="none"/>
                </g>
                <g id="dirArrow">
                        <path fill="none" stroke="white" stroke-width="1.5" d="M0,-3.0v7 M-2.5,-0.5L0,-3.0L2.5,-0.5"/>
                </g>
               <g id="resetDef">
                       <use xlink:href="#rim2" fill="#404040">
                               <set attributeName="fill" to="#808080" begin="reset.mouseover" end="reset.mouseout"/>
                       </use>
               </g>
        </defs>

<script type="text/javascript">
var viewWidth = 522;
var viewHeight = 142;
var sectionId = 'dynsection-4';
</script>
<script xlink:href="../../svgpan.js"/>
<svg id="graph" class="graph">
<g id="viewport">
<title>hrt_work_queue_init</title>
<polygon fill="white" stroke="none" points="-4,4 -4,-138 518,-138 518,4 -4,4"/>
<!-- Node1 -->
<g id="node1" class="node"><title>Node1</title>
<polygon fill="#bfbfbf" stroke="black" points="0,-76.5 0,-95.5 104,-95.5 104,-76.5 0,-76.5"/>
<text text-anchor="middle" x="52" y="-83.5" font-family="Helvetica,sans-Serif" font-size="10.00">hrt_work_queue_init</text>
</g>
<!-- Node2 -->
<g id="node2" class="node"><title>Node2</title>
<g id="a_node2"><a xlink:href="../../df/dc9/hrt__thread_8c.html#a52988567a99f5ae5dff2791409d2c79f" target="_top" xlink:title="_sighandler">
<polygon fill="white" stroke="black" points="164,-114.5 164,-133.5 230,-133.5 230,-114.5 164,-114.5"/>
<text text-anchor="middle" x="197" y="-121.5" font-family="Helvetica,sans-Serif" font-size="10.00">_sighandler</text>
</a>
</g>
</g>
<!-- Node1&#45;&gt;Node2 -->
<g id="edge1" class="edge"><title>Node1&#45;&gt;Node2</title>
<path fill="none" stroke="midnightblue" d="M89.0849,-95.589C108.852,-100.842 133.45,-107.378 154.067,-112.857"/>
<polygon fill="midnightblue" stroke="midnightblue" points="153.267,-116.266 163.83,-115.451 155.064,-109.5 153.267,-116.266"/>
</g>
<!-- Node3 -->
<g id="node3" class="node"><title>Node3</title>
<g id="a_node3"><a xlink:href="../../da/d65/px4__tasks_8h.html#a9c9c04f140b8e63904e0e0c6597a5fc8" target="_top" xlink:title="Starts a task and performs any specific accounting, scheduler setup, etc. ">
<polygon fill="white" stroke="black" points="140,-76.5 140,-95.5 254,-95.5 254,-76.5 140,-76.5"/>
<text text-anchor="middle" x="197" y="-83.5" font-family="Helvetica,sans-Serif" font-size="10.00">px4_task_spawn_cmd</text>
</a>
</g>
</g>
<!-- Node1&#45;&gt;Node3 -->
<g id="edge2" class="edge"><title>Node1&#45;&gt;Node3</title>
<path fill="none" stroke="midnightblue" d="M104.222,-86C112.517,-86 121.209,-86 129.798,-86"/>
<polygon fill="midnightblue" stroke="midnightblue" points="129.803,-89.5001 139.803,-86 129.803,-82.5001 129.803,-89.5001"/>
</g>
<!-- Node4 -->
<g id="node4" class="node"><title>Node4</title>
<g id="a_node4"><a xlink:href="../../df/dc9/hrt__thread_8c.html#a5b6fec68a25e47518c9e17119e91da46" target="_top" xlink:title="work_hrtthread">
<polygon fill="white" stroke="black" points="156.5,-38.5 156.5,-57.5 237.5,-57.5 237.5,-38.5 156.5,-38.5"/>
<text text-anchor="middle" x="197" y="-45.5" font-family="Helvetica,sans-Serif" font-size="10.00">work_hrtthread</text>
</a>
</g>
</g>
<!-- Node1&#45;&gt;Node4 -->
<g id="edge3" class="edge"><title>Node1&#45;&gt;Node4</title>
<path fill="none" stroke="midnightblue" d="M89.0849,-76.411C107.63,-71.4831 130.426,-65.4251 150.199,-60.1709"/>
<polygon fill="midnightblue" stroke="midnightblue" points="151.161,-63.5368 159.927,-57.5859 149.363,-56.7716 151.161,-63.5368"/>
</g>
<!-- Node5 -->
<g id="node5" class="node"><title>Node5</title>
<g id="a_node5"><a xlink:href="../../df/dc9/hrt__thread_8c.html#a0406f1efa9c4a904739fa2cc9f7af801" target="_top" xlink:title="hrt_work_process">
<polygon fill="white" stroke="black" points="290,-38.5 290,-57.5 384,-57.5 384,-38.5 290,-38.5"/>
<text text-anchor="middle" x="337" y="-45.5" font-family="Helvetica,sans-Serif" font-size="10.00">hrt_work_process</text>
</a>
</g>
</g>
<!-- Node4&#45;&gt;Node5 -->
<g id="edge4" class="edge"><title>Node4&#45;&gt;Node5</title>
<path fill="none" stroke="midnightblue" d="M237.545,-48C250.62,-48 265.431,-48 279.522,-48"/>
<polygon fill="midnightblue" stroke="midnightblue" points="279.619,-51.5001 289.619,-48 279.619,-44.5001 279.619,-51.5001"/>
</g>
<!-- Node6 -->
<g id="node6" class="node"><title>Node6</title>
<g id="a_node6"><a xlink:href="../../d5/de4/dq__rem_8c.html#a5d23544410e7a29bdafae385ad9012db" target="_top" xlink:title="dq_rem">
<polygon fill="white" stroke="black" points="442.5,-76.5 442.5,-95.5 491.5,-95.5 491.5,-76.5 442.5,-76.5"/>
<text text-anchor="middle" x="467" y="-83.5" font-family="Helvetica,sans-Serif" font-size="10.00">dq_rem</text>
</a>
</g>
</g>
<!-- Node5&#45;&gt;Node6 -->
<g id="edge5" class="edge"><title>Node5&#45;&gt;Node6</title>
<path fill="none" stroke="midnightblue" d="M370.3,-57.589C389.259,-63.2174 413.183,-70.3199 432.368,-76.0154"/>
<polygon fill="midnightblue" stroke="midnightblue" points="431.614,-79.4424 442.196,-78.9332 433.606,-72.7319 431.614,-79.4424"/>
</g>
<!-- Node7 -->
<g id="node7" class="node"><title>Node7</title>
<g id="a_node7"><a xlink:href="../../d6/d10/drv__hrt_8h.html#a1450e339b7c5b8d47656500167a6676d" target="_top" xlink:title="Get absolute time in [us] (does not wrap). ">
<polygon fill="white" stroke="black" points="420,-38.5 420,-57.5 514,-57.5 514,-38.5 420,-38.5"/>
<text text-anchor="middle" x="467" y="-45.5" font-family="Helvetica,sans-Serif" font-size="10.00">hrt_absolute_time</text>
</a>
</g>
</g>
<!-- Node5&#45;&gt;Node7 -->
<g id="edge6" class="edge"><title>Node5&#45;&gt;Node7</title>
<path fill="none" stroke="midnightblue" d="M384.211,-48C392.458,-48 401.134,-48 409.628,-48"/>
<polygon fill="midnightblue" stroke="midnightblue" points="409.857,-51.5001 419.857,-48 409.857,-44.5001 409.857,-51.5001"/>
</g>
<!-- Node8 -->
<g id="node8" class="node"><title>Node8</title>
<g id="a_node8"><a xlink:href="../../d6/dfb/stubs__posix_8c.html#ac0383719bafa9b5b2aa25fabc586bd1f" target="_top" xlink:title="usleep">
<polygon fill="white" stroke="black" points="444.5,-0.5 444.5,-19.5 489.5,-19.5 489.5,-0.5 444.5,-0.5"/>
<text text-anchor="middle" x="467" y="-7.5" font-family="Helvetica,sans-Serif" font-size="10.00">usleep</text>
</a>
</g>
</g>
<!-- Node5&#45;&gt;Node8 -->
<g id="edge7" class="edge"><title>Node5&#45;&gt;Node8</title>
<path fill="none" stroke="midnightblue" d="M370.3,-38.411C389.977,-32.5694 415.002,-25.14 434.527,-19.3437"/>
<polygon fill="midnightblue" stroke="midnightblue" points="435.587,-22.6798 444.178,-16.4785 433.595,-15.9693 435.587,-22.6798"/>
</g>
</g>
</svg>
        <g id="navigator" transform="translate(0 0)" fill="#404254">
                <rect fill="#f2f5e9" fill-opacity="0.5" stroke="#606060" stroke-width=".5" x="0" y="0" width="60" height="60"/>
                <use id="zoomplus" xlink:href="#zoomPlus" x="17" y="9" onmousedown="handleZoom(evt,'in')"/>
                <use id="zoomminus" xlink:href="#zoomMin" x="42" y="9" onmousedown="handleZoom(evt,'out')"/>
                <use id="reset" xlink:href="#resetDef" x="30" y="36" onmousedown="handleReset()"/>
                <g id="arrowUp" xlink:href="#dirArrow" transform="translate(30 24)" onmousedown="handlePan(0,-1)">
                  <use xlink:href="#rim" fill="#404040">
                        <set attributeName="fill" to="#808080" begin="arrowUp.mouseover" end="arrowUp.mouseout"/>
                  </use>
                  <path fill="none" stroke="white" stroke-width="1.5" d="M0,-3.0v7 M-2.5,-0.5L0,-3.0L2.5,-0.5"/>
                </g>
                <g id="arrowRight" xlink:href="#dirArrow" transform="rotate(90) translate(36 -43)" onmousedown="handlePan(1,0)">
                  <use xlink:href="#rim" fill="#404040">
                        <set attributeName="fill" to="#808080" begin="arrowRight.mouseover" end="arrowRight.mouseout"/>
                  </use>
                  <path fill="none" stroke="white" stroke-width="1.5" d="M0,-3.0v7 M-2.5,-0.5L0,-3.0L2.5,-0.5"/>
                </g>
                <g id="arrowDown" xlink:href="#dirArrow" transform="rotate(180) translate(-30 -48)" onmousedown="handlePan(0,1)">
                  <use xlink:href="#rim" fill="#404040">
                        <set attributeName="fill" to="#808080" begin="arrowDown.mouseover" end="arrowDown.mouseout"/>
                  </use>
                  <path fill="none" stroke="white" stroke-width="1.5" d="M0,-3.0v7 M-2.5,-0.5L0,-3.0L2.5,-0.5"/>
                </g>
                <g id="arrowLeft" xlink:href="#dirArrow" transform="rotate(270) translate(-36 17)" onmousedown="handlePan(-1,0)">
                  <use xlink:href="#rim" fill="#404040">
                        <set attributeName="fill" to="#808080" begin="arrowLeft.mouseover" end="arrowLeft.mouseout"/>
                  </use>
                  <path fill="none" stroke="white" stroke-width="1.5" d="M0,-3.0v7 M-2.5,-0.5L0,-3.0L2.5,-0.5"/>
                </g>
        </g>
        <svg viewBox="0 0 15 15" width="100%" height="30px" preserveAspectRatio="xMaxYMin meet">
         <g id="arrow_out" transform="scale(0.3 0.3)">
          <a xlink:href="hrt__thread_8c_a14a636cfaf7b85acfcf0539366694717_cgraph_org.svg" target="_base">
           <rect id="button" ry="5" rx="5" y="6" x="6" height="38" width="38"
                fill="#f2f5e9" fill-opacity="0.5" stroke="#606060" stroke-width="1.0"/>
           <path id="arrow"
             d="M 11.500037,31.436501 C 11.940474,20.09759 22.043105,11.32322 32.158766,21.979434 L 37.068811,17.246167 C 37.068811,17.246167 37.088388,32 37.088388,32 L 22.160133,31.978069 C 22.160133,31.978069 26.997745,27.140456 26.997745,27.140456 C 18.528582,18.264221 13.291696,25.230495 11.500037,31.436501 z"
             style="fill:#404040;"/>
          </a>
         </g>
        </svg>
</svg>
