<?xml version="1.0" encoding="UTF-8" standalone="no"?>
<!DOCTYPE svg PUBLIC "-//W3C//DTD SVG 1.1//EN"
 "http://www.w3.org/Graphics/SVG/1.1/DTD/svg11.dtd">
<!-- Generated by graphviz version 2.38.0 (20140413.2041)
 -->
<!-- Title: ETSAirspeed::ETSAirspeed Pages: 1 -->
<svg width="755pt" height="686pt"
 viewBox="0.00 0.00 755.00 686.00" xmlns="http://www.w3.org/2000/svg" xmlns:xlink="http://www.w3.org/1999/xlink">
<g id="graph0" class="graph" transform="scale(1 1) rotate(0) translate(4 682)">
<title>ETSAirspeed::ETSAirspeed</title>
<polygon fill="white" stroke="none" points="-4,4 -4,-682 751,-682 751,4 -4,4"/>
<!-- Node1 -->
<g id="node1" class="node"><title>Node1</title>
<polygon fill="#bfbfbf" stroke="black" points="0,-439.5 0,-458.5 138,-458.5 138,-439.5 0,-439.5"/>
<text text-anchor="middle" x="69" y="-446.5" font-family="Helvetica,sans-Serif" font-size="10.00">ETSAirspeed::ETSAirspeed</text>
</g>
<!-- Node2 -->
<g id="node2" class="node"><title>Node2</title>
<g id="a_node2"><a xlink:href="../../d2/dcb/namespaceets__airspeed.html#ae92d37182dd4d7ecdb1561470c736677" target="_top" xlink:title="Start the driver on a specific bus. ">
<polygon fill="white" stroke="black" points="174,-439.5 174,-458.5 293,-458.5 293,-439.5 174,-439.5"/>
<text text-anchor="middle" x="233.5" y="-446.5" font-family="Helvetica,sans-Serif" font-size="10.00">ets_airspeed::start_bus</text>
</a>
</g>
</g>
<!-- Node1&#45;&gt;Node2 -->
<g id="edge1" class="edge"><title>Node1&#45;&gt;Node2</title>
<path fill="none" stroke="midnightblue" d="M148.462,-449C157.031,-449 165.642,-449 173.913,-449"/>
<polygon fill="midnightblue" stroke="midnightblue" points="148.444,-445.5 138.444,-449 148.444,-452.5 148.444,-445.5"/>
</g>
<!-- Node3 -->
<g id="node3" class="node"><title>Node3</title>
<g id="a_node3"><a xlink:href="../../d3/d3c/namespacespektrum__rc.html#a516e10fb5b8724b7a9da1ef84d0a8d41" target="_top" xlink:title="Attempt to start driver on all available I2C busses. ">
<polygon fill="white" stroke="black" points="329,-354.5 329,-373.5 425,-373.5 425,-354.5 329,-354.5"/>
<text text-anchor="middle" x="377" y="-361.5" font-family="Helvetica,sans-Serif" font-size="10.00">spektrum_rc::start</text>
</a>
</g>
</g>
<!-- Node2&#45;&gt;Node3 -->
<g id="edge2" class="edge"><title>Node2&#45;&gt;Node3</title>
<path fill="none" stroke="midnightblue" d="M259.162,-434.185C288.105,-416.799 335.265,-388.47 359.884,-373.681"/>
<polygon fill="midnightblue" stroke="midnightblue" points="257.227,-431.265 250.457,-439.415 260.831,-437.265 257.227,-431.265"/>
</g>
<!-- Node4 -->
<g id="node4" class="node"><title>Node4</title>
<g id="a_node4"><a xlink:href="../../d3/ddb/ets__airspeed_8cpp.html#a5130885b4b120317c86871871c5162a1" target="_top" xlink:title="ets_airspeed_main">
<polygon fill="white" stroke="black" points="483.5,-658.5 483.5,-677.5 581.5,-677.5 581.5,-658.5 483.5,-658.5"/>
<text text-anchor="middle" x="532.5" y="-665.5" font-family="Helvetica,sans-Serif" font-size="10.00">ets_airspeed_main</text>
</a>
</g>
</g>
<!-- Node2&#45;&gt;Node4 -->
<g id="edge22" class="edge"><title>Node2&#45;&gt;Node4</title>
<path fill="none" stroke="midnightblue" d="M249.066,-466.46C282.428,-505.304 368.645,-599.347 461,-649 468.146,-652.842 476.125,-655.95 484.074,-658.452"/>
<polygon fill="midnightblue" stroke="midnightblue" points="251.564,-463.995 242.424,-458.637 246.228,-468.525 251.564,-463.995"/>
</g>
<!-- Node3&#45;&gt;Node4 -->
<g id="edge3" class="edge"><title>Node3&#45;&gt;Node4</title>
<path fill="none" stroke="midnightblue" d="M383.926,-383.414C392.942,-413.04 410.582,-471.331 425,-521 441.475,-577.753 418.985,-607.442 461,-649 467.128,-655.062 474.975,-659.244 483.195,-662.117"/>
<polygon fill="midnightblue" stroke="midnightblue" points="387.18,-382.086 380.917,-373.541 380.484,-384.127 387.18,-382.086"/>
</g>
<!-- Node5 -->
<g id="node5" class="node"><title>Node5</title>
<g id="a_node5"><a xlink:href="../../db/dc7/ms4525__airspeed_8cpp.html#a54da7a6ff78344389cecabe494c68af6" target="_top" xlink:title="ms4525_airspeed_main">
<polygon fill="white" stroke="black" points="473,-620.5 473,-639.5 592,-639.5 592,-620.5 473,-620.5"/>
<text text-anchor="middle" x="532.5" y="-627.5" font-family="Helvetica,sans-Serif" font-size="10.00">ms4525_airspeed_main</text>
</a>
</g>
</g>
<!-- Node3&#45;&gt;Node5 -->
<g id="edge4" class="edge"><title>Node3&#45;&gt;Node5</title>
<path fill="none" stroke="midnightblue" d="M384.002,-383.506C401.59,-440.426 452.313,-602.826 461,-611 465.062,-614.822 469.811,-617.891 474.89,-620.354"/>
<polygon fill="midnightblue" stroke="midnightblue" points="387.241,-382.129 380.949,-373.605 380.552,-384.192 387.241,-382.129"/>
</g>
<!-- Node6 -->
<g id="node6" class="node"><title>Node6</title>
<g id="a_node6"><a xlink:href="../../d7/d6a/_m_s5525__main_8cpp.html#ac0ebdd187d738b8e8b5cc39db0ec3699" target="_top" xlink:title="ms5525_airspeed_main">
<polygon fill="white" stroke="black" points="473,-582.5 473,-601.5 592,-601.5 592,-582.5 473,-582.5"/>
<text text-anchor="middle" x="532.5" y="-589.5" font-family="Helvetica,sans-Serif" font-size="10.00">ms5525_airspeed_main</text>
</a>
</g>
</g>
<!-- Node3&#45;&gt;Node6 -->
<g id="edge5" class="edge"><title>Node3&#45;&gt;Node6</title>
<path fill="none" stroke="midnightblue" d="M383.266,-383.311C396.33,-429.895 431.321,-546.546 461,-573 465.353,-576.88 470.418,-579.979 475.798,-582.452"/>
<polygon fill="midnightblue" stroke="midnightblue" points="386.602,-382.245 380.561,-373.541 379.856,-384.113 386.602,-382.245"/>
</g>
<!-- Node7 -->
<g id="node7" class="node"><title>Node7</title>
<g id="a_node7"><a xlink:href="../../df/d26/_s_d_p3_x__main_8cpp.html#a1162b44998568bf903a7d7f37cba4821" target="_top" xlink:title="sdp3x_airspeed_main">
<polygon fill="white" stroke="black" points="477,-544.5 477,-563.5 588,-563.5 588,-544.5 477,-544.5"/>
<text text-anchor="middle" x="532.5" y="-551.5" font-family="Helvetica,sans-Serif" font-size="10.00">sdp3x_airspeed_main</text>
</a>
</g>
</g>
<!-- Node3&#45;&gt;Node7 -->
<g id="edge6" class="edge"><title>Node3&#45;&gt;Node7</title>
<path fill="none" stroke="midnightblue" d="M382.02,-384.045C390.276,-419.889 412.586,-494.954 461,-535 465.689,-538.878 471.097,-541.97 476.792,-544.434"/>
<polygon fill="midnightblue" stroke="midnightblue" points="385.356,-382.912 379.819,-373.88 378.515,-384.394 385.356,-382.912"/>
</g>
<!-- Node8 -->
<g id="node8" class="node"><title>Node8</title>
<g id="a_node8"><a xlink:href="../../d9/d50/hc__sr04_8cpp.html#ad2a13c6869b1a5d92c14b7e589cdefcf" target="_top" xlink:title="hc_sr04_main">
<polygon fill="white" stroke="black" points="494,-506.5 494,-525.5 571,-525.5 571,-506.5 494,-506.5"/>
<text text-anchor="middle" x="532.5" y="-513.5" font-family="Helvetica,sans-Serif" font-size="10.00">hc_sr04_main</text>
</a>
</g>
</g>
<!-- Node3&#45;&gt;Node8 -->
<g id="edge7" class="edge"><title>Node3&#45;&gt;Node8</title>
<path fill="none" stroke="midnightblue" d="M384.716,-383.241C395.886,-412.371 421.084,-467.401 461,-497 470.469,-504.022 482.363,-508.45 493.669,-511.241"/>
<polygon fill="midnightblue" stroke="midnightblue" points="387.971,-381.952 381.234,-373.775 381.401,-384.369 387.971,-381.952"/>
</g>
<!-- Node9 -->
<g id="node9" class="node"><title>Node9</title>
<g id="a_node9"><a xlink:href="../../d2/d92/bma180_8cpp.html#a38ff461623581f564b2a4499996922e4" target="_top" xlink:title="bma180_main">
<polygon fill="white" stroke="black" points="494,-468.5 494,-487.5 571,-487.5 571,-468.5 494,-468.5"/>
<text text-anchor="middle" x="532.5" y="-475.5" font-family="Helvetica,sans-Serif" font-size="10.00">bma180_main</text>
</a>
</g>
</g>
<!-- Node3&#45;&gt;Node9 -->
<g id="edge8" class="edge"><title>Node3&#45;&gt;Node9</title>
<path fill="none" stroke="midnightblue" d="M389.148,-382.338C403.22,-403.919 429.441,-439.302 461,-459 470.893,-465.175 482.781,-469.365 493.952,-472.2"/>
<polygon fill="midnightblue" stroke="midnightblue" points="392.025,-380.339 383.721,-373.76 386.109,-384.082 392.025,-380.339"/>
</g>
<!-- Node10 -->
<g id="node10" class="node"><title>Node10</title>
<g id="a_node10"><a xlink:href="../../d6/dd7/navio__rgbled_8cpp.html#ab01f0436267a40f9c9a4c9480c3066fe" target="_top" xlink:title="navio_rgbled_main">
<polygon fill="white" stroke="black" points="483.5,-430.5 483.5,-449.5 581.5,-449.5 581.5,-430.5 483.5,-430.5"/>
<text text-anchor="middle" x="532.5" y="-437.5" font-family="Helvetica,sans-Serif" font-size="10.00">navio_rgbled_main</text>
</a>
</g>
</g>
<!-- Node3&#45;&gt;Node10 -->
<g id="edge9" class="edge"><title>Node3&#45;&gt;Node10</title>
<path fill="none" stroke="midnightblue" d="M397.424,-380.173C413.552,-392.88 437.566,-410.181 461,-421 469.171,-424.772 478.233,-427.914 487.063,-430.484"/>
<polygon fill="midnightblue" stroke="midnightblue" points="399.313,-377.201 389.328,-373.657 394.924,-382.654 399.313,-377.201"/>
</g>
<!-- Node12 -->
<g id="node12" class="node"><title>Node12</title>
<g id="a_node12"><a xlink:href="../../d3/d92/spektrum__rc_8cpp.html#a1fabcdf34c69dadf4f3f51b77f485286" target="_top" xlink:title="spektrum_rc_main">
<polygon fill="white" stroke="black" points="484,-392.5 484,-411.5 581,-411.5 581,-392.5 484,-392.5"/>
<text text-anchor="middle" x="532.5" y="-399.5" font-family="Helvetica,sans-Serif" font-size="10.00">spektrum_rc_main</text>
</a>
</g>
</g>
<!-- Node3&#45;&gt;Node12 -->
<g id="edge11" class="edge"><title>Node3&#45;&gt;Node12</title>
<path fill="none" stroke="midnightblue" d="M426.635,-376.04C448.08,-381.349 472.923,-387.499 493.044,-392.48"/>
<polygon fill="midnightblue" stroke="midnightblue" points="427.283,-372.595 416.735,-373.589 425.6,-379.39 427.283,-372.595"/>
</g>
<!-- Node13 -->
<g id="node13" class="node"><title>Node13</title>
<g id="a_node13"><a xlink:href="../../de/dbe/syslink__main_8cpp.html#ad94fd8d66995ec8573205ce6e3bc8f07" target="_top" xlink:title="syslink_main">
<polygon fill="white" stroke="black" points="495.5,-354.5 495.5,-373.5 569.5,-373.5 569.5,-354.5 495.5,-354.5"/>
<text text-anchor="middle" x="532.5" y="-361.5" font-family="Helvetica,sans-Serif" font-size="10.00">syslink_main</text>
</a>
</g>
</g>
<!-- Node3&#45;&gt;Node13 -->
<g id="edge12" class="edge"><title>Node3&#45;&gt;Node13</title>
<path fill="none" stroke="midnightblue" d="M435.583,-364C455.616,-364 477.511,-364 495.317,-364"/>
<polygon fill="midnightblue" stroke="midnightblue" points="435.308,-360.5 425.308,-364 435.308,-367.5 435.308,-360.5"/>
</g>
<!-- Node14 -->
<g id="node14" class="node"><title>Node14</title>
<g id="a_node14"><a xlink:href="../../d5/d8e/bebop__flow_8cpp.html#a73c8f72ac5497bbbb4b4e71a8175d26e" target="_top" xlink:title="bebop_flow_main">
<polygon fill="white" stroke="black" points="486.5,-316.5 486.5,-335.5 578.5,-335.5 578.5,-316.5 486.5,-316.5"/>
<text text-anchor="middle" x="532.5" y="-323.5" font-family="Helvetica,sans-Serif" font-size="10.00">bebop_flow_main</text>
</a>
</g>
</g>
<!-- Node3&#45;&gt;Node14 -->
<g id="edge13" class="edge"><title>Node3&#45;&gt;Node14</title>
<path fill="none" stroke="midnightblue" d="M426.635,-351.96C448.08,-346.651 472.923,-340.501 493.044,-335.52"/>
<polygon fill="midnightblue" stroke="midnightblue" points="425.6,-348.61 416.735,-354.411 427.283,-355.405 425.6,-348.61"/>
</g>
<!-- Node15 -->
<g id="node15" class="node"><title>Node15</title>
<g id="a_node15"><a xlink:href="../../d4/dbd/df__bebop__bus__wrapper_8cpp.html#ae001605c030ad2265b6eb3b758e32163" target="_top" xlink:title="df_bebop_bus_wrapper_main">
<polygon fill="white" stroke="black" points="461,-278.5 461,-297.5 604,-297.5 604,-278.5 461,-278.5"/>
<text text-anchor="middle" x="532.5" y="-285.5" font-family="Helvetica,sans-Serif" font-size="10.00">df_bebop_bus_wrapper_main</text>
</a>
</g>
</g>
<!-- Node3&#45;&gt;Node15 -->
<g id="edge14" class="edge"><title>Node3&#45;&gt;Node15</title>
<path fill="none" stroke="midnightblue" d="M397.424,-347.827C413.552,-335.12 437.566,-317.819 461,-307 469.171,-303.228 478.233,-300.086 487.063,-297.516"/>
<polygon fill="midnightblue" stroke="midnightblue" points="394.924,-345.346 389.328,-354.343 399.313,-350.799 394.924,-345.346"/>
</g>
<!-- Node16 -->
<g id="node16" class="node"><title>Node16</title>
<g id="a_node16"><a xlink:href="../../d8/dbc/df__bebop__rangefinder__wrapper_8cpp.html#a6c1b25ad325874740b40d00ef8cffda5" target="_top" xlink:title="df_bebop_rangefinder\l_wrapper_main">
<polygon fill="white" stroke="black" points="477.5,-229 477.5,-259 587.5,-259 587.5,-229 477.5,-229"/>
<text text-anchor="start" x="485.5" y="-247" font-family="Helvetica,sans-Serif" font-size="10.00">df_bebop_rangefinder</text>
<text text-anchor="middle" x="532.5" y="-236" font-family="Helvetica,sans-Serif" font-size="10.00">_wrapper_main</text>
</a>
</g>
</g>
<!-- Node3&#45;&gt;Node16 -->
<g id="edge15" class="edge"><title>Node3&#45;&gt;Node16</title>
<path fill="none" stroke="midnightblue" d="M389.415,-346.072C403.75,-324.894 430.228,-289.906 461,-269 466.586,-265.205 472.811,-261.921 479.186,-259.095"/>
<polygon fill="midnightblue" stroke="midnightblue" points="386.456,-344.201 383.875,-354.477 392.301,-348.054 386.456,-344.201"/>
</g>
<!-- Node17 -->
<g id="node17" class="node"><title>Node17</title>
<g id="a_node17"><a xlink:href="../../d3/d30/df__bmp280__wrapper_8cpp.html#a8dabc96381e6fe19aa059cf51f8963f1" target="_top" xlink:title="df_bmp280_wrapper_main">
<polygon fill="white" stroke="black" points="467,-190.5 467,-209.5 598,-209.5 598,-190.5 467,-190.5"/>
<text text-anchor="middle" x="532.5" y="-197.5" font-family="Helvetica,sans-Serif" font-size="10.00">df_bmp280_wrapper_main</text>
</a>
</g>
</g>
<!-- Node3&#45;&gt;Node17 -->
<g id="edge16" class="edge"><title>Node3&#45;&gt;Node17</title>
<path fill="none" stroke="midnightblue" d="M383.868,-344.573C394.257,-313.517 418.861,-252.851 461,-220 466.619,-215.62 473.153,-212.199 479.933,-209.527"/>
<polygon fill="midnightblue" stroke="midnightblue" points="380.493,-343.638 380.781,-354.229 387.16,-345.77 380.493,-343.638"/>
</g>
<!-- Node18 -->
<g id="node18" class="node"><title>Node18</title>
<g id="a_node18"><a xlink:href="../../d3/d63/df__isl29501__wrapper_8cpp.html#a9b3029a28a198ded79a8f4f99688dc3c" target="_top" xlink:title="df_isl29501_wrapper_main">
<polygon fill="white" stroke="black" points="466.5,-152.5 466.5,-171.5 598.5,-171.5 598.5,-152.5 466.5,-152.5"/>
<text text-anchor="middle" x="532.5" y="-159.5" font-family="Helvetica,sans-Serif" font-size="10.00">df_isl29501_wrapper_main</text>
</a>
</g>
</g>
<!-- Node3&#45;&gt;Node18 -->
<g id="edge17" class="edge"><title>Node3&#45;&gt;Node18</title>
<path fill="none" stroke="midnightblue" d="M381.279,-344.144C388.56,-306.492 409.674,-224.594 461,-181 465.541,-177.143 470.791,-174.062 476.336,-171.602"/>
<polygon fill="midnightblue" stroke="midnightblue" points="377.774,-343.854 379.445,-354.317 384.663,-345.096 377.774,-343.854"/>
</g>
<!-- Node19 -->
<g id="node19" class="node"><title>Node19</title>
<g id="a_node19"><a xlink:href="../../d0/d77/df__ltc2946__wrapper_8cpp.html#a44dc6a48c1ce89816093e60e54b663bb" target="_top" xlink:title="df_ltc2946_wrapper_main">
<polygon fill="white" stroke="black" points="468.5,-114.5 468.5,-133.5 596.5,-133.5 596.5,-114.5 468.5,-114.5"/>
<text text-anchor="middle" x="532.5" y="-121.5" font-family="Helvetica,sans-Serif" font-size="10.00">df_ltc2946_wrapper_main</text>
</a>
</g>
</g>
<!-- Node3&#45;&gt;Node19 -->
<g id="edge18" class="edge"><title>Node3&#45;&gt;Node19</title>
<path fill="none" stroke="midnightblue" d="M379.52,-344.296C383.928,-301.168 400.567,-197.892 461,-143 465.222,-139.165 470.139,-136.091 475.375,-133.629"/>
<polygon fill="midnightblue" stroke="midnightblue" points="376.026,-344.063 378.608,-354.339 382.998,-344.696 376.026,-344.063"/>
</g>
<!-- Node20 -->
<g id="node20" class="node"><title>Node20</title>
<g id="a_node20"><a xlink:href="../../da/d05/df__ms5607__wrapper_8cpp.html#af6aac6c063722080c5afa9cf377da171" target="_top" xlink:title="df_ms5607_wrapper_main">
<polygon fill="white" stroke="black" points="467,-76.5 467,-95.5 598,-95.5 598,-76.5 467,-76.5"/>
<text text-anchor="middle" x="532.5" y="-83.5" font-family="Helvetica,sans-Serif" font-size="10.00">df_ms5607_wrapper_main</text>
</a>
</g>
</g>
<!-- Node3&#45;&gt;Node20 -->
<g id="edge19" class="edge"><title>Node3&#45;&gt;Node20</title>
<path fill="none" stroke="midnightblue" d="M378.265,-344.281C380.02,-296.08 391.423,-171.39 461,-105 465.035,-101.15 469.766,-98.0615 474.834,-95.5873"/>
<polygon fill="midnightblue" stroke="midnightblue" points="374.765,-344.242 378.004,-354.329 381.762,-344.424 374.765,-344.242"/>
</g>
<!-- Node21 -->
<g id="node21" class="node"><title>Node21</title>
<g id="a_node21"><a xlink:href="../../d4/d7c/df__ms5611__wrapper_8cpp.html#a97ae2d30aacfc3f36a5046951c1a08a1" target="_top" xlink:title="df_ms5611_wrapper_main">
<polygon fill="white" stroke="black" points="467,-38.5 467,-57.5 598,-57.5 598,-38.5 467,-38.5"/>
<text text-anchor="middle" x="532.5" y="-45.5" font-family="Helvetica,sans-Serif" font-size="10.00">df_ms5611_wrapper_main</text>
</a>
</g>
</g>
<!-- Node3&#45;&gt;Node21 -->
<g id="edge20" class="edge"><title>Node3&#45;&gt;Node21</title>
<path fill="none" stroke="midnightblue" d="M377.309,-344.318C376.579,-291.455 382.163,-145.11 461,-67 464.872,-63.1636 469.432,-60.0799 474.341,-57.6043"/>
<polygon fill="midnightblue" stroke="midnightblue" points="373.811,-344.465 377.545,-354.381 380.809,-344.301 373.811,-344.465"/>
</g>
<!-- Node22 -->
<g id="node22" class="node"><title>Node22</title>
<g id="a_node22"><a xlink:href="../../d1/d56/mpu9x50__main_8cpp.html#a1bb816afd4b7a5b2c54b80635487f84e" target="_top" xlink:title="driver &#39;main&#39; command ">
<polygon fill="white" stroke="black" points="491,-0.5 491,-19.5 574,-19.5 574,-0.5 491,-0.5"/>
<text text-anchor="middle" x="532.5" y="-7.5" font-family="Helvetica,sans-Serif" font-size="10.00">mpu9x50_main</text>
</a>
</g>
</g>
<!-- Node3&#45;&gt;Node22 -->
<g id="edge21" class="edge"><title>Node3&#45;&gt;Node22</title>
<path fill="none" stroke="midnightblue" d="M380.278,-344.166C388.118,-279.29 416.001,-74.9254 461,-29 468.896,-20.9416 479.823,-16.1899 490.718,-13.4197"/>
<polygon fill="midnightblue" stroke="midnightblue" points="376.781,-343.937 379.083,-354.279 383.733,-344.758 376.781,-343.937"/>
</g>
<!-- Node11 -->
<g id="node11" class="node"><title>Node11</title>
<g id="a_node11"><a xlink:href="../../df/de8/class_r_g_b_l_e_d.html#a7032a183595c2347429a1744a9a99af2" target="_top" xlink:title="RGBLED::_measure">
<polygon fill="white" stroke="black" points="640,-430.5 640,-449.5 747,-449.5 747,-430.5 640,-430.5"/>
<text text-anchor="middle" x="693.5" y="-437.5" font-family="Helvetica,sans-Serif" font-size="10.00">RGBLED::_measure</text>
</a>
</g>
</g>
<!-- Node10&#45;&gt;Node11 -->
<g id="edge10" class="edge"><title>Node10&#45;&gt;Node11</title>
<path fill="none" stroke="midnightblue" d="M591.77,-440C607.494,-440 624.415,-440 639.815,-440"/>
<polygon fill="midnightblue" stroke="midnightblue" points="591.637,-436.5 581.637,-440 591.637,-443.5 591.637,-436.5"/>
</g>
</g>
</svg>
