<?xml version="1.0" encoding="UTF-8" standalone="no"?>
<!DOCTYPE svg PUBLIC "-//W3C//DTD SVG 1.1//EN"
 "http://www.w3.org/Graphics/SVG/1.1/DTD/svg11.dtd">
<!-- Generated by graphviz version 2.38.0 (20140413.2041)
 -->
<!-- Title: board_get_uuid32 Pages: 1 -->
<!--zoomable 272 -->
<svg id="main" version="1.1" xmlns="http://www.w3.org/2000/svg" xmlns:xlink="http://www.w3.org/1999/xlink" xml:space="preserve" onload="init(evt)">
<style type="text/css"><![CDATA[
.edge:hover path { stroke: red; }
.edge:hover polygon { stroke: red; fill: red; }
]]></style>
<script type="text/javascript"><![CDATA[
var edges = document.getElementsByTagName('g');
if (edges && edges.length) {
  for (var i=0;i<edges.length;i++) {
    if (edges[i].id.substr(0,4)=='edge') {
      edges[i].setAttribute('class','edge');
    }
  }
}
]]></script>
        <defs>
                <circle id="rim" cx="0" cy="0" r="7"/>
                <circle id="rim2" cx="0" cy="0" r="3.5"/>
                <g id="zoomPlus">
                        <use xlink:href="#rim" fill="#404040">
                                <set attributeName="fill" to="#808080" begin="zoomplus.mouseover" end="zoomplus.mouseout"/>
                        </use>
                        <path d="M-4,0h8M0,-4v8" fill="none" stroke="white" stroke-width="1.5" pointer-events="none"/>
                </g>
                <g id="zoomMin">
                        <use xlink:href="#rim" fill="#404040">
                                <set attributeName="fill" to="#808080" begin="zoomminus.mouseover" end="zoomminus.mouseout"/>
                        </use>
                        <path d="M-4,0h8" fill="none" stroke="white" stroke-width="1.5" pointer-events="none"/>
                </g>
                <g id="dirArrow">
                        <path fill="none" stroke="white" stroke-width="1.5" d="M0,-3.0v7 M-2.5,-0.5L0,-3.0L2.5,-0.5"/>
                </g>
               <g id="resetDef">
                       <use xlink:href="#rim2" fill="#404040">
                               <set attributeName="fill" to="#808080" begin="reset.mouseover" end="reset.mouseout"/>
                       </use>
               </g>
        </defs>

<script type="text/javascript">
var viewWidth = 1871;
var viewHeight = 272;
var sectionId = 'dynsection-9';
</script>
<script xlink:href="../../svgpan.js"/>
<svg id="graph" class="graph">
<g id="viewport">
<title>board_get_uuid32</title>
<polygon fill="white" stroke="none" points="-4,4 -4,-267.5 1867,-267.5 1867,4 -4,4"/>
<!-- Node1 -->
<g id="node1" class="node"><title>Node1</title>
<polygon fill="#bfbfbf" stroke="black" points="0,-170 0,-189 93,-189 93,-170 0,-170"/>
<text text-anchor="middle" x="46.5" y="-177" font-family="Helvetica,sans-Serif" font-size="10.00">board_get_uuid32</text>
</g>
<!-- Node2 -->
<g id="node2" class="node"><title>Node2</title>
<g id="a_node2"><a xlink:href="../../d3/d92/stm32_2board__identity_8c.html#a4c8de8daee2516d5243e7a1a2787709d" target="_top" xlink:title="board_get_uuid">
<polygon fill="white" stroke="black" points="156,-208 156,-227 239,-227 239,-208 156,-208"/>
<text text-anchor="middle" x="197.5" y="-215" font-family="Helvetica,sans-Serif" font-size="10.00">board_get_uuid</text>
</a>
</g>
</g>
<!-- Node1&#45;&gt;Node2 -->
<g id="edge1" class="edge"><title>Node1&#45;&gt;Node2</title>
<path fill="none" stroke="midnightblue" d="M94.9922,-191.612C115.744,-196.904 139.728,-203.021 159.171,-207.98"/>
<polygon fill="midnightblue" stroke="midnightblue" points="95.6538,-188.169 85.099,-189.089 93.9239,-194.952 95.6538,-188.169"/>
</g>
<!-- Node3 -->
<g id="node3" class="node"><title>Node3</title>
<g id="a_node3"><a xlink:href="../../dc/ddc/kinetis_2board__identity_8c.html#a575c1d0ca8abe668700f81be1786d8d3" target="_top" xlink:title="board_get_uuid32_formated">
<polygon fill="white" stroke="black" points="129,-170 129,-189 266,-189 266,-170 129,-170"/>
<text text-anchor="middle" x="197.5" y="-177" font-family="Helvetica,sans-Serif" font-size="10.00">board_get_uuid32_formated</text>
</a>
</g>
</g>
<!-- Node1&#45;&gt;Node3 -->
<g id="edge2" class="edge"><title>Node1&#45;&gt;Node3</title>
<path fill="none" stroke="midnightblue" d="M103.044,-179.5C111.431,-179.5 120.162,-179.5 128.771,-179.5"/>
<polygon fill="midnightblue" stroke="midnightblue" points="103.015,-176 93.0145,-179.5 103.014,-183 103.015,-176"/>
</g>
<!-- Node4 -->
<g id="node4" class="node"><title>Node4</title>
<g id="a_node4"><a xlink:href="../../df/d1f/class_mavlink.html#a183dfdfc1fbde1b34127c76f4ff2c695" target="_top" xlink:title="Send the capabilities of this autopilot in terms of the MAVLink spec. ">
<polygon fill="white" stroke="black" points="138,-120.5 138,-150.5 257,-150.5 257,-120.5 138,-120.5"/>
<text text-anchor="start" x="146" y="-138.5" font-family="Helvetica,sans-Serif" font-size="10.00">Mavlink::send_autopilot</text>
<text text-anchor="middle" x="197.5" y="-127.5" font-family="Helvetica,sans-Serif" font-size="10.00">_capabilites</text>
</a>
</g>
</g>
<!-- Node1&#45;&gt;Node4 -->
<g id="edge3" class="edge"><title>Node1&#45;&gt;Node4</title>
<path fill="none" stroke="midnightblue" d="M89.678,-167.045C107.037,-161.919 127.299,-155.935 145.483,-150.565"/>
<polygon fill="midnightblue" stroke="midnightblue" points="88.4301,-163.764 79.8308,-169.953 90.4126,-170.477 88.4301,-163.764"/>
</g>
<!-- Node5 -->
<g id="node5" class="node"><title>Node5</title>
<g id="a_node5"><a xlink:href="../../df/d1f/class_mavlink.html#a2325401a575b272fc1474d502388241f" target="_top" xlink:title="Main mavlink task. ">
<polygon fill="white" stroke="black" points="306,-207 306,-226 407,-226 407,-207 306,-207"/>
<text text-anchor="middle" x="356.5" y="-214" font-family="Helvetica,sans-Serif" font-size="10.00">Mavlink::task_main</text>
</a>
</g>
</g>
<!-- Node4&#45;&gt;Node5 -->
<g id="edge4" class="edge"><title>Node4&#45;&gt;Node5</title>
<path fill="none" stroke="midnightblue" d="M252.709,-154.453C257.255,-156.381 261.738,-158.405 266,-160.5 294.292,-174.408 324.969,-194.907 342.054,-206.861"/>
<polygon fill="midnightblue" stroke="midnightblue" points="253.923,-151.169 243.341,-150.64 251.283,-157.652 253.923,-151.169"/>
</g>
<!-- Node22 -->
<g id="node22" class="node"><title>Node22</title>
<g id="a_node22"><a xlink:href="../../df/d1f/class_mavlink.html#a6829c4f2061c8b36c6c392b75e7ac986" target="_top" xlink:title="Mavlink::get_mavlink\l_log_pub">
<polygon fill="white" stroke="black" points="302,-120.5 302,-150.5 411,-150.5 411,-120.5 302,-120.5"/>
<text text-anchor="start" x="310" y="-138.5" font-family="Helvetica,sans-Serif" font-size="10.00">Mavlink::get_mavlink</text>
<text text-anchor="middle" x="356.5" y="-127.5" font-family="Helvetica,sans-Serif" font-size="10.00">_log_pub</text>
</a>
</g>
</g>
<!-- Node4&#45;&gt;Node22 -->
<g id="edge25" class="edge"><title>Node4&#45;&gt;Node22</title>
<path fill="none" stroke="midnightblue" d="M267.467,-135.5C279.024,-135.5 290.862,-135.5 301.957,-135.5"/>
<polygon fill="midnightblue" stroke="midnightblue" points="267.408,-132 257.408,-135.5 267.408,-139 267.408,-132"/>
</g>
<!-- Node23 -->
<g id="node23" class="node"><title>Node23</title>
<g id="a_node23"><a xlink:href="../../da/d89/class_mavlink_receiver.html#a72518d540ed247b6fcc0fb63592dd319" target="_top" xlink:title="common method to handle both mavlink command types. ">
<polygon fill="white" stroke="black" points="902,-29.5 902,-59.5 1036,-59.5 1036,-29.5 902,-29.5"/>
<text text-anchor="start" x="910" y="-47.5" font-family="Helvetica,sans-Serif" font-size="10.00">MavlinkReceiver::handle</text>
<text text-anchor="middle" x="969" y="-36.5" font-family="Helvetica,sans-Serif" font-size="10.00">_message_command_both</text>
</a>
</g>
</g>
<!-- Node4&#45;&gt;Node23 -->
<g id="edge26" class="edge"><title>Node4&#45;&gt;Node23</title>
<path fill="none" stroke="midnightblue" d="M251.845,-117.378C311.471,-98.7661 411.249,-72.5 499.5,-72.5 499.5,-72.5 499.5,-72.5 640.5,-72.5 731.376,-72.5 835.923,-61.6648 901.965,-53.4749"/>
<polygon fill="midnightblue" stroke="midnightblue" points="250.747,-114.055 242.27,-120.41 252.86,-120.729 250.747,-114.055"/>
</g>
<!-- Node6 -->
<g id="node6" class="node"><title>Node6</title>
<g id="a_node6"><a xlink:href="../../df/d1f/class_mavlink.html#aad2c17a259e6cfbfe20113c8da8f6cae" target="_top" xlink:title="Mavlink::start_helper">
<polygon fill="white" stroke="black" points="447,-207 447,-226 554,-226 554,-207 447,-207"/>
<text text-anchor="middle" x="500.5" y="-214" font-family="Helvetica,sans-Serif" font-size="10.00">Mavlink::start_helper</text>
</a>
</g>
</g>
<!-- Node5&#45;&gt;Node6 -->
<g id="edge5" class="edge"><title>Node5&#45;&gt;Node6</title>
<path fill="none" stroke="midnightblue" d="M417.233,-216.5C427.027,-216.5 437.115,-216.5 446.725,-216.5"/>
<polygon fill="midnightblue" stroke="midnightblue" points="417.165,-213 407.165,-216.5 417.165,-220 417.165,-213"/>
</g>
<!-- Node7 -->
<g id="node7" class="node"><title>Node7</title>
<g id="a_node7"><a xlink:href="../../df/d1f/class_mavlink.html#a3f96c3503833a477332c8584bb8fbc67" target="_top" xlink:title="Start the mavlink task. ">
<polygon fill="white" stroke="black" points="601.5,-216 601.5,-235 677.5,-235 677.5,-216 601.5,-216"/>
<text text-anchor="middle" x="639.5" y="-223" font-family="Helvetica,sans-Serif" font-size="10.00">Mavlink::start</text>
</a>
</g>
</g>
<!-- Node6&#45;&gt;Node7 -->
<g id="edge6" class="edge"><title>Node6&#45;&gt;Node7</title>
<path fill="none" stroke="midnightblue" d="M564.132,-220.615C576.786,-221.446 589.708,-222.295 601.155,-223.047"/>
<polygon fill="midnightblue" stroke="midnightblue" points="564.284,-217.117 554.076,-219.954 563.825,-224.102 564.284,-217.117"/>
</g>
<!-- Node9 -->
<g id="node9" class="node"><title>Node9</title>
<g id="a_node9"><a xlink:href="../../df/d1f/class_mavlink.html#af06ea4dffa8d7b911690a99456a4814a" target="_top" xlink:title="Mavlink::broadcast\l_enabled">
<polygon fill="white" stroke="black" points="590,-166.5 590,-196.5 689,-196.5 689,-166.5 590,-166.5"/>
<text text-anchor="start" x="598" y="-184.5" font-family="Helvetica,sans-Serif" font-size="10.00">Mavlink::broadcast</text>
<text text-anchor="middle" x="639.5" y="-173.5" font-family="Helvetica,sans-Serif" font-size="10.00">_enabled</text>
</a>
</g>
</g>
<!-- Node6&#45;&gt;Node9 -->
<g id="edge8" class="edge"><title>Node6&#45;&gt;Node9</title>
<path fill="none" stroke="midnightblue" d="M548.799,-204.416C562.044,-201.032 576.463,-197.349 589.789,-193.944"/>
<polygon fill="midnightblue" stroke="midnightblue" points="547.758,-201.07 538.936,-206.936 549.491,-207.852 547.758,-201.07"/>
</g>
<!-- Node8 -->
<g id="node8" class="node"><title>Node8</title>
<g id="a_node8"><a xlink:href="../../de/d24/mavlink__main_8cpp.html#ab81e9b009119f143f3b54a1390b92427" target="_top" xlink:title="mavlink app start / stop handling function ">
<polygon fill="white" stroke="black" points="930.5,-216 930.5,-235 1007.5,-235 1007.5,-216 930.5,-216"/>
<text text-anchor="middle" x="969" y="-223" font-family="Helvetica,sans-Serif" font-size="10.00">mavlink_main</text>
</a>
</g>
</g>
<!-- Node7&#45;&gt;Node8 -->
<g id="edge7" class="edge"><title>Node7&#45;&gt;Node8</title>
<path fill="none" stroke="midnightblue" d="M687.803,-225.5C753.301,-225.5 870.305,-225.5 930.281,-225.5"/>
<polygon fill="midnightblue" stroke="midnightblue" points="687.75,-222 677.75,-225.5 687.75,-229 687.75,-222"/>
</g>
<!-- Node10 -->
<g id="node10" class="node"><title>Node10</title>
<g id="a_node10"><a xlink:href="../../df/d1f/class_mavlink.html#aacd190d885c0a9f521f0d7d0673f2b6f" target="_top" xlink:title="Flush the transmit buffer and send one MAVLink packet. ">
<polygon fill="white" stroke="black" points="738.5,-128 738.5,-147 850.5,-147 850.5,-128 738.5,-128"/>
<text text-anchor="middle" x="794.5" y="-135" font-family="Helvetica,sans-Serif" font-size="10.00">Mavlink::send_packet</text>
</a>
</g>
</g>
<!-- Node9&#45;&gt;Node10 -->
<g id="edge9" class="edge"><title>Node9&#45;&gt;Node10</title>
<path fill="none" stroke="midnightblue" d="M698.992,-164.679C719.677,-158.73 742.225,-152.246 760.107,-147.103"/>
<polygon fill="midnightblue" stroke="midnightblue" points="697.974,-161.33 689.331,-167.457 699.909,-168.057 697.974,-161.33"/>
</g>
<!-- Node18 -->
<g id="node18" class="node"><title>Node18</title>
<g id="a_node18"><a xlink:href="../../df/d1f/class_mavlink.html#afcac36b1b581d47b7181374d35edbd54" target="_top" xlink:title="Set the boot complete flag on all instances. ">
<polygon fill="white" stroke="black" points="725,-172 725,-191 864,-191 864,-172 725,-172"/>
<text text-anchor="middle" x="794.5" y="-179" font-family="Helvetica,sans-Serif" font-size="10.00">Mavlink::set_boot_complete</text>
</a>
</g>
</g>
<!-- Node9&#45;&gt;Node18 -->
<g id="edge18" class="edge"><title>Node9&#45;&gt;Node18</title>
<path fill="none" stroke="midnightblue" d="M699.593,-174.908C707.839,-174.756 716.371,-174.714 724.775,-174.781"/>
<polygon fill="midnightblue" stroke="midnightblue" points="699.242,-171.415 689.331,-175.159 699.413,-178.413 699.242,-171.415"/>
</g>
<!-- Node11 -->
<g id="node11" class="node"><title>Node11</title>
<g id="a_node11"><a xlink:href="../../de/d24/mavlink__main_8cpp.html#a646c2f3486de3d8574422fc4ef1940a2" target="_top" xlink:title="mavlink_end_uart_send">
<polygon fill="white" stroke="black" points="909.5,-128 909.5,-147 1028.5,-147 1028.5,-128 909.5,-128"/>
<text text-anchor="middle" x="969" y="-135" font-family="Helvetica,sans-Serif" font-size="10.00">mavlink_end_uart_send</text>
</a>
</g>
</g>
<!-- Node10&#45;&gt;Node11 -->
<g id="edge10" class="edge"><title>Node10&#45;&gt;Node11</title>
<path fill="none" stroke="midnightblue" d="M860.848,-137.5C876.772,-137.5 893.707,-137.5 909.3,-137.5"/>
<polygon fill="midnightblue" stroke="midnightblue" points="860.554,-134 850.554,-137.5 860.554,-141 860.554,-134"/>
</g>
<!-- Node12 -->
<g id="node12" class="node"><title>Node12</title>
<g id="a_node12"><a xlink:href="../../df/d1f/class_mavlink.html#a3aa1fb0ca3f0d77b10a8954618a51abb" target="_top" xlink:title="Get the manual input generation mode. ">
<polygon fill="white" stroke="black" points="908,-78.5 908,-108.5 1030,-108.5 1030,-78.5 908,-78.5"/>
<text text-anchor="start" x="916" y="-96.5" font-family="Helvetica,sans-Serif" font-size="10.00">Mavlink::get_manual</text>
<text text-anchor="middle" x="969" y="-85.5" font-family="Helvetica,sans-Serif" font-size="10.00">_input_mode_generation</text>
</a>
</g>
</g>
<!-- Node10&#45;&gt;Node12 -->
<g id="edge11" class="edge"><title>Node10&#45;&gt;Node12</title>
<path fill="none" stroke="midnightblue" d="M842.648,-125.474C863.109,-120.255 887.295,-114.086 908.937,-108.565"/>
<polygon fill="midnightblue" stroke="midnightblue" points="841.755,-122.09 832.93,-127.953 843.485,-128.872 841.755,-122.09"/>
</g>
<!-- Node13 -->
<g id="node13" class="node"><title>Node13</title>
<g id="a_node13"><a xlink:href="../../da/d89/class_mavlink_receiver.html#af99bf01b6ae13dab05c36c0125e179bc" target="_top" xlink:title="MavlinkReceiver::handle\l_message_manual_control">
<polygon fill="white" stroke="black" points="1076.5,-98.5 1076.5,-128.5 1209.5,-128.5 1209.5,-98.5 1076.5,-98.5"/>
<text text-anchor="start" x="1084.5" y="-116.5" font-family="Helvetica,sans-Serif" font-size="10.00">MavlinkReceiver::handle</text>
<text text-anchor="middle" x="1143" y="-105.5" font-family="Helvetica,sans-Serif" font-size="10.00">_message_manual_control</text>
</a>
</g>
</g>
<!-- Node12&#45;&gt;Node13 -->
<g id="edge12" class="edge"><title>Node12&#45;&gt;Node13</title>
<path fill="none" stroke="midnightblue" d="M1040.09,-101.65C1052.06,-103.042 1064.46,-104.483 1076.31,-105.861"/>
<polygon fill="midnightblue" stroke="midnightblue" points="1040.49,-98.1736 1030.16,-100.495 1039.69,-105.127 1040.49,-98.1736"/>
</g>
<!-- Node14 -->
<g id="node14" class="node"><title>Node14</title>
<g id="a_node14"><a xlink:href="../../da/d89/class_mavlink_receiver.html#ac939c806679dc4278968b1d3e865cc72" target="_top" xlink:title="MavlinkReceiver::handle\l_message">
<polygon fill="white" stroke="black" points="1255,-73.5 1255,-103.5 1379,-103.5 1379,-73.5 1255,-73.5"/>
<text text-anchor="start" x="1263" y="-91.5" font-family="Helvetica,sans-Serif" font-size="10.00">MavlinkReceiver::handle</text>
<text text-anchor="middle" x="1317" y="-80.5" font-family="Helvetica,sans-Serif" font-size="10.00">_message</text>
</a>
</g>
</g>
<!-- Node13&#45;&gt;Node14 -->
<g id="edge13" class="edge"><title>Node13&#45;&gt;Node14</title>
<path fill="none" stroke="midnightblue" d="M1219.76,-102.489C1231.52,-100.78 1243.53,-99.0333 1254.91,-97.3794"/>
<polygon fill="midnightblue" stroke="midnightblue" points="1218.91,-99.0752 1209.52,-103.977 1219.92,-106.002 1218.91,-99.0752"/>
</g>
<!-- Node15 -->
<g id="node15" class="node"><title>Node15</title>
<g id="a_node15"><a xlink:href="../../da/d89/class_mavlink_receiver.html#abf05ea2b60baafd446100f897f9274ab" target="_top" xlink:title="Receive data from UART. ">
<polygon fill="white" stroke="black" points="1422,-166.5 1422,-196.5 1549,-196.5 1549,-166.5 1422,-166.5"/>
<text text-anchor="start" x="1430" y="-184.5" font-family="Helvetica,sans-Serif" font-size="10.00">MavlinkReceiver::receive</text>
<text text-anchor="middle" x="1485.5" y="-173.5" font-family="Helvetica,sans-Serif" font-size="10.00">_thread</text>
</a>
</g>
</g>
<!-- Node14&#45;&gt;Node15 -->
<g id="edge14" class="edge"><title>Node14&#45;&gt;Node15</title>
<path fill="none" stroke="midnightblue" d="M1353.91,-108.557C1384.97,-125.909 1429.21,-150.62 1457.39,-166.357"/>
<polygon fill="midnightblue" stroke="midnightblue" points="1355.56,-105.47 1345.12,-103.649 1352.15,-111.581 1355.56,-105.47"/>
</g>
<!-- Node16 -->
<g id="node16" class="node"><title>Node16</title>
<g id="a_node16"><a xlink:href="../../da/d89/class_mavlink_receiver.html#a4e6d064186fe746bc3934959a991a908" target="_top" xlink:title="MavlinkReceiver::start\l_helper">
<polygon fill="white" stroke="black" points="1585,-185.5 1585,-215.5 1700,-215.5 1700,-185.5 1585,-185.5"/>
<text text-anchor="start" x="1593" y="-203.5" font-family="Helvetica,sans-Serif" font-size="10.00">MavlinkReceiver::start</text>
<text text-anchor="middle" x="1642.5" y="-192.5" font-family="Helvetica,sans-Serif" font-size="10.00">_helper</text>
</a>
</g>
</g>
<!-- Node15&#45;&gt;Node16 -->
<g id="edge15" class="edge"><title>Node15&#45;&gt;Node16</title>
<path fill="none" stroke="midnightblue" d="M1559.11,-190.401C1567.69,-191.453 1576.35,-192.514 1584.67,-193.534"/>
<polygon fill="midnightblue" stroke="midnightblue" points="1559.45,-186.916 1549.1,-189.173 1558.6,-193.864 1559.45,-186.916"/>
</g>
<!-- Node17 -->
<g id="node17" class="node"><title>Node17</title>
<g id="a_node17"><a xlink:href="../../da/d89/class_mavlink_receiver.html#aae6564d759626eeebeb19a9dfbdcaf6d" target="_top" xlink:title="Start the receiver thread. ">
<polygon fill="white" stroke="black" points="1736,-216.5 1736,-246.5 1863,-246.5 1863,-216.5 1736,-216.5"/>
<text text-anchor="start" x="1744" y="-234.5" font-family="Helvetica,sans-Serif" font-size="10.00">MavlinkReceiver::receive</text>
<text text-anchor="middle" x="1799.5" y="-223.5" font-family="Helvetica,sans-Serif" font-size="10.00">_start</text>
</a>
</g>
</g>
<!-- Node16&#45;&gt;Node17 -->
<g id="edge16" class="edge"><title>Node16&#45;&gt;Node17</title>
<path fill="none" stroke="midnightblue" d="M1710.24,-213.847C1718.76,-215.552 1727.46,-217.293 1735.92,-218.984"/>
<polygon fill="midnightblue" stroke="midnightblue" points="1710.83,-210.396 1700.34,-211.867 1709.46,-217.261 1710.83,-210.396"/>
</g>
<!-- Node17&#45;&gt;Node5 -->
<g id="edge17" class="edge"><title>Node17&#45;&gt;Node5</title>
<path fill="none" stroke="midnightblue" d="M1725.7,-243.218C1662.61,-252.354 1568.77,-263.5 1486.5,-263.5 638.5,-263.5 638.5,-263.5 638.5,-263.5 548.478,-263.5 444.43,-239.745 391.799,-226.011"/>
<polygon fill="midnightblue" stroke="midnightblue" points="1726.56,-246.629 1735.95,-241.713 1725.54,-239.704 1726.56,-246.629"/>
</g>
<!-- Node18&#45;&gt;Node8 -->
<g id="edge19" class="edge"><title>Node18&#45;&gt;Node8</title>
<path fill="none" stroke="midnightblue" d="M842.788,-193.562C870.453,-200.618 904.89,-209.402 930.643,-215.971"/>
<polygon fill="midnightblue" stroke="midnightblue" points="843.485,-190.128 832.93,-191.047 841.755,-196.91 843.485,-190.128"/>
</g>
<!-- Node18&#45;&gt;Node9 -->
<g id="edge20" class="edge"><title>Node18&#45;&gt;Node9</title>
<path fill="none" stroke="midnightblue" d="M714.655,-188.247C706.027,-188.226 697.439,-188.091 689.331,-187.841"/>
<polygon fill="midnightblue" stroke="midnightblue" points="714.785,-191.747 724.775,-188.219 714.766,-184.747 714.785,-191.747"/>
</g>
<!-- Node19 -->
<g id="node19" class="node"><title>Node19</title>
<g id="a_node19"><a xlink:href="../../df/d61/class_mavlink_parameters_manager.html#acd8734b77582ad7626f5230c1707e04c" target="_top" xlink:title="send a single param if a PARAM_REQUEST_LIST is in progress ">
<polygon fill="white" stroke="black" points="900,-166.5 900,-196.5 1038,-196.5 1038,-166.5 900,-166.5"/>
<text text-anchor="start" x="908" y="-184.5" font-family="Helvetica,sans-Serif" font-size="10.00">MavlinkParametersManager</text>
<text text-anchor="middle" x="969" y="-173.5" font-family="Helvetica,sans-Serif" font-size="10.00">::send_one</text>
</a>
</g>
</g>
<!-- Node18&#45;&gt;Node19 -->
<g id="edge21" class="edge"><title>Node18&#45;&gt;Node19</title>
<path fill="none" stroke="midnightblue" d="M874.448,-181.5C882.93,-181.5 891.506,-181.5 899.846,-181.5"/>
<polygon fill="midnightblue" stroke="midnightblue" points="874.172,-178 864.172,-181.5 874.172,-185 874.172,-178"/>
</g>
<!-- Node20 -->
<g id="node20" class="node"><title>Node20</title>
<g id="a_node20"><a xlink:href="../../df/d61/class_mavlink_parameters_manager.html#a3a6dff51ef5aba4f3dda19610510a45d" target="_top" xlink:title="Handle any open param send transfer. ">
<polygon fill="white" stroke="black" points="1074,-166.5 1074,-196.5 1212,-196.5 1212,-166.5 1074,-166.5"/>
<text text-anchor="start" x="1082" y="-184.5" font-family="Helvetica,sans-Serif" font-size="10.00">MavlinkParametersManager</text>
<text text-anchor="middle" x="1143" y="-173.5" font-family="Helvetica,sans-Serif" font-size="10.00">::send_params</text>
</a>
</g>
</g>
<!-- Node19&#45;&gt;Node20 -->
<g id="edge22" class="edge"><title>Node19&#45;&gt;Node20</title>
<path fill="none" stroke="midnightblue" d="M1048.64,-181.5C1057.03,-181.5 1065.51,-181.5 1073.76,-181.5"/>
<polygon fill="midnightblue" stroke="midnightblue" points="1048.47,-178 1038.47,-181.5 1048.47,-185 1048.47,-178"/>
</g>
<!-- Node21 -->
<g id="node21" class="node"><title>Node21</title>
<g id="a_node21"><a xlink:href="../../df/d61/class_mavlink_parameters_manager.html#adbcd587c4ec1c0b94fe259047f8ec82e" target="_top" xlink:title="Handle sending of messages. ">
<polygon fill="white" stroke="black" points="1248,-166.5 1248,-196.5 1386,-196.5 1386,-166.5 1248,-166.5"/>
<text text-anchor="start" x="1256" y="-184.5" font-family="Helvetica,sans-Serif" font-size="10.00">MavlinkParametersManager</text>
<text text-anchor="middle" x="1317" y="-173.5" font-family="Helvetica,sans-Serif" font-size="10.00">::send</text>
</a>
</g>
</g>
<!-- Node20&#45;&gt;Node21 -->
<g id="edge23" class="edge"><title>Node20&#45;&gt;Node21</title>
<path fill="none" stroke="midnightblue" d="M1222.64,-181.5C1231.03,-181.5 1239.51,-181.5 1247.76,-181.5"/>
<polygon fill="midnightblue" stroke="midnightblue" points="1222.47,-178 1212.47,-181.5 1222.47,-185 1222.47,-178"/>
</g>
<!-- Node21&#45;&gt;Node15 -->
<g id="edge24" class="edge"><title>Node21&#45;&gt;Node15</title>
<path fill="none" stroke="midnightblue" d="M1396.21,-181.5C1404.77,-181.5 1413.41,-181.5 1421.76,-181.5"/>
<polygon fill="midnightblue" stroke="midnightblue" points="1396.2,-178 1386.2,-181.5 1396.2,-185 1396.2,-178"/>
</g>
<!-- Node24 -->
<g id="node24" class="node"><title>Node24</title>
<g id="a_node24"><a xlink:href="../../da/d89/class_mavlink_receiver.html#a5345e8389c1ac373ab61074c9b849e22" target="_top" xlink:title="MavlinkReceiver::handle\l_message_command_long">
<polygon fill="white" stroke="black" points="1076.5,-49.5 1076.5,-79.5 1209.5,-79.5 1209.5,-49.5 1076.5,-49.5"/>
<text text-anchor="start" x="1084.5" y="-67.5" font-family="Helvetica,sans-Serif" font-size="10.00">MavlinkReceiver::handle</text>
<text text-anchor="middle" x="1143" y="-56.5" font-family="Helvetica,sans-Serif" font-size="10.00">_message_command_long</text>
</a>
</g>
</g>
<!-- Node23&#45;&gt;Node24 -->
<g id="edge27" class="edge"><title>Node23&#45;&gt;Node24</title>
<path fill="none" stroke="midnightblue" d="M1046.06,-53.3442C1056.2,-54.5227 1066.52,-55.7229 1076.45,-56.8782"/>
<polygon fill="midnightblue" stroke="midnightblue" points="1046.35,-49.8538 1036.01,-52.1753 1045.54,-56.807 1046.35,-49.8538"/>
</g>
<!-- Node25 -->
<g id="node25" class="node"><title>Node25</title>
<g id="a_node25"><a xlink:href="../../da/d89/class_mavlink_receiver.html#aa94397b70b0418675a2934b022de6df4" target="_top" xlink:title="MavlinkReceiver::handle\l_message_command_int">
<polygon fill="white" stroke="black" points="1080.5,-0.5 1080.5,-30.5 1205.5,-30.5 1205.5,-0.5 1080.5,-0.5"/>
<text text-anchor="start" x="1088.5" y="-18.5" font-family="Helvetica,sans-Serif" font-size="10.00">MavlinkReceiver::handle</text>
<text text-anchor="middle" x="1143" y="-7.5" font-family="Helvetica,sans-Serif" font-size="10.00">_message_command_int</text>
</a>
</g>
</g>
<!-- Node23&#45;&gt;Node25 -->
<g id="edge29" class="edge"><title>Node23&#45;&gt;Node25</title>
<path fill="none" stroke="midnightblue" d="M1046.03,-31.6813C1057.53,-29.7429 1069.26,-27.7638 1080.41,-25.8852"/>
<polygon fill="midnightblue" stroke="midnightblue" points="1045.29,-28.2568 1036.01,-33.3708 1046.45,-35.1594 1045.29,-28.2568"/>
</g>
<!-- Node24&#45;&gt;Node14 -->
<g id="edge28" class="edge"><title>Node24&#45;&gt;Node14</title>
<path fill="none" stroke="midnightblue" d="M1219.76,-75.071C1231.52,-76.7115 1243.53,-78.3881 1254.91,-79.9758"/>
<polygon fill="midnightblue" stroke="midnightblue" points="1219.9,-71.5575 1209.52,-73.6418 1218.94,-78.4903 1219.9,-71.5575"/>
</g>
<!-- Node25&#45;&gt;Node14 -->
<g id="edge30" class="edge"><title>Node25&#45;&gt;Node14</title>
<path fill="none" stroke="midnightblue" d="M1198.38,-34.1377C1203.01,-35.8923 1207.6,-37.6922 1212,-39.5 1237.29,-49.8908 1265.3,-63.1935 1285.87,-73.3155"/>
<polygon fill="midnightblue" stroke="midnightblue" points="1199.46,-30.8071 1188.87,-30.6121 1197.03,-37.3705 1199.46,-30.8071"/>
</g>
</g>
</svg>
        <g id="navigator" transform="translate(0 0)" fill="#404254">
                <rect fill="#f2f5e9" fill-opacity="0.5" stroke="#606060" stroke-width=".5" x="0" y="0" width="60" height="60"/>
                <use id="zoomplus" xlink:href="#zoomPlus" x="17" y="9" onmousedown="handleZoom(evt,'in')"/>
                <use id="zoomminus" xlink:href="#zoomMin" x="42" y="9" onmousedown="handleZoom(evt,'out')"/>
                <use id="reset" xlink:href="#resetDef" x="30" y="36" onmousedown="handleReset()"/>
                <g id="arrowUp" xlink:href="#dirArrow" transform="translate(30 24)" onmousedown="handlePan(0,-1)">
                  <use xlink:href="#rim" fill="#404040">
                        <set attributeName="fill" to="#808080" begin="arrowUp.mouseover" end="arrowUp.mouseout"/>
                  </use>
                  <path fill="none" stroke="white" stroke-width="1.5" d="M0,-3.0v7 M-2.5,-0.5L0,-3.0L2.5,-0.5"/>
                </g>
                <g id="arrowRight" xlink:href="#dirArrow" transform="rotate(90) translate(36 -43)" onmousedown="handlePan(1,0)">
                  <use xlink:href="#rim" fill="#404040">
                        <set attributeName="fill" to="#808080" begin="arrowRight.mouseover" end="arrowRight.mouseout"/>
                  </use>
                  <path fill="none" stroke="white" stroke-width="1.5" d="M0,-3.0v7 M-2.5,-0.5L0,-3.0L2.5,-0.5"/>
                </g>
                <g id="arrowDown" xlink:href="#dirArrow" transform="rotate(180) translate(-30 -48)" onmousedown="handlePan(0,1)">
                  <use xlink:href="#rim" fill="#404040">
                        <set attributeName="fill" to="#808080" begin="arrowDown.mouseover" end="arrowDown.mouseout"/>
                  </use>
                  <path fill="none" stroke="white" stroke-width="1.5" d="M0,-3.0v7 M-2.5,-0.5L0,-3.0L2.5,-0.5"/>
                </g>
                <g id="arrowLeft" xlink:href="#dirArrow" transform="rotate(270) translate(-36 17)" onmousedown="handlePan(-1,0)">
                  <use xlink:href="#rim" fill="#404040">
                        <set attributeName="fill" to="#808080" begin="arrowLeft.mouseover" end="arrowLeft.mouseout"/>
                  </use>
                  <path fill="none" stroke="white" stroke-width="1.5" d="M0,-3.0v7 M-2.5,-0.5L0,-3.0L2.5,-0.5"/>
                </g>
        </g>
        <svg viewBox="0 0 15 15" width="100%" height="30px" preserveAspectRatio="xMaxYMin meet">
         <g id="arrow_out" transform="scale(0.3 0.3)">
          <a xlink:href="board__common_8h_aef349aec538ccf20cd787fc4348dab60_icgraph_org.svg" target="_base">
           <rect id="button" ry="5" rx="5" y="6" x="6" height="38" width="38"
                fill="#f2f5e9" fill-opacity="0.5" stroke="#606060" stroke-width="1.0"/>
           <path id="arrow"
             d="M 11.500037,31.436501 C 11.940474,20.09759 22.043105,11.32322 32.158766,21.979434 L 37.068811,17.246167 C 37.068811,17.246167 37.088388,32 37.088388,32 L 22.160133,31.978069 C 22.160133,31.978069 26.997745,27.140456 26.997745,27.140456 C 18.528582,18.264221 13.291696,25.230495 11.500037,31.436501 z"
             style="fill:#404040;"/>
          </a>
         </g>
        </svg>
</svg>
