<?xml version="1.0" encoding="UTF-8" standalone="no"?>
<!DOCTYPE svg PUBLIC "-//W3C//DTD SVG 1.1//EN"
 "http://www.w3.org/Graphics/SVG/1.1/DTD/svg11.dtd">
<!-- Generated by graphviz version 2.38.0 (20140413.2041)
 -->
<!-- Title: adc_measure Pages: 1 -->
<svg width="213pt" height="142pt"
 viewBox="0.00 0.00 213.00 142.00" xmlns="http://www.w3.org/2000/svg" xmlns:xlink="http://www.w3.org/1999/xlink">
<g id="graph0" class="graph" transform="scale(1 1) rotate(0) translate(4 138)">
<title>adc_measure</title>
<polygon fill="white" stroke="none" points="-4,4 -4,-138 209,-138 209,4 -4,4"/>
<!-- Node1 -->
<g id="node1" class="node"><title>Node1</title>
<polygon fill="#bfbfbf" stroke="black" points="0,-57.5 0,-76.5 75,-76.5 75,-57.5 0,-57.5"/>
<text text-anchor="middle" x="37.5" y="-64.5" font-family="Helvetica,sans-Serif" font-size="10.00">adc_measure</text>
</g>
<!-- Node2 -->
<g id="node2" class="node"><title>Node2</title>
<g id="a_node2"><a xlink:href="../../d6/d10/drv__hrt_8h.html#a1450e339b7c5b8d47656500167a6676d" target="_top" xlink:title="Get absolute time in [us] (does not wrap). ">
<polygon fill="white" stroke="black" points="111,-114.5 111,-133.5 205,-133.5 205,-114.5 111,-114.5"/>
<text text-anchor="middle" x="158" y="-121.5" font-family="Helvetica,sans-Serif" font-size="10.00">hrt_absolute_time</text>
</a>
</g>
</g>
<!-- Node1&#45;&gt;Node2 -->
<g id="edge1" class="edge"><title>Node1&#45;&gt;Node2</title>
<path fill="none" stroke="midnightblue" d="M55.5638,-76.5073C70.1171,-84.479 91.6889,-95.9738 111,-105 114.875,-106.811 118.971,-108.632 123.058,-110.392"/>
<polygon fill="midnightblue" stroke="midnightblue" points="121.895,-113.699 132.469,-114.352 124.61,-107.247 121.895,-113.699"/>
</g>
<!-- Node3 -->
<g id="node3" class="node"><title>Node3</title>
<g id="a_node3"><a xlink:href="../../d6/d10/drv__hrt_8h.html#a2bf33ff8e80c1112813843ddd3b5b55d" target="_top" xlink:title="Compute the delta between a timestamp taken in the past and now. ">
<polygon fill="white" stroke="black" points="112.5,-76.5 112.5,-95.5 203.5,-95.5 203.5,-76.5 112.5,-76.5"/>
<text text-anchor="middle" x="158" y="-83.5" font-family="Helvetica,sans-Serif" font-size="10.00">hrt_elapsed_time</text>
</a>
</g>
</g>
<!-- Node1&#45;&gt;Node3 -->
<g id="edge2" class="edge"><title>Node1&#45;&gt;Node3</title>
<path fill="none" stroke="midnightblue" d="M75.0208,-72.8557C83.7105,-74.2489 93.1689,-75.7655 102.471,-77.257"/>
<polygon fill="midnightblue" stroke="midnightblue" points="102.032,-80.7312 112.46,-78.8586 103.14,-73.8195 102.032,-80.7312"/>
</g>
<!-- Node4 -->
<g id="node4" class="node"><title>Node4</title>
<g id="a_node4"><a xlink:href="../../dd/d78/perf__counter_8c.html#a29199d9ba42a60894e4f593f677ff2d7" target="_top" xlink:title="Begin a performance event. ">
<polygon fill="white" stroke="black" points="127,-38.5 127,-57.5 189,-57.5 189,-38.5 127,-38.5"/>
<text text-anchor="middle" x="158" y="-45.5" font-family="Helvetica,sans-Serif" font-size="10.00">perf_begin</text>
</a>
</g>
</g>
<!-- Node1&#45;&gt;Node4 -->
<g id="edge3" class="edge"><title>Node1&#45;&gt;Node4</title>
<path fill="none" stroke="midnightblue" d="M75.0208,-61.1443C88.2434,-59.0243 103.246,-56.6188 116.77,-54.4504"/>
<polygon fill="midnightblue" stroke="midnightblue" points="117.449,-57.8862 126.769,-52.8471 116.341,-50.9745 117.449,-57.8862"/>
</g>
<!-- Node5 -->
<g id="node5" class="node"><title>Node5</title>
<g id="a_node5"><a xlink:href="../../dd/d78/perf__counter_8c.html#a8a89ea6639744897e494e5d2139751aa" target="_top" xlink:title="End a performance event. ">
<polygon fill="white" stroke="black" points="131,-0.5 131,-19.5 185,-19.5 185,-0.5 131,-0.5"/>
<text text-anchor="middle" x="158" y="-7.5" font-family="Helvetica,sans-Serif" font-size="10.00">perf_end</text>
</a>
</g>
</g>
<!-- Node1&#45;&gt;Node5 -->
<g id="edge4" class="edge"><title>Node1&#45;&gt;Node5</title>
<path fill="none" stroke="midnightblue" d="M55.5638,-57.4927C70.1171,-49.521 91.6889,-38.0262 111,-29 114.875,-27.1889 118.971,-25.3679 123.058,-23.6084"/>
<polygon fill="midnightblue" stroke="midnightblue" points="124.61,-26.7528 132.469,-19.6484 121.895,-20.3007 124.61,-26.7528"/>
</g>
</g>
</svg>
