<?xml version="1.0" encoding="UTF-8" standalone="no"?>
<!DOCTYPE svg PUBLIC "-//W3C//DTD SVG 1.1//EN"
 "http://www.w3.org/Graphics/SVG/1.1/DTD/svg11.dtd">
<!-- Generated by graphviz version 2.38.0 (20140413.2041)
 -->
<!-- Title: src/lib/controllib/block/BlockParam.cpp Pages: 1 -->
<!--zoomable 375 -->
<svg id="main" version="1.1" xmlns="http://www.w3.org/2000/svg" xmlns:xlink="http://www.w3.org/1999/xlink" xml:space="preserve" onload="init(evt)">
<style type="text/css"><![CDATA[
.edge:hover path { stroke: red; }
.edge:hover polygon { stroke: red; fill: red; }
]]></style>
<script type="text/javascript"><![CDATA[
var edges = document.getElementsByTagName('g');
if (edges && edges.length) {
  for (var i=0;i<edges.length;i++) {
    if (edges[i].id.substr(0,4)=='edge') {
      edges[i].setAttribute('class','edge');
    }
  }
}
]]></script>
        <defs>
                <circle id="rim" cx="0" cy="0" r="7"/>
                <circle id="rim2" cx="0" cy="0" r="3.5"/>
                <g id="zoomPlus">
                        <use xlink:href="#rim" fill="#404040">
                                <set attributeName="fill" to="#808080" begin="zoomplus.mouseover" end="zoomplus.mouseout"/>
                        </use>
                        <path d="M-4,0h8M0,-4v8" fill="none" stroke="white" stroke-width="1.5" pointer-events="none"/>
                </g>
                <g id="zoomMin">
                        <use xlink:href="#rim" fill="#404040">
                                <set attributeName="fill" to="#808080" begin="zoomminus.mouseover" end="zoomminus.mouseout"/>
                        </use>
                        <path d="M-4,0h8" fill="none" stroke="white" stroke-width="1.5" pointer-events="none"/>
                </g>
                <g id="dirArrow">
                        <path fill="none" stroke="white" stroke-width="1.5" d="M0,-3.0v7 M-2.5,-0.5L0,-3.0L2.5,-0.5"/>
                </g>
               <g id="resetDef">
                       <use xlink:href="#rim2" fill="#404040">
                               <set attributeName="fill" to="#808080" begin="reset.mouseover" end="reset.mouseout"/>
                       </use>
               </g>
        </defs>

<script type="text/javascript">
var viewWidth = 570;
var viewHeight = 375;
var sectionId = 'dynsection-0';
</script>
<script xlink:href="../../svgpan.js"/>
<svg id="graph" class="graph">
<g id="viewport">
<title>src/lib/controllib/block/BlockParam.cpp</title>
<polygon fill="white" stroke="none" points="-4,4 -4,-371 565.69,-371 565.69,4 -4,4"/>
<!-- Node1 -->
<g id="node1" class="node"><title>Node1</title>
<polygon fill="#bfbfbf" stroke="black" points="20.5,-336.5 20.5,-366.5 138.5,-366.5 138.5,-336.5 20.5,-336.5"/>
<text text-anchor="start" x="28.5" y="-354.5" font-family="Helvetica,sans-Serif" font-size="10.00">src/lib/controllib</text>
<text text-anchor="middle" x="79.5" y="-343.5" font-family="Helvetica,sans-Serif" font-size="10.00">/block/BlockParam.cpp</text>
</g>
<!-- Node2 -->
<g id="node2" class="node"><title>Node2</title>
<g id="a_node2"><a xlink:href="../../d0/ddd/_block_param_8hpp.html" target="_top" xlink:title="Controller library code. ">
<polygon fill="white" stroke="black" points="35,-280.5 35,-299.5 124,-299.5 124,-280.5 35,-280.5"/>
<text text-anchor="middle" x="79.5" y="-287.5" font-family="Helvetica,sans-Serif" font-size="10.00">BlockParam.hpp</text>
</a>
</g>
</g>
<!-- Node1&#45;&gt;Node2 -->
<g id="edge1" class="edge"><title>Node1&#45;&gt;Node2</title>
<path fill="none" stroke="midnightblue" d="M79.5,-336.399C79.5,-328.466 79.5,-318.458 79.5,-309.858"/>
<polygon fill="midnightblue" stroke="midnightblue" points="83.0001,-309.658 79.5,-299.658 76.0001,-309.658 83.0001,-309.658"/>
</g>
<!-- Node4 -->
<g id="node4" class="node"><title>Node4</title>
<g id="a_node4"><a xlink:href="../../dc/d72/_list_8hpp.html" target="_top" xlink:title="A linked list. ">
<polygon fill="white" stroke="black" points="40,-112.5 40,-131.5 139,-131.5 139,-112.5 40,-112.5"/>
<text text-anchor="middle" x="89.5" y="-119.5" font-family="Helvetica,sans-Serif" font-size="10.00">containers/List.hpp</text>
</a>
</g>
</g>
<!-- Node1&#45;&gt;Node4 -->
<g id="edge35" class="edge"><title>Node1&#45;&gt;Node4</title>
<path fill="none" stroke="midnightblue" d="M57.1271,-336.346C45.3301,-327.499 31.9895,-314.954 25.5,-300 21.9614,-291.846 23.8799,-288.74 25.5,-280 35.3428,-226.901 63.9493,-169.273 79.3691,-140.88"/>
<polygon fill="midnightblue" stroke="midnightblue" points="82.6119,-142.249 84.3942,-131.805 76.488,-138.858 82.6119,-142.249"/>
</g>
<!-- Node21 -->
<g id="node21" class="node"><title>Node21</title>
<polygon fill="white" stroke="#bfbfbf" points="142.5,-280.5 142.5,-299.5 188.5,-299.5 188.5,-280.5 142.5,-280.5"/>
<text text-anchor="middle" x="165.5" y="-287.5" font-family="Helvetica,sans-Serif" font-size="10.00">cstring</text>
</g>
<!-- Node1&#45;&gt;Node21 -->
<g id="edge34" class="edge"><title>Node1&#45;&gt;Node21</title>
<path fill="none" stroke="midnightblue" d="M99.8808,-336.399C113.408,-327.04 131.111,-314.792 144.72,-305.377"/>
<polygon fill="midnightblue" stroke="midnightblue" points="146.754,-308.226 152.986,-299.658 142.771,-302.469 146.754,-308.226"/>
</g>
<!-- Node3 -->
<g id="node3" class="node"><title>Node3</title>
<g id="a_node3"><a xlink:href="../../d3/d25/_block_8hpp.html" target="_top" xlink:title="Controller library code. ">
<polygon fill="white" stroke="black" points="78.5,-224.5 78.5,-243.5 138.5,-243.5 138.5,-224.5 78.5,-224.5"/>
<text text-anchor="middle" x="108.5" y="-231.5" font-family="Helvetica,sans-Serif" font-size="10.00">Block.hpp</text>
</a>
</g>
</g>
<!-- Node2&#45;&gt;Node3 -->
<g id="edge2" class="edge"><title>Node2&#45;&gt;Node3</title>
<path fill="none" stroke="midnightblue" d="M79.1224,-280.083C81.584,-272.534 87.121,-261.495 92.9062,-252.23"/>
<polygon fill="midnightblue" stroke="midnightblue" points="95.9424,-253.989 98.6693,-243.751 90.1531,-250.054 95.9424,-253.989"/>
</g>
<!-- Node2&#45;&gt;Node4 -->
<g id="edge28" class="edge"><title>Node2&#45;&gt;Node4</title>
<path fill="none" stroke="midnightblue" d="M77.0176,-280.467C74.5434,-271.485 70.9147,-256.888 69.5,-244 65.4887,-207.458 75.9855,-165.167 83.2453,-141.505"/>
<polygon fill="midnightblue" stroke="midnightblue" points="86.6494,-142.352 86.3806,-131.76 79.9858,-140.208 86.6494,-142.352"/>
</g>
<!-- Node16 -->
<g id="node16" class="node"><title>Node16</title>
<g id="a_node16"><a xlink:href="../../df/dd0/px4__defines_8h.html" target="_top" xlink:title="Generally used magic defines. ">
<polygon fill="white" stroke="black" points="0,-0.5 0,-19.5 77,-19.5 77,-0.5 0,-0.5"/>
<text text-anchor="middle" x="38.5" y="-7.5" font-family="Helvetica,sans-Serif" font-size="10.00">px4_defines.h</text>
</a>
</g>
</g>
<!-- Node2&#45;&gt;Node16 -->
<g id="edge29" class="edge"><title>Node2&#45;&gt;Node16</title>
<path fill="none" stroke="midnightblue" d="M69.4664,-280.433C50.551,-263.268 11.5,-222.556 11.5,-179 11.5,-179 11.5,-179 11.5,-121 11.5,-87.8606 23.201,-50.6823 31.1973,-29.1445"/>
<polygon fill="midnightblue" stroke="midnightblue" points="34.5216,-30.2517 34.8587,-19.6622 27.9915,-27.7302 34.5216,-30.2517"/>
</g>
<!-- Node20 -->
<g id="node20" class="node"><title>Node20</title>
<g id="a_node20"><a xlink:href="../../d5/d33/param_8h.html" target="_top" xlink:title="Global flash based parameter store. ">
<polygon fill="white" stroke="black" points="452.5,-112.5 452.5,-131.5 556.5,-131.5 556.5,-112.5 452.5,-112.5"/>
<text text-anchor="middle" x="504.5" y="-119.5" font-family="Helvetica,sans-Serif" font-size="10.00">parameters/param.h</text>
</a>
</g>
</g>
<!-- Node2&#45;&gt;Node20 -->
<g id="edge30" class="edge"><title>Node2&#45;&gt;Node20</title>
<path fill="none" stroke="midnightblue" d="M108.988,-280.417C162.793,-264.433 280.138,-228.07 375.5,-188 413.017,-172.236 454.803,-150.34 480.372,-136.42"/>
<polygon fill="midnightblue" stroke="midnightblue" points="482.25,-139.382 489.335,-131.505 478.884,-133.245 482.25,-139.382"/>
</g>
<!-- Node3&#45;&gt;Node2 -->
<g id="edge27" class="edge"><title>Node3&#45;&gt;Node2</title>
<path fill="none" stroke="midnightblue" d="M108.931,-243.751C106.515,-251.248 101.003,-262.275 95.2214,-271.566"/>
<polygon fill="midnightblue" stroke="midnightblue" points="92.163,-269.84 89.4551,-280.083 97.9595,-273.764 92.163,-269.84"/>
</g>
<!-- Node3&#45;&gt;Node4 -->
<g id="edge3" class="edge"><title>Node3&#45;&gt;Node4</title>
<path fill="none" stroke="midnightblue" d="M107.009,-224.368C103.943,-206.617 96.8696,-165.666 92.7123,-141.597"/>
<polygon fill="midnightblue" stroke="midnightblue" points="96.1351,-140.85 90.984,-131.591 89.2372,-142.041 96.1351,-140.85"/>
</g>
<!-- Node5 -->
<g id="node5" class="node"><title>Node5</title>
<g id="a_node5"><a xlink:href="../../dc/de7/_publication_8hpp.html" target="_top" xlink:title="uORB/Publication.hpp">
<polygon fill="white" stroke="black" points="254,-168.5 254,-187.5 367,-187.5 367,-168.5 254,-168.5"/>
<text text-anchor="middle" x="310.5" y="-175.5" font-family="Helvetica,sans-Serif" font-size="10.00">uORB/Publication.hpp</text>
</a>
</g>
</g>
<!-- Node3&#45;&gt;Node5 -->
<g id="edge4" class="edge"><title>Node3&#45;&gt;Node5</title>
<path fill="none" stroke="midnightblue" d="M138.741,-224.916C173.194,-215.706 229.72,-200.595 268.451,-190.241"/>
<polygon fill="midnightblue" stroke="midnightblue" points="269.623,-193.55 278.38,-187.587 267.815,-186.788 269.623,-193.55"/>
</g>
<!-- Node19 -->
<g id="node19" class="node"><title>Node19</title>
<g id="a_node19"><a xlink:href="../../d7/d2a/_subscription_8hpp.html" target="_top" xlink:title="uORB/Subscription.hpp">
<polygon fill="white" stroke="black" points="117,-168.5 117,-187.5 236,-187.5 236,-168.5 117,-168.5"/>
<text text-anchor="middle" x="176.5" y="-175.5" font-family="Helvetica,sans-Serif" font-size="10.00">uORB/Subscription.hpp</text>
</a>
</g>
</g>
<!-- Node3&#45;&gt;Node19 -->
<g id="edge22" class="edge"><title>Node3&#45;&gt;Node19</title>
<path fill="none" stroke="midnightblue" d="M119.425,-224.324C129.675,-216.185 145.221,-203.839 157.501,-194.087"/>
<polygon fill="midnightblue" stroke="midnightblue" points="159.721,-196.794 165.376,-187.834 155.368,-191.312 159.721,-196.794"/>
</g>
<!-- Node5&#45;&gt;Node4 -->
<g id="edge9" class="edge"><title>Node5&#45;&gt;Node4</title>
<path fill="none" stroke="midnightblue" d="M275.482,-168.444C237.252,-159.102 175.933,-144.119 134.243,-133.933"/>
<polygon fill="midnightblue" stroke="midnightblue" points="134.899,-130.49 124.354,-131.516 133.238,-137.29 134.899,-130.49"/>
</g>
<!-- Node6 -->
<g id="node6" class="node"><title>Node6</title>
<g id="a_node6"><a xlink:href="../../db/dd6/u_o_r_b_8h.html" target="_top" xlink:title="API for the uORB lightweight object broker. ">
<polygon fill="white" stroke="black" points="337.5,-112.5 337.5,-131.5 419.5,-131.5 419.5,-112.5 337.5,-112.5"/>
<text text-anchor="middle" x="378.5" y="-119.5" font-family="Helvetica,sans-Serif" font-size="10.00">uORB/uORB.h</text>
</a>
</g>
</g>
<!-- Node5&#45;&gt;Node6 -->
<g id="edge5" class="edge"><title>Node5&#45;&gt;Node6</title>
<path fill="none" stroke="midnightblue" d="M321.425,-168.324C331.675,-160.185 347.221,-147.839 359.501,-138.087"/>
<polygon fill="midnightblue" stroke="midnightblue" points="361.721,-140.794 367.376,-131.834 357.368,-135.312 361.721,-140.794"/>
</g>
<!-- Node10 -->
<g id="node10" class="node"><title>Node10</title>
<g id="a_node10"><a xlink:href="../../d6/d40/err_8h.html" target="_top" xlink:title="Simple error/warning functions, heavily inspired by the BSD functions of the same names...">
<polygon fill="white" stroke="black" points="221,-112.5 221,-131.5 302,-131.5 302,-112.5 221,-112.5"/>
<text text-anchor="middle" x="261.5" y="-119.5" font-family="Helvetica,sans-Serif" font-size="10.00">systemlib/err.h</text>
</a>
</g>
</g>
<!-- Node5&#45;&gt;Node10 -->
<g id="edge10" class="edge"><title>Node5&#45;&gt;Node10</title>
<path fill="none" stroke="midnightblue" d="M302.409,-168.083C295.345,-160.298 284.912,-148.801 276.351,-139.367"/>
<polygon fill="midnightblue" stroke="midnightblue" points="278.753,-136.805 269.441,-131.751 273.569,-141.509 278.753,-136.805"/>
</g>
<!-- Node7 -->
<g id="node7" class="node"><title>Node7</title>
<polygon fill="white" stroke="#bfbfbf" points="406.5,-56.5 406.5,-75.5 474.5,-75.5 474.5,-56.5 406.5,-56.5"/>
<text text-anchor="middle" x="440.5" y="-63.5" font-family="Helvetica,sans-Serif" font-size="10.00">sys/types.h</text>
</g>
<!-- Node6&#45;&gt;Node7 -->
<g id="edge6" class="edge"><title>Node6&#45;&gt;Node7</title>
<path fill="none" stroke="midnightblue" d="M388.461,-112.324C397.627,-104.341 411.437,-92.3128 422.528,-82.6529"/>
<polygon fill="midnightblue" stroke="midnightblue" points="425.115,-85.041 430.357,-75.8339 420.518,-79.7624 425.115,-85.041"/>
</g>
<!-- Node8 -->
<g id="node8" class="node"><title>Node8</title>
<polygon fill="white" stroke="#bfbfbf" points="394,-0.5 394,-19.5 443,-19.5 443,-0.5 394,-0.5"/>
<text text-anchor="middle" x="418.5" y="-7.5" font-family="Helvetica,sans-Serif" font-size="10.00">stdint.h</text>
</g>
<!-- Node6&#45;&gt;Node8 -->
<g id="edge7" class="edge"><title>Node6&#45;&gt;Node8</title>
<path fill="none" stroke="midnightblue" d="M380.556,-112.451C383.674,-99.8925 390.035,-75.8021 397.5,-56 400.921,-46.9245 405.391,-37.1351 409.327,-29.012"/>
<polygon fill="midnightblue" stroke="midnightblue" points="412.593,-30.3058 413.908,-19.793 406.324,-27.1907 412.593,-30.3058"/>
</g>
<!-- Node9 -->
<g id="node9" class="node"><title>Node9</title>
<polygon fill="white" stroke="#bfbfbf" points="492.5,-56.5 492.5,-75.5 548.5,-75.5 548.5,-56.5 492.5,-56.5"/>
<text text-anchor="middle" x="520.5" y="-63.5" font-family="Helvetica,sans-Serif" font-size="10.00">stdbool.h</text>
</g>
<!-- Node6&#45;&gt;Node9 -->
<g id="edge8" class="edge"><title>Node6&#45;&gt;Node9</title>
<path fill="none" stroke="midnightblue" d="M401,-112.444C424.577,-103.478 461.822,-89.314 488.464,-79.1827"/>
<polygon fill="midnightblue" stroke="midnightblue" points="490.002,-82.3424 498.105,-75.5164 487.514,-75.7995 490.002,-82.3424"/>
</g>
<!-- Node11 -->
<g id="node11" class="node"><title>Node11</title>
<g id="a_node11"><a xlink:href="../../d7/d53/px4__log_8h.html" target="_top" xlink:title="Platform dependant logging/debug implementation. ">
<polygon fill="white" stroke="black" points="187,-56.5 187,-75.5 246,-75.5 246,-56.5 187,-56.5"/>
<text text-anchor="middle" x="216.5" y="-63.5" font-family="Helvetica,sans-Serif" font-size="10.00">px4_log.h</text>
</a>
</g>
</g>
<!-- Node10&#45;&gt;Node11 -->
<g id="edge11" class="edge"><title>Node10&#45;&gt;Node11</title>
<path fill="none" stroke="midnightblue" d="M254.069,-112.083C247.647,-104.377 238.194,-93.0333 230.378,-83.6531"/>
<polygon fill="midnightblue" stroke="midnightblue" points="232.883,-81.1927 223.793,-75.7511 227.506,-85.674 232.883,-81.1927"/>
</g>
<!-- Node15 -->
<g id="node15" class="node"><title>Node15</title>
<polygon fill="white" stroke="#bfbfbf" points="323.5,-0.5 323.5,-19.5 375.5,-19.5 375.5,-0.5 323.5,-0.5"/>
<text text-anchor="middle" x="349.5" y="-7.5" font-family="Helvetica,sans-Serif" font-size="10.00">stdarg.h</text>
</g>
<!-- Node10&#45;&gt;Node15 -->
<g id="edge19" class="edge"><title>Node10&#45;&gt;Node15</title>
<path fill="none" stroke="midnightblue" d="M264.387,-112.324C269.049,-99.1798 279.183,-73.8624 293.5,-56 302.979,-44.1742 316.076,-33.4361 327.222,-25.4176"/>
<polygon fill="midnightblue" stroke="midnightblue" points="329.4,-28.1669 335.635,-19.6011 325.419,-22.4089 329.4,-28.1669"/>
</g>
<!-- Node17 -->
<g id="node17" class="node"><title>Node17</title>
<polygon fill="white" stroke="#bfbfbf" points="303,-56.5 303,-75.5 350,-75.5 350,-56.5 303,-56.5"/>
<text text-anchor="middle" x="326.5" y="-63.5" font-family="Helvetica,sans-Serif" font-size="10.00">errno.h</text>
</g>
<!-- Node10&#45;&gt;Node17 -->
<g id="edge20" class="edge"><title>Node10&#45;&gt;Node17</title>
<path fill="none" stroke="midnightblue" d="M271.943,-112.324C281.646,-104.263 296.315,-92.0765 308,-82.3695"/>
<polygon fill="midnightblue" stroke="midnightblue" points="310.411,-84.9163 315.867,-75.8339 305.938,-79.532 310.411,-84.9163"/>
</g>
<!-- Node18 -->
<g id="node18" class="node"><title>Node18</title>
<polygon fill="white" stroke="#bfbfbf" points="120.5,-56.5 120.5,-75.5 168.5,-75.5 168.5,-56.5 120.5,-56.5"/>
<text text-anchor="middle" x="144.5" y="-63.5" font-family="Helvetica,sans-Serif" font-size="10.00">stdlib.h</text>
</g>
<!-- Node10&#45;&gt;Node18 -->
<g id="edge21" class="edge"><title>Node10&#45;&gt;Node18</title>
<path fill="none" stroke="midnightblue" d="M242.961,-112.444C223.877,-103.636 193.925,-89.8116 172.064,-79.722"/>
<polygon fill="midnightblue" stroke="midnightblue" points="173.499,-76.5292 162.952,-75.5164 170.565,-82.8849 173.499,-76.5292"/>
</g>
<!-- Node11&#45;&gt;Node8 -->
<g id="edge13" class="edge"><title>Node11&#45;&gt;Node8</title>
<path fill="none" stroke="midnightblue" d="M246.306,-57.0321C283.077,-47.2022 345.464,-30.5245 384.193,-20.1712"/>
<polygon fill="midnightblue" stroke="midnightblue" points="385.217,-23.5204 393.974,-17.5565 383.409,-16.7579 385.217,-23.5204"/>
</g>
<!-- Node12 -->
<g id="node12" class="node"><title>Node12</title>
<polygon fill="white" stroke="#bfbfbf" points="160,-0.5 160,-19.5 219,-19.5 219,-0.5 160,-0.5"/>
<text text-anchor="middle" x="189.5" y="-7.5" font-family="Helvetica,sans-Serif" font-size="10.00">inttypes.h</text>
</g>
<!-- Node11&#45;&gt;Node12 -->
<g id="edge12" class="edge"><title>Node11&#45;&gt;Node12</title>
<path fill="none" stroke="midnightblue" d="M212.041,-56.083C208.346,-48.6913 202.977,-37.9533 198.406,-28.8111"/>
<polygon fill="midnightblue" stroke="midnightblue" points="201.478,-27.1301 193.876,-19.7511 195.217,-30.2606 201.478,-27.1301"/>
</g>
<!-- Node13 -->
<g id="node13" class="node"><title>Node13</title>
<polygon fill="white" stroke="#bfbfbf" points="237.5,-0.5 237.5,-19.5 305.5,-19.5 305.5,-0.5 237.5,-0.5"/>
<text text-anchor="middle" x="271.5" y="-7.5" font-family="Helvetica,sans-Serif" font-size="10.00">sys/cdefs.h</text>
</g>
<!-- Node11&#45;&gt;Node13 -->
<g id="edge14" class="edge"><title>Node11&#45;&gt;Node13</title>
<path fill="none" stroke="midnightblue" d="M225.582,-56.083C233.671,-48.1409 245.695,-36.3354 255.41,-26.7973"/>
<polygon fill="midnightblue" stroke="midnightblue" points="257.903,-29.2545 262.587,-19.7511 252.999,-24.2595 257.903,-29.2545"/>
</g>
<!-- Node14 -->
<g id="node14" class="node"><title>Node14</title>
<polygon fill="white" stroke="#bfbfbf" points="95.5,-0.5 95.5,-19.5 141.5,-19.5 141.5,-0.5 95.5,-0.5"/>
<text text-anchor="middle" x="118.5" y="-7.5" font-family="Helvetica,sans-Serif" font-size="10.00">stdio.h</text>
</g>
<!-- Node11&#45;&gt;Node14 -->
<g id="edge15" class="edge"><title>Node11&#45;&gt;Node14</title>
<path fill="none" stroke="midnightblue" d="M200.755,-56.324C185.181,-47.7428 161.123,-34.486 143.041,-24.5224"/>
<polygon fill="midnightblue" stroke="midnightblue" points="144.654,-21.4152 134.206,-19.6545 141.276,-27.546 144.654,-21.4152"/>
</g>
<!-- Node11&#45;&gt;Node15 -->
<g id="edge16" class="edge"><title>Node11&#45;&gt;Node15</title>
<path fill="none" stroke="midnightblue" d="M237.574,-56.4435C259.56,-47.5171 294.234,-33.4387 319.164,-23.3168"/>
<polygon fill="midnightblue" stroke="midnightblue" points="320.576,-26.5213 328.524,-19.5164 317.942,-20.0355 320.576,-26.5213"/>
</g>
<!-- Node11&#45;&gt;Node16 -->
<g id="edge17" class="edge"><title>Node11&#45;&gt;Node16</title>
<path fill="none" stroke="midnightblue" d="M186.905,-57.4915C154.896,-48.457 104.292,-33.1881 71.1598,-22.6263"/>
<polygon fill="midnightblue" stroke="midnightblue" points="72.0698,-19.2425 61.4784,-19.5118 69.926,-25.9062 72.0698,-19.2425"/>
</g>
<!-- Node16&#45;&gt;Node11 -->
<g id="edge18" class="edge"><title>Node16&#45;&gt;Node11</title>
<path fill="none" stroke="midnightblue" d="M71.6526,-19.5164C103.682,-28.6246 151.693,-43.1294 183.623,-53.3044"/>
<polygon fill="midnightblue" stroke="midnightblue" points="182.793,-56.7139 193.384,-56.4435 184.936,-50.05 182.793,-56.7139"/>
</g>
<!-- Node19&#45;&gt;Node4 -->
<g id="edge24" class="edge"><title>Node19&#45;&gt;Node4</title>
<path fill="none" stroke="midnightblue" d="M162.522,-168.324C148.95,-159.9 128.12,-146.971 112.175,-137.074"/>
<polygon fill="midnightblue" stroke="midnightblue" points="113.786,-133.954 103.443,-131.655 110.094,-139.902 113.786,-133.954"/>
</g>
<!-- Node19&#45;&gt;Node6 -->
<g id="edge23" class="edge"><title>Node19&#45;&gt;Node6</title>
<path fill="none" stroke="midnightblue" d="M208.508,-168.444C243.229,-159.162 298.788,-144.309 336.877,-134.127"/>
<polygon fill="midnightblue" stroke="midnightblue" points="337.885,-137.48 346.642,-131.516 336.078,-130.718 337.885,-137.48"/>
</g>
<!-- Node19&#45;&gt;Node10 -->
<g id="edge25" class="edge"><title>Node19&#45;&gt;Node10</title>
<path fill="none" stroke="midnightblue" d="M190.157,-168.324C203.416,-159.9 223.768,-146.971 239.346,-137.074"/>
<polygon fill="midnightblue" stroke="midnightblue" points="241.313,-139.971 247.877,-131.655 237.56,-134.063 241.313,-139.971"/>
</g>
<!-- Node19&#45;&gt;Node16 -->
<g id="edge26" class="edge"><title>Node19&#45;&gt;Node16</title>
<path fill="none" stroke="midnightblue" d="M173.914,-168.429C169.729,-155.423 160.596,-130.283 147.5,-112 140.458,-102.169 85.2639,-52.5622 56.2272,-26.7158"/>
<polygon fill="midnightblue" stroke="midnightblue" points="58.2644,-23.8439 48.4644,-19.8174 53.6145,-29.0763 58.2644,-23.8439"/>
</g>
<!-- Node20&#45;&gt;Node7 -->
<g id="edge33" class="edge"><title>Node20&#45;&gt;Node7</title>
<path fill="none" stroke="midnightblue" d="M494.217,-112.324C484.664,-104.263 470.22,-92.0765 458.716,-82.3695"/>
<polygon fill="midnightblue" stroke="midnightblue" points="460.87,-79.6076 450.97,-75.8339 456.356,-84.9577 460.87,-79.6076"/>
</g>
<!-- Node20&#45;&gt;Node8 -->
<g id="edge31" class="edge"><title>Node20&#45;&gt;Node8</title>
<path fill="none" stroke="midnightblue" d="M520.508,-112.412C541.167,-100.197 572.745,-76.9598 557.5,-56 533.805,-23.4231 486.015,-13.9469 453.144,-11.4471"/>
<polygon fill="midnightblue" stroke="midnightblue" points="453.232,-7.94633 443.046,-10.8601 452.826,-14.9345 453.232,-7.94633"/>
</g>
<!-- Node20&#45;&gt;Node9 -->
<g id="edge32" class="edge"><title>Node20&#45;&gt;Node9</title>
<path fill="none" stroke="midnightblue" d="M507.142,-112.083C509.286,-104.849 512.379,-94.4087 515.049,-85.3968"/>
<polygon fill="midnightblue" stroke="midnightblue" points="518.422,-86.3334 517.907,-75.7511 511.71,-84.3447 518.422,-86.3334"/>
</g>
</g>
</svg>
        <g id="navigator" transform="translate(0 0)" fill="#404254">
                <rect fill="#f2f5e9" fill-opacity="0.5" stroke="#606060" stroke-width=".5" x="0" y="0" width="60" height="60"/>
                <use id="zoomplus" xlink:href="#zoomPlus" x="17" y="9" onmousedown="handleZoom(evt,'in')"/>
                <use id="zoomminus" xlink:href="#zoomMin" x="42" y="9" onmousedown="handleZoom(evt,'out')"/>
                <use id="reset" xlink:href="#resetDef" x="30" y="36" onmousedown="handleReset()"/>
                <g id="arrowUp" xlink:href="#dirArrow" transform="translate(30 24)" onmousedown="handlePan(0,-1)">
                  <use xlink:href="#rim" fill="#404040">
                        <set attributeName="fill" to="#808080" begin="arrowUp.mouseover" end="arrowUp.mouseout"/>
                  </use>
                  <path fill="none" stroke="white" stroke-width="1.5" d="M0,-3.0v7 M-2.5,-0.5L0,-3.0L2.5,-0.5"/>
                </g>
                <g id="arrowRight" xlink:href="#dirArrow" transform="rotate(90) translate(36 -43)" onmousedown="handlePan(1,0)">
                  <use xlink:href="#rim" fill="#404040">
                        <set attributeName="fill" to="#808080" begin="arrowRight.mouseover" end="arrowRight.mouseout"/>
                  </use>
                  <path fill="none" stroke="white" stroke-width="1.5" d="M0,-3.0v7 M-2.5,-0.5L0,-3.0L2.5,-0.5"/>
                </g>
                <g id="arrowDown" xlink:href="#dirArrow" transform="rotate(180) translate(-30 -48)" onmousedown="handlePan(0,1)">
                  <use xlink:href="#rim" fill="#404040">
                        <set attributeName="fill" to="#808080" begin="arrowDown.mouseover" end="arrowDown.mouseout"/>
                  </use>
                  <path fill="none" stroke="white" stroke-width="1.5" d="M0,-3.0v7 M-2.5,-0.5L0,-3.0L2.5,-0.5"/>
                </g>
                <g id="arrowLeft" xlink:href="#dirArrow" transform="rotate(270) translate(-36 17)" onmousedown="handlePan(-1,0)">
                  <use xlink:href="#rim" fill="#404040">
                        <set attributeName="fill" to="#808080" begin="arrowLeft.mouseover" end="arrowLeft.mouseout"/>
                  </use>
                  <path fill="none" stroke="white" stroke-width="1.5" d="M0,-3.0v7 M-2.5,-0.5L0,-3.0L2.5,-0.5"/>
                </g>
        </g>
        <svg viewBox="0 0 15 15" width="100%" height="30px" preserveAspectRatio="xMaxYMin meet">
         <g id="arrow_out" transform="scale(0.3 0.3)">
          <a xlink:href="_block_param_8cpp__incl_org.svg" target="_base">
           <rect id="button" ry="5" rx="5" y="6" x="6" height="38" width="38"
                fill="#f2f5e9" fill-opacity="0.5" stroke="#606060" stroke-width="1.0"/>
           <path id="arrow"
             d="M 11.500037,31.436501 C 11.940474,20.09759 22.043105,11.32322 32.158766,21.979434 L 37.068811,17.246167 C 37.068811,17.246167 37.088388,32 37.088388,32 L 22.160133,31.978069 C 22.160133,31.978069 26.997745,27.140456 26.997745,27.140456 C 18.528582,18.264221 13.291696,25.230495 11.500037,31.436501 z"
             style="fill:#404040;"/>
          </a>
         </g>
        </svg>
</svg>
