<?xml version="1.0" encoding="UTF-8" standalone="no"?>
<!DOCTYPE svg PUBLIC "-//W3C//DTD SVG 1.1//EN"
 "http://www.w3.org/Graphics/SVG/1.1/DTD/svg11.dtd">
<!-- Generated by graphviz version 2.40.1 (20161225.0304)
 -->
<!-- Title: LogListHelper::_scan_logs Pages: 1 -->
<svg width="364pt" height="39pt"
 viewBox="0.00 0.00 364.00 39.00" xmlns="http://www.w3.org/2000/svg" xmlns:xlink="http://www.w3.org/1999/xlink">
<g id="graph0" class="graph" transform="scale(1 1) rotate(0) translate(4 35)">
<title>LogListHelper::_scan_logs</title>
<polygon fill="#ffffff" stroke="transparent" points="-4,4 -4,-35 360,-35 360,4 -4,4"/>
<!-- Node33 -->
<g id="node1" class="node">
<title>Node33</title>
<polygon fill="#bfbfbf" stroke="#000000" points="0,-6 0,-25 132,-25 132,-6 0,-6"/>
<text text-anchor="middle" x="66" y="-13" font-family="Helvetica,sans-Serif" font-size="10.00" fill="#000000">LogListHelper::_scan_logs</text>
</g>
<!-- Node34 -->
<g id="node2" class="node">
<title>Node34</title>
<g id="a_node2"><a xlink:href="../../d8/dd5/class_log_list_helper.html#a46463b73e24ce22ffbf0c688d5584e93" target="_top" xlink:title="LogListHelper::_get\l_log_time_size">
<polygon fill="#ffffff" stroke="#000000" points="168,-.5 168,-30.5 269,-30.5 269,-.5 168,-.5"/>
<text text-anchor="start" x="176" y="-18.5" font-family="Helvetica,sans-Serif" font-size="10.00" fill="#000000">LogListHelper::_get</text>
<text text-anchor="middle" x="218.5" y="-7.5" font-family="Helvetica,sans-Serif" font-size="10.00" fill="#000000">_log_time_size</text>
</a>
</g>
</g>
<!-- Node33&#45;&gt;Node34 -->
<g id="edge1" class="edge">
<title>Node33&#45;&gt;Node34</title>
<path fill="none" stroke="#191970" d="M132.0018,-15.5C140.4717,-15.5 149.1134,-15.5 157.4986,-15.5"/>
<polygon fill="#191970" stroke="#191970" points="157.5707,-19.0001 167.5707,-15.5 157.5706,-12.0001 157.5707,-19.0001"/>
</g>
<!-- Node35 -->
<g id="node3" class="node">
<title>Node35</title>
<g id="a_node3"><a xlink:href="../../db/d99/mavlink__log__handler_8cpp.html#ad5b9b6716e6119a4c758e3f425f8f1c5" target="_top" xlink:title="stat_file">
<polygon fill="#ffffff" stroke="#000000" points="305,-6 305,-25 356,-25 356,-6 305,-6"/>
<text text-anchor="middle" x="330.5" y="-13" font-family="Helvetica,sans-Serif" font-size="10.00" fill="#000000">stat_file</text>
</a>
</g>
</g>
<!-- Node34&#45;&gt;Node35 -->
<g id="edge2" class="edge">
<title>Node34&#45;&gt;Node35</title>
<path fill="none" stroke="#191970" d="M269.2568,-15.5C277.869,-15.5 286.648,-15.5 294.7695,-15.5"/>
<polygon fill="#191970" stroke="#191970" points="294.9979,-19.0001 304.9979,-15.5 294.9979,-12.0001 294.9979,-19.0001"/>
</g>
</g>
</svg>
