<?xml version="1.0" encoding="UTF-8" standalone="no"?>
<!DOCTYPE svg PUBLIC "-//W3C//DTD SVG 1.1//EN"
 "http://www.w3.org/Graphics/SVG/1.1/DTD/svg11.dtd">
<!-- Generated by graphviz version 2.38.0 (20140413.2041)
 -->
<!-- Title: MulticopterAttitudeControl::MulticopterAttitudeControl Pages: 1 -->
<svg width="683pt" height="224pt"
 viewBox="0.00 0.00 683.00 224.27" xmlns="http://www.w3.org/2000/svg" xmlns:xlink="http://www.w3.org/1999/xlink">
<g id="graph0" class="graph" transform="scale(1 1) rotate(0) translate(4 220.274)">
<title>MulticopterAttitudeControl::MulticopterAttitudeControl</title>
<polygon fill="white" stroke="none" points="-4,4 -4,-220.274 679,-220.274 679,4 -4,4"/>
<!-- Node1 -->
<g id="node1" class="node"><title>Node1</title>
<polygon fill="#bfbfbf" stroke="black" points="0,-71 0,-101 136,-101 136,-71 0,-71"/>
<text text-anchor="start" x="8" y="-89" font-family="Helvetica,sans-Serif" font-size="10.00">MulticopterAttitudeControl</text>
<text text-anchor="middle" x="68" y="-78" font-family="Helvetica,sans-Serif" font-size="10.00">::MulticopterAttitudeControl</text>
</g>
<!-- Node2 -->
<g id="node2" class="node"><title>Node2</title>
<g id="a_node2"><a xlink:href="../../d9/d0c/class_multicopter_attitude_control.html#a72315657f11582aefd1777046ee6b036" target="_top" xlink:title="initialize some vectors/matrices from parameters ">
<polygon fill="white" stroke="black" points="172,-93 172,-123 302,-123 302,-93 172,-93"/>
<text text-anchor="start" x="180" y="-111" font-family="Helvetica,sans-Serif" font-size="10.00">MulticopterAttitudeControl</text>
<text text-anchor="middle" x="237" y="-100" font-family="Helvetica,sans-Serif" font-size="10.00">::parameters_updated</text>
</a>
</g>
</g>
<!-- Node1&#45;&gt;Node2 -->
<g id="edge1" class="edge"><title>Node1&#45;&gt;Node2</title>
<path fill="none" stroke="midnightblue" d="M136.444,-94.8848C144.746,-95.9785 153.268,-97.1012 161.665,-98.2074"/>
<polygon fill="midnightblue" stroke="midnightblue" points="161.451,-101.709 171.822,-99.5455 162.365,-94.7693 161.451,-101.709"/>
</g>
<!-- Node10 -->
<g id="node10" class="node"><title>Node10</title>
<g id="a_node10"><a xlink:href="../../dd/df8/classmatrix_1_1_matrix.html#ad8721eb35f3ba841530be24984f75d8f" target="_top" xlink:title="matrix::Matrix::zero">
<polygon fill="white" stroke="black" points="186.5,-54.5 186.5,-73.5 287.5,-73.5 287.5,-54.5 186.5,-54.5"/>
<text text-anchor="middle" x="237" y="-61.5" font-family="Helvetica,sans-Serif" font-size="10.00">matrix::Matrix::zero</text>
</a>
</g>
</g>
<!-- Node1&#45;&gt;Node10 -->
<g id="edge12" class="edge"><title>Node1&#45;&gt;Node10</title>
<path fill="none" stroke="midnightblue" d="M136.444,-77.1152C149.587,-75.3838 163.282,-73.5797 176.158,-71.8834"/>
<polygon fill="midnightblue" stroke="midnightblue" points="176.826,-75.3257 186.283,-70.5495 175.912,-68.3857 176.826,-75.3257"/>
</g>
<!-- Node3 -->
<g id="node3" class="node"><title>Node3</title>
<g id="a_node3"><a xlink:href="../../d8/da1/integration_8cpp.html#af5ba872dd09316732300733cc164ac1a" target="_top" xlink:title="f">
<polygon fill="white" stroke="black" points="646,-164.5 646,-183.5 675,-183.5 675,-164.5 646,-164.5"/>
<text text-anchor="middle" x="660.5" y="-171.5" font-family="Helvetica,sans-Serif" font-size="10.00">f</text>
</a>
</g>
</g>
<!-- Node2&#45;&gt;Node3 -->
<g id="edge2" class="edge"><title>Node2&#45;&gt;Node3</title>
<path fill="none" stroke="midnightblue" d="M254.636,-123.156C273.412,-139.331 305.583,-164.334 338,-177 450.967,-221.139 492.017,-227.103 610,-199 619.289,-196.787 628.811,-192.536 636.991,-188.159"/>
<polygon fill="midnightblue" stroke="midnightblue" points="638.938,-191.077 645.882,-183.076 635.464,-185 638.938,-191.077"/>
</g>
<!-- Node4 -->
<g id="node4" class="node"><title>Node4</title>
<g id="a_node4"><a xlink:href="../../de/dfc/classmath_1_1_low_pass_filter2p.html#a5c1390c1bca03d0eb9229ddccfbede24" target="_top" xlink:title="Change filter parameters. ">
<polygon fill="white" stroke="black" points="493,-159 493,-189 610,-189 610,-159 493,-159"/>
<text text-anchor="start" x="501" y="-177" font-family="Helvetica,sans-Serif" font-size="10.00">math::LowPassFilter2p</text>
<text text-anchor="middle" x="551.5" y="-166" font-family="Helvetica,sans-Serif" font-size="10.00">::set_cutoff_frequency</text>
</a>
</g>
</g>
<!-- Node2&#45;&gt;Node4 -->
<g id="edge3" class="edge"><title>Node2&#45;&gt;Node4</title>
<path fill="none" stroke="midnightblue" d="M264.239,-123.053C283.892,-133.576 311.794,-146.959 338,-154 385.276,-166.703 440.348,-171.621 482.581,-173.407"/>
<polygon fill="midnightblue" stroke="midnightblue" points="482.63,-176.911 492.754,-173.787 482.891,-169.916 482.63,-176.911"/>
</g>
<!-- Node5 -->
<g id="node5" class="node"><title>Node5</title>
<g id="a_node5"><a xlink:href="../../de/dfc/classmath_1_1_low_pass_filter2p.html#ab2350f530aabeaed83f7a3dd4d2746f8" target="_top" xlink:title="Reset the filter state to this value. ">
<polygon fill="white" stroke="black" points="339,-115 339,-145 456,-145 456,-115 339,-115"/>
<text text-anchor="start" x="347" y="-133" font-family="Helvetica,sans-Serif" font-size="10.00">math::LowPassFilter2p</text>
<text text-anchor="middle" x="397.5" y="-122" font-family="Helvetica,sans-Serif" font-size="10.00">::reset</text>
</a>
</g>
</g>
<!-- Node2&#45;&gt;Node5 -->
<g id="edge5" class="edge"><title>Node2&#45;&gt;Node5</title>
<path fill="none" stroke="midnightblue" d="M302.011,-116.885C310.875,-118.115 320.004,-119.382 328.93,-120.621"/>
<polygon fill="midnightblue" stroke="midnightblue" points="328.512,-124.097 338.898,-122.005 329.474,-117.163 328.512,-124.097"/>
</g>
<!-- Node7 -->
<g id="node7" class="node"><title>Node7</title>
<g id="a_node7"><a xlink:href="../../dd/d47/namespacemath.html#a83e4c85de5ee6f9c0f7b91fd81a8d4f9" target="_top" xlink:title="math::radians">
<polygon fill="white" stroke="black" points="513.5,-36.5 513.5,-55.5 589.5,-55.5 589.5,-36.5 513.5,-36.5"/>
<text text-anchor="middle" x="551.5" y="-43.5" font-family="Helvetica,sans-Serif" font-size="10.00">math::radians</text>
</a>
</g>
</g>
<!-- Node2&#45;&gt;Node7 -->
<g id="edge8" class="edge"><title>Node2&#45;&gt;Node7</title>
<path fill="none" stroke="midnightblue" d="M302.323,-96.5844C346.024,-88.6749 405.095,-77.6841 457,-67 472.094,-63.8932 488.505,-60.2854 503.305,-56.9459"/>
<polygon fill="midnightblue" stroke="midnightblue" points="504.281,-60.3136 513.258,-54.6863 502.731,-53.4873 504.281,-60.3136"/>
</g>
<!-- Node8 -->
<g id="node8" class="node"><title>Node8</title>
<g id="a_node8"><a xlink:href="../../d8/d98/circuit__breaker_8cpp.html#a0eb495f286c64c70c007505210ec5df4" target="_top" xlink:title="circuit_breaker_enabled">
<polygon fill="white" stroke="black" points="338,-38.5 338,-57.5 457,-57.5 457,-38.5 338,-38.5"/>
<text text-anchor="middle" x="397.5" y="-45.5" font-family="Helvetica,sans-Serif" font-size="10.00">circuit_breaker_enabled</text>
</a>
</g>
</g>
<!-- Node2&#45;&gt;Node8 -->
<g id="edge9" class="edge"><title>Node2&#45;&gt;Node8</title>
<path fill="none" stroke="midnightblue" d="M277.996,-92.8595C303.904,-83.0522 337.299,-70.4106 362.032,-61.048"/>
<polygon fill="midnightblue" stroke="midnightblue" points="363.272,-64.3209 371.385,-57.5072 360.794,-57.7742 363.272,-64.3209"/>
</g>
<!-- Node9 -->
<g id="node9" class="node"><title>Node9</title>
<g id="a_node9"><a xlink:href="../../da/d0e/rotation_8cpp.html#a84c0b599a5a1540d49a8ecae6cfed266" target="_top" xlink:title="Get the rotation matrix. ">
<polygon fill="white" stroke="black" points="358,-0.5 358,-19.5 437,-19.5 437,-0.5 358,-0.5"/>
<text text-anchor="middle" x="397.5" y="-7.5" font-family="Helvetica,sans-Serif" font-size="10.00">get_rot_matrix</text>
</a>
</g>
</g>
<!-- Node2&#45;&gt;Node9 -->
<g id="edge10" class="edge"><title>Node2&#45;&gt;Node9</title>
<path fill="none" stroke="midnightblue" d="M286.274,-92.9184C291.869,-90.1005 297.26,-86.814 302,-83 324.472,-64.9168 315.01,-46.4199 338,-29 341.212,-26.5665 344.748,-24.4376 348.442,-22.5764"/>
<polygon fill="midnightblue" stroke="midnightblue" points="350.085,-25.6784 357.859,-18.4801 347.293,-19.2594 350.085,-25.6784"/>
</g>
<!-- Node4&#45;&gt;Node3 -->
<g id="edge4" class="edge"><title>Node4&#45;&gt;Node3</title>
<path fill="none" stroke="midnightblue" d="M610.072,-174C619.217,-174 628.202,-174 635.95,-174"/>
<polygon fill="midnightblue" stroke="midnightblue" points="635.969,-177.5 645.969,-174 635.969,-170.5 635.969,-177.5"/>
</g>
<!-- Node6 -->
<g id="node6" class="node"><title>Node6</title>
<g id="a_node6"><a xlink:href="../../de/dfc/classmath_1_1_low_pass_filter2p.html#a560a894bf85c80e56091096e2e9fc253" target="_top" xlink:title="Add a new raw value to the filter. ">
<polygon fill="white" stroke="black" points="493,-110 493,-140 610,-140 610,-110 493,-110"/>
<text text-anchor="start" x="501" y="-128" font-family="Helvetica,sans-Serif" font-size="10.00">math::LowPassFilter2p</text>
<text text-anchor="middle" x="551.5" y="-117" font-family="Helvetica,sans-Serif" font-size="10.00">::apply</text>
</a>
</g>
</g>
<!-- Node5&#45;&gt;Node6 -->
<g id="edge6" class="edge"><title>Node5&#45;&gt;Node6</title>
<path fill="none" stroke="midnightblue" d="M456.398,-128.095C464.961,-127.814 473.849,-127.521 482.593,-127.234"/>
<polygon fill="midnightblue" stroke="midnightblue" points="482.883,-130.726 492.763,-126.899 482.653,-123.73 482.883,-130.726"/>
</g>
<!-- Node6&#45;&gt;Node3 -->
<g id="edge7" class="edge"><title>Node6&#45;&gt;Node3</title>
<path fill="none" stroke="midnightblue" d="M589.789,-140.102C596.552,-142.972 603.515,-146.014 610,-149 618.8,-153.052 628.329,-157.781 636.656,-162.029"/>
<polygon fill="midnightblue" stroke="midnightblue" points="635.27,-165.252 645.762,-166.725 638.478,-159.031 635.27,-165.252"/>
</g>
<!-- Node9&#45;&gt;Node7 -->
<g id="edge11" class="edge"><title>Node9&#45;&gt;Node7</title>
<path fill="none" stroke="midnightblue" d="M437.249,-19.1775C457.447,-23.9611 482.308,-29.8493 503.587,-34.889"/>
<polygon fill="midnightblue" stroke="midnightblue" points="502.857,-38.3128 513.394,-37.2118 504.47,-31.5012 502.857,-38.3128"/>
</g>
</g>
</svg>
