<?xml version="1.0" encoding="UTF-8" standalone="no"?>
<!DOCTYPE svg PUBLIC "-//W3C//DTD SVG 1.1//EN"
 "http://www.w3.org/Graphics/SVG/1.1/DTD/svg11.dtd">
<!-- Generated by graphviz version 2.40.1 (20161225.0304)
 -->
<!-- Title: MavlinkStreamCameraCapture::get_name_static Pages: 1 -->
<svg width="346pt" height="39pt"
 viewBox="0.00 0.00 346.00 39.00" xmlns="http://www.w3.org/2000/svg" xmlns:xlink="http://www.w3.org/1999/xlink">
<g id="graph0" class="graph" transform="scale(1 1) rotate(0) translate(4 35)">
<title>MavlinkStreamCameraCapture::get_name_static</title>
<polygon fill="#ffffff" stroke="transparent" points="-4,4 -4,-35 342,-35 342,4 -4,4"/>
<!-- Node13 -->
<g id="node1" class="node">
<title>Node13</title>
<polygon fill="#bfbfbf" stroke="#000000" points="0,-.5 0,-30.5 151,-30.5 151,-.5 0,-.5"/>
<text text-anchor="start" x="8" y="-18.5" font-family="Helvetica,sans-Serif" font-size="10.00" fill="#000000">MavlinkStreamCameraCapture</text>
<text text-anchor="middle" x="75.5" y="-7.5" font-family="Helvetica,sans-Serif" font-size="10.00" fill="#000000">::get_name_static</text>
</g>
<!-- Node14 -->
<g id="node2" class="node">
<title>Node14</title>
<g id="a_node2"><a xlink:href="../../df/d71/class_mavlink_stream_camera_capture.html#a1b8f3b8917db7218df7fed56ef604ded" target="_top" xlink:title="MavlinkStreamCameraCapture\l::get_name">
<polygon fill="#ffffff" stroke="#000000" points="187,-.5 187,-30.5 338,-30.5 338,-.5 187,-.5"/>
<text text-anchor="start" x="195" y="-18.5" font-family="Helvetica,sans-Serif" font-size="10.00" fill="#000000">MavlinkStreamCameraCapture</text>
<text text-anchor="middle" x="262.5" y="-7.5" font-family="Helvetica,sans-Serif" font-size="10.00" fill="#000000">::get_name</text>
</a>
</g>
</g>
<!-- Node13&#45;&gt;Node14 -->
<g id="edge1" class="edge">
<title>Node13&#45;&gt;Node14</title>
<path fill="none" stroke="#191970" d="M161.2978,-15.5C169.7728,-15.5 178.3329,-15.5 186.6969,-15.5"/>
<polygon fill="#191970" stroke="#191970" points="161.0211,-12.0001 151.021,-15.5 161.021,-19.0001 161.0211,-12.0001"/>
</g>
</g>
</svg>
