<?xml version="1.0" encoding="UTF-8" standalone="no"?>
<!DOCTYPE svg PUBLIC "-//W3C//DTD SVG 1.1//EN"
 "http://www.w3.org/Graphics/SVG/1.1/DTD/svg11.dtd">
<!-- Generated by graphviz version 2.40.1 (20161225.0304)
 -->
<!-- Title: usage Pages: 1 -->
<svg width="170pt" height="28pt"
 viewBox="0.00 0.00 170.00 28.00" xmlns="http://www.w3.org/2000/svg" xmlns:xlink="http://www.w3.org/1999/xlink">
<g id="graph0" class="graph" transform="scale(1 1) rotate(0) translate(4 24)">
<title>usage</title>
<polygon fill="#ffffff" stroke="transparent" points="-4,4 -4,-24 166,-24 166,4 -4,4"/>
<!-- Node20 -->
<g id="node1" class="node">
<title>Node20</title>
<polygon fill="#bfbfbf" stroke="#000000" points="0,-.5 0,-19.5 43,-19.5 43,-.5 0,-.5"/>
<text text-anchor="middle" x="21.5" y="-7.5" font-family="Helvetica,sans-Serif" font-size="10.00" fill="#000000">usage</text>
</g>
<!-- Node21 -->
<g id="node2" class="node">
<title>Node21</title>
<g id="a_node2"><a xlink:href="../../da/d56/simulator_8cpp.html#a2fc534f1623d4c8e4e68d33e2ef0d56e" target="_top" xlink:title="simulator_main">
<polygon fill="#ffffff" stroke="#000000" points="79,-.5 79,-19.5 162,-19.5 162,-.5 79,-.5"/>
<text text-anchor="middle" x="120.5" y="-7.5" font-family="Helvetica,sans-Serif" font-size="10.00" fill="#000000">simulator_main</text>
</a>
</g>
</g>
<!-- Node20&#45;&gt;Node21 -->
<g id="edge1" class="edge">
<title>Node20&#45;&gt;Node21</title>
<path fill="none" stroke="#191970" d="M53.5214,-3.6388C61.5382,-3.2676 70.2567,-3.1622 78.672,-3.3226"/>
<polygon fill="#191970" stroke="#191970" points="53.2282,-.1503 43.4713,-4.28 53.6739,-7.1361 53.2282,-.1503"/>
</g>
<!-- Node21&#45;&gt;Node20 -->
<g id="edge2" class="edge">
<title>Node21&#45;&gt;Node20</title>
<path fill="none" stroke="#191970" d="M68.6643,-16.7433C59.7839,-16.6925 51.0041,-16.3514 43.4713,-15.72"/>
<polygon fill="#191970" stroke="#191970" points="68.6953,-20.2433 78.672,-16.6774 68.6492,-13.2434 68.6953,-20.2433"/>
</g>
</g>
</svg>
