<?xml version="1.0" encoding="UTF-8" standalone="no"?>
<!DOCTYPE svg PUBLIC "-//W3C//DTD SVG 1.1//EN"
 "http://www.w3.org/Graphics/SVG/1.1/DTD/svg11.dtd">
<!-- Generated by graphviz version 2.40.1 (20161225.0304)
 -->
<!-- Title: TemperatureCalibrationGyro::reset_calibration Pages: 1 -->
<svg width="334pt" height="39pt"
 viewBox="0.00 0.00 334.00 39.00" xmlns="http://www.w3.org/2000/svg" xmlns:xlink="http://www.w3.org/1999/xlink">
<g id="graph0" class="graph" transform="scale(1 1) rotate(0) translate(4 35)">
<title>TemperatureCalibrationGyro::reset_calibration</title>
<polygon fill="#ffffff" stroke="transparent" points="-4,4 -4,-35 330,-35 330,4 -4,4"/>
<!-- Node651 -->
<g id="node1" class="node">
<title>Node651</title>
<polygon fill="#bfbfbf" stroke="#000000" points="0,-.5 0,-30.5 139,-30.5 139,-.5 0,-.5"/>
<text text-anchor="start" x="8" y="-18.5" font-family="Helvetica,sans-Serif" font-size="10.00" fill="#000000">TemperatureCalibrationGyro</text>
<text text-anchor="middle" x="69.5" y="-7.5" font-family="Helvetica,sans-Serif" font-size="10.00" fill="#000000">::reset_calibration</text>
</g>
<!-- Node652 -->
<g id="node2" class="node">
<title>Node652</title>
<g id="a_node2"><a xlink:href="../../dc/de0/class_temperature_calibration_gyro.html#a92225b757f893e45999ee495ae36802a" target="_top" xlink:title="TemperatureCalibrationGyro\l::~TemperatureCalibrationGyro">
<polygon fill="#ffffff" stroke="#000000" points="175,-.5 175,-30.5 326,-30.5 326,-.5 175,-.5"/>
<text text-anchor="start" x="183" y="-18.5" font-family="Helvetica,sans-Serif" font-size="10.00" fill="#000000">TemperatureCalibrationGyro</text>
<text text-anchor="middle" x="250.5" y="-7.5" font-family="Helvetica,sans-Serif" font-size="10.00" fill="#000000">::~TemperatureCalibrationGyro</text>
</a>
</g>
</g>
<!-- Node651&#45;&gt;Node652 -->
<g id="edge1" class="edge">
<title>Node651&#45;&gt;Node652</title>
<path fill="none" stroke="#191970" d="M149.4263,-15.5C157.8602,-15.5 166.4184,-15.5 174.8023,-15.5"/>
<polygon fill="#191970" stroke="#191970" points="149.2205,-12.0001 139.2204,-15.5 149.2204,-19.0001 149.2205,-12.0001"/>
</g>
</g>
</svg>
