<?xml version="1.0" encoding="UTF-8" standalone="no"?>
<!DOCTYPE svg PUBLIC "-//W3C//DTD SVG 1.1//EN"
 "http://www.w3.org/Graphics/SVG/1.1/DTD/svg11.dtd">
<!-- Generated by graphviz version 2.40.1 (20161225.0304)
 -->
<!-- Title: MPU9250::reset_mpu Pages: 1 -->
<!--zoomable 369 -->
<svg id="main" version="1.1" xmlns="http://www.w3.org/2000/svg" xmlns:xlink="http://www.w3.org/1999/xlink" xml:space="preserve" onload="init(evt)">
<style type="text/css"><![CDATA[
.edge:hover path { stroke: red; }
.edge:hover polygon { stroke: red; fill: red; }
]]></style>
<script type="text/javascript"><![CDATA[
var edges = document.getElementsByTagName('g');
if (edges && edges.length) {
  for (var i=0;i<edges.length;i++) {
    if (edges[i].id.substr(0,4)=='edge') {
      edges[i].setAttribute('class','edge');
    }
  }
}
]]></script>
        <defs>
                <circle id="rim" cx="0" cy="0" r="7"/>
                <circle id="rim2" cx="0" cy="0" r="3.5"/>
                <g id="zoomPlus">
                        <use xlink:href="#rim" fill="#404040">
                                <set attributeName="fill" to="#808080" begin="zoomplus.mouseover" end="zoomplus.mouseout"/>
                        </use>
                        <path d="M-4,0h8M0,-4v8" fill="none" stroke="white" stroke-width="1.5" pointer-events="none"/>
                </g>
                <g id="zoomMin">
                        <use xlink:href="#rim" fill="#404040">
                                <set attributeName="fill" to="#808080" begin="zoomminus.mouseover" end="zoomminus.mouseout"/>
                        </use>
                        <path d="M-4,0h8" fill="none" stroke="white" stroke-width="1.5" pointer-events="none"/>
                </g>
                <g id="dirArrow">
                        <path fill="none" stroke="white" stroke-width="1.5" d="M0,-3.0v7 M-2.5,-0.5L0,-3.0L2.5,-0.5"/>
                </g>
               <g id="resetDef">
                       <use xlink:href="#rim2" fill="#404040">
                               <set attributeName="fill" to="#808080" begin="reset.mouseover" end="reset.mouseout"/>
                       </use>
               </g>
        </defs>

<script type="text/javascript">
var viewWidth = 836;
var viewHeight = 369;
var sectionId = 'dynsection-34';
</script>
<script xlink:href="../../svgpan.js"/>
<svg id="graph" class="graph">
<g id="viewport">
<title>MPU9250::reset_mpu</title>
<polygon fill="#ffffff" stroke="transparent" points="-4,4 -4,-365.0344 832,-365.0344 832,4 -4,4"/>
<!-- Node309 -->
<g id="node1" class="node">
<title>Node309</title>
<polygon fill="#bfbfbf" stroke="#000000" points="0,-175.1741 0,-194.1741 112,-194.1741 112,-175.1741 0,-175.1741"/>
<text text-anchor="middle" x="56" y="-182.1741" font-family="Helvetica,sans-Serif" font-size="10.00" fill="#000000">MPU9250::reset_mpu</text>
</g>
<!-- Node310 -->
<g id="node2" class="node">
<title>Node310</title>
<g id="a_node2"><a xlink:href="../../df/dd9/class_m_p_u9250.html#a7b58f652e557ab85c809393a57d8eba7" target="_top" xlink:title="MPU9250::_set_dlpf\l_filter">
<polygon fill="#ffffff" stroke="#000000" points="173,-218.6741 173,-248.6741 279,-248.6741 279,-218.6741 173,-218.6741"/>
<text text-anchor="start" x="181" y="-236.6741" font-family="Helvetica,sans-Serif" font-size="10.00" fill="#000000">MPU9250::_set_dlpf</text>
<text text-anchor="middle" x="226" y="-225.6741" font-family="Helvetica,sans-Serif" font-size="10.00" fill="#000000">_filter</text>
</a>
</g>
</g>
<!-- Node309&#45;&gt;Node310 -->
<g id="edge1" class="edge">
<title>Node309&#45;&gt;Node310</title>
<path fill="none" stroke="#191970" d="M89.1813,-194.2381C110.4219,-200.3604 138.6435,-208.4949 163.9365,-215.7852"/>
<polygon fill="#191970" stroke="#191970" points="163.2527,-219.2305 173.8309,-218.6371 165.1915,-212.5043 163.2527,-219.2305"/>
</g>
<!-- Node311 -->
<g id="node3" class="node">
<title>Node311</title>
<g id="a_node3"><a xlink:href="../../df/dd9/class_m_p_u9250.html#aad574c302a288d9dfa495e473904d4f3" target="_top" xlink:title="Write a register in the mpu, updating _checked_values. ">
<polygon fill="#ffffff" stroke="#000000" points="340,-268.1741 340,-287.1741 488,-287.1741 488,-268.1741 340,-268.1741"/>
<text text-anchor="middle" x="414" y="-275.1741" font-family="Helvetica,sans-Serif" font-size="10.00" fill="#000000">MPU9250::write_checked_reg</text>
</a>
</g>
</g>
<!-- Node309&#45;&gt;Node311 -->
<g id="edge17" class="edge">
<title>Node309&#45;&gt;Node311</title>
<path fill="none" stroke="#191970" d="M60.2587,-194.2809C71.0281,-217.2096 101.8177,-274.8441 148,-296.6741 224.287,-332.7342 326.7724,-307.8198 379.4879,-290.4731"/>
<polygon fill="#191970" stroke="#191970" points="380.6948,-293.7597 389.0397,-287.2318 378.4454,-287.1309 380.6948,-293.7597"/>
</g>
<!-- Node312 -->
<g id="node4" class="node">
<title>Node312</title>
<g id="a_node4"><a xlink:href="../../df/dd9/class_m_p_u9250.html#ad1709c24cbe9e442c6f097c855b9bbb8" target="_top" xlink:title="Write a register in the mpu. ">
<polygon fill="#ffffff" stroke="#000000" points="550.5,-306.1741 550.5,-325.1741 656.5,-325.1741 656.5,-306.1741 550.5,-306.1741"/>
<text text-anchor="middle" x="603.5" y="-313.1741" font-family="Helvetica,sans-Serif" font-size="10.00" fill="#000000">MPU9250::write_reg</text>
</a>
</g>
</g>
<!-- Node309&#45;&gt;Node312 -->
<g id="edge18" class="edge">
<title>Node309&#45;&gt;Node312</title>
<path fill="none" stroke="#191970" d="M58.9896,-194.2246C67.7077,-220.2137 95.8455,-292.1026 148,-319.6741 285.4184,-392.3203 480.3341,-351.0557 563.4499,-327.9735"/>
<polygon fill="#191970" stroke="#191970" points="564.5904,-331.288 573.2541,-325.1897 562.6784,-324.5542 564.5904,-331.288"/>
</g>
<!-- Node314 -->
<g id="node6" class="node">
<title>Node314</title>
<g id="a_node6"><a xlink:href="../../df/dd9/class_m_p_u9250.html#a93686ca8b077ca2fc5e81f9c5090627b" target="_top" xlink:title="MPU9250::_set_sample_rate">
<polygon fill="#ffffff" stroke="#000000" points="154.5,-268.1741 154.5,-287.1741 297.5,-287.1741 297.5,-268.1741 154.5,-268.1741"/>
<text text-anchor="middle" x="226" y="-275.1741" font-family="Helvetica,sans-Serif" font-size="10.00" fill="#000000">MPU9250::_set_sample_rate</text>
</a>
</g>
</g>
<!-- Node309&#45;&gt;Node314 -->
<g id="edge5" class="edge">
<title>Node309&#45;&gt;Node314</title>
<path fill="none" stroke="#191970" d="M64.9554,-194.2089C80.3784,-210.0496 113.6222,-241.7203 148,-258.6741 152.8438,-261.0629 158.0084,-263.1638 163.2856,-265.0093"/>
<polygon fill="#191970" stroke="#191970" points="162.2707,-268.3593 172.8614,-268.0624 164.3971,-261.69 162.2707,-268.3593"/>
</g>
<!-- Node315 -->
<g id="node7" class="node">
<title>Node315</title>
<g id="a_node7"><a xlink:href="../../dd/dd3/classdevice_1_1_device.html#ab1fa70de857611a978e518a7c8e170df" target="_top" xlink:title="Return the bus type the device is connected to. ">
<polygon fill="#ffffff" stroke="#000000" points="175.5,-169.6741 175.5,-199.6741 276.5,-199.6741 276.5,-169.6741 175.5,-169.6741"/>
<text text-anchor="start" x="183.5" y="-187.6741" font-family="Helvetica,sans-Serif" font-size="10.00" fill="#000000">device::Device::get</text>
<text text-anchor="middle" x="226" y="-176.6741" font-family="Helvetica,sans-Serif" font-size="10.00" fill="#000000">_device_bus_type</text>
</a>
</g>
</g>
<!-- Node309&#45;&gt;Node315 -->
<g id="edge7" class="edge">
<title>Node309&#45;&gt;Node315</title>
<path fill="none" stroke="#191970" d="M112.1355,-184.6741C129.1941,-184.6741 148.0127,-184.6741 165.3541,-184.6741"/>
<polygon fill="#191970" stroke="#191970" points="165.3694,-188.1742 175.3693,-184.6741 165.3693,-181.1742 165.3694,-188.1742"/>
</g>
<!-- Node316 -->
<g id="node8" class="node">
<title>Node316</title>
<g id="a_node8"><a xlink:href="../../d5/d16/class_m_p_u9250__mag.html#a3bc4a1e9f946a7ff41b0dd11dd54554f" target="_top" xlink:title="MPU9250_mag::is_passthrough">
<polygon fill="#ffffff" stroke="#000000" points="148,-131.1741 148,-150.1741 304,-150.1741 304,-131.1741 148,-131.1741"/>
<text text-anchor="middle" x="226" y="-138.1741" font-family="Helvetica,sans-Serif" font-size="10.00" fill="#000000">MPU9250_mag::is_passthrough</text>
</a>
</g>
</g>
<!-- Node309&#45;&gt;Node316 -->
<g id="edge8" class="edge">
<title>Node309&#45;&gt;Node316</title>
<path fill="none" stroke="#191970" d="M92.7007,-175.0625C109.5453,-170.6607 129.7818,-165.386 148,-160.6741 157.9478,-158.1012 168.613,-155.3571 178.7638,-152.7521"/>
<polygon fill="#191970" stroke="#191970" points="179.88,-156.0792 188.6974,-150.2051 178.1414,-149.2986 179.88,-156.0792"/>
</g>
<!-- Node317 -->
<g id="node9" class="node">
<title>Node317</title>
<g id="a_node9"><a xlink:href="../../df/dd9/class_m_p_u9250.html#a9e211d7a42a413678b084358a0bdf055" target="_top" xlink:title="Read a register from the mpu. ">
<polygon fill="#ffffff" stroke="#000000" points="174,-43.1741 174,-62.1741 278,-62.1741 278,-43.1741 174,-43.1741"/>
<text text-anchor="middle" x="226" y="-50.1741" font-family="Helvetica,sans-Serif" font-size="10.00" fill="#000000">MPU9250::read_reg</text>
</a>
</g>
</g>
<!-- Node309&#45;&gt;Node317 -->
<g id="edge9" class="edge">
<title>Node309&#45;&gt;Node317</title>
<path fill="none" stroke="#191970" d="M61.0073,-175.1485C72.9534,-153.3928 105.338,-99.8427 148,-72.6741 152.9857,-69.499 158.4521,-66.8272 164.1046,-64.579"/>
<polygon fill="#191970" stroke="#191970" points="165.4738,-67.8075 173.7409,-61.1813 163.1461,-61.2058 165.4738,-67.8075"/>
</g>
<!-- Node319 -->
<g id="node11" class="node">
<title>Node319</title>
<g id="a_node11"><a xlink:href="../../df/dd9/class_m_p_u9250.html#aca04f3e6b0916037bb34e005717b1f08" target="_top" xlink:title="Set the mpu measurement range. ">
<polygon fill="#ffffff" stroke="#000000" points="172,-81.6741 172,-111.6741 280,-111.6741 280,-81.6741 172,-81.6741"/>
<text text-anchor="start" x="180" y="-99.6741" font-family="Helvetica,sans-Serif" font-size="10.00" fill="#000000">MPU9250::set_accel</text>
<text text-anchor="middle" x="226" y="-88.6741" font-family="Helvetica,sans-Serif" font-size="10.00" fill="#000000">_range</text>
</a>
</g>
</g>
<!-- Node309&#45;&gt;Node319 -->
<g id="edge11" class="edge">
<title>Node309&#45;&gt;Node319</title>
<path fill="none" stroke="#191970" d="M67.5161,-175.1396C84.2992,-161.6414 116.8788,-136.9114 148,-121.6741 152.5918,-119.4259 157.4323,-117.3161 162.361,-115.3501"/>
<polygon fill="#191970" stroke="#191970" points="163.7857,-118.5535 171.906,-111.7482 161.3143,-112.0043 163.7857,-118.5535"/>
</g>
<!-- Node322 -->
<g id="node14" class="node">
<title>Node322</title>
<g id="a_node14"><a xlink:href="../../d4/d1b/class_p_x4_gyroscope.html#a27d736cf0d7c8c3a16add049def9ad07" target="_top" xlink:title="PX4Gyroscope::set_scale">
<polygon fill="#ffffff" stroke="#000000" points="348.5,-5.1741 348.5,-24.1741 479.5,-24.1741 479.5,-5.1741 348.5,-5.1741"/>
<text text-anchor="middle" x="414" y="-12.1741" font-family="Helvetica,sans-Serif" font-size="10.00" fill="#000000">PX4Gyroscope::set_scale</text>
</a>
</g>
</g>
<!-- Node309&#45;&gt;Node322 -->
<g id="edge15" class="edge">
<title>Node309&#45;&gt;Node322</title>
<path fill="none" stroke="#191970" d="M58.5121,-175.0501C66.3106,-147.3426 92.9559,-67.2289 148,-33.6741 209.7197,3.9502 295.0933,2.7497 352.3134,-3.9136"/>
<polygon fill="#191970" stroke="#191970" points="351.9468,-7.395 362.3044,-5.1657 352.8172,-.4493 351.9468,-7.395"/>
</g>
<!-- Node310&#45;&gt;Node311 -->
<g id="edge2" class="edge">
<title>Node310&#45;&gt;Node311</title>
<path fill="none" stroke="#191970" d="M279.1194,-246.1063C305.4801,-252.2758 337.1678,-259.6921 363.204,-265.7856"/>
<polygon fill="#191970" stroke="#191970" points="362.7135,-269.2654 373.248,-268.1364 364.3087,-262.4495 362.7135,-269.2654"/>
</g>
<!-- Node311&#45;&gt;Node312 -->
<g id="edge3" class="edge">
<title>Node311&#45;&gt;Node312</title>
<path fill="none" stroke="#191970" d="M461.8189,-287.2631C487.3886,-292.3905 519.059,-298.7413 545.9678,-304.1373"/>
<polygon fill="#191970" stroke="#191970" points="545.532,-307.6195 556.025,-306.154 546.9084,-300.7561 545.532,-307.6195"/>
</g>
<!-- Node313 -->
<g id="node5" class="node">
<title>Node313</title>
<g id="a_node5"><a xlink:href="../../dd/dd3/classdevice_1_1_device.html#a233074b15f0089e91f498121d4d85a53" target="_top" xlink:title="Write directly to the device. ">
<polygon fill="#ffffff" stroke="#000000" points="719,-306.1741 719,-325.1741 828,-325.1741 828,-306.1741 719,-306.1741"/>
<text text-anchor="middle" x="773.5" y="-313.1741" font-family="Helvetica,sans-Serif" font-size="10.00" fill="#000000">device::Device::write</text>
</a>
</g>
</g>
<!-- Node312&#45;&gt;Node313 -->
<g id="edge4" class="edge">
<title>Node312&#45;&gt;Node313</title>
<path fill="none" stroke="#191970" d="M656.8226,-315.6741C673.1921,-315.6741 691.3907,-315.6741 708.4525,-315.6741"/>
<polygon fill="#191970" stroke="#191970" points="708.9025,-319.1742 718.9024,-315.6741 708.9024,-312.1742 708.9025,-319.1742"/>
</g>
<!-- Node314&#45;&gt;Node311 -->
<g id="edge6" class="edge">
<title>Node314&#45;&gt;Node311</title>
<path fill="none" stroke="#191970" d="M297.611,-277.6741C308.0696,-277.6741 318.9208,-277.6741 329.6048,-277.6741"/>
<polygon fill="#191970" stroke="#191970" points="329.7786,-281.1742 339.7786,-277.6741 329.7786,-274.1742 329.7786,-281.1742"/>
</g>
<!-- Node318 -->
<g id="node10" class="node">
<title>Node318</title>
<g id="a_node10"><a xlink:href="../../dd/dd3/classdevice_1_1_device.html#a0700ecd19a8206ba1a378ca8d2eca273" target="_top" xlink:title="Read directly from the device. ">
<polygon fill="#ffffff" stroke="#000000" points="360.5,-43.1741 360.5,-62.1741 467.5,-62.1741 467.5,-43.1741 360.5,-43.1741"/>
<text text-anchor="middle" x="414" y="-50.1741" font-family="Helvetica,sans-Serif" font-size="10.00" fill="#000000">device::Device::read</text>
</a>
</g>
</g>
<!-- Node317&#45;&gt;Node318 -->
<g id="edge10" class="edge">
<title>Node317&#45;&gt;Node318</title>
<path fill="none" stroke="#191970" d="M278.3685,-52.6741C300.6094,-52.6741 326.7471,-52.6741 350.1101,-52.6741"/>
<polygon fill="#191970" stroke="#191970" points="350.2782,-56.1742 360.2781,-52.6741 350.2781,-49.1742 350.2782,-56.1742"/>
</g>
<!-- Node319&#45;&gt;Node311 -->
<g id="edge12" class="edge">
<title>Node319&#45;&gt;Node311</title>
<path fill="none" stroke="#191970" d="M280.2478,-108.9947C288.6545,-112.2985 296.8937,-116.4556 304,-121.6741 354.374,-158.6656 390.2256,-225.816 405.6138,-258.6152"/>
<polygon fill="#191970" stroke="#191970" points="402.5489,-260.3298 409.8833,-267.9755 408.9176,-257.4248 402.5489,-260.3298"/>
</g>
<!-- Node320 -->
<g id="node12" class="node">
<title>Node320</title>
<g id="a_node12"><a xlink:href="../../db/def/class_p_x4_accelerometer.html#a13af2eac41b4baaf5b0238e2b2a3891c" target="_top" xlink:title="PX4Accelerometer::set\l_scale">
<polygon fill="#ffffff" stroke="#000000" points="355,-81.6741 355,-111.6741 473,-111.6741 473,-81.6741 355,-81.6741"/>
<text text-anchor="start" x="363" y="-99.6741" font-family="Helvetica,sans-Serif" font-size="10.00" fill="#000000">PX4Accelerometer::set</text>
<text text-anchor="middle" x="414" y="-88.6741" font-family="Helvetica,sans-Serif" font-size="10.00" fill="#000000">_scale</text>
</a>
</g>
</g>
<!-- Node319&#45;&gt;Node320 -->
<g id="edge13" class="edge">
<title>Node319&#45;&gt;Node320</title>
<path fill="none" stroke="#191970" d="M280.1252,-96.6741C300.3523,-96.6741 323.6031,-96.6741 344.9924,-96.6741"/>
<polygon fill="#191970" stroke="#191970" points="344.9952,-100.1742 354.9952,-96.6741 344.9952,-93.1742 344.9952,-100.1742"/>
</g>
<!-- Node321 -->
<g id="node13" class="node">
<title>Node321</title>
<g id="a_node13"><a xlink:href="../../de/d84/classu_o_r_b_1_1_publication_multi_data.html#ad34053c0417701f6951d21e5b6618b34" target="_top" xlink:title="uORB::PublicationMultiData::get">
<polygon fill="#ffffff" stroke="#000000" points="524,-46.1741 524,-65.1741 683,-65.1741 683,-46.1741 524,-46.1741"/>
<text text-anchor="middle" x="603.5" y="-53.1741" font-family="Helvetica,sans-Serif" font-size="10.00" fill="#000000">uORB::PublicationMultiData::get</text>
</a>
</g>
</g>
<!-- Node320&#45;&gt;Node321 -->
<g id="edge14" class="edge">
<title>Node320&#45;&gt;Node321</title>
<path fill="none" stroke="#191970" d="M473.1795,-83.8701C497.6002,-78.5864 525.7087,-72.5049 549.5547,-67.3456"/>
<polygon fill="#191970" stroke="#191970" points="550.4566,-70.7315 559.4903,-65.196 548.9763,-63.8898 550.4566,-70.7315"/>
</g>
<!-- Node322&#45;&gt;Node321 -->
<g id="edge16" class="edge">
<title>Node322&#45;&gt;Node321</title>
<path fill="none" stroke="#191970" d="M457.9514,-24.1833C485.239,-30.0872 520.5073,-37.7179 549.4922,-43.989"/>
<polygon fill="#191970" stroke="#191970" points="548.9451,-47.4515 559.4591,-46.1454 550.4254,-40.6098 548.9451,-47.4515"/>
</g>
</g>
</svg>
        <g id="navigator" transform="translate(0 0)" fill="#404254">
                <rect fill="#f2f5e9" fill-opacity="0.5" stroke="#606060" stroke-width=".5" x="0" y="0" width="60" height="60"/>
                <use id="zoomplus" xlink:href="#zoomPlus" x="17" y="9" onmousedown="handleZoom(evt,'in')"/>
                <use id="zoomminus" xlink:href="#zoomMin" x="42" y="9" onmousedown="handleZoom(evt,'out')"/>
                <use id="reset" xlink:href="#resetDef" x="30" y="36" onmousedown="handleReset()"/>
                <g id="arrowUp" xlink:href="#dirArrow" transform="translate(30 24)" onmousedown="handlePan(0,-1)">
                  <use xlink:href="#rim" fill="#404040">
                        <set attributeName="fill" to="#808080" begin="arrowUp.mouseover" end="arrowUp.mouseout"/>
                  </use>
                  <path fill="none" stroke="white" stroke-width="1.5" d="M0,-3.0v7 M-2.5,-0.5L0,-3.0L2.5,-0.5"/>
                </g>
                <g id="arrowRight" xlink:href="#dirArrow" transform="rotate(90) translate(36 -43)" onmousedown="handlePan(1,0)">
                  <use xlink:href="#rim" fill="#404040">
                        <set attributeName="fill" to="#808080" begin="arrowRight.mouseover" end="arrowRight.mouseout"/>
                  </use>
                  <path fill="none" stroke="white" stroke-width="1.5" d="M0,-3.0v7 M-2.5,-0.5L0,-3.0L2.5,-0.5"/>
                </g>
                <g id="arrowDown" xlink:href="#dirArrow" transform="rotate(180) translate(-30 -48)" onmousedown="handlePan(0,1)">
                  <use xlink:href="#rim" fill="#404040">
                        <set attributeName="fill" to="#808080" begin="arrowDown.mouseover" end="arrowDown.mouseout"/>
                  </use>
                  <path fill="none" stroke="white" stroke-width="1.5" d="M0,-3.0v7 M-2.5,-0.5L0,-3.0L2.5,-0.5"/>
                </g>
                <g id="arrowLeft" xlink:href="#dirArrow" transform="rotate(270) translate(-36 17)" onmousedown="handlePan(-1,0)">
                  <use xlink:href="#rim" fill="#404040">
                        <set attributeName="fill" to="#808080" begin="arrowLeft.mouseover" end="arrowLeft.mouseout"/>
                  </use>
                  <path fill="none" stroke="white" stroke-width="1.5" d="M0,-3.0v7 M-2.5,-0.5L0,-3.0L2.5,-0.5"/>
                </g>
        </g>
        <svg viewBox="0 0 15 15" width="100%" height="30px" preserveAspectRatio="xMaxYMin meet">
         <g id="arrow_out" transform="scale(0.3 0.3)">
          <a xlink:href="class_m_p_u9250_a167b38dd4cb9e7db71bf5e32c520d34d_cgraph_org.svg" target="_base">
           <rect id="button" ry="5" rx="5" y="6" x="6" height="38" width="38"
                fill="#f2f5e9" fill-opacity="0.5" stroke="#606060" stroke-width="1.0"/>
           <path id="arrow"
             d="M 11.500037,31.436501 C 11.940474,20.09759 22.043105,11.32322 32.158766,21.979434 L 37.068811,17.246167 C 37.068811,17.246167 37.088388,32 37.088388,32 L 22.160133,31.978069 C 22.160133,31.978069 26.997745,27.140456 26.997745,27.140456 C 18.528582,18.264221 13.291696,25.230495 11.500037,31.436501 z"
             style="fill:#404040;"/>
          </a>
         </g>
        </svg>
</svg>
