<?xml version="1.0" encoding="UTF-8" standalone="no"?>
<!DOCTYPE svg PUBLIC "-//W3C//DTD SVG 1.1//EN"
 "http://www.w3.org/Graphics/SVG/1.1/DTD/svg11.dtd">
<!-- Generated by graphviz version 2.38.0 (20140413.2041)
 -->
<!-- Title: src/lib/controllib/BlockLimitSym.hpp Pages: 1 -->
<!--zoomable 329 -->
<svg id="main" version="1.1" xmlns="http://www.w3.org/2000/svg" xmlns:xlink="http://www.w3.org/1999/xlink" xml:space="preserve" onload="init(evt)">
<style type="text/css"><![CDATA[
.edge:hover path { stroke: red; }
.edge:hover polygon { stroke: red; fill: red; }
]]></style>
<script type="text/javascript"><![CDATA[
var edges = document.getElementsByTagName('g');
if (edges && edges.length) {
  for (var i=0;i<edges.length;i++) {
    if (edges[i].id.substr(0,4)=='edge') {
      edges[i].setAttribute('class','edge');
    }
  }
}
]]></script>
        <defs>
                <circle id="rim" cx="0" cy="0" r="7"/>
                <circle id="rim2" cx="0" cy="0" r="3.5"/>
                <g id="zoomPlus">
                        <use xlink:href="#rim" fill="#404040">
                                <set attributeName="fill" to="#808080" begin="zoomplus.mouseover" end="zoomplus.mouseout"/>
                        </use>
                        <path d="M-4,0h8M0,-4v8" fill="none" stroke="white" stroke-width="1.5" pointer-events="none"/>
                </g>
                <g id="zoomMin">
                        <use xlink:href="#rim" fill="#404040">
                                <set attributeName="fill" to="#808080" begin="zoomminus.mouseover" end="zoomminus.mouseout"/>
                        </use>
                        <path d="M-4,0h8" fill="none" stroke="white" stroke-width="1.5" pointer-events="none"/>
                </g>
                <g id="dirArrow">
                        <path fill="none" stroke="white" stroke-width="1.5" d="M0,-3.0v7 M-2.5,-0.5L0,-3.0L2.5,-0.5"/>
                </g>
               <g id="resetDef">
                       <use xlink:href="#rim2" fill="#404040">
                               <set attributeName="fill" to="#808080" begin="reset.mouseover" end="reset.mouseout"/>
                       </use>
               </g>
        </defs>

<script type="text/javascript">
var viewWidth = 2473;
var viewHeight = 329;
var sectionId = 'dynsection-1';
</script>
<script xlink:href="../../svgpan.js"/>
<svg id="graph" class="graph">
<g id="viewport">
<title>src/lib/controllib/BlockLimitSym.hpp</title>
<polygon fill="white" stroke="none" points="-4,4 -4,-325 2469,-325 2469,4 -4,4"/>
<!-- Node1 -->
<g id="node1" class="node"><title>Node1</title>
<polygon fill="#bfbfbf" stroke="black" points="720.5,-290.5 720.5,-320.5 824.5,-320.5 824.5,-290.5 720.5,-290.5"/>
<text text-anchor="start" x="728.5" y="-308.5" font-family="Helvetica,sans-Serif" font-size="10.00">src/lib/controllib</text>
<text text-anchor="middle" x="772.5" y="-297.5" font-family="Helvetica,sans-Serif" font-size="10.00">/BlockLimitSym.hpp</text>
</g>
<!-- Node2 -->
<g id="node2" class="node"><title>Node2</title>
<g id="a_node2"><a xlink:href="../../d0/db1/_block_integral_8hpp.html" target="_top" xlink:title="src/lib/controllib\l/BlockIntegral.hpp">
<polygon fill="white" stroke="black" points="687,-223.5 687,-253.5 782,-253.5 782,-223.5 687,-223.5"/>
<text text-anchor="start" x="695" y="-241.5" font-family="Helvetica,sans-Serif" font-size="10.00">src/lib/controllib</text>
<text text-anchor="middle" x="734.5" y="-230.5" font-family="Helvetica,sans-Serif" font-size="10.00">/BlockIntegral.hpp</text>
</a>
</g>
</g>
<!-- Node1&#45;&gt;Node2 -->
<g id="edge1" class="edge"><title>Node1&#45;&gt;Node2</title>
<path fill="none" stroke="midnightblue" d="M759.098,-281.576C753.641,-272.241 747.507,-261.748 742.729,-253.577"/>
<polygon fill="midnightblue" stroke="midnightblue" points="756.186,-283.529 764.255,-290.396 762.229,-279.997 756.186,-283.529"/>
</g>
<!-- Node3 -->
<g id="node3" class="node"><title>Node3</title>
<g id="a_node3"><a xlink:href="../../df/def/blocks_8hpp.html" target="_top" xlink:title="Controller library code. ">
<polygon fill="white" stroke="black" points="730,-156.5 730,-186.5 815,-186.5 815,-156.5 730,-156.5"/>
<text text-anchor="start" x="738" y="-174.5" font-family="Helvetica,sans-Serif" font-size="10.00">src/lib/controllib</text>
<text text-anchor="middle" x="772.5" y="-163.5" font-family="Helvetica,sans-Serif" font-size="10.00">/blocks.hpp</text>
</a>
</g>
</g>
<!-- Node1&#45;&gt;Node3 -->
<g id="edge28" class="edge"><title>Node1&#45;&gt;Node3</title>
<path fill="none" stroke="midnightblue" d="M782.82,-280.835C785.937,-272.517 788.944,-262.998 790.5,-254 792.847,-240.424 792.847,-236.576 790.5,-223 788.312,-210.343 783.252,-196.657 779.053,-186.73"/>
<polygon fill="midnightblue" stroke="midnightblue" points="779.51,-279.685 779.053,-290.27 786.011,-282.281 779.51,-279.685"/>
</g>
<!-- Node2&#45;&gt;Node3 -->
<g id="edge2" class="edge"><title>Node2&#45;&gt;Node3</title>
<path fill="none" stroke="midnightblue" d="M747.902,-214.576C753.359,-205.241 759.493,-194.748 764.271,-186.577"/>
<polygon fill="midnightblue" stroke="midnightblue" points="744.771,-212.997 742.745,-223.396 750.814,-216.529 744.771,-212.997"/>
</g>
<!-- Node4 -->
<g id="node4" class="node"><title>Node4</title>
<g id="a_node4"><a xlink:href="../../d8/d13/_block_derivative_8cpp.html" target="_top" xlink:title="src/lib/controllib\l/BlockDerivative.cpp">
<polygon fill="white" stroke="black" points="0,-84 0,-114 107,-114 107,-84 0,-84"/>
<text text-anchor="start" x="8" y="-102" font-family="Helvetica,sans-Serif" font-size="10.00">src/lib/controllib</text>
<text text-anchor="middle" x="53.5" y="-91" font-family="Helvetica,sans-Serif" font-size="10.00">/BlockDerivative.cpp</text>
</a>
</g>
</g>
<!-- Node3&#45;&gt;Node4 -->
<g id="edge3" class="edge"><title>Node3&#45;&gt;Node4</title>
<path fill="none" stroke="midnightblue" d="M719.71,-170.629C607.414,-169.992 337.003,-163.606 115.5,-120 107.843,-118.493 99.8095,-116.345 92.1587,-114.011"/>
<polygon fill="midnightblue" stroke="midnightblue" points="719.743,-174.129 729.759,-170.673 719.774,-167.129 719.743,-174.129"/>
</g>
<!-- Node5 -->
<g id="node5" class="node"><title>Node5</title>
<g id="a_node5"><a xlink:href="../../d8/d60/_block_high_pass_8cpp.html" target="_top" xlink:title="src/lib/controllib\l/BlockHighPass.cpp">
<polygon fill="white" stroke="black" points="124.5,-84 124.5,-114 230.5,-114 230.5,-84 124.5,-84"/>
<text text-anchor="start" x="132.5" y="-102" font-family="Helvetica,sans-Serif" font-size="10.00">src/lib/controllib</text>
<text text-anchor="middle" x="177.5" y="-91" font-family="Helvetica,sans-Serif" font-size="10.00">/BlockHighPass.cpp</text>
</a>
</g>
</g>
<!-- Node3&#45;&gt;Node5 -->
<g id="edge4" class="edge"><title>Node3&#45;&gt;Node5</title>
<path fill="none" stroke="midnightblue" d="M719.823,-169.296C623.515,-166.26 412.975,-155.753 239.5,-120 231.967,-118.448 224.062,-116.309 216.513,-114.005"/>
<polygon fill="midnightblue" stroke="midnightblue" points="719.787,-172.797 729.888,-169.599 719.998,-165.8 719.787,-172.797"/>
</g>
<!-- Node6 -->
<g id="node6" class="node"><title>Node6</title>
<g id="a_node6"><a xlink:href="../../da/da4/_block_integral_8cpp.html" target="_top" xlink:title="src/lib/controllib\l/BlockIntegral.cpp">
<polygon fill="white" stroke="black" points="249,-84 249,-114 344,-114 344,-84 249,-84"/>
<text text-anchor="start" x="257" y="-102" font-family="Helvetica,sans-Serif" font-size="10.00">src/lib/controllib</text>
<text text-anchor="middle" x="296.5" y="-91" font-family="Helvetica,sans-Serif" font-size="10.00">/BlockIntegral.cpp</text>
</a>
</g>
</g>
<!-- Node3&#45;&gt;Node6 -->
<g id="edge5" class="edge"><title>Node3&#45;&gt;Node6</title>
<path fill="none" stroke="midnightblue" d="M719.586,-167.931C639.3,-163.186 482.315,-150.579 352.5,-120 345.767,-118.414 338.723,-116.288 331.991,-114.014"/>
<polygon fill="midnightblue" stroke="midnightblue" points="719.743,-171.446 729.927,-168.524 720.144,-164.458 719.743,-171.446"/>
</g>
<!-- Node7 -->
<g id="node7" class="node"><title>Node7</title>
<g id="a_node7"><a xlink:href="../../d3/dd2/_block_integral_trap_8cpp.html" target="_top" xlink:title="src/lib/controllib\l/BlockIntegralTrap.cpp">
<polygon fill="white" stroke="black" points="362,-84 362,-114 477,-114 477,-84 362,-84"/>
<text text-anchor="start" x="370" y="-102" font-family="Helvetica,sans-Serif" font-size="10.00">src/lib/controllib</text>
<text text-anchor="middle" x="419.5" y="-91" font-family="Helvetica,sans-Serif" font-size="10.00">/BlockIntegralTrap.cpp</text>
</a>
</g>
</g>
<!-- Node3&#45;&gt;Node7 -->
<g id="edge6" class="edge"><title>Node3&#45;&gt;Node7</title>
<path fill="none" stroke="midnightblue" d="M719.864,-163.178C662.007,-154.68 566.509,-139.327 485.5,-120 478.279,-118.277 470.685,-116.216 463.322,-114.081"/>
<polygon fill="midnightblue" stroke="midnightblue" points="719.467,-166.657 729.867,-164.633 720.475,-159.73 719.467,-166.657"/>
</g>
<!-- Node8 -->
<g id="node8" class="node"><title>Node8</title>
<g id="a_node8"><a xlink:href="../../d5/d0d/_block_limit_8cpp.html" target="_top" xlink:title="src/lib/controllib\l/BlockLimit.cpp">
<polygon fill="white" stroke="black" points="495,-84 495,-114 580,-114 580,-84 495,-84"/>
<text text-anchor="start" x="503" y="-102" font-family="Helvetica,sans-Serif" font-size="10.00">src/lib/controllib</text>
<text text-anchor="middle" x="537.5" y="-91" font-family="Helvetica,sans-Serif" font-size="10.00">/BlockLimit.cpp</text>
</a>
</g>
</g>
<!-- Node3&#45;&gt;Node8 -->
<g id="edge7" class="edge"><title>Node3&#45;&gt;Node8</title>
<path fill="none" stroke="midnightblue" d="M719.982,-157.466C683.179,-147.977 632.993,-134.327 589.5,-120 583.988,-118.184 578.203,-116.121 572.576,-114.026"/>
<polygon fill="midnightblue" stroke="midnightblue" points="719.436,-160.939 729.991,-160.029 721.172,-154.157 719.436,-160.939"/>
</g>
<!-- Node9 -->
<g id="node9" class="node"><title>Node9</title>
<g id="a_node9"><a xlink:href="../../dd/d2e/_block_limit_sym_8cpp.html" target="_top" xlink:title="src/lib/controllib\l/BlockLimitSym.cpp">
<polygon fill="white" stroke="black" points="598.5,-84 598.5,-114 702.5,-114 702.5,-84 598.5,-84"/>
<text text-anchor="start" x="606.5" y="-102" font-family="Helvetica,sans-Serif" font-size="10.00">src/lib/controllib</text>
<text text-anchor="middle" x="650.5" y="-91" font-family="Helvetica,sans-Serif" font-size="10.00">/BlockLimitSym.cpp</text>
</a>
</g>
</g>
<!-- Node3&#45;&gt;Node9 -->
<g id="edge8" class="edge"><title>Node3&#45;&gt;Node9</title>
<path fill="none" stroke="midnightblue" d="M739.446,-151.399C719.067,-139.622 693.377,-124.778 674.853,-114.073"/>
<polygon fill="midnightblue" stroke="midnightblue" points="737.695,-154.43 748.105,-156.403 741.198,-148.369 737.695,-154.43"/>
</g>
<!-- Node10 -->
<g id="node10" class="node"><title>Node10</title>
<g id="a_node10"><a xlink:href="../../da/da7/_block_low_pass_8cpp.html" target="_top" xlink:title="src/lib/controllib\l/BlockLowPass.cpp">
<polygon fill="white" stroke="black" points="720.5,-84 720.5,-114 824.5,-114 824.5,-84 720.5,-84"/>
<text text-anchor="start" x="728.5" y="-102" font-family="Helvetica,sans-Serif" font-size="10.00">src/lib/controllib</text>
<text text-anchor="middle" x="772.5" y="-91" font-family="Helvetica,sans-Serif" font-size="10.00">/BlockLowPass.cpp</text>
</a>
</g>
</g>
<!-- Node3&#45;&gt;Node10 -->
<g id="edge9" class="edge"><title>Node3&#45;&gt;Node10</title>
<path fill="none" stroke="midnightblue" d="M772.5,-146.232C772.5,-135.568 772.5,-123.414 772.5,-114.246"/>
<polygon fill="midnightblue" stroke="midnightblue" points="769,-146.233 772.5,-156.233 776,-146.233 769,-146.233"/>
</g>
<!-- Node11 -->
<g id="node11" class="node"><title>Node11</title>
<g id="a_node11"><a xlink:href="../../d5/d06/_block_low_pass2_8cpp.html" target="_top" xlink:title="src/lib/controllib\l/BlockLowPass2.cpp">
<polygon fill="white" stroke="black" points="843,-84 843,-114 952,-114 952,-84 843,-84"/>
<text text-anchor="start" x="851" y="-102" font-family="Helvetica,sans-Serif" font-size="10.00">src/lib/controllib</text>
<text text-anchor="middle" x="897.5" y="-91" font-family="Helvetica,sans-Serif" font-size="10.00">/BlockLowPass2.cpp</text>
</a>
</g>
</g>
<!-- Node3&#45;&gt;Node11 -->
<g id="edge10" class="edge"><title>Node3&#45;&gt;Node11</title>
<path fill="none" stroke="midnightblue" d="M806.366,-151.399C827.247,-139.622 853.568,-124.778 872.548,-114.073"/>
<polygon fill="midnightblue" stroke="midnightblue" points="804.486,-148.442 797.495,-156.403 807.925,-154.539 804.486,-148.442"/>
</g>
<!-- Node12 -->
<g id="node12" class="node"><title>Node12</title>
<g id="a_node12"><a xlink:href="../../de/d7e/blocks_8cpp.html" target="_top" xlink:title="Controller library code. ">
<polygon fill="white" stroke="black" points="970,-84 970,-114 1101,-114 1101,-84 970,-84"/>
<text text-anchor="start" x="978" y="-102" font-family="Helvetica,sans-Serif" font-size="10.00">src/lib/controllib</text>
<text text-anchor="middle" x="1035.5" y="-91" font-family="Helvetica,sans-Serif" font-size="10.00">/controllib_test/blocks.cpp</text>
</a>
</g>
</g>
<!-- Node3&#45;&gt;Node12 -->
<g id="edge11" class="edge"><title>Node3&#45;&gt;Node12</title>
<path fill="none" stroke="midnightblue" d="M824.803,-156.48C870.698,-144.177 937.103,-126.376 983.044,-114.061"/>
<polygon fill="midnightblue" stroke="midnightblue" points="823.801,-153.125 815.048,-159.095 825.613,-159.886 823.801,-153.125"/>
</g>
<!-- Node13 -->
<g id="node13" class="node"><title>Node13</title>
<g id="a_node13"><a xlink:href="../../d9/de9/controllib__test__main_8cpp.html" target="_top" xlink:title="Unit testing for controllib. ">
<polygon fill="white" stroke="black" points="1119.5,-78.5 1119.5,-119.5 1241.5,-119.5 1241.5,-78.5 1119.5,-78.5"/>
<text text-anchor="start" x="1127.5" y="-107.5" font-family="Helvetica,sans-Serif" font-size="10.00">src/lib/controllib</text>
<text text-anchor="start" x="1127.5" y="-96.5" font-family="Helvetica,sans-Serif" font-size="10.00">/controllib_test/controllib</text>
<text text-anchor="middle" x="1180.5" y="-85.5" font-family="Helvetica,sans-Serif" font-size="10.00">_test_main.cpp</text>
</a>
</g>
</g>
<!-- Node3&#45;&gt;Node13 -->
<g id="edge12" class="edge"><title>Node3&#45;&gt;Node13</title>
<path fill="none" stroke="midnightblue" d="M825.353,-164.668C892.023,-156.833 1009.99,-141.383 1109.5,-120 1112.76,-119.301 1116.08,-118.537 1119.43,-117.729"/>
<polygon fill="midnightblue" stroke="midnightblue" points="824.632,-161.228 815.104,-165.859 825.441,-168.181 824.632,-161.228"/>
</g>
<!-- Node14 -->
<g id="node14" class="node"><title>Node14</title>
<g id="a_node14"><a xlink:href="../../d8/d55/_commander_8hpp.html" target="_top" xlink:title="src/modules/commander\l/Commander.hpp">
<polygon fill="white" stroke="black" points="1259.5,-84 1259.5,-114 1383.5,-114 1383.5,-84 1259.5,-84"/>
<text text-anchor="start" x="1267.5" y="-102" font-family="Helvetica,sans-Serif" font-size="10.00">src/modules/commander</text>
<text text-anchor="middle" x="1321.5" y="-91" font-family="Helvetica,sans-Serif" font-size="10.00">/Commander.hpp</text>
</a>
</g>
</g>
<!-- Node3&#45;&gt;Node14 -->
<g id="edge13" class="edge"><title>Node3&#45;&gt;Node14</title>
<path fill="none" stroke="midnightblue" d="M825.111,-167.86C913.606,-162.77 1097.58,-149.397 1250.5,-120 1258.8,-118.404 1267.54,-116.302 1275.94,-114.061"/>
<polygon fill="midnightblue" stroke="midnightblue" points="824.843,-164.369 815.056,-168.426 825.237,-171.358 824.843,-164.369"/>
</g>
<!-- Node16 -->
<g id="node16" class="node"><title>Node16</title>
<g id="a_node16"><a xlink:href="../../da/db4/_block_local_position_estimator_8hpp.html" target="_top" xlink:title="src/modules/local_position\l_estimator/BlockLocalPositionEstimator.hpp">
<polygon fill="white" stroke="black" points="1402,-84 1402,-114 1611,-114 1611,-84 1402,-84"/>
<text text-anchor="start" x="1410" y="-102" font-family="Helvetica,sans-Serif" font-size="10.00">src/modules/local_position</text>
<text text-anchor="middle" x="1506.5" y="-91" font-family="Helvetica,sans-Serif" font-size="10.00">_estimator/BlockLocalPositionEstimator.hpp</text>
</a>
</g>
</g>
<!-- Node3&#45;&gt;Node16 -->
<g id="edge15" class="edge"><title>Node3&#45;&gt;Node16</title>
<path fill="none" stroke="midnightblue" d="M825.341,-167.847C932.583,-162.098 1183.35,-146.806 1392.5,-120 1405.46,-118.34 1419.18,-116.233 1432.45,-114.014"/>
<polygon fill="midnightblue" stroke="midnightblue" points="824.913,-164.364 815.112,-168.389 825.284,-171.355 824.913,-164.364"/>
</g>
<!-- Node28 -->
<g id="node28" class="node"><title>Node28</title>
<g id="a_node28"><a xlink:href="../../dd/d8c/mc__pos__control__main_8cpp.html" target="_top" xlink:title="Multicopter position controller. ">
<polygon fill="white" stroke="black" points="1629,-78.5 1629,-119.5 1752,-119.5 1752,-78.5 1629,-78.5"/>
<text text-anchor="start" x="1637" y="-107.5" font-family="Helvetica,sans-Serif" font-size="10.00">src/modules/mc_pos</text>
<text text-anchor="start" x="1637" y="-96.5" font-family="Helvetica,sans-Serif" font-size="10.00">_control/mc_pos_control</text>
<text text-anchor="middle" x="1690.5" y="-85.5" font-family="Helvetica,sans-Serif" font-size="10.00">_main.cpp</text>
</a>
</g>
</g>
<!-- Node3&#45;&gt;Node28 -->
<g id="edge27" class="edge"><title>Node3&#45;&gt;Node28</title>
<path fill="none" stroke="midnightblue" d="M825.55,-171.274C959.621,-172.379 1322.5,-170.085 1619.5,-120 1622.53,-119.489 1625.62,-118.898 1628.72,-118.246"/>
<polygon fill="midnightblue" stroke="midnightblue" points="825.199,-167.77 815.167,-171.177 825.134,-174.77 825.199,-167.77"/>
</g>
<!-- Node15 -->
<g id="node15" class="node"><title>Node15</title>
<g id="a_node15"><a xlink:href="../../da/d73/_commander_8cpp.html" target="_top" xlink:title="src/modules/commander\l/Commander.cpp">
<polygon fill="white" stroke="black" points="523.5,-6 523.5,-36 647.5,-36 647.5,-6 523.5,-6"/>
<text text-anchor="start" x="531.5" y="-24" font-family="Helvetica,sans-Serif" font-size="10.00">src/modules/commander</text>
<text text-anchor="middle" x="585.5" y="-13" font-family="Helvetica,sans-Serif" font-size="10.00">/Commander.cpp</text>
</a>
</g>
</g>
<!-- Node14&#45;&gt;Node15 -->
<g id="edge14" class="edge"><title>Node14&#45;&gt;Node15</title>
<path fill="none" stroke="midnightblue" d="M1267.16,-81.422C1261.57,-80.0993 1255.95,-78.921 1250.5,-78 989.72,-33.8917 917.28,-86.1083 656.5,-42 647.788,-40.5264 638.614,-38.3942 629.86,-36.0655"/>
<polygon fill="midnightblue" stroke="midnightblue" points="1266.59,-84.8868 1277.14,-83.9345 1268.3,-78.0987 1266.59,-84.8868"/>
</g>
<!-- Node17 -->
<g id="node17" class="node"><title>Node17</title>
<g id="a_node17"><a xlink:href="../../d9/d04/_block_local_position_estimator_8cpp.html" target="_top" xlink:title="src/modules/local_position\l_estimator/BlockLocalPositionEstimator.cpp">
<polygon fill="white" stroke="black" points="666,-6 666,-36 875,-36 875,-6 666,-6"/>
<text text-anchor="start" x="674" y="-24" font-family="Helvetica,sans-Serif" font-size="10.00">src/modules/local_position</text>
<text text-anchor="middle" x="770.5" y="-13" font-family="Helvetica,sans-Serif" font-size="10.00">_estimator/BlockLocalPositionEstimator.cpp</text>
</a>
</g>
</g>
<!-- Node16&#45;&gt;Node17 -->
<g id="edge16" class="edge"><title>Node16&#45;&gt;Node17</title>
<path fill="none" stroke="midnightblue" d="M1422.91,-82.321C1412.69,-80.7039 1402.37,-79.2125 1392.5,-78 1167.84,-50.4074 1109.16,-69.5926 884.5,-42 871.337,-40.3833 857.384,-38.2708 843.923,-36.0257"/>
<polygon fill="midnightblue" stroke="midnightblue" points="1422.65,-85.8239 1433.08,-83.9743 1423.77,-78.9146 1422.65,-85.8239"/>
</g>
<!-- Node18 -->
<g id="node18" class="node"><title>Node18</title>
<g id="a_node18"><a xlink:href="../../d1/db5/local__position__estimator__main_8cpp.html" target="_top" xlink:title="src/modules/local_position\l_estimator/local_position\l_estimator_main.cpp">
<polygon fill="white" stroke="black" points="893.5,-0.5 893.5,-41.5 1025.5,-41.5 1025.5,-0.5 893.5,-0.5"/>
<text text-anchor="start" x="901.5" y="-29.5" font-family="Helvetica,sans-Serif" font-size="10.00">src/modules/local_position</text>
<text text-anchor="start" x="901.5" y="-18.5" font-family="Helvetica,sans-Serif" font-size="10.00">_estimator/local_position</text>
<text text-anchor="middle" x="959.5" y="-7.5" font-family="Helvetica,sans-Serif" font-size="10.00">_estimator_main.cpp</text>
</a>
</g>
</g>
<!-- Node16&#45;&gt;Node18 -->
<g id="edge17" class="edge"><title>Node16&#45;&gt;Node18</title>
<path fill="none" stroke="midnightblue" d="M1421.17,-82.3286C1411.52,-80.764 1401.81,-79.2827 1392.5,-78 1234.08,-56.1688 1191.82,-70.6941 1034.5,-42 1031.58,-41.468 1028.61,-40.8798 1025.62,-40.2489"/>
<polygon fill="midnightblue" stroke="midnightblue" points="1420.76,-85.8077 1431.2,-83.9844 1421.9,-78.9013 1420.76,-85.8077"/>
</g>
<!-- Node19 -->
<g id="node19" class="node"><title>Node19</title>
<g id="a_node19"><a xlink:href="../../db/d09/local__position__estimator_2sensors_2baro_8cpp.html" target="_top" xlink:title="src/modules/local_position\l_estimator/sensors/baro.cpp">
<polygon fill="white" stroke="black" points="1043.5,-6 1043.5,-36 1183.5,-36 1183.5,-6 1043.5,-6"/>
<text text-anchor="start" x="1051.5" y="-24" font-family="Helvetica,sans-Serif" font-size="10.00">src/modules/local_position</text>
<text text-anchor="middle" x="1113.5" y="-13" font-family="Helvetica,sans-Serif" font-size="10.00">_estimator/sensors/baro.cpp</text>
</a>
</g>
</g>
<!-- Node16&#45;&gt;Node19 -->
<g id="edge18" class="edge"><title>Node16&#45;&gt;Node19</title>
<path fill="none" stroke="midnightblue" d="M1417,-82.1997C1328.13,-66.4865 1203.54,-44.3795 1192.5,-42 1184.2,-40.212 1175.45,-38.1635 1166.92,-36.0748"/>
<polygon fill="midnightblue" stroke="midnightblue" points="1416.65,-85.6921 1427.11,-83.9865 1417.87,-78.799 1416.65,-85.6921"/>
</g>
<!-- Node20 -->
<g id="node20" class="node"><title>Node20</title>
<g id="a_node20"><a xlink:href="../../d5/d89/flow_8cpp.html" target="_top" xlink:title="src/modules/local_position\l_estimator/sensors/flow.cpp">
<polygon fill="white" stroke="black" points="1201.5,-6 1201.5,-36 1341.5,-36 1341.5,-6 1201.5,-6"/>
<text text-anchor="start" x="1209.5" y="-24" font-family="Helvetica,sans-Serif" font-size="10.00">src/modules/local_position</text>
<text text-anchor="middle" x="1271.5" y="-13" font-family="Helvetica,sans-Serif" font-size="10.00">_estimator/sensors/flow.cpp</text>
</a>
</g>
</g>
<!-- Node16&#45;&gt;Node20 -->
<g id="edge19" class="edge"><title>Node16&#45;&gt;Node20</title>
<path fill="none" stroke="midnightblue" d="M1453.4,-80.8256C1411.61,-67.3128 1354.11,-48.7164 1315.02,-36.0749"/>
<polygon fill="midnightblue" stroke="midnightblue" points="1452.53,-84.2248 1463.12,-83.9719 1454.69,-77.5645 1452.53,-84.2248"/>
</g>
<!-- Node21 -->
<g id="node21" class="node"><title>Node21</title>
<g id="a_node21"><a xlink:href="../../da/d8c/modules_2local__position__estimator_2sensors_2gps_8cpp.html" target="_top" xlink:title="src/modules/local_position\l_estimator/sensors/gps.cpp">
<polygon fill="white" stroke="black" points="1360,-6 1360,-36 1497,-36 1497,-6 1360,-6"/>
<text text-anchor="start" x="1368" y="-24" font-family="Helvetica,sans-Serif" font-size="10.00">src/modules/local_position</text>
<text text-anchor="middle" x="1428.5" y="-13" font-family="Helvetica,sans-Serif" font-size="10.00">_estimator/sensors/gps.cpp</text>
</a>
</g>
</g>
<!-- Node16&#45;&gt;Node21 -->
<g id="edge20" class="edge"><title>Node16&#45;&gt;Node21</title>
<path fill="none" stroke="midnightblue" d="M1484.47,-76.5332C1471.23,-63.6316 1454.74,-47.5716 1443.11,-36.2309"/>
<polygon fill="midnightblue" stroke="midnightblue" points="1482.22,-79.2331 1491.83,-83.705 1487.11,-74.2195 1482.22,-79.2331"/>
</g>
<!-- Node22 -->
<g id="node22" class="node"><title>Node22</title>
<g id="a_node22"><a xlink:href="../../d8/d4f/local__position__estimator_2sensors_2land_8cpp.html" target="_top" xlink:title="src/modules/local_position\l_estimator/sensors/land.cpp">
<polygon fill="white" stroke="black" points="1515.5,-6 1515.5,-36 1655.5,-36 1655.5,-6 1515.5,-6"/>
<text text-anchor="start" x="1523.5" y="-24" font-family="Helvetica,sans-Serif" font-size="10.00">src/modules/local_position</text>
<text text-anchor="middle" x="1585.5" y="-13" font-family="Helvetica,sans-Serif" font-size="10.00">_estimator/sensors/land.cpp</text>
</a>
</g>
</g>
<!-- Node16&#45;&gt;Node22 -->
<g id="edge21" class="edge"><title>Node16&#45;&gt;Node22</title>
<path fill="none" stroke="midnightblue" d="M1528.81,-76.5332C1542.23,-63.6316 1558.92,-47.5716 1570.71,-36.2309"/>
<polygon fill="midnightblue" stroke="midnightblue" points="1526.14,-74.2497 1521.36,-83.705 1530.99,-79.2944 1526.14,-74.2497"/>
</g>
<!-- Node23 -->
<g id="node23" class="node"><title>Node23</title>
<g id="a_node23"><a xlink:href="../../d8/dc4/landing__target_8cpp.html" target="_top" xlink:title="src/modules/local_position\l_estimator/sensors/landing\l_target.cpp">
<polygon fill="white" stroke="black" points="1673.5,-0.5 1673.5,-41.5 1807.5,-41.5 1807.5,-0.5 1673.5,-0.5"/>
<text text-anchor="start" x="1681.5" y="-29.5" font-family="Helvetica,sans-Serif" font-size="10.00">src/modules/local_position</text>
<text text-anchor="start" x="1681.5" y="-18.5" font-family="Helvetica,sans-Serif" font-size="10.00">_estimator/sensors/landing</text>
<text text-anchor="middle" x="1740.5" y="-7.5" font-family="Helvetica,sans-Serif" font-size="10.00">_target.cpp</text>
</a>
</g>
</g>
<!-- Node16&#45;&gt;Node23 -->
<g id="edge22" class="edge"><title>Node16&#45;&gt;Node23</title>
<path fill="none" stroke="midnightblue" d="M1559.5,-80.7858C1595.44,-69.1137 1643.01,-53.6622 1680.37,-41.5298"/>
<polygon fill="midnightblue" stroke="midnightblue" points="1558.12,-77.5539 1549.69,-83.9719 1560.28,-84.2116 1558.12,-77.5539"/>
</g>
<!-- Node24 -->
<g id="node24" class="node"><title>Node24</title>
<g id="a_node24"><a xlink:href="../../d6/d48/lidar_8cpp.html" target="_top" xlink:title="src/modules/local_position\l_estimator/sensors/lidar.cpp">
<polygon fill="white" stroke="black" points="1825.5,-6 1825.5,-36 1965.5,-36 1965.5,-6 1825.5,-6"/>
<text text-anchor="start" x="1833.5" y="-24" font-family="Helvetica,sans-Serif" font-size="10.00">src/modules/local_position</text>
<text text-anchor="middle" x="1895.5" y="-13" font-family="Helvetica,sans-Serif" font-size="10.00">_estimator/sensors/lidar.cpp</text>
</a>
</g>
</g>
<!-- Node16&#45;&gt;Node24 -->
<g id="edge23" class="edge"><title>Node16&#45;&gt;Node24</title>
<path fill="none" stroke="midnightblue" d="M1595.95,-82.1671C1679.72,-67.2856 1795.15,-46.6246 1816.5,-42 1824.8,-40.2027 1833.54,-38.1493 1842.07,-36.0585"/>
<polygon fill="midnightblue" stroke="midnightblue" points="1595.13,-78.7573 1585.9,-83.9517 1596.36,-85.6495 1595.13,-78.7573"/>
</g>
<!-- Node25 -->
<g id="node25" class="node"><title>Node25</title>
<g id="a_node25"><a xlink:href="../../d6/ddf/mocap_8cpp.html" target="_top" xlink:title="src/modules/local_position\l_estimator/sensors/mocap.cpp">
<polygon fill="white" stroke="black" points="1984,-6 1984,-36 2135,-36 2135,-6 1984,-6"/>
<text text-anchor="start" x="1992" y="-24" font-family="Helvetica,sans-Serif" font-size="10.00">src/modules/local_position</text>
<text text-anchor="middle" x="2059.5" y="-13" font-family="Helvetica,sans-Serif" font-size="10.00">_estimator/sensors/mocap.cpp</text>
</a>
</g>
</g>
<!-- Node16&#45;&gt;Node25 -->
<g id="edge24" class="edge"><title>Node16&#45;&gt;Node25</title>
<path fill="none" stroke="midnightblue" d="M1591.08,-82.3284C1600.65,-80.7638 1610.27,-79.2826 1619.5,-78 1776.58,-56.1655 1818.1,-68.2167 1974.5,-42 1984.22,-40.371 1994.48,-38.2799 2004.39,-36.0663"/>
<polygon fill="midnightblue" stroke="midnightblue" points="1590.43,-78.8879 1581.14,-83.9842 1591.58,-85.7927 1590.43,-78.8879"/>
</g>
<!-- Node26 -->
<g id="node26" class="node"><title>Node26</title>
<g id="a_node26"><a xlink:href="../../df/dbe/sonar_8cpp.html" target="_top" xlink:title="src/modules/local_position\l_estimator/sensors/sonar.cpp">
<polygon fill="white" stroke="black" points="2153.5,-6 2153.5,-36 2299.5,-36 2299.5,-6 2153.5,-6"/>
<text text-anchor="start" x="2161.5" y="-24" font-family="Helvetica,sans-Serif" font-size="10.00">src/modules/local_position</text>
<text text-anchor="middle" x="2226.5" y="-13" font-family="Helvetica,sans-Serif" font-size="10.00">_estimator/sensors/sonar.cpp</text>
</a>
</g>
</g>
<!-- Node16&#45;&gt;Node26 -->
<g id="edge25" class="edge"><title>Node16&#45;&gt;Node26</title>
<path fill="none" stroke="midnightblue" d="M1589.12,-82.3313C1599.33,-80.7046 1609.64,-79.2081 1619.5,-78 1851.21,-49.6176 1912.77,-77.4673 2143.5,-42 2153.46,-40.4686 2163.99,-38.3397 2174.08,-36.0386"/>
<polygon fill="midnightblue" stroke="midnightblue" points="1588.27,-78.9239 1578.97,-83.9955 1589.4,-85.8317 1588.27,-78.9239"/>
</g>
<!-- Node27 -->
<g id="node27" class="node"><title>Node27</title>
<g id="a_node27"><a xlink:href="../../d2/d54/vision_8cpp.html" target="_top" xlink:title="src/modules/local_position\l_estimator/sensors/vision.cpp">
<polygon fill="white" stroke="black" points="2318,-6 2318,-36 2465,-36 2465,-6 2318,-6"/>
<text text-anchor="start" x="2326" y="-24" font-family="Helvetica,sans-Serif" font-size="10.00">src/modules/local_position</text>
<text text-anchor="middle" x="2391.5" y="-13" font-family="Helvetica,sans-Serif" font-size="10.00">_estimator/sensors/vision.cpp</text>
</a>
</g>
</g>
<!-- Node16&#45;&gt;Node27 -->
<g id="edge26" class="edge"><title>Node16&#45;&gt;Node27</title>
<path fill="none" stroke="midnightblue" d="M1588.09,-82.3339C1598.63,-80.6709 1609.3,-79.1647 1619.5,-78 1924.16,-43.2133 2005.05,-86.1036 2308.5,-42 2318.62,-40.529 2329.32,-38.3981 2339.54,-36.0697"/>
<polygon fill="midnightblue" stroke="midnightblue" points="1587.35,-78.9081 1578.04,-83.9703 1588.47,-85.817 1587.35,-78.9081"/>
</g>
</g>
</svg>
        <g id="navigator" transform="translate(0 0)" fill="#404254">
                <rect fill="#f2f5e9" fill-opacity="0.5" stroke="#606060" stroke-width=".5" x="0" y="0" width="60" height="60"/>
                <use id="zoomplus" xlink:href="#zoomPlus" x="17" y="9" onmousedown="handleZoom(evt,'in')"/>
                <use id="zoomminus" xlink:href="#zoomMin" x="42" y="9" onmousedown="handleZoom(evt,'out')"/>
                <use id="reset" xlink:href="#resetDef" x="30" y="36" onmousedown="handleReset()"/>
                <g id="arrowUp" xlink:href="#dirArrow" transform="translate(30 24)" onmousedown="handlePan(0,-1)">
                  <use xlink:href="#rim" fill="#404040">
                        <set attributeName="fill" to="#808080" begin="arrowUp.mouseover" end="arrowUp.mouseout"/>
                  </use>
                  <path fill="none" stroke="white" stroke-width="1.5" d="M0,-3.0v7 M-2.5,-0.5L0,-3.0L2.5,-0.5"/>
                </g>
                <g id="arrowRight" xlink:href="#dirArrow" transform="rotate(90) translate(36 -43)" onmousedown="handlePan(1,0)">
                  <use xlink:href="#rim" fill="#404040">
                        <set attributeName="fill" to="#808080" begin="arrowRight.mouseover" end="arrowRight.mouseout"/>
                  </use>
                  <path fill="none" stroke="white" stroke-width="1.5" d="M0,-3.0v7 M-2.5,-0.5L0,-3.0L2.5,-0.5"/>
                </g>
                <g id="arrowDown" xlink:href="#dirArrow" transform="rotate(180) translate(-30 -48)" onmousedown="handlePan(0,1)">
                  <use xlink:href="#rim" fill="#404040">
                        <set attributeName="fill" to="#808080" begin="arrowDown.mouseover" end="arrowDown.mouseout"/>
                  </use>
                  <path fill="none" stroke="white" stroke-width="1.5" d="M0,-3.0v7 M-2.5,-0.5L0,-3.0L2.5,-0.5"/>
                </g>
                <g id="arrowLeft" xlink:href="#dirArrow" transform="rotate(270) translate(-36 17)" onmousedown="handlePan(-1,0)">
                  <use xlink:href="#rim" fill="#404040">
                        <set attributeName="fill" to="#808080" begin="arrowLeft.mouseover" end="arrowLeft.mouseout"/>
                  </use>
                  <path fill="none" stroke="white" stroke-width="1.5" d="M0,-3.0v7 M-2.5,-0.5L0,-3.0L2.5,-0.5"/>
                </g>
        </g>
        <svg viewBox="0 0 15 15" width="100%" height="30px" preserveAspectRatio="xMaxYMin meet">
         <g id="arrow_out" transform="scale(0.3 0.3)">
          <a xlink:href="_block_limit_sym_8hpp__dep__incl_org.svg" target="_base">
           <rect id="button" ry="5" rx="5" y="6" x="6" height="38" width="38"
                fill="#f2f5e9" fill-opacity="0.5" stroke="#606060" stroke-width="1.0"/>
           <path id="arrow"
             d="M 11.500037,31.436501 C 11.940474,20.09759 22.043105,11.32322 32.158766,21.979434 L 37.068811,17.246167 C 37.068811,17.246167 37.088388,32 37.088388,32 L 22.160133,31.978069 C 22.160133,31.978069 26.997745,27.140456 26.997745,27.140456 C 18.528582,18.264221 13.291696,25.230495 11.500037,31.436501 z"
             style="fill:#404040;"/>
          </a>
         </g>
        </svg>
</svg>
