<?xml version="1.0" encoding="UTF-8" standalone="no"?>
<!DOCTYPE svg PUBLIC "-//W3C//DTD SVG 1.1//EN"
 "http://www.w3.org/Graphics/SVG/1.1/DTD/svg11.dtd">
<!-- Generated by graphviz version 2.40.1 (20161225.0304)
 -->
<!-- Title: matrix::Vector::norm_squared Pages: 1 -->
<svg width="616pt" height="187pt"
 viewBox="0.00 0.00 616.00 186.50" xmlns="http://www.w3.org/2000/svg" xmlns:xlink="http://www.w3.org/1999/xlink">
<g id="graph0" class="graph" transform="scale(1 1) rotate(0) translate(4 182.5)">
<title>matrix::Vector::norm_squared</title>
<polygon fill="#ffffff" stroke="transparent" points="-4,4 -4,-182.5 612,-182.5 612,4 -4,4"/>
<!-- Node109 -->
<g id="node1" class="node">
<title>Node109</title>
<polygon fill="#bfbfbf" stroke="#000000" points="0,-77 0,-107 106,-107 106,-77 0,-77"/>
<text text-anchor="start" x="8" y="-95" font-family="Helvetica,sans-Serif" font-size="10.00" fill="#000000">matrix::Vector::norm</text>
<text text-anchor="middle" x="53" y="-84" font-family="Helvetica,sans-Serif" font-size="10.00" fill="#000000">_squared</text>
</g>
<!-- Node110 -->
<g id="node2" class="node">
<title>Node110</title>
<g id="a_node2"><a xlink:href="../../d6/db2/class_rover_position_control.html#ae739efccc037fff57e0cbbd61feff46f" target="_top" xlink:title="Control position. ">
<polygon fill="#ffffff" stroke="#000000" points="157,-148 157,-178 267,-178 267,-148 157,-148"/>
<text text-anchor="start" x="165" y="-166" font-family="Helvetica,sans-Serif" font-size="10.00" fill="#000000">RoverPositionControl</text>
<text text-anchor="middle" x="212" y="-155" font-family="Helvetica,sans-Serif" font-size="10.00" fill="#000000">::control_position</text>
</a>
</g>
</g>
<!-- Node109&#45;&gt;Node110 -->
<g id="edge1" class="edge">
<title>Node109&#45;&gt;Node110</title>
<path fill="none" stroke="#191970" d="M88.0278,-112.1163C104.1747,-120.9657 123.766,-131.1165 142,-139 149.3112,-142.161 157.1869,-145.1986 164.9248,-147.9872"/>
<polygon fill="#191970" stroke="#191970" points="89.3975,-108.8737 78.9551,-107.0832 86.0018,-114.9949 89.3975,-108.8737"/>
</g>
<!-- Node112 -->
<g id="node4" class="node">
<title>Node112</title>
<g id="a_node4"><a xlink:href="../../d1/d71/classmatrix_1_1_vector.html#ae850fff63fe72feba5005b95de3e49aa" target="_top" xlink:title="matrix::Vector\&lt; Type,\l 3 \&gt;::longerThan">
<polygon fill="#ffffff" stroke="#000000" points="156,-99 156,-129 268,-129 268,-99 156,-99"/>
<text text-anchor="start" x="164" y="-117" font-family="Helvetica,sans-Serif" font-size="10.00" fill="#000000">matrix::Vector&lt; Type,</text>
<text text-anchor="middle" x="212" y="-106" font-family="Helvetica,sans-Serif" font-size="10.00" fill="#000000"> 3 &gt;::longerThan</text>
</a>
</g>
</g>
<!-- Node109&#45;&gt;Node112 -->
<g id="edge3" class="edge">
<title>Node109&#45;&gt;Node112</title>
<path fill="none" stroke="#191970" d="M116.6159,-100.8022C129.5617,-102.5934 143.0932,-104.4657 155.7608,-106.2185"/>
<polygon fill="#191970" stroke="#191970" points="116.7724,-97.2906 106.387,-99.3869 115.8129,-104.2245 116.7724,-97.2906"/>
</g>
<!-- Node113 -->
<g id="node5" class="node">
<title>Node113</title>
<g id="a_node5"><a xlink:href="../../d4/d1b/vector_8cpp.html#ae66f6b31b5ad750f1fe042a706a4e3d4" target="_top" xlink:title="main">
<polygon fill="#ffffff" stroke="#000000" points="193,-60.5 193,-79.5 231,-79.5 231,-60.5 193,-60.5"/>
<text text-anchor="middle" x="212" y="-67.5" font-family="Helvetica,sans-Serif" font-size="10.00" fill="#000000">main</text>
</a>
</g>
</g>
<!-- Node109&#45;&gt;Node113 -->
<g id="edge4" class="edge">
<title>Node109&#45;&gt;Node113</title>
<path fill="none" stroke="#191970" d="M116.3276,-83.2377C143.7066,-79.4494 173.7575,-75.2914 192.738,-72.6652"/>
<polygon fill="#191970" stroke="#191970" points="115.8129,-79.7755 106.387,-84.6131 116.7724,-86.7094 115.8129,-79.7755"/>
</g>
<!-- Node114 -->
<g id="node6" class="node">
<title>Node114</title>
<g id="a_node6"><a xlink:href="../../da/d2b/class_straight_line.html#af59f3bedf9fd2adfbdfcf22853eacb5d" target="_top" xlink:title="StraightLine::setLineFromTo">
<polygon fill="#ffffff" stroke="#000000" points="142,-22.5 142,-41.5 282,-41.5 282,-22.5 142,-22.5"/>
<text text-anchor="middle" x="212" y="-29.5" font-family="Helvetica,sans-Serif" font-size="10.00" fill="#000000">StraightLine::setLineFromTo</text>
</a>
</g>
</g>
<!-- Node109&#45;&gt;Node114 -->
<g id="edge5" class="edge">
<title>Node109&#45;&gt;Node114</title>
<path fill="none" stroke="#191970" d="M91.7653,-72.4344C107.1622,-65.1169 125.1828,-57.1077 142,-51 151.7056,-47.4751 162.3755,-44.259 172.3963,-41.5154"/>
<polygon fill="#191970" stroke="#191970" points="90.0386,-69.3814 82.5519,-76.878 93.0795,-75.6864 90.0386,-69.3814"/>
</g>
<!-- Node111 -->
<g id="node3" class="node">
<title>Node111</title>
<g id="a_node3"><a xlink:href="../../d6/db2/class_rover_position_control.html#ad5e3ecea34622085d64a9b2822f3b377" target="_top" xlink:title="RoverPositionControl::run">
<polygon fill="#ffffff" stroke="#000000" points="321,-153.5 321,-172.5 450,-172.5 450,-153.5 321,-153.5"/>
<text text-anchor="middle" x="385.5" y="-160.5" font-family="Helvetica,sans-Serif" font-size="10.00" fill="#000000">RoverPositionControl::run</text>
</a>
</g>
</g>
<!-- Node110&#45;&gt;Node111 -->
<g id="edge2" class="edge">
<title>Node110&#45;&gt;Node111</title>
<path fill="none" stroke="#191970" d="M277.5585,-163C291.7748,-163 306.7999,-163 320.9759,-163"/>
<polygon fill="#191970" stroke="#191970" points="277.3735,-159.5001 267.3735,-163 277.3735,-166.5001 277.3735,-159.5001"/>
</g>
<!-- Node115 -->
<g id="node7" class="node">
<title>Node115</title>
<g id="a_node7"><a xlink:href="../../d2/d7a/class_flight_task_orbit.html#a600d250428961417fd7cc5a549a99371" target="_top" xlink:title="generates setpoints to smoothly reach the closest point on the circle when starting from far away ...">
<polygon fill="#ffffff" stroke="#000000" points="318,-39 318,-69 453,-69 453,-39 318,-39"/>
<text text-anchor="start" x="326" y="-57" font-family="Helvetica,sans-Serif" font-size="10.00" fill="#000000">FlightTaskOrbit::generate</text>
<text text-anchor="middle" x="385.5" y="-46" font-family="Helvetica,sans-Serif" font-size="10.00" fill="#000000">_circle_approach_setpoints</text>
</a>
</g>
</g>
<!-- Node114&#45;&gt;Node115 -->
<g id="edge6" class="edge">
<title>Node114&#45;&gt;Node115</title>
<path fill="none" stroke="#191970" d="M292.1492,-42.163C300.788,-43.2584 309.5147,-44.365 317.9838,-45.4389"/>
<polygon fill="#191970" stroke="#191970" points="292.4299,-38.6707 282.069,-40.8848 291.5492,-45.6151 292.4299,-38.6707"/>
</g>
<!-- Node117 -->
<g id="node9" class="node">
<title>Node117</title>
<g id="a_node9"><a xlink:href="../../da/d2b/class_straight_line.html#a1aee6401f65ff007a3025374ecd38876" target="_top" xlink:title="StraightLine::StraightLine">
<polygon fill="#ffffff" stroke="#000000" points="322.5,-.5 322.5,-19.5 448.5,-19.5 448.5,-.5 322.5,-.5"/>
<text text-anchor="middle" x="385.5" y="-7.5" font-family="Helvetica,sans-Serif" font-size="10.00" fill="#000000">StraightLine::StraightLine</text>
</a>
</g>
</g>
<!-- Node114&#45;&gt;Node117 -->
<g id="edge8" class="edge">
<title>Node114&#45;&gt;Node117</title>
<path fill="none" stroke="#191970" d="M292.1671,-21.8347C302.3263,-20.5465 312.6067,-19.243 322.4465,-17.9953"/>
<polygon fill="#191970" stroke="#191970" points="291.5492,-18.3849 282.069,-23.1152 292.4299,-25.3293 291.5492,-18.3849"/>
</g>
<!-- Node116 -->
<g id="node8" class="node">
<title>Node116</title>
<g id="a_node8"><a xlink:href="../../d2/d7a/class_flight_task_orbit.html#a25fad66b24edad70e6dfcfdad04398a0" target="_top" xlink:title="To be called regularly in the control loop cycle to execute the task. ">
<polygon fill="#ffffff" stroke="#000000" points="489,-44.5 489,-63.5 608,-63.5 608,-44.5 489,-44.5"/>
<text text-anchor="middle" x="548.5" y="-51.5" font-family="Helvetica,sans-Serif" font-size="10.00" fill="#000000">FlightTaskOrbit::update</text>
</a>
</g>
</g>
<!-- Node115&#45;&gt;Node116 -->
<g id="edge7" class="edge">
<title>Node115&#45;&gt;Node116</title>
<path fill="none" stroke="#191970" d="M463.2453,-54C471.8347,-54 480.4799,-54 488.7981,-54"/>
<polygon fill="#191970" stroke="#191970" points="463.2106,-50.5001 453.2106,-54 463.2106,-57.5001 463.2106,-50.5001"/>
</g>
</g>
</svg>
