<?xml version="1.0" encoding="UTF-8" standalone="no"?>
<!DOCTYPE svg PUBLIC "-//W3C//DTD SVG 1.1//EN"
 "http://www.w3.org/Graphics/SVG/1.1/DTD/svg11.dtd">
<!-- Generated by graphviz version 2.40.1 (20161225.0304)
 -->
<!-- Title: matrix::Vector::norm Pages: 1 -->
<!--zoomable 712 -->
<svg id="main" version="1.1" xmlns="http://www.w3.org/2000/svg" xmlns:xlink="http://www.w3.org/1999/xlink" xml:space="preserve" onload="init(evt)">
<style type="text/css"><![CDATA[
.edge:hover path { stroke: red; }
.edge:hover polygon { stroke: red; fill: red; }
]]></style>
<script type="text/javascript"><![CDATA[
var edges = document.getElementsByTagName('g');
if (edges && edges.length) {
  for (var i=0;i<edges.length;i++) {
    if (edges[i].id.substr(0,4)=='edge') {
      edges[i].setAttribute('class','edge');
    }
  }
}
]]></script>
        <defs>
                <circle id="rim" cx="0" cy="0" r="7"/>
                <circle id="rim2" cx="0" cy="0" r="3.5"/>
                <g id="zoomPlus">
                        <use xlink:href="#rim" fill="#404040">
                                <set attributeName="fill" to="#808080" begin="zoomplus.mouseover" end="zoomplus.mouseout"/>
                        </use>
                        <path d="M-4,0h8M0,-4v8" fill="none" stroke="white" stroke-width="1.5" pointer-events="none"/>
                </g>
                <g id="zoomMin">
                        <use xlink:href="#rim" fill="#404040">
                                <set attributeName="fill" to="#808080" begin="zoomminus.mouseover" end="zoomminus.mouseout"/>
                        </use>
                        <path d="M-4,0h8" fill="none" stroke="white" stroke-width="1.5" pointer-events="none"/>
                </g>
                <g id="dirArrow">
                        <path fill="none" stroke="white" stroke-width="1.5" d="M0,-3.0v7 M-2.5,-0.5L0,-3.0L2.5,-0.5"/>
                </g>
               <g id="resetDef">
                       <use xlink:href="#rim2" fill="#404040">
                               <set attributeName="fill" to="#808080" begin="reset.mouseover" end="reset.mouseout"/>
                       </use>
               </g>
        </defs>

<script type="text/javascript">
var viewWidth = 843;
var viewHeight = 712;
var sectionId = 'dynsection-6';
</script>
<script xlink:href="../../svgpan.js"/>
<svg id="graph" class="graph">
<g id="viewport">
<title>matrix::Vector::norm</title>
<polygon fill="#ffffff" stroke="transparent" points="-4,4 -4,-707.5 839,-707.5 839,4 -4,4"/>
<!-- Node82 -->
<g id="node1" class="node">
<title>Node82</title>
<polygon fill="#bfbfbf" stroke="#000000" points="0,-333.5 0,-352.5 106,-352.5 106,-333.5 0,-333.5"/>
<text text-anchor="middle" x="53" y="-340.5" font-family="Helvetica,sans-Serif" font-size="10.00" fill="#000000">matrix::Vector::norm</text>
</g>
<!-- Node83 -->
<g id="node2" class="node">
<title>Node83</title>
<g id="a_node2"><a xlink:href="../../d7/d08/class_collision_prevention.html#a32489852aa49005701d6a91e463c2497" target="_top" xlink:title="Computes collision free setpoints. ">
<polygon fill="#ffffff" stroke="#000000" points="142,-673 142,-703 297,-703 297,-673 142,-673"/>
<text text-anchor="start" x="150" y="-691" font-family="Helvetica,sans-Serif" font-size="10.00" fill="#000000">CollisionPrevention</text>
<text text-anchor="middle" x="219.5" y="-680" font-family="Helvetica,sans-Serif" font-size="10.00" fill="#000000">::_calculateConstrainedSetpoint</text>
</a>
</g>
</g>
<!-- Node82&#45;&gt;Node83 -->
<g id="edge1" class="edge">
<title>Node82&#45;&gt;Node83</title>
<path fill="none" stroke="#191970" d="M56.2078,-362.6887C66.6277,-424.4927 101.2179,-613.1935 142,-658 147.5356,-664.0818 154.4482,-668.9426 161.8503,-672.8246"/>
<polygon fill="#191970" stroke="#191970" points="59.6381,-361.9802 54.5474,-352.6885 52.7327,-363.1268 59.6381,-361.9802"/>
</g>
<!-- Node87 -->
<g id="node6" class="node">
<title>Node87</title>
<g id="a_node6"><a xlink:href="../../db/dc6/_collision_prevention_test_8cpp.html#a04b3e98a02053358fe120b133a089cab" target="_top" xlink:title="TEST_F">
<polygon fill="#ffffff" stroke="#000000" points="576,-634.5 576,-653.5 629,-653.5 629,-634.5 576,-634.5"/>
<text text-anchor="middle" x="602.5" y="-641.5" font-family="Helvetica,sans-Serif" font-size="10.00" fill="#000000">TEST_F</text>
</a>
</g>
</g>
<!-- Node82&#45;&gt;Node87 -->
<g id="edge27" class="edge">
<title>Node82&#45;&gt;Node87</title>
<path fill="none" stroke="#191970" d="M56.2378,-362.6876C66.2916,-421.1996 98.9033,-592.0222 142,-625 210.2325,-677.2119 488.042,-655.1964 575.7989,-646.7459"/>
<polygon fill="#191970" stroke="#191970" points="59.6438,-361.8365 54.5313,-352.5568 52.741,-362.9993 59.6438,-361.8365"/>
</g>
<!-- Node88 -->
<g id="node7" class="node">
<title>Node88</title>
<g id="a_node7"><a xlink:href="../../df/d79/classmatrix_1_1_axis_angle.html#ac9753540466e7e33506a220d1405daaa" target="_top" xlink:title="matrix::AxisAngle::\langle">
<polygon fill="#ffffff" stroke="#000000" points="169.5,-585 169.5,-615 269.5,-615 269.5,-585 169.5,-585"/>
<text text-anchor="start" x="177.5" y="-603" font-family="Helvetica,sans-Serif" font-size="10.00" fill="#000000">matrix::AxisAngle::</text>
<text text-anchor="middle" x="219.5" y="-592" font-family="Helvetica,sans-Serif" font-size="10.00" fill="#000000">angle</text>
</a>
</g>
</g>
<!-- Node82&#45;&gt;Node88 -->
<g id="edge6" class="edge">
<title>Node82&#45;&gt;Node88</title>
<path fill="none" stroke="#191970" d="M55.3751,-362.7796C61.597,-406.1558 82.2467,-510.5042 142,-570 149.5657,-577.5331 159.2332,-583.2179 169.1552,-587.4934"/>
<polygon fill="#191970" stroke="#191970" points="58.821,-362.1396 54.0352,-352.6872 51.8819,-363.0609 58.821,-362.1396"/>
</g>
<!-- Node89 -->
<g id="node8" class="node">
<title>Node89</title>
<g id="a_node8"><a xlink:href="../../d9/d0a/attitude_8cpp.html#ae66f6b31b5ad750f1fe042a706a4e3d4" target="_top" xlink:title="main">
<polygon fill="#ffffff" stroke="#000000" points="397,-546.5 397,-565.5 435,-565.5 435,-546.5 397,-546.5"/>
<text text-anchor="middle" x="416" y="-553.5" font-family="Helvetica,sans-Serif" font-size="10.00" fill="#000000">main</text>
</a>
</g>
</g>
<!-- Node82&#45;&gt;Node89 -->
<g id="edge25" class="edge">
<title>Node82&#45;&gt;Node89</title>
<path fill="none" stroke="#191970" d="M55.4802,-362.8424C61.7181,-403.428 82.101,-495.5836 142,-537 222.2072,-592.4582 349.1175,-571.4377 396.9331,-560.7358"/>
<polygon fill="#191970" stroke="#191970" points="58.9332,-362.263 54.0747,-352.8478 52.0014,-363.2377 58.9332,-362.263"/>
</g>
<!-- Node90 -->
<g id="node9" class="node">
<title>Node90</title>
<g id="a_node9"><a xlink:href="../../de/dcc/class_attitude_control_convergence_test.html#af447a1bd832ac741ba79034b7327ee98" target="_top" xlink:title="AttitudeControlConvergence\lTest::checkConvergence">
<polygon fill="#ffffff" stroke="#000000" points="149.5,-497 149.5,-527 289.5,-527 289.5,-497 149.5,-497"/>
<text text-anchor="start" x="157.5" y="-515" font-family="Helvetica,sans-Serif" font-size="10.00" fill="#000000">AttitudeControlConvergence</text>
<text text-anchor="middle" x="219.5" y="-504" font-family="Helvetica,sans-Serif" font-size="10.00" fill="#000000">Test::checkConvergence</text>
</a>
</g>
</g>
<!-- Node82&#45;&gt;Node90 -->
<g id="edge8" class="edge">
<title>Node82&#45;&gt;Node90</title>
<path fill="none" stroke="#191970" d="M59.749,-362.4544C71.5325,-393.5748 98.8026,-454.4532 142,-488 146.4498,-491.4557 151.4012,-494.4175 156.5887,-496.9552"/>
<polygon fill="#191970" stroke="#191970" points="62.9369,-360.9799 56.2261,-352.7814 56.3595,-363.3754 62.9369,-360.9799"/>
</g>
<!-- Node91 -->
<g id="node10" class="node">
<title>Node91</title>
<g id="a_node10"><a xlink:href="../../d5/d01/class_block_local_position_estimator.html#a1d2aa0e31914dace37a3ac47f4c45ac8" target="_top" xlink:title="BlockLocalPositionEstimator\l::flowCorrect">
<polygon fill="#ffffff" stroke="#000000" points="148.5,-399 148.5,-429 290.5,-429 290.5,-399 148.5,-399"/>
<text text-anchor="start" x="156.5" y="-417" font-family="Helvetica,sans-Serif" font-size="10.00" fill="#000000">BlockLocalPositionEstimator</text>
<text text-anchor="middle" x="219.5" y="-406" font-family="Helvetica,sans-Serif" font-size="10.00" fill="#000000">::flowCorrect</text>
</a>
</g>
</g>
<!-- Node82&#45;&gt;Node91 -->
<g id="edge9" class="edge">
<title>Node82&#45;&gt;Node91</title>
<path fill="none" stroke="#191970" d="M77.9557,-357.7833C95.4723,-367.7571 119.665,-380.7384 142,-390 149.6765,-393.1832 157.9311,-396.1739 166.0895,-398.8918"/>
<polygon fill="#191970" stroke="#191970" points="79.3759,-354.5618 68.9653,-352.5944 75.8767,-360.6245 79.3759,-354.5618"/>
</g>
<!-- Node93 -->
<g id="node12" class="node">
<title>Node93</title>
<g id="a_node12"><a xlink:href="../../d5/d0f/classmatrix_1_1_quaternion.html#a9eefd33b53caeef979ed72dea5d16af7" target="_top" xlink:title="Rotation quaternion from vector. ">
<polygon fill="#ffffff" stroke="#000000" points="171,-448 171,-478 268,-478 268,-448 171,-448"/>
<text text-anchor="start" x="179" y="-466" font-family="Helvetica,sans-Serif" font-size="10.00" fill="#000000">matrix::Quaternion</text>
<text text-anchor="middle" x="219.5" y="-455" font-family="Helvetica,sans-Serif" font-size="10.00" fill="#000000">::from_axis_angle</text>
</a>
</g>
</g>
<!-- Node82&#45;&gt;Node93 -->
<g id="edge11" class="edge">
<title>Node82&#45;&gt;Node93</title>
<path fill="none" stroke="#191970" d="M65.1432,-361.0175C80.574,-382.5765 109.1814,-418.3436 142,-439 150.702,-444.4771 160.743,-448.7821 170.6518,-452.1381"/>
<polygon fill="#191970" stroke="#191970" points="67.9555,-358.9315 59.3628,-352.7333 62.2148,-362.9371 67.9555,-358.9315"/>
</g>
<!-- Node95 -->
<g id="node14" class="node">
<title>Node95</title>
<g id="a_node14"><a xlink:href="../../d9/d0c/class_multicopter_attitude_control.html#ad9cd99568233a87506af5d669fa18f80" target="_top" xlink:title="Generate &amp; publish an attitude setpoint from stick inputs. ">
<polygon fill="#ffffff" stroke="#000000" points="151,-350 151,-380 288,-380 288,-350 151,-350"/>
<text text-anchor="start" x="159" y="-368" font-family="Helvetica,sans-Serif" font-size="10.00" fill="#000000">MulticopterAttitudeControl</text>
<text text-anchor="middle" x="219.5" y="-357" font-family="Helvetica,sans-Serif" font-size="10.00" fill="#000000">::generate_attitude_setpoint</text>
</a>
</g>
</g>
<!-- Node82&#45;&gt;Node95 -->
<g id="edge14" class="edge">
<title>Node82&#45;&gt;Node95</title>
<path fill="none" stroke="#191970" d="M116.3065,-351.3648C127.5633,-352.8522 139.3371,-354.4079 150.7369,-355.9142"/>
<polygon fill="#191970" stroke="#191970" points="116.5118,-347.8616 106.1394,-350.0214 115.5947,-354.8013 116.5118,-347.8616"/>
</g>
<!-- Node97 -->
<g id="node16" class="node">
<title>Node97</title>
<g id="a_node16"><a xlink:href="../../d2/d7a/class_flight_task_orbit.html#a600d250428961417fd7cc5a549a99371" target="_top" xlink:title="generates setpoints to smoothly reach the closest point on the circle when starting from far away ...">
<polygon fill="#ffffff" stroke="#000000" points="535,-240 535,-270 670,-270 670,-240 535,-240"/>
<text text-anchor="start" x="543" y="-258" font-family="Helvetica,sans-Serif" font-size="10.00" fill="#000000">FlightTaskOrbit::generate</text>
<text text-anchor="middle" x="602.5" y="-247" font-family="Helvetica,sans-Serif" font-size="10.00" fill="#000000">_circle_approach_setpoints</text>
</a>
</g>
</g>
<!-- Node82&#45;&gt;Node97 -->
<g id="edge16" class="edge">
<title>Node82&#45;&gt;Node97</title>
<path fill="none" stroke="#191970" d="M66.3702,-325.5997C82.1215,-306.6009 110.2062,-277.1336 142,-264 272.6285,-210.0392 442.3946,-226.3004 534.9851,-241.5397"/>
<polygon fill="#191970" stroke="#191970" points="63.5622,-323.5066 60.0319,-333.4959 69.0211,-327.8884 63.5622,-323.5066"/>
</g>
<!-- Node99 -->
<g id="node18" class="node">
<title>Node99</title>
<g id="a_node18"><a xlink:href="../../d2/d7a/class_flight_task_orbit.html#a04041091c55031a3e1e5b72c28674221" target="_top" xlink:title="generates xy setpoints to orbit the vehicle ">
<polygon fill="#ffffff" stroke="#000000" points="539,-296 539,-326 666,-326 666,-296 539,-296"/>
<text text-anchor="start" x="547" y="-314" font-family="Helvetica,sans-Serif" font-size="10.00" fill="#000000">FlightTaskOrbit::generate</text>
<text text-anchor="middle" x="602.5" y="-303" font-family="Helvetica,sans-Serif" font-size="10.00" fill="#000000">_circle_setpoints</text>
</a>
</g>
</g>
<!-- Node82&#45;&gt;Node99 -->
<g id="edge18" class="edge">
<title>Node82&#45;&gt;Node99</title>
<path fill="none" stroke="#191970" d="M116.3835,-339.3089C222.0274,-333.1567 432.9372,-320.8745 538.7946,-314.7099"/>
<polygon fill="#191970" stroke="#191970" points="115.9672,-335.8271 106.1877,-339.9026 116.3743,-342.8153 115.9672,-335.8271"/>
</g>
<!-- Node100 -->
<g id="node19" class="node">
<title>Node100</title>
<g id="a_node19"><a xlink:href="../../da/d2b/class_straight_line.html#ae7d10c8f770a3f7175c2b82ad99b7b4b" target="_top" xlink:title="Generate setpoints on a straight line according to parameters. ">
<polygon fill="#ffffff" stroke="#000000" points="143,-273.5 143,-292.5 296,-292.5 296,-273.5 143,-273.5"/>
<text text-anchor="middle" x="219.5" y="-280.5" font-family="Helvetica,sans-Serif" font-size="10.00" fill="#000000">StraightLine::generateSetpoints</text>
</a>
</g>
</g>
<!-- Node82&#45;&gt;Node100 -->
<g id="edge20" class="edge">
<title>Node82&#45;&gt;Node100</title>
<path fill="none" stroke="#191970" d="M84.5173,-329.4984C101.4291,-322.4452 122.707,-313.8756 142,-307 156.462,-301.8461 172.6587,-296.7301 186.491,-292.5541"/>
<polygon fill="#191970" stroke="#191970" points="82.9747,-326.3501 75.1123,-333.4517 85.6873,-332.8032 82.9747,-326.3501"/>
</g>
<!-- Node102 -->
<g id="node21" class="node">
<title>Node102</title>
<g id="a_node21"><a xlink:href="../../d1/d71/classmatrix_1_1_vector.html#abd91dec134022f2adbd739b4ced6806d" target="_top" xlink:title="matrix::Vector\&lt; Type,\l 3 \&gt;::length">
<polygon fill="#ffffff" stroke="#000000" points="163.5,-186 163.5,-216 275.5,-216 275.5,-186 163.5,-186"/>
<text text-anchor="start" x="171.5" y="-204" font-family="Helvetica,sans-Serif" font-size="10.00" fill="#000000">matrix::Vector&lt; Type,</text>
<text text-anchor="middle" x="219.5" y="-193" font-family="Helvetica,sans-Serif" font-size="10.00" fill="#000000"> 3 &gt;::length</text>
</a>
</g>
</g>
<!-- Node82&#45;&gt;Node102 -->
<g id="edge24" class="edge">
<title>Node82&#45;&gt;Node102</title>
<path fill="none" stroke="#191970" d="M63.3817,-324.5215C78.0002,-300.0208 106.8355,-256.873 142,-231 150.1348,-225.0147 159.6154,-220.0595 169.0975,-216.0187"/>
<polygon fill="#191970" stroke="#191970" points="60.1669,-323.0876 58.1696,-333.4925 66.2195,-326.6042 60.1669,-323.0876"/>
</g>
<!-- Node103 -->
<g id="node22" class="node">
<title>Node103</title>
<g id="a_node22"><a xlink:href="../../d1/d71/classmatrix_1_1_vector.html#a365e3830426a4718bd625f6826319aaf" target="_top" xlink:title="matrix::Vector\&lt; Type,\l 3 \&gt;::normalize">
<polygon fill="#ffffff" stroke="#000000" points="163.5,-137 163.5,-167 275.5,-167 275.5,-137 163.5,-137"/>
<text text-anchor="start" x="171.5" y="-155" font-family="Helvetica,sans-Serif" font-size="10.00" fill="#000000">matrix::Vector&lt; Type,</text>
<text text-anchor="middle" x="219.5" y="-144" font-family="Helvetica,sans-Serif" font-size="10.00" fill="#000000"> 3 &gt;::normalize</text>
</a>
</g>
</g>
<!-- Node82&#45;&gt;Node103 -->
<g id="edge26" class="edge">
<title>Node82&#45;&gt;Node103</title>
<path fill="none" stroke="#191970" d="M58.266,-323.2475C68.5155,-288.5783 94.4218,-216.6976 142,-177 148.2961,-171.7468 155.7173,-167.5907 163.4308,-164.3042"/>
<polygon fill="#191970" stroke="#191970" points="54.8308,-322.5334 55.4808,-333.1083 61.5673,-324.4362 54.8308,-322.5334"/>
</g>
<!-- Node104 -->
<g id="node23" class="node">
<title>Node104</title>
<g id="a_node23"><a xlink:href="../../d1/d71/classmatrix_1_1_vector.html#a6968020eb272f32af2db25175b95948a" target="_top" xlink:title="matrix::Vector\&lt; Type,\l 3 \&gt;::unit">
<polygon fill="#ffffff" stroke="#000000" points="163.5,-88 163.5,-118 275.5,-118 275.5,-88 163.5,-88"/>
<text text-anchor="start" x="171.5" y="-106" font-family="Helvetica,sans-Serif" font-size="10.00" fill="#000000">matrix::Vector&lt; Type,</text>
<text text-anchor="middle" x="219.5" y="-95" font-family="Helvetica,sans-Serif" font-size="10.00" fill="#000000"> 3 &gt;::unit</text>
</a>
</g>
</g>
<!-- Node82&#45;&gt;Node104 -->
<g id="edge28" class="edge">
<title>Node82&#45;&gt;Node104</title>
<path fill="none" stroke="#191970" d="M55.5177,-323.0112C61.9207,-280.611 82.746,-181.1188 142,-127 148.1361,-121.3956 155.5604,-117.0998 163.3531,-113.8069"/>
<polygon fill="#191970" stroke="#191970" points="52.018,-322.7669 54.1017,-333.1548 58.9507,-323.7348 52.018,-322.7669"/>
</g>
<!-- Node106 -->
<g id="node25" class="node">
<title>Node106</title>
<g id="a_node25"><a xlink:href="../../d1/d71/classmatrix_1_1_vector.html#a2738cfd95f6ac29a88738e54e5b83e94" target="_top" xlink:title="matrix::Vector\&lt; Type,\l 3 \&gt;::unit_or_zero">
<polygon fill="#ffffff" stroke="#000000" points="163.5,-39 163.5,-69 275.5,-69 275.5,-39 163.5,-39"/>
<text text-anchor="start" x="171.5" y="-57" font-family="Helvetica,sans-Serif" font-size="10.00" fill="#000000">matrix::Vector&lt; Type,</text>
<text text-anchor="middle" x="219.5" y="-46" font-family="Helvetica,sans-Serif" font-size="10.00" fill="#000000"> 3 &gt;::unit_or_zero</text>
</a>
</g>
</g>
<!-- Node82&#45;&gt;Node106 -->
<g id="edge30" class="edge">
<title>Node82&#45;&gt;Node106</title>
<path fill="none" stroke="#191970" d="M53.7511,-323.2992C56.6894,-274.5473 71.1208,-147.2189 142,-78 148.0463,-72.0954 155.5155,-67.6402 163.4087,-64.2793"/>
<polygon fill="#191970" stroke="#191970" points="50.248,-323.2762 53.2429,-333.4389 57.2392,-323.6267 50.248,-323.2762"/>
</g>
<!-- Node107 -->
<g id="node26" class="node">
<title>Node107</title>
<g id="a_node26"><a xlink:href="../../d7/d3a/class_matrix_test.html#acae559c1792451df7cc34466a0c03cd1" target="_top" xlink:title="MatrixTest::vectorTests">
<polygon fill="#ffffff" stroke="#000000" points="159,-.5 159,-19.5 280,-19.5 280,-.5 159,-.5"/>
<text text-anchor="middle" x="219.5" y="-7.5" font-family="Helvetica,sans-Serif" font-size="10.00" fill="#000000">MatrixTest::vectorTests</text>
</a>
</g>
</g>
<!-- Node82&#45;&gt;Node107 -->
<g id="edge31" class="edge">
<title>Node82&#45;&gt;Node107</title>
<path fill="none" stroke="#191970" d="M55.9824,-323.1461C65.7286,-260.8573 98.5271,-70.9448 142,-29 146.7853,-24.3829 152.5008,-20.8292 158.6293,-18.1025"/>
<polygon fill="#191970" stroke="#191970" points="52.4928,-322.8116 54.4335,-333.2271 59.4116,-323.8747 52.4928,-322.8116"/>
</g>
<!-- Node84 -->
<g id="node3" class="node">
<title>Node84</title>
<g id="a_node3"><a xlink:href="../../d7/d08/class_collision_prevention.html#a8bf058150651509f59d2e9005f8794c4" target="_top" xlink:title="Computes collision free setpoints. ">
<polygon fill="#ffffff" stroke="#000000" points="365.5,-673 365.5,-703 466.5,-703 466.5,-673 365.5,-673"/>
<text text-anchor="start" x="373.5" y="-691" font-family="Helvetica,sans-Serif" font-size="10.00" fill="#000000">CollisionPrevention</text>
<text text-anchor="middle" x="416" y="-680" font-family="Helvetica,sans-Serif" font-size="10.00" fill="#000000">::modifySetpoint</text>
</a>
</g>
</g>
<!-- Node83&#45;&gt;Node84 -->
<g id="edge2" class="edge">
<title>Node83&#45;&gt;Node84</title>
<path fill="none" stroke="#191970" d="M307.1983,-688C327.1305,-688 347.6486,-688 365.4203,-688"/>
<polygon fill="#191970" stroke="#191970" points="307.162,-684.5001 297.162,-688 307.162,-691.5001 307.162,-684.5001"/>
</g>
<!-- Node85 -->
<g id="node4" class="node">
<title>Node85</title>
<g id="a_node4"><a xlink:href="../../da/d83/class_flight_task_manual_position.html#aef8e02cab92b57236fe310a02398ddcc" target="_top" xlink:title="scales sticks to velocity in z ">
<polygon fill="#ffffff" stroke="#000000" points="538,-673 538,-703 667,-703 667,-673 538,-673"/>
<text text-anchor="start" x="546" y="-691" font-family="Helvetica,sans-Serif" font-size="10.00" fill="#000000">FlightTaskManualPosition</text>
<text text-anchor="middle" x="602.5" y="-680" font-family="Helvetica,sans-Serif" font-size="10.00" fill="#000000">::_scaleSticks</text>
</a>
</g>
</g>
<!-- Node84&#45;&gt;Node85 -->
<g id="edge3" class="edge">
<title>Node84&#45;&gt;Node85</title>
<path fill="none" stroke="#191970" d="M477.2195,-688C496.6675,-688 518.2313,-688 537.9091,-688"/>
<polygon fill="#191970" stroke="#191970" points="476.962,-684.5001 466.9619,-688 476.9619,-691.5001 476.962,-684.5001"/>
</g>
<!-- Node84&#45;&gt;Node87 -->
<g id="edge5" class="edge">
<title>Node84&#45;&gt;Node87</title>
<path fill="none" stroke="#191970" d="M477.0963,-673.5859C510.4716,-665.7118 550.1088,-656.3604 575.7543,-650.31"/>
<polygon fill="#191970" stroke="#191970" points="475.891,-670.274 466.9619,-675.9768 477.4984,-677.087 475.891,-670.274"/>
</g>
<!-- Node86 -->
<g id="node5" class="node">
<title>Node86</title>
<g id="a_node5"><a xlink:href="../../da/d83/class_flight_task_manual_position.html#a4a6b240320d94deaca158a5ce4d986e4" target="_top" xlink:title="Sets an external yaw handler which can be used to implement a different yaw control strategy...">
<polygon fill="#ffffff" stroke="#000000" points="706,-673 706,-703 835,-703 835,-673 706,-673"/>
<text text-anchor="start" x="714" y="-691" font-family="Helvetica,sans-Serif" font-size="10.00" fill="#000000">FlightTaskManualPosition</text>
<text text-anchor="middle" x="770.5" y="-680" font-family="Helvetica,sans-Serif" font-size="10.00" fill="#000000">::setYawHandler</text>
</a>
</g>
</g>
<!-- Node85&#45;&gt;Node86 -->
<g id="edge4" class="edge">
<title>Node85&#45;&gt;Node86</title>
<path fill="none" stroke="#191970" d="M677.6392,-688C687.1024,-688 696.7174,-688 705.9963,-688"/>
<polygon fill="#191970" stroke="#191970" points="677.4532,-684.5001 667.4532,-688 677.4532,-691.5001 677.4532,-684.5001"/>
</g>
<!-- Node88&#45;&gt;Node89 -->
<g id="edge7" class="edge">
<title>Node88&#45;&gt;Node89</title>
<path fill="none" stroke="#191970" d="M279.5514,-586.5534C319.6503,-577.5745 369.8038,-566.3442 396.7476,-560.311"/>
<polygon fill="#191970" stroke="#191970" points="278.5872,-583.1825 269.5937,-588.7831 280.1168,-590.0134 278.5872,-583.1825"/>
</g>
<!-- Node92 -->
<g id="node11" class="node">
<title>Node92</title>
<g id="a_node11"><a xlink:href="../../d5/d01/class_block_local_position_estimator.html#a34216107cee0bbde413b794a4c76da59" target="_top" xlink:title="BlockLocalPositionEstimator::Run">
<polygon fill="#ffffff" stroke="#000000" points="333,-404.5 333,-423.5 499,-423.5 499,-404.5 333,-404.5"/>
<text text-anchor="middle" x="416" y="-411.5" font-family="Helvetica,sans-Serif" font-size="10.00" fill="#000000">BlockLocalPositionEstimator::Run</text>
</a>
</g>
</g>
<!-- Node91&#45;&gt;Node92 -->
<g id="edge10" class="edge">
<title>Node91&#45;&gt;Node92</title>
<path fill="none" stroke="#191970" d="M300.7299,-414C311.275,-414 322.0899,-414 332.6685,-414"/>
<polygon fill="#191970" stroke="#191970" points="300.7189,-410.5001 290.7188,-414 300.7188,-417.5001 300.7189,-410.5001"/>
</g>
<!-- Node93&#45;&gt;Node89 -->
<g id="edge12" class="edge">
<title>Node93&#45;&gt;Node89</title>
<path fill="none" stroke="#191970" d="M277.6755,-480.3115C284.2684,-482.7011 290.83,-485.2772 297,-488 336.4025,-505.3883 379.5747,-532.1812 401.489,-546.3877"/>
<polygon fill="#191970" stroke="#191970" points="278.6303,-476.9378 268.0355,-476.9486 276.3246,-483.5471 278.6303,-476.9378"/>
</g>
<!-- Node94 -->
<g id="node13" class="node">
<title>Node94</title>
<g id="a_node13"><a xlink:href="../../d7/d3a/class_matrix_test.html#acdd54e5697b95fb9103ee7623957180d" target="_top" xlink:title="Override to run your unit tests. ">
<polygon fill="#ffffff" stroke="#000000" points="361,-453.5 361,-472.5 471,-472.5 471,-453.5 361,-453.5"/>
<text text-anchor="middle" x="416" y="-460.5" font-family="Helvetica,sans-Serif" font-size="10.00" fill="#000000">MatrixTest::run_tests</text>
</a>
</g>
</g>
<!-- Node93&#45;&gt;Node94 -->
<g id="edge13" class="edge">
<title>Node93&#45;&gt;Node94</title>
<path fill="none" stroke="#191970" d="M278.2226,-463C304.3588,-463 334.9736,-463 360.6979,-463"/>
<polygon fill="#191970" stroke="#191970" points="278.0731,-459.5001 268.073,-463 278.073,-466.5001 278.0731,-459.5001"/>
</g>
<!-- Node96 -->
<g id="node15" class="node">
<title>Node96</title>
<g id="a_node15"><a xlink:href="../../d9/d0c/class_multicopter_attitude_control.html#af1b60dba92718a043b3dd37ad9bdec58" target="_top" xlink:title="MulticopterAttitudeControl::Run">
<polygon fill="#ffffff" stroke="#000000" points="339,-355.5 339,-374.5 493,-374.5 493,-355.5 339,-355.5"/>
<text text-anchor="middle" x="416" y="-362.5" font-family="Helvetica,sans-Serif" font-size="10.00" fill="#000000">MulticopterAttitudeControl::Run</text>
</a>
</g>
</g>
<!-- Node95&#45;&gt;Node96 -->
<g id="edge15" class="edge">
<title>Node95&#45;&gt;Node96</title>
<path fill="none" stroke="#191970" d="M298.3396,-365C311.715,-365 325.5902,-365 338.9196,-365"/>
<polygon fill="#191970" stroke="#191970" points="298.2262,-361.5001 288.2262,-365 298.2261,-368.5001 298.2262,-361.5001"/>
</g>
<!-- Node98 -->
<g id="node17" class="node">
<title>Node98</title>
<g id="a_node17"><a xlink:href="../../d2/d7a/class_flight_task_orbit.html#a25fad66b24edad70e6dfcfdad04398a0" target="_top" xlink:title="To be called regularly in the control loop cycle to execute the task. ">
<polygon fill="#ffffff" stroke="#000000" points="711,-277.5 711,-296.5 830,-296.5 830,-277.5 711,-277.5"/>
<text text-anchor="middle" x="770.5" y="-284.5" font-family="Helvetica,sans-Serif" font-size="10.00" fill="#000000">FlightTaskOrbit::update</text>
</a>
</g>
</g>
<!-- Node97&#45;&gt;Node98 -->
<g id="edge17" class="edge">
<title>Node97&#45;&gt;Node98</title>
<path fill="none" stroke="#191970" d="M680.247,-269.809C693.9246,-272.4142 707.8245,-275.0618 720.4854,-277.4734"/>
<polygon fill="#191970" stroke="#191970" points="680.8261,-266.3564 670.3478,-267.9234 679.5162,-273.2328 680.8261,-266.3564"/>
</g>
<!-- Node99&#45;&gt;Node98 -->
<g id="edge19" class="edge">
<title>Node99&#45;&gt;Node98</title>
<path fill="none" stroke="#191970" d="M676.1065,-300.4848C687.6959,-298.8292 699.5533,-297.1352 710.778,-295.5317"/>
<polygon fill="#191970" stroke="#191970" points="675.4181,-297.0475 666.0136,-301.9266 676.4081,-303.9772 675.4181,-297.0475"/>
</g>
<!-- Node100&#45;&gt;Node97 -->
<g id="edge21" class="edge">
<title>Node100&#45;&gt;Node97</title>
<path fill="none" stroke="#191970" d="M289.4801,-272.0667C303.8452,-270.1232 318.8888,-268.3058 333,-267 401.5539,-260.6564 480.2394,-257.6413 534.8169,-256.2238"/>
<polygon fill="#191970" stroke="#191970" points="288.587,-268.657 279.1631,-273.4985 289.5493,-275.5905 288.587,-268.657"/>
</g>
<!-- Node101 -->
<g id="node20" class="node">
<title>Node101</title>
<g id="a_node20"><a xlink:href="../../da/d2b/class_straight_line.html#a4d02de9d725911635512149ddf9c461d" target="_top" xlink:title="StraightLine::setSpeed">
<polygon fill="#ffffff" stroke="#000000" points="358,-276.5 358,-295.5 474,-295.5 474,-276.5 358,-276.5"/>
<text text-anchor="middle" x="416" y="-283.5" font-family="Helvetica,sans-Serif" font-size="10.00" fill="#000000">StraightLine::setSpeed</text>
</a>
</g>
</g>
<!-- Node100&#45;&gt;Node101 -->
<g id="edge22" class="edge">
<title>Node100&#45;&gt;Node101</title>
<path fill="none" stroke="#191970" d="M306.2561,-284.3245C323.742,-284.5915 341.7202,-284.866 357.9344,-285.1135"/>
<polygon fill="#191970" stroke="#191970" points="306.087,-280.8216 296.0347,-284.1685 305.9801,-287.8208 306.087,-280.8216"/>
</g>
<!-- Node101&#45;&gt;Node97 -->
<g id="edge23" class="edge">
<title>Node101&#45;&gt;Node97</title>
<path fill="none" stroke="#191970" d="M483.4703,-274.7851C500.2113,-272.0024 518.1554,-269.0198 534.9024,-266.2361"/>
<polygon fill="#191970" stroke="#191970" points="482.5143,-271.3959 473.2236,-276.4883 483.6622,-278.3012 482.5143,-271.3959"/>
</g>
<!-- Node105 -->
<g id="node24" class="node">
<title>Node105</title>
<g id="a_node24"><a xlink:href="../../d5/d0f/classmatrix_1_1_quaternion.html#a9455a299f6c169d00e7c8ff7f5bdd642" target="_top" xlink:title="Quaternion from AxisAngle. ">
<polygon fill="#ffffff" stroke="#000000" points="367.5,-88 367.5,-118 464.5,-118 464.5,-88 367.5,-88"/>
<text text-anchor="start" x="375.5" y="-106" font-family="Helvetica,sans-Serif" font-size="10.00" fill="#000000">matrix::Quaternion</text>
<text text-anchor="middle" x="416" y="-95" font-family="Helvetica,sans-Serif" font-size="10.00" fill="#000000">::Quaternion</text>
</a>
</g>
</g>
<!-- Node104&#45;&gt;Node105 -->
<g id="edge29" class="edge">
<title>Node104&#45;&gt;Node105</title>
<path fill="none" stroke="#191970" d="M285.5894,-103C312.2998,-103 342.5747,-103 367.2263,-103"/>
<polygon fill="#191970" stroke="#191970" points="285.5461,-99.5001 275.546,-103 285.546,-106.5001 285.5461,-99.5001"/>
</g>
</g>
</svg>
        <g id="navigator" transform="translate(0 0)" fill="#404254">
                <rect fill="#f2f5e9" fill-opacity="0.5" stroke="#606060" stroke-width=".5" x="0" y="0" width="60" height="60"/>
                <use id="zoomplus" xlink:href="#zoomPlus" x="17" y="9" onmousedown="handleZoom(evt,'in')"/>
                <use id="zoomminus" xlink:href="#zoomMin" x="42" y="9" onmousedown="handleZoom(evt,'out')"/>
                <use id="reset" xlink:href="#resetDef" x="30" y="36" onmousedown="handleReset()"/>
                <g id="arrowUp" xlink:href="#dirArrow" transform="translate(30 24)" onmousedown="handlePan(0,-1)">
                  <use xlink:href="#rim" fill="#404040">
                        <set attributeName="fill" to="#808080" begin="arrowUp.mouseover" end="arrowUp.mouseout"/>
                  </use>
                  <path fill="none" stroke="white" stroke-width="1.5" d="M0,-3.0v7 M-2.5,-0.5L0,-3.0L2.5,-0.5"/>
                </g>
                <g id="arrowRight" xlink:href="#dirArrow" transform="rotate(90) translate(36 -43)" onmousedown="handlePan(1,0)">
                  <use xlink:href="#rim" fill="#404040">
                        <set attributeName="fill" to="#808080" begin="arrowRight.mouseover" end="arrowRight.mouseout"/>
                  </use>
                  <path fill="none" stroke="white" stroke-width="1.5" d="M0,-3.0v7 M-2.5,-0.5L0,-3.0L2.5,-0.5"/>
                </g>
                <g id="arrowDown" xlink:href="#dirArrow" transform="rotate(180) translate(-30 -48)" onmousedown="handlePan(0,1)">
                  <use xlink:href="#rim" fill="#404040">
                        <set attributeName="fill" to="#808080" begin="arrowDown.mouseover" end="arrowDown.mouseout"/>
                  </use>
                  <path fill="none" stroke="white" stroke-width="1.5" d="M0,-3.0v7 M-2.5,-0.5L0,-3.0L2.5,-0.5"/>
                </g>
                <g id="arrowLeft" xlink:href="#dirArrow" transform="rotate(270) translate(-36 17)" onmousedown="handlePan(-1,0)">
                  <use xlink:href="#rim" fill="#404040">
                        <set attributeName="fill" to="#808080" begin="arrowLeft.mouseover" end="arrowLeft.mouseout"/>
                  </use>
                  <path fill="none" stroke="white" stroke-width="1.5" d="M0,-3.0v7 M-2.5,-0.5L0,-3.0L2.5,-0.5"/>
                </g>
        </g>
        <svg viewBox="0 0 15 15" width="100%" height="30px" preserveAspectRatio="xMaxYMin meet">
         <g id="arrow_out" transform="scale(0.3 0.3)">
          <a xlink:href="classmatrix_1_1_vector_a100f3b10c5572ccd38edc745d99ef98d_icgraph_org.svg" target="_base">
           <rect id="button" ry="5" rx="5" y="6" x="6" height="38" width="38"
                fill="#f2f5e9" fill-opacity="0.5" stroke="#606060" stroke-width="1.0"/>
           <path id="arrow"
             d="M 11.500037,31.436501 C 11.940474,20.09759 22.043105,11.32322 32.158766,21.979434 L 37.068811,17.246167 C 37.068811,17.246167 37.088388,32 37.088388,32 L 22.160133,31.978069 C 22.160133,31.978069 26.997745,27.140456 26.997745,27.140456 C 18.528582,18.264221 13.291696,25.230495 11.500037,31.436501 z"
             style="fill:#404040;"/>
          </a>
         </g>
        </svg>
</svg>
