<?xml version="1.0" encoding="UTF-8" standalone="no"?>
<!DOCTYPE svg PUBLIC "-//W3C//DTD SVG 1.1//EN"
 "http://www.w3.org/Graphics/SVG/1.1/DTD/svg11.dtd">
<!-- Generated by graphviz version 2.40.1 (20161225.0304)
 -->
<!-- Title: WeatherVane::get_weathervane_yawrate Pages: 1 -->
<svg width="525pt" height="142pt"
 viewBox="0.00 0.00 525.00 142.00" xmlns="http://www.w3.org/2000/svg" xmlns:xlink="http://www.w3.org/1999/xlink">
<g id="graph0" class="graph" transform="scale(1 1) rotate(0) translate(4 138)">
<title>WeatherVane::get_weathervane_yawrate</title>
<polygon fill="#ffffff" stroke="transparent" points="-4,4 -4,-138 521,-138 521,4 -4,4"/>
<!-- Node14 -->
<g id="node1" class="node">
<title>Node14</title>
<polygon fill="#bfbfbf" stroke="#000000" points="0,-52 0,-82 156,-82 156,-52 0,-52"/>
<text text-anchor="start" x="8" y="-70" font-family="Helvetica,sans-Serif" font-size="10.00" fill="#000000">WeatherVane::get_weathervane</text>
<text text-anchor="middle" x="78" y="-59" font-family="Helvetica,sans-Serif" font-size="10.00" fill="#000000">_yawrate</text>
</g>
<!-- Node15 -->
<g id="node2" class="node">
<title>Node15</title>
<g id="a_node2"><a xlink:href="../../dd/d47/namespacemath.html#a4a49a65edaf29055a3cb021908a031d7" target="_top" xlink:title="math::constrain">
<polygon fill="#ffffff" stroke="#000000" points="213,-114.5 213,-133.5 297,-133.5 297,-114.5 213,-114.5"/>
<text text-anchor="middle" x="255" y="-121.5" font-family="Helvetica,sans-Serif" font-size="10.00" fill="#000000">math::constrain</text>
</a>
</g>
</g>
<!-- Node14&#45;&gt;Node15 -->
<g id="edge1" class="edge">
<title>Node14&#45;&gt;Node15</title>
<path fill="none" stroke="#191970" d="M122.0245,-82.0039C143.144,-89.1173 168.8343,-97.6475 192,-105 198.6575,-107.113 205.7285,-109.3005 212.6357,-111.4063"/>
<polygon fill="#191970" stroke="#191970" points="211.986,-114.8664 222.5712,-114.415 214.0148,-108.1669 211.986,-114.8664"/>
</g>
<!-- Node16 -->
<g id="node3" class="node">
<title>Node16</title>
<g id="a_node3"><a xlink:href="../../d8/da1/integration_8cpp.html#af5ba872dd09316732300733cc164ac1a" target="_top" xlink:title="f">
<polygon fill="#ffffff" stroke="#000000" points="240.5,-76.5 240.5,-95.5 269.5,-95.5 269.5,-76.5 240.5,-76.5"/>
<text text-anchor="middle" x="255" y="-83.5" font-family="Helvetica,sans-Serif" font-size="10.00" fill="#000000">f</text>
</a>
</g>
</g>
<!-- Node14&#45;&gt;Node16 -->
<g id="edge2" class="edge">
<title>Node14&#45;&gt;Node16</title>
<path fill="none" stroke="#191970" d="M156.15,-75.389C182.9053,-78.261 210.9401,-81.2704 230.2915,-83.3477"/>
<polygon fill="#191970" stroke="#191970" points="230.0294,-86.8396 240.3459,-84.427 230.7766,-79.8795 230.0294,-86.8396"/>
</g>
<!-- Node19 -->
<g id="node6" class="node">
<title>Node19</title>
<g id="a_node6"><a xlink:href="../../d1/d71/classmatrix_1_1_vector.html#a365e3830426a4718bd625f6826319aaf" target="_top" xlink:title="matrix::Vector::normalize">
<polygon fill="#ffffff" stroke="#000000" points="192,-38.5 192,-57.5 318,-57.5 318,-38.5 192,-38.5"/>
<text text-anchor="middle" x="255" y="-45.5" font-family="Helvetica,sans-Serif" font-size="10.00" fill="#000000">matrix::Vector::normalize</text>
</a>
</g>
</g>
<!-- Node14&#45;&gt;Node19 -->
<g id="edge6" class="edge">
<title>Node14&#45;&gt;Node19</title>
<path fill="none" stroke="#191970" d="M156.15,-58.611C164.6433,-57.6993 173.2655,-56.7738 181.6979,-55.8686"/>
<polygon fill="#191970" stroke="#191970" points="182.2988,-59.3243 191.8681,-54.7769 181.5516,-52.3643 182.2988,-59.3243"/>
</g>
<!-- Node20 -->
<g id="node7" class="node">
<title>Node20</title>
<g id="a_node7"><a xlink:href="../../dd/d47/namespacemath.html#a7e34369248d5d1565073dc552dd90d5c" target="_top" xlink:title="math::radians">
<polygon fill="#ffffff" stroke="#000000" points="217,-.5 217,-19.5 293,-19.5 293,-.5 217,-.5"/>
<text text-anchor="middle" x="255" y="-7.5" font-family="Helvetica,sans-Serif" font-size="10.00" fill="#000000">math::radians</text>
</a>
</g>
</g>
<!-- Node14&#45;&gt;Node20 -->
<g id="edge7" class="edge">
<title>Node14&#45;&gt;Node20</title>
<path fill="none" stroke="#191970" d="M122.0245,-51.9961C143.144,-44.8827 168.8343,-36.3525 192,-29 198.6575,-26.887 205.7285,-24.6995 212.6357,-22.5937"/>
<polygon fill="#191970" stroke="#191970" points="214.0148,-25.8331 222.5712,-19.585 211.986,-19.1336 214.0148,-25.8331"/>
</g>
<!-- Node17 -->
<g id="node4" class="node">
<title>Node17</title>
<g id="a_node4"><a xlink:href="../../d0/de4/namespacematrix.html#a761295febb473ca1226309513533e801" target="_top" xlink:title="matrix::sin">
<polygon fill="#ffffff" stroke="#000000" points="354,-76.5 354,-95.5 416,-95.5 416,-76.5 354,-76.5"/>
<text text-anchor="middle" x="385" y="-83.5" font-family="Helvetica,sans-Serif" font-size="10.00" fill="#000000">matrix::sin</text>
</a>
</g>
</g>
<!-- Node16&#45;&gt;Node17 -->
<g id="edge3" class="edge">
<title>Node16&#45;&gt;Node17</title>
<path fill="none" stroke="#191970" d="M269.6599,-86C287.5187,-86 318.4406,-86 343.7743,-86"/>
<polygon fill="#191970" stroke="#191970" points="343.8786,-89.5001 353.8785,-86 343.8785,-82.5001 343.8786,-89.5001"/>
</g>
<!-- Node18 -->
<g id="node5" class="node">
<title>Node18</title>
<g id="a_node5"><a xlink:href="../../d0/de4/namespacematrix.html#a2e09123c750ed3a0315a31f3b27a3ed9" target="_top" xlink:title="matrix::cos">
<polygon fill="#ffffff" stroke="#000000" points="452,-76.5 452,-95.5 517,-95.5 517,-76.5 452,-76.5"/>
<text text-anchor="middle" x="484.5" y="-83.5" font-family="Helvetica,sans-Serif" font-size="10.00" fill="#000000">matrix::cos</text>
</a>
</g>
</g>
<!-- Node17&#45;&gt;Node18 -->
<g id="edge4" class="edge">
<title>Node17&#45;&gt;Node18</title>
<path fill="none" stroke="#191970" d="M416.2094,-79.6852C424.232,-79.2913 433.0052,-79.1648 441.5098,-79.3057"/>
<polygon fill="#191970" stroke="#191970" points="441.5817,-82.8093 451.682,-79.6102 441.7912,-75.8125 441.5817,-82.8093"/>
</g>
<!-- Node18&#45;&gt;Node17 -->
<g id="edge5" class="edge">
<title>Node18&#45;&gt;Node17</title>
<path fill="none" stroke="#191970" d="M451.682,-92.3898C443.5641,-92.7482 434.7634,-92.8391 426.299,-92.6627"/>
<polygon fill="#191970" stroke="#191970" points="426.3241,-89.1616 416.2094,-92.3148 426.0829,-96.1574 426.3241,-89.1616"/>
</g>
</g>
</svg>
