<?xml version="1.0" encoding="UTF-8" standalone="no"?>
<!DOCTYPE svg PUBLIC "-//W3C//DTD SVG 1.1//EN"
 "http://www.w3.org/Graphics/SVG/1.1/DTD/svg11.dtd">
<!-- Generated by graphviz version 2.38.0 (20140413.2041)
 -->
<!-- Title: write_frame_header Pages: 1 -->
<!--zoomable 176 -->
<svg id="main" version="1.1" xmlns="http://www.w3.org/2000/svg" xmlns:xlink="http://www.w3.org/1999/xlink" xml:space="preserve" onload="init(evt)">
<style type="text/css"><![CDATA[
.edge:hover path { stroke: red; }
.edge:hover polygon { stroke: red; fill: red; }
]]></style>
<script type="text/javascript"><![CDATA[
var edges = document.getElementsByTagName('g');
if (edges && edges.length) {
  for (var i=0;i<edges.length;i++) {
    if (edges[i].id.substr(0,4)=='edge') {
      edges[i].setAttribute('class','edge');
    }
  }
}
]]></script>
        <defs>
                <circle id="rim" cx="0" cy="0" r="7"/>
                <circle id="rim2" cx="0" cy="0" r="3.5"/>
                <g id="zoomPlus">
                        <use xlink:href="#rim" fill="#404040">
                                <set attributeName="fill" to="#808080" begin="zoomplus.mouseover" end="zoomplus.mouseout"/>
                        </use>
                        <path d="M-4,0h8M0,-4v8" fill="none" stroke="white" stroke-width="1.5" pointer-events="none"/>
                </g>
                <g id="zoomMin">
                        <use xlink:href="#rim" fill="#404040">
                                <set attributeName="fill" to="#808080" begin="zoomminus.mouseover" end="zoomminus.mouseout"/>
                        </use>
                        <path d="M-4,0h8" fill="none" stroke="white" stroke-width="1.5" pointer-events="none"/>
                </g>
                <g id="dirArrow">
                        <path fill="none" stroke="white" stroke-width="1.5" d="M0,-3.0v7 M-2.5,-0.5L0,-3.0L2.5,-0.5"/>
                </g>
               <g id="resetDef">
                       <use xlink:href="#rim2" fill="#404040">
                               <set attributeName="fill" to="#808080" begin="reset.mouseover" end="reset.mouseout"/>
                       </use>
               </g>
        </defs>

<script type="text/javascript">
var viewWidth = 1215;
var viewHeight = 176;
var sectionId = 'dynsection-25';
</script>
<script xlink:href="../../svgpan.js"/>
<svg id="graph" class="graph">
<g id="viewport">
<title>write_frame_header</title>
<polygon fill="white" stroke="none" points="-4,4 -4,-171.5 1211,-171.5 1211,4 -4,4"/>
<!-- Node1 -->
<g id="node1" class="node"><title>Node1</title>
<polygon fill="#bfbfbf" stroke="black" points="0,-68.5 0,-87.5 102,-87.5 102,-68.5 0,-68.5"/>
<text text-anchor="middle" x="51" y="-75.5" font-family="Helvetica,sans-Serif" font-size="10.00">write_frame_header</text>
</g>
<!-- Node2 -->
<g id="node2" class="node"><title>Node2</title>
<g id="a_node2"><a xlink:href="../../d9/ddf/crsf_8h.html#a32d45afb8bb88c343c41403502936375" target="_top" xlink:title="Send telemetry Attitude information. ">
<polygon fill="white" stroke="black" points="148.5,-137 148.5,-167 253.5,-167 253.5,-137 148.5,-137"/>
<text text-anchor="start" x="156.5" y="-155" font-family="Helvetica,sans-Serif" font-size="10.00">crsf_send_telemetry</text>
<text text-anchor="middle" x="201" y="-144" font-family="Helvetica,sans-Serif" font-size="10.00">_attitude</text>
</a>
</g>
</g>
<!-- Node1&#45;&gt;Node2 -->
<g id="edge1" class="edge"><title>Node1&#45;&gt;Node2</title>
<path fill="none" stroke="midnightblue" d="M76.2266,-92.9692C93.2033,-103.168 116.595,-116.645 138,-127 145.104,-130.437 152.809,-133.812 160.294,-136.915"/>
<polygon fill="midnightblue" stroke="midnightblue" points="77.8738,-89.8748 67.5085,-87.6814 74.2436,-95.86 77.8738,-89.8748"/>
</g>
<!-- Node10 -->
<g id="node10" class="node"><title>Node10</title>
<g id="a_node10"><a xlink:href="../../d9/ddf/crsf_8h.html#a134bde0b918bd74e75ca723e01889a78" target="_top" xlink:title="Send telemetry battery information. ">
<polygon fill="white" stroke="black" points="148.5,-88 148.5,-118 253.5,-118 253.5,-88 148.5,-88"/>
<text text-anchor="start" x="156.5" y="-106" font-family="Helvetica,sans-Serif" font-size="10.00">crsf_send_telemetry</text>
<text text-anchor="middle" x="201" y="-95" font-family="Helvetica,sans-Serif" font-size="10.00">_battery</text>
</a>
</g>
</g>
<!-- Node1&#45;&gt;Node10 -->
<g id="edge10" class="edge"><title>Node1&#45;&gt;Node10</title>
<path fill="none" stroke="midnightblue" d="M112.081,-88.1488C124.134,-90.1848 136.698,-92.3071 148.432,-94.2891"/>
<polygon fill="midnightblue" stroke="midnightblue" points="112.549,-84.6784 102.106,-86.4639 111.383,-91.5806 112.549,-84.6784"/>
</g>
<!-- Node12 -->
<g id="node12" class="node"><title>Node12</title>
<g id="a_node12"><a xlink:href="../../d9/ddf/crsf_8h.html#ae3b75a9b9b0caf66f83b73bec5bfaaeb" target="_top" xlink:title="Send telemetry Flight Mode information. ">
<polygon fill="white" stroke="black" points="148.5,-39 148.5,-69 253.5,-69 253.5,-39 148.5,-39"/>
<text text-anchor="start" x="156.5" y="-57" font-family="Helvetica,sans-Serif" font-size="10.00">crsf_send_telemetry</text>
<text text-anchor="middle" x="201" y="-46" font-family="Helvetica,sans-Serif" font-size="10.00">_flight_mode</text>
</a>
</g>
</g>
<!-- Node1&#45;&gt;Node12 -->
<g id="edge13" class="edge"><title>Node1&#45;&gt;Node12</title>
<path fill="none" stroke="midnightblue" d="M112.081,-68.2571C124.134,-66.3026 136.698,-64.2651 148.432,-62.3624"/>
<polygon fill="midnightblue" stroke="midnightblue" points="111.417,-64.819 102.106,-69.8747 112.537,-71.7288 111.417,-64.819"/>
</g>
<!-- Node14 -->
<g id="node14" class="node"><title>Node14</title>
<g id="a_node14"><a xlink:href="../../d9/ddf/crsf_8h.html#aba14c3d1e3928f2951cf4ac375d03f83" target="_top" xlink:title="Send telemetry GPS information. ">
<polygon fill="white" stroke="black" points="138,-0.5 138,-19.5 264,-19.5 264,-0.5 138,-0.5"/>
<text text-anchor="middle" x="201" y="-7.5" font-family="Helvetica,sans-Serif" font-size="10.00">crsf_send_telemetry_gps</text>
</a>
</g>
</g>
<!-- Node1&#45;&gt;Node14 -->
<g id="edge16" class="edge"><title>Node1&#45;&gt;Node14</title>
<path fill="none" stroke="midnightblue" d="M75.0391,-63.0136C91.9578,-52.476 115.771,-38.599 138,-29 146.268,-25.4296 155.424,-22.2352 164.104,-19.5305"/>
<polygon fill="midnightblue" stroke="midnightblue" points="72.9834,-60.1724 66.4029,-68.4758 76.7253,-66.0884 72.9834,-60.1724"/>
</g>
<!-- Node3 -->
<g id="node3" class="node"><title>Node3</title>
<g id="a_node3"><a xlink:href="../../d0/da3/class_c_r_s_f_telemetry.html#ae60b3713b4ecebab6748b5ed612197a6" target="_top" xlink:title="CRSFTelemetry::send\l_attitude">
<polygon fill="white" stroke="black" points="310.5,-137 310.5,-167 425.5,-167 425.5,-137 310.5,-137"/>
<text text-anchor="start" x="318.5" y="-155" font-family="Helvetica,sans-Serif" font-size="10.00">CRSFTelemetry::send</text>
<text text-anchor="middle" x="368" y="-144" font-family="Helvetica,sans-Serif" font-size="10.00">_attitude</text>
</a>
</g>
</g>
<!-- Node2&#45;&gt;Node3 -->
<g id="edge2" class="edge"><title>Node2&#45;&gt;Node3</title>
<path fill="none" stroke="midnightblue" d="M264.067,-152C279.229,-152 295.374,-152 310.272,-152"/>
<polygon fill="midnightblue" stroke="midnightblue" points="263.754,-148.5 253.754,-152 263.754,-155.5 263.754,-148.5"/>
</g>
<!-- Node4 -->
<g id="node4" class="node"><title>Node4</title>
<g id="a_node4"><a xlink:href="../../d0/da3/class_c_r_s_f_telemetry.html#a8cd227cc2e9f118ddf0d0bb1cb14db2b" target="_top" xlink:title="Send telemetry data. ">
<polygon fill="white" stroke="black" points="472,-68.5 472,-87.5 595,-87.5 595,-68.5 472,-68.5"/>
<text text-anchor="middle" x="533.5" y="-75.5" font-family="Helvetica,sans-Serif" font-size="10.00">CRSFTelemetry::update</text>
</a>
</g>
</g>
<!-- Node3&#45;&gt;Node4 -->
<g id="edge3" class="edge"><title>Node3&#45;&gt;Node4</title>
<path fill="none" stroke="midnightblue" d="M421.154,-133.197C426.202,-131.18 431.22,-129.098 436,-127 464.218,-114.618 495.885,-97.9911 515.002,-87.6393"/>
<polygon fill="midnightblue" stroke="midnightblue" points="419.507,-130.083 411.464,-136.979 422.053,-136.604 419.507,-130.083"/>
</g>
<!-- Node5 -->
<g id="node5" class="node"><title>Node5</title>
<g id="a_node5"><a xlink:href="../../d4/d39/class_r_c_input.html#ace64f958902ab60b6bd9b8aea6060bd0" target="_top" xlink:title="run the main loop: if running as task, continuously iterate, otherwise execute only one single cycle ...">
<polygon fill="white" stroke="black" points="631,-68.5 631,-87.5 714,-87.5 714,-68.5 631,-68.5"/>
<text text-anchor="middle" x="672.5" y="-75.5" font-family="Helvetica,sans-Serif" font-size="10.00">RCInput::cycle</text>
</a>
</g>
</g>
<!-- Node4&#45;&gt;Node5 -->
<g id="edge4" class="edge"><title>Node4&#45;&gt;Node5</title>
<path fill="none" stroke="midnightblue" d="M605.56,-78C614.231,-78 622.848,-78 630.853,-78"/>
<polygon fill="midnightblue" stroke="midnightblue" points="605.388,-74.5001 595.388,-78 605.388,-81.5001 605.388,-74.5001"/>
</g>
<!-- Node6 -->
<g id="node6" class="node"><title>Node6</title>
<g id="a_node6"><a xlink:href="../../d4/d39/class_r_c_input.html#a89e6d02e7210697d094f3f83a1e2bffa" target="_top" xlink:title="RCInput::cycle_trampoline">
<polygon fill="white" stroke="black" points="750,-68.5 750,-87.5 883,-87.5 883,-68.5 750,-68.5"/>
<text text-anchor="middle" x="816.5" y="-75.5" font-family="Helvetica,sans-Serif" font-size="10.00">RCInput::cycle_trampoline</text>
</a>
</g>
</g>
<!-- Node5&#45;&gt;Node6 -->
<g id="edge5" class="edge"><title>Node5&#45;&gt;Node6</title>
<path fill="none" stroke="midnightblue" d="M724.405,-71.4963C732.665,-71.2887 741.32,-71.2123 749.871,-71.2672"/>
<polygon fill="midnightblue" stroke="midnightblue" points="724.072,-68.0052 714.192,-71.8294 724.3,-75.0014 724.072,-68.0052"/>
</g>
<!-- Node9 -->
<g id="node9" class="node"><title>Node9</title>
<g id="a_node9"><a xlink:href="../../d4/d39/class_r_c_input.html#aae629b209df03bdf98055a0f934a740b" target="_top" xlink:title="RCInput::run">
<polygon fill="white" stroke="black" points="780,-30.5 780,-49.5 853,-49.5 853,-30.5 780,-30.5"/>
<text text-anchor="middle" x="816.5" y="-37.5" font-family="Helvetica,sans-Serif" font-size="10.00">RCInput::run</text>
</a>
</g>
</g>
<!-- Node5&#45;&gt;Node9 -->
<g id="edge9" class="edge"><title>Node5&#45;&gt;Node9</title>
<path fill="none" stroke="midnightblue" d="M718.993,-65.8258C738.628,-60.5713 761.266,-54.5134 779.679,-49.5859"/>
<polygon fill="midnightblue" stroke="midnightblue" points="718.088,-62.4448 709.333,-68.411 719.897,-69.2069 718.088,-62.4448"/>
</g>
<!-- Node6&#45;&gt;Node5 -->
<g id="edge8" class="edge"><title>Node6&#45;&gt;Node5</title>
<path fill="none" stroke="midnightblue" d="M739.592,-84.7356C730.847,-84.6844 722.203,-84.4961 714.192,-84.1706"/>
<polygon fill="midnightblue" stroke="midnightblue" points="739.872,-88.2357 749.871,-84.7328 739.87,-81.2357 739.872,-88.2357"/>
</g>
<!-- Node7 -->
<g id="node7" class="node"><title>Node7</title>
<g id="a_node7"><a xlink:href="../../d4/d39/class_r_c_input.html#a00568f58bcad02fe2f6b0aec25b66d85" target="_top" xlink:title="RCInput::task_spawn">
<polygon fill="white" stroke="black" points="919,-68.5 919,-87.5 1031,-87.5 1031,-68.5 919,-68.5"/>
<text text-anchor="middle" x="975" y="-75.5" font-family="Helvetica,sans-Serif" font-size="10.00">RCInput::task_spawn</text>
</a>
</g>
</g>
<!-- Node6&#45;&gt;Node7 -->
<g id="edge6" class="edge"><title>Node6&#45;&gt;Node7</title>
<path fill="none" stroke="midnightblue" d="M893.627,-78C902.032,-78 910.47,-78 918.552,-78"/>
<polygon fill="midnightblue" stroke="midnightblue" points="893.417,-74.5001 883.417,-78 893.416,-81.5001 893.417,-74.5001"/>
</g>
<!-- Node8 -->
<g id="node8" class="node"><title>Node8</title>
<g id="a_node8"><a xlink:href="../../d4/d39/class_r_c_input.html#a94fd258efbf564c226e844922ca51c4d" target="_top" xlink:title="RCInput::custom_command">
<polygon fill="white" stroke="black" points="1067,-68.5 1067,-87.5 1207,-87.5 1207,-68.5 1067,-68.5"/>
<text text-anchor="middle" x="1137" y="-75.5" font-family="Helvetica,sans-Serif" font-size="10.00">RCInput::custom_command</text>
</a>
</g>
</g>
<!-- Node7&#45;&gt;Node8 -->
<g id="edge7" class="edge"><title>Node7&#45;&gt;Node8</title>
<path fill="none" stroke="midnightblue" d="M1041.26,-78C1049.74,-78 1058.45,-78 1066.98,-78"/>
<polygon fill="midnightblue" stroke="midnightblue" points="1041.06,-74.5001 1031.06,-78 1041.06,-81.5001 1041.06,-74.5001"/>
</g>
<!-- Node11 -->
<g id="node11" class="node"><title>Node11</title>
<g id="a_node11"><a xlink:href="../../d0/da3/class_c_r_s_f_telemetry.html#a291dd664fb2f821fa855735ca1494563" target="_top" xlink:title="CRSFTelemetry::send\l_battery">
<polygon fill="white" stroke="black" points="310.5,-88 310.5,-118 425.5,-118 425.5,-88 310.5,-88"/>
<text text-anchor="start" x="318.5" y="-106" font-family="Helvetica,sans-Serif" font-size="10.00">CRSFTelemetry::send</text>
<text text-anchor="middle" x="368" y="-95" font-family="Helvetica,sans-Serif" font-size="10.00">_battery</text>
</a>
</g>
</g>
<!-- Node10&#45;&gt;Node11 -->
<g id="edge11" class="edge"><title>Node10&#45;&gt;Node11</title>
<path fill="none" stroke="midnightblue" d="M264.067,-103C279.229,-103 295.374,-103 310.272,-103"/>
<polygon fill="midnightblue" stroke="midnightblue" points="263.754,-99.5001 253.754,-103 263.754,-106.5 263.754,-99.5001"/>
</g>
<!-- Node11&#45;&gt;Node4 -->
<g id="edge12" class="edge"><title>Node11&#45;&gt;Node4</title>
<path fill="none" stroke="midnightblue" d="M435.684,-92.8036C447.694,-90.9673 460.153,-89.0622 471.976,-87.2544"/>
<polygon fill="midnightblue" stroke="midnightblue" points="435.082,-89.355 425.726,-94.3264 436.14,-96.2746 435.082,-89.355"/>
</g>
<!-- Node13 -->
<g id="node13" class="node"><title>Node13</title>
<g id="a_node13"><a xlink:href="../../d0/da3/class_c_r_s_f_telemetry.html#ac9f030b9b009c365f1bcff8e765dd4b6" target="_top" xlink:title="CRSFTelemetry::send\l_flight_mode">
<polygon fill="white" stroke="black" points="310.5,-39 310.5,-69 425.5,-69 425.5,-39 310.5,-39"/>
<text text-anchor="start" x="318.5" y="-57" font-family="Helvetica,sans-Serif" font-size="10.00">CRSFTelemetry::send</text>
<text text-anchor="middle" x="368" y="-46" font-family="Helvetica,sans-Serif" font-size="10.00">_flight_mode</text>
</a>
</g>
</g>
<!-- Node12&#45;&gt;Node13 -->
<g id="edge14" class="edge"><title>Node12&#45;&gt;Node13</title>
<path fill="none" stroke="midnightblue" d="M264.067,-54C279.229,-54 295.374,-54 310.272,-54"/>
<polygon fill="midnightblue" stroke="midnightblue" points="263.754,-50.5001 253.754,-54 263.754,-57.5001 263.754,-50.5001"/>
</g>
<!-- Node13&#45;&gt;Node4 -->
<g id="edge15" class="edge"><title>Node13&#45;&gt;Node4</title>
<path fill="none" stroke="midnightblue" d="M435.684,-63.7885C447.694,-65.5514 460.153,-67.3803 471.976,-69.1158"/>
<polygon fill="midnightblue" stroke="midnightblue" points="436.128,-60.3162 425.726,-62.3267 435.111,-67.242 436.128,-60.3162"/>
</g>
<!-- Node15 -->
<g id="node15" class="node"><title>Node15</title>
<g id="a_node15"><a xlink:href="../../d0/da3/class_c_r_s_f_telemetry.html#a1a43efaf0777d7821ebbdf2f8ec51046" target="_top" xlink:title="CRSFTelemetry::send_gps">
<polygon fill="white" stroke="black" points="300,-0.5 300,-19.5 436,-19.5 436,-0.5 300,-0.5"/>
<text text-anchor="middle" x="368" y="-7.5" font-family="Helvetica,sans-Serif" font-size="10.00">CRSFTelemetry::send_gps</text>
</a>
</g>
</g>
<!-- Node14&#45;&gt;Node15 -->
<g id="edge17" class="edge"><title>Node14&#45;&gt;Node15</title>
<path fill="none" stroke="midnightblue" d="M274.548,-10C282.96,-10 291.513,-10 299.849,-10"/>
<polygon fill="midnightblue" stroke="midnightblue" points="274.379,-6.5001 264.379,-10 274.379,-13.5001 274.379,-6.5001"/>
</g>
<!-- Node15&#45;&gt;Node4 -->
<g id="edge18" class="edge"><title>Node15&#45;&gt;Node4</title>
<path fill="none" stroke="midnightblue" d="M417.497,-22.5445C423.785,-24.5226 430.089,-26.6864 436,-29 465.22,-40.4372 497.383,-57.8045 516.214,-68.4978"/>
<polygon fill="midnightblue" stroke="midnightblue" points="418.273,-19.1231 407.689,-19.5942 416.257,-25.8264 418.273,-19.1231"/>
</g>
</g>
</svg>
        <g id="navigator" transform="translate(0 0)" fill="#404254">
                <rect fill="#f2f5e9" fill-opacity="0.5" stroke="#606060" stroke-width=".5" x="0" y="0" width="60" height="60"/>
                <use id="zoomplus" xlink:href="#zoomPlus" x="17" y="9" onmousedown="handleZoom(evt,'in')"/>
                <use id="zoomminus" xlink:href="#zoomMin" x="42" y="9" onmousedown="handleZoom(evt,'out')"/>
                <use id="reset" xlink:href="#resetDef" x="30" y="36" onmousedown="handleReset()"/>
                <g id="arrowUp" xlink:href="#dirArrow" transform="translate(30 24)" onmousedown="handlePan(0,-1)">
                  <use xlink:href="#rim" fill="#404040">
                        <set attributeName="fill" to="#808080" begin="arrowUp.mouseover" end="arrowUp.mouseout"/>
                  </use>
                  <path fill="none" stroke="white" stroke-width="1.5" d="M0,-3.0v7 M-2.5,-0.5L0,-3.0L2.5,-0.5"/>
                </g>
                <g id="arrowRight" xlink:href="#dirArrow" transform="rotate(90) translate(36 -43)" onmousedown="handlePan(1,0)">
                  <use xlink:href="#rim" fill="#404040">
                        <set attributeName="fill" to="#808080" begin="arrowRight.mouseover" end="arrowRight.mouseout"/>
                  </use>
                  <path fill="none" stroke="white" stroke-width="1.5" d="M0,-3.0v7 M-2.5,-0.5L0,-3.0L2.5,-0.5"/>
                </g>
                <g id="arrowDown" xlink:href="#dirArrow" transform="rotate(180) translate(-30 -48)" onmousedown="handlePan(0,1)">
                  <use xlink:href="#rim" fill="#404040">
                        <set attributeName="fill" to="#808080" begin="arrowDown.mouseover" end="arrowDown.mouseout"/>
                  </use>
                  <path fill="none" stroke="white" stroke-width="1.5" d="M0,-3.0v7 M-2.5,-0.5L0,-3.0L2.5,-0.5"/>
                </g>
                <g id="arrowLeft" xlink:href="#dirArrow" transform="rotate(270) translate(-36 17)" onmousedown="handlePan(-1,0)">
                  <use xlink:href="#rim" fill="#404040">
                        <set attributeName="fill" to="#808080" begin="arrowLeft.mouseover" end="arrowLeft.mouseout"/>
                  </use>
                  <path fill="none" stroke="white" stroke-width="1.5" d="M0,-3.0v7 M-2.5,-0.5L0,-3.0L2.5,-0.5"/>
                </g>
        </g>
        <svg viewBox="0 0 15 15" width="100%" height="30px" preserveAspectRatio="xMaxYMin meet">
         <g id="arrow_out" transform="scale(0.3 0.3)">
          <a xlink:href="crsf_8cpp_a461909d95b07d96cf692123fda2e47f1_icgraph_org.svg" target="_base">
           <rect id="button" ry="5" rx="5" y="6" x="6" height="38" width="38"
                fill="#f2f5e9" fill-opacity="0.5" stroke="#606060" stroke-width="1.0"/>
           <path id="arrow"
             d="M 11.500037,31.436501 C 11.940474,20.09759 22.043105,11.32322 32.158766,21.979434 L 37.068811,17.246167 C 37.068811,17.246167 37.088388,32 37.088388,32 L 22.160133,31.978069 C 22.160133,31.978069 26.997745,27.140456 26.997745,27.140456 C 18.528582,18.264221 13.291696,25.230495 11.500037,31.436501 z"
             style="fill:#404040;"/>
          </a>
         </g>
        </svg>
</svg>
