<?xml version="1.0" encoding="UTF-8" standalone="no"?>
<!DOCTYPE svg PUBLIC "-//W3C//DTD SVG 1.1//EN"
 "http://www.w3.org/Graphics/SVG/1.1/DTD/svg11.dtd">
<!-- Generated by graphviz version 2.40.1 (20161225.0304)
 -->
<!-- Title: crc8_dvb_s2 Pages: 1 -->
<!--zoomable 253 -->
<svg id="main" version="1.1" xmlns="http://www.w3.org/2000/svg" xmlns:xlink="http://www.w3.org/1999/xlink" xml:space="preserve" onload="init(evt)">
<style type="text/css"><![CDATA[
.edge:hover path { stroke: red; }
.edge:hover polygon { stroke: red; fill: red; }
]]></style>
<script type="text/javascript"><![CDATA[
var edges = document.getElementsByTagName('g');
if (edges && edges.length) {
  for (var i=0;i<edges.length;i++) {
    if (edges[i].id.substr(0,4)=='edge') {
      edges[i].setAttribute('class','edge');
    }
  }
}
]]></script>
        <defs>
                <circle id="rim" cx="0" cy="0" r="7"/>
                <circle id="rim2" cx="0" cy="0" r="3.5"/>
                <g id="zoomPlus">
                        <use xlink:href="#rim" fill="#404040">
                                <set attributeName="fill" to="#808080" begin="zoomplus.mouseover" end="zoomplus.mouseout"/>
                        </use>
                        <path d="M-4,0h8M0,-4v8" fill="none" stroke="white" stroke-width="1.5" pointer-events="none"/>
                </g>
                <g id="zoomMin">
                        <use xlink:href="#rim" fill="#404040">
                                <set attributeName="fill" to="#808080" begin="zoomminus.mouseover" end="zoomminus.mouseout"/>
                        </use>
                        <path d="M-4,0h8" fill="none" stroke="white" stroke-width="1.5" pointer-events="none"/>
                </g>
                <g id="dirArrow">
                        <path fill="none" stroke="white" stroke-width="1.5" d="M0,-3.0v7 M-2.5,-0.5L0,-3.0L2.5,-0.5"/>
                </g>
               <g id="resetDef">
                       <use xlink:href="#rim2" fill="#404040">
                               <set attributeName="fill" to="#808080" begin="reset.mouseover" end="reset.mouseout"/>
                       </use>
               </g>
        </defs>

<script type="text/javascript">
var viewWidth = 1458;
var viewHeight = 253;
var sectionId = 'dynsection-3';
</script>
<script xlink:href="../../svgpan.js"/>
<svg id="graph" class="graph">
<g id="viewport">
<title>crc8_dvb_s2</title>
<polygon fill="#ffffff" stroke="transparent" points="-4,4 -4,-248.5 1454,-248.5 1454,4 -4,4"/>
<!-- Node17 -->
<g id="node1" class="node">
<title>Node17</title>
<polygon fill="#bfbfbf" stroke="#000000" points="0,-85.5 0,-104.5 72,-104.5 72,-85.5 0,-85.5"/>
<text text-anchor="middle" x="36" y="-92.5" font-family="Helvetica,sans-Serif" font-size="10.00" fill="#000000">crc8_dvb_s2</text>
</g>
<!-- Node18 -->
<g id="node2" class="node">
<title>Node18</title>
<g id="a_node2"><a xlink:href="../../d9/dd2/crsf_8cpp.html#aab14eaa1bbea8904e8d69a209243d6ad" target="_top" xlink:title="crc8_dvb_s2_buf">
<polygon fill="#ffffff" stroke="#000000" points="108,-104.5 108,-123.5 199,-123.5 199,-104.5 108,-104.5"/>
<text text-anchor="middle" x="153.5" y="-111.5" font-family="Helvetica,sans-Serif" font-size="10.00" fill="#000000">crc8_dvb_s2_buf</text>
</a>
</g>
</g>
<!-- Node17&#45;&gt;Node18 -->
<g id="edge1" class="edge">
<title>Node17&#45;&gt;Node18</title>
<path fill="none" stroke="#191970" d="M82.1934,-102.4696C90.5605,-103.8225 99.2841,-105.2332 107.6416,-106.5846"/>
<polygon fill="#191970" stroke="#191970" points="82.6431,-98.9969 72.2126,-100.8557 81.5257,-105.9072 82.6431,-98.9969"/>
</g>
<!-- Node35 -->
<g id="node19" class="node">
<title>Node35</title>
<g id="a_node19"><a xlink:href="../../d9/dd2/crsf_8cpp.html#ae4fc4d987830353c889a5ccfcfd7b95d" target="_top" xlink:title="crsf_frame_CRC">
<polygon fill="#ffffff" stroke="#000000" points="108,-66.5 108,-85.5 199,-85.5 199,-66.5 108,-66.5"/>
<text text-anchor="middle" x="153.5" y="-73.5" font-family="Helvetica,sans-Serif" font-size="10.00" fill="#000000">crsf_frame_CRC</text>
</a>
</g>
</g>
<!-- Node17&#45;&gt;Node35 -->
<g id="edge22" class="edge">
<title>Node17&#45;&gt;Node35</title>
<path fill="none" stroke="#191970" d="M82.1934,-87.5304C90.5605,-86.1775 99.2841,-84.7668 107.6416,-83.4154"/>
<polygon fill="#191970" stroke="#191970" points="81.5257,-84.0928 72.2126,-89.1443 82.6431,-91.0031 81.5257,-84.0928"/>
</g>
<!-- Node19 -->
<g id="node3" class="node">
<title>Node19</title>
<g id="a_node3"><a xlink:href="../../d9/dd2/crsf_8cpp.html#a65770904fdf203916c835507541e2446" target="_top" xlink:title="write_frame_crc">
<polygon fill="#ffffff" stroke="#000000" points="238,-131.5 238,-150.5 324,-150.5 324,-131.5 238,-131.5"/>
<text text-anchor="middle" x="281" y="-138.5" font-family="Helvetica,sans-Serif" font-size="10.00" fill="#000000">write_frame_crc</text>
</a>
</g>
</g>
<!-- Node18&#45;&gt;Node19 -->
<g id="edge2" class="edge">
<title>Node18&#45;&gt;Node19</title>
<path fill="none" stroke="#191970" d="M208.5027,-125.6476C218.2828,-127.7187 228.3428,-129.8491 237.7384,-131.8387"/>
<polygon fill="#191970" stroke="#191970" points="208.9599,-122.1669 198.4517,-123.5192 207.5097,-129.015 208.9599,-122.1669"/>
</g>
<!-- Node20 -->
<g id="node4" class="node">
<title>Node20</title>
<g id="a_node4"><a xlink:href="../../d9/ddf/crsf_8h.html#a134bde0b918bd74e75ca723e01889a78" target="_top" xlink:title="Send telemetry battery information. ">
<polygon fill="#ffffff" stroke="#000000" points="373.5,-214 373.5,-244 478.5,-244 478.5,-214 373.5,-214"/>
<text text-anchor="start" x="381.5" y="-232" font-family="Helvetica,sans-Serif" font-size="10.00" fill="#000000">crsf_send_telemetry</text>
<text text-anchor="middle" x="426" y="-221" font-family="Helvetica,sans-Serif" font-size="10.00" fill="#000000">_battery</text>
</a>
</g>
</g>
<!-- Node19&#45;&gt;Node20 -->
<g id="edge3" class="edge">
<title>Node19&#45;&gt;Node20</title>
<path fill="none" stroke="#191970" d="M298.9882,-157.1878C314.9476,-170.9513 339.3367,-190.563 363,-204 369.3442,-207.6025 376.3107,-210.9264 383.2259,-213.8953"/>
<polygon fill="#191970" stroke="#191970" points="301.2861,-154.5478 291.4594,-150.5872 296.6714,-159.8114 301.2861,-154.5478"/>
</g>
<!-- Node29 -->
<g id="node13" class="node">
<title>Node29</title>
<g id="a_node13"><a xlink:href="../../d9/ddf/crsf_8h.html#aba14c3d1e3928f2951cf4ac375d03f83" target="_top" xlink:title="Send telemetry GPS information. ">
<polygon fill="#ffffff" stroke="#000000" points="363,-175.5 363,-194.5 489,-194.5 489,-175.5 363,-175.5"/>
<text text-anchor="middle" x="426" y="-182.5" font-family="Helvetica,sans-Serif" font-size="10.00" fill="#000000">crsf_send_telemetry_gps</text>
</a>
</g>
</g>
<!-- Node19&#45;&gt;Node29 -->
<g id="edge13" class="edge">
<title>Node19&#45;&gt;Node29</title>
<path fill="none" stroke="#191970" d="M321.8548,-153.4822C334.9902,-157.4883 349.6075,-161.939 363,-166 373.1672,-169.083 384.2617,-172.4335 394.2678,-175.4503"/>
<polygon fill="#191970" stroke="#191970" points="322.7299,-150.09 312.1438,-150.5192 320.687,-156.7853 322.7299,-150.09"/>
</g>
<!-- Node31 -->
<g id="node15" class="node">
<title>Node31</title>
<g id="a_node15"><a xlink:href="../../d9/ddf/crsf_8h.html#a32d45afb8bb88c343c41403502936375" target="_top" xlink:title="Send telemetry Attitude information. ">
<polygon fill="#ffffff" stroke="#000000" points="373.5,-126 373.5,-156 478.5,-156 478.5,-126 373.5,-126"/>
<text text-anchor="start" x="381.5" y="-144" font-family="Helvetica,sans-Serif" font-size="10.00" fill="#000000">crsf_send_telemetry</text>
<text text-anchor="middle" x="426" y="-133" font-family="Helvetica,sans-Serif" font-size="10.00" fill="#000000">_attitude</text>
</a>
</g>
</g>
<!-- Node19&#45;&gt;Node31 -->
<g id="edge16" class="edge">
<title>Node19&#45;&gt;Node31</title>
<path fill="none" stroke="#191970" d="M334.1377,-141C346.9117,-141 360.5511,-141 373.3048,-141"/>
<polygon fill="#191970" stroke="#191970" points="334.1122,-137.5001 324.1122,-141 334.1122,-144.5001 334.1122,-137.5001"/>
</g>
<!-- Node33 -->
<g id="node17" class="node">
<title>Node33</title>
<g id="a_node17"><a xlink:href="../../d9/ddf/crsf_8h.html#ae3b75a9b9b0caf66f83b73bec5bfaaeb" target="_top" xlink:title="Send telemetry Flight Mode information. ">
<polygon fill="#ffffff" stroke="#000000" points="373.5,-77 373.5,-107 478.5,-107 478.5,-77 373.5,-77"/>
<text text-anchor="start" x="381.5" y="-95" font-family="Helvetica,sans-Serif" font-size="10.00" fill="#000000">crsf_send_telemetry</text>
<text text-anchor="middle" x="426" y="-84" font-family="Helvetica,sans-Serif" font-size="10.00" fill="#000000">_flight_mode</text>
</a>
</g>
</g>
<!-- Node19&#45;&gt;Node33 -->
<g id="edge19" class="edge">
<title>Node19&#45;&gt;Node33</title>
<path fill="none" stroke="#191970" d="M318.9052,-128.1907C338.0818,-121.7103 361.4765,-113.8045 381.5029,-107.037"/>
<polygon fill="#191970" stroke="#191970" points="317.6548,-124.9187 309.3017,-131.436 319.8959,-131.5503 317.6548,-124.9187"/>
</g>
<!-- Node21 -->
<g id="node5" class="node">
<title>Node21</title>
<g id="a_node5"><a xlink:href="../../d0/da3/class_c_r_s_f_telemetry.html#a291dd664fb2f821fa855735ca1494563" target="_top" xlink:title="CRSFTelemetry::send\l_battery">
<polygon fill="#ffffff" stroke="#000000" points="535.5,-214 535.5,-244 650.5,-244 650.5,-214 535.5,-214"/>
<text text-anchor="start" x="543.5" y="-232" font-family="Helvetica,sans-Serif" font-size="10.00" fill="#000000">CRSFTelemetry::send</text>
<text text-anchor="middle" x="593" y="-221" font-family="Helvetica,sans-Serif" font-size="10.00" fill="#000000">_battery</text>
</a>
</g>
</g>
<!-- Node20&#45;&gt;Node21 -->
<g id="edge4" class="edge">
<title>Node20&#45;&gt;Node21</title>
<path fill="none" stroke="#191970" d="M489.1504,-229C504.3016,-229 520.4046,-229 535.2942,-229"/>
<polygon fill="#191970" stroke="#191970" points="488.8399,-225.5001 478.8398,-229 488.8398,-232.5001 488.8399,-225.5001"/>
</g>
<!-- Node22 -->
<g id="node6" class="node">
<title>Node22</title>
<g id="a_node6"><a xlink:href="../../d0/da3/class_c_r_s_f_telemetry.html#a8cd227cc2e9f118ddf0d0bb1cb14db2b" target="_top" xlink:title="Send telemetry data. ">
<polygon fill="#ffffff" stroke="#000000" points="697,-131.5 697,-150.5 820,-150.5 820,-131.5 697,-131.5"/>
<text text-anchor="middle" x="758.5" y="-138.5" font-family="Helvetica,sans-Serif" font-size="10.00" fill="#000000">CRSFTelemetry::update</text>
</a>
</g>
</g>
<!-- Node21&#45;&gt;Node22 -->
<g id="edge5" class="edge">
<title>Node21&#45;&gt;Node22</title>
<path fill="none" stroke="#191970" d="M647.6465,-210.133C652.2183,-208.1865 656.7235,-206.1347 661,-204 693.0962,-187.9783 727.6959,-163.7789 745.8005,-150.5197"/>
<polygon fill="#191970" stroke="#191970" points="646.161,-206.9589 638.2208,-213.9733 648.8022,-213.4415 646.161,-206.9589"/>
</g>
<!-- Node23 -->
<g id="node7" class="node">
<title>Node23</title>
<g id="a_node7"><a xlink:href="../../d4/d39/class_r_c_input.html#ace64f958902ab60b6bd9b8aea6060bd0" target="_top" xlink:title="run the main loop: if running as task, continuously iterate, otherwise execute only one single cycle ...">
<polygon fill="#ffffff" stroke="#000000" points="856,-84.5 856,-103.5 939,-103.5 939,-84.5 856,-84.5"/>
<text text-anchor="middle" x="897.5" y="-91.5" font-family="Helvetica,sans-Serif" font-size="10.00" fill="#000000">RCInput::cycle</text>
</a>
</g>
</g>
<!-- Node22&#45;&gt;Node23 -->
<g id="edge6" class="edge">
<title>Node22&#45;&gt;Node23</title>
<path fill="none" stroke="#191970" d="M796.3636,-128.1972C819.2516,-120.4581 847.9592,-110.7512 868.936,-103.6583"/>
<polygon fill="#191970" stroke="#191970" points="794.9807,-124.9701 786.6287,-131.4888 797.223,-131.6012 794.9807,-124.9701"/>
</g>
<!-- Node24 -->
<g id="node8" class="node">
<title>Node24</title>
<g id="a_node8"><a xlink:href="../../d4/d39/class_r_c_input.html#aa0f747b469407c03b13fa0b70876b328" target="_top" xlink:title="RCInput::cycle_trampoline_init">
<polygon fill="#ffffff" stroke="#000000" points="975,-122.5 975,-141.5 1126,-141.5 1126,-122.5 975,-122.5"/>
<text text-anchor="middle" x="1050.5" y="-129.5" font-family="Helvetica,sans-Serif" font-size="10.00" fill="#000000">RCInput::cycle_trampoline_init</text>
</a>
</g>
</g>
<!-- Node23&#45;&gt;Node24 -->
<g id="edge7" class="edge">
<title>Node23&#45;&gt;Node24</title>
<path fill="none" stroke="#191970" d="M945.9768,-106.04C967.3517,-111.3488 992.1134,-117.4988 1012.1693,-122.4799"/>
<polygon fill="#191970" stroke="#191970" points="946.6572,-102.6027 936.1084,-103.589 944.9698,-109.3963 946.6572,-102.6027"/>
</g>
<!-- Node27 -->
<g id="node11" class="node">
<title>Node27</title>
<g id="a_node11"><a xlink:href="../../d4/d39/class_r_c_input.html#a89e6d02e7210697d094f3f83a1e2bffa" target="_top" xlink:title="RCInput::cycle_trampoline">
<polygon fill="#ffffff" stroke="#000000" points="984,-84.5 984,-103.5 1117,-103.5 1117,-84.5 984,-84.5"/>
<text text-anchor="middle" x="1050.5" y="-91.5" font-family="Helvetica,sans-Serif" font-size="10.00" fill="#000000">RCInput::cycle_trampoline</text>
</a>
</g>
</g>
<!-- Node23&#45;&gt;Node27 -->
<g id="edge10" class="edge">
<title>Node23&#45;&gt;Node27</title>
<path fill="none" stroke="#191970" d="M949.57,-87.5657C960.5487,-87.2727 972.2774,-87.1836 983.7119,-87.2986"/>
<polygon fill="#191970" stroke="#191970" points="949.1852,-84.0765 939.3079,-87.9092 949.4194,-91.0726 949.1852,-84.0765"/>
</g>
<!-- Node28 -->
<g id="node12" class="node">
<title>Node28</title>
<g id="a_node12"><a xlink:href="../../d4/d39/class_r_c_input.html#aae629b209df03bdf98055a0f934a740b" target="_top" xlink:title="RCInput::run">
<polygon fill="#ffffff" stroke="#000000" points="1014,-46.5 1014,-65.5 1087,-65.5 1087,-46.5 1014,-46.5"/>
<text text-anchor="middle" x="1050.5" y="-53.5" font-family="Helvetica,sans-Serif" font-size="10.00" fill="#000000">RCInput::run</text>
</a>
</g>
</g>
<!-- Node23&#45;&gt;Node28 -->
<g id="edge12" class="edge">
<title>Node23&#45;&gt;Node28</title>
<path fill="none" stroke="#191970" d="M945.9117,-81.9762C967.8661,-76.5235 993.4044,-70.1806 1013.7493,-65.1276"/>
<polygon fill="#191970" stroke="#191970" points="944.9698,-78.6037 936.1084,-84.411 946.6572,-85.3973 944.9698,-78.6037"/>
</g>
<!-- Node25 -->
<g id="node9" class="node">
<title>Node25</title>
<g id="a_node9"><a xlink:href="../../d4/d39/class_r_c_input.html#a00568f58bcad02fe2f6b0aec25b66d85" target="_top" xlink:title="RCInput::task_spawn">
<polygon fill="#ffffff" stroke="#000000" points="1162,-122.5 1162,-141.5 1274,-141.5 1274,-122.5 1162,-122.5"/>
<text text-anchor="middle" x="1218" y="-129.5" font-family="Helvetica,sans-Serif" font-size="10.00" fill="#000000">RCInput::task_spawn</text>
</a>
</g>
</g>
<!-- Node24&#45;&gt;Node25 -->
<g id="edge8" class="edge">
<title>Node24&#45;&gt;Node25</title>
<path fill="none" stroke="#191970" d="M1136.5165,-132C1145.1329,-132 1153.7174,-132 1161.9047,-132"/>
<polygon fill="#191970" stroke="#191970" points="1136.4087,-128.5001 1126.4087,-132 1136.4086,-135.5001 1136.4087,-128.5001"/>
</g>
<!-- Node26 -->
<g id="node10" class="node">
<title>Node26</title>
<g id="a_node10"><a xlink:href="../../d4/d39/class_r_c_input.html#a94fd258efbf564c226e844922ca51c4d" target="_top" xlink:title="RCInput::custom_command">
<polygon fill="#ffffff" stroke="#000000" points="1310,-122.5 1310,-141.5 1450,-141.5 1450,-122.5 1310,-122.5"/>
<text text-anchor="middle" x="1380" y="-129.5" font-family="Helvetica,sans-Serif" font-size="10.00" fill="#000000">RCInput::custom_command</text>
</a>
</g>
</g>
<!-- Node25&#45;&gt;Node26 -->
<g id="edge9" class="edge">
<title>Node25&#45;&gt;Node26</title>
<path fill="none" stroke="#191970" d="M1284.3502,-132C1292.7774,-132 1301.4234,-132 1309.9069,-132"/>
<polygon fill="#191970" stroke="#191970" points="1284.2051,-128.5001 1274.2051,-132 1284.2051,-135.5001 1284.2051,-128.5001"/>
</g>
<!-- Node27&#45;&gt;Node23 -->
<g id="edge11" class="edge">
<title>Node27&#45;&gt;Node23</title>
<path fill="none" stroke="#191970" d="M973.4052,-100.7498C961.6507,-100.7427 949.9149,-100.523 939.3079,-100.0908"/>
<polygon fill="#191970" stroke="#191970" points="973.7285,-104.2484 983.7119,-100.7014 973.6955,-97.2485 973.7285,-104.2484"/>
</g>
<!-- Node30 -->
<g id="node14" class="node">
<title>Node30</title>
<g id="a_node14"><a xlink:href="../../d0/da3/class_c_r_s_f_telemetry.html#a1a43efaf0777d7821ebbdf2f8ec51046" target="_top" xlink:title="CRSFTelemetry::send_gps">
<polygon fill="#ffffff" stroke="#000000" points="525,-175.5 525,-194.5 661,-194.5 661,-175.5 525,-175.5"/>
<text text-anchor="middle" x="593" y="-182.5" font-family="Helvetica,sans-Serif" font-size="10.00" fill="#000000">CRSFTelemetry::send_gps</text>
</a>
</g>
</g>
<!-- Node29&#45;&gt;Node30 -->
<g id="edge14" class="edge">
<title>Node29&#45;&gt;Node30</title>
<path fill="none" stroke="#191970" d="M499.3452,-185C507.7919,-185 516.3793,-185 524.7548,-185"/>
<polygon fill="#191970" stroke="#191970" points="499.1356,-181.5001 489.1355,-185 499.1355,-188.5001 499.1356,-181.5001"/>
</g>
<!-- Node30&#45;&gt;Node22 -->
<g id="edge15" class="edge">
<title>Node30&#45;&gt;Node22</title>
<path fill="none" stroke="#191970" d="M638.7182,-172.8453C665.2012,-165.8045 698.0595,-157.0688 722.659,-150.5287"/>
<polygon fill="#191970" stroke="#191970" points="637.676,-169.5007 628.911,-175.4527 639.4746,-176.2657 637.676,-169.5007"/>
</g>
<!-- Node32 -->
<g id="node16" class="node">
<title>Node32</title>
<g id="a_node16"><a xlink:href="../../d0/da3/class_c_r_s_f_telemetry.html#ae60b3713b4ecebab6748b5ed612197a6" target="_top" xlink:title="CRSFTelemetry::send\l_attitude">
<polygon fill="#ffffff" stroke="#000000" points="535.5,-126 535.5,-156 650.5,-156 650.5,-126 535.5,-126"/>
<text text-anchor="start" x="543.5" y="-144" font-family="Helvetica,sans-Serif" font-size="10.00" fill="#000000">CRSFTelemetry::send</text>
<text text-anchor="middle" x="593" y="-133" font-family="Helvetica,sans-Serif" font-size="10.00" fill="#000000">_attitude</text>
</a>
</g>
</g>
<!-- Node31&#45;&gt;Node32 -->
<g id="edge17" class="edge">
<title>Node31&#45;&gt;Node32</title>
<path fill="none" stroke="#191970" d="M489.1504,-141C504.3016,-141 520.4046,-141 535.2942,-141"/>
<polygon fill="#191970" stroke="#191970" points="488.8399,-137.5001 478.8398,-141 488.8398,-144.5001 488.8399,-137.5001"/>
</g>
<!-- Node32&#45;&gt;Node22 -->
<g id="edge18" class="edge">
<title>Node32&#45;&gt;Node22</title>
<path fill="none" stroke="#191970" d="M661.1782,-141C673.0425,-141 685.3194,-141 696.9915,-141"/>
<polygon fill="#191970" stroke="#191970" points="660.8839,-137.5001 650.8839,-141 660.8838,-144.5001 660.8839,-137.5001"/>
</g>
<!-- Node34 -->
<g id="node18" class="node">
<title>Node34</title>
<g id="a_node18"><a xlink:href="../../d0/da3/class_c_r_s_f_telemetry.html#ac9f030b9b009c365f1bcff8e765dd4b6" target="_top" xlink:title="CRSFTelemetry::send\l_flight_mode">
<polygon fill="#ffffff" stroke="#000000" points="535.5,-77 535.5,-107 650.5,-107 650.5,-77 535.5,-77"/>
<text text-anchor="start" x="543.5" y="-95" font-family="Helvetica,sans-Serif" font-size="10.00" fill="#000000">CRSFTelemetry::send</text>
<text text-anchor="middle" x="593" y="-84" font-family="Helvetica,sans-Serif" font-size="10.00" fill="#000000">_flight_mode</text>
</a>
</g>
</g>
<!-- Node33&#45;&gt;Node34 -->
<g id="edge20" class="edge">
<title>Node33&#45;&gt;Node34</title>
<path fill="none" stroke="#191970" d="M489.1504,-92C504.3016,-92 520.4046,-92 535.2942,-92"/>
<polygon fill="#191970" stroke="#191970" points="488.8399,-88.5001 478.8398,-92 488.8398,-95.5001 488.8399,-88.5001"/>
</g>
<!-- Node34&#45;&gt;Node22 -->
<g id="edge21" class="edge">
<title>Node34&#45;&gt;Node22</title>
<path fill="none" stroke="#191970" d="M653.615,-109.9464C678.1733,-117.2175 705.539,-125.3197 726.1586,-131.4246"/>
<polygon fill="#191970" stroke="#191970" points="654.5881,-106.5844 644.0059,-107.1014 652.6008,-113.2964 654.5881,-106.5844"/>
</g>
<!-- Node36 -->
<g id="node20" class="node">
<title>Node36</title>
<g id="a_node20"><a xlink:href="../../d9/dd2/crsf_8cpp.html#a6f0ac810cf076d93d2cca7bd8f3bc9d3" target="_top" xlink:title="parse the current crsf_frame buffer ">
<polygon fill="#ffffff" stroke="#000000" points="235,-66.5 235,-85.5 327,-85.5 327,-66.5 235,-66.5"/>
<text text-anchor="middle" x="281" y="-73.5" font-family="Helvetica,sans-Serif" font-size="10.00" fill="#000000">crsf_parse_buffer</text>
</a>
</g>
</g>
<!-- Node35&#45;&gt;Node36 -->
<g id="edge23" class="edge">
<title>Node35&#45;&gt;Node36</title>
<path fill="none" stroke="#191970" d="M209.3846,-76C217.8691,-76 226.5423,-76 234.7907,-76"/>
<polygon fill="#191970" stroke="#191970" points="209.1703,-72.5001 199.1703,-76 209.1703,-79.5001 209.1703,-72.5001"/>
</g>
<!-- Node37 -->
<g id="node21" class="node">
<title>Node37</title>
<g id="a_node21"><a xlink:href="../../d9/ddf/crsf_8h.html#a3ba9872a34453d4728c9f39ff225abb5" target="_top" xlink:title="Parse the CRSF protocol and extract RC channel data. ">
<polygon fill="#ffffff" stroke="#000000" points="395,-38.5 395,-57.5 457,-57.5 457,-38.5 395,-38.5"/>
<text text-anchor="middle" x="426" y="-45.5" font-family="Helvetica,sans-Serif" font-size="10.00" fill="#000000">crsf_parse</text>
</a>
</g>
</g>
<!-- Node36&#45;&gt;Node37 -->
<g id="edge24" class="edge">
<title>Node36&#45;&gt;Node37</title>
<path fill="none" stroke="#191970" d="M337.3101,-65.1263C356.8447,-61.3541 378.0318,-57.2628 394.7979,-54.0252"/>
<polygon fill="#191970" stroke="#191970" points="336.4326,-61.731 327.2776,-67.0636 337.7598,-68.6041 336.4326,-61.731"/>
</g>
<!-- Node37&#45;&gt;Node23 -->
<g id="edge25" class="edge">
<title>Node37&#45;&gt;Node23</title>
<path fill="none" stroke="#191970" d="M467.2869,-50.9239C514.2468,-54.3458 593.2052,-60.3913 661,-67 729.2771,-73.6557 808.4488,-83.0325 855.6776,-88.803"/>
<polygon fill="#191970" stroke="#191970" points="467.4265,-47.4249 457.1998,-50.1934 466.9209,-54.4066 467.4265,-47.4249"/>
</g>
<!-- Node38 -->
<g id="node22" class="node">
<title>Node38</title>
<g id="a_node22"><a xlink:href="../../d5/d45/class_r_c_test.html#ad92adf914cbd3859baa03e0796030fb1" target="_top" xlink:title="RCTest::crsfTest">
<polygon fill="#ffffff" stroke="#000000" points="546.5,-.5 546.5,-19.5 639.5,-19.5 639.5,-.5 546.5,-.5"/>
<text text-anchor="middle" x="593" y="-7.5" font-family="Helvetica,sans-Serif" font-size="10.00" fill="#000000">RCTest::crsfTest</text>
</a>
</g>
</g>
<!-- Node37&#45;&gt;Node38 -->
<g id="edge26" class="edge">
<title>Node37&#45;&gt;Node38</title>
<path fill="none" stroke="#191970" d="M466.7935,-38.7177C492.3933,-32.8925 525.3213,-25.3999 551.124,-19.5287"/>
<polygon fill="#191970" stroke="#191970" points="465.9942,-35.31 457.02,-40.9415 467.5474,-42.1355 465.9942,-35.31"/>
</g>
<!-- Node39 -->
<g id="node23" class="node">
<title>Node39</title>
<g id="a_node23"><a xlink:href="../../d5/d45/class_r_c_test.html#a152bfd2274a3e8e6472df1602d142ba3" target="_top" xlink:title="Override to run your unit tests. ">
<polygon fill="#ffffff" stroke="#000000" points="709.5,-.5 709.5,-19.5 807.5,-19.5 807.5,-.5 709.5,-.5"/>
<text text-anchor="middle" x="758.5" y="-7.5" font-family="Helvetica,sans-Serif" font-size="10.00" fill="#000000">RCTest::run_tests</text>
</a>
</g>
</g>
<!-- Node38&#45;&gt;Node39 -->
<g id="edge27" class="edge">
<title>Node38&#45;&gt;Node39</title>
<path fill="none" stroke="#191970" d="M649.7663,-10C669.164,-10 690.6819,-10 709.422,-10"/>
<polygon fill="#191970" stroke="#191970" points="649.5414,-6.5001 639.5414,-10 649.5414,-13.5001 649.5414,-6.5001"/>
</g>
</g>
</svg>
        <g id="navigator" transform="translate(0 0)" fill="#404254">
                <rect fill="#f2f5e9" fill-opacity="0.5" stroke="#606060" stroke-width=".5" x="0" y="0" width="60" height="60"/>
                <use id="zoomplus" xlink:href="#zoomPlus" x="17" y="9" onmousedown="handleZoom(evt,'in')"/>
                <use id="zoomminus" xlink:href="#zoomMin" x="42" y="9" onmousedown="handleZoom(evt,'out')"/>
                <use id="reset" xlink:href="#resetDef" x="30" y="36" onmousedown="handleReset()"/>
                <g id="arrowUp" xlink:href="#dirArrow" transform="translate(30 24)" onmousedown="handlePan(0,-1)">
                  <use xlink:href="#rim" fill="#404040">
                        <set attributeName="fill" to="#808080" begin="arrowUp.mouseover" end="arrowUp.mouseout"/>
                  </use>
                  <path fill="none" stroke="white" stroke-width="1.5" d="M0,-3.0v7 M-2.5,-0.5L0,-3.0L2.5,-0.5"/>
                </g>
                <g id="arrowRight" xlink:href="#dirArrow" transform="rotate(90) translate(36 -43)" onmousedown="handlePan(1,0)">
                  <use xlink:href="#rim" fill="#404040">
                        <set attributeName="fill" to="#808080" begin="arrowRight.mouseover" end="arrowRight.mouseout"/>
                  </use>
                  <path fill="none" stroke="white" stroke-width="1.5" d="M0,-3.0v7 M-2.5,-0.5L0,-3.0L2.5,-0.5"/>
                </g>
                <g id="arrowDown" xlink:href="#dirArrow" transform="rotate(180) translate(-30 -48)" onmousedown="handlePan(0,1)">
                  <use xlink:href="#rim" fill="#404040">
                        <set attributeName="fill" to="#808080" begin="arrowDown.mouseover" end="arrowDown.mouseout"/>
                  </use>
                  <path fill="none" stroke="white" stroke-width="1.5" d="M0,-3.0v7 M-2.5,-0.5L0,-3.0L2.5,-0.5"/>
                </g>
                <g id="arrowLeft" xlink:href="#dirArrow" transform="rotate(270) translate(-36 17)" onmousedown="handlePan(-1,0)">
                  <use xlink:href="#rim" fill="#404040">
                        <set attributeName="fill" to="#808080" begin="arrowLeft.mouseover" end="arrowLeft.mouseout"/>
                  </use>
                  <path fill="none" stroke="white" stroke-width="1.5" d="M0,-3.0v7 M-2.5,-0.5L0,-3.0L2.5,-0.5"/>
                </g>
        </g>
        <svg viewBox="0 0 15 15" width="100%" height="30px" preserveAspectRatio="xMaxYMin meet">
         <g id="arrow_out" transform="scale(0.3 0.3)">
          <a xlink:href="crsf_8cpp_a2ed462fd1385f3a83b5c4e8f3083d0d6_icgraph_org.svg" target="_base">
           <rect id="button" ry="5" rx="5" y="6" x="6" height="38" width="38"
                fill="#f2f5e9" fill-opacity="0.5" stroke="#606060" stroke-width="1.0"/>
           <path id="arrow"
             d="M 11.500037,31.436501 C 11.940474,20.09759 22.043105,11.32322 32.158766,21.979434 L 37.068811,17.246167 C 37.068811,17.246167 37.088388,32 37.088388,32 L 22.160133,31.978069 C 22.160133,31.978069 26.997745,27.140456 26.997745,27.140456 C 18.528582,18.264221 13.291696,25.230495 11.500037,31.436501 z"
             style="fill:#404040;"/>
          </a>
         </g>
        </svg>
</svg>
