<?xml version="1.0" encoding="UTF-8" standalone="no"?>
<!DOCTYPE svg PUBLIC "-//W3C//DTD SVG 1.1//EN"
 "http://www.w3.org/Graphics/SVG/1.1/DTD/svg11.dtd">
<!-- Generated by graphviz version 2.40.1 (20161225.0304)
 -->
<!-- Title: GPSDriverUBX::waitForAck Pages: 1 -->
<!--zoomable 337 -->
<svg id="main" version="1.1" xmlns="http://www.w3.org/2000/svg" xmlns:xlink="http://www.w3.org/1999/xlink" xml:space="preserve" onload="init(evt)">
<style type="text/css"><![CDATA[
.edge:hover path { stroke: red; }
.edge:hover polygon { stroke: red; fill: red; }
]]></style>
<script type="text/javascript"><![CDATA[
var edges = document.getElementsByTagName('g');
if (edges && edges.length) {
  for (var i=0;i<edges.length;i++) {
    if (edges[i].id.substr(0,4)=='edge') {
      edges[i].setAttribute('class','edge');
    }
  }
}
]]></script>
        <defs>
                <circle id="rim" cx="0" cy="0" r="7"/>
                <circle id="rim2" cx="0" cy="0" r="3.5"/>
                <g id="zoomPlus">
                        <use xlink:href="#rim" fill="#404040">
                                <set attributeName="fill" to="#808080" begin="zoomplus.mouseover" end="zoomplus.mouseout"/>
                        </use>
                        <path d="M-4,0h8M0,-4v8" fill="none" stroke="white" stroke-width="1.5" pointer-events="none"/>
                </g>
                <g id="zoomMin">
                        <use xlink:href="#rim" fill="#404040">
                                <set attributeName="fill" to="#808080" begin="zoomminus.mouseover" end="zoomminus.mouseout"/>
                        </use>
                        <path d="M-4,0h8" fill="none" stroke="white" stroke-width="1.5" pointer-events="none"/>
                </g>
                <g id="dirArrow">
                        <path fill="none" stroke="white" stroke-width="1.5" d="M0,-3.0v7 M-2.5,-0.5L0,-3.0L2.5,-0.5"/>
                </g>
               <g id="resetDef">
                       <use xlink:href="#rim2" fill="#404040">
                               <set attributeName="fill" to="#808080" begin="reset.mouseover" end="reset.mouseout"/>
                       </use>
               </g>
        </defs>

<script type="text/javascript">
var viewWidth = 1123;
var viewHeight = 337;
var sectionId = 'dynsection-42';
</script>
<script xlink:href="../../svgpan.js"/>
<svg id="graph" class="graph">
<g id="viewport">
<title>GPSDriverUBX::waitForAck</title>
<polygon fill="#ffffff" stroke="transparent" points="-4,4 -4,-333.2772 1119,-333.2772 1119,4 -4,4"/>
<!-- Node641 -->
<g id="node1" class="node">
<title>Node641</title>
<polygon fill="#bfbfbf" stroke="#000000" points="0,-143.4151 0,-162.4151 140,-162.4151 140,-143.4151 0,-143.4151"/>
<text text-anchor="middle" x="70" y="-150.4151" font-family="Helvetica,sans-Serif" font-size="10.00" fill="#000000">GPSDriverUBX::waitForAck</text>
</g>
<!-- Node642 -->
<g id="node2" class="node">
<title>Node642</title>
<g id="a_node2"><a xlink:href="../../d2/dc5/class_g_p_s_driver_u_b_x.html#a6d819221ed27daddd63c8f0c9a4c1e73" target="_top" xlink:title="GPSDriverUBX::activateRTCMOutput">
<polygon fill="#ffffff" stroke="#000000" points="176,-165.4151 176,-184.4151 360,-184.4151 360,-165.4151 176,-165.4151"/>
<text text-anchor="middle" x="268" y="-172.4151" font-family="Helvetica,sans-Serif" font-size="10.00" fill="#000000">GPSDriverUBX::activateRTCMOutput</text>
</a>
</g>
</g>
<!-- Node641&#45;&gt;Node642 -->
<g id="edge1" class="edge">
<title>Node641&#45;&gt;Node642</title>
<path fill="none" stroke="#191970" d="M150.1533,-161.821C160.7669,-163.0003 171.6806,-164.2129 182.3818,-165.4019"/>
<polygon fill="#191970" stroke="#191970" points="150.4114,-158.3282 140.086,-160.7024 149.6383,-165.2854 150.4114,-158.3282"/>
</g>
<!-- Node646 -->
<g id="node6" class="node">
<title>Node646</title>
<g id="a_node6"><a xlink:href="../../d2/dc5/class_g_p_s_driver_u_b_x.html#a435183becff817ea04bb8dbee3b27938" target="_top" xlink:title="configure the device ">
<polygon fill="#ffffff" stroke="#000000" points="984,-166.4151 984,-185.4151 1115,-185.4151 1115,-166.4151 984,-166.4151"/>
<text text-anchor="middle" x="1049.5" y="-173.4151" font-family="Helvetica,sans-Serif" font-size="10.00" fill="#000000">GPSDriverUBX::configure</text>
</a>
</g>
</g>
<!-- Node641&#45;&gt;Node646 -->
<g id="edge11" class="edge">
<title>Node641&#45;&gt;Node646</title>
<path fill="none" stroke="#191970" d="M80.395,-171.4399C96.8506,-198.8861 131.634,-249.8055 176,-274.9151 294.0252,-341.7133 340.8831,-327.9151 476.5,-327.9151 476.5,-327.9151 476.5,-327.9151 672,-327.9151 825.3137,-327.9151 989.9545,-218.6999 1036.5603,-185.4233"/>
<polygon fill="#191970" stroke="#191970" points="83.2349,-169.3615 75.1779,-162.4815 77.1859,-172.8843 83.2349,-169.3615"/>
</g>
<!-- Node647 -->
<g id="node7" class="node">
<title>Node647</title>
<g id="a_node7"><a xlink:href="../../d2/dc5/class_g_p_s_driver_u_b_x.html#afc6bdbe210a98edae84e5e515a079bac" target="_top" xlink:title="Start or restart the survey&#45;in procees. ">
<polygon fill="#ffffff" stroke="#000000" points="593,-166.4151 593,-185.4151 751,-185.4151 751,-166.4151 593,-166.4151"/>
<text text-anchor="middle" x="672" y="-173.4151" font-family="Helvetica,sans-Serif" font-size="10.00" fill="#000000">GPSDriverUBX::restartSurveyIn</text>
</a>
</g>
</g>
<!-- Node641&#45;&gt;Node647 -->
<g id="edge19" class="edge">
<title>Node641&#45;&gt;Node647</title>
<path fill="none" stroke="#191970" d="M96.9823,-167.3725C172.7764,-205.9191 392.7863,-303.5486 557,-232.9151 578.3713,-223.7226 572.8596,-206.5598 593,-194.9151 599.7166,-191.0316 607.1937,-187.9399 614.7944,-185.4788"/>
<polygon fill="#191970" stroke="#191970" points="98.1545,-164.0387 87.6636,-162.5584 94.9416,-170.2578 98.1545,-164.0387"/>
</g>
<!-- Node648 -->
<g id="node8" class="node">
<title>Node648</title>
<g id="a_node8"><a xlink:href="../../d2/dc5/class_g_p_s_driver_u_b_x.html#a6e57c1a45646725148eb8896a3c4dba5" target="_top" xlink:title="restartSurveyIn for protocol version &lt; 27 (_proto_ver_27_or_higher == false) ">
<polygon fill="#ffffff" stroke="#000000" points="402,-116.9151 402,-146.9151 551,-146.9151 551,-116.9151 402,-116.9151"/>
<text text-anchor="start" x="410" y="-134.9151" font-family="Helvetica,sans-Serif" font-size="10.00" fill="#000000">GPSDriverUBX::restartSurvey</text>
<text text-anchor="middle" x="476.5" y="-123.9151" font-family="Helvetica,sans-Serif" font-size="10.00" fill="#000000">InPreV27</text>
</a>
</g>
</g>
<!-- Node641&#45;&gt;Node648 -->
<g id="edge20" class="edge">
<title>Node641&#45;&gt;Node648</title>
<path fill="none" stroke="#191970" d="M150.4281,-148.7601C223.5495,-144.9826 330.6043,-139.4521 401.8617,-135.7709"/>
<polygon fill="#191970" stroke="#191970" points="150.1489,-145.2698 140.3428,-149.2811 150.5101,-152.2604 150.1489,-145.2698"/>
</g>
<!-- Node649 -->
<g id="node9" class="node">
<title>Node649</title>
<g id="a_node9"><a xlink:href="../../d2/dc5/class_g_p_s_driver_u_b_x.html#ad6f376f00e941e04544f2701b7fb3683" target="_top" xlink:title="Send configuration values and desired message rates. ">
<polygon fill="#ffffff" stroke="#000000" points="787,-103.4151 787,-122.4151 948,-122.4151 948,-103.4151 787,-103.4151"/>
<text text-anchor="middle" x="867.5" y="-110.4151" font-family="Helvetica,sans-Serif" font-size="10.00" fill="#000000">GPSDriverUBX::configureDevice</text>
</a>
</g>
</g>
<!-- Node641&#45;&gt;Node649 -->
<g id="edge12" class="edge">
<title>Node641&#45;&gt;Node649</title>
<path fill="none" stroke="#191970" d="M133.5879,-141.6746C147.5442,-139.3313 162.2567,-136.9556 176,-134.9151 273.4977,-120.439 297.6309,-113.1498 396,-106.9151 467.4123,-102.3889 485.4478,-106.2238 557,-106.9151 635.0402,-107.669 724.0981,-109.4886 786.7639,-110.9277"/>
<polygon fill="#191970" stroke="#191970" points="132.8584,-138.2483 123.5838,-143.37 134.0281,-145.1499 132.8584,-138.2483"/>
</g>
<!-- Node650 -->
<g id="node10" class="node">
<title>Node650</title>
<g id="a_node10"><a xlink:href="../../d2/dc5/class_g_p_s_driver_u_b_x.html#a01ad75d6fd2d895fb72a8641a9cf793f" target="_top" xlink:title="Send configuration values and desired message rates (for protocol version &lt; 27) ">
<polygon fill="#ffffff" stroke="#000000" points="396,-28.9151 396,-58.9151 557,-58.9151 557,-28.9151 396,-28.9151"/>
<text text-anchor="start" x="404" y="-46.9151" font-family="Helvetica,sans-Serif" font-size="10.00" fill="#000000">GPSDriverUBX::configureDevice</text>
<text text-anchor="middle" x="476.5" y="-35.9151" font-family="Helvetica,sans-Serif" font-size="10.00" fill="#000000">PreV27</text>
</a>
</g>
</g>
<!-- Node641&#45;&gt;Node650 -->
<g id="edge14" class="edge">
<title>Node641&#45;&gt;Node650</title>
<path fill="none" stroke="#191970" d="M78.3908,-133.9943C93.0943,-103.5079 126.7125,-44.5479 176,-20.9151 261.6309,20.144 376.8888,-8.5785 436.7205,-28.7733"/>
<polygon fill="#191970" stroke="#191970" points="75.1765,-132.606 74.1342,-143.1494 81.524,-135.5572 75.1765,-132.606"/>
</g>
<!-- Node651 -->
<g id="node11" class="node">
<title>Node651</title>
<g id="a_node11"><a xlink:href="../../d2/dc5/class_g_p_s_driver_u_b_x.html#aa98487cab6ea29baec6fd2746011c88a" target="_top" xlink:title="Combines the configure_message_rate &amp; wait_for_ack calls. ">
<polygon fill="#ffffff" stroke="#000000" points="183,-30.9151 183,-60.9151 353,-60.9151 353,-30.9151 183,-30.9151"/>
<text text-anchor="start" x="191" y="-48.9151" font-family="Helvetica,sans-Serif" font-size="10.00" fill="#000000">GPSDriverUBX::configureMessage</text>
<text text-anchor="middle" x="268" y="-37.9151" font-family="Helvetica,sans-Serif" font-size="10.00" fill="#000000">RateAndAck</text>
</a>
</g>
</g>
<!-- Node641&#45;&gt;Node651 -->
<g id="edge16" class="edge">
<title>Node641&#45;&gt;Node651</title>
<path fill="none" stroke="#191970" d="M88.4948,-136.6794C108.7705,-119.577 142.847,-92.8276 176,-75.9151 187.3735,-70.113 200.1024,-65.1119 212.3795,-60.9475"/>
<polygon fill="#191970" stroke="#191970" points="86.0113,-134.1981 80.6931,-143.3615 90.5649,-139.5146 86.0113,-134.1981"/>
</g>
<!-- Node643 -->
<g id="node3" class="node">
<title>Node643</title>
<g id="a_node3"><a xlink:href="../../d2/dc5/class_g_p_s_driver_u_b_x.html#a7741a82a136afc6332281f4a52426cc9" target="_top" xlink:title="Finish payload rx. ">
<polygon fill="#ffffff" stroke="#000000" points="396,-204.4151 396,-223.4151 557,-223.4151 557,-204.4151 396,-204.4151"/>
<text text-anchor="middle" x="476.5" y="-211.4151" font-family="Helvetica,sans-Serif" font-size="10.00" fill="#000000">GPSDriverUBX::payloadRxDone</text>
</a>
</g>
</g>
<!-- Node642&#45;&gt;Node643 -->
<g id="edge2" class="edge">
<title>Node642&#45;&gt;Node643</title>
<path fill="none" stroke="#191970" d="M329.157,-186.3545C359.8341,-192.0927 396.553,-198.9609 425.6608,-204.4056"/>
<polygon fill="#191970" stroke="#191970" points="329.4779,-182.8539 319.0048,-184.4555 328.1908,-189.7346 329.4779,-182.8539"/>
</g>
<!-- Node642&#45;&gt;Node647 -->
<g id="edge7" class="edge">
<title>Node642&#45;&gt;Node647</title>
<path fill="none" stroke="#191970" d="M370.2153,-175.1681C439.2975,-175.3391 529.173,-175.5615 592.8231,-175.7191"/>
<polygon fill="#191970" stroke="#191970" points="370.188,-171.6681 360.1794,-175.1432 370.1706,-178.6681 370.188,-171.6681"/>
</g>
<!-- Node642&#45;&gt;Node648 -->
<g id="edge9" class="edge">
<title>Node642&#45;&gt;Node648</title>
<path fill="none" stroke="#191970" d="M324.1152,-163.3422C348.5995,-158.2926 377.6227,-152.307 403.7369,-146.9214"/>
<polygon fill="#191970" stroke="#191970" points="323.3598,-159.9242 314.2729,-165.372 324.7738,-166.7799 323.3598,-159.9242"/>
</g>
<!-- Node644 -->
<g id="node4" class="node">
<title>Node644</title>
<g id="a_node4"><a xlink:href="../../d2/dc5/class_g_p_s_driver_u_b_x.html#a8fb26fb23f2b793d0f11d903a09f606d" target="_top" xlink:title="Parse the binary UBX packet. ">
<polygon fill="#ffffff" stroke="#000000" points="604,-204.4151 604,-223.4151 740,-223.4151 740,-204.4151 604,-204.4151"/>
<text text-anchor="middle" x="672" y="-211.4151" font-family="Helvetica,sans-Serif" font-size="10.00" fill="#000000">GPSDriverUBX::parseChar</text>
</a>
</g>
</g>
<!-- Node643&#45;&gt;Node644 -->
<g id="edge3" class="edge">
<title>Node643&#45;&gt;Node644</title>
<path fill="none" stroke="#191970" d="M567.4303,-213.9151C579.7344,-213.9151 592.1834,-213.9151 603.9923,-213.9151"/>
<polygon fill="#191970" stroke="#191970" points="567.1461,-210.4152 557.146,-213.9151 567.146,-217.4152 567.1461,-210.4152"/>
</g>
<!-- Node645 -->
<g id="node5" class="node">
<title>Node645</title>
<g id="a_node5"><a xlink:href="../../d2/dc5/class_g_p_s_driver_u_b_x.html#af01fa3241c4688400fe3f6d855340d94" target="_top" xlink:title="receive &amp; handle new data from the device ">
<polygon fill="#ffffff" stroke="#000000" points="806.5,-204.4151 806.5,-223.4151 928.5,-223.4151 928.5,-204.4151 806.5,-204.4151"/>
<text text-anchor="middle" x="867.5" y="-211.4151" font-family="Helvetica,sans-Serif" font-size="10.00" fill="#000000">GPSDriverUBX::receive</text>
</a>
</g>
</g>
<!-- Node644&#45;&gt;Node645 -->
<g id="edge4" class="edge">
<title>Node644&#45;&gt;Node645</title>
<path fill="none" stroke="#191970" d="M750.1048,-213.9151C768.8696,-213.9151 788.6418,-213.9151 806.499,-213.9151"/>
<polygon fill="#191970" stroke="#191970" points="750.102,-210.4152 740.102,-213.9151 750.1019,-217.4152 750.102,-210.4152"/>
</g>
<!-- Node645&#45;&gt;Node641 -->
<g id="edge6" class="edge">
<title>Node645&#45;&gt;Node641</title>
<path fill="none" stroke="#191970" d="M828.0995,-226.3574C719.2895,-258.4766 407.4002,-335.2924 176,-240.9151 132.8136,-223.3014 93.9161,-181.4621 77.8311,-162.5231"/>
<polygon fill="#191970" stroke="#191970" points="829.1119,-229.7078 837.6878,-223.4865 827.104,-223.002 829.1119,-229.7078"/>
</g>
<!-- Node645&#45;&gt;Node646 -->
<g id="edge5" class="edge">
<title>Node645&#45;&gt;Node646</title>
<path fill="none" stroke="#191970" d="M923.4458,-202.2341C949.2558,-196.8452 979.5069,-190.529 1003.904,-185.4351"/>
<polygon fill="#191970" stroke="#191970" points="922.4998,-198.856 913.4263,-204.3261 923.9306,-205.7083 922.4998,-198.856"/>
</g>
<!-- Node647&#45;&gt;Node646 -->
<g id="edge8" class="edge">
<title>Node647&#45;&gt;Node646</title>
<path fill="none" stroke="#191970" d="M761.4619,-175.9151C829.8037,-175.9151 922.4229,-175.9151 983.9795,-175.9151"/>
<polygon fill="#191970" stroke="#191970" points="761.1364,-172.4152 751.1364,-175.9151 761.1363,-179.4152 761.1364,-172.4152"/>
</g>
<!-- Node648&#45;&gt;Node647 -->
<g id="edge10" class="edge">
<title>Node648&#45;&gt;Node647</title>
<path fill="none" stroke="#191970" d="M553.1057,-149.1562C579.1771,-155.024 607.3563,-161.3661 629.7346,-166.4026"/>
<polygon fill="#191970" stroke="#191970" points="553.7577,-145.7155 543.2332,-146.9343 552.2207,-152.5447 553.7577,-145.7155"/>
</g>
<!-- Node649&#45;&gt;Node646 -->
<g id="edge13" class="edge">
<title>Node649&#45;&gt;Node646</title>
<path fill="none" stroke="#191970" d="M904.9317,-125.8722C939.7068,-137.9097 990.6881,-155.5571 1021.8968,-166.3601"/>
<polygon fill="#191970" stroke="#191970" points="905.7367,-122.4471 895.1419,-122.4834 903.4468,-129.062 905.7367,-122.4471"/>
</g>
<!-- Node650&#45;&gt;Node646 -->
<g id="edge15" class="edge">
<title>Node650&#45;&gt;Node646</title>
<path fill="none" stroke="#191970" d="M567.1821,-38.6329C664.9479,-36.2767 823.3108,-42.2832 948,-93.9151 988.1859,-110.5554 1025.1867,-148.3602 1041.1755,-166.2226"/>
<polygon fill="#191970" stroke="#191970" points="566.934,-35.1383 557.0344,-38.9128 567.1271,-42.1356 566.934,-35.1383"/>
</g>
<!-- Node651&#45;&gt;Node648 -->
<g id="edge18" class="edge">
<title>Node651&#45;&gt;Node648</title>
<path fill="none" stroke="#191970" d="M314.0939,-64.9274C352.0261,-80.5733 405.0637,-102.4497 440.0722,-116.8897"/>
<polygon fill="#191970" stroke="#191970" points="315.3748,-61.6697 304.7957,-61.0922 312.7056,-68.1409 315.3748,-61.6697"/>
</g>
<!-- Node651&#45;&gt;Node650 -->
<g id="edge17" class="edge">
<title>Node651&#45;&gt;Node650</title>
<path fill="none" stroke="#191970" d="M363.4018,-44.9999C374.1975,-44.8964 385.1207,-44.7916 395.7037,-44.6901"/>
<polygon fill="#191970" stroke="#191970" points="363.0716,-41.5029 353.1057,-45.0987 363.1388,-48.5025 363.0716,-41.5029"/>
</g>
</g>
</svg>
        <g id="navigator" transform="translate(0 0)" fill="#404254">
                <rect fill="#f2f5e9" fill-opacity="0.5" stroke="#606060" stroke-width=".5" x="0" y="0" width="60" height="60"/>
                <use id="zoomplus" xlink:href="#zoomPlus" x="17" y="9" onmousedown="handleZoom(evt,'in')"/>
                <use id="zoomminus" xlink:href="#zoomMin" x="42" y="9" onmousedown="handleZoom(evt,'out')"/>
                <use id="reset" xlink:href="#resetDef" x="30" y="36" onmousedown="handleReset()"/>
                <g id="arrowUp" xlink:href="#dirArrow" transform="translate(30 24)" onmousedown="handlePan(0,-1)">
                  <use xlink:href="#rim" fill="#404040">
                        <set attributeName="fill" to="#808080" begin="arrowUp.mouseover" end="arrowUp.mouseout"/>
                  </use>
                  <path fill="none" stroke="white" stroke-width="1.5" d="M0,-3.0v7 M-2.5,-0.5L0,-3.0L2.5,-0.5"/>
                </g>
                <g id="arrowRight" xlink:href="#dirArrow" transform="rotate(90) translate(36 -43)" onmousedown="handlePan(1,0)">
                  <use xlink:href="#rim" fill="#404040">
                        <set attributeName="fill" to="#808080" begin="arrowRight.mouseover" end="arrowRight.mouseout"/>
                  </use>
                  <path fill="none" stroke="white" stroke-width="1.5" d="M0,-3.0v7 M-2.5,-0.5L0,-3.0L2.5,-0.5"/>
                </g>
                <g id="arrowDown" xlink:href="#dirArrow" transform="rotate(180) translate(-30 -48)" onmousedown="handlePan(0,1)">
                  <use xlink:href="#rim" fill="#404040">
                        <set attributeName="fill" to="#808080" begin="arrowDown.mouseover" end="arrowDown.mouseout"/>
                  </use>
                  <path fill="none" stroke="white" stroke-width="1.5" d="M0,-3.0v7 M-2.5,-0.5L0,-3.0L2.5,-0.5"/>
                </g>
                <g id="arrowLeft" xlink:href="#dirArrow" transform="rotate(270) translate(-36 17)" onmousedown="handlePan(-1,0)">
                  <use xlink:href="#rim" fill="#404040">
                        <set attributeName="fill" to="#808080" begin="arrowLeft.mouseover" end="arrowLeft.mouseout"/>
                  </use>
                  <path fill="none" stroke="white" stroke-width="1.5" d="M0,-3.0v7 M-2.5,-0.5L0,-3.0L2.5,-0.5"/>
                </g>
        </g>
        <svg viewBox="0 0 15 15" width="100%" height="30px" preserveAspectRatio="xMaxYMin meet">
         <g id="arrow_out" transform="scale(0.3 0.3)">
          <a xlink:href="class_g_p_s_driver_u_b_x_a69d3e7aee41d76fb0650e045d75e63db_icgraph_org.svg" target="_base">
           <rect id="button" ry="5" rx="5" y="6" x="6" height="38" width="38"
                fill="#f2f5e9" fill-opacity="0.5" stroke="#606060" stroke-width="1.0"/>
           <path id="arrow"
             d="M 11.500037,31.436501 C 11.940474,20.09759 22.043105,11.32322 32.158766,21.979434 L 37.068811,17.246167 C 37.068811,17.246167 37.088388,32 37.088388,32 L 22.160133,31.978069 C 22.160133,31.978069 26.997745,27.140456 26.997745,27.140456 C 18.528582,18.264221 13.291696,25.230495 11.500037,31.436501 z"
             style="fill:#404040;"/>
          </a>
         </g>
        </svg>
</svg>
