<?xml version="1.0" encoding="UTF-8" standalone="no"?>
<!DOCTYPE svg PUBLIC "-//W3C//DTD SVG 1.1//EN"
 "http://www.w3.org/Graphics/SVG/1.1/DTD/svg11.dtd">
<!-- Generated by graphviz version 2.40.1 (20161225.0304)
 -->
<!-- Title: GPSDriverUBX::parseChar Pages: 1 -->
<!--zoomable 697 -->
<svg id="main" version="1.1" xmlns="http://www.w3.org/2000/svg" xmlns:xlink="http://www.w3.org/1999/xlink" xml:space="preserve" onload="init(evt)">
<style type="text/css"><![CDATA[
.edge:hover path { stroke: red; }
.edge:hover polygon { stroke: red; fill: red; }
]]></style>
<script type="text/javascript"><![CDATA[
var edges = document.getElementsByTagName('g');
if (edges && edges.length) {
  for (var i=0;i<edges.length;i++) {
    if (edges[i].id.substr(0,4)=='edge') {
      edges[i].setAttribute('class','edge');
    }
  }
}
]]></script>
        <defs>
                <circle id="rim" cx="0" cy="0" r="7"/>
                <circle id="rim2" cx="0" cy="0" r="3.5"/>
                <g id="zoomPlus">
                        <use xlink:href="#rim" fill="#404040">
                                <set attributeName="fill" to="#808080" begin="zoomplus.mouseover" end="zoomplus.mouseout"/>
                        </use>
                        <path d="M-4,0h8M0,-4v8" fill="none" stroke="white" stroke-width="1.5" pointer-events="none"/>
                </g>
                <g id="zoomMin">
                        <use xlink:href="#rim" fill="#404040">
                                <set attributeName="fill" to="#808080" begin="zoomminus.mouseover" end="zoomminus.mouseout"/>
                        </use>
                        <path d="M-4,0h8" fill="none" stroke="white" stroke-width="1.5" pointer-events="none"/>
                </g>
                <g id="dirArrow">
                        <path fill="none" stroke="white" stroke-width="1.5" d="M0,-3.0v7 M-2.5,-0.5L0,-3.0L2.5,-0.5"/>
                </g>
               <g id="resetDef">
                       <use xlink:href="#rim2" fill="#404040">
                               <set attributeName="fill" to="#808080" begin="reset.mouseover" end="reset.mouseout"/>
                       </use>
               </g>
        </defs>

<script type="text/javascript">
var viewWidth = 1192;
var viewHeight = 697;
var sectionId = 'dynsection-21';
</script>
<script xlink:href="../../svgpan.js"/>
<svg id="graph" class="graph">
<g id="viewport">
<title>GPSDriverUBX::parseChar</title>
<polygon fill="#ffffff" stroke="transparent" points="-4,4 -4,-693 1188,-693 1188,4 -4,4"/>
<!-- Node307 -->
<g id="node1" class="node">
<title>Node307</title>
<polygon fill="#bfbfbf" stroke="#000000" points="0,-441.5 0,-460.5 136,-460.5 136,-441.5 0,-441.5"/>
<text text-anchor="middle" x="68" y="-448.5" font-family="Helvetica,sans-Serif" font-size="10.00" fill="#000000">GPSDriverUBX::parseChar</text>
</g>
<!-- Node308 -->
<g id="node2" class="node">
<title>Node308</title>
<g id="a_node2"><a xlink:href="../../d0/d7a/class_r_t_c_m_parsing.html#a019493622962a9532a512a81de1adbcc" target="_top" xlink:title="add a byte to the message ">
<polygon fill="#ffffff" stroke="#000000" points="204,-669.5 204,-688.5 325,-688.5 325,-669.5 204,-669.5"/>
<text text-anchor="middle" x="264.5" y="-676.5" font-family="Helvetica,sans-Serif" font-size="10.00" fill="#000000">RTCMParsing::addByte</text>
</a>
</g>
</g>
<!-- Node307&#45;&gt;Node308 -->
<g id="edge1" class="edge">
<title>Node307&#45;&gt;Node308</title>
<path fill="none" stroke="#191970" d="M69.7421,-460.8031C76.2793,-494.5273 102.6189,-606.6155 172,-660 178.5585,-665.0464 186.1269,-668.8414 194.0519,-671.6824"/>
<polygon fill="#191970" stroke="#191970" points="193.2646,-675.1019 203.8516,-674.6945 195.3213,-668.4109 193.2646,-675.1019"/>
</g>
<!-- Node309 -->
<g id="node3" class="node">
<title>Node309</title>
<g id="a_node3"><a xlink:href="../../d2/dc5/class_g_p_s_driver_u_b_x.html#aa61376cded8b50a35a4ec1f431c243d7" target="_top" xlink:title="While parsing add every byte (except the sync bytes) to the checksum. ">
<polygon fill="#ffffff" stroke="#000000" points="172,-631.5 172,-650.5 357,-650.5 357,-631.5 172,-631.5"/>
<text text-anchor="middle" x="264.5" y="-638.5" font-family="Helvetica,sans-Serif" font-size="10.00" fill="#000000">GPSDriverUBX::addByteToChecksum</text>
</a>
</g>
</g>
<!-- Node307&#45;&gt;Node309 -->
<g id="edge2" class="edge">
<title>Node307&#45;&gt;Node309</title>
<path fill="none" stroke="#191970" d="M70.8229,-460.6596C79.9734,-490.1515 111.7692,-579.5905 172,-622 174.748,-623.9349 177.649,-625.6817 180.661,-627.2583"/>
<polygon fill="#191970" stroke="#191970" points="179.4351,-630.5456 189.9874,-631.4945 182.3301,-624.1722 179.4351,-630.5456"/>
</g>
<!-- Node310 -->
<g id="node4" class="node">
<title>Node310</title>
<g id="a_node4"><a xlink:href="../../d2/dc5/class_g_p_s_driver_u_b_x.html#af5edd6e286581a9d5ca3304d88f8999e" target="_top" xlink:title="Reset the parse state machine for a fresh start. ">
<polygon fill="#ffffff" stroke="#000000" points="196.5,-593.5 196.5,-612.5 332.5,-612.5 332.5,-593.5 196.5,-593.5"/>
<text text-anchor="middle" x="264.5" y="-600.5" font-family="Helvetica,sans-Serif" font-size="10.00" fill="#000000">GPSDriverUBX::decodeInit</text>
</a>
</g>
</g>
<!-- Node307&#45;&gt;Node310 -->
<g id="edge3" class="edge">
<title>Node307&#45;&gt;Node310</title>
<path fill="none" stroke="#191970" d="M72.4787,-460.5983C84.6099,-485.4534 120.6775,-552.1889 172,-584 176.6158,-586.861 181.5859,-589.2998 186.7412,-591.3776"/>
<polygon fill="#191970" stroke="#191970" points="185.5896,-594.6828 196.1843,-594.7412 187.9384,-588.0886 185.5896,-594.6828"/>
</g>
<!-- Node312 -->
<g id="node6" class="node">
<title>Node312</title>
<g id="a_node6"><a xlink:href="../../d2/d20/class_g_p_s_helper.html#ab36eaf56dad199ed58124db25b1cce20" target="_top" xlink:title="got an RTCM message from the device ">
<polygon fill="#ffffff" stroke="#000000" points="187,-555.5 187,-574.5 342,-574.5 342,-555.5 187,-555.5"/>
<text text-anchor="middle" x="264.5" y="-562.5" font-family="Helvetica,sans-Serif" font-size="10.00" fill="#000000">GPSHelper::gotRTCMMessage</text>
</a>
</g>
</g>
<!-- Node307&#45;&gt;Node312 -->
<g id="edge5" class="edge">
<title>Node307&#45;&gt;Node312</title>
<path fill="none" stroke="#191970" d="M75.4235,-460.6223C91.0199,-480.1095 129.2967,-524.2332 172,-546 176.6284,-548.3592 181.5282,-550.4254 186.5613,-552.2351"/>
<polygon fill="#191970" stroke="#191970" points="185.7765,-555.6598 196.3683,-555.4086 187.9316,-548.9998 185.7765,-555.6598"/>
</g>
<!-- Node313 -->
<g id="node7" class="node">
<title>Node313</title>
<g id="a_node7"><a xlink:href="../../d0/d7a/class_r_t_c_m_parsing.html#ae7d53e8133f6da78cfe0d88e75c97f34" target="_top" xlink:title="RTCMParsing::message">
<polygon fill="#ffffff" stroke="#000000" points="202,-517.5 202,-536.5 327,-536.5 327,-517.5 202,-517.5"/>
<text text-anchor="middle" x="264.5" y="-524.5" font-family="Helvetica,sans-Serif" font-size="10.00" fill="#000000">RTCMParsing::message</text>
</a>
</g>
</g>
<!-- Node307&#45;&gt;Node313 -->
<g id="edge6" class="edge">
<title>Node307&#45;&gt;Node313</title>
<path fill="none" stroke="#191970" d="M82.1555,-460.5601C101.5837,-473.2504 137.984,-495.5069 172,-508 179.2498,-510.6626 186.9637,-512.9887 194.7255,-515.0119"/>
<polygon fill="#191970" stroke="#191970" points="194.0061,-518.4391 204.5513,-517.4152 195.6692,-511.6395 194.0061,-518.4391"/>
</g>
<!-- Node314 -->
<g id="node8" class="node">
<title>Node314</title>
<g id="a_node8"><a xlink:href="../../d0/d7a/class_r_t_c_m_parsing.html#a566d9147cc6522046b688bbe2a7bacf1" target="_top" xlink:title="RTCMParsing::messageLength">
<polygon fill="#ffffff" stroke="#000000" points="187.5,-479.5 187.5,-498.5 341.5,-498.5 341.5,-479.5 187.5,-479.5"/>
<text text-anchor="middle" x="264.5" y="-486.5" font-family="Helvetica,sans-Serif" font-size="10.00" fill="#000000">RTCMParsing::messageLength</text>
</a>
</g>
</g>
<!-- Node307&#45;&gt;Node314 -->
<g id="edge7" class="edge">
<title>Node307&#45;&gt;Node314</title>
<path fill="none" stroke="#191970" d="M117.3316,-460.54C143.9607,-465.6896 177.0266,-472.084 205.0663,-477.5065"/>
<polygon fill="#191970" stroke="#191970" points="204.6654,-480.9937 215.1481,-479.4561 205.9946,-474.121 204.6654,-480.9937"/>
</g>
<!-- Node315 -->
<g id="node9" class="node">
<title>Node315</title>
<g id="a_node9"><a xlink:href="../../d2/dc5/class_g_p_s_driver_u_b_x.html#a1999704b323283fde5bf0e452341f24f" target="_top" xlink:title="Add payload rx byte. ">
<polygon fill="#ffffff" stroke="#000000" points="187,-441.5 187,-460.5 342,-460.5 342,-441.5 187,-441.5"/>
<text text-anchor="middle" x="264.5" y="-448.5" font-family="Helvetica,sans-Serif" font-size="10.00" fill="#000000">GPSDriverUBX::payloadRxAdd</text>
</a>
</g>
</g>
<!-- Node307&#45;&gt;Node315 -->
<g id="edge8" class="edge">
<title>Node307&#45;&gt;Node315</title>
<path fill="none" stroke="#191970" d="M136.1747,-451C149.1594,-451 162.9198,-451 176.4212,-451"/>
<polygon fill="#191970" stroke="#191970" points="176.6782,-454.5001 186.6782,-451 176.6781,-447.5001 176.6782,-454.5001"/>
</g>
<!-- Node316 -->
<g id="node10" class="node">
<title>Node316</title>
<g id="a_node10"><a xlink:href="../../d2/dc5/class_g_p_s_driver_u_b_x.html#a8f160c8f92c72906544abd2ce804050b" target="_top" xlink:title="Add MON&#45;VER payload rx byte. ">
<polygon fill="#ffffff" stroke="#000000" points="187,-392 187,-422 342,-422 342,-392 187,-392"/>
<text text-anchor="start" x="195" y="-410" font-family="Helvetica,sans-Serif" font-size="10.00" fill="#000000">GPSDriverUBX::payloadRxAdd</text>
<text text-anchor="middle" x="264.5" y="-399" font-family="Helvetica,sans-Serif" font-size="10.00" fill="#000000">MonVer</text>
</a>
</g>
</g>
<!-- Node307&#45;&gt;Node316 -->
<g id="edge9" class="edge">
<title>Node307&#45;&gt;Node316</title>
<path fill="none" stroke="#191970" d="M110.6376,-441.4527C133.0575,-436.4324 161.2381,-430.1223 187.3356,-424.2785"/>
<polygon fill="#191970" stroke="#191970" points="188.2259,-427.6659 197.2195,-422.0654 186.6963,-420.8351 188.2259,-427.6659"/>
</g>
<!-- Node318 -->
<g id="node12" class="node">
<title>Node318</title>
<g id="a_node12"><a xlink:href="../../d2/dc5/class_g_p_s_driver_u_b_x.html#a5d08ff37071d6e239f06d7e73b29b2f0" target="_top" xlink:title="GPSDriverUBX::payloadRxAdd\lNavSat">
<polygon fill="#ffffff" stroke="#000000" points="187,-343 187,-373 342,-373 342,-343 187,-343"/>
<text text-anchor="start" x="195" y="-361" font-family="Helvetica,sans-Serif" font-size="10.00" fill="#000000">GPSDriverUBX::payloadRxAdd</text>
<text text-anchor="middle" x="264.5" y="-350" font-family="Helvetica,sans-Serif" font-size="10.00" fill="#000000">NavSat</text>
</a>
</g>
</g>
<!-- Node307&#45;&gt;Node318 -->
<g id="edge11" class="edge">
<title>Node307&#45;&gt;Node318</title>
<path fill="none" stroke="#191970" d="M80.0656,-441.266C98.7235,-426.6563 136.1747,-399.0639 172,-383 177.3483,-380.6019 182.9766,-378.3903 188.7065,-376.3593"/>
<polygon fill="#191970" stroke="#191970" points="190.0416,-379.6034 198.414,-373.1108 187.8202,-372.9652 190.0416,-379.6034"/>
</g>
<!-- Node319 -->
<g id="node13" class="node">
<title>Node319</title>
<g id="a_node13"><a xlink:href="../../d2/dc5/class_g_p_s_driver_u_b_x.html#ae9b275cc4500466ac41837badde07924" target="_top" xlink:title="Add NAV&#45;SVINFO payload rx byte. ">
<polygon fill="#ffffff" stroke="#000000" points="187,-294 187,-324 342,-324 342,-294 187,-294"/>
<text text-anchor="start" x="195" y="-312" font-family="Helvetica,sans-Serif" font-size="10.00" fill="#000000">GPSDriverUBX::payloadRxAdd</text>
<text text-anchor="middle" x="264.5" y="-301" font-family="Helvetica,sans-Serif" font-size="10.00" fill="#000000">NavSvinfo</text>
</a>
</g>
</g>
<!-- Node307&#45;&gt;Node319 -->
<g id="edge12" class="edge">
<title>Node307&#45;&gt;Node319</title>
<path fill="none" stroke="#191970" d="M73.6984,-441.4342C87.5523,-419.032 125.315,-362.8842 172,-334 175.404,-331.8939 178.9853,-329.9629 182.6806,-328.1926"/>
<polygon fill="#191970" stroke="#191970" points="184.2877,-331.3105 192.0644,-324.1151 181.4979,-324.8904 184.2877,-331.3105"/>
</g>
<!-- Node320 -->
<g id="node14" class="node">
<title>Node320</title>
<g id="a_node14"><a xlink:href="../../d2/dc5/class_g_p_s_driver_u_b_x.html#a7741a82a136afc6332281f4a52426cc9" target="_top" xlink:title="Finish payload rx. ">
<polygon fill="#ffffff" stroke="#000000" points="184,-255.5 184,-274.5 345,-274.5 345,-255.5 184,-255.5"/>
<text text-anchor="middle" x="264.5" y="-262.5" font-family="Helvetica,sans-Serif" font-size="10.00" fill="#000000">GPSDriverUBX::payloadRxDone</text>
</a>
</g>
</g>
<!-- Node307&#45;&gt;Node320 -->
<g id="edge13" class="edge">
<title>Node307&#45;&gt;Node320</title>
<path fill="none" stroke="#191970" d="M71.0664,-441.2371C80.7009,-412.2636 113.2675,-326.2266 172,-285 175.4796,-282.5575 179.2008,-280.4045 183.0792,-278.5073"/>
<polygon fill="#191970" stroke="#191970" points="184.5581,-281.6815 192.3744,-274.5291 181.8038,-275.2461 184.5581,-281.6815"/>
</g>
<!-- Node339 -->
<g id="node33" class="node">
<title>Node339</title>
<g id="a_node33"><a xlink:href="../../d2/dc5/class_g_p_s_driver_u_b_x.html#a8c6f66f8738ee40b4addc88e0b6ddbd1" target="_top" xlink:title="Start payload rx. ">
<polygon fill="#ffffff" stroke="#000000" points="409.5,-19.5 409.5,-38.5 560.5,-38.5 560.5,-19.5 409.5,-19.5"/>
<text text-anchor="middle" x="485" y="-26.5" font-family="Helvetica,sans-Serif" font-size="10.00" fill="#000000">GPSDriverUBX::payloadRxInit</text>
</a>
</g>
</g>
<!-- Node307&#45;&gt;Node339 -->
<g id="edge37" class="edge">
<title>Node307&#45;&gt;Node339</title>
<path fill="none" stroke="#191970" d="M69.2789,-441.261C74.6848,-403.6665 98.8566,-266.1171 172,-186 245.1989,-105.8222 368.5873,-61.1058 436.5213,-41.3927"/>
<polygon fill="#191970" stroke="#191970" points="437.8657,-44.6495 446.5308,-38.5531 435.9551,-37.9153 437.8657,-44.6495"/>
</g>
<!-- Node311 -->
<g id="node5" class="node">
<title>Node311</title>
<g id="a_node5"><a xlink:href="../../d0/d7a/class_r_t_c_m_parsing.html#a81ed0df2217c926f122f9c6dec5b60d1" target="_top" xlink:title="reset the parsing state ">
<polygon fill="#ffffff" stroke="#000000" points="431.5,-593.5 431.5,-612.5 538.5,-612.5 538.5,-593.5 431.5,-593.5"/>
<text text-anchor="middle" x="485" y="-600.5" font-family="Helvetica,sans-Serif" font-size="10.00" fill="#000000">RTCMParsing::reset</text>
</a>
</g>
</g>
<!-- Node310&#45;&gt;Node311 -->
<g id="edge4" class="edge">
<title>Node310&#45;&gt;Node311</title>
<path fill="none" stroke="#191970" d="M332.7575,-603C360.9081,-603 393.3529,-603 421.0391,-603"/>
<polygon fill="#191970" stroke="#191970" points="421.3983,-606.5001 431.3983,-603 421.3982,-599.5001 421.3983,-606.5001"/>
</g>
<!-- Node317 -->
<g id="node11" class="node">
<title>Node317</title>
<g id="a_node11"><a xlink:href="../../d2/dc5/class_g_p_s_driver_u_b_x.html#a07cef25597f39fd239010853728e2eab" target="_top" xlink:title="Calculate FNV1 hash. ">
<polygon fill="#ffffff" stroke="#000000" points="430,-400 430,-430 540,-430 540,-400 430,-400"/>
<text text-anchor="start" x="438" y="-418" font-family="Helvetica,sans-Serif" font-size="10.00" fill="#000000">GPSDriverUBX::fnv1</text>
<text text-anchor="middle" x="485" y="-407" font-family="Helvetica,sans-Serif" font-size="10.00" fill="#000000">_32_str</text>
</a>
</g>
</g>
<!-- Node316&#45;&gt;Node317 -->
<g id="edge10" class="edge">
<title>Node316&#45;&gt;Node317</title>
<path fill="none" stroke="#191970" d="M342.2401,-409.8205C367.5187,-410.7376 395.3015,-411.7456 419.586,-412.6267"/>
<polygon fill="#191970" stroke="#191970" points="419.6416,-416.1309 429.762,-412.9959 419.8955,-409.1355 419.6416,-416.1309"/>
</g>
<!-- Node321 -->
<g id="node15" class="node">
<title>Node321</title>
<g id="a_node15"><a xlink:href="../../d8/da1/integration_8cpp.html#af5ba872dd09316732300733cc164ac1a" target="_top" xlink:title="f">
<polygon fill="#ffffff" stroke="#000000" points="470.5,-285.5 470.5,-304.5 499.5,-304.5 499.5,-285.5 470.5,-285.5"/>
<text text-anchor="middle" x="485" y="-292.5" font-family="Helvetica,sans-Serif" font-size="10.00" fill="#000000">f</text>
</a>
</g>
</g>
<!-- Node320&#45;&gt;Node321 -->
<g id="edge14" class="edge">
<title>Node320&#45;&gt;Node321</title>
<path fill="none" stroke="#191970" d="M334.5705,-274.5334C377.4737,-280.3706 429.7811,-287.4872 460.0509,-291.6056"/>
<polygon fill="#191970" stroke="#191970" points="459.767,-295.0991 470.1476,-292.9793 460.7108,-288.163 459.767,-295.0991"/>
</g>
<!-- Node324 -->
<g id="node18" class="node">
<title>Node324</title>
<g id="a_node18"><a xlink:href="../../d2/d20/class_g_p_s_helper.html#a3b74fa1cbf17feab5a2c080fb17357c4" target="_top" xlink:title="GPSHelper::setClock">
<polygon fill="#ffffff" stroke="#000000" points="429.5,-361.5 429.5,-380.5 540.5,-380.5 540.5,-361.5 429.5,-361.5"/>
<text text-anchor="middle" x="485" y="-368.5" font-family="Helvetica,sans-Serif" font-size="10.00" fill="#000000">GPSHelper::setClock</text>
</a>
</g>
</g>
<!-- Node320&#45;&gt;Node324 -->
<g id="edge18" class="edge">
<title>Node320&#45;&gt;Node324</title>
<path fill="none" stroke="#191970" d="M338.3255,-274.6715C344.998,-277.3645 351.3559,-280.7506 357,-285 384.0059,-305.3322 365.9001,-331.7933 393,-352 400.7631,-357.7885 409.8742,-361.9139 419.2903,-364.8364"/>
<polygon fill="#191970" stroke="#191970" points="418.6058,-368.276 429.1696,-367.4658 420.4062,-361.5115 418.6058,-368.276"/>
</g>
<!-- Node325 -->
<g id="node19" class="node">
<title>Node325</title>
<g id="a_node19"><a xlink:href="../../d2/d20/class_g_p_s_helper.html#af391caec80af1ae46488e949dcfb7d60" target="_top" xlink:title="Convert an ECEF (Earth Centered Earth Fixed) coordinate to LLA WGS84 (Lat, Lon, Alt). ">
<polygon fill="#ffffff" stroke="#000000" points="428,-247.5 428,-266.5 542,-266.5 542,-247.5 428,-247.5"/>
<text text-anchor="middle" x="485" y="-254.5" font-family="Helvetica,sans-Serif" font-size="10.00" fill="#000000">GPSHelper::ECEF2lla</text>
</a>
</g>
</g>
<!-- Node320&#45;&gt;Node325 -->
<g id="edge19" class="edge">
<title>Node320&#45;&gt;Node325</title>
<path fill="none" stroke="#191970" d="M345.0415,-262.0779C368.8325,-261.2147 394.6179,-260.2792 417.4972,-259.4491"/>
<polygon fill="#191970" stroke="#191970" points="417.9207,-262.9361 427.7872,-259.0757 417.6668,-255.9407 417.9207,-262.9361"/>
</g>
<!-- Node328 -->
<g id="node22" class="node">
<title>Node328</title>
<g id="a_node22"><a xlink:href="../../d2/d20/class_g_p_s_helper.html#a4c72f2656e1b467de223d5ed406d452e" target="_top" xlink:title="GPSHelper::surveyInStatus">
<polygon fill="#ffffff" stroke="#000000" points="416,-323.5 416,-342.5 554,-342.5 554,-323.5 416,-323.5"/>
<text text-anchor="middle" x="485" y="-330.5" font-family="Helvetica,sans-Serif" font-size="10.00" fill="#000000">GPSHelper::surveyInStatus</text>
</a>
</g>
</g>
<!-- Node320&#45;&gt;Node328 -->
<g id="edge24" class="edge">
<title>Node320&#45;&gt;Node328</title>
<path fill="none" stroke="#191970" d="M328.0046,-274.6167C337.97,-277.2847 347.956,-280.681 357,-285 375.54,-293.8538 374.4191,-305.2323 393,-314 398.2914,-316.4969 403.9066,-318.667 409.6507,-320.5531"/>
<polygon fill="#191970" stroke="#191970" points="408.8218,-323.9582 419.4052,-323.4664 410.825,-317.2509 408.8218,-323.9582"/>
</g>
<!-- Node329 -->
<g id="node23" class="node">
<title>Node329</title>
<g id="a_node23"><a xlink:href="../../d2/dc5/class_g_p_s_driver_u_b_x.html#a6d819221ed27daddd63c8f0c9a4c1e73" target="_top" xlink:title="GPSDriverUBX::activateRTCMOutput">
<polygon fill="#ffffff" stroke="#000000" points="393,-95.5 393,-114.5 577,-114.5 577,-95.5 393,-95.5"/>
<text text-anchor="middle" x="485" y="-102.5" font-family="Helvetica,sans-Serif" font-size="10.00" fill="#000000">GPSDriverUBX::activateRTCMOutput</text>
</a>
</g>
</g>
<!-- Node320&#45;&gt;Node329 -->
<g id="edge25" class="edge">
<title>Node320&#45;&gt;Node329</title>
<path fill="none" stroke="#191970" d="M277.6329,-255.4704C314.3129,-228.8546 418.1206,-153.5293 463.4155,-120.6622"/>
<polygon fill="#191970" stroke="#191970" points="465.6189,-123.3878 471.6571,-114.6819 461.5078,-117.7222 465.6189,-123.3878"/>
</g>
<!-- Node322 -->
<g id="node16" class="node">
<title>Node322</title>
<g id="a_node16"><a xlink:href="../../d0/de4/namespacematrix.html#a761295febb473ca1226309513533e801" target="_top" xlink:title="matrix::sin">
<polygon fill="#ffffff" stroke="#000000" points="677.5,-342.5 677.5,-361.5 739.5,-361.5 739.5,-342.5 677.5,-342.5"/>
<text text-anchor="middle" x="708.5" y="-349.5" font-family="Helvetica,sans-Serif" font-size="10.00" fill="#000000">matrix::sin</text>
</a>
</g>
</g>
<!-- Node321&#45;&gt;Node322 -->
<g id="edge15" class="edge">
<title>Node321&#45;&gt;Node322</title>
<path fill="none" stroke="#191970" d="M499.5261,-297.2272C517.815,-300.2071 550.0976,-306.0518 577,-314 593.4638,-318.8642 596.6434,-322.7867 613,-328 630.5351,-333.589 650.211,-338.7216 667.1261,-342.7933"/>
<polygon fill="#191970" stroke="#191970" points="666.7208,-346.2938 677.2575,-345.186 668.3297,-339.4812 666.7208,-346.2938"/>
</g>
<!-- Node323 -->
<g id="node17" class="node">
<title>Node323</title>
<g id="a_node17"><a xlink:href="../../d0/de4/namespacematrix.html#a2e09123c750ed3a0315a31f3b27a3ed9" target="_top" xlink:title="matrix::cos">
<polygon fill="#ffffff" stroke="#000000" points="883.5,-342.5 883.5,-361.5 948.5,-361.5 948.5,-342.5 883.5,-342.5"/>
<text text-anchor="middle" x="916" y="-349.5" font-family="Helvetica,sans-Serif" font-size="10.00" fill="#000000">matrix::cos</text>
</a>
</g>
</g>
<!-- Node322&#45;&gt;Node323 -->
<g id="edge16" class="edge">
<title>Node322&#45;&gt;Node323</title>
<path fill="none" stroke="#191970" d="M739.5648,-347.0175C775.0588,-344.883 833.3614,-344.6818 873.1561,-346.4138"/>
<polygon fill="#191970" stroke="#191970" points="873.1891,-349.9197 883.3516,-346.9244 873.5393,-342.9285 873.1891,-349.9197"/>
</g>
<!-- Node323&#45;&gt;Node322 -->
<g id="edge17" class="edge">
<title>Node323&#45;&gt;Node322</title>
<path fill="none" stroke="#191970" d="M883.3516,-357.0756C847.1946,-359.1531 788.8376,-359.2974 749.5972,-357.5084"/>
<polygon fill="#191970" stroke="#191970" points="749.7344,-354.0109 739.5648,-356.9825 749.3679,-361.0013 749.7344,-354.0109"/>
</g>
<!-- Node325&#45;&gt;Node322 -->
<g id="edge22" class="edge">
<title>Node325&#45;&gt;Node322</title>
<path fill="none" stroke="#191970" d="M542.1569,-261.8274C554.3543,-264.7082 566.6624,-269.1611 577,-276 600.4434,-291.5091 589.8919,-311.9957 613,-328 628.9342,-339.0357 649.4864,-345.0039 667.4408,-348.2285"/>
<polygon fill="#191970" stroke="#191970" points="666.9567,-351.6953 677.3789,-349.7901 668.0434,-344.7802 666.9567,-351.6953"/>
</g>
<!-- Node325&#45;&gt;Node323 -->
<g id="edge23" class="edge">
<title>Node325&#45;&gt;Node323</title>
<path fill="none" stroke="#191970" d="M542.1328,-266.188C553.8351,-268.794 565.9478,-272.0326 577,-276 594.0278,-282.1124 595.9187,-289.0386 613,-295 637.2737,-303.4715 795.7711,-331.3315 873.355,-344.7071"/>
<polygon fill="#191970" stroke="#191970" points="872.8475,-348.1711 883.2963,-346.418 874.0348,-341.2725 872.8475,-348.1711"/>
</g>
<!-- Node326 -->
<g id="node20" class="node">
<title>Node326</title>
<g id="a_node20"><a xlink:href="../../d0/de4/namespacematrix.html#a3fd7237277d21ed856d97c311c0e2db7" target="_top" xlink:title="matrix::sqrt">
<polygon fill="#ffffff" stroke="#000000" points="675.5,-266.5 675.5,-285.5 741.5,-285.5 741.5,-266.5 675.5,-266.5"/>
<text text-anchor="middle" x="708.5" y="-273.5" font-family="Helvetica,sans-Serif" font-size="10.00" fill="#000000">matrix::sqrt</text>
</a>
</g>
</g>
<!-- Node325&#45;&gt;Node326 -->
<g id="edge20" class="edge">
<title>Node325&#45;&gt;Node326</title>
<path fill="none" stroke="#191970" d="M542.2666,-261.8683C580.4772,-265.1166 629.9397,-269.3215 664.9463,-272.2974"/>
<polygon fill="#191970" stroke="#191970" points="665.0573,-275.8194 675.3178,-273.1791 665.6503,-268.8446 665.0573,-275.8194"/>
</g>
<!-- Node327 -->
<g id="node21" class="node">
<title>Node327</title>
<g id="a_node21"><a xlink:href="../../d0/de4/namespacematrix.html#a2dc2eb787a0bdc7634060b2a27a45714" target="_top" xlink:title="matrix::atan2">
<polygon fill="#ffffff" stroke="#000000" points="671.5,-228.5 671.5,-247.5 745.5,-247.5 745.5,-228.5 671.5,-228.5"/>
<text text-anchor="middle" x="708.5" y="-235.5" font-family="Helvetica,sans-Serif" font-size="10.00" fill="#000000">matrix::atan2</text>
</a>
</g>
</g>
<!-- Node325&#45;&gt;Node327 -->
<g id="edge21" class="edge">
<title>Node325&#45;&gt;Node327</title>
<path fill="none" stroke="#191970" d="M542.2666,-252.1317C579.0707,-249.0029 626.3136,-244.9868 661.0231,-242.0361"/>
<polygon fill="#191970" stroke="#191970" points="661.6996,-245.4913 671.3672,-241.1567 661.1066,-238.5164 661.6996,-245.4913"/>
</g>
<!-- Node330 -->
<g id="node24" class="node">
<title>Node330</title>
<g id="a_node24"><a xlink:href="../../d2/dc5/class_g_p_s_driver_u_b_x.html#a8bd6a2d7575defc118484f80c419a186" target="_top" xlink:title="Add a configuration value that is port&#45;specific (MSGOUT messages). ">
<polygon fill="#ffffff" stroke="#000000" points="633.5,-114.5 633.5,-133.5 783.5,-133.5 783.5,-114.5 633.5,-114.5"/>
<text text-anchor="middle" x="708.5" y="-121.5" font-family="Helvetica,sans-Serif" font-size="10.00" fill="#000000">GPSDriverUBX::cfgValsetPort</text>
</a>
</g>
</g>
<!-- Node329&#45;&gt;Node330 -->
<g id="edge26" class="edge">
<title>Node329&#45;&gt;Node330</title>
<path fill="none" stroke="#191970" d="M577.1964,-112.8377C592.3398,-114.1251 607.9776,-115.4545 622.9505,-116.7273"/>
<polygon fill="#191970" stroke="#191970" points="622.9352,-120.2386 633.1958,-117.5983 623.5282,-113.2637 622.9352,-120.2386"/>
</g>
<!-- Node331 -->
<g id="node25" class="node">
<title>Node331</title>
<g id="a_node25"><a xlink:href="../../d2/dc5/class_g_p_s_driver_u_b_x.html#a092903f69f2ad4ef4376b2a90fb20eae" target="_top" xlink:title="Configure message rate. ">
<polygon fill="#ffffff" stroke="#000000" points="613,-.5 613,-19.5 804,-19.5 804,-.5 613,-.5"/>
<text text-anchor="middle" x="708.5" y="-7.5" font-family="Helvetica,sans-Serif" font-size="10.00" fill="#000000">GPSDriverUBX::configureMessageRate</text>
</a>
</g>
</g>
<!-- Node329&#45;&gt;Node331 -->
<g id="edge27" class="edge">
<title>Node329&#45;&gt;Node331</title>
<path fill="none" stroke="#191970" d="M499.3603,-95.3883C522.4141,-80.3445 569.514,-51.1837 613,-34 624.7927,-29.3401 637.7687,-25.3657 650.2524,-22.0709"/>
<polygon fill="#191970" stroke="#191970" points="651.2897,-25.4188 660.1265,-19.574 649.5736,-18.6324 651.2897,-25.4188"/>
</g>
<!-- Node332 -->
<g id="node26" class="node">
<title>Node332</title>
<g id="a_node26"><a xlink:href="../../d2/dc5/class_g_p_s_driver_u_b_x.html#abafe58c4721b8294ce477e0a51232163" target="_top" xlink:title="Send a message. ">
<polygon fill="#ffffff" stroke="#000000" points="840,-19.5 840,-38.5 992,-38.5 992,-19.5 840,-19.5"/>
<text text-anchor="middle" x="916" y="-26.5" font-family="Helvetica,sans-Serif" font-size="10.00" fill="#000000">GPSDriverUBX::sendMessage</text>
</a>
</g>
</g>
<!-- Node329&#45;&gt;Node332 -->
<g id="edge32" class="edge">
<title>Node329&#45;&gt;Node332</title>
<path fill="none" stroke="#191970" d="M512.6292,-95.3655C538.3283,-86.7484 577.8344,-74.3731 613,-67 685.3759,-51.8251 768.8352,-41.9054 829.8134,-36.0192"/>
<polygon fill="#191970" stroke="#191970" points="830.1578,-39.5024 839.7826,-35.0735 829.4967,-32.5337 830.1578,-39.5024"/>
</g>
<!-- Node335 -->
<g id="node29" class="node">
<title>Node335</title>
<g id="a_node29"><a xlink:href="../../d2/dc5/class_g_p_s_driver_u_b_x.html#a5ee4591e2b8ea900a332a87b45bed1d0" target="_top" xlink:title="Init _buf as CFG&#45;VALSET. ">
<polygon fill="#ffffff" stroke="#000000" points="635,-152.5 635,-171.5 782,-171.5 782,-152.5 635,-152.5"/>
<text text-anchor="middle" x="708.5" y="-159.5" font-family="Helvetica,sans-Serif" font-size="10.00" fill="#000000">GPSDriverUBX::initCfgValset</text>
</a>
</g>
</g>
<!-- Node329&#45;&gt;Node335 -->
<g id="edge31" class="edge">
<title>Node329&#45;&gt;Node335</title>
<path fill="none" stroke="#191970" d="M514.2759,-114.5299C540.0842,-122.7293 578.796,-134.5395 613,-143 623.5538,-145.6105 634.8322,-148.1086 645.8049,-150.3859"/>
<polygon fill="#191970" stroke="#191970" points="645.2695,-153.8485 655.7664,-152.4121 646.6648,-146.989 645.2695,-153.8485"/>
</g>
<!-- Node336 -->
<g id="node30" class="node">
<title>Node336</title>
<g id="a_node30"><a xlink:href="../../d2/dc5/class_g_p_s_driver_u_b_x.html#a69d3e7aee41d76fb0650e045d75e63db" target="_top" xlink:title="Wait for message acknowledge. ">
<polygon fill="#ffffff" stroke="#000000" points="638.5,-76.5 638.5,-95.5 778.5,-95.5 778.5,-76.5 638.5,-76.5"/>
<text text-anchor="middle" x="708.5" y="-83.5" font-family="Helvetica,sans-Serif" font-size="10.00" fill="#000000">GPSDriverUBX::waitForAck</text>
</a>
</g>
</g>
<!-- Node329&#45;&gt;Node336 -->
<g id="edge33" class="edge">
<title>Node329&#45;&gt;Node336</title>
<path fill="none" stroke="#191970" d="M577.1964,-97.1623C594.1247,-95.7232 611.6708,-94.2316 628.2152,-92.8251"/>
<polygon fill="#191970" stroke="#191970" points="628.7049,-96.2962 638.3725,-91.9616 628.1119,-89.3213 628.7049,-96.2962"/>
</g>
<!-- Node331&#45;&gt;Node332 -->
<g id="edge28" class="edge">
<title>Node331&#45;&gt;Node332</title>
<path fill="none" stroke="#191970" d="M804.0508,-18.7492C812.5957,-19.5317 821.2153,-20.3209 829.6757,-21.0956"/>
<polygon fill="#191970" stroke="#191970" points="829.6233,-24.6054 839.9008,-22.0319 830.2617,-17.6345 829.6233,-24.6054"/>
</g>
<!-- Node333 -->
<g id="node27" class="node">
<title>Node333</title>
<g id="a_node27"><a xlink:href="../../d2/dc5/class_g_p_s_driver_u_b_x.html#a8bff149b775ec9a858e48a240c8fe373" target="_top" xlink:title="Calculate &amp; add checksum for given buffer. ">
<polygon fill="#ffffff" stroke="#000000" points="1028,-.5 1028,-19.5 1184,-19.5 1184,-.5 1028,-.5"/>
<text text-anchor="middle" x="1106" y="-7.5" font-family="Helvetica,sans-Serif" font-size="10.00" fill="#000000">GPSDriverUBX::calcChecksum</text>
</a>
</g>
</g>
<!-- Node332&#45;&gt;Node333 -->
<g id="edge29" class="edge">
<title>Node332&#45;&gt;Node333</title>
<path fill="none" stroke="#191970" d="M992.1855,-21.3815C1000.6448,-20.5355 1009.3115,-19.6689 1017.9025,-18.8098"/>
<polygon fill="#191970" stroke="#191970" points="1018.3337,-22.2842 1027.9358,-17.8064 1017.6371,-15.3189 1018.3337,-22.2842"/>
</g>
<!-- Node334 -->
<g id="node28" class="node">
<title>Node334</title>
<g id="a_node28"><a xlink:href="../../d2/d20/class_g_p_s_helper.html#a44d4a088facfe85131a8f2d4742070c8" target="_top" xlink:title="write to the device ">
<polygon fill="#ffffff" stroke="#000000" points="1059.5,-38.5 1059.5,-57.5 1152.5,-57.5 1152.5,-38.5 1059.5,-38.5"/>
<text text-anchor="middle" x="1106" y="-45.5" font-family="Helvetica,sans-Serif" font-size="10.00" fill="#000000">GPSHelper::write</text>
</a>
</g>
</g>
<!-- Node332&#45;&gt;Node334 -->
<g id="edge30" class="edge">
<title>Node332&#45;&gt;Node334</title>
<path fill="none" stroke="#191970" d="M992.1855,-36.6185C1011.2609,-38.5261 1031.3906,-40.5391 1049.3295,-42.3329"/>
<polygon fill="#191970" stroke="#191970" points="1049.032,-45.8206 1059.3307,-43.3331 1049.7286,-38.8553 1049.032,-45.8206"/>
</g>
<!-- Node337 -->
<g id="node31" class="node">
<title>Node337</title>
<g id="a_node31"><a xlink:href="../../d2/dc5/class_g_p_s_driver_u_b_x.html#af01fa3241c4688400fe3f6d855340d94" target="_top" xlink:title="receive &amp; handle new data from the device ">
<polygon fill="#ffffff" stroke="#000000" points="855,-133.5 855,-152.5 977,-152.5 977,-133.5 855,-133.5"/>
<text text-anchor="middle" x="916" y="-140.5" font-family="Helvetica,sans-Serif" font-size="10.00" fill="#000000">GPSDriverUBX::receive</text>
</a>
</g>
</g>
<!-- Node336&#45;&gt;Node337 -->
<g id="edge34" class="edge">
<title>Node336&#45;&gt;Node337</title>
<path fill="none" stroke="#191970" d="M762.8256,-95.53C776.3561,-98.2536 790.7735,-101.4568 804,-105 830.3154,-112.0496 859.4381,-121.9992 881.3895,-129.9492"/>
<polygon fill="#191970" stroke="#191970" points="880.341,-133.2924 890.9348,-133.4435 882.7474,-126.7191 880.341,-133.2924"/>
</g>
<!-- Node337&#45;&gt;Node307 -->
<g id="edge36" class="edge">
<title>Node337&#45;&gt;Node307</title>
<path fill="none" stroke="#191970" d="M892.8365,-152.5707C870.4851,-161.3933 835.4962,-174.1288 804,-181 528.1182,-241.1859 404.7471,-86.1191 172,-246 106.7757,-290.8045 80.1983,-389.1844 71.5294,-431.269"/>
<polygon fill="#191970" stroke="#191970" points="68.0861,-430.641 69.6197,-441.1242 74.9583,-431.9727 68.0861,-430.641"/>
</g>
<!-- Node338 -->
<g id="node32" class="node">
<title>Node338</title>
<g id="a_node32"><a xlink:href="../../d2/d20/class_g_p_s_helper.html#ae499166387a2123074225fdcd21b855d" target="_top" xlink:title="read from device ">
<polygon fill="#ffffff" stroke="#000000" points="1060.5,-133.5 1060.5,-152.5 1151.5,-152.5 1151.5,-133.5 1060.5,-133.5"/>
<text text-anchor="middle" x="1106" y="-140.5" font-family="Helvetica,sans-Serif" font-size="10.00" fill="#000000">GPSHelper::read</text>
</a>
</g>
</g>
<!-- Node337&#45;&gt;Node338 -->
<g id="edge35" class="edge">
<title>Node337&#45;&gt;Node338</title>
<path fill="none" stroke="#191970" d="M977.163,-143C1000.5876,-143 1027.1694,-143 1050.0791,-143"/>
<polygon fill="#191970" stroke="#191970" points="1050.3222,-146.5001 1060.3222,-143 1050.3222,-139.5001 1050.3222,-146.5001"/>
</g>
<!-- Node339&#45;&gt;Node331 -->
<g id="edge38" class="edge">
<title>Node339&#45;&gt;Node331</title>
<path fill="none" stroke="#191970" d="M560.6669,-22.5675C574.1183,-21.4239 588.3511,-20.214 602.4621,-19.0144"/>
<polygon fill="#191970" stroke="#191970" points="603.0351,-22.4784 612.7027,-18.1438 602.4421,-15.5036 603.0351,-22.4784"/>
</g>
</g>
</svg>
        <g id="navigator" transform="translate(0 0)" fill="#404254">
                <rect fill="#f2f5e9" fill-opacity="0.5" stroke="#606060" stroke-width=".5" x="0" y="0" width="60" height="60"/>
                <use id="zoomplus" xlink:href="#zoomPlus" x="17" y="9" onmousedown="handleZoom(evt,'in')"/>
                <use id="zoomminus" xlink:href="#zoomMin" x="42" y="9" onmousedown="handleZoom(evt,'out')"/>
                <use id="reset" xlink:href="#resetDef" x="30" y="36" onmousedown="handleReset()"/>
                <g id="arrowUp" xlink:href="#dirArrow" transform="translate(30 24)" onmousedown="handlePan(0,-1)">
                  <use xlink:href="#rim" fill="#404040">
                        <set attributeName="fill" to="#808080" begin="arrowUp.mouseover" end="arrowUp.mouseout"/>
                  </use>
                  <path fill="none" stroke="white" stroke-width="1.5" d="M0,-3.0v7 M-2.5,-0.5L0,-3.0L2.5,-0.5"/>
                </g>
                <g id="arrowRight" xlink:href="#dirArrow" transform="rotate(90) translate(36 -43)" onmousedown="handlePan(1,0)">
                  <use xlink:href="#rim" fill="#404040">
                        <set attributeName="fill" to="#808080" begin="arrowRight.mouseover" end="arrowRight.mouseout"/>
                  </use>
                  <path fill="none" stroke="white" stroke-width="1.5" d="M0,-3.0v7 M-2.5,-0.5L0,-3.0L2.5,-0.5"/>
                </g>
                <g id="arrowDown" xlink:href="#dirArrow" transform="rotate(180) translate(-30 -48)" onmousedown="handlePan(0,1)">
                  <use xlink:href="#rim" fill="#404040">
                        <set attributeName="fill" to="#808080" begin="arrowDown.mouseover" end="arrowDown.mouseout"/>
                  </use>
                  <path fill="none" stroke="white" stroke-width="1.5" d="M0,-3.0v7 M-2.5,-0.5L0,-3.0L2.5,-0.5"/>
                </g>
                <g id="arrowLeft" xlink:href="#dirArrow" transform="rotate(270) translate(-36 17)" onmousedown="handlePan(-1,0)">
                  <use xlink:href="#rim" fill="#404040">
                        <set attributeName="fill" to="#808080" begin="arrowLeft.mouseover" end="arrowLeft.mouseout"/>
                  </use>
                  <path fill="none" stroke="white" stroke-width="1.5" d="M0,-3.0v7 M-2.5,-0.5L0,-3.0L2.5,-0.5"/>
                </g>
        </g>
        <svg viewBox="0 0 15 15" width="100%" height="30px" preserveAspectRatio="xMaxYMin meet">
         <g id="arrow_out" transform="scale(0.3 0.3)">
          <a xlink:href="class_g_p_s_driver_u_b_x_a8fb26fb23f2b793d0f11d903a09f606d_cgraph_org.svg" target="_base">
           <rect id="button" ry="5" rx="5" y="6" x="6" height="38" width="38"
                fill="#f2f5e9" fill-opacity="0.5" stroke="#606060" stroke-width="1.0"/>
           <path id="arrow"
             d="M 11.500037,31.436501 C 11.940474,20.09759 22.043105,11.32322 32.158766,21.979434 L 37.068811,17.246167 C 37.068811,17.246167 37.088388,32 37.088388,32 L 22.160133,31.978069 C 22.160133,31.978069 26.997745,27.140456 26.997745,27.140456 C 18.528582,18.264221 13.291696,25.230495 11.500037,31.436501 z"
             style="fill:#404040;"/>
          </a>
         </g>
        </svg>
</svg>
