<?xml version="1.0" encoding="UTF-8" standalone="no"?>
<!DOCTYPE svg PUBLIC "-//W3C//DTD SVG 1.1//EN"
 "http://www.w3.org/Graphics/SVG/1.1/DTD/svg11.dtd">
<!-- Generated by graphviz version 2.38.0 (20140413.2041)
 -->
<!-- Title: GPSDriverUBX::payloadRxInit Pages: 1 -->
<!--zoomable 135 -->
<svg id="main" version="1.1" xmlns="http://www.w3.org/2000/svg" xmlns:xlink="http://www.w3.org/1999/xlink" xml:space="preserve" onload="init(evt)">
<style type="text/css"><![CDATA[
.edge:hover path { stroke: red; }
.edge:hover polygon { stroke: red; fill: red; }
]]></style>
<script type="text/javascript"><![CDATA[
var edges = document.getElementsByTagName('g');
if (edges && edges.length) {
  for (var i=0;i<edges.length;i++) {
    if (edges[i].id.substr(0,4)=='edge') {
      edges[i].setAttribute('class','edge');
    }
  }
}
]]></script>
        <defs>
                <circle id="rim" cx="0" cy="0" r="7"/>
                <circle id="rim2" cx="0" cy="0" r="3.5"/>
                <g id="zoomPlus">
                        <use xlink:href="#rim" fill="#404040">
                                <set attributeName="fill" to="#808080" begin="zoomplus.mouseover" end="zoomplus.mouseout"/>
                        </use>
                        <path d="M-4,0h8M0,-4v8" fill="none" stroke="white" stroke-width="1.5" pointer-events="none"/>
                </g>
                <g id="zoomMin">
                        <use xlink:href="#rim" fill="#404040">
                                <set attributeName="fill" to="#808080" begin="zoomminus.mouseover" end="zoomminus.mouseout"/>
                        </use>
                        <path d="M-4,0h8" fill="none" stroke="white" stroke-width="1.5" pointer-events="none"/>
                </g>
                <g id="dirArrow">
                        <path fill="none" stroke="white" stroke-width="1.5" d="M0,-3.0v7 M-2.5,-0.5L0,-3.0L2.5,-0.5"/>
                </g>
               <g id="resetDef">
                       <use xlink:href="#rim2" fill="#404040">
                               <set attributeName="fill" to="#808080" begin="reset.mouseover" end="reset.mouseout"/>
                       </use>
               </g>
        </defs>

<script type="text/javascript">
var viewWidth = 1232;
var viewHeight = 135;
var sectionId = 'dynsection-22';
</script>
<script xlink:href="../../svgpan.js"/>
<svg id="graph" class="graph">
<g id="viewport">
<title>GPSDriverUBX::payloadRxInit</title>
<polygon fill="white" stroke="none" points="-4,4 -4,-130.5 1228,-130.5 1228,4 -4,4"/>
<!-- Node1 -->
<g id="node1" class="node"><title>Node1</title>
<polygon fill="#bfbfbf" stroke="black" points="0,-107 0,-126 151,-126 151,-107 0,-107"/>
<text text-anchor="middle" x="75.5" y="-114" font-family="Helvetica,sans-Serif" font-size="10.00">GPSDriverUBX::payloadRxInit</text>
</g>
<!-- Node2 -->
<g id="node2" class="node"><title>Node2</title>
<g id="a_node2"><a xlink:href="../../d2/dc5/class_g_p_s_driver_u_b_x.html#a8fb26fb23f2b793d0f11d903a09f606d" target="_top" xlink:title="Parse the binary UBX packet. ">
<polygon fill="white" stroke="black" points="187,-107 187,-126 323,-126 323,-107 187,-107"/>
<text text-anchor="middle" x="255" y="-114" font-family="Helvetica,sans-Serif" font-size="10.00">GPSDriverUBX::parseChar</text>
</a>
</g>
</g>
<!-- Node1&#45;&gt;Node2 -->
<g id="edge1" class="edge"><title>Node1&#45;&gt;Node2</title>
<path fill="none" stroke="midnightblue" d="M161.074,-116.5C169.688,-116.5 178.356,-116.5 186.75,-116.5"/>
<polygon fill="midnightblue" stroke="midnightblue" points="161.005,-113 151.004,-116.5 161.004,-120 161.005,-113"/>
</g>
<!-- Node3 -->
<g id="node3" class="node"><title>Node3</title>
<g id="a_node3"><a xlink:href="../../d2/dc5/class_g_p_s_driver_u_b_x.html#af01fa3241c4688400fe3f6d855340d94" target="_top" xlink:title="receive &amp; handle new data from the device ">
<polygon fill="white" stroke="black" points="359,-107 359,-126 481,-126 481,-107 359,-107"/>
<text text-anchor="middle" x="420" y="-114" font-family="Helvetica,sans-Serif" font-size="10.00">GPSDriverUBX::receive</text>
</a>
</g>
</g>
<!-- Node2&#45;&gt;Node3 -->
<g id="edge2" class="edge"><title>Node2&#45;&gt;Node3</title>
<path fill="none" stroke="midnightblue" d="M333.304,-116.5C341.921,-116.5 350.601,-116.5 358.958,-116.5"/>
<polygon fill="midnightblue" stroke="midnightblue" points="333.239,-113 323.239,-116.5 333.239,-120 333.239,-113"/>
</g>
<!-- Node4 -->
<g id="node4" class="node"><title>Node4</title>
<g id="a_node4"><a xlink:href="../../d2/dc5/class_g_p_s_driver_u_b_x.html#a435183becff817ea04bb8dbee3b27938" target="_top" xlink:title="GPSDriverUBX::configure">
<polygon fill="white" stroke="black" points="1093,-69 1093,-88 1224,-88 1224,-69 1093,-69"/>
<text text-anchor="middle" x="1158.5" y="-76" font-family="Helvetica,sans-Serif" font-size="10.00">GPSDriverUBX::configure</text>
</a>
</g>
</g>
<!-- Node3&#45;&gt;Node4 -->
<g id="edge3" class="edge"><title>Node3&#45;&gt;Node4</title>
<path fill="none" stroke="midnightblue" d="M491.584,-117.996C609.208,-119.682 852.593,-119.736 1057,-97.5 1076.24,-95.4068 1097.32,-91.6516 1115.18,-88.0292"/>
<polygon fill="midnightblue" stroke="midnightblue" points="491.335,-114.492 481.283,-117.839 491.228,-121.491 491.335,-114.492"/>
</g>
<!-- Node5 -->
<g id="node5" class="node"><title>Node5</title>
<g id="a_node5"><a xlink:href="../../d2/dc5/class_g_p_s_driver_u_b_x.html#a69d3e7aee41d76fb0650e045d75e63db" target="_top" xlink:title="Wait for message acknowledge. ">
<polygon fill="white" stroke="black" points="517,-69 517,-88 657,-88 657,-69 517,-69"/>
<text text-anchor="middle" x="587" y="-76" font-family="Helvetica,sans-Serif" font-size="10.00">GPSDriverUBX::waitForAck</text>
</a>
</g>
</g>
<!-- Node3&#45;&gt;Node5 -->
<g id="edge4" class="edge"><title>Node3&#45;&gt;Node5</title>
<path fill="none" stroke="midnightblue" d="M472.654,-104.604C495.846,-99.2626 522.838,-93.0463 544.663,-88.0201"/>
<polygon fill="midnightblue" stroke="midnightblue" points="471.596,-101.256 462.636,-106.911 473.167,-108.077 471.596,-101.256"/>
</g>
<!-- Node5&#45;&gt;Node4 -->
<g id="edge5" class="edge"><title>Node5&#45;&gt;Node4</title>
<path fill="none" stroke="midnightblue" d="M667.31,-82.6785C675.978,-83.0154 684.673,-83.3019 693,-83.5 835.705,-86.8958 1003.13,-83.2056 1092.87,-80.6047"/>
<polygon fill="midnightblue" stroke="midnightblue" points="667.307,-79.1755 657.172,-82.2621 667.02,-86.1696 667.307,-79.1755"/>
</g>
<!-- Node6 -->
<g id="node6" class="node"><title>Node6</title>
<g id="a_node6"><a xlink:href="../../d2/dc5/class_g_p_s_driver_u_b_x.html#afc6bdbe210a98edae84e5e515a079bac" target="_top" xlink:title="Start or restart the survey&#45;in procees. ">
<polygon fill="white" stroke="black" points="899,-50 899,-69 1057,-69 1057,-50 899,-50"/>
<text text-anchor="middle" x="978" y="-57" font-family="Helvetica,sans-Serif" font-size="10.00">GPSDriverUBX::restartSurveyIn</text>
</a>
</g>
</g>
<!-- Node5&#45;&gt;Node6 -->
<g id="edge6" class="edge"><title>Node5&#45;&gt;Node6</title>
<path fill="none" stroke="midnightblue" d="M667.273,-74.6281C734.89,-71.3254 831.563,-66.6036 898.854,-63.3169"/>
<polygon fill="midnightblue" stroke="midnightblue" points="666.914,-71.1413 657.097,-75.1251 667.256,-78.133 666.914,-71.1413"/>
</g>
<!-- Node7 -->
<g id="node7" class="node"><title>Node7</title>
<g id="a_node7"><a xlink:href="../../d2/dc5/class_g_p_s_driver_u_b_x.html#aa98487cab6ea29baec6fd2746011c88a" target="_top" xlink:title="combines the configure_message_rate &amp; wait_for_ack calls ">
<polygon fill="white" stroke="black" points="693,-0.5 693,-30.5 863,-30.5 863,-0.5 693,-0.5"/>
<text text-anchor="start" x="701" y="-18.5" font-family="Helvetica,sans-Serif" font-size="10.00">GPSDriverUBX::configureMessage</text>
<text text-anchor="middle" x="778" y="-7.5" font-family="Helvetica,sans-Serif" font-size="10.00">RateAndAck</text>
</a>
</g>
</g>
<!-- Node5&#45;&gt;Node7 -->
<g id="edge8" class="edge"><title>Node5&#45;&gt;Node7</title>
<path fill="none" stroke="midnightblue" d="M626.55,-65.6501C657.049,-55.4836 699.7,-41.2666 731.805,-30.565"/>
<polygon fill="midnightblue" stroke="midnightblue" points="625.085,-62.4489 616.705,-68.9317 627.299,-69.0897 625.085,-62.4489"/>
</g>
<!-- Node6&#45;&gt;Node4 -->
<g id="edge7" class="edge"><title>Node6&#45;&gt;Node4</title>
<path fill="none" stroke="midnightblue" d="M1067.21,-68.8893C1075.9,-69.8145 1084.61,-70.741 1092.99,-71.6338"/>
<polygon fill="midnightblue" stroke="midnightblue" points="1067.35,-65.3842 1057.03,-67.806 1066.61,-72.3449 1067.35,-65.3842"/>
</g>
<!-- Node7&#45;&gt;Node4 -->
<g id="edge9" class="edge"><title>Node7&#45;&gt;Node4</title>
<path fill="none" stroke="midnightblue" d="M873.557,-17.6405C927.809,-20.4447 996.877,-26.702 1057,-40.5 1085.73,-47.0925 1117.28,-60.0223 1137.22,-68.9557"/>
<polygon fill="midnightblue" stroke="midnightblue" points="873.417,-14.1296 863.259,-17.1402 873.077,-21.1214 873.417,-14.1296"/>
</g>
<!-- Node7&#45;&gt;Node6 -->
<g id="edge10" class="edge"><title>Node7&#45;&gt;Node6</title>
<path fill="none" stroke="midnightblue" d="M856.585,-32.7412C882.99,-38.6089 911.53,-44.951 934.194,-49.9876"/>
<polygon fill="midnightblue" stroke="midnightblue" points="857.108,-29.272 846.587,-30.5192 855.589,-36.1053 857.108,-29.272"/>
</g>
</g>
</svg>
        <g id="navigator" transform="translate(0 0)" fill="#404254">
                <rect fill="#f2f5e9" fill-opacity="0.5" stroke="#606060" stroke-width=".5" x="0" y="0" width="60" height="60"/>
                <use id="zoomplus" xlink:href="#zoomPlus" x="17" y="9" onmousedown="handleZoom(evt,'in')"/>
                <use id="zoomminus" xlink:href="#zoomMin" x="42" y="9" onmousedown="handleZoom(evt,'out')"/>
                <use id="reset" xlink:href="#resetDef" x="30" y="36" onmousedown="handleReset()"/>
                <g id="arrowUp" xlink:href="#dirArrow" transform="translate(30 24)" onmousedown="handlePan(0,-1)">
                  <use xlink:href="#rim" fill="#404040">
                        <set attributeName="fill" to="#808080" begin="arrowUp.mouseover" end="arrowUp.mouseout"/>
                  </use>
                  <path fill="none" stroke="white" stroke-width="1.5" d="M0,-3.0v7 M-2.5,-0.5L0,-3.0L2.5,-0.5"/>
                </g>
                <g id="arrowRight" xlink:href="#dirArrow" transform="rotate(90) translate(36 -43)" onmousedown="handlePan(1,0)">
                  <use xlink:href="#rim" fill="#404040">
                        <set attributeName="fill" to="#808080" begin="arrowRight.mouseover" end="arrowRight.mouseout"/>
                  </use>
                  <path fill="none" stroke="white" stroke-width="1.5" d="M0,-3.0v7 M-2.5,-0.5L0,-3.0L2.5,-0.5"/>
                </g>
                <g id="arrowDown" xlink:href="#dirArrow" transform="rotate(180) translate(-30 -48)" onmousedown="handlePan(0,1)">
                  <use xlink:href="#rim" fill="#404040">
                        <set attributeName="fill" to="#808080" begin="arrowDown.mouseover" end="arrowDown.mouseout"/>
                  </use>
                  <path fill="none" stroke="white" stroke-width="1.5" d="M0,-3.0v7 M-2.5,-0.5L0,-3.0L2.5,-0.5"/>
                </g>
                <g id="arrowLeft" xlink:href="#dirArrow" transform="rotate(270) translate(-36 17)" onmousedown="handlePan(-1,0)">
                  <use xlink:href="#rim" fill="#404040">
                        <set attributeName="fill" to="#808080" begin="arrowLeft.mouseover" end="arrowLeft.mouseout"/>
                  </use>
                  <path fill="none" stroke="white" stroke-width="1.5" d="M0,-3.0v7 M-2.5,-0.5L0,-3.0L2.5,-0.5"/>
                </g>
        </g>
        <svg viewBox="0 0 15 15" width="100%" height="30px" preserveAspectRatio="xMaxYMin meet">
         <g id="arrow_out" transform="scale(0.3 0.3)">
          <a xlink:href="class_g_p_s_driver_u_b_x_a8c6f66f8738ee40b4addc88e0b6ddbd1_icgraph_org.svg" target="_base">
           <rect id="button" ry="5" rx="5" y="6" x="6" height="38" width="38"
                fill="#f2f5e9" fill-opacity="0.5" stroke="#606060" stroke-width="1.0"/>
           <path id="arrow"
             d="M 11.500037,31.436501 C 11.940474,20.09759 22.043105,11.32322 32.158766,21.979434 L 37.068811,17.246167 C 37.068811,17.246167 37.088388,32 37.088388,32 L 22.160133,31.978069 C 22.160133,31.978069 26.997745,27.140456 26.997745,27.140456 C 18.528582,18.264221 13.291696,25.230495 11.500037,31.436501 z"
             style="fill:#404040;"/>
          </a>
         </g>
        </svg>
</svg>
