<?xml version="1.0" encoding="UTF-8" standalone="no"?>
<!DOCTYPE svg PUBLIC "-//W3C//DTD SVG 1.1//EN"
 "http://www.w3.org/Graphics/SVG/1.1/DTD/svg11.dtd">
<!-- Generated by graphviz version 2.40.1 (20161225.0304)
 -->
<!-- Title: Tunes::next_number Pages: 1 -->
<!--zoomable 110 -->
<svg id="main" version="1.1" xmlns="http://www.w3.org/2000/svg" xmlns:xlink="http://www.w3.org/1999/xlink" xml:space="preserve" onload="init(evt)">
<style type="text/css"><![CDATA[
.edge:hover path { stroke: red; }
.edge:hover polygon { stroke: red; fill: red; }
]]></style>
<script type="text/javascript"><![CDATA[
var edges = document.getElementsByTagName('g');
if (edges && edges.length) {
  for (var i=0;i<edges.length;i++) {
    if (edges[i].id.substr(0,4)=='edge') {
      edges[i].setAttribute('class','edge');
    }
  }
}
]]></script>
        <defs>
                <circle id="rim" cx="0" cy="0" r="7"/>
                <circle id="rim2" cx="0" cy="0" r="3.5"/>
                <g id="zoomPlus">
                        <use xlink:href="#rim" fill="#404040">
                                <set attributeName="fill" to="#808080" begin="zoomplus.mouseover" end="zoomplus.mouseout"/>
                        </use>
                        <path d="M-4,0h8M0,-4v8" fill="none" stroke="white" stroke-width="1.5" pointer-events="none"/>
                </g>
                <g id="zoomMin">
                        <use xlink:href="#rim" fill="#404040">
                                <set attributeName="fill" to="#808080" begin="zoomminus.mouseover" end="zoomminus.mouseout"/>
                        </use>
                        <path d="M-4,0h8" fill="none" stroke="white" stroke-width="1.5" pointer-events="none"/>
                </g>
                <g id="dirArrow">
                        <path fill="none" stroke="white" stroke-width="1.5" d="M0,-3.0v7 M-2.5,-0.5L0,-3.0L2.5,-0.5"/>
                </g>
               <g id="resetDef">
                       <use xlink:href="#rim2" fill="#404040">
                               <set attributeName="fill" to="#808080" begin="reset.mouseover" end="reset.mouseout"/>
                       </use>
               </g>
        </defs>

<script type="text/javascript">
var viewWidth = 534;
var viewHeight = 110;
var sectionId = 'dynsection-12';
</script>
<script xlink:href="../../svgpan.js"/>
<svg id="graph" class="graph">
<g id="viewport">
<title>Tunes::next_number</title>
<polygon fill="#ffffff" stroke="transparent" points="-4,4 -4,-105.5 530,-105.5 530,4 -4,4"/>
<!-- Node79 -->
<g id="node1" class="node">
<title>Node79</title>
<polygon fill="#bfbfbf" stroke="#000000" points="0,-54.5 0,-73.5 106,-73.5 106,-54.5 0,-54.5"/>
<text text-anchor="middle" x="53" y="-61.5" font-family="Helvetica,sans-Serif" font-size="10.00" fill="#000000">Tunes::next_number</text>
</g>
<!-- Node80 -->
<g id="node2" class="node">
<title>Node80</title>
<g id="a_node2"><a xlink:href="../../d7/d21/class_tunes.html#a069558a233a2e62863c9d75e20914c05" target="_top" xlink:title="Tunes::get_maximum\l_update_interval">
<polygon fill="#ffffff" stroke="#000000" points="142,-71 142,-101 253,-101 253,-71 142,-71"/>
<text text-anchor="start" x="150" y="-89" font-family="Helvetica,sans-Serif" font-size="10.00" fill="#000000">Tunes::get_maximum</text>
<text text-anchor="middle" x="197.5" y="-78" font-family="Helvetica,sans-Serif" font-size="10.00" fill="#000000">_update_interval</text>
</a>
</g>
</g>
<!-- Node79&#45;&gt;Node80 -->
<g id="edge1" class="edge">
<title>Node79&#45;&gt;Node80</title>
<path fill="none" stroke="#191970" d="M116.2997,-73.6373C124.8272,-74.9356 133.5236,-76.2596 141.9038,-77.5355"/>
<polygon fill="#191970" stroke="#191970" points="116.8088,-70.1746 106.3959,-72.1295 115.7552,-77.0948 116.8088,-70.1746"/>
</g>
<!-- Node84 -->
<g id="node6" class="node">
<title>Node84</title>
<g id="a_node6"><a xlink:href="../../d7/d21/class_tunes.html#a5a7d84429f0f428bf13afc8900b8fe59" target="_top" xlink:title="Get next note in the current tune, which has been provided by either set_control or play_string...">
<polygon fill="#ffffff" stroke="#000000" points="142,-32.5 142,-51.5 253,-51.5 253,-32.5 142,-32.5"/>
<text text-anchor="middle" x="197.5" y="-39.5" font-family="Helvetica,sans-Serif" font-size="10.00" fill="#000000">Tunes::get_next_note</text>
</a>
</g>
</g>
<!-- Node79&#45;&gt;Node84 -->
<g id="edge5" class="edge">
<title>Node79&#45;&gt;Node84</title>
<path fill="none" stroke="#191970" d="M116.2997,-54.3627C124.8272,-53.0644 133.5236,-51.7404 141.9038,-50.4645"/>
<polygon fill="#191970" stroke="#191970" points="115.7552,-50.9052 106.3959,-55.8705 116.8088,-57.8254 115.7552,-50.9052"/>
</g>
<!-- Node81 -->
<g id="node3" class="node">
<title>Node81</title>
<g id="a_node3"><a xlink:href="../../d4/df0/class_tone_alarm.html#af526872d49f6a9d3164bb8e123236b01" target="_top" xlink:title="Parses the next note out of the string and plays it. ">
<polygon fill="#ffffff" stroke="#000000" points="289,-38.5 289,-57.5 402,-57.5 402,-38.5 289,-38.5"/>
<text text-anchor="middle" x="345.5" y="-45.5" font-family="Helvetica,sans-Serif" font-size="10.00" fill="#000000">ToneAlarm::next_note</text>
</a>
</g>
</g>
<!-- Node80&#45;&gt;Node81 -->
<g id="edge2" class="edge">
<title>Node80&#45;&gt;Node81</title>
<path fill="none" stroke="#191970" d="M263.0636,-69.1661C278.4829,-65.2071 294.3972,-61.121 308.0816,-57.6074"/>
<polygon fill="#191970" stroke="#191970" points="261.8462,-65.8651 253.0308,-71.7421 263.5871,-72.6452 261.8462,-65.8651"/>
</g>
<!-- Node83 -->
<g id="node5" class="node">
<title>Node83</title>
<g id="a_node5"><a xlink:href="../../dd/d39/tune__control_8cpp.html#a0e2a8f2fc82e1ecae2c0f3065310912d" target="_top" xlink:title="tune_control_main">
<polygon fill="#ffffff" stroke="#000000" points="297.5,-76.5 297.5,-95.5 393.5,-95.5 393.5,-76.5 297.5,-76.5"/>
<text text-anchor="middle" x="345.5" y="-83.5" font-family="Helvetica,sans-Serif" font-size="10.00" fill="#000000">tune_control_main</text>
</a>
</g>
</g>
<!-- Node80&#45;&gt;Node83 -->
<g id="edge4" class="edge">
<title>Node80&#45;&gt;Node83</title>
<path fill="none" stroke="#191970" d="M263.0833,-86C274.6362,-86 286.4665,-86 297.4279,-86"/>
<polygon fill="#191970" stroke="#191970" points="263.0308,-82.5001 253.0308,-86 263.0308,-89.5001 263.0308,-82.5001"/>
</g>
<!-- Node82 -->
<g id="node4" class="node">
<title>Node82</title>
<g id="a_node4"><a xlink:href="../../d4/df0/class_tone_alarm.html#aded6bd705fe403ed9724bf7fcfc2f587" target="_top" xlink:title="Trampoline for the work queue. ">
<polygon fill="#ffffff" stroke="#000000" points="438,-38.5 438,-57.5 526,-57.5 526,-38.5 438,-38.5"/>
<text text-anchor="middle" x="482" y="-45.5" font-family="Helvetica,sans-Serif" font-size="10.00" fill="#000000">ToneAlarm::Run</text>
</a>
</g>
</g>
<!-- Node81&#45;&gt;Node82 -->
<g id="edge3" class="edge">
<title>Node81&#45;&gt;Node82</title>
<path fill="none" stroke="#191970" d="M412.2952,-48C420.9332,-48 429.6023,-48 437.7487,-48"/>
<polygon fill="#191970" stroke="#191970" points="412.2025,-44.5001 402.2024,-48 412.2024,-51.5001 412.2025,-44.5001"/>
</g>
<!-- Node84&#45;&gt;Node81 -->
<g id="edge7" class="edge">
<title>Node84&#45;&gt;Node81</title>
<path fill="none" stroke="#191970" d="M263.2642,-44.6661C271.738,-45.0096 280.3576,-45.3591 288.6712,-45.6961"/>
<polygon fill="#191970" stroke="#191970" points="263.1644,-41.1593 253.0308,-44.2512 262.8808,-48.1535 263.1644,-41.1593"/>
</g>
<!-- Node84&#45;&gt;Node83 -->
<g id="edge8" class="edge">
<title>Node84&#45;&gt;Node83</title>
<path fill="none" stroke="#191970" d="M239.3259,-54.4347C262.842,-61.426 291.7412,-70.0177 313.4489,-76.4713"/>
<polygon fill="#191970" stroke="#191970" points="240.1966,-51.0422 229.6138,-51.5473 238.2017,-57.752 240.1966,-51.0422"/>
</g>
<!-- Node85 -->
<g id="node7" class="node">
<title>Node85</title>
<g id="a_node7"><a xlink:href="../../d7/d21/class_tunes.html#a238acef7dafd57805094d9aa58867791" target="_top" xlink:title="Get next note in the current tune, which has been provided by either set_control or play_string...">
<polygon fill="#ffffff" stroke="#000000" points="290,-.5 290,-19.5 401,-19.5 401,-.5 290,-.5"/>
<text text-anchor="middle" x="345.5" y="-7.5" font-family="Helvetica,sans-Serif" font-size="10.00" fill="#000000">Tunes::get_next_note</text>
</a>
</g>
</g>
<!-- Node84&#45;&gt;Node85 -->
<g id="edge6" class="edge">
<title>Node84&#45;&gt;Node85</title>
<path fill="none" stroke="#191970" d="M251.5048,-30.3233C267.912,-26.7758 285.737,-22.9217 301.4098,-19.533"/>
<polygon fill="#191970" stroke="#191970" points="250.5386,-26.9512 241.5042,-32.4856 252.018,-33.7931 250.5386,-26.9512"/>
</g>
</g>
</svg>
        <g id="navigator" transform="translate(0 0)" fill="#404254">
                <rect fill="#f2f5e9" fill-opacity="0.5" stroke="#606060" stroke-width=".5" x="0" y="0" width="60" height="60"/>
                <use id="zoomplus" xlink:href="#zoomPlus" x="17" y="9" onmousedown="handleZoom(evt,'in')"/>
                <use id="zoomminus" xlink:href="#zoomMin" x="42" y="9" onmousedown="handleZoom(evt,'out')"/>
                <use id="reset" xlink:href="#resetDef" x="30" y="36" onmousedown="handleReset()"/>
                <g id="arrowUp" xlink:href="#dirArrow" transform="translate(30 24)" onmousedown="handlePan(0,-1)">
                  <use xlink:href="#rim" fill="#404040">
                        <set attributeName="fill" to="#808080" begin="arrowUp.mouseover" end="arrowUp.mouseout"/>
                  </use>
                  <path fill="none" stroke="white" stroke-width="1.5" d="M0,-3.0v7 M-2.5,-0.5L0,-3.0L2.5,-0.5"/>
                </g>
                <g id="arrowRight" xlink:href="#dirArrow" transform="rotate(90) translate(36 -43)" onmousedown="handlePan(1,0)">
                  <use xlink:href="#rim" fill="#404040">
                        <set attributeName="fill" to="#808080" begin="arrowRight.mouseover" end="arrowRight.mouseout"/>
                  </use>
                  <path fill="none" stroke="white" stroke-width="1.5" d="M0,-3.0v7 M-2.5,-0.5L0,-3.0L2.5,-0.5"/>
                </g>
                <g id="arrowDown" xlink:href="#dirArrow" transform="rotate(180) translate(-30 -48)" onmousedown="handlePan(0,1)">
                  <use xlink:href="#rim" fill="#404040">
                        <set attributeName="fill" to="#808080" begin="arrowDown.mouseover" end="arrowDown.mouseout"/>
                  </use>
                  <path fill="none" stroke="white" stroke-width="1.5" d="M0,-3.0v7 M-2.5,-0.5L0,-3.0L2.5,-0.5"/>
                </g>
                <g id="arrowLeft" xlink:href="#dirArrow" transform="rotate(270) translate(-36 17)" onmousedown="handlePan(-1,0)">
                  <use xlink:href="#rim" fill="#404040">
                        <set attributeName="fill" to="#808080" begin="arrowLeft.mouseover" end="arrowLeft.mouseout"/>
                  </use>
                  <path fill="none" stroke="white" stroke-width="1.5" d="M0,-3.0v7 M-2.5,-0.5L0,-3.0L2.5,-0.5"/>
                </g>
        </g>
        <svg viewBox="0 0 15 15" width="100%" height="30px" preserveAspectRatio="xMaxYMin meet">
         <g id="arrow_out" transform="scale(0.3 0.3)">
          <a xlink:href="class_tunes_accb32723d53f2e514e54791ecf6c5ec2_icgraph_org.svg" target="_base">
           <rect id="button" ry="5" rx="5" y="6" x="6" height="38" width="38"
                fill="#f2f5e9" fill-opacity="0.5" stroke="#606060" stroke-width="1.0"/>
           <path id="arrow"
             d="M 11.500037,31.436501 C 11.940474,20.09759 22.043105,11.32322 32.158766,21.979434 L 37.068811,17.246167 C 37.068811,17.246167 37.088388,32 37.088388,32 L 22.160133,31.978069 C 22.160133,31.978069 26.997745,27.140456 26.997745,27.140456 C 18.528582,18.264221 13.291696,25.230495 11.500037,31.436501 z"
             style="fill:#404040;"/>
          </a>
         </g>
        </svg>
</svg>
