<?xml version="1.0" encoding="UTF-8" standalone="no"?>
<!DOCTYPE svg PUBLIC "-//W3C//DTD SVG 1.1//EN"
 "http://www.w3.org/Graphics/SVG/1.1/DTD/svg11.dtd">
<!-- Generated by graphviz version 2.38.0 (20140413.2041)
 -->
<!-- Title: Tunes::get_next_tune Pages: 1 -->
<!--zoomable 240 -->
<svg id="main" version="1.1" xmlns="http://www.w3.org/2000/svg" xmlns:xlink="http://www.w3.org/1999/xlink" xml:space="preserve" onload="init(evt)">
<style type="text/css"><![CDATA[
.edge:hover path { stroke: red; }
.edge:hover polygon { stroke: red; fill: red; }
]]></style>
<script type="text/javascript"><![CDATA[
var edges = document.getElementsByTagName('g');
if (edges && edges.length) {
  for (var i=0;i<edges.length;i++) {
    if (edges[i].id.substr(0,4)=='edge') {
      edges[i].setAttribute('class','edge');
    }
  }
}
]]></script>
        <defs>
                <circle id="rim" cx="0" cy="0" r="7"/>
                <circle id="rim2" cx="0" cy="0" r="3.5"/>
                <g id="zoomPlus">
                        <use xlink:href="#rim" fill="#404040">
                                <set attributeName="fill" to="#808080" begin="zoomplus.mouseover" end="zoomplus.mouseout"/>
                        </use>
                        <path d="M-4,0h8M0,-4v8" fill="none" stroke="white" stroke-width="1.5" pointer-events="none"/>
                </g>
                <g id="zoomMin">
                        <use xlink:href="#rim" fill="#404040">
                                <set attributeName="fill" to="#808080" begin="zoomminus.mouseover" end="zoomminus.mouseout"/>
                        </use>
                        <path d="M-4,0h8" fill="none" stroke="white" stroke-width="1.5" pointer-events="none"/>
                </g>
                <g id="dirArrow">
                        <path fill="none" stroke="white" stroke-width="1.5" d="M0,-3.0v7 M-2.5,-0.5L0,-3.0L2.5,-0.5"/>
                </g>
               <g id="resetDef">
                       <use xlink:href="#rim2" fill="#404040">
                               <set attributeName="fill" to="#808080" begin="reset.mouseover" end="reset.mouseout"/>
                       </use>
               </g>
        </defs>

<script type="text/javascript">
var viewWidth = 560;
var viewHeight = 240;
var sectionId = 'dynsection-6';
</script>
<script xlink:href="../../svgpan.js"/>
<svg id="graph" class="graph">
<g id="viewport">
<title>Tunes::get_next_tune</title>
<polygon fill="white" stroke="none" points="-4,4 -4,-236.191 556,-236.191 556,4 -4,4"/>
<!-- Node1 -->
<g id="node1" class="node"><title>Node1</title>
<polygon fill="#bfbfbf" stroke="black" points="0,-114.5 0,-133.5 111,-133.5 111,-114.5 0,-114.5"/>
<text text-anchor="middle" x="55.5" y="-121.5" font-family="Helvetica,sans-Serif" font-size="10.00">Tunes::get_next_tune</text>
</g>
<!-- Node2 -->
<g id="node2" class="node"><title>Node2</title>
<g id="a_node2"><a xlink:href="../../d7/d21/class_tunes.html#a924140ddf4b710f12fc8e750d3b9976e" target="_top" xlink:title="Get next note in the current tune, which has been provided by either set_control or play_string...">
<polygon fill="white" stroke="black" points="147,-114.5 147,-133.5 258,-133.5 258,-114.5 147,-114.5"/>
<text text-anchor="middle" x="202.5" y="-121.5" font-family="Helvetica,sans-Serif" font-size="10.00">Tunes::get_next_tune</text>
</a>
</g>
</g>
<!-- Node1&#45;&gt;Node2 -->
<g id="edge1" class="edge"><title>Node1&#45;&gt;Node2</title>
<path fill="none" stroke="midnightblue" d="M111.318,-124C119.529,-124 128.061,-124 136.459,-124"/>
<polygon fill="midnightblue" stroke="midnightblue" points="136.604,-127.5 146.604,-124 136.604,-120.5 136.604,-127.5"/>
</g>
<!-- Node3 -->
<g id="node3" class="node"><title>Node3</title>
<g id="a_node3"><a xlink:href="../../d7/d21/class_tunes.html#a2ddfde08e9db5c2fe195189c037bd8cc" target="_top" xlink:title="Find the next character in the string, discard any whitespace. ">
<polygon fill="white" stroke="black" points="460,-190.5 460,-209.5 552,-209.5 552,-190.5 460,-190.5"/>
<text text-anchor="middle" x="506" y="-197.5" font-family="Helvetica,sans-Serif" font-size="10.00">Tunes::next_char</text>
</a>
</g>
</g>
<!-- Node2&#45;&gt;Node3 -->
<g id="edge2" class="edge"><title>Node2&#45;&gt;Node3</title>
<path fill="none" stroke="midnightblue" d="M208.947,-133.684C221.077,-154.121 252.543,-201.236 294,-219 352.215,-243.945 427.58,-226.735 470.684,-212.795"/>
<polygon fill="midnightblue" stroke="midnightblue" points="472.04,-216.032 480.404,-209.529 469.81,-209.397 472.04,-216.032"/>
</g>
<!-- Node4 -->
<g id="node4" class="node"><title>Node4</title>
<g id="a_node4"><a xlink:href="../../d7/d21/class_tunes.html#a771dea6fb6a5a46feca413edaff75929" target="_top" xlink:title="Consume dot characters from the string. ">
<polygon fill="white" stroke="black" points="313,-190.5 313,-209.5 405,-209.5 405,-190.5 313,-190.5"/>
<text text-anchor="middle" x="359" y="-197.5" font-family="Helvetica,sans-Serif" font-size="10.00">Tunes::next_dots</text>
</a>
</g>
</g>
<!-- Node2&#45;&gt;Node4 -->
<g id="edge3" class="edge"><title>Node2&#45;&gt;Node4</title>
<path fill="none" stroke="midnightblue" d="M216.349,-133.695C233.337,-146.127 264.569,-167.669 294,-181 299.015,-183.272 304.372,-185.354 309.772,-187.24"/>
<polygon fill="midnightblue" stroke="midnightblue" points="308.881,-190.631 319.473,-190.42 311.061,-183.979 308.881,-190.631"/>
</g>
<!-- Node5 -->
<g id="node5" class="node"><title>Node5</title>
<g id="a_node5"><a xlink:href="../../d7/d21/class_tunes.html#accb32723d53f2e514e54791ecf6c5ec2" target="_top" xlink:title="Extract a number from the string, consuming all the digit characters. ">
<polygon fill="white" stroke="black" points="306,-152.5 306,-171.5 412,-171.5 412,-152.5 306,-152.5"/>
<text text-anchor="middle" x="359" y="-159.5" font-family="Helvetica,sans-Serif" font-size="10.00">Tunes::next_number</text>
</a>
</g>
</g>
<!-- Node2&#45;&gt;Node5 -->
<g id="edge5" class="edge"><title>Node2&#45;&gt;Node5</title>
<path fill="none" stroke="midnightblue" d="M242.487,-133.589C262.783,-138.581 287.793,-144.732 309.346,-150.033"/>
<polygon fill="midnightblue" stroke="midnightblue" points="308.747,-153.49 319.293,-152.48 310.419,-146.693 308.747,-153.49"/>
</g>
<!-- Node6 -->
<g id="node6" class="node"><title>Node6</title>
<g id="a_node6"><a xlink:href="../../d7/d21/class_tunes.html#a0083083b3f2dd2a0e8cc2717974d40d9" target="_top" xlink:title="Calculate the duration in microseconds of play and silence for a note given the current tempo...">
<polygon fill="white" stroke="black" points="305,-114.5 305,-133.5 413,-133.5 413,-114.5 305,-114.5"/>
<text text-anchor="middle" x="359" y="-121.5" font-family="Helvetica,sans-Serif" font-size="10.00">Tunes::note_duration</text>
</a>
</g>
</g>
<!-- Node2&#45;&gt;Node6 -->
<g id="edge7" class="edge"><title>Node2&#45;&gt;Node6</title>
<path fill="none" stroke="midnightblue" d="M258.406,-124C270.196,-124 282.747,-124 294.822,-124"/>
<polygon fill="midnightblue" stroke="midnightblue" points="294.827,-127.5 304.826,-124 294.826,-120.5 294.827,-127.5"/>
</g>
<!-- Node7 -->
<g id="node7" class="node"><title>Node7</title>
<g id="a_node7"><a xlink:href="../../d7/d21/class_tunes.html#a24c1b0f4143ae48ccaf4e20e72550a16" target="_top" xlink:title="Convert note to frequency. ">
<polygon fill="white" stroke="black" points="294,-76.5 294,-95.5 424,-95.5 424,-76.5 294,-76.5"/>
<text text-anchor="middle" x="359" y="-83.5" font-family="Helvetica,sans-Serif" font-size="10.00">Tunes::note_to_frequency</text>
</a>
</g>
</g>
<!-- Node2&#45;&gt;Node7 -->
<g id="edge8" class="edge"><title>Node2&#45;&gt;Node7</title>
<path fill="none" stroke="midnightblue" d="M242.487,-114.411C262.783,-109.419 287.793,-103.268 309.346,-97.9666"/>
<polygon fill="midnightblue" stroke="midnightblue" points="310.419,-101.307 319.293,-95.5201 308.747,-94.5098 310.419,-101.307"/>
</g>
<!-- Node9 -->
<g id="node9" class="node"><title>Node9</title>
<g id="a_node9"><a xlink:href="../../d7/d21/class_tunes.html#abf3aec9d877ce0345595638dc42a7233" target="_top" xlink:title="Reset the tune parameters. ">
<polygon fill="white" stroke="black" points="323.5,-38.5 323.5,-57.5 394.5,-57.5 394.5,-38.5 323.5,-38.5"/>
<text text-anchor="middle" x="359" y="-45.5" font-family="Helvetica,sans-Serif" font-size="10.00">Tunes::reset</text>
</a>
</g>
</g>
<!-- Node2&#45;&gt;Node9 -->
<g id="edge10" class="edge"><title>Node2&#45;&gt;Node9</title>
<path fill="none" stroke="midnightblue" d="M216.349,-114.305C233.337,-101.873 264.569,-80.3314 294,-67 300.242,-64.1724 307.015,-61.6374 313.74,-59.4107"/>
<polygon fill="midnightblue" stroke="midnightblue" points="314.987,-62.6883 323.492,-56.3708 312.903,-56.0055 314.987,-62.6883"/>
</g>
<!-- Node10 -->
<g id="node10" class="node"><title>Node10</title>
<g id="a_node10"><a xlink:href="../../d7/d21/class_tunes.html#ae2a7abcafcf15f6b35ff05aaaa7a0ae2" target="_top" xlink:title="Calculate the duration in microseconds of a rest corresponding to a given note length. ">
<polygon fill="white" stroke="black" points="306,-0.5 306,-19.5 412,-19.5 412,-0.5 306,-0.5"/>
<text text-anchor="middle" x="359" y="-7.5" font-family="Helvetica,sans-Serif" font-size="10.00">Tunes::rest_duration</text>
</a>
</g>
</g>
<!-- Node2&#45;&gt;Node10 -->
<g id="edge11" class="edge"><title>Node2&#45;&gt;Node10</title>
<path fill="none" stroke="midnightblue" d="M210.013,-114.338C223.434,-95.169 256.111,-52.1839 294,-29 297.406,-26.9158 301.055,-25.0484 304.819,-23.3773"/>
<polygon fill="midnightblue" stroke="midnightblue" points="306.326,-26.5452 314.341,-19.6158 303.754,-20.0348 306.326,-26.5452"/>
</g>
<!-- Node4&#45;&gt;Node3 -->
<g id="edge4" class="edge"><title>Node4&#45;&gt;Node3</title>
<path fill="none" stroke="midnightblue" d="M405.084,-200C419.269,-200 435.096,-200 449.895,-200"/>
<polygon fill="midnightblue" stroke="midnightblue" points="449.944,-203.5 459.944,-200 449.944,-196.5 449.944,-203.5"/>
</g>
<!-- Node5&#45;&gt;Node3 -->
<g id="edge6" class="edge"><title>Node5&#45;&gt;Node3</title>
<path fill="none" stroke="midnightblue" d="M396.59,-171.589C415.465,-176.536 438.686,-182.621 458.788,-187.889"/>
<polygon fill="midnightblue" stroke="midnightblue" points="458.113,-191.33 468.673,-190.48 459.887,-184.559 458.113,-191.33"/>
</g>
<!-- Node8 -->
<g id="node8" class="node"><title>Node8</title>
<g id="a_node8"><a xlink:href="../../d8/da1/integration_8cpp.html#af5ba872dd09316732300733cc164ac1a" target="_top" xlink:title="f">
<polygon fill="white" stroke="black" points="491.5,-76.5 491.5,-95.5 520.5,-95.5 520.5,-76.5 491.5,-76.5"/>
<text text-anchor="middle" x="506" y="-83.5" font-family="Helvetica,sans-Serif" font-size="10.00">f</text>
</a>
</g>
</g>
<!-- Node7&#45;&gt;Node8 -->
<g id="edge9" class="edge"><title>Node7&#45;&gt;Node8</title>
<path fill="none" stroke="midnightblue" d="M424.021,-86C444.289,-86 465.454,-86 481.061,-86"/>
<polygon fill="midnightblue" stroke="midnightblue" points="481.351,-89.5001 491.351,-86 481.351,-82.5001 481.351,-89.5001"/>
</g>
</g>
</svg>
        <g id="navigator" transform="translate(0 0)" fill="#404254">
                <rect fill="#f2f5e9" fill-opacity="0.5" stroke="#606060" stroke-width=".5" x="0" y="0" width="60" height="60"/>
                <use id="zoomplus" xlink:href="#zoomPlus" x="17" y="9" onmousedown="handleZoom(evt,'in')"/>
                <use id="zoomminus" xlink:href="#zoomMin" x="42" y="9" onmousedown="handleZoom(evt,'out')"/>
                <use id="reset" xlink:href="#resetDef" x="30" y="36" onmousedown="handleReset()"/>
                <g id="arrowUp" xlink:href="#dirArrow" transform="translate(30 24)" onmousedown="handlePan(0,-1)">
                  <use xlink:href="#rim" fill="#404040">
                        <set attributeName="fill" to="#808080" begin="arrowUp.mouseover" end="arrowUp.mouseout"/>
                  </use>
                  <path fill="none" stroke="white" stroke-width="1.5" d="M0,-3.0v7 M-2.5,-0.5L0,-3.0L2.5,-0.5"/>
                </g>
                <g id="arrowRight" xlink:href="#dirArrow" transform="rotate(90) translate(36 -43)" onmousedown="handlePan(1,0)">
                  <use xlink:href="#rim" fill="#404040">
                        <set attributeName="fill" to="#808080" begin="arrowRight.mouseover" end="arrowRight.mouseout"/>
                  </use>
                  <path fill="none" stroke="white" stroke-width="1.5" d="M0,-3.0v7 M-2.5,-0.5L0,-3.0L2.5,-0.5"/>
                </g>
                <g id="arrowDown" xlink:href="#dirArrow" transform="rotate(180) translate(-30 -48)" onmousedown="handlePan(0,1)">
                  <use xlink:href="#rim" fill="#404040">
                        <set attributeName="fill" to="#808080" begin="arrowDown.mouseover" end="arrowDown.mouseout"/>
                  </use>
                  <path fill="none" stroke="white" stroke-width="1.5" d="M0,-3.0v7 M-2.5,-0.5L0,-3.0L2.5,-0.5"/>
                </g>
                <g id="arrowLeft" xlink:href="#dirArrow" transform="rotate(270) translate(-36 17)" onmousedown="handlePan(-1,0)">
                  <use xlink:href="#rim" fill="#404040">
                        <set attributeName="fill" to="#808080" begin="arrowLeft.mouseover" end="arrowLeft.mouseout"/>
                  </use>
                  <path fill="none" stroke="white" stroke-width="1.5" d="M0,-3.0v7 M-2.5,-0.5L0,-3.0L2.5,-0.5"/>
                </g>
        </g>
        <svg viewBox="0 0 15 15" width="100%" height="30px" preserveAspectRatio="xMaxYMin meet">
         <g id="arrow_out" transform="scale(0.3 0.3)">
          <a xlink:href="class_tunes_a04580b750306f8b3cccbc946623b7c6d_cgraph_org.svg" target="_base">
           <rect id="button" ry="5" rx="5" y="6" x="6" height="38" width="38"
                fill="#f2f5e9" fill-opacity="0.5" stroke="#606060" stroke-width="1.0"/>
           <path id="arrow"
             d="M 11.500037,31.436501 C 11.940474,20.09759 22.043105,11.32322 32.158766,21.979434 L 37.068811,17.246167 C 37.068811,17.246167 37.088388,32 37.088388,32 L 22.160133,31.978069 C 22.160133,31.978069 26.997745,27.140456 26.997745,27.140456 C 18.528582,18.264221 13.291696,25.230495 11.500037,31.436501 z"
             style="fill:#404040;"/>
          </a>
         </g>
        </svg>
</svg>
