<?xml version="1.0" encoding="UTF-8" standalone="no"?>
<!DOCTYPE svg PUBLIC "-//W3C//DTD SVG 1.1//EN"
 "http://www.w3.org/Graphics/SVG/1.1/DTD/svg11.dtd">
<!-- Generated by graphviz version 2.40.1 (20161225.0304)
 -->
<!-- Title: tap_esc_common::initialise_uart Pages: 1 -->
<svg width="431pt" height="28pt"
 viewBox="0.00 0.00 431.00 28.00" xmlns="http://www.w3.org/2000/svg" xmlns:xlink="http://www.w3.org/1999/xlink">
<g id="graph0" class="graph" transform="scale(1 1) rotate(0) translate(4 24)">
<title>tap_esc_common::initialise_uart</title>
<polygon fill="#ffffff" stroke="transparent" points="-4,4 -4,-24 427,-24 427,4 -4,4"/>
<!-- Node50 -->
<g id="node1" class="node">
<title>Node50</title>
<polygon fill="#bfbfbf" stroke="#000000" points="0,-.5 0,-19.5 157,-19.5 157,-.5 0,-.5"/>
<text text-anchor="middle" x="78.5" y="-7.5" font-family="Helvetica,sans-Serif" font-size="10.00" fill="#000000">tap_esc_common::initialise_uart</text>
</g>
<!-- Node51 -->
<g id="node2" class="node">
<title>Node51</title>
<g id="a_node2"><a xlink:href="../../d2/da9/class_t_a_p___e_s_c.html#afb50b959b4ca3467d5e4fa7676e9459e" target="_top" xlink:title="TAP_ESC::init">
<polygon fill="#ffffff" stroke="#000000" points="193,-.5 193,-19.5 274,-19.5 274,-.5 193,-.5"/>
<text text-anchor="middle" x="233.5" y="-7.5" font-family="Helvetica,sans-Serif" font-size="10.00" fill="#000000">TAP_ESC::init</text>
</a>
</g>
</g>
<!-- Node50&#45;&gt;Node51 -->
<g id="edge1" class="edge">
<title>Node50&#45;&gt;Node51</title>
<path fill="none" stroke="#191970" d="M167.388,-10C176.2144,-10 184.8394,-10 192.7914,-10"/>
<polygon fill="#191970" stroke="#191970" points="167.3623,-6.5001 157.3622,-10 167.3622,-13.5001 167.3623,-6.5001"/>
</g>
<!-- Node52 -->
<g id="node3" class="node">
<title>Node52</title>
<g id="a_node3"><a xlink:href="../../d2/da9/class_t_a_p___e_s_c.html#abb422ddc36bd219390bff22d9ca497eb" target="_top" xlink:title="TAP_ESC::instantiate">
<polygon fill="#ffffff" stroke="#000000" points="310,-.5 310,-19.5 423,-19.5 423,-.5 310,-.5"/>
<text text-anchor="middle" x="366.5" y="-7.5" font-family="Helvetica,sans-Serif" font-size="10.00" fill="#000000">TAP_ESC::instantiate</text>
</a>
</g>
</g>
<!-- Node51&#45;&gt;Node52 -->
<g id="edge2" class="edge">
<title>Node51&#45;&gt;Node52</title>
<path fill="none" stroke="#191970" d="M284.1885,-10C292.6156,-10 301.4022,-10 309.9634,-10"/>
<polygon fill="#191970" stroke="#191970" points="284.1271,-6.5001 274.1271,-10 284.127,-13.5001 284.1271,-6.5001"/>
</g>
</g>
</svg>
