<?xml version="1.0" encoding="UTF-8" standalone="no"?>
<!DOCTYPE svg PUBLIC "-//W3C//DTD SVG 1.1//EN"
 "http://www.w3.org/Graphics/SVG/1.1/DTD/svg11.dtd">
<!-- Generated by graphviz version 2.40.1 (20161225.0304)
 -->
<!-- Title: tap_esc_common::send_packet Pages: 1 -->
<!--zoomable 104 -->
<svg id="main" version="1.1" xmlns="http://www.w3.org/2000/svg" xmlns:xlink="http://www.w3.org/1999/xlink" xml:space="preserve" onload="init(evt)">
<style type="text/css"><![CDATA[
.edge:hover path { stroke: red; }
.edge:hover polygon { stroke: red; fill: red; }
]]></style>
<script type="text/javascript"><![CDATA[
var edges = document.getElementsByTagName('g');
if (edges && edges.length) {
  for (var i=0;i<edges.length;i++) {
    if (edges[i].id.substr(0,4)=='edge') {
      edges[i].setAttribute('class','edge');
    }
  }
}
]]></script>
        <defs>
                <circle id="rim" cx="0" cy="0" r="7"/>
                <circle id="rim2" cx="0" cy="0" r="3.5"/>
                <g id="zoomPlus">
                        <use xlink:href="#rim" fill="#404040">
                                <set attributeName="fill" to="#808080" begin="zoomplus.mouseover" end="zoomplus.mouseout"/>
                        </use>
                        <path d="M-4,0h8M0,-4v8" fill="none" stroke="white" stroke-width="1.5" pointer-events="none"/>
                </g>
                <g id="zoomMin">
                        <use xlink:href="#rim" fill="#404040">
                                <set attributeName="fill" to="#808080" begin="zoomminus.mouseover" end="zoomminus.mouseout"/>
                        </use>
                        <path d="M-4,0h8" fill="none" stroke="white" stroke-width="1.5" pointer-events="none"/>
                </g>
                <g id="dirArrow">
                        <path fill="none" stroke="white" stroke-width="1.5" d="M0,-3.0v7 M-2.5,-0.5L0,-3.0L2.5,-0.5"/>
                </g>
               <g id="resetDef">
                       <use xlink:href="#rim2" fill="#404040">
                               <set attributeName="fill" to="#808080" begin="reset.mouseover" end="reset.mouseout"/>
                       </use>
               </g>
        </defs>

<script type="text/javascript">
var viewWidth = 590;
var viewHeight = 104;
var sectionId = 'dynsection-13';
</script>
<script xlink:href="../../svgpan.js"/>
<svg id="graph" class="graph">
<g id="viewport">
<title>tap_esc_common::send_packet</title>
<polygon fill="#ffffff" stroke="transparent" points="-4,4 -4,-100 586,-100 586,4 -4,4"/>
<!-- Node78 -->
<g id="node1" class="node">
<title>Node78</title>
<polygon fill="#bfbfbf" stroke="#000000" points="0,-33 0,-63 121,-63 121,-33 0,-33"/>
<text text-anchor="start" x="8" y="-51" font-family="Helvetica,sans-Serif" font-size="10.00" fill="#000000">tap_esc_common::send</text>
<text text-anchor="middle" x="60.5" y="-40" font-family="Helvetica,sans-Serif" font-size="10.00" fill="#000000">_packet</text>
</g>
<!-- Node79 -->
<g id="node2" class="node">
<title>Node79</title>
<g id="a_node2"><a xlink:href="../../df/d1f/class_mavlink.html#a695f9d69a4d0f138f10c673a64b15206" target="_top" xlink:title="This is the beginning of a MAVLINK_START_UART_SEND/MAVLINK_END_UART_SEND transaction. ">
<polygon fill="#ffffff" stroke="#000000" points="178,-76.5 178,-95.5 284,-95.5 284,-76.5 178,-76.5"/>
<text text-anchor="middle" x="231" y="-83.5" font-family="Helvetica,sans-Serif" font-size="10.00" fill="#000000">Mavlink::begin_send</text>
</a>
</g>
</g>
<!-- Node78&#45;&gt;Node79 -->
<g id="edge1" class="edge">
<title>Node78&#45;&gt;Node79</title>
<path fill="none" stroke="#191970" d="M130.853,-63.6799C150.3326,-68.0213 170.8831,-72.6015 188.2644,-76.4754"/>
<polygon fill="#191970" stroke="#191970" points="131.6139,-60.2636 121.092,-61.5044 130.0911,-67.096 131.6139,-60.2636"/>
</g>
<!-- Node81 -->
<g id="node4" class="node">
<title>Node81</title>
<g id="a_node4"><a xlink:href="../../d2/da9/class_t_a_p___e_s_c.html#afb50b959b4ca3467d5e4fa7676e9459e" target="_top" xlink:title="TAP_ESC::init">
<polygon fill="#ffffff" stroke="#000000" points="190.5,-38.5 190.5,-57.5 271.5,-57.5 271.5,-38.5 190.5,-38.5"/>
<text text-anchor="middle" x="231" y="-45.5" font-family="Helvetica,sans-Serif" font-size="10.00" fill="#000000">TAP_ESC::init</text>
</a>
</g>
</g>
<!-- Node78&#45;&gt;Node81 -->
<g id="edge3" class="edge">
<title>Node78&#45;&gt;Node81</title>
<path fill="none" stroke="#191970" d="M131.1936,-48C151.3576,-48 172.6413,-48 190.3506,-48"/>
<polygon fill="#191970" stroke="#191970" points="131.092,-44.5001 121.092,-48 131.092,-51.5001 131.092,-44.5001"/>
</g>
<!-- Node83 -->
<g id="node6" class="node">
<title>Node83</title>
<g id="a_node6"><a xlink:href="../../d2/da9/class_t_a_p___e_s_c.html#a219f85f8e2707f3f41481d423c2fd875" target="_top" xlink:title="TAP_ESC::send_esc_outputs">
<polygon fill="#ffffff" stroke="#000000" points="157,-.5 157,-19.5 305,-19.5 305,-.5 157,-.5"/>
<text text-anchor="middle" x="231" y="-7.5" font-family="Helvetica,sans-Serif" font-size="10.00" fill="#000000">TAP_ESC::send_esc_outputs</text>
</a>
</g>
</g>
<!-- Node78&#45;&gt;Node83 -->
<g id="edge5" class="edge">
<title>Node78&#45;&gt;Node83</title>
<path fill="none" stroke="#191970" d="M130.853,-32.3201C150.3326,-27.9787 170.8831,-23.3985 188.2644,-19.5246"/>
<polygon fill="#191970" stroke="#191970" points="130.0911,-28.904 121.092,-34.4956 131.6139,-35.7364 130.0911,-28.904"/>
</g>
<!-- Node80 -->
<g id="node3" class="node">
<title>Node80</title>
<g id="a_node3"><a xlink:href="../../de/d24/mavlink__main_8cpp.html#ac22a13b4a16eef5bcb99905368b62d59" target="_top" xlink:title="mavlink_start_uart_send">
<polygon fill="#ffffff" stroke="#000000" points="341,-76.5 341,-95.5 464,-95.5 464,-76.5 341,-76.5"/>
<text text-anchor="middle" x="402.5" y="-83.5" font-family="Helvetica,sans-Serif" font-size="10.00" fill="#000000">mavlink_start_uart_send</text>
</a>
</g>
</g>
<!-- Node79&#45;&gt;Node80 -->
<g id="edge2" class="edge">
<title>Node79&#45;&gt;Node80</title>
<path fill="none" stroke="#191970" d="M294.5978,-86C309.7019,-86 325.7905,-86 340.8079,-86"/>
<polygon fill="#191970" stroke="#191970" points="294.3236,-82.5001 284.3236,-86 294.3235,-89.5001 294.3236,-82.5001"/>
</g>
<!-- Node82 -->
<g id="node5" class="node">
<title>Node82</title>
<g id="a_node5"><a xlink:href="../../d2/da9/class_t_a_p___e_s_c.html#abb422ddc36bd219390bff22d9ca497eb" target="_top" xlink:title="TAP_ESC::instantiate">
<polygon fill="#ffffff" stroke="#000000" points="346,-38.5 346,-57.5 459,-57.5 459,-38.5 346,-38.5"/>
<text text-anchor="middle" x="402.5" y="-45.5" font-family="Helvetica,sans-Serif" font-size="10.00" fill="#000000">TAP_ESC::instantiate</text>
</a>
</g>
</g>
<!-- Node81&#45;&gt;Node82 -->
<g id="edge4" class="edge">
<title>Node81&#45;&gt;Node82</title>
<path fill="none" stroke="#191970" d="M281.8659,-48C302.012,-48 325.2548,-48 345.9286,-48"/>
<polygon fill="#191970" stroke="#191970" points="281.6431,-44.5001 271.6431,-48 281.6431,-51.5001 281.6431,-44.5001"/>
</g>
<!-- Node84 -->
<g id="node7" class="node">
<title>Node84</title>
<g id="a_node7"><a xlink:href="../../d2/da9/class_t_a_p___e_s_c.html#a4edd57e3842a3ed37fd6af6f9a0113a4" target="_top" xlink:title="TAP_ESC::cycle">
<polygon fill="#ffffff" stroke="#000000" points="356.5,-.5 356.5,-19.5 448.5,-19.5 448.5,-.5 356.5,-.5"/>
<text text-anchor="middle" x="402.5" y="-7.5" font-family="Helvetica,sans-Serif" font-size="10.00" fill="#000000">TAP_ESC::cycle</text>
</a>
</g>
</g>
<!-- Node83&#45;&gt;Node84 -->
<g id="edge6" class="edge">
<title>Node83&#45;&gt;Node84</title>
<path fill="none" stroke="#191970" d="M315.4611,-10C329.5599,-10 343.7052,-10 356.372,-10"/>
<polygon fill="#191970" stroke="#191970" points="315.225,-6.5001 305.2249,-10 315.2249,-13.5001 315.225,-6.5001"/>
</g>
<!-- Node85 -->
<g id="node8" class="node">
<title>Node85</title>
<g id="a_node8"><a xlink:href="../../d2/da9/class_t_a_p___e_s_c.html#a24c08fd964d11944b1f351dbb5723dd5" target="_top" xlink:title="TAP_ESC::run">
<polygon fill="#ffffff" stroke="#000000" points="500,-.5 500,-19.5 582,-19.5 582,-.5 500,-.5"/>
<text text-anchor="middle" x="541" y="-7.5" font-family="Helvetica,sans-Serif" font-size="10.00" fill="#000000">TAP_ESC::run</text>
</a>
</g>
</g>
<!-- Node84&#45;&gt;Node85 -->
<g id="edge7" class="edge">
<title>Node84&#45;&gt;Node85</title>
<path fill="none" stroke="#191970" d="M458.8973,-10C472.5635,-10 486.9218,-10 499.7414,-10"/>
<polygon fill="#191970" stroke="#191970" points="458.6185,-6.5001 448.6185,-10 458.6185,-13.5001 458.6185,-6.5001"/>
</g>
</g>
</svg>
        <g id="navigator" transform="translate(0 0)" fill="#404254">
                <rect fill="#f2f5e9" fill-opacity="0.5" stroke="#606060" stroke-width=".5" x="0" y="0" width="60" height="60"/>
                <use id="zoomplus" xlink:href="#zoomPlus" x="17" y="9" onmousedown="handleZoom(evt,'in')"/>
                <use id="zoomminus" xlink:href="#zoomMin" x="42" y="9" onmousedown="handleZoom(evt,'out')"/>
                <use id="reset" xlink:href="#resetDef" x="30" y="36" onmousedown="handleReset()"/>
                <g id="arrowUp" xlink:href="#dirArrow" transform="translate(30 24)" onmousedown="handlePan(0,-1)">
                  <use xlink:href="#rim" fill="#404040">
                        <set attributeName="fill" to="#808080" begin="arrowUp.mouseover" end="arrowUp.mouseout"/>
                  </use>
                  <path fill="none" stroke="white" stroke-width="1.5" d="M0,-3.0v7 M-2.5,-0.5L0,-3.0L2.5,-0.5"/>
                </g>
                <g id="arrowRight" xlink:href="#dirArrow" transform="rotate(90) translate(36 -43)" onmousedown="handlePan(1,0)">
                  <use xlink:href="#rim" fill="#404040">
                        <set attributeName="fill" to="#808080" begin="arrowRight.mouseover" end="arrowRight.mouseout"/>
                  </use>
                  <path fill="none" stroke="white" stroke-width="1.5" d="M0,-3.0v7 M-2.5,-0.5L0,-3.0L2.5,-0.5"/>
                </g>
                <g id="arrowDown" xlink:href="#dirArrow" transform="rotate(180) translate(-30 -48)" onmousedown="handlePan(0,1)">
                  <use xlink:href="#rim" fill="#404040">
                        <set attributeName="fill" to="#808080" begin="arrowDown.mouseover" end="arrowDown.mouseout"/>
                  </use>
                  <path fill="none" stroke="white" stroke-width="1.5" d="M0,-3.0v7 M-2.5,-0.5L0,-3.0L2.5,-0.5"/>
                </g>
                <g id="arrowLeft" xlink:href="#dirArrow" transform="rotate(270) translate(-36 17)" onmousedown="handlePan(-1,0)">
                  <use xlink:href="#rim" fill="#404040">
                        <set attributeName="fill" to="#808080" begin="arrowLeft.mouseover" end="arrowLeft.mouseout"/>
                  </use>
                  <path fill="none" stroke="white" stroke-width="1.5" d="M0,-3.0v7 M-2.5,-0.5L0,-3.0L2.5,-0.5"/>
                </g>
        </g>
        <svg viewBox="0 0 15 15" width="100%" height="30px" preserveAspectRatio="xMaxYMin meet">
         <g id="arrow_out" transform="scale(0.3 0.3)">
          <a xlink:href="namespacetap__esc__common_a8c4eb259cd5b3b548a97609dc6772ebf_icgraph_org.svg" target="_base">
           <rect id="button" ry="5" rx="5" y="6" x="6" height="38" width="38"
                fill="#f2f5e9" fill-opacity="0.5" stroke="#606060" stroke-width="1.0"/>
           <path id="arrow"
             d="M 11.500037,31.436501 C 11.940474,20.09759 22.043105,11.32322 32.158766,21.979434 L 37.068811,17.246167 C 37.068811,17.246167 37.088388,32 37.088388,32 L 22.160133,31.978069 C 22.160133,31.978069 26.997745,27.140456 26.997745,27.140456 C 18.528582,18.264221 13.291696,25.230495 11.500037,31.436501 z"
             style="fill:#404040;"/>
          </a>
         </g>
        </svg>
</svg>
