<?xml version="1.0" encoding="UTF-8" standalone="no"?>
<!DOCTYPE svg PUBLIC "-//W3C//DTD SVG 1.1//EN"
 "http://www.w3.org/Graphics/SVG/1.1/DTD/svg11.dtd">
<!-- Generated by graphviz version 2.40.1 (20161225.0304)
 -->
<!-- Title: src/drivers/drv_rc_input.h Pages: 1 -->
<!--zoomable 251 -->
<svg id="main" version="1.1" xmlns="http://www.w3.org/2000/svg" xmlns:xlink="http://www.w3.org/1999/xlink" xml:space="preserve" onload="init(evt)">
<style type="text/css"><![CDATA[
.edge:hover path { stroke: red; }
.edge:hover polygon { stroke: red; fill: red; }
]]></style>
<script type="text/javascript"><![CDATA[
var edges = document.getElementsByTagName('g');
if (edges && edges.length) {
  for (var i=0;i<edges.length;i++) {
    if (edges[i].id.substr(0,4)=='edge') {
      edges[i].setAttribute('class','edge');
    }
  }
}
]]></script>
        <defs>
                <circle id="rim" cx="0" cy="0" r="7"/>
                <circle id="rim2" cx="0" cy="0" r="3.5"/>
                <g id="zoomPlus">
                        <use xlink:href="#rim" fill="#404040">
                                <set attributeName="fill" to="#808080" begin="zoomplus.mouseover" end="zoomplus.mouseout"/>
                        </use>
                        <path d="M-4,0h8M0,-4v8" fill="none" stroke="white" stroke-width="1.5" pointer-events="none"/>
                </g>
                <g id="zoomMin">
                        <use xlink:href="#rim" fill="#404040">
                                <set attributeName="fill" to="#808080" begin="zoomminus.mouseover" end="zoomminus.mouseout"/>
                        </use>
                        <path d="M-4,0h8" fill="none" stroke="white" stroke-width="1.5" pointer-events="none"/>
                </g>
                <g id="dirArrow">
                        <path fill="none" stroke="white" stroke-width="1.5" d="M0,-3.0v7 M-2.5,-0.5L0,-3.0L2.5,-0.5"/>
                </g>
               <g id="resetDef">
                       <use xlink:href="#rim2" fill="#404040">
                               <set attributeName="fill" to="#808080" begin="reset.mouseover" end="reset.mouseout"/>
                       </use>
               </g>
        </defs>

<script type="text/javascript">
var viewWidth = 1655;
var viewHeight = 251;
var sectionId = 'dynsection-1';
</script>
<script xlink:href="../../svgpan.js"/>
<svg id="graph" class="graph">
<g id="viewport">
<title>src/drivers/drv_rc_input.h</title>
<polygon fill="#ffffff" stroke="transparent" points="-4,4 -4,-247 1650.5,-247 1650.5,4 -4,4"/>
<!-- Node9 -->
<g id="node1" class="node">
<title>Node9</title>
<polygon fill="#bfbfbf" stroke="#000000" points="713,-212.5 713,-242.5 805,-242.5 805,-212.5 713,-212.5"/>
<text text-anchor="start" x="721" y="-230.5" font-family="Helvetica,sans-Serif" font-size="10.00" fill="#000000">src/drivers/drv_rc</text>
<text text-anchor="middle" x="759" y="-219.5" font-family="Helvetica,sans-Serif" font-size="10.00" fill="#000000">_input.h</text>
</g>
<!-- Node10 -->
<g id="node2" class="node">
<title>Node10</title>
<g id="a_node2"><a xlink:href="../../df/db3/mkblctrl_8cpp.html" target="_top" xlink:title="Driver/configurator for the Mikrokopter BL&#45;Ctrl. ">
<polygon fill="#ffffff" stroke="#000000" points="0,-140 0,-170 100,-170 100,-140 0,-140"/>
<text text-anchor="start" x="8" y="-158" font-family="Helvetica,sans-Serif" font-size="10.00" fill="#000000">src/drivers/mkblctrl</text>
<text text-anchor="middle" x="50" y="-147" font-family="Helvetica,sans-Serif" font-size="10.00" fill="#000000">/mkblctrl.cpp</text>
</a>
</g>
</g>
<!-- Node9&#45;&gt;Node10 -->
<g id="edge1" class="edge">
<title>Node9&#45;&gt;Node10</title>
<path fill="none" stroke="#191970" d="M702.3118,-224.9224C565.765,-218.4055 221.6114,-200.062 109,-176 101.9825,-174.5006 94.6619,-172.3784 87.6608,-170.0544"/>
<polygon fill="#191970" stroke="#191970" points="702.3989,-228.4304 712.5534,-225.4076 702.7302,-221.4382 702.3989,-228.4304"/>
</g>
<!-- Node11 -->
<g id="node3" class="node">
<title>Node11</title>
<g id="a_node3"><a xlink:href="../../de/dfe/px4io_8cpp.html" target="_top" xlink:title="Driver for the PX4IO board. ">
<polygon fill="#ffffff" stroke="#000000" points="118,-145.5 118,-164.5 252,-164.5 252,-145.5 118,-145.5"/>
<text text-anchor="middle" x="185" y="-152.5" font-family="Helvetica,sans-Serif" font-size="10.00" fill="#000000">src/drivers/px4io/px4io.cpp</text>
</a>
</g>
</g>
<!-- Node9&#45;&gt;Node11 -->
<g id="edge2" class="edge">
<title>Node9&#45;&gt;Node11</title>
<path fill="none" stroke="#191970" d="M702.9742,-224.7535C610.3334,-219.5329 419.6888,-205.9136 261,-176 245.6648,-173.1092 228.9164,-168.6287 215.0546,-164.5475"/>
<polygon fill="#191970" stroke="#191970" points="702.7949,-228.2489 712.9727,-225.3057 703.1809,-221.2595 702.7949,-228.2489"/>
</g>
<!-- Node12 -->
<g id="node4" class="node">
<title>Node12</title>
<g id="a_node4"><a xlink:href="../../df/d66/rc__receiver__main_8cpp.html" target="_top" xlink:title="src/drivers/qurt/fc\l_addon/rc_receiver/rc\l_receiver_main.cpp">
<polygon fill="#ffffff" stroke="#000000" points="270,-134.5 270,-175.5 380,-175.5 380,-134.5 270,-134.5"/>
<text text-anchor="start" x="278" y="-163.5" font-family="Helvetica,sans-Serif" font-size="10.00" fill="#000000">src/drivers/qurt/fc</text>
<text text-anchor="start" x="278" y="-152.5" font-family="Helvetica,sans-Serif" font-size="10.00" fill="#000000">_addon/rc_receiver/rc</text>
<text text-anchor="middle" x="325" y="-141.5" font-family="Helvetica,sans-Serif" font-size="10.00" fill="#000000">_receiver_main.cpp</text>
</a>
</g>
</g>
<!-- Node9&#45;&gt;Node12 -->
<g id="edge3" class="edge">
<title>Node9&#45;&gt;Node12</title>
<path fill="none" stroke="#191970" d="M702.6022,-222.8113C629.5563,-216.02 498.6004,-201.3939 389,-176 386.152,-175.3401 383.2498,-174.6089 380.3313,-173.8264"/>
<polygon fill="#191970" stroke="#191970" points="702.6728,-226.3323 712.9498,-223.7568 703.3098,-219.3613 702.6728,-226.3323"/>
</g>
<!-- Node13 -->
<g id="node5" class="node">
<title>Node13</title>
<g id="a_node5"><a xlink:href="../../df/d1a/_r_c_input_8hpp.html" target="_top" xlink:title="src/drivers/rc_input\l/RCInput.hpp">
<polygon fill="#ffffff" stroke="#000000" points="398,-140 398,-170 498,-170 498,-140 398,-140"/>
<text text-anchor="start" x="406" y="-158" font-family="Helvetica,sans-Serif" font-size="10.00" fill="#000000">src/drivers/rc_input</text>
<text text-anchor="middle" x="448" y="-147" font-family="Helvetica,sans-Serif" font-size="10.00" fill="#000000">/RCInput.hpp</text>
</a>
</g>
</g>
<!-- Node9&#45;&gt;Node13 -->
<g id="edge4" class="edge">
<title>Node9&#45;&gt;Node13</title>
<path fill="none" stroke="#191970" d="M702.6306,-218.3174C651.2019,-209.3891 573.3377,-194.4859 507,-176 500.7159,-174.2488 494.1365,-172.165 487.7454,-170.0006"/>
<polygon fill="#191970" stroke="#191970" points="702.1043,-221.7782 712.5527,-220.0227 703.2901,-214.8793 702.1043,-221.7782"/>
</g>
<!-- Node15 -->
<g id="node7" class="node">
<title>Node15</title>
<g id="a_node7"><a xlink:href="../../d3/d92/spektrum__rc_8cpp.html" target="_top" xlink:title="This is a driver for a Spektrum satellite receiver connected to a Snapdragon on the serial port...">
<polygon fill="#ffffff" stroke="#000000" points="516,-140 516,-170 622,-170 622,-140 516,-140"/>
<text text-anchor="start" x="524" y="-158" font-family="Helvetica,sans-Serif" font-size="10.00" fill="#000000">src/drivers/spektrum</text>
<text text-anchor="middle" x="569" y="-147" font-family="Helvetica,sans-Serif" font-size="10.00" fill="#000000">_rc/spektrum_rc.cpp</text>
</a>
</g>
</g>
<!-- Node9&#45;&gt;Node15 -->
<g id="edge6" class="edge">
<title>Node9&#45;&gt;Node15</title>
<path fill="none" stroke="#191970" d="M710.1269,-208.8511C678.4962,-196.7814 637.8567,-181.2743 608.3177,-170.0028"/>
<polygon fill="#191970" stroke="#191970" points="709.0411,-212.1829 719.6319,-212.478 711.5367,-205.6428 709.0411,-212.1829"/>
</g>
<!-- Node16 -->
<g id="node8" class="node">
<title>Node16</title>
<g id="a_node8"><a xlink:href="../../d3/d71/battery__status_2parameters_8h.html" target="_top" xlink:title="src/modules/battery\l_status/parameters.h">
<polygon fill="#ffffff" stroke="#000000" points="640.5,-140 640.5,-170 749.5,-170 749.5,-140 640.5,-140"/>
<text text-anchor="start" x="648.5" y="-158" font-family="Helvetica,sans-Serif" font-size="10.00" fill="#000000">src/modules/battery</text>
<text text-anchor="middle" x="695" y="-147" font-family="Helvetica,sans-Serif" font-size="10.00" fill="#000000">_status/parameters.h</text>
</a>
</g>
</g>
<!-- Node9&#45;&gt;Node16 -->
<g id="edge7" class="edge">
<title>Node9&#45;&gt;Node16</title>
<path fill="none" stroke="#191970" d="M738.8506,-204.6745C728.8616,-193.3589 717.0787,-180.0111 708.2439,-170.0028"/>
<polygon fill="#191970" stroke="#191970" points="736.4973,-207.2973 745.7392,-212.478 741.7451,-202.6648 736.4973,-207.2973"/>
</g>
<!-- Node19 -->
<g id="node11" class="node">
<title>Node19</title>
<g id="a_node11"><a xlink:href="../../d2/d57/mavlink__receiver_8cpp.html" target="_top" xlink:title="MAVLink protocol message receive and dispatch. ">
<polygon fill="#ffffff" stroke="#000000" points="768,-140 768,-170 880,-170 880,-140 768,-140"/>
<text text-anchor="start" x="776" y="-158" font-family="Helvetica,sans-Serif" font-size="10.00" fill="#000000">src/modules/mavlink</text>
<text text-anchor="middle" x="824" y="-147" font-family="Helvetica,sans-Serif" font-size="10.00" fill="#000000">/mavlink_receiver.cpp</text>
</a>
</g>
</g>
<!-- Node9&#45;&gt;Node19 -->
<g id="edge10" class="edge">
<title>Node9&#45;&gt;Node19</title>
<path fill="none" stroke="#191970" d="M779.1693,-205.0035C789.3766,-193.6184 801.4892,-180.1083 810.5492,-170.0028"/>
<polygon fill="#191970" stroke="#191970" points="776.5375,-202.6958 772.468,-212.478 781.7495,-207.3687 776.5375,-202.6958"/>
</g>
<!-- Node20 -->
<g id="node12" class="node">
<title>Node20</title>
<g id="a_node12"><a xlink:href="../../d2/d2f/controls_8c.html" target="_top" xlink:title="R/C inputs and servo outputs. ">
<polygon fill="#ffffff" stroke="#000000" points="898,-140 898,-170 1032,-170 1032,-140 898,-140"/>
<text text-anchor="start" x="906" y="-158" font-family="Helvetica,sans-Serif" font-size="10.00" fill="#000000">src/modules/px4iofirmware</text>
<text text-anchor="middle" x="965" y="-147" font-family="Helvetica,sans-Serif" font-size="10.00" fill="#000000">/controls.c</text>
</a>
</g>
</g>
<!-- Node9&#45;&gt;Node20 -->
<g id="edge11" class="edge">
<title>Node9&#45;&gt;Node20</title>
<path fill="none" stroke="#191970" d="M811.5458,-209.0069C845.903,-196.9152 890.2068,-181.3228 922.3713,-170.0028"/>
<polygon fill="#191970" stroke="#191970" points="809.9542,-205.8566 801.6833,-212.478 812.2782,-212.4596 809.9542,-205.8566"/>
</g>
<!-- Node21 -->
<g id="node13" class="node">
<title>Node21</title>
<g id="a_node13"><a xlink:href="../../dd/d16/rc__update_2parameters_8h.html" target="_top" xlink:title="src/modules/rc_update\l/parameters.h">
<polygon fill="#ffffff" stroke="#000000" points="1050,-140 1050,-170 1166,-170 1166,-140 1050,-140"/>
<text text-anchor="start" x="1058" y="-158" font-family="Helvetica,sans-Serif" font-size="10.00" fill="#000000">src/modules/rc_update</text>
<text text-anchor="middle" x="1108" y="-147" font-family="Helvetica,sans-Serif" font-size="10.00" fill="#000000">/parameters.h</text>
</a>
</g>
</g>
<!-- Node9&#45;&gt;Node21 -->
<g id="edge12" class="edge">
<title>Node9&#45;&gt;Node21</title>
<path fill="none" stroke="#191970" d="M815.2157,-219.3228C872.4436,-210.511 963.5157,-195.1412 1041,-176 1047.9822,-174.2752 1055.3048,-172.23 1062.44,-170.1036"/>
<polygon fill="#191970" stroke="#191970" points="814.6413,-215.8699 805.2838,-220.8386 815.6974,-222.7898 814.6413,-215.8699"/>
</g>
<!-- Node25 -->
<g id="node17" class="node">
<title>Node25</title>
<g id="a_node17"><a xlink:href="../../d3/d9e/simulator_8h.html" target="_top" xlink:title="This module interfaces via MAVLink to a software in the loop simulator (SITL) such as jMAVSim or Gaze...">
<polygon fill="#ffffff" stroke="#000000" points="1184.5,-140 1184.5,-170 1297.5,-170 1297.5,-140 1184.5,-140"/>
<text text-anchor="start" x="1192.5" y="-158" font-family="Helvetica,sans-Serif" font-size="10.00" fill="#000000">src/modules/simulator</text>
<text text-anchor="middle" x="1241" y="-147" font-family="Helvetica,sans-Serif" font-size="10.00" fill="#000000">/simulator.h</text>
</a>
</g>
</g>
<!-- Node9&#45;&gt;Node25 -->
<g id="edge17" class="edge">
<title>Node9&#45;&gt;Node25</title>
<path fill="none" stroke="#191970" d="M815.423,-223.8379C895.9429,-217.8631 1048.1167,-203.7895 1175,-176 1182.4,-174.3793 1190.1548,-172.2845 1197.6418,-170.047"/>
<polygon fill="#191970" stroke="#191970" points="814.7394,-220.3783 805.0195,-224.5942 815.247,-227.3598 814.7394,-220.3783"/>
</g>
<!-- Node30 -->
<g id="node22" class="node">
<title>Node30</title>
<g id="a_node22"><a xlink:href="../../d6/da2/test__ppm__loopback_8c.html" target="_top" xlink:title="Tests the PWM outputs and PPM input. ">
<polygon fill="#ffffff" stroke="#000000" points="1316,-140 1316,-170 1430,-170 1430,-140 1316,-140"/>
<text text-anchor="start" x="1324" y="-158" font-family="Helvetica,sans-Serif" font-size="10.00" fill="#000000">src/systemcmds/tests</text>
<text text-anchor="middle" x="1373" y="-147" font-family="Helvetica,sans-Serif" font-size="10.00" fill="#000000">/test_ppm_loopback.c</text>
</a>
</g>
</g>
<!-- Node9&#45;&gt;Node30 -->
<g id="edge22" class="edge">
<title>Node9&#45;&gt;Node30</title>
<path fill="none" stroke="#191970" d="M815.5003,-226.1718C915.5386,-222.94 1129.9713,-212.0473 1307,-176 1314.6587,-174.4405 1322.6831,-172.3191 1330.3938,-170.0217"/>
<polygon fill="#191970" stroke="#191970" points="815.2029,-222.6792 805.316,-226.4869 815.4195,-229.6759 815.2029,-222.6792"/>
</g>
<!-- Node31 -->
<g id="node23" class="node">
<title>Node31</title>
<g id="a_node23"><a xlink:href="../../d8/d0e/test__rc_8c.html" target="_top" xlink:title="Tests RC input. ">
<polygon fill="#ffffff" stroke="#000000" points="1448,-140 1448,-170 1562,-170 1562,-140 1448,-140"/>
<text text-anchor="start" x="1456" y="-158" font-family="Helvetica,sans-Serif" font-size="10.00" fill="#000000">src/systemcmds/tests</text>
<text text-anchor="middle" x="1505" y="-147" font-family="Helvetica,sans-Serif" font-size="10.00" fill="#000000">/test_rc.c</text>
</a>
</g>
</g>
<!-- Node9&#45;&gt;Node31 -->
<g id="edge23" class="edge">
<title>Node9&#45;&gt;Node31</title>
<path fill="none" stroke="#191970" d="M815.2881,-224.9248C955.9359,-218.2189 1319.9461,-199.1214 1439,-176 1446.7905,-174.487 1454.9509,-172.3583 1462.7726,-170.032"/>
<polygon fill="#191970" stroke="#191970" points="814.9791,-221.4354 805.1559,-225.4048 815.3104,-228.4275 814.9791,-221.4354"/>
</g>
<!-- Node14 -->
<g id="node6" class="node">
<title>Node14</title>
<g id="a_node6"><a xlink:href="../../d5/d40/_r_c_input_8cpp.html" target="_top" xlink:title="src/drivers/rc_input\l/RCInput.cpp">
<polygon fill="#ffffff" stroke="#000000" points="398,-67.5 398,-97.5 498,-97.5 498,-67.5 398,-67.5"/>
<text text-anchor="start" x="406" y="-85.5" font-family="Helvetica,sans-Serif" font-size="10.00" fill="#000000">src/drivers/rc_input</text>
<text text-anchor="middle" x="448" y="-74.5" font-family="Helvetica,sans-Serif" font-size="10.00" fill="#000000">/RCInput.cpp</text>
</a>
</g>
</g>
<!-- Node13&#45;&gt;Node14 -->
<g id="edge5" class="edge">
<title>Node13&#45;&gt;Node14</title>
<path fill="none" stroke="#191970" d="M448,-129.8409C448,-119.0601 448,-106.8309 448,-97.5028"/>
<polygon fill="#191970" stroke="#191970" points="444.5001,-129.9779 448,-139.978 451.5001,-129.978 444.5001,-129.9779"/>
</g>
<!-- Node17 -->
<g id="node9" class="node">
<title>Node17</title>
<g id="a_node9"><a xlink:href="../../d6/d9d/battery__status_8cpp.html" target="_top" xlink:title="src/modules/battery\l_status/battery_status.cpp">
<polygon fill="#ffffff" stroke="#000000" points="529.5,-67.5 529.5,-97.5 662.5,-97.5 662.5,-67.5 529.5,-67.5"/>
<text text-anchor="start" x="537.5" y="-85.5" font-family="Helvetica,sans-Serif" font-size="10.00" fill="#000000">src/modules/battery</text>
<text text-anchor="middle" x="596" y="-74.5" font-family="Helvetica,sans-Serif" font-size="10.00" fill="#000000">_status/battery_status.cpp</text>
</a>
</g>
</g>
<!-- Node16&#45;&gt;Node17 -->
<g id="edge8" class="edge">
<title>Node16&#45;&gt;Node17</title>
<path fill="none" stroke="#191970" d="M666.0611,-133.8074C650.1601,-122.1627 630.8165,-107.9969 616.4866,-97.5028"/>
<polygon fill="#191970" stroke="#191970" points="664.3513,-136.8934 674.4871,-139.978 668.4871,-131.2458 664.3513,-136.8934"/>
</g>
<!-- Node18 -->
<g id="node10" class="node">
<title>Node18</title>
<g id="a_node10"><a xlink:href="../../d3/db2/modules_2battery__status_2parameters_8cpp.html" target="_top" xlink:title="src/modules/battery\l_status/parameters.cpp">
<polygon fill="#ffffff" stroke="#000000" points="680.5,-67.5 680.5,-97.5 799.5,-97.5 799.5,-67.5 680.5,-67.5"/>
<text text-anchor="start" x="688.5" y="-85.5" font-family="Helvetica,sans-Serif" font-size="10.00" fill="#000000">src/modules/battery</text>
<text text-anchor="middle" x="740" y="-74.5" font-family="Helvetica,sans-Serif" font-size="10.00" fill="#000000">_status/parameters.cpp</text>
</a>
</g>
</g>
<!-- Node16&#45;&gt;Node18 -->
<g id="edge9" class="edge">
<title>Node16&#45;&gt;Node18</title>
<path fill="none" stroke="#191970" d="M709.7844,-131.1807C716.6719,-120.0842 724.6568,-107.2196 730.6879,-97.5028"/>
<polygon fill="#191970" stroke="#191970" points="706.624,-129.6358 704.324,-139.978 712.5714,-133.3273 706.624,-129.6358"/>
</g>
<!-- Node22 -->
<g id="node14" class="node">
<title>Node22</title>
<g id="a_node14"><a xlink:href="../../df/d53/modules_2rc__update_2parameters_8cpp.html" target="_top" xlink:title="src/modules/rc_update\l/parameters.cpp">
<polygon fill="#ffffff" stroke="#000000" points="830,-67.5 830,-97.5 946,-97.5 946,-67.5 830,-67.5"/>
<text text-anchor="start" x="838" y="-85.5" font-family="Helvetica,sans-Serif" font-size="10.00" fill="#000000">src/modules/rc_update</text>
<text text-anchor="middle" x="888" y="-74.5" font-family="Helvetica,sans-Serif" font-size="10.00" fill="#000000">/parameters.cpp</text>
</a>
</g>
</g>
<!-- Node21&#45;&gt;Node22 -->
<g id="edge13" class="edge">
<title>Node21&#45;&gt;Node22</title>
<path fill="none" stroke="#191970" d="M1052.8256,-136.8175C1016.0042,-124.6832 968.1711,-108.92 933.5257,-97.5028"/>
<polygon fill="#191970" stroke="#191970" points="1051.8228,-140.1722 1062.4159,-139.978 1054.0138,-133.5239 1051.8228,-140.1722"/>
</g>
<!-- Node23 -->
<g id="node15" class="node">
<title>Node23</title>
<g id="a_node15"><a xlink:href="../../d2/dd4/rc__update_8h.html" target="_top" xlink:title="src/modules/rc_update\l/rc_update.h">
<polygon fill="#ffffff" stroke="#000000" points="964,-67.5 964,-97.5 1080,-97.5 1080,-67.5 964,-67.5"/>
<text text-anchor="start" x="972" y="-85.5" font-family="Helvetica,sans-Serif" font-size="10.00" fill="#000000">src/modules/rc_update</text>
<text text-anchor="middle" x="1022" y="-74.5" font-family="Helvetica,sans-Serif" font-size="10.00" fill="#000000">/rc_update.h</text>
</a>
</g>
</g>
<!-- Node21&#45;&gt;Node23 -->
<g id="edge14" class="edge">
<title>Node21&#45;&gt;Node23</title>
<path fill="none" stroke="#191970" d="M1082.4767,-133.4833C1068.7373,-121.9007 1052.1294,-107.8998 1039.7964,-97.5028"/>
<polygon fill="#191970" stroke="#191970" points="1080.2791,-136.2084 1090.1807,-139.978 1084.791,-130.8565 1080.2791,-136.2084"/>
</g>
<!-- Node24 -->
<g id="node16" class="node">
<title>Node24</title>
<g id="a_node16"><a xlink:href="../../d8/d28/rc__update_8cpp.html" target="_top" xlink:title="src/modules/rc_update\l/rc_update.cpp">
<polygon fill="#ffffff" stroke="#000000" points="1007,-.5 1007,-30.5 1123,-30.5 1123,-.5 1007,-.5"/>
<text text-anchor="start" x="1015" y="-18.5" font-family="Helvetica,sans-Serif" font-size="10.00" fill="#000000">src/modules/rc_update</text>
<text text-anchor="middle" x="1065" y="-7.5" font-family="Helvetica,sans-Serif" font-size="10.00" fill="#000000">/rc_update.cpp</text>
</a>
</g>
</g>
<!-- Node21&#45;&gt;Node24 -->
<g id="edge16" class="edge">
<title>Node21&#45;&gt;Node24</title>
<path fill="none" stroke="#191970" d="M1104.1131,-129.8613C1100.9868,-112.0384 1095.9631,-87.7082 1089,-67 1084.7873,-54.4713 1078.4091,-40.9483 1073.2866,-30.9045"/>
<polygon fill="#191970" stroke="#191970" points="1100.67,-130.4926 1105.7748,-139.7765 1107.5737,-129.3355 1100.67,-130.4926"/>
</g>
<!-- Node23&#45;&gt;Node24 -->
<g id="edge15" class="edge">
<title>Node23&#45;&gt;Node24</title>
<path fill="none" stroke="#191970" d="M1037.2275,-58.7735C1043.2334,-49.4154 1049.9551,-38.9421 1055.2812,-30.6432"/>
<polygon fill="#191970" stroke="#191970" points="1034.2131,-56.9903 1031.7574,-67.2967 1040.1042,-60.7712 1034.2131,-56.9903"/>
</g>
<!-- Node26 -->
<g id="node18" class="node">
<title>Node26</title>
<g id="a_node18"><a xlink:href="../../de/d29/gpssim_8cpp.html" target="_top" xlink:title="Simulated GPS driver. ">
<polygon fill="#ffffff" stroke="#000000" points="1136.5,-67.5 1136.5,-97.5 1249.5,-97.5 1249.5,-67.5 1136.5,-67.5"/>
<text text-anchor="start" x="1144.5" y="-85.5" font-family="Helvetica,sans-Serif" font-size="10.00" fill="#000000">src/modules/simulator</text>
<text text-anchor="middle" x="1193" y="-74.5" font-family="Helvetica,sans-Serif" font-size="10.00" fill="#000000">/gpssim/gpssim.cpp</text>
</a>
</g>
</g>
<!-- Node25&#45;&gt;Node26 -->
<g id="edge18" class="edge">
<title>Node25&#45;&gt;Node26</title>
<path fill="none" stroke="#191970" d="M1225.45,-131.513C1218.0539,-120.3418 1209.4304,-107.3167 1202.9329,-97.5028"/>
<polygon fill="#191970" stroke="#191970" points="1222.6155,-133.5719 1231.0544,-139.978 1228.4523,-129.7076 1222.6155,-133.5719"/>
</g>
<!-- Node27 -->
<g id="node19" class="node">
<title>Node27</title>
<g id="a_node19"><a xlink:href="../../db/d47/ubx__sim_8cpp.html" target="_top" xlink:title="src/modules/simulator\l/gpssim/ubx_sim.cpp">
<polygon fill="#ffffff" stroke="#000000" points="1267.5,-67.5 1267.5,-97.5 1380.5,-97.5 1380.5,-67.5 1267.5,-67.5"/>
<text text-anchor="start" x="1275.5" y="-85.5" font-family="Helvetica,sans-Serif" font-size="10.00" fill="#000000">src/modules/simulator</text>
<text text-anchor="middle" x="1324" y="-74.5" font-family="Helvetica,sans-Serif" font-size="10.00" fill="#000000">/gpssim/ubx_sim.cpp</text>
</a>
</g>
</g>
<!-- Node25&#45;&gt;Node27 -->
<g id="edge19" class="edge">
<title>Node25&#45;&gt;Node27</title>
<path fill="none" stroke="#191970" d="M1266.0055,-133.1579C1279.1923,-121.6393 1295.0329,-107.8026 1306.8244,-97.5028"/>
<polygon fill="#191970" stroke="#191970" points="1263.4265,-130.7633 1258.1977,-139.978 1268.0316,-136.0353 1263.4265,-130.7633"/>
</g>
<!-- Node28 -->
<g id="node20" class="node">
<title>Node28</title>
<g id="a_node20"><a xlink:href="../../da/d56/simulator_8cpp.html" target="_top" xlink:title="This module interfaces via MAVLink to a software in the loop simulator (SITL) such as jMAVSim or Gaze...">
<polygon fill="#ffffff" stroke="#000000" points="1398.5,-67.5 1398.5,-97.5 1511.5,-97.5 1511.5,-67.5 1398.5,-67.5"/>
<text text-anchor="start" x="1406.5" y="-85.5" font-family="Helvetica,sans-Serif" font-size="10.00" fill="#000000">src/modules/simulator</text>
<text text-anchor="middle" x="1455" y="-74.5" font-family="Helvetica,sans-Serif" font-size="10.00" fill="#000000">/simulator.cpp</text>
</a>
</g>
</g>
<!-- Node25&#45;&gt;Node28 -->
<g id="edge20" class="edge">
<title>Node25&#45;&gt;Node28</title>
<path fill="none" stroke="#191970" d="M1295.1274,-136.6624C1330.8826,-124.5491 1377.1588,-108.8714 1410.7159,-97.5028"/>
<polygon fill="#191970" stroke="#191970" points="1293.6891,-133.4542 1285.3409,-139.978 1295.9352,-140.0841 1293.6891,-133.4542"/>
</g>
<!-- Node29 -->
<g id="node21" class="node">
<title>Node29</title>
<g id="a_node21"><a xlink:href="../../dd/d94/simulator__mavlink_8cpp.html" target="_top" xlink:title="src/modules/simulator\l/simulator_mavlink.cpp">
<polygon fill="#ffffff" stroke="#000000" points="1529.5,-67.5 1529.5,-97.5 1646.5,-97.5 1646.5,-67.5 1529.5,-67.5"/>
<text text-anchor="start" x="1537.5" y="-85.5" font-family="Helvetica,sans-Serif" font-size="10.00" fill="#000000">src/modules/simulator</text>
<text text-anchor="middle" x="1588" y="-74.5" font-family="Helvetica,sans-Serif" font-size="10.00" fill="#000000">/simulator_mavlink.cpp</text>
</a>
</g>
</g>
<!-- Node25&#45;&gt;Node29 -->
<g id="edge21" class="edge">
<title>Node25&#45;&gt;Node29</title>
<path fill="none" stroke="#191970" d="M1295.2807,-137.062C1299.229,-135.9626 1303.1651,-134.9277 1307,-134 1400.7434,-111.3217 1426.418,-116.8779 1521,-98 1523.6929,-97.4625 1526.4427,-96.8965 1529.2175,-96.3114"/>
<polygon fill="#191970" stroke="#191970" points="1294.1196,-133.7545 1285.4915,-139.9032 1296.0707,-140.4771 1294.1196,-133.7545"/>
</g>
</g>
</svg>
        <g id="navigator" transform="translate(0 0)" fill="#404254">
                <rect fill="#f2f5e9" fill-opacity="0.5" stroke="#606060" stroke-width=".5" x="0" y="0" width="60" height="60"/>
                <use id="zoomplus" xlink:href="#zoomPlus" x="17" y="9" onmousedown="handleZoom(evt,'in')"/>
                <use id="zoomminus" xlink:href="#zoomMin" x="42" y="9" onmousedown="handleZoom(evt,'out')"/>
                <use id="reset" xlink:href="#resetDef" x="30" y="36" onmousedown="handleReset()"/>
                <g id="arrowUp" xlink:href="#dirArrow" transform="translate(30 24)" onmousedown="handlePan(0,-1)">
                  <use xlink:href="#rim" fill="#404040">
                        <set attributeName="fill" to="#808080" begin="arrowUp.mouseover" end="arrowUp.mouseout"/>
                  </use>
                  <path fill="none" stroke="white" stroke-width="1.5" d="M0,-3.0v7 M-2.5,-0.5L0,-3.0L2.5,-0.5"/>
                </g>
                <g id="arrowRight" xlink:href="#dirArrow" transform="rotate(90) translate(36 -43)" onmousedown="handlePan(1,0)">
                  <use xlink:href="#rim" fill="#404040">
                        <set attributeName="fill" to="#808080" begin="arrowRight.mouseover" end="arrowRight.mouseout"/>
                  </use>
                  <path fill="none" stroke="white" stroke-width="1.5" d="M0,-3.0v7 M-2.5,-0.5L0,-3.0L2.5,-0.5"/>
                </g>
                <g id="arrowDown" xlink:href="#dirArrow" transform="rotate(180) translate(-30 -48)" onmousedown="handlePan(0,1)">
                  <use xlink:href="#rim" fill="#404040">
                        <set attributeName="fill" to="#808080" begin="arrowDown.mouseover" end="arrowDown.mouseout"/>
                  </use>
                  <path fill="none" stroke="white" stroke-width="1.5" d="M0,-3.0v7 M-2.5,-0.5L0,-3.0L2.5,-0.5"/>
                </g>
                <g id="arrowLeft" xlink:href="#dirArrow" transform="rotate(270) translate(-36 17)" onmousedown="handlePan(-1,0)">
                  <use xlink:href="#rim" fill="#404040">
                        <set attributeName="fill" to="#808080" begin="arrowLeft.mouseover" end="arrowLeft.mouseout"/>
                  </use>
                  <path fill="none" stroke="white" stroke-width="1.5" d="M0,-3.0v7 M-2.5,-0.5L0,-3.0L2.5,-0.5"/>
                </g>
        </g>
        <svg viewBox="0 0 15 15" width="100%" height="30px" preserveAspectRatio="xMaxYMin meet">
         <g id="arrow_out" transform="scale(0.3 0.3)">
          <a xlink:href="drv__rc__input_8h__dep__incl_org.svg" target="_base">
           <rect id="button" ry="5" rx="5" y="6" x="6" height="38" width="38"
                fill="#f2f5e9" fill-opacity="0.5" stroke="#606060" stroke-width="1.0"/>
           <path id="arrow"
             d="M 11.500037,31.436501 C 11.940474,20.09759 22.043105,11.32322 32.158766,21.979434 L 37.068811,17.246167 C 37.068811,17.246167 37.088388,32 37.088388,32 L 22.160133,31.978069 C 22.160133,31.978069 26.997745,27.140456 26.997745,27.140456 C 18.528582,18.264221 13.291696,25.230495 11.500037,31.436501 z"
             style="fill:#404040;"/>
          </a>
         </g>
        </svg>
</svg>
