<?xml version="1.0" encoding="UTF-8" standalone="no"?>
<!DOCTYPE svg PUBLIC "-//W3C//DTD SVG 1.1//EN"
 "http://www.w3.org/Graphics/SVG/1.1/DTD/svg11.dtd">
<!-- Generated by graphviz version 2.40.1 (20161225.0304)
 -->
<!-- Title: Navigator::fake_traffic Pages: 1 -->
<svg width="612pt" height="256pt"
 viewBox="0.00 0.00 612.00 256.00" xmlns="http://www.w3.org/2000/svg" xmlns:xlink="http://www.w3.org/1999/xlink">
<g id="graph0" class="graph" transform="scale(1 1) rotate(0) translate(4 252)">
<title>Navigator::fake_traffic</title>
<polygon fill="#ffffff" stroke="transparent" points="-4,4 -4,-252 608,-252 608,4 -4,4"/>
<!-- Node242 -->
<g id="node1" class="node">
<title>Node242</title>
<polygon fill="#bfbfbf" stroke="#000000" points="0,-158.5 0,-177.5 113,-177.5 113,-158.5 0,-158.5"/>
<text text-anchor="middle" x="56.5" y="-165.5" font-family="Helvetica,sans-Serif" font-size="10.00" fill="#000000">Navigator::fake_traffic</text>
</g>
<!-- Node243 -->
<g id="node2" class="node">
<title>Node243</title>
<g id="a_node2"><a xlink:href="../../d0/df9/class_navigator.html#a6b29aee2334c4b825cc3bb95a5c51452" target="_top" xlink:title="Navigator::get_global\l_position">
<polygon fill="#ffffff" stroke="#000000" points="154,-197 154,-227 263,-227 263,-197 154,-197"/>
<text text-anchor="start" x="162" y="-215" font-family="Helvetica,sans-Serif" font-size="10.00" fill="#000000">Navigator::get_global</text>
<text text-anchor="middle" x="208.5" y="-204" font-family="Helvetica,sans-Serif" font-size="10.00" fill="#000000">_position</text>
</a>
</g>
</g>
<!-- Node242&#45;&gt;Node243 -->
<g id="edge1" class="edge">
<title>Node242&#45;&gt;Node243</title>
<path fill="none" stroke="#191970" d="M89.4817,-177.5473C106.2132,-182.3906 127.0921,-188.4346 146.6704,-194.102"/>
<polygon fill="#191970" stroke="#191970" points="145.8771,-197.516 156.456,-196.9346 147.8236,-190.792 145.8771,-197.516"/>
</g>
<!-- Node244 -->
<g id="node3" class="node">
<title>Node244</title>
<g id="a_node3"><a xlink:href="../../d6/d10/drv__hrt_8h.html#a1450e339b7c5b8d47656500167a6676d" target="_top" xlink:title="Get absolute time in [us] (does not wrap). ">
<polygon fill="#ffffff" stroke="#000000" points="161.5,-158.5 161.5,-177.5 255.5,-177.5 255.5,-158.5 161.5,-158.5"/>
<text text-anchor="middle" x="208.5" y="-165.5" font-family="Helvetica,sans-Serif" font-size="10.00" fill="#000000">hrt_absolute_time</text>
</a>
</g>
</g>
<!-- Node242&#45;&gt;Node244 -->
<g id="edge2" class="edge">
<title>Node242&#45;&gt;Node244</title>
<path fill="none" stroke="#191970" d="M113.0992,-168C125.4963,-168 138.6315,-168 151.0611,-168"/>
<polygon fill="#191970" stroke="#191970" points="151.3044,-171.5001 161.3044,-168 151.3044,-164.5001 151.3044,-171.5001"/>
</g>
<!-- Node245 -->
<g id="node4" class="node">
<title>Node245</title>
<g id="a_node4"><a xlink:href="../../d7/d09/geo_8cpp.html#a8cf2ed6d2c6d6ef12853085621d50c24" target="_top" xlink:title="Creates a waypoint from given waypoint, distance and bearing see http://www.movable&#45;type.co.uk/scripts/latlong.html. ">
<polygon fill="#ffffff" stroke="#000000" points="149,-109 149,-139 268,-139 268,-109 149,-109"/>
<text text-anchor="start" x="157" y="-127" font-family="Helvetica,sans-Serif" font-size="10.00" fill="#000000">waypoint_from_heading</text>
<text text-anchor="middle" x="208.5" y="-116" font-family="Helvetica,sans-Serif" font-size="10.00" fill="#000000">_and_distance</text>
</a>
</g>
</g>
<!-- Node242&#45;&gt;Node245 -->
<g id="edge3" class="edge">
<title>Node242&#45;&gt;Node245</title>
<path fill="none" stroke="#191970" d="M89.4817,-158.4527C106.2132,-153.6094 127.0921,-147.5654 146.6704,-141.898"/>
<polygon fill="#191970" stroke="#191970" points="147.8236,-145.208 156.456,-139.0654 145.8771,-138.484 147.8236,-145.208"/>
</g>
<!-- Node246 -->
<g id="node5" class="node">
<title>Node246</title>
<g id="a_node5"><a xlink:href="../../d0/de4/namespacematrix.html#ad28ff6800d723360aae80240711a31a1" target="_top" xlink:title="matrix::asin">
<polygon fill="#ffffff" stroke="#000000" points="314.5,-228.5 314.5,-247.5 382.5,-247.5 382.5,-228.5 314.5,-228.5"/>
<text text-anchor="middle" x="348.5" y="-235.5" font-family="Helvetica,sans-Serif" font-size="10.00" fill="#000000">matrix::asin</text>
</a>
</g>
</g>
<!-- Node245&#45;&gt;Node246 -->
<g id="edge4" class="edge">
<title>Node245&#45;&gt;Node246</title>
<path fill="none" stroke="#191970" d="M254.0906,-139.119C259.1134,-141.9218 263.8886,-145.1945 268,-149 293.6743,-172.7641 278.3943,-195.162 304,-219 305.6486,-220.5347 307.4399,-221.9564 309.3261,-223.2719"/>
<polygon fill="#191970" stroke="#191970" points="307.6558,-226.3496 318.0542,-228.3804 311.1918,-220.3084 307.6558,-226.3496"/>
</g>
<!-- Node248 -->
<g id="node7" class="node">
<title>Node248</title>
<g id="a_node7"><a xlink:href="../../d0/de4/namespacematrix.html#a2dc2eb787a0bdc7634060b2a27a45714" target="_top" xlink:title="matrix::atan2">
<polygon fill="#ffffff" stroke="#000000" points="311.5,-190.5 311.5,-209.5 385.5,-209.5 385.5,-190.5 311.5,-190.5"/>
<text text-anchor="middle" x="348.5" y="-197.5" font-family="Helvetica,sans-Serif" font-size="10.00" fill="#000000">matrix::atan2</text>
</a>
</g>
</g>
<!-- Node245&#45;&gt;Node248 -->
<g id="edge6" class="edge">
<title>Node245&#45;&gt;Node248</title>
<path fill="none" stroke="#191970" d="M249.4093,-139.0763C255.8119,-142.0302 262.2172,-145.3567 268,-149 286.1123,-160.4112 285.9207,-169.5366 304,-181 306.7669,-182.7544 309.7235,-184.4151 312.7478,-185.9702"/>
<polygon fill="#191970" stroke="#191970" points="311.3662,-189.1885 321.902,-190.3057 314.3625,-182.8621 311.3662,-189.1885"/>
</g>
<!-- Node249 -->
<g id="node8" class="node">
<title>Node249</title>
<g id="a_node8"><a xlink:href="../../d0/de4/namespacematrix.html#a2e09123c750ed3a0315a31f3b27a3ed9" target="_top" xlink:title="matrix::cos">
<polygon fill="#ffffff" stroke="#000000" points="316,-152.5 316,-171.5 381,-171.5 381,-152.5 316,-152.5"/>
<text text-anchor="middle" x="348.5" y="-159.5" font-family="Helvetica,sans-Serif" font-size="10.00" fill="#000000">matrix::cos</text>
</a>
</g>
</g>
<!-- Node245&#45;&gt;Node249 -->
<g id="edge7" class="edge">
<title>Node245&#45;&gt;Node249</title>
<path fill="none" stroke="#191970" d="M263.8317,-139.0186C277.84,-142.8209 292.6688,-146.8458 305.9357,-150.4468"/>
<polygon fill="#191970" stroke="#191970" points="305.1693,-153.8654 315.737,-153.1072 307.003,-147.1098 305.1693,-153.8654"/>
</g>
<!-- Node250 -->
<g id="node9" class="node">
<title>Node250</title>
<g id="a_node9"><a xlink:href="../../d0/de4/namespacematrix.html#a761295febb473ca1226309513533e801" target="_top" xlink:title="matrix::sin">
<polygon fill="#ffffff" stroke="#000000" points="433.5,-152.5 433.5,-171.5 495.5,-171.5 495.5,-152.5 433.5,-152.5"/>
<text text-anchor="middle" x="464.5" y="-159.5" font-family="Helvetica,sans-Serif" font-size="10.00" fill="#000000">matrix::sin</text>
</a>
</g>
</g>
<!-- Node245&#45;&gt;Node250 -->
<g id="edge12" class="edge">
<title>Node245&#45;&gt;Node250</title>
<path fill="none" stroke="#191970" d="M268.2463,-127.7626C304.5289,-130.6388 351.6659,-135.4283 393,-143 403.0438,-144.8399 413.7449,-147.3694 423.7264,-149.9827"/>
<polygon fill="#191970" stroke="#191970" points="422.8503,-153.3714 433.4171,-152.6016 424.6765,-146.6138 422.8503,-153.3714"/>
</g>
<!-- Node251 -->
<g id="node10" class="node">
<title>Node251</title>
<g id="a_node10"><a xlink:href="../../dd/d47/namespacemath.html#afa4c38bf29632e844290514731913caa" target="_top" xlink:title="math::degrees">
<polygon fill="#ffffff" stroke="#000000" points="309,-76.5 309,-95.5 388,-95.5 388,-76.5 309,-76.5"/>
<text text-anchor="middle" x="348.5" y="-83.5" font-family="Helvetica,sans-Serif" font-size="10.00" fill="#000000">math::degrees</text>
</a>
</g>
</g>
<!-- Node245&#45;&gt;Node251 -->
<g id="edge10" class="edge">
<title>Node245&#45;&gt;Node251</title>
<path fill="none" stroke="#191970" d="M263.8317,-108.9814C276.9789,-105.4129 290.849,-101.6481 303.4721,-98.2219"/>
<polygon fill="#191970" stroke="#191970" points="304.5567,-101.5542 313.2907,-95.5568 302.723,-94.7986 304.5567,-101.5542"/>
</g>
<!-- Node252 -->
<g id="node11" class="node">
<title>Node252</title>
<g id="a_node11"><a xlink:href="../../dd/d47/namespacemath.html#a7e34369248d5d1565073dc552dd90d5c" target="_top" xlink:title="math::radians">
<polygon fill="#ffffff" stroke="#000000" points="310.5,-38.5 310.5,-57.5 386.5,-57.5 386.5,-38.5 310.5,-38.5"/>
<text text-anchor="middle" x="348.5" y="-45.5" font-family="Helvetica,sans-Serif" font-size="10.00" fill="#000000">math::radians</text>
</a>
</g>
</g>
<!-- Node245&#45;&gt;Node252 -->
<g id="edge11" class="edge">
<title>Node245&#45;&gt;Node252</title>
<path fill="none" stroke="#191970" d="M231.9389,-108.8016C250.9705,-96.7586 278.7047,-79.8753 304,-67 307.521,-65.2078 311.2502,-63.4329 314.9922,-61.7293"/>
<polygon fill="#191970" stroke="#191970" points="316.4666,-64.9045 324.2094,-57.6726 313.6467,-58.4976 316.4666,-64.9045"/>
</g>
<!-- Node253 -->
<g id="node12" class="node">
<title>Node253</title>
<g id="a_node12"><a xlink:href="../../d0/de4/namespacematrix.html#a8eee4e5c87c7b1ade2c232012d215641" target="_top" xlink:title="Wrap value in range [0, 2π) ">
<polygon fill="#ffffff" stroke="#000000" points="304,-.5 304,-19.5 393,-19.5 393,-.5 304,-.5"/>
<text text-anchor="middle" x="348.5" y="-7.5" font-family="Helvetica,sans-Serif" font-size="10.00" fill="#000000">matrix::wrap_2pi</text>
</a>
</g>
</g>
<!-- Node245&#45;&gt;Node253 -->
<g id="edge13" class="edge">
<title>Node245&#45;&gt;Node253</title>
<path fill="none" stroke="#191970" d="M220.651,-108.7068C237.5308,-88.282 269.8712,-52.0074 304,-29 306.5642,-27.2714 309.3111,-25.6471 312.1351,-24.1328"/>
<polygon fill="#191970" stroke="#191970" points="313.8289,-27.201 321.2888,-19.6776 310.7655,-20.9069 313.8289,-27.201"/>
</g>
<!-- Node247 -->
<g id="node6" class="node">
<title>Node247</title>
<g id="a_node6"><a xlink:href="../../d0/de4/namespacematrix.html#a3fd7237277d21ed856d97c311c0e2db7" target="_top" xlink:title="matrix::sqrt">
<polygon fill="#ffffff" stroke="#000000" points="431.5,-228.5 431.5,-247.5 497.5,-247.5 497.5,-228.5 431.5,-228.5"/>
<text text-anchor="middle" x="464.5" y="-235.5" font-family="Helvetica,sans-Serif" font-size="10.00" fill="#000000">matrix::sqrt</text>
</a>
</g>
</g>
<!-- Node246&#45;&gt;Node247 -->
<g id="edge5" class="edge">
<title>Node246&#45;&gt;Node247</title>
<path fill="none" stroke="#191970" d="M382.6764,-238C394.685,-238 408.3427,-238 421.0129,-238"/>
<polygon fill="#191970" stroke="#191970" points="421.3658,-241.5001 431.3658,-238 421.3658,-234.5001 421.3658,-241.5001"/>
</g>
<!-- Node249&#45;&gt;Node250 -->
<g id="edge8" class="edge">
<title>Node249&#45;&gt;Node250</title>
<path fill="none" stroke="#191970" d="M381.1212,-155.8607C394.1507,-155.1921 409.3088,-155.0725 423.0996,-155.502"/>
<polygon fill="#191970" stroke="#191970" points="423.1812,-159.0085 433.3212,-155.9374 423.4792,-152.0149 423.1812,-159.0085"/>
</g>
<!-- Node250&#45;&gt;Node249 -->
<g id="edge9" class="edge">
<title>Node250&#45;&gt;Node249</title>
<path fill="none" stroke="#191970" d="M433.3212,-168.0626C420.4545,-168.772 405.3295,-168.9323 391.4419,-168.5436"/>
<polygon fill="#191970" stroke="#191970" points="391.2505,-165.0335 381.1212,-168.1393 390.9765,-172.0281 391.2505,-165.0335"/>
</g>
<!-- Node254 -->
<g id="node13" class="node">
<title>Node254</title>
<g id="a_node13"><a xlink:href="../../d0/de4/namespacematrix.html#aa5b19a62b4fa28f9a499ac931ca81c4a" target="_top" xlink:title="Wrap value to stay in range [low, high) ">
<polygon fill="#ffffff" stroke="#000000" points="429,-.5 429,-19.5 500,-19.5 500,-.5 429,-.5"/>
<text text-anchor="middle" x="464.5" y="-7.5" font-family="Helvetica,sans-Serif" font-size="10.00" fill="#000000">matrix::wrap</text>
</a>
</g>
</g>
<!-- Node253&#45;&gt;Node254 -->
<g id="edge14" class="edge">
<title>Node253&#45;&gt;Node254</title>
<path fill="none" stroke="#191970" d="M393.0169,-10C401.4656,-10 410.3184,-10 418.8029,-10"/>
<polygon fill="#191970" stroke="#191970" points="418.9178,-13.5001 428.9177,-10 418.9177,-6.5001 418.9178,-13.5001"/>
</g>
<!-- Node255 -->
<g id="node14" class="node">
<title>Node255</title>
<g id="a_node14"><a xlink:href="../../d0/de4/namespacematrix.html#a89504e6c83cabce5358bb65ee75f07fe" target="_top" xlink:title="matrix::floor">
<polygon fill="#ffffff" stroke="#000000" points="536,-.5 536,-19.5 604,-19.5 604,-.5 536,-.5"/>
<text text-anchor="middle" x="570" y="-7.5" font-family="Helvetica,sans-Serif" font-size="10.00" fill="#000000">matrix::floor</text>
</a>
</g>
</g>
<!-- Node254&#45;&gt;Node255 -->
<g id="edge15" class="edge">
<title>Node254&#45;&gt;Node255</title>
<path fill="none" stroke="#191970" d="M500.2175,-10C508.3772,-10 517.146,-10 525.6192,-10"/>
<polygon fill="#191970" stroke="#191970" points="525.7472,-13.5001 535.7472,-10 525.7471,-6.5001 525.7472,-13.5001"/>
</g>
</g>
</svg>
