<?xml version="1.0" encoding="UTF-8" standalone="no"?>
<!DOCTYPE svg PUBLIC "-//W3C//DTD SVG 1.1//EN"
 "http://www.w3.org/Graphics/SVG/1.1/DTD/svg11.dtd">
<!-- Generated by graphviz version 2.38.0 (20140413.2041)
 -->
<!-- Title: ellipsoid_fit_least_squares Pages: 1 -->
<!--zoomable 142 -->
<svg id="main" version="1.1" xmlns="http://www.w3.org/2000/svg" xmlns:xlink="http://www.w3.org/1999/xlink" xml:space="preserve" onload="init(evt)">
<style type="text/css"><![CDATA[
.edge:hover path { stroke: red; }
.edge:hover polygon { stroke: red; fill: red; }
]]></style>
<script type="text/javascript"><![CDATA[
var edges = document.getElementsByTagName('g');
if (edges && edges.length) {
  for (var i=0;i<edges.length;i++) {
    if (edges[i].id.substr(0,4)=='edge') {
      edges[i].setAttribute('class','edge');
    }
  }
}
]]></script>
        <defs>
                <circle id="rim" cx="0" cy="0" r="7"/>
                <circle id="rim2" cx="0" cy="0" r="3.5"/>
                <g id="zoomPlus">
                        <use xlink:href="#rim" fill="#404040">
                                <set attributeName="fill" to="#808080" begin="zoomplus.mouseover" end="zoomplus.mouseout"/>
                        </use>
                        <path d="M-4,0h8M0,-4v8" fill="none" stroke="white" stroke-width="1.5" pointer-events="none"/>
                </g>
                <g id="zoomMin">
                        <use xlink:href="#rim" fill="#404040">
                                <set attributeName="fill" to="#808080" begin="zoomminus.mouseover" end="zoomminus.mouseout"/>
                        </use>
                        <path d="M-4,0h8" fill="none" stroke="white" stroke-width="1.5" pointer-events="none"/>
                </g>
                <g id="dirArrow">
                        <path fill="none" stroke="white" stroke-width="1.5" d="M0,-3.0v7 M-2.5,-0.5L0,-3.0L2.5,-0.5"/>
                </g>
               <g id="resetDef">
                       <use xlink:href="#rim2" fill="#404040">
                               <set attributeName="fill" to="#808080" begin="reset.mouseover" end="reset.mouseout"/>
                       </use>
               </g>
        </defs>

<script type="text/javascript">
var viewWidth = 702;
var viewHeight = 142;
var sectionId = 'dynsection-12';
</script>
<script xlink:href="../../svgpan.js"/>
<svg id="graph" class="graph">
<g id="viewport">
<title>ellipsoid_fit_least_squares</title>
<polygon fill="white" stroke="none" points="-4,4 -4,-138 698,-138 698,4 -4,4"/>
<!-- Node1 -->
<g id="node1" class="node"><title>Node1</title>
<polygon fill="#bfbfbf" stroke="black" points="0,-33 0,-63 92,-63 92,-33 0,-33"/>
<text text-anchor="start" x="8" y="-51" font-family="Helvetica,sans-Serif" font-size="10.00">ellipsoid_fit_least</text>
<text text-anchor="middle" x="46" y="-40" font-family="Helvetica,sans-Serif" font-size="10.00">_squares</text>
</g>
<!-- Node2 -->
<g id="node2" class="node"><title>Node2</title>
<g id="a_node2"><a xlink:href="../../d0/d5a/calibration__routines_8cpp.html#a952e8c554c5abab172ed93cc60a6f0e1" target="_top" xlink:title="run_lm_ellipsoid_fit">
<polygon fill="white" stroke="black" points="128,-57.5 128,-76.5 228,-76.5 228,-57.5 128,-57.5"/>
<text text-anchor="middle" x="178" y="-64.5" font-family="Helvetica,sans-Serif" font-size="10.00">run_lm_ellipsoid_fit</text>
</a>
</g>
</g>
<!-- Node1&#45;&gt;Node2 -->
<g id="edge1" class="edge"><title>Node1&#45;&gt;Node2</title>
<path fill="none" stroke="midnightblue" d="M92.1029,-54.592C100.431,-55.8091 109.241,-57.0968 117.91,-58.3638"/>
<polygon fill="midnightblue" stroke="midnightblue" points="117.583,-61.8531 127.984,-59.8362 118.596,-54.9267 117.583,-61.8531"/>
</g>
<!-- Node11 -->
<g id="node11" class="node"><title>Node11</title>
<g id="a_node11"><a xlink:href="../../d0/d5a/calibration__routines_8cpp.html#a0b331b37a66c57fe327b1552b9ce224e" target="_top" xlink:title="run_lm_sphere_fit">
<polygon fill="white" stroke="black" points="131,-19.5 131,-38.5 225,-38.5 225,-19.5 131,-19.5"/>
<text text-anchor="middle" x="178" y="-26.5" font-family="Helvetica,sans-Serif" font-size="10.00">run_lm_sphere_fit</text>
</a>
</g>
</g>
<!-- Node1&#45;&gt;Node11 -->
<g id="edge11" class="edge"><title>Node1&#45;&gt;Node11</title>
<path fill="none" stroke="midnightblue" d="M92.1029,-41.408C101.258,-40.07 110.996,-38.6467 120.489,-37.2593"/>
<polygon fill="midnightblue" stroke="midnightblue" points="121.265,-40.6832 130.653,-35.7737 120.252,-33.7568 121.265,-40.6832"/>
</g>
<!-- Node3 -->
<g id="node3" class="node"><title>Node3</title>
<g id="a_node3"><a xlink:href="../../dd/dcf/matrix__alg_8cpp.html#a8ca621302d8b4d1daea50380cf715014" target="_top" xlink:title="mat_inverse">
<polygon fill="white" stroke="black" points="287,-57.5 287,-76.5 357,-76.5 357,-57.5 287,-57.5"/>
<text text-anchor="middle" x="322" y="-64.5" font-family="Helvetica,sans-Serif" font-size="10.00">mat_inverse</text>
</a>
</g>
</g>
<!-- Node2&#45;&gt;Node3 -->
<g id="edge2" class="edge"><title>Node2&#45;&gt;Node3</title>
<path fill="none" stroke="midnightblue" d="M228.266,-67C243.886,-67 261.06,-67 276.337,-67"/>
<polygon fill="midnightblue" stroke="midnightblue" points="276.569,-70.5001 286.569,-67 276.569,-63.5001 276.569,-70.5001"/>
</g>
<!-- Node4 -->
<g id="node4" class="node"><title>Node4</title>
<g id="a_node4"><a xlink:href="../../dd/dcf/matrix__alg_8cpp.html#a5f5a54d345886bbaf464910d3a1cf139" target="_top" xlink:title="mat_back_sub">
<polygon fill="white" stroke="black" points="429.5,-114.5 429.5,-133.5 509.5,-133.5 509.5,-114.5 429.5,-114.5"/>
<text text-anchor="middle" x="469.5" y="-121.5" font-family="Helvetica,sans-Serif" font-size="10.00">mat_back_sub</text>
</a>
</g>
</g>
<!-- Node3&#45;&gt;Node4 -->
<g id="edge3" class="edge"><title>Node3&#45;&gt;Node4</title>
<path fill="none" stroke="midnightblue" d="M345.828,-76.6303C364.591,-84.4726 391.911,-95.7239 416,-105 421.145,-106.981 426.595,-109.02 431.961,-110.993"/>
<polygon fill="midnightblue" stroke="midnightblue" points="430.85,-114.313 441.444,-114.446 433.245,-107.735 430.85,-114.313"/>
</g>
<!-- Node5 -->
<g id="node5" class="node"><title>Node5</title>
<g id="a_node5"><a xlink:href="../../dd/dcf/matrix__alg_8cpp.html#ae99d89fadc41e4ff699c74822490a71e" target="_top" xlink:title="mat_forward_sub">
<polygon fill="white" stroke="black" points="423.5,-76.5 423.5,-95.5 515.5,-95.5 515.5,-76.5 423.5,-76.5"/>
<text text-anchor="middle" x="469.5" y="-83.5" font-family="Helvetica,sans-Serif" font-size="10.00">mat_forward_sub</text>
</a>
</g>
</g>
<!-- Node3&#45;&gt;Node5 -->
<g id="edge4" class="edge"><title>Node3&#45;&gt;Node5</title>
<path fill="none" stroke="midnightblue" d="M357.113,-71.4547C373.845,-73.6396 394.418,-76.326 413.31,-78.7931"/>
<polygon fill="midnightblue" stroke="midnightblue" points="412.933,-82.2734 423.302,-80.0978 413.839,-75.3323 412.933,-82.2734"/>
</g>
<!-- Node6 -->
<g id="node6" class="node"><title>Node6</title>
<g id="a_node6"><a xlink:href="../../dd/dcf/matrix__alg_8cpp.html#a71120309d433abdf23de6c2d78440b1c" target="_top" xlink:title="mat_LU_decompose">
<polygon fill="white" stroke="black" points="416,-0.5 416,-19.5 523,-19.5 523,-0.5 416,-0.5"/>
<text text-anchor="middle" x="469.5" y="-7.5" font-family="Helvetica,sans-Serif" font-size="10.00">mat_LU_decompose</text>
</a>
</g>
</g>
<!-- Node3&#45;&gt;Node6 -->
<g id="edge5" class="edge"><title>Node3&#45;&gt;Node6</title>
<path fill="none" stroke="midnightblue" d="M353.34,-57.4103C362.005,-54.5306 371.421,-51.2651 380,-48 399.595,-40.5422 421.227,-31.2735 438.199,-23.7572"/>
<polygon fill="midnightblue" stroke="midnightblue" points="439.897,-26.8323 447.603,-19.5611 437.044,-20.4398 439.897,-26.8323"/>
</g>
<!-- Node7 -->
<g id="node7" class="node"><title>Node7</title>
<g id="a_node7"><a xlink:href="../../dd/dcf/matrix__alg_8cpp.html#a9e2d939e8250f6c633d3b87661b04d45" target="_top" xlink:title="mat_mul">
<polygon fill="white" stroke="black" points="561.5,-38.5 561.5,-57.5 615.5,-57.5 615.5,-38.5 561.5,-38.5"/>
<text text-anchor="middle" x="588.5" y="-45.5" font-family="Helvetica,sans-Serif" font-size="10.00">mat_mul</text>
</a>
</g>
</g>
<!-- Node3&#45;&gt;Node7 -->
<g id="edge10" class="edge"><title>Node3&#45;&gt;Node7</title>
<path fill="none" stroke="midnightblue" d="M357.037,-64.555C407.031,-60.9637 499.923,-54.291 551.185,-50.6086"/>
<polygon fill="midnightblue" stroke="midnightblue" points="551.436,-54.0997 561.159,-49.8921 550.934,-47.1177 551.436,-54.0997"/>
</g>
<!-- Node6&#45;&gt;Node7 -->
<g id="edge6" class="edge"><title>Node6&#45;&gt;Node7</title>
<path fill="none" stroke="midnightblue" d="M500.024,-19.589C515.609,-24.6508 534.864,-30.9047 551.339,-36.2553"/>
<polygon fill="midnightblue" stroke="midnightblue" points="550.587,-39.6911 561.179,-39.4513 552.749,-33.0334 550.587,-39.6911"/>
</g>
<!-- Node9 -->
<g id="node9" class="node"><title>Node9</title>
<g id="a_node9"><a xlink:href="../../dd/dcf/matrix__alg_8cpp.html#a7a49fc8b7a650e05045994ffba7c1dbc" target="_top" xlink:title="mat_pivot">
<polygon fill="white" stroke="black" points="559,-0.5 559,-19.5 618,-19.5 618,-0.5 559,-0.5"/>
<text text-anchor="middle" x="588.5" y="-7.5" font-family="Helvetica,sans-Serif" font-size="10.00">mat_pivot</text>
</a>
</g>
</g>
<!-- Node6&#45;&gt;Node9 -->
<g id="edge8" class="edge"><title>Node6&#45;&gt;Node9</title>
<path fill="none" stroke="midnightblue" d="M523.181,-10C531.796,-10 540.581,-10 548.778,-10"/>
<polygon fill="midnightblue" stroke="midnightblue" points="548.791,-13.5001 558.791,-10 548.791,-6.5001 548.791,-13.5001"/>
</g>
<!-- Node8 -->
<g id="node8" class="node"><title>Node8</title>
<g id="a_node8"><a xlink:href="../../d8/da1/integration_8cpp.html#af5ba872dd09316732300733cc164ac1a" target="_top" xlink:title="f">
<polygon fill="white" stroke="black" points="659.5,-38.5 659.5,-57.5 688.5,-57.5 688.5,-38.5 659.5,-38.5"/>
<text text-anchor="middle" x="674" y="-45.5" font-family="Helvetica,sans-Serif" font-size="10.00">f</text>
</a>
</g>
</g>
<!-- Node7&#45;&gt;Node8 -->
<g id="edge7" class="edge"><title>Node7&#45;&gt;Node8</title>
<path fill="none" stroke="midnightblue" d="M615.92,-48C626.558,-48 638.739,-48 649.108,-48"/>
<polygon fill="midnightblue" stroke="midnightblue" points="649.118,-51.5001 659.118,-48 649.118,-44.5001 649.118,-51.5001"/>
</g>
<!-- Node10 -->
<g id="node10" class="node"><title>Node10</title>
<g id="a_node10"><a xlink:href="../../dd/dcf/matrix__alg_8cpp.html#a4ae7bd9da0bae1b05a7c352df26008ff" target="_top" xlink:title="swap">
<polygon fill="white" stroke="black" points="654,-0.5 654,-19.5 694,-19.5 694,-0.5 654,-0.5"/>
<text text-anchor="middle" x="674" y="-7.5" font-family="Helvetica,sans-Serif" font-size="10.00">swap</text>
</a>
</g>
</g>
<!-- Node9&#45;&gt;Node10 -->
<g id="edge9" class="edge"><title>Node9&#45;&gt;Node10</title>
<path fill="none" stroke="midnightblue" d="M618.236,-10C626.528,-10 635.582,-10 643.897,-10"/>
<polygon fill="midnightblue" stroke="midnightblue" points="643.92,-13.5001 653.92,-10 643.92,-6.5001 643.92,-13.5001"/>
</g>
<!-- Node12 -->
<g id="node12" class="node"><title>Node12</title>
<g id="a_node12"><a xlink:href="../../d4/d6e/classmatrix_1_1_square_matrix.html#abe78f4985a837de8ddd9c54fee82c1ab" target="_top" xlink:title="matrix::SquareMatrix::I">
<polygon fill="white" stroke="black" points="264,-19.5 264,-38.5 380,-38.5 380,-19.5 264,-19.5"/>
<text text-anchor="middle" x="322" y="-26.5" font-family="Helvetica,sans-Serif" font-size="10.00">matrix::SquareMatrix::I</text>
</a>
</g>
</g>
<!-- Node11&#45;&gt;Node12 -->
<g id="edge12" class="edge"><title>Node11&#45;&gt;Node12</title>
<path fill="none" stroke="midnightblue" d="M225.103,-29C234.299,-29 244.133,-29 253.87,-29"/>
<polygon fill="midnightblue" stroke="midnightblue" points="253.95,-32.5001 263.95,-29 253.95,-25.5001 253.95,-32.5001"/>
</g>
</g>
</svg>
        <g id="navigator" transform="translate(0 0)" fill="#404254">
                <rect fill="#f2f5e9" fill-opacity="0.5" stroke="#606060" stroke-width=".5" x="0" y="0" width="60" height="60"/>
                <use id="zoomplus" xlink:href="#zoomPlus" x="17" y="9" onmousedown="handleZoom(evt,'in')"/>
                <use id="zoomminus" xlink:href="#zoomMin" x="42" y="9" onmousedown="handleZoom(evt,'out')"/>
                <use id="reset" xlink:href="#resetDef" x="30" y="36" onmousedown="handleReset()"/>
                <g id="arrowUp" xlink:href="#dirArrow" transform="translate(30 24)" onmousedown="handlePan(0,-1)">
                  <use xlink:href="#rim" fill="#404040">
                        <set attributeName="fill" to="#808080" begin="arrowUp.mouseover" end="arrowUp.mouseout"/>
                  </use>
                  <path fill="none" stroke="white" stroke-width="1.5" d="M0,-3.0v7 M-2.5,-0.5L0,-3.0L2.5,-0.5"/>
                </g>
                <g id="arrowRight" xlink:href="#dirArrow" transform="rotate(90) translate(36 -43)" onmousedown="handlePan(1,0)">
                  <use xlink:href="#rim" fill="#404040">
                        <set attributeName="fill" to="#808080" begin="arrowRight.mouseover" end="arrowRight.mouseout"/>
                  </use>
                  <path fill="none" stroke="white" stroke-width="1.5" d="M0,-3.0v7 M-2.5,-0.5L0,-3.0L2.5,-0.5"/>
                </g>
                <g id="arrowDown" xlink:href="#dirArrow" transform="rotate(180) translate(-30 -48)" onmousedown="handlePan(0,1)">
                  <use xlink:href="#rim" fill="#404040">
                        <set attributeName="fill" to="#808080" begin="arrowDown.mouseover" end="arrowDown.mouseout"/>
                  </use>
                  <path fill="none" stroke="white" stroke-width="1.5" d="M0,-3.0v7 M-2.5,-0.5L0,-3.0L2.5,-0.5"/>
                </g>
                <g id="arrowLeft" xlink:href="#dirArrow" transform="rotate(270) translate(-36 17)" onmousedown="handlePan(-1,0)">
                  <use xlink:href="#rim" fill="#404040">
                        <set attributeName="fill" to="#808080" begin="arrowLeft.mouseover" end="arrowLeft.mouseout"/>
                  </use>
                  <path fill="none" stroke="white" stroke-width="1.5" d="M0,-3.0v7 M-2.5,-0.5L0,-3.0L2.5,-0.5"/>
                </g>
        </g>
        <svg viewBox="0 0 15 15" width="100%" height="30px" preserveAspectRatio="xMaxYMin meet">
         <g id="arrow_out" transform="scale(0.3 0.3)">
          <a xlink:href="calibration__routines_8h_a0dee154570febce6c7f20f810536ea62_cgraph_org.svg" target="_base">
           <rect id="button" ry="5" rx="5" y="6" x="6" height="38" width="38"
                fill="#f2f5e9" fill-opacity="0.5" stroke="#606060" stroke-width="1.0"/>
           <path id="arrow"
             d="M 11.500037,31.436501 C 11.940474,20.09759 22.043105,11.32322 32.158766,21.979434 L 37.068811,17.246167 C 37.068811,17.246167 37.088388,32 37.088388,32 L 22.160133,31.978069 C 22.160133,31.978069 26.997745,27.140456 26.997745,27.140456 C 18.528582,18.264221 13.291696,25.230495 11.500037,31.436501 z"
             style="fill:#404040;"/>
          </a>
         </g>
        </svg>
</svg>
