<?xml version="1.0" encoding="UTF-8" standalone="no"?>
<!DOCTYPE svg PUBLIC "-//W3C//DTD SVG 1.1//EN"
 "http://www.w3.org/Graphics/SVG/1.1/DTD/svg11.dtd">
<!-- Generated by graphviz version 2.38.0 (20140413.2041)
 -->
<!-- Title: calibrate_cancel_check Pages: 1 -->
<!--zoomable 539 -->
<svg id="main" version="1.1" xmlns="http://www.w3.org/2000/svg" xmlns:xlink="http://www.w3.org/1999/xlink" xml:space="preserve" onload="init(evt)">
<style type="text/css"><![CDATA[
.edge:hover path { stroke: red; }
.edge:hover polygon { stroke: red; fill: red; }
]]></style>
<script type="text/javascript"><![CDATA[
var edges = document.getElementsByTagName('g');
if (edges && edges.length) {
  for (var i=0;i<edges.length;i++) {
    if (edges[i].id.substr(0,4)=='edge') {
      edges[i].setAttribute('class','edge');
    }
  }
}
]]></script>
        <defs>
                <circle id="rim" cx="0" cy="0" r="7"/>
                <circle id="rim2" cx="0" cy="0" r="3.5"/>
                <g id="zoomPlus">
                        <use xlink:href="#rim" fill="#404040">
                                <set attributeName="fill" to="#808080" begin="zoomplus.mouseover" end="zoomplus.mouseout"/>
                        </use>
                        <path d="M-4,0h8M0,-4v8" fill="none" stroke="white" stroke-width="1.5" pointer-events="none"/>
                </g>
                <g id="zoomMin">
                        <use xlink:href="#rim" fill="#404040">
                                <set attributeName="fill" to="#808080" begin="zoomminus.mouseover" end="zoomminus.mouseout"/>
                        </use>
                        <path d="M-4,0h8" fill="none" stroke="white" stroke-width="1.5" pointer-events="none"/>
                </g>
                <g id="dirArrow">
                        <path fill="none" stroke="white" stroke-width="1.5" d="M0,-3.0v7 M-2.5,-0.5L0,-3.0L2.5,-0.5"/>
                </g>
               <g id="resetDef">
                       <use xlink:href="#rim2" fill="#404040">
                               <set attributeName="fill" to="#808080" begin="reset.mouseover" end="reset.mouseout"/>
                       </use>
               </g>
        </defs>

<script type="text/javascript">
var viewWidth = 1790;
var viewHeight = 539;
var sectionId = 'dynsection-1';
</script>
<script xlink:href="../../svgpan.js"/>
<svg id="graph" class="graph">
<g id="viewport">
<title>calibrate_cancel_check</title>
<polygon fill="white" stroke="none" points="-4,4 -4,-534.86 1786,-534.86 1786,4 -4,4"/>
<!-- Node1 -->
<g id="node1" class="node"><title>Node1</title>
<polygon fill="#bfbfbf" stroke="black" points="0,-178.36 0,-197.36 119,-197.36 119,-178.36 0,-178.36"/>
<text text-anchor="middle" x="59.5" y="-185.36" font-family="Helvetica,sans-Serif" font-size="10.00">calibrate_cancel_check</text>
</g>
<!-- Node2 -->
<g id="node2" class="node"><title>Node2</title>
<g id="a_node2"><a xlink:href="../../d0/d5a/calibration__routines_8cpp.html#a4ed47af7b5676ef2d10df342e47ed78e" target="_top" xlink:title="calibrate_answer_command">
<polygon fill="white" stroke="black" points="155,-260.36 155,-279.36 293,-279.36 293,-260.36 155,-260.36"/>
<text text-anchor="middle" x="224" y="-267.36" font-family="Helvetica,sans-Serif" font-size="10.00">calibrate_answer_command</text>
</a>
</g>
</g>
<!-- Node1&#45;&gt;Node2 -->
<g id="edge1" class="edge"><title>Node1&#45;&gt;Node2</title>
<path fill="none" stroke="midnightblue" d="M79.4588,-197.427C107.958,-211.808 162.009,-239.083 195.04,-255.751"/>
<polygon fill="midnightblue" stroke="midnightblue" points="193.657,-258.973 204.162,-260.354 196.811,-252.724 193.657,-258.973"/>
</g>
<!-- Node24 -->
<g id="node24" class="node"><title>Node24</title>
<g id="a_node24"><a xlink:href="../../d9/d97/u_o_r_b_8cpp.html#a2c09f842c44c64a06bcfe7a921f63cdf" target="_top" xlink:title="orb_copy">
<polygon fill="white" stroke="black" points="924,-178.36 924,-197.36 980,-197.36 980,-178.36 924,-178.36"/>
<text text-anchor="middle" x="952" y="-185.36" font-family="Helvetica,sans-Serif" font-size="10.00">orb_copy</text>
</a>
</g>
</g>
<!-- Node1&#45;&gt;Node24 -->
<g id="edge31" class="edge"><title>Node1&#45;&gt;Node24</title>
<path fill="none" stroke="midnightblue" d="M119.124,-187.86C182.657,-187.86 287.023,-187.86 377,-187.86 377,-187.86 377,-187.86 671,-187.86 758.044,-187.86 860.31,-187.86 913.917,-187.86"/>
<polygon fill="midnightblue" stroke="midnightblue" points="913.97,-191.36 923.97,-187.86 913.97,-184.36 913.97,-191.36"/>
</g>
<!-- Node29 -->
<g id="node29" class="node"><title>Node29</title>
<g id="a_node29"><a xlink:href="../../da/dc9/posix_2cdev__platform_8cpp.html#ab58015a6dcb46cf377c9091677cd4417" target="_top" xlink:title="px4_poll">
<polygon fill="white" stroke="black" points="197.5,-68.3598 197.5,-87.3598 250.5,-87.3598 250.5,-68.3598 197.5,-68.3598"/>
<text text-anchor="middle" x="224" y="-75.3598" font-family="Helvetica,sans-Serif" font-size="10.00">px4_poll</text>
</a>
</g>
</g>
<!-- Node1&#45;&gt;Node29 -->
<g id="edge39" class="edge"><title>Node1&#45;&gt;Node29</title>
<path fill="none" stroke="midnightblue" d="M74.6365,-178.29C102.848,-159.193 166.343,-116.212 200.401,-93.1574"/>
<polygon fill="midnightblue" stroke="midnightblue" points="202.461,-95.9895 208.78,-87.4854 198.537,-90.1927 202.461,-95.9895"/>
</g>
<!-- Node3 -->
<g id="node3" class="node"><title>Node3</title>
<g id="a_node3"><a xlink:href="../../df/d08/commander__helper_8cpp.html#a95b47dab68ab6fcdd951fb1b9dfc64b8" target="_top" xlink:title="Blink red LED and play negative tune (if use_buzzer == true). ">
<polygon fill="white" stroke="black" points="339.5,-260.36 339.5,-279.36 416.5,-279.36 416.5,-260.36 339.5,-260.36"/>
<text text-anchor="middle" x="378" y="-267.36" font-family="Helvetica,sans-Serif" font-size="10.00">tune_negative</text>
</a>
</g>
</g>
<!-- Node2&#45;&gt;Node3 -->
<g id="edge2" class="edge"><title>Node2&#45;&gt;Node3</title>
<path fill="none" stroke="midnightblue" d="M293.441,-269.86C305.507,-269.86 317.829,-269.86 329.176,-269.86"/>
<polygon fill="midnightblue" stroke="midnightblue" points="329.287,-273.36 339.287,-269.86 329.287,-266.36 329.287,-273.36"/>
</g>
<!-- Node23 -->
<g id="node23" class="node"><title>Node23</title>
<g id="a_node23"><a xlink:href="../../df/d08/commander__helper_8cpp.html#a24e135bf6ba98c55a652feab03293aa7" target="_top" xlink:title="Blink green LED and play positive tune (if use_buzzer == true). ">
<polygon fill="white" stroke="black" points="341,-298.36 341,-317.36 415,-317.36 415,-298.36 341,-298.36"/>
<text text-anchor="middle" x="378" y="-305.36" font-family="Helvetica,sans-Serif" font-size="10.00">tune_positive</text>
</a>
</g>
</g>
<!-- Node2&#45;&gt;Node23 -->
<g id="edge27" class="edge"><title>Node2&#45;&gt;Node23</title>
<path fill="none" stroke="midnightblue" d="M263.356,-279.449C283.855,-284.574 309.243,-290.92 330.819,-296.315"/>
<polygon fill="midnightblue" stroke="midnightblue" points="330.199,-299.767 340.749,-298.797 331.897,-292.976 330.199,-299.767"/>
</g>
<!-- Node4 -->
<g id="node4" class="node"><title>Node4</title>
<g id="a_node4"><a xlink:href="../../d6/d10/drv__hrt_8h.html#a1450e339b7c5b8d47656500167a6676d" target="_top" xlink:title="Get absolute time in [us] (does not wrap). ">
<polygon fill="white" stroke="black" points="1254.5,-385.36 1254.5,-404.36 1348.5,-404.36 1348.5,-385.36 1254.5,-385.36"/>
<text text-anchor="middle" x="1301.5" y="-392.36" font-family="Helvetica,sans-Serif" font-size="10.00">hrt_absolute_time</text>
</a>
</g>
</g>
<!-- Node3&#45;&gt;Node4 -->
<g id="edge3" class="edge"><title>Node3&#45;&gt;Node4</title>
<path fill="none" stroke="midnightblue" d="M416.725,-260.421C471.794,-247.492 577.592,-225.86 669,-225.86 669,-225.86 669,-225.86 953,-225.86 1067.72,-225.86 1112.38,-189.608 1210,-249.86 1216.23,-253.705 1266.64,-337.804 1289.41,-376.128"/>
<polygon fill="midnightblue" stroke="midnightblue" points="1286.69,-378.4 1294.8,-385.216 1292.71,-374.829 1286.69,-378.4"/>
</g>
<!-- Node5 -->
<g id="node5" class="node"><title>Node5</title>
<g id="a_node5"><a xlink:href="../../df/d08/commander__helper_8cpp.html#a305f75480edf19f6dccc6ea8bf7c46d5" target="_top" xlink:title="rgbled_set_color_and_mode">
<polygon fill="white" stroke="black" points="463,-298.36 463,-317.36 601,-317.36 601,-298.36 463,-298.36"/>
<text text-anchor="middle" x="532" y="-305.36" font-family="Helvetica,sans-Serif" font-size="10.00">rgbled_set_color_and_mode</text>
</a>
</g>
</g>
<!-- Node3&#45;&gt;Node5 -->
<g id="edge4" class="edge"><title>Node3&#45;&gt;Node5</title>
<path fill="none" stroke="midnightblue" d="M416.573,-279.253C436.609,-284.262 461.48,-290.48 482.912,-295.838"/>
<polygon fill="midnightblue" stroke="midnightblue" points="482.253,-299.281 492.803,-298.311 483.951,-292.49 482.253,-299.281"/>
</g>
<!-- Node22 -->
<g id="node22" class="node"><title>Node22</title>
<g id="a_node22"><a xlink:href="../../df/d08/commander__helper_8cpp.html#a85bd5445469c33c209c0947ec5050d67" target="_top" xlink:title="set_tune">
<polygon fill="white" stroke="black" points="505,-260.36 505,-279.36 559,-279.36 559,-260.36 505,-260.36"/>
<text text-anchor="middle" x="532" y="-267.36" font-family="Helvetica,sans-Serif" font-size="10.00">set_tune</text>
</a>
</g>
</g>
<!-- Node3&#45;&gt;Node22 -->
<g id="edge24" class="edge"><title>Node3&#45;&gt;Node22</title>
<path fill="none" stroke="midnightblue" d="M416.573,-269.86C440.359,-269.86 470.96,-269.86 494.531,-269.86"/>
<polygon fill="midnightblue" stroke="midnightblue" points="494.816,-273.36 504.816,-269.86 494.816,-266.36 494.816,-273.36"/>
</g>
<!-- Node5&#45;&gt;Node4 -->
<g id="edge5" class="edge"><title>Node5&#45;&gt;Node4</title>
<path fill="none" stroke="midnightblue" d="M548.049,-317.462C586.78,-341.224 693.726,-400.86 791.5,-400.86 791.5,-400.86 791.5,-400.86 953,-400.86 1055.73,-400.86 1175.52,-398.206 1244.24,-396.428"/>
<polygon fill="midnightblue" stroke="midnightblue" points="1244.51,-399.922 1254.41,-396.162 1244.32,-392.925 1244.51,-399.922"/>
</g>
<!-- Node6 -->
<g id="node6" class="node"><title>Node6</title>
<g id="a_node6"><a xlink:href="../../d9/d97/u_o_r_b_8cpp.html#af7a143a80b6b04689a3a4890ce8df4ae" target="_top" xlink:title="orb_publish">
<polygon fill="white" stroke="black" points="637,-298.36 637,-317.36 703,-317.36 703,-298.36 637,-298.36"/>
<text text-anchor="middle" x="670" y="-305.36" font-family="Helvetica,sans-Serif" font-size="10.00">orb_publish</text>
</a>
</g>
</g>
<!-- Node5&#45;&gt;Node6 -->
<g id="edge6" class="edge"><title>Node5&#45;&gt;Node6</title>
<path fill="none" stroke="midnightblue" d="M601.398,-307.86C610.045,-307.86 618.683,-307.86 626.753,-307.86"/>
<polygon fill="midnightblue" stroke="midnightblue" points="626.988,-311.36 636.988,-307.86 626.988,-304.36 626.988,-311.36"/>
</g>
<!-- Node7 -->
<g id="node7" class="node"><title>Node7</title>
<g id="a_node7"><a xlink:href="../../d3/da9/classu_o_r_b_1_1_manager.html#a9d829b3ea49d16d03c2fa37ef2bb24a5" target="_top" xlink:title="Method to get the singleton instance for the uORB::Manager. ">
<polygon fill="white" stroke="black" points="1080.5,-292.86 1080.5,-322.86 1187.5,-322.86 1187.5,-292.86 1080.5,-292.86"/>
<text text-anchor="start" x="1088.5" y="-310.86" font-family="Helvetica,sans-Serif" font-size="10.00">uORB::Manager::get</text>
<text text-anchor="middle" x="1134" y="-299.86" font-family="Helvetica,sans-Serif" font-size="10.00">_instance</text>
</a>
</g>
</g>
<!-- Node6&#45;&gt;Node7 -->
<g id="edge7" class="edge"><title>Node6&#45;&gt;Node7</title>
<path fill="none" stroke="midnightblue" d="M703.12,-307.86C778.914,-307.86 970.019,-307.86 1069.93,-307.86"/>
<polygon fill="midnightblue" stroke="midnightblue" points="1070.19,-311.36 1080.19,-307.86 1070.19,-304.36 1070.19,-311.36"/>
</g>
<!-- Node14 -->
<g id="node14" class="node"><title>Node14</title>
<g id="a_node14"><a xlink:href="../../d3/da9/classu_o_r_b_1_1_manager.html#abbe6966f841886ce3003ebc6d2198447" target="_top" xlink:title="Publish new data to a topic. ">
<polygon fill="white" stroke="black" points="739,-337.86 739,-367.86 846,-367.86 846,-337.86 739,-337.86"/>
<text text-anchor="start" x="747" y="-355.86" font-family="Helvetica,sans-Serif" font-size="10.00">uORB::Manager::orb</text>
<text text-anchor="middle" x="792.5" y="-344.86" font-family="Helvetica,sans-Serif" font-size="10.00">_publish</text>
</a>
</g>
</g>
<!-- Node6&#45;&gt;Node14 -->
<g id="edge14" class="edge"><title>Node6&#45;&gt;Node14</title>
<path fill="none" stroke="midnightblue" d="M696.555,-317.403C709.714,-322.317 726.221,-328.482 741.766,-334.287"/>
<polygon fill="midnightblue" stroke="midnightblue" points="740.688,-337.621 751.281,-337.84 743.137,-331.063 740.688,-337.621"/>
</g>
<!-- Node8 -->
<g id="node8" class="node"><title>Node8</title>
<g id="a_node8"><a xlink:href="../../d3/da9/classu_o_r_b_1_1_manager.html#a083331e24ac4f99ac11a0aab1b1681b4" target="_top" xlink:title="Get the DeviceMaster. ">
<polygon fill="white" stroke="black" points="1248,-262.86 1248,-292.86 1355,-292.86 1355,-262.86 1248,-262.86"/>
<text text-anchor="start" x="1256" y="-280.86" font-family="Helvetica,sans-Serif" font-size="10.00">uORB::Manager::get</text>
<text text-anchor="middle" x="1301.5" y="-269.86" font-family="Helvetica,sans-Serif" font-size="10.00">_device_master</text>
</a>
</g>
</g>
<!-- Node7&#45;&gt;Node8 -->
<g id="edge8" class="edge"><title>Node7&#45;&gt;Node8</title>
<path fill="none" stroke="midnightblue" d="M1187.82,-298.285C1203.72,-295.402 1221.33,-292.211 1237.81,-289.224"/>
<polygon fill="midnightblue" stroke="midnightblue" points="1238.68,-292.623 1247.9,-287.395 1237.43,-285.735 1238.68,-292.623"/>
</g>
<!-- Node9 -->
<g id="node9" class="node"><title>Node9</title>
<g id="a_node9"><a xlink:href="../../db/dcf/classdevice_1_1_c_dev.html#a04ad8e5b517724c106e06b45e86a2445" target="_top" xlink:title="Initialise the driver and make it ready for use. ">
<polygon fill="white" stroke="black" points="1396,-238.36 1396,-257.36 1491,-257.36 1491,-238.36 1396,-238.36"/>
<text text-anchor="middle" x="1443.5" y="-245.36" font-family="Helvetica,sans-Serif" font-size="10.00">device::CDev::init</text>
</a>
</g>
</g>
<!-- Node8&#45;&gt;Node9 -->
<g id="edge9" class="edge"><title>Node8&#45;&gt;Node9</title>
<path fill="none" stroke="midnightblue" d="M1355.03,-266.604C1365.84,-264.287 1377.25,-261.843 1388.12,-259.512"/>
<polygon fill="midnightblue" stroke="midnightblue" points="1388.88,-262.929 1397.93,-257.411 1387.42,-256.084 1388.88,-262.929"/>
</g>
<!-- Node10 -->
<g id="node10" class="node"><title>Node10</title>
<g id="a_node10"><a xlink:href="../../dd/dd3/classdevice_1_1_device.html#a88428ba671d9c225504fc2f0aed2a72a" target="_top" xlink:title="Initialise the driver and make it ready for use. ">
<polygon fill="white" stroke="black" points="1530,-200.36 1530,-219.36 1631,-219.36 1631,-200.36 1530,-200.36"/>
<text text-anchor="middle" x="1580.5" y="-207.36" font-family="Helvetica,sans-Serif" font-size="10.00">device::Device::init</text>
</a>
</g>
</g>
<!-- Node9&#45;&gt;Node10 -->
<g id="edge10" class="edge"><title>Node9&#45;&gt;Node10</title>
<path fill="none" stroke="midnightblue" d="M1478.57,-238.271C1495.91,-233.388 1517.2,-227.395 1535.75,-222.175"/>
<polygon fill="midnightblue" stroke="midnightblue" points="1536.77,-225.524 1545.44,-219.446 1534.87,-218.786 1536.77,-225.524"/>
</g>
<!-- Node11 -->
<g id="node11" class="node"><title>Node11</title>
<g id="a_node11"><a xlink:href="../../da/dc9/posix_2cdev__platform_8cpp.html#a4c69ea88a27571245bd4dc9c06a3d18b" target="_top" xlink:title="register_driver">
<polygon fill="white" stroke="black" points="1541.5,-238.36 1541.5,-257.36 1619.5,-257.36 1619.5,-238.36 1541.5,-238.36"/>
<text text-anchor="middle" x="1580.5" y="-245.36" font-family="Helvetica,sans-Serif" font-size="10.00">register_driver</text>
</a>
</g>
</g>
<!-- Node9&#45;&gt;Node11 -->
<g id="edge11" class="edge"><title>Node9&#45;&gt;Node11</title>
<path fill="none" stroke="midnightblue" d="M1491.34,-247.86C1504.2,-247.86 1518.16,-247.86 1531.11,-247.86"/>
<polygon fill="midnightblue" stroke="midnightblue" points="1531.23,-251.36 1541.23,-247.86 1531.23,-244.36 1531.23,-251.36"/>
</g>
<!-- Node12 -->
<g id="node12" class="node"><title>Node12</title>
<g id="a_node12"><a xlink:href="../../d6/dfb/stubs__posix_8c.html#a12809c44718c21544ceb280dc1a53573" target="_top" xlink:title="pthread_mutex_lock">
<polygon fill="white" stroke="black" points="1672.5,-228.36 1672.5,-247.36 1776.5,-247.36 1776.5,-228.36 1672.5,-228.36"/>
<text text-anchor="middle" x="1724.5" y="-235.36" font-family="Helvetica,sans-Serif" font-size="10.00">pthread_mutex_lock</text>
</a>
</g>
</g>
<!-- Node11&#45;&gt;Node12 -->
<g id="edge12" class="edge"><title>Node11&#45;&gt;Node12</title>
<path fill="none" stroke="midnightblue" d="M1619.55,-245.18C1632.58,-244.263 1647.5,-243.212 1661.9,-242.198"/>
<polygon fill="midnightblue" stroke="midnightblue" points="1662.53,-245.663 1672.26,-241.469 1662.03,-238.68 1662.53,-245.663"/>
</g>
<!-- Node13 -->
<g id="node13" class="node"><title>Node13</title>
<g id="a_node13"><a xlink:href="../../d6/dfb/stubs__posix_8c.html#a96184290ffb60e04c53a52869cf960a2" target="_top" xlink:title="pthread_mutex_unlock">
<polygon fill="white" stroke="black" points="1667,-181.36 1667,-200.36 1782,-200.36 1782,-181.36 1667,-181.36"/>
<text text-anchor="middle" x="1724.5" y="-188.36" font-family="Helvetica,sans-Serif" font-size="10.00">pthread_mutex_unlock</text>
</a>
</g>
</g>
<!-- Node11&#45;&gt;Node13 -->
<g id="edge13" class="edge"><title>Node11&#45;&gt;Node13</title>
<path fill="none" stroke="midnightblue" d="M1606.73,-238.307C1614.52,-235.32 1623.13,-231.986 1631,-228.86 1651.15,-220.856 1673.65,-211.618 1691.41,-204.256"/>
<polygon fill="midnightblue" stroke="midnightblue" points="1692.86,-207.446 1700.75,-200.378 1690.17,-200.981 1692.86,-207.446"/>
</g>
<!-- Node15 -->
<g id="node15" class="node"><title>Node15</title>
<g id="a_node15"><a xlink:href="../../d0/d18/classu_o_r_b_1_1_device_node.html#ae715517a1f3a2f361e37d061b59a4560" target="_top" xlink:title="Method to publish a data to this node. ">
<polygon fill="white" stroke="black" points="882,-345.36 882,-364.36 1022,-364.36 1022,-345.36 882,-345.36"/>
<text text-anchor="middle" x="952" y="-352.36" font-family="Helvetica,sans-Serif" font-size="10.00">uORB::DeviceNode::publish</text>
</a>
</g>
</g>
<!-- Node14&#45;&gt;Node15 -->
<g id="edge15" class="edge"><title>Node14&#45;&gt;Node15</title>
<path fill="none" stroke="midnightblue" d="M846.383,-353.531C854.541,-353.635 863.115,-353.744 871.698,-353.853"/>
<polygon fill="midnightblue" stroke="midnightblue" points="871.709,-357.353 881.753,-353.98 871.798,-350.354 871.709,-357.353"/>
</g>
<!-- Node15&#45;&gt;Node7 -->
<g id="edge22" class="edge"><title>Node15&#45;&gt;Node7</title>
<path fill="none" stroke="midnightblue" d="M989.426,-345.349C1012.66,-339.281 1043.4,-331.256 1070.46,-324.189"/>
<polygon fill="midnightblue" stroke="midnightblue" points="1071.46,-327.547 1080.25,-321.634 1069.69,-320.774 1071.46,-327.547"/>
</g>
<!-- Node16 -->
<g id="node16" class="node"><title>Node16</title>
<g id="a_node16"><a xlink:href="../../d0/d18/classu_o_r_b_1_1_device_node.html#abdae2690994dd47cce2b579b3785864f" target="_top" xlink:title="writes the published data to the internal buffer to be read by subscribers later. ...">
<polygon fill="white" stroke="black" points="1068.5,-467.36 1068.5,-486.36 1199.5,-486.36 1199.5,-467.36 1068.5,-467.36"/>
<text text-anchor="middle" x="1134" y="-474.36" font-family="Helvetica,sans-Serif" font-size="10.00">uORB::DeviceNode::write</text>
</a>
</g>
</g>
<!-- Node15&#45;&gt;Node16 -->
<g id="edge16" class="edge"><title>Node15&#45;&gt;Node16</title>
<path fill="none" stroke="midnightblue" d="M967.124,-364.433C998.275,-385.546 1073.08,-436.25 1110.66,-461.72"/>
<polygon fill="midnightblue" stroke="midnightblue" points="1108.7,-464.618 1118.94,-467.331 1112.63,-458.823 1108.7,-464.618"/>
</g>
<!-- Node21 -->
<g id="node21" class="node"><title>Node21</title>
<g id="a_node21"><a xlink:href="../../d9/d8a/classu_o_r_b_communicator_1_1_i_channel.html#a3f4690d7b897f5f568cfed2c31d7b734" target="_top" xlink:title="Sends the data message over the communication link. ">
<polygon fill="white" stroke="black" points="1058,-341.86 1058,-371.86 1210,-371.86 1210,-341.86 1058,-341.86"/>
<text text-anchor="start" x="1066" y="-359.86" font-family="Helvetica,sans-Serif" font-size="10.00">uORBCommunicator::IChannel</text>
<text text-anchor="middle" x="1134" y="-348.86" font-family="Helvetica,sans-Serif" font-size="10.00">::send_message</text>
</a>
</g>
</g>
<!-- Node15&#45;&gt;Node21 -->
<g id="edge23" class="edge"><title>Node15&#45;&gt;Node21</title>
<path fill="none" stroke="midnightblue" d="M1022.08,-355.627C1030.49,-355.721 1039.15,-355.817 1047.76,-355.913"/>
<polygon fill="midnightblue" stroke="midnightblue" points="1047.78,-359.413 1057.82,-356.024 1047.86,-352.413 1047.78,-359.413"/>
</g>
<!-- Node16&#45;&gt;Node4 -->
<g id="edge19" class="edge"><title>Node16&#45;&gt;Node4</title>
<path fill="none" stroke="midnightblue" d="M1177.96,-467.276C1188.91,-463.739 1200.32,-459.033 1210,-452.86 1229.89,-440.179 1226.27,-426.795 1246,-413.86 1249.07,-411.846 1252.38,-410.019 1255.8,-408.367"/>
<polygon fill="midnightblue" stroke="midnightblue" points="1257.21,-411.571 1265,-404.394 1254.43,-405.144 1257.21,-411.571"/>
</g>
<!-- Node17 -->
<g id="node17" class="node"><title>Node17</title>
<g id="a_node17"><a xlink:href="../../db/dcf/classdevice_1_1_c_dev.html#a532f13f26f056bd17931efe7db10260e" target="_top" xlink:title="Take the driver lock. ">
<polygon fill="white" stroke="black" points="1251,-511.36 1251,-530.36 1352,-530.36 1352,-511.36 1251,-511.36"/>
<text text-anchor="middle" x="1301.5" y="-518.36" font-family="Helvetica,sans-Serif" font-size="10.00">device::CDev::lock</text>
</a>
</g>
</g>
<!-- Node16&#45;&gt;Node17 -->
<g id="edge17" class="edge"><title>Node16&#45;&gt;Node17</title>
<path fill="none" stroke="midnightblue" d="M1170.91,-486.407C1195.53,-492.951 1228.39,-501.688 1254.86,-508.725"/>
<polygon fill="midnightblue" stroke="midnightblue" points="1254.1,-512.144 1264.66,-511.331 1255.89,-505.379 1254.1,-512.144"/>
</g>
<!-- Node18 -->
<g id="node18" class="node"><title>Node18</title>
<g id="a_node18"><a xlink:href="../../db/dcf/classdevice_1_1_c_dev.html#af34c341f89cc744e2f327ec01ed5e4dd" target="_top" xlink:title="Release the driver lock. ">
<polygon fill="white" stroke="black" points="1246,-473.36 1246,-492.36 1357,-492.36 1357,-473.36 1246,-473.36"/>
<text text-anchor="middle" x="1301.5" y="-480.36" font-family="Helvetica,sans-Serif" font-size="10.00">device::CDev::unlock</text>
</a>
</g>
</g>
<!-- Node16&#45;&gt;Node18 -->
<g id="edge18" class="edge"><title>Node16&#45;&gt;Node18</title>
<path fill="none" stroke="midnightblue" d="M1199.93,-479.214C1211.7,-479.641 1223.97,-480.085 1235.74,-480.512"/>
<polygon fill="midnightblue" stroke="midnightblue" points="1235.79,-484.016 1245.91,-480.881 1236.05,-477.021 1235.79,-484.016"/>
</g>
<!-- Node19 -->
<g id="node19" class="node"><title>Node19</title>
<g id="a_node19"><a xlink:href="../../db/dcf/classdevice_1_1_c_dev.html#ad40710ea69dbc93561f7b0e3ae3d8435" target="_top" xlink:title="Report new poll events. ">
<polygon fill="white" stroke="black" points="1252.5,-423.86 1252.5,-453.86 1350.5,-453.86 1350.5,-423.86 1252.5,-423.86"/>
<text text-anchor="start" x="1260.5" y="-441.86" font-family="Helvetica,sans-Serif" font-size="10.00">device::CDev::poll</text>
<text text-anchor="middle" x="1301.5" y="-430.86" font-family="Helvetica,sans-Serif" font-size="10.00">_notify</text>
</a>
</g>
</g>
<!-- Node16&#45;&gt;Node19 -->
<g id="edge20" class="edge"><title>Node16&#45;&gt;Node19</title>
<path fill="none" stroke="midnightblue" d="M1176.76,-467.271C1196.69,-462.695 1220.87,-457.144 1242.54,-452.168"/>
<polygon fill="midnightblue" stroke="midnightblue" points="1243.33,-455.577 1252.3,-449.928 1241.77,-448.754 1243.33,-455.577"/>
</g>
<!-- Node20 -->
<g id="node20" class="node"><title>Node20</title>
<g id="a_node20"><a xlink:href="../../db/dcf/classdevice_1_1_c_dev.html#a152b2568dfbe9a096dcc38cca4a15106" target="_top" xlink:title="Internal implementation of poll_notify. ">
<polygon fill="white" stroke="black" points="1394.5,-423.86 1394.5,-453.86 1492.5,-453.86 1492.5,-423.86 1394.5,-423.86"/>
<text text-anchor="start" x="1402.5" y="-441.86" font-family="Helvetica,sans-Serif" font-size="10.00">device::CDev::poll</text>
<text text-anchor="middle" x="1443.5" y="-430.86" font-family="Helvetica,sans-Serif" font-size="10.00">_notify_one</text>
</a>
</g>
</g>
<!-- Node19&#45;&gt;Node20 -->
<g id="edge21" class="edge"><title>Node19&#45;&gt;Node20</title>
<path fill="none" stroke="midnightblue" d="M1350.68,-438.86C1361.46,-438.86 1373.01,-438.86 1384.15,-438.86"/>
<polygon fill="midnightblue" stroke="midnightblue" points="1384.23,-442.36 1394.23,-438.86 1384.23,-435.36 1384.23,-442.36"/>
</g>
<!-- Node22&#45;&gt;Node4 -->
<g id="edge25" class="edge"><title>Node22&#45;&gt;Node4</title>
<path fill="none" stroke="midnightblue" d="M559.046,-268.856C605.66,-267.147 706.432,-263.86 791.5,-263.86 791.5,-263.86 791.5,-263.86 953,-263.86 1067.53,-263.86 1108.54,-229.718 1210,-282.86 1249.49,-303.544 1277.88,-349.759 1291.47,-375.898"/>
<polygon fill="midnightblue" stroke="midnightblue" points="1288.49,-377.761 1296.09,-385.14 1294.75,-374.63 1288.49,-377.761"/>
</g>
<!-- Node22&#45;&gt;Node6 -->
<g id="edge26" class="edge"><title>Node22&#45;&gt;Node6</title>
<path fill="none" stroke="midnightblue" d="M559.222,-277.187C578.366,-282.536 604.722,-289.9 626.811,-296.072"/>
<polygon fill="midnightblue" stroke="midnightblue" points="626.046,-299.492 636.619,-298.812 627.93,-292.75 626.046,-299.492"/>
</g>
<!-- Node23&#45;&gt;Node4 -->
<g id="edge28" class="edge"><title>Node23&#45;&gt;Node4</title>
<path fill="none" stroke="midnightblue" d="M390.572,-317.493C428.133,-347.745 551.05,-438.86 669,-438.86 669,-438.86 669,-438.86 953,-438.86 1067.81,-438.86 1096.46,-429.855 1210,-412.86 1222.01,-411.063 1234.83,-408.752 1246.95,-406.39"/>
<polygon fill="midnightblue" stroke="midnightblue" points="1247.79,-409.79 1256.92,-404.403 1246.43,-402.925 1247.79,-409.79"/>
</g>
<!-- Node23&#45;&gt;Node5 -->
<g id="edge29" class="edge"><title>Node23&#45;&gt;Node5</title>
<path fill="none" stroke="midnightblue" d="M415.022,-307.86C426.425,-307.86 439.507,-307.86 452.681,-307.86"/>
<polygon fill="midnightblue" stroke="midnightblue" points="452.748,-311.36 462.748,-307.86 452.748,-304.36 452.748,-311.36"/>
</g>
<!-- Node23&#45;&gt;Node22 -->
<g id="edge30" class="edge"><title>Node23&#45;&gt;Node22</title>
<path fill="none" stroke="midnightblue" d="M415.022,-298.854C439.142,-292.824 470.773,-284.917 494.908,-278.883"/>
<polygon fill="midnightblue" stroke="midnightblue" points="495.896,-282.244 504.749,-276.423 494.198,-275.453 495.896,-282.244"/>
</g>
<!-- Node24&#45;&gt;Node7 -->
<g id="edge32" class="edge"><title>Node24&#45;&gt;Node7</title>
<path fill="none" stroke="midnightblue" d="M967.426,-197.477C996.51,-216.867 1062.76,-261.03 1102.07,-287.239"/>
<polygon fill="midnightblue" stroke="midnightblue" points="1100.24,-290.225 1110.5,-292.859 1104.12,-284.4 1100.24,-290.225"/>
</g>
<!-- Node25 -->
<g id="node25" class="node"><title>Node25</title>
<g id="a_node25"><a xlink:href="../../d3/da9/classu_o_r_b_1_1_manager.html#af1048c82b439300c706fe0a083b61f90" target="_top" xlink:title="Fetch data from a topic. ">
<polygon fill="white" stroke="black" points="1067.5,-178.36 1067.5,-197.36 1200.5,-197.36 1200.5,-178.36 1067.5,-178.36"/>
<text text-anchor="middle" x="1134" y="-185.36" font-family="Helvetica,sans-Serif" font-size="10.00">uORB::Manager::orb_copy</text>
</a>
</g>
</g>
<!-- Node24&#45;&gt;Node25 -->
<g id="edge33" class="edge"><title>Node24&#45;&gt;Node25</title>
<path fill="none" stroke="midnightblue" d="M980.338,-187.86C1000.74,-187.86 1029.68,-187.86 1056.89,-187.86"/>
<polygon fill="midnightblue" stroke="midnightblue" points="1057.21,-191.36 1067.21,-187.86 1057.21,-184.36 1057.21,-191.36"/>
</g>
<!-- Node26 -->
<g id="node26" class="node"><title>Node26</title>
<g id="a_node26"><a xlink:href="../../da/dc9/posix_2cdev__platform_8cpp.html#a2fc1ca62e376a5c0dd2ad9be1b196afa" target="_top" xlink:title="px4_read">
<polygon fill="white" stroke="black" points="1273.5,-178.36 1273.5,-197.36 1329.5,-197.36 1329.5,-178.36 1273.5,-178.36"/>
<text text-anchor="middle" x="1301.5" y="-185.36" font-family="Helvetica,sans-Serif" font-size="10.00">px4_read</text>
</a>
</g>
</g>
<!-- Node25&#45;&gt;Node26 -->
<g id="edge34" class="edge"><title>Node25&#45;&gt;Node26</title>
<path fill="none" stroke="midnightblue" d="M1200.89,-187.86C1222.08,-187.86 1244.82,-187.86 1263.22,-187.86"/>
<polygon fill="midnightblue" stroke="midnightblue" points="1263.22,-191.36 1273.22,-187.86 1263.22,-184.36 1263.22,-191.36"/>
</g>
<!-- Node27 -->
<g id="node27" class="node"><title>Node27</title>
<g id="a_node27"><a xlink:href="../../da/dc9/posix_2cdev__platform_8cpp.html#a06fbe4d696a8fc67079810478882f8b9" target="_top" xlink:title="get_vdev">
<polygon fill="white" stroke="black" points="1552.5,-162.36 1552.5,-181.36 1608.5,-181.36 1608.5,-162.36 1552.5,-162.36"/>
<text text-anchor="middle" x="1580.5" y="-169.36" font-family="Helvetica,sans-Serif" font-size="10.00">get_vdev</text>
</a>
</g>
</g>
<!-- Node26&#45;&gt;Node27 -->
<g id="edge35" class="edge"><title>Node26&#45;&gt;Node27</title>
<path fill="none" stroke="midnightblue" d="M1329.56,-186.297C1379.31,-183.423 1485.38,-177.297 1542.02,-174.025"/>
<polygon fill="midnightblue" stroke="midnightblue" points="1542.54,-177.5 1552.33,-173.429 1542.14,-170.512 1542.54,-177.5"/>
</g>
<!-- Node28 -->
<g id="node28" class="node"><title>Node28</title>
<g id="a_node28"><a xlink:href="../../db/dcf/classdevice_1_1_c_dev.html#ae56454829799e967eadc8bc87927c21b" target="_top" xlink:title="Perform a read from the device. ">
<polygon fill="white" stroke="black" points="1393,-200.36 1393,-219.36 1494,-219.36 1494,-200.36 1393,-200.36"/>
<text text-anchor="middle" x="1443.5" y="-207.36" font-family="Helvetica,sans-Serif" font-size="10.00">device::CDev::read</text>
</a>
</g>
</g>
<!-- Node26&#45;&gt;Node28 -->
<g id="edge38" class="edge"><title>Node26&#45;&gt;Node28</title>
<path fill="none" stroke="midnightblue" d="M1329.83,-192.154C1344.93,-194.528 1364.33,-197.576 1382.75,-200.471"/>
<polygon fill="midnightblue" stroke="midnightblue" points="1382.44,-203.964 1392.86,-202.059 1383.52,-197.049 1382.44,-203.964"/>
</g>
<!-- Node27&#45;&gt;Node12 -->
<g id="edge36" class="edge"><title>Node27&#45;&gt;Node12</title>
<path fill="none" stroke="midnightblue" d="M1608.2,-181.441C1615.65,-184.296 1623.71,-187.55 1631,-190.86 1647.47,-198.337 1650.89,-201.62 1667,-209.86 1675.95,-214.437 1685.74,-219.331 1694.63,-223.728"/>
<polygon fill="midnightblue" stroke="midnightblue" points="1693.31,-226.981 1703.83,-228.264 1696.41,-220.702 1693.31,-226.981"/>
</g>
<!-- Node27&#45;&gt;Node13 -->
<g id="edge37" class="edge"><title>Node27&#45;&gt;Node13</title>
<path fill="none" stroke="midnightblue" d="M1608.54,-175.478C1622.33,-177.323 1639.77,-179.656 1656.87,-181.944"/>
<polygon fill="midnightblue" stroke="midnightblue" points="1656.49,-185.425 1666.87,-183.282 1657.42,-178.487 1656.49,-185.425"/>
</g>
<!-- Node29&#45;&gt;Node27 -->
<g id="edge40" class="edge"><title>Node29&#45;&gt;Node27</title>
<path fill="none" stroke="midnightblue" d="M238.323,-68.2024C257.368,-54.9652 293.961,-31.6055 329,-20.8598 415.211,5.57942 440.826,-1.85981 531,-1.85981 531,-1.85981 531,-1.85981 1302.5,-1.85981 1418.35,-1.85981 1526.54,-111.205 1564.85,-154.505"/>
<polygon fill="midnightblue" stroke="midnightblue" points="1562.36,-156.977 1571.56,-162.233 1567.64,-152.387 1562.36,-156.977"/>
</g>
<!-- Node30 -->
<g id="node30" class="node"><title>Node30</title>
<g id="a_node30"><a xlink:href="../../db/dcf/classdevice_1_1_c_dev.html#a4e87079d3480b1d29fecc06314bb4c36" target="_top" xlink:title="Perform a poll setup/teardown operation. ">
<polygon fill="white" stroke="black" points="329,-106.36 329,-125.36 427,-125.36 427,-106.36 329,-106.36"/>
<text text-anchor="middle" x="378" y="-113.36" font-family="Helvetica,sans-Serif" font-size="10.00">device::CDev::poll</text>
</a>
</g>
</g>
<!-- Node29&#45;&gt;Node30 -->
<g id="edge41" class="edge"><title>Node29&#45;&gt;Node30</title>
<path fill="none" stroke="midnightblue" d="M250.785,-84.306C272.095,-89.6336 302.94,-97.3449 328.803,-103.811"/>
<polygon fill="midnightblue" stroke="midnightblue" points="328.255,-107.281 338.805,-106.311 329.952,-100.49 328.255,-107.281"/>
</g>
<!-- Node34 -->
<g id="node34" class="node"><title>Node34</title>
<g id="a_node34"><a xlink:href="../../d6/dfb/stubs__posix_8c.html#a4c4f5f3b4f8f45d9d897847d53b11aaa" target="_top" xlink:title="pthread_self">
<polygon fill="white" stroke="black" points="343,-68.3598 343,-87.3598 413,-87.3598 413,-68.3598 343,-68.3598"/>
<text text-anchor="middle" x="378" y="-75.3598" font-family="Helvetica,sans-Serif" font-size="10.00">pthread_self</text>
</a>
</g>
</g>
<!-- Node29&#45;&gt;Node34 -->
<g id="edge45" class="edge"><title>Node29&#45;&gt;Node34</title>
<path fill="none" stroke="midnightblue" d="M250.785,-77.8598C273.142,-77.8598 305.994,-77.8598 332.577,-77.8598"/>
<polygon fill="midnightblue" stroke="midnightblue" points="332.792,-81.3599 342.792,-77.8598 332.792,-74.3599 332.792,-81.3599"/>
</g>
<!-- Node35 -->
<g id="node35" class="node"><title>Node35</title>
<g id="a_node35"><a xlink:href="../../d6/dfb/stubs__posix_8c.html#ac0383719bafa9b5b2aa25fabc586bd1f" target="_top" xlink:title="usleep">
<polygon fill="white" stroke="black" points="355.5,-30.3598 355.5,-49.3598 400.5,-49.3598 400.5,-30.3598 355.5,-30.3598"/>
<text text-anchor="middle" x="378" y="-37.3598" font-family="Helvetica,sans-Serif" font-size="10.00">usleep</text>
</a>
</g>
</g>
<!-- Node29&#45;&gt;Node35 -->
<g id="edge46" class="edge"><title>Node29&#45;&gt;Node35</title>
<path fill="none" stroke="midnightblue" d="M250.785,-71.4136C276.885,-64.8884 317.289,-54.7876 345.323,-47.779"/>
<polygon fill="midnightblue" stroke="midnightblue" points="346.19,-51.1701 355.042,-45.3492 344.492,-44.3791 346.19,-51.1701"/>
</g>
<!-- Node31 -->
<g id="node31" class="node"><title>Node31</title>
<g id="a_node31"><a xlink:href="../../db/dcf/classdevice_1_1_c_dev.html#a63c9bb78722c6d0be5dc52cf9cc6bb52" target="_top" xlink:title="Store a pollwaiter in a slot where we can find it later. ">
<polygon fill="white" stroke="black" points="480,-128.86 480,-158.86 584,-158.86 584,-128.86 480,-128.86"/>
<text text-anchor="start" x="488" y="-146.86" font-family="Helvetica,sans-Serif" font-size="10.00">device::CDev::store</text>
<text text-anchor="middle" x="532" y="-135.86" font-family="Helvetica,sans-Serif" font-size="10.00">_poll_waiter</text>
</a>
</g>
</g>
<!-- Node30&#45;&gt;Node31 -->
<g id="edge42" class="edge"><title>Node30&#45;&gt;Node31</title>
<path fill="none" stroke="midnightblue" d="M427.094,-124.719C440.601,-127.207 455.475,-129.947 469.643,-132.557"/>
<polygon fill="midnightblue" stroke="midnightblue" points="469.336,-136.059 479.805,-134.429 470.604,-129.175 469.336,-136.059"/>
</g>
<!-- Node32 -->
<g id="node32" class="node"><title>Node32</title>
<g id="a_node32"><a xlink:href="../../db/dcf/classdevice_1_1_c_dev.html#a45d9c9e0630344d2d71002e015ddebab" target="_top" xlink:title="Check the current state of the device for poll events from the perspective of the file...">
<polygon fill="white" stroke="black" points="483,-79.8598 483,-109.86 581,-109.86 581,-79.8598 483,-79.8598"/>
<text text-anchor="start" x="491" y="-97.8598" font-family="Helvetica,sans-Serif" font-size="10.00">device::CDev::poll</text>
<text text-anchor="middle" x="532" y="-86.8598" font-family="Helvetica,sans-Serif" font-size="10.00">_state</text>
</a>
</g>
</g>
<!-- Node30&#45;&gt;Node32 -->
<g id="edge43" class="edge"><title>Node30&#45;&gt;Node32</title>
<path fill="none" stroke="midnightblue" d="M427.094,-109.215C441.581,-107.214 457.638,-104.995 472.712,-102.913"/>
<polygon fill="midnightblue" stroke="midnightblue" points="473.532,-106.333 482.958,-101.497 472.573,-99.3987 473.532,-106.333"/>
</g>
<!-- Node33 -->
<g id="node33" class="node"><title>Node33</title>
<g id="a_node33"><a xlink:href="../../db/dcf/classdevice_1_1_c_dev.html#ab16e9c91aca41e5c7067f0d978ceee2a" target="_top" xlink:title="Remove a poll waiter. ">
<polygon fill="white" stroke="black" points="474.5,-30.8598 474.5,-60.8598 589.5,-60.8598 589.5,-30.8598 474.5,-30.8598"/>
<text text-anchor="start" x="482.5" y="-48.8598" font-family="Helvetica,sans-Serif" font-size="10.00">device::CDev::remove</text>
<text text-anchor="middle" x="532" y="-37.8598" font-family="Helvetica,sans-Serif" font-size="10.00">_poll_waiter</text>
</a>
</g>
</g>
<!-- Node30&#45;&gt;Node33 -->
<g id="edge44" class="edge"><title>Node30&#45;&gt;Node33</title>
<path fill="none" stroke="midnightblue" d="M406.744,-106.333C413.533,-103.609 420.665,-100.405 427,-96.8598 444.453,-87.0927 445.367,-79.297 463,-69.8598 466.225,-68.1338 469.6,-66.4891 473.048,-64.9297"/>
<polygon fill="midnightblue" stroke="midnightblue" points="474.458,-68.1335 482.295,-61.0037 471.722,-61.6902 474.458,-68.1335"/>
</g>
</g>
</svg>
        <g id="navigator" transform="translate(0 0)" fill="#404254">
                <rect fill="#f2f5e9" fill-opacity="0.5" stroke="#606060" stroke-width=".5" x="0" y="0" width="60" height="60"/>
                <use id="zoomplus" xlink:href="#zoomPlus" x="17" y="9" onmousedown="handleZoom(evt,'in')"/>
                <use id="zoomminus" xlink:href="#zoomMin" x="42" y="9" onmousedown="handleZoom(evt,'out')"/>
                <use id="reset" xlink:href="#resetDef" x="30" y="36" onmousedown="handleReset()"/>
                <g id="arrowUp" xlink:href="#dirArrow" transform="translate(30 24)" onmousedown="handlePan(0,-1)">
                  <use xlink:href="#rim" fill="#404040">
                        <set attributeName="fill" to="#808080" begin="arrowUp.mouseover" end="arrowUp.mouseout"/>
                  </use>
                  <path fill="none" stroke="white" stroke-width="1.5" d="M0,-3.0v7 M-2.5,-0.5L0,-3.0L2.5,-0.5"/>
                </g>
                <g id="arrowRight" xlink:href="#dirArrow" transform="rotate(90) translate(36 -43)" onmousedown="handlePan(1,0)">
                  <use xlink:href="#rim" fill="#404040">
                        <set attributeName="fill" to="#808080" begin="arrowRight.mouseover" end="arrowRight.mouseout"/>
                  </use>
                  <path fill="none" stroke="white" stroke-width="1.5" d="M0,-3.0v7 M-2.5,-0.5L0,-3.0L2.5,-0.5"/>
                </g>
                <g id="arrowDown" xlink:href="#dirArrow" transform="rotate(180) translate(-30 -48)" onmousedown="handlePan(0,1)">
                  <use xlink:href="#rim" fill="#404040">
                        <set attributeName="fill" to="#808080" begin="arrowDown.mouseover" end="arrowDown.mouseout"/>
                  </use>
                  <path fill="none" stroke="white" stroke-width="1.5" d="M0,-3.0v7 M-2.5,-0.5L0,-3.0L2.5,-0.5"/>
                </g>
                <g id="arrowLeft" xlink:href="#dirArrow" transform="rotate(270) translate(-36 17)" onmousedown="handlePan(-1,0)">
                  <use xlink:href="#rim" fill="#404040">
                        <set attributeName="fill" to="#808080" begin="arrowLeft.mouseover" end="arrowLeft.mouseout"/>
                  </use>
                  <path fill="none" stroke="white" stroke-width="1.5" d="M0,-3.0v7 M-2.5,-0.5L0,-3.0L2.5,-0.5"/>
                </g>
        </g>
        <svg viewBox="0 0 15 15" width="100%" height="30px" preserveAspectRatio="xMaxYMin meet">
         <g id="arrow_out" transform="scale(0.3 0.3)">
          <a xlink:href="calibration__routines_8h_abdf15d49cbd1568e504e658e53213f2d_cgraph_org.svg" target="_base">
           <rect id="button" ry="5" rx="5" y="6" x="6" height="38" width="38"
                fill="#f2f5e9" fill-opacity="0.5" stroke="#606060" stroke-width="1.0"/>
           <path id="arrow"
             d="M 11.500037,31.436501 C 11.940474,20.09759 22.043105,11.32322 32.158766,21.979434 L 37.068811,17.246167 C 37.068811,17.246167 37.088388,32 37.088388,32 L 22.160133,31.978069 C 22.160133,31.978069 26.997745,27.140456 26.997745,27.140456 C 18.528582,18.264221 13.291696,25.230495 11.500037,31.436501 z"
             style="fill:#404040;"/>
          </a>
         </g>
        </svg>
</svg>
