<?xml version="1.0" encoding="UTF-8" standalone="no"?>
<!DOCTYPE svg PUBLIC "-//W3C//DTD SVG 1.1//EN"
 "http://www.w3.org/Graphics/SVG/1.1/DTD/svg11.dtd">
<!-- Generated by graphviz version 2.38.0 (20140413.2041)
 -->
<!-- Title: run_lm_sphere_fit Pages: 1 -->
<svg width="788pt" height="66pt"
 viewBox="0.00 0.00 788.00 66.00" xmlns="http://www.w3.org/2000/svg" xmlns:xlink="http://www.w3.org/1999/xlink">
<g id="graph0" class="graph" transform="scale(1 1) rotate(0) translate(4 62)">
<title>run_lm_sphere_fit</title>
<polygon fill="white" stroke="none" points="-4,4 -4,-62 784,-62 784,4 -4,4"/>
<!-- Node1 -->
<g id="node1" class="node"><title>Node1</title>
<polygon fill="#bfbfbf" stroke="black" points="0,-19.5 0,-38.5 94,-38.5 94,-19.5 0,-19.5"/>
<text text-anchor="middle" x="47" y="-26.5" font-family="Helvetica,sans-Serif" font-size="10.00">run_lm_sphere_fit</text>
</g>
<!-- Node2 -->
<g id="node2" class="node"><title>Node2</title>
<g id="a_node2"><a xlink:href="../../d7/da9/calibration__routines_8h.html#a0dee154570febce6c7f20f810536ea62" target="_top" xlink:title="ellipsoid_fit_least\l_squares">
<polygon fill="white" stroke="black" points="130,-14 130,-44 222,-44 222,-14 130,-14"/>
<text text-anchor="start" x="138" y="-32" font-family="Helvetica,sans-Serif" font-size="10.00">ellipsoid_fit_least</text>
<text text-anchor="middle" x="176" y="-21" font-family="Helvetica,sans-Serif" font-size="10.00">_squares</text>
</a>
</g>
</g>
<!-- Node1&#45;&gt;Node2 -->
<g id="edge1" class="edge"><title>Node1&#45;&gt;Node2</title>
<path fill="none" stroke="midnightblue" d="M104.464,-29C112.975,-29 121.656,-29 129.887,-29"/>
<polygon fill="midnightblue" stroke="midnightblue" points="104.209,-25.5001 94.2092,-29 104.209,-32.5001 104.209,-25.5001"/>
</g>
<!-- Node3 -->
<g id="node3" class="node"><title>Node3</title>
<g id="a_node3"><a xlink:href="../../de/d14/mag__calibration_8cpp.html#a2dc4128b387fe7184c94376b0f695485" target="_top" xlink:title="mag_calibrate_all">
<polygon fill="white" stroke="black" points="258,-19.5 258,-38.5 350,-38.5 350,-19.5 258,-19.5"/>
<text text-anchor="middle" x="304" y="-26.5" font-family="Helvetica,sans-Serif" font-size="10.00">mag_calibrate_all</text>
</a>
</g>
</g>
<!-- Node2&#45;&gt;Node3 -->
<g id="edge2" class="edge"><title>Node2&#45;&gt;Node3</title>
<path fill="none" stroke="midnightblue" d="M232.353,-29C240.844,-29 249.522,-29 257.759,-29"/>
<polygon fill="midnightblue" stroke="midnightblue" points="232.133,-25.5001 222.133,-29 232.133,-32.5001 232.133,-25.5001"/>
</g>
<!-- Node4 -->
<g id="node4" class="node"><title>Node4</title>
<g id="a_node4"><a xlink:href="../../d4/db8/mag__calibration_8h.html#afc0e4e0619e1f2846eeec88a20aa9b8e" target="_top" xlink:title="do_mag_calibration">
<polygon fill="white" stroke="black" points="386,-19.5 386,-38.5 487,-38.5 487,-19.5 386,-19.5"/>
<text text-anchor="middle" x="436.5" y="-26.5" font-family="Helvetica,sans-Serif" font-size="10.00">do_mag_calibration</text>
</a>
</g>
</g>
<!-- Node3&#45;&gt;Node4 -->
<g id="edge3" class="edge"><title>Node3&#45;&gt;Node4</title>
<path fill="none" stroke="midnightblue" d="M360.425,-29C368.869,-29 377.537,-29 385.847,-29"/>
<polygon fill="midnightblue" stroke="midnightblue" points="360.276,-25.5001 350.276,-29 360.276,-32.5001 360.276,-25.5001"/>
</g>
<!-- Node5 -->
<g id="node5" class="node"><title>Node5</title>
<g id="a_node5"><a xlink:href="../../da/d73/_commander_8cpp.html#a9351d6b0ff1efb4fd6d687f143be98c7" target="_top" xlink:title="The daemon app only briefly exists to start the background job. ">
<polygon fill="white" stroke="black" points="542,-38.5 542,-57.5 636,-57.5 636,-38.5 542,-38.5"/>
<text text-anchor="middle" x="589" y="-45.5" font-family="Helvetica,sans-Serif" font-size="10.00">commander_main</text>
</a>
</g>
</g>
<!-- Node4&#45;&gt;Node5 -->
<g id="edge4" class="edge"><title>Node4&#45;&gt;Node5</title>
<path fill="none" stroke="midnightblue" d="M497.312,-36.551C512.159,-38.4254 527.845,-40.4057 541.92,-42.1826"/>
<polygon fill="midnightblue" stroke="midnightblue" points="497.556,-33.0541 487.196,-35.274 496.679,-39.999 497.556,-33.0541"/>
</g>
<!-- Node6 -->
<g id="node6" class="node"><title>Node6</title>
<g id="a_node6"><a xlink:href="../../da/d73/_commander_8cpp.html#af62ee6f05861387a2bc3831c160afea8" target="_top" xlink:title="Loop that runs at a lower rate and priority for calibration and parameter tasks. ">
<polygon fill="white" stroke="black" points="523,-0.5 523,-19.5 655,-19.5 655,-0.5 523,-0.5"/>
<text text-anchor="middle" x="589" y="-7.5" font-family="Helvetica,sans-Serif" font-size="10.00">commander_low_prio_loop</text>
</a>
</g>
</g>
<!-- Node4&#45;&gt;Node6 -->
<g id="edge5" class="edge"><title>Node4&#45;&gt;Node6</title>
<path fill="none" stroke="midnightblue" d="M497.264,-21.4551C505.651,-20.3963 514.306,-19.3036 522.788,-18.2328"/>
<polygon fill="midnightblue" stroke="midnightblue" points="496.679,-18.001 487.196,-22.726 497.556,-24.9459 496.679,-18.001"/>
</g>
<!-- Node7 -->
<g id="node7" class="node"><title>Node7</title>
<g id="a_node7"><a xlink:href="../../d3/dc6/class_commander.html#a86abaf98d17aeacd9aef07a0a9a6fb9a" target="_top" xlink:title="Commander::run">
<polygon fill="white" stroke="black" points="691,-0.5 691,-19.5 780,-19.5 780,-0.5 691,-0.5"/>
<text text-anchor="middle" x="735.5" y="-7.5" font-family="Helvetica,sans-Serif" font-size="10.00">Commander::run</text>
</a>
</g>
</g>
<!-- Node6&#45;&gt;Node7 -->
<g id="edge6" class="edge"><title>Node6&#45;&gt;Node7</title>
<path fill="none" stroke="midnightblue" d="M665.337,-10C674.091,-10 682.784,-10 690.902,-10"/>
<polygon fill="midnightblue" stroke="midnightblue" points="665.064,-6.5001 655.064,-10 665.064,-13.5001 665.064,-6.5001"/>
</g>
</g>
</svg>
