<?xml version="1.0" encoding="UTF-8" standalone="no"?>
<!DOCTYPE svg PUBLIC "-//W3C//DTD SVG 1.1//EN"
 "http://www.w3.org/Graphics/SVG/1.1/DTD/svg11.dtd">
<!-- Generated by graphviz version 2.38.0 (20140413.2041)
 -->
<!-- Title: RoboClaw::resetEncoders Pages: 1 -->
<svg width="469pt" height="66pt"
 viewBox="0.00 0.00 469.00 66.00" xmlns="http://www.w3.org/2000/svg" xmlns:xlink="http://www.w3.org/1999/xlink">
<g id="graph0" class="graph" transform="scale(1 1) rotate(0) translate(4 62)">
<title>RoboClaw::resetEncoders</title>
<polygon fill="white" stroke="none" points="-4,4 -4,-62 465,-62 465,4 -4,4"/>
<!-- Node1 -->
<g id="node1" class="node"><title>Node1</title>
<polygon fill="#bfbfbf" stroke="black" points="0,-19.5 0,-38.5 131,-38.5 131,-19.5 0,-19.5"/>
<text text-anchor="middle" x="65.5" y="-26.5" font-family="Helvetica,sans-Serif" font-size="10.00">RoboClaw::resetEncoders</text>
</g>
<!-- Node2 -->
<g id="node2" class="node"><title>Node2</title>
<g id="a_node2"><a xlink:href="../../d2/dba/class_robo_claw.html#a40b7ef38e9c29944546731efb5d37c2e" target="_top" xlink:title="RoboClaw::_sendCommand">
<polygon fill="white" stroke="black" points="167,-19.5 167,-38.5 307,-38.5 307,-19.5 167,-19.5"/>
<text text-anchor="middle" x="237" y="-26.5" font-family="Helvetica,sans-Serif" font-size="10.00">RoboClaw::_sendCommand</text>
</a>
</g>
</g>
<!-- Node1&#45;&gt;Node2 -->
<g id="edge1" class="edge"><title>Node1&#45;&gt;Node2</title>
<path fill="none" stroke="midnightblue" d="M131.064,-29C139.47,-29 148.156,-29 156.767,-29"/>
<polygon fill="midnightblue" stroke="midnightblue" points="156.818,-32.5001 166.818,-29 156.818,-25.5001 156.818,-32.5001"/>
</g>
<!-- Node3 -->
<g id="node3" class="node"><title>Node3</title>
<g id="a_node3"><a xlink:href="../../d2/dba/class_robo_claw.html#a9c4547b4cdfce0dac346ac1fe8105443" target="_top" xlink:title="RoboClaw::_sumBytes">
<polygon fill="white" stroke="black" points="343,-38.5 343,-57.5 461,-57.5 461,-38.5 343,-38.5"/>
<text text-anchor="middle" x="402" y="-45.5" font-family="Helvetica,sans-Serif" font-size="10.00">RoboClaw::_sumBytes</text>
</a>
</g>
</g>
<!-- Node2&#45;&gt;Node3 -->
<g id="edge2" class="edge"><title>Node2&#45;&gt;Node3</title>
<path fill="none" stroke="midnightblue" d="M307.127,-37.0577C315.578,-38.0428 324.211,-39.0491 332.65,-40.0329"/>
<polygon fill="midnightblue" stroke="midnightblue" points="332.486,-43.5373 342.824,-41.2187 333.296,-36.5844 332.486,-43.5373"/>
</g>
<!-- Node4 -->
<g id="node4" class="node"><title>Node4</title>
<g id="a_node4"><a xlink:href="../../da/d60/boot__app__shared_8c.html#a6e76822ee32581d3159ae2f6ce9ae229" target="_top" xlink:title="write">
<polygon fill="white" stroke="black" points="383,-0.5 383,-19.5 421,-19.5 421,-0.5 383,-0.5"/>
<text text-anchor="middle" x="402" y="-7.5" font-family="Helvetica,sans-Serif" font-size="10.00">write</text>
</a>
</g>
</g>
<!-- Node2&#45;&gt;Node4 -->
<g id="edge3" class="edge"><title>Node2&#45;&gt;Node4</title>
<path fill="none" stroke="midnightblue" d="M307.127,-20.9423C330.084,-18.2662 354.383,-15.4338 372.507,-13.3213"/>
<polygon fill="midnightblue" stroke="midnightblue" points="373.138,-16.7715 382.666,-12.1371 372.328,-9.81858 373.138,-16.7715"/>
</g>
</g>
</svg>
