<?xml version="1.0" encoding="UTF-8" standalone="no"?>
<!DOCTYPE svg PUBLIC "-//W3C//DTD SVG 1.1//EN"
 "http://www.w3.org/Graphics/SVG/1.1/DTD/svg11.dtd">
<!-- Generated by graphviz version 2.40.1 (20161225.0304)
 -->
<!-- Title: RoboClaw::readEncoder Pages: 1 -->
<svg width="577pt" height="110pt"
 viewBox="0.00 0.00 577.00 109.50" xmlns="http://www.w3.org/2000/svg" xmlns:xlink="http://www.w3.org/1999/xlink">
<g id="graph0" class="graph" transform="scale(1 1) rotate(0) translate(4 105.5)">
<title>RoboClaw::readEncoder</title>
<polygon fill="#ffffff" stroke="transparent" points="-4,4 -4,-105.5 573,-105.5 573,4 -4,4"/>
<!-- Node417 -->
<g id="node1" class="node">
<title>Node417</title>
<polygon fill="#bfbfbf" stroke="#000000" points="0,-38.5 0,-57.5 123,-57.5 123,-38.5 0,-38.5"/>
<text text-anchor="middle" x="61.5" y="-45.5" font-family="Helvetica,sans-Serif" font-size="10.00" fill="#000000">RoboClaw::readEncoder</text>
</g>
<!-- Node418 -->
<g id="node2" class="node">
<title>Node418</title>
<g id="a_node2"><a xlink:href="../../d2/dba/class_robo_claw.html#ad576dfbf9954fb9c88b6e9a5b4f38f34" target="_top" xlink:title="Perform a round&#45;trip write and read. ">
<polygon fill="#ffffff" stroke="#000000" points="159,-38.5 159,-57.5 281,-57.5 281,-38.5 159,-38.5"/>
<text text-anchor="middle" x="220" y="-45.5" font-family="Helvetica,sans-Serif" font-size="10.00" fill="#000000">RoboClaw::_transaction</text>
</a>
</g>
</g>
<!-- Node417&#45;&gt;Node418 -->
<g id="edge1" class="edge">
<title>Node417&#45;&gt;Node418</title>
<path fill="none" stroke="#191970" d="M123.2341,-48C131.5766,-48 140.1917,-48 148.684,-48"/>
<polygon fill="#191970" stroke="#191970" points="148.9554,-51.5001 158.9553,-48 148.9553,-44.5001 148.9554,-51.5001"/>
</g>
<!-- Node419 -->
<g id="node3" class="node">
<title>Node419</title>
<g id="a_node3"><a xlink:href="../../d2/dba/class_robo_claw.html#af9cd163b26ff783ecebf61b7b7f5bc3b" target="_top" xlink:title="RoboClaw::_calcCRC">
<polygon fill="#ffffff" stroke="#000000" points="317,-76.5 317,-95.5 431,-95.5 431,-76.5 317,-76.5"/>
<text text-anchor="middle" x="374" y="-83.5" font-family="Helvetica,sans-Serif" font-size="10.00" fill="#000000">RoboClaw::_calcCRC</text>
</a>
</g>
</g>
<!-- Node418&#45;&gt;Node419 -->
<g id="edge2" class="edge">
<title>Node418&#45;&gt;Node419</title>
<path fill="none" stroke="#191970" d="M258.8607,-57.589C279.0911,-62.5809 304.0207,-68.7324 325.5036,-74.0334"/>
<polygon fill="#191970" stroke="#191970" points="324.8714,-77.4823 335.4187,-76.4799 326.5485,-70.6861 324.8714,-77.4823"/>
</g>
<!-- Node421 -->
<g id="node5" class="node">
<title>Node421</title>
<g id="a_node5"><a xlink:href="../../da/d60/boot__app__shared_8c.html#a86a20ed376cc63753233354a7f555699" target="_top" xlink:title="read">
<polygon fill="#ffffff" stroke="#000000" points="356.5,-38.5 356.5,-57.5 391.5,-57.5 391.5,-38.5 356.5,-38.5"/>
<text text-anchor="middle" x="374" y="-45.5" font-family="Helvetica,sans-Serif" font-size="10.00" fill="#000000">read</text>
</a>
</g>
</g>
<!-- Node418&#45;&gt;Node421 -->
<g id="edge4" class="edge">
<title>Node418&#45;&gt;Node421</title>
<path fill="none" stroke="#191970" d="M281.3074,-48C303.7795,-48 328.114,-48 346.2086,-48"/>
<polygon fill="#191970" stroke="#191970" points="346.3378,-51.5001 356.3378,-48 346.3377,-44.5001 346.3378,-51.5001"/>
</g>
<!-- Node422 -->
<g id="node6" class="node">
<title>Node422</title>
<g id="a_node6"><a xlink:href="../../da/d60/boot__app__shared_8c.html#a6e76822ee32581d3159ae2f6ce9ae229" target="_top" xlink:title="write">
<polygon fill="#ffffff" stroke="#000000" points="355,-.5 355,-19.5 393,-19.5 393,-.5 355,-.5"/>
<text text-anchor="middle" x="374" y="-7.5" font-family="Helvetica,sans-Serif" font-size="10.00" fill="#000000">write</text>
</a>
</g>
</g>
<!-- Node418&#45;&gt;Node422 -->
<g id="edge5" class="edge">
<title>Node418&#45;&gt;Node422</title>
<path fill="none" stroke="#191970" d="M258.8607,-38.411C285.681,-31.793 320.7604,-23.137 345.1185,-17.1266"/>
<polygon fill="#191970" stroke="#191970" points="345.9757,-20.5202 354.846,-14.7263 344.2986,-13.724 345.9757,-20.5202"/>
</g>
<!-- Node420 -->
<g id="node4" class="node">
<title>Node420</title>
<g id="a_node4"><a xlink:href="../../dc/d43/namespace_tone_alarm_interface.html#a565a70f50ef50ec7d7d20351f32b9625" target="_top" xlink:title="Activates/configures the hardware registers. ">
<polygon fill="#ffffff" stroke="#000000" points="467,-71 467,-101 569,-101 569,-71 467,-71"/>
<text text-anchor="start" x="475" y="-89" font-family="Helvetica,sans-Serif" font-size="10.00" fill="#000000">ToneAlarmInterface</text>
<text text-anchor="middle" x="518" y="-78" font-family="Helvetica,sans-Serif" font-size="10.00" fill="#000000">::init</text>
</a>
</g>
</g>
<!-- Node419&#45;&gt;Node420 -->
<g id="edge3" class="edge">
<title>Node419&#45;&gt;Node420</title>
<path fill="none" stroke="#191970" d="M431.3264,-86C439.6904,-86 448.3303,-86 456.7683,-86"/>
<polygon fill="#191970" stroke="#191970" points="456.9286,-89.5001 466.9285,-86 456.9285,-82.5001 456.9286,-89.5001"/>
</g>
</g>
</svg>
