<?xml version="1.0" encoding="UTF-8" standalone="no"?>
<!DOCTYPE svg PUBLIC "-//W3C//DTD SVG 1.1//EN"
 "http://www.w3.org/Graphics/SVG/1.1/DTD/svg11.dtd">
<!-- Generated by graphviz version 2.40.1 (20161225.0304)
 -->
<!-- Title: PX4FLOW::start Pages: 1 -->
<svg width="446pt" height="66pt"
 viewBox="0.00 0.00 446.00 66.00" xmlns="http://www.w3.org/2000/svg" xmlns:xlink="http://www.w3.org/1999/xlink">
<g id="graph0" class="graph" transform="scale(1 1) rotate(0) translate(4 62)">
<title>PX4FLOW::start</title>
<polygon fill="#ffffff" stroke="transparent" points="-4,4 -4,-62 442,-62 442,4 -4,4"/>
<!-- Node479 -->
<g id="node1" class="node">
<title>Node479</title>
<polygon fill="#bfbfbf" stroke="#000000" points="0,-19.5 0,-38.5 89,-38.5 89,-19.5 0,-19.5"/>
<text text-anchor="middle" x="44.5" y="-26.5" font-family="Helvetica,sans-Serif" font-size="10.00" fill="#000000">PX4FLOW::start</text>
</g>
<!-- Node480 -->
<g id="node2" class="node">
<title>Node480</title>
<g id="a_node2"><a xlink:href="../../d1/d78/class_p_x4_f_l_o_w.html#ae46781ce68b8f5f644ab3ff6cc4a7515" target="_top" xlink:title="PX4FLOW::init">
<polygon fill="#ffffff" stroke="#000000" points="127.5,-38.5 127.5,-57.5 210.5,-57.5 210.5,-38.5 127.5,-38.5"/>
<text text-anchor="middle" x="169" y="-45.5" font-family="Helvetica,sans-Serif" font-size="10.00" fill="#000000">PX4FLOW::init</text>
</a>
</g>
</g>
<!-- Node479&#45;&gt;Node480 -->
<g id="edge1" class="edge">
<title>Node479&#45;&gt;Node480</title>
<path fill="none" stroke="#191970" d="M99.1675,-37.3428C108.5723,-38.7781 118.2115,-40.2492 127.2091,-41.6223"/>
<polygon fill="#191970" stroke="#191970" points="99.5093,-33.8545 89.0957,-35.8058 98.4532,-40.7744 99.5093,-33.8545"/>
</g>
<!-- Node483 -->
<g id="node5" class="node">
<title>Node483</title>
<g id="a_node5"><a xlink:href="../../d1/d78/class_p_x4_f_l_o_w.html#aa1c2bbdfd7e3459f710c1825ba45ab05" target="_top" xlink:title="Perform a poll cycle; collect from the previous measurement and start a new one. ">
<polygon fill="#ffffff" stroke="#000000" points="125,-.5 125,-19.5 213,-19.5 213,-.5 125,-.5"/>
<text text-anchor="middle" x="169" y="-7.5" font-family="Helvetica,sans-Serif" font-size="10.00" fill="#000000">PX4FLOW::Run</text>
</a>
</g>
</g>
<!-- Node479&#45;&gt;Node483 -->
<g id="edge4" class="edge">
<title>Node479&#45;&gt;Node483</title>
<path fill="none" stroke="#191970" d="M99.0394,-20.6767C107.6216,-19.367 116.4024,-18.0269 124.7157,-16.7583"/>
<polygon fill="#191970" stroke="#191970" points="98.4532,-17.2256 89.0957,-22.1942 99.5093,-24.1454 98.4532,-17.2256"/>
</g>
<!-- Node481 -->
<g id="node3" class="node">
<title>Node481</title>
<g id="a_node3"><a xlink:href="../../db/da0/namespacepx4flow.html#a50fcdd79314354589cec14e68d6f1ad1" target="_top" xlink:title="Start the driver. ">
<polygon fill="#ffffff" stroke="#000000" points="249,-38.5 249,-57.5 325,-57.5 325,-38.5 249,-38.5"/>
<text text-anchor="middle" x="287" y="-45.5" font-family="Helvetica,sans-Serif" font-size="10.00" fill="#000000">px4flow::start</text>
</a>
</g>
</g>
<!-- Node480&#45;&gt;Node481 -->
<g id="edge2" class="edge">
<title>Node480&#45;&gt;Node481</title>
<path fill="none" stroke="#191970" d="M220.7369,-48C230.2119,-48 239.9406,-48 248.9255,-48"/>
<polygon fill="#191970" stroke="#191970" points="220.6024,-44.5001 210.6024,-48 220.6024,-51.5001 220.6024,-44.5001"/>
</g>
<!-- Node482 -->
<g id="node4" class="node">
<title>Node482</title>
<g id="a_node4"><a xlink:href="../../db/d0e/px4flow_8cpp.html#ad6ef20dfb49bcdc36788008501558d5e" target="_top" xlink:title="px4flow_main">
<polygon fill="#ffffff" stroke="#000000" points="361,-38.5 361,-57.5 438,-57.5 438,-38.5 361,-38.5"/>
<text text-anchor="middle" x="399.5" y="-45.5" font-family="Helvetica,sans-Serif" font-size="10.00" fill="#000000">px4flow_main</text>
</a>
</g>
</g>
<!-- Node481&#45;&gt;Node482 -->
<g id="edge3" class="edge">
<title>Node481&#45;&gt;Node482</title>
<path fill="none" stroke="#191970" d="M335.2672,-48C343.7573,-48 352.495,-48 360.6854,-48"/>
<polygon fill="#191970" stroke="#191970" points="335.0874,-44.5001 325.0874,-48 335.0873,-51.5001 335.0874,-44.5001"/>
</g>
</g>
</svg>
