<?xml version="1.0" encoding="UTF-8" standalone="no"?>
<!DOCTYPE svg PUBLIC "-//W3C//DTD SVG 1.1//EN"
 "http://www.w3.org/Graphics/SVG/1.1/DTD/svg11.dtd">
<!-- Generated by graphviz version 2.40.1 (20161225.0304)
 -->
<!-- Title: src/lib/mixer/NullMixer/NullMixer.cpp Pages: 1 -->
<svg width="349pt" height="263pt"
 viewBox="0.00 0.00 349.00 263.00" xmlns="http://www.w3.org/2000/svg" xmlns:xlink="http://www.w3.org/1999/xlink">
<g id="graph0" class="graph" transform="scale(1 1) rotate(0) translate(4 259)">
<title>src/lib/mixer/NullMixer/NullMixer.cpp</title>
<polygon fill="#ffffff" stroke="transparent" points="-4,4 -4,-259 345,-259 345,4 -4,4"/>
<!-- Node0 -->
<g id="node1" class="node">
<title>Node0</title>
<polygon fill="#bfbfbf" stroke="#000000" points="160.5,-224.5 160.5,-254.5 274.5,-254.5 274.5,-224.5 160.5,-224.5"/>
<text text-anchor="start" x="168.5" y="-242.5" font-family="Helvetica,sans-Serif" font-size="10.00" fill="#000000">src/lib/mixer/NullMixer</text>
<text text-anchor="middle" x="217.5" y="-231.5" font-family="Helvetica,sans-Serif" font-size="10.00" fill="#000000">/NullMixer.cpp</text>
</g>
<!-- Node1 -->
<g id="node2" class="node">
<title>Node1</title>
<g id="a_node2"><a xlink:href="../../df/d6a/_null_mixer_8hpp.html" target="_top" xlink:title="NullMixer.hpp">
<polygon fill="#ffffff" stroke="#000000" points="67,-168.5 67,-187.5 144,-187.5 144,-168.5 67,-168.5"/>
<text text-anchor="middle" x="105.5" y="-175.5" font-family="Helvetica,sans-Serif" font-size="10.00" fill="#000000">NullMixer.hpp</text>
</a>
</g>
</g>
<!-- Node0&#45;&gt;Node1 -->
<g id="edge1" class="edge">
<title>Node0&#45;&gt;Node1</title>
<path fill="none" stroke="#191970" d="M190.1017,-224.4554C172.3978,-214.734 149.4805,-202.15 131.9642,-192.5317"/>
<polygon fill="#191970" stroke="#191970" points="133.3061,-189.2756 122.856,-187.5303 129.9369,-195.4115 133.3061,-189.2756"/>
</g>
<!-- Node6 -->
<g id="node7" class="node">
<title>Node6</title>
<polygon fill="#ffffff" stroke="#bfbfbf" points="162,-168.5 162,-187.5 209,-187.5 209,-168.5 162,-168.5"/>
<text text-anchor="middle" x="185.5" y="-175.5" font-family="Helvetica,sans-Serif" font-size="10.00" fill="#000000">math.h</text>
</g>
<!-- Node0&#45;&gt;Node6 -->
<g id="edge6" class="edge">
<title>Node0&#45;&gt;Node6</title>
<path fill="none" stroke="#191970" d="M209.5899,-224.2977C205.2868,-216.0277 199.9242,-205.7215 195.3518,-196.9339"/>
<polygon fill="#191970" stroke="#191970" points="198.3443,-195.1024 190.6236,-187.8469 192.1346,-198.3335 198.3443,-195.1024"/>
</g>
<!-- Node7 -->
<g id="node8" class="node">
<title>Node7</title>
<polygon fill="#ffffff" stroke="#bfbfbf" points="227.5,-168.5 227.5,-187.5 273.5,-187.5 273.5,-168.5 227.5,-168.5"/>
<text text-anchor="middle" x="250.5" y="-175.5" font-family="Helvetica,sans-Serif" font-size="10.00" fill="#000000">cstring</text>
</g>
<!-- Node0&#45;&gt;Node7 -->
<g id="edge7" class="edge">
<title>Node0&#45;&gt;Node7</title>
<path fill="none" stroke="#191970" d="M225.6573,-224.2977C230.0949,-216.0277 235.625,-205.7215 240.3404,-196.9339"/>
<polygon fill="#191970" stroke="#191970" points="243.5721,-198.3134 245.2163,-187.8469 237.404,-195.0037 243.5721,-198.3134"/>
</g>
<!-- Node8 -->
<g id="node9" class="node">
<title>Node8</title>
<polygon fill="#ffffff" stroke="#bfbfbf" points="292,-168.5 292,-187.5 341,-187.5 341,-168.5 292,-168.5"/>
<text text-anchor="middle" x="316.5" y="-175.5" font-family="Helvetica,sans-Serif" font-size="10.00" fill="#000000">ctype.h</text>
</g>
<!-- Node0&#45;&gt;Node8 -->
<g id="edge8" class="edge">
<title>Node0&#45;&gt;Node8</title>
<path fill="none" stroke="#191970" d="M241.7181,-224.4554C257.0773,-214.9141 276.8757,-202.6151 292.2425,-193.0691"/>
<polygon fill="#191970" stroke="#191970" points="294.511,-195.7802 301.1585,-187.5303 290.8172,-189.8341 294.511,-195.7802"/>
</g>
<!-- Node2 -->
<g id="node3" class="node">
<title>Node2</title>
<g id="a_node3"><a xlink:href="../../d4/de5/_mixer_8hpp.html" target="_top" xlink:title="Generic, programmable, procedural control signal mixers. ">
<polygon fill="#ffffff" stroke="#000000" points="49,-112.5 49,-131.5 162,-131.5 162,-112.5 49,-112.5"/>
<text text-anchor="middle" x="105.5" y="-119.5" font-family="Helvetica,sans-Serif" font-size="10.00" fill="#000000">mixer/Mixer/Mixer.hpp</text>
</a>
</g>
</g>
<!-- Node1&#45;&gt;Node2 -->
<g id="edge2" class="edge">
<title>Node1&#45;&gt;Node2</title>
<path fill="none" stroke="#191970" d="M105.5,-168.2455C105.5,-160.9382 105.5,-150.6944 105.5,-141.7046"/>
<polygon fill="#191970" stroke="#191970" points="109.0001,-141.6426 105.5,-131.6427 102.0001,-141.6427 109.0001,-141.6426"/>
</g>
<!-- Node3 -->
<g id="node4" class="node">
<title>Node3</title>
<g id="a_node4"><a xlink:href="../../dc/d72/_list_8hpp.html" target="_top" xlink:title="An intrusive linked list. ">
<polygon fill="#ffffff" stroke="#000000" points="0,-56.5 0,-75.5 99,-75.5 99,-56.5 0,-56.5"/>
<text text-anchor="middle" x="49.5" y="-63.5" font-family="Helvetica,sans-Serif" font-size="10.00" fill="#000000">containers/List.hpp</text>
</a>
</g>
</g>
<!-- Node2&#45;&gt;Node3 -->
<g id="edge3" class="edge">
<title>Node2&#45;&gt;Node3</title>
<path fill="none" stroke="#191970" d="M95.7455,-112.2455C87.6352,-104.1352 75.9075,-92.4075 66.2919,-82.7919"/>
<polygon fill="#191970" stroke="#191970" points="68.6887,-80.2389 59.1427,-75.6427 63.7389,-85.1887 68.6887,-80.2389"/>
</g>
<!-- Node5 -->
<g id="node6" class="node">
<title>Node5</title>
<polygon fill="#ffffff" stroke="#bfbfbf" points="117,-56.5 117,-75.5 208,-75.5 208,-56.5 117,-56.5"/>
<text text-anchor="middle" x="162.5" y="-63.5" font-family="Helvetica,sans-Serif" font-size="10.00" fill="#000000">mathlib/mathlib.h</text>
</g>
<!-- Node2&#45;&gt;Node5 -->
<g id="edge5" class="edge">
<title>Node2&#45;&gt;Node5</title>
<path fill="none" stroke="#191970" d="M115.4286,-112.2455C123.6838,-104.1352 135.6209,-92.4075 145.4082,-82.7919"/>
<polygon fill="#191970" stroke="#191970" points="148.0046,-85.1476 152.6851,-75.6427 143.0989,-80.1542 148.0046,-85.1476"/>
</g>
<!-- Node4 -->
<g id="node5" class="node">
<title>Node4</title>
<polygon fill="#ffffff" stroke="#bfbfbf" points="25.5,-.5 25.5,-19.5 73.5,-19.5 73.5,-.5 25.5,-.5"/>
<text text-anchor="middle" x="49.5" y="-7.5" font-family="Helvetica,sans-Serif" font-size="10.00" fill="#000000">stdlib.h</text>
</g>
<!-- Node3&#45;&gt;Node4 -->
<g id="edge4" class="edge">
<title>Node3&#45;&gt;Node4</title>
<path fill="none" stroke="#191970" d="M49.5,-56.2455C49.5,-48.9382 49.5,-38.6944 49.5,-29.7046"/>
<polygon fill="#191970" stroke="#191970" points="53.0001,-29.6426 49.5,-19.6427 46.0001,-29.6427 53.0001,-29.6426"/>
</g>
</g>
</svg>
