<?xml version="1.0" encoding="UTF-8" standalone="no"?>
<!DOCTYPE svg PUBLIC "-//W3C//DTD SVG 1.1//EN"
 "http://www.w3.org/Graphics/SVG/1.1/DTD/svg11.dtd">
<!-- Generated by graphviz version 2.40.1 (20161225.0304)
 -->
<!-- Title: src/lib/systemlib/cpuload.c Pages: 1 -->
<svg width="647pt" height="162pt"
 viewBox="0.00 0.00 646.50 162.00" xmlns="http://www.w3.org/2000/svg" xmlns:xlink="http://www.w3.org/1999/xlink">
<g id="graph0" class="graph" transform="scale(1 1) rotate(0) translate(4 158)">
<title>src/lib/systemlib/cpuload.c</title>
<polygon fill="#ffffff" stroke="transparent" points="-4,4 -4,-158 642.5,-158 642.5,4 -4,4"/>
<!-- Node0 -->
<g id="node1" class="node">
<title>Node0</title>
<polygon fill="#bfbfbf" stroke="#000000" points="230.5,-134.5 230.5,-153.5 363.5,-153.5 363.5,-134.5 230.5,-134.5"/>
<text text-anchor="middle" x="297" y="-141.5" font-family="Helvetica,sans-Serif" font-size="10.00" fill="#000000">src/lib/systemlib/cpuload.c</text>
</g>
<!-- Node1 -->
<g id="node2" class="node">
<title>Node1</title>
<polygon fill="#ffffff" stroke="#bfbfbf" points="0,-67.5 0,-97.5 116,-97.5 116,-67.5 0,-67.5"/>
<text text-anchor="start" x="8" y="-85.5" font-family="Helvetica,sans-Serif" font-size="10.00" fill="#000000">px4_platform_common</text>
<text text-anchor="middle" x="58" y="-74.5" font-family="Helvetica,sans-Serif" font-size="10.00" fill="#000000">/px4_config.h</text>
</g>
<!-- Node0&#45;&gt;Node1 -->
<g id="edge1" class="edge">
<title>Node0&#45;&gt;Node1</title>
<path fill="none" stroke="#191970" d="M259.9185,-134.4581C224.2781,-125.287 169.5675,-111.2088 126.0816,-100.0189"/>
<polygon fill="#191970" stroke="#191970" points="126.695,-96.5628 116.1383,-97.4603 124.9506,-103.342 126.695,-96.5628"/>
</g>
<!-- Node2 -->
<g id="node3" class="node">
<title>Node2</title>
<polygon fill="#ffffff" stroke="#bfbfbf" points="52,-6 52,-25 120,-25 120,-6 52,-6"/>
<text text-anchor="middle" x="86" y="-13" font-family="Helvetica,sans-Serif" font-size="10.00" fill="#000000">sys/types.h</text>
</g>
<!-- Node0&#45;&gt;Node2 -->
<g id="edge2" class="edge">
<title>Node0&#45;&gt;Node2</title>
<path fill="none" stroke="#191970" d="M262.9142,-134.4556C238.2587,-126.7063 204.7205,-114.3802 178,-98 148.0222,-79.6231 118.7196,-50.9609 101.5153,-32.7159"/>
<polygon fill="#191970" stroke="#191970" points="103.8645,-30.1014 94.503,-25.1404 98.7275,-34.8566 103.8645,-30.1014"/>
</g>
<!-- Node3 -->
<g id="node4" class="node">
<title>Node3</title>
<polygon fill="#ffffff" stroke="#bfbfbf" points="315.5,-73 315.5,-92 364.5,-92 364.5,-73 315.5,-73"/>
<text text-anchor="middle" x="340" y="-80" font-family="Helvetica,sans-Serif" font-size="10.00" fill="#000000">stdint.h</text>
</g>
<!-- Node0&#45;&gt;Node3 -->
<g id="edge3" class="edge">
<title>Node0&#45;&gt;Node3</title>
<path fill="none" stroke="#191970" d="M303.7188,-134.3906C309.993,-125.417 319.5223,-111.7879 327.2404,-100.7491"/>
<polygon fill="#191970" stroke="#191970" points="330.3247,-102.4459 333.1865,-92.2449 324.5879,-98.4348 330.3247,-102.4459"/>
</g>
<!-- Node4 -->
<g id="node5" class="node">
<title>Node4</title>
<polygon fill="#ffffff" stroke="#bfbfbf" points="138,-6 138,-25 194,-25 194,-6 138,-6"/>
<text text-anchor="middle" x="166" y="-13" font-family="Helvetica,sans-Serif" font-size="10.00" fill="#000000">stdbool.h</text>
</g>
<!-- Node0&#45;&gt;Node4 -->
<g id="edge4" class="edge">
<title>Node0&#45;&gt;Node4</title>
<path fill="none" stroke="#191970" d="M263.1108,-134.4931C242.849,-127.3177 217.8522,-115.6389 201,-98 184.0987,-80.3096 174.7548,-53.2228 170.0611,-34.9587"/>
<polygon fill="#191970" stroke="#191970" points="173.4471,-34.067 167.7631,-25.1259 166.6308,-35.6601 173.4471,-34.067"/>
</g>
<!-- Node5 -->
<g id="node6" class="node">
<title>Node5</title>
<polygon fill="#ffffff" stroke="#bfbfbf" points="383,-73 383,-92 445,-92 445,-73 383,-73"/>
<text text-anchor="middle" x="414" y="-80" font-family="Helvetica,sans-Serif" font-size="10.00" fill="#000000">sys/time.h</text>
</g>
<!-- Node0&#45;&gt;Node5 -->
<g id="edge5" class="edge">
<title>Node0&#45;&gt;Node5</title>
<path fill="none" stroke="#191970" d="M315.2813,-134.3906C334.5141,-124.2811 364.9879,-108.2628 386.9925,-96.6962"/>
<polygon fill="#191970" stroke="#191970" points="388.624,-99.7928 395.8471,-92.0419 385.367,-93.5967 388.624,-99.7928"/>
</g>
<!-- Node6 -->
<g id="node7" class="node">
<title>Node6</title>
<polygon fill="#ffffff" stroke="#bfbfbf" points="463,-73 463,-92 561,-92 561,-73 463,-73"/>
<text text-anchor="middle" x="512" y="-80" font-family="Helvetica,sans-Serif" font-size="10.00" fill="#000000">arch/board/board.h</text>
</g>
<!-- Node0&#45;&gt;Node6 -->
<g id="edge6" class="edge">
<title>Node0&#45;&gt;Node6</title>
<path fill="none" stroke="#191970" d="M330.5938,-134.3906C367.9083,-123.7169 428.2492,-106.4566 468.9886,-94.8033"/>
<polygon fill="#191970" stroke="#191970" points="469.9903,-98.1572 478.6421,-92.0419 468.0652,-91.4271 469.9903,-98.1572"/>
</g>
<!-- Node7 -->
<g id="node8" class="node">
<title>Node7</title>
<g id="a_node8"><a xlink:href="../../d6/d10/drv__hrt_8h.html" target="_top" xlink:title="High&#45;resolution timer with callouts and timekeeping. ">
<polygon fill="#ffffff" stroke="#000000" points="210.5,-73 210.5,-92 297.5,-92 297.5,-73 210.5,-73"/>
<text text-anchor="middle" x="254" y="-80" font-family="Helvetica,sans-Serif" font-size="10.00" fill="#000000">drivers/drv_hrt.h</text>
</a>
</g>
</g>
<!-- Node0&#45;&gt;Node7 -->
<g id="edge7" class="edge">
<title>Node0&#45;&gt;Node7</title>
<path fill="none" stroke="#191970" d="M290.2813,-134.3906C284.007,-125.417 274.4777,-111.7879 266.7596,-100.7491"/>
<polygon fill="#191970" stroke="#191970" points="269.4121,-98.4348 260.8135,-92.2449 263.6753,-102.4459 269.4121,-98.4348"/>
</g>
<!-- Node12 -->
<g id="node13" class="node">
<title>Node12</title>
<g id="a_node13"><a xlink:href="../../d7/d96/src_2lib_2systemlib_2cpuload_8h.html" target="_top" xlink:title="cpuload.h">
<polygon fill="#ffffff" stroke="#000000" points="579.5,-73 579.5,-92 638.5,-92 638.5,-73 579.5,-73"/>
<text text-anchor="middle" x="609" y="-80" font-family="Helvetica,sans-Serif" font-size="10.00" fill="#000000">cpuload.h</text>
</a>
</g>
</g>
<!-- Node0&#45;&gt;Node12 -->
<g id="edge14" class="edge">
<title>Node0&#45;&gt;Node12</title>
<path fill="none" stroke="#191970" d="M363.5017,-136.7855C419.3184,-129.785 500.798,-117.347 570,-98 572.6072,-97.2711 575.2792,-96.4273 577.9422,-95.5172"/>
<polygon fill="#191970" stroke="#191970" points="579.2472,-98.7664 587.4152,-92.0185 576.822,-92.1999 579.2472,-98.7664"/>
</g>
<!-- Node7&#45;&gt;Node2 -->
<g id="edge9" class="edge">
<title>Node7&#45;&gt;Node2</title>
<path fill="none" stroke="#191970" d="M229.9297,-72.9005C200.987,-61.3579 152.2379,-41.9163 119.5983,-28.8993"/>
<polygon fill="#191970" stroke="#191970" points="120.6108,-25.5351 110.0257,-25.0817 118.0177,-32.0371 120.6108,-25.5351"/>
</g>
<!-- Node7&#45;&gt;Node4 -->
<g id="edge10" class="edge">
<title>Node7&#45;&gt;Node4</title>
<path fill="none" stroke="#191970" d="M241.3917,-72.9005C227.1461,-62.0544 203.7401,-44.2339 186.7823,-31.3229"/>
<polygon fill="#191970" stroke="#191970" points="188.6615,-28.3547 178.5849,-25.0817 184.4211,-33.9241 188.6615,-28.3547"/>
</g>
<!-- Node8 -->
<g id="node9" class="node">
<title>Node8</title>
<polygon fill="#ffffff" stroke="#bfbfbf" points="416,-6 416,-25 478,-25 478,-6 416,-6"/>
<text text-anchor="middle" x="447" y="-13" font-family="Helvetica,sans-Serif" font-size="10.00" fill="#000000">sys/ioctl.h</text>
</g>
<!-- Node7&#45;&gt;Node8 -->
<g id="edge8" class="edge">
<title>Node7&#45;&gt;Node8</title>
<path fill="none" stroke="#191970" d="M283.7541,-72.9239C314.6852,-62.8665 364.4373,-46.4011 407,-31 409.1053,-30.2382 411.2678,-29.4416 413.445,-28.6288"/>
<polygon fill="#191970" stroke="#191970" points="414.8455,-31.8409 422.9526,-25.02 412.3614,-25.2965 414.8455,-31.8409"/>
</g>
<!-- Node9 -->
<g id="node10" class="node">
<title>Node9</title>
<polygon fill="#ffffff" stroke="#bfbfbf" points="496.5,-6 496.5,-25 555.5,-25 555.5,-6 496.5,-6"/>
<text text-anchor="middle" x="526" y="-13" font-family="Helvetica,sans-Serif" font-size="10.00" fill="#000000">inttypes.h</text>
</g>
<!-- Node7&#45;&gt;Node9 -->
<g id="edge11" class="edge">
<title>Node7&#45;&gt;Node9</title>
<path fill="none" stroke="#191970" d="M284.9855,-72.947C292.1803,-70.8657 299.8314,-68.7615 307,-67 386.2273,-47.5314 408.7722,-54.1607 487,-31 489.4452,-30.2761 491.9507,-29.4604 494.4545,-28.5915"/>
<polygon fill="#191970" stroke="#191970" points="495.8138,-31.8203 503.9704,-25.0587 493.3774,-25.258 495.8138,-31.8203"/>
</g>
<!-- Node10 -->
<g id="node11" class="node">
<title>Node10</title>
<polygon fill="#ffffff" stroke="#bfbfbf" points="212,-.5 212,-30.5 328,-30.5 328,-.5 212,-.5"/>
<text text-anchor="start" x="220" y="-18.5" font-family="Helvetica,sans-Serif" font-size="10.00" fill="#000000">px4_platform_common</text>
<text text-anchor="middle" x="270" y="-7.5" font-family="Helvetica,sans-Serif" font-size="10.00" fill="#000000">/time.h</text>
</g>
<!-- Node7&#45;&gt;Node10 -->
<g id="edge12" class="edge">
<title>Node7&#45;&gt;Node10</title>
<path fill="none" stroke="#191970" d="M256.2924,-72.9005C258.3168,-64.4234 261.3587,-51.6856 264.0629,-40.3614"/>
<polygon fill="#191970" stroke="#191970" points="267.4942,-41.0613 266.4127,-30.5218 260.6856,-39.4353 267.4942,-41.0613"/>
</g>
<!-- Node11 -->
<g id="node12" class="node">
<title>Node11</title>
<polygon fill="#ffffff" stroke="#bfbfbf" points="346.5,-6 346.5,-25 397.5,-25 397.5,-6 346.5,-6"/>
<text text-anchor="middle" x="372" y="-13" font-family="Helvetica,sans-Serif" font-size="10.00" fill="#000000">queue.h</text>
</g>
<!-- Node7&#45;&gt;Node11 -->
<g id="edge13" class="edge">
<title>Node7&#45;&gt;Node11</title>
<path fill="none" stroke="#191970" d="M270.9065,-72.9005C290.622,-61.7062 323.4222,-43.0823 346.2959,-30.0947"/>
<polygon fill="#191970" stroke="#191970" points="348.157,-33.0629 355.1248,-25.0817 344.7007,-26.9757 348.157,-33.0629"/>
</g>
</g>
</svg>
