<?xml version="1.0" encoding="UTF-8" standalone="no"?>
<!DOCTYPE svg PUBLIC "-//W3C//DTD SVG 1.1//EN"
 "http://www.w3.org/Graphics/SVG/1.1/DTD/svg11.dtd">
<!-- Generated by graphviz version 2.40.1 (20161225.0304)
 -->
<!-- Title: UavcanNode::getHardwareVersion Pages: 1 -->
<svg width="328pt" height="66pt"
 viewBox="0.00 0.00 328.00 66.00" xmlns="http://www.w3.org/2000/svg" xmlns:xlink="http://www.w3.org/1999/xlink">
<g id="graph0" class="graph" transform="scale(1 1) rotate(0) translate(4 62)">
<title>UavcanNode::getHardwareVersion</title>
<polygon fill="#ffffff" stroke="transparent" points="-4,4 -4,-62 324,-62 324,4 -4,4"/>
<!-- Node372 -->
<g id="node1" class="node">
<title>Node372</title>
<polygon fill="#bfbfbf" stroke="#000000" points="0,-19.5 0,-38.5 168,-38.5 168,-19.5 0,-19.5"/>
<text text-anchor="middle" x="84" y="-26.5" font-family="Helvetica,sans-Serif" font-size="10.00" fill="#000000">UavcanNode::getHardwareVersion</text>
</g>
<!-- Node373 -->
<g id="node2" class="node">
<title>Node373</title>
<g id="a_node2"><a xlink:href="../../d5/d94/class_uavcan_node.html#a9dd1c2374f1ef0ee4811d8b904d86aee" target="_top" xlink:title="UavcanNode::instance">
<polygon fill="#ffffff" stroke="#000000" points="204,-38.5 204,-57.5 320,-57.5 320,-38.5 204,-38.5"/>
<text text-anchor="middle" x="262" y="-45.5" font-family="Helvetica,sans-Serif" font-size="10.00" fill="#000000">UavcanNode::instance</text>
</a>
</g>
</g>
<!-- Node372&#45;&gt;Node373 -->
<g id="edge1" class="edge">
<title>Node372&#45;&gt;Node373</title>
<path fill="none" stroke="#191970" d="M168.0482,-37.9714C176.6875,-38.8936 185.3893,-39.8225 193.8265,-40.7231"/>
<polygon fill="#191970" stroke="#191970" points="193.6498,-44.224 203.9648,-41.8052 194.3928,-37.2635 193.6498,-44.224"/>
</g>
<!-- Node374 -->
<g id="node3" class="node">
<title>Node374</title>
<g id="a_node3"><a xlink:href="../../df/dfc/version_8h.html#a4a98b20dc43b646ecb59934cc3ebb2e0" target="_top" xlink:title="get the board name as string (including the version if there are multiple) ">
<polygon fill="#ffffff" stroke="#000000" points="216.5,-.5 216.5,-19.5 307.5,-19.5 307.5,-.5 216.5,-.5"/>
<text text-anchor="middle" x="262" y="-7.5" font-family="Helvetica,sans-Serif" font-size="10.00" fill="#000000">px4_board_name</text>
</a>
</g>
</g>
<!-- Node372&#45;&gt;Node374 -->
<g id="edge2" class="edge">
<title>Node372&#45;&gt;Node374</title>
<path fill="none" stroke="#191970" d="M168.0482,-20.0286C180.8585,-18.6612 193.806,-17.2791 205.8248,-15.9962"/>
<polygon fill="#191970" stroke="#191970" points="206.5488,-19.4389 216.1208,-14.8972 205.8058,-12.4785 206.5488,-19.4389"/>
</g>
</g>
</svg>
