<?xml version="1.0" encoding="UTF-8" standalone="no"?>
<!DOCTYPE svg PUBLIC "-//W3C//DTD SVG 1.1//EN"
 "http://www.w3.org/Graphics/SVG/1.1/DTD/svg11.dtd">
<!-- Generated by graphviz version 2.38.0 (20140413.2041)
 -->
<!-- Title: UavcanNode::teardown Pages: 1 -->
<svg width="973pt" height="256pt"
 viewBox="0.00 0.00 973.00 256.00" xmlns="http://www.w3.org/2000/svg" xmlns:xlink="http://www.w3.org/1999/xlink">
<g id="graph0" class="graph" transform="scale(1 1) rotate(0) translate(4 252)">
<title>UavcanNode::teardown</title>
<polygon fill="white" stroke="none" points="-4,4 -4,-252 969,-252 969,4 -4,4"/>
<!-- Node1 -->
<g id="node1" class="node"><title>Node1</title>
<polygon fill="#bfbfbf" stroke="black" points="0,-150.5 0,-169.5 119,-169.5 119,-150.5 0,-150.5"/>
<text text-anchor="middle" x="59.5" y="-157.5" font-family="Helvetica,sans-Serif" font-size="10.00">UavcanNode::teardown</text>
</g>
<!-- Node2 -->
<g id="node2" class="node"><title>Node2</title>
<g id="a_node2"><a xlink:href="../../d9/d97/u_o_r_b_8cpp.html#a8adc3c48c1860deac8bd2a520e391837" target="_top" xlink:title="orb_unsubscribe">
<polygon fill="white" stroke="black" points="155,-150.5 155,-169.5 243,-169.5 243,-150.5 155,-150.5"/>
<text text-anchor="middle" x="199" y="-157.5" font-family="Helvetica,sans-Serif" font-size="10.00">orb_unsubscribe</text>
</a>
</g>
</g>
<!-- Node1&#45;&gt;Node2 -->
<g id="edge1" class="edge"><title>Node1&#45;&gt;Node2</title>
<path fill="none" stroke="midnightblue" d="M119.211,-160C127.722,-160 136.442,-160 144.835,-160"/>
<polygon fill="midnightblue" stroke="midnightblue" points="144.874,-163.5 154.874,-160 144.874,-156.5 144.874,-163.5"/>
</g>
<!-- Node3 -->
<g id="node3" class="node"><title>Node3</title>
<g id="a_node3"><a xlink:href="../../d3/da9/classu_o_r_b_1_1_manager.html#a9d829b3ea49d16d03c2fa37ef2bb24a5" target="_top" xlink:title="Method to get the singleton instance for the uORB::Manager. ">
<polygon fill="white" stroke="black" points="279,-176 279,-206 386,-206 386,-176 279,-176"/>
<text text-anchor="start" x="287" y="-194" font-family="Helvetica,sans-Serif" font-size="10.00">uORB::Manager::get</text>
<text text-anchor="middle" x="332.5" y="-183" font-family="Helvetica,sans-Serif" font-size="10.00">_instance</text>
</a>
</g>
</g>
<!-- Node2&#45;&gt;Node3 -->
<g id="edge2" class="edge"><title>Node2&#45;&gt;Node3</title>
<path fill="none" stroke="midnightblue" d="M240.527,-169.554C249.489,-171.667 259.187,-173.953 268.798,-176.219"/>
<polygon fill="midnightblue" stroke="midnightblue" points="268.212,-179.676 278.748,-178.564 269.818,-172.863 268.212,-179.676"/>
</g>
<!-- Node10 -->
<g id="node10" class="node"><title>Node10</title>
<g id="a_node10"><a xlink:href="../../d3/da9/classu_o_r_b_1_1_manager.html#a77539878280b749d79d2c16dc5628c81" target="_top" xlink:title="Unsubscribe from a topic. ">
<polygon fill="white" stroke="black" points="279,-114 279,-144 386,-144 386,-114 279,-114"/>
<text text-anchor="start" x="287" y="-132" font-family="Helvetica,sans-Serif" font-size="10.00">uORB::Manager::orb</text>
<text text-anchor="middle" x="332.5" y="-121" font-family="Helvetica,sans-Serif" font-size="10.00">_unsubscribe</text>
</a>
</g>
</g>
<!-- Node2&#45;&gt;Node10 -->
<g id="edge9" class="edge"><title>Node2&#45;&gt;Node10</title>
<path fill="none" stroke="midnightblue" d="M240.527,-150.446C249.489,-148.333 259.187,-146.047 268.798,-143.781"/>
<polygon fill="midnightblue" stroke="midnightblue" points="269.818,-147.137 278.748,-141.436 268.212,-140.324 269.818,-147.137"/>
</g>
<!-- Node4 -->
<g id="node4" class="node"><title>Node4</title>
<g id="a_node4"><a xlink:href="../../d3/da9/classu_o_r_b_1_1_manager.html#a083331e24ac4f99ac11a0aab1b1681b4" target="_top" xlink:title="Get the DeviceMaster. ">
<polygon fill="white" stroke="black" points="422,-183 422,-213 529,-213 529,-183 422,-183"/>
<text text-anchor="start" x="430" y="-201" font-family="Helvetica,sans-Serif" font-size="10.00">uORB::Manager::get</text>
<text text-anchor="middle" x="475.5" y="-190" font-family="Helvetica,sans-Serif" font-size="10.00">_device_master</text>
</a>
</g>
</g>
<!-- Node3&#45;&gt;Node4 -->
<g id="edge3" class="edge"><title>Node3&#45;&gt;Node4</title>
<path fill="none" stroke="midnightblue" d="M386.003,-193.607C394.445,-194.026 403.255,-194.463 411.905,-194.892"/>
<polygon fill="midnightblue" stroke="midnightblue" points="411.792,-198.391 421.953,-195.391 412.139,-191.4 411.792,-198.391"/>
</g>
<!-- Node5 -->
<g id="node5" class="node"><title>Node5</title>
<g id="a_node5"><a xlink:href="../../db/dcf/classdevice_1_1_c_dev.html#a04ad8e5b517724c106e06b45e86a2445" target="_top" xlink:title="Initialise the driver and make it ready for use. ">
<polygon fill="white" stroke="black" points="565,-190.5 565,-209.5 660,-209.5 660,-190.5 565,-190.5"/>
<text text-anchor="middle" x="612.5" y="-197.5" font-family="Helvetica,sans-Serif" font-size="10.00">device::CDev::init</text>
</a>
</g>
</g>
<!-- Node4&#45;&gt;Node5 -->
<g id="edge4" class="edge"><title>Node4&#45;&gt;Node5</title>
<path fill="none" stroke="midnightblue" d="M529.081,-198.779C537.503,-198.904 546.25,-199.033 554.763,-199.159"/>
<polygon fill="midnightblue" stroke="midnightblue" points="554.943,-202.662 564.993,-199.311 555.046,-195.663 554.943,-202.662"/>
</g>
<!-- Node6 -->
<g id="node6" class="node"><title>Node6</title>
<g id="a_node6"><a xlink:href="../../dd/dd3/classdevice_1_1_device.html#a88428ba671d9c225504fc2f0aed2a72a" target="_top" xlink:title="Initialise the driver and make it ready for use. ">
<polygon fill="white" stroke="black" points="698.5,-228.5 698.5,-247.5 799.5,-247.5 799.5,-228.5 698.5,-228.5"/>
<text text-anchor="middle" x="749" y="-235.5" font-family="Helvetica,sans-Serif" font-size="10.00">device::Device::init</text>
</a>
</g>
</g>
<!-- Node5&#45;&gt;Node6 -->
<g id="edge5" class="edge"><title>Node5&#45;&gt;Node6</title>
<path fill="none" stroke="midnightblue" d="M647.44,-209.589C664.723,-214.472 685.933,-220.464 704.411,-225.685"/>
<polygon fill="midnightblue" stroke="midnightblue" points="703.496,-229.063 714.071,-228.414 705.399,-222.327 703.496,-229.063"/>
</g>
<!-- Node7 -->
<g id="node7" class="node"><title>Node7</title>
<g id="a_node7"><a xlink:href="../../da/dc9/posix_2cdev__platform_8cpp.html#a4c69ea88a27571245bd4dc9c06a3d18b" target="_top" xlink:title="register_driver">
<polygon fill="white" stroke="black" points="710,-190.5 710,-209.5 788,-209.5 788,-190.5 710,-190.5"/>
<text text-anchor="middle" x="749" y="-197.5" font-family="Helvetica,sans-Serif" font-size="10.00">register_driver</text>
</a>
</g>
</g>
<!-- Node5&#45;&gt;Node7 -->
<g id="edge6" class="edge"><title>Node5&#45;&gt;Node7</title>
<path fill="none" stroke="midnightblue" d="M660.164,-200C672.976,-200 686.891,-200 699.788,-200"/>
<polygon fill="midnightblue" stroke="midnightblue" points="699.872,-203.5 709.872,-200 699.872,-196.5 699.872,-203.5"/>
</g>
<!-- Node8 -->
<g id="node8" class="node"><title>Node8</title>
<g id="a_node8"><a xlink:href="../../d6/dfb/stubs__posix_8c.html#a12809c44718c21544ceb280dc1a53573" target="_top" xlink:title="pthread_mutex_lock">
<polygon fill="white" stroke="black" points="849.5,-114.5 849.5,-133.5 953.5,-133.5 953.5,-114.5 849.5,-114.5"/>
<text text-anchor="middle" x="901.5" y="-121.5" font-family="Helvetica,sans-Serif" font-size="10.00">pthread_mutex_lock</text>
</a>
</g>
</g>
<!-- Node7&#45;&gt;Node8 -->
<g id="edge7" class="edge"><title>Node7&#45;&gt;Node8</title>
<path fill="none" stroke="midnightblue" d="M762.461,-190.31C778.945,-177.882 809.276,-156.346 838,-143 842.763,-140.787 847.849,-138.753 852.984,-136.905"/>
<polygon fill="midnightblue" stroke="midnightblue" points="854.487,-140.092 862.848,-133.584 852.254,-133.458 854.487,-140.092"/>
</g>
<!-- Node9 -->
<g id="node9" class="node"><title>Node9</title>
<g id="a_node9"><a xlink:href="../../d6/dfb/stubs__posix_8c.html#a96184290ffb60e04c53a52869cf960a2" target="_top" xlink:title="pthread_mutex_unlock">
<polygon fill="white" stroke="black" points="844,-152.5 844,-171.5 959,-171.5 959,-152.5 844,-152.5"/>
<text text-anchor="middle" x="901.5" y="-159.5" font-family="Helvetica,sans-Serif" font-size="10.00">pthread_mutex_unlock</text>
</a>
</g>
</g>
<!-- Node7&#45;&gt;Node9 -->
<g id="edge8" class="edge"><title>Node7&#45;&gt;Node9</title>
<path fill="none" stroke="midnightblue" d="M787.978,-190.411C807.659,-185.442 831.891,-179.323 852.821,-174.039"/>
<polygon fill="midnightblue" stroke="midnightblue" points="853.957,-177.362 862.796,-171.52 852.243,-170.575 853.957,-177.362"/>
</g>
<!-- Node11 -->
<g id="node11" class="node"><title>Node11</title>
<g id="a_node11"><a xlink:href="../../da/dc9/posix_2cdev__platform_8cpp.html#a050ecef08105582119cf1adf517a9c06" target="_top" xlink:title="px4_close">
<polygon fill="white" stroke="black" points="582,-114.5 582,-133.5 643,-133.5 643,-114.5 582,-114.5"/>
<text text-anchor="middle" x="612.5" y="-121.5" font-family="Helvetica,sans-Serif" font-size="10.00">px4_close</text>
</a>
</g>
</g>
<!-- Node10&#45;&gt;Node11 -->
<g id="edge10" class="edge"><title>Node10&#45;&gt;Node11</title>
<path fill="none" stroke="midnightblue" d="M386.116,-128.054C440.084,-127.083 522.836,-125.595 571.624,-124.717"/>
<polygon fill="midnightblue" stroke="midnightblue" points="571.855,-128.214 581.79,-124.534 571.729,-121.215 571.855,-128.214"/>
</g>
<!-- Node11&#45;&gt;Node8 -->
<g id="edge18" class="edge"><title>Node11&#45;&gt;Node8</title>
<path fill="none" stroke="midnightblue" d="M643.004,-115.497C658.611,-111.435 678.183,-107.025 696,-105 742.81,-99.6794 755.103,-100.518 802,-105 817.928,-106.522 835.11,-109.399 850.595,-112.462"/>
<polygon fill="midnightblue" stroke="midnightblue" points="849.996,-115.912 860.495,-114.489 851.401,-109.054 849.996,-115.912"/>
</g>
<!-- Node11&#45;&gt;Node9 -->
<g id="edge19" class="edge"><title>Node11&#45;&gt;Node9</title>
<path fill="none" stroke="midnightblue" d="M643.096,-131.827C658.73,-135.703 678.296,-140.152 696,-143 741.662,-150.346 793.552,-155.125 833.636,-158.053"/>
<polygon fill="midnightblue" stroke="midnightblue" points="833.601,-161.56 843.824,-158.776 834.097,-154.577 833.601,-161.56"/>
</g>
<!-- Node12 -->
<g id="node12" class="node"><title>Node12</title>
<g id="a_node12"><a xlink:href="../../db/dcf/classdevice_1_1_c_dev.html#aa4b6921cbd58b12e005fa5656f0fe546" target="_top" xlink:title="Handle a close of the device. ">
<polygon fill="white" stroke="black" points="696,-38.5 696,-57.5 802,-57.5 802,-38.5 696,-38.5"/>
<text text-anchor="middle" x="749" y="-45.5" font-family="Helvetica,sans-Serif" font-size="10.00">device::CDev::close</text>
</a>
</g>
</g>
<!-- Node11&#45;&gt;Node12 -->
<g id="edge11" class="edge"><title>Node11&#45;&gt;Node12</title>
<path fill="none" stroke="midnightblue" d="M627.471,-114.407C643.615,-103.509 671.152,-85.4909 696,-72 702.399,-68.5256 709.393,-65.0749 716.117,-61.9188"/>
<polygon fill="midnightblue" stroke="midnightblue" points="718.043,-64.886 725.675,-57.537 715.126,-58.5228 718.043,-64.886"/>
</g>
<!-- Node16 -->
<g id="node16" class="node"><title>Node16</title>
<g id="a_node16"><a xlink:href="../../da/dc9/posix_2cdev__platform_8cpp.html#a06fbe4d696a8fc67079810478882f8b9" target="_top" xlink:title="get_vdev">
<polygon fill="white" stroke="black" points="721,-114.5 721,-133.5 777,-133.5 777,-114.5 721,-114.5"/>
<text text-anchor="middle" x="749" y="-121.5" font-family="Helvetica,sans-Serif" font-size="10.00">get_vdev</text>
</a>
</g>
</g>
<!-- Node11&#45;&gt;Node16 -->
<g id="edge15" class="edge"><title>Node11&#45;&gt;Node16</title>
<path fill="none" stroke="midnightblue" d="M643.017,-124C662.953,-124 689.431,-124 710.807,-124"/>
<polygon fill="midnightblue" stroke="midnightblue" points="710.84,-127.5 720.84,-124 710.84,-120.5 710.84,-127.5"/>
</g>
<!-- Node13 -->
<g id="node13" class="node"><title>Node13</title>
<g id="a_node13"><a xlink:href="../../db/dcf/classdevice_1_1_c_dev.html#a532f13f26f056bd17931efe7db10260e" target="_top" xlink:title="Take the driver lock. ">
<polygon fill="white" stroke="black" points="851,-76.5 851,-95.5 952,-95.5 952,-76.5 851,-76.5"/>
<text text-anchor="middle" x="901.5" y="-83.5" font-family="Helvetica,sans-Serif" font-size="10.00">device::CDev::lock</text>
</a>
</g>
</g>
<!-- Node12&#45;&gt;Node13 -->
<g id="edge12" class="edge"><title>Node12&#45;&gt;Node13</title>
<path fill="none" stroke="midnightblue" d="M787.978,-57.589C807.659,-62.5583 831.891,-68.6767 852.821,-73.9613"/>
<polygon fill="midnightblue" stroke="midnightblue" points="852.243,-77.4253 862.796,-76.4799 853.957,-70.6383 852.243,-77.4253"/>
</g>
<!-- Node14 -->
<g id="node14" class="node"><title>Node14</title>
<g id="a_node14"><a xlink:href="../../db/dcf/classdevice_1_1_c_dev.html#aa941581fcab66cff1a3403233e5569ad" target="_top" xlink:title="Notification of the last close. ">
<polygon fill="white" stroke="black" points="838,-38.5 838,-57.5 965,-57.5 965,-38.5 838,-38.5"/>
<text text-anchor="middle" x="901.5" y="-45.5" font-family="Helvetica,sans-Serif" font-size="10.00">device::CDev::close_last</text>
</a>
</g>
</g>
<!-- Node12&#45;&gt;Node14 -->
<g id="edge13" class="edge"><title>Node12&#45;&gt;Node14</title>
<path fill="none" stroke="midnightblue" d="M802.215,-48C810.453,-48 819.098,-48 827.701,-48"/>
<polygon fill="midnightblue" stroke="midnightblue" points="827.753,-51.5001 837.753,-48 827.753,-44.5001 827.753,-51.5001"/>
</g>
<!-- Node15 -->
<g id="node15" class="node"><title>Node15</title>
<g id="a_node15"><a xlink:href="../../db/dcf/classdevice_1_1_c_dev.html#af34c341f89cc744e2f327ec01ed5e4dd" target="_top" xlink:title="Release the driver lock. ">
<polygon fill="white" stroke="black" points="846,-0.5 846,-19.5 957,-19.5 957,-0.5 846,-0.5"/>
<text text-anchor="middle" x="901.5" y="-7.5" font-family="Helvetica,sans-Serif" font-size="10.00">device::CDev::unlock</text>
</a>
</g>
</g>
<!-- Node12&#45;&gt;Node15 -->
<g id="edge14" class="edge"><title>Node12&#45;&gt;Node15</title>
<path fill="none" stroke="midnightblue" d="M787.978,-38.411C807.659,-33.4417 831.891,-27.3233 852.821,-22.0387"/>
<polygon fill="midnightblue" stroke="midnightblue" points="853.957,-25.3617 862.796,-19.5201 852.243,-18.5747 853.957,-25.3617"/>
</g>
<!-- Node16&#45;&gt;Node8 -->
<g id="edge16" class="edge"><title>Node16&#45;&gt;Node8</title>
<path fill="none" stroke="midnightblue" d="M777.254,-124C794.585,-124 817.745,-124 839.309,-124"/>
<polygon fill="midnightblue" stroke="midnightblue" points="839.404,-127.5 849.404,-124 839.404,-120.5 839.404,-127.5"/>
</g>
<!-- Node16&#45;&gt;Node9 -->
<g id="edge17" class="edge"><title>Node16&#45;&gt;Node9</title>
<path fill="none" stroke="midnightblue" d="M777.254,-130.882C798.249,-136.183 827.799,-143.643 852.7,-149.931"/>
<polygon fill="midnightblue" stroke="midnightblue" points="852.141,-153.4 862.694,-152.454 853.855,-146.613 852.141,-153.4"/>
</g>
</g>
</svg>
