<?xml version="1.0" encoding="UTF-8" standalone="no"?>
<!DOCTYPE svg PUBLIC "-//W3C//DTD SVG 1.1//EN"
 "http://www.w3.org/Graphics/SVG/1.1/DTD/svg11.dtd">
<!-- Generated by graphviz version 2.40.1 (20161225.0304)
 -->
<!-- Title: UavcanNode::set_param Pages: 1 -->
<svg width="556pt" height="253pt"
 viewBox="0.00 0.00 556.00 252.50" xmlns="http://www.w3.org/2000/svg" xmlns:xlink="http://www.w3.org/1999/xlink">
<g id="graph0" class="graph" transform="scale(1 1) rotate(0) translate(4 248.5)">
<title>UavcanNode::set_param</title>
<polygon fill="#ffffff" stroke="transparent" points="-4,4 -4,-248.5 552,-248.5 552,4 -4,4"/>
<!-- Node852 -->
<g id="node1" class="node">
<title>Node852</title>
<polygon fill="#bfbfbf" stroke="#000000" points="0,-110 0,-129 125,-129 125,-110 0,-110"/>
<text text-anchor="middle" x="62.5" y="-117" font-family="Helvetica,sans-Serif" font-size="10.00" fill="#000000">UavcanNode::set_param</text>
</g>
<!-- Node853 -->
<g id="node2" class="node">
<title>Node853</title>
<g id="a_node2"><a xlink:href="../../d8/da1/integration_8cpp.html#af5ba872dd09316732300733cc164ac1a" target="_top" xlink:title="f">
<polygon fill="#ffffff" stroke="#000000" points="210.5,-225 210.5,-244 239.5,-244 239.5,-225 210.5,-225"/>
<text text-anchor="middle" x="225" y="-232" font-family="Helvetica,sans-Serif" font-size="10.00" fill="#000000">f</text>
</a>
</g>
</g>
<!-- Node852&#45;&gt;Node853 -->
<g id="edge1" class="edge">
<title>Node852&#45;&gt;Node853</title>
<path fill="none" stroke="#191970" d="M69.7716,-129.241C84.7088,-148.5703 120.8374,-191.9375 161,-215.5 173.062,-222.5765 187.9707,-227.2031 200.3634,-230.1172"/>
<polygon fill="#191970" stroke="#191970" points="199.9635,-233.61 210.4715,-232.2557 201.4125,-226.7616 199.9635,-233.61"/>
</g>
<!-- Node856 -->
<g id="node5" class="node">
<title>Node856</title>
<g id="a_node5"><a xlink:href="../../d5/d94/class_uavcan_node.html#ad4eb9943d2363f93f26181cab0a882a4" target="_top" xlink:title="UavcanNode::free_setget\l_response">
<polygon fill="#ffffff" stroke="#000000" points="161,-175.5 161,-205.5 289,-205.5 289,-175.5 161,-175.5"/>
<text text-anchor="start" x="169" y="-193.5" font-family="Helvetica,sans-Serif" font-size="10.00" fill="#000000">UavcanNode::free_setget</text>
<text text-anchor="middle" x="225" y="-182.5" font-family="Helvetica,sans-Serif" font-size="10.00" fill="#000000">_response</text>
</a>
</g>
</g>
<!-- Node852&#45;&gt;Node856 -->
<g id="edge5" class="edge">
<title>Node852&#45;&gt;Node856</title>
<path fill="none" stroke="#191970" d="M81.9552,-129.0391C101.7042,-138.6147 133.2411,-153.6112 161,-165.5 165.7442,-167.5319 170.7129,-169.5911 175.6946,-171.6102"/>
<polygon fill="#191970" stroke="#191970" points="174.6506,-174.9622 185.2353,-175.4263 177.2503,-168.4628 174.6506,-174.9622"/>
</g>
<!-- Node857 -->
<g id="node6" class="node">
<title>Node857</title>
<g id="a_node6"><a xlink:href="../../d5/d94/class_uavcan_node.html#a86556a2901177615fb2820840c6a0d72" target="_top" xlink:title="UavcanNode::get_set\l_param">
<polygon fill="#ffffff" stroke="#000000" points="169,-126.5 169,-156.5 281,-156.5 281,-126.5 169,-126.5"/>
<text text-anchor="start" x="177" y="-144.5" font-family="Helvetica,sans-Serif" font-size="10.00" fill="#000000">UavcanNode::get_set</text>
<text text-anchor="middle" x="225" y="-133.5" font-family="Helvetica,sans-Serif" font-size="10.00" fill="#000000">_param</text>
</a>
</g>
</g>
<!-- Node852&#45;&gt;Node857 -->
<g id="edge6" class="edge">
<title>Node852&#45;&gt;Node857</title>
<path fill="none" stroke="#191970" d="M125.3267,-128.0058C136.3358,-129.4962 147.8212,-131.0512 158.9154,-132.5532"/>
<polygon fill="#191970" stroke="#191970" points="158.59,-136.041 168.9692,-133.9143 159.5292,-129.1042 158.59,-136.041"/>
</g>
<!-- Node859 -->
<g id="node8" class="node">
<title>Node859</title>
<g id="a_node8"><a xlink:href="../../dd/d47/namespacemath.html#ad42187b143e9e0e96bb14c7edcfbfef6" target="_top" xlink:title="math::max">
<polygon fill="#ffffff" stroke="#000000" points="193.5,-88 193.5,-107 256.5,-107 256.5,-88 193.5,-88"/>
<text text-anchor="middle" x="225" y="-95" font-family="Helvetica,sans-Serif" font-size="10.00" fill="#000000">math::max</text>
</a>
</g>
</g>
<!-- Node852&#45;&gt;Node859 -->
<g id="edge8" class="edge">
<title>Node852&#45;&gt;Node859</title>
<path fill="none" stroke="#191970" d="M125.3267,-110.9942C144.738,-108.3662 165.6303,-105.5377 183.2482,-103.1526"/>
<polygon fill="#191970" stroke="#191970" points="183.7671,-106.6143 193.2071,-101.8043 182.8279,-99.6776 183.7671,-106.6143"/>
</g>
<!-- Node860 -->
<g id="node9" class="node">
<title>Node860</title>
<g id="a_node9"><a xlink:href="../../dd/d47/namespacemath.html#a0590ec5bbbdad228b5a47307af425055" target="_top" xlink:title="math::min">
<polygon fill="#ffffff" stroke="#000000" points="195,-50 195,-69 255,-69 255,-50 195,-50"/>
<text text-anchor="middle" x="225" y="-57" font-family="Helvetica,sans-Serif" font-size="10.00" fill="#000000">math::min</text>
</a>
</g>
</g>
<!-- Node852&#45;&gt;Node860 -->
<g id="edge9" class="edge">
<title>Node852&#45;&gt;Node860</title>
<path fill="none" stroke="#191970" d="M83.7655,-109.8802C103.5445,-101.1175 133.9474,-88.1154 161,-78.5 168.7642,-75.7403 177.1519,-73.0481 185.2179,-70.5987"/>
<polygon fill="#191970" stroke="#191970" points="186.2438,-73.9452 194.8337,-67.7432 184.2511,-67.2348 186.2438,-73.9452"/>
</g>
<!-- Node861 -->
<g id="node10" class="node">
<title>Node861</title>
<g id="a_node10"><a xlink:href="../../d5/d94/class_uavcan_node.html#ad90314817c7938d819cc80425fc493e0" target="_top" xlink:title="UavcanNode::set_setget\l_response">
<polygon fill="#ffffff" stroke="#000000" points="162.5,-.5 162.5,-30.5 287.5,-30.5 287.5,-.5 162.5,-.5"/>
<text text-anchor="start" x="170.5" y="-18.5" font-family="Helvetica,sans-Serif" font-size="10.00" fill="#000000">UavcanNode::set_setget</text>
<text text-anchor="middle" x="225" y="-7.5" font-family="Helvetica,sans-Serif" font-size="10.00" fill="#000000">_response</text>
</a>
</g>
</g>
<!-- Node852&#45;&gt;Node861 -->
<g id="edge10" class="edge">
<title>Node852&#45;&gt;Node861</title>
<path fill="none" stroke="#191970" d="M72.3754,-109.848C89.3113,-93.7133 125.5113,-61.0173 161,-40.5 164.445,-38.5083 168.079,-36.6111 171.7942,-34.8177"/>
<polygon fill="#191970" stroke="#191970" points="173.4751,-37.8985 181.1349,-30.5787 170.5823,-31.5242 173.4751,-37.8985"/>
</g>
<!-- Node854 -->
<g id="node3" class="node">
<title>Node854</title>
<g id="a_node3"><a xlink:href="../../d0/de4/namespacematrix.html#a761295febb473ca1226309513533e801" target="_top" xlink:title="matrix::sin">
<polygon fill="#ffffff" stroke="#000000" points="355,-225 355,-244 417,-244 417,-225 355,-225"/>
<text text-anchor="middle" x="386" y="-232" font-family="Helvetica,sans-Serif" font-size="10.00" fill="#000000">matrix::sin</text>
</a>
</g>
</g>
<!-- Node853&#45;&gt;Node854 -->
<g id="edge2" class="edge">
<title>Node853&#45;&gt;Node854</title>
<path fill="none" stroke="#191970" d="M239.5716,-234.5C263.0715,-234.5 310.1864,-234.5 344.6485,-234.5"/>
<polygon fill="#191970" stroke="#191970" points="344.8973,-238.0001 354.8972,-234.5 344.8972,-231.0001 344.8973,-238.0001"/>
</g>
<!-- Node855 -->
<g id="node4" class="node">
<title>Node855</title>
<g id="a_node4"><a xlink:href="../../d0/de4/namespacematrix.html#a2e09123c750ed3a0315a31f3b27a3ed9" target="_top" xlink:title="matrix::cos">
<polygon fill="#ffffff" stroke="#000000" points="483,-225 483,-244 548,-244 548,-225 483,-225"/>
<text text-anchor="middle" x="515.5" y="-232" font-family="Helvetica,sans-Serif" font-size="10.00" fill="#000000">matrix::cos</text>
</a>
</g>
</g>
<!-- Node854&#45;&gt;Node855 -->
<g id="edge3" class="edge">
<title>Node854&#45;&gt;Node855</title>
<path fill="none" stroke="#191970" d="M417.0185,-228.6408C433.7347,-227.6684 454.6124,-227.4921 472.8376,-228.1119"/>
<polygon fill="#191970" stroke="#191970" points="472.784,-231.6128 482.9275,-228.5534 473.0901,-224.6195 472.784,-231.6128"/>
</g>
<!-- Node855&#45;&gt;Node854 -->
<g id="edge4" class="edge">
<title>Node855&#45;&gt;Node854</title>
<path fill="none" stroke="#191970" d="M482.9275,-240.4466C466.0406,-241.3658 445.2386,-241.4962 427.2406,-240.8379"/>
<polygon fill="#191970" stroke="#191970" points="427.1713,-237.3309 417.0185,-240.3592 426.8438,-244.3233 427.1713,-237.3309"/>
</g>
<!-- Node858 -->
<g id="node7" class="node">
<title>Node858</title>
<g id="a_node7"><a xlink:href="../../d5/d94/class_uavcan_node.html#a08b61f5163031b6fb70d6cb8d3aee516" target="_top" xlink:title="UavcanNode::cb_setget">
<polygon fill="#ffffff" stroke="#000000" points="325,-132 325,-151 447,-151 447,-132 325,-132"/>
<text text-anchor="middle" x="386" y="-139" font-family="Helvetica,sans-Serif" font-size="10.00" fill="#000000">UavcanNode::cb_setget</text>
</a>
</g>
</g>
<!-- Node857&#45;&gt;Node858 -->
<g id="edge7" class="edge">
<title>Node857&#45;&gt;Node858</title>
<path fill="none" stroke="#191970" d="M281.31,-141.5C292.0711,-141.5 303.4679,-141.5 314.6277,-141.5"/>
<polygon fill="#191970" stroke="#191970" points="314.7848,-145.0001 324.7848,-141.5 314.7848,-138.0001 314.7848,-145.0001"/>
</g>
</g>
</svg>
