<?xml version="1.0" encoding="UTF-8" standalone="no"?>
<!DOCTYPE svg PUBLIC "-//W3C//DTD SVG 1.1//EN"
 "http://www.w3.org/Graphics/SVG/1.1/DTD/svg11.dtd">
<!-- Generated by graphviz version 2.38.0 (20140413.2041)
 -->
<!-- Title: matrix::Quaternion::Quaternion Pages: 1 -->
<svg width="241pt" height="104pt"
 viewBox="0.00 0.00 241.00 104.00" xmlns="http://www.w3.org/2000/svg" xmlns:xlink="http://www.w3.org/1999/xlink">
<g id="graph0" class="graph" transform="scale(1 1) rotate(0) translate(4 100)">
<title>matrix::Quaternion::Quaternion</title>
<polygon fill="white" stroke="none" points="-4,4 -4,-100 237,-100 237,4 -4,4"/>
<!-- Node1 -->
<g id="node1" class="node"><title>Node1</title>
<polygon fill="#bfbfbf" stroke="black" points="0,-33 0,-63 97,-63 97,-33 0,-33"/>
<text text-anchor="start" x="8" y="-51" font-family="Helvetica,sans-Serif" font-size="10.00">matrix::Quaternion</text>
<text text-anchor="middle" x="48.5" y="-40" font-family="Helvetica,sans-Serif" font-size="10.00">::Quaternion</text>
</g>
<!-- Node2 -->
<g id="node2" class="node"><title>Node2</title>
<g id="a_node2"><a xlink:href="../../d5/dcc/classmatrix_1_1_euler.html#a134776bf2b97d2ed41bb00daed9a3214" target="_top" xlink:title="matrix::Euler::phi">
<polygon fill="white" stroke="black" points="137.5,-76.5 137.5,-95.5 228.5,-95.5 228.5,-76.5 137.5,-76.5"/>
<text text-anchor="middle" x="183" y="-83.5" font-family="Helvetica,sans-Serif" font-size="10.00">matrix::Euler::phi</text>
</a>
</g>
</g>
<!-- Node1&#45;&gt;Node2 -->
<g id="edge1" class="edge"><title>Node1&#45;&gt;Node2</title>
<path fill="none" stroke="midnightblue" d="M97.3355,-61.7189C110.922,-65.6153 125.63,-69.8335 138.916,-73.6439"/>
<polygon fill="midnightblue" stroke="midnightblue" points="138.18,-77.0737 148.757,-76.4662 140.109,-70.3449 138.18,-77.0737"/>
</g>
<!-- Node3 -->
<g id="node3" class="node"><title>Node3</title>
<g id="a_node3"><a xlink:href="../../d5/dcc/classmatrix_1_1_euler.html#a931d9fe7c66499c293460b4f64ce24a8" target="_top" xlink:title="matrix::Euler::psi">
<polygon fill="white" stroke="black" points="137.5,-38.5 137.5,-57.5 228.5,-57.5 228.5,-38.5 137.5,-38.5"/>
<text text-anchor="middle" x="183" y="-45.5" font-family="Helvetica,sans-Serif" font-size="10.00">matrix::Euler::psi</text>
</a>
</g>
</g>
<!-- Node1&#45;&gt;Node3 -->
<g id="edge2" class="edge"><title>Node1&#45;&gt;Node3</title>
<path fill="none" stroke="midnightblue" d="M97.3355,-48C107.018,-48 117.271,-48 127.173,-48"/>
<polygon fill="midnightblue" stroke="midnightblue" points="127.326,-51.5001 137.326,-48 127.326,-44.5001 127.326,-51.5001"/>
</g>
<!-- Node4 -->
<g id="node4" class="node"><title>Node4</title>
<g id="a_node4"><a xlink:href="../../d5/dcc/classmatrix_1_1_euler.html#a5acb18c91a269f349cd2449e63e59dae" target="_top" xlink:title="matrix::Euler::theta">
<polygon fill="white" stroke="black" points="133,-0.5 133,-19.5 233,-19.5 233,-0.5 133,-0.5"/>
<text text-anchor="middle" x="183" y="-7.5" font-family="Helvetica,sans-Serif" font-size="10.00">matrix::Euler::theta</text>
</a>
</g>
</g>
<!-- Node1&#45;&gt;Node4 -->
<g id="edge3" class="edge"><title>Node1&#45;&gt;Node4</title>
<path fill="none" stroke="midnightblue" d="M97.3355,-34.2811C110.922,-30.3847 125.63,-26.1665 138.916,-22.3561"/>
<polygon fill="midnightblue" stroke="midnightblue" points="140.109,-25.6551 148.757,-19.5338 138.18,-18.9263 140.109,-25.6551"/>
</g>
</g>
</svg>
