<?xml version="1.0" encoding="UTF-8" standalone="no"?>
<!DOCTYPE svg PUBLIC "-//W3C//DTD SVG 1.1//EN"
 "http://www.w3.org/Graphics/SVG/1.1/DTD/svg11.dtd">
<!-- Generated by graphviz version 2.38.0 (20140413.2041)
 -->
<!-- Title: HMC5883::set_range Pages: 1 -->
<svg width="857pt" height="273pt"
 viewBox="0.00 0.00 857.00 273.47" xmlns="http://www.w3.org/2000/svg" xmlns:xlink="http://www.w3.org/1999/xlink">
<g id="graph0" class="graph" transform="scale(1 1) rotate(0) translate(4 269.473)">
<title>HMC5883::set_range</title>
<polygon fill="white" stroke="none" points="-4,4 -4,-269.473 853,-269.473 853,4 -4,4"/>
<!-- Node1 -->
<g id="node1" class="node"><title>Node1</title>
<polygon fill="#bfbfbf" stroke="black" points="0,-126 0,-145 110,-145 110,-126 0,-126"/>
<text text-anchor="middle" x="55" y="-133" font-family="Helvetica,sans-Serif" font-size="10.00">HMC5883::set_range</text>
</g>
<!-- Node2 -->
<g id="node2" class="node"><title>Node2</title>
<g id="a_node2"><a xlink:href="../../d5/dad/class_h_m_c5883.html#afe7634b15765ccc24fa3248f49f8bd6d" target="_top" xlink:title="HMC5883::ioctl">
<polygon fill="white" stroke="black" points="271,-145 271,-164 356,-164 356,-145 271,-145"/>
<text text-anchor="middle" x="313.5" y="-152" font-family="Helvetica,sans-Serif" font-size="10.00">HMC5883::ioctl</text>
</a>
</g>
</g>
<!-- Node1&#45;&gt;Node2 -->
<g id="edge1" class="edge"><title>Node1&#45;&gt;Node2</title>
<path fill="none" stroke="midnightblue" d="M120.19,-140.255C167.31,-143.745 229.952,-148.385 270.739,-151.407"/>
<polygon fill="midnightblue" stroke="midnightblue" points="120.315,-136.755 110.084,-139.506 119.798,-143.735 120.315,-136.755"/>
</g>
<!-- Node12 -->
<g id="node12" class="node"><title>Node12</title>
<g id="a_node12"><a xlink:href="../../d5/dad/class_h_m_c5883.html#a25f18bd1680efc7366da137cbbede0bb" target="_top" xlink:title="Reset the device. ">
<polygon fill="white" stroke="black" points="146,-107 146,-126 235,-126 235,-107 146,-107"/>
<text text-anchor="middle" x="190.5" y="-114" font-family="Helvetica,sans-Serif" font-size="10.00">HMC5883::reset</text>
</a>
</g>
</g>
<!-- Node1&#45;&gt;Node12 -->
<g id="edge17" class="edge"><title>Node1&#45;&gt;Node12</title>
<path fill="none" stroke="midnightblue" d="M120.382,-126.337C129.022,-125.107 137.714,-123.87 145.879,-122.708"/>
<polygon fill="midnightblue" stroke="midnightblue" points="119.707,-122.898 110.3,-127.772 120.693,-129.828 119.707,-122.898"/>
</g>
<!-- Node3 -->
<g id="node3" class="node"><title>Node3</title>
<g id="a_node3"><a xlink:href="../../d5/dad/class_h_m_c5883.html#af62280e6a08c2f18962e9c7e18941938" target="_top" xlink:title="Perform the on&#45;sensor scale calibration routine. ">
<polygon fill="white" stroke="black" points="405.5,-240 405.5,-259 509.5,-259 509.5,-240 405.5,-240"/>
<text text-anchor="middle" x="457.5" y="-247" font-family="Helvetica,sans-Serif" font-size="10.00">HMC5883::calibrate</text>
</a>
</g>
</g>
<!-- Node2&#45;&gt;Node3 -->
<g id="edge2" class="edge"><title>Node2&#45;&gt;Node3</title>
<path fill="none" stroke="midnightblue" d="M333.91,-171.526C348.309,-186.767 369.307,-208.172 392,-221.5 407.3,-230.486 427.17,-235.5 440.789,-239.974"/>
<polygon fill="midnightblue" stroke="midnightblue" points="336.411,-169.076 327.008,-164.193 331.313,-173.874 336.411,-169.076"/>
</g>
<!-- Node5 -->
<g id="node5" class="node"><title>Node5</title>
<g id="a_node5"><a xlink:href="../../d2/dd2/namespacehmc5883.html#a908535d4673436b75edbfb6a4eba7030" target="_top" xlink:title="Automatic scale calibration. ">
<polygon fill="white" stroke="black" points="408,-202 408,-221 507,-221 507,-202 408,-202"/>
<text text-anchor="middle" x="457.5" y="-209" font-family="Helvetica,sans-Serif" font-size="10.00">hmc5883::calibrate</text>
</a>
</g>
</g>
<!-- Node2&#45;&gt;Node5 -->
<g id="edge5" class="edge"><title>Node2&#45;&gt;Node5</title>
<path fill="none" stroke="midnightblue" d="M345.381,-168.037C359.527,-174.138 376.548,-181.339 392,-187.5 404.43,-192.456 418.33,-197.669 430.034,-201.966"/>
<polygon fill="midnightblue" stroke="midnightblue" points="346.67,-164.781 336.103,-164.016 343.886,-171.204 346.67,-164.781"/>
</g>
<!-- Node7 -->
<g id="node7" class="node"><title>Node7</title>
<g id="a_node7"><a xlink:href="../../d2/dd2/namespacehmc5883.html#a7835bbc0621ef79f05183a9f24933a91" target="_top" xlink:title="Reset the driver. ">
<polygon fill="white" stroke="black" points="576,-164 576,-183 660,-183 660,-164 576,-164"/>
<text text-anchor="middle" x="618" y="-171" font-family="Helvetica,sans-Serif" font-size="10.00">hmc5883::reset</text>
</a>
</g>
</g>
<!-- Node2&#45;&gt;Node7 -->
<g id="edge8" class="edge"><title>Node2&#45;&gt;Node7</title>
<path fill="none" stroke="midnightblue" d="M366.502,-157.766C425.732,-161.486 521.316,-167.49 575.685,-170.905"/>
<polygon fill="midnightblue" stroke="midnightblue" points="366.444,-154.256 356.244,-157.122 366.005,-161.242 366.444,-154.256"/>
</g>
<!-- Node8 -->
<g id="node8" class="node"><title>Node8</title>
<g id="a_node8"><a xlink:href="../../d2/dd2/namespacehmc5883.html#ac8c2746e5f357283d28bf62efa03a4e9" target="_top" xlink:title="start driver for a specific bus option ">
<polygon fill="white" stroke="black" points="406,-126 406,-145 509,-145 509,-126 406,-126"/>
<text text-anchor="middle" x="457.5" y="-133" font-family="Helvetica,sans-Serif" font-size="10.00">hmc5883::start_bus</text>
</a>
</g>
</g>
<!-- Node2&#45;&gt;Node8 -->
<g id="edge10" class="edge"><title>Node2&#45;&gt;Node8</title>
<path fill="none" stroke="midnightblue" d="M366.438,-147.55C379.321,-145.827 393.108,-143.982 405.924,-142.267"/>
<polygon fill="midnightblue" stroke="midnightblue" points="365.784,-144.107 356.337,-148.902 366.713,-151.045 365.784,-144.107"/>
</g>
<!-- Node10 -->
<g id="node10" class="node"><title>Node10</title>
<g id="a_node10"><a xlink:href="../../d2/dd2/namespacehmc5883.html#a0e482c094e232bcd863f3874218547f1" target="_top" xlink:title="enable/disable temperature compensation ">
<polygon fill="white" stroke="black" points="559,-88 559,-107 677,-107 677,-88 559,-88"/>
<text text-anchor="middle" x="618" y="-95" font-family="Helvetica,sans-Serif" font-size="10.00">hmc5883::temp_enable</text>
</a>
</g>
</g>
<!-- Node2&#45;&gt;Node10 -->
<g id="edge13" class="edge"><title>Node2&#45;&gt;Node10</title>
<path fill="none" stroke="midnightblue" d="M338.831,-139.647C353.652,-131.357 373.282,-121.682 392,-116.5 447.16,-101.231 512.586,-97.1979 558.627,-96.5516"/>
<polygon fill="midnightblue" stroke="midnightblue" points="336.756,-136.804 329.845,-144.834 340.255,-142.867 336.756,-136.804"/>
</g>
<!-- Node11 -->
<g id="node11" class="node"><title>Node11</title>
<g id="a_node11"><a xlink:href="../../d2/dd2/namespacehmc5883.html#acf19e9e5e0944644e1594bf04d41971e" target="_top" xlink:title="Perform some basic functional tests on the driver; make sure we can collect data from the sensor in p...">
<polygon fill="white" stroke="black" points="418,-50 418,-69 497,-69 497,-50 418,-50"/>
<text text-anchor="middle" x="457.5" y="-57" font-family="Helvetica,sans-Serif" font-size="10.00">hmc5883::test</text>
</a>
</g>
</g>
<!-- Node2&#45;&gt;Node11 -->
<g id="edge15" class="edge"><title>Node2&#45;&gt;Node11</title>
<path fill="none" stroke="midnightblue" d="M329.429,-137.47C344.043,-121.673 367.609,-98.4186 392,-83.5 401.683,-77.5775 413.062,-72.7455 423.544,-69.0103"/>
<polygon fill="midnightblue" stroke="midnightblue" points="326.759,-135.204 322.646,-144.968 331.95,-139.9 326.759,-135.204"/>
</g>
<!-- Node3&#45;&gt;Node2 -->
<g id="edge4" class="edge"><title>Node3&#45;&gt;Node2</title>
<path fill="none" stroke="midnightblue" d="M395.96,-241.688C394.612,-240.987 393.29,-240.257 392,-239.5 358.526,-219.84 328.741,-182.609 318.384,-164.126"/>
<polygon fill="midnightblue" stroke="midnightblue" points="394.616,-244.922 405.166,-245.898 397.528,-238.556 394.616,-244.922"/>
</g>
<!-- Node4 -->
<g id="node4" class="node"><title>Node4</title>
<g id="a_node4"><a xlink:href="../../d9/de0/hmc5883_8cpp.html#a456cca7d4e656cd485c42ed3f7ac49c2" target="_top" xlink:title="hmc5883_main">
<polygon fill="white" stroke="black" points="739.5,-145 739.5,-164 822.5,-164 822.5,-145 739.5,-145"/>
<text text-anchor="middle" x="781" y="-152" font-family="Helvetica,sans-Serif" font-size="10.00">hmc5883_main</text>
</a>
</g>
</g>
<!-- Node3&#45;&gt;Node4 -->
<g id="edge3" class="edge"><title>Node3&#45;&gt;Node4</title>
<path fill="none" stroke="midnightblue" d="M515.027,-260.493C560.414,-266.768 624.936,-269.844 677,-249.5 721.863,-231.97 758.944,-184.727 773.443,-164.22"/>
<polygon fill="midnightblue" stroke="midnightblue" points="515.475,-257.021 505.071,-259.023 514.452,-263.946 515.475,-257.021"/>
</g>
<!-- Node5&#45;&gt;Node4 -->
<g id="edge6" class="edge"><title>Node5&#45;&gt;Node4</title>
<path fill="none" stroke="midnightblue" d="M497.098,-223.898C541.61,-236.155 616.431,-250.427 677,-230.5 717.32,-217.235 754.81,-181.458 771.249,-164.145"/>
<polygon fill="midnightblue" stroke="midnightblue" points="497.846,-220.472 487.269,-221.088 495.922,-227.202 497.846,-220.472"/>
</g>
<!-- Node6 -->
<g id="node6" class="node"><title>Node6</title>
<g id="a_node6"><a xlink:href="../../de/d50/lis3mdl__main_8cpp.html#a5a1a250829c9ac5a02805549f24e87af" target="_top" xlink:title="Driver &#39;main&#39; command. ">
<polygon fill="white" stroke="black" points="581,-202 581,-221 655,-221 655,-202 581,-202"/>
<text text-anchor="middle" x="618" y="-209" font-family="Helvetica,sans-Serif" font-size="10.00">lis3mdl_main</text>
</a>
</g>
</g>
<!-- Node5&#45;&gt;Node6 -->
<g id="edge7" class="edge"><title>Node5&#45;&gt;Node6</title>
<path fill="none" stroke="midnightblue" d="M517.589,-211.5C538.849,-211.5 562.182,-211.5 580.897,-211.5"/>
<polygon fill="midnightblue" stroke="midnightblue" points="517.349,-208 507.349,-211.5 517.349,-215 517.349,-208"/>
</g>
<!-- Node7&#45;&gt;Node4 -->
<g id="edge9" class="edge"><title>Node7&#45;&gt;Node4</title>
<path fill="none" stroke="midnightblue" d="M670.04,-167.477C692.4,-164.838 718.278,-161.784 739.31,-159.302"/>
<polygon fill="midnightblue" stroke="midnightblue" points="669.565,-164.008 660.044,-168.656 670.385,-170.96 669.565,-164.008"/>
</g>
<!-- Node9 -->
<g id="node9" class="node"><title>Node9</title>
<g id="a_node9"><a xlink:href="../../d2/dd2/namespacehmc5883.html#a36740b13ab71387a9d606ad38fcc7d25" target="_top" xlink:title="Start the driver. ">
<polygon fill="white" stroke="black" points="577,-126 577,-145 659,-145 659,-126 577,-126"/>
<text text-anchor="middle" x="618" y="-133" font-family="Helvetica,sans-Serif" font-size="10.00">hmc5883::start</text>
</a>
</g>
</g>
<!-- Node8&#45;&gt;Node9 -->
<g id="edge11" class="edge"><title>Node8&#45;&gt;Node9</title>
<path fill="none" stroke="midnightblue" d="M519.313,-135.5C538.612,-135.5 559.456,-135.5 576.913,-135.5"/>
<polygon fill="midnightblue" stroke="midnightblue" points="519.086,-132 509.086,-135.5 519.086,-139 519.086,-132"/>
</g>
<!-- Node9&#45;&gt;Node4 -->
<g id="edge12" class="edge"><title>Node9&#45;&gt;Node4</title>
<path fill="none" stroke="midnightblue" d="M669.295,-141.435C691.878,-144.1 718.17,-147.203 739.463,-149.716"/>
<polygon fill="midnightblue" stroke="midnightblue" points="669.553,-137.942 659.212,-140.245 668.733,-144.893 669.553,-137.942"/>
</g>
<!-- Node10&#45;&gt;Node4 -->
<g id="edge14" class="edge"><title>Node10&#45;&gt;Node4</title>
<path fill="none" stroke="midnightblue" d="M658.465,-110.212C664.68,-112.276 671.024,-114.42 677,-116.5 703.641,-125.774 733.904,-137.026 754.697,-144.869"/>
<polygon fill="midnightblue" stroke="midnightblue" points="659.468,-106.857 648.875,-107.054 657.279,-113.506 659.468,-106.857"/>
</g>
<!-- Node11&#45;&gt;Node4 -->
<g id="edge16" class="edge"><title>Node11&#45;&gt;Node4</title>
<path fill="none" stroke="midnightblue" d="M507.566,-56.3082C552.985,-55.0634 621.648,-57.5887 677,-78.5 716.499,-93.4222 754.103,-128.058 770.868,-144.926"/>
<polygon fill="midnightblue" stroke="midnightblue" points="507.266,-52.8164 497.393,-56.6607 507.508,-59.8122 507.266,-52.8164"/>
</g>
<!-- Node12&#45;&gt;Node2 -->
<g id="edge22" class="edge"><title>Node12&#45;&gt;Node2</title>
<path fill="none" stroke="midnightblue" d="M231.877,-129.18C248.226,-134.315 266.788,-140.144 281.976,-144.914"/>
<polygon fill="midnightblue" stroke="midnightblue" points="232.623,-125.746 222.033,-126.089 230.525,-132.424 232.623,-125.746"/>
</g>
<!-- Node13 -->
<g id="node13" class="node"><title>Node13</title>
<g id="a_node13"><a xlink:href="../../d5/dad/class_h_m_c5883.html#ac71ae8705d5d23e970a25adeeb9434c7" target="_top" xlink:title="Initialise the driver and make it ready for use. ">
<polygon fill="white" stroke="black" points="273.5,-68 273.5,-87 353.5,-87 353.5,-68 273.5,-68"/>
<text text-anchor="middle" x="313.5" y="-75" font-family="Helvetica,sans-Serif" font-size="10.00">HMC5883::init</text>
</a>
</g>
</g>
<!-- Node12&#45;&gt;Node13 -->
<g id="edge18" class="edge"><title>Node12&#45;&gt;Node13</title>
<path fill="none" stroke="midnightblue" d="M230.718,-103.859C247.634,-98.4072 267.094,-92.1351 282.786,-87.0771"/>
<polygon fill="midnightblue" stroke="midnightblue" points="229.544,-100.56 221.1,-106.96 231.691,-107.223 229.544,-100.56"/>
</g>
<!-- Node14 -->
<g id="node14" class="node"><title>Node14</title>
<g id="a_node14"><a xlink:href="../../d7/d3e/class_df_hmc5883_wrapper.html#a6eb1f21a85e59b3d84ed3ff802b6ab73" target="_top" xlink:title="Start automatic measurement. ">
<polygon fill="white" stroke="black" points="392,-9 392,-28 523,-28 523,-9 392,-9"/>
<text text-anchor="middle" x="457.5" y="-16" font-family="Helvetica,sans-Serif" font-size="10.00">DfHmc5883Wrapper::start</text>
</a>
</g>
</g>
<!-- Node13&#45;&gt;Node14 -->
<g id="edge19" class="edge"><title>Node13&#45;&gt;Node14</title>
<path fill="none" stroke="midnightblue" d="M342.046,-63.3842C356.697,-56.1235 375.125,-47.3789 392,-40.5 402.956,-36.034 415.195,-31.7001 426.042,-28.0766"/>
<polygon fill="midnightblue" stroke="midnightblue" points="340.391,-60.2985 333.018,-67.9068 343.526,-66.5572 340.391,-60.2985"/>
</g>
<!-- Node15 -->
<g id="node15" class="node"><title>Node15</title>
<g id="a_node15"><a xlink:href="../../d6/d1d/namespacedf__hmc5883__wrapper.html#a9955713e49af290bbb6ad343b626f025" target="_top" xlink:title="df_hmc5883_wrapper\l::start">
<polygon fill="white" stroke="black" points="563,-0.5 563,-30.5 673,-30.5 673,-0.5 563,-0.5"/>
<text text-anchor="start" x="571" y="-18.5" font-family="Helvetica,sans-Serif" font-size="10.00">df_hmc5883_wrapper</text>
<text text-anchor="middle" x="618" y="-7.5" font-family="Helvetica,sans-Serif" font-size="10.00">::start</text>
</a>
</g>
</g>
<!-- Node14&#45;&gt;Node15 -->
<g id="edge20" class="edge"><title>Node14&#45;&gt;Node15</title>
<path fill="none" stroke="midnightblue" d="M533.557,-17.0794C543.333,-16.8943 553.194,-16.7077 562.543,-16.5307"/>
<polygon fill="midnightblue" stroke="midnightblue" points="533.357,-13.5824 523.425,-17.2711 533.49,-20.5812 533.357,-13.5824"/>
</g>
<!-- Node16 -->
<g id="node16" class="node"><title>Node16</title>
<g id="a_node16"><a xlink:href="../../dc/d89/df__hmc5883__wrapper_8cpp.html#a97422702cd852554d9a6d24afe9a900e" target="_top" xlink:title="df_hmc5883_wrapper_main">
<polygon fill="white" stroke="black" points="713,-6 713,-25 849,-25 849,-6 713,-6"/>
<text text-anchor="middle" x="781" y="-13" font-family="Helvetica,sans-Serif" font-size="10.00">df_hmc5883_wrapper_main</text>
</a>
</g>
</g>
<!-- Node15&#45;&gt;Node16 -->
<g id="edge21" class="edge"><title>Node15&#45;&gt;Node16</title>
<path fill="none" stroke="midnightblue" d="M683.124,-15.5C692.925,-15.5 703.065,-15.5 712.927,-15.5"/>
<polygon fill="midnightblue" stroke="midnightblue" points="683.059,-12.0001 673.059,-15.5 683.059,-19.0001 683.059,-12.0001"/>
</g>
</g>
</svg>
