<?xml version="1.0" encoding="UTF-8" standalone="no"?>
<!DOCTYPE svg PUBLIC "-//W3C//DTD SVG 1.1//EN"
 "http://www.w3.org/Graphics/SVG/1.1/DTD/svg11.dtd">
<!-- Generated by graphviz version 2.38.0 (20140413.2041)
 -->
<!-- Title: HMC5883::calibrate Pages: 1 -->
<!--zoomable 250 -->
<svg id="main" version="1.1" xmlns="http://www.w3.org/2000/svg" xmlns:xlink="http://www.w3.org/1999/xlink" xml:space="preserve" onload="init(evt)">
<style type="text/css"><![CDATA[
.edge:hover path { stroke: red; }
.edge:hover polygon { stroke: red; fill: red; }
]]></style>
<script type="text/javascript"><![CDATA[
var edges = document.getElementsByTagName('g');
if (edges && edges.length) {
  for (var i=0;i<edges.length;i++) {
    if (edges[i].id.substr(0,4)=='edge') {
      edges[i].setAttribute('class','edge');
    }
  }
}
]]></script>
        <defs>
                <circle id="rim" cx="0" cy="0" r="7"/>
                <circle id="rim2" cx="0" cy="0" r="3.5"/>
                <g id="zoomPlus">
                        <use xlink:href="#rim" fill="#404040">
                                <set attributeName="fill" to="#808080" begin="zoomplus.mouseover" end="zoomplus.mouseout"/>
                        </use>
                        <path d="M-4,0h8M0,-4v8" fill="none" stroke="white" stroke-width="1.5" pointer-events="none"/>
                </g>
                <g id="zoomMin">
                        <use xlink:href="#rim" fill="#404040">
                                <set attributeName="fill" to="#808080" begin="zoomminus.mouseover" end="zoomminus.mouseout"/>
                        </use>
                        <path d="M-4,0h8" fill="none" stroke="white" stroke-width="1.5" pointer-events="none"/>
                </g>
                <g id="dirArrow">
                        <path fill="none" stroke="white" stroke-width="1.5" d="M0,-3.0v7 M-2.5,-0.5L0,-3.0L2.5,-0.5"/>
                </g>
               <g id="resetDef">
                       <use xlink:href="#rim2" fill="#404040">
                               <set attributeName="fill" to="#808080" begin="reset.mouseover" end="reset.mouseout"/>
                       </use>
               </g>
        </defs>

<script type="text/javascript">
var viewWidth = 626;
var viewHeight = 250;
var sectionId = 'dynsection-6';
</script>
<script xlink:href="../../svgpan.js"/>
<svg id="graph" class="graph">
<g id="viewport">
<title>HMC5883::calibrate</title>
<polygon fill="white" stroke="none" points="-4,4 -4,-245.941 622,-245.941 622,4 -4,4"/>
<!-- Node1 -->
<g id="node1" class="node"><title>Node1</title>
<polygon fill="#bfbfbf" stroke="black" points="0,-133.5 0,-152.5 104,-152.5 104,-133.5 0,-133.5"/>
<text text-anchor="middle" x="52" y="-140.5" font-family="Helvetica,sans-Serif" font-size="10.00">HMC5883::calibrate</text>
</g>
<!-- Node2 -->
<g id="node2" class="node"><title>Node2</title>
<g id="a_node2"><a xlink:href="../../d9/de0/hmc5883_8cpp.html#a456cca7d4e656cd485c42ed3f7ac49c2" target="_top" xlink:title="hmc5883_main">
<polygon fill="white" stroke="black" points="535,-133.5 535,-152.5 618,-152.5 618,-133.5 535,-133.5"/>
<text text-anchor="middle" x="576.5" y="-140.5" font-family="Helvetica,sans-Serif" font-size="10.00">hmc5883_main</text>
</a>
</g>
</g>
<!-- Node1&#45;&gt;Node2 -->
<g id="edge1" class="edge"><title>Node1&#45;&gt;Node2</title>
<path fill="none" stroke="midnightblue" d="M81.3614,-157.002C120.595,-175.515 194.166,-207.172 261,-219 365.159,-237.433 401.208,-259.319 499,-219 532.058,-205.37 558.371,-169.773 569.603,-152.575"/>
<polygon fill="midnightblue" stroke="midnightblue" points="82.6832,-153.755 72.1516,-152.599 79.6637,-160.07 82.6832,-153.755"/>
</g>
<!-- Node3 -->
<g id="node3" class="node"><title>Node3</title>
<g id="a_node3"><a xlink:href="../../d5/dad/class_h_m_c5883.html#afe7634b15765ccc24fa3248f49f8bd6d" target="_top" xlink:title="HMC5883::ioctl">
<polygon fill="white" stroke="black" points="140,-133.5 140,-152.5 225,-152.5 225,-133.5 140,-133.5"/>
<text text-anchor="middle" x="182.5" y="-140.5" font-family="Helvetica,sans-Serif" font-size="10.00">HMC5883::ioctl</text>
</a>
</g>
</g>
<!-- Node1&#45;&gt;Node3 -->
<g id="edge2" class="edge"><title>Node1&#45;&gt;Node3</title>
<path fill="none" stroke="midnightblue" d="M114.185,-136.257C122.788,-136.218 131.465,-136.342 139.597,-136.627"/>
<polygon fill="midnightblue" stroke="midnightblue" points="114.113,-132.757 104.156,-136.376 114.197,-139.757 114.113,-132.757"/>
</g>
<!-- Node3&#45;&gt;Node1 -->
<g id="edge3" class="edge"><title>Node3&#45;&gt;Node1</title>
<path fill="none" stroke="midnightblue" d="M129.561,-149.639C121.183,-149.792 112.515,-149.787 104.156,-149.624"/>
<polygon fill="midnightblue" stroke="midnightblue" points="129.693,-153.136 139.597,-149.373 129.507,-146.139 129.693,-153.136"/>
</g>
<!-- Node4 -->
<g id="node4" class="node"><title>Node4</title>
<g id="a_node4"><a xlink:href="../../d2/dd2/namespacehmc5883.html#ac8c2746e5f357283d28bf62efa03a4e9" target="_top" xlink:title="start driver for a specific bus option ">
<polygon fill="white" stroke="black" points="268.5,-190.5 268.5,-209.5 371.5,-209.5 371.5,-190.5 268.5,-190.5"/>
<text text-anchor="middle" x="320" y="-197.5" font-family="Helvetica,sans-Serif" font-size="10.00">hmc5883::start_bus</text>
</a>
</g>
</g>
<!-- Node3&#45;&gt;Node4 -->
<g id="edge4" class="edge"><title>Node3&#45;&gt;Node4</title>
<path fill="none" stroke="midnightblue" d="M215.096,-156.54C229.139,-162.536 245.881,-169.653 261,-176 272.455,-180.809 285.209,-186.094 295.834,-190.478"/>
<polygon fill="midnightblue" stroke="midnightblue" points="216.429,-153.303 205.858,-152.591 213.677,-159.74 216.429,-153.303"/>
</g>
<!-- Node6 -->
<g id="node6" class="node"><title>Node6</title>
<g id="a_node6"><a xlink:href="../../d2/dd2/namespacehmc5883.html#acf19e9e5e0944644e1594bf04d41971e" target="_top" xlink:title="Perform some basic functional tests on the driver; make sure we can collect data from the sensor in p...">
<polygon fill="white" stroke="black" points="417.5,-152.5 417.5,-171.5 496.5,-171.5 496.5,-152.5 417.5,-152.5"/>
<text text-anchor="middle" x="457" y="-159.5" font-family="Helvetica,sans-Serif" font-size="10.00">hmc5883::test</text>
</a>
</g>
</g>
<!-- Node3&#45;&gt;Node6 -->
<g id="edge7" class="edge"><title>Node3&#45;&gt;Node6</title>
<path fill="none" stroke="midnightblue" d="M235.408,-146.619C288.498,-150.321 369.75,-155.986 417.408,-159.309"/>
<polygon fill="midnightblue" stroke="midnightblue" points="235.403,-143.111 225.184,-145.906 234.916,-150.094 235.403,-143.111"/>
</g>
<!-- Node7 -->
<g id="node7" class="node"><title>Node7</title>
<g id="a_node7"><a xlink:href="../../d2/dd2/namespacehmc5883.html#a908535d4673436b75edbfb6a4eba7030" target="_top" xlink:title="Automatic scale calibration. ">
<polygon fill="white" stroke="black" points="270.5,-114.5 270.5,-133.5 369.5,-133.5 369.5,-114.5 270.5,-114.5"/>
<text text-anchor="middle" x="320" y="-121.5" font-family="Helvetica,sans-Serif" font-size="10.00">hmc5883::calibrate</text>
</a>
</g>
</g>
<!-- Node3&#45;&gt;Node7 -->
<g id="edge9" class="edge"><title>Node3&#45;&gt;Node7</title>
<path fill="none" stroke="midnightblue" d="M235.229,-135.746C246.809,-134.123 259.051,-132.406 270.494,-130.802"/>
<polygon fill="midnightblue" stroke="midnightblue" points="234.677,-132.29 225.26,-137.144 235.649,-139.222 234.677,-132.29"/>
</g>
<!-- Node9 -->
<g id="node9" class="node"><title>Node9</title>
<g id="a_node9"><a xlink:href="../../d2/dd2/namespacehmc5883.html#a7835bbc0621ef79f05183a9f24933a91" target="_top" xlink:title="Reset the driver. ">
<polygon fill="white" stroke="black" points="415,-38.5 415,-57.5 499,-57.5 499,-38.5 415,-38.5"/>
<text text-anchor="middle" x="457" y="-45.5" font-family="Helvetica,sans-Serif" font-size="10.00">hmc5883::reset</text>
</a>
</g>
</g>
<!-- Node3&#45;&gt;Node9 -->
<g id="edge12" class="edge"><title>Node3&#45;&gt;Node9</title>
<path fill="none" stroke="midnightblue" d="M210.004,-128.598C224.745,-120.949 243.581,-111.759 261,-105 313.447,-84.6498 376.237,-67.5312 416.122,-57.517"/>
<polygon fill="midnightblue" stroke="midnightblue" points="208.181,-125.602 200.965,-133.361 211.444,-131.795 208.181,-125.602"/>
</g>
<!-- Node10 -->
<g id="node10" class="node"><title>Node10</title>
<g id="a_node10"><a xlink:href="../../d2/dd2/namespacehmc5883.html#a0e482c094e232bcd863f3874218547f1" target="_top" xlink:title="enable/disable temperature compensation ">
<polygon fill="white" stroke="black" points="261,-0.5 261,-19.5 379,-19.5 379,-0.5 261,-0.5"/>
<text text-anchor="middle" x="320" y="-7.5" font-family="Helvetica,sans-Serif" font-size="10.00">hmc5883::temp_enable</text>
</a>
</g>
</g>
<!-- Node3&#45;&gt;Node10 -->
<g id="edge14" class="edge"><title>Node3&#45;&gt;Node10</title>
<path fill="none" stroke="midnightblue" d="M196.731,-125.413C211.385,-106.493 236.229,-76.0272 261,-53 274.588,-40.3691 291.85,-27.9708 303.996,-19.7578"/>
<polygon fill="midnightblue" stroke="midnightblue" points="193.873,-123.388 190.576,-133.457 199.432,-127.642 193.873,-123.388"/>
</g>
<!-- Node5 -->
<g id="node5" class="node"><title>Node5</title>
<g id="a_node5"><a xlink:href="../../d2/dd2/namespacehmc5883.html#a36740b13ab71387a9d606ad38fcc7d25" target="_top" xlink:title="Start the driver. ">
<polygon fill="white" stroke="black" points="416,-190.5 416,-209.5 498,-209.5 498,-190.5 416,-190.5"/>
<text text-anchor="middle" x="457" y="-197.5" font-family="Helvetica,sans-Serif" font-size="10.00">hmc5883::start</text>
</a>
</g>
</g>
<!-- Node4&#45;&gt;Node5 -->
<g id="edge5" class="edge"><title>Node4&#45;&gt;Node5</title>
<path fill="none" stroke="midnightblue" d="M381.656,-200C393.155,-200 404.922,-200 415.603,-200"/>
<polygon fill="midnightblue" stroke="midnightblue" points="381.653,-196.5 371.653,-200 381.653,-203.5 381.653,-196.5"/>
</g>
<!-- Node5&#45;&gt;Node2 -->
<g id="edge6" class="edge"><title>Node5&#45;&gt;Node2</title>
<path fill="none" stroke="midnightblue" d="M487.98,-186.221C491.698,-184.478 495.442,-182.708 499,-181 518.787,-171.503 541.263,-160.286 556.707,-152.512"/>
<polygon fill="midnightblue" stroke="midnightblue" points="486.498,-183.05 478.909,-190.443 489.452,-189.396 486.498,-183.05"/>
</g>
<!-- Node6&#45;&gt;Node2 -->
<g id="edge8" class="edge"><title>Node6&#45;&gt;Node2</title>
<path fill="none" stroke="midnightblue" d="M506.722,-154.121C516.035,-152.616 525.693,-151.054 534.725,-149.593"/>
<polygon fill="midnightblue" stroke="midnightblue" points="506.113,-150.675 496.8,-155.726 507.23,-157.585 506.113,-150.675"/>
</g>
<!-- Node7&#45;&gt;Node2 -->
<g id="edge10" class="edge"><title>Node7&#45;&gt;Node2</title>
<path fill="none" stroke="midnightblue" d="M379.921,-128.399C427.441,-131.947 493.035,-136.843 534.864,-139.966"/>
<polygon fill="midnightblue" stroke="midnightblue" points="380.002,-124.895 369.769,-127.641 379.481,-131.876 380.002,-124.895"/>
</g>
<!-- Node8 -->
<g id="node8" class="node"><title>Node8</title>
<g id="a_node8"><a xlink:href="../../de/d50/lis3mdl__main_8cpp.html#a5a1a250829c9ac5a02805549f24e87af" target="_top" xlink:title="Driver &#39;main&#39; command. ">
<polygon fill="white" stroke="black" points="420,-76.5 420,-95.5 494,-95.5 494,-76.5 420,-76.5"/>
<text text-anchor="middle" x="457" y="-83.5" font-family="Helvetica,sans-Serif" font-size="10.00">lis3mdl_main</text>
</a>
</g>
</g>
<!-- Node7&#45;&gt;Node8 -->
<g id="edge11" class="edge"><title>Node7&#45;&gt;Node8</title>
<path fill="none" stroke="midnightblue" d="M364.762,-111.682C383.311,-106.461 404.599,-100.468 421.945,-95.5859"/>
<polygon fill="midnightblue" stroke="midnightblue" points="363.744,-108.332 355.066,-114.411 365.64,-115.07 363.744,-108.332"/>
</g>
<!-- Node9&#45;&gt;Node2 -->
<g id="edge13" class="edge"><title>Node9&#45;&gt;Node2</title>
<path fill="none" stroke="midnightblue" d="M491.341,-62.2234C493.998,-63.7234 496.585,-65.3194 499,-67 527.273,-86.6781 554.424,-117.331 567.459,-133.016"/>
<polygon fill="midnightblue" stroke="midnightblue" points="492.679,-58.9757 482.186,-57.5094 489.475,-65.1991 492.679,-58.9757"/>
</g>
<!-- Node10&#45;&gt;Node2 -->
<g id="edge15" class="edge"><title>Node10&#45;&gt;Node2</title>
<path fill="none" stroke="midnightblue" d="M389.214,-4.06195C424.305,-4.13804 466.428,-9.3403 499,-29 540.22,-53.8797 564.02,-110.475 572.227,-133.244"/>
<polygon fill="midnightblue" stroke="midnightblue" points="389.002,-0.564077 379.043,-4.18028 389.083,-7.5636 389.002,-0.564077"/>
</g>
</g>
</svg>
        <g id="navigator" transform="translate(0 0)" fill="#404254">
                <rect fill="#f2f5e9" fill-opacity="0.5" stroke="#606060" stroke-width=".5" x="0" y="0" width="60" height="60"/>
                <use id="zoomplus" xlink:href="#zoomPlus" x="17" y="9" onmousedown="handleZoom(evt,'in')"/>
                <use id="zoomminus" xlink:href="#zoomMin" x="42" y="9" onmousedown="handleZoom(evt,'out')"/>
                <use id="reset" xlink:href="#resetDef" x="30" y="36" onmousedown="handleReset()"/>
                <g id="arrowUp" xlink:href="#dirArrow" transform="translate(30 24)" onmousedown="handlePan(0,-1)">
                  <use xlink:href="#rim" fill="#404040">
                        <set attributeName="fill" to="#808080" begin="arrowUp.mouseover" end="arrowUp.mouseout"/>
                  </use>
                  <path fill="none" stroke="white" stroke-width="1.5" d="M0,-3.0v7 M-2.5,-0.5L0,-3.0L2.5,-0.5"/>
                </g>
                <g id="arrowRight" xlink:href="#dirArrow" transform="rotate(90) translate(36 -43)" onmousedown="handlePan(1,0)">
                  <use xlink:href="#rim" fill="#404040">
                        <set attributeName="fill" to="#808080" begin="arrowRight.mouseover" end="arrowRight.mouseout"/>
                  </use>
                  <path fill="none" stroke="white" stroke-width="1.5" d="M0,-3.0v7 M-2.5,-0.5L0,-3.0L2.5,-0.5"/>
                </g>
                <g id="arrowDown" xlink:href="#dirArrow" transform="rotate(180) translate(-30 -48)" onmousedown="handlePan(0,1)">
                  <use xlink:href="#rim" fill="#404040">
                        <set attributeName="fill" to="#808080" begin="arrowDown.mouseover" end="arrowDown.mouseout"/>
                  </use>
                  <path fill="none" stroke="white" stroke-width="1.5" d="M0,-3.0v7 M-2.5,-0.5L0,-3.0L2.5,-0.5"/>
                </g>
                <g id="arrowLeft" xlink:href="#dirArrow" transform="rotate(270) translate(-36 17)" onmousedown="handlePan(-1,0)">
                  <use xlink:href="#rim" fill="#404040">
                        <set attributeName="fill" to="#808080" begin="arrowLeft.mouseover" end="arrowLeft.mouseout"/>
                  </use>
                  <path fill="none" stroke="white" stroke-width="1.5" d="M0,-3.0v7 M-2.5,-0.5L0,-3.0L2.5,-0.5"/>
                </g>
        </g>
        <svg viewBox="0 0 15 15" width="100%" height="30px" preserveAspectRatio="xMaxYMin meet">
         <g id="arrow_out" transform="scale(0.3 0.3)">
          <a xlink:href="class_h_m_c5883_af62280e6a08c2f18962e9c7e18941938_icgraph_org.svg" target="_base">
           <rect id="button" ry="5" rx="5" y="6" x="6" height="38" width="38"
                fill="#f2f5e9" fill-opacity="0.5" stroke="#606060" stroke-width="1.0"/>
           <path id="arrow"
             d="M 11.500037,31.436501 C 11.940474,20.09759 22.043105,11.32322 32.158766,21.979434 L 37.068811,17.246167 C 37.068811,17.246167 37.088388,32 37.088388,32 L 22.160133,31.978069 C 22.160133,31.978069 26.997745,27.140456 26.997745,27.140456 C 18.528582,18.264221 13.291696,25.230495 11.500037,31.436501 z"
             style="fill:#404040;"/>
          </a>
         </g>
        </svg>
</svg>
