<?xml version="1.0" encoding="UTF-8" standalone="no"?>
<!DOCTYPE svg PUBLIC "-//W3C//DTD SVG 1.1//EN"
 "http://www.w3.org/Graphics/SVG/1.1/DTD/svg11.dtd">
<!-- Generated by graphviz version 2.38.0 (20140413.2041)
 -->
<!-- Title: MPU6000::measure Pages: 1 -->
<svg width="1653pt" height="370pt"
 viewBox="0.00 0.00 1653.00 370.00" xmlns="http://www.w3.org/2000/svg" xmlns:xlink="http://www.w3.org/1999/xlink">
<g id="graph0" class="graph" transform="scale(1 1) rotate(0) translate(4 366)">
<title>MPU6000::measure</title>
<polygon fill="white" stroke="none" points="-4,4 -4,-366 1649,-366 1649,4 -4,4"/>
<!-- Node1 -->
<g id="node1" class="node"><title>Node1</title>
<polygon fill="#bfbfbf" stroke="black" points="0,-114.5 0,-133.5 104,-133.5 104,-114.5 0,-114.5"/>
<text text-anchor="middle" x="52" y="-121.5" font-family="Helvetica,sans-Serif" font-size="10.00">MPU6000::measure</text>
</g>
<!-- Node2 -->
<g id="node2" class="node"><title>Node2</title>
<g id="a_node2"><a xlink:href="../../d5/d19/class_m_p_u6000.html#a2392d1e22e23031e5240da8e398c9a92" target="_top" xlink:title="MPU6000::gyro_read">
<polygon fill="white" stroke="black" points="162.5,-0.5 162.5,-19.5 271.5,-19.5 271.5,-0.5 162.5,-0.5"/>
<text text-anchor="middle" x="217" y="-7.5" font-family="Helvetica,sans-Serif" font-size="10.00">MPU6000::gyro_read</text>
</a>
</g>
</g>
<!-- Node1&#45;&gt;Node2 -->
<g id="edge1" class="edge"><title>Node1&#45;&gt;Node2</title>
<path fill="none" stroke="midnightblue" d="M64.6069,-105.906C79.4494,-84.2708 107.194,-48.5381 140,-29 146.894,-24.894 154.647,-21.6715 162.498,-19.1432"/>
<polygon fill="midnightblue" stroke="midnightblue" points="61.522,-104.224 58.8907,-114.487 67.3477,-108.105 61.522,-104.224"/>
</g>
<!-- Node6 -->
<g id="node6" class="node"><title>Node6</title>
<g id="a_node6"><a xlink:href="../../d5/d19/class_m_p_u6000.html#a9763c2bd2ee666da352a86949f7e7386" target="_top" xlink:title="Initialise the driver and make it ready for use. ">
<polygon fill="white" stroke="black" points="627,-114.5 627,-133.5 706,-133.5 706,-114.5 627,-114.5"/>
<text text-anchor="middle" x="666.5" y="-121.5" font-family="Helvetica,sans-Serif" font-size="10.00">MPU6000::init</text>
</a>
</g>
</g>
<!-- Node1&#45;&gt;Node6 -->
<g id="edge5" class="edge"><title>Node1&#45;&gt;Node6</title>
<path fill="none" stroke="midnightblue" d="M98.1885,-112.202C111.554,-109.238 126.281,-106.481 140,-105 321.303,-85.4331 539.613,-107.969 626.796,-118.817"/>
<polygon fill="midnightblue" stroke="midnightblue" points="97.2289,-108.832 88.2726,-114.492 98.8036,-115.652 97.2289,-108.832"/>
</g>
<!-- Node7 -->
<g id="node7" class="node"><title>Node7</title>
<g id="a_node7"><a xlink:href="../../d5/d19/class_m_p_u6000.html#aa84fdd7f3e7b567d603556b540dacdc3" target="_top" xlink:title="MPU6000::is_i2c">
<polygon fill="white" stroke="black" points="340.5,-209.5 340.5,-228.5 432.5,-228.5 432.5,-209.5 340.5,-209.5"/>
<text text-anchor="middle" x="386.5" y="-216.5" font-family="Helvetica,sans-Serif" font-size="10.00">MPU6000::is_i2c</text>
</a>
</g>
</g>
<!-- Node1&#45;&gt;Node7 -->
<g id="edge6" class="edge"><title>Node1&#45;&gt;Node7</title>
<path fill="none" stroke="midnightblue" d="M96.2553,-136.359C163.461,-155.56 291.515,-192.147 352.118,-209.462"/>
<polygon fill="midnightblue" stroke="midnightblue" points="96.9805,-132.926 86.4037,-133.544 95.0574,-139.657 96.9805,-132.926"/>
</g>
<!-- Node15 -->
<g id="node15" class="node"><title>Node15</title>
<g id="a_node15"><a xlink:href="../../d5/d19/class_m_p_u6000.html#ab5bf05d1f7ab434fdf82602702d14c99" target="_top" xlink:title="Stop automatic measurement. ">
<polygon fill="white" stroke="black" points="624,-228.5 624,-247.5 709,-247.5 709,-228.5 624,-228.5"/>
<text text-anchor="middle" x="666.5" y="-235.5" font-family="Helvetica,sans-Serif" font-size="10.00">MPU6000::stop</text>
</a>
</g>
</g>
<!-- Node1&#45;&gt;Node15 -->
<g id="edge35" class="edge"><title>Node1&#45;&gt;Node15</title>
<path fill="none" stroke="midnightblue" d="M72.3449,-140.114C89.2656,-153.506 114.983,-172.212 140,-184 278.344,-249.185 326.09,-240.435 479,-243 527.438,-243.812 539.581,-244.56 588,-243 599.589,-242.627 612.138,-241.94 623.694,-241.192"/>
<polygon fill="midnightblue" stroke="midnightblue" points="74.3286,-137.217 64.3487,-133.66 69.9321,-142.665 74.3286,-137.217"/>
</g>
<!-- Node18 -->
<g id="node18" class="node"><title>Node18</title>
<g id="a_node18"><a xlink:href="../../d5/d19/class_m_p_u6000.html#a69a40e8f3dabebd1ca28f3ba861ee15f" target="_top" xlink:title="Static trampoline from the hrt_call context; because we don&#39;t have a generic hrt wrapper yet...">
<polygon fill="white" stroke="black" points="140,-342.5 140,-361.5 294,-361.5 294,-342.5 140,-342.5"/>
<text text-anchor="middle" x="217" y="-349.5" font-family="Helvetica,sans-Serif" font-size="10.00">MPU6000::measure_trampoline</text>
</a>
</g>
</g>
<!-- Node1&#45;&gt;Node18 -->
<g id="edge28" class="edge"><title>Node1&#45;&gt;Node18</title>
<path fill="none" stroke="midnightblue" d="M55.831,-143.685C62.689,-184.155 83.9581,-277.159 140,-328 146.969,-334.322 155.597,-338.979 164.513,-342.409"/>
<polygon fill="midnightblue" stroke="midnightblue" points="59.278,-143.074 54.262,-133.742 52.3636,-144.165 59.278,-143.074"/>
</g>
<!-- Node19 -->
<g id="node19" class="node"><title>Node19</title>
<g id="a_node19"><a xlink:href="../../d5/d19/class_m_p_u6000.html#ad6569591dab843c6f567b893bfb1552b" target="_top" xlink:title="MPU6000::read">
<polygon fill="white" stroke="black" points="174.5,-38.5 174.5,-57.5 259.5,-57.5 259.5,-38.5 174.5,-38.5"/>
<text text-anchor="middle" x="217" y="-45.5" font-family="Helvetica,sans-Serif" font-size="10.00">MPU6000::read</text>
</a>
</g>
</g>
<!-- Node1&#45;&gt;Node19 -->
<g id="edge31" class="edge"><title>Node1&#45;&gt;Node19</title>
<path fill="none" stroke="midnightblue" d="M75.3155,-108.681C92.4414,-97.4221 116.977,-82.3449 140,-72 152.621,-66.3289 166.979,-61.4262 179.79,-57.557"/>
<polygon fill="midnightblue" stroke="midnightblue" points="72.992,-106.024 66.6202,-114.489 76.8799,-111.845 72.992,-106.024"/>
</g>
<!-- Node20 -->
<g id="node20" class="node"><title>Node20</title>
<g id="a_node20"><a xlink:href="../../d5/d19/class_m_p_u6000.html#a01f767a6f69c1e91928a2df349f5b3ef" target="_top" xlink:title="Measurement self test. ">
<polygon fill="white" stroke="black" points="165,-114.5 165,-133.5 269,-133.5 269,-114.5 165,-114.5"/>
<text text-anchor="middle" x="217" y="-121.5" font-family="Helvetica,sans-Serif" font-size="10.00">MPU6000::self_test</text>
</a>
</g>
</g>
<!-- Node1&#45;&gt;Node20 -->
<g id="edge32" class="edge"><title>Node1&#45;&gt;Node20</title>
<path fill="none" stroke="midnightblue" d="M114.301,-124C130.933,-124 148.762,-124 164.774,-124"/>
<polygon fill="midnightblue" stroke="midnightblue" points="114.127,-120.5 104.127,-124 114.127,-127.5 114.127,-120.5"/>
</g>
<!-- Node3 -->
<g id="node3" class="node"><title>Node3</title>
<g id="a_node3"><a xlink:href="../../d7/d54/class_m_p_u6000__gyro.html#afe64b9feaa20b81f15a47774e07ca861" target="_top" xlink:title="MPU6000_gyro::read">
<polygon fill="white" stroke="black" points="479,-29.5 479,-48.5 588,-48.5 588,-29.5 479,-29.5"/>
<text text-anchor="middle" x="533.5" y="-36.5" font-family="Helvetica,sans-Serif" font-size="10.00">MPU6000_gyro::read</text>
</a>
</g>
</g>
<!-- Node2&#45;&gt;Node3 -->
<g id="edge2" class="edge"><title>Node2&#45;&gt;Node3</title>
<path fill="none" stroke="midnightblue" d="M281.841,-15.8868C339.762,-21.2277 424.203,-29.014 478.751,-34.0438"/>
<polygon fill="midnightblue" stroke="midnightblue" points="281.986,-12.3854 271.707,-14.9523 281.343,-19.3558 281.986,-12.3854"/>
</g>
<!-- Node4 -->
<g id="node4" class="node"><title>Node4</title>
<g id="a_node4"><a xlink:href="../../dc/d3d/namespacempu6000.html#ae043bff4d04c90ae1d4bc6761a1bf1b5" target="_top" xlink:title="Perform some basic functional tests on the driver; make sure we can collect data from the sensor in p...">
<polygon fill="white" stroke="black" points="1445.5,-106.5 1445.5,-125.5 1524.5,-125.5 1524.5,-106.5 1445.5,-106.5"/>
<text text-anchor="middle" x="1485" y="-113.5" font-family="Helvetica,sans-Serif" font-size="10.00">mpu6000::test</text>
</a>
</g>
</g>
<!-- Node3&#45;&gt;Node4 -->
<g id="edge3" class="edge"><title>Node3&#45;&gt;Node4</title>
<path fill="none" stroke="midnightblue" d="M598.304,-47.9582C652.408,-54.7775 732.132,-63 802,-63 802,-63 802,-63 1216,-63 1304.45,-63 1406.27,-91.129 1455.03,-106.402"/>
<polygon fill="midnightblue" stroke="midnightblue" points="598.535,-44.4593 588.171,-46.6597 597.645,-51.4025 598.535,-44.4593"/>
</g>
<!-- Node5 -->
<g id="node5" class="node"><title>Node5</title>
<g id="a_node5"><a xlink:href="../../d7/d50/mpu6000_8cpp.html#a449f83d61966eebf7f34fb5b9fb19279" target="_top" xlink:title="driver &#39;main&#39; command ">
<polygon fill="white" stroke="black" points="1562,-144.5 1562,-163.5 1645,-163.5 1645,-144.5 1562,-144.5"/>
<text text-anchor="middle" x="1603.5" y="-151.5" font-family="Helvetica,sans-Serif" font-size="10.00">mpu6000_main</text>
</a>
</g>
</g>
<!-- Node4&#45;&gt;Node5 -->
<g id="edge4" class="edge"><title>Node4&#45;&gt;Node5</title>
<path fill="none" stroke="midnightblue" d="M1525.32,-128.826C1540.95,-133.925 1558.63,-139.689 1573.11,-144.414"/>
<polygon fill="midnightblue" stroke="midnightblue" points="1525.99,-125.363 1515.4,-125.589 1523.82,-132.018 1525.99,-125.363"/>
</g>
<!-- Node8 -->
<g id="node8" class="node"><title>Node8</title>
<g id="a_node8"><a xlink:href="../../d5/d19/class_m_p_u6000.html#a06027f6675291f22d547da7219ffc314" target="_top" xlink:title="MPU6000::ioctl">
<polygon fill="white" stroke="black" points="897,-190.5 897,-209.5 981,-209.5 981,-190.5 897,-190.5"/>
<text text-anchor="middle" x="939" y="-197.5" font-family="Helvetica,sans-Serif" font-size="10.00">MPU6000::ioctl</text>
</a>
</g>
</g>
<!-- Node7&#45;&gt;Node8 -->
<g id="edge7" class="edge"><title>Node7&#45;&gt;Node8</title>
<path fill="none" stroke="midnightblue" d="M442.813,-217.091C553.337,-213.276 799.228,-204.79 896.876,-201.419"/>
<polygon fill="midnightblue" stroke="midnightblue" points="442.423,-213.602 432.55,-217.445 442.665,-220.598 442.423,-213.602"/>
</g>
<!-- Node14 -->
<g id="node14" class="node"><title>Node14</title>
<g id="a_node14"><a xlink:href="../../d5/d19/class_m_p_u6000.html#a086086441e0859214b9506711cd323ae" target="_top" xlink:title="Reset chip. ">
<polygon fill="white" stroke="black" points="489.5,-152.5 489.5,-171.5 577.5,-171.5 577.5,-152.5 489.5,-152.5"/>
<text text-anchor="middle" x="533.5" y="-159.5" font-family="Helvetica,sans-Serif" font-size="10.00">MPU6000::reset</text>
</a>
</g>
</g>
<!-- Node7&#45;&gt;Node14 -->
<g id="edge17" class="edge"><title>Node7&#45;&gt;Node14</title>
<path fill="none" stroke="midnightblue" d="M421.086,-205.797C447.711,-195.331 484.284,-180.954 508.151,-171.572"/>
<polygon fill="midnightblue" stroke="midnightblue" points="419.796,-202.544 411.77,-209.459 422.357,-209.058 419.796,-202.544"/>
</g>
<!-- Node7&#45;&gt;Node15 -->
<g id="edge27" class="edge"><title>Node7&#45;&gt;Node15</title>
<path fill="none" stroke="midnightblue" d="M443.089,-222.799C496.429,-226.445 575.775,-231.868 623.871,-235.155"/>
<polygon fill="midnightblue" stroke="midnightblue" points="443,-219.285 432.784,-222.095 442.522,-226.269 443,-219.285"/>
</g>
<!-- Node17 -->
<g id="node17" class="node"><title>Node17</title>
<g id="a_node17"><a xlink:href="../../d5/d19/class_m_p_u6000.html#acfa05100f7513a6fa5132452882a9a57" target="_top" xlink:title="Start automatic measurement. ">
<polygon fill="white" stroke="black" points="760,-304.5 760,-323.5 846,-323.5 846,-304.5 760,-304.5"/>
<text text-anchor="middle" x="803" y="-311.5" font-family="Helvetica,sans-Serif" font-size="10.00">MPU6000::start</text>
</a>
</g>
</g>
<!-- Node7&#45;&gt;Node17 -->
<g id="edge26" class="edge"><title>Node7&#45;&gt;Node17</title>
<path fill="none" stroke="midnightblue" d="M432.524,-231.194C447.3,-235.092 463.822,-239.343 479,-243 579.332,-267.175 698.011,-292.405 759.808,-305.29"/>
<polygon fill="midnightblue" stroke="midnightblue" points="433.175,-227.745 422.611,-228.562 431.379,-234.511 433.175,-227.745"/>
</g>
<!-- Node9 -->
<g id="node9" class="node"><title>Node9</title>
<g id="a_node9"><a xlink:href="../../d5/d19/class_m_p_u6000.html#aa829a5ed60e1b4247465dd8c06a1651b" target="_top" xlink:title="MPU6000::gyro_ioctl">
<polygon fill="white" stroke="black" points="1017,-182.5 1017,-201.5 1125,-201.5 1125,-182.5 1017,-182.5"/>
<text text-anchor="middle" x="1071" y="-189.5" font-family="Helvetica,sans-Serif" font-size="10.00">MPU6000::gyro_ioctl</text>
</a>
</g>
</g>
<!-- Node8&#45;&gt;Node9 -->
<g id="edge8" class="edge"><title>Node8&#45;&gt;Node9</title>
<path fill="none" stroke="midnightblue" d="M991.178,-196.851C999.578,-196.334 1008.3,-195.797 1016.75,-195.277"/>
<polygon fill="midnightblue" stroke="midnightblue" points="990.899,-193.361 981.133,-197.469 991.329,-200.348 990.899,-193.361"/>
</g>
<!-- Node10 -->
<g id="node10" class="node"><title>Node10</title>
<g id="a_node10"><a xlink:href="../../d7/d54/class_m_p_u6000__gyro.html#ab065342753184f3c143c76d954435954" target="_top" xlink:title="MPU6000_gyro::ioctl">
<polygon fill="white" stroke="black" points="1161,-152.5 1161,-171.5 1269,-171.5 1269,-152.5 1161,-152.5"/>
<text text-anchor="middle" x="1215" y="-159.5" font-family="Helvetica,sans-Serif" font-size="10.00">MPU6000_gyro::ioctl</text>
</a>
</g>
</g>
<!-- Node9&#45;&gt;Node10 -->
<g id="edge9" class="edge"><title>Node9&#45;&gt;Node10</title>
<path fill="none" stroke="midnightblue" d="M1127.14,-180.351C1140.86,-177.451 1155.43,-174.375 1168.62,-171.587"/>
<polygon fill="midnightblue" stroke="midnightblue" points="1126.38,-176.934 1117.32,-182.425 1127.83,-183.783 1126.38,-176.934"/>
</g>
<!-- Node10&#45;&gt;Node4 -->
<g id="edge13" class="edge"><title>Node10&#45;&gt;Node4</title>
<path fill="none" stroke="midnightblue" d="M1252.87,-149.106C1268.74,-144.005 1287.61,-138.529 1305,-135 1352.78,-125.308 1408.8,-120.372 1445.27,-117.996"/>
<polygon fill="midnightblue" stroke="midnightblue" points="1251.33,-145.929 1242.93,-152.379 1253.52,-152.578 1251.33,-145.929"/>
</g>
<!-- Node11 -->
<g id="node11" class="node"><title>Node11</title>
<g id="a_node11"><a xlink:href="../../dc/d3d/namespacempu6000.html#a3ee5873cffa2c5eaafdb6c100217764b" target="_top" xlink:title="start driver for a specific bus option ">
<polygon fill="white" stroke="black" points="1305,-182.5 1305,-201.5 1408,-201.5 1408,-182.5 1305,-182.5"/>
<text text-anchor="middle" x="1356.5" y="-189.5" font-family="Helvetica,sans-Serif" font-size="10.00">mpu6000::start_bus</text>
</a>
</g>
</g>
<!-- Node10&#45;&gt;Node11 -->
<g id="edge10" class="edge"><title>Node10&#45;&gt;Node11</title>
<path fill="none" stroke="midnightblue" d="M1270.56,-173.733C1283.93,-176.609 1298.08,-179.652 1310.92,-182.413"/>
<polygon fill="midnightblue" stroke="midnightblue" points="1271.03,-170.255 1260.52,-171.575 1269.56,-177.099 1271.03,-170.255"/>
</g>
<!-- Node13 -->
<g id="node13" class="node"><title>Node13</title>
<g id="a_node13"><a xlink:href="../../dc/d3d/namespacempu6000.html#accc21077c7ebce36800727645d6e9753" target="_top" xlink:title="Reset the driver. ">
<polygon fill="white" stroke="black" points="1314.5,-144.5 1314.5,-163.5 1398.5,-163.5 1398.5,-144.5 1314.5,-144.5"/>
<text text-anchor="middle" x="1356.5" y="-151.5" font-family="Helvetica,sans-Serif" font-size="10.00">mpu6000::reset</text>
</a>
</g>
</g>
<!-- Node10&#45;&gt;Node13 -->
<g id="edge14" class="edge"><title>Node10&#45;&gt;Node13</title>
<path fill="none" stroke="midnightblue" d="M1279.42,-158.363C1291.24,-157.685 1303.29,-156.994 1314.22,-156.367"/>
<polygon fill="midnightblue" stroke="midnightblue" points="1278.92,-154.886 1269.14,-158.953 1279.32,-161.874 1278.92,-154.886"/>
</g>
<!-- Node12 -->
<g id="node12" class="node"><title>Node12</title>
<g id="a_node12"><a xlink:href="../../dc/d3d/namespacempu6000.html#ad912876ad574440e4934e6ba3af863bc" target="_top" xlink:title="Start the driver. ">
<polygon fill="white" stroke="black" points="1444,-182.5 1444,-201.5 1526,-201.5 1526,-182.5 1444,-182.5"/>
<text text-anchor="middle" x="1485" y="-189.5" font-family="Helvetica,sans-Serif" font-size="10.00">mpu6000::start</text>
</a>
</g>
</g>
<!-- Node11&#45;&gt;Node12 -->
<g id="edge11" class="edge"><title>Node11&#45;&gt;Node12</title>
<path fill="none" stroke="midnightblue" d="M1418.3,-192C1426.95,-192 1435.65,-192 1443.77,-192"/>
<polygon fill="midnightblue" stroke="midnightblue" points="1418.22,-188.5 1408.22,-192 1418.22,-195.5 1418.22,-188.5"/>
</g>
<!-- Node12&#45;&gt;Node5 -->
<g id="edge12" class="edge"><title>Node12&#45;&gt;Node5</title>
<path fill="none" stroke="midnightblue" d="M1525.32,-179.174C1540.95,-174.075 1558.63,-168.311 1573.11,-163.586"/>
<polygon fill="midnightblue" stroke="midnightblue" points="1523.82,-175.982 1515.4,-182.411 1525.99,-182.637 1523.82,-175.982"/>
</g>
<!-- Node13&#45;&gt;Node4 -->
<g id="edge15" class="edge"><title>Node13&#45;&gt;Node4</title>
<path fill="none" stroke="midnightblue" d="M1399.23,-141.465C1416.44,-136.295 1436.06,-130.401 1452.09,-125.586"/>
<polygon fill="midnightblue" stroke="midnightblue" points="1397.99,-138.182 1389.42,-144.411 1400.01,-144.886 1397.99,-138.182"/>
</g>
<!-- Node13&#45;&gt;Node5 -->
<g id="edge16" class="edge"><title>Node13&#45;&gt;Node5</title>
<path fill="none" stroke="midnightblue" d="M1408.75,-154C1454.23,-154 1519.79,-154 1561.77,-154"/>
<polygon fill="midnightblue" stroke="midnightblue" points="1408.51,-150.5 1398.51,-154 1408.51,-157.5 1408.51,-150.5"/>
</g>
<!-- Node14&#45;&gt;Node6 -->
<g id="edge18" class="edge"><title>Node14&#45;&gt;Node6</title>
<path fill="none" stroke="midnightblue" d="M577.215,-149.609C595.155,-144.406 615.7,-138.446 632.454,-133.586"/>
<polygon fill="midnightblue" stroke="midnightblue" points="576.186,-146.264 567.557,-152.411 578.136,-152.986 576.186,-146.264"/>
</g>
<!-- Node14&#45;&gt;Node8 -->
<g id="edge19" class="edge"><title>Node14&#45;&gt;Node8</title>
<path fill="none" stroke="midnightblue" d="M588.065,-164.186C652.89,-167.235 765.265,-173.813 861,-186 872.726,-187.493 885.375,-189.588 896.966,-191.703"/>
<polygon fill="midnightblue" stroke="midnightblue" points="587.842,-160.672 577.692,-163.709 587.52,-167.665 587.842,-160.672"/>
</g>
<!-- Node14&#45;&gt;Node15 -->
<g id="edge20" class="edge"><title>Node14&#45;&gt;Node15</title>
<path fill="none" stroke="midnightblue" d="M559.76,-176.655C586.087,-191.929 626.574,-215.417 649.043,-228.453"/>
<polygon fill="midnightblue" stroke="midnightblue" points="561.497,-173.616 551.091,-171.625 557.985,-179.671 561.497,-173.616"/>
</g>
<!-- Node15&#45;&gt;Node8 -->
<g id="edge22" class="edge"><title>Node15&#45;&gt;Node8</title>
<path fill="none" stroke="midnightblue" d="M704.66,-250.465C744.363,-261.776 808.656,-274.266 861,-257 889.431,-247.622 915.949,-223.252 929.188,-209.609"/>
<polygon fill="midnightblue" stroke="midnightblue" points="705.457,-247.051 694.875,-247.558 703.464,-253.761 705.457,-247.051"/>
</g>
<!-- Node16 -->
<g id="node16" class="node"><title>Node16</title>
<g id="a_node16"><a xlink:href="../../d5/d19/class_m_p_u6000.html#a9b7c10c0bf44c9a275e698cc9089f7cb" target="_top" xlink:title="MPU6000::~MPU6000">
<polygon fill="white" stroke="black" points="745,-228.5 745,-247.5 861,-247.5 861,-228.5 745,-228.5"/>
<text text-anchor="middle" x="803" y="-235.5" font-family="Helvetica,sans-Serif" font-size="10.00">MPU6000::~MPU6000</text>
</a>
</g>
</g>
<!-- Node15&#45;&gt;Node16 -->
<g id="edge21" class="edge"><title>Node15&#45;&gt;Node16</title>
<path fill="none" stroke="midnightblue" d="M719.325,-238C727.695,-238 736.403,-238 744.89,-238"/>
<polygon fill="midnightblue" stroke="midnightblue" points="719.319,-234.5 709.319,-238 719.319,-241.5 719.319,-234.5"/>
</g>
<!-- Node15&#45;&gt;Node17 -->
<g id="edge23" class="edge"><title>Node15&#45;&gt;Node17</title>
<path fill="none" stroke="midnightblue" d="M709.177,-253.521C726.484,-265.991 729.695,-272.037 745,-281 760.751,-290.224 780.719,-297.781 792.357,-304.453"/>
<polygon fill="midnightblue" stroke="midnightblue" points="711.04,-250.554 700.821,-247.757 707.065,-256.316 711.04,-250.554"/>
</g>
<!-- Node17&#45;&gt;Node8 -->
<g id="edge24" class="edge"><title>Node17&#45;&gt;Node8</title>
<path fill="none" stroke="midnightblue" d="M842.982,-300.47C849.28,-297.486 855.524,-294 861,-290 892.883,-266.714 920.254,-227.732 931.947,-209.696"/>
<polygon fill="midnightblue" stroke="midnightblue" points="841.559,-297.272 833.797,-304.483 844.361,-303.687 841.559,-297.272"/>
</g>
<!-- Node17&#45;&gt;Node15 -->
<g id="edge25" class="edge"><title>Node17&#45;&gt;Node15</title>
<path fill="none" stroke="midnightblue" d="M750.924,-302.29C748.902,-301.224 746.92,-300.124 745,-299 727.509,-288.757 725.813,-282.322 709,-271 697.126,-263.004 682.474,-254.918 674.137,-247.744"/>
<polygon fill="midnightblue" stroke="midnightblue" points="749.456,-305.469 759.976,-306.73 752.539,-299.184 749.456,-305.469"/>
</g>
<!-- Node18&#45;&gt;Node7 -->
<g id="edge29" class="edge"><title>Node18&#45;&gt;Node7</title>
<path fill="none" stroke="midnightblue" d="M238.13,-336.016C273.181,-308.185 344.417,-251.621 373.111,-228.837"/>
<polygon fill="midnightblue" stroke="midnightblue" points="235.701,-333.476 230.046,-342.435 240.054,-338.958 235.701,-333.476"/>
</g>
<!-- Node18&#45;&gt;Node17 -->
<g id="edge30" class="edge"><title>Node18&#45;&gt;Node17</title>
<path fill="none" stroke="midnightblue" d="M304.511,-346.402C379.497,-341.547 490.915,-334.324 588,-328 647.631,-324.115 716.608,-319.599 759.772,-316.77"/>
<polygon fill="midnightblue" stroke="midnightblue" points="303.931,-342.932 294.178,-347.071 304.383,-349.918 303.931,-342.932"/>
</g>
<!-- Node21 -->
<g id="node21" class="node"><title>Node21</title>
<g id="a_node21"><a xlink:href="../../d5/d19/class_m_p_u6000.html#a88f695b434954f67aec6b5fa8397d648" target="_top" xlink:title="Get the internal / external state. ">
<polygon fill="white" stroke="black" points="330,-114.5 330,-133.5 443,-133.5 443,-114.5 330,-114.5"/>
<text text-anchor="middle" x="386.5" y="-121.5" font-family="Helvetica,sans-Serif" font-size="10.00">MPU6000::is_external</text>
</a>
</g>
</g>
<!-- Node20&#45;&gt;Node21 -->
<g id="edge33" class="edge"><title>Node20&#45;&gt;Node21</title>
<path fill="none" stroke="midnightblue" d="M279.302,-124C295.887,-124 313.74,-124 329.987,-124"/>
<polygon fill="midnightblue" stroke="midnightblue" points="279.166,-120.5 269.166,-124 279.166,-127.5 279.166,-120.5"/>
</g>
<!-- Node21&#45;&gt;Node6 -->
<g id="edge34" class="edge"><title>Node21&#45;&gt;Node6</title>
<path fill="none" stroke="midnightblue" d="M453.275,-124C507.361,-124 582.149,-124 626.982,-124"/>
<polygon fill="midnightblue" stroke="midnightblue" points="453.089,-120.5 443.089,-124 453.089,-127.5 453.089,-120.5"/>
</g>
</g>
</svg>
