<?xml version="1.0" encoding="UTF-8" standalone="no"?>
<!DOCTYPE svg PUBLIC "-//W3C//DTD SVG 1.1//EN"
 "http://www.w3.org/Graphics/SVG/1.1/DTD/svg11.dtd">
<!-- Generated by graphviz version 2.40.1 (20161225.0304)
 -->
<!-- Title: MPU6000::print_registers Pages: 1 -->
<svg width="659pt" height="66pt"
 viewBox="0.00 0.00 659.00 66.00" xmlns="http://www.w3.org/2000/svg" xmlns:xlink="http://www.w3.org/1999/xlink">
<g id="graph0" class="graph" transform="scale(1 1) rotate(0) translate(4 62)">
<title>MPU6000::print_registers</title>
<polygon fill="#ffffff" stroke="transparent" points="-4,4 -4,-62 655,-62 655,4 -4,4"/>
<!-- Node184 -->
<g id="node1" class="node">
<title>Node184</title>
<polygon fill="#bfbfbf" stroke="#000000" points="0,-19.5 0,-38.5 128,-38.5 128,-19.5 0,-19.5"/>
<text text-anchor="middle" x="64" y="-26.5" font-family="Helvetica,sans-Serif" font-size="10.00" fill="#000000">MPU6000::print_registers</text>
</g>
<!-- Node185 -->
<g id="node2" class="node">
<title>Node185</title>
<g id="a_node2"><a xlink:href="../../dc/d3d/namespacempu6000.html#af6e8e70be4eeda492ec5b1cfe106de97" target="_top" xlink:title="Dump the register information. ">
<polygon fill="#ffffff" stroke="#000000" points="307,-38.5 307,-57.5 407,-57.5 407,-38.5 307,-38.5"/>
<text text-anchor="middle" x="357" y="-45.5" font-family="Helvetica,sans-Serif" font-size="10.00" fill="#000000">mpu6000::regdump</text>
</a>
</g>
</g>
<!-- Node184&#45;&gt;Node185 -->
<g id="edge1" class="edge">
<title>Node184&#45;&gt;Node185</title>
<path fill="none" stroke="#191970" d="M138.2903,-33.8175C191.0904,-37.2414 260.5779,-41.7474 306.9164,-44.7523"/>
<polygon fill="#191970" stroke="#191970" points="138.5057,-30.3242 128.3001,-33.1696 138.0526,-37.3095 138.5057,-30.3242"/>
</g>
<!-- Node188 -->
<g id="node5" class="node">
<title>Node188</title>
<g id="a_node5"><a xlink:href="../../d5/d19/class_m_p_u6000.html#a25e23533f7b862accd84954b16e58eff" target="_top" xlink:title="MPU6000::test_error">
<polygon fill="#ffffff" stroke="#000000" points="164,-.5 164,-19.5 271,-19.5 271,-.5 164,-.5"/>
<text text-anchor="middle" x="217.5" y="-7.5" font-family="Helvetica,sans-Serif" font-size="10.00" fill="#000000">MPU6000::test_error</text>
</a>
</g>
</g>
<!-- Node184&#45;&gt;Node188 -->
<g id="edge5" class="edge">
<title>Node184&#45;&gt;Node188</title>
<path fill="none" stroke="#191970" d="M138.2612,-19.8081C146.8631,-18.7433 155.5067,-17.6734 163.7592,-16.6519"/>
<polygon fill="#191970" stroke="#191970" points="137.7027,-16.3504 128.2084,-21.0524 138.5627,-23.2974 137.7027,-16.3504"/>
</g>
<!-- Node186 -->
<g id="node3" class="node">
<title>Node186</title>
<g id="a_node3"><a xlink:href="../../df/dcc/mpu6000__main_8cpp.html#a449f83d61966eebf7f34fb5b9fb19279" target="_top" xlink:title="driver &#39;main&#39; command ">
<polygon fill="#ffffff" stroke="#000000" points="443,-19.5 443,-38.5 526,-38.5 526,-19.5 443,-19.5"/>
<text text-anchor="middle" x="484.5" y="-26.5" font-family="Helvetica,sans-Serif" font-size="10.00" fill="#000000">mpu6000_main</text>
</a>
</g>
</g>
<!-- Node185&#45;&gt;Node186 -->
<g id="edge2" class="edge">
<title>Node185&#45;&gt;Node186</title>
<path fill="none" stroke="#191970" d="M417.1514,-39.0363C425.8453,-37.7407 434.6289,-36.4318 442.8524,-35.2063"/>
<polygon fill="#191970" stroke="#191970" points="416.4003,-35.6095 407.0254,-40.5452 417.4321,-42.533 416.4003,-35.6095"/>
</g>
<!-- Node187 -->
<g id="node4" class="node">
<title>Node187</title>
<g id="a_node4"><a xlink:href="../../dc/d3d/namespacempu6000.html#a40dc56942d9d64c7be4f8d406f3421c0" target="_top" xlink:title="Prints info about the driver argument usage. ">
<polygon fill="#ffffff" stroke="#000000" points="562,-19.5 562,-38.5 651,-38.5 651,-19.5 562,-19.5"/>
<text text-anchor="middle" x="606.5" y="-26.5" font-family="Helvetica,sans-Serif" font-size="10.00" fill="#000000">mpu6000::usage</text>
</a>
</g>
</g>
<!-- Node186&#45;&gt;Node187 -->
<g id="edge3" class="edge">
<title>Node186&#45;&gt;Node187</title>
<path fill="none" stroke="#191970" d="M536.2909,-22.3188C544.7444,-22.1916 553.4395,-22.2408 561.7064,-22.4664"/>
<polygon fill="#191970" stroke="#191970" points="536.0577,-18.8233 526.1443,-22.5616 536.2251,-25.8213 536.0577,-18.8233"/>
</g>
<!-- Node187&#45;&gt;Node186 -->
<g id="edge4" class="edge">
<title>Node187&#45;&gt;Node186</title>
<path fill="none" stroke="#191970" d="M551.4552,-35.7213C542.9509,-35.8035 534.2907,-35.7092 526.1443,-35.4384"/>
<polygon fill="#191970" stroke="#191970" points="551.7721,-39.2162 561.7064,-35.5336 551.6439,-32.2174 551.7721,-39.2162"/>
</g>
<!-- Node189 -->
<g id="node6" class="node">
<title>Node189</title>
<g id="a_node6"><a xlink:href="../../dc/d3d/namespacempu6000.html#a6f6c284d22ae78b078168c2afd4d737b" target="_top" xlink:title="deliberately produce an error to test recovery ">
<polygon fill="#ffffff" stroke="#000000" points="308,-.5 308,-19.5 406,-19.5 406,-.5 308,-.5"/>
<text text-anchor="middle" x="357" y="-7.5" font-family="Helvetica,sans-Serif" font-size="10.00" fill="#000000">mpu6000::testerror</text>
</a>
</g>
</g>
<!-- Node188&#45;&gt;Node189 -->
<g id="edge6" class="edge">
<title>Node188&#45;&gt;Node189</title>
<path fill="none" stroke="#191970" d="M281.1172,-10C290.1273,-10 299.2749,-10 307.9524,-10"/>
<polygon fill="#191970" stroke="#191970" points="281.0354,-6.5001 271.0354,-10 281.0353,-13.5001 281.0354,-6.5001"/>
</g>
<!-- Node189&#45;&gt;Node186 -->
<g id="edge7" class="edge">
<title>Node189&#45;&gt;Node186</title>
<path fill="none" stroke="#191970" d="M416.3074,-18.838C425.2533,-20.1711 434.3165,-21.5217 442.7876,-22.784"/>
<polygon fill="#191970" stroke="#191970" points="416.7015,-15.3581 406.2948,-17.3459 415.6697,-22.2817 416.7015,-15.3581"/>
</g>
</g>
</svg>
