<?xml version="1.0" encoding="UTF-8" standalone="no"?>
<!DOCTYPE svg PUBLIC "-//W3C//DTD SVG 1.1//EN"
 "http://www.w3.org/Graphics/SVG/1.1/DTD/svg11.dtd">
<!-- Generated by graphviz version 2.38.0 (20140413.2041)
 -->
<!-- Title: PMW3901::writeRegister Pages: 1 -->
<svg width="639pt" height="28pt"
 viewBox="0.00 0.00 639.00 28.00" xmlns="http://www.w3.org/2000/svg" xmlns:xlink="http://www.w3.org/1999/xlink">
<g id="graph0" class="graph" transform="scale(1 1) rotate(0) translate(4 24)">
<title>PMW3901::writeRegister</title>
<polygon fill="white" stroke="none" points="-4,4 -4,-24 635,-24 635,4 -4,4"/>
<!-- Node1 -->
<g id="node1" class="node"><title>Node1</title>
<polygon fill="#bfbfbf" stroke="black" points="0,-0.5 0,-19.5 126,-19.5 126,-0.5 0,-0.5"/>
<text text-anchor="middle" x="63" y="-7.5" font-family="Helvetica,sans-Serif" font-size="10.00">PMW3901::writeRegister</text>
</g>
<!-- Node2 -->
<g id="node2" class="node"><title>Node2</title>
<g id="a_node2"><a xlink:href="../../d7/de8/class_p_m_w3901.html#a27ede58163e0aa8c16ecf19e75e8124d" target="_top" xlink:title="PMW3901::sensorInit">
<polygon fill="white" stroke="black" points="162,-0.5 162,-19.5 273,-19.5 273,-0.5 162,-0.5"/>
<text text-anchor="middle" x="217.5" y="-7.5" font-family="Helvetica,sans-Serif" font-size="10.00">PMW3901::sensorInit</text>
</a>
</g>
</g>
<!-- Node1&#45;&gt;Node2 -->
<g id="edge1" class="edge"><title>Node1&#45;&gt;Node2</title>
<path fill="none" stroke="midnightblue" d="M136.133,-10C144.792,-10 153.522,-10 161.875,-10"/>
<polygon fill="midnightblue" stroke="midnightblue" points="136.028,-6.5001 126.028,-10 136.028,-13.5001 136.028,-6.5001"/>
</g>
<!-- Node3 -->
<g id="node3" class="node"><title>Node3</title>
<g id="a_node3"><a xlink:href="../../d7/de8/class_p_m_w3901.html#aaa878757e2078e71916a5a27601026ee" target="_top" xlink:title="PMW3901::init">
<polygon fill="white" stroke="black" points="309,-0.5 309,-19.5 390,-19.5 390,-0.5 309,-0.5"/>
<text text-anchor="middle" x="349.5" y="-7.5" font-family="Helvetica,sans-Serif" font-size="10.00">PMW3901::init</text>
</a>
</g>
</g>
<!-- Node2&#45;&gt;Node3 -->
<g id="edge2" class="edge"><title>Node2&#45;&gt;Node3</title>
<path fill="none" stroke="midnightblue" d="M283.4,-10C292.075,-10 300.753,-10 308.814,-10"/>
<polygon fill="midnightblue" stroke="midnightblue" points="283.255,-6.5001 273.255,-10 283.255,-13.5001 283.255,-6.5001"/>
</g>
<!-- Node4 -->
<g id="node4" class="node"><title>Node4</title>
<g id="a_node4"><a xlink:href="../../d3/de1/namespacepmw3901.html#a410470ecc890d9fbb0f4bba82838cdda" target="_top" xlink:title="Start the driver. ">
<polygon fill="white" stroke="black" points="426,-0.5 426,-19.5 510,-19.5 510,-0.5 426,-0.5"/>
<text text-anchor="middle" x="468" y="-7.5" font-family="Helvetica,sans-Serif" font-size="10.00">pmw3901::start</text>
</a>
</g>
</g>
<!-- Node3&#45;&gt;Node4 -->
<g id="edge3" class="edge"><title>Node3&#45;&gt;Node4</title>
<path fill="none" stroke="midnightblue" d="M400.431,-10C408.902,-10 417.612,-10 425.825,-10"/>
<polygon fill="midnightblue" stroke="midnightblue" points="400.267,-6.5001 390.267,-10 400.267,-13.5001 400.267,-6.5001"/>
</g>
<!-- Node5 -->
<g id="node5" class="node"><title>Node5</title>
<g id="a_node5"><a xlink:href="../../d0/d55/pmw3901_8cpp.html#ad6810132162fcd607cbb3549c1aa4937" target="_top" xlink:title="pmw3901_main">
<polygon fill="white" stroke="black" points="546,-0.5 546,-19.5 631,-19.5 631,-0.5 546,-0.5"/>
<text text-anchor="middle" x="588.5" y="-7.5" font-family="Helvetica,sans-Serif" font-size="10.00">pmw3901_main</text>
</a>
</g>
</g>
<!-- Node4&#45;&gt;Node5 -->
<g id="edge4" class="edge"><title>Node4&#45;&gt;Node5</title>
<path fill="none" stroke="midnightblue" d="M520.289,-10C528.76,-10 537.452,-10 545.656,-10"/>
<polygon fill="midnightblue" stroke="midnightblue" points="520.113,-6.5001 510.113,-10 520.113,-13.5001 520.113,-6.5001"/>
</g>
</g>
</svg>
