<?xml version="1.0" encoding="UTF-8" standalone="no"?>
<!DOCTYPE svg PUBLIC "-//W3C//DTD SVG 1.1//EN"
 "http://www.w3.org/Graphics/SVG/1.1/DTD/svg11.dtd">
<!-- Generated by graphviz version 2.40.1 (20161225.0304)
 -->
<!-- Title: FlightTaskManualAltitude::_updateSetpoints Pages: 1 -->
<svg width="499pt" height="186pt"
 viewBox="0.00 0.00 499.00 186.00" xmlns="http://www.w3.org/2000/svg" xmlns:xlink="http://www.w3.org/1999/xlink">
<g id="graph0" class="graph" transform="scale(1 1) rotate(0) translate(4 182)">
<title>FlightTaskManualAltitude::_updateSetpoints</title>
<polygon fill="#ffffff" stroke="transparent" points="-4,4 -4,-182 495,-182 495,4 -4,4"/>
<!-- Node51 -->
<g id="node1" class="node">
<title>Node51</title>
<polygon fill="#bfbfbf" stroke="#000000" points="0,-98.5 0,-128.5 127,-128.5 127,-98.5 0,-98.5"/>
<text text-anchor="start" x="8" y="-116.5" font-family="Helvetica,sans-Serif" font-size="10.00" fill="#000000">FlightTaskManualAltitude</text>
<text text-anchor="middle" x="63.5" y="-105.5" font-family="Helvetica,sans-Serif" font-size="10.00" fill="#000000">::_updateSetpoints</text>
</g>
<!-- Node52 -->
<g id="node2" class="node">
<title>Node52</title>
<g id="a_node2"><a xlink:href="../../d4/da6/class_flight_task_manual_altitude_smooth.html#a15ba661f81d605eb771ffbdb7af1bc20" target="_top" xlink:title="updates all setpoints ">
<polygon fill="#ffffff" stroke="#000000" points="170,-147.5 170,-177.5 302,-177.5 302,-147.5 170,-147.5"/>
<text text-anchor="start" x="178" y="-165.5" font-family="Helvetica,sans-Serif" font-size="10.00" fill="#000000">FlightTaskManualAltitude</text>
<text text-anchor="middle" x="236" y="-154.5" font-family="Helvetica,sans-Serif" font-size="10.00" fill="#000000">Smooth::_updateSetpoints</text>
</a>
</g>
</g>
<!-- Node51&#45;&gt;Node52 -->
<g id="edge1" class="edge">
<title>Node51&#45;&gt;Node52</title>
<path fill="none" stroke="#191970" d="M126.4945,-131.3941C145.0482,-136.6644 165.1537,-142.3755 183.0123,-147.4484"/>
<polygon fill="#191970" stroke="#191970" points="127.2391,-127.9672 116.6632,-128.6014 125.3263,-134.7008 127.2391,-127.9672"/>
</g>
<!-- Node53 -->
<g id="node3" class="node">
<title>Node53</title>
<g id="a_node3"><a xlink:href="../../d4/d12/class_flight_task_manual_altitude_smooth_vel.html#aa7831e90f6e8cfbc8c3bf5b28004c892" target="_top" xlink:title="updates all setpoints ">
<polygon fill="#ffffff" stroke="#000000" points="163,-98.5 163,-128.5 309,-128.5 309,-98.5 163,-98.5"/>
<text text-anchor="start" x="171" y="-116.5" font-family="Helvetica,sans-Serif" font-size="10.00" fill="#000000">FlightTaskManualAltitude</text>
<text text-anchor="middle" x="236" y="-105.5" font-family="Helvetica,sans-Serif" font-size="10.00" fill="#000000">SmoothVel::_updateSetpoints</text>
</a>
</g>
</g>
<!-- Node51&#45;&gt;Node53 -->
<g id="edge2" class="edge">
<title>Node51&#45;&gt;Node53</title>
<path fill="none" stroke="#191970" d="M137.4375,-113.5C145.8791,-113.5 154.4814,-113.5 162.9119,-113.5"/>
<polygon fill="#191970" stroke="#191970" points="137.2426,-110.0001 127.2425,-113.5 137.2425,-117.0001 137.2426,-110.0001"/>
</g>
<!-- Node54 -->
<g id="node4" class="node">
<title>Node54</title>
<g id="a_node4"><a xlink:href="../../da/d83/class_flight_task_manual_position.html#a7ff41f50ab2a64a911723509539d4ca0" target="_top" xlink:title="updates all setpoints ">
<polygon fill="#ffffff" stroke="#000000" points="171.5,-49.5 171.5,-79.5 300.5,-79.5 300.5,-49.5 171.5,-49.5"/>
<text text-anchor="start" x="179.5" y="-67.5" font-family="Helvetica,sans-Serif" font-size="10.00" fill="#000000">FlightTaskManualPosition</text>
<text text-anchor="middle" x="236" y="-56.5" font-family="Helvetica,sans-Serif" font-size="10.00" fill="#000000">::_updateSetpoints</text>
</a>
</g>
</g>
<!-- Node51&#45;&gt;Node54 -->
<g id="edge3" class="edge">
<title>Node51&#45;&gt;Node54</title>
<path fill="none" stroke="#191970" d="M126.4945,-95.6059C145.0482,-90.3356 165.1537,-84.6245 183.0123,-79.5516"/>
<polygon fill="#191970" stroke="#191970" points="125.3263,-92.2992 116.6632,-98.3986 127.2391,-99.0328 125.3263,-92.2992"/>
</g>
<!-- Node55 -->
<g id="node5" class="node">
<title>Node55</title>
<g id="a_node5"><a xlink:href="../../da/d83/class_flight_task_manual_position.html#a4a6b240320d94deaca158a5ce4d986e4" target="_top" xlink:title="Sets an external yaw handler which can be used to implement a different yaw control strategy...">
<polygon fill="#ffffff" stroke="#000000" points="353.5,-98.5 353.5,-128.5 482.5,-128.5 482.5,-98.5 353.5,-98.5"/>
<text text-anchor="start" x="361.5" y="-116.5" font-family="Helvetica,sans-Serif" font-size="10.00" fill="#000000">FlightTaskManualPosition</text>
<text text-anchor="middle" x="418" y="-105.5" font-family="Helvetica,sans-Serif" font-size="10.00" fill="#000000">::setYawHandler</text>
</a>
</g>
</g>
<!-- Node54&#45;&gt;Node55 -->
<g id="edge4" class="edge">
<title>Node54&#45;&gt;Node55</title>
<path fill="none" stroke="#191970" d="M301.9229,-82.2485C321.6481,-87.5591 343.0783,-93.3288 362.0941,-98.4484"/>
<polygon fill="#191970" stroke="#191970" points="302.6572,-78.8216 292.0911,-79.6014 300.8373,-85.5809 302.6572,-78.8216"/>
</g>
<!-- Node56 -->
<g id="node6" class="node">
<title>Node56</title>
<g id="a_node6"><a xlink:href="../../d2/da3/class_flight_task_manual_position_smooth.html#a6bfa78892647fa049eaeb3b9040b650c" target="_top" xlink:title="updates all setpoints ">
<polygon fill="#ffffff" stroke="#000000" points="352,-49.5 352,-79.5 484,-79.5 484,-49.5 352,-49.5"/>
<text text-anchor="start" x="360" y="-67.5" font-family="Helvetica,sans-Serif" font-size="10.00" fill="#000000">FlightTaskManualPosition</text>
<text text-anchor="middle" x="418" y="-56.5" font-family="Helvetica,sans-Serif" font-size="10.00" fill="#000000">Smooth::_updateSetpoints</text>
</a>
</g>
</g>
<!-- Node54&#45;&gt;Node56 -->
<g id="edge5" class="edge">
<title>Node54&#45;&gt;Node56</title>
<path fill="none" stroke="#191970" d="M310.9657,-64.5C324.571,-64.5 338.6701,-64.5 351.9943,-64.5"/>
<polygon fill="#191970" stroke="#191970" points="310.6789,-61.0001 300.6788,-64.5 310.6788,-68.0001 310.6789,-61.0001"/>
</g>
<!-- Node57 -->
<g id="node7" class="node">
<title>Node57</title>
<g id="a_node7"><a xlink:href="../../d7/d80/class_flight_task_manual_position_smooth_vel.html#a5c0f729deb39703f93b42c7f7092f7b8" target="_top" xlink:title="updates all setpoints ">
<polygon fill="#ffffff" stroke="#000000" points="345,-.5 345,-30.5 491,-30.5 491,-.5 345,-.5"/>
<text text-anchor="start" x="353" y="-18.5" font-family="Helvetica,sans-Serif" font-size="10.00" fill="#000000">FlightTaskManualPosition</text>
<text text-anchor="middle" x="418" y="-7.5" font-family="Helvetica,sans-Serif" font-size="10.00" fill="#000000">SmoothVel::_updateSetpoints</text>
</a>
</g>
</g>
<!-- Node54&#45;&gt;Node57 -->
<g id="edge6" class="edge">
<title>Node54&#45;&gt;Node57</title>
<path fill="none" stroke="#191970" d="M301.9229,-46.7515C321.6481,-41.4409 343.0783,-35.6712 362.0941,-30.5516"/>
<polygon fill="#191970" stroke="#191970" points="300.8373,-43.4191 292.0911,-49.3986 302.6572,-50.1784 300.8373,-43.4191"/>
</g>
</g>
</svg>
