<?xml version="1.0" encoding="UTF-8" standalone="no"?>
<!DOCTYPE svg PUBLIC "-//W3C//DTD SVG 1.1//EN"
 "http://www.w3.org/Graphics/SVG/1.1/DTD/svg11.dtd">
<!-- Generated by graphviz version 2.40.1 (20161225.0304)
 -->
<!-- Title: PX4Barometer::~PX4Barometer Pages: 1 -->
<svg width="443pt" height="39pt"
 viewBox="0.00 0.00 443.00 39.00" xmlns="http://www.w3.org/2000/svg" xmlns:xlink="http://www.w3.org/1999/xlink">
<g id="graph0" class="graph" transform="scale(1 1) rotate(0) translate(4 35)">
<title>PX4Barometer::~PX4Barometer</title>
<polygon fill="#ffffff" stroke="transparent" points="-4,4 -4,-35 439,-35 439,4 -4,4"/>
<!-- Node5 -->
<g id="node1" class="node">
<title>Node5</title>
<polygon fill="#bfbfbf" stroke="#000000" points="0,-6 0,-25 156,-25 156,-6 0,-6"/>
<text text-anchor="middle" x="78" y="-13" font-family="Helvetica,sans-Serif" font-size="10.00" fill="#000000">PX4Barometer::~PX4Barometer</text>
</g>
<!-- Node6 -->
<g id="node2" class="node">
<title>Node6</title>
<g id="a_node2"><a xlink:href="../../d8/d26/classcdev_1_1_c_dev.html#a1bc70f8f4087d2acf0ffe516f15c9e38" target="_top" xlink:title="Register a class device name, automatically adding device class instance suffix if need be...">
<polygon fill="#ffffff" stroke="#000000" points="192,-.5 192,-30.5 310,-30.5 310,-.5 192,-.5"/>
<text text-anchor="start" x="200" y="-18.5" font-family="Helvetica,sans-Serif" font-size="10.00" fill="#000000">cdev::CDev::unregister</text>
<text text-anchor="middle" x="251" y="-7.5" font-family="Helvetica,sans-Serif" font-size="10.00" fill="#000000">_class_devname</text>
</a>
</g>
</g>
<!-- Node5&#45;&gt;Node6 -->
<g id="edge1" class="edge">
<title>Node5&#45;&gt;Node6</title>
<path fill="none" stroke="#191970" d="M156.1488,-15.5C164.6792,-15.5 173.319,-15.5 181.7321,-15.5"/>
<polygon fill="#191970" stroke="#191970" points="181.8593,-19.0001 191.8593,-15.5 181.8592,-12.0001 181.8593,-19.0001"/>
</g>
<!-- Node7 -->
<g id="node3" class="node">
<title>Node7</title>
<g id="a_node3"><a xlink:href="../../da/dc9/posix_2cdev__platform_8cpp.html#a982c5d28fb1c9d81d326b245be5aac6b" target="_top" xlink:title="unregister_driver">
<polygon fill="#ffffff" stroke="#000000" points="346,-6 346,-25 435,-25 435,-6 346,-6"/>
<text text-anchor="middle" x="390.5" y="-13" font-family="Helvetica,sans-Serif" font-size="10.00" fill="#000000">unregister_driver</text>
</a>
</g>
</g>
<!-- Node6&#45;&gt;Node7 -->
<g id="edge2" class="edge">
<title>Node6&#45;&gt;Node7</title>
<path fill="none" stroke="#191970" d="M310.1606,-15.5C318.6075,-15.5 327.2667,-15.5 335.6268,-15.5"/>
<polygon fill="#191970" stroke="#191970" points="335.6416,-19.0001 345.6415,-15.5 335.6415,-12.0001 335.6416,-19.0001"/>
</g>
</g>
</svg>
