<?xml version="1.0" encoding="UTF-8" standalone="no"?>
<!DOCTYPE svg PUBLIC "-//W3C//DTD SVG 1.1//EN"
 "http://www.w3.org/Graphics/SVG/1.1/DTD/svg11.dtd">
<!-- Generated by graphviz version 2.40.1 (20161225.0304)
 -->
<!-- Title: src/lib/matrix/matrix/Vector2.hpp Pages: 1 -->
<svg width="1471pt" height="207pt"
 viewBox="0.00 0.00 1470.50 207.00" xmlns="http://www.w3.org/2000/svg" xmlns:xlink="http://www.w3.org/1999/xlink">
<g id="graph0" class="graph" transform="scale(1 1) rotate(0) translate(4 203)">
<title>src/lib/matrix/matrix/Vector2.hpp</title>
<polygon fill="#ffffff" stroke="transparent" points="-4,4 -4,-203 1466.5,-203 1466.5,4 -4,4"/>
<!-- Node0 -->
<g id="node1" class="node">
<title>Node0</title>
<polygon fill="#bfbfbf" stroke="#000000" points="691.5,-168.5 691.5,-198.5 794.5,-198.5 794.5,-168.5 691.5,-168.5"/>
<text text-anchor="start" x="699.5" y="-186.5" font-family="Helvetica,sans-Serif" font-size="10.00" fill="#000000">src/lib/matrix/matrix</text>
<text text-anchor="middle" x="743" y="-175.5" font-family="Helvetica,sans-Serif" font-size="10.00" fill="#000000">/Vector2.hpp</text>
</g>
<!-- Node1 -->
<g id="node2" class="node">
<title>Node1</title>
<g id="a_node2"><a xlink:href="../../d4/d78/math_8hpp.html" target="_top" xlink:title="math.hpp">
<polygon fill="#ffffff" stroke="#000000" points="714.5,-112.5 714.5,-131.5 771.5,-131.5 771.5,-112.5 714.5,-112.5"/>
<text text-anchor="middle" x="743" y="-119.5" font-family="Helvetica,sans-Serif" font-size="10.00" fill="#000000">math.hpp</text>
</a>
</g>
</g>
<!-- Node0&#45;&gt;Node1 -->
<g id="edge1" class="edge">
<title>Node0&#45;&gt;Node1</title>
<path fill="none" stroke="#191970" d="M737.0843,-168.2977C736.1446,-160.2945 735.9987,-150.3843 736.6466,-141.7889"/>
<polygon fill="#191970" stroke="#191970" points="740.1218,-142.2044 737.8917,-131.8469 733.176,-141.3345 740.1218,-142.2044"/>
</g>
<!-- Node1&#45;&gt;Node0 -->
<g id="edge18" class="edge">
<title>Node1&#45;&gt;Node0</title>
<path fill="none" stroke="#191970" d="M748.1083,-131.8469C749.4704,-138.9883 749.9849,-148.9858 749.6519,-158.2849"/>
<polygon fill="#191970" stroke="#191970" points="746.1584,-158.068 748.9157,-168.2977 753.1396,-158.5813 746.1584,-158.068"/>
</g>
<!-- Node2 -->
<g id="node3" class="node">
<title>Node2</title>
<g id="a_node3"><a xlink:href="../../db/de5/stdlib__imports_8hpp.html" target="_top" xlink:title="This file is needed to shadow the C standard library math functions with ones provided by the C++ sta...">
<polygon fill="#ffffff" stroke="#000000" points="37,-56.5 37,-75.5 133,-75.5 133,-56.5 37,-56.5"/>
<text text-anchor="middle" x="85" y="-63.5" font-family="Helvetica,sans-Serif" font-size="10.00" fill="#000000">stdlib_imports.hpp</text>
</a>
</g>
</g>
<!-- Node1&#45;&gt;Node2 -->
<g id="edge2" class="edge">
<title>Node1&#45;&gt;Node2</title>
<path fill="none" stroke="#191970" d="M714.4334,-120.8017C629.199,-117.0178 369.1096,-103.9581 143.204,-76.0419"/>
<polygon fill="#191970" stroke="#191970" points="143.5089,-72.5529 133.1523,-74.787 142.6417,-79.499 143.5089,-72.5529"/>
</g>
<!-- Node6 -->
<g id="node7" class="node">
<title>Node6</title>
<g id="a_node7"><a xlink:href="../../dd/d28/helper__functions_8hpp.html" target="_top" xlink:title="helper_functions.hpp">
<polygon fill="#ffffff" stroke="#000000" points="151.5,-56.5 151.5,-75.5 258.5,-75.5 258.5,-56.5 151.5,-56.5"/>
<text text-anchor="middle" x="205" y="-63.5" font-family="Helvetica,sans-Serif" font-size="10.00" fill="#000000">helper_functions.hpp</text>
</a>
</g>
</g>
<!-- Node1&#45;&gt;Node6 -->
<g id="edge6" class="edge">
<title>Node1&#45;&gt;Node6</title>
<path fill="none" stroke="#191970" d="M714.3833,-120.1546C640.5963,-114.8548 438.8511,-98.5903 265.4092,-76.7977"/>
<polygon fill="#191970" stroke="#191970" points="265.7021,-73.3069 255.3415,-75.5223 264.8223,-80.2514 265.7021,-73.3069"/>
</g>
<!-- Node7 -->
<g id="node8" class="node">
<title>Node7</title>
<g id="a_node8"><a xlink:href="../../d8/d49/_matrix_8hpp.html" target="_top" xlink:title="A simple matrix template library. ">
<polygon fill="#ffffff" stroke="#000000" points="277,-56.5 277,-75.5 339,-75.5 339,-56.5 277,-56.5"/>
<text text-anchor="middle" x="308" y="-63.5" font-family="Helvetica,sans-Serif" font-size="10.00" fill="#000000">Matrix.hpp</text>
</a>
</g>
</g>
<!-- Node1&#45;&gt;Node7 -->
<g id="edge8" class="edge">
<title>Node1&#45;&gt;Node7</title>
<path fill="none" stroke="#191970" d="M714.4151,-120.2749C649.3318,-115.7277 486.124,-102.063 346.4562,-77.3169"/>
<polygon fill="#191970" stroke="#191970" points="346.9041,-73.8414 336.4425,-75.516 345.6651,-80.7308 346.9041,-73.8414"/>
</g>
<!-- Node10 -->
<g id="node11" class="node">
<title>Node10</title>
<g id="a_node11"><a xlink:href="../../df/d5f/_square_matrix_8hpp.html" target="_top" xlink:title="A square matrix. ">
<polygon fill="#ffffff" stroke="#000000" points="357.5,-56.5 357.5,-75.5 450.5,-75.5 450.5,-56.5 357.5,-56.5"/>
<text text-anchor="middle" x="404" y="-63.5" font-family="Helvetica,sans-Serif" font-size="10.00" fill="#000000">SquareMatrix.hpp</text>
</a>
</g>
</g>
<!-- Node1&#45;&gt;Node10 -->
<g id="edge12" class="edge">
<title>Node1&#45;&gt;Node10</title>
<path fill="none" stroke="#191970" d="M714.4502,-118.3368C663.4536,-110.9902 554.0659,-93.7774 457.3175,-77.2505"/>
<polygon fill="#191970" stroke="#191970" points="457.8446,-73.7899 447.3971,-75.5506 456.6623,-80.6893 457.8446,-73.7899"/>
</g>
<!-- Node11 -->
<g id="node12" class="node">
<title>Node11</title>
<g id="a_node12"><a xlink:href="../../dd/da6/_slice_8hpp.html" target="_top" xlink:title="A simple matrix template library. ">
<polygon fill="#ffffff" stroke="#000000" points="468.5,-56.5 468.5,-75.5 525.5,-75.5 525.5,-56.5 468.5,-56.5"/>
<text text-anchor="middle" x="497" y="-63.5" font-family="Helvetica,sans-Serif" font-size="10.00" fill="#000000">Slice.hpp</text>
</a>
</g>
</g>
<!-- Node1&#45;&gt;Node11 -->
<g id="edge14" class="edge">
<title>Node1&#45;&gt;Node11</title>
<path fill="none" stroke="#191970" d="M714.2982,-117.1929C674.3308,-109.5112 600.23,-93.753 533.7436,-77.8563"/>
<polygon fill="#191970" stroke="#191970" points="534.5357,-74.4471 523.9944,-75.5108 532.8983,-81.2529 534.5357,-74.4471"/>
</g>
<!-- Node12 -->
<g id="node13" class="node">
<title>Node12</title>
<g id="a_node13"><a xlink:href="../../db/d20/_vector_8hpp.html" target="_top" xlink:title="Vector class. ">
<polygon fill="#ffffff" stroke="#000000" points="544,-56.5 544,-75.5 608,-75.5 608,-56.5 544,-56.5"/>
<text text-anchor="middle" x="576" y="-63.5" font-family="Helvetica,sans-Serif" font-size="10.00" fill="#000000">Vector.hpp</text>
</a>
</g>
</g>
<!-- Node1&#45;&gt;Node12 -->
<g id="edge16" class="edge">
<title>Node1&#45;&gt;Node12</title>
<path fill="none" stroke="#191970" d="M714.1724,-113.9766C684.8307,-104.8469 639.673,-89.805 608.9546,-78.9962"/>
<polygon fill="#191970" stroke="#191970" points="609.7291,-75.5571 599.1343,-75.5076 607.3858,-82.1532 609.7291,-75.5571"/>
</g>
<!-- Node13 -->
<g id="node14" class="node">
<title>Node13</title>
<g id="a_node14"><a xlink:href="../../d2/d6a/_vector3_8hpp.html" target="_top" xlink:title="3D vector class. ">
<polygon fill="#ffffff" stroke="#000000" points="626.5,-56.5 626.5,-75.5 695.5,-75.5 695.5,-56.5 626.5,-56.5"/>
<text text-anchor="middle" x="661" y="-63.5" font-family="Helvetica,sans-Serif" font-size="10.00" fill="#000000">Vector3.hpp</text>
</a>
</g>
</g>
<!-- Node1&#45;&gt;Node13 -->
<g id="edge19" class="edge">
<title>Node1&#45;&gt;Node13</title>
<path fill="none" stroke="#191970" d="M723.4498,-112.2455C709.6087,-103.8943 691.4663,-91.7076 678.1823,-81.9408"/>
<polygon fill="#191970" stroke="#191970" points="679.9579,-78.8948 669.8745,-75.6427 675.729,-84.4731 679.9579,-78.8948"/>
</g>
<!-- Node14 -->
<g id="node15" class="node">
<title>Node14</title>
<g id="a_node15"><a xlink:href="../../d3/d40/_euler_8hpp.html" target="_top" xlink:title="All rotations and axis systems follow the right&#45;hand rule. ">
<polygon fill="#ffffff" stroke="#000000" points="714,-56.5 714,-75.5 772,-75.5 772,-56.5 714,-56.5"/>
<text text-anchor="middle" x="743" y="-63.5" font-family="Helvetica,sans-Serif" font-size="10.00" fill="#000000">Euler.hpp</text>
</a>
</g>
</g>
<!-- Node1&#45;&gt;Node14 -->
<g id="edge21" class="edge">
<title>Node1&#45;&gt;Node14</title>
<path fill="none" stroke="#191970" d="M737.7332,-112.2455C736.3221,-104.9382 735.9179,-94.6944 736.5205,-85.7046"/>
<polygon fill="#191970" stroke="#191970" points="740.0111,-85.9945 737.7549,-75.6427 733.0632,-85.1421 740.0111,-85.9945"/>
</g>
<!-- Node15 -->
<g id="node16" class="node">
<title>Node15</title>
<g id="a_node16"><a xlink:href="../../d9/d6f/_dcm_8hpp.html" target="_top" xlink:title="A direction cosine matrix class. ">
<polygon fill="#ffffff" stroke="#000000" points="790,-56.5 790,-75.5 846,-75.5 846,-56.5 790,-56.5"/>
<text text-anchor="middle" x="818" y="-63.5" font-family="Helvetica,sans-Serif" font-size="10.00" fill="#000000">Dcm.hpp</text>
</a>
</g>
</g>
<!-- Node1&#45;&gt;Node15 -->
<g id="edge23" class="edge">
<title>Node1&#45;&gt;Node15</title>
<path fill="none" stroke="#191970" d="M750.7972,-112.2455C760.5533,-103.7337 777.0118,-91.2375 791.3022,-81.3801"/>
<polygon fill="#191970" stroke="#191970" points="793.4925,-84.1252 799.8406,-75.6427 789.5883,-78.315 793.4925,-84.1252"/>
</g>
<!-- Node16 -->
<g id="node17" class="node">
<title>Node16</title>
<g id="a_node17"><a xlink:href="../../de/d6b/_scalar_8hpp.html" target="_top" xlink:title="Defines conversion of matrix to scalar. ">
<polygon fill="#ffffff" stroke="#000000" points="864.5,-56.5 864.5,-75.5 927.5,-75.5 927.5,-56.5 864.5,-56.5"/>
<text text-anchor="middle" x="896" y="-63.5" font-family="Helvetica,sans-Serif" font-size="10.00" fill="#000000">Scalar.hpp</text>
</a>
</g>
</g>
<!-- Node1&#45;&gt;Node16 -->
<g id="edge25" class="edge">
<title>Node1&#45;&gt;Node16</title>
<path fill="none" stroke="#191970" d="M764.0596,-112.3733C787.5772,-103.1016 825.8786,-89.0178 855.2429,-78.804"/>
<polygon fill="#191970" stroke="#191970" points="856.5109,-82.0691 864.8243,-75.5011 854.2296,-75.4513 856.5109,-82.0691"/>
</g>
<!-- Node17 -->
<g id="node18" class="node">
<title>Node17</title>
<g id="a_node18"><a xlink:href="../../d6/d42/_quaternion_8hpp.html" target="_top" xlink:title="All rotations and axis systems follow the right&#45;hand rule. ">
<polygon fill="#ffffff" stroke="#000000" points="945.5,-56.5 945.5,-75.5 1028.5,-75.5 1028.5,-56.5 945.5,-56.5"/>
<text text-anchor="middle" x="987" y="-63.5" font-family="Helvetica,sans-Serif" font-size="10.00" fill="#000000">Quaternion.hpp</text>
</a>
</g>
</g>
<!-- Node1&#45;&gt;Node17 -->
<g id="edge27" class="edge">
<title>Node1&#45;&gt;Node17</title>
<path fill="none" stroke="#191970" d="M771.5987,-114.3309C811.8562,-104.5504 885.5566,-87.5893 935.4664,-76.5834"/>
<polygon fill="#191970" stroke="#191970" points="936.4072,-79.9603 945.4243,-74.3977 934.9065,-73.123 936.4072,-79.9603"/>
</g>
<!-- Node18 -->
<g id="node19" class="node">
<title>Node18</title>
<g id="a_node19"><a xlink:href="../../de/dbe/_axis_angle_8hpp.html" target="_top" xlink:title="AxisAngle.hpp">
<polygon fill="#ffffff" stroke="#000000" points="1047,-56.5 1047,-75.5 1127,-75.5 1127,-56.5 1047,-56.5"/>
<text text-anchor="middle" x="1087" y="-63.5" font-family="Helvetica,sans-Serif" font-size="10.00" fill="#000000">AxisAngle.hpp</text>
</a>
</g>
</g>
<!-- Node1&#45;&gt;Node18 -->
<g id="edge29" class="edge">
<title>Node1&#45;&gt;Node18</title>
<path fill="none" stroke="#191970" d="M771.8196,-117.0871C823.4771,-109.1418 934.4142,-92.6723 1028,-76 1030.8188,-75.4978 1033.7235,-74.9629 1036.6655,-74.4116"/>
<polygon fill="#191970" stroke="#191970" points="1037.5704,-77.8023 1046.7414,-72.4973 1036.2638,-70.9253 1037.5704,-77.8023"/>
</g>
<!-- Node19 -->
<g id="node20" class="node">
<title>Node19</title>
<g id="a_node20"><a xlink:href="../../d9/d19/_least_squares_solver_8hpp.html" target="_top" xlink:title="Least Squares Solver using QR householder decomposition. ">
<polygon fill="#ffffff" stroke="#000000" points="1145.5,-56.5 1145.5,-75.5 1268.5,-75.5 1268.5,-56.5 1145.5,-56.5"/>
<text text-anchor="middle" x="1207" y="-63.5" font-family="Helvetica,sans-Serif" font-size="10.00" fill="#000000">LeastSquaresSolver.hpp</text>
</a>
</g>
</g>
<!-- Node1&#45;&gt;Node19 -->
<g id="edge31" class="edge">
<title>Node1&#45;&gt;Node19</title>
<path fill="none" stroke="#191970" d="M771.6552,-118.327C835.6614,-110.8529 994.1445,-93.1289 1127,-76 1129.6852,-75.6538 1132.4267,-75.2942 1135.2009,-74.9261"/>
<polygon fill="#191970" stroke="#191970" points="1135.9024,-78.3634 1145.3479,-73.564 1134.9711,-71.4256 1135.9024,-78.3634"/>
</g>
<!-- Node20 -->
<g id="node21" class="node">
<title>Node20</title>
<g id="a_node21"><a xlink:href="../../d5/dd8/_dual_8hpp.html" target="_top" xlink:title="This is a dual number type for calculating automatic derivatives. ">
<polygon fill="#ffffff" stroke="#000000" points="1287,-56.5 1287,-75.5 1343,-75.5 1343,-56.5 1287,-56.5"/>
<text text-anchor="middle" x="1315" y="-63.5" font-family="Helvetica,sans-Serif" font-size="10.00" fill="#000000">Dual.hpp</text>
</a>
</g>
</g>
<!-- Node1&#45;&gt;Node20 -->
<g id="edge33" class="edge">
<title>Node1&#45;&gt;Node20</title>
<path fill="none" stroke="#191970" d="M771.7449,-121.2002C851.5071,-118.7219 1081.0335,-109.2083 1269,-76 1271.6129,-75.5384 1274.3094,-74.978 1277.0343,-74.3607"/>
<polygon fill="#191970" stroke="#191970" points="1278.0384,-77.7185 1286.926,-71.9513 1276.3817,-70.9174 1278.0384,-77.7185"/>
</g>
<!-- Node21 -->
<g id="node22" class="node">
<title>Node21</title>
<g id="a_node22"><a xlink:href="../../d0/d67/_pseudo_inverse_8hpp.html" target="_top" xlink:title="Implementation of matrix pseudo inverse. ">
<polygon fill="#ffffff" stroke="#000000" points="1361.5,-56.5 1361.5,-75.5 1462.5,-75.5 1462.5,-56.5 1361.5,-56.5"/>
<text text-anchor="middle" x="1412" y="-63.5" font-family="Helvetica,sans-Serif" font-size="10.00" fill="#000000">PseudoInverse.hpp</text>
</a>
</g>
</g>
<!-- Node1&#45;&gt;Node21 -->
<g id="edge35" class="edge">
<title>Node1&#45;&gt;Node21</title>
<path fill="none" stroke="#191970" d="M771.624,-120.561C858.2211,-116.3232 1123.7868,-102.4925 1343,-76 1345.6603,-75.6785 1348.3828,-75.3225 1351.1376,-74.9419"/>
<polygon fill="#191970" stroke="#191970" points="1351.8113,-78.3808 1361.2016,-73.4746 1350.8013,-71.454 1351.8113,-78.3808"/>
</g>
<!-- Node3 -->
<g id="node4" class="node">
<title>Node3</title>
<polygon fill="#ffffff" stroke="#bfbfbf" points="0,-.5 0,-19.5 44,-19.5 44,-.5 0,-.5"/>
<text text-anchor="middle" x="22" y="-7.5" font-family="Helvetica,sans-Serif" font-size="10.00" fill="#000000">cmath</text>
</g>
<!-- Node2&#45;&gt;Node3 -->
<g id="edge3" class="edge">
<title>Node2&#45;&gt;Node3</title>
<path fill="none" stroke="#191970" d="M74.0262,-56.2455C64.8118,-48.0549 51.4468,-36.1749 40.5703,-26.5069"/>
<polygon fill="#191970" stroke="#191970" points="42.6474,-23.6704 32.848,-19.6427 37.9968,-28.9023 42.6474,-23.6704"/>
</g>
<!-- Node4 -->
<g id="node5" class="node">
<title>Node4</title>
<polygon fill="#ffffff" stroke="#bfbfbf" points="62.5,-.5 62.5,-19.5 107.5,-19.5 107.5,-.5 62.5,-.5"/>
<text text-anchor="middle" x="85" y="-7.5" font-family="Helvetica,sans-Serif" font-size="10.00" fill="#000000">cstdlib</text>
</g>
<!-- Node2&#45;&gt;Node4 -->
<g id="edge4" class="edge">
<title>Node2&#45;&gt;Node4</title>
<path fill="none" stroke="#191970" d="M85,-56.2455C85,-48.9382 85,-38.6944 85,-29.7046"/>
<polygon fill="#191970" stroke="#191970" points="88.5001,-29.6426 85,-19.6427 81.5001,-29.6427 88.5001,-29.6426"/>
</g>
<!-- Node5 -->
<g id="node6" class="node">
<title>Node5</title>
<polygon fill="#ffffff" stroke="#bfbfbf" points="125.5,-.5 125.5,-19.5 184.5,-19.5 184.5,-.5 125.5,-.5"/>
<text text-anchor="middle" x="155" y="-7.5" font-family="Helvetica,sans-Serif" font-size="10.00" fill="#000000">inttypes.h</text>
</g>
<!-- Node2&#45;&gt;Node5 -->
<g id="edge5" class="edge">
<title>Node2&#45;&gt;Node5</title>
<path fill="none" stroke="#191970" d="M97.1931,-56.2455C107.6321,-47.8943 122.8655,-35.7076 135.074,-25.9408"/>
<polygon fill="#191970" stroke="#191970" points="137.3244,-28.6227 142.9467,-19.6427 132.9515,-23.1566 137.3244,-28.6227"/>
</g>
<!-- Node6&#45;&gt;Node1 -->
<g id="edge7" class="edge">
<title>Node6&#45;&gt;Node1</title>
<path fill="none" stroke="#191970" d="M258.6084,-73.4383C264.8353,-74.3599 271.068,-75.2427 277,-76 435.2885,-96.208 624.2663,-112.0466 704.3252,-118.6519"/>
<polygon fill="#191970" stroke="#191970" points="704.1836,-122.152 714.4373,-119.4853 704.7586,-115.1757 704.1836,-122.152"/>
</g>
<!-- Node7&#45;&gt;Node1 -->
<g id="edge11" class="edge">
<title>Node7&#45;&gt;Node1</title>
<path fill="none" stroke="#191970" d="M339.0185,-72.1192C345.0464,-73.5419 351.2256,-74.9465 357,-76 483.2977,-99.0419 634.5292,-112.8804 704.3834,-118.7282"/>
<polygon fill="#191970" stroke="#191970" points="704.2284,-122.2273 714.4835,-119.5658 704.807,-115.2512 704.2284,-122.2273"/>
</g>
<!-- Node8 -->
<g id="node9" class="node">
<title>Node8</title>
<polygon fill="#ffffff" stroke="#bfbfbf" points="255.5,-.5 255.5,-19.5 298.5,-19.5 298.5,-.5 255.5,-.5"/>
<text text-anchor="middle" x="277" y="-7.5" font-family="Helvetica,sans-Serif" font-size="10.00" fill="#000000">cstdio</text>
</g>
<!-- Node7&#45;&gt;Node8 -->
<g id="edge9" class="edge">
<title>Node7&#45;&gt;Node8</title>
<path fill="none" stroke="#191970" d="M302.6002,-56.2455C298.3773,-48.617 292.3827,-37.7881 287.2559,-28.5267"/>
<polygon fill="#191970" stroke="#191970" points="290.2432,-26.6965 282.3379,-19.6427 284.119,-30.0867 290.2432,-26.6965"/>
</g>
<!-- Node9 -->
<g id="node10" class="node">
<title>Node9</title>
<polygon fill="#ffffff" stroke="#bfbfbf" points="317,-.5 317,-19.5 363,-19.5 363,-.5 317,-.5"/>
<text text-anchor="middle" x="340" y="-7.5" font-family="Helvetica,sans-Serif" font-size="10.00" fill="#000000">cstring</text>
</g>
<!-- Node7&#45;&gt;Node9 -->
<g id="edge10" class="edge">
<title>Node7&#45;&gt;Node9</title>
<path fill="none" stroke="#191970" d="M313.574,-56.2455C317.9331,-48.617 324.1211,-37.7881 329.4133,-28.5267"/>
<polygon fill="#191970" stroke="#191970" points="332.5673,-30.0616 334.4899,-19.6427 326.4896,-26.5886 332.5673,-30.0616"/>
</g>
<!-- Node10&#45;&gt;Node1 -->
<g id="edge13" class="edge">
<title>Node10&#45;&gt;Node1</title>
<path fill="none" stroke="#191970" d="M450.7492,-72.9815C456.5953,-74.0117 462.4524,-75.0465 468,-76 552.2231,-90.4761 650.7225,-106.1494 704.1086,-114.9535"/>
<polygon fill="#191970" stroke="#191970" points="703.7291,-118.4382 714.1668,-116.6203 704.8736,-111.5324 703.7291,-118.4382"/>
</g>
<!-- Node11&#45;&gt;Node1 -->
<g id="edge15" class="edge">
<title>Node11&#45;&gt;Node1</title>
<path fill="none" stroke="#191970" d="M525.7124,-71.4427C531.8517,-72.9647 538.1653,-74.5877 544,-76 599.7181,-89.4869 664.2201,-103.506 704.4431,-112.4682"/>
<polygon fill="#191970" stroke="#191970" points="703.8506,-115.9221 714.3735,-114.69 705.379,-109.091 703.8506,-115.9221"/>
</g>
<!-- Node12&#45;&gt;Node1 -->
<g id="edge17" class="edge">
<title>Node12&#45;&gt;Node1</title>
<path fill="none" stroke="#191970" d="M608.0773,-75.0384C637.4226,-84.2375 680.4412,-98.5871 710.0469,-109.0043"/>
<polygon fill="#191970" stroke="#191970" points="708.939,-112.325 719.5337,-112.3733 711.2815,-105.7286 708.939,-112.325"/>
</g>
<!-- Node13&#45;&gt;Node1 -->
<g id="edge20" class="edge">
<title>Node13&#45;&gt;Node1</title>
<path fill="none" stroke="#191970" d="M680.3648,-75.6427C694.1673,-83.9595 712.312,-96.1397 725.6392,-105.928"/>
<polygon fill="#191970" stroke="#191970" points="723.8981,-108.9998 733.9835,-112.2455 728.1235,-103.4189 723.8981,-108.9998"/>
</g>
<!-- Node14&#45;&gt;Node1 -->
<g id="edge22" class="edge">
<title>Node14&#45;&gt;Node1</title>
<path fill="none" stroke="#191970" d="M748.2451,-75.6427C749.6665,-82.9199 750.081,-93.155 749.4887,-102.1575"/>
<polygon fill="#191970" stroke="#191970" points="745.9947,-101.8972 748.2668,-112.2455 752.9439,-102.739 745.9947,-101.8972"/>
</g>
<!-- Node15&#45;&gt;Node1 -->
<g id="edge24" class="edge">
<title>Node15&#45;&gt;Node1</title>
<path fill="none" stroke="#191970" d="M810.3308,-75.6427C800.6337,-84.1194 784.1952,-96.6096 769.886,-106.49"/>
<polygon fill="#191970" stroke="#191970" points="767.6743,-103.7596 761.3308,-112.2455 771.5817,-109.5676 767.6743,-103.7596"/>
</g>
<!-- Node16&#45;&gt;Node1 -->
<g id="edge26" class="edge">
<title>Node16&#45;&gt;Node1</title>
<path fill="none" stroke="#191970" d="M874.8267,-75.6716C850.6156,-85.2132 810.8395,-99.8197 781.2239,-110.0752"/>
<polygon fill="#191970" stroke="#191970" points="779.9311,-106.8184 771.607,-113.3727 782.2016,-113.4399 779.9311,-106.8184"/>
</g>
<!-- Node17&#45;&gt;Node1 -->
<g id="edge28" class="edge">
<title>Node17&#45;&gt;Node1</title>
<path fill="none" stroke="#191970" d="M950.6236,-75.5482C905.159,-86.4774 827.9515,-104.1669 781.5127,-114.2699"/>
<polygon fill="#191970" stroke="#191970" points="780.5668,-110.8934 771.5312,-116.4258 782.0447,-117.7356 780.5668,-110.8934"/>
</g>
<!-- Node18&#45;&gt;Node1 -->
<g id="edge30" class="edge">
<title>Node18&#45;&gt;Node1</title>
<path fill="none" stroke="#191970" d="M1048.6367,-75.5253C1047.7513,-75.6863 1046.8715,-75.8447 1046,-76 951.6731,-92.8043 839.7191,-109.4026 781.76,-117.2743"/>
<polygon fill="#191970" stroke="#191970" points="781.0279,-113.8411 771.5826,-118.6406 781.9594,-120.7788 781.0279,-113.8411"/>
</g>
<!-- Node19&#45;&gt;Node1 -->
<g id="edge32" class="edge">
<title>Node19&#45;&gt;Node1</title>
<path fill="none" stroke="#191970" d="M1148.7361,-75.5145C1147.4811,-75.6788 1146.2346,-75.8408 1145,-76 1012.203,-93.1213 853.8011,-110.8373 781.7951,-118.3171"/>
<polygon fill="#191970" stroke="#191970" points="781.4003,-114.8391 771.8115,-119.3451 782.1174,-121.8023 781.4003,-114.8391"/>
</g>
<!-- Node20&#45;&gt;Node1 -->
<g id="edge34" class="edge">
<title>Node20&#45;&gt;Node1</title>
<path fill="none" stroke="#191970" d="M1289.3783,-75.5575C1288.5802,-75.7132 1287.7863,-75.8611 1287,-76 1099.9802,-109.0411 871.8182,-118.6255 781.8907,-121.1622"/>
<polygon fill="#191970" stroke="#191970" points="781.5238,-117.6707 771.6213,-121.4377 781.7116,-124.6681 781.5238,-117.6707"/>
</g>
<!-- Node21&#45;&gt;Node1 -->
<g id="edge36" class="edge">
<title>Node21&#45;&gt;Node1</title>
<path fill="none" stroke="#191970" d="M1364.8109,-75.5218C1363.5301,-75.6882 1362.2581,-75.848 1361,-76 1143.1458,-102.3283 879.5119,-116.1512 781.7446,-120.481"/>
<polygon fill="#191970" stroke="#191970" points="781.5668,-116.9854 771.7284,-120.9167 781.871,-123.9788 781.5668,-116.9854"/>
</g>
<!-- Node22 -->
<g id="node23" class="node">
<title>Node22</title>
<polygon fill="#ffffff" stroke="#bfbfbf" points="1361.5,-.5 1361.5,-19.5 1462.5,-19.5 1462.5,-.5 1361.5,-.5"/>
<text text-anchor="middle" x="1412" y="-7.5" font-family="Helvetica,sans-Serif" font-size="10.00" fill="#000000">PseudoInverse.hxx</text>
</g>
<!-- Node21&#45;&gt;Node22 -->
<g id="edge37" class="edge">
<title>Node21&#45;&gt;Node22</title>
<path fill="none" stroke="#191970" d="M1412,-56.2455C1412,-48.9382 1412,-38.6944 1412,-29.7046"/>
<polygon fill="#191970" stroke="#191970" points="1415.5001,-29.6426 1412,-19.6427 1408.5001,-29.6427 1415.5001,-29.6426"/>
</g>
</g>
</svg>
