<?xml version="1.0" encoding="UTF-8" standalone="no"?>
<!DOCTYPE svg PUBLIC "-//W3C//DTD SVG 1.1//EN"
 "http://www.w3.org/Graphics/SVG/1.1/DTD/svg11.dtd">
<!-- Generated by graphviz version 2.40.1 (20161225.0304)
 -->
<!-- Title: src/modules/mavlink/mavlink_ftp.h Pages: 1 -->
<!--zoomable 195 -->
<svg id="main" version="1.1" xmlns="http://www.w3.org/2000/svg" xmlns:xlink="http://www.w3.org/1999/xlink" xml:space="preserve" onload="init(evt)">
<style type="text/css"><![CDATA[
.edge:hover path { stroke: red; }
.edge:hover polygon { stroke: red; fill: red; }
]]></style>
<script type="text/javascript"><![CDATA[
var edges = document.getElementsByTagName('g');
if (edges && edges.length) {
  for (var i=0;i<edges.length;i++) {
    if (edges[i].id.substr(0,4)=='edge') {
      edges[i].setAttribute('class','edge');
    }
  }
}
]]></script>
        <defs>
                <circle id="rim" cx="0" cy="0" r="7"/>
                <circle id="rim2" cx="0" cy="0" r="3.5"/>
                <g id="zoomPlus">
                        <use xlink:href="#rim" fill="#404040">
                                <set attributeName="fill" to="#808080" begin="zoomplus.mouseover" end="zoomplus.mouseout"/>
                        </use>
                        <path d="M-4,0h8M0,-4v8" fill="none" stroke="white" stroke-width="1.5" pointer-events="none"/>
                </g>
                <g id="zoomMin">
                        <use xlink:href="#rim" fill="#404040">
                                <set attributeName="fill" to="#808080" begin="zoomminus.mouseover" end="zoomminus.mouseout"/>
                        </use>
                        <path d="M-4,0h8" fill="none" stroke="white" stroke-width="1.5" pointer-events="none"/>
                </g>
                <g id="dirArrow">
                        <path fill="none" stroke="white" stroke-width="1.5" d="M0,-3.0v7 M-2.5,-0.5L0,-3.0L2.5,-0.5"/>
                </g>
               <g id="resetDef">
                       <use xlink:href="#rim2" fill="#404040">
                               <set attributeName="fill" to="#808080" begin="reset.mouseover" end="reset.mouseout"/>
                       </use>
               </g>
        </defs>

<script type="text/javascript">
var viewWidth = 641;
var viewHeight = 195;
var sectionId = 'dynsection-1';
</script>
<script xlink:href="../../svgpan.js"/>
<svg id="graph" class="graph">
<g id="viewport">
<title>src/modules/mavlink/mavlink_ftp.h</title>
<polygon fill="#ffffff" stroke="transparent" points="-4,4 -4,-191 636.5,-191 636.5,4 -4,4"/>
<!-- Node19 -->
<g id="node1" class="node">
<title>Node19</title>
<polygon fill="#bfbfbf" stroke="#000000" points="209,-156.5 209,-186.5 316,-186.5 316,-156.5 209,-156.5"/>
<text text-anchor="start" x="217" y="-174.5" font-family="Helvetica,sans-Serif" font-size="10.00" fill="#000000">src/modules/mavlink</text>
<text text-anchor="middle" x="262.5" y="-163.5" font-family="Helvetica,sans-Serif" font-size="10.00" fill="#000000">/mavlink_ftp.h</text>
</g>
<!-- Node20 -->
<g id="node2" class="node">
<title>Node20</title>
<g id="a_node2"><a xlink:href="../../d5/ddf/mavlink__ftp_8cpp.html" target="_top" xlink:title="src/modules/mavlink\l/mavlink_ftp.cpp">
<polygon fill="#ffffff" stroke="#000000" points="0,-6 0,-36 107,-36 107,-6 0,-6"/>
<text text-anchor="start" x="8" y="-24" font-family="Helvetica,sans-Serif" font-size="10.00" fill="#000000">src/modules/mavlink</text>
<text text-anchor="middle" x="53.5" y="-13" font-family="Helvetica,sans-Serif" font-size="10.00" fill="#000000">/mavlink_ftp.cpp</text>
</a>
</g>
</g>
<!-- Node19&#45;&gt;Node20 -->
<g id="edge1" class="edge">
<title>Node19&#45;&gt;Node20</title>
<path fill="none" stroke="#191970" d="M198.9632,-155.4557C175.0239,-147.3923 148.527,-135.8748 127.5,-120 96.845,-96.8562 72.88,-57.6758 61.2369,-36.2001"/>
<polygon fill="#191970" stroke="#191970" points="198.0998,-158.8547 208.6914,-158.5942 200.2491,-152.1928 198.0998,-158.8547"/>
</g>
<!-- Node21 -->
<g id="node3" class="node">
<title>Node21</title>
<g id="a_node3"><a xlink:href="../../de/d5d/mavlink__ftp__test_8h.html" target="_top" xlink:title="src/modules/mavlink\l/mavlink_tests/mavlink\l_ftp_test.h">
<polygon fill="#ffffff" stroke="#000000" points="137,-78.5 137,-119.5 254,-119.5 254,-78.5 137,-78.5"/>
<text text-anchor="start" x="145" y="-107.5" font-family="Helvetica,sans-Serif" font-size="10.00" fill="#000000">src/modules/mavlink</text>
<text text-anchor="start" x="145" y="-96.5" font-family="Helvetica,sans-Serif" font-size="10.00" fill="#000000">/mavlink_tests/mavlink</text>
<text text-anchor="middle" x="195.5" y="-85.5" font-family="Helvetica,sans-Serif" font-size="10.00" fill="#000000">_ftp_test.h</text>
</a>
</g>
</g>
<!-- Node19&#45;&gt;Node21 -->
<g id="edge2" class="edge">
<title>Node19&#45;&gt;Node21</title>
<path fill="none" stroke="#191970" d="M241.6858,-148.9772C232.983,-139.5599 222.9399,-128.6924 214.4462,-119.5015"/>
<polygon fill="#191970" stroke="#191970" points="239.2601,-151.5092 248.6176,-156.478 244.401,-146.7583 239.2601,-151.5092"/>
</g>
<!-- Node22 -->
<g id="node4" class="node">
<title>Node22</title>
<g id="a_node4"><a xlink:href="../../d5/daa/mavlink__ftp__test_8cpp.html" target="_top" xlink:title="src/modules/mavlink\l/mavlink_tests/mavlink\l_ftp_test.cpp">
<polygon fill="#ffffff" stroke="#000000" points="260,-.5 260,-41.5 377,-41.5 377,-.5 260,-.5"/>
<text text-anchor="start" x="268" y="-29.5" font-family="Helvetica,sans-Serif" font-size="10.00" fill="#000000">src/modules/mavlink</text>
<text text-anchor="start" x="268" y="-18.5" font-family="Helvetica,sans-Serif" font-size="10.00" fill="#000000">/mavlink_tests/mavlink</text>
<text text-anchor="middle" x="318.5" y="-7.5" font-family="Helvetica,sans-Serif" font-size="10.00" fill="#000000">_ftp_test.cpp</text>
</a>
</g>
</g>
<!-- Node19&#45;&gt;Node22 -->
<g id="edge9" class="edge">
<title>Node19&#45;&gt;Node22</title>
<path fill="none" stroke="#191970" d="M271.7244,-146.7096C282.6549,-117.3337 300.665,-68.9315 310.8537,-41.5494"/>
<polygon fill="#191970" stroke="#191970" points="268.3849,-145.6482 268.1778,-156.241 274.9454,-148.0894 268.3849,-145.6482"/>
</g>
<!-- Node24 -->
<g id="node6" class="node">
<title>Node24</title>
<g id="a_node6"><a xlink:href="../../da/dab/mavlink__receiver_8h.html" target="_top" xlink:title="MAVLink receiver thread. ">
<polygon fill="#ffffff" stroke="#000000" points="395,-84 395,-114 502,-114 502,-84 395,-84"/>
<text text-anchor="start" x="403" y="-102" font-family="Helvetica,sans-Serif" font-size="10.00" fill="#000000">src/modules/mavlink</text>
<text text-anchor="middle" x="448.5" y="-91" font-family="Helvetica,sans-Serif" font-size="10.00" fill="#000000">/mavlink_receiver.h</text>
</a>
</g>
</g>
<!-- Node19&#45;&gt;Node24 -->
<g id="edge6" class="edge">
<title>Node19&#45;&gt;Node24</title>
<path fill="none" stroke="#191970" d="M310.7451,-152.6948C341.6517,-140.6478 381.2176,-125.2257 410.0101,-114.0028"/>
<polygon fill="#191970" stroke="#191970" points="309.0854,-149.5851 301.0393,-156.478 311.6277,-156.1072 309.0854,-149.5851"/>
</g>
<!-- Node21&#45;&gt;Node20 -->
<g id="edge3" class="edge">
<title>Node21&#45;&gt;Node20</title>
<path fill="none" stroke="#191970" d="M148.7788,-73.3363C126.3323,-61.0064 100.2049,-46.6548 80.9934,-36.102"/>
<polygon fill="#191970" stroke="#191970" points="147.3696,-76.5554 157.8194,-78.3022 150.7397,-70.42 147.3696,-76.5554"/>
</g>
<!-- Node21&#45;&gt;Node22 -->
<g id="edge4" class="edge">
<title>Node21&#45;&gt;Node22</title>
<path fill="none" stroke="#191970" d="M236.8236,-72.7948C252.8975,-62.6016 271.0395,-51.0969 286.1355,-41.5239"/>
<polygon fill="#191970" stroke="#191970" points="234.7095,-69.991 228.1388,-78.3022 238.4583,-75.9025 234.7095,-69.991"/>
</g>
<!-- Node23 -->
<g id="node5" class="node">
<title>Node23</title>
<g id="a_node5"><a xlink:href="../../da/d2f/mavlink__tests_8cpp.html" target="_top" xlink:title="src/modules/mavlink\l/mavlink_tests/mavlink\l_tests.cpp">
<polygon fill="#ffffff" stroke="#000000" points="125,-.5 125,-41.5 242,-41.5 242,-.5 125,-.5"/>
<text text-anchor="start" x="133" y="-29.5" font-family="Helvetica,sans-Serif" font-size="10.00" fill="#000000">src/modules/mavlink</text>
<text text-anchor="start" x="133" y="-18.5" font-family="Helvetica,sans-Serif" font-size="10.00" fill="#000000">/mavlink_tests/mavlink</text>
<text text-anchor="middle" x="183.5" y="-7.5" font-family="Helvetica,sans-Serif" font-size="10.00" fill="#000000">_tests.cpp</text>
</a>
</g>
</g>
<!-- Node21&#45;&gt;Node23 -->
<g id="edge5" class="edge">
<title>Node21&#45;&gt;Node23</title>
<path fill="none" stroke="#191970" d="M190.7429,-68.0789C189.3797,-59.2178 187.9269,-49.7747 186.683,-41.6898"/>
<polygon fill="#191970" stroke="#191970" points="187.3043,-68.7459 192.2842,-78.0974 194.2229,-67.6815 187.3043,-68.7459"/>
</g>
<!-- Node25 -->
<g id="node7" class="node">
<title>Node25</title>
<g id="a_node7"><a xlink:href="../../de/d24/mavlink__main_8cpp.html" target="_top" xlink:title="MAVLink 1.0 protocol implementation. ">
<polygon fill="#ffffff" stroke="#000000" points="395,-6 395,-36 502,-36 502,-6 395,-6"/>
<text text-anchor="start" x="403" y="-24" font-family="Helvetica,sans-Serif" font-size="10.00" fill="#000000">src/modules/mavlink</text>
<text text-anchor="middle" x="448.5" y="-13" font-family="Helvetica,sans-Serif" font-size="10.00" fill="#000000">/mavlink_main.cpp</text>
</a>
</g>
</g>
<!-- Node24&#45;&gt;Node25 -->
<g id="edge7" class="edge">
<title>Node24&#45;&gt;Node25</title>
<path fill="none" stroke="#191970" d="M448.5,-73.7875C448.5,-61.4187 448.5,-46.9264 448.5,-36.2592"/>
<polygon fill="#191970" stroke="#191970" points="445.0001,-73.9608 448.5,-83.9608 452.0001,-73.9608 445.0001,-73.9608"/>
</g>
<!-- Node26 -->
<g id="node8" class="node">
<title>Node26</title>
<g id="a_node8"><a xlink:href="../../d2/d57/mavlink__receiver_8cpp.html" target="_top" xlink:title="MAVLink protocol message receive and dispatch. ">
<polygon fill="#ffffff" stroke="#000000" points="520.5,-6 520.5,-36 632.5,-36 632.5,-6 520.5,-6"/>
<text text-anchor="start" x="528.5" y="-24" font-family="Helvetica,sans-Serif" font-size="10.00" fill="#000000">src/modules/mavlink</text>
<text text-anchor="middle" x="576.5" y="-13" font-family="Helvetica,sans-Serif" font-size="10.00" fill="#000000">/mavlink_receiver.cpp</text>
</a>
</g>
</g>
<!-- Node24&#45;&gt;Node26 -->
<g id="edge8" class="edge">
<title>Node24&#45;&gt;Node26</title>
<path fill="none" stroke="#191970" d="M481.7901,-78.7139C503.5691,-65.4423 531.567,-48.381 551.4593,-36.2592"/>
<polygon fill="#191970" stroke="#191970" points="479.8978,-75.7683 473.1797,-83.9608 483.5404,-81.7459 479.8978,-75.7683"/>
</g>
</g>
</svg>
        <g id="navigator" transform="translate(0 0)" fill="#404254">
                <rect fill="#f2f5e9" fill-opacity="0.5" stroke="#606060" stroke-width=".5" x="0" y="0" width="60" height="60"/>
                <use id="zoomplus" xlink:href="#zoomPlus" x="17" y="9" onmousedown="handleZoom(evt,'in')"/>
                <use id="zoomminus" xlink:href="#zoomMin" x="42" y="9" onmousedown="handleZoom(evt,'out')"/>
                <use id="reset" xlink:href="#resetDef" x="30" y="36" onmousedown="handleReset()"/>
                <g id="arrowUp" xlink:href="#dirArrow" transform="translate(30 24)" onmousedown="handlePan(0,-1)">
                  <use xlink:href="#rim" fill="#404040">
                        <set attributeName="fill" to="#808080" begin="arrowUp.mouseover" end="arrowUp.mouseout"/>
                  </use>
                  <path fill="none" stroke="white" stroke-width="1.5" d="M0,-3.0v7 M-2.5,-0.5L0,-3.0L2.5,-0.5"/>
                </g>
                <g id="arrowRight" xlink:href="#dirArrow" transform="rotate(90) translate(36 -43)" onmousedown="handlePan(1,0)">
                  <use xlink:href="#rim" fill="#404040">
                        <set attributeName="fill" to="#808080" begin="arrowRight.mouseover" end="arrowRight.mouseout"/>
                  </use>
                  <path fill="none" stroke="white" stroke-width="1.5" d="M0,-3.0v7 M-2.5,-0.5L0,-3.0L2.5,-0.5"/>
                </g>
                <g id="arrowDown" xlink:href="#dirArrow" transform="rotate(180) translate(-30 -48)" onmousedown="handlePan(0,1)">
                  <use xlink:href="#rim" fill="#404040">
                        <set attributeName="fill" to="#808080" begin="arrowDown.mouseover" end="arrowDown.mouseout"/>
                  </use>
                  <path fill="none" stroke="white" stroke-width="1.5" d="M0,-3.0v7 M-2.5,-0.5L0,-3.0L2.5,-0.5"/>
                </g>
                <g id="arrowLeft" xlink:href="#dirArrow" transform="rotate(270) translate(-36 17)" onmousedown="handlePan(-1,0)">
                  <use xlink:href="#rim" fill="#404040">
                        <set attributeName="fill" to="#808080" begin="arrowLeft.mouseover" end="arrowLeft.mouseout"/>
                  </use>
                  <path fill="none" stroke="white" stroke-width="1.5" d="M0,-3.0v7 M-2.5,-0.5L0,-3.0L2.5,-0.5"/>
                </g>
        </g>
        <svg viewBox="0 0 15 15" width="100%" height="30px" preserveAspectRatio="xMaxYMin meet">
         <g id="arrow_out" transform="scale(0.3 0.3)">
          <a xlink:href="mavlink__ftp_8h__dep__incl_org.svg" target="_base">
           <rect id="button" ry="5" rx="5" y="6" x="6" height="38" width="38"
                fill="#f2f5e9" fill-opacity="0.5" stroke="#606060" stroke-width="1.0"/>
           <path id="arrow"
             d="M 11.500037,31.436501 C 11.940474,20.09759 22.043105,11.32322 32.158766,21.979434 L 37.068811,17.246167 C 37.068811,17.246167 37.088388,32 37.088388,32 L 22.160133,31.978069 C 22.160133,31.978069 26.997745,27.140456 26.997745,27.140456 C 18.528582,18.264221 13.291696,25.230495 11.500037,31.436501 z"
             style="fill:#404040;"/>
          </a>
         </g>
        </svg>
</svg>
