<?xml version="1.0" encoding="UTF-8" standalone="no"?>
<!DOCTYPE svg PUBLIC "-//W3C//DTD SVG 1.1//EN"
 "http://www.w3.org/Graphics/SVG/1.1/DTD/svg11.dtd">
<!-- Generated by graphviz version 2.40.1 (20161225.0304)
 -->
<!-- Title: RestartRequestHandler Pages: 1 -->
<svg width="308pt" height="171pt"
 viewBox="0.00 0.00 308.00 171.00" xmlns="http://www.w3.org/2000/svg" xmlns:xlink="http://www.w3.org/1999/xlink">
<g id="graph0" class="graph" transform="scale(1 1) rotate(0) translate(4 167)">
<title>RestartRequestHandler</title>
<polygon fill="#ffffff" stroke="transparent" points="-4,4 -4,-167 304,-167 304,4 -4,4"/>
<!-- Node0 -->
<g id="node1" class="node">
<title>Node0</title>
<polygon fill="#bfbfbf" stroke="#000000" points="96,-.5 96,-68.5 222,-68.5 222,-.5 96,-.5"/>
<text text-anchor="middle" x="159" y="-56.5" font-family="Helvetica,sans-Serif" font-size="10.00" fill="#000000">RestartRequestHandler</text>
<polyline fill="none" stroke="#000000" points="96,-49.5 222,-49.5 "/>
<text text-anchor="middle" x="159" y="-37.5" font-family="Helvetica,sans-Serif" font-size="10.00" fill="#000000"> </text>
<polyline fill="none" stroke="#000000" points="96,-30.5 222,-30.5 "/>
<text text-anchor="start" x="104" y="-18.5" font-family="Helvetica,sans-Serif" font-size="10.00" fill="#000000">&#45; handleRestartRequest()</text>
<text text-anchor="start" x="104" y="-7.5" font-family="Helvetica,sans-Serif" font-size="10.00" fill="#000000">&#45; handleRestartRequest()</text>
</g>
<!-- Node1 -->
<g id="node2" class="node">
<title>Node1</title>
<polygon fill="#ffffff" stroke="#bfbfbf" points="0,-105.5 0,-162.5 160,-162.5 160,-105.5 0,-105.5"/>
<text text-anchor="middle" x="80" y="-150.5" font-family="Helvetica,sans-Serif" font-size="10.00" fill="#000000">uavcan::IRestartRequestHandler</text>
<polyline fill="none" stroke="#bfbfbf" points="0,-143.5 160,-143.5 "/>
<text text-anchor="middle" x="80" y="-131.5" font-family="Helvetica,sans-Serif" font-size="10.00" fill="#000000"> </text>
<polyline fill="none" stroke="#bfbfbf" points="0,-124.5 160,-124.5 "/>
<text text-anchor="middle" x="80" y="-112.5" font-family="Helvetica,sans-Serif" font-size="10.00" fill="#000000"> </text>
</g>
<!-- Node1&#45;&gt;Node0 -->
<g id="edge1" class="edge">
<title>Node1&#45;&gt;Node0</title>
<path fill="none" stroke="#191970" d="M109.0339,-97.432C116.5031,-88.0246 124.5103,-77.9396 131.8783,-68.6596"/>
<polygon fill="none" stroke="#191970" points="106.1153,-95.4792 102.6382,-105.4873 111.5975,-99.832 106.1153,-95.4792"/>
</g>
<!-- Node2 -->
<g id="node3" class="node">
<title>Node2</title>
<polygon fill="#ffffff" stroke="#bfbfbf" points="178,-105.5 178,-162.5 300,-162.5 300,-105.5 178,-105.5"/>
<text text-anchor="middle" x="239" y="-150.5" font-family="Helvetica,sans-Serif" font-size="10.00" fill="#000000">IRestartRequestHandler</text>
<polyline fill="none" stroke="#bfbfbf" points="178,-143.5 300,-143.5 "/>
<text text-anchor="middle" x="239" y="-131.5" font-family="Helvetica,sans-Serif" font-size="10.00" fill="#000000"> </text>
<polyline fill="none" stroke="#bfbfbf" points="178,-124.5 300,-124.5 "/>
<text text-anchor="middle" x="239" y="-112.5" font-family="Helvetica,sans-Serif" font-size="10.00" fill="#000000"> </text>
</g>
<!-- Node2&#45;&gt;Node0 -->
<g id="edge2" class="edge">
<title>Node2&#45;&gt;Node0</title>
<path fill="none" stroke="#191970" d="M209.5986,-97.432C202.0349,-88.0246 193.9263,-77.9396 186.465,-68.6596"/>
<polygon fill="none" stroke="#191970" points="207.0814,-99.887 216.0752,-105.4873 212.5368,-95.5008 207.0814,-99.887"/>
</g>
</g>
</svg>
