<?xml version="1.0" encoding="UTF-8" standalone="no"?>
<!DOCTYPE svg PUBLIC "-//W3C//DTD SVG 1.1//EN"
 "http://www.w3.org/Graphics/SVG/1.1/DTD/svg11.dtd">
<!-- Generated by graphviz version 2.40.1 (20161225.0304)
 -->
<!-- Title: landing_target_estimator::KalmanFilter::getCovariance Pages: 1 -->
<!--zoomable 100 -->
<svg id="main" version="1.1" xmlns="http://www.w3.org/2000/svg" xmlns:xlink="http://www.w3.org/1999/xlink" xml:space="preserve" onload="init(evt)">
<style type="text/css"><![CDATA[
.edge:hover path { stroke: red; }
.edge:hover polygon { stroke: red; fill: red; }
]]></style>
<script type="text/javascript"><![CDATA[
var edges = document.getElementsByTagName('g');
if (edges && edges.length) {
  for (var i=0;i<edges.length;i++) {
    if (edges[i].id.substr(0,4)=='edge') {
      edges[i].setAttribute('class','edge');
    }
  }
}
]]></script>
        <defs>
                <circle id="rim" cx="0" cy="0" r="7"/>
                <circle id="rim2" cx="0" cy="0" r="3.5"/>
                <g id="zoomPlus">
                        <use xlink:href="#rim" fill="#404040">
                                <set attributeName="fill" to="#808080" begin="zoomplus.mouseover" end="zoomplus.mouseout"/>
                        </use>
                        <path d="M-4,0h8M0,-4v8" fill="none" stroke="white" stroke-width="1.5" pointer-events="none"/>
                </g>
                <g id="zoomMin">
                        <use xlink:href="#rim" fill="#404040">
                                <set attributeName="fill" to="#808080" begin="zoomminus.mouseover" end="zoomminus.mouseout"/>
                        </use>
                        <path d="M-4,0h8" fill="none" stroke="white" stroke-width="1.5" pointer-events="none"/>
                </g>
                <g id="dirArrow">
                        <path fill="none" stroke="white" stroke-width="1.5" d="M0,-3.0v7 M-2.5,-0.5L0,-3.0L2.5,-0.5"/>
                </g>
               <g id="resetDef">
                       <use xlink:href="#rim2" fill="#404040">
                               <set attributeName="fill" to="#808080" begin="reset.mouseover" end="reset.mouseout"/>
                       </use>
               </g>
        </defs>

<script type="text/javascript">
var viewWidth = 690;
var viewHeight = 100;
var sectionId = 'dynsection-3';
</script>
<script xlink:href="../../svgpan.js"/>
<svg id="graph" class="graph">
<g id="viewport">
<title>landing_target_estimator::KalmanFilter::getCovariance</title>
<polygon fill="#ffffff" stroke="transparent" points="-4,4 -4,-95.5 686,-95.5 686,4 -4,4"/>
<!-- Node19 -->
<g id="node1" class="node">
<title>Node19</title>
<polygon fill="#bfbfbf" stroke="#000000" points="0,-27.5 0,-57.5 146,-57.5 146,-27.5 0,-27.5"/>
<text text-anchor="start" x="8" y="-45.5" font-family="Helvetica,sans-Serif" font-size="10.00" fill="#000000">landing_target_estimator</text>
<text text-anchor="middle" x="73" y="-34.5" font-family="Helvetica,sans-Serif" font-size="10.00" fill="#000000">::KalmanFilter::getCovariance</text>
</g>
<!-- Node20 -->
<g id="node2" class="node">
<title>Node20</title>
<g id="a_node2"><a xlink:href="../../d3/d6e/classlanding__target__estimator_1_1_landing_target_estimator.html#a178ba4487440a747729aba8b471a74b2" target="_top" xlink:title="landing_target_estimator\l::LandingTargetEstimator\l::update">
<polygon fill="#ffffff" stroke="#000000" points="191,-50 191,-91 317,-91 317,-50 191,-50"/>
<text text-anchor="start" x="199" y="-79" font-family="Helvetica,sans-Serif" font-size="10.00" fill="#000000">landing_target_estimator</text>
<text text-anchor="start" x="199" y="-68" font-family="Helvetica,sans-Serif" font-size="10.00" fill="#000000">::LandingTargetEstimator</text>
<text text-anchor="middle" x="254" y="-57" font-family="Helvetica,sans-Serif" font-size="10.00" fill="#000000">::update</text>
</a>
</g>
</g>
<!-- Node19&#45;&gt;Node20 -->
<g id="edge1" class="edge">
<title>Node19&#45;&gt;Node20</title>
<path fill="none" stroke="#191970" d="M156.2477,-55.3781C167.8666,-57.1755 179.646,-58.9977 190.8131,-60.7252"/>
<polygon fill="#191970" stroke="#191970" points="156.5155,-51.878 146.0979,-53.808 155.4453,-58.7957 156.5155,-51.878"/>
</g>
<!-- Node23 -->
<g id="node5" class="node">
<title>Node23</title>
<g id="a_node5"><a xlink:href="../../d7/d38/classlanding__target__estimator_1_1_kalman_filter.html#a9ae670309cfbc555c10e1d05e4bffdbf" target="_top" xlink:title="Default desctructor. ">
<polygon fill="#ffffff" stroke="#000000" points="182,-.5 182,-30.5 326,-30.5 326,-.5 182,-.5"/>
<text text-anchor="start" x="190" y="-18.5" font-family="Helvetica,sans-Serif" font-size="10.00" fill="#000000">landing_target_estimator</text>
<text text-anchor="middle" x="254" y="-7.5" font-family="Helvetica,sans-Serif" font-size="10.00" fill="#000000">::KalmanFilter::~KalmanFilter</text>
</a>
</g>
</g>
<!-- Node19&#45;&gt;Node23 -->
<g id="edge4" class="edge">
<title>Node19&#45;&gt;Node23</title>
<path fill="none" stroke="#191970" d="M156.1102,-30.1024C164.6899,-28.8225 173.3588,-27.5293 181.8057,-26.2693"/>
<polygon fill="#191970" stroke="#191970" points="155.4721,-26.6587 146.0979,-31.5959 156.5049,-33.5821 155.4721,-26.6587"/>
</g>
<!-- Node21 -->
<g id="node3" class="node">
<title>Node21</title>
<g id="a_node3"><a xlink:href="../../d0/def/namespacelanding__target__estimator.html#a0ebf814a809f42f4e95626f0cc9d08f0" target="_top" xlink:title="Mainloop of daemon. ">
<polygon fill="#ffffff" stroke="#000000" points="362,-50 362,-91 491,-91 491,-50 362,-50"/>
<text text-anchor="start" x="370" y="-79" font-family="Helvetica,sans-Serif" font-size="10.00" fill="#000000">landing_target_estimator</text>
<text text-anchor="start" x="370" y="-68" font-family="Helvetica,sans-Serif" font-size="10.00" fill="#000000">::landing_target_estimator</text>
<text text-anchor="middle" x="426.5" y="-57" font-family="Helvetica,sans-Serif" font-size="10.00" fill="#000000">_thread_main</text>
</a>
</g>
</g>
<!-- Node20&#45;&gt;Node21 -->
<g id="edge2" class="edge">
<title>Node20&#45;&gt;Node21</title>
<path fill="none" stroke="#191970" d="M327.5933,-70.5C338.97,-70.5 350.647,-70.5 361.8092,-70.5"/>
<polygon fill="#191970" stroke="#191970" points="327.2532,-67.0001 317.2531,-70.5 327.2531,-74.0001 327.2532,-67.0001"/>
</g>
<!-- Node22 -->
<g id="node4" class="node">
<title>Node22</title>
<g id="a_node4"><a xlink:href="../../d0/def/namespacelanding__target__estimator.html#aadaacb76f344235d5a1df57481bdc95a" target="_top" xlink:title="Landing target position estimator app start / stop handling function This makes the module accessible...">
<polygon fill="#ffffff" stroke="#000000" points="527,-55.5 527,-85.5 682,-85.5 682,-55.5 527,-55.5"/>
<text text-anchor="start" x="535" y="-73.5" font-family="Helvetica,sans-Serif" font-size="10.00" fill="#000000">landing_target_estimator</text>
<text text-anchor="middle" x="604.5" y="-62.5" font-family="Helvetica,sans-Serif" font-size="10.00" fill="#000000">::landing_target_estimator_main</text>
</a>
</g>
</g>
<!-- Node21&#45;&gt;Node22 -->
<g id="edge3" class="edge">
<title>Node21&#45;&gt;Node22</title>
<path fill="none" stroke="#191970" d="M501.239,-70.5C509.7113,-70.5 518.3607,-70.5 526.8691,-70.5"/>
<polygon fill="#191970" stroke="#191970" points="501.0138,-67.0001 491.0138,-70.5 501.0137,-74.0001 501.0138,-67.0001"/>
</g>
</g>
</svg>
        <g id="navigator" transform="translate(0 0)" fill="#404254">
                <rect fill="#f2f5e9" fill-opacity="0.5" stroke="#606060" stroke-width=".5" x="0" y="0" width="60" height="60"/>
                <use id="zoomplus" xlink:href="#zoomPlus" x="17" y="9" onmousedown="handleZoom(evt,'in')"/>
                <use id="zoomminus" xlink:href="#zoomMin" x="42" y="9" onmousedown="handleZoom(evt,'out')"/>
                <use id="reset" xlink:href="#resetDef" x="30" y="36" onmousedown="handleReset()"/>
                <g id="arrowUp" xlink:href="#dirArrow" transform="translate(30 24)" onmousedown="handlePan(0,-1)">
                  <use xlink:href="#rim" fill="#404040">
                        <set attributeName="fill" to="#808080" begin="arrowUp.mouseover" end="arrowUp.mouseout"/>
                  </use>
                  <path fill="none" stroke="white" stroke-width="1.5" d="M0,-3.0v7 M-2.5,-0.5L0,-3.0L2.5,-0.5"/>
                </g>
                <g id="arrowRight" xlink:href="#dirArrow" transform="rotate(90) translate(36 -43)" onmousedown="handlePan(1,0)">
                  <use xlink:href="#rim" fill="#404040">
                        <set attributeName="fill" to="#808080" begin="arrowRight.mouseover" end="arrowRight.mouseout"/>
                  </use>
                  <path fill="none" stroke="white" stroke-width="1.5" d="M0,-3.0v7 M-2.5,-0.5L0,-3.0L2.5,-0.5"/>
                </g>
                <g id="arrowDown" xlink:href="#dirArrow" transform="rotate(180) translate(-30 -48)" onmousedown="handlePan(0,1)">
                  <use xlink:href="#rim" fill="#404040">
                        <set attributeName="fill" to="#808080" begin="arrowDown.mouseover" end="arrowDown.mouseout"/>
                  </use>
                  <path fill="none" stroke="white" stroke-width="1.5" d="M0,-3.0v7 M-2.5,-0.5L0,-3.0L2.5,-0.5"/>
                </g>
                <g id="arrowLeft" xlink:href="#dirArrow" transform="rotate(270) translate(-36 17)" onmousedown="handlePan(-1,0)">
                  <use xlink:href="#rim" fill="#404040">
                        <set attributeName="fill" to="#808080" begin="arrowLeft.mouseover" end="arrowLeft.mouseout"/>
                  </use>
                  <path fill="none" stroke="white" stroke-width="1.5" d="M0,-3.0v7 M-2.5,-0.5L0,-3.0L2.5,-0.5"/>
                </g>
        </g>
        <svg viewBox="0 0 15 15" width="100%" height="30px" preserveAspectRatio="xMaxYMin meet">
         <g id="arrow_out" transform="scale(0.3 0.3)">
          <a xlink:href="classlanding__target__estimator_1_1_kalman_filter_acfba9f37003af3aa9e9da1d705649940_icgraph_org.svg" target="_base">
           <rect id="button" ry="5" rx="5" y="6" x="6" height="38" width="38"
                fill="#f2f5e9" fill-opacity="0.5" stroke="#606060" stroke-width="1.0"/>
           <path id="arrow"
             d="M 11.500037,31.436501 C 11.940474,20.09759 22.043105,11.32322 32.158766,21.979434 L 37.068811,17.246167 C 37.068811,17.246167 37.088388,32 37.088388,32 L 22.160133,31.978069 C 22.160133,31.978069 26.997745,27.140456 26.997745,27.140456 C 18.528582,18.264221 13.291696,25.230495 11.500037,31.436501 z"
             style="fill:#404040;"/>
          </a>
         </g>
        </svg>
</svg>
