<?xml version="1.0" encoding="UTF-8" standalone="no"?>
<!DOCTYPE svg PUBLIC "-//W3C//DTD SVG 1.1//EN"
 "http://www.w3.org/Graphics/SVG/1.1/DTD/svg11.dtd">
<!-- Generated by graphviz version 2.38.0 (20140413.2041)
 -->
<!-- Title: MavlinkFTP::_workCreateDirectory Pages: 1 -->
<svg width="2130pt" height="827pt"
 viewBox="0.00 0.00 2130.00 827.40" xmlns="http://www.w3.org/2000/svg" xmlns:xlink="http://www.w3.org/1999/xlink">
<g id="graph0" class="graph" transform="scale(1 1) rotate(0) translate(4 823.402)">
<title>MavlinkFTP::_workCreateDirectory</title>
<polygon fill="white" stroke="none" points="-4,4 -4,-823.402 2126,-823.402 2126,4 -4,4"/>
<!-- Node1 -->
<g id="node1" class="node"><title>Node1</title>
<polygon fill="#bfbfbf" stroke="black" points="0,-218.902 0,-237.902 170,-237.902 170,-218.902 0,-218.902"/>
<text text-anchor="middle" x="85" y="-225.902" font-family="Helvetica,sans-Serif" font-size="10.00">MavlinkFTP::_workCreateDirectory</text>
</g>
<!-- Node2 -->
<g id="node2" class="node"><title>Node2</title>
<g id="a_node2"><a xlink:href="../../d4/d6b/class_mavlink_f_t_p.html#aeb04936cf35c580f3066b354b3bc1be2" target="_top" xlink:title="Processes an FTP message. ">
<polygon fill="white" stroke="black" points="206,-213.402 206,-243.402 321,-243.402 321,-213.402 206,-213.402"/>
<text text-anchor="start" x="214" y="-231.402" font-family="Helvetica,sans-Serif" font-size="10.00">MavlinkFTP::_process</text>
<text text-anchor="middle" x="263.5" y="-220.402" font-family="Helvetica,sans-Serif" font-size="10.00">_request</text>
</a>
</g>
</g>
<!-- Node1&#45;&gt;Node2 -->
<g id="edge1" class="edge"><title>Node1&#45;&gt;Node2</title>
<path fill="none" stroke="midnightblue" d="M180.382,-228.402C189.115,-228.402 197.767,-228.402 205.994,-228.402"/>
<polygon fill="midnightblue" stroke="midnightblue" points="180.115,-224.902 170.115,-228.402 180.115,-231.902 180.115,-224.902"/>
</g>
<!-- Node3 -->
<g id="node3" class="node"><title>Node3</title>
<g id="a_node3"><a xlink:href="../../d4/d6b/class_mavlink_f_t_p.html#aafa63423d0f902fe42c7c21e13acb1af" target="_top" xlink:title="Handle possible FTP message. ">
<polygon fill="white" stroke="black" points="357,-213.402 357,-243.402 461,-243.402 461,-213.402 357,-213.402"/>
<text text-anchor="start" x="365" y="-231.402" font-family="Helvetica,sans-Serif" font-size="10.00">MavlinkFTP::handle</text>
<text text-anchor="middle" x="409" y="-220.402" font-family="Helvetica,sans-Serif" font-size="10.00">_message</text>
</a>
</g>
</g>
<!-- Node2&#45;&gt;Node3 -->
<g id="edge2" class="edge"><title>Node2&#45;&gt;Node3</title>
<path fill="none" stroke="midnightblue" d="M331.234,-228.402C339.832,-228.402 348.526,-228.402 356.82,-228.402"/>
<polygon fill="midnightblue" stroke="midnightblue" points="331.215,-224.902 321.215,-228.402 331.215,-231.902 331.215,-224.902"/>
</g>
<!-- Node4 -->
<g id="node4" class="node"><title>Node4</title>
<g id="a_node4"><a xlink:href="../../da/d89/class_mavlink_receiver.html#abf05ea2b60baafd446100f897f9274ab" target="_top" xlink:title="Receive data from UART. ">
<polygon fill="white" stroke="black" points="497,-615.402 497,-645.402 624,-645.402 624,-615.402 497,-615.402"/>
<text text-anchor="start" x="505" y="-633.402" font-family="Helvetica,sans-Serif" font-size="10.00">MavlinkReceiver::receive</text>
<text text-anchor="middle" x="560.5" y="-622.402" font-family="Helvetica,sans-Serif" font-size="10.00">_thread</text>
</a>
</g>
</g>
<!-- Node3&#45;&gt;Node4 -->
<g id="edge3" class="edge"><title>Node3&#45;&gt;Node4</title>
<path fill="none" stroke="midnightblue" d="M419.263,-253.311C447.378,-328.911 531.189,-554.274 553.816,-615.119"/>
<polygon fill="midnightblue" stroke="midnightblue" points="422.444,-251.823 415.678,-243.67 415.883,-254.263 422.444,-251.823"/>
</g>
<!-- Node21 -->
<g id="node21" class="node"><title>Node21</title>
<g id="a_node21"><a xlink:href="../../df/dcb/class_mavlink_ftp_test.html#aaf9c9a382d34831145791e51bdb33e02" target="_top" xlink:title="Tests for correct reponse to a payload which an invalid data size field. ">
<polygon fill="white" stroke="black" points="505,-49.4018 505,-79.4018 616,-79.4018 616,-49.4018 505,-49.4018"/>
<text text-anchor="start" x="513" y="-67.4018" font-family="Helvetica,sans-Serif" font-size="10.00">MavlinkFtpTest::_bad</text>
<text text-anchor="middle" x="560.5" y="-56.4018" font-family="Helvetica,sans-Serif" font-size="10.00">_datasize_test</text>
</a>
</g>
</g>
<!-- Node3&#45;&gt;Node21 -->
<g id="edge24" class="edge"><title>Node3&#45;&gt;Node21</title>
<path fill="none" stroke="midnightblue" d="M430.712,-205.681C461.725,-171.66 519.397,-108.395 545.737,-79.5"/>
<polygon fill="midnightblue" stroke="midnightblue" points="427.947,-203.519 423.797,-213.267 433.12,-208.235 427.947,-203.519"/>
</g>
<!-- Node23 -->
<g id="node23" class="node"><title>Node23</title>
<g id="a_node23"><a xlink:href="../../df/dcb/class_mavlink_ftp_test.html#a04b5e3a63b5b5f31ac55c64f332c9bb7" target="_top" xlink:title="Tests for correct reponse to a Read command on an open session. ">
<polygon fill="white" stroke="black" points="684,-30.9018 684,-49.9018 823,-49.9018 823,-30.9018 684,-30.9018"/>
<text text-anchor="middle" x="753.5" y="-37.9018" font-family="Helvetica,sans-Serif" font-size="10.00">MavlinkFtpTest::_burst_test</text>
</a>
</g>
</g>
<!-- Node3&#45;&gt;Node23 -->
<g id="edge26" class="edge"><title>Node3&#45;&gt;Node23</title>
<path fill="none" stroke="midnightblue" d="M443.521,-207.909C486.24,-181.469 561.983,-133.498 624,-88.4018 640.617,-76.3187 641.414,-68.1596 660,-59.4018 668.305,-55.4884 677.403,-52.3779 686.549,-49.9064"/>
<polygon fill="midnightblue" stroke="midnightblue" points="441.594,-204.985 434.923,-213.216 445.271,-210.942 441.594,-204.985"/>
</g>
<!-- Node24 -->
<g id="node24" class="node"><title>Node24</title>
<g id="a_node24"><a xlink:href="../../df/dcb/class_mavlink_ftp_test.html#a915076c4c29ebb5d433b104fa44ca112" target="_top" xlink:title="Sends the specified FTP message to the server and returns response. ">
<polygon fill="white" stroke="black" points="502.5,-255.402 502.5,-285.402 618.5,-285.402 618.5,-255.402 502.5,-255.402"/>
<text text-anchor="start" x="510.5" y="-273.402" font-family="Helvetica,sans-Serif" font-size="10.00">MavlinkFtpTest::_send</text>
<text text-anchor="middle" x="560.5" y="-262.402" font-family="Helvetica,sans-Serif" font-size="10.00">_receive_msg</text>
</a>
</g>
</g>
<!-- Node3&#45;&gt;Node24 -->
<g id="edge28" class="edge"><title>Node3&#45;&gt;Node24</title>
<path fill="none" stroke="midnightblue" d="M470.687,-245.451C482.346,-248.726 494.479,-252.135 505.894,-255.342"/>
<polygon fill="midnightblue" stroke="midnightblue" points="471.605,-242.074 461.031,-242.738 469.712,-248.813 471.605,-242.074"/>
</g>
<!-- Node5 -->
<g id="node5" class="node"><title>Node5</title>
<g id="a_node5"><a xlink:href="../../da/d89/class_mavlink_receiver.html#a4e6d064186fe746bc3934959a991a908" target="_top" xlink:title="MavlinkReceiver::start\l_helper">
<polygon fill="white" stroke="black" points="696,-641.402 696,-671.402 811,-671.402 811,-641.402 696,-641.402"/>
<text text-anchor="start" x="704" y="-659.402" font-family="Helvetica,sans-Serif" font-size="10.00">MavlinkReceiver::start</text>
<text text-anchor="middle" x="753.5" y="-648.402" font-family="Helvetica,sans-Serif" font-size="10.00">_helper</text>
</a>
</g>
</g>
<!-- Node4&#45;&gt;Node5 -->
<g id="edge4" class="edge"><title>Node4&#45;&gt;Node5</title>
<path fill="none" stroke="midnightblue" d="M633.974,-640.267C654.492,-643.06 676.518,-646.059 695.949,-648.704"/>
<polygon fill="midnightblue" stroke="midnightblue" points="634.421,-636.796 624.041,-638.915 633.477,-643.732 634.421,-636.796"/>
</g>
<!-- Node6 -->
<g id="node6" class="node"><title>Node6</title>
<g id="a_node6"><a xlink:href="../../da/d89/class_mavlink_receiver.html#aae6564d759626eeebeb19a9dfbdcaf6d" target="_top" xlink:title="Start the receiver thread. ">
<polygon fill="white" stroke="black" points="883,-649.402 883,-679.402 1010,-679.402 1010,-649.402 883,-649.402"/>
<text text-anchor="start" x="891" y="-667.402" font-family="Helvetica,sans-Serif" font-size="10.00">MavlinkReceiver::receive</text>
<text text-anchor="middle" x="946.5" y="-656.402" font-family="Helvetica,sans-Serif" font-size="10.00">_start</text>
</a>
</g>
</g>
<!-- Node5&#45;&gt;Node6 -->
<g id="edge5" class="edge"><title>Node5&#45;&gt;Node6</title>
<path fill="none" stroke="midnightblue" d="M821.283,-659.199C841.251,-660.035 863.065,-660.949 882.763,-661.774"/>
<polygon fill="midnightblue" stroke="midnightblue" points="821.169,-655.691 811.031,-658.77 820.876,-662.685 821.169,-655.691"/>
</g>
<!-- Node7 -->
<g id="node7" class="node"><title>Node7</title>
<g id="a_node7"><a xlink:href="../../df/d1f/class_mavlink.html#a2325401a575b272fc1474d502388241f" target="_top" xlink:title="Main mavlink task. ">
<polygon fill="white" stroke="black" points="1046,-668.902 1046,-687.902 1147,-687.902 1147,-668.902 1046,-668.902"/>
<text text-anchor="middle" x="1096.5" y="-675.902" font-family="Helvetica,sans-Serif" font-size="10.00">Mavlink::task_main</text>
</a>
</g>
</g>
<!-- Node6&#45;&gt;Node7 -->
<g id="edge6" class="edge"><title>Node6&#45;&gt;Node7</title>
<path fill="none" stroke="midnightblue" d="M1020.3,-671.288C1028.88,-672.1 1037.49,-672.914 1045.65,-673.686"/>
<polygon fill="midnightblue" stroke="midnightblue" points="1020.55,-667.796 1010.27,-670.339 1019.89,-674.765 1020.55,-667.796"/>
</g>
<!-- Node8 -->
<g id="node8" class="node"><title>Node8</title>
<g id="a_node8"><a xlink:href="../../df/d1f/class_mavlink.html#aad2c17a259e6cfbfe20113c8da8f6cae" target="_top" xlink:title="Mavlink::start_helper">
<polygon fill="white" stroke="black" points="1183,-696.902 1183,-715.902 1290,-715.902 1290,-696.902 1183,-696.902"/>
<text text-anchor="middle" x="1236.5" y="-703.902" font-family="Helvetica,sans-Serif" font-size="10.00">Mavlink::start_helper</text>
</a>
</g>
</g>
<!-- Node7&#45;&gt;Node8 -->
<g id="edge7" class="edge"><title>Node7&#45;&gt;Node8</title>
<path fill="none" stroke="midnightblue" d="M1154.45,-689.956C1165.81,-692.262 1177.63,-694.659 1188.61,-696.887"/>
<polygon fill="midnightblue" stroke="midnightblue" points="1155.1,-686.518 1144.61,-687.96 1153.71,-693.378 1155.1,-686.518"/>
</g>
<!-- Node9 -->
<g id="node9" class="node"><title>Node9</title>
<g id="a_node9"><a xlink:href="../../df/d1f/class_mavlink.html#af06ea4dffa8d7b911690a99456a4814a" target="_top" xlink:title="Mavlink::broadcast\l_enabled">
<polygon fill="white" stroke="black" points="1326,-735.402 1326,-765.402 1425,-765.402 1425,-735.402 1326,-735.402"/>
<text text-anchor="start" x="1334" y="-753.402" font-family="Helvetica,sans-Serif" font-size="10.00">Mavlink::broadcast</text>
<text text-anchor="middle" x="1375.5" y="-742.402" font-family="Helvetica,sans-Serif" font-size="10.00">_enabled</text>
</a>
</g>
</g>
<!-- Node8&#45;&gt;Node9 -->
<g id="edge8" class="edge"><title>Node8&#45;&gt;Node9</title>
<path fill="none" stroke="midnightblue" d="M1277.18,-719.145C1292.94,-724.207 1311.19,-730.067 1327.59,-735.336"/>
<polygon fill="midnightblue" stroke="midnightblue" points="1277.82,-715.675 1267.23,-715.949 1275.68,-722.339 1277.82,-715.675"/>
</g>
<!-- Node20 -->
<g id="node20" class="node"><title>Node20</title>
<g id="a_node20"><a xlink:href="../../df/d1f/class_mavlink.html#a3f96c3503833a477332c8584bb8fbc67" target="_top" xlink:title="Start the mavlink task. ">
<polygon fill="white" stroke="black" points="1337.5,-696.902 1337.5,-715.902 1413.5,-715.902 1413.5,-696.902 1337.5,-696.902"/>
<text text-anchor="middle" x="1375.5" y="-703.902" font-family="Helvetica,sans-Serif" font-size="10.00">Mavlink::start</text>
</a>
</g>
</g>
<!-- Node8&#45;&gt;Node20 -->
<g id="edge22" class="edge"><title>Node8&#45;&gt;Node20</title>
<path fill="none" stroke="midnightblue" d="M1300.13,-706.402C1312.79,-706.402 1325.71,-706.402 1337.15,-706.402"/>
<polygon fill="midnightblue" stroke="midnightblue" points="1300.08,-702.902 1290.08,-706.402 1300.08,-709.902 1300.08,-702.902"/>
</g>
<!-- Node10 -->
<g id="node10" class="node"><title>Node10</title>
<g id="a_node10"><a xlink:href="../../df/d1f/class_mavlink.html#aacd190d885c0a9f521f0d7d0673f2b6f" target="_top" xlink:title="Flush the transmit buffer and send one MAVLink packet. ">
<polygon fill="white" stroke="black" points="1474.5,-664.902 1474.5,-683.902 1586.5,-683.902 1586.5,-664.902 1474.5,-664.902"/>
<text text-anchor="middle" x="1530.5" y="-671.902" font-family="Helvetica,sans-Serif" font-size="10.00">Mavlink::send_packet</text>
</a>
</g>
</g>
<!-- Node9&#45;&gt;Node10 -->
<g id="edge9" class="edge"><title>Node9&#45;&gt;Node10</title>
<path fill="none" stroke="midnightblue" d="M1415.74,-730.911C1445.93,-715.915 1486.36,-695.83 1510.01,-684.085"/>
<polygon fill="midnightblue" stroke="midnightblue" points="1414.13,-727.803 1406.73,-735.387 1417.24,-734.072 1414.13,-727.803"/>
</g>
<!-- Node15 -->
<g id="node15" class="node"><title>Node15</title>
<g id="a_node15"><a xlink:href="../../df/d1f/class_mavlink.html#afcac36b1b581d47b7181374d35edbd54" target="_top" xlink:title="Set the boot complete flag on all instances. ">
<polygon fill="white" stroke="black" points="1461,-740.902 1461,-759.902 1600,-759.902 1600,-740.902 1461,-740.902"/>
<text text-anchor="middle" x="1530.5" y="-747.902" font-family="Helvetica,sans-Serif" font-size="10.00">Mavlink::set_boot_complete</text>
</a>
</g>
</g>
<!-- Node9&#45;&gt;Node15 -->
<g id="edge15" class="edge"><title>Node9&#45;&gt;Node15</title>
<path fill="none" stroke="midnightblue" d="M1435.59,-743.81C1443.84,-743.658 1452.37,-743.615 1460.78,-743.683"/>
<polygon fill="midnightblue" stroke="midnightblue" points="1435.24,-740.317 1425.33,-744.061 1435.41,-747.315 1435.24,-740.317"/>
</g>
<!-- Node11 -->
<g id="node11" class="node"><title>Node11</title>
<g id="a_node11"><a xlink:href="../../df/d1f/class_mavlink.html#a3aa1fb0ca3f0d77b10a8954618a51abb" target="_top" xlink:title="Get the manual input generation mode. ">
<polygon fill="white" stroke="black" points="1644,-634.402 1644,-664.402 1766,-664.402 1766,-634.402 1644,-634.402"/>
<text text-anchor="start" x="1652" y="-652.402" font-family="Helvetica,sans-Serif" font-size="10.00">Mavlink::get_manual</text>
<text text-anchor="middle" x="1705" y="-641.402" font-family="Helvetica,sans-Serif" font-size="10.00">_input_mode_generation</text>
</a>
</g>
</g>
<!-- Node10&#45;&gt;Node11 -->
<g id="edge10" class="edge"><title>Node10&#45;&gt;Node11</title>
<path fill="none" stroke="midnightblue" d="M1596.57,-664.971C1612.07,-662.726 1628.53,-660.339 1643.8,-658.127"/>
<polygon fill="midnightblue" stroke="midnightblue" points="1595.95,-661.525 1586.55,-666.423 1596.95,-668.452 1595.95,-661.525"/>
</g>
<!-- Node14 -->
<g id="node14" class="node"><title>Node14</title>
<g id="a_node14"><a xlink:href="../../de/d24/mavlink__main_8cpp.html#a646c2f3486de3d8574422fc4ef1940a2" target="_top" xlink:title="mavlink_end_uart_send">
<polygon fill="white" stroke="black" points="1645.5,-683.902 1645.5,-702.902 1764.5,-702.902 1764.5,-683.902 1645.5,-683.902"/>
<text text-anchor="middle" x="1705" y="-690.902" font-family="Helvetica,sans-Serif" font-size="10.00">mavlink_end_uart_send</text>
</a>
</g>
</g>
<!-- Node10&#45;&gt;Node14 -->
<g id="edge14" class="edge"><title>Node10&#45;&gt;Node14</title>
<path fill="none" stroke="midnightblue" d="M1596.85,-681.6C1612.77,-683.354 1629.71,-685.219 1645.3,-686.936"/>
<polygon fill="midnightblue" stroke="midnightblue" points="1596.88,-678.082 1586.55,-680.466 1596.11,-685.04 1596.88,-678.082"/>
</g>
<!-- Node12 -->
<g id="node12" class="node"><title>Node12</title>
<g id="a_node12"><a xlink:href="../../da/d89/class_mavlink_receiver.html#af99bf01b6ae13dab05c36c0125e179bc" target="_top" xlink:title="MavlinkReceiver::handle\l_message_manual_control">
<polygon fill="white" stroke="black" points="1812.5,-634.402 1812.5,-664.402 1945.5,-664.402 1945.5,-634.402 1812.5,-634.402"/>
<text text-anchor="start" x="1820.5" y="-652.402" font-family="Helvetica,sans-Serif" font-size="10.00">MavlinkReceiver::handle</text>
<text text-anchor="middle" x="1879" y="-641.402" font-family="Helvetica,sans-Serif" font-size="10.00">_message_manual_control</text>
</a>
</g>
</g>
<!-- Node11&#45;&gt;Node12 -->
<g id="edge11" class="edge"><title>Node11&#45;&gt;Node12</title>
<path fill="none" stroke="midnightblue" d="M1776.45,-649.402C1788.31,-649.402 1800.58,-649.402 1812.31,-649.402"/>
<polygon fill="midnightblue" stroke="midnightblue" points="1776.16,-645.902 1766.16,-649.402 1776.16,-652.902 1776.16,-645.902"/>
</g>
<!-- Node13 -->
<g id="node13" class="node"><title>Node13</title>
<g id="a_node13"><a xlink:href="../../da/d89/class_mavlink_receiver.html#ac939c806679dc4278968b1d3e865cc72" target="_top" xlink:title="MavlinkReceiver::handle\l_message">
<polygon fill="white" stroke="black" points="1991,-612.402 1991,-642.402 2115,-642.402 2115,-612.402 1991,-612.402"/>
<text text-anchor="start" x="1999" y="-630.402" font-family="Helvetica,sans-Serif" font-size="10.00">MavlinkReceiver::handle</text>
<text text-anchor="middle" x="2053" y="-619.402" font-family="Helvetica,sans-Serif" font-size="10.00">_message</text>
</a>
</g>
</g>
<!-- Node12&#45;&gt;Node13 -->
<g id="edge12" class="edge"><title>Node12&#45;&gt;Node13</title>
<path fill="none" stroke="midnightblue" d="M1955.76,-639.712C1967.52,-638.208 1979.53,-636.671 1990.91,-635.216"/>
<polygon fill="midnightblue" stroke="midnightblue" points="1954.99,-636.281 1945.52,-641.022 1955.88,-643.225 1954.99,-636.281"/>
</g>
<!-- Node13&#45;&gt;Node4 -->
<g id="edge13" class="edge"><title>Node13&#45;&gt;Node4</title>
<path fill="none" stroke="midnightblue" d="M1980.81,-620.225C1910.91,-613.805 1801.23,-605.402 1706,-605.402 945.5,-605.402 945.5,-605.402 945.5,-605.402 832.094,-605.402 700.245,-616.394 624.275,-623.801"/>
<polygon fill="midnightblue" stroke="midnightblue" points="1980.54,-623.715 1990.82,-621.156 1981.19,-616.745 1980.54,-623.715"/>
</g>
<!-- Node15&#45;&gt;Node9 -->
<g id="edge16" class="edge"><title>Node15&#45;&gt;Node9</title>
<path fill="none" stroke="midnightblue" d="M1450.66,-757.149C1442.03,-757.128 1433.44,-756.993 1425.33,-756.743"/>
<polygon fill="midnightblue" stroke="midnightblue" points="1450.79,-760.649 1460.78,-757.121 1450.77,-753.649 1450.79,-760.649"/>
</g>
<!-- Node16 -->
<g id="node16" class="node"><title>Node16</title>
<g id="a_node16"><a xlink:href="../../de/d24/mavlink__main_8cpp.html#ab81e9b009119f143f3b54a1390b92427" target="_top" xlink:title="mavlink app start / stop handling function ">
<polygon fill="white" stroke="black" points="1666.5,-721.902 1666.5,-740.902 1743.5,-740.902 1743.5,-721.902 1666.5,-721.902"/>
<text text-anchor="middle" x="1705" y="-728.902" font-family="Helvetica,sans-Serif" font-size="10.00">mavlink_main</text>
</a>
</g>
</g>
<!-- Node15&#45;&gt;Node16 -->
<g id="edge17" class="edge"><title>Node15&#45;&gt;Node16</title>
<path fill="none" stroke="midnightblue" d="M1610.3,-741.722C1629.81,-739.574 1649.82,-737.369 1666.32,-735.552"/>
<polygon fill="midnightblue" stroke="midnightblue" points="1609.73,-738.264 1600.17,-742.838 1610.5,-745.222 1609.73,-738.264"/>
</g>
<!-- Node17 -->
<g id="node17" class="node"><title>Node17</title>
<g id="a_node17"><a xlink:href="../../df/d61/class_mavlink_parameters_manager.html#acd8734b77582ad7626f5230c1707e04c" target="_top" xlink:title="send a single param if a PARAM_REQUEST_LIST is in progress ">
<polygon fill="white" stroke="black" points="1636,-760.402 1636,-790.402 1774,-790.402 1774,-760.402 1636,-760.402"/>
<text text-anchor="start" x="1644" y="-778.402" font-family="Helvetica,sans-Serif" font-size="10.00">MavlinkParametersManager</text>
<text text-anchor="middle" x="1705" y="-767.402" font-family="Helvetica,sans-Serif" font-size="10.00">::send_one</text>
</a>
</g>
</g>
<!-- Node15&#45;&gt;Node17 -->
<g id="edge18" class="edge"><title>Node15&#45;&gt;Node17</title>
<path fill="none" stroke="midnightblue" d="M1607.11,-761.359C1616.69,-762.748 1626.44,-764.162 1635.9,-765.532"/>
<polygon fill="midnightblue" stroke="midnightblue" points="1607.61,-757.895 1597.21,-759.925 1606.6,-764.823 1607.61,-757.895"/>
</g>
<!-- Node18 -->
<g id="node18" class="node"><title>Node18</title>
<g id="a_node18"><a xlink:href="../../df/d61/class_mavlink_parameters_manager.html#a3a6dff51ef5aba4f3dda19610510a45d" target="_top" xlink:title="Handle any open param send transfer. ">
<polygon fill="white" stroke="black" points="1810,-760.402 1810,-790.402 1948,-790.402 1948,-760.402 1810,-760.402"/>
<text text-anchor="start" x="1818" y="-778.402" font-family="Helvetica,sans-Serif" font-size="10.00">MavlinkParametersManager</text>
<text text-anchor="middle" x="1879" y="-767.402" font-family="Helvetica,sans-Serif" font-size="10.00">::send_params</text>
</a>
</g>
</g>
<!-- Node17&#45;&gt;Node18 -->
<g id="edge19" class="edge"><title>Node17&#45;&gt;Node18</title>
<path fill="none" stroke="midnightblue" d="M1784.64,-775.402C1793.03,-775.402 1801.51,-775.402 1809.76,-775.402"/>
<polygon fill="midnightblue" stroke="midnightblue" points="1784.47,-771.902 1774.47,-775.402 1784.47,-778.902 1784.47,-771.902"/>
</g>
<!-- Node19 -->
<g id="node19" class="node"><title>Node19</title>
<g id="a_node19"><a xlink:href="../../df/d61/class_mavlink_parameters_manager.html#adbcd587c4ec1c0b94fe259047f8ec82e" target="_top" xlink:title="Handle sending of messages. ">
<polygon fill="white" stroke="black" points="1984,-782.402 1984,-812.402 2122,-812.402 2122,-782.402 1984,-782.402"/>
<text text-anchor="start" x="1992" y="-800.402" font-family="Helvetica,sans-Serif" font-size="10.00">MavlinkParametersManager</text>
<text text-anchor="middle" x="2053" y="-789.402" font-family="Helvetica,sans-Serif" font-size="10.00">::send</text>
</a>
</g>
</g>
<!-- Node18&#45;&gt;Node19 -->
<g id="edge20" class="edge"><title>Node18&#45;&gt;Node19</title>
<path fill="none" stroke="midnightblue" d="M1958.64,-785.46C1967.03,-786.533 1975.51,-787.618 1983.76,-788.674"/>
<polygon fill="midnightblue" stroke="midnightblue" points="1958.84,-781.957 1948.47,-784.16 1957.95,-788.901 1958.84,-781.957"/>
</g>
<!-- Node19&#45;&gt;Node4 -->
<g id="edge21" class="edge"><title>Node19&#45;&gt;Node4</title>
<path fill="none" stroke="midnightblue" d="M1973.73,-805.223C1903.66,-811.546 1798.08,-819.402 1706,-819.402 945.5,-819.402 945.5,-819.402 945.5,-819.402 788.347,-819.402 628.762,-690.398 578.029,-645.549"/>
<polygon fill="midnightblue" stroke="midnightblue" points="1974.17,-808.698 1983.81,-804.302 1973.53,-801.727 1974.17,-808.698"/>
</g>
<!-- Node20&#45;&gt;Node16 -->
<g id="edge23" class="edge"><title>Node20&#45;&gt;Node16</title>
<path fill="none" stroke="midnightblue" d="M1423.8,-710.013C1489.3,-715.013 1606.31,-723.944 1666.28,-728.523"/>
<polygon fill="midnightblue" stroke="midnightblue" points="1423.99,-706.517 1413.75,-709.245 1423.45,-713.496 1423.99,-706.517"/>
</g>
<!-- Node22 -->
<g id="node22" class="node"><title>Node22</title>
<g id="a_node22"><a xlink:href="../../df/dcb/class_mavlink_ftp_test.html#a74480ea701868cee4c374fb8bfd1791b" target="_top" xlink:title="Runs all the unit tests. ">
<polygon fill="white" stroke="black" points="894.5,-189.402 894.5,-219.402 998.5,-219.402 998.5,-189.402 894.5,-189.402"/>
<text text-anchor="start" x="902.5" y="-207.402" font-family="Helvetica,sans-Serif" font-size="10.00">MavlinkFtpTest::run</text>
<text text-anchor="middle" x="946.5" y="-196.402" font-family="Helvetica,sans-Serif" font-size="10.00">_tests</text>
</a>
</g>
</g>
<!-- Node21&#45;&gt;Node22 -->
<g id="edge25" class="edge"><title>Node21&#45;&gt;Node22</title>
<path fill="none" stroke="midnightblue" d="M597.973,-44.7815C655.256,-16.9017 767.922,25.8397 847,-21.4018 910.033,-59.058 935.096,-152.485 942.724,-189.22"/>
<polygon fill="midnightblue" stroke="midnightblue" points="596.328,-41.6907 588.937,-49.2814 599.449,-47.9568 596.328,-41.6907"/>
</g>
<!-- Node23&#45;&gt;Node22 -->
<g id="edge27" class="edge"><title>Node23&#45;&gt;Node22</title>
<path fill="none" stroke="midnightblue" d="M832.865,-51.8393C837.83,-53.9638 842.595,-56.4633 847,-59.4018 896.366,-92.3364 927.677,-159.228 939.796,-189.237"/>
<polygon fill="midnightblue" stroke="midnightblue" points="833.705,-48.4172 823.112,-48.1993 831.257,-54.9753 833.705,-48.4172"/>
</g>
<!-- Node24&#45;&gt;Node23 -->
<g id="edge43" class="edge"><title>Node24&#45;&gt;Node23</title>
<path fill="none" stroke="midnightblue" d="M586.749,-248.288C599.638,-235.73 614.551,-219.025 624,-201.402 654.765,-144.021 612.922,-104.376 660,-59.4018 666.757,-52.9468 675.091,-48.4243 683.964,-45.2938"/>
<polygon fill="midnightblue" stroke="midnightblue" points="584.319,-245.769 579.45,-255.178 589.124,-250.859 584.319,-245.769"/>
</g>
<!-- Node25 -->
<g id="node25" class="node"><title>Node25</title>
<g id="a_node25"><a xlink:href="../../df/dcb/class_mavlink_ftp_test.html#a57763e02bcc83361dd4b9d0fcaa2d411" target="_top" xlink:title="Tests for correct behavior of an Ack response. ">
<polygon fill="white" stroke="black" points="687,-118.902 687,-137.902 820,-137.902 820,-118.902 687,-118.902"/>
<text text-anchor="middle" x="753.5" y="-125.902" font-family="Helvetica,sans-Serif" font-size="10.00">MavlinkFtpTest::_ack_test</text>
</a>
</g>
</g>
<!-- Node24&#45;&gt;Node25 -->
<g id="edge29" class="edge"><title>Node24&#45;&gt;Node25</title>
<path fill="none" stroke="midnightblue" d="M583.242,-248.109C595.683,-234.943 611.293,-217.707 624,-201.402 641.731,-178.65 636.075,-163.514 660,-147.402 668.023,-141.999 677.261,-138.077 686.728,-135.241"/>
<polygon fill="midnightblue" stroke="midnightblue" points="580.7,-245.702 576.329,-255.353 585.765,-250.535 580.7,-245.702"/>
</g>
<!-- Node26 -->
<g id="node26" class="node"><title>Node26</title>
<g id="a_node26"><a xlink:href="../../df/dcb/class_mavlink_ftp_test.html#a29e4f7f042236e2bf3c68ab7b811a414" target="_top" xlink:title="Tests for correct response to an invalid opcpde. ">
<polygon fill="white" stroke="black" points="698,-69.4018 698,-99.4018 809,-99.4018 809,-69.4018 698,-69.4018"/>
<text text-anchor="start" x="706" y="-87.4018" font-family="Helvetica,sans-Serif" font-size="10.00">MavlinkFtpTest::_bad</text>
<text text-anchor="middle" x="753.5" y="-76.4018" font-family="Helvetica,sans-Serif" font-size="10.00">_opcode_test</text>
</a>
</g>
</g>
<!-- Node24&#45;&gt;Node26 -->
<g id="edge31" class="edge"><title>Node24&#45;&gt;Node26</title>
<path fill="none" stroke="midnightblue" d="M585.373,-248.302C598.117,-235.537 613.329,-218.632 624,-201.402 647.118,-164.073 627.307,-138.712 660,-109.402 670.528,-99.963 684.263,-94.036 697.914,-90.3294"/>
<polygon fill="midnightblue" stroke="midnightblue" points="582.909,-245.816 578.207,-255.31 587.803,-250.82 582.909,-245.816"/>
</g>
<!-- Node27 -->
<g id="node27" class="node"><title>Node27</title>
<g id="a_node27"><a xlink:href="../../df/dcb/class_mavlink_ftp_test.html#ae2b0c7ae31c81ddebef9631065ff4a4f" target="_top" xlink:title="MavlinkFtpTest::_list_test">
<polygon fill="white" stroke="black" points="688.5,-458.902 688.5,-477.902 818.5,-477.902 818.5,-458.902 688.5,-458.902"/>
<text text-anchor="middle" x="753.5" y="-465.902" font-family="Helvetica,sans-Serif" font-size="10.00">MavlinkFtpTest::_list_test</text>
</a>
</g>
</g>
<!-- Node24&#45;&gt;Node27 -->
<g id="edge33" class="edge"><title>Node24&#45;&gt;Node27</title>
<path fill="none" stroke="midnightblue" d="M567.916,-295.356C579.388,-334.674 607.298,-410.557 660,-449.402 668.314,-455.53 678.138,-459.792 688.225,-462.736"/>
<polygon fill="midnightblue" stroke="midnightblue" points="571.23,-294.21 565.169,-285.52 564.488,-296.093 571.23,-294.21"/>
</g>
<!-- Node28 -->
<g id="node28" class="node"><title>Node28</title>
<g id="a_node28"><a xlink:href="../../df/dcb/class_mavlink_ftp_test.html#a219f618189d98b00bc9ac4932cdbfcff" target="_top" xlink:title="Tests for correct response to a List command on a valid directory, but with an offset that is beyond ...">
<polygon fill="white" stroke="black" points="699.5,-409.402 699.5,-439.402 807.5,-439.402 807.5,-409.402 699.5,-409.402"/>
<text text-anchor="start" x="707.5" y="-427.402" font-family="Helvetica,sans-Serif" font-size="10.00">MavlinkFtpTest::_list</text>
<text text-anchor="middle" x="753.5" y="-416.402" font-family="Helvetica,sans-Serif" font-size="10.00">_eof_test</text>
</a>
</g>
</g>
<!-- Node24&#45;&gt;Node28 -->
<g id="edge34" class="edge"><title>Node24&#45;&gt;Node28</title>
<path fill="none" stroke="midnightblue" d="M573.718,-294.891C589.592,-324.176 620.066,-372.588 660,-399.402 671.601,-407.191 685.548,-412.561 699.052,-416.259"/>
<polygon fill="midnightblue" stroke="midnightblue" points="576.661,-292.967 568.902,-285.752 570.468,-296.231 576.661,-292.967"/>
</g>
<!-- Node29 -->
<g id="node29" class="node"><title>Node29</title>
<g id="a_node29"><a xlink:href="../../df/dcb/class_mavlink_ftp_test.html#a221e5c40386cf19dd01490667c578f5c" target="_top" xlink:title="Tests for correct response to an Open command on a file which does not exist. ">
<polygon fill="white" stroke="black" points="695.5,-546.402 695.5,-576.402 811.5,-576.402 811.5,-546.402 695.5,-546.402"/>
<text text-anchor="start" x="703.5" y="-564.402" font-family="Helvetica,sans-Serif" font-size="10.00">MavlinkFtpTest::_open</text>
<text text-anchor="middle" x="753.5" y="-553.402" font-family="Helvetica,sans-Serif" font-size="10.00">_badfile_test</text>
</a>
</g>
</g>
<!-- Node24&#45;&gt;Node29 -->
<g id="edge35" class="edge"><title>Node24&#45;&gt;Node29</title>
<path fill="none" stroke="midnightblue" d="M563.25,-295.635C568.318,-348.616 587.669,-471.936 660,-537.402 669.841,-546.308 682.564,-551.992 695.407,-555.597"/>
<polygon fill="midnightblue" stroke="midnightblue" points="566.717,-295.106 562.371,-285.444 559.743,-295.707 566.717,-295.106"/>
</g>
<!-- Node30 -->
<g id="node30" class="node"><title>Node30</title>
<g id="a_node30"><a xlink:href="../../df/dcb/class_mavlink_ftp_test.html#a11a6cc55e252ad3a559b3eb9657979b2" target="_top" xlink:title="Tests for correct reponse to an Open command on a file, followed by Terminate. ">
<polygon fill="white" stroke="black" points="695.5,-497.402 695.5,-527.402 811.5,-527.402 811.5,-497.402 695.5,-497.402"/>
<text text-anchor="start" x="703.5" y="-515.402" font-family="Helvetica,sans-Serif" font-size="10.00">MavlinkFtpTest::_open</text>
<text text-anchor="middle" x="753.5" y="-504.402" font-family="Helvetica,sans-Serif" font-size="10.00">_terminate_test</text>
</a>
</g>
</g>
<!-- Node24&#45;&gt;Node30 -->
<g id="edge37" class="edge"><title>Node24&#45;&gt;Node30</title>
<path fill="none" stroke="midnightblue" d="M565.72,-295.576C574.666,-340.913 599.872,-436.31 660,-487.402 670.015,-495.911 682.657,-501.55 695.352,-505.279"/>
<polygon fill="midnightblue" stroke="midnightblue" points="569.149,-294.873 563.872,-285.686 562.268,-296.159 569.149,-294.873"/>
</g>
<!-- Node31 -->
<g id="node31" class="node"><title>Node31</title>
<g id="a_node31"><a xlink:href="../../df/dcb/class_mavlink_ftp_test.html#a8929bf3bafd58a2a928096b55e3157e9" target="_top" xlink:title="Tests for correct reponse to a Terminate command on an invalid session. ">
<polygon fill="white" stroke="black" points="685.5,-321.402 685.5,-351.402 821.5,-351.402 821.5,-321.402 685.5,-321.402"/>
<text text-anchor="start" x="693.5" y="-339.402" font-family="Helvetica,sans-Serif" font-size="10.00">MavlinkFtpTest::_terminate</text>
<text text-anchor="middle" x="753.5" y="-328.402" font-family="Helvetica,sans-Serif" font-size="10.00">_badsession_test</text>
</a>
</g>
</g>
<!-- Node24&#45;&gt;Node31 -->
<g id="edge39" class="edge"><title>Node24&#45;&gt;Node31</title>
<path fill="none" stroke="midnightblue" d="M604.034,-289.532C621.221,-296.886 641.365,-305.036 660,-311.402 670.39,-314.951 681.57,-318.332 692.444,-321.396"/>
<polygon fill="midnightblue" stroke="midnightblue" points="605.386,-286.304 594.818,-285.545 602.606,-292.728 605.386,-286.304"/>
</g>
<!-- Node32 -->
<g id="node32" class="node"><title>Node32</title>
<g id="a_node32"><a xlink:href="../../df/dcb/class_mavlink_ftp_test.html#ac87affe2ba5ecbeebf5b3236f204b053" target="_top" xlink:title="Tests for correct reponse to a Read command on an open session. ">
<polygon fill="white" stroke="black" points="685.5,-282.902 685.5,-301.902 821.5,-301.902 821.5,-282.902 685.5,-282.902"/>
<text text-anchor="middle" x="753.5" y="-289.902" font-family="Helvetica,sans-Serif" font-size="10.00">MavlinkFtpTest::_read_test</text>
</a>
</g>
</g>
<!-- Node24&#45;&gt;Node32 -->
<g id="edge41" class="edge"><title>Node24&#45;&gt;Node32</title>
<path fill="none" stroke="midnightblue" d="M628.588,-278.129C646.982,-280.248 666.923,-282.545 685.322,-284.664"/>
<polygon fill="midnightblue" stroke="midnightblue" points="628.882,-274.64 618.548,-276.973 628.081,-281.594 628.882,-274.64"/>
</g>
<!-- Node33 -->
<g id="node33" class="node"><title>Node33</title>
<g id="a_node33"><a xlink:href="../../df/dcb/class_mavlink_ftp_test.html#a0a1d262a82c72da06f5bb072dab0ff3d" target="_top" xlink:title="Tests for correct reponse to a Read command on an invalid session. ">
<polygon fill="white" stroke="black" points="696.5,-233.402 696.5,-263.402 810.5,-263.402 810.5,-233.402 696.5,-233.402"/>
<text text-anchor="start" x="704.5" y="-251.402" font-family="Helvetica,sans-Serif" font-size="10.00">MavlinkFtpTest::_read</text>
<text text-anchor="middle" x="753.5" y="-240.402" font-family="Helvetica,sans-Serif" font-size="10.00">_badsession_test</text>
</a>
</g>
</g>
<!-- Node24&#45;&gt;Node33 -->
<g id="edge44" class="edge"><title>Node24&#45;&gt;Node33</title>
<path fill="none" stroke="midnightblue" d="M628.556,-262.678C650.725,-260.125 675.144,-257.312 696.404,-254.863"/>
<polygon fill="midnightblue" stroke="midnightblue" points="628.081,-259.21 618.548,-263.831 628.882,-266.164 628.081,-259.21"/>
</g>
<!-- Node34 -->
<g id="node34" class="node"><title>Node34</title>
<g id="a_node34"><a xlink:href="../../df/dcb/class_mavlink_ftp_test.html#ab790c9cbe943113fef4396e3f8d4ad12" target="_top" xlink:title="MavlinkFtpTest::_removedirectory_test">
<polygon fill="white" stroke="black" points="660,-194.902 660,-213.902 847,-213.902 847,-194.902 660,-194.902"/>
<text text-anchor="middle" x="753.5" y="-201.902" font-family="Helvetica,sans-Serif" font-size="10.00">MavlinkFtpTest::_removedirectory_test</text>
</a>
</g>
</g>
<!-- Node24&#45;&gt;Node34 -->
<g id="edge46" class="edge"><title>Node24&#45;&gt;Node34</title>
<path fill="none" stroke="midnightblue" d="M597.47,-250.645C615.754,-241.277 638.585,-230.591 660,-223.402 671.19,-219.645 683.403,-216.499 695.177,-213.916"/>
<polygon fill="midnightblue" stroke="midnightblue" points="595.604,-247.67 588.355,-255.397 598.84,-253.877 595.604,-247.67"/>
</g>
<!-- Node35 -->
<g id="node35" class="node"><title>Node35</title>
<g id="a_node35"><a xlink:href="../../df/dcb/class_mavlink_ftp_test.html#aed79255ba80c80b21583281b319335ce" target="_top" xlink:title="MavlinkFtpTest::_createdirectory_test">
<polygon fill="white" stroke="black" points="662.5,-370.902 662.5,-389.902 844.5,-389.902 844.5,-370.902 662.5,-370.902"/>
<text text-anchor="middle" x="753.5" y="-377.902" font-family="Helvetica,sans-Serif" font-size="10.00">MavlinkFtpTest::_createdirectory_test</text>
</a>
</g>
</g>
<!-- Node24&#45;&gt;Node35 -->
<g id="edge48" class="edge"><title>Node24&#45;&gt;Node35</title>
<path fill="none" stroke="midnightblue" d="M580.059,-293.18C598.241,-313.931 627.839,-343.795 660,-360.402 668.467,-364.774 677.846,-368.191 687.288,-370.863"/>
<polygon fill="midnightblue" stroke="midnightblue" points="582.605,-290.771 573.443,-285.45 577.287,-295.323 582.605,-290.771"/>
</g>
<!-- Node36 -->
<g id="node36" class="node"><title>Node36</title>
<g id="a_node36"><a xlink:href="../../df/dcb/class_mavlink_ftp_test.html#a8151357240e4a146b994a39105d0f7e7" target="_top" xlink:title="MavlinkFtpTest::_removefile_test">
<polygon fill="white" stroke="black" points="672.5,-156.902 672.5,-175.902 834.5,-175.902 834.5,-156.902 672.5,-156.902"/>
<text text-anchor="middle" x="753.5" y="-163.902" font-family="Helvetica,sans-Serif" font-size="10.00">MavlinkFtpTest::_removefile_test</text>
</a>
</g>
</g>
<!-- Node24&#45;&gt;Node36 -->
<g id="edge49" class="edge"><title>Node24&#45;&gt;Node36</title>
<path fill="none" stroke="midnightblue" d="M581.471,-247.578C599.891,-228.016 629.006,-200.653 660,-185.402 667.943,-181.493 676.651,-178.388 685.448,-175.922"/>
<polygon fill="midnightblue" stroke="midnightblue" points="578.684,-245.438 574.49,-255.167 583.836,-250.177 578.684,-245.438"/>
</g>
<!-- Node25&#45;&gt;Node22 -->
<g id="edge30" class="edge"><title>Node25&#45;&gt;Node22</title>
<path fill="none" stroke="midnightblue" d="M824.939,-140.382C832.485,-142.399 839.968,-144.726 847,-147.402 875.253,-158.152 904.918,-176.413 924.216,-189.366"/>
<polygon fill="midnightblue" stroke="midnightblue" points="825.564,-136.931 815.014,-137.905 823.869,-143.723 825.564,-136.931"/>
</g>
<!-- Node26&#45;&gt;Node22 -->
<g id="edge32" class="edge"><title>Node26&#45;&gt;Node22</title>
<path fill="none" stroke="midnightblue" d="M818.868,-97.2708C828.622,-100.492 838.317,-104.48 847,-109.402 883.791,-130.254 917.04,-168.038 933.886,-189.126"/>
<polygon fill="midnightblue" stroke="midnightblue" points="819.715,-93.8701 809.129,-94.2986 817.672,-100.565 819.715,-93.8701"/>
</g>
<!-- Node29&#45;&gt;Node22 -->
<g id="edge36" class="edge"><title>Node29&#45;&gt;Node22</title>
<path fill="none" stroke="midnightblue" d="M821.2,-553.041C830.738,-549.44 839.754,-544.407 847,-537.402 940.622,-446.886 946.38,-272.048 945.894,-219.621"/>
<polygon fill="midnightblue" stroke="midnightblue" points="819.961,-549.763 811.534,-556.184 822.127,-556.42 819.961,-549.763"/>
</g>
<!-- Node30&#45;&gt;Node22 -->
<g id="edge38" class="edge"><title>Node30&#45;&gt;Node22</title>
<path fill="none" stroke="midnightblue" d="M821.294,-502.841C830.735,-499.192 839.696,-494.205 847,-487.402 927.894,-412.055 942.361,-266.8 944.941,-219.612"/>
<polygon fill="midnightblue" stroke="midnightblue" points="820.096,-499.551 811.738,-506.062 822.332,-506.185 820.096,-499.551"/>
</g>
<!-- Node31&#45;&gt;Node22 -->
<g id="edge40" class="edge"><title>Node31&#45;&gt;Node22</title>
<path fill="none" stroke="midnightblue" d="M831.046,-319.475C836.605,-317.119 841.989,-314.442 847,-311.402 886.503,-287.434 919.863,-243.056 935.676,-219.695"/>
<polygon fill="midnightblue" stroke="midnightblue" points="829.623,-316.273 821.559,-323.145 832.149,-322.801 829.623,-316.273"/>
</g>
<!-- Node32&#45;&gt;Node22 -->
<g id="edge42" class="edge"><title>Node32&#45;&gt;Node22</title>
<path fill="none" stroke="midnightblue" d="M825.166,-280.153C832.67,-277.962 840.081,-275.397 847,-272.402 878.083,-258.945 909.517,-235.056 928.253,-219.476"/>
<polygon fill="midnightblue" stroke="midnightblue" points="824.022,-276.837 815.281,-282.824 825.848,-283.594 824.022,-276.837"/>
</g>
<!-- Node33&#45;&gt;Node22 -->
<g id="edge45" class="edge"><title>Node33&#45;&gt;Node22</title>
<path fill="none" stroke="midnightblue" d="M820.351,-233.232C844.582,-227.65 871.639,-221.417 894.379,-216.178"/>
<polygon fill="midnightblue" stroke="midnightblue" points="819.475,-229.842 810.516,-235.498 821.046,-236.663 819.475,-229.842"/>
</g>
<!-- Node34&#45;&gt;Node22 -->
<g id="edge47" class="edge"><title>Node34&#45;&gt;Node22</title>
<path fill="none" stroke="midnightblue" d="M857.484,-204.402C870.279,-204.402 882.893,-204.402 894.401,-204.402"/>
<polygon fill="midnightblue" stroke="midnightblue" points="857.203,-200.902 847.203,-204.402 857.202,-207.902 857.203,-200.902"/>
</g>
<!-- Node36&#45;&gt;Node22 -->
<g id="edge50" class="edge"><title>Node36&#45;&gt;Node22</title>
<path fill="none" stroke="midnightblue" d="M812.803,-178.001C838.814,-183.176 869.188,-189.219 894.308,-194.217"/>
<polygon fill="midnightblue" stroke="midnightblue" points="813.188,-174.509 802.697,-175.991 811.822,-181.375 813.188,-174.509"/>
</g>
</g>
</svg>
