<?xml version="1.0" encoding="UTF-8" standalone="no"?>
<!DOCTYPE svg PUBLIC "-//W3C//DTD SVG 1.1//EN"
 "http://www.w3.org/Graphics/SVG/1.1/DTD/svg11.dtd">
<!-- Generated by graphviz version 2.38.0 (20140413.2041)
 -->
<!-- Title: MavlinkFTP::_reply Pages: 1 -->
<svg width="2084pt" height="834pt"
 viewBox="0.00 0.00 2084.00 833.97" xmlns="http://www.w3.org/2000/svg" xmlns:xlink="http://www.w3.org/1999/xlink">
<g id="graph0" class="graph" transform="scale(1 1) rotate(0) translate(4 829.965)">
<title>MavlinkFTP::_reply</title>
<polygon fill="white" stroke="none" points="-4,4 -4,-829.965 2080,-829.965 2080,4 -4,4"/>
<!-- Node1 -->
<g id="node1" class="node"><title>Node1</title>
<polygon fill="#bfbfbf" stroke="black" points="0,-268.5 0,-287.5 101,-287.5 101,-268.5 0,-268.5"/>
<text text-anchor="middle" x="50.5" y="-275.5" font-family="Helvetica,sans-Serif" font-size="10.00">MavlinkFTP::_reply</text>
</g>
<!-- Node2 -->
<g id="node2" class="node"><title>Node2</title>
<g id="a_node2"><a xlink:href="../../d4/d6b/class_mavlink_f_t_p.html#aeb04936cf35c580f3066b354b3bc1be2" target="_top" xlink:title="Processes an FTP message. ">
<polygon fill="white" stroke="black" points="137,-296 137,-326 252,-326 252,-296 137,-296"/>
<text text-anchor="start" x="145" y="-314" font-family="Helvetica,sans-Serif" font-size="10.00">MavlinkFTP::_process</text>
<text text-anchor="middle" x="194.5" y="-303" font-family="Helvetica,sans-Serif" font-size="10.00">_request</text>
</a>
</g>
</g>
<!-- Node1&#45;&gt;Node2 -->
<g id="edge1" class="edge"><title>Node1&#45;&gt;Node2</title>
<path fill="none" stroke="midnightblue" d="M102.576,-289.87C113.727,-292.461 125.59,-295.218 136.94,-297.856"/>
<polygon fill="midnightblue" stroke="midnightblue" points="103.105,-286.4 92.5723,-287.545 101.52,-293.218 103.105,-286.4"/>
</g>
<!-- Node37 -->
<g id="node37" class="node"><title>Node37</title>
<g id="a_node37"><a xlink:href="../../d4/d6b/class_mavlink_f_t_p.html#a06a88fe7ae52474e95fed8987589d631" target="_top" xlink:title="Handle sending of messages. ">
<polygon fill="white" stroke="black" points="146.5,-235.5 146.5,-254.5 242.5,-254.5 242.5,-235.5 146.5,-235.5"/>
<text text-anchor="middle" x="194.5" y="-242.5" font-family="Helvetica,sans-Serif" font-size="10.00">MavlinkFTP::send</text>
</a>
</g>
</g>
<!-- Node1&#45;&gt;Node37 -->
<g id="edge51" class="edge"><title>Node1&#45;&gt;Node37</title>
<path fill="none" stroke="midnightblue" d="M102.556,-266.135C118.969,-262.321 136.928,-258.147 152.52,-254.524"/>
<polygon fill="midnightblue" stroke="midnightblue" points="101.52,-262.782 92.5723,-268.455 103.105,-269.6 101.52,-262.782"/>
</g>
<!-- Node3 -->
<g id="node3" class="node"><title>Node3</title>
<g id="a_node3"><a xlink:href="../../d4/d6b/class_mavlink_f_t_p.html#aafa63423d0f902fe42c7c21e13acb1af" target="_top" xlink:title="Handle possible FTP message. ">
<polygon fill="white" stroke="black" points="299.5,-307 299.5,-337 403.5,-337 403.5,-307 299.5,-307"/>
<text text-anchor="start" x="307.5" y="-325" font-family="Helvetica,sans-Serif" font-size="10.00">MavlinkFTP::handle</text>
<text text-anchor="middle" x="351.5" y="-314" font-family="Helvetica,sans-Serif" font-size="10.00">_message</text>
</a>
</g>
</g>
<!-- Node2&#45;&gt;Node3 -->
<g id="edge2" class="edge"><title>Node2&#45;&gt;Node3</title>
<path fill="none" stroke="midnightblue" d="M262.569,-315.76C274.884,-316.634 287.558,-317.533 299.314,-318.367"/>
<polygon fill="midnightblue" stroke="midnightblue" points="262.559,-312.25 252.336,-315.034 262.063,-319.233 262.559,-312.25"/>
</g>
<!-- Node4 -->
<g id="node4" class="node"><title>Node4</title>
<g id="a_node4"><a xlink:href="../../da/d89/class_mavlink_receiver.html#abf05ea2b60baafd446100f897f9274ab" target="_top" xlink:title="Receive data from UART. ">
<polygon fill="white" stroke="black" points="451,-170 451,-200 578,-200 578,-170 451,-170"/>
<text text-anchor="start" x="459" y="-188" font-family="Helvetica,sans-Serif" font-size="10.00">MavlinkReceiver::receive</text>
<text text-anchor="middle" x="514.5" y="-177" font-family="Helvetica,sans-Serif" font-size="10.00">_thread</text>
</a>
</g>
</g>
<!-- Node3&#45;&gt;Node4 -->
<g id="edge3" class="edge"><title>Node3&#45;&gt;Node4</title>
<path fill="none" stroke="midnightblue" d="M375.703,-299.792C387.837,-287.8 402.686,-272.514 415,-258 432.483,-237.394 429.518,-225.395 451,-209 455.435,-205.615 460.404,-202.656 465.551,-200.082"/>
<polygon fill="midnightblue" stroke="midnightblue" points="373.244,-297.301 368.546,-306.797 378.141,-302.304 373.244,-297.301"/>
</g>
<!-- Node21 -->
<g id="node21" class="node"><title>Node21</title>
<g id="a_node21"><a xlink:href="../../df/dcb/class_mavlink_ftp_test.html#aaf9c9a382d34831145791e51bdb33e02" target="_top" xlink:title="Tests for correct reponse to a payload which an invalid data size field. ">
<polygon fill="white" stroke="black" points="459,-668 459,-698 570,-698 570,-668 459,-668"/>
<text text-anchor="start" x="467" y="-686" font-family="Helvetica,sans-Serif" font-size="10.00">MavlinkFtpTest::_bad</text>
<text text-anchor="middle" x="514.5" y="-675" font-family="Helvetica,sans-Serif" font-size="10.00">_datasize_test</text>
</a>
</g>
</g>
<!-- Node3&#45;&gt;Node21 -->
<g id="edge24" class="edge"><title>Node3&#45;&gt;Node21</title>
<path fill="none" stroke="midnightblue" d="M363.336,-346.296C394.165,-415.423 481.752,-611.814 506.758,-667.884"/>
<polygon fill="midnightblue" stroke="midnightblue" points="366.483,-344.759 359.213,-337.052 360.09,-347.611 366.483,-344.759"/>
</g>
<!-- Node23 -->
<g id="node23" class="node"><title>Node23</title>
<g id="a_node23"><a xlink:href="../../df/dcb/class_mavlink_ftp_test.html#a04b5e3a63b5b5f31ac55c64f332c9bb7" target="_top" xlink:title="Tests for correct reponse to a Read command on an open session. ">
<polygon fill="white" stroke="black" points="638,-241.5 638,-260.5 777,-260.5 777,-241.5 638,-241.5"/>
<text text-anchor="middle" x="707.5" y="-248.5" font-family="Helvetica,sans-Serif" font-size="10.00">MavlinkFtpTest::_burst_test</text>
</a>
</g>
</g>
<!-- Node3&#45;&gt;Node23 -->
<g id="edge26" class="edge"><title>Node3&#45;&gt;Node23</title>
<path fill="none" stroke="midnightblue" d="M413.787,-320.681C460.069,-318.07 524.527,-310.94 578,-292 595.675,-285.74 596.556,-276.878 614,-270 623.761,-266.151 634.423,-263.04 644.925,-260.537"/>
<polygon fill="midnightblue" stroke="midnightblue" points="413.42,-317.195 403.611,-321.199 413.776,-324.186 413.42,-317.195"/>
</g>
<!-- Node24 -->
<g id="node24" class="node"><title>Node24</title>
<g id="a_node24"><a xlink:href="../../df/dcb/class_mavlink_ftp_test.html#a915076c4c29ebb5d433b104fa44ca112" target="_top" xlink:title="Sends the specified FTP message to the server and returns response. ">
<polygon fill="white" stroke="black" points="456.5,-469 456.5,-499 572.5,-499 572.5,-469 456.5,-469"/>
<text text-anchor="start" x="464.5" y="-487" font-family="Helvetica,sans-Serif" font-size="10.00">MavlinkFtpTest::_send</text>
<text text-anchor="middle" x="514.5" y="-476" font-family="Helvetica,sans-Serif" font-size="10.00">_receive_msg</text>
</a>
</g>
</g>
<!-- Node3&#45;&gt;Node24 -->
<g id="edge28" class="edge"><title>Node3&#45;&gt;Node24</title>
<path fill="none" stroke="midnightblue" d="M375.084,-344.724C408.391,-378.238 469.809,-440.038 498.276,-468.682"/>
<polygon fill="midnightblue" stroke="midnightblue" points="377.178,-341.866 367.646,-337.241 372.213,-346.801 377.178,-341.866"/>
</g>
<!-- Node5 -->
<g id="node5" class="node"><title>Node5</title>
<g id="a_node5"><a xlink:href="../../da/d89/class_mavlink_receiver.html#a4e6d064186fe746bc3934959a991a908" target="_top" xlink:title="MavlinkReceiver::start\l_helper">
<polygon fill="white" stroke="black" points="650,-154 650,-184 765,-184 765,-154 650,-154"/>
<text text-anchor="start" x="658" y="-172" font-family="Helvetica,sans-Serif" font-size="10.00">MavlinkReceiver::start</text>
<text text-anchor="middle" x="707.5" y="-161" font-family="Helvetica,sans-Serif" font-size="10.00">_helper</text>
</a>
</g>
</g>
<!-- Node4&#45;&gt;Node5 -->
<g id="edge4" class="edge"><title>Node4&#45;&gt;Node5</title>
<path fill="none" stroke="midnightblue" d="M588.254,-178.905C608.692,-177.193 630.607,-175.358 649.949,-173.737"/>
<polygon fill="midnightblue" stroke="midnightblue" points="587.713,-175.438 578.041,-179.761 588.298,-182.414 587.713,-175.438"/>
</g>
<!-- Node6 -->
<g id="node6" class="node"><title>Node6</title>
<g id="a_node6"><a xlink:href="../../da/d89/class_mavlink_receiver.html#aae6564d759626eeebeb19a9dfbdcaf6d" target="_top" xlink:title="Start the receiver thread. ">
<polygon fill="white" stroke="black" points="837,-154 837,-184 964,-184 964,-154 837,-154"/>
<text text-anchor="start" x="845" y="-172" font-family="Helvetica,sans-Serif" font-size="10.00">MavlinkReceiver::receive</text>
<text text-anchor="middle" x="900.5" y="-161" font-family="Helvetica,sans-Serif" font-size="10.00">_start</text>
</a>
</g>
</g>
<!-- Node5&#45;&gt;Node6 -->
<g id="edge5" class="edge"><title>Node5&#45;&gt;Node6</title>
<path fill="none" stroke="midnightblue" d="M775.283,-169C795.251,-169 817.065,-169 836.763,-169"/>
<polygon fill="midnightblue" stroke="midnightblue" points="775.031,-165.5 765.031,-169 775.031,-172.5 775.031,-165.5"/>
</g>
<!-- Node7 -->
<g id="node7" class="node"><title>Node7</title>
<g id="a_node7"><a xlink:href="../../df/d1f/class_mavlink.html#a2325401a575b272fc1474d502388241f" target="_top" xlink:title="Main mavlink task. ">
<polygon fill="white" stroke="black" points="1000,-159.5 1000,-178.5 1101,-178.5 1101,-159.5 1000,-159.5"/>
<text text-anchor="middle" x="1050.5" y="-166.5" font-family="Helvetica,sans-Serif" font-size="10.00">Mavlink::task_main</text>
</a>
</g>
</g>
<!-- Node6&#45;&gt;Node7 -->
<g id="edge6" class="edge"><title>Node6&#45;&gt;Node7</title>
<path fill="none" stroke="midnightblue" d="M974.302,-169C982.883,-169 991.486,-169 999.649,-169"/>
<polygon fill="midnightblue" stroke="midnightblue" points="974.265,-165.5 964.265,-169 974.265,-172.5 974.265,-165.5"/>
</g>
<!-- Node8 -->
<g id="node8" class="node"><title>Node8</title>
<g id="a_node8"><a xlink:href="../../df/d1f/class_mavlink.html#aad2c17a259e6cfbfe20113c8da8f6cae" target="_top" xlink:title="Mavlink::start_helper">
<polygon fill="white" stroke="black" points="1137,-159.5 1137,-178.5 1244,-178.5 1244,-159.5 1137,-159.5"/>
<text text-anchor="middle" x="1190.5" y="-166.5" font-family="Helvetica,sans-Serif" font-size="10.00">Mavlink::start_helper</text>
</a>
</g>
</g>
<!-- Node7&#45;&gt;Node8 -->
<g id="edge7" class="edge"><title>Node7&#45;&gt;Node8</title>
<path fill="none" stroke="midnightblue" d="M1111.52,-169C1119.99,-169 1128.65,-169 1136.96,-169"/>
<polygon fill="midnightblue" stroke="midnightblue" points="1111.32,-165.5 1101.32,-169 1111.32,-172.5 1111.32,-165.5"/>
</g>
<!-- Node9 -->
<g id="node9" class="node"><title>Node9</title>
<g id="a_node9"><a xlink:href="../../df/d1f/class_mavlink.html#af06ea4dffa8d7b911690a99456a4814a" target="_top" xlink:title="Mavlink::broadcast\l_enabled">
<polygon fill="white" stroke="black" points="1280,-116 1280,-146 1379,-146 1379,-116 1280,-116"/>
<text text-anchor="start" x="1288" y="-134" font-family="Helvetica,sans-Serif" font-size="10.00">Mavlink::broadcast</text>
<text text-anchor="middle" x="1329.5" y="-123" font-family="Helvetica,sans-Serif" font-size="10.00">_enabled</text>
</a>
</g>
</g>
<!-- Node8&#45;&gt;Node9 -->
<g id="edge8" class="edge"><title>Node8&#45;&gt;Node9</title>
<path fill="none" stroke="midnightblue" d="M1235.99,-156.659C1250.05,-152.76 1265.65,-148.434 1279.97,-144.461"/>
<polygon fill="midnightblue" stroke="midnightblue" points="1234.77,-153.365 1226.07,-159.411 1236.64,-160.111 1234.77,-153.365"/>
</g>
<!-- Node20 -->
<g id="node20" class="node"><title>Node20</title>
<g id="a_node20"><a xlink:href="../../df/d1f/class_mavlink.html#a3f96c3503833a477332c8584bb8fbc67" target="_top" xlink:title="Start the mavlink task. ">
<polygon fill="white" stroke="black" points="1291.5,-165.5 1291.5,-184.5 1367.5,-184.5 1367.5,-165.5 1291.5,-165.5"/>
<text text-anchor="middle" x="1329.5" y="-172.5" font-family="Helvetica,sans-Serif" font-size="10.00">Mavlink::start</text>
</a>
</g>
</g>
<!-- Node8&#45;&gt;Node20 -->
<g id="edge22" class="edge"><title>Node8&#45;&gt;Node20</title>
<path fill="none" stroke="midnightblue" d="M1254.13,-171.743C1266.79,-172.297 1279.71,-172.863 1291.15,-173.364"/>
<polygon fill="midnightblue" stroke="midnightblue" points="1254.22,-168.244 1244.08,-171.303 1253.91,-175.237 1254.22,-168.244"/>
</g>
<!-- Node10 -->
<g id="node10" class="node"><title>Node10</title>
<g id="a_node10"><a xlink:href="../../df/d1f/class_mavlink.html#aacd190d885c0a9f521f0d7d0673f2b6f" target="_top" xlink:title="Flush the transmit buffer and send one MAVLink packet. ">
<polygon fill="white" stroke="black" points="1428.5,-72.5 1428.5,-91.5 1540.5,-91.5 1540.5,-72.5 1428.5,-72.5"/>
<text text-anchor="middle" x="1484.5" y="-79.5" font-family="Helvetica,sans-Serif" font-size="10.00">Mavlink::send_packet</text>
</a>
</g>
</g>
<!-- Node9&#45;&gt;Node10 -->
<g id="edge9" class="edge"><title>Node9&#45;&gt;Node10</title>
<path fill="none" stroke="midnightblue" d="M1387.44,-112.764C1409.91,-105.568 1434.79,-97.5992 1453.6,-91.5754"/>
<polygon fill="midnightblue" stroke="midnightblue" points="1386.11,-109.515 1377.65,-115.899 1388.24,-116.182 1386.11,-109.515"/>
</g>
<!-- Node15 -->
<g id="node15" class="node"><title>Node15</title>
<g id="a_node15"><a xlink:href="../../df/d1f/class_mavlink.html#afcac36b1b581d47b7181374d35edbd54" target="_top" xlink:title="Set the boot complete flag on all instances. ">
<polygon fill="white" stroke="black" points="1415,-121.5 1415,-140.5 1554,-140.5 1554,-121.5 1415,-121.5"/>
<text text-anchor="middle" x="1484.5" y="-128.5" font-family="Helvetica,sans-Serif" font-size="10.00">Mavlink::set_boot_complete</text>
</a>
</g>
</g>
<!-- Node9&#45;&gt;Node15 -->
<g id="edge15" class="edge"><title>Node9&#45;&gt;Node15</title>
<path fill="none" stroke="midnightblue" d="M1389.59,-124.408C1397.84,-124.256 1406.37,-124.214 1414.78,-124.281"/>
<polygon fill="midnightblue" stroke="midnightblue" points="1389.24,-120.915 1379.33,-124.659 1389.41,-127.913 1389.24,-120.915"/>
</g>
<!-- Node11 -->
<g id="node11" class="node"><title>Node11</title>
<g id="a_node11"><a xlink:href="../../df/d1f/class_mavlink.html#a3aa1fb0ca3f0d77b10a8954618a51abb" target="_top" xlink:title="Get the manual input generation mode. ">
<polygon fill="white" stroke="black" points="1598,-67 1598,-97 1720,-97 1720,-67 1598,-67"/>
<text text-anchor="start" x="1606" y="-85" font-family="Helvetica,sans-Serif" font-size="10.00">Mavlink::get_manual</text>
<text text-anchor="middle" x="1659" y="-74" font-family="Helvetica,sans-Serif" font-size="10.00">_input_mode_generation</text>
</a>
</g>
</g>
<!-- Node10&#45;&gt;Node11 -->
<g id="edge10" class="edge"><title>Node10&#45;&gt;Node11</title>
<path fill="none" stroke="midnightblue" d="M1550.57,-82C1566.07,-82 1582.53,-82 1597.8,-82"/>
<polygon fill="midnightblue" stroke="midnightblue" points="1550.55,-78.5001 1540.55,-82 1550.55,-85.5001 1550.55,-78.5001"/>
</g>
<!-- Node14 -->
<g id="node14" class="node"><title>Node14</title>
<g id="a_node14"><a xlink:href="../../de/d24/mavlink__main_8cpp.html#a646c2f3486de3d8574422fc4ef1940a2" target="_top" xlink:title="mavlink_end_uart_send">
<polygon fill="white" stroke="black" points="1599.5,-28.5 1599.5,-47.5 1718.5,-47.5 1718.5,-28.5 1599.5,-28.5"/>
<text text-anchor="middle" x="1659" y="-35.5" font-family="Helvetica,sans-Serif" font-size="10.00">mavlink_end_uart_send</text>
</a>
</g>
</g>
<!-- Node10&#45;&gt;Node14 -->
<g id="edge14" class="edge"><title>Node10&#45;&gt;Node14</title>
<path fill="none" stroke="midnightblue" d="M1532.79,-69.9383C1560.45,-62.8815 1594.89,-54.0976 1620.64,-47.5287"/>
<polygon fill="midnightblue" stroke="midnightblue" points="1531.75,-66.5896 1522.93,-72.4527 1533.48,-73.3724 1531.75,-66.5896"/>
</g>
<!-- Node12 -->
<g id="node12" class="node"><title>Node12</title>
<g id="a_node12"><a xlink:href="../../da/d89/class_mavlink_receiver.html#af99bf01b6ae13dab05c36c0125e179bc" target="_top" xlink:title="MavlinkReceiver::handle\l_message_manual_control">
<polygon fill="white" stroke="black" points="1766.5,-67 1766.5,-97 1899.5,-97 1899.5,-67 1766.5,-67"/>
<text text-anchor="start" x="1774.5" y="-85" font-family="Helvetica,sans-Serif" font-size="10.00">MavlinkReceiver::handle</text>
<text text-anchor="middle" x="1833" y="-74" font-family="Helvetica,sans-Serif" font-size="10.00">_message_manual_control</text>
</a>
</g>
</g>
<!-- Node11&#45;&gt;Node12 -->
<g id="edge11" class="edge"><title>Node11&#45;&gt;Node12</title>
<path fill="none" stroke="midnightblue" d="M1730.45,-82C1742.31,-82 1754.58,-82 1766.31,-82"/>
<polygon fill="midnightblue" stroke="midnightblue" points="1730.16,-78.5001 1720.16,-82 1730.16,-85.5001 1730.16,-78.5001"/>
</g>
<!-- Node13 -->
<g id="node13" class="node"><title>Node13</title>
<g id="a_node13"><a xlink:href="../../da/d89/class_mavlink_receiver.html#ac939c806679dc4278968b1d3e865cc72" target="_top" xlink:title="MavlinkReceiver::handle\l_message">
<polygon fill="white" stroke="black" points="1945,-116 1945,-146 2069,-146 2069,-116 1945,-116"/>
<text text-anchor="start" x="1953" y="-134" font-family="Helvetica,sans-Serif" font-size="10.00">MavlinkReceiver::handle</text>
<text text-anchor="middle" x="2007" y="-123" font-family="Helvetica,sans-Serif" font-size="10.00">_message</text>
</a>
</g>
</g>
<!-- Node12&#45;&gt;Node13 -->
<g id="edge12" class="edge"><title>Node12&#45;&gt;Node13</title>
<path fill="none" stroke="midnightblue" d="M1896.81,-99.8941C1915.31,-105.164 1935.36,-110.876 1953.17,-115.948"/>
<polygon fill="midnightblue" stroke="midnightblue" points="1897.59,-96.4753 1887.01,-97.1014 1895.67,-103.207 1897.59,-96.4753"/>
</g>
<!-- Node13&#45;&gt;Node4 -->
<g id="edge13" class="edge"><title>Node13&#45;&gt;Node4</title>
<path fill="none" stroke="midnightblue" d="M1958.61,-149.641C1892.73,-173.837 1769.22,-213 1660,-213 899.5,-213 899.5,-213 899.5,-213 786.033,-213 654.204,-200.689 578.254,-192.393"/>
<polygon fill="midnightblue" stroke="midnightblue" points="1960.14,-152.806 1968.29,-146.04 1957.7,-146.246 1960.14,-152.806"/>
</g>
<!-- Node15&#45;&gt;Node9 -->
<g id="edge16" class="edge"><title>Node15&#45;&gt;Node9</title>
<path fill="none" stroke="midnightblue" d="M1404.66,-137.747C1396.03,-137.726 1387.44,-137.591 1379.33,-137.341"/>
<polygon fill="midnightblue" stroke="midnightblue" points="1404.79,-141.247 1414.78,-137.719 1404.77,-134.247 1404.79,-141.247"/>
</g>
<!-- Node16 -->
<g id="node16" class="node"><title>Node16</title>
<g id="a_node16"><a xlink:href="../../de/d24/mavlink__main_8cpp.html#ab81e9b009119f143f3b54a1390b92427" target="_top" xlink:title="mavlink app start / stop handling function ">
<polygon fill="white" stroke="black" points="1620.5,-165.5 1620.5,-184.5 1697.5,-184.5 1697.5,-165.5 1620.5,-165.5"/>
<text text-anchor="middle" x="1659" y="-172.5" font-family="Helvetica,sans-Serif" font-size="10.00">mavlink_main</text>
</a>
</g>
</g>
<!-- Node15&#45;&gt;Node16 -->
<g id="edge17" class="edge"><title>Node15&#45;&gt;Node16</title>
<path fill="none" stroke="midnightblue" d="M1532.79,-143.062C1560.45,-150.118 1594.89,-158.902 1620.64,-165.471"/>
<polygon fill="midnightblue" stroke="midnightblue" points="1533.48,-139.628 1522.93,-140.547 1531.75,-146.41 1533.48,-139.628"/>
</g>
<!-- Node17 -->
<g id="node17" class="node"><title>Node17</title>
<g id="a_node17"><a xlink:href="../../df/d61/class_mavlink_parameters_manager.html#acd8734b77582ad7626f5230c1707e04c" target="_top" xlink:title="send a single param if a PARAM_REQUEST_LIST is in progress ">
<polygon fill="white" stroke="black" points="1590,-116 1590,-146 1728,-146 1728,-116 1590,-116"/>
<text text-anchor="start" x="1598" y="-134" font-family="Helvetica,sans-Serif" font-size="10.00">MavlinkParametersManager</text>
<text text-anchor="middle" x="1659" y="-123" font-family="Helvetica,sans-Serif" font-size="10.00">::send_one</text>
</a>
</g>
</g>
<!-- Node15&#45;&gt;Node17 -->
<g id="edge18" class="edge"><title>Node15&#45;&gt;Node17</title>
<path fill="none" stroke="midnightblue" d="M1564.45,-131C1572.93,-131 1581.51,-131 1589.85,-131"/>
<polygon fill="midnightblue" stroke="midnightblue" points="1564.17,-127.5 1554.17,-131 1564.17,-134.5 1564.17,-127.5"/>
</g>
<!-- Node18 -->
<g id="node18" class="node"><title>Node18</title>
<g id="a_node18"><a xlink:href="../../df/d61/class_mavlink_parameters_manager.html#a3a6dff51ef5aba4f3dda19610510a45d" target="_top" xlink:title="Handle any open param send transfer. ">
<polygon fill="white" stroke="black" points="1764,-116 1764,-146 1902,-146 1902,-116 1764,-116"/>
<text text-anchor="start" x="1772" y="-134" font-family="Helvetica,sans-Serif" font-size="10.00">MavlinkParametersManager</text>
<text text-anchor="middle" x="1833" y="-123" font-family="Helvetica,sans-Serif" font-size="10.00">::send_params</text>
</a>
</g>
</g>
<!-- Node17&#45;&gt;Node18 -->
<g id="edge19" class="edge"><title>Node17&#45;&gt;Node18</title>
<path fill="none" stroke="midnightblue" d="M1738.64,-131C1747.03,-131 1755.51,-131 1763.76,-131"/>
<polygon fill="midnightblue" stroke="midnightblue" points="1738.47,-127.5 1728.47,-131 1738.47,-134.5 1738.47,-127.5"/>
</g>
<!-- Node19 -->
<g id="node19" class="node"><title>Node19</title>
<g id="a_node19"><a xlink:href="../../df/d61/class_mavlink_parameters_manager.html#adbcd587c4ec1c0b94fe259047f8ec82e" target="_top" xlink:title="Handle sending of messages. ">
<polygon fill="white" stroke="black" points="1938,-26 1938,-56 2076,-56 2076,-26 1938,-26"/>
<text text-anchor="start" x="1946" y="-44" font-family="Helvetica,sans-Serif" font-size="10.00">MavlinkParametersManager</text>
<text text-anchor="middle" x="2007" y="-33" font-family="Helvetica,sans-Serif" font-size="10.00">::send</text>
</a>
</g>
</g>
<!-- Node18&#45;&gt;Node19 -->
<g id="edge20" class="edge"><title>Node18&#45;&gt;Node19</title>
<path fill="none" stroke="midnightblue" d="M1888.61,-112.063C1893.19,-110.132 1897.71,-108.102 1902,-106 1932.02,-91.2958 1964.34,-70.1799 1984.84,-56.047"/>
<polygon fill="midnightblue" stroke="midnightblue" points="1887.13,-108.886 1879.18,-115.882 1889.76,-115.375 1887.13,-108.886"/>
</g>
<!-- Node19&#45;&gt;Node4 -->
<g id="edge21" class="edge"><title>Node19&#45;&gt;Node4</title>
<path fill="none" stroke="midnightblue" d="M1927.63,-26.369C1857.7,-14.5949 1752.39,-0 1660,-0 899.5,-0 899.5,-0 899.5,-0 743.36,-0 583.742,-125.677 532.451,-169.861"/>
<polygon fill="midnightblue" stroke="midnightblue" points="1927.23,-29.8526 1937.68,-28.0836 1928.41,-22.9522 1927.23,-29.8526"/>
</g>
<!-- Node20&#45;&gt;Node16 -->
<g id="edge23" class="edge"><title>Node20&#45;&gt;Node16</title>
<path fill="none" stroke="midnightblue" d="M1377.8,-175C1443.3,-175 1560.31,-175 1620.28,-175"/>
<polygon fill="midnightblue" stroke="midnightblue" points="1377.75,-171.5 1367.75,-175 1377.75,-178.5 1377.75,-171.5"/>
</g>
<!-- Node22 -->
<g id="node22" class="node"><title>Node22</title>
<g id="a_node22"><a xlink:href="../../df/dcb/class_mavlink_ftp_test.html#a74480ea701868cee4c374fb8bfd1791b" target="_top" xlink:title="Runs all the unit tests. ">
<polygon fill="white" stroke="black" points="848.5,-570 848.5,-600 952.5,-600 952.5,-570 848.5,-570"/>
<text text-anchor="start" x="856.5" y="-588" font-family="Helvetica,sans-Serif" font-size="10.00">MavlinkFtpTest::run</text>
<text text-anchor="middle" x="900.5" y="-577" font-family="Helvetica,sans-Serif" font-size="10.00">_tests</text>
</a>
</g>
</g>
<!-- Node21&#45;&gt;Node22 -->
<g id="edge25" class="edge"><title>Node21&#45;&gt;Node22</title>
<path fill="none" stroke="midnightblue" d="M528.259,-707.376C544.157,-734.8 574.162,-777.877 614,-796 689.651,-830.414 730.895,-840.641 801,-796 871.588,-751.052 892.423,-640.836 897.814,-600.291"/>
<polygon fill="midnightblue" stroke="midnightblue" points="531.17,-705.411 523.231,-698.395 525.062,-708.83 531.17,-705.411"/>
</g>
<!-- Node23&#45;&gt;Node22 -->
<g id="edge27" class="edge"><title>Node23&#45;&gt;Node22</title>
<path fill="none" stroke="midnightblue" d="M786.77,-260.427C791.923,-263 796.744,-266.151 801,-270 892.375,-352.626 899.744,-518.647 899.761,-569.707"/>
<polygon fill="midnightblue" stroke="midnightblue" points="787.764,-257.048 777.189,-256.395 785.048,-263.5 787.764,-257.048"/>
</g>
<!-- Node24&#45;&gt;Node23 -->
<g id="edge43" class="edge"><title>Node24&#45;&gt;Node23</title>
<path fill="none" stroke="midnightblue" d="M525.398,-459.291C547.06,-405.726 598.013,-282.692 614,-270 620.934,-264.495 629.058,-260.468 637.562,-257.539"/>
<polygon fill="midnightblue" stroke="midnightblue" points="522.084,-458.15 521.592,-468.733 528.576,-460.767 522.084,-458.15"/>
</g>
<!-- Node25 -->
<g id="node25" class="node"><title>Node25</title>
<g id="a_node25"><a xlink:href="../../df/dcb/class_mavlink_ftp_test.html#a57763e02bcc83361dd4b9d0fcaa2d411" target="_top" xlink:title="Tests for correct behavior of an Ack response. ">
<polygon fill="white" stroke="black" points="641,-329.5 641,-348.5 774,-348.5 774,-329.5 641,-329.5"/>
<text text-anchor="middle" x="707.5" y="-336.5" font-family="Helvetica,sans-Serif" font-size="10.00">MavlinkFtpTest::_ack_test</text>
</a>
</g>
</g>
<!-- Node24&#45;&gt;Node25 -->
<g id="edge29" class="edge"><title>Node24&#45;&gt;Node25</title>
<path fill="none" stroke="midnightblue" d="M527.602,-459.675C543.359,-430.666 573.715,-382.973 614,-358 622.082,-352.99 631.25,-349.275 640.596,-346.525"/>
<polygon fill="midnightblue" stroke="midnightblue" points="524.392,-458.258 522.824,-468.736 530.584,-461.522 524.392,-458.258"/>
</g>
<!-- Node26 -->
<g id="node26" class="node"><title>Node26</title>
<g id="a_node26"><a xlink:href="../../df/dcb/class_mavlink_ftp_test.html#a29e4f7f042236e2bf3c68ab7b811a414" target="_top" xlink:title="Tests for correct response to an invalid opcpde. ">
<polygon fill="white" stroke="black" points="652,-280 652,-310 763,-310 763,-280 652,-280"/>
<text text-anchor="start" x="660" y="-298" font-family="Helvetica,sans-Serif" font-size="10.00">MavlinkFtpTest::_bad</text>
<text text-anchor="middle" x="707.5" y="-287" font-family="Helvetica,sans-Serif" font-size="10.00">_opcode_test</text>
</a>
</g>
</g>
<!-- Node24&#45;&gt;Node26 -->
<g id="edge31" class="edge"><title>Node24&#45;&gt;Node26</title>
<path fill="none" stroke="midnightblue" d="M523.73,-458.875C536.911,-422.63 566.241,-356.077 614,-320 625.017,-311.678 638.614,-306.124 651.959,-302.418"/>
<polygon fill="midnightblue" stroke="midnightblue" points="520.304,-458.069 520.297,-468.664 526.909,-460.386 520.304,-458.069"/>
</g>
<!-- Node27 -->
<g id="node27" class="node"><title>Node27</title>
<g id="a_node27"><a xlink:href="../../df/dcb/class_mavlink_ftp_test.html#ae2b0c7ae31c81ddebef9631065ff4a4f" target="_top" xlink:title="MavlinkFtpTest::_list_test">
<polygon fill="white" stroke="black" points="642.5,-455.5 642.5,-474.5 772.5,-474.5 772.5,-455.5 642.5,-455.5"/>
<text text-anchor="middle" x="707.5" y="-462.5" font-family="Helvetica,sans-Serif" font-size="10.00">MavlinkFtpTest::_list_test</text>
</a>
</g>
</g>
<!-- Node24&#45;&gt;Node27 -->
<g id="edge33" class="edge"><title>Node24&#45;&gt;Node27</title>
<path fill="none" stroke="midnightblue" d="M582.534,-477.332C601.97,-475.398 623.137,-473.293 642.389,-471.378"/>
<polygon fill="midnightblue" stroke="midnightblue" points="582.152,-473.852 572.548,-478.325 582.845,-480.818 582.152,-473.852"/>
</g>
<!-- Node28 -->
<g id="node28" class="node"><title>Node28</title>
<g id="a_node28"><a xlink:href="../../df/dcb/class_mavlink_ftp_test.html#a219f618189d98b00bc9ac4932cdbfcff" target="_top" xlink:title="Tests for correct response to a List command on a valid directory, but with an offset that is beyond ...">
<polygon fill="white" stroke="black" points="653.5,-406 653.5,-436 761.5,-436 761.5,-406 653.5,-406"/>
<text text-anchor="start" x="661.5" y="-424" font-family="Helvetica,sans-Serif" font-size="10.00">MavlinkFtpTest::_list</text>
<text text-anchor="middle" x="707.5" y="-413" font-family="Helvetica,sans-Serif" font-size="10.00">_eof_test</text>
</a>
</g>
</g>
<!-- Node24&#45;&gt;Node28 -->
<g id="edge34" class="edge"><title>Node24&#45;&gt;Node28</title>
<path fill="none" stroke="midnightblue" d="M561.504,-465.11C577.935,-458.668 596.67,-451.668 614,-446 626.649,-441.863 640.425,-437.871 653.39,-434.336"/>
<polygon fill="midnightblue" stroke="midnightblue" points="560.133,-461.889 552.124,-468.825 562.71,-468.397 560.133,-461.889"/>
</g>
<!-- Node29 -->
<g id="node29" class="node"><title>Node29</title>
<g id="a_node29"><a xlink:href="../../df/dcb/class_mavlink_ftp_test.html#a221e5c40386cf19dd01490667c578f5c" target="_top" xlink:title="Tests for correct response to an Open command on a file which does not exist. ">
<polygon fill="white" stroke="black" points="649.5,-756 649.5,-786 765.5,-786 765.5,-756 649.5,-756"/>
<text text-anchor="start" x="657.5" y="-774" font-family="Helvetica,sans-Serif" font-size="10.00">MavlinkFtpTest::_open</text>
<text text-anchor="middle" x="707.5" y="-763" font-family="Helvetica,sans-Serif" font-size="10.00">_badfile_test</text>
</a>
</g>
</g>
<!-- Node24&#45;&gt;Node29 -->
<g id="edge35" class="edge"><title>Node24&#45;&gt;Node29</title>
<path fill="none" stroke="midnightblue" d="M524.453,-508.82C547.846,-573.543 609.314,-742.78 614,-747 623.862,-755.882 636.594,-761.557 649.439,-765.161"/>
<polygon fill="midnightblue" stroke="midnightblue" points="527.729,-507.587 521.04,-499.37 521.146,-509.965 527.729,-507.587"/>
</g>
<!-- Node30 -->
<g id="node30" class="node"><title>Node30</title>
<g id="a_node30"><a xlink:href="../../df/dcb/class_mavlink_ftp_test.html#a11a6cc55e252ad3a559b3eb9657979b2" target="_top" xlink:title="Tests for correct reponse to an Open command on a file, followed by Terminate. ">
<polygon fill="white" stroke="black" points="649.5,-707 649.5,-737 765.5,-737 765.5,-707 649.5,-707"/>
<text text-anchor="start" x="657.5" y="-725" font-family="Helvetica,sans-Serif" font-size="10.00">MavlinkFtpTest::_open</text>
<text text-anchor="middle" x="707.5" y="-714" font-family="Helvetica,sans-Serif" font-size="10.00">_terminate_test</text>
</a>
</g>
</g>
<!-- Node24&#45;&gt;Node30 -->
<g id="edge37" class="edge"><title>Node24&#45;&gt;Node30</title>
<path fill="none" stroke="midnightblue" d="M519.836,-509.176C528.927,-554.105 554.3,-648.057 614,-698 624.053,-706.41 636.71,-711.915 649.407,-715.507"/>
<polygon fill="midnightblue" stroke="midnightblue" points="523.228,-508.278 517.909,-499.115 516.353,-509.595 523.228,-508.278"/>
</g>
<!-- Node31 -->
<g id="node31" class="node"><title>Node31</title>
<g id="a_node31"><a xlink:href="../../df/dcb/class_mavlink_ftp_test.html#a8929bf3bafd58a2a928096b55e3157e9" target="_top" xlink:title="Tests for correct reponse to a Terminate command on an invalid session. ">
<polygon fill="white" stroke="black" points="639.5,-658 639.5,-688 775.5,-688 775.5,-658 639.5,-658"/>
<text text-anchor="start" x="647.5" y="-676" font-family="Helvetica,sans-Serif" font-size="10.00">MavlinkFtpTest::_terminate</text>
<text text-anchor="middle" x="707.5" y="-665" font-family="Helvetica,sans-Serif" font-size="10.00">_badsession_test</text>
</a>
</g>
</g>
<!-- Node24&#45;&gt;Node31 -->
<g id="edge39" class="edge"><title>Node24&#45;&gt;Node31</title>
<path fill="none" stroke="midnightblue" d="M523.73,-509.125C536.911,-545.37 566.241,-611.923 614,-648 621.566,-653.715 630.349,-658.125 639.431,-661.527"/>
<polygon fill="midnightblue" stroke="midnightblue" points="526.909,-507.614 520.297,-499.336 520.304,-509.931 526.909,-507.614"/>
</g>
<!-- Node32 -->
<g id="node32" class="node"><title>Node32</title>
<g id="a_node32"><a xlink:href="../../df/dcb/class_mavlink_ftp_test.html#ac87affe2ba5ecbeebf5b3236f204b053" target="_top" xlink:title="Tests for correct reponse to a Read command on an open session. ">
<polygon fill="white" stroke="black" points="639.5,-619.5 639.5,-638.5 775.5,-638.5 775.5,-619.5 639.5,-619.5"/>
<text text-anchor="middle" x="707.5" y="-626.5" font-family="Helvetica,sans-Serif" font-size="10.00">MavlinkFtpTest::_read_test</text>
</a>
</g>
</g>
<!-- Node24&#45;&gt;Node32 -->
<g id="edge41" class="edge"><title>Node24&#45;&gt;Node32</title>
<path fill="none" stroke="midnightblue" d="M527.602,-508.325C543.359,-537.334 573.715,-585.027 614,-610 621.664,-614.751 630.304,-618.337 639.148,-621.041"/>
<polygon fill="midnightblue" stroke="midnightblue" points="530.584,-506.478 522.824,-499.264 524.392,-509.742 530.584,-506.478"/>
</g>
<!-- Node33 -->
<g id="node33" class="node"><title>Node33</title>
<g id="a_node33"><a xlink:href="../../df/dcb/class_mavlink_ftp_test.html#a0a1d262a82c72da06f5bb072dab0ff3d" target="_top" xlink:title="Tests for correct reponse to a Read command on an invalid session. ">
<polygon fill="white" stroke="black" points="650.5,-570 650.5,-600 764.5,-600 764.5,-570 650.5,-570"/>
<text text-anchor="start" x="658.5" y="-588" font-family="Helvetica,sans-Serif" font-size="10.00">MavlinkFtpTest::_read</text>
<text text-anchor="middle" x="707.5" y="-577" font-family="Helvetica,sans-Serif" font-size="10.00">_badsession_test</text>
</a>
</g>
</g>
<!-- Node24&#45;&gt;Node33 -->
<g id="edge44" class="edge"><title>Node24&#45;&gt;Node33</title>
<path fill="none" stroke="midnightblue" d="M538.396,-505.926C557.301,-522.924 585.558,-545.888 614,-560 625.325,-565.619 638.079,-570.105 650.414,-573.636"/>
<polygon fill="midnightblue" stroke="midnightblue" points="540.63,-503.226 530.893,-499.05 535.9,-508.387 540.63,-503.226"/>
</g>
<!-- Node34 -->
<g id="node34" class="node"><title>Node34</title>
<g id="a_node34"><a xlink:href="../../df/dcb/class_mavlink_ftp_test.html#ab790c9cbe943113fef4396e3f8d4ad12" target="_top" xlink:title="MavlinkFtpTest::_removedirectory_test">
<polygon fill="white" stroke="black" points="614,-493.5 614,-512.5 801,-512.5 801,-493.5 614,-493.5"/>
<text text-anchor="middle" x="707.5" y="-500.5" font-family="Helvetica,sans-Serif" font-size="10.00">MavlinkFtpTest::_removedirectory_test</text>
</a>
</g>
</g>
<!-- Node24&#45;&gt;Node34 -->
<g id="edge46" class="edge"><title>Node24&#45;&gt;Node34</title>
<path fill="none" stroke="midnightblue" d="M582.786,-490.693C592.788,-491.688 603.243,-492.728 613.657,-493.764"/>
<polygon fill="midnightblue" stroke="midnightblue" points="582.845,-487.182 572.548,-489.675 582.152,-494.148 582.845,-487.182"/>
</g>
<!-- Node35 -->
<g id="node35" class="node"><title>Node35</title>
<g id="a_node35"><a xlink:href="../../df/dcb/class_mavlink_ftp_test.html#aed79255ba80c80b21583281b319335ce" target="_top" xlink:title="MavlinkFtpTest::_createdirectory_test">
<polygon fill="white" stroke="black" points="616.5,-531.5 616.5,-550.5 798.5,-550.5 798.5,-531.5 616.5,-531.5"/>
<text text-anchor="middle" x="707.5" y="-538.5" font-family="Helvetica,sans-Serif" font-size="10.00">MavlinkFtpTest::_createdirectory_test</text>
</a>
</g>
</g>
<!-- Node24&#45;&gt;Node35 -->
<g id="edge48" class="edge"><title>Node24&#45;&gt;Node35</title>
<path fill="none" stroke="midnightblue" d="M560.081,-502.998C576.785,-509.637 596.063,-516.737 614,-522 626.27,-525.6 639.651,-528.77 652.325,-531.438"/>
<polygon fill="midnightblue" stroke="midnightblue" points="561.157,-499.658 550.574,-499.16 558.536,-506.149 561.157,-499.658"/>
</g>
<!-- Node36 -->
<g id="node36" class="node"><title>Node36</title>
<g id="a_node36"><a xlink:href="../../df/dcb/class_mavlink_ftp_test.html#a8151357240e4a146b994a39105d0f7e7" target="_top" xlink:title="MavlinkFtpTest::_removefile_test">
<polygon fill="white" stroke="black" points="626.5,-367.5 626.5,-386.5 788.5,-386.5 788.5,-367.5 626.5,-367.5"/>
<text text-anchor="middle" x="707.5" y="-374.5" font-family="Helvetica,sans-Serif" font-size="10.00">MavlinkFtpTest::_removefile_test</text>
</a>
</g>
</g>
<!-- Node24&#45;&gt;Node36 -->
<g id="edge49" class="edge"><title>Node24&#45;&gt;Node36</title>
<path fill="none" stroke="midnightblue" d="M534.437,-461.318C552.691,-440.998 582.168,-412.005 614,-396 621.763,-392.097 630.276,-388.996 638.897,-386.531"/>
<polygon fill="midnightblue" stroke="midnightblue" points="531.748,-459.077 527.782,-468.901 537.009,-463.694 531.748,-459.077"/>
</g>
<!-- Node25&#45;&gt;Node22 -->
<g id="edge30" class="edge"><title>Node25&#45;&gt;Node22</title>
<path fill="none" stroke="midnightblue" d="M784.044,-347.919C790.142,-350.556 795.905,-353.863 801,-358 870.369,-414.325 892.039,-528.977 897.726,-569.992"/>
<polygon fill="midnightblue" stroke="midnightblue" points="784.827,-344.477 774.233,-344.305 782.407,-351.046 784.827,-344.477"/>
</g>
<!-- Node26&#45;&gt;Node22 -->
<g id="edge32" class="edge"><title>Node26&#45;&gt;Node22</title>
<path fill="none" stroke="midnightblue" d="M772.76,-303.802C783.092,-307.503 793.001,-312.705 801,-320 877.517,-389.789 894.815,-524.559 898.532,-569.783"/>
<polygon fill="midnightblue" stroke="midnightblue" points="773.784,-300.455 763.195,-300.807 771.693,-307.135 773.784,-300.455"/>
</g>
<!-- Node29&#45;&gt;Node22 -->
<g id="edge36" class="edge"><title>Node29&#45;&gt;Node22</title>
<path fill="none" stroke="midnightblue" d="M775.455,-760.292C784.569,-756.983 793.39,-752.656 801,-747 853.307,-708.122 883.625,-632.474 894.678,-600.192"/>
<polygon fill="midnightblue" stroke="midnightblue" points="774.328,-756.978 765.891,-763.385 776.482,-763.638 774.328,-756.978"/>
</g>
<!-- Node30&#45;&gt;Node22 -->
<g id="edge38" class="edge"><title>Node30&#45;&gt;Node22</title>
<path fill="none" stroke="midnightblue" d="M775.635,-709.737C784.519,-706.655 793.228,-702.806 801,-698 842.17,-672.54 875.512,-624.424 890.668,-600.015"/>
<polygon fill="midnightblue" stroke="midnightblue" points="774.447,-706.441 765.963,-712.788 776.553,-713.117 774.447,-706.441"/>
</g>
<!-- Node31&#45;&gt;Node22 -->
<g id="edge40" class="edge"><title>Node31&#45;&gt;Node22</title>
<path fill="none" stroke="midnightblue" d="M783.954,-654.691C789.798,-652.643 795.542,-650.414 801,-648 830.145,-635.107 860.589,-614.333 879.777,-600.193"/>
<polygon fill="midnightblue" stroke="midnightblue" points="782.452,-651.501 774.058,-657.966 784.652,-658.146 782.452,-651.501"/>
</g>
<!-- Node32&#45;&gt;Node22 -->
<g id="edge42" class="edge"><title>Node32&#45;&gt;Node22</title>
<path fill="none" stroke="midnightblue" d="M766.895,-617.43C778.229,-615.065 790.001,-612.524 801,-610 816.476,-606.449 833.245,-602.304 848.485,-598.423"/>
<polygon fill="midnightblue" stroke="midnightblue" points="766.163,-614.007 757.078,-619.459 767.579,-620.862 766.163,-614.007"/>
</g>
<!-- Node33&#45;&gt;Node22 -->
<g id="edge45" class="edge"><title>Node33&#45;&gt;Node22</title>
<path fill="none" stroke="midnightblue" d="M774.675,-585C798.822,-585 825.74,-585 848.379,-585"/>
<polygon fill="midnightblue" stroke="midnightblue" points="774.516,-581.5 764.516,-585 774.516,-588.5 774.516,-581.5"/>
</g>
<!-- Node34&#45;&gt;Node22 -->
<g id="edge47" class="edge"><title>Node34&#45;&gt;Node22</title>
<path fill="none" stroke="midnightblue" d="M781.143,-515.25C787.955,-517.193 794.673,-519.43 801,-522 830.903,-534.146 861.658,-555.507 880.672,-569.951"/>
<polygon fill="midnightblue" stroke="midnightblue" points="781.689,-511.774 771.127,-512.607 779.903,-518.542 781.689,-511.774"/>
</g>
<!-- Node36&#45;&gt;Node22 -->
<g id="edge50" class="edge"><title>Node36&#45;&gt;Node22</title>
<path fill="none" stroke="midnightblue" d="M793.201,-390.904C795.917,-392.441 798.528,-394.134 801,-396 860.956,-441.246 887.762,-533.578 896.292,-569.87"/>
<polygon fill="midnightblue" stroke="midnightblue" points="794.734,-387.757 784.213,-386.509 791.659,-394.046 794.734,-387.757"/>
</g>
<!-- Node37&#45;&gt;Node4 -->
<g id="edge52" class="edge"><title>Node37&#45;&gt;Node4</title>
<path fill="none" stroke="midnightblue" d="M224.872,-231.258C242.742,-223.486 266.243,-214.292 288,-209 341.94,-195.881 404.869,-189.932 450.522,-187.236"/>
<polygon fill="midnightblue" stroke="midnightblue" points="223.285,-228.134 215.571,-235.396 226.131,-234.529 223.285,-228.134"/>
</g>
<!-- Node37&#45;&gt;Node23 -->
<g id="edge53" class="edge"><title>Node37&#45;&gt;Node23</title>
<path fill="none" stroke="midnightblue" d="M252.911,-254.337C264.497,-255.863 276.614,-257.204 288,-258 411.051,-266.605 554.922,-260.72 637.9,-255.778"/>
<polygon fill="midnightblue" stroke="midnightblue" points="253.283,-250.855 242.898,-252.957 252.327,-257.789 253.283,-250.855"/>
</g>
<!-- Node38 -->
<g id="node38" class="node"><title>Node38</title>
<g id="a_node38"><a xlink:href="../../df/dcb/class_mavlink_ftp_test.html#afc222033663d3dbd9946fda1cd4d77e1" target="_top" xlink:title="MavlinkFtpTest::_receive\l_message_handler_burst">
<polygon fill="white" stroke="black" points="288,-219 288,-249 415,-249 415,-219 288,-219"/>
<text text-anchor="start" x="296" y="-237" font-family="Helvetica,sans-Serif" font-size="10.00">MavlinkFtpTest::_receive</text>
<text text-anchor="middle" x="351.5" y="-226" font-family="Helvetica,sans-Serif" font-size="10.00">_message_handler_burst</text>
</a>
</g>
</g>
<!-- Node37&#45;&gt;Node38 -->
<g id="edge54" class="edge"><title>Node37&#45;&gt;Node38</title>
<path fill="none" stroke="midnightblue" d="M253.032,-240.917C264.342,-240.114 276.26,-239.269 287.731,-238.455"/>
<polygon fill="midnightblue" stroke="midnightblue" points="252.574,-237.441 242.847,-241.64 253.07,-244.423 252.574,-237.441"/>
</g>
<!-- Node39 -->
<g id="node39" class="node"><title>Node39</title>
<g id="a_node39"><a xlink:href="../../df/dcb/class_mavlink_ftp_test.html#aab2f6a03785d15b846b220e2cc7a553e" target="_top" xlink:title="Static method used as callback from MavlinkFTP for stream download testing. ">
<polygon fill="white" stroke="black" points="452,-219 452,-249 577,-249 577,-219 452,-219"/>
<text text-anchor="start" x="460" y="-237" font-family="Helvetica,sans-Serif" font-size="10.00">MavlinkFtpTest::receive</text>
<text text-anchor="middle" x="514.5" y="-226" font-family="Helvetica,sans-Serif" font-size="10.00">_message_handler_burst</text>
</a>
</g>
</g>
<!-- Node38&#45;&gt;Node39 -->
<g id="edge55" class="edge"><title>Node38&#45;&gt;Node39</title>
<path fill="none" stroke="midnightblue" d="M425.446,-234C434.236,-234 443.148,-234 451.757,-234"/>
<polygon fill="midnightblue" stroke="midnightblue" points="425.208,-230.5 415.208,-234 425.208,-237.5 425.208,-230.5"/>
</g>
<!-- Node39&#45;&gt;Node23 -->
<g id="edge56" class="edge"><title>Node39&#45;&gt;Node23</title>
<path fill="none" stroke="midnightblue" d="M587.363,-240.396C603.847,-241.863 621.334,-243.42 637.685,-244.875"/>
<polygon fill="midnightblue" stroke="midnightblue" points="587.519,-236.896 577.248,-239.496 586.899,-243.869 587.519,-236.896"/>
</g>
</g>
</svg>
