<?xml version="1.0" encoding="UTF-8" standalone="no"?>
<!DOCTYPE svg PUBLIC "-//W3C//DTD SVG 1.1//EN"
 "http://www.w3.org/Graphics/SVG/1.1/DTD/svg11.dtd">
<!-- Generated by graphviz version 2.40.1 (20161225.0304)
 -->
<!-- Title: MavlinkFTP::handle_message Pages: 1 -->
<svg width="1155pt" height="641pt"
 viewBox="0.00 0.00 1155.00 641.03" xmlns="http://www.w3.org/2000/svg" xmlns:xlink="http://www.w3.org/1999/xlink">
<g id="graph0" class="graph" transform="scale(1 1) rotate(0) translate(4 637.0317)">
<title>MavlinkFTP::handle_message</title>
<polygon fill="#ffffff" stroke="transparent" points="-4,4 -4,-637.0317 1151,-637.0317 1151,4 -4,4"/>
<!-- Node682 -->
<g id="node1" class="node">
<title>Node682</title>
<polygon fill="#bfbfbf" stroke="#000000" points="0,-347.5 0,-377.5 104,-377.5 104,-347.5 0,-347.5"/>
<text text-anchor="start" x="8" y="-365.5" font-family="Helvetica,sans-Serif" font-size="10.00" fill="#000000">MavlinkFTP::handle</text>
<text text-anchor="middle" x="52" y="-354.5" font-family="Helvetica,sans-Serif" font-size="10.00" fill="#000000">_message</text>
</g>
<!-- Node683 -->
<g id="node2" class="node">
<title>Node683</title>
<g id="a_node2"><a xlink:href="../../df/dcb/class_mavlink_ftp_test.html#aaf9c9a382d34831145791e51bdb33e02" target="_top" xlink:title="Tests for correct reponse to a payload which an invalid data size field. ">
<polygon fill="#ffffff" stroke="#000000" points="142.5,-576.5 142.5,-606.5 253.5,-606.5 253.5,-576.5 142.5,-576.5"/>
<text text-anchor="start" x="150.5" y="-594.5" font-family="Helvetica,sans-Serif" font-size="10.00" fill="#000000">MavlinkFtpTest::_bad</text>
<text text-anchor="middle" x="198" y="-583.5" font-family="Helvetica,sans-Serif" font-size="10.00" fill="#000000">_datasize_test</text>
</a>
</g>
</g>
<!-- Node682&#45;&gt;Node683 -->
<g id="edge1" class="edge">
<title>Node682&#45;&gt;Node683</title>
<path fill="none" stroke="#191970" d="M66.0134,-386.557C83.032,-415.5427 112.8379,-465.5761 140,-507.5 155.8033,-531.892 175.1619,-559.5054 187.0348,-576.2023"/>
<polygon fill="#191970" stroke="#191970" points="69.0306,-384.783 60.9568,-377.9226 62.9902,-388.3205 69.0306,-384.783"/>
</g>
<!-- Node685 -->
<g id="node4" class="node">
<title>Node685</title>
<g id="a_node4"><a xlink:href="../../df/dcb/class_mavlink_ftp_test.html#a04b5e3a63b5b5f31ac55c64f332c9bb7" target="_top" xlink:title="Tests for correct reponse to a Read command on an open session. ">
<polygon fill="#ffffff" stroke="#000000" points="316,-575 316,-594 455,-594 455,-575 316,-575"/>
<text text-anchor="middle" x="385.5" y="-582" font-family="Helvetica,sans-Serif" font-size="10.00" fill="#000000">MavlinkFtpTest::_burst_test</text>
</a>
</g>
</g>
<!-- Node682&#45;&gt;Node685 -->
<g id="edge3" class="edge">
<title>Node682&#45;&gt;Node685</title>
<path fill="none" stroke="#191970" d="M71.4726,-385.2589C109.3169,-427.9048 197.4209,-519.6643 292,-565.5 300.0493,-569.4009 308.8631,-572.5016 317.7607,-574.9659"/>
<polygon fill="#191970" stroke="#191970" points="74.0212,-382.8568 64.7935,-377.6509 68.7607,-387.4749 74.0212,-382.8568"/>
</g>
<!-- Node686 -->
<g id="node5" class="node">
<title>Node686</title>
<g id="a_node5"><a xlink:href="../../df/dcb/class_mavlink_ftp_test.html#a915076c4c29ebb5d433b104fa44ca112" target="_top" xlink:title="Sends the specified FTP message to the server and returns response. ">
<polygon fill="#ffffff" stroke="#000000" points="140,-325.5 140,-355.5 256,-355.5 256,-325.5 140,-325.5"/>
<text text-anchor="start" x="148" y="-343.5" font-family="Helvetica,sans-Serif" font-size="10.00" fill="#000000">MavlinkFtpTest::_send</text>
<text text-anchor="middle" x="198" y="-332.5" font-family="Helvetica,sans-Serif" font-size="10.00" fill="#000000">_receive_msg</text>
</a>
</g>
</g>
<!-- Node682&#45;&gt;Node686 -->
<g id="edge5" class="edge">
<title>Node682&#45;&gt;Node686</title>
<path fill="none" stroke="#191970" d="M114.4591,-353.0884C122.8937,-351.8174 131.5201,-350.5175 139.875,-349.2586"/>
<polygon fill="#191970" stroke="#191970" points="113.6638,-349.6686 104.297,-354.6196 114.7069,-356.5905 113.6638,-349.6686"/>
</g>
<!-- Node699 -->
<g id="node18" class="node">
<title>Node699</title>
<g id="a_node18"><a xlink:href="../../da/d89/class_mavlink_receiver.html#a2a2904ed386bbb6a4ff3528527006a58" target="_top" xlink:title="Receive data from UART/UDP. ">
<polygon fill="#ffffff" stroke="#000000" points="141.5,-159 141.5,-178 254.5,-178 254.5,-159 141.5,-159"/>
<text text-anchor="middle" x="198" y="-166" font-family="Helvetica,sans-Serif" font-size="10.00" fill="#000000">MavlinkReceiver::Run</text>
</a>
</g>
</g>
<!-- Node682&#45;&gt;Node699 -->
<g id="edge28" class="edge">
<title>Node682&#45;&gt;Node699</title>
<path fill="none" stroke="#191970" d="M69.5659,-339.159C101.6437,-296.535 168.4446,-207.7723 190.6472,-178.2701"/>
<polygon fill="#191970" stroke="#191970" points="66.673,-337.1824 63.4564,-347.2771 72.2661,-341.3916 66.673,-337.1824"/>
</g>
<!-- Node684 -->
<g id="node3" class="node">
<title>Node684</title>
<g id="a_node3"><a xlink:href="../../df/dcb/class_mavlink_ftp_test.html#a74480ea701868cee4c374fb8bfd1791b" target="_top" xlink:title="Runs all the unit tests. ">
<polygon fill="#ffffff" stroke="#000000" points="526.5,-301.5 526.5,-331.5 630.5,-331.5 630.5,-301.5 526.5,-301.5"/>
<text text-anchor="start" x="534.5" y="-319.5" font-family="Helvetica,sans-Serif" font-size="10.00" fill="#000000">MavlinkFtpTest::run</text>
<text text-anchor="middle" x="578.5" y="-308.5" font-family="Helvetica,sans-Serif" font-size="10.00" fill="#000000">_tests</text>
</a>
</g>
</g>
<!-- Node683&#45;&gt;Node684 -->
<g id="edge2" class="edge">
<title>Node683&#45;&gt;Node684</title>
<path fill="none" stroke="#191970" d="M245.3919,-609.7925C305.6239,-629.6896 410.0372,-652.581 479,-603.5 525.7248,-570.2458 564.8766,-386.3308 575.596,-331.7647"/>
<polygon fill="#191970" stroke="#191970" points="246.3516,-606.422 235.7571,-606.5103 244.0942,-613.048 246.3516,-606.422"/>
</g>
<!-- Node685&#45;&gt;Node684 -->
<g id="edge4" class="edge">
<title>Node685&#45;&gt;Node684</title>
<path fill="none" stroke="#191970" d="M464.8489,-574.504C469.9229,-572.0506 474.7082,-569.0825 479,-565.5 554.0507,-502.8535 572.9261,-375.4312 577.2863,-331.6615"/>
<polygon fill="#191970" stroke="#191970" points="463.3551,-571.3341 455.448,-578.386 466.0269,-577.8042 463.3551,-571.3341"/>
</g>
<!-- Node686&#45;&gt;Node685 -->
<g id="edge20" class="edge">
<title>Node686&#45;&gt;Node685</title>
<path fill="none" stroke="#191970" d="M208.2962,-365.1711C232.6681,-423.5662 291.8701,-565.3933 292,-565.5 298.9113,-571.1783 307.0672,-575.3064 315.635,-578.2858"/>
<polygon fill="#191970" stroke="#191970" points="211.3848,-363.4842 204.3032,-355.6038 204.9249,-366.1804 211.3848,-363.4842"/>
</g>
<!-- Node687 -->
<g id="node6" class="node">
<title>Node687</title>
<g id="a_node6"><a xlink:href="../../df/dcb/class_mavlink_ftp_test.html#a57763e02bcc83361dd4b9d0fcaa2d411" target="_top" xlink:title="Tests for correct behavior of an Ack response. ">
<polygon fill="#ffffff" stroke="#000000" points="319,-537 319,-556 452,-556 452,-537 319,-537"/>
<text text-anchor="middle" x="385.5" y="-544" font-family="Helvetica,sans-Serif" font-size="10.00" fill="#000000">MavlinkFtpTest::_ack_test</text>
</a>
</g>
</g>
<!-- Node686&#45;&gt;Node687 -->
<g id="edge6" class="edge">
<title>Node686&#45;&gt;Node687</title>
<path fill="none" stroke="#191970" d="M207.2402,-365.0957C224.8991,-410.8207 264.1571,-506.2128 292,-527.5 299.8954,-533.5364 309.226,-537.787 318.8853,-540.7572"/>
<polygon fill="#191970" stroke="#191970" points="210.4601,-363.7167 203.6185,-355.627 203.922,-366.2175 210.4601,-363.7167"/>
</g>
<!-- Node688 -->
<g id="node7" class="node">
<title>Node688</title>
<g id="a_node7"><a xlink:href="../../df/dcb/class_mavlink_ftp_test.html#a29e4f7f042236e2bf3c68ab7b811a414" target="_top" xlink:title="Tests for correct response to an invalid opcpde. ">
<polygon fill="#ffffff" stroke="#000000" points="330,-487.5 330,-517.5 441,-517.5 441,-487.5 330,-487.5"/>
<text text-anchor="start" x="338" y="-505.5" font-family="Helvetica,sans-Serif" font-size="10.00" fill="#000000">MavlinkFtpTest::_bad</text>
<text text-anchor="middle" x="385.5" y="-494.5" font-family="Helvetica,sans-Serif" font-size="10.00" fill="#000000">_opcode_test</text>
</a>
</g>
</g>
<!-- Node686&#45;&gt;Node688 -->
<g id="edge8" class="edge">
<title>Node686&#45;&gt;Node688</title>
<path fill="none" stroke="#191970" d="M208.3241,-365.147C222.5666,-396.1045 251.1927,-448.6526 292,-477.5 303.1138,-485.3565 316.5552,-490.7442 329.7386,-494.4387"/>
<polygon fill="#191970" stroke="#191970" points="211.4759,-363.621 204.2081,-355.912 205.0822,-366.4707 211.4759,-363.621"/>
</g>
<!-- Node689 -->
<g id="node8" class="node">
<title>Node689</title>
<g id="a_node8"><a xlink:href="../../df/dcb/class_mavlink_ftp_test.html#ae2b0c7ae31c81ddebef9631065ff4a4f" target="_top" xlink:title="MavlinkFtpTest::_list_test">
<polygon fill="#ffffff" stroke="#000000" points="320.5,-449 320.5,-468 450.5,-468 450.5,-449 320.5,-449"/>
<text text-anchor="middle" x="385.5" y="-456" font-family="Helvetica,sans-Serif" font-size="10.00" fill="#000000">MavlinkFtpTest::_list_test</text>
</a>
</g>
</g>
<!-- Node686&#45;&gt;Node689 -->
<g id="edge10" class="edge">
<title>Node686&#45;&gt;Node689</title>
<path fill="none" stroke="#191970" d="M213.5933,-363.8584C230.2263,-386.8345 258.7255,-421.0668 292,-439.5 300.6938,-444.3161 310.4484,-447.9184 320.2892,-450.6112"/>
<polygon fill="#191970" stroke="#191970" points="216.4366,-361.817 207.8144,-355.6601 210.7152,-365.8501 216.4366,-361.817"/>
</g>
<!-- Node690 -->
<g id="node9" class="node">
<title>Node690</title>
<g id="a_node9"><a xlink:href="../../df/dcb/class_mavlink_ftp_test.html#a219f618189d98b00bc9ac4932cdbfcff" target="_top" xlink:title="Tests for correct response to a List command on a valid directory, but with an offset that is beyond ...">
<polygon fill="#ffffff" stroke="#000000" points="331.5,-399.5 331.5,-429.5 439.5,-429.5 439.5,-399.5 331.5,-399.5"/>
<text text-anchor="start" x="339.5" y="-417.5" font-family="Helvetica,sans-Serif" font-size="10.00" fill="#000000">MavlinkFtpTest::_list</text>
<text text-anchor="middle" x="385.5" y="-406.5" font-family="Helvetica,sans-Serif" font-size="10.00" fill="#000000">_eof_test</text>
</a>
</g>
</g>
<!-- Node686&#45;&gt;Node690 -->
<g id="edge11" class="edge">
<title>Node686&#45;&gt;Node690</title>
<path fill="none" stroke="#191970" d="M231.1192,-360.6086C248.7244,-370.6497 271.0145,-382.3591 292,-390.5 304.4995,-395.3489 318.3177,-399.511 331.4097,-402.942"/>
<polygon fill="#191970" stroke="#191970" points="232.7783,-357.5249 222.3715,-355.5376 229.2676,-363.5809 232.7783,-357.5249"/>
</g>
<!-- Node691 -->
<g id="node10" class="node">
<title>Node691</title>
<g id="a_node10"><a xlink:href="../../df/dcb/class_mavlink_ftp_test.html#a221e5c40386cf19dd01490667c578f5c" target="_top" xlink:title="Tests for correct response to an Open command on a file which does not exist. ">
<polygon fill="#ffffff" stroke="#000000" points="327.5,-350.5 327.5,-380.5 443.5,-380.5 443.5,-350.5 327.5,-350.5"/>
<text text-anchor="start" x="335.5" y="-368.5" font-family="Helvetica,sans-Serif" font-size="10.00" fill="#000000">MavlinkFtpTest::_open</text>
<text text-anchor="middle" x="385.5" y="-357.5" font-family="Helvetica,sans-Serif" font-size="10.00" fill="#000000">_badfile_test</text>
</a>
</g>
</g>
<!-- Node686&#45;&gt;Node691 -->
<g id="edge12" class="edge">
<title>Node686&#45;&gt;Node691</title>
<path fill="none" stroke="#191970" d="M266.0678,-349.5757C286.1757,-352.2568 307.9917,-355.1656 327.4094,-357.7546"/>
<polygon fill="#191970" stroke="#191970" points="266.417,-346.0914 256.0421,-348.2389 265.4918,-353.03 266.417,-346.0914"/>
</g>
<!-- Node692 -->
<g id="node11" class="node">
<title>Node692</title>
<g id="a_node11"><a xlink:href="../../df/dcb/class_mavlink_ftp_test.html#a11a6cc55e252ad3a559b3eb9657979b2" target="_top" xlink:title="Tests for correct reponse to an Open command on a file, followed by Terminate. ">
<polygon fill="#ffffff" stroke="#000000" points="327.5,-301.5 327.5,-331.5 443.5,-331.5 443.5,-301.5 327.5,-301.5"/>
<text text-anchor="start" x="335.5" y="-319.5" font-family="Helvetica,sans-Serif" font-size="10.00" fill="#000000">MavlinkFtpTest::_open</text>
<text text-anchor="middle" x="385.5" y="-308.5" font-family="Helvetica,sans-Serif" font-size="10.00" fill="#000000">_terminate_test</text>
</a>
</g>
</g>
<!-- Node686&#45;&gt;Node692 -->
<g id="edge14" class="edge">
<title>Node686&#45;&gt;Node692</title>
<path fill="none" stroke="#191970" d="M266.0678,-331.7873C286.1757,-329.2135 307.9917,-326.4211 327.4094,-323.9356"/>
<polygon fill="#191970" stroke="#191970" points="265.5168,-328.3292 256.0421,-333.0706 266.4056,-335.2726 265.5168,-328.3292"/>
</g>
<!-- Node693 -->
<g id="node12" class="node">
<title>Node693</title>
<g id="a_node12"><a xlink:href="../../df/dcb/class_mavlink_ftp_test.html#a8929bf3bafd58a2a928096b55e3157e9" target="_top" xlink:title="Tests for correct reponse to a Terminate command on an invalid session. ">
<polygon fill="#ffffff" stroke="#000000" points="317.5,-252.5 317.5,-282.5 453.5,-282.5 453.5,-252.5 317.5,-252.5"/>
<text text-anchor="start" x="325.5" y="-270.5" font-family="Helvetica,sans-Serif" font-size="10.00" fill="#000000">MavlinkFtpTest::_terminate</text>
<text text-anchor="middle" x="385.5" y="-259.5" font-family="Helvetica,sans-Serif" font-size="10.00" fill="#000000">_badsession_test</text>
</a>
</g>
</g>
<!-- Node686&#45;&gt;Node693 -->
<g id="edge16" class="edge">
<title>Node686&#45;&gt;Node693</title>
<path fill="none" stroke="#191970" d="M233.218,-320.2796C250.5292,-310.9247 271.9381,-300.2051 292,-292.5 301.5683,-288.8251 311.8855,-285.4821 322.0513,-282.5215"/>
<polygon fill="#191970" stroke="#191970" points="231.1387,-317.4283 224.0569,-325.3085 234.5072,-323.5645 231.1387,-317.4283"/>
</g>
<!-- Node694 -->
<g id="node13" class="node">
<title>Node694</title>
<g id="a_node13"><a xlink:href="../../df/dcb/class_mavlink_ftp_test.html#ac87affe2ba5ecbeebf5b3236f204b053" target="_top" xlink:title="Tests for correct reponse to a Read command on an open session. ">
<polygon fill="#ffffff" stroke="#000000" points="317.5,-214 317.5,-233 453.5,-233 453.5,-214 317.5,-214"/>
<text text-anchor="middle" x="385.5" y="-221" font-family="Helvetica,sans-Serif" font-size="10.00" fill="#000000">MavlinkFtpTest::_read_test</text>
</a>
</g>
</g>
<!-- Node686&#45;&gt;Node694 -->
<g id="edge18" class="edge">
<title>Node686&#45;&gt;Node694</title>
<path fill="none" stroke="#191970" d="M214.2416,-317.0175C231.056,-294.5725 259.404,-261.5585 292,-243.5 299.841,-239.156 308.5344,-235.7547 317.3716,-233.0918"/>
<polygon fill="#191970" stroke="#191970" points="211.2383,-315.1958 208.1724,-325.3374 216.8935,-319.3212 211.2383,-315.1958"/>
</g>
<!-- Node695 -->
<g id="node14" class="node">
<title>Node695</title>
<g id="a_node14"><a xlink:href="../../df/dcb/class_mavlink_ftp_test.html#a0a1d262a82c72da06f5bb072dab0ff3d" target="_top" xlink:title="Tests for correct reponse to a Read command on an invalid session. ">
<polygon fill="#ffffff" stroke="#000000" points="328.5,-164.5 328.5,-194.5 442.5,-194.5 442.5,-164.5 328.5,-164.5"/>
<text text-anchor="start" x="336.5" y="-182.5" font-family="Helvetica,sans-Serif" font-size="10.00" fill="#000000">MavlinkFtpTest::_read</text>
<text text-anchor="middle" x="385.5" y="-171.5" font-family="Helvetica,sans-Serif" font-size="10.00" fill="#000000">_badsession_test</text>
</a>
</g>
</g>
<!-- Node686&#45;&gt;Node695 -->
<g id="edge21" class="edge">
<title>Node686&#45;&gt;Node695</title>
<path fill="none" stroke="#191970" d="M208.3721,-316.0323C222.6657,-285.3001 251.3459,-233.1349 292,-204.5 302.7151,-196.9528 315.5807,-191.6838 328.2916,-188.0054"/>
<polygon fill="#191970" stroke="#191970" points="205.1583,-314.6451 204.2399,-325.2001 211.54,-317.5216 205.1583,-314.6451"/>
</g>
<!-- Node696 -->
<g id="node15" class="node">
<title>Node696</title>
<g id="a_node15"><a xlink:href="../../df/dcb/class_mavlink_ftp_test.html#ab790c9cbe943113fef4396e3f8d4ad12" target="_top" xlink:title="MavlinkFtpTest::_removedirectory_test">
<polygon fill="#ffffff" stroke="#000000" points="292,-126 292,-145 479,-145 479,-126 292,-126"/>
<text text-anchor="middle" x="385.5" y="-133" font-family="Helvetica,sans-Serif" font-size="10.00" fill="#000000">MavlinkFtpTest::_removedirectory_test</text>
</a>
</g>
</g>
<!-- Node686&#45;&gt;Node696 -->
<g id="edge23" class="edge">
<title>Node686&#45;&gt;Node696</title>
<path fill="none" stroke="#191970" d="M203.3457,-315.6602C213.3628,-275.4089 238.9193,-196.3321 292,-155.5 297.5261,-151.2491 303.7556,-147.8547 310.309,-145.1501"/>
<polygon fill="#191970" stroke="#191970" points="199.9222,-314.9284 201.024,-325.4658 206.7339,-316.5413 199.9222,-314.9284"/>
</g>
<!-- Node697 -->
<g id="node16" class="node">
<title>Node697</title>
<g id="a_node16"><a xlink:href="../../df/dcb/class_mavlink_ftp_test.html#aed79255ba80c80b21583281b319335ce" target="_top" xlink:title="MavlinkFtpTest::_createdirectory_test">
<polygon fill="#ffffff" stroke="#000000" points="294.5,-88 294.5,-107 476.5,-107 476.5,-88 294.5,-88"/>
<text text-anchor="middle" x="385.5" y="-95" font-family="Helvetica,sans-Serif" font-size="10.00" fill="#000000">MavlinkFtpTest::_createdirectory_test</text>
</a>
</g>
</g>
<!-- Node686&#45;&gt;Node697 -->
<g id="edge25" class="edge">
<title>Node686&#45;&gt;Node697</title>
<path fill="none" stroke="#191970" d="M206.8862,-315.7777C227.0159,-260.3518 275.6154,-129.9397 292,-116.5 296.6105,-112.7181 301.7734,-109.6242 307.242,-107.0995"/>
<polygon fill="#191970" stroke="#191970" points="203.5849,-314.6149 203.473,-325.2092 210.1671,-316.997 203.5849,-314.6149"/>
</g>
<!-- Node698 -->
<g id="node17" class="node">
<title>Node698</title>
<g id="a_node17"><a xlink:href="../../df/dcb/class_mavlink_ftp_test.html#a8151357240e4a146b994a39105d0f7e7" target="_top" xlink:title="MavlinkFtpTest::_removefile_test">
<polygon fill="#ffffff" stroke="#000000" points="304.5,-50 304.5,-69 466.5,-69 466.5,-50 304.5,-50"/>
<text text-anchor="middle" x="385.5" y="-57" font-family="Helvetica,sans-Serif" font-size="10.00" fill="#000000">MavlinkFtpTest::_removefile_test</text>
</a>
</g>
</g>
<!-- Node686&#45;&gt;Node698 -->
<g id="edge26" class="edge">
<title>Node686&#45;&gt;Node698</title>
<path fill="none" stroke="#191970" d="M207.7842,-315.6905C219.5916,-285.5272 239.8684,-233.0062 256,-187.5 273.0462,-139.4137 253.8514,-112.3755 292,-78.5 296.2112,-74.7605 300.9531,-71.6791 306.0104,-69.1471"/>
<polygon fill="#191970" stroke="#191970" points="204.3771,-314.7916 203.9816,-325.379 210.8932,-317.3491 204.3771,-314.7916"/>
</g>
<!-- Node687&#45;&gt;Node684 -->
<g id="edge7" class="edge">
<title>Node687&#45;&gt;Node684</title>
<path fill="none" stroke="#191970" d="M462.0222,-537.359C468.1041,-534.7634 473.8688,-531.5262 479,-527.5 544.6372,-475.9971 569.068,-370.7546 576.1074,-331.6089"/>
<polygon fill="#191970" stroke="#191970" points="460.4401,-534.2107 452.2493,-540.9309 462.8431,-540.7854 460.4401,-534.2107"/>
</g>
<!-- Node688&#45;&gt;Node684 -->
<g id="edge9" class="edge">
<title>Node688&#45;&gt;Node684</title>
<path fill="none" stroke="#191970" d="M450.7313,-491.9205C460.7996,-488.4075 470.6203,-483.7293 479,-477.5 531.2133,-438.6856 562.1806,-363.6011 573.5325,-331.5708"/>
<polygon fill="#191970" stroke="#191970" points="449.5445,-488.6243 441.0411,-494.9443 451.6297,-495.3065 449.5445,-488.6243"/>
</g>
<!-- Node691&#45;&gt;Node684 -->
<g id="edge13" class="edge">
<title>Node691&#45;&gt;Node684</title>
<path fill="none" stroke="#191970" d="M453.4063,-348.2595C477.3649,-342.1768 503.9085,-335.4377 526.3584,-329.738"/>
<polygon fill="#191970" stroke="#191970" points="452.4993,-344.8787 443.6681,-350.7319 454.2219,-351.6634 452.4993,-344.8787"/>
</g>
<!-- Node692&#45;&gt;Node684 -->
<g id="edge15" class="edge">
<title>Node692&#45;&gt;Node684</title>
<path fill="none" stroke="#191970" d="M453.7259,-316.5C477.6008,-316.5 504.0083,-316.5 526.3584,-316.5"/>
<polygon fill="#191970" stroke="#191970" points="453.6681,-313.0001 443.6681,-316.5 453.6681,-320.0001 453.6681,-313.0001"/>
</g>
<!-- Node693&#45;&gt;Node684 -->
<g id="edge17" class="edge">
<title>Node693&#45;&gt;Node684</title>
<path fill="none" stroke="#191970" d="M454.6651,-285.06C478.2573,-291.0498 504.2252,-297.6427 526.262,-303.2375"/>
<polygon fill="#191970" stroke="#191970" points="455.2718,-281.6031 444.718,-282.5346 453.5492,-288.3879 455.2718,-281.6031"/>
</g>
<!-- Node694&#45;&gt;Node684 -->
<g id="edge19" class="edge">
<title>Node694&#45;&gt;Node684</title>
<path fill="none" stroke="#191970" d="M457.9536,-235.7779C465.2013,-237.956 472.3364,-240.5094 479,-243.5 511.6428,-258.1498 544.0394,-284.7515 562.6198,-301.4774"/>
<polygon fill="#191970" stroke="#191970" points="458.6056,-232.3269 448.0345,-233.0345 456.7396,-239.0736 458.6056,-232.3269"/>
</g>
<!-- Node695&#45;&gt;Node684 -->
<g id="edge22" class="edge">
<title>Node695&#45;&gt;Node684</title>
<path fill="none" stroke="#191970" d="M452.3096,-192.1914C461.6449,-195.4205 470.8279,-199.4575 479,-204.5 519.9494,-229.7671 553.6762,-277.0053 569.2342,-301.2643"/>
<polygon fill="#191970" stroke="#191970" points="453.152,-188.787 442.5621,-189.1104 451.0423,-195.4616 453.152,-188.787"/>
</g>
<!-- Node696&#45;&gt;Node684 -->
<g id="edge24" class="edge">
<title>Node696&#45;&gt;Node684</title>
<path fill="none" stroke="#191970" d="M468.3903,-149.2127C472.0999,-151.0606 475.661,-153.1465 479,-155.5 532.1773,-192.9828 562.6174,-268.7955 573.681,-301.2241"/>
<polygon fill="#191970" stroke="#191970" points="469.4717,-145.8665 458.9052,-145.0925 466.6827,-152.2869 469.4717,-145.8665"/>
</g>
<!-- Node698&#45;&gt;Node684 -->
<g id="edge27" class="edge">
<title>Node698&#45;&gt;Node684</title>
<path fill="none" stroke="#191970" d="M472.6551,-73.9178C474.8621,-75.32 476.984,-76.8441 479,-78.5 551.3292,-137.9102 571.877,-258.9462 576.984,-301.3866"/>
<polygon fill="#191970" stroke="#191970" points="474.2223,-70.7861 463.7636,-69.0926 470.8835,-76.9386 474.2223,-70.7861"/>
</g>
<!-- Node700 -->
<g id="node19" class="node">
<title>Node700</title>
<g id="a_node19"><a xlink:href="../../da/d89/class_mavlink_receiver.html#a4e6d064186fe746bc3934959a991a908" target="_top" xlink:title="MavlinkReceiver::start\l_helper">
<polygon fill="#ffffff" stroke="#000000" points="328,-.5 328,-30.5 443,-30.5 443,-.5 328,-.5"/>
<text text-anchor="start" x="336" y="-18.5" font-family="Helvetica,sans-Serif" font-size="10.00" fill="#000000">MavlinkReceiver::start</text>
<text text-anchor="middle" x="385.5" y="-7.5" font-family="Helvetica,sans-Serif" font-size="10.00" fill="#000000">_helper</text>
</a>
</g>
</g>
<!-- Node699&#45;&gt;Node700 -->
<g id="edge29" class="edge">
<title>Node699&#45;&gt;Node700</title>
<path fill="none" stroke="#191970" d="M206.7078,-149.5474C220.6387,-121.378 250.6374,-68.7564 292,-40.5 302.6833,-33.2018 315.3989,-28.0322 327.9576,-24.371"/>
<polygon fill="#191970" stroke="#191970" points="203.4734,-148.1979 202.3111,-158.7288 209.7869,-151.2213 203.4734,-148.1979"/>
</g>
<!-- Node701 -->
<g id="node20" class="node">
<title>Node701</title>
<g id="a_node20"><a xlink:href="../../da/d89/class_mavlink_receiver.html#aae6564d759626eeebeb19a9dfbdcaf6d" target="_top" xlink:title="Start the receiver thread. ">
<polygon fill="#ffffff" stroke="#000000" points="515,-.5 515,-30.5 642,-30.5 642,-.5 515,-.5"/>
<text text-anchor="start" x="523" y="-18.5" font-family="Helvetica,sans-Serif" font-size="10.00" fill="#000000">MavlinkReceiver::receive</text>
<text text-anchor="middle" x="578.5" y="-7.5" font-family="Helvetica,sans-Serif" font-size="10.00" fill="#000000">_start</text>
</a>
</g>
</g>
<!-- Node700&#45;&gt;Node701 -->
<g id="edge30" class="edge">
<title>Node700&#45;&gt;Node701</title>
<path fill="none" stroke="#191970" d="M453.3902,-15.5C473.3334,-15.5 495.0689,-15.5 514.7441,-15.5"/>
<polygon fill="#191970" stroke="#191970" points="453.145,-12.0001 443.1449,-15.5 453.1449,-19.0001 453.145,-12.0001"/>
</g>
<!-- Node702 -->
<g id="node21" class="node">
<title>Node702</title>
<g id="a_node21"><a xlink:href="../../df/d1f/class_mavlink.html#a2325401a575b272fc1474d502388241f" target="_top" xlink:title="Main mavlink task. ">
<polygon fill="#ffffff" stroke="#000000" points="678,-6 678,-25 779,-25 779,-6 678,-6"/>
<text text-anchor="middle" x="728.5" y="-13" font-family="Helvetica,sans-Serif" font-size="10.00" fill="#000000">Mavlink::task_main</text>
</a>
</g>
</g>
<!-- Node701&#45;&gt;Node702 -->
<g id="edge31" class="edge">
<title>Node701&#45;&gt;Node702</title>
<path fill="none" stroke="#191970" d="M652.2854,-15.5C660.9828,-15.5 669.702,-15.5 677.9749,-15.5"/>
<polygon fill="#191970" stroke="#191970" points="652.1135,-12.0001 642.1135,-15.5 652.1135,-19.0001 652.1135,-12.0001"/>
</g>
<!-- Node703 -->
<g id="node22" class="node">
<title>Node703</title>
<g id="a_node22"><a xlink:href="../../df/d1f/class_mavlink.html#aad2c17a259e6cfbfe20113c8da8f6cae" target="_top" xlink:title="Mavlink::start_helper">
<polygon fill="#ffffff" stroke="#000000" points="815,-6 815,-25 922,-25 922,-6 815,-6"/>
<text text-anchor="middle" x="868.5" y="-13" font-family="Helvetica,sans-Serif" font-size="10.00" fill="#000000">Mavlink::start_helper</text>
</a>
</g>
</g>
<!-- Node702&#45;&gt;Node703 -->
<g id="edge32" class="edge">
<title>Node702&#45;&gt;Node703</title>
<path fill="none" stroke="#191970" d="M789.2551,-15.5C797.7299,-15.5 806.3886,-15.5 814.7227,-15.5"/>
<polygon fill="#191970" stroke="#191970" points="789.0432,-12.0001 779.0432,-15.5 789.0432,-19.0001 789.0432,-12.0001"/>
</g>
<!-- Node704 -->
<g id="node23" class="node">
<title>Node704</title>
<g id="a_node23"><a xlink:href="../../df/d1f/class_mavlink.html#a3f96c3503833a477332c8584bb8fbc67" target="_top" xlink:title="Start the mavlink task. ">
<polygon fill="#ffffff" stroke="#000000" points="958,-6 958,-25 1034,-25 1034,-6 958,-6"/>
<text text-anchor="middle" x="996" y="-13" font-family="Helvetica,sans-Serif" font-size="10.00" fill="#000000">Mavlink::start</text>
</a>
</g>
</g>
<!-- Node703&#45;&gt;Node704 -->
<g id="edge33" class="edge">
<title>Node703&#45;&gt;Node704</title>
<path fill="none" stroke="#191970" d="M932.3846,-15.5C941.0906,-15.5 949.7932,-15.5 957.843,-15.5"/>
<polygon fill="#191970" stroke="#191970" points="932.202,-12.0001 922.2019,-15.5 932.2019,-19.0001 932.202,-12.0001"/>
</g>
<!-- Node705 -->
<g id="node24" class="node">
<title>Node705</title>
<g id="a_node24"><a xlink:href="../../de/d24/mavlink__main_8cpp.html#ab81e9b009119f143f3b54a1390b92427" target="_top" xlink:title="Mavlink app start / stop handling function. ">
<polygon fill="#ffffff" stroke="#000000" points="1070,-6 1070,-25 1147,-25 1147,-6 1070,-6"/>
<text text-anchor="middle" x="1108.5" y="-13" font-family="Helvetica,sans-Serif" font-size="10.00" fill="#000000">mavlink_main</text>
</a>
</g>
</g>
<!-- Node704&#45;&gt;Node705 -->
<g id="edge34" class="edge">
<title>Node704&#45;&gt;Node705</title>
<path fill="none" stroke="#191970" d="M1044.2672,-15.5C1052.7573,-15.5 1061.495,-15.5 1069.6854,-15.5"/>
<polygon fill="#191970" stroke="#191970" points="1044.0874,-12.0001 1034.0874,-15.5 1044.0873,-19.0001 1044.0874,-12.0001"/>
</g>
</g>
</svg>
