<?xml version="1.0" encoding="UTF-8" standalone="no"?>
<!DOCTYPE svg PUBLIC "-//W3C//DTD SVG 1.1//EN"
 "http://www.w3.org/Graphics/SVG/1.1/DTD/svg11.dtd">
<!-- Generated by graphviz version 2.38.0 (20140413.2041)
 -->
<!-- Title: src/lib/matrix/matrix/helper_functions.hpp Pages: 1 -->
<svg width="984pt" height="207pt"
 viewBox="0.00 0.00 983.50 207.00" xmlns="http://www.w3.org/2000/svg" xmlns:xlink="http://www.w3.org/1999/xlink">
<g id="graph0" class="graph" transform="scale(1 1) rotate(0) translate(4 203)">
<title>src/lib/matrix/matrix/helper_functions.hpp</title>
<polygon fill="white" stroke="none" points="-4,4 -4,-203 979.5,-203 979.5,4 -4,4"/>
<!-- Node1 -->
<g id="node1" class="node"><title>Node1</title>
<polygon fill="#bfbfbf" stroke="black" points="495.5,-168.5 495.5,-198.5 605.5,-198.5 605.5,-168.5 495.5,-168.5"/>
<text text-anchor="start" x="503.5" y="-186.5" font-family="Helvetica,sans-Serif" font-size="10.00">src/lib/matrix/matrix</text>
<text text-anchor="middle" x="550.5" y="-175.5" font-family="Helvetica,sans-Serif" font-size="10.00">/helper_functions.hpp</text>
</g>
<!-- Node2 -->
<g id="node2" class="node"><title>Node2</title>
<g id="a_node2"><a xlink:href="../../d4/d78/math_8hpp.html" target="_top" xlink:title="math.hpp">
<polygon fill="white" stroke="black" points="448,-112.5 448,-131.5 505,-131.5 505,-112.5 448,-112.5"/>
<text text-anchor="middle" x="476.5" y="-119.5" font-family="Helvetica,sans-Serif" font-size="10.00">math.hpp</text>
</a>
</g>
</g>
<!-- Node1&#45;&gt;Node2 -->
<g id="edge1" class="edge"><title>Node1&#45;&gt;Node2</title>
<path fill="none" stroke="midnightblue" d="M532.963,-168.399C521.656,-159.308 506.958,-147.49 495.393,-138.191"/>
<polygon fill="midnightblue" stroke="midnightblue" points="497.254,-135.196 487.268,-131.658 492.868,-140.652 497.254,-135.196"/>
</g>
<!-- Node3 -->
<g id="node3" class="node"><title>Node3</title>
<g id="a_node3"><a xlink:href="../../db/de5/stdlib__imports_8hpp.html" target="_top" xlink:title="This file is needed to shadow the C standard library math functions with ones provided by the C++ sta...">
<polygon fill="white" stroke="black" points="679.5,-56.5 679.5,-75.5 775.5,-75.5 775.5,-56.5 679.5,-56.5"/>
<text text-anchor="middle" x="727.5" y="-63.5" font-family="Helvetica,sans-Serif" font-size="10.00">stdlib_imports.hpp</text>
</a>
</g>
</g>
<!-- Node2&#45;&gt;Node3 -->
<g id="edge2" class="edge"><title>Node2&#45;&gt;Node3</title>
<path fill="none" stroke="midnightblue" d="M505.293,-114.806C547.424,-105.741 626.451,-88.7396 678.013,-77.6466"/>
<polygon fill="midnightblue" stroke="midnightblue" points="678.9,-81.0359 687.94,-75.5108 677.428,-74.1925 678.9,-81.0359"/>
</g>
<!-- Node7 -->
<g id="node7" class="node"><title>Node7</title>
<g id="a_node7"><a xlink:href="../../d8/d49/_matrix_8hpp.html" target="_top" xlink:title="A simple matrix template library. ">
<polygon fill="white" stroke="black" points="110.5,-56.5 110.5,-75.5 172.5,-75.5 172.5,-56.5 110.5,-56.5"/>
<text text-anchor="middle" x="141.5" y="-63.5" font-family="Helvetica,sans-Serif" font-size="10.00">Matrix.hpp</text>
</a>
</g>
</g>
<!-- Node2&#45;&gt;Node7 -->
<g id="edge6" class="edge"><title>Node2&#45;&gt;Node7</title>
<path fill="none" stroke="midnightblue" d="M447.798,-117.944C395.174,-111.576 280.5,-95.959 179.953,-77.3772"/>
<polygon fill="midnightblue" stroke="midnightblue" points="180.43,-73.906 169.958,-75.5112 179.146,-80.7871 180.43,-73.906"/>
</g>
<!-- Node10 -->
<g id="node10" class="node"><title>Node10</title>
<g id="a_node10"><a xlink:href="../../df/d5f/_square_matrix_8hpp.html" target="_top" xlink:title="A square matrix. ">
<polygon fill="white" stroke="black" points="0,-56.5 0,-75.5 93,-75.5 93,-56.5 0,-56.5"/>
<text text-anchor="middle" x="46.5" y="-63.5" font-family="Helvetica,sans-Serif" font-size="10.00">SquareMatrix.hpp</text>
</a>
</g>
</g>
<!-- Node2&#45;&gt;Node10 -->
<g id="edge10" class="edge"><title>Node2&#45;&gt;Node10</title>
<path fill="none" stroke="midnightblue" d="M447.845,-118.461C385.219,-112.272 232.326,-95.5703 99.2602,-76.9431"/>
<polygon fill="midnightblue" stroke="midnightblue" points="99.6998,-73.4705 89.3093,-75.5411 98.7232,-80.4021 99.6998,-73.4705"/>
</g>
<!-- Node11 -->
<g id="node11" class="node"><title>Node11</title>
<g id="a_node11"><a xlink:href="../../db/d20/_vector_8hpp.html" target="_top" xlink:title="Vector class. ">
<polygon fill="white" stroke="black" points="190.5,-56.5 190.5,-75.5 254.5,-75.5 254.5,-56.5 190.5,-56.5"/>
<text text-anchor="middle" x="222.5" y="-63.5" font-family="Helvetica,sans-Serif" font-size="10.00">Vector.hpp</text>
</a>
</g>
</g>
<!-- Node2&#45;&gt;Node11 -->
<g id="edge13" class="edge"><title>Node2&#45;&gt;Node11</title>
<path fill="none" stroke="midnightblue" d="M447.986,-116.198C407.395,-108.416 331.176,-92.4699 262.428,-77.7037"/>
<polygon fill="midnightblue" stroke="midnightblue" points="262.857,-74.216 252.344,-75.5348 261.385,-81.0594 262.857,-74.216"/>
</g>
<!-- Node12 -->
<g id="node12" class="node"><title>Node12</title>
<g id="a_node12"><a xlink:href="../../d3/d12/_vector2_8hpp.html" target="_top" xlink:title="2D vector class. ">
<polygon fill="white" stroke="black" points="273,-56.5 273,-75.5 342,-75.5 342,-56.5 273,-56.5"/>
<text text-anchor="middle" x="307.5" y="-63.5" font-family="Helvetica,sans-Serif" font-size="10.00">Vector2.hpp</text>
</a>
</g>
</g>
<!-- Node2&#45;&gt;Node12 -->
<g id="edge15" class="edge"><title>Node2&#45;&gt;Node12</title>
<path fill="none" stroke="midnightblue" d="M447.772,-113.378C417.42,-104.38 369.994,-89.3129 338.746,-78.8025"/>
<polygon fill="midnightblue" stroke="midnightblue" points="339.805,-75.4661 329.211,-75.5637 337.554,-82.0941 339.805,-75.4661"/>
</g>
<!-- Node13 -->
<g id="node13" class="node"><title>Node13</title>
<g id="a_node13"><a xlink:href="../../d2/d6a/_vector3_8hpp.html" target="_top" xlink:title="3D vector class. ">
<polygon fill="white" stroke="black" points="360,-56.5 360,-75.5 429,-75.5 429,-56.5 360,-56.5"/>
<text text-anchor="middle" x="394.5" y="-63.5" font-family="Helvetica,sans-Serif" font-size="10.00">Vector3.hpp</text>
</a>
</g>
</g>
<!-- Node2&#45;&gt;Node13 -->
<g id="edge17" class="edge"><title>Node2&#45;&gt;Node13</title>
<path fill="none" stroke="midnightblue" d="M458.21,-112.324C443.953,-104.107 424.637,-91.6017 410.888,-81.8069"/>
<polygon fill="midnightblue" stroke="midnightblue" points="412.895,-78.9388 402.766,-75.8339 408.748,-84.578 412.895,-78.9388"/>
</g>
<!-- Node14 -->
<g id="node14" class="node"><title>Node14</title>
<g id="a_node14"><a xlink:href="../../d3/d40/_euler_8hpp.html" target="_top" xlink:title="All rotations and axis systems follow the right&#45;hand rule. ">
<polygon fill="white" stroke="black" points="447.5,-56.5 447.5,-75.5 505.5,-75.5 505.5,-56.5 447.5,-56.5"/>
<text text-anchor="middle" x="476.5" y="-63.5" font-family="Helvetica,sans-Serif" font-size="10.00">Euler.hpp</text>
</a>
</g>
</g>
<!-- Node2&#45;&gt;Node14 -->
<g id="edge19" class="edge"><title>Node2&#45;&gt;Node14</title>
<path fill="none" stroke="midnightblue" d="M471.334,-112.083C469.824,-104.927 469.394,-94.6353 470.042,-85.6911"/>
<polygon fill="midnightblue" stroke="midnightblue" points="473.515,-86.1262 471.369,-75.7511 466.577,-85.2002 473.515,-86.1262"/>
</g>
<!-- Node15 -->
<g id="node15" class="node"><title>Node15</title>
<g id="a_node15"><a xlink:href="../../d9/d6f/_dcm_8hpp.html" target="_top" xlink:title="A direction cosine matrix class. ">
<polygon fill="white" stroke="black" points="523.5,-56.5 523.5,-75.5 579.5,-75.5 579.5,-56.5 523.5,-56.5"/>
<text text-anchor="middle" x="551.5" y="-63.5" font-family="Helvetica,sans-Serif" font-size="10.00">Dcm.hpp</text>
</a>
</g>
</g>
<!-- Node2&#45;&gt;Node15 -->
<g id="edge21" class="edge"><title>Node2&#45;&gt;Node15</title>
<path fill="none" stroke="midnightblue" d="M483.435,-112.324C493.311,-103.9 510.97,-90.9709 525.943,-81.0741"/>
<polygon fill="midnightblue" stroke="midnightblue" points="527.852,-84.0077 534.37,-75.6545 524.066,-78.1203 527.852,-84.0077"/>
</g>
<!-- Node16 -->
<g id="node16" class="node"><title>Node16</title>
<g id="a_node16"><a xlink:href="../../de/d6b/_scalar_8hpp.html" target="_top" xlink:title="Defines conversion of matrix to scalar. ">
<polygon fill="white" stroke="black" points="598,-56.5 598,-75.5 661,-75.5 661,-56.5 598,-56.5"/>
<text text-anchor="middle" x="629.5" y="-63.5" font-family="Helvetica,sans-Serif" font-size="10.00">Scalar.hpp</text>
</a>
</g>
</g>
<!-- Node2&#45;&gt;Node16 -->
<g id="edge23" class="edge"><title>Node2&#45;&gt;Node16</title>
<path fill="none" stroke="midnightblue" d="M495.655,-112.444C519.401,-103.359 560.059,-88.9388 590.426,-78.7831"/>
<polygon fill="midnightblue" stroke="midnightblue" points="591.897,-81.9827 600.29,-75.5164 589.697,-75.3376 591.897,-81.9827"/>
</g>
<!-- Node17 -->
<g id="node17" class="node"><title>Node17</title>
<g id="a_node17"><a xlink:href="../../d6/d42/_quaternion_8hpp.html" target="_top" xlink:title="All rotations and axis systems follow the right&#45;hand rule. ">
<polygon fill="white" stroke="black" points="794,-56.5 794,-75.5 877,-75.5 877,-56.5 794,-56.5"/>
<text text-anchor="middle" x="835.5" y="-63.5" font-family="Helvetica,sans-Serif" font-size="10.00">Quaternion.hpp</text>
</a>
</g>
</g>
<!-- Node2&#45;&gt;Node17 -->
<g id="edge25" class="edge"><title>Node2&#45;&gt;Node17</title>
<path fill="none" stroke="midnightblue" d="M505.186,-116.335C558.641,-108.506 676.268,-92.0013 775.5,-76 778.155,-75.5719 780.885,-75.1211 783.651,-74.6586"/>
<polygon fill="midnightblue" stroke="midnightblue" points="784.479,-78.0685 793.757,-72.9527 783.314,-71.1661 784.479,-78.0685"/>
</g>
<!-- Node18 -->
<g id="node18" class="node"><title>Node18</title>
<g id="a_node18"><a xlink:href="../../de/dbe/_axis_angle_8hpp.html" target="_top" xlink:title="AxisAngle.hpp">
<polygon fill="white" stroke="black" points="895.5,-56.5 895.5,-75.5 975.5,-75.5 975.5,-56.5 895.5,-56.5"/>
<text text-anchor="middle" x="935.5" y="-63.5" font-family="Helvetica,sans-Serif" font-size="10.00">AxisAngle.hpp</text>
</a>
</g>
</g>
<!-- Node2&#45;&gt;Node18 -->
<g id="edge28" class="edge"><title>Node2&#45;&gt;Node18</title>
<path fill="none" stroke="midnightblue" d="M505.069,-118.098C570.95,-111.866 737.579,-96.1211 876.5,-76 879.323,-75.5911 882.231,-75.1418 885.176,-74.669"/>
<polygon fill="midnightblue" stroke="midnightblue" points="885.965,-78.0859 895.257,-72.9945 884.818,-71.1805 885.965,-78.0859"/>
</g>
<!-- Node4 -->
<g id="node4" class="node"><title>Node4</title>
<polygon fill="white" stroke="#bfbfbf" points="642.5,-0.5 642.5,-19.5 686.5,-19.5 686.5,-0.5 642.5,-0.5"/>
<text text-anchor="middle" x="664.5" y="-7.5" font-family="Helvetica,sans-Serif" font-size="10.00">cmath</text>
</g>
<!-- Node3&#45;&gt;Node4 -->
<g id="edge3" class="edge"><title>Node3&#45;&gt;Node4</title>
<path fill="none" stroke="midnightblue" d="M717.378,-56.324C707.974,-48.2631 693.756,-36.0765 682.431,-26.3695"/>
<polygon fill="midnightblue" stroke="midnightblue" points="684.677,-23.6844 674.806,-19.8339 680.121,-28.9993 684.677,-23.6844"/>
</g>
<!-- Node5 -->
<g id="node5" class="node"><title>Node5</title>
<polygon fill="white" stroke="#bfbfbf" points="705,-0.5 705,-19.5 750,-19.5 750,-0.5 705,-0.5"/>
<text text-anchor="middle" x="727.5" y="-7.5" font-family="Helvetica,sans-Serif" font-size="10.00">cstdlib</text>
</g>
<!-- Node3&#45;&gt;Node5 -->
<g id="edge4" class="edge"><title>Node3&#45;&gt;Node5</title>
<path fill="none" stroke="midnightblue" d="M727.5,-56.083C727.5,-49.0059 727.5,-38.8611 727.5,-29.9865"/>
<polygon fill="midnightblue" stroke="midnightblue" points="731,-29.751 727.5,-19.7511 724,-29.7511 731,-29.751"/>
</g>
<!-- Node6 -->
<g id="node6" class="node"><title>Node6</title>
<polygon fill="white" stroke="#bfbfbf" points="768.5,-0.5 768.5,-19.5 824.5,-19.5 824.5,-0.5 768.5,-0.5"/>
<text text-anchor="middle" x="796.5" y="-7.5" font-family="Helvetica,sans-Serif" font-size="10.00">cinttypes</text>
</g>
<!-- Node3&#45;&gt;Node6 -->
<g id="edge5" class="edge"><title>Node3&#45;&gt;Node6</title>
<path fill="none" stroke="midnightblue" d="M738.586,-56.324C748.986,-48.1849 764.761,-35.8395 777.222,-26.0874"/>
<polygon fill="midnightblue" stroke="midnightblue" points="779.494,-28.7533 785.212,-19.8339 775.18,-23.2407 779.494,-28.7533"/>
</g>
<!-- Node7&#45;&gt;Node2 -->
<g id="edge9" class="edge"><title>Node7&#45;&gt;Node2</title>
<path fill="none" stroke="midnightblue" d="M172.572,-72.3226C178.599,-73.6066 184.764,-74.9186 190.5,-76 278.743,-92.6367 382.727,-107.374 437.891,-115.157"/>
<polygon fill="midnightblue" stroke="midnightblue" points="437.54,-118.642 447.931,-116.574 438.518,-111.711 437.54,-118.642"/>
</g>
<!-- Node8 -->
<g id="node8" class="node"><title>Node8</title>
<polygon fill="white" stroke="#bfbfbf" points="89,-0.5 89,-19.5 132,-19.5 132,-0.5 89,-0.5"/>
<text text-anchor="middle" x="110.5" y="-7.5" font-family="Helvetica,sans-Serif" font-size="10.00">cstdio</text>
</g>
<!-- Node7&#45;&gt;Node8 -->
<g id="edge7" class="edge"><title>Node7&#45;&gt;Node8</title>
<path fill="none" stroke="midnightblue" d="M136.381,-56.083C132.092,-48.6127 125.842,-37.7244 120.558,-28.5199"/>
<polygon fill="midnightblue" stroke="midnightblue" points="123.538,-26.6811 115.524,-19.7511 117.467,-30.1662 123.538,-26.6811"/>
</g>
<!-- Node9 -->
<g id="node9" class="node"><title>Node9</title>
<polygon fill="white" stroke="#bfbfbf" points="150.5,-0.5 150.5,-19.5 196.5,-19.5 196.5,-0.5 150.5,-0.5"/>
<text text-anchor="middle" x="173.5" y="-7.5" font-family="Helvetica,sans-Serif" font-size="10.00">cstring</text>
</g>
<!-- Node7&#45;&gt;Node9 -->
<g id="edge8" class="edge"><title>Node7&#45;&gt;Node9</title>
<path fill="none" stroke="midnightblue" d="M146.784,-56.083C151.211,-48.6127 157.663,-37.7244 163.118,-28.5199"/>
<polygon fill="midnightblue" stroke="midnightblue" points="166.227,-30.1383 168.314,-19.7511 160.205,-26.5697 166.227,-30.1383"/>
</g>
<!-- Node10&#45;&gt;Node1 -->
<g id="edge12" class="edge"><title>Node10&#45;&gt;Node1</title>
<path fill="none" stroke="midnightblue" d="M83.8463,-75.5585C168.929,-95.0567 378.064,-142.983 485.09,-167.51"/>
<polygon fill="midnightblue" stroke="midnightblue" points="484.592,-170.987 495.121,-169.809 486.156,-164.164 484.592,-170.987"/>
</g>
<!-- Node10&#45;&gt;Node2 -->
<g id="edge11" class="edge"><title>Node10&#45;&gt;Node2</title>
<path fill="none" stroke="midnightblue" d="M93.2336,-73.4099C99.0819,-74.3197 104.944,-75.2124 110.5,-76 229.745,-92.9032 370.919,-108.716 437.846,-116.302"/>
<polygon fill="midnightblue" stroke="midnightblue" points="437.604,-119.797 447.936,-117.447 438.394,-112.841 437.604,-119.797"/>
</g>
<!-- Node11&#45;&gt;Node2 -->
<g id="edge14" class="edge"><title>Node11&#45;&gt;Node2</title>
<path fill="none" stroke="midnightblue" d="M254.635,-72.172C260.66,-73.4332 266.801,-74.7724 272.5,-76 330.234,-88.4352 396.845,-102.455 437.94,-111.493"/>
<polygon fill="midnightblue" stroke="midnightblue" points="437.297,-114.935 447.817,-113.679 438.81,-108.101 437.297,-114.935"/>
</g>
<!-- Node12&#45;&gt;Node2 -->
<g id="edge16" class="edge"><title>Node12&#45;&gt;Node2</title>
<path fill="none" stroke="midnightblue" d="M339.233,-75.5164C369.613,-84.5852 414.944,-99.0039 445.179,-109.172"/>
<polygon fill="midnightblue" stroke="midnightblue" points="444.216,-112.541 454.81,-112.444 446.467,-105.913 444.216,-112.541"/>
</g>
<!-- Node13&#45;&gt;Node2 -->
<g id="edge18" class="edge"><title>Node13&#45;&gt;Node2</title>
<path fill="none" stroke="midnightblue" d="M412.752,-75.6545C427.086,-83.9132 446.548,-96.5169 460.321,-106.342"/>
<polygon fill="midnightblue" stroke="midnightblue" points="458.313,-109.21 468.44,-112.324 462.465,-103.574 458.313,-109.21"/>
</g>
<!-- Node14&#45;&gt;Node2 -->
<g id="edge20" class="edge"><title>Node14&#45;&gt;Node2</title>
<path fill="none" stroke="midnightblue" d="M481.631,-75.7511C483.157,-82.8579 483.604,-93.1357 482.972,-102.101"/>
<polygon fill="midnightblue" stroke="midnightblue" points="479.493,-101.713 481.666,-112.083 486.434,-102.622 479.493,-101.713"/>
</g>
<!-- Node15&#45;&gt;Node2 -->
<g id="edge22" class="edge"><title>Node15&#45;&gt;Node2</title>
<path fill="none" stroke="midnightblue" d="M544.379,-75.8339C534.559,-84.1845 517.253,-96.8592 502.461,-106.658"/>
<polygon fill="midnightblue" stroke="midnightblue" points="500.177,-103.966 493.665,-112.324 503.967,-109.851 500.177,-103.966"/>
</g>
<!-- Node16&#45;&gt;Node2 -->
<g id="edge24" class="edge"><title>Node16&#45;&gt;Node2</title>
<path fill="none" stroke="midnightblue" d="M610.241,-75.5966C586.32,-84.7442 545.352,-99.2693 514.966,-109.42"/>
<polygon fill="midnightblue" stroke="midnightblue" points="513.502,-106.218 505.107,-112.681 515.7,-112.864 513.502,-106.218"/>
</g>
<!-- Node17&#45;&gt;Node1 -->
<g id="edge27" class="edge"><title>Node17&#45;&gt;Node1</title>
<path fill="none" stroke="midnightblue" d="M814.422,-75.5423C768.185,-94.2804 657.024,-139.33 594.724,-164.578"/>
<polygon fill="midnightblue" stroke="midnightblue" points="593.115,-161.453 585.162,-168.453 595.744,-167.941 593.115,-161.453"/>
</g>
<!-- Node17&#45;&gt;Node2 -->
<g id="edge26" class="edge"><title>Node17&#45;&gt;Node2</title>
<path fill="none" stroke="midnightblue" d="M796.457,-75.519C795.463,-75.682 794.476,-75.8426 793.5,-76 693.849,-92.0689 575.648,-108.645 515.52,-116.434"/>
<polygon fill="midnightblue" stroke="midnightblue" points="514.808,-112.997 505.335,-117.74 515.699,-119.94 514.808,-112.997"/>
</g>
<!-- Node18&#45;&gt;Node1 -->
<g id="edge30" class="edge"><title>Node18&#45;&gt;Node1</title>
<path fill="none" stroke="midnightblue" d="M907.026,-75.5423C843.794,-94.5117 690.68,-140.446 607.154,-165.504"/>
<polygon fill="midnightblue" stroke="midnightblue" points="605.896,-162.227 597.324,-168.453 607.908,-168.932 605.896,-162.227"/>
</g>
<!-- Node18&#45;&gt;Node2 -->
<g id="edge29" class="edge"><title>Node18&#45;&gt;Node2</title>
<path fill="none" stroke="midnightblue" d="M897.673,-75.5291C896.607,-75.691 895.547,-75.8483 894.5,-76 755.858,-96.0807 589.619,-111.803 515.375,-118.06"/>
<polygon fill="midnightblue" stroke="midnightblue" points="514.779,-114.598 505.103,-118.914 515.359,-121.574 514.779,-114.598"/>
</g>
</g>
</svg>
