<?xml version="1.0" encoding="UTF-8" standalone="no"?>
<!DOCTYPE svg PUBLIC "-//W3C//DTD SVG 1.1//EN"
 "http://www.w3.org/Graphics/SVG/1.1/DTD/svg11.dtd">
<!-- Generated by graphviz version 2.40.1 (20161225.0304)
 -->
<!-- Title: MavlinkMissionManager::handle_mission_item_int Pages: 1 -->
<svg width="1264pt" height="39pt"
 viewBox="0.00 0.00 1264.00 39.00" xmlns="http://www.w3.org/2000/svg" xmlns:xlink="http://www.w3.org/1999/xlink">
<g id="graph0" class="graph" transform="scale(1 1) rotate(0) translate(4 35)">
<title>MavlinkMissionManager::handle_mission_item_int</title>
<polygon fill="#ffffff" stroke="transparent" points="-4,4 -4,-35 1260,-35 1260,4 -4,4"/>
<!-- Node346 -->
<g id="node1" class="node">
<title>Node346</title>
<polygon fill="#bfbfbf" stroke="#000000" points="0,-.5 0,-30.5 130,-30.5 130,-.5 0,-.5"/>
<text text-anchor="start" x="8" y="-18.5" font-family="Helvetica,sans-Serif" font-size="10.00" fill="#000000">MavlinkMissionManager</text>
<text text-anchor="middle" x="65" y="-7.5" font-family="Helvetica,sans-Serif" font-size="10.00" fill="#000000">::handle_mission_item_int</text>
</g>
<!-- Node347 -->
<g id="node2" class="node">
<title>Node347</title>
<g id="a_node2"><a xlink:href="../../d1/d69/class_mavlink_mission_manager.html#a0b0f096d150e9f63debafa47e121bb09" target="_top" xlink:title="MavlinkMissionManager\l::handle_message">
<polygon fill="#ffffff" stroke="#000000" points="166,-.5 166,-30.5 288,-30.5 288,-.5 166,-.5"/>
<text text-anchor="start" x="174" y="-18.5" font-family="Helvetica,sans-Serif" font-size="10.00" fill="#000000">MavlinkMissionManager</text>
<text text-anchor="middle" x="227" y="-7.5" font-family="Helvetica,sans-Serif" font-size="10.00" fill="#000000">::handle_message</text>
</a>
</g>
</g>
<!-- Node346&#45;&gt;Node347 -->
<g id="edge1" class="edge">
<title>Node346&#45;&gt;Node347</title>
<path fill="none" stroke="#191970" d="M140.6407,-15.5C149.0678,-15.5 157.5726,-15.5 165.7881,-15.5"/>
<polygon fill="#191970" stroke="#191970" points="140.4247,-12.0001 130.4246,-15.5 140.4246,-19.0001 140.4247,-12.0001"/>
</g>
<!-- Node348 -->
<g id="node3" class="node">
<title>Node348</title>
<g id="a_node3"><a xlink:href="../../da/d89/class_mavlink_receiver.html#a2a2904ed386bbb6a4ff3528527006a58" target="_top" xlink:title="Receive data from UART/UDP. ">
<polygon fill="#ffffff" stroke="#000000" points="324,-6 324,-25 437,-25 437,-6 324,-6"/>
<text text-anchor="middle" x="380.5" y="-13" font-family="Helvetica,sans-Serif" font-size="10.00" fill="#000000">MavlinkReceiver::Run</text>
</a>
</g>
</g>
<!-- Node347&#45;&gt;Node348 -->
<g id="edge2" class="edge">
<title>Node347&#45;&gt;Node348</title>
<path fill="none" stroke="#191970" d="M298.3578,-15.5C306.8191,-15.5 315.3682,-15.5 323.5911,-15.5"/>
<polygon fill="#191970" stroke="#191970" points="298.1084,-12.0001 288.1083,-15.5 298.1083,-19.0001 298.1084,-12.0001"/>
</g>
<!-- Node349 -->
<g id="node4" class="node">
<title>Node349</title>
<g id="a_node4"><a xlink:href="../../da/d89/class_mavlink_receiver.html#a4e6d064186fe746bc3934959a991a908" target="_top" xlink:title="MavlinkReceiver::start\l_helper">
<polygon fill="#ffffff" stroke="#000000" points="473,-.5 473,-30.5 588,-30.5 588,-.5 473,-.5"/>
<text text-anchor="start" x="481" y="-18.5" font-family="Helvetica,sans-Serif" font-size="10.00" fill="#000000">MavlinkReceiver::start</text>
<text text-anchor="middle" x="530.5" y="-7.5" font-family="Helvetica,sans-Serif" font-size="10.00" fill="#000000">_helper</text>
</a>
</g>
</g>
<!-- Node348&#45;&gt;Node349 -->
<g id="edge3" class="edge">
<title>Node348&#45;&gt;Node349</title>
<path fill="none" stroke="#191970" d="M447.4079,-15.5C455.8497,-15.5 464.4299,-15.5 472.7139,-15.5"/>
<polygon fill="#191970" stroke="#191970" points="447.2086,-12.0001 437.2086,-15.5 447.2085,-19.0001 447.2086,-12.0001"/>
</g>
<!-- Node350 -->
<g id="node5" class="node">
<title>Node350</title>
<g id="a_node5"><a xlink:href="../../da/d89/class_mavlink_receiver.html#aae6564d759626eeebeb19a9dfbdcaf6d" target="_top" xlink:title="Start the receiver thread. ">
<polygon fill="#ffffff" stroke="#000000" points="624,-.5 624,-30.5 751,-30.5 751,-.5 624,-.5"/>
<text text-anchor="start" x="632" y="-18.5" font-family="Helvetica,sans-Serif" font-size="10.00" fill="#000000">MavlinkReceiver::receive</text>
<text text-anchor="middle" x="687.5" y="-7.5" font-family="Helvetica,sans-Serif" font-size="10.00" fill="#000000">_start</text>
</a>
</g>
</g>
<!-- Node349&#45;&gt;Node350 -->
<g id="edge4" class="edge">
<title>Node349&#45;&gt;Node350</title>
<path fill="none" stroke="#191970" d="M598.3019,-15.5C606.782,-15.5 615.4318,-15.5 623.8454,-15.5"/>
<polygon fill="#191970" stroke="#191970" points="598.0695,-12.0001 588.0695,-15.5 598.0695,-19.0001 598.0695,-12.0001"/>
</g>
<!-- Node351 -->
<g id="node6" class="node">
<title>Node351</title>
<g id="a_node6"><a xlink:href="../../df/d1f/class_mavlink.html#a2325401a575b272fc1474d502388241f" target="_top" xlink:title="Main mavlink task. ">
<polygon fill="#ffffff" stroke="#000000" points="787,-6 787,-25 888,-25 888,-6 787,-6"/>
<text text-anchor="middle" x="837.5" y="-13" font-family="Helvetica,sans-Serif" font-size="10.00" fill="#000000">Mavlink::task_main</text>
</a>
</g>
</g>
<!-- Node350&#45;&gt;Node351 -->
<g id="edge5" class="edge">
<title>Node350&#45;&gt;Node351</title>
<path fill="none" stroke="#191970" d="M761.2854,-15.5C769.9828,-15.5 778.702,-15.5 786.9749,-15.5"/>
<polygon fill="#191970" stroke="#191970" points="761.1135,-12.0001 751.1135,-15.5 761.1135,-19.0001 761.1135,-12.0001"/>
</g>
<!-- Node352 -->
<g id="node7" class="node">
<title>Node352</title>
<g id="a_node7"><a xlink:href="../../df/d1f/class_mavlink.html#aad2c17a259e6cfbfe20113c8da8f6cae" target="_top" xlink:title="Mavlink::start_helper">
<polygon fill="#ffffff" stroke="#000000" points="924,-6 924,-25 1031,-25 1031,-6 924,-6"/>
<text text-anchor="middle" x="977.5" y="-13" font-family="Helvetica,sans-Serif" font-size="10.00" fill="#000000">Mavlink::start_helper</text>
</a>
</g>
</g>
<!-- Node351&#45;&gt;Node352 -->
<g id="edge6" class="edge">
<title>Node351&#45;&gt;Node352</title>
<path fill="none" stroke="#191970" d="M898.2551,-15.5C906.7299,-15.5 915.3886,-15.5 923.7227,-15.5"/>
<polygon fill="#191970" stroke="#191970" points="898.0432,-12.0001 888.0432,-15.5 898.0432,-19.0001 898.0432,-12.0001"/>
</g>
<!-- Node353 -->
<g id="node8" class="node">
<title>Node353</title>
<g id="a_node8"><a xlink:href="../../df/d1f/class_mavlink.html#a3f96c3503833a477332c8584bb8fbc67" target="_top" xlink:title="Start the mavlink task. ">
<polygon fill="#ffffff" stroke="#000000" points="1067,-6 1067,-25 1143,-25 1143,-6 1067,-6"/>
<text text-anchor="middle" x="1105" y="-13" font-family="Helvetica,sans-Serif" font-size="10.00" fill="#000000">Mavlink::start</text>
</a>
</g>
</g>
<!-- Node352&#45;&gt;Node353 -->
<g id="edge7" class="edge">
<title>Node352&#45;&gt;Node353</title>
<path fill="none" stroke="#191970" d="M1041.3846,-15.5C1050.0906,-15.5 1058.7932,-15.5 1066.843,-15.5"/>
<polygon fill="#191970" stroke="#191970" points="1041.202,-12.0001 1031.2019,-15.5 1041.2019,-19.0001 1041.202,-12.0001"/>
</g>
<!-- Node354 -->
<g id="node9" class="node">
<title>Node354</title>
<g id="a_node9"><a xlink:href="../../de/d24/mavlink__main_8cpp.html#ab81e9b009119f143f3b54a1390b92427" target="_top" xlink:title="Mavlink app start / stop handling function. ">
<polygon fill="#ffffff" stroke="#000000" points="1179,-6 1179,-25 1256,-25 1256,-6 1179,-6"/>
<text text-anchor="middle" x="1217.5" y="-13" font-family="Helvetica,sans-Serif" font-size="10.00" fill="#000000">mavlink_main</text>
</a>
</g>
</g>
<!-- Node353&#45;&gt;Node354 -->
<g id="edge8" class="edge">
<title>Node353&#45;&gt;Node354</title>
<path fill="none" stroke="#191970" d="M1153.2672,-15.5C1161.7573,-15.5 1170.495,-15.5 1178.6854,-15.5"/>
<polygon fill="#191970" stroke="#191970" points="1153.0874,-12.0001 1143.0874,-15.5 1153.0873,-19.0001 1153.0874,-12.0001"/>
</g>
</g>
</svg>
