<?xml version="1.0" encoding="UTF-8" standalone="no"?>
<!DOCTYPE svg PUBLIC "-//W3C//DTD SVG 1.1//EN"
 "http://www.w3.org/Graphics/SVG/1.1/DTD/svg11.dtd">
<!-- Generated by graphviz version 2.40.1 (20161225.0304)
 -->
<!-- Title: MavlinkMissionManager::handle_mission_item_both Pages: 1 -->
<svg width="1438pt" height="88pt"
 viewBox="0.00 0.00 1438.00 88.00" xmlns="http://www.w3.org/2000/svg" xmlns:xlink="http://www.w3.org/1999/xlink">
<g id="graph0" class="graph" transform="scale(1 1) rotate(0) translate(4 84)">
<title>MavlinkMissionManager::handle_mission_item_both</title>
<polygon fill="#ffffff" stroke="transparent" points="-4,4 -4,-84 1434,-84 1434,4 -4,4"/>
<!-- Node303 -->
<g id="node1" class="node">
<title>Node303</title>
<polygon fill="#bfbfbf" stroke="#000000" points="0,-24.5 0,-54.5 138,-54.5 138,-24.5 0,-24.5"/>
<text text-anchor="start" x="8" y="-42.5" font-family="Helvetica,sans-Serif" font-size="10.00" fill="#000000">MavlinkMissionManager</text>
<text text-anchor="middle" x="69" y="-31.5" font-family="Helvetica,sans-Serif" font-size="10.00" fill="#000000">::handle_mission_item_both</text>
</g>
<!-- Node304 -->
<g id="node2" class="node">
<title>Node304</title>
<g id="a_node2"><a xlink:href="../../d1/d69/class_mavlink_mission_manager.html#a8c3328cc22d09da209c52a8272ed6e31" target="_top" xlink:title="MavlinkMissionManager\l::handle_mission_item">
<polygon fill="#ffffff" stroke="#000000" points="178,-49.5 178,-79.5 300,-79.5 300,-49.5 178,-49.5"/>
<text text-anchor="start" x="186" y="-67.5" font-family="Helvetica,sans-Serif" font-size="10.00" fill="#000000">MavlinkMissionManager</text>
<text text-anchor="middle" x="239" y="-56.5" font-family="Helvetica,sans-Serif" font-size="10.00" fill="#000000">::handle_mission_item</text>
</a>
</g>
</g>
<!-- Node303&#45;&gt;Node304 -->
<g id="edge1" class="edge">
<title>Node303&#45;&gt;Node304</title>
<path fill="none" stroke="#191970" d="M148.0822,-51.1297C158.076,-52.5994 168.1794,-54.0852 177.8363,-55.5053"/>
<polygon fill="#191970" stroke="#191970" points="148.5484,-47.6607 138.1455,-49.6685 147.5298,-54.5862 148.5484,-47.6607"/>
</g>
<!-- Node313 -->
<g id="node11" class="node">
<title>Node313</title>
<g id="a_node11"><a xlink:href="../../d1/d69/class_mavlink_mission_manager.html#a64afcaef5dca35d8cacf2d25acc48212" target="_top" xlink:title="MavlinkMissionManager\l::handle_mission_item_int">
<polygon fill="#ffffff" stroke="#000000" points="174,-.5 174,-30.5 304,-30.5 304,-.5 174,-.5"/>
<text text-anchor="start" x="182" y="-18.5" font-family="Helvetica,sans-Serif" font-size="10.00" fill="#000000">MavlinkMissionManager</text>
<text text-anchor="middle" x="239" y="-7.5" font-family="Helvetica,sans-Serif" font-size="10.00" fill="#000000">::handle_mission_item_int</text>
</a>
</g>
</g>
<!-- Node303&#45;&gt;Node313 -->
<g id="edge10" class="edge">
<title>Node303&#45;&gt;Node313</title>
<path fill="none" stroke="#191970" d="M148.1521,-28.3256C156.7253,-27.1153 165.3782,-25.8937 173.7598,-24.7104"/>
<polygon fill="#191970" stroke="#191970" points="147.558,-24.8747 138.1455,-29.7383 148.5366,-31.8059 147.558,-24.8747"/>
</g>
<!-- Node305 -->
<g id="node3" class="node">
<title>Node305</title>
<g id="a_node3"><a xlink:href="../../d1/d69/class_mavlink_mission_manager.html#a0b0f096d150e9f63debafa47e121bb09" target="_top" xlink:title="MavlinkMissionManager\l::handle_message">
<polygon fill="#ffffff" stroke="#000000" points="340,-24.5 340,-54.5 462,-54.5 462,-24.5 340,-24.5"/>
<text text-anchor="start" x="348" y="-42.5" font-family="Helvetica,sans-Serif" font-size="10.00" fill="#000000">MavlinkMissionManager</text>
<text text-anchor="middle" x="401" y="-31.5" font-family="Helvetica,sans-Serif" font-size="10.00" fill="#000000">::handle_message</text>
</a>
</g>
</g>
<!-- Node304&#45;&gt;Node305 -->
<g id="edge2" class="edge">
<title>Node304&#45;&gt;Node305</title>
<path fill="none" stroke="#191970" d="M310.413,-53.4795C320.2603,-51.9598 330.2994,-50.4106 339.9369,-48.9233"/>
<polygon fill="#191970" stroke="#191970" points="309.5944,-50.0643 300.2453,-55.0486 310.6621,-56.9824 309.5944,-50.0643"/>
</g>
<!-- Node306 -->
<g id="node4" class="node">
<title>Node306</title>
<g id="a_node4"><a xlink:href="../../da/d89/class_mavlink_receiver.html#a2a2904ed386bbb6a4ff3528527006a58" target="_top" xlink:title="Receive data from UART/UDP. ">
<polygon fill="#ffffff" stroke="#000000" points="498,-30 498,-49 611,-49 611,-30 498,-30"/>
<text text-anchor="middle" x="554.5" y="-37" font-family="Helvetica,sans-Serif" font-size="10.00" fill="#000000">MavlinkReceiver::Run</text>
</a>
</g>
</g>
<!-- Node305&#45;&gt;Node306 -->
<g id="edge3" class="edge">
<title>Node305&#45;&gt;Node306</title>
<path fill="none" stroke="#191970" d="M472.3578,-39.5C480.8191,-39.5 489.3682,-39.5 497.5911,-39.5"/>
<polygon fill="#191970" stroke="#191970" points="472.1084,-36.0001 462.1083,-39.5 472.1083,-43.0001 472.1084,-36.0001"/>
</g>
<!-- Node307 -->
<g id="node5" class="node">
<title>Node307</title>
<g id="a_node5"><a xlink:href="../../da/d89/class_mavlink_receiver.html#a4e6d064186fe746bc3934959a991a908" target="_top" xlink:title="MavlinkReceiver::start\l_helper">
<polygon fill="#ffffff" stroke="#000000" points="647,-24.5 647,-54.5 762,-54.5 762,-24.5 647,-24.5"/>
<text text-anchor="start" x="655" y="-42.5" font-family="Helvetica,sans-Serif" font-size="10.00" fill="#000000">MavlinkReceiver::start</text>
<text text-anchor="middle" x="704.5" y="-31.5" font-family="Helvetica,sans-Serif" font-size="10.00" fill="#000000">_helper</text>
</a>
</g>
</g>
<!-- Node306&#45;&gt;Node307 -->
<g id="edge4" class="edge">
<title>Node306&#45;&gt;Node307</title>
<path fill="none" stroke="#191970" d="M621.4079,-39.5C629.8497,-39.5 638.4299,-39.5 646.7139,-39.5"/>
<polygon fill="#191970" stroke="#191970" points="621.2086,-36.0001 611.2086,-39.5 621.2085,-43.0001 621.2086,-36.0001"/>
</g>
<!-- Node308 -->
<g id="node6" class="node">
<title>Node308</title>
<g id="a_node6"><a xlink:href="../../da/d89/class_mavlink_receiver.html#aae6564d759626eeebeb19a9dfbdcaf6d" target="_top" xlink:title="Start the receiver thread. ">
<polygon fill="#ffffff" stroke="#000000" points="798,-24.5 798,-54.5 925,-54.5 925,-24.5 798,-24.5"/>
<text text-anchor="start" x="806" y="-42.5" font-family="Helvetica,sans-Serif" font-size="10.00" fill="#000000">MavlinkReceiver::receive</text>
<text text-anchor="middle" x="861.5" y="-31.5" font-family="Helvetica,sans-Serif" font-size="10.00" fill="#000000">_start</text>
</a>
</g>
</g>
<!-- Node307&#45;&gt;Node308 -->
<g id="edge5" class="edge">
<title>Node307&#45;&gt;Node308</title>
<path fill="none" stroke="#191970" d="M772.3019,-39.5C780.782,-39.5 789.4318,-39.5 797.8454,-39.5"/>
<polygon fill="#191970" stroke="#191970" points="772.0695,-36.0001 762.0695,-39.5 772.0695,-43.0001 772.0695,-36.0001"/>
</g>
<!-- Node309 -->
<g id="node7" class="node">
<title>Node309</title>
<g id="a_node7"><a xlink:href="../../df/d1f/class_mavlink.html#a2325401a575b272fc1474d502388241f" target="_top" xlink:title="Main mavlink task. ">
<polygon fill="#ffffff" stroke="#000000" points="961,-30 961,-49 1062,-49 1062,-30 961,-30"/>
<text text-anchor="middle" x="1011.5" y="-37" font-family="Helvetica,sans-Serif" font-size="10.00" fill="#000000">Mavlink::task_main</text>
</a>
</g>
</g>
<!-- Node308&#45;&gt;Node309 -->
<g id="edge6" class="edge">
<title>Node308&#45;&gt;Node309</title>
<path fill="none" stroke="#191970" d="M935.2854,-39.5C943.9828,-39.5 952.702,-39.5 960.9749,-39.5"/>
<polygon fill="#191970" stroke="#191970" points="935.1135,-36.0001 925.1135,-39.5 935.1135,-43.0001 935.1135,-36.0001"/>
</g>
<!-- Node310 -->
<g id="node8" class="node">
<title>Node310</title>
<g id="a_node8"><a xlink:href="../../df/d1f/class_mavlink.html#aad2c17a259e6cfbfe20113c8da8f6cae" target="_top" xlink:title="Mavlink::start_helper">
<polygon fill="#ffffff" stroke="#000000" points="1098,-30 1098,-49 1205,-49 1205,-30 1098,-30"/>
<text text-anchor="middle" x="1151.5" y="-37" font-family="Helvetica,sans-Serif" font-size="10.00" fill="#000000">Mavlink::start_helper</text>
</a>
</g>
</g>
<!-- Node309&#45;&gt;Node310 -->
<g id="edge7" class="edge">
<title>Node309&#45;&gt;Node310</title>
<path fill="none" stroke="#191970" d="M1072.2551,-39.5C1080.7299,-39.5 1089.3886,-39.5 1097.7227,-39.5"/>
<polygon fill="#191970" stroke="#191970" points="1072.0432,-36.0001 1062.0432,-39.5 1072.0432,-43.0001 1072.0432,-36.0001"/>
</g>
<!-- Node311 -->
<g id="node9" class="node">
<title>Node311</title>
<g id="a_node9"><a xlink:href="../../df/d1f/class_mavlink.html#a3f96c3503833a477332c8584bb8fbc67" target="_top" xlink:title="Start the mavlink task. ">
<polygon fill="#ffffff" stroke="#000000" points="1241,-30 1241,-49 1317,-49 1317,-30 1241,-30"/>
<text text-anchor="middle" x="1279" y="-37" font-family="Helvetica,sans-Serif" font-size="10.00" fill="#000000">Mavlink::start</text>
</a>
</g>
</g>
<!-- Node310&#45;&gt;Node311 -->
<g id="edge8" class="edge">
<title>Node310&#45;&gt;Node311</title>
<path fill="none" stroke="#191970" d="M1215.3846,-39.5C1224.0906,-39.5 1232.7932,-39.5 1240.843,-39.5"/>
<polygon fill="#191970" stroke="#191970" points="1215.202,-36.0001 1205.2019,-39.5 1215.2019,-43.0001 1215.202,-36.0001"/>
</g>
<!-- Node312 -->
<g id="node10" class="node">
<title>Node312</title>
<g id="a_node10"><a xlink:href="../../de/d24/mavlink__main_8cpp.html#ab81e9b009119f143f3b54a1390b92427" target="_top" xlink:title="Mavlink app start / stop handling function. ">
<polygon fill="#ffffff" stroke="#000000" points="1353,-30 1353,-49 1430,-49 1430,-30 1353,-30"/>
<text text-anchor="middle" x="1391.5" y="-37" font-family="Helvetica,sans-Serif" font-size="10.00" fill="#000000">mavlink_main</text>
</a>
</g>
</g>
<!-- Node311&#45;&gt;Node312 -->
<g id="edge9" class="edge">
<title>Node311&#45;&gt;Node312</title>
<path fill="none" stroke="#191970" d="M1327.2672,-39.5C1335.7573,-39.5 1344.495,-39.5 1352.6854,-39.5"/>
<polygon fill="#191970" stroke="#191970" points="1327.0874,-36.0001 1317.0874,-39.5 1327.0873,-43.0001 1327.0874,-36.0001"/>
</g>
<!-- Node313&#45;&gt;Node305 -->
<g id="edge11" class="edge">
<title>Node313&#45;&gt;Node305</title>
<path fill="none" stroke="#191970" d="M314.3629,-26.6649C322.8808,-27.9268 331.4823,-29.2011 339.7881,-30.4316"/>
<polygon fill="#191970" stroke="#191970" points="314.8296,-23.1959 304.4246,-25.1925 313.8037,-30.1203 314.8296,-23.1959"/>
</g>
</g>
</svg>
