<?xml version="1.0" encoding="UTF-8" standalone="no"?>
<!DOCTYPE svg PUBLIC "-//W3C//DTD SVG 1.1//EN"
 "http://www.w3.org/Graphics/SVG/1.1/DTD/svg11.dtd">
<!-- Generated by graphviz version 2.40.1 (20161225.0304)
 -->
<!-- Title: MavlinkMissionManager::check_active_mission Pages: 1 -->
<!--zoomable 39 -->
<svg id="main" version="1.1" xmlns="http://www.w3.org/2000/svg" xmlns:xlink="http://www.w3.org/1999/xlink" xml:space="preserve" onload="init(evt)">
<style type="text/css"><![CDATA[
.edge:hover path { stroke: red; }
.edge:hover polygon { stroke: red; fill: red; }
]]></style>
<script type="text/javascript"><![CDATA[
var edges = document.getElementsByTagName('g');
if (edges && edges.length) {
  for (var i=0;i<edges.length;i++) {
    if (edges[i].id.substr(0,4)=='edge') {
      edges[i].setAttribute('class','edge');
    }
  }
}
]]></script>
        <defs>
                <circle id="rim" cx="0" cy="0" r="7"/>
                <circle id="rim2" cx="0" cy="0" r="3.5"/>
                <g id="zoomPlus">
                        <use xlink:href="#rim" fill="#404040">
                                <set attributeName="fill" to="#808080" begin="zoomplus.mouseover" end="zoomplus.mouseout"/>
                        </use>
                        <path d="M-4,0h8M0,-4v8" fill="none" stroke="white" stroke-width="1.5" pointer-events="none"/>
                </g>
                <g id="zoomMin">
                        <use xlink:href="#rim" fill="#404040">
                                <set attributeName="fill" to="#808080" begin="zoomminus.mouseover" end="zoomminus.mouseout"/>
                        </use>
                        <path d="M-4,0h8" fill="none" stroke="white" stroke-width="1.5" pointer-events="none"/>
                </g>
                <g id="dirArrow">
                        <path fill="none" stroke="white" stroke-width="1.5" d="M0,-3.0v7 M-2.5,-0.5L0,-3.0L2.5,-0.5"/>
                </g>
               <g id="resetDef">
                       <use xlink:href="#rim2" fill="#404040">
                               <set attributeName="fill" to="#808080" begin="reset.mouseover" end="reset.mouseout"/>
                       </use>
               </g>
        </defs>

<script type="text/javascript">
var viewWidth = 1098;
var viewHeight = 39;
var sectionId = 'dynsection-3';
</script>
<script xlink:href="../../svgpan.js"/>
<svg id="graph" class="graph">
<g id="viewport">
<title>MavlinkMissionManager::check_active_mission</title>
<polygon fill="#ffffff" stroke="transparent" points="-4,4 -4,-35 1094,-35 1094,4 -4,4"/>
<!-- Node29 -->
<g id="node1" class="node">
<title>Node29</title>
<polygon fill="#bfbfbf" stroke="#000000" points="0,-.5 0,-30.5 122,-30.5 122,-.5 0,-.5"/>
<text text-anchor="start" x="8" y="-18.5" font-family="Helvetica,sans-Serif" font-size="10.00" fill="#000000">MavlinkMissionManager</text>
<text text-anchor="middle" x="61" y="-7.5" font-family="Helvetica,sans-Serif" font-size="10.00" fill="#000000">::check_active_mission</text>
</g>
<!-- Node30 -->
<g id="node2" class="node">
<title>Node30</title>
<g id="a_node2"><a xlink:href="../../da/d89/class_mavlink_receiver.html#a2a2904ed386bbb6a4ff3528527006a58" target="_top" xlink:title="Receive data from UART/UDP. ">
<polygon fill="#ffffff" stroke="#000000" points="158,-6 158,-25 271,-25 271,-6 158,-6"/>
<text text-anchor="middle" x="214.5" y="-13" font-family="Helvetica,sans-Serif" font-size="10.00" fill="#000000">MavlinkReceiver::Run</text>
</a>
</g>
</g>
<!-- Node29&#45;&gt;Node30 -->
<g id="edge1" class="edge">
<title>Node29&#45;&gt;Node30</title>
<path fill="none" stroke="#191970" d="M132.3578,-15.5C140.8191,-15.5 149.3682,-15.5 157.5911,-15.5"/>
<polygon fill="#191970" stroke="#191970" points="132.1084,-12.0001 122.1083,-15.5 132.1083,-19.0001 132.1084,-12.0001"/>
</g>
<!-- Node31 -->
<g id="node3" class="node">
<title>Node31</title>
<g id="a_node3"><a xlink:href="../../da/d89/class_mavlink_receiver.html#a4e6d064186fe746bc3934959a991a908" target="_top" xlink:title="MavlinkReceiver::start\l_helper">
<polygon fill="#ffffff" stroke="#000000" points="307,-.5 307,-30.5 422,-30.5 422,-.5 307,-.5"/>
<text text-anchor="start" x="315" y="-18.5" font-family="Helvetica,sans-Serif" font-size="10.00" fill="#000000">MavlinkReceiver::start</text>
<text text-anchor="middle" x="364.5" y="-7.5" font-family="Helvetica,sans-Serif" font-size="10.00" fill="#000000">_helper</text>
</a>
</g>
</g>
<!-- Node30&#45;&gt;Node31 -->
<g id="edge2" class="edge">
<title>Node30&#45;&gt;Node31</title>
<path fill="none" stroke="#191970" d="M281.4079,-15.5C289.8497,-15.5 298.4299,-15.5 306.7139,-15.5"/>
<polygon fill="#191970" stroke="#191970" points="281.2086,-12.0001 271.2086,-15.5 281.2085,-19.0001 281.2086,-12.0001"/>
</g>
<!-- Node32 -->
<g id="node4" class="node">
<title>Node32</title>
<g id="a_node4"><a xlink:href="../../da/d89/class_mavlink_receiver.html#aae6564d759626eeebeb19a9dfbdcaf6d" target="_top" xlink:title="Start the receiver thread. ">
<polygon fill="#ffffff" stroke="#000000" points="458,-.5 458,-30.5 585,-30.5 585,-.5 458,-.5"/>
<text text-anchor="start" x="466" y="-18.5" font-family="Helvetica,sans-Serif" font-size="10.00" fill="#000000">MavlinkReceiver::receive</text>
<text text-anchor="middle" x="521.5" y="-7.5" font-family="Helvetica,sans-Serif" font-size="10.00" fill="#000000">_start</text>
</a>
</g>
</g>
<!-- Node31&#45;&gt;Node32 -->
<g id="edge3" class="edge">
<title>Node31&#45;&gt;Node32</title>
<path fill="none" stroke="#191970" d="M432.3019,-15.5C440.782,-15.5 449.4318,-15.5 457.8454,-15.5"/>
<polygon fill="#191970" stroke="#191970" points="432.0695,-12.0001 422.0695,-15.5 432.0695,-19.0001 432.0695,-12.0001"/>
</g>
<!-- Node33 -->
<g id="node5" class="node">
<title>Node33</title>
<g id="a_node5"><a xlink:href="../../df/d1f/class_mavlink.html#a2325401a575b272fc1474d502388241f" target="_top" xlink:title="Main mavlink task. ">
<polygon fill="#ffffff" stroke="#000000" points="621,-6 621,-25 722,-25 722,-6 621,-6"/>
<text text-anchor="middle" x="671.5" y="-13" font-family="Helvetica,sans-Serif" font-size="10.00" fill="#000000">Mavlink::task_main</text>
</a>
</g>
</g>
<!-- Node32&#45;&gt;Node33 -->
<g id="edge4" class="edge">
<title>Node32&#45;&gt;Node33</title>
<path fill="none" stroke="#191970" d="M595.2854,-15.5C603.9828,-15.5 612.702,-15.5 620.9749,-15.5"/>
<polygon fill="#191970" stroke="#191970" points="595.1135,-12.0001 585.1135,-15.5 595.1135,-19.0001 595.1135,-12.0001"/>
</g>
<!-- Node34 -->
<g id="node6" class="node">
<title>Node34</title>
<g id="a_node6"><a xlink:href="../../df/d1f/class_mavlink.html#aad2c17a259e6cfbfe20113c8da8f6cae" target="_top" xlink:title="Mavlink::start_helper">
<polygon fill="#ffffff" stroke="#000000" points="758,-6 758,-25 865,-25 865,-6 758,-6"/>
<text text-anchor="middle" x="811.5" y="-13" font-family="Helvetica,sans-Serif" font-size="10.00" fill="#000000">Mavlink::start_helper</text>
</a>
</g>
</g>
<!-- Node33&#45;&gt;Node34 -->
<g id="edge5" class="edge">
<title>Node33&#45;&gt;Node34</title>
<path fill="none" stroke="#191970" d="M732.2551,-15.5C740.7299,-15.5 749.3886,-15.5 757.7227,-15.5"/>
<polygon fill="#191970" stroke="#191970" points="732.0432,-12.0001 722.0432,-15.5 732.0432,-19.0001 732.0432,-12.0001"/>
</g>
<!-- Node35 -->
<g id="node7" class="node">
<title>Node35</title>
<g id="a_node7"><a xlink:href="../../df/d1f/class_mavlink.html#a3f96c3503833a477332c8584bb8fbc67" target="_top" xlink:title="Start the mavlink task. ">
<polygon fill="#ffffff" stroke="#000000" points="901,-6 901,-25 977,-25 977,-6 901,-6"/>
<text text-anchor="middle" x="939" y="-13" font-family="Helvetica,sans-Serif" font-size="10.00" fill="#000000">Mavlink::start</text>
</a>
</g>
</g>
<!-- Node34&#45;&gt;Node35 -->
<g id="edge6" class="edge">
<title>Node34&#45;&gt;Node35</title>
<path fill="none" stroke="#191970" d="M875.3846,-15.5C884.0906,-15.5 892.7932,-15.5 900.843,-15.5"/>
<polygon fill="#191970" stroke="#191970" points="875.202,-12.0001 865.2019,-15.5 875.2019,-19.0001 875.202,-12.0001"/>
</g>
<!-- Node36 -->
<g id="node8" class="node">
<title>Node36</title>
<g id="a_node8"><a xlink:href="../../de/d24/mavlink__main_8cpp.html#ab81e9b009119f143f3b54a1390b92427" target="_top" xlink:title="Mavlink app start / stop handling function. ">
<polygon fill="#ffffff" stroke="#000000" points="1013,-6 1013,-25 1090,-25 1090,-6 1013,-6"/>
<text text-anchor="middle" x="1051.5" y="-13" font-family="Helvetica,sans-Serif" font-size="10.00" fill="#000000">mavlink_main</text>
</a>
</g>
</g>
<!-- Node35&#45;&gt;Node36 -->
<g id="edge7" class="edge">
<title>Node35&#45;&gt;Node36</title>
<path fill="none" stroke="#191970" d="M987.2672,-15.5C995.7573,-15.5 1004.495,-15.5 1012.6854,-15.5"/>
<polygon fill="#191970" stroke="#191970" points="987.0874,-12.0001 977.0874,-15.5 987.0873,-19.0001 987.0874,-12.0001"/>
</g>
</g>
</svg>
        <g id="navigator" transform="translate(0 0)" fill="#404254">
                <rect fill="#f2f5e9" fill-opacity="0.5" stroke="#606060" stroke-width=".5" x="0" y="0" width="60" height="60"/>
                <use id="zoomplus" xlink:href="#zoomPlus" x="17" y="9" onmousedown="handleZoom(evt,'in')"/>
                <use id="zoomminus" xlink:href="#zoomMin" x="42" y="9" onmousedown="handleZoom(evt,'out')"/>
                <use id="reset" xlink:href="#resetDef" x="30" y="36" onmousedown="handleReset()"/>
                <g id="arrowUp" xlink:href="#dirArrow" transform="translate(30 24)" onmousedown="handlePan(0,-1)">
                  <use xlink:href="#rim" fill="#404040">
                        <set attributeName="fill" to="#808080" begin="arrowUp.mouseover" end="arrowUp.mouseout"/>
                  </use>
                  <path fill="none" stroke="white" stroke-width="1.5" d="M0,-3.0v7 M-2.5,-0.5L0,-3.0L2.5,-0.5"/>
                </g>
                <g id="arrowRight" xlink:href="#dirArrow" transform="rotate(90) translate(36 -43)" onmousedown="handlePan(1,0)">
                  <use xlink:href="#rim" fill="#404040">
                        <set attributeName="fill" to="#808080" begin="arrowRight.mouseover" end="arrowRight.mouseout"/>
                  </use>
                  <path fill="none" stroke="white" stroke-width="1.5" d="M0,-3.0v7 M-2.5,-0.5L0,-3.0L2.5,-0.5"/>
                </g>
                <g id="arrowDown" xlink:href="#dirArrow" transform="rotate(180) translate(-30 -48)" onmousedown="handlePan(0,1)">
                  <use xlink:href="#rim" fill="#404040">
                        <set attributeName="fill" to="#808080" begin="arrowDown.mouseover" end="arrowDown.mouseout"/>
                  </use>
                  <path fill="none" stroke="white" stroke-width="1.5" d="M0,-3.0v7 M-2.5,-0.5L0,-3.0L2.5,-0.5"/>
                </g>
                <g id="arrowLeft" xlink:href="#dirArrow" transform="rotate(270) translate(-36 17)" onmousedown="handlePan(-1,0)">
                  <use xlink:href="#rim" fill="#404040">
                        <set attributeName="fill" to="#808080" begin="arrowLeft.mouseover" end="arrowLeft.mouseout"/>
                  </use>
                  <path fill="none" stroke="white" stroke-width="1.5" d="M0,-3.0v7 M-2.5,-0.5L0,-3.0L2.5,-0.5"/>
                </g>
        </g>
        <svg viewBox="0 0 15 15" width="100%" height="30px" preserveAspectRatio="xMaxYMin meet">
         <g id="arrow_out" transform="scale(0.3 0.3)">
          <a xlink:href="class_mavlink_mission_manager_ab5fc476d60791d2738cd207619a7f52e_icgraph_org.svg" target="_base">
           <rect id="button" ry="5" rx="5" y="6" x="6" height="38" width="38"
                fill="#f2f5e9" fill-opacity="0.5" stroke="#606060" stroke-width="1.0"/>
           <path id="arrow"
             d="M 11.500037,31.436501 C 11.940474,20.09759 22.043105,11.32322 32.158766,21.979434 L 37.068811,17.246167 C 37.068811,17.246167 37.088388,32 37.088388,32 L 22.160133,31.978069 C 22.160133,31.978069 26.997745,27.140456 26.997745,27.140456 C 18.528582,18.264221 13.291696,25.230495 11.500037,31.436501 z"
             style="fill:#404040;"/>
          </a>
         </g>
        </svg>
</svg>
