<?xml version="1.0" encoding="UTF-8" standalone="no"?>
<!DOCTYPE svg PUBLIC "-//W3C//DTD SVG 1.1//EN"
 "http://www.w3.org/Graphics/SVG/1.1/DTD/svg11.dtd">
<!-- Generated by graphviz version 2.40.1 (20161225.0304)
 -->
<!-- Title: SimpleAnalyzer::get_scaled Pages: 1 -->
<svg width="290pt" height="88pt"
 viewBox="0.00 0.00 290.00 88.00" xmlns="http://www.w3.org/2000/svg" xmlns:xlink="http://www.w3.org/1999/xlink">
<g id="graph0" class="graph" transform="scale(1 1) rotate(0) translate(4 84)">
<title>SimpleAnalyzer::get_scaled</title>
<polygon fill="#ffffff" stroke="transparent" points="-4,4 -4,-84 286,-84 286,4 -4,4"/>
<!-- Node22 -->
<g id="node1" class="node">
<title>Node22</title>
<polygon fill="#bfbfbf" stroke="#000000" points="0,-24.5 0,-54.5 104,-54.5 104,-24.5 0,-24.5"/>
<text text-anchor="start" x="8" y="-42.5" font-family="Helvetica,sans-Serif" font-size="10.00" fill="#000000">SimpleAnalyzer::get</text>
<text text-anchor="middle" x="52" y="-31.5" font-family="Helvetica,sans-Serif" font-size="10.00" fill="#000000">_scaled</text>
</g>
<!-- Node23 -->
<g id="node2" class="node">
<title>Node23</title>
<g id="a_node2"><a xlink:href="../../df/dc8/class_simple_analyzer.html#a25a1cf0779c590d5d9c9c079e65b371a" target="_top" xlink:title="Get the rounded scaled value casted to the input template type. ">
<polygon fill="#ffffff" stroke="#000000" points="159,-49.5 159,-79.5 263,-79.5 263,-49.5 159,-49.5"/>
<text text-anchor="start" x="167" y="-67.5" font-family="Helvetica,sans-Serif" font-size="10.00" fill="#000000">SimpleAnalyzer::get</text>
<text text-anchor="middle" x="211" y="-56.5" font-family="Helvetica,sans-Serif" font-size="10.00" fill="#000000">_scaled</text>
</a>
</g>
</g>
<!-- Node22&#45;&gt;Node23 -->
<g id="edge1" class="edge">
<title>Node22&#45;&gt;Node23</title>
<path fill="none" stroke="#191970" d="M114.134,-49.2695C128.9146,-51.5935 144.5373,-54.0499 158.8205,-56.2957"/>
<polygon fill="#191970" stroke="#191970" points="114.4848,-45.7817 104.0625,-47.6859 113.3975,-52.6968 114.4848,-45.7817"/>
</g>
<!-- Node24 -->
<g id="node3" class="node">
<title>Node24</title>
<g id="a_node3"><a xlink:href="../../d9/d2e/class_mavlink_stream_high_latency2.html#a1ffba8a89111df5897237c817925d0ab" target="_top" xlink:title="MavlinkStreamHighLatency2\l::send">
<polygon fill="#ffffff" stroke="#000000" points="140,-.5 140,-30.5 282,-30.5 282,-.5 140,-.5"/>
<text text-anchor="start" x="148" y="-18.5" font-family="Helvetica,sans-Serif" font-size="10.00" fill="#000000">MavlinkStreamHighLatency2</text>
<text text-anchor="middle" x="211" y="-7.5" font-family="Helvetica,sans-Serif" font-size="10.00" fill="#000000">::send</text>
</a>
</g>
</g>
<!-- Node22&#45;&gt;Node24 -->
<g id="edge2" class="edge">
<title>Node22&#45;&gt;Node24</title>
<path fill="none" stroke="#191970" d="M114.1472,-30.1193C122.5473,-28.8514 131.2191,-27.5424 139.7623,-26.2529"/>
<polygon fill="#191970" stroke="#191970" points="113.4281,-26.6881 104.0625,-31.6415 114.473,-33.6097 113.4281,-26.6881"/>
</g>
</g>
</svg>
