<?xml version="1.0" encoding="UTF-8" standalone="no"?>
<!DOCTYPE svg PUBLIC "-//W3C//DTD SVG 1.1//EN"
 "http://www.w3.org/Graphics/SVG/1.1/DTD/svg11.dtd">
<!-- Generated by graphviz version 2.40.1 (20161225.0304)
 -->
<!-- Title: SF1XX::init Pages: 1 -->
<svg width="403pt" height="47pt"
 viewBox="0.00 0.00 403.00 47.00" xmlns="http://www.w3.org/2000/svg" xmlns:xlink="http://www.w3.org/1999/xlink">
<g id="graph0" class="graph" transform="scale(1 1) rotate(0) translate(4 43)">
<title>SF1XX::init</title>
<polygon fill="#ffffff" stroke="transparent" points="-4,4 -4,-43 399,-43 399,4 -4,4"/>
<!-- Node204 -->
<g id="node1" class="node">
<title>Node204</title>
<polygon fill="#bfbfbf" stroke="#000000" points="0,-.5 0,-19.5 67,-19.5 67,-.5 0,-.5"/>
<text text-anchor="middle" x="33.5" y="-7.5" font-family="Helvetica,sans-Serif" font-size="10.00" fill="#000000">SF1XX::init</text>
</g>
<!-- Node205 -->
<g id="node2" class="node">
<title>Node205</title>
<g id="a_node2"><a xlink:href="../../da/d92/namespacesf1xx.html#a8d8b606ddf67b13374b9fab973665327" target="_top" xlink:title="Start the driver on a specific bus. ">
<polygon fill="#ffffff" stroke="#000000" points="103,-.5 103,-19.5 190,-19.5 190,-.5 103,-.5"/>
<text text-anchor="middle" x="146.5" y="-7.5" font-family="Helvetica,sans-Serif" font-size="10.00" fill="#000000">sf1xx::start_bus</text>
</a>
</g>
</g>
<!-- Node204&#45;&gt;Node205 -->
<g id="edge1" class="edge">
<title>Node204&#45;&gt;Node205</title>
<path fill="none" stroke="#191970" d="M77.1092,-10C85.5248,-10 94.3435,-10 102.7632,-10"/>
<polygon fill="#191970" stroke="#191970" points="77.0978,-6.5001 67.0978,-10 77.0977,-13.5001 77.0978,-6.5001"/>
</g>
<!-- Node206 -->
<g id="node3" class="node">
<title>Node206</title>
<g id="a_node3"><a xlink:href="../../da/d92/namespacesf1xx.html#a3c280ccde8d79d3f348a464537c897b8" target="_top" xlink:title="Attempt to start driver on all available I2C busses. ">
<polygon fill="#ffffff" stroke="#000000" points="226,-19.5 226,-38.5 292,-38.5 292,-19.5 226,-19.5"/>
<text text-anchor="middle" x="259" y="-26.5" font-family="Helvetica,sans-Serif" font-size="10.00" fill="#000000">sf1xx::start</text>
</a>
</g>
</g>
<!-- Node205&#45;&gt;Node206 -->
<g id="edge2" class="edge">
<title>Node205&#45;&gt;Node206</title>
<path fill="none" stroke="#191970" d="M200.446,-19.1109C209.1453,-20.5801 217.9182,-22.0617 225.9306,-23.4149"/>
<polygon fill="#191970" stroke="#191970" points="200.7608,-15.6146 190.3176,-17.4003 199.5951,-22.5168 200.7608,-15.6146"/>
</g>
<!-- Node207 -->
<g id="node4" class="node">
<title>Node207</title>
<g id="a_node4"><a xlink:href="../../d6/df1/sf1xx_8cpp.html#af785f9f6d75d358108f489f8613962c2" target="_top" xlink:title="sf1xx_main">
<polygon fill="#ffffff" stroke="#000000" points="328,-.5 328,-19.5 395,-19.5 395,-.5 328,-.5"/>
<text text-anchor="middle" x="361.5" y="-7.5" font-family="Helvetica,sans-Serif" font-size="10.00" fill="#000000">sf1xx_main</text>
</a>
</g>
</g>
<!-- Node205&#45;&gt;Node207 -->
<g id="edge4" class="edge">
<title>Node205&#45;&gt;Node207</title>
<path fill="none" stroke="#191970" d="M200.1441,-10C240.2106,-10 293.7349,-10 327.921,-10"/>
<polygon fill="#191970" stroke="#191970" points="200.0085,-6.5001 190.0085,-10 200.0084,-13.5001 200.0085,-6.5001"/>
</g>
<!-- Node206&#45;&gt;Node207 -->
<g id="edge3" class="edge">
<title>Node206&#45;&gt;Node207</title>
<path fill="none" stroke="#191970" d="M302.3861,-20.9577C310.8437,-19.39 319.5939,-17.768 327.6858,-16.268"/>
<polygon fill="#191970" stroke="#191970" points="301.4734,-17.5672 292.2788,-22.8312 302.7493,-24.4499 301.4734,-17.5672"/>
</g>
</g>
</svg>
