<?xml version="1.0" encoding="UTF-8" standalone="no"?>
<!DOCTYPE svg PUBLIC "-//W3C//DTD SVG 1.1//EN"
 "http://www.w3.org/Graphics/SVG/1.1/DTD/svg11.dtd">
<!-- Generated by graphviz version 2.38.0 (20140413.2041)
 -->
<!-- Title: VtolType::get_mode Pages: 1 -->
<svg width="357pt" height="39pt"
 viewBox="0.00 0.00 357.00 39.00" xmlns="http://www.w3.org/2000/svg" xmlns:xlink="http://www.w3.org/1999/xlink">
<g id="graph0" class="graph" transform="scale(1 1) rotate(0) translate(4 35)">
<title>VtolType::get_mode</title>
<polygon fill="white" stroke="none" points="-4,4 -4,-35 353,-35 353,4 -4,4"/>
<!-- Node1 -->
<g id="node1" class="node"><title>Node1</title>
<polygon fill="#bfbfbf" stroke="black" points="0,-6 0,-25 104,-25 104,-6 0,-6"/>
<text text-anchor="middle" x="52" y="-13" font-family="Helvetica,sans-Serif" font-size="10.00">VtolType::get_mode</text>
</g>
<!-- Node2 -->
<g id="node2" class="node"><title>Node2</title>
<g id="a_node2"><a xlink:href="../../d6/dd7/namespacempu9x50.html#a97862226042971029cb680cf60ebe629" target="_top" xlink:title="update all parameters ">
<polygon fill="white" stroke="black" points="140,-0.5 140,-30.5 251,-30.5 251,-0.5 140,-0.5"/>
<text text-anchor="start" x="148" y="-18.5" font-family="Helvetica,sans-Serif" font-size="10.00">mpu9x50::parameters</text>
<text text-anchor="middle" x="195.5" y="-7.5" font-family="Helvetica,sans-Serif" font-size="10.00">_update</text>
</a>
</g>
</g>
<!-- Node1&#45;&gt;Node2 -->
<g id="edge1" class="edge"><title>Node1&#45;&gt;Node2</title>
<path fill="none" stroke="midnightblue" d="M104.085,-15.5C112.302,-15.5 120.903,-15.5 129.395,-15.5"/>
<polygon fill="midnightblue" stroke="midnightblue" points="129.666,-19.0001 139.666,-15.5 129.666,-12.0001 129.666,-19.0001"/>
</g>
<!-- Node3 -->
<g id="node3" class="node"><title>Node3</title>
<g id="a_node3"><a xlink:href="../../d9/da5/param_8c.html#acda250bde94d605ace974a67c1012d4a" target="_top" xlink:title="Copy the value of a parameter. ">
<polygon fill="white" stroke="black" points="287,-6 287,-25 349,-25 349,-6 287,-6"/>
<text text-anchor="middle" x="318" y="-13" font-family="Helvetica,sans-Serif" font-size="10.00">param_get</text>
</a>
</g>
</g>
<!-- Node2&#45;&gt;Node3 -->
<g id="edge2" class="edge"><title>Node2&#45;&gt;Node3</title>
<path fill="none" stroke="midnightblue" d="M251.109,-15.5C259.778,-15.5 268.605,-15.5 276.862,-15.5"/>
<polygon fill="midnightblue" stroke="midnightblue" points="276.962,-19.0001 286.962,-15.5 276.962,-12.0001 276.962,-19.0001"/>
</g>
</g>
</svg>
