<?xml version="1.0" encoding="UTF-8" standalone="no"?>
<!DOCTYPE svg PUBLIC "-//W3C//DTD SVG 1.1//EN"
 "http://www.w3.org/Graphics/SVG/1.1/DTD/svg11.dtd">
<!-- Generated by graphviz version 2.40.1 (20161225.0304)
 -->
<!-- Title: VtolType::VtolType Pages: 1 -->
<svg width="270pt" height="774pt"
 viewBox="0.00 0.00 270.00 774.00" xmlns="http://www.w3.org/2000/svg" xmlns:xlink="http://www.w3.org/1999/xlink">
<g id="graph0" class="graph" transform="scale(1 1) rotate(0) translate(4 770)">
<title>VtolType::VtolType</title>
<polygon fill="#ffffff" stroke="transparent" points="-4,4 -4,-770 266,-770 266,4 -4,4"/>
<!-- Node0 -->
<g id="node1" class="node">
<title>Node0</title>
<polygon fill="#bfbfbf" stroke="#000000" points="0,-373 0,-392 101,-392 101,-373 0,-373"/>
<text text-anchor="middle" x="50.5" y="-380" font-family="Helvetica,sans-Serif" font-size="10.00" fill="#000000">VtolType::VtolType</text>
</g>
<!-- Node1 -->
<g id="node2" class="node">
<title>Node1</title>
<g id="a_node2"><a xlink:href="../../d7/d6f/class_vtol_attitude_control.html#ad5564e22f34e88ec36e5dfed6f7e2bf7" target="_top" xlink:title="VtolAttitudeControl\l::get_actuators_fw_in">
<polygon fill="#ffffff" stroke="#000000" points="144.5,-735.5 144.5,-765.5 254.5,-765.5 254.5,-735.5 144.5,-735.5"/>
<text text-anchor="start" x="152.5" y="-753.5" font-family="Helvetica,sans-Serif" font-size="10.00" fill="#000000">VtolAttitudeControl</text>
<text text-anchor="middle" x="199.5" y="-742.5" font-family="Helvetica,sans-Serif" font-size="10.00" fill="#000000">::get_actuators_fw_in</text>
</a>
</g>
</g>
<!-- Node0&#45;&gt;Node1 -->
<g id="edge1" class="edge">
<title>Node0&#45;&gt;Node1</title>
<path fill="none" stroke="#191970" d="M51.7068,-392.0601C58.2005,-442.1427 90.4328,-673.965 137,-726.5 137.7517,-727.3481 138.5368,-728.1663 139.3517,-728.9559"/>
<polygon fill="#191970" stroke="#191970" points="137.3764,-731.8559 147.3912,-735.3135 141.7184,-726.3652 137.3764,-731.8559"/>
</g>
<!-- Node2 -->
<g id="node3" class="node">
<title>Node2</title>
<g id="a_node3"><a xlink:href="../../d7/d6f/class_vtol_attitude_control.html#a8113dd3961e5d931a4321c0189d17e5a" target="_top" xlink:title="VtolAttitudeControl\l::get_actuators_mc_in">
<polygon fill="#ffffff" stroke="#000000" points="143,-686.5 143,-716.5 256,-716.5 256,-686.5 143,-686.5"/>
<text text-anchor="start" x="151" y="-704.5" font-family="Helvetica,sans-Serif" font-size="10.00" fill="#000000">VtolAttitudeControl</text>
<text text-anchor="middle" x="199.5" y="-693.5" font-family="Helvetica,sans-Serif" font-size="10.00" fill="#000000">::get_actuators_mc_in</text>
</a>
</g>
</g>
<!-- Node0&#45;&gt;Node2 -->
<g id="edge2" class="edge">
<title>Node0&#45;&gt;Node2</title>
<path fill="none" stroke="#191970" d="M52.1542,-392.1801C60.1654,-438.0622 96.2157,-633.2525 137,-677.5 137.8862,-678.4615 138.8153,-679.3848 139.7816,-680.2715"/>
<polygon fill="#191970" stroke="#191970" points="137.7479,-683.1218 147.8306,-686.376 141.9779,-677.5444 137.7479,-683.1218"/>
</g>
<!-- Node3 -->
<g id="node4" class="node">
<title>Node3</title>
<g id="a_node4"><a xlink:href="../../d7/d6f/class_vtol_attitude_control.html#a7f7c551b62a799c1a887773035a78ed1" target="_top" xlink:title="VtolAttitudeControl\l::get_actuators_out0">
<polygon fill="#ffffff" stroke="#000000" points="146.5,-637.5 146.5,-667.5 252.5,-667.5 252.5,-637.5 146.5,-637.5"/>
<text text-anchor="start" x="154.5" y="-655.5" font-family="Helvetica,sans-Serif" font-size="10.00" fill="#000000">VtolAttitudeControl</text>
<text text-anchor="middle" x="199.5" y="-644.5" font-family="Helvetica,sans-Serif" font-size="10.00" fill="#000000">::get_actuators_out0</text>
</a>
</g>
</g>
<!-- Node0&#45;&gt;Node3 -->
<g id="edge3" class="edge">
<title>Node0&#45;&gt;Node3</title>
<path fill="none" stroke="#191970" d="M51.1052,-392.4735C53.8536,-429.1 68.2161,-557.7262 137,-628.5 137.9341,-629.4612 138.9109,-630.3844 139.9246,-631.2712"/>
<polygon fill="#191970" stroke="#191970" points="138.1782,-634.3289 148.3239,-637.3809 142.2959,-628.6681 138.1782,-634.3289"/>
</g>
<!-- Node4 -->
<g id="node5" class="node">
<title>Node4</title>
<g id="a_node5"><a xlink:href="../../d7/d6f/class_vtol_attitude_control.html#ac00e353fe992ba2d0c423b55d521da16" target="_top" xlink:title="VtolAttitudeControl\l::get_actuators_out1">
<polygon fill="#ffffff" stroke="#000000" points="146.5,-588.5 146.5,-618.5 252.5,-618.5 252.5,-588.5 146.5,-588.5"/>
<text text-anchor="start" x="154.5" y="-606.5" font-family="Helvetica,sans-Serif" font-size="10.00" fill="#000000">VtolAttitudeControl</text>
<text text-anchor="middle" x="199.5" y="-595.5" font-family="Helvetica,sans-Serif" font-size="10.00" fill="#000000">::get_actuators_out1</text>
</a>
</g>
</g>
<!-- Node0&#45;&gt;Node4 -->
<g id="edge4" class="edge">
<title>Node0&#45;&gt;Node4</title>
<path fill="none" stroke="#191970" d="M52.0504,-392.2123C57.5763,-423.7333 79.1615,-524.3237 137,-579.5 138.1301,-580.5781 139.3138,-581.6091 140.5423,-582.5951"/>
<polygon fill="#191970" stroke="#191970" points="138.9667,-585.7553 149.2082,-588.4687 142.8941,-579.9609 138.9667,-585.7553"/>
</g>
<!-- Node5 -->
<g id="node6" class="node">
<title>Node5</title>
<g id="a_node6"><a xlink:href="../../d7/d6f/class_vtol_attitude_control.html#a4cc4adbdfc5a3ce3da157850064e01d7" target="_top" xlink:title="VtolAttitudeControl\l::get_airspeed">
<polygon fill="#ffffff" stroke="#000000" points="150,-539.5 150,-569.5 249,-569.5 249,-539.5 150,-539.5"/>
<text text-anchor="start" x="158" y="-557.5" font-family="Helvetica,sans-Serif" font-size="10.00" fill="#000000">VtolAttitudeControl</text>
<text text-anchor="middle" x="199.5" y="-546.5" font-family="Helvetica,sans-Serif" font-size="10.00" fill="#000000">::get_airspeed</text>
</a>
</g>
</g>
<!-- Node0&#45;&gt;Node5 -->
<g id="edge5" class="edge">
<title>Node0&#45;&gt;Node5</title>
<path fill="none" stroke="#191970" d="M53.6339,-392.3068C62.4716,-418.4645 90.051,-490.6122 137,-530.5 138.4948,-531.77 140.0641,-532.9768 141.6915,-534.1233"/>
<polygon fill="#191970" stroke="#191970" points="139.8841,-537.1205 150.2383,-539.3658 143.5442,-531.1536 139.8841,-537.1205"/>
</g>
<!-- Node6 -->
<g id="node7" class="node">
<title>Node6</title>
<g id="a_node7"><a xlink:href="../../d7/d6f/class_vtol_attitude_control.html#af110910c7bf0bce264ea98f42e5a3eb5" target="_top" xlink:title="VtolAttitudeControl\l::get_att">
<polygon fill="#ffffff" stroke="#000000" points="150,-490.5 150,-520.5 249,-520.5 249,-490.5 150,-490.5"/>
<text text-anchor="start" x="158" y="-508.5" font-family="Helvetica,sans-Serif" font-size="10.00" fill="#000000">VtolAttitudeControl</text>
<text text-anchor="middle" x="199.5" y="-497.5" font-family="Helvetica,sans-Serif" font-size="10.00" fill="#000000">::get_att</text>
</a>
</g>
</g>
<!-- Node0&#45;&gt;Node6 -->
<g id="edge6" class="edge">
<title>Node0&#45;&gt;Node6</title>
<path fill="none" stroke="#191970" d="M56.4835,-392.0444C69.1036,-411.4611 100.3244,-455.8853 137,-481.5 139.0845,-482.9558 141.2691,-484.3381 143.5215,-485.6488"/>
<polygon fill="#191970" stroke="#191970" points="141.9962,-488.801 152.4768,-490.3531 145.2517,-482.6041 141.9962,-488.801"/>
</g>
<!-- Node7 -->
<g id="node8" class="node">
<title>Node7</title>
<g id="a_node8"><a xlink:href="../../d7/d6f/class_vtol_attitude_control.html#aabfb3e51be2022011fdd709368cc611d" target="_top" xlink:title="VtolAttitudeControl\l::get_att_sp">
<polygon fill="#ffffff" stroke="#000000" points="150,-441.5 150,-471.5 249,-471.5 249,-441.5 150,-441.5"/>
<text text-anchor="start" x="158" y="-459.5" font-family="Helvetica,sans-Serif" font-size="10.00" fill="#000000">VtolAttitudeControl</text>
<text text-anchor="middle" x="199.5" y="-448.5" font-family="Helvetica,sans-Serif" font-size="10.00" fill="#000000">::get_att_sp</text>
</a>
</g>
</g>
<!-- Node0&#45;&gt;Node7 -->
<g id="edge7" class="edge">
<title>Node0&#45;&gt;Node7</title>
<path fill="none" stroke="#191970" d="M65.4211,-392.0949C82.3585,-402.7547 111.015,-420.0957 137,-432.5 140.5565,-434.1978 144.2674,-435.8668 148.0292,-437.485"/>
<polygon fill="#191970" stroke="#191970" points="146.8489,-440.7846 157.4264,-441.3898 149.535,-434.3204 146.8489,-440.7846"/>
</g>
<!-- Node8 -->
<g id="node9" class="node">
<title>Node8</title>
<g id="a_node9"><a xlink:href="../../d7/d6f/class_vtol_attitude_control.html#aa3fd42d636ba25aff26c1ab0a8a03073" target="_top" xlink:title="VtolAttitudeControl\l::get_control_mode">
<polygon fill="#ffffff" stroke="#000000" points="149.5,-392.5 149.5,-422.5 249.5,-422.5 249.5,-392.5 149.5,-392.5"/>
<text text-anchor="start" x="157.5" y="-410.5" font-family="Helvetica,sans-Serif" font-size="10.00" fill="#000000">VtolAttitudeControl</text>
<text text-anchor="middle" x="199.5" y="-399.5" font-family="Helvetica,sans-Serif" font-size="10.00" fill="#000000">::get_control_mode</text>
</a>
</g>
</g>
<!-- Node0&#45;&gt;Node8 -->
<g id="edge8" class="edge">
<title>Node0&#45;&gt;Node8</title>
<path fill="none" stroke="#191970" d="M101.3606,-391.0337C113.6006,-393.0874 126.7904,-395.3004 139.4071,-397.4173"/>
<polygon fill="#191970" stroke="#191970" points="138.9321,-400.8864 149.3734,-399.0895 140.0904,-393.9829 138.9321,-400.8864"/>
</g>
<!-- Node9 -->
<g id="node10" class="node">
<title>Node9</title>
<g id="a_node10"><a xlink:href="../../d7/d6f/class_vtol_attitude_control.html#aa8b4ed7aeeb3fccdb60c45081483e861" target="_top" xlink:title="VtolAttitudeControl\l::get_fw_virtual_att_sp">
<polygon fill="#ffffff" stroke="#000000" points="141.5,-343.5 141.5,-373.5 257.5,-373.5 257.5,-343.5 141.5,-343.5"/>
<text text-anchor="start" x="149.5" y="-361.5" font-family="Helvetica,sans-Serif" font-size="10.00" fill="#000000">VtolAttitudeControl</text>
<text text-anchor="middle" x="199.5" y="-350.5" font-family="Helvetica,sans-Serif" font-size="10.00" fill="#000000">::get_fw_virtual_att_sp</text>
</a>
</g>
</g>
<!-- Node0&#45;&gt;Node9 -->
<g id="edge9" class="edge">
<title>Node0&#45;&gt;Node9</title>
<path fill="none" stroke="#191970" d="M101.3606,-374.3077C111.0346,-372.7495 121.3019,-371.0957 131.4106,-369.4674"/>
<polygon fill="#191970" stroke="#191970" points="132.1224,-372.898 141.4385,-367.8522 131.0092,-365.987 132.1224,-372.898"/>
</g>
<!-- Node10 -->
<g id="node11" class="node">
<title>Node10</title>
<g id="a_node11"><a xlink:href="../../d7/d6f/class_vtol_attitude_control.html#a8f422b824f7c8cdbe80b72a29bae9e06" target="_top" xlink:title="VtolAttitudeControl\l::get_land_detected">
<polygon fill="#ffffff" stroke="#000000" points="148.5,-294.5 148.5,-324.5 250.5,-324.5 250.5,-294.5 148.5,-294.5"/>
<text text-anchor="start" x="156.5" y="-312.5" font-family="Helvetica,sans-Serif" font-size="10.00" fill="#000000">VtolAttitudeControl</text>
<text text-anchor="middle" x="199.5" y="-301.5" font-family="Helvetica,sans-Serif" font-size="10.00" fill="#000000">::get_land_detected</text>
</a>
</g>
</g>
<!-- Node0&#45;&gt;Node10 -->
<g id="edge10" class="edge">
<title>Node0&#45;&gt;Node10</title>
<path fill="none" stroke="#191970" d="M66.4418,-372.855C83.5605,-362.6886 111.7145,-346.514 137,-334.5 141.2618,-332.4751 145.734,-330.467 150.2441,-328.5208"/>
<polygon fill="#191970" stroke="#191970" points="151.6392,-331.7311 159.4999,-324.6275 148.925,-325.2787 151.6392,-331.7311"/>
</g>
<!-- Node11 -->
<g id="node12" class="node">
<title>Node11</title>
<g id="a_node12"><a xlink:href="../../d7/d6f/class_vtol_attitude_control.html#ae7ca3e8452a0b44691392f7ba873c9cc" target="_top" xlink:title="VtolAttitudeControl\l::get_local_pos">
<polygon fill="#ffffff" stroke="#000000" points="150,-245.5 150,-275.5 249,-275.5 249,-245.5 150,-245.5"/>
<text text-anchor="start" x="158" y="-263.5" font-family="Helvetica,sans-Serif" font-size="10.00" fill="#000000">VtolAttitudeControl</text>
<text text-anchor="middle" x="199.5" y="-252.5" font-family="Helvetica,sans-Serif" font-size="10.00" fill="#000000">::get_local_pos</text>
</a>
</g>
</g>
<!-- Node0&#45;&gt;Node11 -->
<g id="edge11" class="edge">
<title>Node0&#45;&gt;Node11</title>
<path fill="none" stroke="#191970" d="M56.7571,-372.905C69.6432,-353.8193 100.9749,-310.7608 137,-285.5 139.6792,-283.6213 142.52,-281.8546 145.455,-280.1977"/>
<polygon fill="#191970" stroke="#191970" points="147.1858,-283.2433 154.4753,-275.5546 143.9822,-277.0194 147.1858,-283.2433"/>
</g>
<!-- Node12 -->
<g id="node13" class="node">
<title>Node12</title>
<g id="a_node13"><a xlink:href="../../d7/d6f/class_vtol_attitude_control.html#aacd394d0d2e89b51c7a279a1376b9787" target="_top" xlink:title="VtolAttitudeControl\l::get_local_pos_sp">
<polygon fill="#ffffff" stroke="#000000" points="150,-196.5 150,-226.5 249,-226.5 249,-196.5 150,-196.5"/>
<text text-anchor="start" x="158" y="-214.5" font-family="Helvetica,sans-Serif" font-size="10.00" fill="#000000">VtolAttitudeControl</text>
<text text-anchor="middle" x="199.5" y="-203.5" font-family="Helvetica,sans-Serif" font-size="10.00" fill="#000000">::get_local_pos_sp</text>
</a>
</g>
</g>
<!-- Node0&#45;&gt;Node12 -->
<g id="edge12" class="edge">
<title>Node0&#45;&gt;Node12</title>
<path fill="none" stroke="#191970" d="M53.703,-372.861C62.7123,-347.1446 90.6798,-276.1705 137,-236.5 138.9417,-234.8371 141.0078,-233.2758 143.1631,-231.811"/>
<polygon fill="#191970" stroke="#191970" points="145.0514,-234.76 151.8425,-226.6279 141.4624,-228.75 145.0514,-234.76"/>
</g>
<!-- Node13 -->
<g id="node14" class="node">
<title>Node13</title>
<g id="a_node14"><a xlink:href="../../d7/d6f/class_vtol_attitude_control.html#a8b3435ccc584032ec8d13db20f02a2c8" target="_top" xlink:title="VtolAttitudeControl\l::get_mc_virtual_att_sp">
<polygon fill="#ffffff" stroke="#000000" points="140,-147.5 140,-177.5 259,-177.5 259,-147.5 140,-147.5"/>
<text text-anchor="start" x="148" y="-165.5" font-family="Helvetica,sans-Serif" font-size="10.00" fill="#000000">VtolAttitudeControl</text>
<text text-anchor="middle" x="199.5" y="-154.5" font-family="Helvetica,sans-Serif" font-size="10.00" fill="#000000">::get_mc_virtual_att_sp</text>
</a>
</g>
</g>
<!-- Node0&#45;&gt;Node13 -->
<g id="edge13" class="edge">
<title>Node0&#45;&gt;Node13</title>
<path fill="none" stroke="#191970" d="M52.1125,-372.917C57.8286,-341.8099 79.9304,-242.496 137,-187.5 138.4832,-186.0707 140.0584,-184.7198 141.7059,-183.4431"/>
<polygon fill="#191970" stroke="#191970" points="144.0424,-186.0942 150.4549,-177.6603 140.1826,-180.2545 144.0424,-186.0942"/>
</g>
<!-- Node14 -->
<g id="node15" class="node">
<title>Node14</title>
<g id="a_node15"><a xlink:href="../../d7/d6f/class_vtol_attitude_control.html#aa2b72f0d51ef84c6a11eabb21a669fa2" target="_top" xlink:title="VtolAttitudeControl\l::get_params">
<polygon fill="#ffffff" stroke="#000000" points="150,-98.5 150,-128.5 249,-128.5 249,-98.5 150,-98.5"/>
<text text-anchor="start" x="158" y="-116.5" font-family="Helvetica,sans-Serif" font-size="10.00" fill="#000000">VtolAttitudeControl</text>
<text text-anchor="middle" x="199.5" y="-105.5" font-family="Helvetica,sans-Serif" font-size="10.00" fill="#000000">::get_params</text>
</a>
</g>
</g>
<!-- Node0&#45;&gt;Node14 -->
<g id="edge14" class="edge">
<title>Node0&#45;&gt;Node14</title>
<path fill="none" stroke="#191970" d="M51.1644,-372.6372C54.1195,-336.412 69.1118,-209.1468 137,-138.5 138.3968,-137.0464 139.8892,-135.6752 141.4578,-134.3819"/>
<polygon fill="#191970" stroke="#191970" points="143.639,-137.1282 149.8482,-128.5435 139.6408,-131.3824 143.639,-137.1282"/>
</g>
<!-- Node15 -->
<g id="node16" class="node">
<title>Node15</title>
<g id="a_node16"><a xlink:href="../../d7/d6f/class_vtol_attitude_control.html#a8141da3743d6f5839c2870fb95961f04" target="_top" xlink:title="VtolAttitudeControl\l::get_tecs_status">
<polygon fill="#ffffff" stroke="#000000" points="150,-49.5 150,-79.5 249,-79.5 249,-49.5 150,-49.5"/>
<text text-anchor="start" x="158" y="-67.5" font-family="Helvetica,sans-Serif" font-size="10.00" fill="#000000">VtolAttitudeControl</text>
<text text-anchor="middle" x="199.5" y="-56.5" font-family="Helvetica,sans-Serif" font-size="10.00" fill="#000000">::get_tecs_status</text>
</a>
</g>
</g>
<!-- Node0&#45;&gt;Node15 -->
<g id="edge15" class="edge">
<title>Node0&#45;&gt;Node15</title>
<path fill="none" stroke="#191970" d="M52.1763,-372.8969C60.2892,-327.378 96.7354,-133.7143 137,-89.5 138.3869,-87.9771 139.879,-86.5454 141.4554,-85.1996"/>
<polygon fill="#191970" stroke="#191970" points="143.8228,-87.8106 149.9414,-79.1611 139.7644,-82.1072 143.8228,-87.8106"/>
</g>
<!-- Node16 -->
<g id="node17" class="node">
<title>Node16</title>
<g id="a_node17"><a xlink:href="../../d7/d6f/class_vtol_attitude_control.html#a4051cbc87bc00219b25350eef3571160" target="_top" xlink:title="VtolAttitudeControl\l::get_vtol_vehicle_status">
<polygon fill="#ffffff" stroke="#000000" points="137,-.5 137,-30.5 262,-30.5 262,-.5 137,-.5"/>
<text text-anchor="start" x="145" y="-18.5" font-family="Helvetica,sans-Serif" font-size="10.00" fill="#000000">VtolAttitudeControl</text>
<text text-anchor="middle" x="199.5" y="-7.5" font-family="Helvetica,sans-Serif" font-size="10.00" fill="#000000">::get_vtol_vehicle_status</text>
</a>
</g>
</g>
<!-- Node0&#45;&gt;Node16 -->
<g id="edge16" class="edge">
<title>Node0&#45;&gt;Node16</title>
<path fill="none" stroke="#191970" d="M51.7714,-372.6767C58.4712,-322.2621 91.1153,-92.9207 137,-40.5 138.1642,-39.17 139.409,-37.9098 140.7208,-36.716"/>
<polygon fill="#191970" stroke="#191970" points="142.9891,-39.3893 148.8721,-30.5779 138.7783,-33.7974 142.9891,-39.3893"/>
</g>
</g>
</svg>
