<?xml version="1.0" encoding="UTF-8" standalone="no"?>
<!DOCTYPE svg PUBLIC "-//W3C//DTD SVG 1.1//EN"
 "http://www.w3.org/Graphics/SVG/1.1/DTD/svg11.dtd">
<!-- Generated by graphviz version 2.40.1 (20161225.0304)
 -->
<!-- Title: FXAS21002C::check_registers Pages: 1 -->
<svg width="448pt" height="104pt"
 viewBox="0.00 0.00 448.00 104.00" xmlns="http://www.w3.org/2000/svg" xmlns:xlink="http://www.w3.org/1999/xlink">
<g id="graph0" class="graph" transform="scale(1 1) rotate(0) translate(4 100)">
<title>FXAS21002C::check_registers</title>
<polygon fill="#ffffff" stroke="transparent" points="-4,4 -4,-100 444,-100 444,4 -4,4"/>
<!-- Node8 -->
<g id="node1" class="node">
<title>Node8</title>
<polygon fill="#bfbfbf" stroke="#000000" points="0,-38.5 0,-57.5 152,-57.5 152,-38.5 0,-38.5"/>
<text text-anchor="middle" x="76" y="-45.5" font-family="Helvetica,sans-Serif" font-size="10.00" fill="#000000">FXAS21002C::check_registers</text>
</g>
<!-- Node9 -->
<g id="node2" class="node">
<title>Node9</title>
<g id="a_node2"><a xlink:href="../../df/d7b/perf__counter_8cpp.html#a4a775bcac1518a89f1137003985d9e65" target="_top" xlink:title="Count a performance event. ">
<polygon fill="#ffffff" stroke="#000000" points="218,-76.5 218,-95.5 280,-95.5 280,-76.5 218,-76.5"/>
<text text-anchor="middle" x="249" y="-83.5" font-family="Helvetica,sans-Serif" font-size="10.00" fill="#000000">perf_count</text>
</a>
</g>
</g>
<!-- Node8&#45;&gt;Node9 -->
<g id="edge1" class="edge">
<title>Node8&#45;&gt;Node9</title>
<path fill="none" stroke="#191970" d="M119.6552,-57.589C146.8152,-63.5548 181.5147,-71.1766 208.1346,-77.0238"/>
<polygon fill="#191970" stroke="#191970" points="207.3907,-80.4438 217.9088,-79.1707 208.8925,-73.6067 207.3907,-80.4438"/>
</g>
<!-- Node11 -->
<g id="node4" class="node">
<title>Node11</title>
<g id="a_node4"><a xlink:href="../../df/d3b/class_f_x_a_s21002_c.html#ae67ec07ec23cd67ba139dd56cfba3b43" target="_top" xlink:title="Read a register from the FXAS21002C. ">
<polygon fill="#ffffff" stroke="#000000" points="189,-38.5 189,-57.5 309,-57.5 309,-38.5 189,-38.5"/>
<text text-anchor="middle" x="249" y="-45.5" font-family="Helvetica,sans-Serif" font-size="10.00" fill="#000000">FXAS21002C::read_reg</text>
</a>
</g>
</g>
<!-- Node8&#45;&gt;Node11 -->
<g id="edge3" class="edge">
<title>Node8&#45;&gt;Node11</title>
<path fill="none" stroke="#191970" d="M152.1321,-48C160.9933,-48 170.0018,-48 178.7784,-48"/>
<polygon fill="#191970" stroke="#191970" points="178.952,-51.5001 188.952,-48 178.9519,-44.5001 178.952,-51.5001"/>
</g>
<!-- Node12 -->
<g id="node5" class="node">
<title>Node12</title>
<g id="a_node5"><a xlink:href="../../df/d3b/class_f_x_a_s21002_c.html#aa6e4c5e3af5a1bd28f1eaa4ee9057798" target="_top" xlink:title="Write a register in the FXAS21002C. ">
<polygon fill="#ffffff" stroke="#000000" points="188,-.5 188,-19.5 310,-19.5 310,-.5 188,-.5"/>
<text text-anchor="middle" x="249" y="-7.5" font-family="Helvetica,sans-Serif" font-size="10.00" fill="#000000">FXAS21002C::write_reg</text>
</a>
</g>
</g>
<!-- Node8&#45;&gt;Node12 -->
<g id="edge4" class="edge">
<title>Node8&#45;&gt;Node12</title>
<path fill="none" stroke="#191970" d="M119.6552,-38.411C142.7929,-33.3287 171.4024,-27.0446 195.8268,-21.6797"/>
<polygon fill="#191970" stroke="#191970" points="196.6425,-25.084 205.6587,-19.5201 195.1406,-18.247 196.6425,-25.084"/>
</g>
<!-- Node10 -->
<g id="node3" class="node">
<title>Node10</title>
<g id="a_node3"><a xlink:href="../../d6/d10/drv__hrt_8h.html#a1450e339b7c5b8d47656500167a6676d" target="_top" xlink:title="Get absolute time in [us] (does not wrap). ">
<polygon fill="#ffffff" stroke="#000000" points="346,-76.5 346,-95.5 440,-95.5 440,-76.5 346,-76.5"/>
<text text-anchor="middle" x="393" y="-83.5" font-family="Helvetica,sans-Serif" font-size="10.00" fill="#000000">hrt_absolute_time</text>
</a>
</g>
</g>
<!-- Node9&#45;&gt;Node10 -->
<g id="edge2" class="edge">
<title>Node9&#45;&gt;Node10</title>
<path fill="none" stroke="#191970" d="M280.2459,-86C296.5128,-86 316.9182,-86 335.8829,-86"/>
<polygon fill="#191970" stroke="#191970" points="335.9362,-89.5001 345.9362,-86 335.9362,-82.5001 335.9362,-89.5001"/>
</g>
</g>
</svg>
