<?xml version="1.0" encoding="UTF-8" standalone="no"?>
<!DOCTYPE svg PUBLIC "-//W3C//DTD SVG 1.1//EN"
 "http://www.w3.org/Graphics/SVG/1.1/DTD/svg11.dtd">
<!-- Generated by graphviz version 2.40.1 (20161225.0304)
 -->
<!-- Title: FXAS21002C::set_range Pages: 1 -->
<svg width="661pt" height="28pt"
 viewBox="0.00 0.00 661.00 28.00" xmlns="http://www.w3.org/2000/svg" xmlns:xlink="http://www.w3.org/1999/xlink">
<g id="graph0" class="graph" transform="scale(1 1) rotate(0) translate(4 24)">
<title>FXAS21002C::set_range</title>
<polygon fill="#ffffff" stroke="transparent" points="-4,4 -4,-24 657,-24 657,4 -4,4"/>
<!-- Node225 -->
<g id="node1" class="node">
<title>Node225</title>
<polygon fill="#bfbfbf" stroke="#000000" points="0,-.5 0,-19.5 125,-19.5 125,-.5 0,-.5"/>
<text text-anchor="middle" x="62.5" y="-7.5" font-family="Helvetica,sans-Serif" font-size="10.00" fill="#000000">FXAS21002C::set_range</text>
</g>
<!-- Node226 -->
<g id="node2" class="node">
<title>Node226</title>
<g id="a_node2"><a xlink:href="../../df/d3b/class_f_x_a_s21002_c.html#a6de660bfd7901cce954845a9ec5dba8f" target="_top" xlink:title="Reset chip. ">
<polygon fill="#ffffff" stroke="#000000" points="161,-.5 161,-19.5 265,-19.5 265,-.5 161,-.5"/>
<text text-anchor="middle" x="213" y="-7.5" font-family="Helvetica,sans-Serif" font-size="10.00" fill="#000000">FXAS21002C::reset</text>
</a>
</g>
</g>
<!-- Node225&#45;&gt;Node226 -->
<g id="edge1" class="edge">
<title>Node225&#45;&gt;Node226</title>
<path fill="none" stroke="#191970" d="M135.18,-10C143.8781,-10 152.6221,-10 160.9463,-10"/>
<polygon fill="#191970" stroke="#191970" points="135.0181,-6.5001 125.0181,-10 135.018,-13.5001 135.0181,-6.5001"/>
</g>
<!-- Node227 -->
<g id="node3" class="node">
<title>Node227</title>
<g id="a_node3"><a xlink:href="../../df/d3b/class_f_x_a_s21002_c.html#a56c6b2a8a48c2780fdffa4ec48d709a1" target="_top" xlink:title="FXAS21002C::init">
<polygon fill="#ffffff" stroke="#000000" points="301,-.5 301,-19.5 396,-19.5 396,-.5 301,-.5"/>
<text text-anchor="middle" x="348.5" y="-7.5" font-family="Helvetica,sans-Serif" font-size="10.00" fill="#000000">FXAS21002C::init</text>
</a>
</g>
</g>
<!-- Node226&#45;&gt;Node227 -->
<g id="edge2" class="edge">
<title>Node226&#45;&gt;Node227</title>
<path fill="none" stroke="#191970" d="M275.0754,-10C283.7358,-10 292.5207,-10 300.8588,-10"/>
<polygon fill="#191970" stroke="#191970" points="275.0004,-6.5001 265.0003,-10 275.0003,-13.5001 275.0004,-6.5001"/>
</g>
<!-- Node228 -->
<g id="node4" class="node">
<title>Node228</title>
<g id="a_node4"><a xlink:href="../../d4/dc5/namespacefxas21002c.html#ad5398e8b9f953452da8ab4b6960cab4d" target="_top" xlink:title="Start the driver. ">
<polygon fill="#ffffff" stroke="#000000" points="432,-.5 432,-19.5 524,-19.5 524,-.5 432,-.5"/>
<text text-anchor="middle" x="478" y="-7.5" font-family="Helvetica,sans-Serif" font-size="10.00" fill="#000000">fxas21002c::start</text>
</a>
</g>
</g>
<!-- Node227&#45;&gt;Node228 -->
<g id="edge3" class="edge">
<title>Node227&#45;&gt;Node228</title>
<path fill="none" stroke="#191970" d="M406.5039,-10C414.92,-10 423.4897,-10 431.6361,-10"/>
<polygon fill="#191970" stroke="#191970" points="406.3531,-6.5001 396.3531,-10 406.3531,-13.5001 406.3531,-6.5001"/>
</g>
<!-- Node229 -->
<g id="node5" class="node">
<title>Node229</title>
<g id="a_node5"><a xlink:href="../../d5/d96/fxas21002c__main_8cpp.html#a49d8ba4dd73cd96281a228ba05e1870d" target="_top" xlink:title="fxas21002c_main">
<polygon fill="#ffffff" stroke="#000000" points="560,-.5 560,-19.5 653,-19.5 653,-.5 560,-.5"/>
<text text-anchor="middle" x="606.5" y="-7.5" font-family="Helvetica,sans-Serif" font-size="10.00" fill="#000000">fxas21002c_main</text>
</a>
</g>
</g>
<!-- Node228&#45;&gt;Node229 -->
<g id="edge4" class="edge">
<title>Node228&#45;&gt;Node229</title>
<path fill="none" stroke="#191970" d="M534.0411,-10C542.6818,-10 551.5239,-10 559.9283,-10"/>
<polygon fill="#191970" stroke="#191970" points="534.0285,-6.5001 524.0285,-10 534.0285,-13.5001 534.0285,-6.5001"/>
</g>
</g>
</svg>
