<?xml version="1.0" encoding="UTF-8" standalone="no"?>
<!DOCTYPE svg PUBLIC "-//W3C//DTD SVG 1.1//EN"
 "http://www.w3.org/Graphics/SVG/1.1/DTD/svg11.dtd">
<!-- Generated by graphviz version 2.40.1 (20161225.0304)
 -->
<!-- Title: matrix::expm Pages: 1 -->
<svg width="243pt" height="78pt"
 viewBox="0.00 0.00 243.00 77.50" xmlns="http://www.w3.org/2000/svg" xmlns:xlink="http://www.w3.org/1999/xlink">
<g id="graph0" class="graph" transform="scale(1 1) rotate(0) translate(4 73.5)">
<title>matrix::expm</title>
<polygon fill="#ffffff" stroke="transparent" points="-4,4 -4,-73.5 239,-73.5 239,4 -4,4"/>
<!-- Node2114 -->
<g id="node1" class="node">
<title>Node2114</title>
<polygon fill="#bfbfbf" stroke="#000000" points="0,-28 0,-47 74,-47 74,-28 0,-28"/>
<text text-anchor="middle" x="37" y="-35" font-family="Helvetica,sans-Serif" font-size="10.00" fill="#000000">matrix::expm</text>
</g>
<!-- Node2115 -->
<g id="node2" class="node">
<title>Node2115</title>
<g id="a_node2"><a xlink:href="../../d8/de6/square_matrix_8cpp.html#ae66f6b31b5ad750f1fe042a706a4e3d4" target="_top" xlink:title="main">
<polygon fill="#ffffff" stroke="#000000" points="153.5,-50 153.5,-69 191.5,-69 191.5,-50 153.5,-50"/>
<text text-anchor="middle" x="172.5" y="-57" font-family="Helvetica,sans-Serif" font-size="10.00" fill="#000000">main</text>
</a>
</g>
</g>
<!-- Node2114&#45;&gt;Node2115 -->
<g id="edge1" class="edge">
<title>Node2114&#45;&gt;Node2115</title>
<path fill="none" stroke="#191970" d="M83.9754,-45.127C107.8259,-48.9994 135.4791,-53.4892 153.4451,-56.4062"/>
<polygon fill="#191970" stroke="#191970" points="84.4577,-41.6595 74.026,-43.5116 83.3358,-48.5691 84.4577,-41.6595"/>
</g>
<!-- Node2116 -->
<g id="node3" class="node">
<title>Node2116</title>
<g id="a_node3"><a xlink:href="../../d7/d3a/class_matrix_test.html#a847766c2df989ab4508df25da92f863b" target="_top" xlink:title="MatrixTest::squareMatrix\lTests">
<polygon fill="#ffffff" stroke="#000000" points="110,-.5 110,-30.5 235,-30.5 235,-.5 110,-.5"/>
<text text-anchor="start" x="118" y="-18.5" font-family="Helvetica,sans-Serif" font-size="10.00" fill="#000000">MatrixTest::squareMatrix</text>
<text text-anchor="middle" x="172.5" y="-7.5" font-family="Helvetica,sans-Serif" font-size="10.00" fill="#000000">Tests</text>
</a>
</g>
</g>
<!-- Node2114&#45;&gt;Node2116 -->
<g id="edge2" class="edge">
<title>Node2114&#45;&gt;Node2116</title>
<path fill="none" stroke="#191970" d="M83.9871,-29.8711C92.377,-28.5089 101.2372,-27.0703 109.9804,-25.6508"/>
<polygon fill="#191970" stroke="#191970" points="83.3358,-26.4309 74.026,-31.4884 84.4577,-33.3405 83.3358,-26.4309"/>
</g>
</g>
</svg>
