<?xml version="1.0" encoding="UTF-8" standalone="no"?>
<!DOCTYPE svg PUBLIC "-//W3C//DTD SVG 1.1//EN"
 "http://www.w3.org/Graphics/SVG/1.1/DTD/svg11.dtd">
<!-- Generated by graphviz version 2.38.0 (20140413.2041)
 -->
<!-- Title: L3GD20::write_reg Pages: 1 -->
<!--zoomable 330 -->
<svg id="main" version="1.1" xmlns="http://www.w3.org/2000/svg" xmlns:xlink="http://www.w3.org/1999/xlink" xml:space="preserve" onload="init(evt)">
<style type="text/css"><![CDATA[
.edge:hover path { stroke: red; }
.edge:hover polygon { stroke: red; fill: red; }
]]></style>
<script type="text/javascript"><![CDATA[
var edges = document.getElementsByTagName('g');
if (edges && edges.length) {
  for (var i=0;i<edges.length;i++) {
    if (edges[i].id.substr(0,4)=='edge') {
      edges[i].setAttribute('class','edge');
    }
  }
}
]]></script>
        <defs>
                <circle id="rim" cx="0" cy="0" r="7"/>
                <circle id="rim2" cx="0" cy="0" r="3.5"/>
                <g id="zoomPlus">
                        <use xlink:href="#rim" fill="#404040">
                                <set attributeName="fill" to="#808080" begin="zoomplus.mouseover" end="zoomplus.mouseout"/>
                        </use>
                        <path d="M-4,0h8M0,-4v8" fill="none" stroke="white" stroke-width="1.5" pointer-events="none"/>
                </g>
                <g id="zoomMin">
                        <use xlink:href="#rim" fill="#404040">
                                <set attributeName="fill" to="#808080" begin="zoomminus.mouseover" end="zoomminus.mouseout"/>
                        </use>
                        <path d="M-4,0h8" fill="none" stroke="white" stroke-width="1.5" pointer-events="none"/>
                </g>
                <g id="dirArrow">
                        <path fill="none" stroke="white" stroke-width="1.5" d="M0,-3.0v7 M-2.5,-0.5L0,-3.0L2.5,-0.5"/>
                </g>
               <g id="resetDef">
                       <use xlink:href="#rim2" fill="#404040">
                               <set attributeName="fill" to="#808080" begin="reset.mouseover" end="reset.mouseout"/>
                       </use>
               </g>
        </defs>

<script type="text/javascript">
var viewWidth = 1088;
var viewHeight = 330;
var sectionId = 'dynsection-42';
</script>
<script xlink:href="../../svgpan.js"/>
<svg id="graph" class="graph">
<g id="viewport">
<title>L3GD20::write_reg</title>
<polygon fill="white" stroke="none" points="-4,4 -4,-326 1084,-326 1084,4 -4,4"/>
<!-- Node1 -->
<g id="node1" class="node"><title>Node1</title>
<polygon fill="#bfbfbf" stroke="black" points="0,-121.5 0,-140.5 98,-140.5 98,-121.5 0,-121.5"/>
<text text-anchor="middle" x="49" y="-128.5" font-family="Helvetica,sans-Serif" font-size="10.00">L3GD20::write_reg</text>
</g>
<!-- Node2 -->
<g id="node2" class="node"><title>Node2</title>
<g id="a_node2"><a xlink:href="../../de/dc0/class_l3_g_d20.html#aa263ae7c3bdddaf0a708c4808cfaa40b" target="_top" xlink:title="check key registers for correct values ">
<polygon fill="white" stroke="black" points="134,-98.5 134,-117.5 262,-117.5 262,-98.5 134,-98.5"/>
<text text-anchor="middle" x="198" y="-105.5" font-family="Helvetica,sans-Serif" font-size="10.00">L3GD20::check_registers</text>
</a>
</g>
</g>
<!-- Node1&#45;&gt;Node2 -->
<g id="edge1" class="edge"><title>Node1&#45;&gt;Node2</title>
<path fill="none" stroke="midnightblue" d="M108.297,-121.879C117.451,-120.446 126.935,-118.963 136.145,-117.522"/>
<polygon fill="midnightblue" stroke="midnightblue" points="107.472,-118.465 98.1333,-123.469 108.554,-125.381 107.472,-118.465"/>
</g>
<!-- Node13 -->
<g id="node13" class="node"><title>Node13</title>
<g id="a_node13"><a xlink:href="../../de/dc0/class_l3_g_d20.html#a8e37605477c876fd149f3cc5c544ac4e" target="_top" xlink:title="disable I2C on the chip ">
<polygon fill="white" stroke="black" points="493.5,-150.5 493.5,-169.5 600.5,-169.5 600.5,-150.5 493.5,-150.5"/>
<text text-anchor="middle" x="547" y="-157.5" font-family="Helvetica,sans-Serif" font-size="10.00">L3GD20::disable_i2c</text>
</a>
</g>
</g>
<!-- Node1&#45;&gt;Node13 -->
<g id="edge16" class="edge"><title>Node1&#45;&gt;Node13</title>
<path fill="none" stroke="midnightblue" d="M108.247,-134.406C205.519,-140.093 399.558,-151.438 493.127,-156.909"/>
<polygon fill="midnightblue" stroke="midnightblue" points="108.197,-130.897 98.0092,-133.807 107.788,-137.885 108.197,-130.897"/>
</g>
<!-- Node15 -->
<g id="node15" class="node"><title>Node15</title>
<g id="a_node15"><a xlink:href="../../de/dc0/class_l3_g_d20.html#ae4727c71105d2fdb77ef43b30cf520e3" target="_top" xlink:title="L3GD20::test_error">
<polygon fill="white" stroke="black" points="148,-41.5 148,-60.5 248,-60.5 248,-41.5 148,-41.5"/>
<text text-anchor="middle" x="198" y="-48.5" font-family="Helvetica,sans-Serif" font-size="10.00">L3GD20::test_error</text>
</a>
</g>
</g>
<!-- Node1&#45;&gt;Node15 -->
<g id="edge20" class="edge"><title>Node1&#45;&gt;Node15</title>
<path fill="none" stroke="midnightblue" d="M76.7226,-116.457C106.459,-100.274 153.675,-74.5783 179.205,-60.6841"/>
<polygon fill="midnightblue" stroke="midnightblue" points="74.8421,-113.496 67.7316,-121.35 78.1882,-119.644 74.8421,-113.496"/>
</g>
<!-- Node17 -->
<g id="node17" class="node"><title>Node17</title>
<g id="a_node17"><a xlink:href="../../de/dc0/class_l3_g_d20.html#a6b351d62168974b705c6367ce1a3daa8" target="_top" xlink:title="Write a register in the L3GD20, updating _checked_values. ">
<polygon fill="white" stroke="black" points="298,-192.5 298,-211.5 438,-211.5 438,-192.5 298,-192.5"/>
<text text-anchor="middle" x="368" y="-199.5" font-family="Helvetica,sans-Serif" font-size="10.00">L3GD20::write_checked_reg</text>
</a>
</g>
</g>
<!-- Node1&#45;&gt;Node17 -->
<g id="edge23" class="edge"><title>Node1&#45;&gt;Node17</title>
<path fill="none" stroke="midnightblue" d="M76.0319,-145.102C92.261,-153.3 113.827,-163.139 134,-169 187.847,-184.645 250.929,-193 297.866,-197.385"/>
<polygon fill="midnightblue" stroke="midnightblue" points="77.6345,-141.991 67.144,-140.508 74.42,-148.209 77.6345,-141.991"/>
</g>
<!-- Node3 -->
<g id="node3" class="node"><title>Node3</title>
<g id="a_node3"><a xlink:href="../../de/dc0/class_l3_g_d20.html#a443a2de5bcb8c6fe473b0abeb66319c2" target="_top" xlink:title="Fetch measurements from the sensor and update the report ring. ">
<polygon fill="white" stroke="black" points="320,-79.5 320,-98.5 416,-98.5 416,-79.5 320,-79.5"/>
<text text-anchor="middle" x="368" y="-86.5" font-family="Helvetica,sans-Serif" font-size="10.00">L3GD20::measure</text>
</a>
</g>
</g>
<!-- Node2&#45;&gt;Node3 -->
<g id="edge2" class="edge"><title>Node2&#45;&gt;Node3</title>
<path fill="none" stroke="midnightblue" d="M272.041,-99.7395C288.261,-97.905 305.036,-96.0079 319.89,-94.3279"/>
<polygon fill="midnightblue" stroke="midnightblue" points="271.578,-96.2693 262.035,-100.871 272.365,-103.225 271.578,-96.2693"/>
</g>
<!-- Node4 -->
<g id="node4" class="node"><title>Node4</title>
<g id="a_node4"><a xlink:href="../../de/dc0/class_l3_g_d20.html#af95dab780439f0cc80056dc5f8ed5043" target="_top" xlink:title="L3GD20::init">
<polygon fill="white" stroke="black" points="782.5,-79.5 782.5,-98.5 853.5,-98.5 853.5,-79.5 782.5,-79.5"/>
<text text-anchor="middle" x="818" y="-86.5" font-family="Helvetica,sans-Serif" font-size="10.00">L3GD20::init</text>
</a>
</g>
</g>
<!-- Node3&#45;&gt;Node4 -->
<g id="edge3" class="edge"><title>Node3&#45;&gt;Node4</title>
<path fill="none" stroke="midnightblue" d="M426.302,-89C520.533,-89 705.414,-89 782.24,-89"/>
<polygon fill="midnightblue" stroke="midnightblue" points="426.097,-85.5001 416.097,-89 426.097,-92.5001 426.097,-85.5001"/>
</g>
<!-- Node7 -->
<g id="node7" class="node"><title>Node7</title>
<g id="a_node7"><a xlink:href="../../de/dc0/class_l3_g_d20.html#ab811b4486b901b82baaac9b720812de5" target="_top" xlink:title="Static trampoline from the hrt_call context; because we don&#39;t have a generic hrt wrapper yet...">
<polygon fill="white" stroke="black" points="474,-112.5 474,-131.5 620,-131.5 620,-112.5 474,-112.5"/>
<text text-anchor="middle" x="547" y="-119.5" font-family="Helvetica,sans-Serif" font-size="10.00">L3GD20::measure_trampoline</text>
</a>
</g>
</g>
<!-- Node3&#45;&gt;Node7 -->
<g id="edge6" class="edge"><title>Node3&#45;&gt;Node7</title>
<path fill="none" stroke="midnightblue" d="M426.359,-99.694C448.47,-103.816 473.553,-108.493 495.021,-112.496"/>
<polygon fill="midnightblue" stroke="midnightblue" points="426.905,-96.2356 416.433,-97.8434 425.622,-103.117 426.905,-96.2356"/>
</g>
<!-- Node12 -->
<g id="node12" class="node"><title>Node12</title>
<g id="a_node12"><a xlink:href="../../de/dc0/class_l3_g_d20.html#a747d9c811ae00c9c8d34840a130fb35e" target="_top" xlink:title="L3GD20::read">
<polygon fill="white" stroke="black" points="657.5,-36.5 657.5,-55.5 734.5,-55.5 734.5,-36.5 657.5,-36.5"/>
<text text-anchor="middle" x="696" y="-43.5" font-family="Helvetica,sans-Serif" font-size="10.00">L3GD20::read</text>
</a>
</g>
</g>
<!-- Node3&#45;&gt;Node12 -->
<g id="edge14" class="edge"><title>Node3&#45;&gt;Node12</title>
<path fill="none" stroke="midnightblue" d="M426.153,-77.8995C441.643,-75.0984 458.434,-72.2507 474,-70 538.17,-60.7217 613.294,-53.2852 657.359,-49.269"/>
<polygon fill="midnightblue" stroke="midnightblue" points="425.392,-74.4806 416.187,-79.7267 426.655,-81.3658 425.392,-74.4806"/>
</g>
<!-- Node5 -->
<g id="node5" class="node"><title>Node5</title>
<g id="a_node5"><a xlink:href="../../d5/db7/namespacel3gd20.html#a061f260878adf25f94d9833dd6d0e54f" target="_top" xlink:title="Start the driver. ">
<polygon fill="white" stroke="black" points="901,-79.5 901,-98.5 972,-98.5 972,-79.5 901,-79.5"/>
<text text-anchor="middle" x="936.5" y="-86.5" font-family="Helvetica,sans-Serif" font-size="10.00">l3gd20::start</text>
</a>
</g>
</g>
<!-- Node4&#45;&gt;Node5 -->
<g id="edge4" class="edge"><title>Node4&#45;&gt;Node5</title>
<path fill="none" stroke="midnightblue" d="M863.714,-89C876.009,-89 889.155,-89 900.794,-89"/>
<polygon fill="midnightblue" stroke="midnightblue" points="863.638,-85.5001 853.638,-89 863.638,-92.5001 863.638,-85.5001"/>
</g>
<!-- Node6 -->
<g id="node6" class="node"><title>Node6</title>
<g id="a_node6"><a xlink:href="../../d3/dca/l3gd20_8cpp.html#a6155ea8a71c5febe9652d5e5c8da1292" target="_top" xlink:title="l3gd20_main">
<polygon fill="white" stroke="black" points="1009,-60.5 1009,-79.5 1080,-79.5 1080,-60.5 1009,-60.5"/>
<text text-anchor="middle" x="1044.5" y="-67.5" font-family="Helvetica,sans-Serif" font-size="10.00">l3gd20_main</text>
</a>
</g>
</g>
<!-- Node5&#45;&gt;Node6 -->
<g id="edge5" class="edge"><title>Node5&#45;&gt;Node6</title>
<path fill="none" stroke="midnightblue" d="M982.066,-81.0117C990.97,-79.4158 1000.2,-77.7616 1008.71,-76.2353"/>
<polygon fill="midnightblue" stroke="midnightblue" points="981.434,-77.5692 972.208,-82.7787 982.669,-84.4594 981.434,-77.5692"/>
</g>
<!-- Node8 -->
<g id="node8" class="node"><title>Node8</title>
<g id="a_node8"><a xlink:href="../../de/dc0/class_l3_g_d20.html#ac29476d25d7c538135160c1f14a650c0" target="_top" xlink:title="Start automatic measurement. ">
<polygon fill="white" stroke="black" points="657,-117.5 657,-136.5 735,-136.5 735,-117.5 657,-117.5"/>
<text text-anchor="middle" x="696" y="-124.5" font-family="Helvetica,sans-Serif" font-size="10.00">L3GD20::start</text>
</a>
</g>
</g>
<!-- Node7&#45;&gt;Node8 -->
<g id="edge7" class="edge"><title>Node7&#45;&gt;Node8</title>
<path fill="none" stroke="midnightblue" d="M630.258,-124.798C639.479,-125.112 648.513,-125.419 656.769,-125.7"/>
<polygon fill="midnightblue" stroke="midnightblue" points="630.321,-121.298 620.208,-124.456 630.083,-128.294 630.321,-121.298"/>
</g>
<!-- Node9 -->
<g id="node9" class="node"><title>Node9</title>
<g id="a_node9"><a xlink:href="../../de/dc0/class_l3_g_d20.html#aa6df572b621d24d4dd9896dbdd3ed4fb" target="_top" xlink:title="L3GD20::ioctl">
<polygon fill="white" stroke="black" points="779.5,-117.5 779.5,-136.5 856.5,-136.5 856.5,-117.5 779.5,-117.5"/>
<text text-anchor="middle" x="818" y="-124.5" font-family="Helvetica,sans-Serif" font-size="10.00">L3GD20::ioctl</text>
</a>
</g>
</g>
<!-- Node8&#45;&gt;Node9 -->
<g id="edge8" class="edge"><title>Node8&#45;&gt;Node9</title>
<path fill="none" stroke="midnightblue" d="M745.491,-127C756.816,-127 768.71,-127 779.475,-127"/>
<polygon fill="midnightblue" stroke="midnightblue" points="745.299,-123.5 735.299,-127 745.299,-130.5 745.299,-123.5"/>
</g>
<!-- Node9&#45;&gt;Node5 -->
<g id="edge11" class="edge"><title>Node9&#45;&gt;Node5</title>
<path fill="none" stroke="midnightblue" d="M858.322,-114.174C873.953,-109.075 891.626,-103.311 906.112,-98.5859"/>
<polygon fill="midnightblue" stroke="midnightblue" points="856.82,-110.982 848.398,-117.411 858.99,-117.637 856.82,-110.982"/>
</g>
<!-- Node10 -->
<g id="node10" class="node"><title>Node10</title>
<g id="a_node10"><a xlink:href="../../d5/db7/namespacel3gd20.html#a96a171363b93c30e9f03c74f97b6aedd" target="_top" xlink:title="Reset the driver. ">
<polygon fill="white" stroke="black" points="900,-117.5 900,-136.5 973,-136.5 973,-117.5 900,-117.5"/>
<text text-anchor="middle" x="936.5" y="-124.5" font-family="Helvetica,sans-Serif" font-size="10.00">l3gd20::reset</text>
</a>
</g>
</g>
<!-- Node9&#45;&gt;Node10 -->
<g id="edge9" class="edge"><title>Node9&#45;&gt;Node10</title>
<path fill="none" stroke="midnightblue" d="M866.818,-127C877.796,-127 889.284,-127 899.655,-127"/>
<polygon fill="midnightblue" stroke="midnightblue" points="866.503,-123.5 856.503,-127 866.503,-130.5 866.503,-123.5"/>
</g>
<!-- Node11 -->
<g id="node11" class="node"><title>Node11</title>
<g id="a_node11"><a xlink:href="../../d5/db7/namespacel3gd20.html#a099f0465eb6a7ebd049953a47e975641" target="_top" xlink:title="Perform some basic functional tests on the driver; make sure we can collect data from the sensor in p...">
<polygon fill="white" stroke="black" points="902.5,-41.5 902.5,-60.5 970.5,-60.5 970.5,-41.5 902.5,-41.5"/>
<text text-anchor="middle" x="936.5" y="-48.5" font-family="Helvetica,sans-Serif" font-size="10.00">l3gd20::test</text>
</a>
</g>
</g>
<!-- Node9&#45;&gt;Node11 -->
<g id="edge12" class="edge"><title>Node9&#45;&gt;Node11</title>
<path fill="none" stroke="midnightblue" d="M855.833,-112.976C858.675,-111.438 861.434,-109.778 864,-108 883.122,-94.7496 881.507,-84.1148 900,-70 904.557,-66.5222 909.836,-63.323 914.909,-60.5807"/>
<polygon fill="midnightblue" stroke="midnightblue" points="854.057,-109.948 846.6,-117.474 857.122,-116.241 854.057,-109.948"/>
</g>
<!-- Node10&#45;&gt;Node6 -->
<g id="edge10" class="edge"><title>Node10&#45;&gt;Node6</title>
<path fill="none" stroke="midnightblue" d="M964.531,-112.543C967.391,-111.011 970.256,-109.474 973,-108 991.006,-98.3286 1011.58,-87.2346 1025.83,-79.5406"/>
<polygon fill="midnightblue" stroke="midnightblue" points="962.729,-109.538 955.565,-117.344 966.033,-115.709 962.729,-109.538"/>
</g>
<!-- Node11&#45;&gt;Node6 -->
<g id="edge13" class="edge"><title>Node11&#45;&gt;Node6</title>
<path fill="none" stroke="midnightblue" d="M980.708,-58.7448C990.094,-60.4272 999.905,-62.1857 1008.91,-63.7992"/>
<polygon fill="midnightblue" stroke="midnightblue" points="981.209,-55.2789 970.748,-56.9596 979.974,-62.1691 981.209,-55.2789"/>
</g>
<!-- Node12&#45;&gt;Node11 -->
<g id="edge15" class="edge"><title>Node12&#45;&gt;Node11</title>
<path fill="none" stroke="midnightblue" d="M744.713,-47.0003C791.461,-47.9803 861.475,-49.4481 902.416,-50.3064"/>
<polygon fill="midnightblue" stroke="midnightblue" points="744.599,-43.4972 734.528,-46.7868 744.452,-50.4957 744.599,-43.4972"/>
</g>
<!-- Node14 -->
<g id="node14" class="node"><title>Node14</title>
<g id="a_node14"><a xlink:href="../../de/dc0/class_l3_g_d20.html#a49f47b4010ad6a688448435eb9e3ea45" target="_top" xlink:title="Reset the driver. ">
<polygon fill="white" stroke="black" points="656,-164.5 656,-183.5 736,-183.5 736,-164.5 656,-164.5"/>
<text text-anchor="middle" x="696" y="-171.5" font-family="Helvetica,sans-Serif" font-size="10.00">L3GD20::reset</text>
</a>
</g>
</g>
<!-- Node13&#45;&gt;Node14 -->
<g id="edge17" class="edge"><title>Node13&#45;&gt;Node14</title>
<path fill="none" stroke="midnightblue" d="M611.012,-166.001C626.159,-167.444 641.912,-168.944 655.628,-170.25"/>
<polygon fill="midnightblue" stroke="midnightblue" points="610.942,-162.479 600.655,-165.015 610.278,-169.447 610.942,-162.479"/>
</g>
<!-- Node14&#45;&gt;Node4 -->
<g id="edge18" class="edge"><title>Node14&#45;&gt;Node4</title>
<path fill="none" stroke="midnightblue" d="M720.471,-158.247C725.727,-154.421 731.172,-150.213 736,-146 753.528,-130.703 752.878,-121.25 772,-108 777.298,-104.329 783.416,-101.163 789.4,-98.5262"/>
<polygon fill="midnightblue" stroke="midnightblue" points="718.101,-155.635 711.945,-164.258 722.135,-161.356 718.101,-155.635"/>
</g>
<!-- Node14&#45;&gt;Node9 -->
<g id="edge19" class="edge"><title>Node14&#45;&gt;Node9</title>
<path fill="none" stroke="midnightblue" d="M730.756,-160.779C750.334,-153.111 774.556,-143.624 792.34,-136.658"/>
<polygon fill="midnightblue" stroke="midnightblue" points="729.319,-157.583 721.284,-164.489 731.872,-164.101 729.319,-157.583"/>
</g>
<!-- Node16 -->
<g id="node16" class="node"><title>Node16</title>
<g id="a_node16"><a xlink:href="../../d5/db7/namespacel3gd20.html#a932bfbbbb76b3f6ba8c9c67ea4a36f3b" target="_top" xlink:title="trigger an error ">
<polygon fill="white" stroke="black" points="772,-0.5 772,-19.5 864,-19.5 864,-0.5 772,-0.5"/>
<text text-anchor="middle" x="818" y="-7.5" font-family="Helvetica,sans-Serif" font-size="10.00">l3gd20::test_error</text>
</a>
</g>
</g>
<!-- Node15&#45;&gt;Node16 -->
<g id="edge21" class="edge"><title>Node15&#45;&gt;Node16</title>
<path fill="none" stroke="midnightblue" d="M257.99,-47.0864C380.854,-38.9353 661.884,-20.2909 771.775,-13.0004"/>
<polygon fill="midnightblue" stroke="midnightblue" points="257.756,-43.5941 248.01,-47.7485 258.22,-50.5788 257.756,-43.5941"/>
</g>
<!-- Node16&#45;&gt;Node6 -->
<g id="edge22" class="edge"><title>Node16&#45;&gt;Node6</title>
<path fill="none" stroke="midnightblue" d="M874.315,-13.1678C904.13,-16.0454 941.219,-21.5339 973,-32 993.734,-38.8282 1015.55,-51.5735 1029.33,-60.41"/>
<polygon fill="midnightblue" stroke="midnightblue" points="874.364,-9.65844 864.093,-12.2551 873.742,-16.6307 874.364,-9.65844"/>
</g>
<!-- Node17&#45;&gt;Node13 -->
<g id="edge24" class="edge"><title>Node17&#45;&gt;Node13</title>
<path fill="none" stroke="midnightblue" d="M418.965,-190.144C446.39,-183.636 479.951,-175.673 505.689,-169.565"/>
<polygon fill="midnightblue" stroke="midnightblue" points="418.086,-186.755 409.164,-192.47 419.702,-193.566 418.086,-186.755"/>
</g>
<!-- Node17&#45;&gt;Node14 -->
<g id="edge26" class="edge"><title>Node17&#45;&gt;Node14</title>
<path fill="none" stroke="midnightblue" d="M448.448,-195.176C514.086,-189.539 604.498,-181.773 655.616,-177.383"/>
<polygon fill="midnightblue" stroke="midnightblue" points="447.8,-191.719 438.136,-196.062 448.399,-198.693 447.8,-191.719"/>
</g>
<!-- Node18 -->
<g id="node18" class="node"><title>Node18</title>
<g id="a_node18"><a xlink:href="../../de/dc0/class_l3_g_d20.html#ab92fede95277ce9fe8a848dcde7218b0" target="_top" xlink:title="Modify a register in the L3GD20. ">
<polygon fill="white" stroke="black" points="493.5,-226.5 493.5,-245.5 600.5,-245.5 600.5,-226.5 493.5,-226.5"/>
<text text-anchor="middle" x="547" y="-233.5" font-family="Helvetica,sans-Serif" font-size="10.00">L3GD20::modify_reg</text>
</a>
</g>
</g>
<!-- Node17&#45;&gt;Node18 -->
<g id="edge25" class="edge"><title>Node17&#45;&gt;Node18</title>
<path fill="none" stroke="midnightblue" d="M428.664,-213.461C450.642,-217.683 475.285,-222.416 496.292,-226.452"/>
<polygon fill="midnightblue" stroke="midnightblue" points="429.256,-210.011 418.775,-211.561 427.936,-216.885 429.256,-210.011"/>
</g>
<!-- Node19 -->
<g id="node19" class="node"><title>Node19</title>
<g id="a_node19"><a xlink:href="../../de/dc0/class_l3_g_d20.html#a0387e53360472db3a84e0e3b406d7870" target="_top" xlink:title="Set the L3GD20 measurement range. ">
<polygon fill="white" stroke="black" points="496.5,-264.5 496.5,-283.5 597.5,-283.5 597.5,-264.5 496.5,-264.5"/>
<text text-anchor="middle" x="547" y="-271.5" font-family="Helvetica,sans-Serif" font-size="10.00">L3GD20::set_range</text>
</a>
</g>
</g>
<!-- Node17&#45;&gt;Node19 -->
<g id="edge27" class="edge"><title>Node17&#45;&gt;Node19</title>
<path fill="none" stroke="midnightblue" d="M394.087,-216.546C414.946,-228.175 445.69,-244.256 474,-255 483.428,-258.578 493.794,-261.739 503.653,-264.406"/>
<polygon fill="midnightblue" stroke="midnightblue" points="395.672,-213.421 385.243,-211.551 392.229,-219.516 395.672,-213.421"/>
</g>
<!-- Node20 -->
<g id="node20" class="node"><title>Node20</title>
<g id="a_node20"><a xlink:href="../../de/dc0/class_l3_g_d20.html#a55fe53b0e4e9e0f11a493d6c7f2707ed" target="_top" xlink:title="Set the L3GD20 internal sampling frequency. ">
<polygon fill="white" stroke="black" points="484.5,-302.5 484.5,-321.5 609.5,-321.5 609.5,-302.5 484.5,-302.5"/>
<text text-anchor="middle" x="547" y="-309.5" font-family="Helvetica,sans-Serif" font-size="10.00">L3GD20::set_samplerate</text>
</a>
</g>
</g>
<!-- Node17&#45;&gt;Node20 -->
<g id="edge30" class="edge"><title>Node17&#45;&gt;Node20</title>
<path fill="none" stroke="midnightblue" d="M384.142,-219.239C403.13,-239.798 437.633,-273.786 474,-293 481.316,-296.865 489.473,-299.985 497.595,-302.491"/>
<polygon fill="midnightblue" stroke="midnightblue" points="386.517,-216.648 377.212,-211.581 381.326,-221.344 386.517,-216.648"/>
</g>
<!-- Node19&#45;&gt;Node9 -->
<g id="edge28" class="edge"><title>Node19&#45;&gt;Node9</title>
<path fill="none" stroke="midnightblue" d="M600.478,-261.686C607.126,-259.68 613.775,-257.446 620,-255 674.407,-233.62 687.337,-225.391 736,-193 762.879,-175.109 791.539,-150.189 806.509,-136.665"/>
<polygon fill="midnightblue" stroke="midnightblue" points="599.437,-258.344 590.788,-264.463 601.365,-265.073 599.437,-258.344"/>
</g>
<!-- Node19&#45;&gt;Node14 -->
<g id="edge29" class="edge"><title>Node19&#45;&gt;Node14</title>
<path fill="none" stroke="midnightblue" d="M606.99,-261.455C611.525,-259.589 615.92,-257.451 620,-255 651.215,-236.25 677.408,-200.714 688.84,-183.637"/>
<polygon fill="midnightblue" stroke="midnightblue" points="605.726,-258.19 597.539,-264.914 608.132,-264.764 605.726,-258.19"/>
</g>
<!-- Node20&#45;&gt;Node9 -->
<g id="edge31" class="edge"><title>Node20&#45;&gt;Node9</title>
<path fill="none" stroke="midnightblue" d="M601.21,-299.508C607.616,-297.551 614.007,-295.378 620,-293 674.532,-271.36 691.164,-267.839 736,-230 770.075,-201.243 799.453,-156.143 811.353,-136.583"/>
<polygon fill="midnightblue" stroke="midnightblue" points="599.821,-296.266 591.186,-302.404 601.764,-302.991 599.821,-296.266"/>
</g>
<!-- Node20&#45;&gt;Node14 -->
<g id="edge32" class="edge"><title>Node20&#45;&gt;Node14</title>
<path fill="none" stroke="midnightblue" d="M611.536,-298.272C614.5,-296.701 617.343,-294.951 620,-293 659.766,-263.81 683.473,-206.594 691.705,-183.754"/>
<polygon fill="midnightblue" stroke="midnightblue" points="609.986,-295.132 602.341,-302.467 612.892,-301.501 609.986,-295.132"/>
</g>
</g>
</svg>
        <g id="navigator" transform="translate(0 0)" fill="#404254">
                <rect fill="#f2f5e9" fill-opacity="0.5" stroke="#606060" stroke-width=".5" x="0" y="0" width="60" height="60"/>
                <use id="zoomplus" xlink:href="#zoomPlus" x="17" y="9" onmousedown="handleZoom(evt,'in')"/>
                <use id="zoomminus" xlink:href="#zoomMin" x="42" y="9" onmousedown="handleZoom(evt,'out')"/>
                <use id="reset" xlink:href="#resetDef" x="30" y="36" onmousedown="handleReset()"/>
                <g id="arrowUp" xlink:href="#dirArrow" transform="translate(30 24)" onmousedown="handlePan(0,-1)">
                  <use xlink:href="#rim" fill="#404040">
                        <set attributeName="fill" to="#808080" begin="arrowUp.mouseover" end="arrowUp.mouseout"/>
                  </use>
                  <path fill="none" stroke="white" stroke-width="1.5" d="M0,-3.0v7 M-2.5,-0.5L0,-3.0L2.5,-0.5"/>
                </g>
                <g id="arrowRight" xlink:href="#dirArrow" transform="rotate(90) translate(36 -43)" onmousedown="handlePan(1,0)">
                  <use xlink:href="#rim" fill="#404040">
                        <set attributeName="fill" to="#808080" begin="arrowRight.mouseover" end="arrowRight.mouseout"/>
                  </use>
                  <path fill="none" stroke="white" stroke-width="1.5" d="M0,-3.0v7 M-2.5,-0.5L0,-3.0L2.5,-0.5"/>
                </g>
                <g id="arrowDown" xlink:href="#dirArrow" transform="rotate(180) translate(-30 -48)" onmousedown="handlePan(0,1)">
                  <use xlink:href="#rim" fill="#404040">
                        <set attributeName="fill" to="#808080" begin="arrowDown.mouseover" end="arrowDown.mouseout"/>
                  </use>
                  <path fill="none" stroke="white" stroke-width="1.5" d="M0,-3.0v7 M-2.5,-0.5L0,-3.0L2.5,-0.5"/>
                </g>
                <g id="arrowLeft" xlink:href="#dirArrow" transform="rotate(270) translate(-36 17)" onmousedown="handlePan(-1,0)">
                  <use xlink:href="#rim" fill="#404040">
                        <set attributeName="fill" to="#808080" begin="arrowLeft.mouseover" end="arrowLeft.mouseout"/>
                  </use>
                  <path fill="none" stroke="white" stroke-width="1.5" d="M0,-3.0v7 M-2.5,-0.5L0,-3.0L2.5,-0.5"/>
                </g>
        </g>
        <svg viewBox="0 0 15 15" width="100%" height="30px" preserveAspectRatio="xMaxYMin meet">
         <g id="arrow_out" transform="scale(0.3 0.3)">
          <a xlink:href="class_l3_g_d20_a0df0e57b20291c0b005a1a42855719e6_icgraph_org.svg" target="_base">
           <rect id="button" ry="5" rx="5" y="6" x="6" height="38" width="38"
                fill="#f2f5e9" fill-opacity="0.5" stroke="#606060" stroke-width="1.0"/>
           <path id="arrow"
             d="M 11.500037,31.436501 C 11.940474,20.09759 22.043105,11.32322 32.158766,21.979434 L 37.068811,17.246167 C 37.068811,17.246167 37.088388,32 37.088388,32 L 22.160133,31.978069 C 22.160133,31.978069 26.997745,27.140456 26.997745,27.140456 C 18.528582,18.264221 13.291696,25.230495 11.500037,31.436501 z"
             style="fill:#404040;"/>
          </a>
         </g>
        </svg>
</svg>
