<?xml version="1.0" encoding="UTF-8" standalone="no"?>
<!DOCTYPE svg PUBLIC "-//W3C//DTD SVG 1.1//EN"
 "http://www.w3.org/Graphics/SVG/1.1/DTD/svg11.dtd">
<!-- Generated by graphviz version 2.40.1 (20161225.0304)
 -->
<!-- Title: L3GD20::set_samplerate Pages: 1 -->
<svg width="443pt" height="28pt"
 viewBox="0.00 0.00 443.00 28.00" xmlns="http://www.w3.org/2000/svg" xmlns:xlink="http://www.w3.org/1999/xlink">
<g id="graph0" class="graph" transform="scale(1 1) rotate(0) translate(4 24)">
<title>L3GD20::set_samplerate</title>
<polygon fill="#ffffff" stroke="transparent" points="-4,4 -4,-24 439,-24 439,4 -4,4"/>
<!-- Node204 -->
<g id="node1" class="node">
<title>Node204</title>
<polygon fill="#bfbfbf" stroke="#000000" points="0,-.5 0,-19.5 125,-19.5 125,-.5 0,-.5"/>
<text text-anchor="middle" x="62.5" y="-7.5" font-family="Helvetica,sans-Serif" font-size="10.00" fill="#000000">L3GD20::set_samplerate</text>
</g>
<!-- Node205 -->
<g id="node2" class="node">
<title>Node205</title>
<g id="a_node2"><a xlink:href="../../de/dc0/class_l3_g_d20.html#a6b351d62168974b705c6367ce1a3daa8" target="_top" xlink:title="Write a register in the L3GD20, updating _checked_values. ">
<polygon fill="#ffffff" stroke="#000000" points="161,-.5 161,-19.5 301,-19.5 301,-.5 161,-.5"/>
<text text-anchor="middle" x="231" y="-7.5" font-family="Helvetica,sans-Serif" font-size="10.00" fill="#000000">L3GD20::write_checked_reg</text>
</a>
</g>
</g>
<!-- Node204&#45;&gt;Node205 -->
<g id="edge1" class="edge">
<title>Node204&#45;&gt;Node205</title>
<path fill="none" stroke="#191970" d="M125.2432,-10C133.5824,-10 142.223,-10 150.8073,-10"/>
<polygon fill="#191970" stroke="#191970" points="150.8372,-13.5001 160.8371,-10 150.8371,-6.5001 150.8372,-13.5001"/>
</g>
<!-- Node206 -->
<g id="node3" class="node">
<title>Node206</title>
<g id="a_node3"><a xlink:href="../../de/dc0/class_l3_g_d20.html#a0df0e57b20291c0b005a1a42855719e6" target="_top" xlink:title="Write a register in the L3GD20. ">
<polygon fill="#ffffff" stroke="#000000" points="337,-.5 337,-19.5 435,-19.5 435,-.5 337,-.5"/>
<text text-anchor="middle" x="386" y="-7.5" font-family="Helvetica,sans-Serif" font-size="10.00" fill="#000000">L3GD20::write_reg</text>
</a>
</g>
</g>
<!-- Node205&#45;&gt;Node206 -->
<g id="edge2" class="edge">
<title>Node205&#45;&gt;Node206</title>
<path fill="none" stroke="#191970" d="M301.2438,-10C309.7857,-10 318.4462,-10 326.8053,-10"/>
<polygon fill="#191970" stroke="#191970" points="326.824,-13.5001 336.824,-10 326.8239,-6.5001 326.824,-13.5001"/>
</g>
</g>
</svg>
