<?xml version="1.0" encoding="UTF-8" standalone="no"?>
<!DOCTYPE svg PUBLIC "-//W3C//DTD SVG 1.1//EN"
 "http://www.w3.org/Graphics/SVG/1.1/DTD/svg11.dtd">
<!-- Generated by graphviz version 2.40.1 (20161225.0304)
 -->
<!-- Title: L3GD20::print_info Pages: 1 -->
<!--zoomable 116 -->
<svg id="main" version="1.1" xmlns="http://www.w3.org/2000/svg" xmlns:xlink="http://www.w3.org/1999/xlink" xml:space="preserve" onload="init(evt)">
<style type="text/css"><![CDATA[
.edge:hover path { stroke: red; }
.edge:hover polygon { stroke: red; fill: red; }
]]></style>
<script type="text/javascript"><![CDATA[
var edges = document.getElementsByTagName('g');
if (edges && edges.length) {
  for (var i=0;i<edges.length;i++) {
    if (edges[i].id.substr(0,4)=='edge') {
      edges[i].setAttribute('class','edge');
    }
  }
}
]]></script>
        <defs>
                <circle id="rim" cx="0" cy="0" r="7"/>
                <circle id="rim2" cx="0" cy="0" r="3.5"/>
                <g id="zoomPlus">
                        <use xlink:href="#rim" fill="#404040">
                                <set attributeName="fill" to="#808080" begin="zoomplus.mouseover" end="zoomplus.mouseout"/>
                        </use>
                        <path d="M-4,0h8M0,-4v8" fill="none" stroke="white" stroke-width="1.5" pointer-events="none"/>
                </g>
                <g id="zoomMin">
                        <use xlink:href="#rim" fill="#404040">
                                <set attributeName="fill" to="#808080" begin="zoomminus.mouseover" end="zoomminus.mouseout"/>
                        </use>
                        <path d="M-4,0h8" fill="none" stroke="white" stroke-width="1.5" pointer-events="none"/>
                </g>
                <g id="dirArrow">
                        <path fill="none" stroke="white" stroke-width="1.5" d="M0,-3.0v7 M-2.5,-0.5L0,-3.0L2.5,-0.5"/>
                </g>
               <g id="resetDef">
                       <use xlink:href="#rim2" fill="#404040">
                               <set attributeName="fill" to="#808080" begin="reset.mouseover" end="reset.mouseout"/>
                       </use>
               </g>
        </defs>

<script type="text/javascript">
var viewWidth = 824;
var viewHeight = 116;
var sectionId = 'dynsection-14';
</script>
<script xlink:href="../../svgpan.js"/>
<svg id="graph" class="graph">
<g id="viewport">
<title>L3GD20::print_info</title>
<polygon fill="#ffffff" stroke="transparent" points="-4,4 -4,-112 820,-112 820,4 -4,4"/>
<!-- Node97 -->
<g id="node1" class="node">
<title>Node97</title>
<polygon fill="#bfbfbf" stroke="#000000" points="0,-44.5 0,-63.5 98,-63.5 98,-44.5 0,-44.5"/>
<text text-anchor="middle" x="49" y="-51.5" font-family="Helvetica,sans-Serif" font-size="10.00" fill="#000000">L3GD20::print_info</text>
</g>
<!-- Node98 -->
<g id="node2" class="node">
<title>Node98</title>
<g id="a_node2"><a xlink:href="../../df/d7b/perf__counter_8cpp.html#a9ef0940a2dc6d642b13f817b3443e660" target="_top" xlink:title="Print one performance counter to stdout. ">
<polygon fill="#ffffff" stroke="#000000" points="140,-88.5 140,-107.5 235,-107.5 235,-88.5 140,-88.5"/>
<text text-anchor="middle" x="187.5" y="-95.5" font-family="Helvetica,sans-Serif" font-size="10.00" fill="#000000">perf_print_counter</text>
</a>
</g>
</g>
<!-- Node97&#45;&gt;Node98 -->
<g id="edge1" class="edge">
<title>Node97&#45;&gt;Node98</title>
<path fill="none" stroke="#191970" d="M79.0524,-63.5473C99.1981,-69.9474 125.943,-78.444 147.832,-85.3979"/>
<polygon fill="#191970" stroke="#191970" points="146.9159,-88.7792 157.5062,-88.4713 149.0353,-82.1077 146.9159,-88.7792"/>
</g>
<!-- Node100 -->
<g id="node4" class="node">
<title>Node100</title>
<g id="a_node4"><a xlink:href="../../d4/d1b/class_p_x4_gyroscope.html#a85a969fdb90ea9dec776174450c32680" target="_top" xlink:title="PX4Gyroscope::print\l_status">
<polygon fill="#ffffff" stroke="#000000" points="134,-39 134,-69 241,-69 241,-39 134,-39"/>
<text text-anchor="start" x="142" y="-57" font-family="Helvetica,sans-Serif" font-size="10.00" fill="#000000">PX4Gyroscope::print</text>
<text text-anchor="middle" x="187.5" y="-46" font-family="Helvetica,sans-Serif" font-size="10.00" fill="#000000">_status</text>
</a>
</g>
</g>
<!-- Node97&#45;&gt;Node100 -->
<g id="edge3" class="edge">
<title>Node97&#45;&gt;Node100</title>
<path fill="none" stroke="#191970" d="M98.2199,-54C106.4008,-54 114.9898,-54 123.4737,-54"/>
<polygon fill="#191970" stroke="#191970" points="123.7355,-57.5001 133.7355,-54 123.7354,-50.5001 123.7355,-57.5001"/>
</g>
<!-- Node105 -->
<g id="node9" class="node">
<title>Node105</title>
<g id="a_node9"><a xlink:href="../../de/dc0/class_l3_g_d20.html#aec5cea2015f55fbb18a4567b9e77dd7b" target="_top" xlink:title="Read a register from the L3GD20. ">
<polygon fill="#ffffff" stroke="#000000" points="139.5,-.5 139.5,-19.5 235.5,-19.5 235.5,-.5 139.5,-.5"/>
<text text-anchor="middle" x="187.5" y="-7.5" font-family="Helvetica,sans-Serif" font-size="10.00" fill="#000000">L3GD20::read_reg</text>
</a>
</g>
</g>
<!-- Node97&#45;&gt;Node105 -->
<g id="edge8" class="edge">
<title>Node97&#45;&gt;Node105</title>
<path fill="none" stroke="#191970" d="M79.0524,-44.4527C99.1981,-38.0526 125.943,-29.556 147.832,-22.6021"/>
<polygon fill="#191970" stroke="#191970" points="149.0353,-25.8923 157.5062,-19.5287 146.9159,-19.2208 149.0353,-25.8923"/>
</g>
<!-- Node99 -->
<g id="node3" class="node">
<title>Node99</title>
<g id="a_node3"><a xlink:href="../../df/d7b/perf__counter_8cpp.html#ac15423e549766f6c8eaca3478223e5f2" target="_top" xlink:title="Print one performance counter to a fd. ">
<polygon fill="#ffffff" stroke="#000000" points="302.5,-88.5 302.5,-107.5 410.5,-107.5 410.5,-88.5 302.5,-88.5"/>
<text text-anchor="middle" x="356.5" y="-95.5" font-family="Helvetica,sans-Serif" font-size="10.00" fill="#000000">perf_print_counter_fd</text>
</a>
</g>
</g>
<!-- Node98&#45;&gt;Node99 -->
<g id="edge2" class="edge">
<title>Node98&#45;&gt;Node99</title>
<path fill="none" stroke="#191970" d="M235.0257,-98C252.8181,-98 273.335,-98 292.3824,-98"/>
<polygon fill="#191970" stroke="#191970" points="292.4855,-101.5001 302.4855,-98 292.4854,-94.5001 292.4855,-101.5001"/>
</g>
<!-- Node101 -->
<g id="node5" class="node">
<title>Node101</title>
<g id="a_node5"><a xlink:href="../../d0/d30/classmath_1_1_low_pass_filter2p_vector3f.html#ac586a1dbb0bda72b081c296326746d0b" target="_top" xlink:title="math::LowPassFilter2pVector3f\l::get_cutoff_freq">
<polygon fill="#ffffff" stroke="#000000" points="279.5,-39 279.5,-69 433.5,-69 433.5,-39 279.5,-39"/>
<text text-anchor="start" x="287.5" y="-57" font-family="Helvetica,sans-Serif" font-size="10.00" fill="#000000">math::LowPassFilter2pVector3f</text>
<text text-anchor="middle" x="356.5" y="-46" font-family="Helvetica,sans-Serif" font-size="10.00" fill="#000000">::get_cutoff_freq</text>
</a>
</g>
</g>
<!-- Node100&#45;&gt;Node101 -->
<g id="edge4" class="edge">
<title>Node100&#45;&gt;Node101</title>
<path fill="none" stroke="#191970" d="M241.4373,-54C250.3049,-54 259.6914,-54 269.1257,-54"/>
<polygon fill="#191970" stroke="#191970" points="269.3595,-57.5001 279.3595,-54 269.3594,-50.5001 269.3595,-57.5001"/>
</g>
<!-- Node104 -->
<g id="node8" class="node">
<title>Node104</title>
<g id="a_node8"><a xlink:href="../../de/d84/classu_o_r_b_1_1_publication_multi_data.html#ad34053c0417701f6951d21e5b6618b34" target="_top" xlink:title="uORB::PublicationMultiData::get">
<polygon fill="#ffffff" stroke="#000000" points="277,-.5 277,-19.5 436,-19.5 436,-.5 277,-.5"/>
<text text-anchor="middle" x="356.5" y="-7.5" font-family="Helvetica,sans-Serif" font-size="10.00" fill="#000000">uORB::PublicationMultiData::get</text>
</a>
</g>
</g>
<!-- Node100&#45;&gt;Node104 -->
<g id="edge7" class="edge">
<title>Node100&#45;&gt;Node104</title>
<path fill="none" stroke="#191970" d="M241.4178,-39.3964C253.139,-36.2624 265.4781,-32.9939 277,-30 287.1255,-27.3689 297.9908,-24.5998 308.3363,-21.9889"/>
<polygon fill="#191970" stroke="#191970" points="309.211,-25.378 318.0547,-19.5438 307.503,-18.5896 309.211,-25.378"/>
</g>
<!-- Node102 -->
<g id="node6" class="node">
<title>Node102</title>
<g id="a_node6"><a xlink:href="../../d0/d30/classmath_1_1_low_pass_filter2p_vector3f.html#a95c2514501357aced2d8c1b5282bc710" target="_top" xlink:title="math::LowPassFilter2pVector3f\l::reset">
<polygon fill="#ffffff" stroke="#000000" points="472,-39 472,-69 626,-69 626,-39 472,-39"/>
<text text-anchor="start" x="480" y="-57" font-family="Helvetica,sans-Serif" font-size="10.00" fill="#000000">math::LowPassFilter2pVector3f</text>
<text text-anchor="middle" x="549" y="-46" font-family="Helvetica,sans-Serif" font-size="10.00" fill="#000000">::reset</text>
</a>
</g>
</g>
<!-- Node101&#45;&gt;Node102 -->
<g id="edge5" class="edge">
<title>Node101&#45;&gt;Node102</title>
<path fill="none" stroke="#191970" d="M433.6879,-54C442.9058,-54 452.3666,-54 461.7137,-54"/>
<polygon fill="#191970" stroke="#191970" points="461.7948,-57.5001 471.7947,-54 461.7947,-50.5001 461.7948,-57.5001"/>
</g>
<!-- Node103 -->
<g id="node7" class="node">
<title>Node103</title>
<g id="a_node7"><a xlink:href="../../d0/d30/classmath_1_1_low_pass_filter2p_vector3f.html#a3a354392866066751ae5d5e318d563a5" target="_top" xlink:title="Add a new raw value to the filter. ">
<polygon fill="#ffffff" stroke="#000000" points="662,-39 662,-69 816,-69 816,-39 662,-39"/>
<text text-anchor="start" x="670" y="-57" font-family="Helvetica,sans-Serif" font-size="10.00" fill="#000000">math::LowPassFilter2pVector3f</text>
<text text-anchor="middle" x="739" y="-46" font-family="Helvetica,sans-Serif" font-size="10.00" fill="#000000">::apply</text>
</a>
</g>
</g>
<!-- Node102&#45;&gt;Node103 -->
<g id="edge6" class="edge">
<title>Node102&#45;&gt;Node103</title>
<path fill="none" stroke="#191970" d="M626.0064,-54C634.5089,-54 643.211,-54 651.8267,-54"/>
<polygon fill="#191970" stroke="#191970" points="651.884,-57.5001 661.884,-54 651.8839,-50.5001 651.884,-57.5001"/>
</g>
</g>
</svg>
        <g id="navigator" transform="translate(0 0)" fill="#404254">
                <rect fill="#f2f5e9" fill-opacity="0.5" stroke="#606060" stroke-width=".5" x="0" y="0" width="60" height="60"/>
                <use id="zoomplus" xlink:href="#zoomPlus" x="17" y="9" onmousedown="handleZoom(evt,'in')"/>
                <use id="zoomminus" xlink:href="#zoomMin" x="42" y="9" onmousedown="handleZoom(evt,'out')"/>
                <use id="reset" xlink:href="#resetDef" x="30" y="36" onmousedown="handleReset()"/>
                <g id="arrowUp" xlink:href="#dirArrow" transform="translate(30 24)" onmousedown="handlePan(0,-1)">
                  <use xlink:href="#rim" fill="#404040">
                        <set attributeName="fill" to="#808080" begin="arrowUp.mouseover" end="arrowUp.mouseout"/>
                  </use>
                  <path fill="none" stroke="white" stroke-width="1.5" d="M0,-3.0v7 M-2.5,-0.5L0,-3.0L2.5,-0.5"/>
                </g>
                <g id="arrowRight" xlink:href="#dirArrow" transform="rotate(90) translate(36 -43)" onmousedown="handlePan(1,0)">
                  <use xlink:href="#rim" fill="#404040">
                        <set attributeName="fill" to="#808080" begin="arrowRight.mouseover" end="arrowRight.mouseout"/>
                  </use>
                  <path fill="none" stroke="white" stroke-width="1.5" d="M0,-3.0v7 M-2.5,-0.5L0,-3.0L2.5,-0.5"/>
                </g>
                <g id="arrowDown" xlink:href="#dirArrow" transform="rotate(180) translate(-30 -48)" onmousedown="handlePan(0,1)">
                  <use xlink:href="#rim" fill="#404040">
                        <set attributeName="fill" to="#808080" begin="arrowDown.mouseover" end="arrowDown.mouseout"/>
                  </use>
                  <path fill="none" stroke="white" stroke-width="1.5" d="M0,-3.0v7 M-2.5,-0.5L0,-3.0L2.5,-0.5"/>
                </g>
                <g id="arrowLeft" xlink:href="#dirArrow" transform="rotate(270) translate(-36 17)" onmousedown="handlePan(-1,0)">
                  <use xlink:href="#rim" fill="#404040">
                        <set attributeName="fill" to="#808080" begin="arrowLeft.mouseover" end="arrowLeft.mouseout"/>
                  </use>
                  <path fill="none" stroke="white" stroke-width="1.5" d="M0,-3.0v7 M-2.5,-0.5L0,-3.0L2.5,-0.5"/>
                </g>
        </g>
        <svg viewBox="0 0 15 15" width="100%" height="30px" preserveAspectRatio="xMaxYMin meet">
         <g id="arrow_out" transform="scale(0.3 0.3)">
          <a xlink:href="class_l3_g_d20_a682ecead254b3ae97c8fc0fefd0d7458_cgraph_org.svg" target="_base">
           <rect id="button" ry="5" rx="5" y="6" x="6" height="38" width="38"
                fill="#f2f5e9" fill-opacity="0.5" stroke="#606060" stroke-width="1.0"/>
           <path id="arrow"
             d="M 11.500037,31.436501 C 11.940474,20.09759 22.043105,11.32322 32.158766,21.979434 L 37.068811,17.246167 C 37.068811,17.246167 37.088388,32 37.088388,32 L 22.160133,31.978069 C 22.160133,31.978069 26.997745,27.140456 26.997745,27.140456 C 18.528582,18.264221 13.291696,25.230495 11.500037,31.436501 z"
             style="fill:#404040;"/>
          </a>
         </g>
        </svg>
</svg>
