<?xml version="1.0" encoding="UTF-8" standalone="no"?>
<!DOCTYPE svg PUBLIC "-//W3C//DTD SVG 1.1//EN"
 "http://www.w3.org/Graphics/SVG/1.1/DTD/svg11.dtd">
<!-- Generated by graphviz version 2.40.1 (20161225.0304)
 -->
<!-- Title: ControlMath::thrustToAttitude Pages: 1 -->
<svg width="627pt" height="218pt"
 viewBox="0.00 0.00 627.00 218.00" xmlns="http://www.w3.org/2000/svg" xmlns:xlink="http://www.w3.org/1999/xlink">
<g id="graph0" class="graph" transform="scale(1 1) rotate(0) translate(4 214)">
<title>ControlMath::thrustToAttitude</title>
<polygon fill="#ffffff" stroke="transparent" points="-4,4 -4,-214 623,-214 623,4 -4,4"/>
<!-- Node19 -->
<g id="node1" class="node">
<title>Node19</title>
<polygon fill="#bfbfbf" stroke="#000000" points="0,-95.5 0,-114.5 146,-114.5 146,-95.5 0,-95.5"/>
<text text-anchor="middle" x="73" y="-102.5" font-family="Helvetica,sans-Serif" font-size="10.00" fill="#000000">ControlMath::thrustToAttitude</text>
</g>
<!-- Node20 -->
<g id="node2" class="node">
<title>Node20</title>
<g id="a_node2"><a xlink:href="../../dd/df8/classmatrix_1_1_matrix.html#a46af950c7f4bdbba51525788362f1d85" target="_top" xlink:title="matrix::Matrix::copyTo">
<polygon fill="#ffffff" stroke="#000000" points="193,-190.5 193,-209.5 308,-209.5 308,-190.5 193,-190.5"/>
<text text-anchor="middle" x="250.5" y="-197.5" font-family="Helvetica,sans-Serif" font-size="10.00" fill="#000000">matrix::Matrix::copyTo</text>
</a>
</g>
</g>
<!-- Node19&#45;&gt;Node20 -->
<g id="edge1" class="edge">
<title>Node19&#45;&gt;Node20</title>
<path fill="none" stroke="#191970" d="M83.9795,-114.585C102.7965,-130.5482 142.9642,-162.6359 182,-181 186.9555,-183.3313 192.2512,-185.4252 197.6203,-187.2941"/>
<polygon fill="#191970" stroke="#191970" points="196.7147,-190.6795 207.3063,-190.4176 198.8632,-184.0173 196.7147,-190.6795"/>
</g>
<!-- Node21 -->
<g id="node3" class="node">
<title>Node21</title>
<g id="a_node3"><a xlink:href="../../d8/da1/integration_8cpp.html#af5ba872dd09316732300733cc164ac1a" target="_top" xlink:title="f">
<polygon fill="#ffffff" stroke="#000000" points="236,-152.5 236,-171.5 265,-171.5 265,-152.5 236,-152.5"/>
<text text-anchor="middle" x="250.5" y="-159.5" font-family="Helvetica,sans-Serif" font-size="10.00" fill="#000000">f</text>
</a>
</g>
</g>
<!-- Node19&#45;&gt;Node21 -->
<g id="edge2" class="edge">
<title>Node19&#45;&gt;Node21</title>
<path fill="none" stroke="#191970" d="M98.8303,-114.5361C120.8177,-122.5255 153.3086,-134.03 182,-143 196.5923,-147.5621 213.1027,-152.1582 226.2577,-155.687"/>
<polygon fill="#191970" stroke="#191970" points="225.4245,-159.087 235.9876,-158.2672 227.2188,-152.3208 225.4245,-159.087"/>
</g>
<!-- Node24 -->
<g id="node6" class="node">
<title>Node24</title>
<g id="a_node6"><a xlink:href="../../d1/d71/classmatrix_1_1_vector.html#abd91dec134022f2adbd739b4ced6806d" target="_top" xlink:title="matrix::Vector::length">
<polygon fill="#ffffff" stroke="#000000" points="195.5,-114.5 195.5,-133.5 305.5,-133.5 305.5,-114.5 195.5,-114.5"/>
<text text-anchor="middle" x="250.5" y="-121.5" font-family="Helvetica,sans-Serif" font-size="10.00" fill="#000000">matrix::Vector::length</text>
</a>
</g>
</g>
<!-- Node19&#45;&gt;Node24 -->
<g id="edge6" class="edge">
<title>Node19&#45;&gt;Node24</title>
<path fill="none" stroke="#191970" d="M146.2208,-112.8377C159.1815,-114.2251 172.5983,-115.6612 185.3187,-117.0228"/>
<polygon fill="#191970" stroke="#191970" points="185.033,-120.5122 195.3488,-118.0965 185.7782,-113.5519 185.033,-120.5122"/>
</g>
<!-- Node25 -->
<g id="node7" class="node">
<title>Node25</title>
<g id="a_node7"><a xlink:href="../../d1/d71/classmatrix_1_1_vector.html#a365e3830426a4718bd625f6826319aaf" target="_top" xlink:title="matrix::Vector::normalize">
<polygon fill="#ffffff" stroke="#000000" points="187.5,-76.5 187.5,-95.5 313.5,-95.5 313.5,-76.5 187.5,-76.5"/>
<text text-anchor="middle" x="250.5" y="-83.5" font-family="Helvetica,sans-Serif" font-size="10.00" fill="#000000">matrix::Vector::normalize</text>
</a>
</g>
</g>
<!-- Node19&#45;&gt;Node25 -->
<g id="edge7" class="edge">
<title>Node19&#45;&gt;Node25</title>
<path fill="none" stroke="#191970" d="M146.2208,-97.1623C156.4629,-96.0659 166.9897,-94.9391 177.2326,-93.8427"/>
<polygon fill="#191970" stroke="#191970" points="177.7891,-97.3032 187.3598,-92.7587 177.044,-90.343 177.7891,-97.3032"/>
</g>
<!-- Node26 -->
<g id="node8" class="node">
<title>Node26</title>
<g id="a_node8"><a xlink:href="../../d3/d87/classmatrix_1_1_vector3.html#a77e2b6dfb26590217b9cb36e378b014f" target="_top" xlink:title="matrix::Vector3::normalized">
<polygon fill="#ffffff" stroke="#000000" points="182,-38.5 182,-57.5 319,-57.5 319,-38.5 182,-38.5"/>
<text text-anchor="middle" x="250.5" y="-45.5" font-family="Helvetica,sans-Serif" font-size="10.00" fill="#000000">matrix::Vector3::normalized</text>
</a>
</g>
</g>
<!-- Node19&#45;&gt;Node26 -->
<g id="edge8" class="edge">
<title>Node19&#45;&gt;Node26</title>
<path fill="none" stroke="#191970" d="M98.8303,-95.4639C120.8177,-87.4745 153.3086,-75.97 182,-67 189.2893,-64.7211 197.0571,-62.4337 204.6463,-60.2752"/>
<polygon fill="#191970" stroke="#191970" points="205.7805,-63.5922 214.4648,-57.5232 203.8912,-56.852 205.7805,-63.5922"/>
</g>
<!-- Node29 -->
<g id="node11" class="node">
<title>Node29</title>
<g id="a_node11"><a xlink:href="../../dd/df8/classmatrix_1_1_matrix.html#ad8721eb35f3ba841530be24984f75d8f" target="_top" xlink:title="matrix::Matrix::zero">
<polygon fill="#ffffff" stroke="#000000" points="200,-.5 200,-19.5 301,-19.5 301,-.5 200,-.5"/>
<text text-anchor="middle" x="250.5" y="-7.5" font-family="Helvetica,sans-Serif" font-size="10.00" fill="#000000">matrix::Matrix::zero</text>
</a>
</g>
</g>
<!-- Node19&#45;&gt;Node29 -->
<g id="edge11" class="edge">
<title>Node19&#45;&gt;Node29</title>
<path fill="none" stroke="#191970" d="M83.9795,-95.415C102.7965,-79.4518 142.9642,-47.3641 182,-29 186.9555,-26.6687 192.2512,-24.5748 197.6203,-22.7059"/>
<polygon fill="#191970" stroke="#191970" points="198.8632,-25.9827 207.3063,-19.5824 196.7147,-19.3205 198.8632,-25.9827"/>
</g>
<!-- Node22 -->
<g id="node4" class="node">
<title>Node22</title>
<g id="a_node4"><a xlink:href="../../d0/de4/namespacematrix.html#a761295febb473ca1226309513533e801" target="_top" xlink:title="matrix::sin">
<polygon fill="#ffffff" stroke="#000000" points="376.5,-152.5 376.5,-171.5 438.5,-171.5 438.5,-152.5 376.5,-152.5"/>
<text text-anchor="middle" x="407.5" y="-159.5" font-family="Helvetica,sans-Serif" font-size="10.00" fill="#000000">matrix::sin</text>
</a>
</g>
</g>
<!-- Node21&#45;&gt;Node22 -->
<g id="edge3" class="edge">
<title>Node21&#45;&gt;Node22</title>
<path fill="none" stroke="#191970" d="M265.2702,-162C288.0693,-162 332.6692,-162 365.8764,-162"/>
<polygon fill="#191970" stroke="#191970" points="366.2156,-165.5001 376.2156,-162 366.2155,-158.5001 366.2156,-165.5001"/>
</g>
<!-- Node23 -->
<g id="node5" class="node">
<title>Node23</title>
<g id="a_node5"><a xlink:href="../../d0/de4/namespacematrix.html#a2e09123c750ed3a0315a31f3b27a3ed9" target="_top" xlink:title="matrix::cos">
<polygon fill="#ffffff" stroke="#000000" points="525,-152.5 525,-171.5 590,-171.5 590,-152.5 525,-152.5"/>
<text text-anchor="middle" x="557.5" y="-159.5" font-family="Helvetica,sans-Serif" font-size="10.00" fill="#000000">matrix::cos</text>
</a>
</g>
</g>
<!-- Node22&#45;&gt;Node23 -->
<g id="edge4" class="edge">
<title>Node22&#45;&gt;Node23</title>
<path fill="none" stroke="#191970" d="M438.5801,-156.4073C460.6553,-155.0834 490.5686,-154.8954 514.8707,-155.8431"/>
<polygon fill="#191970" stroke="#191970" points="514.7485,-159.3411 524.9031,-156.3188 515.0801,-152.349 514.7485,-159.3411"/>
</g>
<!-- Node23&#45;&gt;Node22 -->
<g id="edge5" class="edge">
<title>Node23&#45;&gt;Node22</title>
<path fill="none" stroke="#191970" d="M524.9031,-167.6812C502.5788,-168.9477 472.7891,-169.0886 448.8039,-168.1039"/>
<polygon fill="#191970" stroke="#191970" points="448.7424,-164.5965 438.5801,-167.5927 448.3928,-171.5878 448.7424,-164.5965"/>
</g>
<!-- Node27 -->
<g id="node9" class="node">
<title>Node27</title>
<g id="a_node9"><a xlink:href="../../d3/d87/classmatrix_1_1_vector3.html#a5fc7319c98ce605b7c2a78c849403eea" target="_top" xlink:title="Override vector ops so Vector3 type is returned. ">
<polygon fill="#ffffff" stroke="#000000" points="355,-38.5 355,-57.5 460,-57.5 460,-38.5 355,-38.5"/>
<text text-anchor="middle" x="407.5" y="-45.5" font-family="Helvetica,sans-Serif" font-size="10.00" fill="#000000">matrix::Vector3::unit</text>
</a>
</g>
</g>
<!-- Node26&#45;&gt;Node27 -->
<g id="edge9" class="edge">
<title>Node26&#45;&gt;Node27</title>
<path fill="none" stroke="#191970" d="M319.3625,-48C327.7972,-48 336.3827,-48 344.7213,-48"/>
<polygon fill="#191970" stroke="#191970" points="344.7436,-51.5001 354.7435,-48 344.7435,-44.5001 344.7436,-51.5001"/>
</g>
<!-- Node28 -->
<g id="node10" class="node">
<title>Node28</title>
<g id="a_node10"><a xlink:href="../../d3/d87/classmatrix_1_1_vector3.html#a9029b1db14d97448eb625344400240d2" target="_top" xlink:title="matrix::Vector3::Vector3">
<polygon fill="#ffffff" stroke="#000000" points="496,-38.5 496,-57.5 619,-57.5 619,-38.5 496,-38.5"/>
<text text-anchor="middle" x="557.5" y="-45.5" font-family="Helvetica,sans-Serif" font-size="10.00" fill="#000000">matrix::Vector3::Vector3</text>
</a>
</g>
</g>
<!-- Node27&#45;&gt;Node28 -->
<g id="edge10" class="edge">
<title>Node27&#45;&gt;Node28</title>
<path fill="none" stroke="#191970" d="M460.3844,-48C468.6294,-48 477.2659,-48 485.8441,-48"/>
<polygon fill="#191970" stroke="#191970" points="485.8602,-51.5001 495.8602,-48 485.8602,-44.5001 485.8602,-51.5001"/>
</g>
</g>
</svg>
