<?xml version="1.0" encoding="UTF-8" standalone="no"?>
<!DOCTYPE svg PUBLIC "-//W3C//DTD SVG 1.1//EN"
 "http://www.w3.org/Graphics/SVG/1.1/DTD/svg11.dtd">
<!-- Generated by graphviz version 2.38.0 (20140413.2041)
 -->
<!-- Title: param_import_callback Pages: 1 -->
<!--zoomable 142 -->
<svg id="main" version="1.1" xmlns="http://www.w3.org/2000/svg" xmlns:xlink="http://www.w3.org/1999/xlink" xml:space="preserve" onload="init(evt)">
<style type="text/css"><![CDATA[
.edge:hover path { stroke: red; }
.edge:hover polygon { stroke: red; fill: red; }
]]></style>
<script type="text/javascript"><![CDATA[
var edges = document.getElementsByTagName('g');
if (edges && edges.length) {
  for (var i=0;i<edges.length;i++) {
    if (edges[i].id.substr(0,4)=='edge') {
      edges[i].setAttribute('class','edge');
    }
  }
}
]]></script>
        <defs>
                <circle id="rim" cx="0" cy="0" r="7"/>
                <circle id="rim2" cx="0" cy="0" r="3.5"/>
                <g id="zoomPlus">
                        <use xlink:href="#rim" fill="#404040">
                                <set attributeName="fill" to="#808080" begin="zoomplus.mouseover" end="zoomplus.mouseout"/>
                        </use>
                        <path d="M-4,0h8M0,-4v8" fill="none" stroke="white" stroke-width="1.5" pointer-events="none"/>
                </g>
                <g id="zoomMin">
                        <use xlink:href="#rim" fill="#404040">
                                <set attributeName="fill" to="#808080" begin="zoomminus.mouseover" end="zoomminus.mouseout"/>
                        </use>
                        <path d="M-4,0h8" fill="none" stroke="white" stroke-width="1.5" pointer-events="none"/>
                </g>
                <g id="dirArrow">
                        <path fill="none" stroke="white" stroke-width="1.5" d="M0,-3.0v7 M-2.5,-0.5L0,-3.0L2.5,-0.5"/>
                </g>
               <g id="resetDef">
                       <use xlink:href="#rim2" fill="#404040">
                               <set attributeName="fill" to="#808080" begin="reset.mouseover" end="reset.mouseout"/>
                       </use>
               </g>
        </defs>

<script type="text/javascript">
var viewWidth = 866;
var viewHeight = 142;
var sectionId = 'dynsection-9';
</script>
<script xlink:href="../../svgpan.js"/>
<svg id="graph" class="graph">
<g id="viewport">
<title>param_import_callback</title>
<polygon fill="white" stroke="none" points="-4,4 -4,-138 862,-138 862,4 -4,4"/>
<!-- Node1 -->
<g id="node1" class="node"><title>Node1</title>
<polygon fill="#bfbfbf" stroke="black" points="0,-57.5 0,-76.5 117,-76.5 117,-57.5 0,-57.5"/>
<text text-anchor="middle" x="58.5" y="-64.5" font-family="Helvetica,sans-Serif" font-size="10.00">param_import_callback</text>
</g>
<!-- Node2 -->
<g id="node2" class="node"><title>Node2</title>
<g id="a_node2"><a xlink:href="../../d2/d06/flashparams_8c.html#a7beb5b96ba541ce2540cead064c44e80" target="_top" xlink:title="param_import_internal">
<polygon fill="white" stroke="black" points="153,-57.5 153,-76.5 266,-76.5 266,-57.5 153,-57.5"/>
<text text-anchor="middle" x="209.5" y="-64.5" font-family="Helvetica,sans-Serif" font-size="10.00">param_import_internal</text>
</a>
</g>
</g>
<!-- Node1&#45;&gt;Node2 -->
<g id="edge1" class="edge"><title>Node1&#45;&gt;Node2</title>
<path fill="none" stroke="midnightblue" d="M127.307,-67C135.741,-67 144.289,-67 152.516,-67"/>
<polygon fill="midnightblue" stroke="midnightblue" points="127.107,-63.5001 117.107,-67 127.107,-70.5001 127.107,-63.5001"/>
</g>
<!-- Node3 -->
<g id="node3" class="node"><title>Node3</title>
<g id="a_node3"><a xlink:href="../../d3/d19/flashparams_8h.html#af4dc1d2d7d653d7e8538c9f49009ca53" target="_top" xlink:title="flash_param_load">
<polygon fill="white" stroke="black" points="302,-57.5 302,-76.5 395,-76.5 395,-57.5 302,-57.5"/>
<text text-anchor="middle" x="348.5" y="-64.5" font-family="Helvetica,sans-Serif" font-size="10.00">flash_param_load</text>
</a>
</g>
</g>
<!-- Node2&#45;&gt;Node3 -->
<g id="edge2" class="edge"><title>Node2&#45;&gt;Node3</title>
<path fill="none" stroke="midnightblue" d="M276.316,-67C284.965,-67 293.671,-67 301.881,-67"/>
<polygon fill="midnightblue" stroke="midnightblue" points="276.223,-63.5001 266.223,-67 276.223,-70.5001 276.223,-63.5001"/>
</g>
<!-- Node4 -->
<g id="node4" class="node"><title>Node4</title>
<g id="a_node4"><a xlink:href="../../d5/d33/param_8h.html#a522cbacb68bd0295f89c216d3fe9efbd" target="_top" xlink:title="Load parameters from the default parameter file. ">
<polygon fill="white" stroke="black" points="431,-57.5 431,-76.5 532,-76.5 532,-57.5 431,-57.5"/>
<text text-anchor="middle" x="481.5" y="-64.5" font-family="Helvetica,sans-Serif" font-size="10.00">param_load_default</text>
</a>
</g>
</g>
<!-- Node3&#45;&gt;Node4 -->
<g id="edge3" class="edge"><title>Node3&#45;&gt;Node4</title>
<path fill="none" stroke="midnightblue" d="M405.484,-67C413.938,-67 422.609,-67 430.916,-67"/>
<polygon fill="midnightblue" stroke="midnightblue" points="405.317,-63.5001 395.317,-67 405.317,-70.5001 405.317,-63.5001"/>
</g>
<!-- Node5 -->
<g id="node5" class="node"><title>Node5</title>
<g id="a_node5"><a xlink:href="../../da/d73/_commander_8cpp.html#af62ee6f05861387a2bc3831c160afea8" target="_top" xlink:title="Loop that runs at a lower rate and priority for calibration and parameter tasks. ">
<polygon fill="white" stroke="black" points="578.5,-114.5 578.5,-133.5 710.5,-133.5 710.5,-114.5 578.5,-114.5"/>
<text text-anchor="middle" x="644.5" y="-121.5" font-family="Helvetica,sans-Serif" font-size="10.00">commander_low_prio_loop</text>
</a>
</g>
</g>
<!-- Node4&#45;&gt;Node5 -->
<g id="edge4" class="edge"><title>Node4&#45;&gt;Node5</title>
<path fill="none" stroke="midnightblue" d="M510.549,-80.9303C527.005,-88.7308 548.362,-98.2211 568,-105 578.221,-108.528 589.427,-111.707 600.004,-114.41"/>
<polygon fill="midnightblue" stroke="midnightblue" points="512.005,-77.7469 501.476,-76.5661 508.97,-84.055 512.005,-77.7469"/>
</g>
<!-- Node7 -->
<g id="node7" class="node"><title>Node7</title>
<g id="a_node7"><a xlink:href="../../d9/d30/param_8cpp.html#acdb587df4fccb667a10a4b46328bdfc1" target="_top" xlink:title="param_main">
<polygon fill="white" stroke="black" points="609.5,-76.5 609.5,-95.5 679.5,-95.5 679.5,-76.5 609.5,-76.5"/>
<text text-anchor="middle" x="644.5" y="-83.5" font-family="Helvetica,sans-Serif" font-size="10.00">param_main</text>
</a>
</g>
</g>
<!-- Node4&#45;&gt;Node7 -->
<g id="edge6" class="edge"><title>Node4&#45;&gt;Node7</title>
<path fill="none" stroke="midnightblue" d="M542.278,-74.0545C564.804,-76.7128 589.653,-79.6453 609.093,-81.9395"/>
<polygon fill="midnightblue" stroke="midnightblue" points="542.46,-70.5519 532.119,-72.8557 541.64,-77.5036 542.46,-70.5519"/>
</g>
<!-- Node8 -->
<g id="node8" class="node"><title>Node8</title>
<g id="a_node8"><a xlink:href="../../d6/d89/class_parameter_test.html#a50e40a2a9f3282c662dcca0a92a809c8" target="_top" xlink:title="ParameterTest::exportImport">
<polygon fill="white" stroke="black" points="573.5,-38.5 573.5,-57.5 715.5,-57.5 715.5,-38.5 573.5,-38.5"/>
<text text-anchor="middle" x="644.5" y="-45.5" font-family="Helvetica,sans-Serif" font-size="10.00">ParameterTest::exportImport</text>
</a>
</g>
</g>
<!-- Node4&#45;&gt;Node8 -->
<g id="edge7" class="edge"><title>Node4&#45;&gt;Node8</title>
<path fill="none" stroke="midnightblue" d="M542.102,-59.9663C552.27,-58.7663 562.917,-57.5098 573.329,-56.2811"/>
<polygon fill="midnightblue" stroke="midnightblue" points="541.64,-56.4964 532.119,-61.1443 542.46,-63.4481 541.64,-56.4964"/>
</g>
<!-- Node10 -->
<g id="node10" class="node"><title>Node10</title>
<g id="a_node10"><a xlink:href="../../d6/d89/class_parameter_test.html#a612b8826b7d08994dfde86e42b594641" target="_top" xlink:title="ParameterTest::exportImportAll">
<polygon fill="white" stroke="black" points="568,-0.5 568,-19.5 721,-19.5 721,-0.5 568,-0.5"/>
<text text-anchor="middle" x="644.5" y="-7.5" font-family="Helvetica,sans-Serif" font-size="10.00">ParameterTest::exportImportAll</text>
</a>
</g>
</g>
<!-- Node4&#45;&gt;Node10 -->
<g id="edge9" class="edge"><title>Node4&#45;&gt;Node10</title>
<path fill="none" stroke="midnightblue" d="M510.549,-53.0697C527.005,-45.2692 548.362,-35.7789 568,-29 578.221,-25.4718 589.427,-22.2932 600.004,-19.5903"/>
<polygon fill="midnightblue" stroke="midnightblue" points="508.97,-49.945 501.476,-57.4339 512.005,-56.2531 508.97,-49.945"/>
</g>
<!-- Node6 -->
<g id="node6" class="node"><title>Node6</title>
<g id="a_node6"><a xlink:href="../../d3/dc6/class_commander.html#a86abaf98d17aeacd9aef07a0a9a6fb9a" target="_top" xlink:title="Commander::run">
<polygon fill="white" stroke="black" points="763,-114.5 763,-133.5 852,-133.5 852,-114.5 763,-114.5"/>
<text text-anchor="middle" x="807.5" y="-121.5" font-family="Helvetica,sans-Serif" font-size="10.00">Commander::run</text>
</a>
</g>
</g>
<!-- Node5&#45;&gt;Node6 -->
<g id="edge5" class="edge"><title>Node5&#45;&gt;Node6</title>
<path fill="none" stroke="midnightblue" d="M720.522,-124C735.058,-124 749.833,-124 762.939,-124"/>
<polygon fill="midnightblue" stroke="midnightblue" points="720.521,-120.5 710.521,-124 720.521,-127.5 720.521,-120.5"/>
</g>
<!-- Node9 -->
<g id="node9" class="node"><title>Node9</title>
<g id="a_node9"><a xlink:href="../../d6/d89/class_parameter_test.html#a97850908363a100ca589f3b4db5e51d6" target="_top" xlink:title="Override to run your unit tests. ">
<polygon fill="white" stroke="black" points="757,-14 757,-44 858,-44 858,-14 757,-14"/>
<text text-anchor="start" x="765" y="-32" font-family="Helvetica,sans-Serif" font-size="10.00">ParameterTest::run</text>
<text text-anchor="middle" x="807.5" y="-21" font-family="Helvetica,sans-Serif" font-size="10.00">_tests</text>
</a>
</g>
</g>
<!-- Node8&#45;&gt;Node9 -->
<g id="edge8" class="edge"><title>Node8&#45;&gt;Node9</title>
<path fill="none" stroke="midnightblue" d="M725.795,-38.5242C736.405,-37.2721 747.02,-36.0194 756.902,-34.8532"/>
<polygon fill="midnightblue" stroke="midnightblue" points="725.169,-35.0736 715.649,-39.7216 725.99,-42.0254 725.169,-35.0736"/>
</g>
<!-- Node10&#45;&gt;Node9 -->
<g id="edge10" class="edge"><title>Node10&#45;&gt;Node9</title>
<path fill="none" stroke="midnightblue" d="M731.48,-20.1467C740.151,-21.17 748.737,-22.1832 756.833,-23.1387"/>
<polygon fill="midnightblue" stroke="midnightblue" points="731.627,-16.6398 721.286,-18.9436 730.806,-23.5916 731.627,-16.6398"/>
</g>
</g>
</svg>
        <g id="navigator" transform="translate(0 0)" fill="#404254">
                <rect fill="#f2f5e9" fill-opacity="0.5" stroke="#606060" stroke-width=".5" x="0" y="0" width="60" height="60"/>
                <use id="zoomplus" xlink:href="#zoomPlus" x="17" y="9" onmousedown="handleZoom(evt,'in')"/>
                <use id="zoomminus" xlink:href="#zoomMin" x="42" y="9" onmousedown="handleZoom(evt,'out')"/>
                <use id="reset" xlink:href="#resetDef" x="30" y="36" onmousedown="handleReset()"/>
                <g id="arrowUp" xlink:href="#dirArrow" transform="translate(30 24)" onmousedown="handlePan(0,-1)">
                  <use xlink:href="#rim" fill="#404040">
                        <set attributeName="fill" to="#808080" begin="arrowUp.mouseover" end="arrowUp.mouseout"/>
                  </use>
                  <path fill="none" stroke="white" stroke-width="1.5" d="M0,-3.0v7 M-2.5,-0.5L0,-3.0L2.5,-0.5"/>
                </g>
                <g id="arrowRight" xlink:href="#dirArrow" transform="rotate(90) translate(36 -43)" onmousedown="handlePan(1,0)">
                  <use xlink:href="#rim" fill="#404040">
                        <set attributeName="fill" to="#808080" begin="arrowRight.mouseover" end="arrowRight.mouseout"/>
                  </use>
                  <path fill="none" stroke="white" stroke-width="1.5" d="M0,-3.0v7 M-2.5,-0.5L0,-3.0L2.5,-0.5"/>
                </g>
                <g id="arrowDown" xlink:href="#dirArrow" transform="rotate(180) translate(-30 -48)" onmousedown="handlePan(0,1)">
                  <use xlink:href="#rim" fill="#404040">
                        <set attributeName="fill" to="#808080" begin="arrowDown.mouseover" end="arrowDown.mouseout"/>
                  </use>
                  <path fill="none" stroke="white" stroke-width="1.5" d="M0,-3.0v7 M-2.5,-0.5L0,-3.0L2.5,-0.5"/>
                </g>
                <g id="arrowLeft" xlink:href="#dirArrow" transform="rotate(270) translate(-36 17)" onmousedown="handlePan(-1,0)">
                  <use xlink:href="#rim" fill="#404040">
                        <set attributeName="fill" to="#808080" begin="arrowLeft.mouseover" end="arrowLeft.mouseout"/>
                  </use>
                  <path fill="none" stroke="white" stroke-width="1.5" d="M0,-3.0v7 M-2.5,-0.5L0,-3.0L2.5,-0.5"/>
                </g>
        </g>
        <svg viewBox="0 0 15 15" width="100%" height="30px" preserveAspectRatio="xMaxYMin meet">
         <g id="arrow_out" transform="scale(0.3 0.3)">
          <a xlink:href="flashparams_8c_aef043febf8ac8ffbac1efcc936e76e8a_icgraph_org.svg" target="_base">
           <rect id="button" ry="5" rx="5" y="6" x="6" height="38" width="38"
                fill="#f2f5e9" fill-opacity="0.5" stroke="#606060" stroke-width="1.0"/>
           <path id="arrow"
             d="M 11.500037,31.436501 C 11.940474,20.09759 22.043105,11.32322 32.158766,21.979434 L 37.068811,17.246167 C 37.068811,17.246167 37.088388,32 37.088388,32 L 22.160133,31.978069 C 22.160133,31.978069 26.997745,27.140456 26.997745,27.140456 C 18.528582,18.264221 13.291696,25.230495 11.500037,31.436501 z"
             style="fill:#404040;"/>
          </a>
         </g>
        </svg>
</svg>
