<?xml version="1.0" encoding="UTF-8" standalone="no"?>
<!DOCTYPE svg PUBLIC "-//W3C//DTD SVG 1.1//EN"
 "http://www.w3.org/Graphics/SVG/1.1/DTD/svg11.dtd">
<!-- Generated by graphviz version 2.38.0 (20140413.2041)
 -->
<!-- Title: src/drivers/drv_airspeed.h Pages: 1 -->
<svg width="426pt" height="364pt"
 viewBox="0.00 0.00 425.50 364.00" xmlns="http://www.w3.org/2000/svg" xmlns:xlink="http://www.w3.org/1999/xlink">
<g id="graph0" class="graph" transform="scale(1 1) rotate(0) translate(4 360)">
<title>src/drivers/drv_airspeed.h</title>
<polygon fill="white" stroke="none" points="-4,4 -4,-360 421.5,-360 421.5,4 -4,4"/>
<!-- Node1 -->
<g id="node1" class="node"><title>Node1</title>
<polygon fill="#bfbfbf" stroke="black" points="150.5,-336.5 150.5,-355.5 279.5,-355.5 279.5,-336.5 150.5,-336.5"/>
<text text-anchor="middle" x="215" y="-343.5" font-family="Helvetica,sans-Serif" font-size="10.00">src/drivers/drv_airspeed.h</text>
</g>
<!-- Node2 -->
<g id="node2" class="node"><title>Node2</title>
<polygon fill="white" stroke="#bfbfbf" points="51.5,-0.5 51.5,-19.5 100.5,-19.5 100.5,-0.5 51.5,-0.5"/>
<text text-anchor="middle" x="76" y="-7.5" font-family="Helvetica,sans-Serif" font-size="10.00">stdint.h</text>
</g>
<!-- Node1&#45;&gt;Node2 -->
<g id="edge1" class="edge"><title>Node1&#45;&gt;Node2</title>
<path fill="none" stroke="midnightblue" d="M150.493,-339.055C87.1633,-329.25 0,-303.343 0,-235 0,-235 0,-235 0,-121 0,-81.2757 33.9641,-45.5045 56.4821,-26.1536"/>
<polygon fill="midnightblue" stroke="midnightblue" points="58.9755,-28.6337 64.4572,-19.5672 54.518,-23.2364 58.9755,-28.6337"/>
</g>
<!-- Node3 -->
<g id="node3" class="node"><title>Node3</title>
<polygon fill="white" stroke="#bfbfbf" points="348,-112.5 348,-131.5 410,-131.5 410,-112.5 348,-112.5"/>
<text text-anchor="middle" x="379" y="-119.5" font-family="Helvetica,sans-Serif" font-size="10.00">sys/ioctl.h</text>
</g>
<!-- Node1&#45;&gt;Node3 -->
<g id="edge2" class="edge"><title>Node1&#45;&gt;Node3</title>
<path fill="none" stroke="midnightblue" d="M228.825,-336.439C241.924,-327.998 261.8,-314.317 277,-300 322.883,-256.783 337.759,-245.309 364,-188 370.78,-173.192 374.638,-155.039 376.737,-141.684"/>
<polygon fill="midnightblue" stroke="midnightblue" points="380.205,-142.16 378.114,-131.773 373.271,-141.197 380.205,-142.16"/>
</g>
<!-- Node4 -->
<g id="node4" class="node"><title>Node4</title>
<g id="a_node4"><a xlink:href="../../df/dae/drv__sensor_8h.html" target="_top" xlink:title="Common sensor API and ioctl definitions. ">
<polygon fill="white" stroke="black" points="195.5,-280.5 195.5,-299.5 268.5,-299.5 268.5,-280.5 195.5,-280.5"/>
<text text-anchor="middle" x="232" y="-287.5" font-family="Helvetica,sans-Serif" font-size="10.00">drv_sensor.h</text>
</a>
</g>
</g>
<!-- Node1&#45;&gt;Node4 -->
<g id="edge3" class="edge"><title>Node1&#45;&gt;Node4</title>
<path fill="none" stroke="midnightblue" d="M217.807,-336.083C220.085,-328.849 223.371,-318.409 226.208,-309.397"/>
<polygon fill="midnightblue" stroke="midnightblue" points="229.581,-310.341 229.245,-299.751 222.904,-308.239 229.581,-310.341"/>
</g>
<!-- Node12 -->
<g id="node12" class="node"><title>Node12</title>
<g id="a_node12"><a xlink:href="../../d8/d61/drv__orb__dev_8h.html" target="_top" xlink:title="uORB published object driver. ">
<polygon fill="white" stroke="black" points="94,-168.5 94,-187.5 172,-187.5 172,-168.5 94,-168.5"/>
<text text-anchor="middle" x="133" y="-175.5" font-family="Helvetica,sans-Serif" font-size="10.00">drv_orb_dev.h</text>
</a>
</g>
</g>
<!-- Node1&#45;&gt;Node12 -->
<g id="edge24" class="edge"><title>Node1&#45;&gt;Node12</title>
<path fill="none" stroke="midnightblue" d="M208.791,-336.289C202.603,-327.405 193.033,-313.102 186,-300 167.093,-264.779 149.362,-221.426 139.971,-197.342"/>
<polygon fill="midnightblue" stroke="midnightblue" points="143.13,-195.805 136.269,-187.731 136.598,-198.321 143.13,-195.805"/>
</g>
<!-- Node4&#45;&gt;Node2 -->
<g id="edge12" class="edge"><title>Node4&#45;&gt;Node2</title>
<path fill="none" stroke="midnightblue" d="M195.053,-284.768C138.766,-276.038 38,-250.435 38,-179 38,-179 38,-179 38,-121 38,-86.8131 54.6005,-49.7639 65.8573,-28.5707"/>
<polygon fill="midnightblue" stroke="midnightblue" points="68.9473,-30.2151 70.7163,-19.769 62.8191,-26.832 68.9473,-30.2151"/>
</g>
<!-- Node4&#45;&gt;Node3 -->
<g id="edge13" class="edge"><title>Node4&#45;&gt;Node3</title>
<path fill="none" stroke="midnightblue" d="M248.751,-280.469C263.425,-272.436 284.732,-259.363 300,-244 331.553,-212.251 357.497,-165.983 370.325,-140.855"/>
<polygon fill="midnightblue" stroke="midnightblue" points="373.527,-142.277 374.86,-131.767 367.263,-139.152 373.527,-142.277"/>
</g>
<!-- Node5 -->
<g id="node5" class="node"><title>Node5</title>
<g id="a_node5"><a xlink:href="../../df/dd0/px4__defines_8h.html" target="_top" xlink:title="Generally used magic defines. ">
<polygon fill="white" stroke="black" points="228.5,-112.5 228.5,-131.5 305.5,-131.5 305.5,-112.5 228.5,-112.5"/>
<text text-anchor="middle" x="267" y="-119.5" font-family="Helvetica,sans-Serif" font-size="10.00">px4_defines.h</text>
</a>
</g>
</g>
<!-- Node4&#45;&gt;Node5 -->
<g id="edge4" class="edge"><title>Node4&#45;&gt;Node5</title>
<path fill="none" stroke="midnightblue" d="M242.571,-280.396C261.041,-264.513 298.247,-228.49 309,-188 311.281,-179.409 312.26,-176.27 309,-168 304.486,-156.548 295.531,-146.291 287.045,-138.472"/>
<polygon fill="midnightblue" stroke="midnightblue" points="289.085,-135.611 279.214,-131.764 284.531,-140.927 289.085,-135.611"/>
</g>
<!-- Node11 -->
<g id="node11" class="node"><title>Node11</title>
<g id="a_node11"><a xlink:href="../../d3/dc5/drv__device_8h.html" target="_top" xlink:title="Generic device / sensor interface. ">
<polygon fill="white" stroke="black" points="196,-224.5 196,-243.5 268,-243.5 268,-224.5 196,-224.5"/>
<text text-anchor="middle" x="232" y="-231.5" font-family="Helvetica,sans-Serif" font-size="10.00">drv_device.h</text>
</a>
</g>
</g>
<!-- Node4&#45;&gt;Node11 -->
<g id="edge14" class="edge"><title>Node4&#45;&gt;Node11</title>
<path fill="none" stroke="midnightblue" d="M226.834,-280.083C225.324,-272.927 224.894,-262.635 225.542,-253.691"/>
<polygon fill="midnightblue" stroke="midnightblue" points="229.015,-254.126 226.869,-243.751 222.077,-253.2 229.015,-254.126"/>
</g>
<!-- Node6 -->
<g id="node6" class="node"><title>Node6</title>
<g id="a_node6"><a xlink:href="../../d7/d53/px4__log_8h.html" target="_top" xlink:title="Platform dependant logging/debug implementation. ">
<polygon fill="white" stroke="black" points="237.5,-56.5 237.5,-75.5 296.5,-75.5 296.5,-56.5 237.5,-56.5"/>
<text text-anchor="middle" x="267" y="-63.5" font-family="Helvetica,sans-Serif" font-size="10.00">px4_log.h</text>
</a>
</g>
</g>
<!-- Node5&#45;&gt;Node6 -->
<g id="edge5" class="edge"><title>Node5&#45;&gt;Node6</title>
<path fill="none" stroke="midnightblue" d="M261.834,-112.083C260.324,-104.927 259.894,-94.6353 260.542,-85.6911"/>
<polygon fill="midnightblue" stroke="midnightblue" points="264.015,-86.1262 261.869,-75.7511 257.077,-85.2002 264.015,-86.1262"/>
</g>
<!-- Node6&#45;&gt;Node2 -->
<g id="edge7" class="edge"><title>Node6&#45;&gt;Node2</title>
<path fill="none" stroke="midnightblue" d="M237.156,-56.5625C202.823,-46.8557 146.546,-30.945 110.4,-20.7258"/>
<polygon fill="midnightblue" stroke="midnightblue" points="111.349,-17.3569 100.774,-18.0042 109.445,-24.0928 111.349,-17.3569"/>
</g>
<!-- Node6&#45;&gt;Node5 -->
<g id="edge11" class="edge"><title>Node6&#45;&gt;Node5</title>
<path fill="none" stroke="midnightblue" d="M272.131,-75.7511C273.657,-82.8579 274.104,-93.1357 273.472,-102.101"/>
<polygon fill="midnightblue" stroke="midnightblue" points="269.993,-101.713 272.166,-112.083 276.934,-102.622 269.993,-101.713"/>
</g>
<!-- Node7 -->
<g id="node7" class="node"><title>Node7</title>
<polygon fill="white" stroke="#bfbfbf" points="358.5,-0.5 358.5,-19.5 417.5,-19.5 417.5,-0.5 358.5,-0.5"/>
<text text-anchor="middle" x="388" y="-7.5" font-family="Helvetica,sans-Serif" font-size="10.00">inttypes.h</text>
</g>
<!-- Node6&#45;&gt;Node7 -->
<g id="edge6" class="edge"><title>Node6&#45;&gt;Node7</title>
<path fill="none" stroke="midnightblue" d="M286.173,-56.4435C305.909,-47.6356 336.885,-33.8116 359.493,-23.722"/>
<polygon fill="midnightblue" stroke="midnightblue" points="361.211,-26.788 368.917,-19.5164 358.359,-20.3957 361.211,-26.788"/>
</g>
<!-- Node8 -->
<g id="node8" class="node"><title>Node8</title>
<polygon fill="white" stroke="#bfbfbf" points="138,-0.5 138,-19.5 206,-19.5 206,-0.5 138,-0.5"/>
<text text-anchor="middle" x="172" y="-7.5" font-family="Helvetica,sans-Serif" font-size="10.00">sys/cdefs.h</text>
</g>
<!-- Node6&#45;&gt;Node8 -->
<g id="edge8" class="edge"><title>Node6&#45;&gt;Node8</title>
<path fill="none" stroke="midnightblue" d="M251.737,-56.324C236.779,-47.8215 213.745,-34.7288 196.273,-24.7975"/>
<polygon fill="midnightblue" stroke="midnightblue" points="197.649,-21.5534 187.226,-19.6545 194.19,-27.639 197.649,-21.5534"/>
</g>
<!-- Node9 -->
<g id="node9" class="node"><title>Node9</title>
<polygon fill="white" stroke="#bfbfbf" points="224,-0.5 224,-19.5 270,-19.5 270,-0.5 224,-0.5"/>
<text text-anchor="middle" x="247" y="-7.5" font-family="Helvetica,sans-Serif" font-size="10.00">stdio.h</text>
</g>
<!-- Node6&#45;&gt;Node9 -->
<g id="edge9" class="edge"><title>Node6&#45;&gt;Node9</title>
<path fill="none" stroke="midnightblue" d="M263.697,-56.083C261.018,-48.8486 257.151,-38.4087 253.814,-29.3968"/>
<polygon fill="midnightblue" stroke="midnightblue" points="256.996,-27.9129 250.241,-19.7511 250.432,-30.3442 256.996,-27.9129"/>
</g>
<!-- Node10 -->
<g id="node10" class="node"><title>Node10</title>
<polygon fill="white" stroke="#bfbfbf" points="288,-0.5 288,-19.5 340,-19.5 340,-0.5 288,-0.5"/>
<text text-anchor="middle" x="314" y="-7.5" font-family="Helvetica,sans-Serif" font-size="10.00">stdarg.h</text>
</g>
<!-- Node6&#45;&gt;Node10 -->
<g id="edge10" class="edge"><title>Node6&#45;&gt;Node10</title>
<path fill="none" stroke="midnightblue" d="M274.761,-56.083C281.537,-48.2982 291.543,-36.8015 299.755,-27.3665"/>
<polygon fill="midnightblue" stroke="midnightblue" points="302.458,-29.592 306.383,-19.7511 297.178,-24.9963 302.458,-29.592"/>
</g>
<!-- Node11&#45;&gt;Node2 -->
<g id="edge15" class="edge"><title>Node11&#45;&gt;Node2</title>
<path fill="none" stroke="midnightblue" d="M229.716,-224.494C223.918,-203.879 207.201,-150.146 181,-112 156.746,-76.689 118.627,-43.8939 95.6043,-25.7408"/>
<polygon fill="midnightblue" stroke="midnightblue" points="97.6291,-22.882 87.58,-19.5256 93.3427,-28.4162 97.6291,-22.882"/>
</g>
<!-- Node11&#45;&gt;Node3 -->
<g id="edge16" class="edge"><title>Node11&#45;&gt;Node3</title>
<path fill="none" stroke="midnightblue" d="M249.191,-224.356C265.256,-215.959 289.606,-202.398 309,-188 329.259,-172.96 350.161,-152.839 363.787,-138.988"/>
<polygon fill="midnightblue" stroke="midnightblue" points="366.461,-141.259 370.909,-131.644 361.435,-136.386 366.461,-141.259"/>
</g>
<!-- Node11&#45;&gt;Node4 -->
<g id="edge17" class="edge"><title>Node11&#45;&gt;Node4</title>
<path fill="none" stroke="midnightblue" d="M237.131,-243.751C238.657,-250.858 239.104,-261.136 238.472,-270.101"/>
<polygon fill="midnightblue" stroke="midnightblue" points="234.993,-269.713 237.166,-280.083 241.934,-270.622 234.993,-269.713"/>
</g>
<!-- Node11&#45;&gt;Node12 -->
<g id="edge18" class="edge"><title>Node11&#45;&gt;Node12</title>
<path fill="none" stroke="midnightblue" d="M216.094,-224.324C200.362,-215.743 176.058,-202.486 157.791,-192.522"/>
<polygon fill="midnightblue" stroke="midnightblue" points="159.322,-189.37 148.867,-187.655 155.97,-195.516 159.322,-189.37"/>
</g>
<!-- Node14 -->
<g id="node14" class="node"><title>Node14</title>
<polygon fill="white" stroke="#bfbfbf" points="228,-168.5 228,-187.5 300,-187.5 300,-168.5 228,-168.5"/>
<text text-anchor="middle" x="264" y="-175.5" font-family="Helvetica,sans-Serif" font-size="10.00">DevIOCTL.h</text>
</g>
<!-- Node11&#45;&gt;Node14 -->
<g id="edge23" class="edge"><title>Node11&#45;&gt;Node14</title>
<path fill="none" stroke="midnightblue" d="M237.284,-224.083C241.711,-216.613 248.163,-205.724 253.618,-196.52"/>
<polygon fill="midnightblue" stroke="midnightblue" points="256.727,-198.138 258.814,-187.751 250.705,-194.57 256.727,-198.138"/>
</g>
<!-- Node12&#45;&gt;Node2 -->
<g id="edge22" class="edge"><title>Node12&#45;&gt;Node2</title>
<path fill="none" stroke="midnightblue" d="M123.169,-168.407C114.289,-160.046 101.628,-146.509 95,-132 79.5922,-98.2713 76.3593,-54.3482 75.864,-29.7697"/>
<polygon fill="midnightblue" stroke="midnightblue" points="79.3633,-29.6416 75.7971,-19.665 72.3634,-29.6879 79.3633,-29.6416"/>
</g>
<!-- Node12&#45;&gt;Node3 -->
<g id="edge21" class="edge"><title>Node12&#45;&gt;Node3</title>
<path fill="none" stroke="midnightblue" d="M171.979,-168.444C217.323,-158.49 291.846,-142.131 338.026,-131.994"/>
<polygon fill="midnightblue" stroke="midnightblue" points="338.975,-135.369 347.992,-129.807 337.474,-128.532 338.975,-135.369"/>
</g>
<!-- Node12&#45;&gt;Node5 -->
<g id="edge19" class="edge"><title>Node12&#45;&gt;Node5</title>
<path fill="none" stroke="midnightblue" d="M154.233,-168.444C176.384,-159.517 211.319,-145.439 236.436,-135.317"/>
<polygon fill="midnightblue" stroke="midnightblue" points="237.9,-138.501 245.867,-131.516 235.283,-132.008 237.9,-138.501"/>
</g>
<!-- Node13 -->
<g id="node13" class="node"><title>Node13</title>
<polygon fill="white" stroke="#bfbfbf" points="104,-112.5 104,-131.5 172,-131.5 172,-112.5 104,-112.5"/>
<text text-anchor="middle" x="138" y="-119.5" font-family="Helvetica,sans-Serif" font-size="10.00">sys/types.h</text>
</g>
<!-- Node12&#45;&gt;Node13 -->
<g id="edge20" class="edge"><title>Node12&#45;&gt;Node13</title>
<path fill="none" stroke="midnightblue" d="M133.826,-168.083C134.481,-161.006 135.42,-150.861 136.242,-141.986"/>
<polygon fill="midnightblue" stroke="midnightblue" points="139.753,-142.031 137.19,-131.751 132.783,-141.386 139.753,-142.031"/>
</g>
</g>
</svg>
