<?xml version="1.0" encoding="UTF-8" standalone="no"?>
<!DOCTYPE svg PUBLIC "-//W3C//DTD SVG 1.1//EN"
 "http://www.w3.org/Graphics/SVG/1.1/DTD/svg11.dtd">
<!-- Generated by graphviz version 2.40.1 (20161225.0304)
 -->
<!-- Title: FlightTaskAuto::_evaluateGlobalReference Pages: 1 -->
<svg width="666pt" height="104pt"
 viewBox="0.00 0.00 666.00 104.00" xmlns="http://www.w3.org/2000/svg" xmlns:xlink="http://www.w3.org/1999/xlink">
<g id="graph0" class="graph" transform="scale(1 1) rotate(0) translate(4 100)">
<title>FlightTaskAuto::_evaluateGlobalReference</title>
<polygon fill="#ffffff" stroke="transparent" points="-4,4 -4,-100 662,-100 662,4 -4,4"/>
<!-- Node15 -->
<g id="node1" class="node">
<title>Node15</title>
<polygon fill="#bfbfbf" stroke="#000000" points="0,-52 0,-82 131,-82 131,-52 0,-52"/>
<text text-anchor="start" x="8" y="-70" font-family="Helvetica,sans-Serif" font-size="10.00" fill="#000000">FlightTaskAuto::_evaluate</text>
<text text-anchor="middle" x="65.5" y="-59" font-family="Helvetica,sans-Serif" font-size="10.00" fill="#000000">GlobalReference</text>
</g>
<!-- Node16 -->
<g id="node2" class="node">
<title>Node16</title>
<g id="a_node2"><a xlink:href="../../d6/d4c/classu_o_r_b_1_1_subscription_data.html#ab75614b7adbc3ba5cbf0c3ec82e70fd2" target="_top" xlink:title="uORB::SubscriptionData::get">
<polygon fill="#ffffff" stroke="#000000" points="167,-76.5 167,-95.5 311,-95.5 311,-76.5 167,-76.5"/>
<text text-anchor="middle" x="239" y="-83.5" font-family="Helvetica,sans-Serif" font-size="10.00" fill="#000000">uORB::SubscriptionData::get</text>
</a>
</g>
</g>
<!-- Node15&#45;&gt;Node16 -->
<g id="edge1" class="edge">
<title>Node15&#45;&gt;Node16</title>
<path fill="none" stroke="#191970" d="M131.0929,-74.1831C139.5075,-75.1046 148.205,-76.057 156.8415,-77.0028"/>
<polygon fill="#191970" stroke="#191970" points="156.61,-80.4983 166.9316,-78.1078 157.3721,-73.5399 156.61,-80.4983"/>
</g>
<!-- Node17 -->
<g id="node3" class="node">
<title>Node17</title>
<g id="a_node3"><a xlink:href="../../d7/d09/geo_8cpp.html#a0233fe4ad7352b7918faeaf7aa5d8818" target="_top" xlink:title="Initializes the map transformation given by the argument and sets the timestamp to now...">
<polygon fill="#ffffff" stroke="#000000" points="188.5,-38.5 188.5,-57.5 289.5,-57.5 289.5,-38.5 188.5,-38.5"/>
<text text-anchor="middle" x="239" y="-45.5" font-family="Helvetica,sans-Serif" font-size="10.00" fill="#000000">map_projection_init</text>
</a>
</g>
</g>
<!-- Node15&#45;&gt;Node17 -->
<g id="edge2" class="edge">
<title>Node15&#45;&gt;Node17</title>
<path fill="none" stroke="#191970" d="M131.0929,-59.8169C146.5307,-58.1263 162.9204,-56.3315 178.1398,-54.6648"/>
<polygon fill="#191970" stroke="#191970" points="178.9037,-58.1022 188.4633,-53.5343 178.1417,-51.1438 178.9037,-58.1022"/>
</g>
<!-- Node18 -->
<g id="node4" class="node">
<title>Node18</title>
<g id="a_node4"><a xlink:href="../../d7/d09/geo_8cpp.html#a0ff8a684ef6077d3ec262336b303a7f9" target="_top" xlink:title="Initializes the map transformation given by the argument. ">
<polygon fill="#ffffff" stroke="#000000" points="347,-33 347,-63 448,-63 448,-33 347,-33"/>
<text text-anchor="start" x="355" y="-51" font-family="Helvetica,sans-Serif" font-size="10.00" fill="#000000">map_projection_init</text>
<text text-anchor="middle" x="397.5" y="-40" font-family="Helvetica,sans-Serif" font-size="10.00" fill="#000000">_timestamped</text>
</a>
</g>
</g>
<!-- Node17&#45;&gt;Node18 -->
<g id="edge3" class="edge">
<title>Node17&#45;&gt;Node18</title>
<path fill="none" stroke="#191970" d="M289.5862,-48C304.5985,-48 321.1968,-48 336.7821,-48"/>
<polygon fill="#191970" stroke="#191970" points="336.8508,-51.5001 346.8508,-48 336.8507,-44.5001 336.8508,-51.5001"/>
</g>
<!-- Node19 -->
<g id="node5" class="node">
<title>Node19</title>
<g id="a_node5"><a xlink:href="../../d0/de4/namespacematrix.html#a2e09123c750ed3a0315a31f3b27a3ed9" target="_top" xlink:title="matrix::cos">
<polygon fill="#ffffff" stroke="#000000" points="489.5,-76.5 489.5,-95.5 554.5,-95.5 554.5,-76.5 489.5,-76.5"/>
<text text-anchor="middle" x="522" y="-83.5" font-family="Helvetica,sans-Serif" font-size="10.00" fill="#000000">matrix::cos</text>
</a>
</g>
</g>
<!-- Node18&#45;&gt;Node19 -->
<g id="edge4" class="edge">
<title>Node18&#45;&gt;Node19</title>
<path fill="none" stroke="#191970" d="M446.7057,-63.0186C458.0501,-66.4811 469.9996,-70.1284 480.9542,-73.472"/>
<polygon fill="#191970" stroke="#191970" points="480.1027,-76.8714 490.6889,-76.4432 482.1462,-70.1763 480.1027,-76.8714"/>
</g>
<!-- Node20 -->
<g id="node6" class="node">
<title>Node20</title>
<g id="a_node6"><a xlink:href="../../d0/de4/namespacematrix.html#a761295febb473ca1226309513533e801" target="_top" xlink:title="matrix::sin">
<polygon fill="#ffffff" stroke="#000000" points="596,-76.5 596,-95.5 658,-95.5 658,-76.5 596,-76.5"/>
<text text-anchor="middle" x="627" y="-83.5" font-family="Helvetica,sans-Serif" font-size="10.00" fill="#000000">matrix::sin</text>
</a>
</g>
</g>
<!-- Node18&#45;&gt;Node20 -->
<g id="edge8" class="edge">
<title>Node18&#45;&gt;Node20</title>
<path fill="none" stroke="#191970" d="M448.3317,-51.8393C480.5352,-54.7892 522.9487,-59.6296 560,-67 568.9604,-68.7824 578.4684,-71.168 587.4202,-73.6453"/>
<polygon fill="#191970" stroke="#191970" points="586.6546,-77.0667 597.2317,-76.454 588.5811,-70.337 586.6546,-77.0667"/>
</g>
<!-- Node21 -->
<g id="node7" class="node">
<title>Node21</title>
<g id="a_node7"><a xlink:href="../../dd/d47/namespacemath.html#a7e34369248d5d1565073dc552dd90d5c" target="_top" xlink:title="math::radians">
<polygon fill="#ffffff" stroke="#000000" points="484,-.5 484,-19.5 560,-19.5 560,-.5 484,-.5"/>
<text text-anchor="middle" x="522" y="-7.5" font-family="Helvetica,sans-Serif" font-size="10.00" fill="#000000">math::radians</text>
</a>
</g>
</g>
<!-- Node18&#45;&gt;Node21 -->
<g id="edge7" class="edge">
<title>Node18&#45;&gt;Node21</title>
<path fill="none" stroke="#191970" d="M446.7057,-32.9814C458.0501,-29.5189 469.9996,-25.8716 480.9542,-22.528"/>
<polygon fill="#191970" stroke="#191970" points="482.1462,-25.8237 490.6889,-19.5568 480.1027,-19.1286 482.1462,-25.8237"/>
</g>
<!-- Node19&#45;&gt;Node20 -->
<g id="edge5" class="edge">
<title>Node19&#45;&gt;Node20</title>
<path fill="none" stroke="#191970" d="M554.6471,-79.6987C564.49,-79.2327 575.4247,-79.1297 585.7502,-79.3897"/>
<polygon fill="#191970" stroke="#191970" points="585.6843,-82.8896 595.8097,-79.7707 585.9493,-75.8946 585.6843,-82.8896"/>
</g>
<!-- Node20&#45;&gt;Node19 -->
<g id="edge6" class="edge">
<title>Node20&#45;&gt;Node19</title>
<path fill="none" stroke="#191970" d="M595.8097,-92.2293C586.0793,-92.7313 575.1727,-92.8703 564.7909,-92.6463"/>
<polygon fill="#191970" stroke="#191970" points="564.7603,-89.1434 554.6471,-92.3013 564.5223,-96.1393 564.7603,-89.1434"/>
</g>
</g>
</svg>
