<?xml version="1.0" encoding="UTF-8" standalone="no"?>
<!DOCTYPE svg PUBLIC "-//W3C//DTD SVG 1.1//EN"
 "http://www.w3.org/Graphics/SVG/1.1/DTD/svg11.dtd">
<!-- Generated by graphviz version 2.38.0 (20140413.2041)
 -->
<!-- Title: land_detector::VtolLandDetector::_update_topics Pages: 1 -->
<!--zoomable 180 -->
<svg id="main" version="1.1" xmlns="http://www.w3.org/2000/svg" xmlns:xlink="http://www.w3.org/1999/xlink" xml:space="preserve" onload="init(evt)">
<style type="text/css"><![CDATA[
.edge:hover path { stroke: red; }
.edge:hover polygon { stroke: red; fill: red; }
]]></style>
<script type="text/javascript"><![CDATA[
var edges = document.getElementsByTagName('g');
if (edges && edges.length) {
  for (var i=0;i<edges.length;i++) {
    if (edges[i].id.substr(0,4)=='edge') {
      edges[i].setAttribute('class','edge');
    }
  }
}
]]></script>
        <defs>
                <circle id="rim" cx="0" cy="0" r="7"/>
                <circle id="rim2" cx="0" cy="0" r="3.5"/>
                <g id="zoomPlus">
                        <use xlink:href="#rim" fill="#404040">
                                <set attributeName="fill" to="#808080" begin="zoomplus.mouseover" end="zoomplus.mouseout"/>
                        </use>
                        <path d="M-4,0h8M0,-4v8" fill="none" stroke="white" stroke-width="1.5" pointer-events="none"/>
                </g>
                <g id="zoomMin">
                        <use xlink:href="#rim" fill="#404040">
                                <set attributeName="fill" to="#808080" begin="zoomminus.mouseover" end="zoomminus.mouseout"/>
                        </use>
                        <path d="M-4,0h8" fill="none" stroke="white" stroke-width="1.5" pointer-events="none"/>
                </g>
                <g id="dirArrow">
                        <path fill="none" stroke="white" stroke-width="1.5" d="M0,-3.0v7 M-2.5,-0.5L0,-3.0L2.5,-0.5"/>
                </g>
               <g id="resetDef">
                       <use xlink:href="#rim2" fill="#404040">
                               <set attributeName="fill" to="#808080" begin="reset.mouseover" end="reset.mouseout"/>
                       </use>
               </g>
        </defs>

<script type="text/javascript">
var viewWidth = 1359;
var viewHeight = 180;
var sectionId = 'dynsection-7';
</script>
<script xlink:href="../../svgpan.js"/>
<svg id="graph" class="graph">
<g id="viewport">
<title>land_detector::VtolLandDetector::_update_topics</title>
<polygon fill="white" stroke="none" points="-4,4 -4,-176 1355,-176 1355,4 -4,4"/>
<!-- Node1 -->
<g id="node1" class="node"><title>Node1</title>
<polygon fill="#bfbfbf" stroke="black" points="0,-77 0,-107 157,-107 157,-77 0,-77"/>
<text text-anchor="start" x="8" y="-95" font-family="Helvetica,sans-Serif" font-size="10.00">land_detector::VtolLandDetector</text>
<text text-anchor="middle" x="78.5" y="-84" font-family="Helvetica,sans-Serif" font-size="10.00">::_update_topics</text>
</g>
<!-- Node2 -->
<g id="node2" class="node"><title>Node2</title>
<g id="a_node2"><a xlink:href="../../d8/d1f/classland__detector_1_1_land_detector.html#a415c9a8d7195f4550fae8edf6eb84870" target="_top" xlink:title="Convenience function for polling uORB subscriptions. ">
<polygon fill="white" stroke="black" points="376,-77 376,-107 516,-107 516,-77 376,-77"/>
<text text-anchor="start" x="384" y="-95" font-family="Helvetica,sans-Serif" font-size="10.00">land_detector::LandDetector</text>
<text text-anchor="middle" x="446" y="-84" font-family="Helvetica,sans-Serif" font-size="10.00">::_orb_update</text>
</a>
</g>
</g>
<!-- Node1&#45;&gt;Node2 -->
<g id="edge1" class="edge"><title>Node1&#45;&gt;Node2</title>
<path fill="none" stroke="midnightblue" d="M157.037,-93.5483C169.076,-93.7361 181.373,-93.8976 193,-94 258.331,-94.5756 274.67,-94.6221 340,-94 348.321,-93.9208 357.012,-93.8062 365.678,-93.6714"/>
<polygon fill="midnightblue" stroke="midnightblue" points="365.873,-97.1688 375.814,-93.5049 365.758,-90.1697 365.873,-97.1688"/>
</g>
<!-- Node19 -->
<g id="node19" class="node"><title>Node19</title>
<g id="a_node19"><a xlink:href="../../d9/de3/classland__detector_1_1_multicopter_land_detector.html#a8d485c728ff3533b3414e635b2c221ee" target="_top" xlink:title="Update uORB topics. ">
<polygon fill="white" stroke="black" points="193,-55 193,-85 340,-85 340,-55 193,-55"/>
<text text-anchor="start" x="201" y="-73" font-family="Helvetica,sans-Serif" font-size="10.00">land_detector::Multicopter</text>
<text text-anchor="middle" x="266.5" y="-62" font-family="Helvetica,sans-Serif" font-size="10.00">LandDetector::_update_topics</text>
</a>
</g>
</g>
<!-- Node1&#45;&gt;Node19 -->
<g id="edge22" class="edge"><title>Node1&#45;&gt;Node19</title>
<path fill="none" stroke="midnightblue" d="M157.034,-82.8293C165.56,-81.8209 174.264,-80.7914 182.849,-79.7759"/>
<polygon fill="midnightblue" stroke="midnightblue" points="183.335,-83.2429 192.855,-78.5925 182.513,-76.2914 183.335,-83.2429"/>
</g>
<!-- Node3 -->
<g id="node3" class="node"><title>Node3</title>
<g id="a_node3"><a xlink:href="../../d9/d97/u_o_r_b_8cpp.html#a29b31278909062127ba89245a8182706" target="_top" xlink:title="orb_check">
<polygon fill="white" stroke="black" points="552,-101.5 552,-120.5 614,-120.5 614,-101.5 552,-101.5"/>
<text text-anchor="middle" x="583" y="-108.5" font-family="Helvetica,sans-Serif" font-size="10.00">orb_check</text>
</a>
</g>
</g>
<!-- Node2&#45;&gt;Node3 -->
<g id="edge2" class="edge"><title>Node2&#45;&gt;Node3</title>
<path fill="none" stroke="midnightblue" d="M516.082,-101.723C524.931,-102.968 533.744,-104.208 541.911,-105.358"/>
<polygon fill="midnightblue" stroke="midnightblue" points="541.476,-108.831 551.866,-106.759 542.452,-101.899 541.476,-108.831"/>
</g>
<!-- Node15 -->
<g id="node15" class="node"><title>Node15</title>
<g id="a_node15"><a xlink:href="../../d9/d97/u_o_r_b_8cpp.html#a2c09f842c44c64a06bcfe7a921f63cdf" target="_top" xlink:title="orb_copy">
<polygon fill="white" stroke="black" points="555,-63.5 555,-82.5 611,-82.5 611,-63.5 555,-63.5"/>
<text text-anchor="middle" x="583" y="-70.5" font-family="Helvetica,sans-Serif" font-size="10.00">orb_copy</text>
</a>
</g>
</g>
<!-- Node2&#45;&gt;Node15 -->
<g id="edge16" class="edge"><title>Node2&#45;&gt;Node15</title>
<path fill="none" stroke="midnightblue" d="M516.082,-82.2774C525.967,-80.8862 535.806,-79.5013 544.752,-78.2423"/>
<polygon fill="midnightblue" stroke="midnightblue" points="545.378,-81.6888 554.792,-76.8292 544.402,-74.7571 545.378,-81.6888"/>
</g>
<!-- Node4 -->
<g id="node4" class="node"><title>Node4</title>
<g id="a_node4"><a xlink:href="../../d3/da9/classu_o_r_b_1_1_manager.html#a9d829b3ea49d16d03c2fa37ef2bb24a5" target="_top" xlink:title="Method to get the singleton instance for the uORB::Manager. ">
<polygon fill="white" stroke="black" points="663,-77 663,-107 770,-107 770,-77 663,-77"/>
<text text-anchor="start" x="671" y="-95" font-family="Helvetica,sans-Serif" font-size="10.00">uORB::Manager::get</text>
<text text-anchor="middle" x="716.5" y="-84" font-family="Helvetica,sans-Serif" font-size="10.00">_instance</text>
</a>
</g>
</g>
<!-- Node3&#45;&gt;Node4 -->
<g id="edge3" class="edge"><title>Node3&#45;&gt;Node4</title>
<path fill="none" stroke="midnightblue" d="M614.169,-106.641C625.649,-104.982 639.201,-103.024 652.595,-101.089"/>
<polygon fill="midnightblue" stroke="midnightblue" points="653.373,-104.513 662.77,-99.6188 652.372,-97.5848 653.373,-104.513"/>
</g>
<!-- Node11 -->
<g id="node11" class="node"><title>Node11</title>
<g id="a_node11"><a xlink:href="../../d3/da9/classu_o_r_b_1_1_manager.html#a5503920d25d544ce3be1cf79cda869f7" target="_top" xlink:title="Check whether a topic has been published to since the last orb_copy. ">
<polygon fill="white" stroke="black" points="663,-126 663,-156 770,-156 770,-126 663,-126"/>
<text text-anchor="start" x="671" y="-144" font-family="Helvetica,sans-Serif" font-size="10.00">uORB::Manager::orb</text>
<text text-anchor="middle" x="716.5" y="-133" font-family="Helvetica,sans-Serif" font-size="10.00">_check</text>
</a>
</g>
</g>
<!-- Node3&#45;&gt;Node11 -->
<g id="edge10" class="edge"><title>Node3&#45;&gt;Node11</title>
<path fill="none" stroke="midnightblue" d="M614.169,-117.883C625.762,-120.527 639.467,-123.654 652.989,-126.739"/>
<polygon fill="midnightblue" stroke="midnightblue" points="652.242,-130.158 662.77,-128.97 653.799,-123.334 652.242,-130.158"/>
</g>
<!-- Node5 -->
<g id="node5" class="node"><title>Node5</title>
<g id="a_node5"><a xlink:href="../../d3/da9/classu_o_r_b_1_1_manager.html#a083331e24ac4f99ac11a0aab1b1681b4" target="_top" xlink:title="Get the DeviceMaster. ">
<polygon fill="white" stroke="black" points="819,-79 819,-109 926,-109 926,-79 819,-79"/>
<text text-anchor="start" x="827" y="-97" font-family="Helvetica,sans-Serif" font-size="10.00">uORB::Manager::get</text>
<text text-anchor="middle" x="872.5" y="-86" font-family="Helvetica,sans-Serif" font-size="10.00">_device_master</text>
</a>
</g>
</g>
<!-- Node4&#45;&gt;Node5 -->
<g id="edge4" class="edge"><title>Node4&#45;&gt;Node5</title>
<path fill="none" stroke="midnightblue" d="M770.067,-92.6827C782.512,-92.8443 795.906,-93.0183 808.752,-93.1851"/>
<polygon fill="midnightblue" stroke="midnightblue" points="808.864,-96.6867 818.908,-93.317 808.955,-89.6873 808.864,-96.6867"/>
</g>
<!-- Node6 -->
<g id="node6" class="node"><title>Node6</title>
<g id="a_node6"><a xlink:href="../../db/dcf/classdevice_1_1_c_dev.html#a04ad8e5b517724c106e06b45e86a2445" target="_top" xlink:title="Initialise the driver and make it ready for use. ">
<polygon fill="white" stroke="black" points="965,-114.5 965,-133.5 1060,-133.5 1060,-114.5 965,-114.5"/>
<text text-anchor="middle" x="1012.5" y="-121.5" font-family="Helvetica,sans-Serif" font-size="10.00">device::CDev::init</text>
</a>
</g>
</g>
<!-- Node5&#45;&gt;Node6 -->
<g id="edge5" class="edge"><title>Node5&#45;&gt;Node6</title>
<path fill="none" stroke="midnightblue" d="M926.066,-105.427C936.456,-107.686 947.373,-110.059 957.8,-112.326"/>
<polygon fill="midnightblue" stroke="midnightblue" points="957.098,-115.755 967.614,-114.46 958.585,-108.915 957.098,-115.755"/>
</g>
<!-- Node7 -->
<g id="node7" class="node"><title>Node7</title>
<g id="a_node7"><a xlink:href="../../dd/dd3/classdevice_1_1_device.html#a88428ba671d9c225504fc2f0aed2a72a" target="_top" xlink:title="Initialise the driver and make it ready for use. ">
<polygon fill="white" stroke="black" points="1099,-95.5 1099,-114.5 1200,-114.5 1200,-95.5 1099,-95.5"/>
<text text-anchor="middle" x="1149.5" y="-102.5" font-family="Helvetica,sans-Serif" font-size="10.00">device::Device::init</text>
</a>
</g>
</g>
<!-- Node6&#45;&gt;Node7 -->
<g id="edge6" class="edge"><title>Node6&#45;&gt;Node7</title>
<path fill="none" stroke="midnightblue" d="M1060.34,-117.408C1069.61,-116.103 1079.45,-114.718 1089.07,-113.364"/>
<polygon fill="midnightblue" stroke="midnightblue" points="1089.57,-116.828 1098.99,-111.968 1088.6,-109.896 1089.57,-116.828"/>
</g>
<!-- Node8 -->
<g id="node8" class="node"><title>Node8</title>
<g id="a_node8"><a xlink:href="../../da/dc9/posix_2cdev__platform_8cpp.html#a4c69ea88a27571245bd4dc9c06a3d18b" target="_top" xlink:title="register_driver">
<polygon fill="white" stroke="black" points="1110.5,-133.5 1110.5,-152.5 1188.5,-152.5 1188.5,-133.5 1110.5,-133.5"/>
<text text-anchor="middle" x="1149.5" y="-140.5" font-family="Helvetica,sans-Serif" font-size="10.00">register_driver</text>
</a>
</g>
</g>
<!-- Node6&#45;&gt;Node8 -->
<g id="edge7" class="edge"><title>Node6&#45;&gt;Node8</title>
<path fill="none" stroke="midnightblue" d="M1060.34,-130.592C1073.2,-132.402 1087.16,-134.367 1100.11,-136.189"/>
<polygon fill="midnightblue" stroke="midnightblue" points="1099.84,-139.686 1110.23,-137.614 1100.82,-132.754 1099.84,-139.686"/>
</g>
<!-- Node9 -->
<g id="node9" class="node"><title>Node9</title>
<g id="a_node9"><a xlink:href="../../d6/dfb/stubs__posix_8c.html#a12809c44718c21544ceb280dc1a53573" target="_top" xlink:title="pthread_mutex_lock">
<polygon fill="white" stroke="black" points="1241.5,-76.5 1241.5,-95.5 1345.5,-95.5 1345.5,-76.5 1241.5,-76.5"/>
<text text-anchor="middle" x="1293.5" y="-83.5" font-family="Helvetica,sans-Serif" font-size="10.00">pthread_mutex_lock</text>
</a>
</g>
</g>
<!-- Node8&#45;&gt;Node9 -->
<g id="edge8" class="edge"><title>Node8&#45;&gt;Node9</title>
<path fill="none" stroke="midnightblue" d="M1175.73,-133.447C1183.52,-130.46 1192.13,-127.127 1200,-124 1220.15,-115.996 1242.65,-106.759 1260.41,-99.3958"/>
<polygon fill="midnightblue" stroke="midnightblue" points="1261.86,-102.586 1269.75,-95.518 1259.17,-96.1213 1261.86,-102.586"/>
</g>
<!-- Node10 -->
<g id="node10" class="node"><title>Node10</title>
<g id="a_node10"><a xlink:href="../../d6/dfb/stubs__posix_8c.html#a96184290ffb60e04c53a52869cf960a2" target="_top" xlink:title="pthread_mutex_unlock">
<polygon fill="white" stroke="black" points="1236,-123.5 1236,-142.5 1351,-142.5 1351,-123.5 1236,-123.5"/>
<text text-anchor="middle" x="1293.5" y="-130.5" font-family="Helvetica,sans-Serif" font-size="10.00">pthread_mutex_unlock</text>
</a>
</g>
</g>
<!-- Node8&#45;&gt;Node10 -->
<g id="edge9" class="edge"><title>Node8&#45;&gt;Node10</title>
<path fill="none" stroke="midnightblue" d="M1188.55,-140.32C1200.03,-139.512 1212.98,-138.6 1225.74,-137.701"/>
<polygon fill="midnightblue" stroke="midnightblue" points="1226.18,-141.179 1235.91,-136.985 1225.69,-134.197 1226.18,-141.179"/>
</g>
<!-- Node12 -->
<g id="node12" class="node"><title>Node12</title>
<g id="a_node12"><a xlink:href="../../da/dc9/posix_2cdev__platform_8cpp.html#a9c7539e3995014273bd29fb01758763e" target="_top" xlink:title="px4_ioctl">
<polygon fill="white" stroke="black" points="844.5,-131.5 844.5,-150.5 900.5,-150.5 900.5,-131.5 844.5,-131.5"/>
<text text-anchor="middle" x="872.5" y="-138.5" font-family="Helvetica,sans-Serif" font-size="10.00">px4_ioctl</text>
</a>
</g>
</g>
<!-- Node11&#45;&gt;Node12 -->
<g id="edge11" class="edge"><title>Node11&#45;&gt;Node12</title>
<path fill="none" stroke="midnightblue" d="M770.067,-141C791.094,-141 814.832,-141 834.055,-141"/>
<polygon fill="midnightblue" stroke="midnightblue" points="834.224,-144.5 844.224,-141 834.224,-137.5 834.224,-144.5"/>
</g>
<!-- Node13 -->
<g id="node13" class="node"><title>Node13</title>
<g id="a_node13"><a xlink:href="../../da/dc9/posix_2cdev__platform_8cpp.html#a06fbe4d696a8fc67079810478882f8b9" target="_top" xlink:title="get_vdev">
<polygon fill="white" stroke="black" points="1121.5,-57.5 1121.5,-76.5 1177.5,-76.5 1177.5,-57.5 1121.5,-57.5"/>
<text text-anchor="middle" x="1149.5" y="-64.5" font-family="Helvetica,sans-Serif" font-size="10.00">get_vdev</text>
</a>
</g>
</g>
<!-- Node12&#45;&gt;Node13 -->
<g id="edge12" class="edge"><title>Node12&#45;&gt;Node13</title>
<path fill="none" stroke="midnightblue" d="M895.737,-131.404C917.51,-122.107 949.219,-108.865 962,-105 1012.74,-89.6559 1073.12,-78.6206 1111.14,-72.5192"/>
<polygon fill="midnightblue" stroke="midnightblue" points="1111.91,-75.9415 1121.24,-70.9297 1110.82,-69.0265 1111.91,-75.9415"/>
</g>
<!-- Node14 -->
<g id="node14" class="node"><title>Node14</title>
<g id="a_node14"><a xlink:href="../../db/dcf/classdevice_1_1_c_dev.html#a8a73e7749516363c59d3eac6d6343083" target="_top" xlink:title="Perform an ioctl operation on the device. ">
<polygon fill="white" stroke="black" points="962,-152.5 962,-171.5 1063,-171.5 1063,-152.5 962,-152.5"/>
<text text-anchor="middle" x="1012.5" y="-159.5" font-family="Helvetica,sans-Serif" font-size="10.00">device::CDev::ioctl</text>
</a>
</g>
</g>
<!-- Node12&#45;&gt;Node14 -->
<g id="edge15" class="edge"><title>Node12&#45;&gt;Node14</title>
<path fill="none" stroke="midnightblue" d="M900.764,-145.149C915.341,-147.367 933.899,-150.191 951.637,-152.89"/>
<polygon fill="midnightblue" stroke="midnightblue" points="951.537,-156.415 961.95,-154.46 952.59,-149.495 951.537,-156.415"/>
</g>
<!-- Node13&#45;&gt;Node9 -->
<g id="edge13" class="edge"><title>Node13&#45;&gt;Node9</title>
<path fill="none" stroke="midnightblue" d="M1177.54,-70.6185C1192.82,-72.6629 1212.58,-75.3063 1231.39,-77.8234"/>
<polygon fill="midnightblue" stroke="midnightblue" points="1231.03,-81.3068 1241.41,-79.1641 1231.96,-74.3687 1231.03,-81.3068"/>
</g>
<!-- Node13&#45;&gt;Node10 -->
<g id="edge14" class="edge"><title>Node13&#45;&gt;Node10</title>
<path fill="none" stroke="midnightblue" d="M1177.2,-76.5811C1184.65,-79.4357 1192.71,-82.6902 1200,-86 1216.47,-93.477 1219.89,-96.7604 1236,-105 1244.95,-109.577 1254.74,-114.472 1263.63,-118.868"/>
<polygon fill="midnightblue" stroke="midnightblue" points="1262.31,-122.121 1272.83,-123.404 1265.41,-115.843 1262.31,-122.121"/>
</g>
<!-- Node15&#45;&gt;Node4 -->
<g id="edge17" class="edge"><title>Node15&#45;&gt;Node4</title>
<path fill="none" stroke="midnightblue" d="M611.247,-76.9368C623.349,-78.6855 638.139,-80.8224 652.732,-82.9309"/>
<polygon fill="midnightblue" stroke="midnightblue" points="652.371,-86.415 662.769,-84.381 653.372,-79.4869 652.371,-86.415"/>
</g>
<!-- Node16 -->
<g id="node16" class="node"><title>Node16</title>
<g id="a_node16"><a xlink:href="../../d3/da9/classu_o_r_b_1_1_manager.html#af1048c82b439300c706fe0a083b61f90" target="_top" xlink:title="Fetch data from a topic. ">
<polygon fill="white" stroke="black" points="650,-38.5 650,-57.5 783,-57.5 783,-38.5 650,-38.5"/>
<text text-anchor="middle" x="716.5" y="-45.5" font-family="Helvetica,sans-Serif" font-size="10.00">uORB::Manager::orb_copy</text>
</a>
</g>
</g>
<!-- Node15&#45;&gt;Node16 -->
<g id="edge18" class="edge"><title>Node15&#45;&gt;Node16</title>
<path fill="none" stroke="midnightblue" d="M611.247,-67.82C624.083,-65.3797 639.942,-62.3647 655.383,-59.4291"/>
<polygon fill="midnightblue" stroke="midnightblue" points="656.263,-62.8245 665.434,-57.5183 654.956,-55.9476 656.263,-62.8245"/>
</g>
<!-- Node17 -->
<g id="node17" class="node"><title>Node17</title>
<g id="a_node17"><a xlink:href="../../da/dc9/posix_2cdev__platform_8cpp.html#a2fc1ca62e376a5c0dd2ad9be1b196afa" target="_top" xlink:title="px4_read">
<polygon fill="white" stroke="black" points="844.5,-38.5 844.5,-57.5 900.5,-57.5 900.5,-38.5 844.5,-38.5"/>
<text text-anchor="middle" x="872.5" y="-45.5" font-family="Helvetica,sans-Serif" font-size="10.00">px4_read</text>
</a>
</g>
</g>
<!-- Node16&#45;&gt;Node17 -->
<g id="edge19" class="edge"><title>Node16&#45;&gt;Node17</title>
<path fill="none" stroke="midnightblue" d="M783.257,-48C800.659,-48 818.845,-48 834.155,-48"/>
<polygon fill="midnightblue" stroke="midnightblue" points="834.249,-51.5001 844.249,-48 834.249,-44.5001 834.249,-51.5001"/>
</g>
<!-- Node17&#45;&gt;Node13 -->
<g id="edge20" class="edge"><title>Node17&#45;&gt;Node13</title>
<path fill="none" stroke="midnightblue" d="M900.621,-49.8738C950.013,-53.2864 1054.71,-60.5202 1110.94,-64.4048"/>
<polygon fill="midnightblue" stroke="midnightblue" points="1110.96,-67.9145 1121.18,-65.1122 1111.44,-60.9311 1110.96,-67.9145"/>
</g>
<!-- Node18 -->
<g id="node18" class="node"><title>Node18</title>
<g id="a_node18"><a xlink:href="../../db/dcf/classdevice_1_1_c_dev.html#ae56454829799e967eadc8bc87927c21b" target="_top" xlink:title="Perform a read from the device. ">
<polygon fill="white" stroke="black" points="962,-0.5 962,-19.5 1063,-19.5 1063,-0.5 962,-0.5"/>
<text text-anchor="middle" x="1012.5" y="-7.5" font-family="Helvetica,sans-Serif" font-size="10.00">device::CDev::read</text>
</a>
</g>
</g>
<!-- Node17&#45;&gt;Node18 -->
<g id="edge21" class="edge"><title>Node17&#45;&gt;Node18</title>
<path fill="none" stroke="midnightblue" d="M900.764,-40.4924C919.701,-35.278 945.355,-28.2137 967.203,-22.1977"/>
<polygon fill="midnightblue" stroke="midnightblue" points="968.224,-25.547 976.936,-19.5178 966.365,-18.7982 968.224,-25.547"/>
</g>
<!-- Node19&#45;&gt;Node2 -->
<g id="edge23" class="edge"><title>Node19&#45;&gt;Node2</title>
<path fill="none" stroke="midnightblue" d="M340.208,-79.0117C348.672,-80.0608 357.338,-81.1348 365.883,-82.1939"/>
<polygon fill="midnightblue" stroke="midnightblue" points="365.484,-85.6712 375.839,-83.4279 366.345,-78.7244 365.484,-85.6712"/>
</g>
</g>
</svg>
        <g id="navigator" transform="translate(0 0)" fill="#404254">
                <rect fill="#f2f5e9" fill-opacity="0.5" stroke="#606060" stroke-width=".5" x="0" y="0" width="60" height="60"/>
                <use id="zoomplus" xlink:href="#zoomPlus" x="17" y="9" onmousedown="handleZoom(evt,'in')"/>
                <use id="zoomminus" xlink:href="#zoomMin" x="42" y="9" onmousedown="handleZoom(evt,'out')"/>
                <use id="reset" xlink:href="#resetDef" x="30" y="36" onmousedown="handleReset()"/>
                <g id="arrowUp" xlink:href="#dirArrow" transform="translate(30 24)" onmousedown="handlePan(0,-1)">
                  <use xlink:href="#rim" fill="#404040">
                        <set attributeName="fill" to="#808080" begin="arrowUp.mouseover" end="arrowUp.mouseout"/>
                  </use>
                  <path fill="none" stroke="white" stroke-width="1.5" d="M0,-3.0v7 M-2.5,-0.5L0,-3.0L2.5,-0.5"/>
                </g>
                <g id="arrowRight" xlink:href="#dirArrow" transform="rotate(90) translate(36 -43)" onmousedown="handlePan(1,0)">
                  <use xlink:href="#rim" fill="#404040">
                        <set attributeName="fill" to="#808080" begin="arrowRight.mouseover" end="arrowRight.mouseout"/>
                  </use>
                  <path fill="none" stroke="white" stroke-width="1.5" d="M0,-3.0v7 M-2.5,-0.5L0,-3.0L2.5,-0.5"/>
                </g>
                <g id="arrowDown" xlink:href="#dirArrow" transform="rotate(180) translate(-30 -48)" onmousedown="handlePan(0,1)">
                  <use xlink:href="#rim" fill="#404040">
                        <set attributeName="fill" to="#808080" begin="arrowDown.mouseover" end="arrowDown.mouseout"/>
                  </use>
                  <path fill="none" stroke="white" stroke-width="1.5" d="M0,-3.0v7 M-2.5,-0.5L0,-3.0L2.5,-0.5"/>
                </g>
                <g id="arrowLeft" xlink:href="#dirArrow" transform="rotate(270) translate(-36 17)" onmousedown="handlePan(-1,0)">
                  <use xlink:href="#rim" fill="#404040">
                        <set attributeName="fill" to="#808080" begin="arrowLeft.mouseover" end="arrowLeft.mouseout"/>
                  </use>
                  <path fill="none" stroke="white" stroke-width="1.5" d="M0,-3.0v7 M-2.5,-0.5L0,-3.0L2.5,-0.5"/>
                </g>
        </g>
        <svg viewBox="0 0 15 15" width="100%" height="30px" preserveAspectRatio="xMaxYMin meet">
         <g id="arrow_out" transform="scale(0.3 0.3)">
          <a xlink:href="classland__detector_1_1_vtol_land_detector_a6ae71aed4964d57698df9e35713f2980_cgraph_org.svg" target="_base">
           <rect id="button" ry="5" rx="5" y="6" x="6" height="38" width="38"
                fill="#f2f5e9" fill-opacity="0.5" stroke="#606060" stroke-width="1.0"/>
           <path id="arrow"
             d="M 11.500037,31.436501 C 11.940474,20.09759 22.043105,11.32322 32.158766,21.979434 L 37.068811,17.246167 C 37.068811,17.246167 37.088388,32 37.088388,32 L 22.160133,31.978069 C 22.160133,31.978069 26.997745,27.140456 26.997745,27.140456 C 18.528582,18.264221 13.291696,25.230495 11.500037,31.436501 z"
             style="fill:#404040;"/>
          </a>
         </g>
        </svg>
</svg>
