<?xml version="1.0" encoding="UTF-8" standalone="no"?>
<!DOCTYPE svg PUBLIC "-//W3C//DTD SVG 1.1//EN"
 "http://www.w3.org/Graphics/SVG/1.1/DTD/svg11.dtd">
<!-- Generated by graphviz version 2.38.0 (20140413.2041)
 -->
<!-- Title: rpi_rc_in::RcInput::cycle_trampoline Pages: 1 -->
<svg width="480pt" height="88pt"
 viewBox="0.00 0.00 480.00 88.00" xmlns="http://www.w3.org/2000/svg" xmlns:xlink="http://www.w3.org/1999/xlink">
<g id="graph0" class="graph" transform="scale(1 1) rotate(0) translate(4 84)">
<title>rpi_rc_in::RcInput::cycle_trampoline</title>
<polygon fill="white" stroke="none" points="-4,4 -4,-84 476,-84 476,4 -4,4"/>
<!-- Node1 -->
<g id="node1" class="node"><title>Node1</title>
<polygon fill="#bfbfbf" stroke="black" points="0,-47.5 0,-77.5 96,-77.5 96,-47.5 0,-47.5"/>
<text text-anchor="start" x="8" y="-65.5" font-family="Helvetica,sans-Serif" font-size="10.00">rpi_rc_in::RcInput</text>
<text text-anchor="middle" x="48" y="-54.5" font-family="Helvetica,sans-Serif" font-size="10.00">::cycle_trampoline</text>
</g>
<!-- Node2 -->
<g id="node2" class="node"><title>Node2</title>
<g id="a_node2"><a xlink:href="../../da/d97/classrpi__rc__in_1_1_rc_input.html#afe910b6df06f1df859a58dde443b74d7" target="_top" xlink:title="rpi_rc_in::RcInput\l::_cycle">
<polygon fill="white" stroke="black" points="132,-47.5 132,-77.5 226,-77.5 226,-47.5 132,-47.5"/>
<text text-anchor="start" x="140" y="-65.5" font-family="Helvetica,sans-Serif" font-size="10.00">rpi_rc_in::RcInput</text>
<text text-anchor="middle" x="179" y="-54.5" font-family="Helvetica,sans-Serif" font-size="10.00">::_cycle</text>
</a>
</g>
</g>
<!-- Node1&#45;&gt;Node2 -->
<g id="edge1" class="edge"><title>Node1&#45;&gt;Node2</title>
<path fill="none" stroke="midnightblue" d="M106.566,-55.7848C115.08,-55.6991 123.757,-55.7718 131.994,-56.0029"/>
<polygon fill="midnightblue" stroke="midnightblue" points="106.238,-52.29 96.3023,-55.9679 106.363,-59.2889 106.238,-52.29"/>
</g>
<!-- Node5 -->
<g id="node5" class="node"><title>Node5</title>
<g id="a_node5"><a xlink:href="../../da/d97/classrpi__rc__in_1_1_rc_input.html#a289429fd6ea52048d8bc5489136118f8" target="_top" xlink:title="rpi_rc_in::RcInput\l::start">
<polygon fill="white" stroke="black" points="262,-0.5 262,-30.5 356,-30.5 356,-0.5 262,-0.5"/>
<text text-anchor="start" x="270" y="-18.5" font-family="Helvetica,sans-Serif" font-size="10.00">rpi_rc_in::RcInput</text>
<text text-anchor="middle" x="309" y="-7.5" font-family="Helvetica,sans-Serif" font-size="10.00">::start</text>
</a>
</g>
</g>
<!-- Node1&#45;&gt;Node5 -->
<g id="edge5" class="edge"><title>Node1&#45;&gt;Node5</title>
<path fill="none" stroke="midnightblue" d="M103.539,-44.6535C112.961,-41.9794 122.712,-39.4648 132,-37.5 175.533,-28.2914 225.996,-22.4691 261.696,-19.1442"/>
<polygon fill="midnightblue" stroke="midnightblue" points="102.488,-41.3142 93.8737,-47.4816 104.454,-48.0325 102.488,-41.3142"/>
</g>
<!-- Node2&#45;&gt;Node1 -->
<g id="edge2" class="edge"><title>Node2&#45;&gt;Node1</title>
<path fill="none" stroke="midnightblue" d="M121.769,-69.2005C113.274,-69.3028 104.584,-69.2466 96.3023,-69.0321"/>
<polygon fill="midnightblue" stroke="midnightblue" points="122.066,-72.6953 131.994,-68.9971 121.927,-65.6967 122.066,-72.6953"/>
</g>
<!-- Node3 -->
<g id="node3" class="node"><title>Node3</title>
<g id="a_node3"><a xlink:href="../../da/d97/classrpi__rc__in_1_1_rc_input.html#a92cf903f6173ad63c4216e9a4dad89a7" target="_top" xlink:title="rpi_rc_in::RcInput\l::is_running">
<polygon fill="white" stroke="black" points="262,-49.5 262,-79.5 356,-79.5 356,-49.5 262,-49.5"/>
<text text-anchor="start" x="270" y="-67.5" font-family="Helvetica,sans-Serif" font-size="10.00">rpi_rc_in::RcInput</text>
<text text-anchor="middle" x="309" y="-56.5" font-family="Helvetica,sans-Serif" font-size="10.00">::is_running</text>
</a>
</g>
</g>
<!-- Node2&#45;&gt;Node3 -->
<g id="edge3" class="edge"><title>Node2&#45;&gt;Node3</title>
<path fill="none" stroke="midnightblue" d="M236.442,-63.3819C244.937,-63.5146 253.612,-63.6502 261.857,-63.779"/>
<polygon fill="midnightblue" stroke="midnightblue" points="236.264,-59.8788 226.211,-63.222 236.155,-66.8779 236.264,-59.8788"/>
</g>
<!-- Node4 -->
<g id="node4" class="node"><title>Node4</title>
<g id="a_node4"><a xlink:href="../../df/d64/rpi__rc__in_8h.html#aeae33627b0dde7afa713ffe97c5e8f52" target="_top" xlink:title="rpi_rc_in_main">
<polygon fill="white" stroke="black" points="392,-30 392,-49 472,-49 472,-30 392,-30"/>
<text text-anchor="middle" x="432" y="-37" font-family="Helvetica,sans-Serif" font-size="10.00">rpi_rc_in_main</text>
</a>
</g>
</g>
<!-- Node3&#45;&gt;Node4 -->
<g id="edge4" class="edge"><title>Node3&#45;&gt;Node4</title>
<path fill="none" stroke="midnightblue" d="M366.148,-52.8992C374.799,-51.1118 383.569,-49.2998 391.746,-47.6103"/>
<polygon fill="midnightblue" stroke="midnightblue" points="365.175,-49.5262 356.09,-54.9773 366.591,-56.3814 365.175,-49.5262"/>
</g>
<!-- Node5&#45;&gt;Node4 -->
<g id="edge6" class="edge"><title>Node5&#45;&gt;Node4</title>
<path fill="none" stroke="midnightblue" d="M366.148,-26.6368C374.799,-28.3527 383.569,-30.0922 391.746,-31.7141"/>
<polygon fill="midnightblue" stroke="midnightblue" points="366.58,-23.1544 356.09,-24.6418 365.218,-30.0206 366.58,-23.1544"/>
</g>
</g>
</svg>
