<?xml version="1.0" encoding="UTF-8" standalone="no"?>
<!DOCTYPE svg PUBLIC "-//W3C//DTD SVG 1.1//EN"
 "http://www.w3.org/Graphics/SVG/1.1/DTD/svg11.dtd">
<!-- Generated by graphviz version 2.40.1 (20161225.0304)
 -->
<!-- Title: src/modules/sensors/temperature_compensation.h Pages: 1 -->
<svg width="369pt" height="173pt"
 viewBox="0.00 0.00 368.50 173.00" xmlns="http://www.w3.org/2000/svg" xmlns:xlink="http://www.w3.org/1999/xlink">
<g id="graph0" class="graph" transform="scale(1 1) rotate(0) translate(4 169)">
<title>src/modules/sensors/temperature_compensation.h</title>
<polygon fill="#ffffff" stroke="transparent" points="-4,4 -4,-169 364.5,-169 364.5,4 -4,4"/>
<!-- Node30 -->
<g id="node1" class="node">
<title>Node30</title>
<polygon fill="#bfbfbf" stroke="#000000" points="129.5,-134.5 129.5,-164.5 275.5,-164.5 275.5,-134.5 129.5,-134.5"/>
<text text-anchor="start" x="137.5" y="-152.5" font-family="Helvetica,sans-Serif" font-size="10.00" fill="#000000">src/modules/sensors</text>
<text text-anchor="middle" x="202.5" y="-141.5" font-family="Helvetica,sans-Serif" font-size="10.00" fill="#000000">/temperature_compensation.h</text>
</g>
<!-- Node31 -->
<g id="node2" class="node">
<title>Node31</title>
<g id="a_node2"><a xlink:href="../../dd/d59/voted__sensors__update_8h.html" target="_top" xlink:title="src/modules/sensors\l/voted_sensors_update.h">
<polygon fill="#ffffff" stroke="#000000" points="60.5,-67.5 60.5,-97.5 186.5,-97.5 186.5,-67.5 60.5,-67.5"/>
<text text-anchor="start" x="68.5" y="-85.5" font-family="Helvetica,sans-Serif" font-size="10.00" fill="#000000">src/modules/sensors</text>
<text text-anchor="middle" x="123.5" y="-74.5" font-family="Helvetica,sans-Serif" font-size="10.00" fill="#000000">/voted_sensors_update.h</text>
</a>
</g>
</g>
<!-- Node30&#45;&gt;Node31 -->
<g id="edge1" class="edge">
<title>Node30&#45;&gt;Node31</title>
<path fill="none" stroke="#191970" d="M176.8908,-127.7808C165.2854,-117.9383 151.8468,-106.541 141.3554,-97.6432"/>
<polygon fill="#191970" stroke="#191970" points="174.6833,-130.4978 184.5737,-134.2967 179.211,-125.1593 174.6833,-130.4978"/>
</g>
<!-- Node34 -->
<g id="node5" class="node">
<title>Node34</title>
<g id="a_node5"><a xlink:href="../../d4/d05/temperature__compensation_8cpp.html" target="_top" xlink:title="Sensors temperature compensation methods. ">
<polygon fill="#ffffff" stroke="#000000" points="204.5,-67.5 204.5,-97.5 360.5,-97.5 360.5,-67.5 204.5,-67.5"/>
<text text-anchor="start" x="212.5" y="-85.5" font-family="Helvetica,sans-Serif" font-size="10.00" fill="#000000">src/modules/sensors</text>
<text text-anchor="middle" x="282.5" y="-74.5" font-family="Helvetica,sans-Serif" font-size="10.00" fill="#000000">/temperature_compensation.cpp</text>
</a>
</g>
</g>
<!-- Node30&#45;&gt;Node34 -->
<g id="edge4" class="edge">
<title>Node30&#45;&gt;Node34</title>
<path fill="none" stroke="#191970" d="M228.4333,-127.7808C240.1856,-117.9383 253.7944,-106.541 264.4186,-97.6432"/>
<polygon fill="#191970" stroke="#191970" points="226.0725,-125.1927 220.6532,-134.2967 230.567,-130.5592 226.0725,-125.1927"/>
</g>
<!-- Node32 -->
<g id="node3" class="node">
<title>Node32</title>
<g id="a_node3"><a xlink:href="../../d4/d34/sensors_8cpp.html" target="_top" xlink:title="src/modules/sensors\l/sensors.cpp">
<polygon fill="#ffffff" stroke="#000000" points="0,-.5 0,-30.5 107,-30.5 107,-.5 0,-.5"/>
<text text-anchor="start" x="8" y="-18.5" font-family="Helvetica,sans-Serif" font-size="10.00" fill="#000000">src/modules/sensors</text>
<text text-anchor="middle" x="53.5" y="-7.5" font-family="Helvetica,sans-Serif" font-size="10.00" fill="#000000">/sensors.cpp</text>
</a>
</g>
</g>
<!-- Node31&#45;&gt;Node32 -->
<g id="edge2" class="edge">
<title>Node31&#45;&gt;Node32</title>
<path fill="none" stroke="#191970" d="M100.2133,-60.2113C90.0681,-50.5009 78.4386,-39.3698 69.3212,-30.6432"/>
<polygon fill="#191970" stroke="#191970" points="97.9716,-62.9105 107.6159,-67.2967 102.8118,-57.8536 97.9716,-62.9105"/>
</g>
<!-- Node33 -->
<g id="node4" class="node">
<title>Node33</title>
<g id="a_node4"><a xlink:href="../../d3/d2f/voted__sensors__update_8cpp.html" target="_top" xlink:title="src/modules/sensors\l/voted_sensors_update.cpp">
<polygon fill="#ffffff" stroke="#000000" points="125,-.5 125,-30.5 262,-30.5 262,-.5 125,-.5"/>
<text text-anchor="start" x="133" y="-18.5" font-family="Helvetica,sans-Serif" font-size="10.00" fill="#000000">src/modules/sensors</text>
<text text-anchor="middle" x="193.5" y="-7.5" font-family="Helvetica,sans-Serif" font-size="10.00" fill="#000000">/voted_sensors_update.cpp</text>
</a>
</g>
</g>
<!-- Node31&#45;&gt;Node33 -->
<g id="edge3" class="edge">
<title>Node31&#45;&gt;Node33</title>
<path fill="none" stroke="#191970" d="M146.7867,-60.2113C156.9319,-50.5009 168.5614,-39.3698 177.6788,-30.6432"/>
<polygon fill="#191970" stroke="#191970" points="144.1882,-57.8536 139.3841,-67.2967 149.0284,-62.9105 144.1882,-57.8536"/>
</g>
</g>
</svg>
