<?xml version="1.0" encoding="UTF-8" standalone="no"?>
<!DOCTYPE svg PUBLIC "-//W3C//DTD SVG 1.1//EN"
 "http://www.w3.org/Graphics/SVG/1.1/DTD/svg11.dtd">
<!-- Generated by graphviz version 2.40.1 (20161225.0304)
 -->
<!-- Title: cfg_main Pages: 1 -->
<svg width="167pt" height="28pt"
 viewBox="0.00 0.00 167.00 28.00" xmlns="http://www.w3.org/2000/svg" xmlns:xlink="http://www.w3.org/1999/xlink">
<g id="graph0" class="graph" transform="scale(1 1) rotate(0) translate(4 24)">
<title>cfg_main</title>
<polygon fill="#ffffff" stroke="transparent" points="-4,4 -4,-24 163,-24 163,4 -4,4"/>
<!-- Node0 -->
<g id="node1" class="node">
<title>Node0</title>
<polygon fill="#bfbfbf" stroke="#000000" points="0,-.5 0,-19.5 56,-19.5 56,-.5 0,-.5"/>
<text text-anchor="middle" x="28" y="-7.5" font-family="Helvetica,sans-Serif" font-size="10.00" fill="#000000">cfg_main</text>
</g>
<!-- Node1 -->
<g id="node2" class="node">
<title>Node1</title>
<g id="a_node2"><a xlink:href="../../d3/d56/esc__cfg_8cpp.html#a5abe0071a53c95b01791701e62cc1e07" target="_top" xlink:title="print_usage">
<polygon fill="#ffffff" stroke="#000000" points="92,-.5 92,-19.5 159,-19.5 159,-.5 92,-.5"/>
<text text-anchor="middle" x="125.5" y="-7.5" font-family="Helvetica,sans-Serif" font-size="10.00" fill="#000000">print_usage</text>
</a>
</g>
</g>
<!-- Node0&#45;&gt;Node1 -->
<g id="edge1" class="edge">
<title>Node0&#45;&gt;Node1</title>
<path fill="none" stroke="#191970" d="M56.201,-3.814C64.2049,-3.3479 73.1132,-3.1707 81.8049,-3.2824"/>
<polygon fill="#191970" stroke="#191970" points="81.753,-6.7821 91.8415,-3.5461 81.9369,.2155 81.753,-6.7821"/>
</g>
<!-- Node1&#45;&gt;Node0 -->
<g id="edge2" class="edge">
<title>Node1&#45;&gt;Node0</title>
<path fill="none" stroke="#191970" d="M91.8415,-16.4539C83.5818,-16.7879 74.6809,-16.8393 66.2238,-16.6082"/>
<polygon fill="#191970" stroke="#191970" points="66.3395,-13.11 56.201,-16.186 66.0449,-20.1038 66.3395,-13.11"/>
</g>
</g>
</svg>
