<?xml version="1.0" encoding="UTF-8" standalone="no"?>
<!DOCTYPE svg PUBLIC "-//W3C//DTD SVG 1.1//EN"
 "http://www.w3.org/Graphics/SVG/1.1/DTD/svg11.dtd">
<!-- Generated by graphviz version 2.38.0 (20140413.2041)
 -->
<!-- Title: GPSDriverMTK::parseChar Pages: 1 -->
<svg width="365pt" height="66pt"
 viewBox="0.00 0.00 365.00 66.00" xmlns="http://www.w3.org/2000/svg" xmlns:xlink="http://www.w3.org/1999/xlink">
<g id="graph0" class="graph" transform="scale(1 1) rotate(0) translate(4 62)">
<title>GPSDriverMTK::parseChar</title>
<polygon fill="white" stroke="none" points="-4,4 -4,-62 361,-62 361,4 -4,4"/>
<!-- Node1 -->
<g id="node1" class="node"><title>Node1</title>
<polygon fill="#bfbfbf" stroke="black" points="0,-19.5 0,-38.5 136,-38.5 136,-19.5 0,-19.5"/>
<text text-anchor="middle" x="68" y="-26.5" font-family="Helvetica,sans-Serif" font-size="10.00">GPSDriverMTK::parseChar</text>
</g>
<!-- Node2 -->
<g id="node2" class="node"><title>Node2</title>
<g id="a_node2"><a xlink:href="../../d8/d8f/class_g_p_s_driver_m_t_k.html#af8471f62fd246610c5d04b78f37b2c86" target="_top" xlink:title="While parsing add every byte (except the sync bytes) to the checksum. ">
<polygon fill="white" stroke="black" points="172,-38.5 172,-57.5 357,-57.5 357,-38.5 172,-38.5"/>
<text text-anchor="middle" x="264.5" y="-45.5" font-family="Helvetica,sans-Serif" font-size="10.00">GPSDriverMTK::addByteToChecksum</text>
</a>
</g>
</g>
<!-- Node1&#45;&gt;Node2 -->
<g id="edge1" class="edge"><title>Node1&#45;&gt;Node2</title>
<path fill="none" stroke="midnightblue" d="M136.208,-35.5653C144.495,-36.3748 153.104,-37.2159 161.761,-38.0615"/>
<polygon fill="midnightblue" stroke="midnightblue" points="161.636,-41.5659 171.929,-39.0548 162.317,-34.599 161.636,-41.5659"/>
</g>
<!-- Node3 -->
<g id="node3" class="node"><title>Node3</title>
<g id="a_node3"><a xlink:href="../../d8/d8f/class_g_p_s_driver_m_t_k.html#ad6fb161610d8c85985c3fed4d825fbaf" target="_top" xlink:title="Reset the parse state machine for a fresh start. ">
<polygon fill="white" stroke="black" points="196.5,-0.5 196.5,-19.5 332.5,-19.5 332.5,-0.5 196.5,-0.5"/>
<text text-anchor="middle" x="264.5" y="-7.5" font-family="Helvetica,sans-Serif" font-size="10.00">GPSDriverMTK::decodeInit</text>
</a>
</g>
</g>
<!-- Node1&#45;&gt;Node3 -->
<g id="edge2" class="edge"><title>Node1&#45;&gt;Node3</title>
<path fill="none" stroke="midnightblue" d="M136.208,-22.4347C152.303,-20.8624 169.615,-19.1713 186.128,-17.5581"/>
<polygon fill="midnightblue" stroke="midnightblue" points="186.677,-21.0213 196.289,-16.5656 185.996,-14.0545 186.677,-21.0213"/>
</g>
</g>
</svg>
