<?xml version="1.0" encoding="UTF-8" standalone="no"?>
<!DOCTYPE svg PUBLIC "-//W3C//DTD SVG 1.1//EN"
 "http://www.w3.org/Graphics/SVG/1.1/DTD/svg11.dtd">
<!-- Generated by graphviz version 2.38.0 (20140413.2041)
 -->
<!-- Title: px4::Publisher&lt; T &gt; Pages: 1 -->
<svg width="140pt" height="215pt"
 viewBox="0.00 0.00 140.00 215.00" xmlns="http://www.w3.org/2000/svg" xmlns:xlink="http://www.w3.org/1999/xlink">
<g id="graph0" class="graph" transform="scale(1 1) rotate(0) translate(4 211)">
<title>px4::Publisher&lt; T &gt;</title>
<polygon fill="white" stroke="none" points="-4,4 -4,-211 136,-211 136,4 -4,4"/>
<!-- Node1 -->
<g id="node1" class="node"><title>Node1</title>
<polygon fill="#bfbfbf" stroke="black" points="14.5,-127.5 14.5,-206.5 117.5,-206.5 117.5,-127.5 14.5,-127.5"/>
<text text-anchor="middle" x="66" y="-194.5" font-family="Helvetica,sans-Serif" font-size="10.00">px4::Publisher&lt; T &gt;</text>
<polyline fill="none" stroke="black" points="14.5,-187.5 117.5,-187.5 "/>
<text text-anchor="middle" x="66" y="-175.5" font-family="Helvetica,sans-Serif" font-size="10.00"> </text>
<polyline fill="none" stroke="black" points="14.5,-168.5 117.5,-168.5 "/>
<text text-anchor="start" x="22.5" y="-156.5" font-family="Helvetica,sans-Serif" font-size="10.00">+ Publisher()</text>
<text text-anchor="start" x="22.5" y="-145.5" font-family="Helvetica,sans-Serif" font-size="10.00">+ ~Publisher()</text>
<text text-anchor="start" x="22.5" y="-134.5" font-family="Helvetica,sans-Serif" font-size="10.00">+ publish()</text>
</g>
<!-- Node2 -->
<g id="node2" class="node"><title>Node2</title>
<g id="a_node2"><a xlink:href="../../d2/d03/classpx4_1_1_publisher_u_o_r_b.html" target="_top" xlink:title="{px4::PublisherUORB\&lt; T \&gt;\n|&#45; _uorb_pub\l|+ PublisherUORB()\l+ ~PublisherUORB()\l+ publish()\l+ update()\l}">
<polygon fill="white" stroke="black" points="0,-0.5 0,-90.5 132,-90.5 132,-0.5 0,-0.5"/>
<text text-anchor="middle" x="66" y="-78.5" font-family="Helvetica,sans-Serif" font-size="10.00">px4::PublisherUORB&lt; T &gt;</text>
<polyline fill="none" stroke="black" points="0,-71.5 132,-71.5 "/>
<text text-anchor="start" x="8" y="-59.5" font-family="Helvetica,sans-Serif" font-size="10.00">&#45; _uorb_pub</text>
<polyline fill="none" stroke="black" points="0,-52.5 132,-52.5 "/>
<text text-anchor="start" x="8" y="-40.5" font-family="Helvetica,sans-Serif" font-size="10.00">+ PublisherUORB()</text>
<text text-anchor="start" x="8" y="-29.5" font-family="Helvetica,sans-Serif" font-size="10.00">+ ~PublisherUORB()</text>
<text text-anchor="start" x="8" y="-18.5" font-family="Helvetica,sans-Serif" font-size="10.00">+ publish()</text>
<text text-anchor="start" x="8" y="-7.5" font-family="Helvetica,sans-Serif" font-size="10.00">+ update()</text>
</a>
</g>
</g>
<!-- Node1&#45;&gt;Node2 -->
<g id="edge1" class="edge"><title>Node1&#45;&gt;Node2</title>
<path fill="none" stroke="midnightblue" d="M66,-117.187C66,-108.491 66,-99.4758 66,-90.9111"/>
<polygon fill="none" stroke="midnightblue" points="62.5001,-117.202 66,-127.202 69.5001,-117.202 62.5001,-117.202"/>
</g>
</g>
</svg>
