<?xml version="1.0" encoding="UTF-8" standalone="no"?>
<!DOCTYPE svg PUBLIC "-//W3C//DTD SVG 1.1//EN"
 "http://www.w3.org/Graphics/SVG/1.1/DTD/svg11.dtd">
<!-- Generated by graphviz version 2.38.0 (20140413.2041)
 -->
<!-- Title: TerrainEstimator::predict Pages: 1 -->
<svg width="398pt" height="39pt"
 viewBox="0.00 0.00 398.00 39.00" xmlns="http://www.w3.org/2000/svg" xmlns:xlink="http://www.w3.org/1999/xlink">
<g id="graph0" class="graph" transform="scale(1 1) rotate(0) translate(4 35)">
<title>TerrainEstimator::predict</title>
<polygon fill="white" stroke="none" points="-4,4 -4,-35 394,-35 394,4 -4,4"/>
<!-- Node1 -->
<g id="node1" class="node"><title>Node1</title>
<polygon fill="#bfbfbf" stroke="black" points="0,-6 0,-25 124,-25 124,-6 0,-6"/>
<text text-anchor="middle" x="62" y="-13" font-family="Helvetica,sans-Serif" font-size="10.00">TerrainEstimator::predict</text>
</g>
<!-- Node2 -->
<g id="node2" class="node"><title>Node2</title>
<g id="a_node2"><a xlink:href="../../d0/d58/position__estimator__inav__main_8cpp.html#acf822e9bb4a008a2a53118ccbdf951b6" target="_top" xlink:title="position_estimator\l_inav_thread_main">
<polygon fill="white" stroke="black" points="160,-0.5 160,-30.5 258,-30.5 258,-0.5 160,-0.5"/>
<text text-anchor="start" x="168" y="-18.5" font-family="Helvetica,sans-Serif" font-size="10.00">position_estimator</text>
<text text-anchor="middle" x="209" y="-7.5" font-family="Helvetica,sans-Serif" font-size="10.00">_inav_thread_main</text>
</a>
</g>
</g>
<!-- Node1&#45;&gt;Node2 -->
<g id="edge1" class="edge"><title>Node1&#45;&gt;Node2</title>
<path fill="none" stroke="midnightblue" d="M134.2,-15.5C142.862,-15.5 151.549,-15.5 159.766,-15.5"/>
<polygon fill="midnightblue" stroke="midnightblue" points="134.073,-12.0001 124.073,-15.5 134.073,-19.0001 134.073,-12.0001"/>
</g>
<!-- Node3 -->
<g id="node3" class="node"><title>Node3</title>
<g id="a_node3"><a xlink:href="../../d0/d58/position__estimator__inav__main_8cpp.html#ad30a31aecbb0b3fe8c1aa84282cdbbcd" target="_top" xlink:title="The position_estimator_inav_thread only briefly exists to start the background job. ">
<polygon fill="white" stroke="black" points="294,-0.5 294,-30.5 390,-30.5 390,-0.5 294,-0.5"/>
<text text-anchor="start" x="302" y="-18.5" font-family="Helvetica,sans-Serif" font-size="10.00">position_estimator</text>
<text text-anchor="middle" x="342" y="-7.5" font-family="Helvetica,sans-Serif" font-size="10.00">_inav_main</text>
</a>
</g>
</g>
<!-- Node2&#45;&gt;Node3 -->
<g id="edge2" class="edge"><title>Node2&#45;&gt;Node3</title>
<path fill="none" stroke="midnightblue" d="M268.047,-15.5C276.675,-15.5 285.477,-15.5 293.845,-15.5"/>
<polygon fill="midnightblue" stroke="midnightblue" points="268.036,-12.0001 258.036,-15.5 268.036,-19.0001 268.036,-12.0001"/>
</g>
</g>
</svg>
