<?xml version="1.0" encoding="UTF-8" standalone="no"?>
<!DOCTYPE svg PUBLIC "-//W3C//DTD SVG 1.1//EN"
 "http://www.w3.org/Graphics/SVG/1.1/DTD/svg11.dtd">
<!-- Generated by graphviz version 2.38.0 (20140413.2041)
 -->
<!-- Title: src/drivers/linux_gpio/linux_gpio.cpp Pages: 1 -->
<!--zoomable 274 -->
<svg id="main" version="1.1" xmlns="http://www.w3.org/2000/svg" xmlns:xlink="http://www.w3.org/1999/xlink" xml:space="preserve" onload="init(evt)">
<style type="text/css"><![CDATA[
.edge:hover path { stroke: red; }
.edge:hover polygon { stroke: red; fill: red; }
]]></style>
<script type="text/javascript"><![CDATA[
var edges = document.getElementsByTagName('g');
if (edges && edges.length) {
  for (var i=0;i<edges.length;i++) {
    if (edges[i].id.substr(0,4)=='edge') {
      edges[i].setAttribute('class','edge');
    }
  }
}
]]></script>
        <defs>
                <circle id="rim" cx="0" cy="0" r="7"/>
                <circle id="rim2" cx="0" cy="0" r="3.5"/>
                <g id="zoomPlus">
                        <use xlink:href="#rim" fill="#404040">
                                <set attributeName="fill" to="#808080" begin="zoomplus.mouseover" end="zoomplus.mouseout"/>
                        </use>
                        <path d="M-4,0h8M0,-4v8" fill="none" stroke="white" stroke-width="1.5" pointer-events="none"/>
                </g>
                <g id="zoomMin">
                        <use xlink:href="#rim" fill="#404040">
                                <set attributeName="fill" to="#808080" begin="zoomminus.mouseover" end="zoomminus.mouseout"/>
                        </use>
                        <path d="M-4,0h8" fill="none" stroke="white" stroke-width="1.5" pointer-events="none"/>
                </g>
                <g id="dirArrow">
                        <path fill="none" stroke="white" stroke-width="1.5" d="M0,-3.0v7 M-2.5,-0.5L0,-3.0L2.5,-0.5"/>
                </g>
               <g id="resetDef">
                       <use xlink:href="#rim2" fill="#404040">
                               <set attributeName="fill" to="#808080" begin="reset.mouseover" end="reset.mouseout"/>
                       </use>
               </g>
        </defs>

<script type="text/javascript">
var viewWidth = 770;
var viewHeight = 274;
var sectionId = 'dynsection-0';
</script>
<script xlink:href="../../svgpan.js"/>
<svg id="graph" class="graph">
<g id="viewport">
<title>src/drivers/linux_gpio/linux_gpio.cpp</title>
<polygon fill="white" stroke="none" points="-4,4 -4,-270 766,-270 766,4 -4,4"/>
<!-- Node1 -->
<g id="node1" class="node"><title>Node1</title>
<polygon fill="#bfbfbf" stroke="black" points="559.5,-235.5 559.5,-265.5 668.5,-265.5 668.5,-235.5 559.5,-235.5"/>
<text text-anchor="start" x="567.5" y="-253.5" font-family="Helvetica,sans-Serif" font-size="10.00">src/drivers/linux_gpio</text>
<text text-anchor="middle" x="614" y="-242.5" font-family="Helvetica,sans-Serif" font-size="10.00">/linux_gpio.cpp</text>
</g>
<!-- Node2 -->
<g id="node2" class="node"><title>Node2</title>
<g id="a_node2"><a xlink:href="../../d8/dbb/linux__gpio_8h.html" target="_top" xlink:title="Linux sysfs GPIO Interface. ">
<polygon fill="white" stroke="black" points="401,-168.5 401,-198.5 493,-198.5 493,-168.5 401,-168.5"/>
<text text-anchor="start" x="409" y="-186.5" font-family="Helvetica,sans-Serif" font-size="10.00">drivers/linux_gpio</text>
<text text-anchor="middle" x="447" y="-175.5" font-family="Helvetica,sans-Serif" font-size="10.00">/linux_gpio.h</text>
</a>
</g>
</g>
<!-- Node1&#45;&gt;Node2 -->
<g id="edge1" class="edge"><title>Node1&#45;&gt;Node2</title>
<path fill="none" stroke="midnightblue" d="M577.763,-235.396C552.816,-225.686 519.475,-212.709 492.704,-202.289"/>
<polygon fill="midnightblue" stroke="midnightblue" points="493.754,-198.942 483.166,-198.577 491.215,-205.465 493.754,-198.942"/>
</g>
<!-- Node3 -->
<g id="node3" class="node"><title>Node3</title>
<g id="a_node3"><a xlink:href="../../d2/de9/px4__posix_8h.html" target="_top" xlink:title="Includes POSIX&#45;like functions for virtual character devices. ">
<polygon fill="white" stroke="black" points="511.5,-174 511.5,-193 580.5,-193 580.5,-174 511.5,-174"/>
<text text-anchor="middle" x="546" y="-181" font-family="Helvetica,sans-Serif" font-size="10.00">px4_posix.h</text>
</a>
</g>
</g>
<!-- Node1&#45;&gt;Node3 -->
<g id="edge2" class="edge"><title>Node1&#45;&gt;Node3</title>
<path fill="none" stroke="midnightblue" d="M599.245,-235.396C588.432,-225.06 573.748,-211.024 562.539,-200.309"/>
<polygon fill="midnightblue" stroke="midnightblue" points="564.743,-197.574 555.096,-193.195 559.906,-202.634 564.743,-197.574"/>
</g>
<!-- Node14 -->
<g id="node14" class="node"><title>Node14</title>
<polygon fill="white" stroke="#bfbfbf" points="632,-112.5 632,-131.5 676,-131.5 676,-112.5 632,-112.5"/>
<text text-anchor="middle" x="654" y="-119.5" font-family="Helvetica,sans-Serif" font-size="10.00">fcntl.h</text>
</g>
<!-- Node1&#45;&gt;Node14 -->
<g id="edge22" class="edge"><title>Node1&#45;&gt;Node14</title>
<path fill="none" stroke="midnightblue" d="M617.927,-235.293C622.497,-218.972 630.392,-191.428 638,-168 640.885,-159.117 644.329,-149.339 647.281,-141.173"/>
<polygon fill="midnightblue" stroke="midnightblue" points="650.642,-142.172 650.791,-131.578 644.068,-139.767 650.642,-142.172"/>
</g>
<!-- Node16 -->
<g id="node16" class="node"><title>Node16</title>
<polygon fill="white" stroke="#bfbfbf" points="694,-112.5 694,-131.5 762,-131.5 762,-112.5 694,-112.5"/>
<text text-anchor="middle" x="728" y="-119.5" font-family="Helvetica,sans-Serif" font-size="10.00">sys/types.h</text>
</g>
<!-- Node1&#45;&gt;Node16 -->
<g id="edge20" class="edge"><title>Node1&#45;&gt;Node16</title>
<path fill="none" stroke="midnightblue" d="M622.156,-235.315C632.329,-218.283 650.855,-189.349 671,-168 681.651,-156.712 695.238,-145.876 706.475,-137.666"/>
<polygon fill="midnightblue" stroke="midnightblue" points="708.761,-140.335 714.882,-131.687 704.704,-134.63 708.761,-140.335"/>
</g>
<!-- Node19 -->
<g id="node19" class="node"><title>Node19</title>
<polygon fill="white" stroke="#bfbfbf" points="680,-174 680,-193 740,-193 740,-174 680,-174"/>
<text text-anchor="middle" x="710" y="-181" font-family="Helvetica,sans-Serif" font-size="10.00">sys/stat.h</text>
</g>
<!-- Node1&#45;&gt;Node19 -->
<g id="edge21" class="edge"><title>Node1&#45;&gt;Node19</title>
<path fill="none" stroke="midnightblue" d="M634.831,-235.396C650.78,-224.597 672.698,-209.756 688.751,-198.887"/>
<polygon fill="midnightblue" stroke="midnightblue" points="691.118,-201.512 697.436,-193.007 687.193,-195.715 691.118,-201.512"/>
</g>
<!-- Node4 -->
<g id="node4" class="node"><title>Node4</title>
<g id="a_node4"><a xlink:href="../../df/dd0/px4__defines_8h.html" target="_top" xlink:title="Generally used magic defines. ">
<polygon fill="white" stroke="black" points="161.5,-112.5 161.5,-131.5 238.5,-131.5 238.5,-112.5 161.5,-112.5"/>
<text text-anchor="middle" x="200" y="-119.5" font-family="Helvetica,sans-Serif" font-size="10.00">px4_defines.h</text>
</a>
</g>
</g>
<!-- Node3&#45;&gt;Node4 -->
<g id="edge3" class="edge"><title>Node3&#45;&gt;Node4</title>
<path fill="none" stroke="midnightblue" d="M522.464,-173.924C515.904,-171.759 508.73,-169.598 502,-168 413.754,-147.046 308.562,-134 248.497,-127.651"/>
<polygon fill="midnightblue" stroke="midnightblue" points="248.846,-124.169 238.537,-126.616 248.122,-131.131 248.846,-124.169"/>
</g>
<!-- Node7 -->
<g id="node7" class="node"><title>Node7</title>
<polygon fill="white" stroke="#bfbfbf" points="298.5,-0.5 298.5,-19.5 347.5,-19.5 347.5,-0.5 298.5,-0.5"/>
<text text-anchor="middle" x="323" y="-7.5" font-family="Helvetica,sans-Serif" font-size="10.00">stdint.h</text>
</g>
<!-- Node3&#45;&gt;Node7 -->
<g id="edge13" class="edge"><title>Node3&#45;&gt;Node7</title>
<path fill="none" stroke="midnightblue" d="M521.949,-173.997C515.514,-171.881 508.532,-169.726 502,-168 423.546,-147.264 374.414,-194.783 323,-132 299.126,-102.847 308.708,-55.142 316.583,-29.1963"/>
<polygon fill="midnightblue" stroke="midnightblue" points="319.964,-30.1191 319.751,-19.5264 313.312,-27.9397 319.964,-30.1191"/>
</g>
<!-- Node11 -->
<g id="node11" class="node"><title>Node11</title>
<g id="a_node11"><a xlink:href="../../da/d65/px4__tasks_8h.html" target="_top" xlink:title="px4_tasks.h">
<polygon fill="white" stroke="black" points="332,-112.5 332,-131.5 402,-131.5 402,-112.5 332,-112.5"/>
<text text-anchor="middle" x="367" y="-119.5" font-family="Helvetica,sans-Serif" font-size="10.00">px4_tasks.h</text>
</a>
</g>
</g>
<!-- Node3&#45;&gt;Node11 -->
<g id="edge11" class="edge"><title>Node3&#45;&gt;Node11</title>
<path fill="none" stroke="midnightblue" d="M520.354,-173.975C489.383,-163.68 437.127,-146.31 402.349,-134.75"/>
<polygon fill="midnightblue" stroke="midnightblue" points="403.192,-131.342 392.599,-131.509 400.984,-137.985 403.192,-131.342"/>
</g>
<!-- Node13 -->
<g id="node13" class="node"><title>Node13</title>
<polygon fill="white" stroke="#bfbfbf" points="420.5,-112.5 420.5,-131.5 471.5,-131.5 471.5,-112.5 420.5,-112.5"/>
<text text-anchor="middle" x="446" y="-119.5" font-family="Helvetica,sans-Serif" font-size="10.00">unistd.h</text>
</g>
<!-- Node3&#45;&gt;Node13 -->
<g id="edge14" class="edge"><title>Node3&#45;&gt;Node13</title>
<path fill="none" stroke="midnightblue" d="M531.672,-173.975C515.336,-164.255 488.398,-148.227 469.088,-136.737"/>
<polygon fill="midnightblue" stroke="midnightblue" points="470.685,-133.615 460.301,-131.509 467.105,-139.63 470.685,-133.615"/>
</g>
<!-- Node3&#45;&gt;Node14 -->
<g id="edge15" class="edge"><title>Node3&#45;&gt;Node14</title>
<path fill="none" stroke="midnightblue" d="M561.474,-173.975C579.278,-164.166 608.741,-147.935 629.632,-136.425"/>
<polygon fill="midnightblue" stroke="midnightblue" points="631.485,-139.4 638.555,-131.509 628.107,-133.269 631.485,-139.4"/>
</g>
<!-- Node15 -->
<g id="node15" class="node"><title>Node15</title>
<polygon fill="white" stroke="#bfbfbf" points="490,-112.5 490,-131.5 530,-131.5 530,-112.5 490,-112.5"/>
<text text-anchor="middle" x="510" y="-119.5" font-family="Helvetica,sans-Serif" font-size="10.00">poll.h</text>
</g>
<!-- Node3&#45;&gt;Node15 -->
<g id="edge16" class="edge"><title>Node3&#45;&gt;Node15</title>
<path fill="none" stroke="midnightblue" d="M540.842,-173.975C535.549,-165.227 527.165,-151.369 520.473,-140.309"/>
<polygon fill="midnightblue" stroke="midnightblue" points="523.32,-138.253 515.148,-131.509 517.33,-141.877 523.32,-138.253"/>
</g>
<!-- Node3&#45;&gt;Node16 -->
<g id="edge17" class="edge"><title>Node3&#45;&gt;Node16</title>
<path fill="none" stroke="midnightblue" d="M572.076,-173.975C603.566,-163.68 656.698,-146.31 692.058,-134.75"/>
<polygon fill="midnightblue" stroke="midnightblue" points="693.555,-137.943 701.972,-131.509 691.38,-131.29 693.555,-137.943"/>
</g>
<!-- Node17 -->
<g id="node17" class="node"><title>Node17</title>
<g id="a_node17"><a xlink:href="../../d4/d7f/px4__sem_8h.html" target="_top" xlink:title="Synchronization primitive: Semaphore. ">
<polygon fill="white" stroke="black" points="548.5,-112.5 548.5,-131.5 613.5,-131.5 613.5,-112.5 548.5,-112.5"/>
<text text-anchor="middle" x="581" y="-119.5" font-family="Helvetica,sans-Serif" font-size="10.00">px4_sem.h</text>
</a>
</g>
</g>
<!-- Node3&#45;&gt;Node17 -->
<g id="edge18" class="edge"><title>Node3&#45;&gt;Node17</title>
<path fill="none" stroke="midnightblue" d="M551.015,-173.975C556.161,-165.227 564.312,-151.369 570.818,-140.309"/>
<polygon fill="midnightblue" stroke="midnightblue" points="573.941,-141.903 575.995,-131.509 567.908,-138.354 573.941,-141.903"/>
</g>
<!-- Node5 -->
<g id="node5" class="node"><title>Node5</title>
<g id="a_node5"><a xlink:href="../../d7/d53/px4__log_8h.html" target="_top" xlink:title="Platform dependant logging/debug implementation. ">
<polygon fill="white" stroke="black" points="170.5,-56.5 170.5,-75.5 229.5,-75.5 229.5,-56.5 170.5,-56.5"/>
<text text-anchor="middle" x="200" y="-63.5" font-family="Helvetica,sans-Serif" font-size="10.00">px4_log.h</text>
</a>
</g>
</g>
<!-- Node4&#45;&gt;Node5 -->
<g id="edge4" class="edge"><title>Node4&#45;&gt;Node5</title>
<path fill="none" stroke="midnightblue" d="M194.834,-112.083C193.324,-104.927 192.894,-94.6353 193.542,-85.6911"/>
<polygon fill="midnightblue" stroke="midnightblue" points="197.015,-86.1262 194.869,-75.7511 190.077,-85.2002 197.015,-86.1262"/>
</g>
<!-- Node5&#45;&gt;Node4 -->
<g id="edge10" class="edge"><title>Node5&#45;&gt;Node4</title>
<path fill="none" stroke="midnightblue" d="M205.131,-75.7511C206.657,-82.8579 207.104,-93.1357 206.472,-102.101"/>
<polygon fill="midnightblue" stroke="midnightblue" points="202.993,-101.713 205.166,-112.083 209.934,-102.622 202.993,-101.713"/>
</g>
<!-- Node6 -->
<g id="node6" class="node"><title>Node6</title>
<polygon fill="white" stroke="#bfbfbf" points="70.5,-0.5 70.5,-19.5 129.5,-19.5 129.5,-0.5 70.5,-0.5"/>
<text text-anchor="middle" x="100" y="-7.5" font-family="Helvetica,sans-Serif" font-size="10.00">inttypes.h</text>
</g>
<!-- Node5&#45;&gt;Node6 -->
<g id="edge5" class="edge"><title>Node5&#45;&gt;Node6</title>
<path fill="none" stroke="midnightblue" d="M183.933,-56.324C168.042,-47.7428 143.493,-34.486 125.042,-24.5224"/>
<polygon fill="midnightblue" stroke="midnightblue" points="126.489,-21.3264 116.027,-19.6545 123.163,-27.4857 126.489,-21.3264"/>
</g>
<!-- Node5&#45;&gt;Node7 -->
<g id="edge6" class="edge"><title>Node5&#45;&gt;Node7</title>
<path fill="none" stroke="midnightblue" d="M219.49,-56.4435C239.642,-47.5961 271.323,-33.6875 294.331,-23.5865"/>
<polygon fill="midnightblue" stroke="midnightblue" points="295.852,-26.7411 303.601,-19.5164 293.038,-20.3316 295.852,-26.7411"/>
</g>
<!-- Node8 -->
<g id="node8" class="node"><title>Node8</title>
<polygon fill="white" stroke="#bfbfbf" points="148,-0.5 148,-19.5 216,-19.5 216,-0.5 148,-0.5"/>
<text text-anchor="middle" x="182" y="-7.5" font-family="Helvetica,sans-Serif" font-size="10.00">sys/cdefs.h</text>
</g>
<!-- Node5&#45;&gt;Node8 -->
<g id="edge7" class="edge"><title>Node5&#45;&gt;Node8</title>
<path fill="none" stroke="midnightblue" d="M197.028,-56.083C194.616,-48.8486 191.136,-38.4087 188.132,-29.3968"/>
<polygon fill="midnightblue" stroke="midnightblue" points="191.4,-28.1311 184.917,-19.7511 184.759,-30.3447 191.4,-28.1311"/>
</g>
<!-- Node9 -->
<g id="node9" class="node"><title>Node9</title>
<polygon fill="white" stroke="#bfbfbf" points="234,-0.5 234,-19.5 280,-19.5 280,-0.5 234,-0.5"/>
<text text-anchor="middle" x="257" y="-7.5" font-family="Helvetica,sans-Serif" font-size="10.00">stdio.h</text>
</g>
<!-- Node5&#45;&gt;Node9 -->
<g id="edge8" class="edge"><title>Node5&#45;&gt;Node9</title>
<path fill="none" stroke="midnightblue" d="M209.158,-56.324C217.501,-48.4196 230.032,-36.5482 240.177,-26.9377"/>
<polygon fill="midnightblue" stroke="midnightblue" points="242.823,-29.2522 247.675,-19.8339 238.009,-24.1705 242.823,-29.2522"/>
</g>
<!-- Node10 -->
<g id="node10" class="node"><title>Node10</title>
<polygon fill="white" stroke="#bfbfbf" points="0,-0.5 0,-19.5 52,-19.5 52,-0.5 0,-0.5"/>
<text text-anchor="middle" x="26" y="-7.5" font-family="Helvetica,sans-Serif" font-size="10.00">stdarg.h</text>
</g>
<!-- Node5&#45;&gt;Node10 -->
<g id="edge9" class="edge"><title>Node5&#45;&gt;Node10</title>
<path fill="none" stroke="midnightblue" d="M172.429,-56.4435C142.468,-47.1454 94.4954,-32.2572 61.6812,-22.0735"/>
<polygon fill="midnightblue" stroke="midnightblue" points="62.609,-18.6968 52.0209,-19.0755 60.5341,-25.3822 62.609,-18.6968"/>
</g>
<!-- Node12 -->
<g id="node12" class="node"><title>Node12</title>
<polygon fill="white" stroke="#bfbfbf" points="339,-56.5 339,-75.5 395,-75.5 395,-56.5 339,-56.5"/>
<text text-anchor="middle" x="367" y="-63.5" font-family="Helvetica,sans-Serif" font-size="10.00">stdbool.h</text>
</g>
<!-- Node11&#45;&gt;Node12 -->
<g id="edge12" class="edge"><title>Node11&#45;&gt;Node12</title>
<path fill="none" stroke="midnightblue" d="M367,-112.083C367,-105.006 367,-94.8611 367,-85.9865"/>
<polygon fill="midnightblue" stroke="midnightblue" points="370.5,-85.751 367,-75.7511 363.5,-85.7511 370.5,-85.751"/>
</g>
<!-- Node18 -->
<g id="node18" class="node"><title>Node18</title>
<polygon fill="white" stroke="#bfbfbf" points="544.5,-56.5 544.5,-75.5 617.5,-75.5 617.5,-56.5 544.5,-56.5"/>
<text text-anchor="middle" x="581" y="-63.5" font-family="Helvetica,sans-Serif" font-size="10.00">semaphore.h</text>
</g>
<!-- Node17&#45;&gt;Node18 -->
<g id="edge19" class="edge"><title>Node17&#45;&gt;Node18</title>
<path fill="none" stroke="midnightblue" d="M581,-112.083C581,-105.006 581,-94.8611 581,-85.9865"/>
<polygon fill="midnightblue" stroke="midnightblue" points="584.5,-85.751 581,-75.7511 577.5,-85.7511 584.5,-85.751"/>
</g>
</g>
</svg>
        <g id="navigator" transform="translate(0 0)" fill="#404254">
                <rect fill="#f2f5e9" fill-opacity="0.5" stroke="#606060" stroke-width=".5" x="0" y="0" width="60" height="60"/>
                <use id="zoomplus" xlink:href="#zoomPlus" x="17" y="9" onmousedown="handleZoom(evt,'in')"/>
                <use id="zoomminus" xlink:href="#zoomMin" x="42" y="9" onmousedown="handleZoom(evt,'out')"/>
                <use id="reset" xlink:href="#resetDef" x="30" y="36" onmousedown="handleReset()"/>
                <g id="arrowUp" xlink:href="#dirArrow" transform="translate(30 24)" onmousedown="handlePan(0,-1)">
                  <use xlink:href="#rim" fill="#404040">
                        <set attributeName="fill" to="#808080" begin="arrowUp.mouseover" end="arrowUp.mouseout"/>
                  </use>
                  <path fill="none" stroke="white" stroke-width="1.5" d="M0,-3.0v7 M-2.5,-0.5L0,-3.0L2.5,-0.5"/>
                </g>
                <g id="arrowRight" xlink:href="#dirArrow" transform="rotate(90) translate(36 -43)" onmousedown="handlePan(1,0)">
                  <use xlink:href="#rim" fill="#404040">
                        <set attributeName="fill" to="#808080" begin="arrowRight.mouseover" end="arrowRight.mouseout"/>
                  </use>
                  <path fill="none" stroke="white" stroke-width="1.5" d="M0,-3.0v7 M-2.5,-0.5L0,-3.0L2.5,-0.5"/>
                </g>
                <g id="arrowDown" xlink:href="#dirArrow" transform="rotate(180) translate(-30 -48)" onmousedown="handlePan(0,1)">
                  <use xlink:href="#rim" fill="#404040">
                        <set attributeName="fill" to="#808080" begin="arrowDown.mouseover" end="arrowDown.mouseout"/>
                  </use>
                  <path fill="none" stroke="white" stroke-width="1.5" d="M0,-3.0v7 M-2.5,-0.5L0,-3.0L2.5,-0.5"/>
                </g>
                <g id="arrowLeft" xlink:href="#dirArrow" transform="rotate(270) translate(-36 17)" onmousedown="handlePan(-1,0)">
                  <use xlink:href="#rim" fill="#404040">
                        <set attributeName="fill" to="#808080" begin="arrowLeft.mouseover" end="arrowLeft.mouseout"/>
                  </use>
                  <path fill="none" stroke="white" stroke-width="1.5" d="M0,-3.0v7 M-2.5,-0.5L0,-3.0L2.5,-0.5"/>
                </g>
        </g>
        <svg viewBox="0 0 15 15" width="100%" height="30px" preserveAspectRatio="xMaxYMin meet">
         <g id="arrow_out" transform="scale(0.3 0.3)">
          <a xlink:href="linux__gpio_8cpp__incl_org.svg" target="_base">
           <rect id="button" ry="5" rx="5" y="6" x="6" height="38" width="38"
                fill="#f2f5e9" fill-opacity="0.5" stroke="#606060" stroke-width="1.0"/>
           <path id="arrow"
             d="M 11.500037,31.436501 C 11.940474,20.09759 22.043105,11.32322 32.158766,21.979434 L 37.068811,17.246167 C 37.068811,17.246167 37.088388,32 37.088388,32 L 22.160133,31.978069 C 22.160133,31.978069 26.997745,27.140456 26.997745,27.140456 C 18.528582,18.264221 13.291696,25.230495 11.500037,31.436501 z"
             style="fill:#404040;"/>
          </a>
         </g>
        </svg>
</svg>
