<?xml version="1.0" encoding="UTF-8" standalone="no"?>
<!DOCTYPE svg PUBLIC "-//W3C//DTD SVG 1.1//EN"
 "http://www.w3.org/Graphics/SVG/1.1/DTD/svg11.dtd">
<!-- Generated by graphviz version 2.38.0 (20140413.2041)
 -->
<!-- Title: FlightTasks::getPositionSetpoint Pages: 1 -->
<!--zoomable 154 -->
<svg id="main" version="1.1" xmlns="http://www.w3.org/2000/svg" xmlns:xlink="http://www.w3.org/1999/xlink" xml:space="preserve" onload="init(evt)">
<style type="text/css"><![CDATA[
.edge:hover path { stroke: red; }
.edge:hover polygon { stroke: red; fill: red; }
]]></style>
<script type="text/javascript"><![CDATA[
var edges = document.getElementsByTagName('g');
if (edges && edges.length) {
  for (var i=0;i<edges.length;i++) {
    if (edges[i].id.substr(0,4)=='edge') {
      edges[i].setAttribute('class','edge');
    }
  }
}
]]></script>
        <defs>
                <circle id="rim" cx="0" cy="0" r="7"/>
                <circle id="rim2" cx="0" cy="0" r="3.5"/>
                <g id="zoomPlus">
                        <use xlink:href="#rim" fill="#404040">
                                <set attributeName="fill" to="#808080" begin="zoomplus.mouseover" end="zoomplus.mouseout"/>
                        </use>
                        <path d="M-4,0h8M0,-4v8" fill="none" stroke="white" stroke-width="1.5" pointer-events="none"/>
                </g>
                <g id="zoomMin">
                        <use xlink:href="#rim" fill="#404040">
                                <set attributeName="fill" to="#808080" begin="zoomminus.mouseover" end="zoomminus.mouseout"/>
                        </use>
                        <path d="M-4,0h8" fill="none" stroke="white" stroke-width="1.5" pointer-events="none"/>
                </g>
                <g id="dirArrow">
                        <path fill="none" stroke="white" stroke-width="1.5" d="M0,-3.0v7 M-2.5,-0.5L0,-3.0L2.5,-0.5"/>
                </g>
               <g id="resetDef">
                       <use xlink:href="#rim2" fill="#404040">
                               <set attributeName="fill" to="#808080" begin="reset.mouseover" end="reset.mouseout"/>
                       </use>
               </g>
        </defs>

<script type="text/javascript">
var viewWidth = 1073;
var viewHeight = 154;
var sectionId = 'dynsection-12';
</script>
<script xlink:href="../../svgpan.js"/>
<svg id="graph" class="graph">
<g id="viewport">
<title>FlightTasks::getPositionSetpoint</title>
<polygon fill="white" stroke="none" points="-4,4 -4,-150 1069,-150 1069,4 -4,4"/>
<!-- Node1 -->
<g id="node1" class="node"><title>Node1</title>
<polygon fill="#bfbfbf" stroke="black" points="0,-61 0,-91 122,-91 122,-61 0,-61"/>
<text text-anchor="start" x="8" y="-79" font-family="Helvetica,sans-Serif" font-size="10.00">FlightTasks::getPosition</text>
<text text-anchor="middle" x="61" y="-68" font-family="Helvetica,sans-Serif" font-size="10.00">Setpoint</text>
</g>
<!-- Node2 -->
<g id="node2" class="node"><title>Node2</title>
<g id="a_node2"><a xlink:href="../../da/dbc/class_flight_task.html#aa57d35ea8258f1d45cbf7c43b16106a7" target="_top" xlink:title="Get the output data. ">
<polygon fill="white" stroke="black" points="158,-88.5 158,-107.5 311,-107.5 311,-88.5 158,-88.5"/>
<text text-anchor="middle" x="234.5" y="-95.5" font-family="Helvetica,sans-Serif" font-size="10.00">FlightTask::getPositionSetpoint</text>
</a>
</g>
</g>
<!-- Node1&#45;&gt;Node2 -->
<g id="edge1" class="edge"><title>Node1&#45;&gt;Node2</title>
<path fill="none" stroke="midnightblue" d="M122.464,-83.7564C131.083,-84.8619 140.075,-86.0155 149.049,-87.1666"/>
<polygon fill="midnightblue" stroke="midnightblue" points="148.787,-90.6617 159.151,-88.4626 149.678,-83.7186 148.787,-90.6617"/>
</g>
<!-- Node5 -->
<g id="node5" class="node"><title>Node5</title>
<g id="a_node5"><a xlink:href="../../dc/d0c/class_flight_tasks.html#a06712d8dac53a150d02c8fbf5db38c49" target="_top" xlink:title="Check if any task is active. ">
<polygon fill="white" stroke="black" points="160.5,-44.5 160.5,-63.5 308.5,-63.5 308.5,-44.5 160.5,-44.5"/>
<text text-anchor="middle" x="234.5" y="-51.5" font-family="Helvetica,sans-Serif" font-size="10.00">FlightTasks::isAnyTaskActive</text>
</a>
</g>
</g>
<!-- Node1&#45;&gt;Node5 -->
<g id="edge4" class="edge"><title>Node1&#45;&gt;Node5</title>
<path fill="none" stroke="midnightblue" d="M122.464,-68.2436C131.459,-67.0898 140.861,-65.8838 150.223,-64.6827"/>
<polygon fill="midnightblue" stroke="midnightblue" points="150.873,-68.1282 160.346,-63.3842 149.982,-61.1851 150.873,-68.1282"/>
</g>
<!-- Node3 -->
<g id="node3" class="node"><title>Node3</title>
<g id="a_node3"><a xlink:href="../../dd/df8/classmatrix_1_1_matrix.html#aa1b34844ff0b1b168a71bfaa5735639a" target="_top" xlink:title="matrix::Matrix::copyTo">
<polygon fill="white" stroke="black" points="363,-126.5 363,-145.5 478,-145.5 478,-126.5 363,-126.5"/>
<text text-anchor="middle" x="420.5" y="-133.5" font-family="Helvetica,sans-Serif" font-size="10.00">matrix::Matrix::copyTo</text>
</a>
</g>
</g>
<!-- Node2&#45;&gt;Node3 -->
<g id="edge2" class="edge"><title>Node2&#45;&gt;Node3</title>
<path fill="none" stroke="midnightblue" d="M281.931,-107.589C306.649,-112.694 337.239,-119.011 363.292,-124.392"/>
<polygon fill="midnightblue" stroke="midnightblue" points="362.902,-127.885 373.403,-126.48 364.317,-121.03 362.902,-127.885"/>
</g>
<!-- Node4 -->
<g id="node4" class="node"><title>Node4</title>
<g id="a_node4"><a xlink:href="../../d6/d10/drv__hrt_8h.html#a1450e339b7c5b8d47656500167a6676d" target="_top" xlink:title="Get absolute time in [us] (does not wrap). ">
<polygon fill="white" stroke="black" points="373.5,-88.5 373.5,-107.5 467.5,-107.5 467.5,-88.5 373.5,-88.5"/>
<text text-anchor="middle" x="420.5" y="-95.5" font-family="Helvetica,sans-Serif" font-size="10.00">hrt_absolute_time</text>
</a>
</g>
</g>
<!-- Node2&#45;&gt;Node4 -->
<g id="edge3" class="edge"><title>Node2&#45;&gt;Node4</title>
<path fill="none" stroke="midnightblue" d="M311.136,-98C328.62,-98 346.919,-98 363.396,-98"/>
<polygon fill="midnightblue" stroke="midnightblue" points="363.396,-101.5 373.396,-98 363.396,-94.5001 363.396,-101.5"/>
</g>
<!-- Node6 -->
<g id="node6" class="node"><title>Node6</title>
<g id="a_node6"><a xlink:href="../../dc/d0c/class_flight_tasks.html#af790ba4505548862724e41d5f25122b6" target="_top" xlink:title="Call this whenever a parameter update notification is received (parameter_update uORB message) ...">
<polygon fill="white" stroke="black" points="347,-39 347,-69 494,-69 494,-39 347,-39"/>
<text text-anchor="start" x="355" y="-57" font-family="Helvetica,sans-Serif" font-size="10.00">FlightTasks::handleParameter</text>
<text text-anchor="middle" x="420.5" y="-46" font-family="Helvetica,sans-Serif" font-size="10.00">Update</text>
</a>
</g>
</g>
<!-- Node5&#45;&gt;Node6 -->
<g id="edge5" class="edge"><title>Node5&#45;&gt;Node6</title>
<path fill="none" stroke="midnightblue" d="M308.75,-47.3762C317.95,-47.2508 327.411,-47.2189 336.744,-47.2804"/>
<polygon fill="midnightblue" stroke="midnightblue" points="336.767,-50.7807 346.802,-47.3838 336.839,-43.7811 336.767,-50.7807"/>
</g>
<!-- Node11 -->
<g id="node11" class="node"><title>Node11</title>
<g id="a_node11"><a xlink:href="../../dc/d0c/class_flight_tasks.html#aecfb5285ba3a8c4a289e74b6c82552d7" target="_top" xlink:title="Call this method to get the description of a task error. ">
<polygon fill="white" stroke="black" points="355.5,-0.5 355.5,-19.5 485.5,-19.5 485.5,-0.5 355.5,-0.5"/>
<text text-anchor="middle" x="420.5" y="-7.5" font-family="Helvetica,sans-Serif" font-size="10.00">FlightTasks::errorToString</text>
</a>
</g>
</g>
<!-- Node5&#45;&gt;Node11 -->
<g id="edge12" class="edge"><title>Node5&#45;&gt;Node11</title>
<path fill="none" stroke="midnightblue" d="M275.425,-44.4527C303.154,-37.8219 340.292,-28.9409 369.918,-21.8565"/>
<polygon fill="midnightblue" stroke="midnightblue" points="370.741,-25.2585 379.653,-19.5287 369.113,-18.4505 370.741,-25.2585"/>
</g>
<!-- Node6&#45;&gt;Node5 -->
<g id="edge6" class="edge"><title>Node6&#45;&gt;Node5</title>
<path fill="none" stroke="midnightblue" d="M346.802,-60.6162C337.613,-60.7453 328.155,-60.781 318.817,-60.7232"/>
<polygon fill="midnightblue" stroke="midnightblue" points="318.784,-57.2228 308.75,-60.6238 318.715,-64.2225 318.784,-57.2228"/>
</g>
<!-- Node7 -->
<g id="node7" class="node"><title>Node7</title>
<g id="a_node7"><a xlink:href="../../da/dbc/class_flight_task.html#aaebc7d92ecf165895988b76b7f1381d7" target="_top" xlink:title="Call this whenever a parameter update notification is received (parameter_update uORB message) ...">
<polygon fill="white" stroke="black" points="530,-39 530,-69 672,-69 672,-39 530,-39"/>
<text text-anchor="start" x="538" y="-57" font-family="Helvetica,sans-Serif" font-size="10.00">FlightTask::handleParameter</text>
<text text-anchor="middle" x="601" y="-46" font-family="Helvetica,sans-Serif" font-size="10.00">Update</text>
</a>
</g>
</g>
<!-- Node6&#45;&gt;Node7 -->
<g id="edge7" class="edge"><title>Node6&#45;&gt;Node7</title>
<path fill="none" stroke="midnightblue" d="M494.103,-54C502.474,-54 511.049,-54 519.517,-54"/>
<polygon fill="midnightblue" stroke="midnightblue" points="519.772,-57.5001 529.772,-54 519.772,-50.5001 519.772,-57.5001"/>
</g>
<!-- Node8 -->
<g id="node8" class="node"><title>Node8</title>
<g id="a_node8"><a xlink:href="../../db/db3/class_module_params.html#acf08d1a67a584f7b6e0feaa9182bede1" target="_top" xlink:title="Call this whenever the module gets a parameter change notification. ">
<polygon fill="white" stroke="black" points="708,-44.5 708,-63.5 859,-63.5 859,-44.5 708,-44.5"/>
<text text-anchor="middle" x="783.5" y="-51.5" font-family="Helvetica,sans-Serif" font-size="10.00">ModuleParams::updateParams</text>
</a>
</g>
</g>
<!-- Node7&#45;&gt;Node8 -->
<g id="edge8" class="edge"><title>Node7&#45;&gt;Node8</title>
<path fill="none" stroke="midnightblue" d="M672.044,-54C680.449,-54 689.1,-54 697.685,-54"/>
<polygon fill="midnightblue" stroke="midnightblue" points="697.715,-57.5001 707.715,-54 697.715,-50.5001 697.715,-57.5001"/>
</g>
<!-- Node8&#45;&gt;Node8 -->
<g id="edge9" class="edge"><title>Node8&#45;&gt;Node8</title>
<path fill="none" stroke="midnightblue" d="M755.449,-63.7571C741.802,-72.5653 751.152,-82 783.5,-82 805.739,-82 817.108,-77.5406 817.608,-71.8913"/>
<polygon fill="midnightblue" stroke="midnightblue" points="820.331,-69.6878 811.551,-63.7571 814.716,-73.8682 820.331,-69.6878"/>
</g>
<!-- Node9 -->
<g id="node9" class="node"><title>Node9</title>
<g id="a_node9"><a xlink:href="../../df/db4/class_list_node.html#a39f4f8a789ee9684a10a4289f964f4dc" target="_top" xlink:title="ListNode::getSibling">
<polygon fill="white" stroke="black" points="928,-63.5 928,-82.5 1032,-82.5 1032,-63.5 928,-63.5"/>
<text text-anchor="middle" x="980" y="-70.5" font-family="Helvetica,sans-Serif" font-size="10.00">ListNode::getSibling</text>
</a>
</g>
</g>
<!-- Node8&#45;&gt;Node9 -->
<g id="edge10" class="edge"><title>Node8&#45;&gt;Node9</title>
<path fill="none" stroke="midnightblue" d="M859.143,-61.2916C878.486,-63.1812 899.093,-65.1942 917.666,-67.0085"/>
<polygon fill="midnightblue" stroke="midnightblue" points="917.461,-70.5051 927.754,-67.994 918.142,-63.5383 917.461,-70.5051"/>
</g>
<!-- Node10 -->
<g id="node10" class="node"><title>Node10</title>
<g id="a_node10"><a xlink:href="../../db/db3/class_module_params.html#a2048201c06a6cc6602ab20a53e7d75cb" target="_top" xlink:title="The implementation for this is generated with the macro DEFINE_PARAMETERS() ">
<polygon fill="white" stroke="black" points="895,-25.5 895,-44.5 1065,-44.5 1065,-25.5 895,-25.5"/>
<text text-anchor="middle" x="980" y="-32.5" font-family="Helvetica,sans-Serif" font-size="10.00">ModuleParams::updateParamsImpl</text>
</a>
</g>
</g>
<!-- Node8&#45;&gt;Node10 -->
<g id="edge11" class="edge"><title>Node8&#45;&gt;Node10</title>
<path fill="none" stroke="midnightblue" d="M859.143,-46.7084C867.535,-45.8886 876.166,-45.0455 884.765,-44.2054"/>
<polygon fill="midnightblue" stroke="midnightblue" points="885.217,-47.6781 894.83,-43.2223 884.537,-40.7112 885.217,-47.6781"/>
</g>
</g>
</svg>
        <g id="navigator" transform="translate(0 0)" fill="#404254">
                <rect fill="#f2f5e9" fill-opacity="0.5" stroke="#606060" stroke-width=".5" x="0" y="0" width="60" height="60"/>
                <use id="zoomplus" xlink:href="#zoomPlus" x="17" y="9" onmousedown="handleZoom(evt,'in')"/>
                <use id="zoomminus" xlink:href="#zoomMin" x="42" y="9" onmousedown="handleZoom(evt,'out')"/>
                <use id="reset" xlink:href="#resetDef" x="30" y="36" onmousedown="handleReset()"/>
                <g id="arrowUp" xlink:href="#dirArrow" transform="translate(30 24)" onmousedown="handlePan(0,-1)">
                  <use xlink:href="#rim" fill="#404040">
                        <set attributeName="fill" to="#808080" begin="arrowUp.mouseover" end="arrowUp.mouseout"/>
                  </use>
                  <path fill="none" stroke="white" stroke-width="1.5" d="M0,-3.0v7 M-2.5,-0.5L0,-3.0L2.5,-0.5"/>
                </g>
                <g id="arrowRight" xlink:href="#dirArrow" transform="rotate(90) translate(36 -43)" onmousedown="handlePan(1,0)">
                  <use xlink:href="#rim" fill="#404040">
                        <set attributeName="fill" to="#808080" begin="arrowRight.mouseover" end="arrowRight.mouseout"/>
                  </use>
                  <path fill="none" stroke="white" stroke-width="1.5" d="M0,-3.0v7 M-2.5,-0.5L0,-3.0L2.5,-0.5"/>
                </g>
                <g id="arrowDown" xlink:href="#dirArrow" transform="rotate(180) translate(-30 -48)" onmousedown="handlePan(0,1)">
                  <use xlink:href="#rim" fill="#404040">
                        <set attributeName="fill" to="#808080" begin="arrowDown.mouseover" end="arrowDown.mouseout"/>
                  </use>
                  <path fill="none" stroke="white" stroke-width="1.5" d="M0,-3.0v7 M-2.5,-0.5L0,-3.0L2.5,-0.5"/>
                </g>
                <g id="arrowLeft" xlink:href="#dirArrow" transform="rotate(270) translate(-36 17)" onmousedown="handlePan(-1,0)">
                  <use xlink:href="#rim" fill="#404040">
                        <set attributeName="fill" to="#808080" begin="arrowLeft.mouseover" end="arrowLeft.mouseout"/>
                  </use>
                  <path fill="none" stroke="white" stroke-width="1.5" d="M0,-3.0v7 M-2.5,-0.5L0,-3.0L2.5,-0.5"/>
                </g>
        </g>
        <svg viewBox="0 0 15 15" width="100%" height="30px" preserveAspectRatio="xMaxYMin meet">
         <g id="arrow_out" transform="scale(0.3 0.3)">
          <a xlink:href="class_flight_tasks_a5bcf5880e6b54f08170826d4814d37fc_cgraph_org.svg" target="_base">
           <rect id="button" ry="5" rx="5" y="6" x="6" height="38" width="38"
                fill="#f2f5e9" fill-opacity="0.5" stroke="#606060" stroke-width="1.0"/>
           <path id="arrow"
             d="M 11.500037,31.436501 C 11.940474,20.09759 22.043105,11.32322 32.158766,21.979434 L 37.068811,17.246167 C 37.068811,17.246167 37.088388,32 37.088388,32 L 22.160133,31.978069 C 22.160133,31.978069 26.997745,27.140456 26.997745,27.140456 C 18.528582,18.264221 13.291696,25.230495 11.500037,31.436501 z"
             style="fill:#404040;"/>
          </a>
         </g>
        </svg>
</svg>
