<?xml version="1.0" encoding="UTF-8" standalone="no"?>
<!DOCTYPE svg PUBLIC "-//W3C//DTD SVG 1.1//EN"
 "http://www.w3.org/Graphics/SVG/1.1/DTD/svg11.dtd">
<!-- Generated by graphviz version 2.38.0 (20140413.2041)
 -->
<!-- Title: px4::SubscriberUORBCallback&lt; T &gt; Pages: 1 -->
<svg width="283pt" height="546pt"
 viewBox="0.00 0.00 282.50 546.00" xmlns="http://www.w3.org/2000/svg" xmlns:xlink="http://www.w3.org/1999/xlink">
<g id="graph0" class="graph" transform="scale(1 1) rotate(0) translate(4 542)">
<title>px4::SubscriberUORBCallback&lt; T &gt;</title>
<polygon fill="white" stroke="none" points="-4,4 -4,-542 278.5,-542 278.5,4 -4,4"/>
<!-- Node1 -->
<g id="node1" class="node"><title>Node1</title>
<polygon fill="#bfbfbf" stroke="black" points="38.5,-0.5 38.5,-79.5 214.5,-79.5 214.5,-0.5 38.5,-0.5"/>
<text text-anchor="middle" x="126.5" y="-67.5" font-family="Helvetica,sans-Serif" font-size="10.00">px4::SubscriberUORBCallback&lt; T &gt;</text>
<polyline fill="none" stroke="black" points="38.5,-60.5 214.5,-60.5 "/>
<text text-anchor="start" x="46.5" y="-48.5" font-family="Helvetica,sans-Serif" font-size="10.00"># _cbf</text>
<polyline fill="none" stroke="black" points="38.5,-41.5 214.5,-41.5 "/>
<text text-anchor="start" x="46.5" y="-29.5" font-family="Helvetica,sans-Serif" font-size="10.00">+ SubscriberUORBCallback()</text>
<text text-anchor="start" x="46.5" y="-18.5" font-family="Helvetica,sans-Serif" font-size="10.00">+ ~SubscriberUORBCallback()</text>
<text text-anchor="start" x="46.5" y="-7.5" font-family="Helvetica,sans-Serif" font-size="10.00">+ update()</text>
</g>
<!-- Node2 -->
<g id="node2" class="node"><title>Node2</title>
<g id="a_node2"><a xlink:href="../../dd/def/classpx4_1_1_subscriber_u_o_r_b.html" target="_top" xlink:title="Subscriber class that is templated with the uorb subscription message type. ">
<polygon fill="white" stroke="black" points="57.5,-116.5 57.5,-228.5 195.5,-228.5 195.5,-116.5 57.5,-116.5"/>
<text text-anchor="middle" x="126.5" y="-216.5" font-family="Helvetica,sans-Serif" font-size="10.00">px4::SubscriberUORB&lt; T &gt;</text>
<polyline fill="none" stroke="black" points="57.5,-209.5 195.5,-209.5 "/>
<text text-anchor="start" x="65.5" y="-197.5" font-family="Helvetica,sans-Serif" font-size="10.00"># _uorb_sub</text>
<polyline fill="none" stroke="black" points="57.5,-190.5 195.5,-190.5 "/>
<text text-anchor="start" x="65.5" y="-178.5" font-family="Helvetica,sans-Serif" font-size="10.00">+ SubscriberUORB()</text>
<text text-anchor="start" x="65.5" y="-167.5" font-family="Helvetica,sans-Serif" font-size="10.00">+ ~SubscriberUORB()</text>
<text text-anchor="start" x="65.5" y="-156.5" font-family="Helvetica,sans-Serif" font-size="10.00">+ update()</text>
<text text-anchor="start" x="65.5" y="-145.5" font-family="Helvetica,sans-Serif" font-size="10.00">+ getUORBHandle()</text>
<text text-anchor="start" x="65.5" y="-134.5" font-family="Helvetica,sans-Serif" font-size="10.00"># getUORBData()</text>
<text text-anchor="start" x="65.5" y="-123.5" font-family="Helvetica,sans-Serif" font-size="10.00"># get_void_ptr()</text>
</a>
</g>
</g>
<!-- Node2&#45;&gt;Node1 -->
<g id="edge1" class="edge"><title>Node2&#45;&gt;Node1</title>
<path fill="none" stroke="midnightblue" d="M126.5,-106.056C126.5,-97.0806 126.5,-88.1097 126.5,-79.823"/>
<polygon fill="none" stroke="midnightblue" points="123,-106.156 126.5,-116.156 130,-106.156 123,-106.156"/>
</g>
<!-- Node3 -->
<g id="node3" class="node"><title>Node3</title>
<g id="a_node3"><a xlink:href="../../d6/d9e/classpx4_1_1_subscriber.html" target="_top" xlink:title="Subscriber class which is used by nodehandle. ">
<polygon fill="white" stroke="black" points="4,-271 4,-361 113,-361 113,-271 4,-271"/>
<text text-anchor="middle" x="58.5" y="-349" font-family="Helvetica,sans-Serif" font-size="10.00">px4::Subscriber&lt; T &gt;</text>
<polyline fill="none" stroke="black" points="4,-342 113,-342 "/>
<text text-anchor="start" x="12" y="-330" font-family="Helvetica,sans-Serif" font-size="10.00">+ data</text>
<text text-anchor="start" x="12" y="-319" font-family="Helvetica,sans-Serif" font-size="10.00"># _msg_current</text>
<polyline fill="none" stroke="black" points="4,-312 113,-312 "/>
<text text-anchor="start" x="12" y="-300" font-family="Helvetica,sans-Serif" font-size="10.00">+ Subscriber()</text>
<text text-anchor="start" x="12" y="-289" font-family="Helvetica,sans-Serif" font-size="10.00">+ ~Subscriber()</text>
<text text-anchor="start" x="12" y="-278" font-family="Helvetica,sans-Serif" font-size="10.00">+ get()</text>
</a>
</g>
</g>
<!-- Node3&#45;&gt;Node2 -->
<g id="edge2" class="edge"><title>Node3&#45;&gt;Node2</title>
<path fill="none" stroke="midnightblue" d="M84.2651,-261.386C89.4059,-250.688 94.814,-239.435 99.9797,-228.686"/>
<polygon fill="none" stroke="midnightblue" points="81.0059,-260.087 79.8291,-270.617 87.3152,-263.12 81.0059,-260.087"/>
</g>
<!-- Node4 -->
<g id="node4" class="node"><title>Node4</title>
<g id="a_node4"><a xlink:href="../../df/daa/classpx4_1_1_subscriber_base.html" target="_top" xlink:title="Untemplated subscriber base class. ">
<polygon fill="white" stroke="black" points="0,-436.5 0,-504.5 107,-504.5 107,-436.5 0,-436.5"/>
<text text-anchor="middle" x="53.5" y="-492.5" font-family="Helvetica,sans-Serif" font-size="10.00">px4::SubscriberBase</text>
<polyline fill="none" stroke="black" points="0,-485.5 107,-485.5 "/>
<text text-anchor="middle" x="53.5" y="-473.5" font-family="Helvetica,sans-Serif" font-size="10.00"> </text>
<polyline fill="none" stroke="black" points="0,-466.5 107,-466.5 "/>
<text text-anchor="start" x="8" y="-454.5" font-family="Helvetica,sans-Serif" font-size="10.00">+ SubscriberBase()</text>
<text text-anchor="start" x="8" y="-443.5" font-family="Helvetica,sans-Serif" font-size="10.00">+ ~SubscriberBase()</text>
</a>
</g>
</g>
<!-- Node4&#45;&gt;Node3 -->
<g id="edge3" class="edge"><title>Node4&#45;&gt;Node3</title>
<path fill="none" stroke="midnightblue" d="M54.9215,-426.144C55.5898,-405.76 56.3854,-381.495 57.0565,-361.026"/>
<polygon fill="none" stroke="midnightblue" points="51.4146,-426.3 54.5849,-436.41 58.4108,-426.53 51.4146,-426.3"/>
</g>
<!-- Node5 -->
<g id="node5" class="node"><title>Node5</title>
<g id="a_node5"><a xlink:href="../../d3/d48/classpx4_1_1_subscriber_node.html" target="_top" xlink:title="Because we maintain a list of subscribers we need a node class. ">
<polygon fill="white" stroke="black" points="140.5,-265.5 140.5,-366.5 248.5,-366.5 248.5,-265.5 140.5,-265.5"/>
<text text-anchor="middle" x="194.5" y="-354.5" font-family="Helvetica,sans-Serif" font-size="10.00">px4::SubscriberNode</text>
<polyline fill="none" stroke="black" points="140.5,-347.5 248.5,-347.5 "/>
<text text-anchor="start" x="148.5" y="-335.5" font-family="Helvetica,sans-Serif" font-size="10.00"># _interval</text>
<polyline fill="none" stroke="black" points="140.5,-328.5 248.5,-328.5 "/>
<text text-anchor="start" x="148.5" y="-316.5" font-family="Helvetica,sans-Serif" font-size="10.00">+ SubscriberNode()</text>
<text text-anchor="start" x="148.5" y="-305.5" font-family="Helvetica,sans-Serif" font-size="10.00">+ ~SubscriberNode()</text>
<text text-anchor="start" x="148.5" y="-294.5" font-family="Helvetica,sans-Serif" font-size="10.00">+ update()</text>
<text text-anchor="start" x="148.5" y="-283.5" font-family="Helvetica,sans-Serif" font-size="10.00">+ getUORBHandle()</text>
<text text-anchor="start" x="148.5" y="-272.5" font-family="Helvetica,sans-Serif" font-size="10.00">+ get_interval()</text>
</a>
</g>
</g>
<!-- Node5&#45;&gt;Node2 -->
<g id="edge4" class="edge"><title>Node5&#45;&gt;Node2</title>
<path fill="none" stroke="midnightblue" d="M166.08,-255.861C161.759,-246.869 157.314,-237.621 153.036,-228.717"/>
<polygon fill="none" stroke="midnightblue" points="163.04,-257.615 170.526,-265.112 169.349,-254.583 163.04,-257.615"/>
</g>
<!-- Node6 -->
<g id="node6" class="node"><title>Node6</title>
<g id="a_node6"><a xlink:href="../../df/db4/class_list_node.html" target="_top" xlink:title="{ListNode\&lt; SubscriberNode * \&gt;\n|# _sibling\l|+ ListNode()\l+ ListNode()\l+ ListNode()\l+ ~ListNode()\l+ operator=()\l+ operator=()\l+ setSibling()\l+ getSibling()\l}">
<polygon fill="white" stroke="black" points="124.5,-403.5 124.5,-537.5 274.5,-537.5 274.5,-403.5 124.5,-403.5"/>
<text text-anchor="middle" x="199.5" y="-525.5" font-family="Helvetica,sans-Serif" font-size="10.00">ListNode&lt; SubscriberNode * &gt;</text>
<polyline fill="none" stroke="black" points="124.5,-518.5 274.5,-518.5 "/>
<text text-anchor="start" x="132.5" y="-506.5" font-family="Helvetica,sans-Serif" font-size="10.00"># _sibling</text>
<polyline fill="none" stroke="black" points="124.5,-499.5 274.5,-499.5 "/>
<text text-anchor="start" x="132.5" y="-487.5" font-family="Helvetica,sans-Serif" font-size="10.00">+ ListNode()</text>
<text text-anchor="start" x="132.5" y="-476.5" font-family="Helvetica,sans-Serif" font-size="10.00">+ ListNode()</text>
<text text-anchor="start" x="132.5" y="-465.5" font-family="Helvetica,sans-Serif" font-size="10.00">+ ListNode()</text>
<text text-anchor="start" x="132.5" y="-454.5" font-family="Helvetica,sans-Serif" font-size="10.00">+ ~ListNode()</text>
<text text-anchor="start" x="132.5" y="-443.5" font-family="Helvetica,sans-Serif" font-size="10.00">+ operator=()</text>
<text text-anchor="start" x="132.5" y="-432.5" font-family="Helvetica,sans-Serif" font-size="10.00">+ operator=()</text>
<text text-anchor="start" x="132.5" y="-421.5" font-family="Helvetica,sans-Serif" font-size="10.00">+ setSibling()</text>
<text text-anchor="start" x="132.5" y="-410.5" font-family="Helvetica,sans-Serif" font-size="10.00">+ getSibling()</text>
</a>
</g>
</g>
<!-- Node6&#45;&gt;Node5 -->
<g id="edge5" class="edge"><title>Node6&#45;&gt;Node5</title>
<path fill="none" stroke="midnightblue" d="M197.001,-393.274C196.703,-384.194 196.405,-375.113 196.124,-366.547"/>
<polygon fill="none" stroke="midnightblue" points="193.51,-393.618 197.336,-403.498 200.506,-393.389 193.51,-393.618"/>
</g>
</g>
</svg>
