<?xml version="1.0" encoding="UTF-8" standalone="no"?>
<!DOCTYPE svg PUBLIC "-//W3C//DTD SVG 1.1//EN"
 "http://www.w3.org/Graphics/SVG/1.1/DTD/svg11.dtd">
<!-- Generated by graphviz version 2.38.0 (20140413.2041)
 -->
<!-- Title: UavcanEsc::get_node Pages: 1 -->
<svg width="421pt" height="85pt"
 viewBox="0.00 0.00 421.00 85.00" xmlns="http://www.w3.org/2000/svg" xmlns:xlink="http://www.w3.org/1999/xlink">
<g id="graph0" class="graph" transform="scale(1 1) rotate(0) translate(4 81)">
<title>UavcanEsc::get_node</title>
<polygon fill="white" stroke="none" points="-4,4 -4,-81 417,-81 417,4 -4,4"/>
<!-- Node1 -->
<g id="node1" class="node"><title>Node1</title>
<polygon fill="#bfbfbf" stroke="black" points="0,-19.5 0,-38.5 113,-38.5 113,-19.5 0,-19.5"/>
<text text-anchor="middle" x="56.5" y="-26.5" font-family="Helvetica,sans-Serif" font-size="10.00">UavcanEsc::get_node</text>
</g>
<!-- Node2 -->
<g id="node2" class="node"><title>Node2</title>
<g id="a_node2"><a xlink:href="../../d9/dc3/class_uavcan_esc.html#a03c656d2694ba2744b2317c9f57677fe" target="_top" xlink:title="UavcanEsc::print_info">
<polygon fill="white" stroke="black" points="149,-38.5 149,-57.5 262,-57.5 262,-38.5 149,-38.5"/>
<text text-anchor="middle" x="205.5" y="-45.5" font-family="Helvetica,sans-Serif" font-size="10.00">UavcanEsc::print_info</text>
</a>
</g>
</g>
<!-- Node1&#45;&gt;Node2 -->
<g id="edge1" class="edge"><title>Node1&#45;&gt;Node2</title>
<path fill="none" stroke="midnightblue" d="M113.074,-36.1831C121.489,-37.2707 130.238,-38.4015 138.842,-39.5136"/>
<polygon fill="midnightblue" stroke="midnightblue" points="138.481,-42.9959 148.847,-40.8068 139.378,-36.0537 138.481,-42.9959"/>
</g>
<!-- Node5 -->
<g id="node5" class="node"><title>Node5</title>
<g id="a_node5"><a xlink:href="../../d9/dc3/class_uavcan_esc.html#a16106186b092453a16b795a0ccbbcdbd" target="_top" xlink:title="UavcanEsc::teardown">
<polygon fill="white" stroke="black" points="149,-0.5 149,-19.5 262,-19.5 262,-0.5 149,-0.5"/>
<text text-anchor="middle" x="205.5" y="-7.5" font-family="Helvetica,sans-Serif" font-size="10.00">UavcanEsc::teardown</text>
</a>
</g>
</g>
<!-- Node1&#45;&gt;Node5 -->
<g id="edge4" class="edge"><title>Node1&#45;&gt;Node5</title>
<path fill="none" stroke="midnightblue" d="M113.074,-21.8169C121.489,-20.7293 130.238,-19.5985 138.842,-18.4864"/>
<polygon fill="midnightblue" stroke="midnightblue" points="139.378,-21.9463 148.847,-17.1932 138.481,-15.0041 139.378,-21.9463"/>
</g>
<!-- Node3 -->
<g id="node3" class="node"><title>Node3</title>
<g id="a_node3"><a xlink:href="../../d6/dfb/stubs__posix_8c.html#a12809c44718c21544ceb280dc1a53573" target="_top" xlink:title="pthread_mutex_lock">
<polygon fill="white" stroke="black" points="303.5,-57.5 303.5,-76.5 407.5,-76.5 407.5,-57.5 303.5,-57.5"/>
<text text-anchor="middle" x="355.5" y="-64.5" font-family="Helvetica,sans-Serif" font-size="10.00">pthread_mutex_lock</text>
</a>
</g>
</g>
<!-- Node2&#45;&gt;Node3 -->
<g id="edge2" class="edge"><title>Node2&#45;&gt;Node3</title>
<path fill="none" stroke="midnightblue" d="M262.031,-55.129C272.12,-56.4241 282.698,-57.7821 292.948,-59.098"/>
<polygon fill="midnightblue" stroke="midnightblue" points="292.694,-62.5941 303.058,-60.396 293.585,-55.651 292.694,-62.5941"/>
</g>
<!-- Node4 -->
<g id="node4" class="node"><title>Node4</title>
<g id="a_node4"><a xlink:href="../../d6/dfb/stubs__posix_8c.html#a96184290ffb60e04c53a52869cf960a2" target="_top" xlink:title="pthread_mutex_unlock">
<polygon fill="white" stroke="black" points="298,-19.5 298,-38.5 413,-38.5 413,-19.5 298,-19.5"/>
<text text-anchor="middle" x="355.5" y="-26.5" font-family="Helvetica,sans-Serif" font-size="10.00">pthread_mutex_unlock</text>
</a>
</g>
</g>
<!-- Node2&#45;&gt;Node4 -->
<g id="edge3" class="edge"><title>Node2&#45;&gt;Node4</title>
<path fill="none" stroke="midnightblue" d="M262.031,-40.871C270.402,-39.7963 279.111,-38.6784 287.689,-37.5771"/>
<polygon fill="midnightblue" stroke="midnightblue" points="288.198,-41.0405 297.671,-36.2956 287.307,-34.0975 288.198,-41.0405"/>
</g>
</g>
</svg>
