<?xml version="1.0" encoding="UTF-8" standalone="no"?>
<!DOCTYPE svg PUBLIC "-//W3C//DTD SVG 1.1//EN"
 "http://www.w3.org/Graphics/SVG/1.1/DTD/svg11.dtd">
<!-- Generated by graphviz version 2.38.0 (20140413.2041)
 -->
<!-- Title: src/modules/land_detector/MulticopterLandDetector.cpp Pages: 1 -->
<!--zoomable 397 -->
<svg id="main" version="1.1" xmlns="http://www.w3.org/2000/svg" xmlns:xlink="http://www.w3.org/1999/xlink" xml:space="preserve" onload="init(evt)">
<style type="text/css"><![CDATA[
.edge:hover path { stroke: red; }
.edge:hover polygon { stroke: red; fill: red; }
]]></style>
<script type="text/javascript"><![CDATA[
var edges = document.getElementsByTagName('g');
if (edges && edges.length) {
  for (var i=0;i<edges.length;i++) {
    if (edges[i].id.substr(0,4)=='edge') {
      edges[i].setAttribute('class','edge');
    }
  }
}
]]></script>
        <defs>
                <circle id="rim" cx="0" cy="0" r="7"/>
                <circle id="rim2" cx="0" cy="0" r="3.5"/>
                <g id="zoomPlus">
                        <use xlink:href="#rim" fill="#404040">
                                <set attributeName="fill" to="#808080" begin="zoomplus.mouseover" end="zoomplus.mouseout"/>
                        </use>
                        <path d="M-4,0h8M0,-4v8" fill="none" stroke="white" stroke-width="1.5" pointer-events="none"/>
                </g>
                <g id="zoomMin">
                        <use xlink:href="#rim" fill="#404040">
                                <set attributeName="fill" to="#808080" begin="zoomminus.mouseover" end="zoomminus.mouseout"/>
                        </use>
                        <path d="M-4,0h8" fill="none" stroke="white" stroke-width="1.5" pointer-events="none"/>
                </g>
                <g id="dirArrow">
                        <path fill="none" stroke="white" stroke-width="1.5" d="M0,-3.0v7 M-2.5,-0.5L0,-3.0L2.5,-0.5"/>
                </g>
               <g id="resetDef">
                       <use xlink:href="#rim2" fill="#404040">
                               <set attributeName="fill" to="#808080" begin="reset.mouseover" end="reset.mouseout"/>
                       </use>
               </g>
        </defs>

<script type="text/javascript">
var viewWidth = 1776;
var viewHeight = 397;
var sectionId = 'dynsection-0';
</script>
<script xlink:href="../../svgpan.js"/>
<svg id="graph" class="graph">
<g id="viewport">
<title>src/modules/land_detector/MulticopterLandDetector.cpp</title>
<polygon fill="white" stroke="none" points="-4,4 -4,-393 1772,-393 1772,4 -4,4"/>
<!-- Node1 -->
<g id="node1" class="node"><title>Node1</title>
<polygon fill="#bfbfbf" stroke="black" points="406,-358.5 406,-388.5 551,-388.5 551,-358.5 406,-358.5"/>
<text text-anchor="start" x="414" y="-376.5" font-family="Helvetica,sans-Serif" font-size="10.00">src/modules/land_detector</text>
<text text-anchor="middle" x="478.5" y="-365.5" font-family="Helvetica,sans-Serif" font-size="10.00">/MulticopterLandDetector.cpp</text>
</g>
<!-- Node2 -->
<g id="node2" class="node"><title>Node2</title>
<polygon fill="white" stroke="#bfbfbf" points="370.5,-302.5 370.5,-321.5 414.5,-321.5 414.5,-302.5 370.5,-302.5"/>
<text text-anchor="middle" x="392.5" y="-309.5" font-family="Helvetica,sans-Serif" font-size="10.00">cmath</text>
</g>
<!-- Node1&#45;&gt;Node2 -->
<g id="edge1" class="edge"><title>Node1&#45;&gt;Node2</title>
<path fill="none" stroke="midnightblue" d="M458.119,-358.399C444.592,-349.04 426.889,-336.792 413.28,-327.377"/>
<polygon fill="midnightblue" stroke="midnightblue" points="415.229,-324.469 405.014,-321.658 411.246,-330.226 415.229,-324.469"/>
</g>
<!-- Node3 -->
<g id="node3" class="node"><title>Node3</title>
<polygon fill="white" stroke="#bfbfbf" points="433,-302.5 433,-321.5 524,-321.5 524,-302.5 433,-302.5"/>
<text text-anchor="middle" x="478.5" y="-309.5" font-family="Helvetica,sans-Serif" font-size="10.00">mathlib/mathlib.h</text>
</g>
<!-- Node1&#45;&gt;Node3 -->
<g id="edge2" class="edge"><title>Node1&#45;&gt;Node3</title>
<path fill="none" stroke="midnightblue" d="M478.5,-358.399C478.5,-350.466 478.5,-340.458 478.5,-331.858"/>
<polygon fill="midnightblue" stroke="midnightblue" points="482,-331.658 478.5,-321.658 475,-331.658 482,-331.658"/>
</g>
<!-- Node4 -->
<g id="node4" class="node"><title>Node4</title>
<g id="a_node4"><a xlink:href="../../d9/d62/_multicopter_land_detector_8h.html" target="_top" xlink:title="Land detection implementation for multicopters. ">
<polygon fill="white" stroke="black" points="542,-302.5 542,-321.5 673,-321.5 673,-302.5 542,-302.5"/>
<text text-anchor="middle" x="607.5" y="-309.5" font-family="Helvetica,sans-Serif" font-size="10.00">MulticopterLandDetector.h</text>
</a>
</g>
</g>
<!-- Node1&#45;&gt;Node4 -->
<g id="edge3" class="edge"><title>Node1&#45;&gt;Node4</title>
<path fill="none" stroke="midnightblue" d="M509.071,-358.399C530.425,-348.55 558.715,-335.501 579.485,-325.922"/>
<polygon fill="midnightblue" stroke="midnightblue" points="581.115,-329.024 588.729,-321.658 578.183,-322.668 581.115,-329.024"/>
</g>
<!-- Node5 -->
<g id="node5" class="node"><title>Node5</title>
<g id="a_node5"><a xlink:href="../../d7/d37/_land_detector_8h.html" target="_top" xlink:title="Land detector interface for multicopter, fixedwing and VTOL implementations. ">
<polygon fill="white" stroke="black" points="1068,-241 1068,-260 1151,-260 1151,-241 1068,-241"/>
<text text-anchor="middle" x="1109.5" y="-248" font-family="Helvetica,sans-Serif" font-size="10.00">LandDetector.h</text>
</a>
</g>
</g>
<!-- Node4&#45;&gt;Node5 -->
<g id="edge4" class="edge"><title>Node4&#45;&gt;Node5</title>
<path fill="none" stroke="midnightblue" d="M673.128,-303.221C774.21,-291.241 965.918,-268.518 1057.83,-257.624"/>
<polygon fill="midnightblue" stroke="midnightblue" points="1058.48,-261.072 1068,-256.419 1057.66,-254.12 1058.48,-261.072"/>
</g>
<!-- Node27 -->
<g id="node27" class="node"><title>Node27</title>
<g id="a_node27"><a xlink:href="../../d5/d33/param_8h.html" target="_top" xlink:title="Global flash based parameter store. ">
<polygon fill="white" stroke="black" points="1147.5,-112.5 1147.5,-131.5 1251.5,-131.5 1251.5,-112.5 1147.5,-112.5"/>
<text text-anchor="middle" x="1199.5" y="-119.5" font-family="Helvetica,sans-Serif" font-size="10.00">parameters/param.h</text>
</a>
</g>
</g>
<!-- Node4&#45;&gt;Node27 -->
<g id="edge46" class="edge"><title>Node4&#45;&gt;Node27</title>
<path fill="none" stroke="midnightblue" d="M673.022,-308.317C798.654,-302.735 1068.98,-288.487 1159.5,-266 1232.73,-247.807 1273.99,-262.011 1315.5,-199 1323.08,-187.495 1323.28,-179.368 1315.5,-168 1306.84,-155.349 1272.12,-142.892 1242.9,-134.303"/>
<polygon fill="midnightblue" stroke="midnightblue" points="1243.82,-130.927 1233.24,-131.544 1241.9,-137.658 1243.82,-130.927"/>
</g>
<!-- Node32 -->
<g id="node32" class="node"><title>Node32</title>
<g id="a_node32"><a xlink:href="../../d7/d34/vehicle__local__position_8h.html" target="_top" xlink:title="uORB/topics/vehicle\l_local_position.h">
<polygon fill="white" stroke="black" points="468,-168.5 468,-198.5 575,-198.5 575,-168.5 468,-168.5"/>
<text text-anchor="start" x="476" y="-186.5" font-family="Helvetica,sans-Serif" font-size="10.00">uORB/topics/vehicle</text>
<text text-anchor="middle" x="521.5" y="-175.5" font-family="Helvetica,sans-Serif" font-size="10.00">_local_position.h</text>
</a>
</g>
</g>
<!-- Node4&#45;&gt;Node32 -->
<g id="edge47" class="edge"><title>Node4&#45;&gt;Node32</title>
<path fill="none" stroke="midnightblue" d="M614.074,-302.363C624.494,-287.535 642.277,-256.737 628.5,-235 618.433,-219.117 601.883,-208.135 584.773,-200.581"/>
<polygon fill="midnightblue" stroke="midnightblue" points="585.831,-197.233 575.248,-196.727 583.206,-203.722 585.831,-197.233"/>
</g>
<!-- Node33 -->
<g id="node33" class="node"><title>Node33</title>
<g id="a_node33"><a xlink:href="../../d2/def/vehicle__local__position__setpoint_8h.html" target="_top" xlink:title="uORB/topics/vehicle\l_local_position_setpoint.h">
<polygon fill="white" stroke="black" points="593,-168.5 593,-198.5 722,-198.5 722,-168.5 593,-168.5"/>
<text text-anchor="start" x="601" y="-186.5" font-family="Helvetica,sans-Serif" font-size="10.00">uORB/topics/vehicle</text>
<text text-anchor="middle" x="657.5" y="-175.5" font-family="Helvetica,sans-Serif" font-size="10.00">_local_position_setpoint.h</text>
</a>
</g>
</g>
<!-- Node4&#45;&gt;Node33 -->
<g id="edge49" class="edge"><title>Node4&#45;&gt;Node33</title>
<path fill="none" stroke="midnightblue" d="M624.698,-302.386C637.751,-294.794 654.734,-282.389 662.5,-266 670.966,-248.136 668.724,-225.55 664.929,-208.687"/>
<polygon fill="midnightblue" stroke="midnightblue" points="668.198,-207.347 662.308,-198.54 661.42,-209.098 668.198,-207.347"/>
</g>
<!-- Node34 -->
<g id="node34" class="node"><title>Node34</title>
<g id="a_node34"><a xlink:href="../../d8/d3a/vehicle__attitude_8h.html" target="_top" xlink:title="uORB/topics/vehicle\l_attitude.h">
<polygon fill="white" stroke="black" points="715,-235.5 715,-265.5 822,-265.5 822,-235.5 715,-235.5"/>
<text text-anchor="start" x="723" y="-253.5" font-family="Helvetica,sans-Serif" font-size="10.00">uORB/topics/vehicle</text>
<text text-anchor="middle" x="768.5" y="-242.5" font-family="Helvetica,sans-Serif" font-size="10.00">_attitude.h</text>
</a>
</g>
</g>
<!-- Node4&#45;&gt;Node34 -->
<g id="edge51" class="edge"><title>Node4&#45;&gt;Node34</title>
<path fill="none" stroke="midnightblue" d="M630.567,-302.475C654.105,-293.776 691.311,-280.026 721.152,-268.998"/>
<polygon fill="midnightblue" stroke="midnightblue" points="722.389,-272.273 730.555,-265.523 719.962,-265.707 722.389,-272.273"/>
</g>
<!-- Node35 -->
<g id="node35" class="node"><title>Node35</title>
<g id="a_node35"><a xlink:href="../../dc/d46/actuator__controls_8h.html" target="_top" xlink:title="uORB/topics/actuator\l_controls.h">
<polygon fill="white" stroke="black" points="0,-235.5 0,-265.5 111,-265.5 111,-235.5 0,-235.5"/>
<text text-anchor="start" x="8" y="-253.5" font-family="Helvetica,sans-Serif" font-size="10.00">uORB/topics/actuator</text>
<text text-anchor="middle" x="55.5" y="-242.5" font-family="Helvetica,sans-Serif" font-size="10.00">_controls.h</text>
</a>
</g>
</g>
<!-- Node4&#45;&gt;Node35 -->
<g id="edge53" class="edge"><title>Node4&#45;&gt;Node35</title>
<path fill="none" stroke="midnightblue" d="M541.663,-302.977C538.567,-302.638 535.5,-302.311 532.5,-302 352.45,-283.355 303.264,-294.03 121.166,-266.137"/>
<polygon fill="midnightblue" stroke="midnightblue" points="121.68,-262.675 111.262,-264.602 120.608,-269.592 121.68,-262.675"/>
</g>
<!-- Node36 -->
<g id="node36" class="node"><title>Node36</title>
<g id="a_node36"><a xlink:href="../../d5/dc1/battery__status_8h.html" target="_top" xlink:title="uORB/topics/battery\l_status.h">
<polygon fill="white" stroke="black" points="128.5,-235.5 128.5,-265.5 234.5,-265.5 234.5,-235.5 128.5,-235.5"/>
<text text-anchor="start" x="136.5" y="-253.5" font-family="Helvetica,sans-Serif" font-size="10.00">uORB/topics/battery</text>
<text text-anchor="middle" x="181.5" y="-242.5" font-family="Helvetica,sans-Serif" font-size="10.00">_status.h</text>
</a>
</g>
</g>
<!-- Node4&#45;&gt;Node36 -->
<g id="edge55" class="edge"><title>Node4&#45;&gt;Node36</title>
<path fill="none" stroke="midnightblue" d="M541.971,-303.083C450.197,-291.97 290.224,-272.505 244.536,-265.864"/>
<polygon fill="midnightblue" stroke="midnightblue" points="244.944,-262.385 234.523,-264.293 243.859,-269.301 244.944,-262.385"/>
</g>
<!-- Node37 -->
<g id="node37" class="node"><title>Node37</title>
<g id="a_node37"><a xlink:href="../../de/d76/parameter__update_8h.html" target="_top" xlink:title="uORB/topics/parameter\l_update.h">
<polygon fill="white" stroke="black" points="253,-235.5 253,-265.5 372,-265.5 372,-235.5 253,-235.5"/>
<text text-anchor="start" x="261" y="-253.5" font-family="Helvetica,sans-Serif" font-size="10.00">uORB/topics/parameter</text>
<text text-anchor="middle" x="312.5" y="-242.5" font-family="Helvetica,sans-Serif" font-size="10.00">_update.h</text>
</a>
</g>
</g>
<!-- Node4&#45;&gt;Node37 -->
<g id="edge57" class="edge"><title>Node4&#45;&gt;Node37</title>
<path fill="none" stroke="midnightblue" d="M563.521,-302.476C519.908,-293.98 450.903,-280.421 382.308,-266.358"/>
<polygon fill="midnightblue" stroke="midnightblue" points="382.694,-262.864 372.194,-264.28 381.285,-269.721 382.694,-262.864"/>
</g>
<!-- Node38 -->
<g id="node38" class="node"><title>Node38</title>
<g id="a_node38"><a xlink:href="../../de/d05/sensor__bias_8h.html" target="_top" xlink:title="uORB/topics/sensor\l_bias.h">
<polygon fill="white" stroke="black" points="390,-235.5 390,-265.5 495,-265.5 495,-235.5 390,-235.5"/>
<text text-anchor="start" x="398" y="-253.5" font-family="Helvetica,sans-Serif" font-size="10.00">uORB/topics/sensor</text>
<text text-anchor="middle" x="442.5" y="-242.5" font-family="Helvetica,sans-Serif" font-size="10.00">_bias.h</text>
</a>
</g>
</g>
<!-- Node4&#45;&gt;Node38 -->
<g id="edge59" class="edge"><title>Node4&#45;&gt;Node38</title>
<path fill="none" stroke="midnightblue" d="M583.86,-302.475C559.737,-293.776 521.607,-280.026 491.024,-268.998"/>
<polygon fill="midnightblue" stroke="midnightblue" points="491.982,-265.623 481.387,-265.523 489.607,-272.208 491.982,-265.623"/>
</g>
<!-- Node39 -->
<g id="node39" class="node"><title>Node39</title>
<g id="a_node39"><a xlink:href="../../d5/d30/vehicle__control__mode_8h.html" target="_top" xlink:title="uORB/topics/vehicle\l_control_mode.h">
<polygon fill="white" stroke="black" points="513,-235.5 513,-265.5 620,-265.5 620,-235.5 513,-235.5"/>
<text text-anchor="start" x="521" y="-253.5" font-family="Helvetica,sans-Serif" font-size="10.00">uORB/topics/vehicle</text>
<text text-anchor="middle" x="566.5" y="-242.5" font-family="Helvetica,sans-Serif" font-size="10.00">_control_mode.h</text>
</a>
</g>
</g>
<!-- Node4&#45;&gt;Node39 -->
<g id="edge61" class="edge"><title>Node4&#45;&gt;Node39</title>
<path fill="none" stroke="midnightblue" d="M601.626,-302.475C596.488,-295.019 588.793,-283.852 581.914,-273.869"/>
<polygon fill="midnightblue" stroke="midnightblue" points="584.719,-271.771 576.163,-265.523 578.955,-275.743 584.719,-271.771"/>
</g>
<!-- Node6 -->
<g id="node6" class="node"><title>Node6</title>
<g id="a_node6"><a xlink:href="../../d8/dc7/px4__workqueue_8h.html" target="_top" xlink:title="px4_workqueue.h">
<polygon fill="white" stroke="black" points="943,-174 943,-193 1036,-193 1036,-174 943,-174"/>
<text text-anchor="middle" x="989.5" y="-181" font-family="Helvetica,sans-Serif" font-size="10.00">px4_workqueue.h</text>
</a>
</g>
</g>
<!-- Node5&#45;&gt;Node6 -->
<g id="edge5" class="edge"><title>Node5&#45;&gt;Node6</title>
<path fill="none" stroke="midnightblue" d="M1093.32,-240.734C1073.07,-229.769 1038.2,-210.881 1014.51,-198.049"/>
<polygon fill="midnightblue" stroke="midnightblue" points="1015.89,-194.813 1005.43,-193.127 1012.55,-200.968 1015.89,-194.813"/>
</g>
<!-- Node7 -->
<g id="node7" class="node"><title>Node7</title>
<g id="a_node7"><a xlink:href="../../d7/dc9/px4__module_8h.html" target="_top" xlink:title="px4_module.h">
<polygon fill="white" stroke="black" points="1423,-174 1423,-193 1500,-193 1500,-174 1423,-174"/>
<text text-anchor="middle" x="1461.5" y="-181" font-family="Helvetica,sans-Serif" font-size="10.00">px4_module.h</text>
</a>
</g>
</g>
<!-- Node5&#45;&gt;Node7 -->
<g id="edge6" class="edge"><title>Node5&#45;&gt;Node7</title>
<path fill="none" stroke="midnightblue" d="M1151.26,-241.788C1216.65,-229.713 1342.91,-206.399 1412.5,-193.548"/>
<polygon fill="midnightblue" stroke="midnightblue" points="1413.55,-196.913 1422.75,-191.655 1412.28,-190.029 1413.55,-196.913"/>
</g>
<!-- Node21 -->
<g id="node21" class="node"><title>Node21</title>
<g id="a_node21"><a xlink:href="../../d4/dad/hysteresis_8h.html" target="_top" xlink:title="Hysteresis of a boolean value. ">
<polygon fill="white" stroke="black" points="1183,-168.5 1183,-198.5 1290,-198.5 1290,-168.5 1183,-168.5"/>
<text text-anchor="start" x="1191" y="-186.5" font-family="Helvetica,sans-Serif" font-size="10.00">systemlib/hysteresis</text>
<text text-anchor="middle" x="1236.5" y="-175.5" font-family="Helvetica,sans-Serif" font-size="10.00">/hysteresis.h</text>
</a>
</g>
</g>
<!-- Node5&#45;&gt;Node21 -->
<g id="edge22" class="edge"><title>Node5&#45;&gt;Node21</title>
<path fill="none" stroke="midnightblue" d="M1126.36,-240.869C1145.03,-231.315 1175.68,-215.627 1199.91,-203.225"/>
<polygon fill="midnightblue" stroke="midnightblue" points="1201.54,-206.323 1208.85,-198.652 1198.35,-200.092 1201.54,-206.323"/>
</g>
<!-- Node5&#45;&gt;Node27 -->
<g id="edge31" class="edge"><title>Node5&#45;&gt;Node27</title>
<path fill="none" stroke="midnightblue" d="M1151.01,-244.302C1201.05,-237.086 1280.66,-222.234 1298.5,-199 1306.89,-188.072 1305.96,-179.584 1298.5,-168 1288.19,-151.995 1270.65,-141.617 1253.17,-134.916"/>
<polygon fill="midnightblue" stroke="midnightblue" points="1254.1,-131.535 1243.51,-131.559 1251.8,-138.147 1254.1,-131.535"/>
</g>
<!-- Node28 -->
<g id="node28" class="node"><title>Node28</title>
<g id="a_node28"><a xlink:href="../../db/d79/perf__counter_8h.html" target="_top" xlink:title="Performance measuring tools. ">
<polygon fill="white" stroke="black" points="1307.5,-112.5 1307.5,-131.5 1405.5,-131.5 1405.5,-112.5 1307.5,-112.5"/>
<text text-anchor="middle" x="1356.5" y="-119.5" font-family="Helvetica,sans-Serif" font-size="10.00">perf/perf_counter.h</text>
</a>
</g>
</g>
<!-- Node5&#45;&gt;Node28 -->
<g id="edge35" class="edge"><title>Node5&#45;&gt;Node28</title>
<path fill="none" stroke="midnightblue" d="M1151.27,-248.959C1196.19,-246.34 1267.58,-236.054 1315.5,-199 1334.36,-184.418 1345.61,-158.632 1351.42,-141.185"/>
<polygon fill="midnightblue" stroke="midnightblue" points="1354.79,-142.16 1354.36,-131.573 1348.09,-140.112 1354.79,-142.16"/>
</g>
<!-- Node29 -->
<g id="node29" class="node"><title>Node29</title>
<g id="a_node29"><a xlink:href="../../db/dd6/u_o_r_b_8h.html" target="_top" xlink:title="API for the uORB lightweight object broker. ">
<polygon fill="white" stroke="black" points="662.5,-112.5 662.5,-131.5 744.5,-131.5 744.5,-112.5 662.5,-112.5"/>
<text text-anchor="middle" x="703.5" y="-119.5" font-family="Helvetica,sans-Serif" font-size="10.00">uORB/uORB.h</text>
</a>
</g>
</g>
<!-- Node5&#45;&gt;Node29 -->
<g id="edge38" class="edge"><title>Node5&#45;&gt;Node29</title>
<path fill="none" stroke="midnightblue" d="M1067.95,-242.366C1031.16,-234.955 976.741,-221.266 933.5,-199 913.814,-188.863 914.423,-177.661 894.5,-168 849.945,-146.395 794.414,-134.817 754.732,-128.845"/>
<polygon fill="midnightblue" stroke="midnightblue" points="755.144,-125.368 744.748,-127.41 754.148,-132.297 755.144,-125.368"/>
</g>
<!-- Node30 -->
<g id="node30" class="node"><title>Node30</title>
<g id="a_node30"><a xlink:href="../../d5/d5d/actuator__armed_8h.html" target="_top" xlink:title="uORB/topics/actuator\l_armed.h">
<polygon fill="white" stroke="black" points="1054,-168.5 1054,-198.5 1165,-198.5 1165,-168.5 1054,-168.5"/>
<text text-anchor="start" x="1062" y="-186.5" font-family="Helvetica,sans-Serif" font-size="10.00">uORB/topics/actuator</text>
<text text-anchor="middle" x="1109.5" y="-175.5" font-family="Helvetica,sans-Serif" font-size="10.00">_armed.h</text>
</a>
</g>
</g>
<!-- Node5&#45;&gt;Node30 -->
<g id="edge42" class="edge"><title>Node5&#45;&gt;Node30</title>
<path fill="none" stroke="midnightblue" d="M1109.5,-240.734C1109.5,-232.541 1109.5,-219.923 1109.5,-208.714"/>
<polygon fill="midnightblue" stroke="midnightblue" points="1113,-208.589 1109.5,-198.589 1106,-208.589 1113,-208.589"/>
</g>
<!-- Node31 -->
<g id="node31" class="node"><title>Node31</title>
<g id="a_node31"><a xlink:href="../../d8/ddd/vehicle__land__detected_8h.html" target="_top" xlink:title="uORB/topics/vehicle\l_land_detected.h">
<polygon fill="white" stroke="black" points="779,-168.5 779,-198.5 886,-198.5 886,-168.5 779,-168.5"/>
<text text-anchor="start" x="787" y="-186.5" font-family="Helvetica,sans-Serif" font-size="10.00">uORB/topics/vehicle</text>
<text text-anchor="middle" x="832.5" y="-175.5" font-family="Helvetica,sans-Serif" font-size="10.00">_land_detected.h</text>
</a>
</g>
</g>
<!-- Node5&#45;&gt;Node31 -->
<g id="edge44" class="edge"><title>Node5&#45;&gt;Node31</title>
<path fill="none" stroke="midnightblue" d="M1073,-240.936C1028.05,-230.388 950.944,-212.294 896.161,-199.438"/>
<polygon fill="midnightblue" stroke="midnightblue" points="896.739,-195.979 886.204,-197.102 895.14,-202.794 896.739,-195.979"/>
</g>
<!-- Node8 -->
<g id="node8" class="node"><title>Node8</title>
<polygon fill="white" stroke="#bfbfbf" points="1501,-112.5 1501,-131.5 1558,-131.5 1558,-112.5 1501,-112.5"/>
<text text-anchor="middle" x="1529.5" y="-119.5" font-family="Helvetica,sans-Serif" font-size="10.00">pthread.h</text>
</g>
<!-- Node7&#45;&gt;Node8 -->
<g id="edge7" class="edge"><title>Node7&#45;&gt;Node8</title>
<path fill="none" stroke="midnightblue" d="M1471.24,-173.975C1481.85,-164.697 1499.02,-149.671 1511.98,-138.331"/>
<polygon fill="midnightblue" stroke="midnightblue" points="1514.55,-140.728 1519.78,-131.509 1509.94,-135.46 1514.55,-140.728"/>
</g>
<!-- Node9 -->
<g id="node9" class="node"><title>Node9</title>
<polygon fill="white" stroke="#bfbfbf" points="1576,-112.5 1576,-131.5 1627,-131.5 1627,-112.5 1576,-112.5"/>
<text text-anchor="middle" x="1601.5" y="-119.5" font-family="Helvetica,sans-Serif" font-size="10.00">unistd.h</text>
</g>
<!-- Node7&#45;&gt;Node9 -->
<g id="edge8" class="edge"><title>Node7&#45;&gt;Node9</title>
<path fill="none" stroke="midnightblue" d="M1481.56,-173.975C1505.26,-163.901 1544.91,-147.053 1572.08,-135.502"/>
<polygon fill="midnightblue" stroke="midnightblue" points="1573.64,-138.642 1581.48,-131.509 1570.91,-132.199 1573.64,-138.642"/>
</g>
<!-- Node10 -->
<g id="node10" class="node"><title>Node10</title>
<polygon fill="white" stroke="#bfbfbf" points="1067.5,-56.5 1067.5,-75.5 1123.5,-75.5 1123.5,-56.5 1067.5,-56.5"/>
<text text-anchor="middle" x="1095.5" y="-63.5" font-family="Helvetica,sans-Serif" font-size="10.00">stdbool.h</text>
</g>
<!-- Node7&#45;&gt;Node10 -->
<g id="edge9" class="edge"><title>Node7&#45;&gt;Node10</title>
<path fill="none" stroke="midnightblue" d="M1431.43,-173.906C1391.37,-162.33 1322.73,-142.028 1298.5,-132 1280.87,-124.701 1278.26,-118.997 1260.5,-112 1218.19,-95.3282 1167.45,-82.4982 1133.51,-74.8804"/>
<polygon fill="midnightblue" stroke="midnightblue" points="1134.06,-71.4183 1123.54,-72.6851 1132.55,-78.2545 1134.06,-71.4183"/>
</g>
<!-- Node11 -->
<g id="node11" class="node"><title>Node11</title>
<g id="a_node11"><a xlink:href="../../d7/d53/px4__log_8h.html" target="_top" xlink:title="Platform dependant logging/debug implementation. ">
<polygon fill="white" stroke="black" points="1424,-112.5 1424,-131.5 1483,-131.5 1483,-112.5 1424,-112.5"/>
<text text-anchor="middle" x="1453.5" y="-119.5" font-family="Helvetica,sans-Serif" font-size="10.00">px4_log.h</text>
</a>
</g>
</g>
<!-- Node7&#45;&gt;Node11 -->
<g id="edge10" class="edge"><title>Node7&#45;&gt;Node11</title>
<path fill="none" stroke="midnightblue" d="M1460.35,-173.975C1459.23,-165.58 1457.46,-152.481 1456.01,-141.663"/>
<polygon fill="midnightblue" stroke="midnightblue" points="1459.45,-140.953 1454.64,-131.509 1452.51,-141.886 1459.45,-140.953"/>
</g>
<!-- Node18 -->
<g id="node18" class="node"><title>Node18</title>
<g id="a_node18"><a xlink:href="../../da/d65/px4__tasks_8h.html" target="_top" xlink:title="px4_tasks.h">
<polygon fill="white" stroke="black" points="1059.5,-112.5 1059.5,-131.5 1129.5,-131.5 1129.5,-112.5 1059.5,-112.5"/>
<text text-anchor="middle" x="1094.5" y="-119.5" font-family="Helvetica,sans-Serif" font-size="10.00">px4_tasks.h</text>
</a>
</g>
</g>
<!-- Node7&#45;&gt;Node18 -->
<g id="edge18" class="edge"><title>Node7&#45;&gt;Node18</title>
<path fill="none" stroke="midnightblue" d="M1422.62,-177.02C1363.69,-168.582 1248,-151.509 1139.66,-132.14"/>
<polygon fill="midnightblue" stroke="midnightblue" points="1140,-128.645 1129.54,-130.32 1138.76,-135.535 1140,-128.645"/>
</g>
<!-- Node19 -->
<g id="node19" class="node"><title>Node19</title>
<g id="a_node19"><a xlink:href="../../de/d37/px4__macros_8h.html" target="_top" xlink:title="A set of useful macros for enhanced runtime and compile time error detection and warning suppression...">
<polygon fill="white" stroke="black" points="1645,-112.5 1645,-131.5 1768,-131.5 1768,-112.5 1645,-112.5"/>
<text text-anchor="middle" x="1706.5" y="-119.5" font-family="Helvetica,sans-Serif" font-size="10.00">systemlib/px4_macros.h</text>
</a>
</g>
</g>
<!-- Node7&#45;&gt;Node19 -->
<g id="edge20" class="edge"><title>Node7&#45;&gt;Node19</title>
<path fill="none" stroke="midnightblue" d="M1496.6,-173.975C1539.99,-163.437 1613.91,-145.486 1661.45,-133.941"/>
<polygon fill="midnightblue" stroke="midnightblue" points="1662.57,-137.27 1671.46,-131.509 1660.92,-130.468 1662.57,-137.27"/>
</g>
<!-- Node12 -->
<g id="node12" class="node"><title>Node12</title>
<polygon fill="white" stroke="#bfbfbf" points="1254,-56.5 1254,-75.5 1313,-75.5 1313,-56.5 1254,-56.5"/>
<text text-anchor="middle" x="1283.5" y="-63.5" font-family="Helvetica,sans-Serif" font-size="10.00">inttypes.h</text>
</g>
<!-- Node11&#45;&gt;Node12 -->
<g id="edge11" class="edge"><title>Node11&#45;&gt;Node12</title>
<path fill="none" stroke="midnightblue" d="M1426.56,-112.444C1397.84,-103.32 1352.17,-88.8133 1320.18,-78.6509"/>
<polygon fill="midnightblue" stroke="midnightblue" points="1320.9,-75.2081 1310.31,-75.5164 1318.78,-81.8797 1320.9,-75.2081"/>
</g>
<!-- Node13 -->
<g id="node13" class="node"><title>Node13</title>
<polygon fill="white" stroke="#bfbfbf" points="1186,-56.5 1186,-75.5 1235,-75.5 1235,-56.5 1186,-56.5"/>
<text text-anchor="middle" x="1210.5" y="-63.5" font-family="Helvetica,sans-Serif" font-size="10.00">stdint.h</text>
</g>
<!-- Node11&#45;&gt;Node13 -->
<g id="edge12" class="edge"><title>Node11&#45;&gt;Node13</title>
<path fill="none" stroke="midnightblue" d="M1423.7,-114.065C1420.6,-113.36 1417.49,-112.66 1414.5,-112 1342.19,-96.0005 1321.32,-94.0299 1245.4,-76.1186"/>
<polygon fill="midnightblue" stroke="midnightblue" points="1245.88,-72.6367 1235.35,-73.7306 1244.27,-79.4472 1245.88,-72.6367"/>
</g>
<!-- Node14 -->
<g id="node14" class="node"><title>Node14</title>
<polygon fill="white" stroke="#bfbfbf" points="1497.5,-56.5 1497.5,-75.5 1565.5,-75.5 1565.5,-56.5 1497.5,-56.5"/>
<text text-anchor="middle" x="1531.5" y="-63.5" font-family="Helvetica,sans-Serif" font-size="10.00">sys/cdefs.h</text>
</g>
<!-- Node11&#45;&gt;Node14 -->
<g id="edge13" class="edge"><title>Node11&#45;&gt;Node14</title>
<path fill="none" stroke="midnightblue" d="M1466.03,-112.324C1478.09,-103.979 1496.53,-91.2122 1510.77,-81.3524"/>
<polygon fill="midnightblue" stroke="midnightblue" points="1512.77,-84.2243 1519,-75.6545 1508.78,-78.469 1512.77,-84.2243"/>
</g>
<!-- Node15 -->
<g id="node15" class="node"><title>Node15</title>
<polygon fill="white" stroke="#bfbfbf" points="1583.5,-56.5 1583.5,-75.5 1629.5,-75.5 1629.5,-56.5 1583.5,-56.5"/>
<text text-anchor="middle" x="1606.5" y="-63.5" font-family="Helvetica,sans-Serif" font-size="10.00">stdio.h</text>
</g>
<!-- Node11&#45;&gt;Node15 -->
<g id="edge14" class="edge"><title>Node11&#45;&gt;Node15</title>
<path fill="none" stroke="midnightblue" d="M1477.74,-112.444C1503.67,-103.292 1544.94,-88.726 1573.75,-78.5594"/>
<polygon fill="midnightblue" stroke="midnightblue" points="1575.11,-81.7917 1583.37,-75.1629 1572.78,-75.1907 1575.11,-81.7917"/>
</g>
<!-- Node16 -->
<g id="node16" class="node"><title>Node16</title>
<polygon fill="white" stroke="#bfbfbf" points="1427.5,-56.5 1427.5,-75.5 1479.5,-75.5 1479.5,-56.5 1427.5,-56.5"/>
<text text-anchor="middle" x="1453.5" y="-63.5" font-family="Helvetica,sans-Serif" font-size="10.00">stdarg.h</text>
</g>
<!-- Node11&#45;&gt;Node16 -->
<g id="edge15" class="edge"><title>Node11&#45;&gt;Node16</title>
<path fill="none" stroke="midnightblue" d="M1453.5,-112.083C1453.5,-105.006 1453.5,-94.8611 1453.5,-85.9865"/>
<polygon fill="midnightblue" stroke="midnightblue" points="1457,-85.751 1453.5,-75.7511 1450,-85.7511 1457,-85.751"/>
</g>
<!-- Node17 -->
<g id="node17" class="node"><title>Node17</title>
<g id="a_node17"><a xlink:href="../../df/dd0/px4__defines_8h.html" target="_top" xlink:title="Generally used magic defines. ">
<polygon fill="white" stroke="black" points="1332,-56.5 1332,-75.5 1409,-75.5 1409,-56.5 1332,-56.5"/>
<text text-anchor="middle" x="1370.5" y="-63.5" font-family="Helvetica,sans-Serif" font-size="10.00">px4_defines.h</text>
</a>
</g>
</g>
<!-- Node11&#45;&gt;Node17 -->
<g id="edge16" class="edge"><title>Node11&#45;&gt;Node17</title>
<path fill="none" stroke="midnightblue" d="M1435.05,-112.324C1420.64,-104.107 1401.09,-91.6017 1387.16,-81.8069"/>
<polygon fill="midnightblue" stroke="midnightblue" points="1389.08,-78.8734 1378.93,-75.8339 1384.97,-84.5393 1389.08,-78.8734"/>
</g>
<!-- Node17&#45;&gt;Node11 -->
<g id="edge17" class="edge"><title>Node17&#45;&gt;Node11</title>
<path fill="none" stroke="midnightblue" d="M1388.91,-75.6545C1403.4,-83.9132 1423.09,-96.5169 1437.05,-106.342"/>
<polygon fill="midnightblue" stroke="midnightblue" points="1435.13,-109.276 1445.28,-112.324 1439.25,-103.613 1435.13,-109.276"/>
</g>
<!-- Node18&#45;&gt;Node10 -->
<g id="edge19" class="edge"><title>Node18&#45;&gt;Node10</title>
<path fill="none" stroke="midnightblue" d="M1094.67,-112.083C1094.8,-105.006 1094.98,-94.8611 1095.15,-85.9865"/>
<polygon fill="midnightblue" stroke="midnightblue" points="1098.65,-85.8142 1095.34,-75.7511 1091.65,-85.6845 1098.65,-85.8142"/>
</g>
<!-- Node20 -->
<g id="node20" class="node"><title>Node20</title>
<polygon fill="white" stroke="#bfbfbf" points="1680.5,-56.5 1680.5,-75.5 1732.5,-75.5 1732.5,-56.5 1680.5,-56.5"/>
<text text-anchor="middle" x="1706.5" y="-63.5" font-family="Helvetica,sans-Serif" font-size="10.00">assert.h</text>
</g>
<!-- Node19&#45;&gt;Node20 -->
<g id="edge21" class="edge"><title>Node19&#45;&gt;Node20</title>
<path fill="none" stroke="midnightblue" d="M1706.5,-112.083C1706.5,-105.006 1706.5,-94.8611 1706.5,-85.9865"/>
<polygon fill="midnightblue" stroke="midnightblue" points="1710,-85.751 1706.5,-75.7511 1703,-85.7511 1710,-85.751"/>
</g>
<!-- Node22 -->
<g id="node22" class="node"><title>Node22</title>
<g id="a_node22"><a xlink:href="../../d6/d10/drv__hrt_8h.html" target="_top" xlink:title="High&#45;resolution timer with callouts and timekeeping. ">
<polygon fill="white" stroke="black" points="954,-112.5 954,-131.5 1041,-131.5 1041,-112.5 954,-112.5"/>
<text text-anchor="middle" x="997.5" y="-119.5" font-family="Helvetica,sans-Serif" font-size="10.00">drivers/drv_hrt.h</text>
</a>
</g>
</g>
<!-- Node21&#45;&gt;Node22 -->
<g id="edge23" class="edge"><title>Node21&#45;&gt;Node22</title>
<path fill="none" stroke="midnightblue" d="M1182.86,-169.147C1140.23,-158.534 1081.34,-143.873 1041.47,-133.945"/>
<polygon fill="midnightblue" stroke="midnightblue" points="1042.31,-130.548 1031.76,-131.529 1040.62,-137.341 1042.31,-130.548"/>
</g>
<!-- Node22&#45;&gt;Node10 -->
<g id="edge25" class="edge"><title>Node22&#45;&gt;Node10</title>
<path fill="none" stroke="midnightblue" d="M1013.25,-112.324C1028.82,-103.743 1052.88,-90.486 1070.96,-80.5224"/>
<polygon fill="midnightblue" stroke="midnightblue" points="1072.72,-83.546 1079.79,-75.6545 1069.35,-77.4152 1072.72,-83.546"/>
</g>
<!-- Node22&#45;&gt;Node12 -->
<g id="edge26" class="edge"><title>Node22&#45;&gt;Node12</title>
<path fill="none" stroke="midnightblue" d="M1041.15,-113.564C1090.41,-105.045 1172.88,-90.3977 1243.5,-76 1243.6,-75.9787 1243.71,-75.9573 1243.81,-75.9358"/>
<polygon fill="midnightblue" stroke="midnightblue" points="1244.76,-79.3126 1253.82,-73.8177 1243.31,-72.4643 1244.76,-79.3126"/>
</g>
<!-- Node23 -->
<g id="node23" class="node"><title>Node23</title>
<polygon fill="white" stroke="#bfbfbf" points="880.5,-0.5 880.5,-19.5 948.5,-19.5 948.5,-0.5 880.5,-0.5"/>
<text text-anchor="middle" x="914.5" y="-7.5" font-family="Helvetica,sans-Serif" font-size="10.00">sys/types.h</text>
</g>
<!-- Node22&#45;&gt;Node23 -->
<g id="edge24" class="edge"><title>Node22&#45;&gt;Node23</title>
<path fill="none" stroke="midnightblue" d="M958.655,-112.364C939.123,-105.847 917.173,-94.7042 905.5,-76 896.752,-61.9832 900.805,-42.9862 905.962,-29.1506"/>
<polygon fill="midnightblue" stroke="midnightblue" points="909.268,-30.3188 909.927,-19.7445 902.817,-27.5996 909.268,-30.3188"/>
</g>
<!-- Node24 -->
<g id="node24" class="node"><title>Node24</title>
<g id="a_node24"><a xlink:href="../../d3/d2d/px4__time_8h.html" target="_top" xlink:title="px4_time.h">
<polygon fill="white" stroke="black" points="984,-56.5 984,-75.5 1049,-75.5 1049,-56.5 984,-56.5"/>
<text text-anchor="middle" x="1016.5" y="-63.5" font-family="Helvetica,sans-Serif" font-size="10.00">px4_time.h</text>
</a>
</g>
</g>
<!-- Node22&#45;&gt;Node24 -->
<g id="edge27" class="edge"><title>Node22&#45;&gt;Node24</title>
<path fill="none" stroke="midnightblue" d="M1000.64,-112.083C1003.18,-104.849 1006.86,-94.4087 1010.03,-85.3968"/>
<polygon fill="midnightblue" stroke="midnightblue" points="1013.4,-86.3459 1013.42,-75.7511 1006.8,-84.0225 1013.4,-86.3459"/>
</g>
<!-- Node26 -->
<g id="node26" class="node"><title>Node26</title>
<polygon fill="white" stroke="#bfbfbf" points="915,-56.5 915,-75.5 966,-75.5 966,-56.5 915,-56.5"/>
<text text-anchor="middle" x="940.5" y="-63.5" font-family="Helvetica,sans-Serif" font-size="10.00">queue.h</text>
</g>
<!-- Node22&#45;&gt;Node26 -->
<g id="edge30" class="edge"><title>Node22&#45;&gt;Node26</title>
<path fill="none" stroke="midnightblue" d="M988.342,-112.324C979.999,-104.42 967.468,-92.5482 957.323,-82.9377"/>
<polygon fill="midnightblue" stroke="midnightblue" points="959.491,-80.1705 949.825,-75.8339 954.677,-85.2522 959.491,-80.1705"/>
</g>
<!-- Node24&#45;&gt;Node23 -->
<g id="edge28" class="edge"><title>Node24&#45;&gt;Node23</title>
<path fill="none" stroke="midnightblue" d="M1000.11,-56.324C983.829,-47.7034 958.633,-34.3643 939.784,-24.3855"/>
<polygon fill="midnightblue" stroke="midnightblue" points="941.323,-21.2402 930.847,-19.6545 938.048,-27.4267 941.323,-21.2402"/>
</g>
<!-- Node25 -->
<g id="node25" class="node"><title>Node25</title>
<polygon fill="white" stroke="#bfbfbf" points="994.5,-0.5 994.5,-19.5 1038.5,-19.5 1038.5,-0.5 994.5,-0.5"/>
<text text-anchor="middle" x="1016.5" y="-7.5" font-family="Helvetica,sans-Serif" font-size="10.00">time.h</text>
</g>
<!-- Node24&#45;&gt;Node25 -->
<g id="edge29" class="edge"><title>Node24&#45;&gt;Node25</title>
<path fill="none" stroke="midnightblue" d="M1016.5,-56.083C1016.5,-49.0059 1016.5,-38.8611 1016.5,-29.9865"/>
<polygon fill="midnightblue" stroke="midnightblue" points="1020,-29.751 1016.5,-19.7511 1013,-29.7511 1020,-29.751"/>
</g>
<!-- Node27&#45;&gt;Node10 -->
<g id="edge33" class="edge"><title>Node27&#45;&gt;Node10</title>
<path fill="none" stroke="midnightblue" d="M1182.79,-112.324C1166.19,-103.703 1140.5,-90.3643 1121.28,-80.3855"/>
<polygon fill="midnightblue" stroke="midnightblue" points="1122.66,-77.1565 1112.17,-75.6545 1119.43,-83.3689 1122.66,-77.1565"/>
</g>
<!-- Node27&#45;&gt;Node13 -->
<g id="edge32" class="edge"><title>Node27&#45;&gt;Node13</title>
<path fill="none" stroke="midnightblue" d="M1201.32,-112.083C1202.77,-104.927 1204.87,-94.6353 1206.69,-85.6911"/>
<polygon fill="midnightblue" stroke="midnightblue" points="1210.15,-86.2485 1208.72,-75.7511 1203.29,-84.8512 1210.15,-86.2485"/>
</g>
<!-- Node27&#45;&gt;Node23 -->
<g id="edge34" class="edge"><title>Node27&#45;&gt;Node23</title>
<path fill="none" stroke="midnightblue" d="M1193.19,-112.242C1182.44,-98.0262 1159.14,-70.1041 1132.5,-56 1102.9,-40.3295 1013.45,-25.2501 958.759,-17.145"/>
<polygon fill="midnightblue" stroke="midnightblue" points="959.045,-13.6497 948.644,-15.6665 958.033,-20.5761 959.045,-13.6497"/>
</g>
<!-- Node28&#45;&gt;Node13 -->
<g id="edge36" class="edge"><title>Node28&#45;&gt;Node13</title>
<path fill="none" stroke="midnightblue" d="M1333.37,-112.444C1309.02,-103.438 1270.49,-89.1891 1243.08,-79.049"/>
<polygon fill="midnightblue" stroke="midnightblue" points="1244.12,-75.7028 1233.53,-75.5164 1241.69,-82.2681 1244.12,-75.7028"/>
</g>
<!-- Node28&#45;&gt;Node17 -->
<g id="edge37" class="edge"><title>Node28&#45;&gt;Node17</title>
<path fill="none" stroke="midnightblue" d="M1358.81,-112.083C1360.67,-104.927 1363.34,-94.6353 1365.65,-85.6911"/>
<polygon fill="midnightblue" stroke="midnightblue" points="1369.11,-86.3094 1368.23,-75.7511 1362.33,-84.5527 1369.11,-86.3094"/>
</g>
<!-- Node29&#45;&gt;Node10 -->
<g id="edge41" class="edge"><title>Node29&#45;&gt;Node10</title>
<path fill="none" stroke="midnightblue" d="M744.598,-117.206C810.805,-110.773 945.033,-96.4073 1057.5,-76 1057.6,-75.9818 1057.7,-75.9636 1057.8,-75.9452"/>
<polygon fill="midnightblue" stroke="midnightblue" points="1058.24,-79.4276 1067.35,-74.0188 1056.85,-72.5659 1058.24,-79.4276"/>
</g>
<!-- Node29&#45;&gt;Node13 -->
<g id="edge40" class="edge"><title>Node29&#45;&gt;Node13</title>
<path fill="none" stroke="midnightblue" d="M744.629,-116.829C821.054,-109.047 990.138,-91.6793 1132.5,-76 1146.61,-74.4457 1162.15,-72.6663 1175.62,-71.1023"/>
<polygon fill="midnightblue" stroke="midnightblue" points="1176.39,-74.537 1185.92,-69.9026 1175.58,-67.584 1176.39,-74.537"/>
</g>
<!-- Node29&#45;&gt;Node23 -->
<g id="edge39" class="edge"><title>Node29&#45;&gt;Node23</title>
<path fill="none" stroke="midnightblue" d="M720.057,-112.368C756.804,-93.2113 845.377,-47.0355 889.147,-24.2172"/>
<polygon fill="midnightblue" stroke="midnightblue" points="890.771,-27.3178 898.02,-19.5914 887.535,-21.1107 890.771,-27.3178"/>
</g>
<!-- Node30&#45;&gt;Node29 -->
<g id="edge43" class="edge"><title>Node30&#45;&gt;Node29</title>
<path fill="none" stroke="midnightblue" d="M1053.9,-169.757C1050.72,-169.136 1047.57,-168.545 1044.5,-168 942.362,-149.905 821.831,-135.647 754.894,-128.351"/>
<polygon fill="midnightblue" stroke="midnightblue" points="754.94,-124.836 744.622,-127.24 754.188,-131.795 754.94,-124.836"/>
</g>
<!-- Node31&#45;&gt;Node29 -->
<g id="edge45" class="edge"><title>Node31&#45;&gt;Node29</title>
<path fill="none" stroke="midnightblue" d="M801.929,-168.399C780.575,-158.55 752.285,-145.501 731.515,-135.922"/>
<polygon fill="midnightblue" stroke="midnightblue" points="732.817,-132.668 722.271,-131.658 729.885,-139.024 732.817,-132.668"/>
</g>
<!-- Node32&#45;&gt;Node29 -->
<g id="edge48" class="edge"><title>Node32&#45;&gt;Node29</title>
<path fill="none" stroke="midnightblue" d="M564.631,-168.399C596.08,-158.118 638.192,-144.351 667.767,-134.682"/>
<polygon fill="midnightblue" stroke="midnightblue" points="668.866,-138.005 677.283,-131.571 666.69,-131.352 668.866,-138.005"/>
</g>
<!-- Node33&#45;&gt;Node29 -->
<g id="edge50" class="edge"><title>Node33&#45;&gt;Node29</title>
<path fill="none" stroke="midnightblue" d="M668.401,-168.399C675.086,-159.753 683.676,-148.642 690.685,-139.576"/>
<polygon fill="midnightblue" stroke="midnightblue" points="693.459,-141.71 696.807,-131.658 687.921,-137.428 693.459,-141.71"/>
</g>
<!-- Node34&#45;&gt;Node29 -->
<g id="edge52" class="edge"><title>Node34&#45;&gt;Node29</title>
<path fill="none" stroke="midnightblue" d="M762.478,-235.44C755.325,-219.023 742.805,-191.162 730.5,-168 725.584,-158.747 719.636,-148.727 714.576,-140.495"/>
<polygon fill="midnightblue" stroke="midnightblue" points="717.419,-138.44 709.158,-131.807 711.48,-142.145 717.419,-138.44"/>
</g>
<!-- Node35&#45;&gt;Node29 -->
<g id="edge54" class="edge"><title>Node35&#45;&gt;Node29</title>
<path fill="none" stroke="midnightblue" d="M87.2524,-235.434C130.66,-216.839 211.381,-184.508 283.5,-168 414.17,-138.09 572.369,-127.951 652.163,-124.597"/>
<polygon fill="midnightblue" stroke="midnightblue" points="652.575,-128.084 662.427,-124.186 652.294,-121.089 652.575,-128.084"/>
</g>
<!-- Node36&#45;&gt;Node29 -->
<g id="edge56" class="edge"><title>Node36&#45;&gt;Node29</title>
<path fill="none" stroke="midnightblue" d="M208.339,-235.393C244.728,-216.905 312.225,-184.858 373.5,-168 469.946,-141.466 586.739,-130.244 652.337,-125.756"/>
<polygon fill="midnightblue" stroke="midnightblue" points="652.666,-129.242 662.414,-125.092 652.206,-122.257 652.666,-129.242"/>
</g>
<!-- Node37&#45;&gt;Node29 -->
<g id="edge58" class="edge"><title>Node37&#45;&gt;Node29</title>
<path fill="none" stroke="midnightblue" d="M328.276,-235.421C350.061,-216.812 391.348,-184.464 432.5,-168 505.242,-138.897 596.219,-128.615 652.075,-124.983"/>
<polygon fill="midnightblue" stroke="midnightblue" points="652.312,-128.475 662.083,-124.379 651.89,-121.488 652.312,-128.475"/>
</g>
<!-- Node38&#45;&gt;Node29 -->
<g id="edge60" class="edge"><title>Node38&#45;&gt;Node29</title>
<path fill="none" stroke="midnightblue" d="M438.858,-235.409C435.125,-217.385 431.949,-186.316 448.5,-168 475.035,-138.634 585.705,-128.376 652.218,-124.833"/>
<polygon fill="midnightblue" stroke="midnightblue" points="652.681,-128.314 662.494,-124.32 652.332,-121.323 652.681,-128.314"/>
</g>
<!-- Node39&#45;&gt;Node29 -->
<g id="edge62" class="edge"><title>Node39&#45;&gt;Node29</title>
<path fill="none" stroke="midnightblue" d="M521.066,-235.487C481.748,-221.031 434.67,-196.606 458.5,-168 482.623,-139.043 587.468,-128.657 651.934,-124.977"/>
<polygon fill="midnightblue" stroke="midnightblue" points="652.506,-128.451 662.305,-124.422 652.132,-121.461 652.506,-128.451"/>
</g>
</g>
</svg>
        <g id="navigator" transform="translate(0 0)" fill="#404254">
                <rect fill="#f2f5e9" fill-opacity="0.5" stroke="#606060" stroke-width=".5" x="0" y="0" width="60" height="60"/>
                <use id="zoomplus" xlink:href="#zoomPlus" x="17" y="9" onmousedown="handleZoom(evt,'in')"/>
                <use id="zoomminus" xlink:href="#zoomMin" x="42" y="9" onmousedown="handleZoom(evt,'out')"/>
                <use id="reset" xlink:href="#resetDef" x="30" y="36" onmousedown="handleReset()"/>
                <g id="arrowUp" xlink:href="#dirArrow" transform="translate(30 24)" onmousedown="handlePan(0,-1)">
                  <use xlink:href="#rim" fill="#404040">
                        <set attributeName="fill" to="#808080" begin="arrowUp.mouseover" end="arrowUp.mouseout"/>
                  </use>
                  <path fill="none" stroke="white" stroke-width="1.5" d="M0,-3.0v7 M-2.5,-0.5L0,-3.0L2.5,-0.5"/>
                </g>
                <g id="arrowRight" xlink:href="#dirArrow" transform="rotate(90) translate(36 -43)" onmousedown="handlePan(1,0)">
                  <use xlink:href="#rim" fill="#404040">
                        <set attributeName="fill" to="#808080" begin="arrowRight.mouseover" end="arrowRight.mouseout"/>
                  </use>
                  <path fill="none" stroke="white" stroke-width="1.5" d="M0,-3.0v7 M-2.5,-0.5L0,-3.0L2.5,-0.5"/>
                </g>
                <g id="arrowDown" xlink:href="#dirArrow" transform="rotate(180) translate(-30 -48)" onmousedown="handlePan(0,1)">
                  <use xlink:href="#rim" fill="#404040">
                        <set attributeName="fill" to="#808080" begin="arrowDown.mouseover" end="arrowDown.mouseout"/>
                  </use>
                  <path fill="none" stroke="white" stroke-width="1.5" d="M0,-3.0v7 M-2.5,-0.5L0,-3.0L2.5,-0.5"/>
                </g>
                <g id="arrowLeft" xlink:href="#dirArrow" transform="rotate(270) translate(-36 17)" onmousedown="handlePan(-1,0)">
                  <use xlink:href="#rim" fill="#404040">
                        <set attributeName="fill" to="#808080" begin="arrowLeft.mouseover" end="arrowLeft.mouseout"/>
                  </use>
                  <path fill="none" stroke="white" stroke-width="1.5" d="M0,-3.0v7 M-2.5,-0.5L0,-3.0L2.5,-0.5"/>
                </g>
        </g>
        <svg viewBox="0 0 15 15" width="100%" height="30px" preserveAspectRatio="xMaxYMin meet">
         <g id="arrow_out" transform="scale(0.3 0.3)">
          <a xlink:href="_multicopter_land_detector_8cpp__incl_org.svg" target="_base">
           <rect id="button" ry="5" rx="5" y="6" x="6" height="38" width="38"
                fill="#f2f5e9" fill-opacity="0.5" stroke="#606060" stroke-width="1.0"/>
           <path id="arrow"
             d="M 11.500037,31.436501 C 11.940474,20.09759 22.043105,11.32322 32.158766,21.979434 L 37.068811,17.246167 C 37.068811,17.246167 37.088388,32 37.088388,32 L 22.160133,31.978069 C 22.160133,31.978069 26.997745,27.140456 26.997745,27.140456 C 18.528582,18.264221 13.291696,25.230495 11.500037,31.436501 z"
             style="fill:#404040;"/>
          </a>
         </g>
        </svg>
</svg>
