<?xml version="1.0" encoding="UTF-8" standalone="no"?>
<!DOCTYPE svg PUBLIC "-//W3C//DTD SVG 1.1//EN"
 "http://www.w3.org/Graphics/SVG/1.1/DTD/svg11.dtd">
<!-- Generated by graphviz version 2.38.0 (20140413.2041)
 -->
<!-- Title: src/drivers/stm32/drv_input_capture.c Pages: 1 -->
<!--zoomable 319 -->
<svg id="main" version="1.1" xmlns="http://www.w3.org/2000/svg" xmlns:xlink="http://www.w3.org/1999/xlink" xml:space="preserve" onload="init(evt)">
<style type="text/css"><![CDATA[
.edge:hover path { stroke: red; }
.edge:hover polygon { stroke: red; fill: red; }
]]></style>
<script type="text/javascript"><![CDATA[
var edges = document.getElementsByTagName('g');
if (edges && edges.length) {
  for (var i=0;i<edges.length;i++) {
    if (edges[i].id.substr(0,4)=='edge') {
      edges[i].setAttribute('class','edge');
    }
  }
}
]]></script>
        <defs>
                <circle id="rim" cx="0" cy="0" r="7"/>
                <circle id="rim2" cx="0" cy="0" r="3.5"/>
                <g id="zoomPlus">
                        <use xlink:href="#rim" fill="#404040">
                                <set attributeName="fill" to="#808080" begin="zoomplus.mouseover" end="zoomplus.mouseout"/>
                        </use>
                        <path d="M-4,0h8M0,-4v8" fill="none" stroke="white" stroke-width="1.5" pointer-events="none"/>
                </g>
                <g id="zoomMin">
                        <use xlink:href="#rim" fill="#404040">
                                <set attributeName="fill" to="#808080" begin="zoomminus.mouseover" end="zoomminus.mouseout"/>
                        </use>
                        <path d="M-4,0h8" fill="none" stroke="white" stroke-width="1.5" pointer-events="none"/>
                </g>
                <g id="dirArrow">
                        <path fill="none" stroke="white" stroke-width="1.5" d="M0,-3.0v7 M-2.5,-0.5L0,-3.0L2.5,-0.5"/>
                </g>
               <g id="resetDef">
                       <use xlink:href="#rim2" fill="#404040">
                               <set attributeName="fill" to="#808080" begin="reset.mouseover" end="reset.mouseout"/>
                       </use>
               </g>
        </defs>

<script type="text/javascript">
var viewWidth = 1109;
var viewHeight = 319;
var sectionId = 'dynsection-0';
</script>
<script xlink:href="../../svgpan.js"/>
<svg id="graph" class="graph">
<g id="viewport">
<title>src/drivers/stm32/drv_input_capture.c</title>
<polygon fill="white" stroke="none" points="-4,4 -4,-315 1104.5,-315 1104.5,4 -4,4"/>
<!-- Node1 -->
<g id="node1" class="node"><title>Node1</title>
<polygon fill="#bfbfbf" stroke="black" points="397.5,-280.5 397.5,-310.5 506.5,-310.5 506.5,-280.5 397.5,-280.5"/>
<text text-anchor="start" x="405.5" y="-298.5" font-family="Helvetica,sans-Serif" font-size="10.00">src/drivers/stm32/drv</text>
<text text-anchor="middle" x="452" y="-287.5" font-family="Helvetica,sans-Serif" font-size="10.00">_input_capture.c</text>
</g>
<!-- Node2 -->
<g id="node2" class="node"><title>Node2</title>
<g id="a_node2"><a xlink:href="../../d4/d35/px4__config_8h.html" target="_top" xlink:title="Configuration flags used in code. ">
<polygon fill="white" stroke="black" points="121,-168.5 121,-187.5 193,-187.5 193,-168.5 121,-168.5"/>
<text text-anchor="middle" x="157" y="-175.5" font-family="Helvetica,sans-Serif" font-size="10.00">px4_config.h</text>
</a>
</g>
</g>
<!-- Node1&#45;&gt;Node2 -->
<g id="edge1" class="edge"><title>Node1&#45;&gt;Node2</title>
<path fill="none" stroke="midnightblue" d="M397.423,-292.73C322.287,-289.053 192.759,-277.851 162,-244 150.84,-231.718 150.823,-212.182 152.847,-197.731"/>
<polygon fill="midnightblue" stroke="midnightblue" points="156.293,-198.34 154.641,-187.875 149.406,-197.087 156.293,-198.34"/>
</g>
<!-- Node3 -->
<g id="node3" class="node"><title>Node3</title>
<polygon fill="white" stroke="#bfbfbf" points="245,-168.5 245,-187.5 313,-187.5 313,-168.5 245,-168.5"/>
<text text-anchor="middle" x="279" y="-175.5" font-family="Helvetica,sans-Serif" font-size="10.00">nuttx/arch.h</text>
</g>
<!-- Node1&#45;&gt;Node3 -->
<g id="edge2" class="edge"><title>Node1&#45;&gt;Node3</title>
<path fill="none" stroke="midnightblue" d="M397.209,-292.701C323.747,-289.004 199.261,-277.792 171,-244 148.64,-217.263 195.904,-198.636 234.815,-188.376"/>
<polygon fill="midnightblue" stroke="midnightblue" points="236.142,-191.652 244.991,-185.826 234.44,-184.862 236.142,-191.652"/>
</g>
<!-- Node4 -->
<g id="node4" class="node"><title>Node4</title>
<polygon fill="white" stroke="#bfbfbf" points="391,-168.5 391,-187.5 451,-187.5 451,-168.5 391,-168.5"/>
<text text-anchor="middle" x="421" y="-175.5" font-family="Helvetica,sans-Serif" font-size="10.00">nuttx/irq.h</text>
</g>
<!-- Node1&#45;&gt;Node4 -->
<g id="edge3" class="edge"><title>Node1&#45;&gt;Node4</title>
<path fill="none" stroke="midnightblue" d="M448.199,-280.337C442.613,-259.527 432.182,-220.663 425.988,-197.583"/>
<polygon fill="midnightblue" stroke="midnightblue" points="429.3,-196.42 423.327,-187.669 422.539,-198.235 429.3,-196.42"/>
</g>
<!-- Node5 -->
<g id="node5" class="node"><title>Node5</title>
<polygon fill="white" stroke="#bfbfbf" points="356,-0.5 356,-19.5 424,-19.5 424,-0.5 356,-0.5"/>
<text text-anchor="middle" x="390" y="-7.5" font-family="Helvetica,sans-Serif" font-size="10.00">sys/types.h</text>
</g>
<!-- Node1&#45;&gt;Node5 -->
<g id="edge4" class="edge"><title>Node1&#45;&gt;Node5</title>
<path fill="none" stroke="midnightblue" d="M506.79,-283.655C531.253,-276.245 558.639,-264.001 577,-244 597.44,-221.734 597,-209.225 597,-179 597,-179 597,-179 597,-121 597,-47.9052 495.106,-23.2304 434.296,-15.0129"/>
<polygon fill="midnightblue" stroke="midnightblue" points="434.539,-11.5162 424.182,-13.7458 433.669,-18.4619 434.539,-11.5162"/>
</g>
<!-- Node6 -->
<g id="node6" class="node"><title>Node6</title>
<polygon fill="white" stroke="#bfbfbf" points="60,-56.5 60,-75.5 116,-75.5 116,-56.5 60,-56.5"/>
<text text-anchor="middle" x="88" y="-63.5" font-family="Helvetica,sans-Serif" font-size="10.00">stdbool.h</text>
</g>
<!-- Node1&#45;&gt;Node6 -->
<g id="edge5" class="edge"><title>Node1&#45;&gt;Node6</title>
<path fill="none" stroke="midnightblue" d="M397.434,-293.058C314.319,-289.753 161.372,-278.964 121,-244 75.1585,-204.299 79.8449,-123.12 84.8033,-86.129"/>
<polygon fill="midnightblue" stroke="midnightblue" points="88.3334,-86.1896 86.359,-75.7803 81.4112,-85.1489 88.3334,-86.1896"/>
</g>
<!-- Node7 -->
<g id="node7" class="node"><title>Node7</title>
<polygon fill="white" stroke="#bfbfbf" points="180,-224.5 180,-243.5 232,-243.5 232,-224.5 180,-224.5"/>
<text text-anchor="middle" x="206" y="-231.5" font-family="Helvetica,sans-Serif" font-size="10.00">assert.h</text>
</g>
<!-- Node1&#45;&gt;Node7 -->
<g id="edge6" class="edge"><title>Node1&#45;&gt;Node7</title>
<path fill="none" stroke="midnightblue" d="M397.291,-281.672C356.908,-272.142 300.355,-258.67 242.103,-244.246"/>
<polygon fill="midnightblue" stroke="midnightblue" points="242.91,-240.84 232.361,-241.829 241.224,-247.634 242.91,-240.84"/>
</g>
<!-- Node8 -->
<g id="node8" class="node"><title>Node8</title>
<polygon fill="white" stroke="#bfbfbf" points="250.5,-224.5 250.5,-243.5 301.5,-243.5 301.5,-224.5 250.5,-224.5"/>
<text text-anchor="middle" x="276" y="-231.5" font-family="Helvetica,sans-Serif" font-size="10.00">debug.h</text>
</g>
<!-- Node1&#45;&gt;Node8 -->
<g id="edge7" class="edge"><title>Node1&#45;&gt;Node8</title>
<path fill="none" stroke="midnightblue" d="M410.29,-280.399C380.011,-270.163 339.509,-256.47 310.928,-246.808"/>
<polygon fill="midnightblue" stroke="midnightblue" points="311.947,-243.458 301.353,-243.571 309.705,-250.089 311.947,-243.458"/>
</g>
<!-- Node9 -->
<g id="node9" class="node"><title>Node9</title>
<polygon fill="white" stroke="#bfbfbf" points="136,-0.5 136,-19.5 180,-19.5 180,-0.5 136,-0.5"/>
<text text-anchor="middle" x="158" y="-7.5" font-family="Helvetica,sans-Serif" font-size="10.00">time.h</text>
</g>
<!-- Node1&#45;&gt;Node9 -->
<g id="edge8" class="edge"><title>Node1&#45;&gt;Node9</title>
<path fill="none" stroke="midnightblue" d="M397.478,-292.017C277.26,-285.055 0,-260.196 0,-179 0,-179 0,-179 0,-121 0,-60.2512 79.6425,-30.3155 125.839,-18.0612"/>
<polygon fill="midnightblue" stroke="midnightblue" points="126.855,-21.4147 135.698,-15.5786 125.146,-14.6266 126.855,-21.4147"/>
</g>
<!-- Node10 -->
<g id="node10" class="node"><title>Node10</title>
<polygon fill="white" stroke="#bfbfbf" points="196.5,-56.5 196.5,-75.5 247.5,-75.5 247.5,-56.5 196.5,-56.5"/>
<text text-anchor="middle" x="222" y="-63.5" font-family="Helvetica,sans-Serif" font-size="10.00">queue.h</text>
</g>
<!-- Node1&#45;&gt;Node10 -->
<g id="edge9" class="edge"><title>Node1&#45;&gt;Node10</title>
<path fill="none" stroke="midnightblue" d="M397.341,-290.512C321.743,-284.138 190.051,-269.68 150,-244 118.209,-223.616 96.8078,-202.574 112,-168 129.353,-128.508 170.615,-97.6864 197.377,-80.947"/>
<polygon fill="midnightblue" stroke="midnightblue" points="199.433,-83.7942 206.176,-75.6222 195.808,-77.8055 199.433,-83.7942"/>
</g>
<!-- Node11 -->
<g id="node11" class="node"><title>Node11</title>
<polygon fill="white" stroke="#bfbfbf" points="454.5,-224.5 454.5,-243.5 501.5,-243.5 501.5,-224.5 454.5,-224.5"/>
<text text-anchor="middle" x="478" y="-231.5" font-family="Helvetica,sans-Serif" font-size="10.00">errno.h</text>
</g>
<!-- Node1&#45;&gt;Node11 -->
<g id="edge10" class="edge"><title>Node1&#45;&gt;Node11</title>
<path fill="none" stroke="midnightblue" d="M458.162,-280.399C461.745,-272.199 466.297,-261.781 470.137,-252.994"/>
<polygon fill="midnightblue" stroke="midnightblue" points="473.42,-254.223 474.217,-243.658 467.005,-251.42 473.42,-254.223"/>
</g>
<!-- Node12 -->
<g id="node12" class="node"><title>Node12</title>
<polygon fill="white" stroke="#bfbfbf" points="519.5,-224.5 519.5,-243.5 568.5,-243.5 568.5,-224.5 519.5,-224.5"/>
<text text-anchor="middle" x="544" y="-231.5" font-family="Helvetica,sans-Serif" font-size="10.00">string.h</text>
</g>
<!-- Node1&#45;&gt;Node12 -->
<g id="edge11" class="edge"><title>Node1&#45;&gt;Node12</title>
<path fill="none" stroke="midnightblue" d="M473.803,-280.399C488.412,-270.951 507.573,-258.559 522.185,-249.109"/>
<polygon fill="midnightblue" stroke="midnightblue" points="524.117,-252.027 530.613,-243.658 520.316,-246.15 524.117,-252.027"/>
</g>
<!-- Node13 -->
<g id="node13" class="node"><title>Node13</title>
<polygon fill="white" stroke="#bfbfbf" points="689,-0.5 689,-19.5 735,-19.5 735,-0.5 689,-0.5"/>
<text text-anchor="middle" x="712" y="-7.5" font-family="Helvetica,sans-Serif" font-size="10.00">stdio.h</text>
</g>
<!-- Node1&#45;&gt;Node13 -->
<g id="edge12" class="edge"><title>Node1&#45;&gt;Node13</title>
<path fill="none" stroke="midnightblue" d="M506.555,-291.37C578.43,-286.146 699.541,-273.19 732,-244 754.379,-223.874 751,-209.098 751,-179 751,-179 751,-179 751,-121 751,-86.7161 733.963,-49.6981 722.41,-28.5372"/>
<polygon fill="midnightblue" stroke="midnightblue" points="725.403,-26.7198 717.423,-19.7504 719.315,-30.175 725.403,-26.7198"/>
</g>
<!-- Node14 -->
<g id="node14" class="node"><title>Node14</title>
<polygon fill="white" stroke="#bfbfbf" points="625,-224.5 625,-243.5 723,-243.5 723,-224.5 625,-224.5"/>
<text text-anchor="middle" x="674" y="-231.5" font-family="Helvetica,sans-Serif" font-size="10.00">arch/board/board.h</text>
</g>
<!-- Node1&#45;&gt;Node14 -->
<g id="edge13" class="edge"><title>Node1&#45;&gt;Node14</title>
<path fill="none" stroke="midnightblue" d="M504.33,-280.475C543.466,-269.986 596.256,-255.837 632.502,-246.122"/>
<polygon fill="midnightblue" stroke="midnightblue" points="633.509,-249.476 642.262,-243.506 631.697,-242.715 633.509,-249.476"/>
</g>
<!-- Node15 -->
<g id="node15" class="node"><title>Node15</title>
<g id="a_node15"><a xlink:href="../../dc/d5d/drv__input__capture_8h.html" target="_top" xlink:title="drivers/drv_input_capture.h">
<polygon fill="white" stroke="black" points="790,-168.5 790,-187.5 924,-187.5 924,-168.5 790,-168.5"/>
<text text-anchor="middle" x="857" y="-175.5" font-family="Helvetica,sans-Serif" font-size="10.00">drivers/drv_input_capture.h</text>
</a>
</g>
</g>
<!-- Node1&#45;&gt;Node15 -->
<g id="edge14" class="edge"><title>Node1&#45;&gt;Node15</title>
<path fill="none" stroke="midnightblue" d="M506.607,-293.118C570.698,-289.838 679.13,-279.049 765,-244 794.097,-232.123 822.917,-209.544 840.342,-194.378"/>
<polygon fill="midnightblue" stroke="midnightblue" points="842.798,-196.877 847.931,-187.609 838.139,-191.653 842.798,-196.877"/>
</g>
<!-- Node25 -->
<g id="node25" class="node"><title>Node25</title>
<g id="a_node25"><a xlink:href="../../d3/d78/stm32_2drv__io__timer_8h.html" target="_top" xlink:title="drv_io_timer.h">
<polygon fill="white" stroke="black" points="320,-224.5 320,-243.5 398,-243.5 398,-224.5 320,-224.5"/>
<text text-anchor="middle" x="359" y="-231.5" font-family="Helvetica,sans-Serif" font-size="10.00">drv_io_timer.h</text>
</a>
</g>
</g>
<!-- Node1&#45;&gt;Node25 -->
<g id="edge33" class="edge"><title>Node1&#45;&gt;Node25</title>
<path fill="none" stroke="midnightblue" d="M429.96,-280.399C415.192,-270.951 395.823,-258.559 381.053,-249.109"/>
<polygon fill="midnightblue" stroke="midnightblue" points="382.842,-246.099 372.532,-243.658 379.07,-251.995 382.842,-246.099"/>
</g>
<!-- Node26 -->
<g id="node26" class="node"><title>Node26</title>
<g id="a_node26"><a xlink:href="../../d1/d48/stm32_2drv__input__capture_8h.html" target="_top" xlink:title="drv_input_capture.h">
<polygon fill="white" stroke="black" points="817,-224.5 817,-243.5 919,-243.5 919,-224.5 817,-224.5"/>
<text text-anchor="middle" x="868" y="-231.5" font-family="Helvetica,sans-Serif" font-size="10.00">drv_input_capture.h</text>
</a>
</g>
</g>
<!-- Node1&#45;&gt;Node26 -->
<g id="edge38" class="edge"><title>Node1&#45;&gt;Node26</title>
<path fill="none" stroke="midnightblue" d="M506.813,-286.66C584.462,-275.554 726.026,-255.306 806.944,-243.733"/>
<polygon fill="midnightblue" stroke="midnightblue" points="807.581,-247.177 816.985,-242.297 806.59,-240.248 807.581,-247.177"/>
</g>
<!-- Node27 -->
<g id="node27" class="node"><title>Node27</title>
<polygon fill="white" stroke="#bfbfbf" points="936.5,-224.5 936.5,-243.5 1011.5,-243.5 1011.5,-224.5 936.5,-224.5"/>
<text text-anchor="middle" x="974" y="-231.5" font-family="Helvetica,sans-Serif" font-size="10.00">stm32_gpio.h</text>
</g>
<!-- Node1&#45;&gt;Node27 -->
<g id="edge40" class="edge"><title>Node1&#45;&gt;Node27</title>
<path fill="none" stroke="midnightblue" d="M506.81,-290.254C593.672,-283.182 768.462,-267.551 926.038,-244.187"/>
<polygon fill="midnightblue" stroke="midnightblue" points="927.02,-247.579 936.391,-242.636 925.983,-240.656 927.02,-247.579"/>
</g>
<!-- Node28 -->
<g id="node28" class="node"><title>Node28</title>
<polygon fill="white" stroke="#bfbfbf" points="1029.5,-224.5 1029.5,-243.5 1100.5,-243.5 1100.5,-224.5 1029.5,-224.5"/>
<text text-anchor="middle" x="1065" y="-231.5" font-family="Helvetica,sans-Serif" font-size="10.00">stm32_tim.h</text>
</g>
<!-- Node1&#45;&gt;Node28 -->
<g id="edge41" class="edge"><title>Node1&#45;&gt;Node28</title>
<path fill="none" stroke="midnightblue" d="M506.77,-291.707C606.758,-286.158 825.677,-271.93 1018.98,-244.162"/>
<polygon fill="midnightblue" stroke="midnightblue" points="1019.65,-247.602 1029.04,-242.701 1018.64,-240.674 1019.65,-247.602"/>
</g>
<!-- Node16 -->
<g id="node16" class="node"><title>Node16</title>
<g id="a_node16"><a xlink:href="../../df/dd0/px4__defines_8h.html" target="_top" xlink:title="Generally used magic defines. ">
<polygon fill="white" stroke="black" points="779.5,-112.5 779.5,-131.5 856.5,-131.5 856.5,-112.5 779.5,-112.5"/>
<text text-anchor="middle" x="818" y="-119.5" font-family="Helvetica,sans-Serif" font-size="10.00">px4_defines.h</text>
</a>
</g>
</g>
<!-- Node15&#45;&gt;Node16 -->
<g id="edge15" class="edge"><title>Node15&#45;&gt;Node16</title>
<path fill="none" stroke="midnightblue" d="M850.56,-168.083C845.051,-160.455 836.969,-149.264 830.235,-139.941"/>
<polygon fill="midnightblue" stroke="midnightblue" points="833.013,-137.809 824.32,-131.751 827.338,-141.907 833.013,-137.809"/>
</g>
<!-- Node19 -->
<g id="node19" class="node"><title>Node19</title>
<polygon fill="white" stroke="#bfbfbf" points="909.5,-0.5 909.5,-19.5 958.5,-19.5 958.5,-0.5 909.5,-0.5"/>
<text text-anchor="middle" x="934" y="-7.5" font-family="Helvetica,sans-Serif" font-size="10.00">stdint.h</text>
</g>
<!-- Node15&#45;&gt;Node19 -->
<g id="edge23" class="edge"><title>Node15&#45;&gt;Node19</title>
<path fill="none" stroke="midnightblue" d="M861.14,-168.075C873.365,-141.719 909.472,-63.878 925.808,-28.6608"/>
<polygon fill="midnightblue" stroke="midnightblue" points="928.993,-30.1125 930.026,-19.5681 922.643,-27.1669 928.993,-30.1125"/>
</g>
<!-- Node22 -->
<g id="node22" class="node"><title>Node22</title>
<polygon fill="white" stroke="#bfbfbf" points="913,-112.5 913,-131.5 975,-131.5 975,-112.5 913,-112.5"/>
<text text-anchor="middle" x="944" y="-119.5" font-family="Helvetica,sans-Serif" font-size="10.00">sys/ioctl.h</text>
</g>
<!-- Node15&#45;&gt;Node22 -->
<g id="edge24" class="edge"><title>Node15&#45;&gt;Node22</title>
<path fill="none" stroke="midnightblue" d="M870.978,-168.324C884.55,-159.9 905.38,-146.971 921.325,-137.074"/>
<polygon fill="midnightblue" stroke="midnightblue" points="923.406,-139.902 930.057,-131.655 919.714,-133.954 923.406,-139.902"/>
</g>
<!-- Node23 -->
<g id="node23" class="node"><title>Node23</title>
<g id="a_node23"><a xlink:href="../../d6/d10/drv__hrt_8h.html" target="_top" xlink:title="High&#45;resolution timer with callouts and timekeeping. ">
<polygon fill="white" stroke="black" points="331.5,-112.5 331.5,-131.5 386.5,-131.5 386.5,-112.5 331.5,-112.5"/>
<text text-anchor="middle" x="359" y="-119.5" font-family="Helvetica,sans-Serif" font-size="10.00">drv_hrt.h</text>
</a>
</g>
</g>
<!-- Node15&#45;&gt;Node23 -->
<g id="edge25" class="edge"><title>Node15&#45;&gt;Node23</title>
<path fill="none" stroke="midnightblue" d="M789.838,-169.717C683.668,-158.205 480.519,-136.177 396.649,-127.082"/>
<polygon fill="midnightblue" stroke="midnightblue" points="396.878,-123.587 386.559,-125.988 396.124,-130.546 396.878,-123.587"/>
</g>
<!-- Node17 -->
<g id="node17" class="node"><title>Node17</title>
<g id="a_node17"><a xlink:href="../../d7/d53/px4__log_8h.html" target="_top" xlink:title="Platform dependant logging/debug implementation. ">
<polygon fill="white" stroke="black" points="788.5,-56.5 788.5,-75.5 847.5,-75.5 847.5,-56.5 788.5,-56.5"/>
<text text-anchor="middle" x="818" y="-63.5" font-family="Helvetica,sans-Serif" font-size="10.00">px4_log.h</text>
</a>
</g>
</g>
<!-- Node16&#45;&gt;Node17 -->
<g id="edge16" class="edge"><title>Node16&#45;&gt;Node17</title>
<path fill="none" stroke="midnightblue" d="M812.834,-112.083C811.324,-104.927 810.894,-94.6353 811.542,-85.6911"/>
<polygon fill="midnightblue" stroke="midnightblue" points="815.015,-86.1262 812.869,-75.7511 808.077,-85.2002 815.015,-86.1262"/>
</g>
<!-- Node17&#45;&gt;Node13 -->
<g id="edge20" class="edge"><title>Node17&#45;&gt;Node13</title>
<path fill="none" stroke="midnightblue" d="M800.969,-56.324C783.97,-47.6641 757.624,-34.2424 738.007,-24.249"/>
<polygon fill="midnightblue" stroke="midnightblue" points="739.488,-21.0752 728.988,-19.6545 736.31,-27.3125 739.488,-21.0752"/>
</g>
<!-- Node17&#45;&gt;Node16 -->
<g id="edge22" class="edge"><title>Node17&#45;&gt;Node16</title>
<path fill="none" stroke="midnightblue" d="M823.131,-75.7511C824.657,-82.8579 825.104,-93.1357 824.472,-102.101"/>
<polygon fill="midnightblue" stroke="midnightblue" points="820.993,-101.713 823.166,-112.083 827.934,-102.622 820.993,-101.713"/>
</g>
<!-- Node18 -->
<g id="node18" class="node"><title>Node18</title>
<polygon fill="white" stroke="#bfbfbf" points="506.5,-0.5 506.5,-19.5 565.5,-19.5 565.5,-0.5 506.5,-0.5"/>
<text text-anchor="middle" x="536" y="-7.5" font-family="Helvetica,sans-Serif" font-size="10.00">inttypes.h</text>
</g>
<!-- Node17&#45;&gt;Node18 -->
<g id="edge17" class="edge"><title>Node17&#45;&gt;Node18</title>
<path fill="none" stroke="midnightblue" d="M788.354,-59.3231C737.367,-49.5597 633.044,-29.583 575.791,-18.6196"/>
<polygon fill="midnightblue" stroke="midnightblue" points="576.152,-15.1251 565.672,-16.6818 574.835,-22.0002 576.152,-15.1251"/>
</g>
<!-- Node17&#45;&gt;Node19 -->
<g id="edge18" class="edge"><title>Node17&#45;&gt;Node19</title>
<path fill="none" stroke="midnightblue" d="M836.381,-56.4435C855.216,-47.6751 884.731,-33.9355 906.379,-23.8579"/>
<polygon fill="midnightblue" stroke="midnightblue" points="908.117,-26.9098 915.705,-19.5164 905.162,-20.5637 908.117,-26.9098"/>
</g>
<!-- Node20 -->
<g id="node20" class="node"><title>Node20</title>
<polygon fill="white" stroke="#bfbfbf" points="823,-0.5 823,-19.5 891,-19.5 891,-0.5 823,-0.5"/>
<text text-anchor="middle" x="857" y="-7.5" font-family="Helvetica,sans-Serif" font-size="10.00">sys/cdefs.h</text>
</g>
<!-- Node17&#45;&gt;Node20 -->
<g id="edge19" class="edge"><title>Node17&#45;&gt;Node20</title>
<path fill="none" stroke="midnightblue" d="M824.44,-56.083C829.949,-48.4554 838.031,-37.2645 844.765,-27.9408"/>
<polygon fill="midnightblue" stroke="midnightblue" points="847.662,-29.9071 850.68,-19.7511 841.987,-25.8087 847.662,-29.9071"/>
</g>
<!-- Node21 -->
<g id="node21" class="node"><title>Node21</title>
<polygon fill="white" stroke="#bfbfbf" points="753,-0.5 753,-19.5 805,-19.5 805,-0.5 753,-0.5"/>
<text text-anchor="middle" x="779" y="-7.5" font-family="Helvetica,sans-Serif" font-size="10.00">stdarg.h</text>
</g>
<!-- Node17&#45;&gt;Node21 -->
<g id="edge21" class="edge"><title>Node17&#45;&gt;Node21</title>
<path fill="none" stroke="midnightblue" d="M811.56,-56.083C806.051,-48.4554 797.969,-37.2645 791.235,-27.9408"/>
<polygon fill="midnightblue" stroke="midnightblue" points="794.013,-25.8087 785.32,-19.7511 788.338,-29.9071 794.013,-25.8087"/>
</g>
<!-- Node23&#45;&gt;Node5 -->
<g id="edge26" class="edge"><title>Node23&#45;&gt;Node5</title>
<path fill="none" stroke="midnightblue" d="M361.433,-112.368C366.458,-94.5366 378.08,-53.2953 384.851,-29.2717"/>
<polygon fill="midnightblue" stroke="midnightblue" points="388.235,-30.1659 387.579,-19.5914 381.497,-28.2671 388.235,-30.1659"/>
</g>
<!-- Node23&#45;&gt;Node6 -->
<g id="edge27" class="edge"><title>Node23&#45;&gt;Node6</title>
<path fill="none" stroke="midnightblue" d="M331.272,-115.475C282.607,-105.778 181.748,-85.6804 126.405,-74.6527"/>
<polygon fill="midnightblue" stroke="midnightblue" points="126.79,-71.1606 116.298,-72.6388 125.422,-78.0256 126.79,-71.1606"/>
</g>
<!-- Node23&#45;&gt;Node10 -->
<g id="edge32" class="edge"><title>Node23&#45;&gt;Node10</title>
<path fill="none" stroke="midnightblue" d="M337.292,-112.444C314.645,-103.517 278.928,-89.4387 253.248,-79.3168"/>
<polygon fill="midnightblue" stroke="midnightblue" points="254.193,-75.9273 243.606,-75.5164 251.626,-82.4397 254.193,-75.9273"/>
</g>
<!-- Node23&#45;&gt;Node18 -->
<g id="edge28" class="edge"><title>Node23&#45;&gt;Node18</title>
<path fill="none" stroke="midnightblue" d="M372.889,-112.368C403.391,-93.4121 476.463,-48.0006 513.565,-24.9424"/>
<polygon fill="midnightblue" stroke="midnightblue" points="515.53,-27.8426 522.176,-19.5914 511.835,-21.8972 515.53,-27.8426"/>
</g>
<!-- Node24 -->
<g id="node24" class="node"><title>Node24</title>
<g id="a_node24"><a xlink:href="../../d3/d2d/px4__time_8h.html" target="_top" xlink:title="px4_time.h">
<polygon fill="white" stroke="black" points="296.5,-56.5 296.5,-75.5 361.5,-75.5 361.5,-56.5 296.5,-56.5"/>
<text text-anchor="middle" x="329" y="-63.5" font-family="Helvetica,sans-Serif" font-size="10.00">px4_time.h</text>
</a>
</g>
</g>
<!-- Node23&#45;&gt;Node24 -->
<g id="edge29" class="edge"><title>Node23&#45;&gt;Node24</title>
<path fill="none" stroke="midnightblue" d="M354.046,-112.083C349.896,-104.613 343.847,-93.7244 338.733,-84.5199"/>
<polygon fill="midnightblue" stroke="midnightblue" points="341.778,-82.7929 333.862,-75.7511 335.659,-86.1924 341.778,-82.7929"/>
</g>
<!-- Node24&#45;&gt;Node5 -->
<g id="edge30" class="edge"><title>Node24&#45;&gt;Node5</title>
<path fill="none" stroke="midnightblue" d="M338.801,-56.324C347.818,-48.3414 361.406,-36.3128 372.318,-26.6529"/>
<polygon fill="midnightblue" stroke="midnightblue" points="374.853,-29.083 380.021,-19.8339 370.213,-23.8416 374.853,-29.083"/>
</g>
<!-- Node24&#45;&gt;Node9 -->
<g id="edge31" class="edge"><title>Node24&#45;&gt;Node9</title>
<path fill="none" stroke="midnightblue" d="M301.905,-56.4435C271.482,-46.8366 222.164,-31.2622 189.904,-21.0749"/>
<polygon fill="midnightblue" stroke="midnightblue" points="190.665,-17.6448 180.075,-17.971 188.557,-24.3199 190.665,-17.6448"/>
</g>
<!-- Node25&#45;&gt;Node2 -->
<g id="edge34" class="edge"><title>Node25&#45;&gt;Node2</title>
<path fill="none" stroke="midnightblue" d="M326.992,-224.444C292.271,-215.162 236.712,-200.309 198.623,-190.127"/>
<polygon fill="midnightblue" stroke="midnightblue" points="199.422,-186.718 188.858,-187.516 197.615,-193.48 199.422,-186.718"/>
</g>
<!-- Node25&#45;&gt;Node3 -->
<g id="edge35" class="edge"><title>Node25&#45;&gt;Node3</title>
<path fill="none" stroke="midnightblue" d="M346.147,-224.324C333.784,-215.979 314.87,-203.212 300.263,-193.352"/>
<polygon fill="midnightblue" stroke="midnightblue" points="302.068,-190.348 291.821,-187.655 298.152,-196.15 302.068,-190.348"/>
</g>
<!-- Node25&#45;&gt;Node4 -->
<g id="edge36" class="edge"><title>Node25&#45;&gt;Node4</title>
<path fill="none" stroke="midnightblue" d="M368.961,-224.324C378.127,-216.341 391.937,-204.313 403.028,-194.653"/>
<polygon fill="midnightblue" stroke="midnightblue" points="405.615,-197.041 410.857,-187.834 401.018,-191.762 405.615,-197.041"/>
</g>
<!-- Node25&#45;&gt;Node23 -->
<g id="edge37" class="edge"><title>Node25&#45;&gt;Node23</title>
<path fill="none" stroke="midnightblue" d="M359,-224.368C359,-206.617 359,-165.666 359,-141.597"/>
<polygon fill="midnightblue" stroke="midnightblue" points="362.5,-141.591 359,-131.591 355.5,-141.591 362.5,-141.591"/>
</g>
<!-- Node26&#45;&gt;Node15 -->
<g id="edge39" class="edge"><title>Node26&#45;&gt;Node15</title>
<path fill="none" stroke="midnightblue" d="M866.184,-224.083C864.726,-216.927 862.629,-206.635 860.807,-197.691"/>
<polygon fill="midnightblue" stroke="midnightblue" points="864.208,-196.851 858.783,-187.751 857.349,-198.248 864.208,-196.851"/>
</g>
</g>
</svg>
        <g id="navigator" transform="translate(0 0)" fill="#404254">
                <rect fill="#f2f5e9" fill-opacity="0.5" stroke="#606060" stroke-width=".5" x="0" y="0" width="60" height="60"/>
                <use id="zoomplus" xlink:href="#zoomPlus" x="17" y="9" onmousedown="handleZoom(evt,'in')"/>
                <use id="zoomminus" xlink:href="#zoomMin" x="42" y="9" onmousedown="handleZoom(evt,'out')"/>
                <use id="reset" xlink:href="#resetDef" x="30" y="36" onmousedown="handleReset()"/>
                <g id="arrowUp" xlink:href="#dirArrow" transform="translate(30 24)" onmousedown="handlePan(0,-1)">
                  <use xlink:href="#rim" fill="#404040">
                        <set attributeName="fill" to="#808080" begin="arrowUp.mouseover" end="arrowUp.mouseout"/>
                  </use>
                  <path fill="none" stroke="white" stroke-width="1.5" d="M0,-3.0v7 M-2.5,-0.5L0,-3.0L2.5,-0.5"/>
                </g>
                <g id="arrowRight" xlink:href="#dirArrow" transform="rotate(90) translate(36 -43)" onmousedown="handlePan(1,0)">
                  <use xlink:href="#rim" fill="#404040">
                        <set attributeName="fill" to="#808080" begin="arrowRight.mouseover" end="arrowRight.mouseout"/>
                  </use>
                  <path fill="none" stroke="white" stroke-width="1.5" d="M0,-3.0v7 M-2.5,-0.5L0,-3.0L2.5,-0.5"/>
                </g>
                <g id="arrowDown" xlink:href="#dirArrow" transform="rotate(180) translate(-30 -48)" onmousedown="handlePan(0,1)">
                  <use xlink:href="#rim" fill="#404040">
                        <set attributeName="fill" to="#808080" begin="arrowDown.mouseover" end="arrowDown.mouseout"/>
                  </use>
                  <path fill="none" stroke="white" stroke-width="1.5" d="M0,-3.0v7 M-2.5,-0.5L0,-3.0L2.5,-0.5"/>
                </g>
                <g id="arrowLeft" xlink:href="#dirArrow" transform="rotate(270) translate(-36 17)" onmousedown="handlePan(-1,0)">
                  <use xlink:href="#rim" fill="#404040">
                        <set attributeName="fill" to="#808080" begin="arrowLeft.mouseover" end="arrowLeft.mouseout"/>
                  </use>
                  <path fill="none" stroke="white" stroke-width="1.5" d="M0,-3.0v7 M-2.5,-0.5L0,-3.0L2.5,-0.5"/>
                </g>
        </g>
        <svg viewBox="0 0 15 15" width="100%" height="30px" preserveAspectRatio="xMaxYMin meet">
         <g id="arrow_out" transform="scale(0.3 0.3)">
          <a xlink:href="stm32_2drv__input__capture_8c__incl_org.svg" target="_base">
           <rect id="button" ry="5" rx="5" y="6" x="6" height="38" width="38"
                fill="#f2f5e9" fill-opacity="0.5" stroke="#606060" stroke-width="1.0"/>
           <path id="arrow"
             d="M 11.500037,31.436501 C 11.940474,20.09759 22.043105,11.32322 32.158766,21.979434 L 37.068811,17.246167 C 37.068811,17.246167 37.088388,32 37.088388,32 L 22.160133,31.978069 C 22.160133,31.978069 26.997745,27.140456 26.997745,27.140456 C 18.528582,18.264221 13.291696,25.230495 11.500037,31.436501 z"
             style="fill:#404040;"/>
          </a>
         </g>
        </svg>
</svg>
