<?xml version="1.0" encoding="UTF-8" standalone="no"?>
<!DOCTYPE svg PUBLIC "-//W3C//DTD SVG 1.1//EN"
 "http://www.w3.org/Graphics/SVG/1.1/DTD/svg11.dtd">
<!-- Generated by graphviz version 2.40.1 (20161225.0304)
 -->
<!-- Title: TAP_ESC::send_esc_outputs Pages: 1 -->
<svg width="651pt" height="127pt"
 viewBox="0.00 0.00 651.00 126.50" xmlns="http://www.w3.org/2000/svg" xmlns:xlink="http://www.w3.org/1999/xlink">
<g id="graph0" class="graph" transform="scale(1 1) rotate(0) translate(4 122.5)">
<title>TAP_ESC::send_esc_outputs</title>
<polygon fill="#ffffff" stroke="transparent" points="-4,4 -4,-122.5 647,-122.5 647,4 -4,4"/>
<!-- Node772 -->
<g id="node1" class="node">
<title>Node772</title>
<polygon fill="#bfbfbf" stroke="#000000" points="0,-44.5 0,-63.5 148,-63.5 148,-44.5 0,-44.5"/>
<text text-anchor="middle" x="74" y="-51.5" font-family="Helvetica,sans-Serif" font-size="10.00" fill="#000000">TAP_ESC::send_esc_outputs</text>
</g>
<!-- Node773 -->
<g id="node2" class="node">
<title>Node773</title>
<g id="a_node2"><a xlink:href="../../d4/da3/namespacetap__esc__common.html#a8c4eb259cd5b3b548a97609dc6772ebf" target="_top" xlink:title="Sends a packet to all ESCs and requests a specific ESC to respond. ">
<polygon fill="#ffffff" stroke="#000000" points="184,-39 184,-69 305,-69 305,-39 184,-39"/>
<text text-anchor="start" x="192" y="-57" font-family="Helvetica,sans-Serif" font-size="10.00" fill="#000000">tap_esc_common::send</text>
<text text-anchor="middle" x="244.5" y="-46" font-family="Helvetica,sans-Serif" font-size="10.00" fill="#000000">_packet</text>
</a>
</g>
</g>
<!-- Node772&#45;&gt;Node773 -->
<g id="edge1" class="edge">
<title>Node772&#45;&gt;Node773</title>
<path fill="none" stroke="#191970" d="M148.2878,-54C156.7092,-54 165.2758,-54 173.6513,-54"/>
<polygon fill="#191970" stroke="#191970" points="173.7503,-57.5001 183.7503,-54 173.7503,-50.5001 173.7503,-57.5001"/>
</g>
<!-- Node774 -->
<g id="node3" class="node">
<title>Node774</title>
<g id="a_node3"><a xlink:href="../../d4/da3/namespacetap__esc__common.html#a5bb170a7e39009eb97fc8860b8993af1" target="_top" xlink:title="Select tap esc responder data for serial interface by 74hct151. ">
<polygon fill="#ffffff" stroke="#000000" points="341,-88 341,-118 467,-118 467,-88 341,-88"/>
<text text-anchor="start" x="349" y="-106" font-family="Helvetica,sans-Serif" font-size="10.00" fill="#000000">tap_esc_common::select</text>
<text text-anchor="middle" x="404" y="-95" font-family="Helvetica,sans-Serif" font-size="10.00" fill="#000000">_responder</text>
</a>
</g>
</g>
<!-- Node773&#45;&gt;Node774 -->
<g id="edge2" class="edge">
<title>Node773&#45;&gt;Node774</title>
<path fill="none" stroke="#191970" d="M293.6567,-69.1014C309.9546,-74.1083 328.2617,-79.7324 345.2095,-84.939"/>
<polygon fill="#191970" stroke="#191970" points="344.4186,-88.3574 355.0056,-87.9484 346.4743,-81.666 344.4186,-88.3574"/>
</g>
<!-- Node775 -->
<g id="node4" class="node">
<title>Node775</title>
<g id="a_node4"><a xlink:href="../../d4/da3/namespacetap__esc__common.html#a29aec5f6c8a51ea28c886aa17d82b5fc" target="_top" xlink:title="tap_esc_common::crc\l_packet">
<polygon fill="#ffffff" stroke="#000000" points="347.5,-39 347.5,-69 460.5,-69 460.5,-39 347.5,-39"/>
<text text-anchor="start" x="355.5" y="-57" font-family="Helvetica,sans-Serif" font-size="10.00" fill="#000000">tap_esc_common::crc</text>
<text text-anchor="middle" x="404" y="-46" font-family="Helvetica,sans-Serif" font-size="10.00" fill="#000000">_packet</text>
</a>
</g>
</g>
<!-- Node773&#45;&gt;Node775 -->
<g id="edge3" class="edge">
<title>Node773&#45;&gt;Node775</title>
<path fill="none" stroke="#191970" d="M305.2551,-54C315.7294,-54 326.6678,-54 337.2891,-54"/>
<polygon fill="#191970" stroke="#191970" points="337.3497,-57.5001 347.3496,-54 337.3496,-50.5001 337.3497,-57.5001"/>
</g>
<!-- Node777 -->
<g id="node6" class="node">
<title>Node777</title>
<g id="a_node6"><a xlink:href="../../da/d60/boot__app__shared_8c.html#a6e76822ee32581d3159ae2f6ce9ae229" target="_top" xlink:title="write">
<polygon fill="#ffffff" stroke="#000000" points="385,-.5 385,-19.5 423,-19.5 423,-.5 385,-.5"/>
<text text-anchor="middle" x="404" y="-7.5" font-family="Helvetica,sans-Serif" font-size="10.00" fill="#000000">write</text>
</a>
</g>
</g>
<!-- Node773&#45;&gt;Node777 -->
<g id="edge5" class="edge">
<title>Node773&#45;&gt;Node777</title>
<path fill="none" stroke="#191970" d="M298.9447,-38.9808C324.5379,-31.9206 354.0101,-23.7903 375.2122,-17.9415"/>
<polygon fill="#191970" stroke="#191970" points="376.1938,-21.3015 384.9029,-15.2682 374.3322,-14.5535 376.1938,-21.3015"/>
</g>
<!-- Node776 -->
<g id="node5" class="node">
<title>Node776</title>
<g id="a_node5"><a xlink:href="../../d4/da3/namespacetap__esc__common.html#a06bb6054e581dca2be8f4c84873666a0" target="_top" xlink:title="tap_esc_common::crc8_esc">
<polygon fill="#ffffff" stroke="#000000" points="503,-44.5 503,-63.5 643,-63.5 643,-44.5 503,-44.5"/>
<text text-anchor="middle" x="573" y="-51.5" font-family="Helvetica,sans-Serif" font-size="10.00" fill="#000000">tap_esc_common::crc8_esc</text>
</a>
</g>
</g>
<!-- Node775&#45;&gt;Node776 -->
<g id="edge4" class="edge">
<title>Node775&#45;&gt;Node776</title>
<path fill="none" stroke="#191970" d="M460.7447,-54C470.9908,-54 481.8494,-54 492.6186,-54"/>
<polygon fill="#191970" stroke="#191970" points="492.8934,-57.5001 502.8934,-54 492.8934,-50.5001 492.8934,-57.5001"/>
</g>
</g>
</svg>
