<?xml version="1.0" encoding="UTF-8" standalone="no"?>
<!DOCTYPE svg PUBLIC "-//W3C//DTD SVG 1.1//EN"
 "http://www.w3.org/Graphics/SVG/1.1/DTD/svg11.dtd">
<!-- Generated by graphviz version 2.38.0 (20140413.2041)
 -->
<!-- Title: led_deinit Pages: 1 -->
<svg width="1277pt" height="102pt"
 viewBox="0.00 0.00 1277.00 101.50" xmlns="http://www.w3.org/2000/svg" xmlns:xlink="http://www.w3.org/1999/xlink">
<g id="graph0" class="graph" transform="scale(1 1) rotate(0) translate(4 97.5)">
<title>led_deinit</title>
<polygon fill="white" stroke="none" points="-4,4 -4,-97.5 1273,-97.5 1273,4 -4,4"/>
<!-- Node1 -->
<g id="node1" class="node"><title>Node1</title>
<polygon fill="#bfbfbf" stroke="black" points="0,-33 0,-52 58,-52 58,-33 0,-33"/>
<text text-anchor="middle" x="29" y="-40" font-family="Helvetica,sans-Serif" font-size="10.00">led_deinit</text>
</g>
<!-- Node2 -->
<g id="node2" class="node"><title>Node2</title>
<g id="a_node2"><a xlink:href="../../d9/d97/u_o_r_b_8cpp.html#a1c2ecd4919751835265681c212badaf4" target="_top" xlink:title="orb_unadvertise">
<polygon fill="white" stroke="black" points="94,-33 94,-52 180,-52 180,-33 94,-33"/>
<text text-anchor="middle" x="137" y="-40" font-family="Helvetica,sans-Serif" font-size="10.00">orb_unadvertise</text>
</a>
</g>
</g>
<!-- Node1&#45;&gt;Node2 -->
<g id="edge1" class="edge"><title>Node1&#45;&gt;Node2</title>
<path fill="none" stroke="midnightblue" d="M58.1278,-42.5C65.9747,-42.5 74.7623,-42.5 83.5306,-42.5"/>
<polygon fill="midnightblue" stroke="midnightblue" points="83.7574,-46.0001 93.7574,-42.5 83.7573,-39.0001 83.7574,-46.0001"/>
</g>
<!-- Node3 -->
<g id="node3" class="node"><title>Node3</title>
<g id="a_node3"><a xlink:href="../../d3/da9/classu_o_r_b_1_1_manager.html#a9d829b3ea49d16d03c2fa37ef2bb24a5" target="_top" xlink:title="Method to get the singleton instance for the uORB::Manager. ">
<polygon fill="white" stroke="black" points="577.5,-49.5 577.5,-79.5 684.5,-79.5 684.5,-49.5 577.5,-49.5"/>
<text text-anchor="start" x="585.5" y="-67.5" font-family="Helvetica,sans-Serif" font-size="10.00">uORB::Manager::get</text>
<text text-anchor="middle" x="631" y="-56.5" font-family="Helvetica,sans-Serif" font-size="10.00">_instance</text>
</a>
</g>
</g>
<!-- Node2&#45;&gt;Node3 -->
<g id="edge2" class="edge"><title>Node2&#45;&gt;Node3</title>
<path fill="none" stroke="midnightblue" d="M180.373,-44.3947C267.133,-48.2742 465.378,-57.1389 567.159,-61.69"/>
<polygon fill="midnightblue" stroke="midnightblue" points="567.149,-65.193 577.295,-62.1433 567.462,-58.2 567.149,-65.193"/>
</g>
<!-- Node10 -->
<g id="node10" class="node"><title>Node10</title>
<g id="a_node10"><a xlink:href="../../d3/da9/classu_o_r_b_1_1_manager.html#a45601ddc722320b9cd660d9548263824" target="_top" xlink:title="Unadvertise a topic. ">
<polygon fill="white" stroke="black" points="216,-5.5 216,-35.5 323,-35.5 323,-5.5 216,-5.5"/>
<text text-anchor="start" x="224" y="-23.5" font-family="Helvetica,sans-Serif" font-size="10.00">uORB::Manager::orb</text>
<text text-anchor="middle" x="269.5" y="-12.5" font-family="Helvetica,sans-Serif" font-size="10.00">_unadvertise</text>
</a>
</g>
</g>
<!-- Node2&#45;&gt;Node10 -->
<g id="edge9" class="edge"><title>Node2&#45;&gt;Node10</title>
<path fill="none" stroke="midnightblue" d="M180.009,-35.418C188.15,-34.0457 196.845,-32.5798 205.488,-31.1227"/>
<polygon fill="midnightblue" stroke="midnightblue" points="206.295,-34.5362 215.574,-29.4225 205.131,-27.6336 206.295,-34.5362"/>
</g>
<!-- Node4 -->
<g id="node4" class="node"><title>Node4</title>
<g id="a_node4"><a xlink:href="../../d3/da9/classu_o_r_b_1_1_manager.html#a083331e24ac4f99ac11a0aab1b1681b4" target="_top" xlink:title="Get the DeviceMaster. ">
<polygon fill="white" stroke="black" points="743,-49.5 743,-79.5 850,-79.5 850,-49.5 743,-49.5"/>
<text text-anchor="start" x="751" y="-67.5" font-family="Helvetica,sans-Serif" font-size="10.00">uORB::Manager::get</text>
<text text-anchor="middle" x="796.5" y="-56.5" font-family="Helvetica,sans-Serif" font-size="10.00">_device_master</text>
</a>
</g>
</g>
<!-- Node3&#45;&gt;Node4 -->
<g id="edge3" class="edge"><title>Node3&#45;&gt;Node4</title>
<path fill="none" stroke="midnightblue" d="M684.632,-64.5C699.948,-64.5 716.832,-64.5 732.707,-64.5"/>
<polygon fill="midnightblue" stroke="midnightblue" points="732.966,-68.0001 742.966,-64.5 732.966,-61.0001 732.966,-68.0001"/>
</g>
<!-- Node5 -->
<g id="node5" class="node"><title>Node5</title>
<g id="a_node5"><a xlink:href="../../db/dcf/classdevice_1_1_c_dev.html#a04ad8e5b517724c106e06b45e86a2445" target="_top" xlink:title="Initialise the driver and make it ready for use. ">
<polygon fill="white" stroke="black" points="886,-55 886,-74 981,-74 981,-55 886,-55"/>
<text text-anchor="middle" x="933.5" y="-62" font-family="Helvetica,sans-Serif" font-size="10.00">device::CDev::init</text>
</a>
</g>
</g>
<!-- Node4&#45;&gt;Node5 -->
<g id="edge4" class="edge"><title>Node4&#45;&gt;Node5</title>
<path fill="none" stroke="midnightblue" d="M850.081,-64.5C858.503,-64.5 867.25,-64.5 875.763,-64.5"/>
<polygon fill="midnightblue" stroke="midnightblue" points="875.993,-68.0001 885.993,-64.5 875.993,-61.0001 875.993,-68.0001"/>
</g>
<!-- Node6 -->
<g id="node6" class="node"><title>Node6</title>
<g id="a_node6"><a xlink:href="../../dd/dd3/classdevice_1_1_device.html#a88428ba671d9c225504fc2f0aed2a72a" target="_top" xlink:title="Initialise the driver and make it ready for use. ">
<polygon fill="white" stroke="black" points="1017,-74 1017,-93 1118,-93 1118,-74 1017,-74"/>
<text text-anchor="middle" x="1067.5" y="-81" font-family="Helvetica,sans-Serif" font-size="10.00">device::Device::init</text>
</a>
</g>
</g>
<!-- Node5&#45;&gt;Node6 -->
<g id="edge5" class="edge"><title>Node5&#45;&gt;Node6</title>
<path fill="none" stroke="midnightblue" d="M981.038,-71.1987C989.361,-72.3966 998.137,-73.6598 1006.77,-74.9023"/>
<polygon fill="midnightblue" stroke="midnightblue" points="1006.4,-78.3856 1016.8,-76.3461 1007.4,-71.457 1006.4,-78.3856"/>
</g>
<!-- Node7 -->
<g id="node7" class="node"><title>Node7</title>
<g id="a_node7"><a xlink:href="../../da/dc9/posix_2cdev__platform_8cpp.html#a4c69ea88a27571245bd4dc9c06a3d18b" target="_top" xlink:title="register_driver">
<polygon fill="white" stroke="black" points="1028.5,-36 1028.5,-55 1106.5,-55 1106.5,-36 1028.5,-36"/>
<text text-anchor="middle" x="1067.5" y="-43" font-family="Helvetica,sans-Serif" font-size="10.00">register_driver</text>
</a>
</g>
</g>
<!-- Node5&#45;&gt;Node7 -->
<g id="edge6" class="edge"><title>Node5&#45;&gt;Node7</title>
<path fill="none" stroke="midnightblue" d="M981.038,-57.8013C993.1,-56.0652 1006.11,-54.1919 1018.26,-52.4435"/>
<polygon fill="midnightblue" stroke="midnightblue" points="1018.82,-55.899 1028.22,-51.0099 1017.82,-48.9704 1018.82,-55.899"/>
</g>
<!-- Node8 -->
<g id="node8" class="node"><title>Node8</title>
<g id="a_node8"><a xlink:href="../../d6/dfb/stubs__posix_8c.html#a12809c44718c21544ceb280dc1a53573" target="_top" xlink:title="pthread_mutex_lock">
<polygon fill="white" stroke="black" points="1159.5,-55 1159.5,-74 1263.5,-74 1263.5,-55 1159.5,-55"/>
<text text-anchor="middle" x="1211.5" y="-62" font-family="Helvetica,sans-Serif" font-size="10.00">pthread_mutex_lock</text>
</a>
</g>
</g>
<!-- Node7&#45;&gt;Node8 -->
<g id="edge7" class="edge"><title>Node7&#45;&gt;Node8</title>
<path fill="none" stroke="midnightblue" d="M1106.55,-50.5917C1119.7,-52.3511 1134.79,-54.3698 1149.32,-56.3136"/>
<polygon fill="midnightblue" stroke="midnightblue" points="1148.88,-59.7861 1159.26,-57.6433 1149.81,-52.8479 1148.88,-59.7861"/>
</g>
<!-- Node9 -->
<g id="node9" class="node"><title>Node9</title>
<g id="a_node9"><a xlink:href="../../d6/dfb/stubs__posix_8c.html#a96184290ffb60e04c53a52869cf960a2" target="_top" xlink:title="pthread_mutex_unlock">
<polygon fill="white" stroke="black" points="1154,-17 1154,-36 1269,-36 1269,-17 1154,-17"/>
<text text-anchor="middle" x="1211.5" y="-24" font-family="Helvetica,sans-Serif" font-size="10.00">pthread_mutex_unlock</text>
</a>
</g>
</g>
<!-- Node7&#45;&gt;Node9 -->
<g id="edge8" class="edge"><title>Node7&#45;&gt;Node9</title>
<path fill="none" stroke="midnightblue" d="M1106.55,-40.4083C1118.03,-38.8731 1130.98,-37.1405 1143.74,-35.4325"/>
<polygon fill="midnightblue" stroke="midnightblue" points="1144.46,-38.8676 1153.91,-34.0722 1143.53,-31.9294 1144.46,-38.8676"/>
</g>
<!-- Node11 -->
<g id="node11" class="node"><title>Node11</title>
<g id="a_node11"><a xlink:href="../../d0/d18/classu_o_r_b_1_1_device_node.html#a07672cd375d8067080b76b8773659289" target="_top" xlink:title="uORB::DeviceNode::unadvertise">
<polygon fill="white" stroke="black" points="359,-11 359,-30 519,-30 519,-11 359,-11"/>
<text text-anchor="middle" x="439" y="-18" font-family="Helvetica,sans-Serif" font-size="10.00">uORB::DeviceNode::unadvertise</text>
</a>
</g>
</g>
<!-- Node10&#45;&gt;Node11 -->
<g id="edge10" class="edge"><title>Node10&#45;&gt;Node11</title>
<path fill="none" stroke="midnightblue" d="M323.038,-20.5C331.334,-20.5 340.106,-20.5 348.957,-20.5"/>
<polygon fill="midnightblue" stroke="midnightblue" points="348.962,-24.0001 358.962,-20.5 348.962,-17.0001 348.962,-24.0001"/>
</g>
<!-- Node11&#45;&gt;Node3 -->
<g id="edge11" class="edge"><title>Node11&#45;&gt;Node3</title>
<path fill="none" stroke="midnightblue" d="M481.227,-30.0473C506.416,-35.8805 539.125,-43.4552 567.456,-50.0162"/>
<polygon fill="midnightblue" stroke="midnightblue" points="566.744,-53.4437 577.275,-52.2901 568.323,-46.6242 566.744,-53.4437"/>
</g>
<!-- Node12 -->
<g id="node12" class="node"><title>Node12</title>
<g id="a_node12"><a xlink:href="../../d9/d8a/classu_o_r_b_communicator_1_1_i_channel.html#a77ca809a54e4d7a0137e89eeba22d17f" target="_top" xlink:title="Interface to notify the remote entity of a topic being advertised. ">
<polygon fill="white" stroke="black" points="555,-0.5 555,-30.5 707,-30.5 707,-0.5 555,-0.5"/>
<text text-anchor="start" x="563" y="-18.5" font-family="Helvetica,sans-Serif" font-size="10.00">uORBCommunicator::IChannel</text>
<text text-anchor="middle" x="631" y="-7.5" font-family="Helvetica,sans-Serif" font-size="10.00">::topic_advertised</text>
</a>
</g>
</g>
<!-- Node11&#45;&gt;Node12 -->
<g id="edge12" class="edge"><title>Node11&#45;&gt;Node12</title>
<path fill="none" stroke="midnightblue" d="M519.201,-18.4158C527.599,-18.1948 536.165,-17.9693 544.629,-17.7466"/>
<polygon fill="midnightblue" stroke="midnightblue" points="544.979,-21.2387 554.884,-17.4767 544.795,-14.2411 544.979,-21.2387"/>
</g>
</g>
</svg>
