<?xml version="1.0" encoding="UTF-8" standalone="no"?>
<!DOCTYPE svg PUBLIC "-//W3C//DTD SVG 1.1//EN"
 "http://www.w3.org/Graphics/SVG/1.1/DTD/svg11.dtd">
<!-- Generated by graphviz version 2.38.0 (20140413.2041)
 -->
<!-- Title: device::cdev_poll Pages: 1 -->
<svg width="385pt" height="137pt"
 viewBox="0.00 0.00 385.00 137.00" xmlns="http://www.w3.org/2000/svg" xmlns:xlink="http://www.w3.org/1999/xlink">
<g id="graph0" class="graph" transform="scale(1 1) rotate(0) translate(4 133)">
<title>device::cdev_poll</title>
<polygon fill="white" stroke="none" points="-4,4 -4,-133 381,-133 381,4 -4,4"/>
<!-- Node1 -->
<g id="node1" class="node"><title>Node1</title>
<polygon fill="#bfbfbf" stroke="black" points="0,-55 0,-74 92,-74 92,-55 0,-55"/>
<text text-anchor="middle" x="46" y="-62" font-family="Helvetica,sans-Serif" font-size="10.00">device::cdev_poll</text>
</g>
<!-- Node2 -->
<g id="node2" class="node"><title>Node2</title>
<g id="a_node2"><a xlink:href="../../db/dcf/classdevice_1_1_c_dev.html#a4e87079d3480b1d29fecc06314bb4c36" target="_top" xlink:title="Perform a poll setup/teardown operation. ">
<polygon fill="white" stroke="black" points="128,-55 128,-74 226,-74 226,-55 128,-55"/>
<text text-anchor="middle" x="177" y="-62" font-family="Helvetica,sans-Serif" font-size="10.00">device::CDev::poll</text>
</a>
</g>
</g>
<!-- Node1&#45;&gt;Node2 -->
<g id="edge1" class="edge"><title>Node1&#45;&gt;Node2</title>
<path fill="none" stroke="midnightblue" d="M92.1179,-64.5C100.279,-64.5 108.897,-64.5 117.378,-64.5"/>
<polygon fill="midnightblue" stroke="midnightblue" points="117.615,-68.0001 127.615,-64.5 117.615,-61.0001 117.615,-68.0001"/>
</g>
<!-- Node3 -->
<g id="node3" class="node"><title>Node3</title>
<g id="a_node3"><a xlink:href="../../db/dcf/classdevice_1_1_c_dev.html#a63c9bb78722c6d0be5dc52cf9cc6bb52" target="_top" xlink:title="Store a pollwaiter in a slot where we can find it later. ">
<polygon fill="white" stroke="black" points="267.5,-98.5 267.5,-128.5 371.5,-128.5 371.5,-98.5 267.5,-98.5"/>
<text text-anchor="start" x="275.5" y="-116.5" font-family="Helvetica,sans-Serif" font-size="10.00">device::CDev::store</text>
<text text-anchor="middle" x="319.5" y="-105.5" font-family="Helvetica,sans-Serif" font-size="10.00">_poll_waiter</text>
</a>
</g>
</g>
<!-- Node2&#45;&gt;Node3 -->
<g id="edge2" class="edge"><title>Node2&#45;&gt;Node3</title>
<path fill="none" stroke="midnightblue" d="M205.423,-74.064C222.59,-80.0509 245.273,-87.9618 265.815,-95.126"/>
<polygon fill="midnightblue" stroke="midnightblue" points="264.789,-98.4747 275.384,-98.463 267.094,-91.8652 264.789,-98.4747"/>
</g>
<!-- Node4 -->
<g id="node4" class="node"><title>Node4</title>
<g id="a_node4"><a xlink:href="../../db/dcf/classdevice_1_1_c_dev.html#a45d9c9e0630344d2d71002e015ddebab" target="_top" xlink:title="Check the current state of the device for poll events from the perspective of the file...">
<polygon fill="white" stroke="black" points="270.5,-49.5 270.5,-79.5 368.5,-79.5 368.5,-49.5 270.5,-49.5"/>
<text text-anchor="start" x="278.5" y="-67.5" font-family="Helvetica,sans-Serif" font-size="10.00">device::CDev::poll</text>
<text text-anchor="middle" x="319.5" y="-56.5" font-family="Helvetica,sans-Serif" font-size="10.00">_state</text>
</a>
</g>
</g>
<!-- Node2&#45;&gt;Node4 -->
<g id="edge3" class="edge"><title>Node2&#45;&gt;Node4</title>
<path fill="none" stroke="midnightblue" d="M226.352,-64.5C237.17,-64.5 248.757,-64.5 259.938,-64.5"/>
<polygon fill="midnightblue" stroke="midnightblue" points="260.059,-68.0001 270.059,-64.5 260.059,-61.0001 260.059,-68.0001"/>
</g>
<!-- Node5 -->
<g id="node5" class="node"><title>Node5</title>
<g id="a_node5"><a xlink:href="../../db/dcf/classdevice_1_1_c_dev.html#ab16e9c91aca41e5c7067f0d978ceee2a" target="_top" xlink:title="Remove a poll waiter. ">
<polygon fill="white" stroke="black" points="262,-0.5 262,-30.5 377,-30.5 377,-0.5 262,-0.5"/>
<text text-anchor="start" x="270" y="-18.5" font-family="Helvetica,sans-Serif" font-size="10.00">device::CDev::remove</text>
<text text-anchor="middle" x="319.5" y="-7.5" font-family="Helvetica,sans-Serif" font-size="10.00">_poll_waiter</text>
</a>
</g>
</g>
<!-- Node2&#45;&gt;Node5 -->
<g id="edge4" class="edge"><title>Node2&#45;&gt;Node5</title>
<path fill="none" stroke="midnightblue" d="M205.423,-54.936C222.59,-48.9491 245.273,-41.0382 265.815,-33.874"/>
<polygon fill="midnightblue" stroke="midnightblue" points="267.094,-37.1348 275.384,-30.537 264.789,-30.5253 267.094,-37.1348"/>
</g>
</g>
</svg>
