<?xml version="1.0" encoding="UTF-8" standalone="no"?>
<!DOCTYPE svg PUBLIC "-//W3C//DTD SVG 1.1//EN"
 "http://www.w3.org/Graphics/SVG/1.1/DTD/svg11.dtd">
<!-- Generated by graphviz version 2.38.0 (20140413.2041)
 -->
<!-- Title: MixerGroup::set_airmode Pages: 1 -->
<svg width="1416pt" height="379pt"
 viewBox="0.00 0.00 1416.00 379.00" xmlns="http://www.w3.org/2000/svg" xmlns:xlink="http://www.w3.org/1999/xlink">
<g id="graph0" class="graph" transform="scale(1 1) rotate(0) translate(4 375)">
<title>MixerGroup::set_airmode</title>
<polygon fill="white" stroke="none" points="-4,4 -4,-375 1412,-375 1412,4 -4,4"/>
<!-- Node1 -->
<g id="node1" class="node"><title>Node1</title>
<polygon fill="#bfbfbf" stroke="black" points="0,-180.5 0,-199.5 126,-199.5 126,-180.5 0,-180.5"/>
<text text-anchor="middle" x="63" y="-187.5" font-family="Helvetica,sans-Serif" font-size="10.00">MixerGroup::set_airmode</text>
</g>
<!-- Node2 -->
<g id="node2" class="node"><title>Node2</title>
<g id="a_node2"><a xlink:href="../../d2/da9/class_t_a_p___e_s_c.html#a4edd57e3842a3ed37fd6af6f9a0113a4" target="_top" xlink:title="TAP_ESC::cycle">
<polygon fill="white" stroke="black" points="182.5,-332.5 182.5,-351.5 274.5,-351.5 274.5,-332.5 182.5,-332.5"/>
<text text-anchor="middle" x="228.5" y="-339.5" font-family="Helvetica,sans-Serif" font-size="10.00">TAP_ESC::cycle</text>
</a>
</g>
</g>
<!-- Node1&#45;&gt;Node2 -->
<g id="edge1" class="edge"><title>Node1&#45;&gt;Node2</title>
<path fill="none" stroke="midnightblue" d="M76.4722,-207.972C93.7169,-231.928 126.731,-274.7 162,-304 175.854,-315.509 193.639,-325.583 207.179,-332.461"/>
<polygon fill="midnightblue" stroke="midnightblue" points="79.1077,-205.637 70.47,-199.502 73.3964,-209.685 79.1077,-205.637"/>
</g>
<!-- Node4 -->
<g id="node4" class="node"><title>Node4</title>
<g id="a_node4"><a xlink:href="../../df/d64/class_p_x4_f_m_u.html#a43ad674cda8424c0e73eef495a49e88c" target="_top" xlink:title="run the main loop: if running as task, continuously iterate, otherwise execute only one single cycle ...">
<polygon fill="white" stroke="black" points="185.5,-275.5 185.5,-294.5 271.5,-294.5 271.5,-275.5 185.5,-275.5"/>
<text text-anchor="middle" x="228.5" y="-282.5" font-family="Helvetica,sans-Serif" font-size="10.00">PX4FMU::cycle</text>
</a>
</g>
</g>
<!-- Node1&#45;&gt;Node4 -->
<g id="edge3" class="edge"><title>Node1&#45;&gt;Node4</title>
<path fill="none" stroke="midnightblue" d="M89.4134,-204.766C123.264,-224.435 182.204,-258.681 210.879,-275.343"/>
<polygon fill="midnightblue" stroke="midnightblue" points="90.9818,-201.63 80.577,-199.632 87.4651,-207.682 90.9818,-201.63"/>
</g>
<!-- Node14 -->
<g id="node14" class="node"><title>Node14</title>
<g id="a_node14"><a xlink:href="../../d8/d05/px4io_8h.html#ae4335b0132a371f64a91cbc19cb518e4" target="_top" xlink:title="mixer_tick">
<polygon fill="white" stroke="black" points="197.5,-199.5 197.5,-218.5 259.5,-218.5 259.5,-199.5 197.5,-199.5"/>
<text text-anchor="middle" x="228.5" y="-206.5" font-family="Helvetica,sans-Serif" font-size="10.00">mixer_tick</text>
</a>
</g>
</g>
<!-- Node1&#45;&gt;Node14 -->
<g id="edge18" class="edge"><title>Node1&#45;&gt;Node14</title>
<path fill="none" stroke="midnightblue" d="M136.386,-198.412C157.848,-200.906 180.182,-203.501 197.367,-205.498"/>
<polygon fill="midnightblue" stroke="midnightblue" points="136.616,-194.915 126.279,-197.237 135.808,-201.868 136.616,-194.915"/>
</g>
<!-- Node16 -->
<g id="node16" class="node"><title>Node16</title>
<g id="a_node16"><a xlink:href="../../d7/d56/class_p_w_m_sim.html#aed1047e5bd8fbe7d9f4688ada2639001" target="_top" xlink:title="PWMSim::run">
<polygon fill="white" stroke="black" points="189.5,-161.5 189.5,-180.5 267.5,-180.5 267.5,-161.5 189.5,-161.5"/>
<text text-anchor="middle" x="228.5" y="-168.5" font-family="Helvetica,sans-Serif" font-size="10.00">PWMSim::run</text>
</a>
</g>
</g>
<!-- Node1&#45;&gt;Node16 -->
<g id="edge20" class="edge"><title>Node1&#45;&gt;Node16</title>
<path fill="none" stroke="midnightblue" d="M136.289,-181.599C154.466,-179.487 173.276,-177.301 189.058,-175.467"/>
<polygon fill="midnightblue" stroke="midnightblue" points="135.808,-178.132 126.279,-182.763 136.616,-185.085 135.808,-178.132"/>
</g>
<!-- Node17 -->
<g id="node17" class="node"><title>Node17</title>
<g id="a_node17"><a xlink:href="../../d5/d94/class_uavcan_node.html#aa5f18742853ca1adad2e98067f0806d7" target="_top" xlink:title="UavcanNode::run">
<polygon fill="white" stroke="black" points="182,-120.5 182,-139.5 275,-139.5 275,-120.5 182,-120.5"/>
<text text-anchor="middle" x="228.5" y="-127.5" font-family="Helvetica,sans-Serif" font-size="10.00">UavcanNode::run</text>
</a>
</g>
</g>
<!-- Node1&#45;&gt;Node17 -->
<g id="edge21" class="edge"><title>Node1&#45;&gt;Node17</title>
<path fill="none" stroke="midnightblue" d="M97.0247,-176.76C115.962,-169.277 140.226,-159.873 162,-152 173.732,-147.758 186.742,-143.331 198.055,-139.571"/>
<polygon fill="midnightblue" stroke="midnightblue" points="95.6533,-173.539 87.6488,-180.48 98.2347,-180.045 95.6533,-173.539"/>
</g>
<!-- Node26 -->
<g id="node26" class="node"><title>Node26</title>
<g id="a_node26"><a xlink:href="../../d0/db0/namespacelinux__pwm__out.html#a430e02c86db26f5d5bf6c2db3af002d3" target="_top" xlink:title="linux_pwm_out::task_main">
<polygon fill="white" stroke="black" points="162,-49.5 162,-68.5 295,-68.5 295,-49.5 162,-49.5"/>
<text text-anchor="middle" x="228.5" y="-56.5" font-family="Helvetica,sans-Serif" font-size="10.00">linux_pwm_out::task_main</text>
</a>
</g>
</g>
<!-- Node1&#45;&gt;Node26 -->
<g id="edge33" class="edge"><title>Node1&#45;&gt;Node26</title>
<path fill="none" stroke="midnightblue" d="M83.7079,-174.042C103.473,-158.054 134.797,-132.762 162,-111 180.594,-96.125 202.246,-78.9678 215.406,-68.5571"/>
<polygon fill="midnightblue" stroke="midnightblue" points="81.3156,-171.475 75.7436,-180.486 85.719,-176.917 81.3156,-171.475"/>
</g>
<!-- Node3 -->
<g id="node3" class="node"><title>Node3</title>
<g id="a_node3"><a xlink:href="../../d2/da9/class_t_a_p___e_s_c.html#a24c08fd964d11944b1f351dbb5723dd5" target="_top" xlink:title="TAP_ESC::run">
<polygon fill="white" stroke="black" points="364.5,-351.5 364.5,-370.5 446.5,-370.5 446.5,-351.5 364.5,-351.5"/>
<text text-anchor="middle" x="405.5" y="-358.5" font-family="Helvetica,sans-Serif" font-size="10.00">TAP_ESC::run</text>
</a>
</g>
</g>
<!-- Node2&#45;&gt;Node3 -->
<g id="edge2" class="edge"><title>Node2&#45;&gt;Node3</title>
<path fill="none" stroke="midnightblue" d="M284.606,-347.983C310.463,-350.79 340.715,-354.075 364.362,-356.642"/>
<polygon fill="midnightblue" stroke="midnightblue" points="284.886,-344.493 274.567,-346.893 284.131,-351.452 284.886,-344.493"/>
</g>
<!-- Node5 -->
<g id="node5" class="node"><title>Node5</title>
<g id="a_node5"><a xlink:href="../../df/d64/class_p_x4_f_m_u.html#ac9da4f8ca94a6a8dd1944fa60cd94c39" target="_top" xlink:title="PX4FMU::cycle_trampoline">
<polygon fill="white" stroke="black" points="337,-313.5 337,-332.5 474,-332.5 474,-313.5 337,-313.5"/>
<text text-anchor="middle" x="405.5" y="-320.5" font-family="Helvetica,sans-Serif" font-size="10.00">PX4FMU::cycle_trampoline</text>
</a>
</g>
</g>
<!-- Node4&#45;&gt;Node5 -->
<g id="edge4" class="edge"><title>Node4&#45;&gt;Node5</title>
<path fill="none" stroke="midnightblue" d="M281.968,-290.149C315.466,-296.403 357.17,-305.981 382.27,-313.494"/>
<polygon fill="midnightblue" stroke="midnightblue" points="282.326,-286.657 271.863,-288.321 281.08,-293.545 282.326,-286.657"/>
</g>
<!-- Node13 -->
<g id="node13" class="node"><title>Node13</title>
<g id="a_node13"><a xlink:href="../../df/d64/class_p_x4_f_m_u.html#a00f750c72c6cc1f0bd156b5de4d9fac9" target="_top" xlink:title="PX4FMU::run">
<polygon fill="white" stroke="black" points="367,-275.5 367,-294.5 444,-294.5 444,-275.5 367,-275.5"/>
<text text-anchor="middle" x="405.5" y="-282.5" font-family="Helvetica,sans-Serif" font-size="10.00">PX4FMU::run</text>
</a>
</g>
</g>
<!-- Node4&#45;&gt;Node13 -->
<g id="edge17" class="edge"><title>Node4&#45;&gt;Node13</title>
<path fill="none" stroke="midnightblue" d="M282.052,-285C309.409,-285 342.219,-285 366.988,-285"/>
<polygon fill="midnightblue" stroke="midnightblue" points="281.863,-281.5 271.863,-285 281.863,-288.5 281.863,-281.5"/>
</g>
<!-- Node5&#45;&gt;Node4 -->
<g id="edge16" class="edge"><title>Node5&#45;&gt;Node4</title>
<path fill="none" stroke="midnightblue" d="M326.833,-312.847C299.607,-307.147 271.094,-300.285 252.02,-294.592"/>
<polygon fill="midnightblue" stroke="midnightblue" points="326.286,-316.308 336.786,-314.891 327.694,-309.451 326.286,-316.308"/>
</g>
<!-- Node6 -->
<g id="node6" class="node"><title>Node6</title>
<g id="a_node6"><a xlink:href="../../df/d64/class_p_x4_f_m_u.html#a5b136c43e6ad85e8018a6202cf2a1d91" target="_top" xlink:title="PX4FMU::arm_nothrottle">
<polygon fill="white" stroke="black" points="516,-237.5 516,-256.5 641,-256.5 641,-237.5 516,-237.5"/>
<text text-anchor="middle" x="578.5" y="-244.5" font-family="Helvetica,sans-Serif" font-size="10.00">PX4FMU::arm_nothrottle</text>
</a>
</g>
</g>
<!-- Node5&#45;&gt;Node6 -->
<g id="edge5" class="edge"><title>Node5&#45;&gt;Node6</title>
<path fill="none" stroke="midnightblue" d="M461.413,-310.597C467.765,-308.637 474.083,-306.439 480,-304 511.723,-290.923 545.637,-269.089 563.922,-256.581"/>
<polygon fill="midnightblue" stroke="midnightblue" points="460.085,-307.337 451.454,-313.481 462.033,-314.061 460.085,-307.337"/>
</g>
<!-- Node12 -->
<g id="node12" class="node"><title>Node12</title>
<g id="a_node12"><a xlink:href="../../df/d64/class_p_x4_f_m_u.html#a622e54b376f05bfd26ec16cbbe2889bf" target="_top" xlink:title="PX4FMU::task_spawn">
<polygon fill="white" stroke="black" points="997,-313.5 997,-332.5 1113,-332.5 1113,-313.5 997,-313.5"/>
<text text-anchor="middle" x="1055" y="-320.5" font-family="Helvetica,sans-Serif" font-size="10.00">PX4FMU::task_spawn</text>
</a>
</g>
</g>
<!-- Node5&#45;&gt;Node12 -->
<g id="edge14" class="edge"><title>Node5&#45;&gt;Node12</title>
<path fill="none" stroke="midnightblue" d="M484.29,-323C616.065,-323 880.198,-323 996.63,-323"/>
<polygon fill="midnightblue" stroke="midnightblue" points="484.266,-319.5 474.265,-323 484.265,-326.5 484.266,-319.5"/>
</g>
<!-- Node6&#45;&gt;Node4 -->
<g id="edge6" class="edge"><title>Node6&#45;&gt;Node4</title>
<path fill="none" stroke="midnightblue" d="M505.527,-250.491C456.254,-253.384 389.5,-258.293 331,-266 311.449,-268.576 289.959,-272.446 271.807,-276.023"/>
<polygon fill="midnightblue" stroke="midnightblue" points="505.984,-253.971 515.767,-249.904 505.583,-246.982 505.984,-253.971"/>
</g>
<!-- Node7 -->
<g id="node7" class="node"><title>Node7</title>
<g id="a_node7"><a xlink:href="../../df/d64/class_p_x4_f_m_u.html#a8356cf6dbd154120ecef8b3a9c096f10" target="_top" xlink:title="PX4FMU::control_callback">
<polygon fill="white" stroke="black" points="677,-237.5 677,-256.5 811,-256.5 811,-237.5 677,-237.5"/>
<text text-anchor="middle" x="744" y="-244.5" font-family="Helvetica,sans-Serif" font-size="10.00">PX4FMU::control_callback</text>
</a>
</g>
</g>
<!-- Node6&#45;&gt;Node7 -->
<g id="edge7" class="edge"><title>Node6&#45;&gt;Node7</title>
<path fill="none" stroke="midnightblue" d="M651.468,-240.293C659.871,-240.219 668.414,-240.241 676.734,-240.359"/>
<polygon fill="midnightblue" stroke="midnightblue" points="651.264,-236.796 641.312,-240.432 651.359,-243.795 651.264,-236.796"/>
</g>
<!-- Node7&#45;&gt;Node6 -->
<g id="edge8" class="edge"><title>Node7&#45;&gt;Node6</title>
<path fill="none" stroke="midnightblue" d="M666.499,-253.738C658.058,-253.777 649.542,-253.721 641.312,-253.568"/>
<polygon fill="midnightblue" stroke="midnightblue" points="666.767,-257.235 676.734,-253.641 666.701,-250.236 666.767,-257.235"/>
</g>
<!-- Node8 -->
<g id="node8" class="node"><title>Node8</title>
<g id="a_node8"><a xlink:href="../../df/d64/class_p_x4_f_m_u.html#a752977b081b3aaff1e3b7bbc045f92da" target="_top" xlink:title="PX4FMU::pwm_ioctl">
<polygon fill="white" stroke="black" points="850.5,-275.5 850.5,-294.5 957.5,-294.5 957.5,-275.5 850.5,-275.5"/>
<text text-anchor="middle" x="904" y="-282.5" font-family="Helvetica,sans-Serif" font-size="10.00">PX4FMU::pwm_ioctl</text>
</a>
</g>
</g>
<!-- Node7&#45;&gt;Node8 -->
<g id="edge9" class="edge"><title>Node7&#45;&gt;Node8</title>
<path fill="none" stroke="midnightblue" d="M794.762,-258.968C816.903,-264.293 842.612,-270.476 863.417,-275.48"/>
<polygon fill="midnightblue" stroke="midnightblue" points="795.411,-255.524 784.87,-256.589 793.774,-262.33 795.411,-255.524"/>
</g>
<!-- Node8&#45;&gt;Node6 -->
<g id="edge10" class="edge"><title>Node8&#45;&gt;Node6</title>
<path fill="none" stroke="midnightblue" d="M840.298,-281.562C794.827,-278.623 731.93,-273.638 677,-266 659.236,-263.53 639.813,-259.931 623.012,-256.528"/>
<polygon fill="midnightblue" stroke="midnightblue" points="840.104,-285.056 850.305,-282.194 840.545,-278.07 840.104,-285.056"/>
</g>
<!-- Node9 -->
<g id="node9" class="node"><title>Node9</title>
<g id="a_node9"><a xlink:href="../../df/d64/class_p_x4_f_m_u.html#a6c7f1f9ce2ff2750102a5e1f2fa9d567" target="_top" xlink:title="PX4FMU::ioctl">
<polygon fill="white" stroke="black" points="1014.5,-275.5 1014.5,-294.5 1095.5,-294.5 1095.5,-275.5 1014.5,-275.5"/>
<text text-anchor="middle" x="1055" y="-282.5" font-family="Helvetica,sans-Serif" font-size="10.00">PX4FMU::ioctl</text>
</a>
</g>
</g>
<!-- Node8&#45;&gt;Node9 -->
<g id="edge11" class="edge"><title>Node8&#45;&gt;Node9</title>
<path fill="none" stroke="midnightblue" d="M967.723,-285C983.433,-285 999.861,-285 1014.12,-285"/>
<polygon fill="midnightblue" stroke="midnightblue" points="967.532,-281.5 957.532,-285 967.532,-288.5 967.532,-281.5"/>
</g>
<!-- Node10 -->
<g id="node10" class="node"><title>Node10</title>
<g id="a_node10"><a xlink:href="../../df/d64/class_p_x4_f_m_u.html#a6df04f77bccef2ecc99e3b0fe63da5fc" target="_top" xlink:title="PX4FMU::test">
<polygon fill="white" stroke="black" points="1149,-275.5 1149,-294.5 1229,-294.5 1229,-275.5 1149,-275.5"/>
<text text-anchor="middle" x="1189" y="-282.5" font-family="Helvetica,sans-Serif" font-size="10.00">PX4FMU::test</text>
</a>
</g>
</g>
<!-- Node9&#45;&gt;Node10 -->
<g id="edge12" class="edge"><title>Node9&#45;&gt;Node10</title>
<path fill="none" stroke="midnightblue" d="M1105.76,-285C1120.02,-285 1135.36,-285 1148.88,-285"/>
<polygon fill="midnightblue" stroke="midnightblue" points="1105.6,-281.5 1095.6,-285 1105.6,-288.5 1105.6,-281.5"/>
</g>
<!-- Node11 -->
<g id="node11" class="node"><title>Node11</title>
<g id="a_node11"><a xlink:href="../../df/d64/class_p_x4_f_m_u.html#a2be5e5695b54ad07a8e905b64992a46d" target="_top" xlink:title="PX4FMU::custom_command">
<polygon fill="white" stroke="black" points="1265,-294.5 1265,-313.5 1408,-313.5 1408,-294.5 1265,-294.5"/>
<text text-anchor="middle" x="1336.5" y="-301.5" font-family="Helvetica,sans-Serif" font-size="10.00">PX4FMU::custom_command</text>
</a>
</g>
</g>
<!-- Node10&#45;&gt;Node11 -->
<g id="edge13" class="edge"><title>Node10&#45;&gt;Node11</title>
<path fill="none" stroke="midnightblue" d="M1239.5,-291.464C1247.71,-292.536 1256.37,-293.666 1264.98,-294.791"/>
<polygon fill="midnightblue" stroke="midnightblue" points="1239.74,-287.966 1229.37,-290.142 1238.84,-294.907 1239.74,-287.966"/>
</g>
<!-- Node12&#45;&gt;Node11 -->
<g id="edge15" class="edge"><title>Node12&#45;&gt;Node11</title>
<path fill="none" stroke="midnightblue" d="M1123.28,-318.426C1166.11,-315.515 1221.5,-311.75 1264.95,-308.796"/>
<polygon fill="midnightblue" stroke="midnightblue" points="1122.98,-314.939 1113.24,-319.109 1123.45,-321.923 1122.98,-314.939"/>
</g>
<!-- Node15 -->
<g id="node15" class="node"><title>Node15</title>
<g id="a_node15"><a xlink:href="../../dd/d87/px4io_8c.html#aab5de16adab7a0da95ed57a9aba3c626" target="_top" xlink:title="user_start">
<polygon fill="white" stroke="black" points="375.5,-199.5 375.5,-218.5 435.5,-218.5 435.5,-199.5 375.5,-199.5"/>
<text text-anchor="middle" x="405.5" y="-206.5" font-family="Helvetica,sans-Serif" font-size="10.00">user_start</text>
</a>
</g>
</g>
<!-- Node14&#45;&gt;Node15 -->
<g id="edge19" class="edge"><title>Node14&#45;&gt;Node15</title>
<path fill="none" stroke="midnightblue" d="M269.593,-209C301.864,-209 346.46,-209 375.39,-209"/>
<polygon fill="midnightblue" stroke="midnightblue" points="269.584,-205.5 259.584,-209 269.584,-212.5 269.584,-205.5"/>
</g>
<!-- Node18 -->
<g id="node18" class="node"><title>Node18</title>
<g id="a_node18"><a xlink:href="../../d5/d94/class_uavcan_node.html#a13ed0c01582208064184373b44ea6d6d" target="_top" xlink:title="UavcanNode::start">
<polygon fill="white" stroke="black" points="356,-161.5 356,-180.5 455,-180.5 455,-161.5 356,-161.5"/>
<text text-anchor="middle" x="405.5" y="-168.5" font-family="Helvetica,sans-Serif" font-size="10.00">UavcanNode::start</text>
</a>
</g>
</g>
<!-- Node17&#45;&gt;Node18 -->
<g id="edge22" class="edge"><title>Node17&#45;&gt;Node18</title>
<path fill="none" stroke="midnightblue" d="M279.99,-141.829C306.61,-148.066 338.834,-155.615 363.829,-161.471"/>
<polygon fill="midnightblue" stroke="midnightblue" points="280.623,-138.383 270.088,-139.509 279.026,-145.198 280.623,-138.383"/>
</g>
<!-- Node24 -->
<g id="node24" class="node"><title>Node24</title>
<g id="a_node24"><a xlink:href="../../d5/d94/class_uavcan_node.html#aa89be231fb3bb5fb6329b5dea28b866c" target="_top" xlink:title="UavcanNode::attachITxQueue\lInjector">
<polygon fill="white" stroke="black" points="331,-112 331,-142 480,-142 480,-112 331,-112"/>
<text text-anchor="start" x="339" y="-130" font-family="Helvetica,sans-Serif" font-size="10.00">UavcanNode::attachITxQueue</text>
<text text-anchor="middle" x="405.5" y="-119" font-family="Helvetica,sans-Serif" font-size="10.00">Injector</text>
</a>
</g>
</g>
<!-- Node17&#45;&gt;Node24 -->
<g id="edge31" class="edge"><title>Node17&#45;&gt;Node24</title>
<path fill="none" stroke="midnightblue" d="M285.282,-129.044C299.733,-128.796 315.519,-128.525 330.736,-128.265"/>
<polygon fill="midnightblue" stroke="midnightblue" points="284.961,-125.549 275.022,-129.22 285.081,-132.548 284.961,-125.549"/>
</g>
<!-- Node25 -->
<g id="node25" class="node"><title>Node25</title>
<g id="a_node25"><a xlink:href="../../d0/dfe/class_restart_request_handler.html#ae2957db559b8494d1afb2f1fcb29cea3" target="_top" xlink:title="RestartRequestHandler\l::handleRestartRequest">
<polygon fill="white" stroke="black" points="345.5,-63 345.5,-93 465.5,-93 465.5,-63 345.5,-63"/>
<text text-anchor="start" x="353.5" y="-81" font-family="Helvetica,sans-Serif" font-size="10.00">RestartRequestHandler</text>
<text text-anchor="middle" x="405.5" y="-70" font-family="Helvetica,sans-Serif" font-size="10.00">::handleRestartRequest</text>
</a>
</g>
</g>
<!-- Node17&#45;&gt;Node25 -->
<g id="edge32" class="edge"><title>Node17&#45;&gt;Node25</title>
<path fill="none" stroke="midnightblue" d="M271.401,-117.55C296.122,-110.204 327.583,-100.855 353.71,-93.0918"/>
<polygon fill="midnightblue" stroke="midnightblue" points="270.187,-114.259 261.598,-120.462 272.18,-120.969 270.187,-114.259"/>
</g>
<!-- Node19 -->
<g id="node19" class="node"><title>Node19</title>
<g id="a_node19"><a xlink:href="../../dc/d91/uavcan__module_8hpp.html#a7c10586500dfc2bf6419399affc8e1a9" target="_top" xlink:title="uavcan_main">
<polygon fill="white" stroke="black" points="541.5,-194.5 541.5,-213.5 615.5,-213.5 615.5,-194.5 541.5,-194.5"/>
<text text-anchor="middle" x="578.5" y="-201.5" font-family="Helvetica,sans-Serif" font-size="10.00">uavcan_main</text>
</a>
</g>
</g>
<!-- Node18&#45;&gt;Node19 -->
<g id="edge23" class="edge"><title>Node18&#45;&gt;Node19</title>
<path fill="none" stroke="midnightblue" d="M464.93,-182.276C490.284,-187.169 519.179,-192.745 541.346,-197.023"/>
<polygon fill="midnightblue" stroke="midnightblue" points="465.526,-178.827 455.044,-180.368 464.2,-185.7 465.526,-178.827"/>
</g>
<!-- Node21 -->
<g id="node21" class="node"><title>Node21</title>
<g id="a_node21"><a xlink:href="../../d1/dfc/uavcannode__main_8cpp.html#aa5d73b47d975f5ba7be1925d14c02c63" target="_top" xlink:title="uavcannode_start">
<polygon fill="white" stroke="black" points="531.5,-132.5 531.5,-151.5 625.5,-151.5 625.5,-132.5 531.5,-132.5"/>
<text text-anchor="middle" x="578.5" y="-139.5" font-family="Helvetica,sans-Serif" font-size="10.00">uavcannode_start</text>
</a>
</g>
</g>
<!-- Node18&#45;&gt;Node21 -->
<g id="edge26" class="edge"><title>Node18&#45;&gt;Node21</title>
<path fill="none" stroke="midnightblue" d="M465.13,-161.057C486.817,-157.379 511.073,-153.265 531.482,-149.804"/>
<polygon fill="midnightblue" stroke="midnightblue" points="464.318,-157.644 455.044,-162.767 465.489,-164.546 464.318,-157.644"/>
</g>
<!-- Node20 -->
<g id="node20" class="node"><title>Node20</title>
<g id="a_node20"><a xlink:href="../../d7/de6/uavcan__main_8cpp.html#a5abe0071a53c95b01791701e62cc1e07" target="_top" xlink:title="print_usage">
<polygon fill="white" stroke="black" points="710.5,-194.5 710.5,-213.5 777.5,-213.5 777.5,-194.5 710.5,-194.5"/>
<text text-anchor="middle" x="744" y="-201.5" font-family="Helvetica,sans-Serif" font-size="10.00">print_usage</text>
</a>
</g>
</g>
<!-- Node19&#45;&gt;Node20 -->
<g id="edge24" class="edge"><title>Node19&#45;&gt;Node20</title>
<path fill="none" stroke="midnightblue" d="M625.788,-197.849C652.788,-196.877 686.189,-197.088 710.42,-198.48"/>
<polygon fill="midnightblue" stroke="midnightblue" points="625.626,-194.353 615.786,-198.28 625.927,-201.347 625.626,-194.353"/>
</g>
<!-- Node20&#45;&gt;Node19 -->
<g id="edge25" class="edge"><title>Node20&#45;&gt;Node19</title>
<path fill="none" stroke="midnightblue" d="M700.368,-210.01C674.102,-211.085 640.785,-210.989 615.786,-209.72"/>
<polygon fill="midnightblue" stroke="midnightblue" points="700.602,-213.503 710.42,-209.52 700.261,-206.511 700.602,-213.503"/>
</g>
<!-- Node22 -->
<g id="node22" class="node"><title>Node22</title>
<g id="a_node22"><a xlink:href="../../d1/dfc/uavcannode__main_8cpp.html#a5abe0071a53c95b01791701e62cc1e07" target="_top" xlink:title="print_usage">
<polygon fill="white" stroke="black" points="710.5,-156.5 710.5,-175.5 777.5,-175.5 777.5,-156.5 710.5,-156.5"/>
<text text-anchor="middle" x="744" y="-163.5" font-family="Helvetica,sans-Serif" font-size="10.00">print_usage</text>
</a>
</g>
</g>
<!-- Node21&#45;&gt;Node22 -->
<g id="edge27" class="edge"><title>Node21&#45;&gt;Node22</title>
<path fill="none" stroke="midnightblue" d="M635.977,-150.29C660.864,-153.943 689.216,-158.105 710.484,-161.227"/>
<polygon fill="midnightblue" stroke="midnightblue" points="636.318,-146.803 625.915,-148.813 635.301,-153.729 636.318,-146.803"/>
</g>
<!-- Node23 -->
<g id="node23" class="node"><title>Node23</title>
<g id="a_node23"><a xlink:href="../../d1/dfc/uavcannode__main_8cpp.html#a829e28ad70ccffca620793d7da2e2df6" target="_top" xlink:title="uavcannode_main">
<polygon fill="white" stroke="black" points="856.5,-109.5 856.5,-128.5 951.5,-128.5 951.5,-109.5 856.5,-109.5"/>
<text text-anchor="middle" x="904" y="-116.5" font-family="Helvetica,sans-Serif" font-size="10.00">uavcannode_main</text>
</a>
</g>
</g>
<!-- Node21&#45;&gt;Node23 -->
<g id="edge30" class="edge"><title>Node21&#45;&gt;Node23</title>
<path fill="none" stroke="midnightblue" d="M635.581,-132.755C698.074,-126.213 797.985,-119.225 856.366,-117.404"/>
<polygon fill="midnightblue" stroke="midnightblue" points="635.073,-129.289 625.506,-133.842 635.824,-136.249 635.073,-129.289"/>
</g>
<!-- Node22&#45;&gt;Node23 -->
<g id="edge28" class="edge"><title>Node22&#45;&gt;Node23</title>
<path fill="none" stroke="midnightblue" d="M786.679,-153.602C813.009,-145.77 846.519,-135.801 870.803,-128.578"/>
<polygon fill="midnightblue" stroke="midnightblue" points="785.561,-150.283 776.974,-156.489 787.557,-156.992 785.561,-150.283"/>
</g>
<!-- Node23&#45;&gt;Node21 -->
<g id="edge29" class="edge"><title>Node23&#45;&gt;Node21</title>
<path fill="none" stroke="midnightblue" d="M846.243,-128.316C783.483,-134.861 683.588,-141.832 625.506,-143.616"/>
<polygon fill="midnightblue" stroke="midnightblue" points="846.797,-131.776 856.366,-127.228 846.049,-124.816 846.797,-131.776"/>
</g>
<!-- Node27 -->
<g id="node27" class="node"><title>Node27</title>
<g id="a_node27"><a xlink:href="../../d0/db0/namespacelinux__pwm__out.html#abc075bdbbcfd59040e2522b15f6dca75" target="_top" xlink:title="linux_pwm_out::task\l_main_trampoline">
<polygon fill="white" stroke="black" points="352,-14 352,-44 459,-44 459,-14 352,-14"/>
<text text-anchor="start" x="360" y="-32" font-family="Helvetica,sans-Serif" font-size="10.00">linux_pwm_out::task</text>
<text text-anchor="middle" x="405.5" y="-21" font-family="Helvetica,sans-Serif" font-size="10.00">_main_trampoline</text>
</a>
</g>
</g>
<!-- Node26&#45;&gt;Node27 -->
<g id="edge34" class="edge"><title>Node26&#45;&gt;Node27</title>
<path fill="none" stroke="midnightblue" d="M295.27,-47.7252C313.957,-44.5216 334.057,-41.0759 351.856,-38.0247"/>
<polygon fill="midnightblue" stroke="midnightblue" points="294.617,-44.2859 285.352,-49.4253 295.8,-51.1853 294.617,-44.2859"/>
</g>
<!-- Node28 -->
<g id="node28" class="node"><title>Node28</title>
<g id="a_node28"><a xlink:href="../../d0/db0/namespacelinux__pwm__out.html#a15fd89cbae6f918aee78e46d9d018a7b" target="_top" xlink:title="linux_pwm_out::start">
<polygon fill="white" stroke="black" points="525,-38.5 525,-57.5 632,-57.5 632,-38.5 525,-38.5"/>
<text text-anchor="middle" x="578.5" y="-45.5" font-family="Helvetica,sans-Serif" font-size="10.00">linux_pwm_out::start</text>
</a>
</g>
</g>
<!-- Node27&#45;&gt;Node28 -->
<g id="edge35" class="edge"><title>Node27&#45;&gt;Node28</title>
<path fill="none" stroke="midnightblue" d="M469.201,-35.9668C487.523,-38.0025 507.351,-40.2057 524.973,-42.1637"/>
<polygon fill="midnightblue" stroke="midnightblue" points="469.526,-32.4815 459.201,-34.8557 468.753,-39.4387 469.526,-32.4815"/>
</g>
<!-- Node31 -->
<g id="node31" class="node"><title>Node31</title>
<g id="a_node31"><a xlink:href="../../de/d9c/class_ekf2.html#a8ad1745bc2cc2c53ac1c48c2ec2e172e" target="_top" xlink:title="Ekf2::set_replay_mode">
<polygon fill="white" stroke="black" points="520,-0.5 520,-19.5 637,-19.5 637,-0.5 520,-0.5"/>
<text text-anchor="middle" x="578.5" y="-7.5" font-family="Helvetica,sans-Serif" font-size="10.00">Ekf2::set_replay_mode</text>
</a>
</g>
</g>
<!-- Node27&#45;&gt;Node31 -->
<g id="edge39" class="edge"><title>Node27&#45;&gt;Node31</title>
<path fill="none" stroke="midnightblue" d="M469.325,-22.0194C485.879,-20.1801 503.654,-18.2051 519.916,-16.3982"/>
<polygon fill="midnightblue" stroke="midnightblue" points="468.753,-18.5613 459.201,-23.1443 469.526,-25.5185 468.753,-18.5613"/>
</g>
<!-- Node29 -->
<g id="node29" class="node"><title>Node29</title>
<g id="a_node29"><a xlink:href="../../da/dd6/linux__pwm__out_8cpp.html#a412407ab462307bbeb3e9198bc9872ce" target="_top" xlink:title="linux_pwm_out_main">
<polygon fill="white" stroke="black" points="690,-38.5 690,-57.5 798,-57.5 798,-38.5 690,-38.5"/>
<text text-anchor="middle" x="744" y="-45.5" font-family="Helvetica,sans-Serif" font-size="10.00">linux_pwm_out_main</text>
</a>
</g>
</g>
<!-- Node28&#45;&gt;Node29 -->
<g id="edge36" class="edge"><title>Node28&#45;&gt;Node29</title>
<path fill="none" stroke="midnightblue" d="M642.291,-48C658.007,-48 674.712,-48 689.906,-48"/>
<polygon fill="midnightblue" stroke="midnightblue" points="642.132,-44.5001 632.132,-48 642.132,-51.5001 642.132,-44.5001"/>
</g>
<!-- Node30 -->
<g id="node30" class="node"><title>Node30</title>
<g id="a_node30"><a xlink:href="../../d0/db0/namespacelinux__pwm__out.html#a3eab6d177df998cc3a3fe0664f591369" target="_top" xlink:title="linux_pwm_out::usage">
<polygon fill="white" stroke="black" points="847,-38.5 847,-57.5 961,-57.5 961,-38.5 847,-38.5"/>
<text text-anchor="middle" x="904" y="-45.5" font-family="Helvetica,sans-Serif" font-size="10.00">linux_pwm_out::usage</text>
</a>
</g>
</g>
<!-- Node29&#45;&gt;Node30 -->
<g id="edge37" class="edge"><title>Node29&#45;&gt;Node30</title>
<path fill="none" stroke="midnightblue" d="M808.157,-41.3721C820.947,-41.1725 834.314,-41.2176 846.842,-41.5073"/>
<polygon fill="midnightblue" stroke="midnightblue" points="807.975,-37.8751 798.051,-41.5846 808.123,-44.8735 807.975,-37.8751"/>
</g>
<!-- Node30&#45;&gt;Node29 -->
<g id="edge38" class="edge"><title>Node30&#45;&gt;Node29</title>
<path fill="none" stroke="midnightblue" d="M836.642,-54.6726C823.766,-54.8315 810.431,-54.7458 798.051,-54.4154"/>
<polygon fill="midnightblue" stroke="midnightblue" points="836.906,-58.1686 846.842,-54.4927 836.782,-51.1697 836.906,-58.1686"/>
</g>
<!-- Node32 -->
<g id="node32" class="node"><title>Node32</title>
<g id="a_node32"><a xlink:href="../../de/d9c/class_ekf2.html#a0c2ca6006a7790b7b1ed1a5ca7d1de3d" target="_top" xlink:title="Ekf2::instantiate">
<polygon fill="white" stroke="black" points="700,-0.5 700,-19.5 788,-19.5 788,-0.5 700,-0.5"/>
<text text-anchor="middle" x="744" y="-7.5" font-family="Helvetica,sans-Serif" font-size="10.00">Ekf2::instantiate</text>
</a>
</g>
</g>
<!-- Node31&#45;&gt;Node32 -->
<g id="edge40" class="edge"><title>Node31&#45;&gt;Node32</title>
<path fill="none" stroke="midnightblue" d="M647.435,-10C665.133,-10 683.72,-10 699.748,-10"/>
<polygon fill="midnightblue" stroke="midnightblue" points="647.144,-6.5001 637.144,-10 647.144,-13.5001 647.144,-6.5001"/>
</g>
</g>
</svg>
