<?xml version="1.0" encoding="UTF-8" standalone="no"?>
<!DOCTYPE svg PUBLIC "-//W3C//DTD SVG 1.1//EN"
 "http://www.w3.org/Graphics/SVG/1.1/DTD/svg11.dtd">
<!-- Generated by graphviz version 2.38.0 (20140413.2041)
 -->
<!-- Title: MixerGroup::set_thrust_factor Pages: 1 -->
<!--zoomable 180 -->
<svg id="main" version="1.1" xmlns="http://www.w3.org/2000/svg" xmlns:xlink="http://www.w3.org/1999/xlink" xml:space="preserve" onload="init(evt)">
<style type="text/css"><![CDATA[
.edge:hover path { stroke: red; }
.edge:hover polygon { stroke: red; fill: red; }
]]></style>
<script type="text/javascript"><![CDATA[
var edges = document.getElementsByTagName('g');
if (edges && edges.length) {
  for (var i=0;i<edges.length;i++) {
    if (edges[i].id.substr(0,4)=='edge') {
      edges[i].setAttribute('class','edge');
    }
  }
}
]]></script>
        <defs>
                <circle id="rim" cx="0" cy="0" r="7"/>
                <circle id="rim2" cx="0" cy="0" r="3.5"/>
                <g id="zoomPlus">
                        <use xlink:href="#rim" fill="#404040">
                                <set attributeName="fill" to="#808080" begin="zoomplus.mouseover" end="zoomplus.mouseout"/>
                        </use>
                        <path d="M-4,0h8M0,-4v8" fill="none" stroke="white" stroke-width="1.5" pointer-events="none"/>
                </g>
                <g id="zoomMin">
                        <use xlink:href="#rim" fill="#404040">
                                <set attributeName="fill" to="#808080" begin="zoomminus.mouseover" end="zoomminus.mouseout"/>
                        </use>
                        <path d="M-4,0h8" fill="none" stroke="white" stroke-width="1.5" pointer-events="none"/>
                </g>
                <g id="dirArrow">
                        <path fill="none" stroke="white" stroke-width="1.5" d="M0,-3.0v7 M-2.5,-0.5L0,-3.0L2.5,-0.5"/>
                </g>
               <g id="resetDef">
                       <use xlink:href="#rim2" fill="#404040">
                               <set attributeName="fill" to="#808080" begin="reset.mouseover" end="reset.mouseout"/>
                       </use>
               </g>
        </defs>

<script type="text/javascript">
var viewWidth = 1350;
var viewHeight = 180;
var sectionId = 'dynsection-22';
</script>
<script xlink:href="../../svgpan.js"/>
<svg id="graph" class="graph">
<g id="viewport">
<title>MixerGroup::set_thrust_factor</title>
<polygon fill="white" stroke="none" points="-4,4 -4,-176 1346,-176 1346,4 -4,4"/>
<!-- Node1 -->
<g id="node1" class="node"><title>Node1</title>
<polygon fill="#bfbfbf" stroke="black" points="0,-33 0,-63 116,-63 116,-33 0,-33"/>
<text text-anchor="start" x="8" y="-51" font-family="Helvetica,sans-Serif" font-size="10.00">MixerGroup::set_thrust</text>
<text text-anchor="middle" x="58" y="-40" font-family="Helvetica,sans-Serif" font-size="10.00">_factor</text>
</g>
<!-- Node2 -->
<g id="node2" class="node"><title>Node2</title>
<g id="a_node2"><a xlink:href="../../df/d64/class_p_x4_f_m_u.html#a43ad674cda8424c0e73eef495a49e88c" target="_top" xlink:title="run the main loop: if running as task, continuously iterate, otherwise execute only one single cycle ...">
<polygon fill="white" stroke="black" points="157,-76.5 157,-95.5 243,-95.5 243,-76.5 157,-76.5"/>
<text text-anchor="middle" x="200" y="-83.5" font-family="Helvetica,sans-Serif" font-size="10.00">PX4FMU::cycle</text>
</a>
</g>
</g>
<!-- Node1&#45;&gt;Node2 -->
<g id="edge1" class="edge"><title>Node1&#45;&gt;Node2</title>
<path fill="none" stroke="midnightblue" d="M124.197,-65.6965C137.847,-69.4013 151.741,-73.1725 163.791,-76.4432"/>
<polygon fill="midnightblue" stroke="midnightblue" points="124.899,-62.2604 114.332,-63.0186 123.066,-69.016 124.899,-62.2604"/>
</g>
<!-- Node12 -->
<g id="node12" class="node"><title>Node12</title>
<g id="a_node12"><a xlink:href="../../d8/d05/px4io_8h.html#a5c66f0c352601371118189378ae19dee" target="_top" xlink:title="mixer_set_failsafe">
<polygon fill="white" stroke="black" points="152,-38.5 152,-57.5 248,-57.5 248,-38.5 152,-38.5"/>
<text text-anchor="middle" x="200" y="-45.5" font-family="Helvetica,sans-Serif" font-size="10.00">mixer_set_failsafe</text>
</a>
</g>
</g>
<!-- Node1&#45;&gt;Node12 -->
<g id="edge16" class="edge"><title>Node1&#45;&gt;Node12</title>
<path fill="none" stroke="midnightblue" d="M126.373,-48C134.961,-48 143.601,-48 151.776,-48"/>
<polygon fill="midnightblue" stroke="midnightblue" points="126.347,-44.5001 116.347,-48 126.347,-51.5001 126.347,-44.5001"/>
</g>
<!-- Node22 -->
<g id="node22" class="node"><title>Node22</title>
<g id="a_node22"><a xlink:href="../../d8/d05/px4io_8h.html#ae4335b0132a371f64a91cbc19cb518e4" target="_top" xlink:title="mixer_tick">
<polygon fill="white" stroke="black" points="169,-0.5 169,-19.5 231,-19.5 231,-0.5 169,-0.5"/>
<text text-anchor="middle" x="200" y="-7.5" font-family="Helvetica,sans-Serif" font-size="10.00">mixer_tick</text>
</a>
</g>
</g>
<!-- Node1&#45;&gt;Node22 -->
<g id="edge29" class="edge"><title>Node1&#45;&gt;Node22</title>
<path fill="none" stroke="midnightblue" d="M124.409,-30.2461C139.858,-26.0528 155.607,-21.7782 168.627,-18.244"/>
<polygon fill="midnightblue" stroke="midnightblue" points="123.066,-26.984 114.332,-32.9814 124.899,-33.7396 123.066,-26.984"/>
</g>
<!-- Node3 -->
<g id="node3" class="node"><title>Node3</title>
<g id="a_node3"><a xlink:href="../../df/d64/class_p_x4_f_m_u.html#ac9da4f8ca94a6a8dd1944fa60cd94c39" target="_top" xlink:title="PX4FMU::cycle_trampoline">
<polygon fill="white" stroke="black" points="284,-76.5 284,-95.5 421,-95.5 421,-76.5 284,-76.5"/>
<text text-anchor="middle" x="352.5" y="-83.5" font-family="Helvetica,sans-Serif" font-size="10.00">PX4FMU::cycle_trampoline</text>
</a>
</g>
</g>
<!-- Node2&#45;&gt;Node3 -->
<g id="edge2" class="edge"><title>Node2&#45;&gt;Node3</title>
<path fill="none" stroke="midnightblue" d="M253.348,-79.5359C263.199,-79.2827 273.629,-79.1977 283.869,-79.2808"/>
<polygon fill="midnightblue" stroke="midnightblue" points="253.205,-76.0386 243.323,-79.8607 253.431,-83.0349 253.205,-76.0386"/>
</g>
<!-- Node11 -->
<g id="node11" class="node"><title>Node11</title>
<g id="a_node11"><a xlink:href="../../df/d64/class_p_x4_f_m_u.html#a00f750c72c6cc1f0bd156b5de4d9fac9" target="_top" xlink:title="PX4FMU::run">
<polygon fill="white" stroke="black" points="314,-152.5 314,-171.5 391,-171.5 391,-152.5 314,-152.5"/>
<text text-anchor="middle" x="352.5" y="-159.5" font-family="Helvetica,sans-Serif" font-size="10.00">PX4FMU::run</text>
</a>
</g>
</g>
<!-- Node2&#45;&gt;Node11 -->
<g id="edge15" class="edge"><title>Node2&#45;&gt;Node11</title>
<path fill="none" stroke="midnightblue" d="M222.584,-101.355C238.911,-112.51 262.174,-127.439 284,-138 295.42,-143.525 308.455,-148.458 320.006,-152.393"/>
<polygon fill="midnightblue" stroke="midnightblue" points="224.492,-98.4195 214.28,-95.5984 220.504,-104.172 224.492,-98.4195"/>
</g>
<!-- Node3&#45;&gt;Node2 -->
<g id="edge14" class="edge"><title>Node3&#45;&gt;Node2</title>
<path fill="none" stroke="midnightblue" d="M273.811,-92.7468C263.312,-92.7197 252.877,-92.5172 243.323,-92.1393"/>
<polygon fill="midnightblue" stroke="midnightblue" points="273.879,-96.2468 283.869,-92.7192 273.86,-89.2468 273.879,-96.2468"/>
</g>
<!-- Node4 -->
<g id="node4" class="node"><title>Node4</title>
<g id="a_node4"><a xlink:href="../../df/d64/class_p_x4_f_m_u.html#a5b136c43e6ad85e8018a6202cf2a1d91" target="_top" xlink:title="PX4FMU::arm_nothrottle">
<polygon fill="white" stroke="black" points="457,-114.5 457,-133.5 582,-133.5 582,-114.5 457,-114.5"/>
<text text-anchor="middle" x="519.5" y="-121.5" font-family="Helvetica,sans-Serif" font-size="10.00">PX4FMU::arm_nothrottle</text>
</a>
</g>
</g>
<!-- Node3&#45;&gt;Node4 -->
<g id="edge3" class="edge"><title>Node3&#45;&gt;Node4</title>
<path fill="none" stroke="midnightblue" d="M405.154,-97.8961C428.346,-103.237 455.338,-109.454 477.163,-114.48"/>
<polygon fill="midnightblue" stroke="midnightblue" points="405.667,-94.4226 395.136,-95.589 404.096,-101.244 405.667,-94.4226"/>
</g>
<!-- Node10 -->
<g id="node10" class="node"><title>Node10</title>
<g id="a_node10"><a xlink:href="../../df/d64/class_p_x4_f_m_u.html#a622e54b376f05bfd26ec16cbbe2889bf" target="_top" xlink:title="PX4FMU::task_spawn">
<polygon fill="white" stroke="black" points="931,-76.5 931,-95.5 1047,-95.5 1047,-76.5 931,-76.5"/>
<text text-anchor="middle" x="989" y="-83.5" font-family="Helvetica,sans-Serif" font-size="10.00">PX4FMU::task_spawn</text>
</a>
</g>
</g>
<!-- Node3&#45;&gt;Node10 -->
<g id="edge12" class="edge"><title>Node3&#45;&gt;Node10</title>
<path fill="none" stroke="midnightblue" d="M431.318,-86C560.562,-86 816.531,-86 930.701,-86"/>
<polygon fill="midnightblue" stroke="midnightblue" points="431.102,-82.5001 421.102,-86 431.102,-89.5001 431.102,-82.5001"/>
</g>
<!-- Node4&#45;&gt;Node2 -->
<g id="edge4" class="edge"><title>Node4&#45;&gt;Node2</title>
<path fill="none" stroke="midnightblue" d="M446.991,-120.886C400.381,-118.198 338.345,-113.377 284,-105 268.66,-102.635 251.94,-99.0141 237.554,-95.5649"/>
<polygon fill="midnightblue" stroke="midnightblue" points="446.814,-124.382 456.993,-121.444 447.203,-117.392 446.814,-124.382"/>
</g>
<!-- Node5 -->
<g id="node5" class="node"><title>Node5</title>
<g id="a_node5"><a xlink:href="../../df/d64/class_p_x4_f_m_u.html#a8356cf6dbd154120ecef8b3a9c096f10" target="_top" xlink:title="PX4FMU::control_callback">
<polygon fill="white" stroke="black" points="618,-114.5 618,-133.5 752,-133.5 752,-114.5 618,-114.5"/>
<text text-anchor="middle" x="685" y="-121.5" font-family="Helvetica,sans-Serif" font-size="10.00">PX4FMU::control_callback</text>
</a>
</g>
</g>
<!-- Node4&#45;&gt;Node5 -->
<g id="edge5" class="edge"><title>Node4&#45;&gt;Node5</title>
<path fill="none" stroke="midnightblue" d="M592.468,-117.293C600.871,-117.219 609.414,-117.241 617.734,-117.359"/>
<polygon fill="midnightblue" stroke="midnightblue" points="592.264,-113.796 582.312,-117.432 592.359,-120.795 592.264,-113.796"/>
</g>
<!-- Node5&#45;&gt;Node4 -->
<g id="edge6" class="edge"><title>Node5&#45;&gt;Node4</title>
<path fill="none" stroke="midnightblue" d="M607.499,-130.738C599.058,-130.777 590.542,-130.721 582.312,-130.568"/>
<polygon fill="midnightblue" stroke="midnightblue" points="607.767,-134.235 617.734,-130.641 607.701,-127.236 607.767,-134.235"/>
</g>
<!-- Node6 -->
<g id="node6" class="node"><title>Node6</title>
<g id="a_node6"><a xlink:href="../../df/d64/class_p_x4_f_m_u.html#a752977b081b3aaff1e3b7bbc045f92da" target="_top" xlink:title="PX4FMU::pwm_ioctl">
<polygon fill="white" stroke="black" points="788,-114.5 788,-133.5 895,-133.5 895,-114.5 788,-114.5"/>
<text text-anchor="middle" x="841.5" y="-121.5" font-family="Helvetica,sans-Serif" font-size="10.00">PX4FMU::pwm_ioctl</text>
</a>
</g>
</g>
<!-- Node5&#45;&gt;Node6 -->
<g id="edge7" class="edge"><title>Node5&#45;&gt;Node6</title>
<path fill="none" stroke="midnightblue" d="M762.69,-124C771.137,-124 779.593,-124 787.654,-124"/>
<polygon fill="midnightblue" stroke="midnightblue" points="762.419,-120.5 752.419,-124 762.419,-127.5 762.419,-120.5"/>
</g>
<!-- Node6&#45;&gt;Node4 -->
<g id="edge8" class="edge"><title>Node6&#45;&gt;Node4</title>
<path fill="none" stroke="midnightblue" d="M794.522,-135.798C780.926,-138.762 765.947,-141.52 752,-143 692.777,-149.286 677.28,-148.722 618,-143 598.774,-141.144 577.709,-137.275 560.094,-133.51"/>
<polygon fill="midnightblue" stroke="midnightblue" points="795.632,-139.135 804.61,-133.509 794.083,-132.309 795.632,-139.135"/>
</g>
<!-- Node7 -->
<g id="node7" class="node"><title>Node7</title>
<g id="a_node7"><a xlink:href="../../df/d64/class_p_x4_f_m_u.html#a6c7f1f9ce2ff2750102a5e1f2fa9d567" target="_top" xlink:title="PX4FMU::ioctl">
<polygon fill="white" stroke="black" points="948.5,-114.5 948.5,-133.5 1029.5,-133.5 1029.5,-114.5 948.5,-114.5"/>
<text text-anchor="middle" x="989" y="-121.5" font-family="Helvetica,sans-Serif" font-size="10.00">PX4FMU::ioctl</text>
</a>
</g>
</g>
<!-- Node6&#45;&gt;Node7 -->
<g id="edge9" class="edge"><title>Node6&#45;&gt;Node7</title>
<path fill="none" stroke="midnightblue" d="M905.069,-124C919.746,-124 934.986,-124 948.338,-124"/>
<polygon fill="midnightblue" stroke="midnightblue" points="905.029,-120.5 895.029,-124 905.029,-127.5 905.029,-120.5"/>
</g>
<!-- Node8 -->
<g id="node8" class="node"><title>Node8</title>
<g id="a_node8"><a xlink:href="../../df/d64/class_p_x4_f_m_u.html#a6df04f77bccef2ecc99e3b0fe63da5fc" target="_top" xlink:title="PX4FMU::test">
<polygon fill="white" stroke="black" points="1083,-114.5 1083,-133.5 1163,-133.5 1163,-114.5 1083,-114.5"/>
<text text-anchor="middle" x="1123" y="-121.5" font-family="Helvetica,sans-Serif" font-size="10.00">PX4FMU::test</text>
</a>
</g>
</g>
<!-- Node7&#45;&gt;Node8 -->
<g id="edge10" class="edge"><title>Node7&#45;&gt;Node8</title>
<path fill="none" stroke="midnightblue" d="M1039.76,-124C1054.02,-124 1069.36,-124 1082.88,-124"/>
<polygon fill="midnightblue" stroke="midnightblue" points="1039.6,-120.5 1029.6,-124 1039.6,-127.5 1039.6,-120.5"/>
</g>
<!-- Node9 -->
<g id="node9" class="node"><title>Node9</title>
<g id="a_node9"><a xlink:href="../../df/d64/class_p_x4_f_m_u.html#a2be5e5695b54ad07a8e905b64992a46d" target="_top" xlink:title="PX4FMU::custom_command">
<polygon fill="white" stroke="black" points="1199,-85.5 1199,-104.5 1342,-104.5 1342,-85.5 1199,-85.5"/>
<text text-anchor="middle" x="1270.5" y="-92.5" font-family="Helvetica,sans-Serif" font-size="10.00">PX4FMU::custom_command</text>
</a>
</g>
</g>
<!-- Node8&#45;&gt;Node9 -->
<g id="edge11" class="edge"><title>Node8&#45;&gt;Node9</title>
<path fill="none" stroke="midnightblue" d="M1173.39,-114.157C1189.03,-111.039 1206.28,-107.601 1221.8,-104.507"/>
<polygon fill="midnightblue" stroke="midnightblue" points="1172.5,-110.765 1163.37,-116.152 1173.87,-117.63 1172.5,-110.765"/>
</g>
<!-- Node10&#45;&gt;Node9 -->
<g id="edge13" class="edge"><title>Node10&#45;&gt;Node9</title>
<path fill="none" stroke="midnightblue" d="M1057.28,-88.1665C1100.11,-89.5457 1155.5,-91.3291 1198.95,-92.7282"/>
<polygon fill="midnightblue" stroke="midnightblue" points="1057.34,-84.6667 1047.24,-87.843 1057.12,-91.6631 1057.34,-84.6667"/>
</g>
<!-- Node13 -->
<g id="node13" class="node"><title>Node13</title>
<g id="a_node13"><a xlink:href="../../d4/d28/registers_8c.html#acb76ce9506a2d7ebd08998a39fba7358" target="_top" xlink:title="registers_set_one">
<polygon fill="white" stroke="black" points="305.5,-38.5 305.5,-57.5 399.5,-57.5 399.5,-38.5 305.5,-38.5"/>
<text text-anchor="middle" x="352.5" y="-45.5" font-family="Helvetica,sans-Serif" font-size="10.00">registers_set_one</text>
</a>
</g>
</g>
<!-- Node12&#45;&gt;Node13 -->
<g id="edge17" class="edge"><title>Node12&#45;&gt;Node13</title>
<path fill="none" stroke="midnightblue" d="M258.277,-48C273.888,-48 290.595,-48 305.492,-48"/>
<polygon fill="midnightblue" stroke="midnightblue" points="258.206,-44.5001 248.206,-48 258.206,-51.5001 258.206,-44.5001"/>
</g>
<!-- Node14 -->
<g id="node14" class="node"><title>Node14</title>
<g id="a_node14"><a xlink:href="../../d4/d28/registers_8c.html#a79ff516383f902f7c580f60972f88484" target="_top" xlink:title="Register space. ">
<polygon fill="white" stroke="black" points="483,-38.5 483,-57.5 556,-57.5 556,-38.5 483,-38.5"/>
<text text-anchor="middle" x="519.5" y="-45.5" font-family="Helvetica,sans-Serif" font-size="10.00">registers_set</text>
</a>
</g>
</g>
<!-- Node13&#45;&gt;Node14 -->
<g id="edge18" class="edge"><title>Node13&#45;&gt;Node14</title>
<path fill="none" stroke="midnightblue" d="M410.024,-48C434.184,-48 461.653,-48 482.904,-48"/>
<polygon fill="midnightblue" stroke="midnightblue" points="409.901,-44.5001 399.901,-48 409.901,-51.5001 409.901,-44.5001"/>
</g>
<!-- Node15 -->
<g id="node15" class="node"><title>Node15</title>
<g id="a_node15"><a xlink:href="../../df/d19/modules_2px4iofirmware_2i2c_8c.html#a6e0c3d6111e056066c95e34dfd9a0114" target="_top" xlink:title="i2c_rx_complete">
<polygon fill="white" stroke="black" points="641,-0.5 641,-19.5 729,-19.5 729,-0.5 641,-0.5"/>
<text text-anchor="middle" x="685" y="-7.5" font-family="Helvetica,sans-Serif" font-size="10.00">i2c_rx_complete</text>
</a>
</g>
</g>
<!-- Node14&#45;&gt;Node15 -->
<g id="edge19" class="edge"><title>Node14&#45;&gt;Node15</title>
<path fill="none" stroke="midnightblue" d="M566.351,-37.3434C590.433,-31.7465 619.7,-24.9443 643.019,-19.5246"/>
<polygon fill="midnightblue" stroke="midnightblue" points="565.329,-33.9877 556.381,-39.6607 566.914,-40.806 565.329,-33.9877"/>
</g>
<!-- Node17 -->
<g id="node17" class="node"><title>Node17</title>
<g id="a_node17"><a xlink:href="../../d8/d90/serial_8c.html#a7a47545978c88c7e8b180736034a49ef" target="_top" xlink:title="rx_handle_packet">
<polygon fill="white" stroke="black" points="638.5,-38.5 638.5,-57.5 731.5,-57.5 731.5,-38.5 638.5,-38.5"/>
<text text-anchor="middle" x="685" y="-45.5" font-family="Helvetica,sans-Serif" font-size="10.00">rx_handle_packet</text>
</a>
</g>
</g>
<!-- Node14&#45;&gt;Node17 -->
<g id="edge21" class="edge"><title>Node14&#45;&gt;Node17</title>
<path fill="none" stroke="midnightblue" d="M566.655,-48C589.057,-48 615.89,-48 638.239,-48"/>
<polygon fill="midnightblue" stroke="midnightblue" points="566.381,-44.5001 556.381,-48 566.381,-51.5001 566.381,-44.5001"/>
</g>
<!-- Node16 -->
<g id="node16" class="node"><title>Node16</title>
<g id="a_node16"><a xlink:href="../../df/d19/modules_2px4iofirmware_2i2c_8c.html#a472799252680873b5cdfba8541bb89ec" target="_top" xlink:title="i2c_interrupt">
<polygon fill="white" stroke="black" points="806.5,-0.5 806.5,-19.5 876.5,-19.5 876.5,-0.5 806.5,-0.5"/>
<text text-anchor="middle" x="841.5" y="-7.5" font-family="Helvetica,sans-Serif" font-size="10.00">i2c_interrupt</text>
</a>
</g>
</g>
<!-- Node15&#45;&gt;Node16 -->
<g id="edge20" class="edge"><title>Node15&#45;&gt;Node16</title>
<path fill="none" stroke="midnightblue" d="M739.057,-10C761.393,-10 786.731,-10 806.496,-10"/>
<polygon fill="midnightblue" stroke="midnightblue" points="739.037,-6.5001 729.037,-10 739.037,-13.5001 739.037,-6.5001"/>
</g>
<!-- Node18 -->
<g id="node18" class="node"><title>Node18</title>
<g id="a_node18"><a xlink:href="../../d8/d90/serial_8c.html#a9ea429bf8993556bd90658d40f5b875e" target="_top" xlink:title="rx_dma_callback">
<polygon fill="white" stroke="black" points="796.5,-38.5 796.5,-57.5 886.5,-57.5 886.5,-38.5 796.5,-38.5"/>
<text text-anchor="middle" x="841.5" y="-45.5" font-family="Helvetica,sans-Serif" font-size="10.00">rx_dma_callback</text>
</a>
</g>
</g>
<!-- Node17&#45;&gt;Node18 -->
<g id="edge22" class="edge"><title>Node17&#45;&gt;Node18</title>
<path fill="none" stroke="midnightblue" d="M741.603,-48C759.606,-48 779.315,-48 796.369,-48"/>
<polygon fill="midnightblue" stroke="midnightblue" points="741.519,-44.5001 731.519,-48 741.519,-51.5001 741.519,-44.5001"/>
</g>
<!-- Node19 -->
<g id="node19" class="node"><title>Node19</title>
<g id="a_node19"><a xlink:href="../../d8/d90/serial_8c.html#ab490e77cf58b14849740525ba5dc47ef" target="_top" xlink:title="dma_reset">
<polygon fill="white" stroke="black" points="958,-38.5 958,-57.5 1020,-57.5 1020,-38.5 958,-38.5"/>
<text text-anchor="middle" x="989" y="-45.5" font-family="Helvetica,sans-Serif" font-size="10.00">dma_reset</text>
</a>
</g>
</g>
<!-- Node18&#45;&gt;Node19 -->
<g id="edge23" class="edge"><title>Node18&#45;&gt;Node19</title>
<path fill="none" stroke="midnightblue" d="M896.812,-41.4465C917.487,-40.997 940.29,-41.3187 957.921,-42.4115"/>
<polygon fill="midnightblue" stroke="midnightblue" points="896.445,-37.9555 886.55,-41.7404 896.646,-44.9526 896.445,-37.9555"/>
</g>
<!-- Node21 -->
<g id="node21" class="node"><title>Node21</title>
<g id="a_node21"><a xlink:href="../../d8/d90/serial_8c.html#a4f42595963508e10e538baddbf85204a" target="_top" xlink:title="serial_interrupt">
<polygon fill="white" stroke="black" points="1083,-0.5 1083,-19.5 1163,-19.5 1163,-0.5 1083,-0.5"/>
<text text-anchor="middle" x="1123" y="-7.5" font-family="Helvetica,sans-Serif" font-size="10.00">serial_interrupt</text>
</a>
</g>
</g>
<!-- Node18&#45;&gt;Node21 -->
<g id="edge28" class="edge"><title>Node18&#45;&gt;Node21</title>
<path fill="none" stroke="midnightblue" d="M892.27,-36.2902C904.856,-33.6119 918.382,-30.9757 931,-29 983.182,-20.8296 1043.96,-15.4931 1082.7,-12.6133"/>
<polygon fill="midnightblue" stroke="midnightblue" points="891.44,-32.8887 882.413,-38.4353 892.929,-39.7286 891.44,-32.8887"/>
</g>
<!-- Node19&#45;&gt;Node18 -->
<g id="edge25" class="edge"><title>Node19&#45;&gt;Node18</title>
<path fill="none" stroke="midnightblue" d="M947.787,-54.1101C928.775,-54.9101 906.028,-54.96 886.55,-54.2596"/>
<polygon fill="midnightblue" stroke="midnightblue" points="948.114,-57.598 957.921,-53.5885 947.755,-50.6073 948.114,-57.598"/>
</g>
<!-- Node20 -->
<g id="node20" class="node"><title>Node20</title>
<g id="a_node20"><a xlink:href="../../d8/d90/serial_8c.html#a86489e4b72e9a378e39ebc48b6c95ece" target="_top" xlink:title="FMU communications. ">
<polygon fill="white" stroke="black" points="1234.5,-28.5 1234.5,-47.5 1306.5,-47.5 1306.5,-28.5 1234.5,-28.5"/>
<text text-anchor="middle" x="1270.5" y="-35.5" font-family="Helvetica,sans-Serif" font-size="10.00">interface_init</text>
</a>
</g>
</g>
<!-- Node19&#45;&gt;Node20 -->
<g id="edge24" class="edge"><title>Node19&#45;&gt;Node20</title>
<path fill="none" stroke="midnightblue" d="M1030.21,-46.5612C1084.97,-44.602 1182.13,-41.1259 1234.21,-39.2627"/>
<polygon fill="midnightblue" stroke="midnightblue" points="1030.05,-43.0649 1020.18,-46.9203 1030.3,-50.0604 1030.05,-43.0649"/>
</g>
<!-- Node19&#45;&gt;Node21 -->
<g id="edge26" class="edge"><title>Node19&#45;&gt;Node21</title>
<path fill="none" stroke="midnightblue" d="M1030.02,-36.4802C1048.75,-31.0884 1070.8,-24.7402 1088.61,-19.6113"/>
<polygon fill="midnightblue" stroke="midnightblue" points="1028.92,-33.1521 1020.28,-39.282 1030.86,-39.8789 1028.92,-33.1521"/>
</g>
<!-- Node21&#45;&gt;Node20 -->
<g id="edge27" class="edge"><title>Node21&#45;&gt;Node20</title>
<path fill="none" stroke="midnightblue" d="M1173.23,-19.4736C1193.18,-23.3139 1215.79,-27.6635 1234.07,-31.1826"/>
<polygon fill="midnightblue" stroke="midnightblue" points="1173.86,-16.0301 1163.37,-17.5772 1172.53,-22.9039 1173.86,-16.0301"/>
</g>
<!-- Node23 -->
<g id="node23" class="node"><title>Node23</title>
<g id="a_node23"><a xlink:href="../../dd/d87/px4io_8c.html#aab5de16adab7a0da95ed57a9aba3c626" target="_top" xlink:title="user_start">
<polygon fill="white" stroke="black" points="322.5,-0.5 322.5,-19.5 382.5,-19.5 382.5,-0.5 322.5,-0.5"/>
<text text-anchor="middle" x="352.5" y="-7.5" font-family="Helvetica,sans-Serif" font-size="10.00">user_start</text>
</a>
</g>
</g>
<!-- Node22&#45;&gt;Node23 -->
<g id="edge30" class="edge"><title>Node22&#45;&gt;Node23</title>
<path fill="none" stroke="midnightblue" d="M241.237,-10C266.838,-10 299.397,-10 322.481,-10"/>
<polygon fill="midnightblue" stroke="midnightblue" points="241.094,-6.5001 231.094,-10 241.094,-13.5001 241.094,-6.5001"/>
</g>
</g>
</svg>
        <g id="navigator" transform="translate(0 0)" fill="#404254">
                <rect fill="#f2f5e9" fill-opacity="0.5" stroke="#606060" stroke-width=".5" x="0" y="0" width="60" height="60"/>
                <use id="zoomplus" xlink:href="#zoomPlus" x="17" y="9" onmousedown="handleZoom(evt,'in')"/>
                <use id="zoomminus" xlink:href="#zoomMin" x="42" y="9" onmousedown="handleZoom(evt,'out')"/>
                <use id="reset" xlink:href="#resetDef" x="30" y="36" onmousedown="handleReset()"/>
                <g id="arrowUp" xlink:href="#dirArrow" transform="translate(30 24)" onmousedown="handlePan(0,-1)">
                  <use xlink:href="#rim" fill="#404040">
                        <set attributeName="fill" to="#808080" begin="arrowUp.mouseover" end="arrowUp.mouseout"/>
                  </use>
                  <path fill="none" stroke="white" stroke-width="1.5" d="M0,-3.0v7 M-2.5,-0.5L0,-3.0L2.5,-0.5"/>
                </g>
                <g id="arrowRight" xlink:href="#dirArrow" transform="rotate(90) translate(36 -43)" onmousedown="handlePan(1,0)">
                  <use xlink:href="#rim" fill="#404040">
                        <set attributeName="fill" to="#808080" begin="arrowRight.mouseover" end="arrowRight.mouseout"/>
                  </use>
                  <path fill="none" stroke="white" stroke-width="1.5" d="M0,-3.0v7 M-2.5,-0.5L0,-3.0L2.5,-0.5"/>
                </g>
                <g id="arrowDown" xlink:href="#dirArrow" transform="rotate(180) translate(-30 -48)" onmousedown="handlePan(0,1)">
                  <use xlink:href="#rim" fill="#404040">
                        <set attributeName="fill" to="#808080" begin="arrowDown.mouseover" end="arrowDown.mouseout"/>
                  </use>
                  <path fill="none" stroke="white" stroke-width="1.5" d="M0,-3.0v7 M-2.5,-0.5L0,-3.0L2.5,-0.5"/>
                </g>
                <g id="arrowLeft" xlink:href="#dirArrow" transform="rotate(270) translate(-36 17)" onmousedown="handlePan(-1,0)">
                  <use xlink:href="#rim" fill="#404040">
                        <set attributeName="fill" to="#808080" begin="arrowLeft.mouseover" end="arrowLeft.mouseout"/>
                  </use>
                  <path fill="none" stroke="white" stroke-width="1.5" d="M0,-3.0v7 M-2.5,-0.5L0,-3.0L2.5,-0.5"/>
                </g>
        </g>
        <svg viewBox="0 0 15 15" width="100%" height="30px" preserveAspectRatio="xMaxYMin meet">
         <g id="arrow_out" transform="scale(0.3 0.3)">
          <a xlink:href="class_mixer_group_a39c51cb0a62b927c09baaaef668607d3_icgraph_org.svg" target="_base">
           <rect id="button" ry="5" rx="5" y="6" x="6" height="38" width="38"
                fill="#f2f5e9" fill-opacity="0.5" stroke="#606060" stroke-width="1.0"/>
           <path id="arrow"
             d="M 11.500037,31.436501 C 11.940474,20.09759 22.043105,11.32322 32.158766,21.979434 L 37.068811,17.246167 C 37.068811,17.246167 37.088388,32 37.088388,32 L 22.160133,31.978069 C 22.160133,31.978069 26.997745,27.140456 26.997745,27.140456 C 18.528582,18.264221 13.291696,25.230495 11.500037,31.436501 z"
             style="fill:#404040;"/>
          </a>
         </g>
        </svg>
</svg>
