<?xml version="1.0" encoding="UTF-8" standalone="no"?>
<!DOCTYPE svg PUBLIC "-//W3C//DTD SVG 1.1//EN"
 "http://www.w3.org/Graphics/SVG/1.1/DTD/svg11.dtd">
<!-- Generated by graphviz version 2.38.0 (20140413.2041)
 -->
<!-- Title: MixerGroup::get_trim Pages: 1 -->
<svg width="272pt" height="66pt"
 viewBox="0.00 0.00 272.00 66.00" xmlns="http://www.w3.org/2000/svg" xmlns:xlink="http://www.w3.org/1999/xlink">
<g id="graph0" class="graph" transform="scale(1 1) rotate(0) translate(4 62)">
<title>MixerGroup::get_trim</title>
<polygon fill="white" stroke="none" points="-4,4 -4,-62 268,-62 268,4 -4,4"/>
<!-- Node1 -->
<g id="node1" class="node"><title>Node1</title>
<polygon fill="#bfbfbf" stroke="black" points="0,-19.5 0,-38.5 108,-38.5 108,-19.5 0,-19.5"/>
<text text-anchor="middle" x="54" y="-26.5" font-family="Helvetica,sans-Serif" font-size="10.00">MixerGroup::get_trim</text>
</g>
<!-- Node2 -->
<g id="node2" class="node"><title>Node2</title>
<g id="a_node2"><a xlink:href="../../de/d2d/class_mixer.html#a6438664d6059e84a1689cca3637ce8d4" target="_top" xlink:title="Set airmode. ">
<polygon fill="white" stroke="black" points="154,-38.5 154,-57.5 254,-57.5 254,-38.5 154,-38.5"/>
<text text-anchor="middle" x="204" y="-45.5" font-family="Helvetica,sans-Serif" font-size="10.00">Mixer::set_airmode</text>
</a>
</g>
</g>
<!-- Node1&#45;&gt;Node2 -->
<g id="edge1" class="edge"><title>Node1&#45;&gt;Node2</title>
<path fill="none" stroke="midnightblue" d="M108.013,-35.8058C119.561,-37.2882 131.851,-38.866 143.627,-40.3778"/>
<polygon fill="midnightblue" stroke="midnightblue" points="143.447,-43.8833 153.811,-41.6852 144.338,-36.9403 143.447,-43.8833"/>
</g>
<!-- Node3 -->
<g id="node3" class="node"><title>Node3</title>
<g id="a_node3"><a xlink:href="../../de/d2d/class_mixer.html#a40abfb73fb20c6cbe15a29978081a44e" target="_top" xlink:title="Mixer::set_thrust_factor">
<polygon fill="white" stroke="black" points="144,-0.5 144,-19.5 264,-19.5 264,-0.5 144,-0.5"/>
<text text-anchor="middle" x="204" y="-7.5" font-family="Helvetica,sans-Serif" font-size="10.00">Mixer::set_thrust_factor</text>
</a>
</g>
</g>
<!-- Node1&#45;&gt;Node3 -->
<g id="edge2" class="edge"><title>Node1&#45;&gt;Node3</title>
<path fill="none" stroke="midnightblue" d="M108.013,-22.1942C116.36,-21.1228 125.094,-20.0014 133.742,-18.8913"/>
<polygon fill="midnightblue" stroke="midnightblue" points="134.352,-22.3417 143.825,-17.5968 133.461,-15.3987 134.352,-22.3417"/>
</g>
</g>
</svg>
