<?xml version="1.0" encoding="UTF-8" standalone="no"?>
<!DOCTYPE svg PUBLIC "-//W3C//DTD SVG 1.1//EN"
 "http://www.w3.org/Graphics/SVG/1.1/DTD/svg11.dtd">
<!-- Generated by graphviz version 2.40.1 (20161225.0304)
 -->
<!-- Title: PWMIN::_turn_off Pages: 1 -->
<svg width="732pt" height="80pt"
 viewBox="0.00 0.00 732.00 79.52" xmlns="http://www.w3.org/2000/svg" xmlns:xlink="http://www.w3.org/1999/xlink">
<g id="graph0" class="graph" transform="scale(1 1) rotate(0) translate(4 75.5225)">
<title>PWMIN::_turn_off</title>
<polygon fill="#ffffff" stroke="transparent" points="-4,4 -4,-75.5225 728,-75.5225 728,4 -4,4"/>
<!-- Node37 -->
<g id="node1" class="node">
<title>Node37</title>
<polygon fill="#bfbfbf" stroke="#000000" points="0,-14.0225 0,-33.0225 96,-33.0225 96,-14.0225 0,-14.0225"/>
<text text-anchor="middle" x="48" y="-21.0225" font-family="Helvetica,sans-Serif" font-size="10.00" fill="#000000">PWMIN::_turn_off</text>
</g>
<!-- Node38 -->
<g id="node2" class="node">
<title>Node38</title>
<g id="a_node2"><a xlink:href="../../d7/d95/class_p_w_m_i_n.html#a583d4689eb7dd1d15599571c78adfa0f" target="_top" xlink:title="PWMIN::hard_reset">
<polygon fill="#ffffff" stroke="#000000" points="132,-14.0225 132,-33.0225 236,-33.0225 236,-14.0225 132,-14.0225"/>
<text text-anchor="middle" x="184" y="-21.0225" font-family="Helvetica,sans-Serif" font-size="10.00" fill="#000000">PWMIN::hard_reset</text>
</a>
</g>
</g>
<!-- Node37&#45;&gt;Node38 -->
<g id="edge1" class="edge">
<title>Node37&#45;&gt;Node38</title>
<path fill="none" stroke="#191970" d="M106.4316,-23.5225C114.8214,-23.5225 123.4094,-23.5225 131.6711,-23.5225"/>
<polygon fill="#191970" stroke="#191970" points="106.3315,-20.0226 96.3314,-23.5225 106.3314,-27.0226 106.3315,-20.0226"/>
</g>
<!-- Node39 -->
<g id="node3" class="node">
<title>Node39</title>
<g id="a_node3"><a xlink:href="../../d7/d95/class_p_w_m_i_n.html#a777c120b7023b542c118d0458c6d2218" target="_top" xlink:title="PWMIN::_freeze_test">
<polygon fill="#ffffff" stroke="#000000" points="272,-52.0225 272,-71.0225 384,-71.0225 384,-52.0225 272,-52.0225"/>
<text text-anchor="middle" x="328" y="-59.0225" font-family="Helvetica,sans-Serif" font-size="10.00" fill="#000000">PWMIN::_freeze_test</text>
</a>
</g>
</g>
<!-- Node38&#45;&gt;Node39 -->
<g id="edge2" class="edge">
<title>Node38&#45;&gt;Node39</title>
<path fill="none" stroke="#191970" d="M230.1722,-35.7068C250.1642,-40.9825 273.2187,-47.0663 291.924,-52.0024"/>
<polygon fill="#191970" stroke="#191970" points="230.8994,-32.279 220.3373,-33.1115 229.1132,-39.0473 230.8994,-32.279"/>
</g>
<!-- Node43 -->
<g id="node7" class="node">
<title>Node43</title>
<g id="a_node7"><a xlink:href="../../d7/d95/class_p_w_m_i_n.html#a511dfba6b4423fac5c5db5b001ca7396" target="_top" xlink:title="PWMIN::ioctl">
<polygon fill="#ffffff" stroke="#000000" points="290,-14.0225 290,-33.0225 366,-33.0225 366,-14.0225 290,-14.0225"/>
<text text-anchor="middle" x="328" y="-21.0225" font-family="Helvetica,sans-Serif" font-size="10.00" fill="#000000">PWMIN::ioctl</text>
</a>
</g>
</g>
<!-- Node38&#45;&gt;Node43 -->
<g id="edge6" class="edge">
<title>Node38&#45;&gt;Node43</title>
<path fill="none" stroke="#191970" d="M246.4953,-23.5225C261.2553,-23.5225 276.5577,-23.5225 289.8624,-23.5225"/>
<polygon fill="#191970" stroke="#191970" points="246.3947,-20.0226 236.3947,-23.5225 246.3946,-27.0226 246.3947,-20.0226"/>
</g>
<!-- Node44 -->
<g id="node8" class="node">
<title>Node44</title>
<g id="a_node8"><a xlink:href="../../d9/d8a/pwm__input_8cpp.html#a4658b15547e43f31bec405241bc8ffb4" target="_top" xlink:title="pwmin_reset">
<polygon fill="#ffffff" stroke="#000000" points="420,-14.0225 420,-33.0225 492,-33.0225 492,-14.0225 420,-14.0225"/>
<text text-anchor="middle" x="456" y="-21.0225" font-family="Helvetica,sans-Serif" font-size="10.00" fill="#000000">pwmin_reset</text>
</a>
</g>
</g>
<!-- Node38&#45;&gt;Node44 -->
<g id="edge9" class="edge">
<title>Node38&#45;&gt;Node44</title>
<path fill="none" stroke="#191970" d="M229.7147,-11.7246C243.234,-8.7604 258.1292,-6.0029 272,-4.5225 321.4967,.76 334.6358,1.8812 384,-4.5225 398.3589,-6.3852 413.9351,-10.2547 426.9149,-14.0186"/>
<polygon fill="#191970" stroke="#191970" points="228.6549,-8.3764 219.6844,-14.0139 230.2125,-15.2009 228.6549,-8.3764"/>
</g>
<!-- Node40 -->
<g id="node4" class="node">
<title>Node40</title>
<g id="a_node4"><a xlink:href="../../d7/d95/class_p_w_m_i_n.html#acae56106cff57a0ed5dd1e921b7f7be1" target="_top" xlink:title="PWMIN::init">
<polygon fill="#ffffff" stroke="#000000" points="420.5,-52.0225 420.5,-71.0225 491.5,-71.0225 491.5,-52.0225 420.5,-52.0225"/>
<text text-anchor="middle" x="456" y="-59.0225" font-family="Helvetica,sans-Serif" font-size="10.00" fill="#000000">PWMIN::init</text>
</a>
</g>
</g>
<!-- Node39&#45;&gt;Node40 -->
<g id="edge3" class="edge">
<title>Node39&#45;&gt;Node40</title>
<path fill="none" stroke="#191970" d="M394.2211,-61.5225C403.1589,-61.5225 412.0389,-61.5225 420.1627,-61.5225"/>
<polygon fill="#191970" stroke="#191970" points="394.1427,-58.0226 384.1427,-61.5225 394.1426,-65.0226 394.1427,-58.0226"/>
</g>
<!-- Node41 -->
<g id="node5" class="node">
<title>Node41</title>
<g id="a_node5"><a xlink:href="../../d9/d8a/pwm__input_8cpp.html#ac3a84d35d7bb786af305543a995446e0" target="_top" xlink:title="pwmin_start">
<polygon fill="#ffffff" stroke="#000000" points="528,-52.0225 528,-71.0225 598,-71.0225 598,-52.0225 528,-52.0225"/>
<text text-anchor="middle" x="563" y="-59.0225" font-family="Helvetica,sans-Serif" font-size="10.00" fill="#000000">pwmin_start</text>
</a>
</g>
</g>
<!-- Node40&#45;&gt;Node41 -->
<g id="edge4" class="edge">
<title>Node40&#45;&gt;Node41</title>
<path fill="none" stroke="#191970" d="M501.7244,-61.5225C510.4843,-61.5225 519.5284,-61.5225 527.8901,-61.5225"/>
<polygon fill="#191970" stroke="#191970" points="501.6295,-58.0226 491.6295,-61.5225 501.6294,-65.0226 501.6295,-58.0226"/>
</g>
<!-- Node42 -->
<g id="node6" class="node">
<title>Node42</title>
<g id="a_node6"><a xlink:href="../../d9/d8a/pwm__input_8cpp.html#a5d7bc71482250123c0af7f2e2a63018e" target="_top" xlink:title="pwm_input_main">
<polygon fill="#ffffff" stroke="#000000" points="634,-33.0225 634,-52.0225 724,-52.0225 724,-33.0225 634,-33.0225"/>
<text text-anchor="middle" x="679" y="-40.0225" font-family="Helvetica,sans-Serif" font-size="10.00" fill="#000000">pwm_input_main</text>
</a>
</g>
</g>
<!-- Node41&#45;&gt;Node42 -->
<g id="edge5" class="edge">
<title>Node41&#45;&gt;Node42</title>
<path fill="none" stroke="#191970" d="M608.1229,-54.1317C616.5203,-52.7562 625.297,-51.3187 633.6997,-49.9424"/>
<polygon fill="#191970" stroke="#191970" points="607.4214,-50.6999 598.1186,-55.7703 608.5529,-57.6078 607.4214,-50.6999"/>
</g>
<!-- Node43&#45;&gt;Node44 -->
<g id="edge7" class="edge">
<title>Node43&#45;&gt;Node44</title>
<path fill="none" stroke="#191970" d="M376.2783,-23.5225C390.6503,-23.5225 406.1498,-23.5225 419.6266,-23.5225"/>
<polygon fill="#191970" stroke="#191970" points="376.0577,-20.0226 366.0577,-23.5225 376.0576,-27.0226 376.0577,-20.0226"/>
</g>
<!-- Node44&#45;&gt;Node42 -->
<g id="edge8" class="edge">
<title>Node44&#45;&gt;Node42</title>
<path fill="none" stroke="#191970" d="M502.7569,-27.5063C541.3235,-30.7922 595.7025,-35.4254 633.8275,-38.6737"/>
<polygon fill="#191970" stroke="#191970" points="502.5862,-23.9791 492.3251,-26.6175 501.9919,-30.9539 502.5862,-23.9791"/>
</g>
</g>
</svg>
