<?xml version="1.0" encoding="UTF-8" standalone="no"?>
<!DOCTYPE svg PUBLIC "-//W3C//DTD SVG 1.1//EN"
 "http://www.w3.org/Graphics/SVG/1.1/DTD/svg11.dtd">
<!-- Generated by graphviz version 2.38.0 (20140413.2041)
 -->
<!-- Title: PWMIN::_turn_on Pages: 1 -->
<!--zoomable 80 -->
<svg id="main" version="1.1" xmlns="http://www.w3.org/2000/svg" xmlns:xlink="http://www.w3.org/1999/xlink" xml:space="preserve" onload="init(evt)">
<style type="text/css"><![CDATA[
.edge:hover path { stroke: red; }
.edge:hover polygon { stroke: red; fill: red; }
]]></style>
<script type="text/javascript"><![CDATA[
var edges = document.getElementsByTagName('g');
if (edges && edges.length) {
  for (var i=0;i<edges.length;i++) {
    if (edges[i].id.substr(0,4)=='edge') {
      edges[i].setAttribute('class','edge');
    }
  }
}
]]></script>
        <defs>
                <circle id="rim" cx="0" cy="0" r="7"/>
                <circle id="rim2" cx="0" cy="0" r="3.5"/>
                <g id="zoomPlus">
                        <use xlink:href="#rim" fill="#404040">
                                <set attributeName="fill" to="#808080" begin="zoomplus.mouseover" end="zoomplus.mouseout"/>
                        </use>
                        <path d="M-4,0h8M0,-4v8" fill="none" stroke="white" stroke-width="1.5" pointer-events="none"/>
                </g>
                <g id="zoomMin">
                        <use xlink:href="#rim" fill="#404040">
                                <set attributeName="fill" to="#808080" begin="zoomminus.mouseover" end="zoomminus.mouseout"/>
                        </use>
                        <path d="M-4,0h8" fill="none" stroke="white" stroke-width="1.5" pointer-events="none"/>
                </g>
                <g id="dirArrow">
                        <path fill="none" stroke="white" stroke-width="1.5" d="M0,-3.0v7 M-2.5,-0.5L0,-3.0L2.5,-0.5"/>
                </g>
               <g id="resetDef">
                       <use xlink:href="#rim2" fill="#404040">
                               <set attributeName="fill" to="#808080" begin="reset.mouseover" end="reset.mouseout"/>
                       </use>
               </g>
        </defs>

<script type="text/javascript">
var viewWidth = 731;
var viewHeight = 80;
var sectionId = 'dynsection-8';
</script>
<script xlink:href="../../svgpan.js"/>
<svg id="graph" class="graph">
<g id="viewport">
<title>PWMIN::_turn_on</title>
<polygon fill="white" stroke="none" points="-4,4 -4,-75.58 727,-75.58 727,4 -4,4"/>
<!-- Node1 -->
<g id="node1" class="node"><title>Node1</title>
<polygon fill="#bfbfbf" stroke="black" points="0,-14.08 0,-33.08 95,-33.08 95,-14.08 0,-14.08"/>
<text text-anchor="middle" x="47.5" y="-21.08" font-family="Helvetica,sans-Serif" font-size="10.00">PWMIN::_turn_on</text>
</g>
<!-- Node2 -->
<g id="node2" class="node"><title>Node2</title>
<g id="a_node2"><a xlink:href="../../d7/d95/class_p_w_m_i_n.html#a583d4689eb7dd1d15599571c78adfa0f" target="_top" xlink:title="PWMIN::hard_reset">
<polygon fill="white" stroke="black" points="131,-14.08 131,-33.08 235,-33.08 235,-14.08 131,-14.08"/>
<text text-anchor="middle" x="183" y="-21.08" font-family="Helvetica,sans-Serif" font-size="10.00">PWMIN::hard_reset</text>
</a>
</g>
</g>
<!-- Node1&#45;&gt;Node2 -->
<g id="edge1" class="edge"><title>Node1&#45;&gt;Node2</title>
<path fill="none" stroke="midnightblue" d="M105.283,-23.58C113.673,-23.58 122.279,-23.58 130.553,-23.58"/>
<polygon fill="midnightblue" stroke="midnightblue" points="105.192,-20.0801 95.1918,-23.58 105.192,-27.0801 105.192,-20.0801"/>
</g>
<!-- Node3 -->
<g id="node3" class="node"><title>Node3</title>
<g id="a_node3"><a xlink:href="../../d7/d95/class_p_w_m_i_n.html#a777c120b7023b542c118d0458c6d2218" target="_top" xlink:title="PWMIN::_freeze_test">
<polygon fill="white" stroke="black" points="271,-52.08 271,-71.08 383,-71.08 383,-52.08 271,-52.08"/>
<text text-anchor="middle" x="327" y="-59.08" font-family="Helvetica,sans-Serif" font-size="10.00">PWMIN::_freeze_test</text>
</a>
</g>
</g>
<!-- Node2&#45;&gt;Node3 -->
<g id="edge2" class="edge"><title>Node2&#45;&gt;Node3</title>
<path fill="none" stroke="midnightblue" d="M229.493,-35.7542C249.128,-41.0087 271.766,-47.0666 290.179,-51.9941"/>
<polygon fill="midnightblue" stroke="midnightblue" points="230.397,-32.3731 219.833,-33.169 228.588,-39.1352 230.397,-32.3731"/>
</g>
<!-- Node7 -->
<g id="node7" class="node"><title>Node7</title>
<g id="a_node7"><a xlink:href="../../d7/d95/class_p_w_m_i_n.html#a511dfba6b4423fac5c5db5b001ca7396" target="_top" xlink:title="PWMIN::ioctl">
<polygon fill="white" stroke="black" points="289,-14.08 289,-33.08 365,-33.08 365,-14.08 289,-14.08"/>
<text text-anchor="middle" x="327" y="-21.08" font-family="Helvetica,sans-Serif" font-size="10.00">PWMIN::ioctl</text>
</a>
</g>
</g>
<!-- Node2&#45;&gt;Node7 -->
<g id="edge6" class="edge"><title>Node2&#45;&gt;Node7</title>
<path fill="none" stroke="midnightblue" d="M245.34,-23.58C260.068,-23.58 275.362,-23.58 288.622,-23.58"/>
<polygon fill="midnightblue" stroke="midnightblue" points="245.265,-20.0801 235.265,-23.58 245.265,-27.0801 245.265,-20.0801"/>
</g>
<!-- Node8 -->
<g id="node8" class="node"><title>Node8</title>
<g id="a_node8"><a xlink:href="../../d9/d8a/pwm__input_8cpp.html#a4658b15547e43f31bec405241bc8ffb4" target="_top" xlink:title="pwmin_reset">
<polygon fill="white" stroke="black" points="419,-14.08 419,-33.08 491,-33.08 491,-14.08 419,-14.08"/>
<text text-anchor="middle" x="455" y="-21.08" font-family="Helvetica,sans-Serif" font-size="10.00">pwmin_reset</text>
</a>
</g>
</g>
<!-- Node2&#45;&gt;Node8 -->
<g id="edge9" class="edge"><title>Node2&#45;&gt;Node8</title>
<path fill="none" stroke="midnightblue" d="M229.188,-11.7823C242.554,-8.81811 257.281,-6.06054 271,-4.57999 320.49,0.761187 333.647,1.9094 383,-4.57999 397.169,-6.44311 412.53,-10.3127 425.328,-14.0765"/>
<polygon fill="midnightblue" stroke="midnightblue" points="228.229,-8.41171 219.273,-14.0716 229.804,-15.2323 228.229,-8.41171"/>
</g>
<!-- Node4 -->
<g id="node4" class="node"><title>Node4</title>
<g id="a_node4"><a xlink:href="../../d7/d95/class_p_w_m_i_n.html#acae56106cff57a0ed5dd1e921b7f7be1" target="_top" xlink:title="Initialise the driver and make it ready for use. ">
<polygon fill="white" stroke="black" points="419.5,-52.08 419.5,-71.08 490.5,-71.08 490.5,-52.08 419.5,-52.08"/>
<text text-anchor="middle" x="455" y="-59.08" font-family="Helvetica,sans-Serif" font-size="10.00">PWMIN::init</text>
</a>
</g>
</g>
<!-- Node3&#45;&gt;Node4 -->
<g id="edge3" class="edge"><title>Node3&#45;&gt;Node4</title>
<path fill="none" stroke="midnightblue" d="M393.405,-61.58C402.395,-61.58 411.32,-61.58 419.446,-61.58"/>
<polygon fill="midnightblue" stroke="midnightblue" points="393.265,-58.0801 383.265,-61.58 393.265,-65.0801 393.265,-58.0801"/>
</g>
<!-- Node5 -->
<g id="node5" class="node"><title>Node5</title>
<g id="a_node5"><a xlink:href="../../d9/d8a/pwm__input_8cpp.html#ac3a84d35d7bb786af305543a995446e0" target="_top" xlink:title="pwmin_start">
<polygon fill="white" stroke="black" points="527,-52.08 527,-71.08 597,-71.08 597,-52.08 527,-52.08"/>
<text text-anchor="middle" x="562" y="-59.08" font-family="Helvetica,sans-Serif" font-size="10.00">pwmin_start</text>
</a>
</g>
</g>
<!-- Node4&#45;&gt;Node5 -->
<g id="edge4" class="edge"><title>Node4&#45;&gt;Node5</title>
<path fill="none" stroke="midnightblue" d="M500.703,-61.58C509.412,-61.58 518.415,-61.58 526.722,-61.58"/>
<polygon fill="midnightblue" stroke="midnightblue" points="500.672,-58.0801 490.672,-61.58 500.672,-65.0801 500.672,-58.0801"/>
</g>
<!-- Node6 -->
<g id="node6" class="node"><title>Node6</title>
<g id="a_node6"><a xlink:href="../../d9/d8a/pwm__input_8cpp.html#a5d7bc71482250123c0af7f2e2a63018e" target="_top" xlink:title="pwm_input_main">
<polygon fill="white" stroke="black" points="633,-33.08 633,-52.08 723,-52.08 723,-33.08 633,-33.08"/>
<text text-anchor="middle" x="678" y="-40.08" font-family="Helvetica,sans-Serif" font-size="10.00">pwm_input_main</text>
</a>
</g>
</g>
<!-- Node5&#45;&gt;Node6 -->
<g id="edge5" class="edge"><title>Node5&#45;&gt;Node6</title>
<path fill="none" stroke="midnightblue" d="M607.17,-54.2184C615.541,-52.8232 624.301,-51.3631 632.677,-49.9671"/>
<polygon fill="midnightblue" stroke="midnightblue" points="606.492,-50.7829 597.204,-55.8794 607.643,-57.6877 606.492,-50.7829"/>
</g>
<!-- Node7&#45;&gt;Node8 -->
<g id="edge7" class="edge"><title>Node7&#45;&gt;Node8</title>
<path fill="none" stroke="midnightblue" d="M375.376,-23.58C389.806,-23.58 405.402,-23.58 418.871,-23.58"/>
<polygon fill="midnightblue" stroke="midnightblue" points="375.123,-20.0801 365.123,-23.58 375.123,-27.0801 375.123,-20.0801"/>
</g>
<!-- Node8&#45;&gt;Node6 -->
<g id="edge8" class="edge"><title>Node8&#45;&gt;Node6</title>
<path fill="none" stroke="midnightblue" d="M501.39,-27.4823C539.791,-30.7838 594.501,-35.4873 632.615,-38.7641"/>
<polygon fill="midnightblue" stroke="midnightblue" points="501.281,-23.9601 491.018,-26.5906 500.682,-30.9344 501.281,-23.9601"/>
</g>
</g>
</svg>
        <g id="navigator" transform="translate(0 0)" fill="#404254">
                <rect fill="#f2f5e9" fill-opacity="0.5" stroke="#606060" stroke-width=".5" x="0" y="0" width="60" height="60"/>
                <use id="zoomplus" xlink:href="#zoomPlus" x="17" y="9" onmousedown="handleZoom(evt,'in')"/>
                <use id="zoomminus" xlink:href="#zoomMin" x="42" y="9" onmousedown="handleZoom(evt,'out')"/>
                <use id="reset" xlink:href="#resetDef" x="30" y="36" onmousedown="handleReset()"/>
                <g id="arrowUp" xlink:href="#dirArrow" transform="translate(30 24)" onmousedown="handlePan(0,-1)">
                  <use xlink:href="#rim" fill="#404040">
                        <set attributeName="fill" to="#808080" begin="arrowUp.mouseover" end="arrowUp.mouseout"/>
                  </use>
                  <path fill="none" stroke="white" stroke-width="1.5" d="M0,-3.0v7 M-2.5,-0.5L0,-3.0L2.5,-0.5"/>
                </g>
                <g id="arrowRight" xlink:href="#dirArrow" transform="rotate(90) translate(36 -43)" onmousedown="handlePan(1,0)">
                  <use xlink:href="#rim" fill="#404040">
                        <set attributeName="fill" to="#808080" begin="arrowRight.mouseover" end="arrowRight.mouseout"/>
                  </use>
                  <path fill="none" stroke="white" stroke-width="1.5" d="M0,-3.0v7 M-2.5,-0.5L0,-3.0L2.5,-0.5"/>
                </g>
                <g id="arrowDown" xlink:href="#dirArrow" transform="rotate(180) translate(-30 -48)" onmousedown="handlePan(0,1)">
                  <use xlink:href="#rim" fill="#404040">
                        <set attributeName="fill" to="#808080" begin="arrowDown.mouseover" end="arrowDown.mouseout"/>
                  </use>
                  <path fill="none" stroke="white" stroke-width="1.5" d="M0,-3.0v7 M-2.5,-0.5L0,-3.0L2.5,-0.5"/>
                </g>
                <g id="arrowLeft" xlink:href="#dirArrow" transform="rotate(270) translate(-36 17)" onmousedown="handlePan(-1,0)">
                  <use xlink:href="#rim" fill="#404040">
                        <set attributeName="fill" to="#808080" begin="arrowLeft.mouseover" end="arrowLeft.mouseout"/>
                  </use>
                  <path fill="none" stroke="white" stroke-width="1.5" d="M0,-3.0v7 M-2.5,-0.5L0,-3.0L2.5,-0.5"/>
                </g>
        </g>
        <svg viewBox="0 0 15 15" width="100%" height="30px" preserveAspectRatio="xMaxYMin meet">
         <g id="arrow_out" transform="scale(0.3 0.3)">
          <a xlink:href="class_p_w_m_i_n_af012d3e1986e0970284e3be3cabf49c7_icgraph_org.svg" target="_base">
           <rect id="button" ry="5" rx="5" y="6" x="6" height="38" width="38"
                fill="#f2f5e9" fill-opacity="0.5" stroke="#606060" stroke-width="1.0"/>
           <path id="arrow"
             d="M 11.500037,31.436501 C 11.940474,20.09759 22.043105,11.32322 32.158766,21.979434 L 37.068811,17.246167 C 37.068811,17.246167 37.088388,32 37.088388,32 L 22.160133,31.978069 C 22.160133,31.978069 26.997745,27.140456 26.997745,27.140456 C 18.528582,18.264221 13.291696,25.230495 11.500037,31.436501 z"
             style="fill:#404040;"/>
          </a>
         </g>
        </svg>
</svg>
