<?xml version="1.0" encoding="UTF-8" standalone="no"?>
<!DOCTYPE svg PUBLIC "-//W3C//DTD SVG 1.1//EN"
 "http://www.w3.org/Graphics/SVG/1.1/DTD/svg11.dtd">
<!-- Generated by graphviz version 2.40.1 (20161225.0304)
 -->
<!-- Title: PGA460::read_threshold_registers Pages: 1 -->
<svg width="300pt" height="104pt"
 viewBox="0.00 0.00 300.00 104.00" xmlns="http://www.w3.org/2000/svg" xmlns:xlink="http://www.w3.org/1999/xlink">
<g id="graph0" class="graph" transform="scale(1 1) rotate(0) translate(4 100)">
<title>PGA460::read_threshold_registers</title>
<polygon fill="#ffffff" stroke="transparent" points="-4,4 -4,-100 296,-100 296,4 -4,4"/>
<!-- Node181 -->
<g id="node1" class="node">
<title>Node181</title>
<polygon fill="#bfbfbf" stroke="#000000" points="0,-33 0,-63 123,-63 123,-33 0,-33"/>
<text text-anchor="start" x="8" y="-51" font-family="Helvetica,sans-Serif" font-size="10.00" fill="#000000">PGA460::read_threshold</text>
<text text-anchor="middle" x="61.5" y="-40" font-family="Helvetica,sans-Serif" font-size="10.00" fill="#000000">_registers</text>
</g>
<!-- Node182 -->
<g id="node2" class="node">
<title>Node182</title>
<g id="a_node2"><a xlink:href="../../d2/de1/class_p_g_a460.html#a2769387ceba52f7f6b2d034249bec020" target="_top" xlink:title="Reports the diagnostic data the diagnostic byte (first byte from slave). ">
<polygon fill="#ffffff" stroke="#000000" points="159,-76.5 159,-95.5 292,-95.5 292,-76.5 159,-76.5"/>
<text text-anchor="middle" x="225.5" y="-83.5" font-family="Helvetica,sans-Serif" font-size="10.00" fill="#000000">PGA460::print_diagnostics</text>
</a>
</g>
</g>
<!-- Node181&#45;&gt;Node182 -->
<g id="edge1" class="edge">
<title>Node181&#45;&gt;Node182</title>
<path fill="none" stroke="#191970" d="M123.0341,-62.2579C139.8942,-66.1645 157.9875,-70.3569 174.2072,-74.1151"/>
<polygon fill="#191970" stroke="#191970" points="173.5044,-77.5449 184.0364,-76.3926 175.0846,-70.7256 173.5044,-77.5449"/>
</g>
<!-- Node183 -->
<g id="node3" class="node">
<title>Node183</title>
<g id="a_node3"><a xlink:href="../../da/d60/boot__app__shared_8c.html#a86a20ed376cc63753233354a7f555699" target="_top" xlink:title="read">
<polygon fill="#ffffff" stroke="#000000" points="208,-38.5 208,-57.5 243,-57.5 243,-38.5 208,-38.5"/>
<text text-anchor="middle" x="225.5" y="-45.5" font-family="Helvetica,sans-Serif" font-size="10.00" fill="#000000">read</text>
</a>
</g>
</g>
<!-- Node181&#45;&gt;Node183 -->
<g id="edge2" class="edge">
<title>Node181&#45;&gt;Node183</title>
<path fill="none" stroke="#191970" d="M123.0341,-48C148.7667,-48 177.3717,-48 197.8043,-48"/>
<polygon fill="#191970" stroke="#191970" points="197.965,-51.5001 207.9649,-48 197.9649,-44.5001 197.965,-51.5001"/>
</g>
<!-- Node184 -->
<g id="node4" class="node">
<title>Node184</title>
<g id="a_node4"><a xlink:href="../../da/d60/boot__app__shared_8c.html#a6e76822ee32581d3159ae2f6ce9ae229" target="_top" xlink:title="write">
<polygon fill="#ffffff" stroke="#000000" points="206.5,-.5 206.5,-19.5 244.5,-19.5 244.5,-.5 206.5,-.5"/>
<text text-anchor="middle" x="225.5" y="-7.5" font-family="Helvetica,sans-Serif" font-size="10.00" fill="#000000">write</text>
</a>
</g>
</g>
<!-- Node181&#45;&gt;Node184 -->
<g id="edge3" class="edge">
<title>Node181&#45;&gt;Node184</title>
<path fill="none" stroke="#191970" d="M123.0341,-33.7421C148.2661,-27.8957 176.2598,-21.4093 196.6026,-16.6957"/>
<polygon fill="#191970" stroke="#191970" points="197.5362,-20.0722 206.488,-14.4052 195.956,-13.2529 197.5362,-20.0722"/>
</g>
</g>
</svg>
