<?xml version="1.0" encoding="UTF-8" standalone="no"?>
<!DOCTYPE svg PUBLIC "-//W3C//DTD SVG 1.1//EN"
 "http://www.w3.org/Graphics/SVG/1.1/DTD/svg11.dtd">
<!-- Generated by graphviz version 2.40.1 (20161225.0304)
 -->
<!-- Title: PGA460::read_eeprom Pages: 1 -->
<svg width="457pt" height="142pt"
 viewBox="0.00 0.00 457.00 142.00" xmlns="http://www.w3.org/2000/svg" xmlns:xlink="http://www.w3.org/1999/xlink">
<g id="graph0" class="graph" transform="scale(1 1) rotate(0) translate(4 138)">
<title>PGA460::read_eeprom</title>
<polygon fill="#ffffff" stroke="transparent" points="-4,4 -4,-138 453,-138 453,4 -4,4"/>
<!-- Node160 -->
<g id="node1" class="node">
<title>Node160</title>
<polygon fill="#bfbfbf" stroke="#000000" points="0,-57.5 0,-76.5 116,-76.5 116,-57.5 0,-57.5"/>
<text text-anchor="middle" x="58" y="-64.5" font-family="Helvetica,sans-Serif" font-size="10.00" fill="#000000">PGA460::read_eeprom</text>
</g>
<!-- Node161 -->
<g id="node2" class="node">
<title>Node161</title>
<g id="a_node2"><a xlink:href="../../d2/de1/class_p_g_a460.html#a2769387ceba52f7f6b2d034249bec020" target="_top" xlink:title="Reports the diagnostic data the diagnostic byte (first byte from slave). ">
<polygon fill="#ffffff" stroke="#000000" points="152,-114.5 152,-133.5 285,-133.5 285,-114.5 152,-114.5"/>
<text text-anchor="middle" x="218.5" y="-121.5" font-family="Helvetica,sans-Serif" font-size="10.00" fill="#000000">PGA460::print_diagnostics</text>
</a>
</g>
</g>
<!-- Node160&#45;&gt;Node161 -->
<g id="edge1" class="edge">
<title>Node160&#45;&gt;Node161</title>
<path fill="none" stroke="#191970" d="M79.7832,-76.5715C98.6774,-84.6884 126.8651,-96.356 152,-105 158.5607,-107.2563 165.5476,-109.462 172.4341,-111.525"/>
<polygon fill="#191970" stroke="#191970" points="171.81,-114.9889 182.3903,-114.4347 173.7737,-108.27 171.81,-114.9889"/>
</g>
<!-- Node162 -->
<g id="node3" class="node">
<title>Node162</title>
<g id="a_node3"><a xlink:href="../../da/d60/boot__app__shared_8c.html#a86a20ed376cc63753233354a7f555699" target="_top" xlink:title="read">
<polygon fill="#ffffff" stroke="#000000" points="201,-76.5 201,-95.5 236,-95.5 236,-76.5 201,-76.5"/>
<text text-anchor="middle" x="218.5" y="-83.5" font-family="Helvetica,sans-Serif" font-size="10.00" fill="#000000">read</text>
</a>
</g>
</g>
<!-- Node160&#45;&gt;Node162 -->
<g id="edge2" class="edge">
<title>Node160&#45;&gt;Node162</title>
<path fill="none" stroke="#191970" d="M116.3982,-73.9132C141.7742,-76.9172 170.3057,-80.2948 190.7438,-82.7142"/>
<polygon fill="#191970" stroke="#191970" points="190.5717,-86.2182 200.9138,-83.9181 191.3947,-79.2667 190.5717,-86.2182"/>
</g>
<!-- Node163 -->
<g id="node4" class="node">
<title>Node163</title>
<g id="a_node4"><a xlink:href="../../d2/de1/class_p_g_a460.html#a8e4e7002fbeb7cf50a321c0e52c8fcb1" target="_top" xlink:title="Send the unlock command to the EEPROM to enable reading and writing – not needed w/ bulk write...">
<polygon fill="#ffffff" stroke="#000000" points="156,-38.5 156,-57.5 281,-57.5 281,-38.5 156,-38.5"/>
<text text-anchor="middle" x="218.5" y="-45.5" font-family="Helvetica,sans-Serif" font-size="10.00" fill="#000000">PGA460::unlock_eeprom</text>
</a>
</g>
</g>
<!-- Node160&#45;&gt;Node163 -->
<g id="edge3" class="edge">
<title>Node160&#45;&gt;Node163</title>
<path fill="none" stroke="#191970" d="M116.3982,-60.0868C125.911,-58.9607 135.8672,-57.7821 145.6742,-56.6211"/>
<polygon fill="#191970" stroke="#191970" points="146.2962,-60.072 155.8153,-55.4206 145.4732,-53.1206 146.2962,-60.072"/>
</g>
<!-- Node165 -->
<g id="node6" class="node">
<title>Node165</title>
<g id="a_node6"><a xlink:href="../../da/d60/boot__app__shared_8c.html#a6e76822ee32581d3159ae2f6ce9ae229" target="_top" xlink:title="write">
<polygon fill="#ffffff" stroke="#000000" points="366,-.5 366,-19.5 404,-19.5 404,-.5 366,-.5"/>
<text text-anchor="middle" x="385" y="-7.5" font-family="Helvetica,sans-Serif" font-size="10.00" fill="#000000">write</text>
</a>
</g>
</g>
<!-- Node160&#45;&gt;Node165 -->
<g id="edge6" class="edge">
<title>Node160&#45;&gt;Node165</title>
<path fill="none" stroke="#191970" d="M76.8817,-57.3778C95.4742,-48.3868 124.9381,-35.4154 152,-29 223.8716,-11.9618 311.3121,-9.5464 355.8614,-9.5738"/>
<polygon fill="#191970" stroke="#191970" points="355.9563,-13.0742 365.9734,-9.6236 355.9908,-6.0743 355.9563,-13.0742"/>
</g>
<!-- Node164 -->
<g id="node5" class="node">
<title>Node164</title>
<g id="a_node5"><a xlink:href="../../d2/de1/class_p_g_a460.html#a1b69dc256ac60cb9dfe6daf01702178f" target="_top" xlink:title="Calculates the checksum of the transmitted commmand + data. ">
<polygon fill="#ffffff" stroke="#000000" points="321,-38.5 321,-57.5 449,-57.5 449,-38.5 321,-38.5"/>
<text text-anchor="middle" x="385" y="-45.5" font-family="Helvetica,sans-Serif" font-size="10.00" fill="#000000">PGA460::calc_checksum</text>
</a>
</g>
</g>
<!-- Node163&#45;&gt;Node164 -->
<g id="edge4" class="edge">
<title>Node163&#45;&gt;Node164</title>
<path fill="none" stroke="#191970" d="M281.4465,-48C291.0152,-48 300.965,-48 310.7471,-48"/>
<polygon fill="#191970" stroke="#191970" points="310.8575,-51.5001 320.8575,-48 310.8574,-44.5001 310.8575,-51.5001"/>
</g>
<!-- Node163&#45;&gt;Node165 -->
<g id="edge5" class="edge">
<title>Node163&#45;&gt;Node165</title>
<path fill="none" stroke="#191970" d="M260.515,-38.411C290.2814,-31.6175 329.4574,-22.6764 355.8451,-16.654"/>
<polygon fill="#191970" stroke="#191970" points="356.655,-20.0592 365.6255,-14.4218 355.0974,-13.2347 356.655,-20.0592"/>
</g>
</g>
</svg>
