<?xml version="1.0" encoding="UTF-8" standalone="no"?>
<!DOCTYPE svg PUBLIC "-//W3C//DTD SVG 1.1//EN"
 "http://www.w3.org/Graphics/SVG/1.1/DTD/svg11.dtd">
<!-- Generated by graphviz version 2.40.1 (20161225.0304)
 -->
<!-- Title: PGA460::open_serial Pages: 1 -->
<svg width="517pt" height="180pt"
 viewBox="0.00 0.00 517.00 180.00" xmlns="http://www.w3.org/2000/svg" xmlns:xlink="http://www.w3.org/1999/xlink">
<g id="graph0" class="graph" transform="scale(1 1) rotate(0) translate(4 176)">
<title>PGA460::open_serial</title>
<polygon fill="#ffffff" stroke="transparent" points="-4,4 -4,-176 513,-176 513,4 -4,4"/>
<!-- Node122 -->
<g id="node1" class="node">
<title>Node122</title>
<polygon fill="#bfbfbf" stroke="#000000" points="0,-76.5 0,-95.5 109,-95.5 109,-76.5 0,-76.5"/>
<text text-anchor="middle" x="54.5" y="-83.5" font-family="Helvetica,sans-Serif" font-size="10.00" fill="#000000">PGA460::open_serial</text>
</g>
<!-- Node123 -->
<g id="node2" class="node">
<title>Node123</title>
<g id="a_node2"><a xlink:href="../../da/dc9/posix_2cdev__platform_8cpp.html#ae90495d7ed25116c6e19cd9163d8ed02" target="_top" xlink:title="px4_open">
<polygon fill="#ffffff" stroke="#000000" points="145,-76.5 145,-95.5 204,-95.5 204,-76.5 145,-76.5"/>
<text text-anchor="middle" x="174.5" y="-83.5" font-family="Helvetica,sans-Serif" font-size="10.00" fill="#000000">px4_open</text>
</a>
</g>
</g>
<!-- Node122&#45;&gt;Node123 -->
<g id="edge1" class="edge">
<title>Node122&#45;&gt;Node123</title>
<path fill="none" stroke="#191970" d="M109.2326,-86C117.8383,-86 126.5896,-86 134.7711,-86"/>
<polygon fill="#191970" stroke="#191970" points="134.7757,-89.5001 144.7757,-86 134.7756,-82.5001 134.7757,-89.5001"/>
</g>
<!-- Node124 -->
<g id="node3" class="node">
<title>Node124</title>
<g id="a_node3"><a xlink:href="../../dc/db4/classcdev_1_1_v_file.html#a76418692ad24fb60ee14bdb5ae66d19d" target="_top" xlink:title="cdev::VFile::createFile">
<polygon fill="#ffffff" stroke="#000000" points="240,-114.5 240,-133.5 355,-133.5 355,-114.5 240,-114.5"/>
<text text-anchor="middle" x="297.5" y="-121.5" font-family="Helvetica,sans-Serif" font-size="10.00" fill="#000000">cdev::VFile::createFile</text>
</a>
</g>
</g>
<!-- Node123&#45;&gt;Node124 -->
<g id="edge2" class="edge">
<title>Node123&#45;&gt;Node124</title>
<path fill="none" stroke="#191970" d="M204.2749,-95.1987C220.0842,-100.0829 239.7451,-106.157 256.9303,-111.4663"/>
<polygon fill="#191970" stroke="#191970" points="256.1272,-114.8813 266.7148,-114.4891 258.1935,-108.1932 256.1272,-114.8813"/>
</g>
<!-- Node127 -->
<g id="node6" class="node">
<title>Node127</title>
<g id="a_node6"><a xlink:href="../../da/dc9/posix_2cdev__platform_8cpp.html#a3fe15a0fdcd00e34f4a29b3cea4c7c46" target="_top" xlink:title="getDev">
<polygon fill="#ffffff" stroke="#000000" points="273.5,-76.5 273.5,-95.5 321.5,-95.5 321.5,-76.5 273.5,-76.5"/>
<text text-anchor="middle" x="297.5" y="-83.5" font-family="Helvetica,sans-Serif" font-size="10.00" fill="#000000">getDev</text>
</a>
</g>
</g>
<!-- Node123&#45;&gt;Node127 -->
<g id="edge5" class="edge">
<title>Node123&#45;&gt;Node127</title>
<path fill="none" stroke="#191970" d="M204.2749,-86C222.0688,-86 244.7421,-86 263.2729,-86"/>
<polygon fill="#191970" stroke="#191970" points="263.3597,-89.5001 273.3597,-86 263.3596,-82.5001 263.3597,-89.5001"/>
</g>
<!-- Node128 -->
<g id="node7" class="node">
<title>Node128</title>
<g id="a_node7"><a xlink:href="../../d8/d26/classcdev_1_1_c_dev.html#a398ee881e4eb691f7622e8f2e6da7863" target="_top" xlink:title="Handle an open of the device. ">
<polygon fill="#ffffff" stroke="#000000" points="249.5,-38.5 249.5,-57.5 345.5,-57.5 345.5,-38.5 249.5,-38.5"/>
<text text-anchor="middle" x="297.5" y="-45.5" font-family="Helvetica,sans-Serif" font-size="10.00" fill="#000000">cdev::CDev::open</text>
</a>
</g>
</g>
<!-- Node123&#45;&gt;Node128 -->
<g id="edge6" class="edge">
<title>Node123&#45;&gt;Node128</title>
<path fill="none" stroke="#191970" d="M204.2749,-76.8013C220.0842,-71.9171 239.7451,-65.843 256.9303,-60.5337"/>
<polygon fill="#191970" stroke="#191970" points="258.1935,-63.8068 266.7148,-57.5109 256.1272,-57.1187 258.1935,-63.8068"/>
</g>
<!-- Node125 -->
<g id="node4" class="node">
<title>Node125</title>
<g id="a_node4"><a xlink:href="../../dc/db4/classcdev_1_1_v_file.html#a48ae3db836c0e14085465455ebbc9c99" target="_top" xlink:title="cdev::VFile::VFile">
<polygon fill="#ffffff" stroke="#000000" points="402.5,-152.5 402.5,-171.5 497.5,-171.5 497.5,-152.5 402.5,-152.5"/>
<text text-anchor="middle" x="450" y="-159.5" font-family="Helvetica,sans-Serif" font-size="10.00" fill="#000000">cdev::VFile::VFile</text>
</a>
</g>
</g>
<!-- Node124&#45;&gt;Node125 -->
<g id="edge3" class="edge">
<title>Node124&#45;&gt;Node125</title>
<path fill="none" stroke="#191970" d="M335.9822,-133.589C356.0156,-138.5809 380.7023,-144.7324 401.976,-150.0334"/>
<polygon fill="#191970" stroke="#191970" points="401.245,-153.4582 411.7945,-152.4799 402.9375,-146.6659 401.245,-153.4582"/>
</g>
<!-- Node126 -->
<g id="node5" class="node">
<title>Node126</title>
<g id="a_node5"><a xlink:href="../../da/dc9/posix_2cdev__platform_8cpp.html#aa770be826c3eeb8554e677a3a4c9c11c" target="_top" xlink:title="register_driver">
<polygon fill="#ffffff" stroke="#000000" points="411,-114.5 411,-133.5 489,-133.5 489,-114.5 411,-114.5"/>
<text text-anchor="middle" x="450" y="-121.5" font-family="Helvetica,sans-Serif" font-size="10.00" fill="#000000">register_driver</text>
</a>
</g>
</g>
<!-- Node124&#45;&gt;Node126 -->
<g id="edge4" class="edge">
<title>Node124&#45;&gt;Node126</title>
<path fill="none" stroke="#191970" d="M355.1537,-124C370.0857,-124 386.0309,-124 400.5035,-124"/>
<polygon fill="#191970" stroke="#191970" points="400.7461,-127.5001 410.746,-124 400.746,-120.5001 400.7461,-127.5001"/>
</g>
<!-- Node129 -->
<g id="node8" class="node">
<title>Node129</title>
<g id="a_node8"><a xlink:href="../../d8/d26/classcdev_1_1_c_dev.html#ae676cccee31dd393ab681414a146d868" target="_top" xlink:title="Take the driver lock. ">
<polygon fill="#ffffff" stroke="#000000" points="403.5,-76.5 403.5,-95.5 496.5,-95.5 496.5,-76.5 403.5,-76.5"/>
<text text-anchor="middle" x="450" y="-83.5" font-family="Helvetica,sans-Serif" font-size="10.00" fill="#000000">cdev::CDev::lock</text>
</a>
</g>
</g>
<!-- Node128&#45;&gt;Node129 -->
<g id="edge7" class="edge">
<title>Node128&#45;&gt;Node129</title>
<path fill="none" stroke="#191970" d="M335.9822,-57.589C356.0156,-62.5809 380.7023,-68.7324 401.976,-74.0334"/>
<polygon fill="#191970" stroke="#191970" points="401.245,-77.4582 411.7945,-76.4799 402.9375,-70.6659 401.245,-77.4582"/>
</g>
<!-- Node130 -->
<g id="node9" class="node">
<title>Node130</title>
<g id="a_node9"><a xlink:href="../../d8/d26/classcdev_1_1_c_dev.html#add6ba5112cbd1b9c3d61c148040a5c76" target="_top" xlink:title="Notification of the first open. ">
<polygon fill="#ffffff" stroke="#000000" points="391,-38.5 391,-57.5 509,-57.5 509,-38.5 391,-38.5"/>
<text text-anchor="middle" x="450" y="-45.5" font-family="Helvetica,sans-Serif" font-size="10.00" fill="#000000">cdev::CDev::open_first</text>
</a>
</g>
</g>
<!-- Node128&#45;&gt;Node130 -->
<g id="edge8" class="edge">
<title>Node128&#45;&gt;Node130</title>
<path fill="none" stroke="#191970" d="M345.752,-48C356.8205,-48 368.8031,-48 380.5675,-48"/>
<polygon fill="#191970" stroke="#191970" points="380.8213,-51.5001 390.8212,-48 380.8212,-44.5001 380.8213,-51.5001"/>
</g>
<!-- Node131 -->
<g id="node10" class="node">
<title>Node131</title>
<g id="a_node10"><a xlink:href="../../d8/d26/classcdev_1_1_c_dev.html#af65273e0578b277deea057dc7d558e9d" target="_top" xlink:title="Release the driver lock. ">
<polygon fill="#ffffff" stroke="#000000" points="398,-.5 398,-19.5 502,-19.5 502,-.5 398,-.5"/>
<text text-anchor="middle" x="450" y="-7.5" font-family="Helvetica,sans-Serif" font-size="10.00" fill="#000000">cdev::CDev::unlock</text>
</a>
</g>
</g>
<!-- Node128&#45;&gt;Node131 -->
<g id="edge9" class="edge">
<title>Node128&#45;&gt;Node131</title>
<path fill="none" stroke="#191970" d="M335.9822,-38.411C356.0156,-33.4191 380.7023,-27.2676 401.976,-21.9666"/>
<polygon fill="#191970" stroke="#191970" points="402.9375,-25.3341 411.7945,-19.5201 401.245,-18.5418 402.9375,-25.3341"/>
</g>
</g>
</svg>
