<?xml version="1.0" encoding="UTF-8" standalone="no"?>
<!DOCTYPE svg PUBLIC "-//W3C//DTD SVG 1.1//EN"
 "http://www.w3.org/Graphics/SVG/1.1/DTD/svg11.dtd">
<!-- Generated by graphviz version 2.40.1 (20161225.0304)
 -->
<!-- Title: print_usage Pages: 1 -->
<svg width="186pt" height="28pt"
 viewBox="0.00 0.00 186.00 28.00" xmlns="http://www.w3.org/2000/svg" xmlns:xlink="http://www.w3.org/1999/xlink">
<g id="graph0" class="graph" transform="scale(1 1) rotate(0) translate(4 24)">
<title>print_usage</title>
<polygon fill="#ffffff" stroke="transparent" points="-4,4 -4,-24 182,-24 182,4 -4,4"/>
<!-- Node0 -->
<g id="node1" class="node">
<title>Node0</title>
<polygon fill="#bfbfbf" stroke="#000000" points="0,-.5 0,-19.5 67,-19.5 67,-.5 0,-.5"/>
<text text-anchor="middle" x="33.5" y="-7.5" font-family="Helvetica,sans-Serif" font-size="10.00" fill="#000000">print_usage</text>
</g>
<!-- Node1 -->
<g id="node2" class="node">
<title>Node1</title>
<g id="a_node2"><a xlink:href="../../d0/dc8/esc__selftest_8cpp.html#a5dd71ac964af7c28f91c01eddcb6ff68" target="_top" xlink:title="selftest_main">
<polygon fill="#ffffff" stroke="#000000" points="103,-.5 103,-19.5 178,-19.5 178,-.5 103,-.5"/>
<text text-anchor="middle" x="140.5" y="-7.5" font-family="Helvetica,sans-Serif" font-size="10.00" fill="#000000">selftest_main</text>
</a>
</g>
</g>
<!-- Node0&#45;&gt;Node1 -->
<g id="edge1" class="edge">
<title>Node0&#45;&gt;Node1</title>
<path fill="none" stroke="#191970" d="M67.0619,-3.6852C75.2554,-3.3111 84.1769,-3.1782 92.8877,-3.2865"/>
<polygon fill="#191970" stroke="#191970" points="92.8804,-6.7872 102.9603,-3.5244 93.0458,.2109 92.8804,-6.7872"/>
</g>
<!-- Node1&#45;&gt;Node0 -->
<g id="edge2" class="edge">
<title>Node1&#45;&gt;Node0</title>
<path fill="none" stroke="#191970" d="M102.9603,-16.4756C94.6496,-16.7694 85.7732,-16.8273 77.2397,-16.6492"/>
<polygon fill="#191970" stroke="#191970" points="77.1714,-13.1451 67.0619,-16.3148 76.9416,-20.1413 77.1714,-13.1451"/>
</g>
</g>
</svg>
