<?xml version="1.0" encoding="UTF-8" standalone="no"?>
<!DOCTYPE svg PUBLIC "-//W3C//DTD SVG 1.1//EN"
 "http://www.w3.org/Graphics/SVG/1.1/DTD/svg11.dtd">
<!-- Generated by graphviz version 2.38.0 (20140413.2041)
 -->
<!-- Title: hello_main Pages: 1 -->
<!--zoomable 180 -->
<svg id="main" version="1.1" xmlns="http://www.w3.org/2000/svg" xmlns:xlink="http://www.w3.org/1999/xlink" xml:space="preserve" onload="init(evt)">
<style type="text/css"><![CDATA[
.edge:hover path { stroke: red; }
.edge:hover polygon { stroke: red; fill: red; }
]]></style>
<script type="text/javascript"><![CDATA[
var edges = document.getElementsByTagName('g');
if (edges && edges.length) {
  for (var i=0;i<edges.length;i++) {
    if (edges[i].id.substr(0,4)=='edge') {
      edges[i].setAttribute('class','edge');
    }
  }
}
]]></script>
        <defs>
                <circle id="rim" cx="0" cy="0" r="7"/>
                <circle id="rim2" cx="0" cy="0" r="3.5"/>
                <g id="zoomPlus">
                        <use xlink:href="#rim" fill="#404040">
                                <set attributeName="fill" to="#808080" begin="zoomplus.mouseover" end="zoomplus.mouseout"/>
                        </use>
                        <path d="M-4,0h8M0,-4v8" fill="none" stroke="white" stroke-width="1.5" pointer-events="none"/>
                </g>
                <g id="zoomMin">
                        <use xlink:href="#rim" fill="#404040">
                                <set attributeName="fill" to="#808080" begin="zoomminus.mouseover" end="zoomminus.mouseout"/>
                        </use>
                        <path d="M-4,0h8" fill="none" stroke="white" stroke-width="1.5" pointer-events="none"/>
                </g>
                <g id="dirArrow">
                        <path fill="none" stroke="white" stroke-width="1.5" d="M0,-3.0v7 M-2.5,-0.5L0,-3.0L2.5,-0.5"/>
                </g>
               <g id="resetDef">
                       <use xlink:href="#rim2" fill="#404040">
                               <set attributeName="fill" to="#808080" begin="reset.mouseover" end="reset.mouseout"/>
                       </use>
               </g>
        </defs>

<script type="text/javascript">
var viewWidth = 731;
var viewHeight = 180;
var sectionId = 'dynsection-1';
</script>
<script xlink:href="../../svgpan.js"/>
<svg id="graph" class="graph">
<g id="viewport">
<title>hello_main</title>
<polygon fill="white" stroke="none" points="-4,4 -4,-176 727,-176 727,4 -4,4"/>
<!-- Node1 -->
<g id="node1" class="node"><title>Node1</title>
<polygon fill="#bfbfbf" stroke="black" points="0,-67.5 0,-86.5 63,-86.5 63,-67.5 0,-67.5"/>
<text text-anchor="middle" x="31.5" y="-74.5" font-family="Helvetica,sans-Serif" font-size="10.00">hello_main</text>
</g>
<!-- Node2 -->
<g id="node2" class="node"><title>Node2</title>
<g id="a_node2"><a xlink:href="../../db/db2/wqueue__main_8cpp.html#a94ca890af8f39e59ea1dcbdd000d16cc" target="_top" xlink:title="PX4_MAIN">
<polygon fill="white" stroke="black" points="133,-105.5 133,-124.5 199,-124.5 199,-105.5 133,-105.5"/>
<text text-anchor="middle" x="166" y="-112.5" font-family="Helvetica,sans-Serif" font-size="10.00">PX4_MAIN</text>
</a>
</g>
</g>
<!-- Node1&#45;&gt;Node2 -->
<g id="edge1" class="edge"><title>Node1&#45;&gt;Node2</title>
<path fill="none" stroke="midnightblue" d="M63.2312,-85.8135C80.9387,-90.8918 103.453,-97.3487 122.8,-102.897"/>
<polygon fill="midnightblue" stroke="midnightblue" points="122.009,-106.312 132.587,-105.704 123.939,-99.5829 122.009,-106.312"/>
</g>
<!-- Node13 -->
<g id="node13" class="node"><title>Node13</title>
<g id="a_node13"><a xlink:href="../../da/d65/px4__tasks_8h.html#a9c9c04f140b8e63904e0e0c6597a5fc8" target="_top" xlink:title="Starts a task and performs any specific accounting, scheduler setup, etc. ">
<polygon fill="white" stroke="black" points="109,-67.5 109,-86.5 223,-86.5 223,-67.5 109,-67.5"/>
<text text-anchor="middle" x="166" y="-74.5" font-family="Helvetica,sans-Serif" font-size="10.00">px4_task_spawn_cmd</text>
</a>
</g>
</g>
<!-- Node1&#45;&gt;Node13 -->
<g id="edge14" class="edge"><title>Node1&#45;&gt;Node13</title>
<path fill="none" stroke="midnightblue" d="M63.2312,-77C73.8624,-77 86.2261,-77 98.5968,-77"/>
<polygon fill="midnightblue" stroke="midnightblue" points="98.9522,-80.5001 108.952,-77 98.9521,-73.5001 98.9522,-80.5001"/>
</g>
<!-- Node14 -->
<g id="node14" class="node"><title>Node14</title>
<g id="a_node14"><a xlink:href="../../d5/d90/classpx4_1_1_app_state.html#a924e8c325ec296332fb4aa327dfee85b" target="_top" xlink:title="px4::AppState::requestExit">
<polygon fill="white" stroke="black" points="99,-29.5 99,-48.5 233,-48.5 233,-29.5 99,-29.5"/>
<text text-anchor="middle" x="166" y="-36.5" font-family="Helvetica,sans-Serif" font-size="10.00">px4::AppState::requestExit</text>
</a>
</g>
</g>
<!-- Node1&#45;&gt;Node14 -->
<g id="edge15" class="edge"><title>Node1&#45;&gt;Node14</title>
<path fill="none" stroke="midnightblue" d="M63.2312,-68.1865C80.6783,-63.1828 102.791,-56.8409 121.945,-51.348"/>
<polygon fill="midnightblue" stroke="midnightblue" points="123.003,-54.6857 131.65,-48.5645 121.073,-47.957 123.003,-54.6857"/>
</g>
<!-- Node3 -->
<g id="node3" class="node"><title>Node3</title>
<g id="a_node3"><a xlink:href="../../d5/d47/namespacepx4.html#aeecd53611796f751264e3f90bb3e25a4" target="_top" xlink:title="px4::init">
<polygon fill="white" stroke="black" points="294,-133.5 294,-152.5 345,-152.5 345,-133.5 294,-133.5"/>
<text text-anchor="middle" x="319.5" y="-140.5" font-family="Helvetica,sans-Serif" font-size="10.00">px4::init</text>
</a>
</g>
</g>
<!-- Node2&#45;&gt;Node3 -->
<g id="edge2" class="edge"><title>Node2&#45;&gt;Node3</title>
<path fill="none" stroke="midnightblue" d="M199.129,-120.938C224.016,-125.538 258.432,-131.898 283.918,-136.609"/>
<polygon fill="midnightblue" stroke="midnightblue" points="283.426,-140.077 293.896,-138.453 284.698,-133.193 283.426,-140.077"/>
</g>
<!-- Node6 -->
<g id="node6" class="node"><title>Node6</title>
<g id="a_node6"><a xlink:href="../../d2/d28/class_w_queue_test.html#a1e039866f19d13a2c8d270e409fbf03a" target="_top" xlink:title="WQueueTest::main">
<polygon fill="white" stroke="black" points="269,-76.5 269,-95.5 370,-95.5 370,-76.5 269,-76.5"/>
<text text-anchor="middle" x="319.5" y="-83.5" font-family="Helvetica,sans-Serif" font-size="10.00">WQueueTest::main</text>
</a>
</g>
</g>
<!-- Node2&#45;&gt;Node6 -->
<g id="edge5" class="edge"><title>Node2&#45;&gt;Node6</title>
<path fill="none" stroke="midnightblue" d="M199.129,-108.85C216.521,-105.521 238.567,-101.301 258.967,-97.3958"/>
<polygon fill="midnightblue" stroke="midnightblue" points="259.657,-100.827 268.821,-95.5095 258.341,-93.952 259.657,-100.827"/>
</g>
<!-- Node4 -->
<g id="node4" class="node"><title>Node4</title>
<g id="a_node4"><a xlink:href="../../d9/d1e/namespacelis3mdl.html#af7304d396b9385f9dfe55796aa805025" target="_top" xlink:title="Initializes the driver – sets defaults and starts a cycle. ">
<polygon fill="white" stroke="black" points="447,-152.5 447,-171.5 513,-171.5 513,-152.5 447,-152.5"/>
<text text-anchor="middle" x="480" y="-159.5" font-family="Helvetica,sans-Serif" font-size="10.00">lis3mdl::init</text>
</a>
</g>
</g>
<!-- Node3&#45;&gt;Node4 -->
<g id="edge3" class="edge"><title>Node3&#45;&gt;Node4</title>
<path fill="none" stroke="midnightblue" d="M345.266,-145.969C369.721,-148.9 407.593,-153.44 436.801,-156.941"/>
<polygon fill="midnightblue" stroke="midnightblue" points="436.389,-160.417 446.734,-158.132 437.222,-153.467 436.389,-160.417"/>
</g>
<!-- Node5 -->
<g id="node5" class="node"><title>Node5</title>
<g id="a_node5"><a xlink:href="../../dc/d5d/namespacebmp280.html#ada27253111a67d74f9740385dc8937bb" target="_top" xlink:title="find a bus structure for a busid ">
<polygon fill="white" stroke="black" points="609.5,-152.5 609.5,-171.5 703.5,-171.5 703.5,-152.5 609.5,-152.5"/>
<text text-anchor="middle" x="656.5" y="-159.5" font-family="Helvetica,sans-Serif" font-size="10.00">bmp280::find_bus</text>
</a>
</g>
</g>
<!-- Node4&#45;&gt;Node5 -->
<g id="edge4" class="edge"><title>Node4&#45;&gt;Node5</title>
<path fill="none" stroke="midnightblue" d="M513.006,-162C537.017,-162 570.51,-162 598.991,-162"/>
<polygon fill="midnightblue" stroke="midnightblue" points="599.231,-165.5 609.231,-162 599.231,-158.5 599.231,-165.5"/>
</g>
<!-- Node7 -->
<g id="node7" class="node"><title>Node7</title>
<g id="a_node7"><a xlink:href="../../d5/d90/classpx4_1_1_app_state.html#a06e4c4d1d37f634cd83ef5dc3f2b771d" target="_top" xlink:title="px4::AppState::setRunning">
<polygon fill="white" stroke="black" points="413,-114.5 413,-133.5 547,-133.5 547,-114.5 413,-114.5"/>
<text text-anchor="middle" x="480" y="-121.5" font-family="Helvetica,sans-Serif" font-size="10.00">px4::AppState::setRunning</text>
</a>
</g>
</g>
<!-- Node6&#45;&gt;Node7 -->
<g id="edge6" class="edge"><title>Node6&#45;&gt;Node7</title>
<path fill="none" stroke="midnightblue" d="M360.496,-95.589C381.412,-100.604 407.208,-106.788 429.386,-112.105"/>
<polygon fill="midnightblue" stroke="midnightblue" points="428.751,-115.552 439.291,-114.48 430.383,-108.745 428.751,-115.552"/>
</g>
<!-- Node8 -->
<g id="node8" class="node"><title>Node8</title>
<g id="a_node8"><a xlink:href="../../d2/d28/class_w_queue_test.html#a6906204501738995bdc22f648c0e3236" target="_top" xlink:title="WQueueTest::hp_worker_cb">
<polygon fill="white" stroke="black" points="409.5,-76.5 409.5,-95.5 550.5,-95.5 550.5,-76.5 409.5,-76.5"/>
<text text-anchor="middle" x="480" y="-83.5" font-family="Helvetica,sans-Serif" font-size="10.00">WQueueTest::hp_worker_cb</text>
</a>
</g>
</g>
<!-- Node6&#45;&gt;Node8 -->
<g id="edge7" class="edge"><title>Node6&#45;&gt;Node8</title>
<path fill="none" stroke="midnightblue" d="M370.216,-86C379.447,-86 389.302,-86 399.169,-86"/>
<polygon fill="midnightblue" stroke="midnightblue" points="399.43,-89.5001 409.43,-86 399.43,-82.5001 399.43,-89.5001"/>
</g>
<!-- Node10 -->
<g id="node10" class="node"><title>Node10</title>
<g id="a_node10"><a xlink:href="../../d2/d28/class_w_queue_test.html#af8530228bc854f3397f4a9d660f2812e" target="_top" xlink:title="WQueueTest::lp_worker_cb">
<polygon fill="white" stroke="black" points="411,-38.5 411,-57.5 549,-57.5 549,-38.5 411,-38.5"/>
<text text-anchor="middle" x="480" y="-45.5" font-family="Helvetica,sans-Serif" font-size="10.00">WQueueTest::lp_worker_cb</text>
</a>
</g>
</g>
<!-- Node6&#45;&gt;Node10 -->
<g id="edge10" class="edge"><title>Node6&#45;&gt;Node10</title>
<path fill="none" stroke="midnightblue" d="M360.496,-76.411C381.412,-71.3965 407.208,-65.2119 429.386,-59.8947"/>
<polygon fill="midnightblue" stroke="midnightblue" points="430.383,-63.2551 439.291,-57.5201 428.751,-56.448 430.383,-63.2551"/>
</g>
<!-- Node12 -->
<g id="node12" class="node"><title>Node12</title>
<g id="a_node12"><a xlink:href="../../d5/d90/classpx4_1_1_app_state.html#a853ad1ac4fcc79ce6e3d4f2c025e84f1" target="_top" xlink:title="px4::AppState::exitRequested">
<polygon fill="white" stroke="black" points="406,-0.5 406,-19.5 554,-19.5 554,-0.5 406,-0.5"/>
<text text-anchor="middle" x="480" y="-7.5" font-family="Helvetica,sans-Serif" font-size="10.00">px4::AppState::exitRequested</text>
</a>
</g>
</g>
<!-- Node6&#45;&gt;Node12 -->
<g id="edge13" class="edge"><title>Node6&#45;&gt;Node12</title>
<path fill="none" stroke="midnightblue" d="M332.206,-76.3264C348.017,-63.7157 377.51,-41.7677 406,-29 411.359,-26.5983 417.081,-24.455 422.873,-22.5533"/>
<polygon fill="midnightblue" stroke="midnightblue" points="424.092,-25.8409 432.638,-19.5779 422.052,-19.1449 424.092,-25.8409"/>
</g>
<!-- Node9 -->
<g id="node9" class="node"><title>Node9</title>
<g id="a_node9"><a xlink:href="../../d2/d28/class_w_queue_test.html#a38617f665fe96c036041cf6b8565fbec" target="_top" xlink:title="WQueueTest::do_hp_work">
<polygon fill="white" stroke="black" points="590,-76.5 590,-95.5 723,-95.5 723,-76.5 590,-76.5"/>
<text text-anchor="middle" x="656.5" y="-83.5" font-family="Helvetica,sans-Serif" font-size="10.00">WQueueTest::do_hp_work</text>
</a>
</g>
</g>
<!-- Node8&#45;&gt;Node9 -->
<g id="edge8" class="edge"><title>Node8&#45;&gt;Node9</title>
<path fill="none" stroke="midnightblue" d="M550.719,-79.3726C560.302,-79.2369 570.178,-79.2139 579.86,-79.3034"/>
<polygon fill="midnightblue" stroke="midnightblue" points="579.813,-82.803 589.859,-79.4375 579.907,-75.8036 579.813,-82.803"/>
</g>
<!-- Node9&#45;&gt;Node8 -->
<g id="edge9" class="edge"><title>Node9&#45;&gt;Node8</title>
<path fill="none" stroke="midnightblue" d="M589.859,-92.5625C580.371,-92.7303 570.519,-92.7855 560.791,-92.728"/>
<polygon fill="midnightblue" stroke="midnightblue" points="560.754,-89.2276 550.719,-92.6274 560.684,-96.2272 560.754,-89.2276"/>
</g>
<!-- Node11 -->
<g id="node11" class="node"><title>Node11</title>
<g id="a_node11"><a xlink:href="../../d2/d28/class_w_queue_test.html#a26507822fefb31b2fac051913d1f453a" target="_top" xlink:title="WQueueTest::do_lp_work">
<polygon fill="white" stroke="black" points="591.5,-38.5 591.5,-57.5 721.5,-57.5 721.5,-38.5 591.5,-38.5"/>
<text text-anchor="middle" x="656.5" y="-45.5" font-family="Helvetica,sans-Serif" font-size="10.00">WQueueTest::do_lp_work</text>
</a>
</g>
</g>
<!-- Node10&#45;&gt;Node11 -->
<g id="edge11" class="edge"><title>Node10&#45;&gt;Node11</title>
<path fill="none" stroke="midnightblue" d="M549.216,-41.3948C559.72,-41.2326 570.61,-41.2067 581.238,-41.3169"/>
<polygon fill="midnightblue" stroke="midnightblue" points="581.275,-44.8177 591.326,-41.4644 581.378,-37.8185 581.275,-44.8177"/>
</g>
<!-- Node11&#45;&gt;Node10 -->
<g id="edge12" class="edge"><title>Node11&#45;&gt;Node10</title>
<path fill="none" stroke="midnightblue" d="M591.326,-54.5356C580.932,-54.733 570.069,-54.7941 559.384,-54.7189"/>
<polygon fill="midnightblue" stroke="midnightblue" points="559.255,-51.2174 549.216,-54.6052 559.176,-58.2169 559.255,-51.2174"/>
</g>
</g>
</svg>
        <g id="navigator" transform="translate(0 0)" fill="#404254">
                <rect fill="#f2f5e9" fill-opacity="0.5" stroke="#606060" stroke-width=".5" x="0" y="0" width="60" height="60"/>
                <use id="zoomplus" xlink:href="#zoomPlus" x="17" y="9" onmousedown="handleZoom(evt,'in')"/>
                <use id="zoomminus" xlink:href="#zoomMin" x="42" y="9" onmousedown="handleZoom(evt,'out')"/>
                <use id="reset" xlink:href="#resetDef" x="30" y="36" onmousedown="handleReset()"/>
                <g id="arrowUp" xlink:href="#dirArrow" transform="translate(30 24)" onmousedown="handlePan(0,-1)">
                  <use xlink:href="#rim" fill="#404040">
                        <set attributeName="fill" to="#808080" begin="arrowUp.mouseover" end="arrowUp.mouseout"/>
                  </use>
                  <path fill="none" stroke="white" stroke-width="1.5" d="M0,-3.0v7 M-2.5,-0.5L0,-3.0L2.5,-0.5"/>
                </g>
                <g id="arrowRight" xlink:href="#dirArrow" transform="rotate(90) translate(36 -43)" onmousedown="handlePan(1,0)">
                  <use xlink:href="#rim" fill="#404040">
                        <set attributeName="fill" to="#808080" begin="arrowRight.mouseover" end="arrowRight.mouseout"/>
                  </use>
                  <path fill="none" stroke="white" stroke-width="1.5" d="M0,-3.0v7 M-2.5,-0.5L0,-3.0L2.5,-0.5"/>
                </g>
                <g id="arrowDown" xlink:href="#dirArrow" transform="rotate(180) translate(-30 -48)" onmousedown="handlePan(0,1)">
                  <use xlink:href="#rim" fill="#404040">
                        <set attributeName="fill" to="#808080" begin="arrowDown.mouseover" end="arrowDown.mouseout"/>
                  </use>
                  <path fill="none" stroke="white" stroke-width="1.5" d="M0,-3.0v7 M-2.5,-0.5L0,-3.0L2.5,-0.5"/>
                </g>
                <g id="arrowLeft" xlink:href="#dirArrow" transform="rotate(270) translate(-36 17)" onmousedown="handlePan(-1,0)">
                  <use xlink:href="#rim" fill="#404040">
                        <set attributeName="fill" to="#808080" begin="arrowLeft.mouseover" end="arrowLeft.mouseout"/>
                  </use>
                  <path fill="none" stroke="white" stroke-width="1.5" d="M0,-3.0v7 M-2.5,-0.5L0,-3.0L2.5,-0.5"/>
                </g>
        </g>
        <svg viewBox="0 0 15 15" width="100%" height="30px" preserveAspectRatio="xMaxYMin meet">
         <g id="arrow_out" transform="scale(0.3 0.3)">
          <a xlink:href="hello__start__posix_8cpp_aa30dea369afa9c8849ffc5d7a8131a0a_cgraph_org.svg" target="_base">
           <rect id="button" ry="5" rx="5" y="6" x="6" height="38" width="38"
                fill="#f2f5e9" fill-opacity="0.5" stroke="#606060" stroke-width="1.0"/>
           <path id="arrow"
             d="M 11.500037,31.436501 C 11.940474,20.09759 22.043105,11.32322 32.158766,21.979434 L 37.068811,17.246167 C 37.068811,17.246167 37.088388,32 37.088388,32 L 22.160133,31.978069 C 22.160133,31.978069 26.997745,27.140456 26.997745,27.140456 C 18.528582,18.264221 13.291696,25.230495 11.500037,31.436501 z"
             style="fill:#404040;"/>
          </a>
         </g>
        </svg>
</svg>
