<?xml version="1.0" encoding="UTF-8" standalone="no"?>
<!DOCTYPE svg PUBLIC "-//W3C//DTD SVG 1.1//EN"
 "http://www.w3.org/Graphics/SVG/1.1/DTD/svg11.dtd">
<!-- Generated by graphviz version 2.38.0 (20140413.2041)
 -->
<!-- Title: landing_target_estimator::KalmanFilter Pages: 1 -->
<!--zoomable 613 -->
<svg id="main" version="1.1" xmlns="http://www.w3.org/2000/svg" xmlns:xlink="http://www.w3.org/1999/xlink" xml:space="preserve" onload="init(evt)">
<style type="text/css"><![CDATA[
.edge:hover path { stroke: red; }
.edge:hover polygon { stroke: red; fill: red; }
]]></style>
<script type="text/javascript"><![CDATA[
var edges = document.getElementsByTagName('g');
if (edges && edges.length) {
  for (var i=0;i<edges.length;i++) {
    if (edges[i].id.substr(0,4)=='edge') {
      edges[i].setAttribute('class','edge');
    }
  }
}
]]></script>
        <defs>
                <circle id="rim" cx="0" cy="0" r="7"/>
                <circle id="rim2" cx="0" cy="0" r="3.5"/>
                <g id="zoomPlus">
                        <use xlink:href="#rim" fill="#404040">
                                <set attributeName="fill" to="#808080" begin="zoomplus.mouseover" end="zoomplus.mouseout"/>
                        </use>
                        <path d="M-4,0h8M0,-4v8" fill="none" stroke="white" stroke-width="1.5" pointer-events="none"/>
                </g>
                <g id="zoomMin">
                        <use xlink:href="#rim" fill="#404040">
                                <set attributeName="fill" to="#808080" begin="zoomminus.mouseover" end="zoomminus.mouseout"/>
                        </use>
                        <path d="M-4,0h8" fill="none" stroke="white" stroke-width="1.5" pointer-events="none"/>
                </g>
                <g id="dirArrow">
                        <path fill="none" stroke="white" stroke-width="1.5" d="M0,-3.0v7 M-2.5,-0.5L0,-3.0L2.5,-0.5"/>
                </g>
               <g id="resetDef">
                       <use xlink:href="#rim2" fill="#404040">
                               <set attributeName="fill" to="#808080" begin="reset.mouseover" end="reset.mouseout"/>
                       </use>
               </g>
        </defs>

<script type="text/javascript">
var viewWidth = 260;
var viewHeight = 613;
var sectionId = 'dynsection-0';
</script>
<script xlink:href="../../svgpan.js"/>
<svg id="graph" class="graph">
<g id="viewport">
<title>landing_target_estimator::KalmanFilter</title>
<polygon fill="white" stroke="none" points="-4,4 -4,-609 255.5,-609 255.5,4 -4,4"/>
<!-- Node1 -->
<g id="node1" class="node"><title>Node1</title>
<polygon fill="#bfbfbf" stroke="black" points="46,-0.5 46,-145.5 169,-145.5 169,-0.5 46,-0.5"/>
<text text-anchor="start" x="54" y="-133.5" font-family="Helvetica,sans-Serif" font-size="10.00">landing_target_estimator</text>
<text text-anchor="middle" x="107.5" y="-122.5" font-family="Helvetica,sans-Serif" font-size="10.00">::KalmanFilter</text>
<polyline fill="none" stroke="black" points="46,-115.5 169,-115.5 "/>
<text text-anchor="start" x="54" y="-103.5" font-family="Helvetica,sans-Serif" font-size="10.00">&#45; _residual</text>
<text text-anchor="start" x="54" y="-92.5" font-family="Helvetica,sans-Serif" font-size="10.00">&#45; _innovCov</text>
<polyline fill="none" stroke="black" points="46,-85.5 169,-85.5 "/>
<text text-anchor="start" x="54" y="-73.5" font-family="Helvetica,sans-Serif" font-size="10.00">+ KalmanFilter()</text>
<text text-anchor="start" x="54" y="-62.5" font-family="Helvetica,sans-Serif" font-size="10.00">+ KalmanFilter()</text>
<text text-anchor="start" x="54" y="-51.5" font-family="Helvetica,sans-Serif" font-size="10.00">+ ~KalmanFilter()</text>
<text text-anchor="start" x="54" y="-40.5" font-family="Helvetica,sans-Serif" font-size="10.00">+ init()</text>
<text text-anchor="start" x="54" y="-29.5" font-family="Helvetica,sans-Serif" font-size="10.00">+ init()</text>
<text text-anchor="start" x="54" y="-18.5" font-family="Helvetica,sans-Serif" font-size="10.00">+ predict()</text>
<text text-anchor="start" x="54" y="-7.5" font-family="Helvetica,sans-Serif" font-size="10.00">and 6 more...</text>
</g>
<!-- Node2 -->
<g id="node2" class="node"><title>Node2</title>
<g id="a_node2"><a xlink:href="../../dd/df8/classmatrix_1_1_matrix.html" target="_top" xlink:title="{matrix::Matrix\&lt; float,\l 2, 2 \&gt;\n|+ _data\l|+ Matrix()\l+ Matrix()\l+ Matrix()\l+ Matrix()\l+ data()\l+ data()\land 44 more...\l}">
<polygon fill="white" stroke="black" points="0,-193.5 0,-327.5 107,-327.5 107,-193.5 0,-193.5"/>
<text text-anchor="start" x="8" y="-315.5" font-family="Helvetica,sans-Serif" font-size="10.00">matrix::Matrix&lt; float,</text>
<text text-anchor="middle" x="53.5" y="-304.5" font-family="Helvetica,sans-Serif" font-size="10.00"> 2, 2 &gt;</text>
<polyline fill="none" stroke="black" points="0,-297.5 107,-297.5 "/>
<text text-anchor="start" x="8" y="-285.5" font-family="Helvetica,sans-Serif" font-size="10.00">+ _data</text>
<polyline fill="none" stroke="black" points="0,-278.5 107,-278.5 "/>
<text text-anchor="start" x="8" y="-266.5" font-family="Helvetica,sans-Serif" font-size="10.00">+ Matrix()</text>
<text text-anchor="start" x="8" y="-255.5" font-family="Helvetica,sans-Serif" font-size="10.00">+ Matrix()</text>
<text text-anchor="start" x="8" y="-244.5" font-family="Helvetica,sans-Serif" font-size="10.00">+ Matrix()</text>
<text text-anchor="start" x="8" y="-233.5" font-family="Helvetica,sans-Serif" font-size="10.00">+ Matrix()</text>
<text text-anchor="start" x="8" y="-222.5" font-family="Helvetica,sans-Serif" font-size="10.00">+ data()</text>
<text text-anchor="start" x="8" y="-211.5" font-family="Helvetica,sans-Serif" font-size="10.00">+ data()</text>
<text text-anchor="start" x="8" y="-200.5" font-family="Helvetica,sans-Serif" font-size="10.00">and 44 more...</text>
</a>
</g>
</g>
<!-- Node2&#45;&gt;Node1 -->
<g id="edge1" class="edge"><title>Node2&#45;&gt;Node1</title>
<path fill="none" stroke="#404040" d="M72.0272,-193.446C74.8404,-183.568 77.7289,-173.512 80.5,-164 81.1502,-161.768 81.8117,-159.506 82.4812,-157.224"/>
<polygon fill="none" stroke="#404040" points="82.4873,-157.203 80.347,-150.317 85.8802,-145.692 88.0206,-152.578 82.4873,-157.203"/>
<text text-anchor="middle" x="110" y="-167" font-family="Helvetica,sans-Serif" font-size="10.00"> &#45;_covariance</text>
</g>
<!-- Node3 -->
<g id="node3" class="node"><title>Node3</title>
<g id="a_node3"><a xlink:href="../../d1/d71/classmatrix_1_1_vector.html" target="_top" xlink:title="{matrix::Vector\&lt; float, 2 \&gt;\n||+ Vector()\l+ Vector()\l+ Vector()\l+ operator()()\l+ operator()()\l+ dot()\land 10 more...\l}">
<polygon fill="white" stroke="black" points="125.5,-199 125.5,-322 251.5,-322 251.5,-199 125.5,-199"/>
<text text-anchor="middle" x="188.5" y="-310" font-family="Helvetica,sans-Serif" font-size="10.00">matrix::Vector&lt; float, 2 &gt;</text>
<polyline fill="none" stroke="black" points="125.5,-303 251.5,-303 "/>
<text text-anchor="middle" x="188.5" y="-291" font-family="Helvetica,sans-Serif" font-size="10.00"> </text>
<polyline fill="none" stroke="black" points="125.5,-284 251.5,-284 "/>
<text text-anchor="start" x="133.5" y="-272" font-family="Helvetica,sans-Serif" font-size="10.00">+ Vector()</text>
<text text-anchor="start" x="133.5" y="-261" font-family="Helvetica,sans-Serif" font-size="10.00">+ Vector()</text>
<text text-anchor="start" x="133.5" y="-250" font-family="Helvetica,sans-Serif" font-size="10.00">+ Vector()</text>
<text text-anchor="start" x="133.5" y="-239" font-family="Helvetica,sans-Serif" font-size="10.00">+ operator()()</text>
<text text-anchor="start" x="133.5" y="-228" font-family="Helvetica,sans-Serif" font-size="10.00">+ operator()()</text>
<text text-anchor="start" x="133.5" y="-217" font-family="Helvetica,sans-Serif" font-size="10.00">+ dot()</text>
<text text-anchor="start" x="133.5" y="-206" font-family="Helvetica,sans-Serif" font-size="10.00">and 10 more...</text>
</a>
</g>
</g>
<!-- Node3&#45;&gt;Node1 -->
<g id="edge2" class="edge"><title>Node3&#45;&gt;Node1</title>
<path fill="none" stroke="#404040" d="M161.978,-198.76C156.116,-185.337 149.81,-170.894 143.639,-156.764"/>
<polygon fill="none" stroke="#404040" points="143.534,-156.522 137.467,-152.624 138.732,-145.524 144.798,-149.422 143.534,-156.522"/>
<text text-anchor="middle" x="158" y="-167" font-family="Helvetica,sans-Serif" font-size="10.00"> &#45;_x</text>
</g>
<!-- Node4 -->
<g id="node4" class="node"><title>Node4</title>
<g id="a_node4"><a xlink:href="../../dd/df8/classmatrix_1_1_matrix.html" target="_top" xlink:title="{matrix::Matrix\&lt; float,\l M, 1 \&gt;\n||+ Matrix()\l+ Matrix()\l+ Matrix()\l+ Matrix()\l+ data()\l+ data()\land 44 more...\l}">
<polygon fill="white" stroke="black" points="135,-365.5 135,-499.5 242,-499.5 242,-365.5 135,-365.5"/>
<text text-anchor="start" x="143" y="-487.5" font-family="Helvetica,sans-Serif" font-size="10.00">matrix::Matrix&lt; float,</text>
<text text-anchor="middle" x="188.5" y="-476.5" font-family="Helvetica,sans-Serif" font-size="10.00"> M, 1 &gt;</text>
<polyline fill="none" stroke="black" points="135,-469.5 242,-469.5 "/>
<text text-anchor="middle" x="188.5" y="-457.5" font-family="Helvetica,sans-Serif" font-size="10.00"> </text>
<polyline fill="none" stroke="black" points="135,-450.5 242,-450.5 "/>
<text text-anchor="start" x="143" y="-438.5" font-family="Helvetica,sans-Serif" font-size="10.00">+ Matrix()</text>
<text text-anchor="start" x="143" y="-427.5" font-family="Helvetica,sans-Serif" font-size="10.00">+ Matrix()</text>
<text text-anchor="start" x="143" y="-416.5" font-family="Helvetica,sans-Serif" font-size="10.00">+ Matrix()</text>
<text text-anchor="start" x="143" y="-405.5" font-family="Helvetica,sans-Serif" font-size="10.00">+ Matrix()</text>
<text text-anchor="start" x="143" y="-394.5" font-family="Helvetica,sans-Serif" font-size="10.00">+ data()</text>
<text text-anchor="start" x="143" y="-383.5" font-family="Helvetica,sans-Serif" font-size="10.00">+ data()</text>
<text text-anchor="start" x="143" y="-372.5" font-family="Helvetica,sans-Serif" font-size="10.00">and 44 more...</text>
</a>
</g>
</g>
<!-- Node4&#45;&gt;Node3 -->
<g id="edge3" class="edge"><title>Node4&#45;&gt;Node3</title>
<path fill="none" stroke="midnightblue" d="M188.5,-355.224C188.5,-344.182 188.5,-332.942 188.5,-322.259"/>
<polygon fill="none" stroke="midnightblue" points="185,-355.287 188.5,-365.287 192,-355.287 185,-355.287"/>
</g>
<!-- Node5 -->
<g id="node5" class="node"><title>Node5</title>
<polygon fill="white" stroke="#bfbfbf" points="169.5,-547.5 169.5,-604.5 207.5,-604.5 207.5,-547.5 169.5,-547.5"/>
<text text-anchor="middle" x="188.5" y="-592.5" font-family="Helvetica,sans-Serif" font-size="10.00">Type</text>
<polyline fill="none" stroke="#bfbfbf" points="169.5,-585.5 207.5,-585.5 "/>
<text text-anchor="middle" x="188.5" y="-573.5" font-family="Helvetica,sans-Serif" font-size="10.00"> </text>
<polyline fill="none" stroke="#bfbfbf" points="169.5,-566.5 207.5,-566.5 "/>
<text text-anchor="middle" x="188.5" y="-554.5" font-family="Helvetica,sans-Serif" font-size="10.00"> </text>
</g>
<!-- Node5&#45;&gt;Node4 -->
<g id="edge4" class="edge"><title>Node5&#45;&gt;Node4</title>
<path fill="none" stroke="#404040" d="M188.5,-547.381C188.5,-537.02 188.5,-524.663 188.5,-511.97"/>
<polygon fill="none" stroke="#404040" points="188.5,-511.753 184.5,-505.753 188.5,-499.753 192.5,-505.753 188.5,-511.753"/>
<text text-anchor="middle" x="205.5" y="-521" font-family="Helvetica,sans-Serif" font-size="10.00"> +_data</text>
</g>
</g>
</svg>
        <g id="navigator" transform="translate(0 0)" fill="#404254">
                <rect fill="#f2f5e9" fill-opacity="0.5" stroke="#606060" stroke-width=".5" x="0" y="0" width="60" height="60"/>
                <use id="zoomplus" xlink:href="#zoomPlus" x="17" y="9" onmousedown="handleZoom(evt,'in')"/>
                <use id="zoomminus" xlink:href="#zoomMin" x="42" y="9" onmousedown="handleZoom(evt,'out')"/>
                <use id="reset" xlink:href="#resetDef" x="30" y="36" onmousedown="handleReset()"/>
                <g id="arrowUp" xlink:href="#dirArrow" transform="translate(30 24)" onmousedown="handlePan(0,-1)">
                  <use xlink:href="#rim" fill="#404040">
                        <set attributeName="fill" to="#808080" begin="arrowUp.mouseover" end="arrowUp.mouseout"/>
                  </use>
                  <path fill="none" stroke="white" stroke-width="1.5" d="M0,-3.0v7 M-2.5,-0.5L0,-3.0L2.5,-0.5"/>
                </g>
                <g id="arrowRight" xlink:href="#dirArrow" transform="rotate(90) translate(36 -43)" onmousedown="handlePan(1,0)">
                  <use xlink:href="#rim" fill="#404040">
                        <set attributeName="fill" to="#808080" begin="arrowRight.mouseover" end="arrowRight.mouseout"/>
                  </use>
                  <path fill="none" stroke="white" stroke-width="1.5" d="M0,-3.0v7 M-2.5,-0.5L0,-3.0L2.5,-0.5"/>
                </g>
                <g id="arrowDown" xlink:href="#dirArrow" transform="rotate(180) translate(-30 -48)" onmousedown="handlePan(0,1)">
                  <use xlink:href="#rim" fill="#404040">
                        <set attributeName="fill" to="#808080" begin="arrowDown.mouseover" end="arrowDown.mouseout"/>
                  </use>
                  <path fill="none" stroke="white" stroke-width="1.5" d="M0,-3.0v7 M-2.5,-0.5L0,-3.0L2.5,-0.5"/>
                </g>
                <g id="arrowLeft" xlink:href="#dirArrow" transform="rotate(270) translate(-36 17)" onmousedown="handlePan(-1,0)">
                  <use xlink:href="#rim" fill="#404040">
                        <set attributeName="fill" to="#808080" begin="arrowLeft.mouseover" end="arrowLeft.mouseout"/>
                  </use>
                  <path fill="none" stroke="white" stroke-width="1.5" d="M0,-3.0v7 M-2.5,-0.5L0,-3.0L2.5,-0.5"/>
                </g>
        </g>
        <svg viewBox="0 0 15 15" width="100%" height="30px" preserveAspectRatio="xMaxYMin meet">
         <g id="arrow_out" transform="scale(0.3 0.3)">
          <a xlink:href="classlanding__target__estimator_1_1_kalman_filter__coll__graph_org.svg" target="_base">
           <rect id="button" ry="5" rx="5" y="6" x="6" height="38" width="38"
                fill="#f2f5e9" fill-opacity="0.5" stroke="#606060" stroke-width="1.0"/>
           <path id="arrow"
             d="M 11.500037,31.436501 C 11.940474,20.09759 22.043105,11.32322 32.158766,21.979434 L 37.068811,17.246167 C 37.068811,17.246167 37.088388,32 37.088388,32 L 22.160133,31.978069 C 22.160133,31.978069 26.997745,27.140456 26.997745,27.140456 C 18.528582,18.264221 13.291696,25.230495 11.500037,31.436501 z"
             style="fill:#404040;"/>
          </a>
         </g>
        </svg>
</svg>
