<?xml version="1.0" encoding="UTF-8" standalone="no"?>
<!DOCTYPE svg PUBLIC "-//W3C//DTD SVG 1.1//EN"
 "http://www.w3.org/Graphics/SVG/1.1/DTD/svg11.dtd">
<!-- Generated by graphviz version 2.38.0 (20140413.2041)
 -->
<!-- Title: CameraInterface::info Pages: 1 -->
<svg width="412pt" height="28pt"
 viewBox="0.00 0.00 412.00 28.00" xmlns="http://www.w3.org/2000/svg" xmlns:xlink="http://www.w3.org/1999/xlink">
<g id="graph0" class="graph" transform="scale(1 1) rotate(0) translate(4 24)">
<title>CameraInterface::info</title>
<polygon fill="white" stroke="none" points="-4,4 -4,-24 408,-24 408,4 -4,4"/>
<!-- Node1 -->
<g id="node1" class="node"><title>Node1</title>
<polygon fill="#bfbfbf" stroke="black" points="0,-0.5 0,-19.5 111,-19.5 111,-0.5 0,-0.5"/>
<text text-anchor="middle" x="55.5" y="-7.5" font-family="Helvetica,sans-Serif" font-size="10.00">CameraInterface::info</text>
</g>
<!-- Node2 -->
<g id="node2" class="node"><title>Node2</title>
<g id="a_node2"><a xlink:href="../../dc/d86/class_camera_trigger.html#a1244d5f134c89d3e261a05c3838f635b" target="_top" xlink:title="Display status. ">
<polygon fill="white" stroke="black" points="147,-0.5 147,-19.5 261,-19.5 261,-0.5 147,-0.5"/>
<text text-anchor="middle" x="204" y="-7.5" font-family="Helvetica,sans-Serif" font-size="10.00">CameraTrigger::status</text>
</a>
</g>
</g>
<!-- Node1&#45;&gt;Node2 -->
<g id="edge1" class="edge"><title>Node1&#45;&gt;Node2</title>
<path fill="none" stroke="midnightblue" d="M121.069,-10C129.69,-10 138.475,-10 146.935,-10"/>
<polygon fill="midnightblue" stroke="midnightblue" points="121.051,-6.5001 111.051,-10 121.051,-13.5001 121.051,-6.5001"/>
</g>
<!-- Node3 -->
<g id="node3" class="node"><title>Node3</title>
<g id="a_node3"><a xlink:href="../../d9/d92/camera__trigger_8cpp.html#a686cbffe485778106c71928742e64493" target="_top" xlink:title="camera_trigger_main">
<polygon fill="white" stroke="black" points="297,-0.5 297,-19.5 404,-19.5 404,-0.5 297,-0.5"/>
<text text-anchor="middle" x="350.5" y="-7.5" font-family="Helvetica,sans-Serif" font-size="10.00">camera_trigger_main</text>
</a>
</g>
</g>
<!-- Node2&#45;&gt;Node3 -->
<g id="edge2" class="edge"><title>Node2&#45;&gt;Node3</title>
<path fill="none" stroke="midnightblue" d="M271.288,-10C279.881,-10 288.588,-10 296.917,-10"/>
<polygon fill="midnightblue" stroke="midnightblue" points="271.281,-6.5001 261.281,-10 271.281,-13.5001 271.281,-6.5001"/>
</g>
</g>
</svg>
