<?xml version="1.0" encoding="UTF-8" standalone="no"?>
<!DOCTYPE svg PUBLIC "-//W3C//DTD SVG 1.1//EN"
 "http://www.w3.org/Graphics/SVG/1.1/DTD/svg11.dtd">
<!-- Generated by graphviz version 2.40.1 (20161225.0304)
 -->
<!-- Title: uORB::SubscriptionInterval::subscribe Pages: 1 -->
<!--zoomable 350 -->
<svg id="main" version="1.1" xmlns="http://www.w3.org/2000/svg" xmlns:xlink="http://www.w3.org/1999/xlink" xml:space="preserve" onload="init(evt)">
<style type="text/css"><![CDATA[
.edge:hover path { stroke: red; }
.edge:hover polygon { stroke: red; fill: red; }
]]></style>
<script type="text/javascript"><![CDATA[
var edges = document.getElementsByTagName('g');
if (edges && edges.length) {
  for (var i=0;i<edges.length;i++) {
    if (edges[i].id.substr(0,4)=='edge') {
      edges[i].setAttribute('class','edge');
    }
  }
}
]]></script>
        <defs>
                <circle id="rim" cx="0" cy="0" r="7"/>
                <circle id="rim2" cx="0" cy="0" r="3.5"/>
                <g id="zoomPlus">
                        <use xlink:href="#rim" fill="#404040">
                                <set attributeName="fill" to="#808080" begin="zoomplus.mouseover" end="zoomplus.mouseout"/>
                        </use>
                        <path d="M-4,0h8M0,-4v8" fill="none" stroke="white" stroke-width="1.5" pointer-events="none"/>
                </g>
                <g id="zoomMin">
                        <use xlink:href="#rim" fill="#404040">
                                <set attributeName="fill" to="#808080" begin="zoomminus.mouseover" end="zoomminus.mouseout"/>
                        </use>
                        <path d="M-4,0h8" fill="none" stroke="white" stroke-width="1.5" pointer-events="none"/>
                </g>
                <g id="dirArrow">
                        <path fill="none" stroke="white" stroke-width="1.5" d="M0,-3.0v7 M-2.5,-0.5L0,-3.0L2.5,-0.5"/>
                </g>
               <g id="resetDef">
                       <use xlink:href="#rim2" fill="#404040">
                               <set attributeName="fill" to="#808080" begin="reset.mouseover" end="reset.mouseout"/>
                       </use>
               </g>
        </defs>

<script type="text/javascript">
var viewWidth = 802;
var viewHeight = 350;
var sectionId = 'dynsection-14';
</script>
<script xlink:href="../../svgpan.js"/>
<svg id="graph" class="graph">
<g id="viewport">
<title>uORB::SubscriptionInterval::subscribe</title>
<polygon fill="#ffffff" stroke="transparent" points="-4,4 -4,-346 798,-346 798,4 -4,4"/>
<!-- Node138 -->
<g id="node1" class="node">
<title>Node138</title>
<polygon fill="#bfbfbf" stroke="#000000" points="0,-120.5 0,-150.5 136,-150.5 136,-120.5 0,-120.5"/>
<text text-anchor="start" x="8" y="-138.5" font-family="Helvetica,sans-Serif" font-size="10.00" fill="#000000">uORB::SubscriptionInterval</text>
<text text-anchor="middle" x="68" y="-127.5" font-family="Helvetica,sans-Serif" font-size="10.00" fill="#000000">::subscribe</text>
</g>
<!-- Node139 -->
<g id="node2" class="node">
<title>Node139</title>
<g id="a_node2"><a xlink:href="../../d0/d65/classu_o_r_b_1_1_subscription.html#acb0fbd4b56d5e3c8edca15206e110223" target="_top" xlink:title="uORB::Subscription\l::subscribe">
<polygon fill="#ffffff" stroke="#000000" points="172,-120.5 172,-150.5 276,-150.5 276,-120.5 172,-120.5"/>
<text text-anchor="start" x="180" y="-138.5" font-family="Helvetica,sans-Serif" font-size="10.00" fill="#000000">uORB::Subscription</text>
<text text-anchor="middle" x="224" y="-127.5" font-family="Helvetica,sans-Serif" font-size="10.00" fill="#000000">::subscribe</text>
</a>
</g>
</g>
<!-- Node138&#45;&gt;Node139 -->
<g id="edge1" class="edge">
<title>Node138&#45;&gt;Node139</title>
<path fill="none" stroke="#191970" d="M136.4239,-135.5C144.7128,-135.5 153.1482,-135.5 161.3479,-135.5"/>
<polygon fill="#191970" stroke="#191970" points="161.5796,-139.0001 171.5796,-135.5 161.5795,-132.0001 161.5796,-139.0001"/>
</g>
<!-- Node140 -->
<g id="node3" class="node">
<title>Node140</title>
<g id="a_node3"><a xlink:href="../../d0/d18/classu_o_r_b_1_1_device_node.html#abb03278ff4ddd2a50e0f2996e856f2cc" target="_top" xlink:title="Add the subscriber to the node&#39;s list of subscriber. ">
<polygon fill="#ffffff" stroke="#000000" points="325,-218.5 325,-248.5 450,-248.5 450,-218.5 325,-218.5"/>
<text text-anchor="start" x="333" y="-236.5" font-family="Helvetica,sans-Serif" font-size="10.00" fill="#000000">uORB::DeviceNode::add</text>
<text text-anchor="middle" x="387.5" y="-225.5" font-family="Helvetica,sans-Serif" font-size="10.00" fill="#000000">_internal_subscriber</text>
</a>
</g>
</g>
<!-- Node139&#45;&gt;Node140 -->
<g id="edge2" class="edge">
<title>Node139&#45;&gt;Node140</title>
<path fill="none" stroke="#191970" d="M249.1886,-150.5977C277.1528,-167.3592 322.4363,-194.5016 353.5224,-213.1342"/>
<polygon fill="#191970" stroke="#191970" points="351.9062,-216.246 362.2828,-218.3851 355.505,-210.2419 351.9062,-216.246"/>
</g>
<!-- Node142 -->
<g id="node5" class="node">
<title>Node142</title>
<g id="a_node5"><a xlink:href="../../d3/da9/classu_o_r_b_1_1_manager.html#a9d829b3ea49d16d03c2fa37ef2bb24a5" target="_top" xlink:title="Method to get the singleton instance for the uORB::Manager. ">
<polygon fill="#ffffff" stroke="#000000" points="521.5,-311.5 521.5,-341.5 628.5,-341.5 628.5,-311.5 521.5,-311.5"/>
<text text-anchor="start" x="529.5" y="-329.5" font-family="Helvetica,sans-Serif" font-size="10.00" fill="#000000">uORB::Manager::get</text>
<text text-anchor="middle" x="575" y="-318.5" font-family="Helvetica,sans-Serif" font-size="10.00" fill="#000000">_instance</text>
</a>
</g>
</g>
<!-- Node139&#45;&gt;Node142 -->
<g id="edge9" class="edge">
<title>Node139&#45;&gt;Node142</title>
<path fill="none" stroke="#191970" d="M230.5197,-150.5956C242.6167,-176.7609 271.0818,-230.4224 312,-258.5 371.7627,-299.5085 454.555,-315.7867 511.1878,-322.2479"/>
<polygon fill="#191970" stroke="#191970" points="511.1313,-325.7617 521.4466,-323.3439 511.875,-318.8013 511.1313,-325.7617"/>
</g>
<!-- Node143 -->
<g id="node6" class="node">
<title>Node143</title>
<g id="a_node6"><a xlink:href="../../d3/da9/classu_o_r_b_1_1_manager.html#a083331e24ac4f99ac11a0aab1b1681b4" target="_top" xlink:title="Get the DeviceMaster. ">
<polygon fill="#ffffff" stroke="#000000" points="687,-226.5 687,-256.5 794,-256.5 794,-226.5 687,-226.5"/>
<text text-anchor="start" x="695" y="-244.5" font-family="Helvetica,sans-Serif" font-size="10.00" fill="#000000">uORB::Manager::get</text>
<text text-anchor="middle" x="740.5" y="-233.5" font-family="Helvetica,sans-Serif" font-size="10.00" fill="#000000">_device_master</text>
</a>
</g>
</g>
<!-- Node139&#45;&gt;Node143 -->
<g id="edge8" class="edge">
<title>Node139&#45;&gt;Node143</title>
<path fill="none" stroke="#191970" d="M276.2583,-137.0899C374.6833,-140.6454 583.7024,-151.0207 651,-176.5 676.1574,-186.0248 700.5804,-204.5874 717.5404,-219.4454"/>
<polygon fill="#191970" stroke="#191970" points="715.4668,-222.2885 725.2372,-226.386 720.1546,-217.0899 715.4668,-222.2885"/>
</g>
<!-- Node146 -->
<g id="node9" class="node">
<title>Node146</title>
<g id="a_node9"><a xlink:href="../../d0/d18/classu_o_r_b_1_1_device_node.html#a7877236ac1912c32c2ab6ae06899392d" target="_top" xlink:title="uORB::DeviceNode::get\l_queue_size">
<polygon fill="#ffffff" stroke="#000000" points="326,-98.5 326,-128.5 449,-128.5 449,-98.5 326,-98.5"/>
<text text-anchor="start" x="334" y="-116.5" font-family="Helvetica,sans-Serif" font-size="10.00" fill="#000000">uORB::DeviceNode::get</text>
<text text-anchor="middle" x="387.5" y="-105.5" font-family="Helvetica,sans-Serif" font-size="10.00" fill="#000000">_queue_size</text>
</a>
</g>
</g>
<!-- Node139&#45;&gt;Node146 -->
<g id="edge10" class="edge">
<title>Node139&#45;&gt;Node146</title>
<path fill="none" stroke="#191970" d="M276.182,-128.4786C288.7678,-126.7851 302.4343,-124.9461 315.7422,-123.1555"/>
<polygon fill="#191970" stroke="#191970" points="316.3812,-126.6011 325.8251,-121.7988 315.4476,-119.6637 316.3812,-126.6011"/>
</g>
<!-- Node147 -->
<g id="node10" class="node">
<title>Node147</title>
<g id="a_node10"><a xlink:href="../../dd/d9d/classu_o_r_b_1_1_device_master.html#a793df66a48dcabdd0f5bd8c85beee13c" target="_top" xlink:title="Public interface for getDeviceNodeLocked(). ">
<polygon fill="#ffffff" stroke="#000000" points="332.5,-49.5 332.5,-79.5 442.5,-79.5 442.5,-49.5 332.5,-49.5"/>
<text text-anchor="start" x="340.5" y="-67.5" font-family="Helvetica,sans-Serif" font-size="10.00" fill="#000000">uORB::DeviceMaster</text>
<text text-anchor="middle" x="387.5" y="-56.5" font-family="Helvetica,sans-Serif" font-size="10.00" fill="#000000">::getDeviceNode</text>
</a>
</g>
</g>
<!-- Node139&#45;&gt;Node147 -->
<g id="edge11" class="edge">
<title>Node139&#45;&gt;Node147</title>
<path fill="none" stroke="#191970" d="M250.0321,-120.4691C267.2706,-110.8739 290.5707,-98.5782 312,-89.5 317.2941,-87.2572 322.8635,-85.0827 328.4786,-83.0134"/>
<polygon fill="#191970" stroke="#191970" points="329.691,-86.2969 337.9309,-79.637 327.3363,-79.7049 329.691,-86.2969"/>
</g>
<!-- Node150 -->
<g id="node13" class="node">
<title>Node150</title>
<g id="a_node13"><a xlink:href="../../d0/d18/classu_o_r_b_1_1_device_node.html#a45adbc432af16d0f7dd5b8e0b4c0cc8b" target="_top" xlink:title="uORB::DeviceNode::published\l_message_count">
<polygon fill="#ffffff" stroke="#000000" points="312,-.5 312,-30.5 463,-30.5 463,-.5 312,-.5"/>
<text text-anchor="start" x="320" y="-18.5" font-family="Helvetica,sans-Serif" font-size="10.00" fill="#000000">uORB::DeviceNode::published</text>
<text text-anchor="middle" x="387.5" y="-7.5" font-family="Helvetica,sans-Serif" font-size="10.00" fill="#000000">_message_count</text>
</a>
</g>
</g>
<!-- Node139&#45;&gt;Node150 -->
<g id="edge14" class="edge">
<title>Node139&#45;&gt;Node150</title>
<path fill="none" stroke="#191970" d="M234.1572,-120.4466C248.9476,-99.6228 278.3458,-62.1519 312,-40.5 315.1461,-38.4759 318.472,-36.6002 321.9043,-34.8642"/>
<polygon fill="#191970" stroke="#191970" points="323.5688,-37.951 331.1881,-30.5891 320.6409,-31.5928 323.5688,-37.951"/>
</g>
<!-- Node141 -->
<g id="node4" class="node">
<title>Node141</title>
<g id="a_node4"><a xlink:href="../../d9/d8a/classu_o_r_b_communicator_1_1_i_channel.html#a2fdcab300f1c9ccf8c43858493ca9358" target="_top" xlink:title="Interface to notify the remote entity of a topic being unadvertised and is no longer publishing messa...">
<polygon fill="#ffffff" stroke="#000000" points="499,-262.5 499,-292.5 651,-292.5 651,-262.5 499,-262.5"/>
<text text-anchor="start" x="507" y="-280.5" font-family="Helvetica,sans-Serif" font-size="10.00" fill="#000000">uORBCommunicator::IChannel</text>
<text text-anchor="middle" x="575" y="-269.5" font-family="Helvetica,sans-Serif" font-size="10.00" fill="#000000">::add_subscription</text>
</a>
</g>
</g>
<!-- Node140&#45;&gt;Node141 -->
<g id="edge3" class="edge">
<title>Node140&#45;&gt;Node141</title>
<path fill="none" stroke="#191970" d="M450.1955,-248.2125C466.4814,-252.0343 484.1768,-256.1868 500.9856,-260.1313"/>
<polygon fill="#191970" stroke="#191970" points="500.2274,-263.5484 510.7626,-262.4256 501.8267,-256.7335 500.2274,-263.5484"/>
</g>
<!-- Node140&#45;&gt;Node142 -->
<g id="edge4" class="edge">
<title>Node140&#45;&gt;Node142</title>
<path fill="none" stroke="#191970" d="M408.405,-248.6415C430.1739,-263.8689 465.686,-287.2209 499,-302.5 503.1445,-304.4008 507.4813,-306.21 511.8923,-307.9196"/>
<polygon fill="#191970" stroke="#191970" points="511.0277,-311.3308 521.6211,-311.5 513.4453,-304.7615 511.0277,-311.3308"/>
</g>
<!-- Node144 -->
<g id="node7" class="node">
<title>Node144</title>
<g id="a_node7"><a xlink:href="../../d8/d26/classcdev_1_1_c_dev.html#ae676cccee31dd393ab681414a146d868" target="_top" xlink:title="Take the driver lock. ">
<polygon fill="#ffffff" stroke="#000000" points="528.5,-224 528.5,-243 621.5,-243 621.5,-224 528.5,-224"/>
<text text-anchor="middle" x="575" y="-231" font-family="Helvetica,sans-Serif" font-size="10.00" fill="#000000">cdev::CDev::lock</text>
</a>
</g>
</g>
<!-- Node140&#45;&gt;Node144 -->
<g id="edge6" class="edge">
<title>Node140&#45;&gt;Node144</title>
<path fill="none" stroke="#191970" d="M450.1955,-233.5C472.1529,-233.5 496.6725,-233.5 518.1269,-233.5"/>
<polygon fill="#191970" stroke="#191970" points="518.3882,-237.0001 528.3882,-233.5 518.3881,-230.0001 518.3882,-237.0001"/>
</g>
<!-- Node145 -->
<g id="node8" class="node">
<title>Node145</title>
<g id="a_node8"><a xlink:href="../../d8/d26/classcdev_1_1_c_dev.html#af65273e0578b277deea057dc7d558e9d" target="_top" xlink:title="Release the driver lock. ">
<polygon fill="#ffffff" stroke="#000000" points="523,-186 523,-205 627,-205 627,-186 523,-186"/>
<text text-anchor="middle" x="575" y="-193" font-family="Helvetica,sans-Serif" font-size="10.00" fill="#000000">cdev::CDev::unlock</text>
</a>
</g>
</g>
<!-- Node140&#45;&gt;Node145 -->
<g id="edge7" class="edge">
<title>Node140&#45;&gt;Node145</title>
<path fill="none" stroke="#191970" d="M450.1955,-220.7937C472.1608,-216.3421 496.6901,-211.3708 518.15,-207.0216"/>
<polygon fill="#191970" stroke="#191970" points="518.9871,-210.4232 528.0926,-205.0066 517.5966,-203.5627 518.9871,-210.4232"/>
</g>
<!-- Node142&#45;&gt;Node143 -->
<g id="edge5" class="edge">
<title>Node142&#45;&gt;Node143</title>
<path fill="none" stroke="#191970" d="M628.5134,-311.785C636.2022,-309.046 643.9053,-305.9452 651,-302.5 673.3266,-291.6582 696.4227,-275.7802 713.5596,-262.9415"/>
<polygon fill="#191970" stroke="#191970" points="716.1139,-265.3952 721.9422,-256.5475 711.8685,-259.8295 716.1139,-265.3952"/>
</g>
<!-- Node148 -->
<g id="node11" class="node">
<title>Node148</title>
<g id="a_node11"><a xlink:href="../../dd/d9d/classu_o_r_b_1_1_device_master.html#a7e0c3156fdf5875a74d1ad727930a70a" target="_top" xlink:title="uORB::DeviceMaster\l::lock">
<polygon fill="#ffffff" stroke="#000000" points="520,-74.5 520,-104.5 630,-104.5 630,-74.5 520,-74.5"/>
<text text-anchor="start" x="528" y="-92.5" font-family="Helvetica,sans-Serif" font-size="10.00" fill="#000000">uORB::DeviceMaster</text>
<text text-anchor="middle" x="575" y="-81.5" font-family="Helvetica,sans-Serif" font-size="10.00" fill="#000000">::lock</text>
</a>
</g>
</g>
<!-- Node147&#45;&gt;Node148 -->
<g id="edge12" class="edge">
<title>Node147&#45;&gt;Node148</title>
<path fill="none" stroke="#191970" d="M442.7421,-71.8656C463.7243,-74.6632 487.8213,-77.8762 509.65,-80.7867"/>
<polygon fill="#191970" stroke="#191970" points="509.4542,-84.2915 519.8291,-82.1439 510.3794,-77.3529 509.4542,-84.2915"/>
</g>
<!-- Node149 -->
<g id="node12" class="node">
<title>Node149</title>
<g id="a_node12"><a xlink:href="../../dd/d9d/classu_o_r_b_1_1_device_master.html#a5b85000ee723a160ca6ea6bce730efc3" target="_top" xlink:title="uORB::DeviceMaster\l::unlock">
<polygon fill="#ffffff" stroke="#000000" points="520,-25.5 520,-55.5 630,-55.5 630,-25.5 520,-25.5"/>
<text text-anchor="start" x="528" y="-43.5" font-family="Helvetica,sans-Serif" font-size="10.00" fill="#000000">uORB::DeviceMaster</text>
<text text-anchor="middle" x="575" y="-32.5" font-family="Helvetica,sans-Serif" font-size="10.00" fill="#000000">::unlock</text>
</a>
</g>
</g>
<!-- Node147&#45;&gt;Node149 -->
<g id="edge13" class="edge">
<title>Node147&#45;&gt;Node149</title>
<path fill="none" stroke="#191970" d="M442.7421,-57.429C463.7243,-54.7433 487.8213,-51.6589 509.65,-48.8648"/>
<polygon fill="#191970" stroke="#191970" points="510.3544,-52.3033 519.8291,-47.5619 509.4656,-45.3599 510.3544,-52.3033"/>
</g>
</g>
</svg>
        <g id="navigator" transform="translate(0 0)" fill="#404254">
                <rect fill="#f2f5e9" fill-opacity="0.5" stroke="#606060" stroke-width=".5" x="0" y="0" width="60" height="60"/>
                <use id="zoomplus" xlink:href="#zoomPlus" x="17" y="9" onmousedown="handleZoom(evt,'in')"/>
                <use id="zoomminus" xlink:href="#zoomMin" x="42" y="9" onmousedown="handleZoom(evt,'out')"/>
                <use id="reset" xlink:href="#resetDef" x="30" y="36" onmousedown="handleReset()"/>
                <g id="arrowUp" xlink:href="#dirArrow" transform="translate(30 24)" onmousedown="handlePan(0,-1)">
                  <use xlink:href="#rim" fill="#404040">
                        <set attributeName="fill" to="#808080" begin="arrowUp.mouseover" end="arrowUp.mouseout"/>
                  </use>
                  <path fill="none" stroke="white" stroke-width="1.5" d="M0,-3.0v7 M-2.5,-0.5L0,-3.0L2.5,-0.5"/>
                </g>
                <g id="arrowRight" xlink:href="#dirArrow" transform="rotate(90) translate(36 -43)" onmousedown="handlePan(1,0)">
                  <use xlink:href="#rim" fill="#404040">
                        <set attributeName="fill" to="#808080" begin="arrowRight.mouseover" end="arrowRight.mouseout"/>
                  </use>
                  <path fill="none" stroke="white" stroke-width="1.5" d="M0,-3.0v7 M-2.5,-0.5L0,-3.0L2.5,-0.5"/>
                </g>
                <g id="arrowDown" xlink:href="#dirArrow" transform="rotate(180) translate(-30 -48)" onmousedown="handlePan(0,1)">
                  <use xlink:href="#rim" fill="#404040">
                        <set attributeName="fill" to="#808080" begin="arrowDown.mouseover" end="arrowDown.mouseout"/>
                  </use>
                  <path fill="none" stroke="white" stroke-width="1.5" d="M0,-3.0v7 M-2.5,-0.5L0,-3.0L2.5,-0.5"/>
                </g>
                <g id="arrowLeft" xlink:href="#dirArrow" transform="rotate(270) translate(-36 17)" onmousedown="handlePan(-1,0)">
                  <use xlink:href="#rim" fill="#404040">
                        <set attributeName="fill" to="#808080" begin="arrowLeft.mouseover" end="arrowLeft.mouseout"/>
                  </use>
                  <path fill="none" stroke="white" stroke-width="1.5" d="M0,-3.0v7 M-2.5,-0.5L0,-3.0L2.5,-0.5"/>
                </g>
        </g>
        <svg viewBox="0 0 15 15" width="100%" height="30px" preserveAspectRatio="xMaxYMin meet">
         <g id="arrow_out" transform="scale(0.3 0.3)">
          <a xlink:href="classu_o_r_b_1_1_subscription_interval_a1febf0b92009d71a8866e759c6fc0e6d_cgraph_org.svg" target="_base">
           <rect id="button" ry="5" rx="5" y="6" x="6" height="38" width="38"
                fill="#f2f5e9" fill-opacity="0.5" stroke="#606060" stroke-width="1.0"/>
           <path id="arrow"
             d="M 11.500037,31.436501 C 11.940474,20.09759 22.043105,11.32322 32.158766,21.979434 L 37.068811,17.246167 C 37.068811,17.246167 37.088388,32 37.088388,32 L 22.160133,31.978069 C 22.160133,31.978069 26.997745,27.140456 26.997745,27.140456 C 18.528582,18.264221 13.291696,25.230495 11.500037,31.436501 z"
             style="fill:#404040;"/>
          </a>
         </g>
        </svg>
</svg>
