<?xml version="1.0" encoding="UTF-8" standalone="no"?>
<!DOCTYPE svg PUBLIC "-//W3C//DTD SVG 1.1//EN"
 "http://www.w3.org/Graphics/SVG/1.1/DTD/svg11.dtd">
<!-- Generated by graphviz version 2.38.0 (20140413.2041)
 -->
<!-- Title: src/modules/mavlink/mavlink_ftp.h Pages: 1 -->
<!--zoomable 207 -->
<svg id="main" version="1.1" xmlns="http://www.w3.org/2000/svg" xmlns:xlink="http://www.w3.org/1999/xlink" xml:space="preserve" onload="init(evt)">
<style type="text/css"><![CDATA[
.edge:hover path { stroke: red; }
.edge:hover polygon { stroke: red; fill: red; }
]]></style>
<script type="text/javascript"><![CDATA[
var edges = document.getElementsByTagName('g');
if (edges && edges.length) {
  for (var i=0;i<edges.length;i++) {
    if (edges[i].id.substr(0,4)=='edge') {
      edges[i].setAttribute('class','edge');
    }
  }
}
]]></script>
        <defs>
                <circle id="rim" cx="0" cy="0" r="7"/>
                <circle id="rim2" cx="0" cy="0" r="3.5"/>
                <g id="zoomPlus">
                        <use xlink:href="#rim" fill="#404040">
                                <set attributeName="fill" to="#808080" begin="zoomplus.mouseover" end="zoomplus.mouseout"/>
                        </use>
                        <path d="M-4,0h8M0,-4v8" fill="none" stroke="white" stroke-width="1.5" pointer-events="none"/>
                </g>
                <g id="zoomMin">
                        <use xlink:href="#rim" fill="#404040">
                                <set attributeName="fill" to="#808080" begin="zoomminus.mouseover" end="zoomminus.mouseout"/>
                        </use>
                        <path d="M-4,0h8" fill="none" stroke="white" stroke-width="1.5" pointer-events="none"/>
                </g>
                <g id="dirArrow">
                        <path fill="none" stroke="white" stroke-width="1.5" d="M0,-3.0v7 M-2.5,-0.5L0,-3.0L2.5,-0.5"/>
                </g>
               <g id="resetDef">
                       <use xlink:href="#rim2" fill="#404040">
                               <set attributeName="fill" to="#808080" begin="reset.mouseover" end="reset.mouseout"/>
                       </use>
               </g>
        </defs>

<script type="text/javascript">
var viewWidth = 968;
var viewHeight = 207;
var sectionId = 'dynsection-0';
</script>
<script xlink:href="../../svgpan.js"/>
<svg id="graph" class="graph">
<g id="viewport">
<title>src/modules/mavlink/mavlink_ftp.h</title>
<polygon fill="white" stroke="none" points="-4,4 -4,-203 963.5,-203 963.5,4 -4,4"/>
<!-- Node1 -->
<g id="node1" class="node"><title>Node1</title>
<polygon fill="#bfbfbf" stroke="black" points="249.5,-168.5 249.5,-198.5 356.5,-198.5 356.5,-168.5 249.5,-168.5"/>
<text text-anchor="start" x="257.5" y="-186.5" font-family="Helvetica,sans-Serif" font-size="10.00">src/modules/mavlink</text>
<text text-anchor="middle" x="303" y="-175.5" font-family="Helvetica,sans-Serif" font-size="10.00">/mavlink_ftp.h</text>
</g>
<!-- Node2 -->
<g id="node2" class="node"><title>Node2</title>
<polygon fill="white" stroke="#bfbfbf" points="28.5,-112.5 28.5,-131.5 77.5,-131.5 77.5,-112.5 28.5,-112.5"/>
<text text-anchor="middle" x="53" y="-119.5" font-family="Helvetica,sans-Serif" font-size="10.00">dirent.h</text>
</g>
<!-- Node1&#45;&gt;Node2 -->
<g id="edge1" class="edge"><title>Node1&#45;&gt;Node2</title>
<path fill="none" stroke="midnightblue" d="M249.358,-170.606C207.593,-161.212 147.937,-147.501 87.5374,-132.329"/>
<polygon fill="midnightblue" stroke="midnightblue" points="88.3923,-128.935 77.8399,-129.882 86.6796,-135.722 88.3923,-128.935"/>
</g>
<!-- Node3 -->
<g id="node3" class="node"><title>Node3</title>
<polygon fill="white" stroke="#bfbfbf" points="337.5,-56.5 337.5,-75.5 388.5,-75.5 388.5,-56.5 337.5,-56.5"/>
<text text-anchor="middle" x="363" y="-63.5" font-family="Helvetica,sans-Serif" font-size="10.00">queue.h</text>
</g>
<!-- Node1&#45;&gt;Node3 -->
<g id="edge2" class="edge"><title>Node1&#45;&gt;Node3</title>
<path fill="none" stroke="midnightblue" d="M310.357,-168.337C321.315,-147.243 341.909,-107.6 353.832,-84.6481"/>
<polygon fill="midnightblue" stroke="midnightblue" points="356.992,-86.157 358.496,-75.6695 350.781,-82.93 356.992,-86.157"/>
</g>
<!-- Node4 -->
<g id="node4" class="node"><title>Node4</title>
<g id="a_node4"><a xlink:href="../../df/dd0/px4__defines_8h.html" target="_top" xlink:title="Generally used magic defines. ">
<polygon fill="white" stroke="black" points="95.5,-112.5 95.5,-131.5 172.5,-131.5 172.5,-112.5 95.5,-112.5"/>
<text text-anchor="middle" x="134" y="-119.5" font-family="Helvetica,sans-Serif" font-size="10.00">px4_defines.h</text>
</a>
</g>
</g>
<!-- Node1&#45;&gt;Node4 -->
<g id="edge3" class="edge"><title>Node1&#45;&gt;Node4</title>
<path fill="none" stroke="midnightblue" d="M262.949,-168.399C234.088,-158.238 195.555,-144.672 168.147,-135.022"/>
<polygon fill="midnightblue" stroke="midnightblue" points="169.186,-131.677 158.591,-131.658 166.861,-138.28 169.186,-131.677"/>
</g>
<!-- Node11 -->
<g id="node11" class="node"><title>Node11</title>
<g id="a_node11"><a xlink:href="../../d6/d40/err_8h.html" target="_top" xlink:title="Simple error/warning functions, heavily inspired by the BSD functions of the same names...">
<polygon fill="white" stroke="black" points="203.5,-112.5 203.5,-131.5 284.5,-131.5 284.5,-112.5 203.5,-112.5"/>
<text text-anchor="middle" x="244" y="-119.5" font-family="Helvetica,sans-Serif" font-size="10.00">systemlib/err.h</text>
</a>
</g>
</g>
<!-- Node1&#45;&gt;Node11 -->
<g id="edge11" class="edge"><title>Node1&#45;&gt;Node11</title>
<path fill="none" stroke="midnightblue" d="M289.018,-168.399C280.268,-159.575 268.971,-148.183 259.883,-139.018"/>
<polygon fill="midnightblue" stroke="midnightblue" points="262.112,-136.294 252.585,-131.658 257.141,-141.223 262.112,-136.294"/>
</g>
<!-- Node14 -->
<g id="node14" class="node"><title>Node14</title>
<g id="a_node14"><a xlink:href="../../d6/d10/drv__hrt_8h.html" target="_top" xlink:title="High&#45;resolution timer with callouts and timekeeping. ">
<polygon fill="white" stroke="black" points="392.5,-112.5 392.5,-131.5 479.5,-131.5 479.5,-112.5 392.5,-112.5"/>
<text text-anchor="middle" x="436" y="-119.5" font-family="Helvetica,sans-Serif" font-size="10.00">drivers/drv_hrt.h</text>
</a>
</g>
</g>
<!-- Node1&#45;&gt;Node14 -->
<g id="edge16" class="edge"><title>Node1&#45;&gt;Node14</title>
<path fill="none" stroke="midnightblue" d="M334.519,-168.399C356.635,-158.505 385.967,-145.383 407.406,-135.792"/>
<polygon fill="midnightblue" stroke="midnightblue" points="408.948,-138.936 416.647,-131.658 406.09,-132.547 408.948,-138.936"/>
</g>
<!-- Node19 -->
<g id="node19" class="node"><title>Node19</title>
<g id="a_node19"><a xlink:href="../../df/d96/mavlink__bridge__header_8h.html" target="_top" xlink:title="mavlink_bridge_header.h">
<polygon fill="white" stroke="black" points="683.5,-112.5 683.5,-131.5 808.5,-131.5 808.5,-112.5 683.5,-112.5"/>
<text text-anchor="middle" x="746" y="-119.5" font-family="Helvetica,sans-Serif" font-size="10.00">mavlink_bridge_header.h</text>
</a>
</g>
</g>
<!-- Node1&#45;&gt;Node19 -->
<g id="edge24" class="edge"><title>Node1&#45;&gt;Node19</title>
<path fill="none" stroke="midnightblue" d="M356.878,-175.264C436.142,-164.617 584.375,-144.708 673.236,-132.773"/>
<polygon fill="midnightblue" stroke="midnightblue" points="673.794,-136.23 683.239,-131.43 672.862,-129.292 673.794,-136.23"/>
</g>
<!-- Node5 -->
<g id="node5" class="node"><title>Node5</title>
<g id="a_node5"><a xlink:href="../../d7/d53/px4__log_8h.html" target="_top" xlink:title="Platform dependant logging/debug implementation. ">
<polygon fill="white" stroke="black" points="90.5,-56.5 90.5,-75.5 149.5,-75.5 149.5,-56.5 90.5,-56.5"/>
<text text-anchor="middle" x="120" y="-63.5" font-family="Helvetica,sans-Serif" font-size="10.00">px4_log.h</text>
</a>
</g>
</g>
<!-- Node4&#45;&gt;Node5 -->
<g id="edge4" class="edge"><title>Node4&#45;&gt;Node5</title>
<path fill="none" stroke="midnightblue" d="M126.522,-112.083C123.157,-104.927 120.058,-94.6353 118.388,-85.6911"/>
<polygon fill="midnightblue" stroke="midnightblue" points="121.859,-85.2359 117.138,-75.7511 114.914,-86.1098 121.859,-85.2359"/>
</g>
<!-- Node5&#45;&gt;Node4 -->
<g id="edge10" class="edge"><title>Node5&#45;&gt;Node4</title>
<path fill="none" stroke="midnightblue" d="M127.4,-75.7511C130.769,-82.8579 133.88,-93.1357 135.573,-102.101"/>
<polygon fill="midnightblue" stroke="midnightblue" points="132.109,-102.61 136.855,-112.083 139.052,-101.719 132.109,-102.61"/>
</g>
<!-- Node6 -->
<g id="node6" class="node"><title>Node6</title>
<polygon fill="white" stroke="#bfbfbf" points="316.5,-0.5 316.5,-19.5 375.5,-19.5 375.5,-0.5 316.5,-0.5"/>
<text text-anchor="middle" x="346" y="-7.5" font-family="Helvetica,sans-Serif" font-size="10.00">inttypes.h</text>
</g>
<!-- Node5&#45;&gt;Node6 -->
<g id="edge5" class="edge"><title>Node5&#45;&gt;Node6</title>
<path fill="none" stroke="midnightblue" d="M149.546,-57.9404C189.728,-48.3393 261.722,-31.1373 306.505,-20.4368"/>
<polygon fill="midnightblue" stroke="midnightblue" points="307.534,-23.7895 316.447,-18.0613 305.908,-16.9812 307.534,-23.7895"/>
</g>
<!-- Node7 -->
<g id="node7" class="node"><title>Node7</title>
<polygon fill="white" stroke="#bfbfbf" points="64.5,-0.5 64.5,-19.5 113.5,-19.5 113.5,-0.5 64.5,-0.5"/>
<text text-anchor="middle" x="89" y="-7.5" font-family="Helvetica,sans-Serif" font-size="10.00">stdint.h</text>
</g>
<!-- Node5&#45;&gt;Node7 -->
<g id="edge6" class="edge"><title>Node5&#45;&gt;Node7</title>
<path fill="none" stroke="midnightblue" d="M114.881,-56.083C110.592,-48.6127 104.342,-37.7244 99.0577,-28.5199"/>
<polygon fill="midnightblue" stroke="midnightblue" points="102.038,-26.6811 94.0238,-19.7511 95.9671,-30.1662 102.038,-26.6811"/>
</g>
<!-- Node8 -->
<g id="node8" class="node"><title>Node8</title>
<polygon fill="white" stroke="#bfbfbf" points="132,-0.5 132,-19.5 200,-19.5 200,-0.5 132,-0.5"/>
<text text-anchor="middle" x="166" y="-7.5" font-family="Helvetica,sans-Serif" font-size="10.00">sys/cdefs.h</text>
</g>
<!-- Node5&#45;&gt;Node8 -->
<g id="edge7" class="edge"><title>Node5&#45;&gt;Node8</title>
<path fill="none" stroke="midnightblue" d="M127.596,-56.083C134.227,-48.2982 144.021,-36.8015 152.058,-27.3665"/>
<polygon fill="midnightblue" stroke="midnightblue" points="154.725,-29.6332 158.545,-19.7511 149.396,-25.0939 154.725,-29.6332"/>
</g>
<!-- Node9 -->
<g id="node9" class="node"><title>Node9</title>
<polygon fill="white" stroke="#bfbfbf" points="0,-0.5 0,-19.5 46,-19.5 46,-0.5 0,-0.5"/>
<text text-anchor="middle" x="23" y="-7.5" font-family="Helvetica,sans-Serif" font-size="10.00">stdio.h</text>
</g>
<!-- Node5&#45;&gt;Node9 -->
<g id="edge8" class="edge"><title>Node5&#45;&gt;Node9</title>
<path fill="none" stroke="midnightblue" d="M104.415,-56.324C89.0009,-47.7428 65.1878,-34.486 47.2903,-24.5224"/>
<polygon fill="midnightblue" stroke="midnightblue" points="48.9858,-21.4606 38.5461,-19.6545 45.5809,-27.5767 48.9858,-21.4606"/>
</g>
<!-- Node10 -->
<g id="node10" class="node"><title>Node10</title>
<polygon fill="white" stroke="#bfbfbf" points="218,-0.5 218,-19.5 270,-19.5 270,-0.5 218,-0.5"/>
<text text-anchor="middle" x="244" y="-7.5" font-family="Helvetica,sans-Serif" font-size="10.00">stdarg.h</text>
</g>
<!-- Node5&#45;&gt;Node10 -->
<g id="edge9" class="edge"><title>Node5&#45;&gt;Node10</title>
<path fill="none" stroke="midnightblue" d="M139.648,-56.4435C159.965,-47.5961 191.903,-33.6875 215.098,-23.5865"/>
<polygon fill="midnightblue" stroke="midnightblue" points="216.673,-26.7181 224.444,-19.5164 213.878,-20.3002 216.673,-26.7181"/>
</g>
<!-- Node11&#45;&gt;Node5 -->
<g id="edge12" class="edge"><title>Node11&#45;&gt;Node5</title>
<path fill="none" stroke="midnightblue" d="M224.352,-112.444C204.035,-103.596 172.097,-89.6875 148.902,-79.5865"/>
<polygon fill="midnightblue" stroke="midnightblue" points="150.122,-76.3002 139.556,-75.5164 147.327,-82.7181 150.122,-76.3002"/>
</g>
<!-- Node11&#45;&gt;Node10 -->
<g id="edge13" class="edge"><title>Node11&#45;&gt;Node10</title>
<path fill="none" stroke="midnightblue" d="M244,-112.368C244,-94.617 244,-53.6664 244,-29.5974"/>
<polygon fill="midnightblue" stroke="midnightblue" points="247.5,-29.5914 244,-19.5914 240.5,-29.5915 247.5,-29.5914"/>
</g>
<!-- Node12 -->
<g id="node12" class="node"><title>Node12</title>
<polygon fill="white" stroke="#bfbfbf" points="272.5,-56.5 272.5,-75.5 319.5,-75.5 319.5,-56.5 272.5,-56.5"/>
<text text-anchor="middle" x="296" y="-63.5" font-family="Helvetica,sans-Serif" font-size="10.00">errno.h</text>
</g>
<!-- Node11&#45;&gt;Node12 -->
<g id="edge14" class="edge"><title>Node11&#45;&gt;Node12</title>
<path fill="none" stroke="midnightblue" d="M252.587,-112.083C260.159,-104.22 271.378,-92.5688 280.514,-83.0813"/>
<polygon fill="midnightblue" stroke="midnightblue" points="283.158,-85.3821 287.573,-75.7511 278.115,-80.5266 283.158,-85.3821"/>
</g>
<!-- Node13 -->
<g id="node13" class="node"><title>Node13</title>
<polygon fill="white" stroke="#bfbfbf" points="168,-56.5 168,-75.5 216,-75.5 216,-56.5 168,-56.5"/>
<text text-anchor="middle" x="192" y="-63.5" font-family="Helvetica,sans-Serif" font-size="10.00">stdlib.h</text>
</g>
<!-- Node11&#45;&gt;Node13 -->
<g id="edge15" class="edge"><title>Node11&#45;&gt;Node13</title>
<path fill="none" stroke="midnightblue" d="M235.413,-112.083C227.841,-104.22 216.622,-92.5688 207.486,-83.0813"/>
<polygon fill="midnightblue" stroke="midnightblue" points="209.885,-80.5266 200.427,-75.7511 204.842,-85.3821 209.885,-80.5266"/>
</g>
<!-- Node14&#45;&gt;Node3 -->
<g id="edge23" class="edge"><title>Node14&#45;&gt;Node3</title>
<path fill="none" stroke="midnightblue" d="M424.271,-112.324C413.163,-104.107 396.258,-91.6017 383.017,-81.8069"/>
<polygon fill="midnightblue" stroke="midnightblue" points="385.063,-78.9671 374.942,-75.8339 380.9,-84.5948 385.063,-78.9671"/>
</g>
<!-- Node14&#45;&gt;Node6 -->
<g id="edge19" class="edge"><title>Node14&#45;&gt;Node6</title>
<path fill="none" stroke="midnightblue" d="M432.121,-112.433C425.996,-99.4323 413.203,-74.2992 398,-56 388.702,-44.808 376.471,-34.0734 366.208,-25.8972"/>
<polygon fill="midnightblue" stroke="midnightblue" points="368.21,-23.0212 358.157,-19.6772 363.93,-28.5606 368.21,-23.0212"/>
</g>
<!-- Node15 -->
<g id="node15" class="node"><title>Node15</title>
<polygon fill="white" stroke="#bfbfbf" points="421,-0.5 421,-19.5 489,-19.5 489,-0.5 421,-0.5"/>
<text text-anchor="middle" x="455" y="-7.5" font-family="Helvetica,sans-Serif" font-size="10.00">sys/types.h</text>
</g>
<!-- Node14&#45;&gt;Node15 -->
<g id="edge17" class="edge"><title>Node14&#45;&gt;Node15</title>
<path fill="none" stroke="midnightblue" d="M437.491,-112.368C440.557,-94.617 447.63,-53.6664 451.788,-29.5974"/>
<polygon fill="midnightblue" stroke="midnightblue" points="455.263,-30.0413 453.516,-19.5914 448.365,-28.8498 455.263,-30.0413"/>
</g>
<!-- Node16 -->
<g id="node16" class="node"><title>Node16</title>
<polygon fill="white" stroke="#bfbfbf" points="567,-56.5 567,-75.5 623,-75.5 623,-56.5 567,-56.5"/>
<text text-anchor="middle" x="595" y="-63.5" font-family="Helvetica,sans-Serif" font-size="10.00">stdbool.h</text>
</g>
<!-- Node14&#45;&gt;Node16 -->
<g id="edge18" class="edge"><title>Node14&#45;&gt;Node16</title>
<path fill="none" stroke="midnightblue" d="M461.194,-112.444C487.943,-103.359 530.403,-88.9388 560.305,-78.7831"/>
<polygon fill="midnightblue" stroke="midnightblue" points="561.581,-82.0464 569.924,-75.5164 559.329,-75.4182 561.581,-82.0464"/>
</g>
<!-- Node17 -->
<g id="node17" class="node"><title>Node17</title>
<g id="a_node17"><a xlink:href="../../d3/d2d/px4__time_8h.html" target="_top" xlink:title="px4_time.h">
<polygon fill="white" stroke="black" points="483.5,-56.5 483.5,-75.5 548.5,-75.5 548.5,-56.5 483.5,-56.5"/>
<text text-anchor="middle" x="516" y="-63.5" font-family="Helvetica,sans-Serif" font-size="10.00">px4_time.h</text>
</a>
</g>
</g>
<!-- Node14&#45;&gt;Node17 -->
<g id="edge20" class="edge"><title>Node14&#45;&gt;Node17</title>
<path fill="none" stroke="midnightblue" d="M448.853,-112.324C461.216,-103.979 480.13,-91.2122 494.737,-81.3524"/>
<polygon fill="midnightblue" stroke="midnightblue" points="496.848,-84.1503 503.179,-75.6545 492.932,-78.3483 496.848,-84.1503"/>
</g>
<!-- Node17&#45;&gt;Node15 -->
<g id="edge21" class="edge"><title>Node17&#45;&gt;Node15</title>
<path fill="none" stroke="midnightblue" d="M506.199,-56.324C497.182,-48.3414 483.594,-36.3128 472.682,-26.6529"/>
<polygon fill="midnightblue" stroke="midnightblue" points="474.787,-23.8416 464.979,-19.8339 470.147,-29.083 474.787,-23.8416"/>
</g>
<!-- Node18 -->
<g id="node18" class="node"><title>Node18</title>
<polygon fill="white" stroke="#bfbfbf" points="507,-0.5 507,-19.5 551,-19.5 551,-0.5 507,-0.5"/>
<text text-anchor="middle" x="529" y="-7.5" font-family="Helvetica,sans-Serif" font-size="10.00">time.h</text>
</g>
<!-- Node17&#45;&gt;Node18 -->
<g id="edge22" class="edge"><title>Node17&#45;&gt;Node18</title>
<path fill="none" stroke="midnightblue" d="M518.147,-56.083C519.869,-48.9272 522.347,-38.6353 524.5,-29.6911"/>
<polygon fill="midnightblue" stroke="midnightblue" points="527.955,-30.2925 526.893,-19.7511 521.15,-28.6541 527.955,-30.2925"/>
</g>
<!-- Node20 -->
<g id="node20" class="node"><title>Node20</title>
<polygon fill="white" stroke="#bfbfbf" points="641,-56.5 641,-75.5 751,-75.5 751,-56.5 641,-56.5"/>
<text text-anchor="middle" x="696" y="-63.5" font-family="Helvetica,sans-Serif" font-size="10.00">v2.0/mavlink_types.h</text>
</g>
<!-- Node19&#45;&gt;Node20 -->
<g id="edge25" class="edge"><title>Node19&#45;&gt;Node20</title>
<path fill="none" stroke="midnightblue" d="M737.744,-112.083C730.535,-104.298 719.89,-92.8015 711.154,-83.3665"/>
<polygon fill="midnightblue" stroke="midnightblue" points="713.465,-80.7108 704.103,-75.7511 708.329,-85.4666 713.465,-80.7108"/>
</g>
<!-- Node21 -->
<g id="node21" class="node"><title>Node21</title>
<polygon fill="white" stroke="#bfbfbf" points="769.5,-56.5 769.5,-75.5 820.5,-75.5 820.5,-56.5 769.5,-56.5"/>
<text text-anchor="middle" x="795" y="-63.5" font-family="Helvetica,sans-Serif" font-size="10.00">unistd.h</text>
</g>
<!-- Node19&#45;&gt;Node21 -->
<g id="edge26" class="edge"><title>Node19&#45;&gt;Node21</title>
<path fill="none" stroke="midnightblue" d="M754.091,-112.083C761.155,-104.298 771.588,-92.8015 780.149,-83.3665"/>
<polygon fill="midnightblue" stroke="midnightblue" points="782.931,-85.5087 787.059,-75.7511 777.747,-80.8047 782.931,-85.5087"/>
</g>
<!-- Node22 -->
<g id="node22" class="node"><title>Node22</title>
<polygon fill="white" stroke="#bfbfbf" points="838.5,-56.5 838.5,-75.5 959.5,-75.5 959.5,-56.5 838.5,-56.5"/>
<text text-anchor="middle" x="899" y="-63.5" font-family="Helvetica,sans-Serif" font-size="10.00">v2.0/standard/mavlink.h</text>
</g>
<!-- Node19&#45;&gt;Node22 -->
<g id="edge27" class="edge"><title>Node19&#45;&gt;Node22</title>
<path fill="none" stroke="midnightblue" d="M770.243,-112.444C795.871,-103.399 836.485,-89.064 865.238,-78.9158"/>
<polygon fill="midnightblue" stroke="midnightblue" points="866.605,-82.1452 874.87,-75.5164 864.275,-75.5442 866.605,-82.1452"/>
</g>
</g>
</svg>
        <g id="navigator" transform="translate(0 0)" fill="#404254">
                <rect fill="#f2f5e9" fill-opacity="0.5" stroke="#606060" stroke-width=".5" x="0" y="0" width="60" height="60"/>
                <use id="zoomplus" xlink:href="#zoomPlus" x="17" y="9" onmousedown="handleZoom(evt,'in')"/>
                <use id="zoomminus" xlink:href="#zoomMin" x="42" y="9" onmousedown="handleZoom(evt,'out')"/>
                <use id="reset" xlink:href="#resetDef" x="30" y="36" onmousedown="handleReset()"/>
                <g id="arrowUp" xlink:href="#dirArrow" transform="translate(30 24)" onmousedown="handlePan(0,-1)">
                  <use xlink:href="#rim" fill="#404040">
                        <set attributeName="fill" to="#808080" begin="arrowUp.mouseover" end="arrowUp.mouseout"/>
                  </use>
                  <path fill="none" stroke="white" stroke-width="1.5" d="M0,-3.0v7 M-2.5,-0.5L0,-3.0L2.5,-0.5"/>
                </g>
                <g id="arrowRight" xlink:href="#dirArrow" transform="rotate(90) translate(36 -43)" onmousedown="handlePan(1,0)">
                  <use xlink:href="#rim" fill="#404040">
                        <set attributeName="fill" to="#808080" begin="arrowRight.mouseover" end="arrowRight.mouseout"/>
                  </use>
                  <path fill="none" stroke="white" stroke-width="1.5" d="M0,-3.0v7 M-2.5,-0.5L0,-3.0L2.5,-0.5"/>
                </g>
                <g id="arrowDown" xlink:href="#dirArrow" transform="rotate(180) translate(-30 -48)" onmousedown="handlePan(0,1)">
                  <use xlink:href="#rim" fill="#404040">
                        <set attributeName="fill" to="#808080" begin="arrowDown.mouseover" end="arrowDown.mouseout"/>
                  </use>
                  <path fill="none" stroke="white" stroke-width="1.5" d="M0,-3.0v7 M-2.5,-0.5L0,-3.0L2.5,-0.5"/>
                </g>
                <g id="arrowLeft" xlink:href="#dirArrow" transform="rotate(270) translate(-36 17)" onmousedown="handlePan(-1,0)">
                  <use xlink:href="#rim" fill="#404040">
                        <set attributeName="fill" to="#808080" begin="arrowLeft.mouseover" end="arrowLeft.mouseout"/>
                  </use>
                  <path fill="none" stroke="white" stroke-width="1.5" d="M0,-3.0v7 M-2.5,-0.5L0,-3.0L2.5,-0.5"/>
                </g>
        </g>
        <svg viewBox="0 0 15 15" width="100%" height="30px" preserveAspectRatio="xMaxYMin meet">
         <g id="arrow_out" transform="scale(0.3 0.3)">
          <a xlink:href="mavlink__ftp_8h__incl_org.svg" target="_base">
           <rect id="button" ry="5" rx="5" y="6" x="6" height="38" width="38"
                fill="#f2f5e9" fill-opacity="0.5" stroke="#606060" stroke-width="1.0"/>
           <path id="arrow"
             d="M 11.500037,31.436501 C 11.940474,20.09759 22.043105,11.32322 32.158766,21.979434 L 37.068811,17.246167 C 37.068811,17.246167 37.088388,32 37.088388,32 L 22.160133,31.978069 C 22.160133,31.978069 26.997745,27.140456 26.997745,27.140456 C 18.528582,18.264221 13.291696,25.230495 11.500037,31.436501 z"
             style="fill:#404040;"/>
          </a>
         </g>
        </svg>
</svg>
