<?xml version="1.0" encoding="UTF-8" standalone="no"?>
<!DOCTYPE svg PUBLIC "-//W3C//DTD SVG 1.1//EN"
 "http://www.w3.org/Graphics/SVG/1.1/DTD/svg11.dtd">
<!-- Generated by graphviz version 2.40.1 (20161225.0304)
 -->
<!-- Title: LSM303D::accel_set_onchip_lowpass_filter_bandwidth Pages: 1 -->
<svg width="600pt" height="66pt"
 viewBox="0.00 0.00 600.00 66.00" xmlns="http://www.w3.org/2000/svg" xmlns:xlink="http://www.w3.org/1999/xlink">
<g id="graph0" class="graph" transform="scale(1 1) rotate(0) translate(4 62)">
<title>LSM303D::accel_set_onchip_lowpass_filter_bandwidth</title>
<polygon fill="#ffffff" stroke="transparent" points="-4,4 -4,-62 596,-62 596,4 -4,4"/>
<!-- Node10 -->
<g id="node1" class="node">
<title>Node10</title>
<polygon fill="#bfbfbf" stroke="#000000" points="0,-8.5 0,-49.5 116,-49.5 116,-8.5 0,-8.5"/>
<text text-anchor="start" x="8" y="-37.5" font-family="Helvetica,sans-Serif" font-size="10.00" fill="#000000">LSM303D::accel_set</text>
<text text-anchor="start" x="8" y="-26.5" font-family="Helvetica,sans-Serif" font-size="10.00" fill="#000000">_onchip_lowpass_filter</text>
<text text-anchor="middle" x="58" y="-15.5" font-family="Helvetica,sans-Serif" font-size="10.00" fill="#000000">_bandwidth</text>
</g>
<!-- Node11 -->
<g id="node2" class="node">
<title>Node11</title>
<g id="a_node2"><a xlink:href="../../d6/dd5/class_l_s_m303_d.html#a94d120e35d1ccfe5917a58ba03572138" target="_top" xlink:title="Modify a register in the LSM303D. ">
<polygon fill="#ffffff" stroke="#000000" points="152,-19.5 152,-38.5 266,-38.5 266,-19.5 152,-19.5"/>
<text text-anchor="middle" x="209" y="-26.5" font-family="Helvetica,sans-Serif" font-size="10.00" fill="#000000">LSM303D::modify_reg</text>
</a>
</g>
</g>
<!-- Node10&#45;&gt;Node11 -->
<g id="edge1" class="edge">
<title>Node10&#45;&gt;Node11</title>
<path fill="none" stroke="#191970" d="M116.3805,-29C124.6407,-29 133.1895,-29 141.6025,-29"/>
<polygon fill="#191970" stroke="#191970" points="141.7688,-32.5001 151.7687,-29 141.7687,-25.5001 141.7688,-32.5001"/>
</g>
<!-- Node12 -->
<g id="node3" class="node">
<title>Node12</title>
<g id="a_node3"><a xlink:href="../../d6/dd5/class_l_s_m303_d.html#a5dc0b5d0de4a3ef9ccdf79326cc5b416" target="_top" xlink:title="Read a register from the LSM303D. ">
<polygon fill="#ffffff" stroke="#000000" points="324,-38.5 324,-57.5 428,-57.5 428,-38.5 324,-38.5"/>
<text text-anchor="middle" x="376" y="-45.5" font-family="Helvetica,sans-Serif" font-size="10.00" fill="#000000">LSM303D::read_reg</text>
</a>
</g>
</g>
<!-- Node11&#45;&gt;Node12 -->
<g id="edge2" class="edge">
<title>Node11&#45;&gt;Node12</title>
<path fill="none" stroke="#191970" d="M266.0048,-35.4856C281.352,-37.2317 298.0314,-39.1293 313.6532,-40.9067"/>
<polygon fill="#191970" stroke="#191970" points="313.4101,-44.4015 323.7417,-42.0544 314.2015,-37.4464 313.4101,-44.4015"/>
</g>
<!-- Node13 -->
<g id="node4" class="node">
<title>Node13</title>
<g id="a_node4"><a xlink:href="../../d6/dd5/class_l_s_m303_d.html#ae01c393885c97b626a1b1bdb66057b86" target="_top" xlink:title="Write a register in the LSM303D, updating _checked_values. ">
<polygon fill="#ffffff" stroke="#000000" points="302,-.5 302,-19.5 450,-19.5 450,-.5 302,-.5"/>
<text text-anchor="middle" x="376" y="-7.5" font-family="Helvetica,sans-Serif" font-size="10.00" fill="#000000">LSM303D::write_checked_reg</text>
</a>
</g>
</g>
<!-- Node11&#45;&gt;Node13 -->
<g id="edge3" class="edge">
<title>Node11&#45;&gt;Node13</title>
<path fill="none" stroke="#191970" d="M266.0048,-22.5144C274.2904,-21.5718 282.9642,-20.5849 291.6503,-19.5967"/>
<polygon fill="#191970" stroke="#191970" points="292.2899,-23.0466 301.8301,-18.4385 291.4986,-16.0914 292.2899,-23.0466"/>
</g>
<!-- Node14 -->
<g id="node5" class="node">
<title>Node14</title>
<g id="a_node5"><a xlink:href="../../d6/dd5/class_l_s_m303_d.html#a8b8e71c3287211a03712a1be26fc2f09" target="_top" xlink:title="Write a register in the LSM303D. ">
<polygon fill="#ffffff" stroke="#000000" points="486,-.5 486,-19.5 592,-19.5 592,-.5 486,-.5"/>
<text text-anchor="middle" x="539" y="-7.5" font-family="Helvetica,sans-Serif" font-size="10.00" fill="#000000">LSM303D::write_reg</text>
</a>
</g>
</g>
<!-- Node13&#45;&gt;Node14 -->
<g id="edge4" class="edge">
<title>Node13&#45;&gt;Node14</title>
<path fill="none" stroke="#191970" d="M450.3451,-10C458.7284,-10 467.2134,-10 475.4417,-10"/>
<polygon fill="#191970" stroke="#191970" points="475.7,-13.5001 485.7,-10 475.6999,-6.5001 475.7,-13.5001"/>
</g>
</g>
</svg>
