<?xml version="1.0" encoding="UTF-8" standalone="no"?>
<!DOCTYPE svg PUBLIC "-//W3C//DTD SVG 1.1//EN"
 "http://www.w3.org/Graphics/SVG/1.1/DTD/svg11.dtd">
<!-- Generated by graphviz version 2.40.1 (20161225.0304)
 -->
<!-- Title: LSM303D::print_info Pages: 1 -->
<svg width="341pt" height="28pt"
 viewBox="0.00 0.00 341.00 28.00" xmlns="http://www.w3.org/2000/svg" xmlns:xlink="http://www.w3.org/1999/xlink">
<g id="graph0" class="graph" transform="scale(1 1) rotate(0) translate(4 24)">
<title>LSM303D::print_info</title>
<polygon fill="#ffffff" stroke="transparent" points="-4,4 -4,-24 337,-24 337,4 -4,4"/>
<!-- Node198 -->
<g id="node1" class="node">
<title>Node198</title>
<polygon fill="#bfbfbf" stroke="#000000" points="0,-.5 0,-19.5 106,-19.5 106,-.5 0,-.5"/>
<text text-anchor="middle" x="53" y="-7.5" font-family="Helvetica,sans-Serif" font-size="10.00" fill="#000000">LSM303D::print_info</text>
</g>
<!-- Node199 -->
<g id="node2" class="node">
<title>Node199</title>
<g id="a_node2"><a xlink:href="../../de/d88/namespacelsm303d.html#a4421e77a20d23bc6e1a12f5498670eaa" target="_top" xlink:title="Print a little info about the driver. ">
<polygon fill="#ffffff" stroke="#000000" points="142,-.5 142,-19.5 217,-19.5 217,-.5 142,-.5"/>
<text text-anchor="middle" x="179.5" y="-7.5" font-family="Helvetica,sans-Serif" font-size="10.00" fill="#000000">lsm303d::info</text>
</a>
</g>
</g>
<!-- Node198&#45;&gt;Node199 -->
<g id="edge1" class="edge">
<title>Node198&#45;&gt;Node199</title>
<path fill="none" stroke="#191970" d="M116.3835,-10C125.0212,-10 133.6556,-10 141.6422,-10"/>
<polygon fill="#191970" stroke="#191970" points="116.2808,-6.5001 106.2808,-10 116.2807,-13.5001 116.2808,-6.5001"/>
</g>
<!-- Node200 -->
<g id="node3" class="node">
<title>Node200</title>
<g id="a_node3"><a xlink:href="../../d0/d47/lsm303d__main_8cpp.html#a58648fe66ec5f4a40bea62b2c0c466b3" target="_top" xlink:title="lsm303d_main">
<polygon fill="#ffffff" stroke="#000000" points="253,-.5 253,-19.5 333,-19.5 333,-.5 253,-.5"/>
<text text-anchor="middle" x="293" y="-7.5" font-family="Helvetica,sans-Serif" font-size="10.00" fill="#000000">lsm303d_main</text>
</a>
</g>
</g>
<!-- Node199&#45;&gt;Node200 -->
<g id="edge2" class="edge">
<title>Node199&#45;&gt;Node200</title>
<path fill="none" stroke="#191970" d="M227.3713,-10C235.7835,-10 244.4627,-10 252.6446,-10"/>
<polygon fill="#191970" stroke="#191970" points="227.2939,-6.5001 217.2939,-10 227.2938,-13.5001 227.2939,-6.5001"/>
</g>
</g>
</svg>
