<?xml version="1.0" encoding="UTF-8" standalone="no"?>
<!DOCTYPE svg PUBLIC "-//W3C//DTD SVG 1.1//EN"
 "http://www.w3.org/Graphics/SVG/1.1/DTD/svg11.dtd">
<!-- Generated by graphviz version 2.38.0 (20140413.2041)
 -->
<!-- Title: Syslink::task_main Pages: 1 -->
<svg width="573pt" height="39pt"
 viewBox="0.00 0.00 573.00 39.00" xmlns="http://www.w3.org/2000/svg" xmlns:xlink="http://www.w3.org/1999/xlink">
<g id="graph0" class="graph" transform="scale(1 1) rotate(0) translate(4 35)">
<title>Syslink::task_main</title>
<polygon fill="white" stroke="none" points="-4,4 -4,-35 569,-35 569,4 -4,4"/>
<!-- Node1 -->
<g id="node1" class="node"><title>Node1</title>
<polygon fill="#bfbfbf" stroke="black" points="0,-6 0,-25 100,-25 100,-6 0,-6"/>
<text text-anchor="middle" x="50" y="-13" font-family="Helvetica,sans-Serif" font-size="10.00">Syslink::task_main</text>
</g>
<!-- Node2 -->
<g id="node2" class="node"><title>Node2</title>
<g id="a_node2"><a xlink:href="../../d3/d4d/class_syslink.html#aa49712b0a9781bd745b08f0b2f564d5f" target="_top" xlink:title="Syslink::task_main\l_trampoline">
<polygon fill="white" stroke="black" points="136,-0.5 136,-30.5 236,-30.5 236,-0.5 136,-0.5"/>
<text text-anchor="start" x="144" y="-18.5" font-family="Helvetica,sans-Serif" font-size="10.00">Syslink::task_main</text>
<text text-anchor="middle" x="186" y="-7.5" font-family="Helvetica,sans-Serif" font-size="10.00">_trampoline</text>
</a>
</g>
</g>
<!-- Node1&#45;&gt;Node2 -->
<g id="edge1" class="edge"><title>Node1&#45;&gt;Node2</title>
<path fill="none" stroke="midnightblue" d="M110.398,-15.5C118.909,-15.5 127.586,-15.5 135.87,-15.5"/>
<polygon fill="midnightblue" stroke="midnightblue" points="110.136,-12.0001 100.136,-15.5 110.136,-19.0001 110.136,-12.0001"/>
</g>
<!-- Node3 -->
<g id="node3" class="node"><title>Node3</title>
<g id="a_node3"><a xlink:href="../../d3/d4d/class_syslink.html#a6e982e6562a2a6ef0eaafc84482d4b96" target="_top" xlink:title="Syslink::start">
<polygon fill="white" stroke="black" points="272,-6 272,-25 346,-25 346,-6 272,-6"/>
<text text-anchor="middle" x="309" y="-13" font-family="Helvetica,sans-Serif" font-size="10.00">Syslink::start</text>
</a>
</g>
</g>
<!-- Node2&#45;&gt;Node3 -->
<g id="edge2" class="edge"><title>Node2&#45;&gt;Node3</title>
<path fill="none" stroke="midnightblue" d="M246.363,-15.5C255.057,-15.5 263.781,-15.5 271.819,-15.5"/>
<polygon fill="midnightblue" stroke="midnightblue" points="246.215,-12.0001 236.215,-15.5 246.215,-19.0001 246.215,-12.0001"/>
</g>
<!-- Node4 -->
<g id="node4" class="node"><title>Node4</title>
<g id="a_node4"><a xlink:href="../../dc/d18/namespacesyslink.html#a402103699f560ef0a647afbdec634347" target="_top" xlink:title="Attempt to start driver on all available I2C busses. ">
<polygon fill="white" stroke="black" points="382,-6 382,-25 455,-25 455,-6 382,-6"/>
<text text-anchor="middle" x="418.5" y="-13" font-family="Helvetica,sans-Serif" font-size="10.00">syslink::start</text>
</a>
</g>
</g>
<!-- Node3&#45;&gt;Node4 -->
<g id="edge3" class="edge"><title>Node3&#45;&gt;Node4</title>
<path fill="none" stroke="midnightblue" d="M356.283,-15.5C364.787,-15.5 373.545,-15.5 381.683,-15.5"/>
<polygon fill="midnightblue" stroke="midnightblue" points="356.095,-12.0001 346.095,-15.5 356.095,-19.0001 356.095,-12.0001"/>
</g>
<!-- Node5 -->
<g id="node5" class="node"><title>Node5</title>
<g id="a_node5"><a xlink:href="../../de/dbe/syslink__main_8cpp.html#ad94fd8d66995ec8573205ce6e3bc8f07" target="_top" xlink:title="syslink_main">
<polygon fill="white" stroke="black" points="491,-6 491,-25 565,-25 565,-6 491,-6"/>
<text text-anchor="middle" x="528" y="-13" font-family="Helvetica,sans-Serif" font-size="10.00">syslink_main</text>
</a>
</g>
</g>
<!-- Node4&#45;&gt;Node5 -->
<g id="edge4" class="edge"><title>Node4&#45;&gt;Node5</title>
<path fill="none" stroke="midnightblue" d="M465.504,-15.5C474.029,-15.5 482.82,-15.5 490.994,-15.5"/>
<polygon fill="midnightblue" stroke="midnightblue" points="465.296,-12.0001 455.296,-15.5 465.296,-19.0001 465.296,-12.0001"/>
</g>
</g>
</svg>
