<?xml version="1.0" encoding="UTF-8" standalone="no"?>
<!DOCTYPE svg PUBLIC "-//W3C//DTD SVG 1.1//EN"
 "http://www.w3.org/Graphics/SVG/1.1/DTD/svg11.dtd">
<!-- Generated by graphviz version 2.40.1 (20161225.0304)
 -->
<!-- Title: DataValidatorGroup::get_best Pages: 1 -->
<svg width="539pt" height="230pt"
 viewBox="0.00 0.00 539.00 230.00" xmlns="http://www.w3.org/2000/svg" xmlns:xlink="http://www.w3.org/1999/xlink">
<g id="graph0" class="graph" transform="scale(1 1) rotate(0) translate(4 226)">
<title>DataValidatorGroup::get_best</title>
<polygon fill="#ffffff" stroke="transparent" points="-4,4 -4,-226 535,-226 535,4 -4,4"/>
<!-- Node93 -->
<g id="node1" class="node">
<title>Node93</title>
<polygon fill="#bfbfbf" stroke="#000000" points="0,-99 0,-129 102,-129 102,-99 0,-99"/>
<text text-anchor="start" x="8" y="-117" font-family="Helvetica,sans-Serif" font-size="10.00" fill="#000000">DataValidatorGroup</text>
<text text-anchor="middle" x="51" y="-106" font-family="Helvetica,sans-Serif" font-size="10.00" fill="#000000">::get_best</text>
</g>
<!-- Node94 -->
<g id="node2" class="node">
<title>Node94</title>
<g id="a_node2"><a xlink:href="../../d5/d70/class_data_validator.html#a672ea71241439cb19d613ed9eb4d2b32" target="_top" xlink:title="Get the confidence of this validator. ">
<polygon fill="#ffffff" stroke="#000000" points="138,-202.5 138,-221.5 267,-221.5 267,-202.5 138,-202.5"/>
<text text-anchor="middle" x="202.5" y="-209.5" font-family="Helvetica,sans-Serif" font-size="10.00" fill="#000000">DataValidator::confidence</text>
</a>
</g>
</g>
<!-- Node93&#45;&gt;Node94 -->
<g id="edge1" class="edge">
<title>Node93&#45;&gt;Node94</title>
<path fill="none" stroke="#191970" d="M65.4664,-129.1284C81.7954,-145.4895 109.7796,-171.4453 138,-188 144.9563,-192.0807 152.7285,-195.678 160.4026,-198.7632"/>
<polygon fill="#191970" stroke="#191970" points="159.4105,-202.1299 170.0021,-202.3949 161.8876,-195.5828 159.4105,-202.1299"/>
</g>
<!-- Node95 -->
<g id="node3" class="node">
<title>Node95</title>
<g id="a_node3"><a xlink:href="../../d8/da1/integration_8cpp.html#af5ba872dd09316732300733cc164ac1a" target="_top" xlink:title="f">
<polygon fill="#ffffff" stroke="#000000" points="303,-183.5 303,-202.5 332,-202.5 332,-183.5 303,-183.5"/>
<text text-anchor="middle" x="317.5" y="-190.5" font-family="Helvetica,sans-Serif" font-size="10.00" fill="#000000">f</text>
</a>
</g>
</g>
<!-- Node93&#45;&gt;Node95 -->
<g id="edge6" class="edge">
<title>Node93&#45;&gt;Node95</title>
<path fill="none" stroke="#191970" d="M78.917,-129.1891C95.6529,-137.7751 117.5846,-148.1323 138,-155 191.6686,-173.0541 257.353,-184.3576 292.4889,-189.5805"/>
<polygon fill="#191970" stroke="#191970" points="292.3721,-193.0998 302.7693,-191.0634 293.3715,-186.1715 292.3721,-193.0998"/>
</g>
<!-- Node98 -->
<g id="node6" class="node">
<title>Node98</title>
<g id="a_node6"><a xlink:href="../../d5/d70/class_data_validator.html#a07140caca7f2df669ba4458f7c88000f" target="_top" xlink:title="Get the priority of this validator. ">
<polygon fill="#ffffff" stroke="#000000" points="147,-126.5 147,-145.5 258,-145.5 258,-126.5 147,-126.5"/>
<text text-anchor="middle" x="202.5" y="-133.5" font-family="Helvetica,sans-Serif" font-size="10.00" fill="#000000">DataValidator::priority</text>
</a>
</g>
</g>
<!-- Node93&#45;&gt;Node98 -->
<g id="edge7" class="edge">
<title>Node93&#45;&gt;Node98</title>
<path fill="none" stroke="#191970" d="M102.291,-121.4482C113.3787,-123.0583 125.2497,-124.7821 136.8031,-126.4598"/>
<polygon fill="#191970" stroke="#191970" points="136.4474,-129.9448 146.8466,-127.9183 137.4534,-123.0175 136.4474,-129.9448"/>
</g>
<!-- Node99 -->
<g id="node7" class="node">
<title>Node99</title>
<g id="a_node7"><a xlink:href="../../d5/d70/class_data_validator.html#a91d70b1301d02d1f1abd496e7265b4b8" target="_top" xlink:title="Reset the error state of this validator. ">
<polygon fill="#ffffff" stroke="#000000" points="150.5,-77 150.5,-107 254.5,-107 254.5,-77 150.5,-77"/>
<text text-anchor="start" x="158.5" y="-95" font-family="Helvetica,sans-Serif" font-size="10.00" fill="#000000">DataValidator::reset</text>
<text text-anchor="middle" x="202.5" y="-84" font-family="Helvetica,sans-Serif" font-size="10.00" fill="#000000">_state</text>
</a>
</g>
</g>
<!-- Node93&#45;&gt;Node99 -->
<g id="edge8" class="edge">
<title>Node93&#45;&gt;Node99</title>
<path fill="none" stroke="#191970" d="M102.291,-106.5518C114.551,-104.7715 127.7686,-102.8521 140.4556,-101.0097"/>
<polygon fill="#191970" stroke="#191970" points="141.095,-104.4537 150.4882,-99.5529 140.089,-97.5264 141.095,-104.4537"/>
</g>
<!-- Node100 -->
<g id="node8" class="node">
<title>Node100</title>
<g id="a_node8"><a xlink:href="../../d5/d70/class_data_validator.html#a82fe9bb4260cfb4ee1d43982693431a2" target="_top" xlink:title="Get the next sibling in the group. ">
<polygon fill="#ffffff" stroke="#000000" points="147.5,-38.5 147.5,-57.5 257.5,-57.5 257.5,-38.5 147.5,-38.5"/>
<text text-anchor="middle" x="202.5" y="-45.5" font-family="Helvetica,sans-Serif" font-size="10.00" fill="#000000">DataValidator::sibling</text>
</a>
</g>
</g>
<!-- Node93&#45;&gt;Node100 -->
<g id="edge9" class="edge">
<title>Node93&#45;&gt;Node100</title>
<path fill="none" stroke="#191970" d="M76.6581,-98.8124C93.6686,-89.1528 116.6976,-76.8443 138,-68 144.3292,-65.3723 151.1308,-62.9018 157.8591,-60.6538"/>
<polygon fill="#191970" stroke="#191970" points="159.149,-63.9157 167.6009,-57.527 157.0097,-57.2506 159.149,-63.9157"/>
</g>
<!-- Node101 -->
<g id="node9" class="node">
<title>Node101</title>
<g id="a_node9"><a xlink:href="../../d5/d70/class_data_validator.html#a24d9bdfb86351d6b236a8d2a2643e9a4" target="_top" xlink:title="Get the values of this validator. ">
<polygon fill="#ffffff" stroke="#000000" points="150,-.5 150,-19.5 255,-19.5 255,-.5 150,-.5"/>
<text text-anchor="middle" x="202.5" y="-7.5" font-family="Helvetica,sans-Serif" font-size="10.00" fill="#000000">DataValidator::value</text>
</a>
</g>
</g>
<!-- Node93&#45;&gt;Node101 -->
<g id="edge10" class="edge">
<title>Node93&#45;&gt;Node101</title>
<path fill="none" stroke="#191970" d="M62.5665,-98.8139C77.8318,-79.7955 106.4827,-47.4717 138,-29 141.6824,-26.8418 145.6285,-24.9126 149.6881,-23.1909"/>
<polygon fill="#191970" stroke="#191970" points="151.1908,-26.3641 159.2953,-19.5401 148.7042,-19.8206 151.1908,-26.3641"/>
</g>
<!-- Node94&#45;&gt;Node95 -->
<g id="edge2" class="edge">
<title>Node94&#45;&gt;Node95</title>
<path fill="none" stroke="#191970" d="M260.3369,-202.4443C271.7156,-200.5644 283.0767,-198.6873 292.6378,-197.1077"/>
<polygon fill="#191970" stroke="#191970" points="293.2769,-200.5496 302.5726,-195.4663 292.1358,-193.6432 293.2769,-200.5496"/>
</g>
<!-- Node96 -->
<g id="node4" class="node">
<title>Node96</title>
<g id="a_node4"><a xlink:href="../../d0/de4/namespacematrix.html#a761295febb473ca1226309513533e801" target="_top" xlink:title="matrix::sin">
<polygon fill="#ffffff" stroke="#000000" points="368,-183.5 368,-202.5 430,-202.5 430,-183.5 368,-183.5"/>
<text text-anchor="middle" x="399" y="-190.5" font-family="Helvetica,sans-Serif" font-size="10.00" fill="#000000">matrix::sin</text>
</a>
</g>
</g>
<!-- Node95&#45;&gt;Node96 -->
<g id="edge3" class="edge">
<title>Node95&#45;&gt;Node96</title>
<path fill="none" stroke="#191970" d="M332.0706,-193C339.2561,-193 348.3248,-193 357.4473,-193"/>
<polygon fill="#191970" stroke="#191970" points="357.6721,-196.5001 367.6721,-193 357.6721,-189.5001 357.6721,-196.5001"/>
</g>
<!-- Node97 -->
<g id="node5" class="node">
<title>Node97</title>
<g id="a_node5"><a xlink:href="../../d0/de4/namespacematrix.html#a2e09123c750ed3a0315a31f3b27a3ed9" target="_top" xlink:title="matrix::cos">
<polygon fill="#ffffff" stroke="#000000" points="466,-183.5 466,-202.5 531,-202.5 531,-183.5 466,-183.5"/>
<text text-anchor="middle" x="498.5" y="-190.5" font-family="Helvetica,sans-Serif" font-size="10.00" fill="#000000">matrix::cos</text>
</a>
</g>
</g>
<!-- Node96&#45;&gt;Node97 -->
<g id="edge4" class="edge">
<title>Node96&#45;&gt;Node97</title>
<path fill="none" stroke="#191970" d="M430.2094,-186.6852C438.232,-186.2913 447.0052,-186.1648 455.5098,-186.3057"/>
<polygon fill="#191970" stroke="#191970" points="455.5817,-189.8093 465.682,-186.6102 455.7912,-182.8125 455.5817,-189.8093"/>
</g>
<!-- Node97&#45;&gt;Node96 -->
<g id="edge5" class="edge">
<title>Node97&#45;&gt;Node96</title>
<path fill="none" stroke="#191970" d="M465.682,-199.3898C457.5641,-199.7482 448.7634,-199.8391 440.299,-199.6627"/>
<polygon fill="#191970" stroke="#191970" points="440.3241,-196.1616 430.2094,-199.3148 440.0829,-203.1574 440.3241,-196.1616"/>
</g>
</g>
</svg>
