<?xml version="1.0" encoding="UTF-8" standalone="no"?>
<!DOCTYPE svg PUBLIC "-//W3C//DTD SVG 1.1//EN"
 "http://www.w3.org/Graphics/SVG/1.1/DTD/svg11.dtd">
<!-- Generated by graphviz version 2.38.0 (20140413.2041)
 -->
<!-- Title: Syslink::set_address Pages: 1 -->
<!--zoomable 66 -->
<svg id="main" version="1.1" xmlns="http://www.w3.org/2000/svg" xmlns:xlink="http://www.w3.org/1999/xlink" xml:space="preserve" onload="init(evt)">
<style type="text/css"><![CDATA[
.edge:hover path { stroke: red; }
.edge:hover polygon { stroke: red; fill: red; }
]]></style>
<script type="text/javascript"><![CDATA[
var edges = document.getElementsByTagName('g');
if (edges && edges.length) {
  for (var i=0;i<edges.length;i++) {
    if (edges[i].id.substr(0,4)=='edge') {
      edges[i].setAttribute('class','edge');
    }
  }
}
]]></script>
        <defs>
                <circle id="rim" cx="0" cy="0" r="7"/>
                <circle id="rim2" cx="0" cy="0" r="3.5"/>
                <g id="zoomPlus">
                        <use xlink:href="#rim" fill="#404040">
                                <set attributeName="fill" to="#808080" begin="zoomplus.mouseover" end="zoomplus.mouseout"/>
                        </use>
                        <path d="M-4,0h8M0,-4v8" fill="none" stroke="white" stroke-width="1.5" pointer-events="none"/>
                </g>
                <g id="zoomMin">
                        <use xlink:href="#rim" fill="#404040">
                                <set attributeName="fill" to="#808080" begin="zoomminus.mouseover" end="zoomminus.mouseout"/>
                        </use>
                        <path d="M-4,0h8" fill="none" stroke="white" stroke-width="1.5" pointer-events="none"/>
                </g>
                <g id="dirArrow">
                        <path fill="none" stroke="white" stroke-width="1.5" d="M0,-3.0v7 M-2.5,-0.5L0,-3.0L2.5,-0.5"/>
                </g>
               <g id="resetDef">
                       <use xlink:href="#rim2" fill="#404040">
                               <set attributeName="fill" to="#808080" begin="reset.mouseover" end="reset.mouseout"/>
                       </use>
               </g>
        </defs>

<script type="text/javascript">
var viewWidth = 881;
var viewHeight = 66;
var sectionId = 'dynsection-22';
</script>
<script xlink:href="../../svgpan.js"/>
<svg id="graph" class="graph">
<g id="viewport">
<title>Syslink::set_address</title>
<polygon fill="white" stroke="none" points="-4,4 -4,-62 877,-62 877,4 -4,4"/>
<!-- Node1 -->
<g id="node1" class="node"><title>Node1</title>
<polygon fill="#bfbfbf" stroke="black" points="0,-19.5 0,-38.5 108,-38.5 108,-19.5 0,-19.5"/>
<text text-anchor="middle" x="54" y="-26.5" font-family="Helvetica,sans-Serif" font-size="10.00">Syslink::set_address</text>
</g>
<!-- Node2 -->
<g id="node2" class="node"><title>Node2</title>
<g id="a_node2"><a xlink:href="../../d3/d4d/class_syslink.html#a48dfb5defaa7034db4f1eb265a29690a" target="_top" xlink:title="Syslink::handle_message">
<polygon fill="white" stroke="black" points="144,-38.5 144,-57.5 272,-57.5 272,-38.5 144,-38.5"/>
<text text-anchor="middle" x="208" y="-45.5" font-family="Helvetica,sans-Serif" font-size="10.00">Syslink::handle_message</text>
</a>
</g>
</g>
<!-- Node1&#45;&gt;Node2 -->
<g id="edge1" class="edge"><title>Node1&#45;&gt;Node2</title>
<path fill="none" stroke="midnightblue" d="M118.35,-36.9188C126.814,-37.9767 135.493,-39.0616 143.952,-40.1189"/>
<polygon fill="midnightblue" stroke="midnightblue" points="118.519,-33.4127 108.162,-35.6453 117.651,-40.3587 118.519,-33.4127"/>
</g>
<!-- Node8 -->
<g id="node8" class="node"><title>Node8</title>
<g id="a_node8"><a xlink:href="../../d3/d4d/class_syslink.html#a88b18acf6ac6e38c09e181f598c6f31b" target="_top" xlink:title="Syslink::update_params">
<polygon fill="white" stroke="black" points="147,-0.5 147,-19.5 269,-19.5 269,-0.5 147,-0.5"/>
<text text-anchor="middle" x="208" y="-7.5" font-family="Helvetica,sans-Serif" font-size="10.00">Syslink::update_params</text>
</a>
</g>
</g>
<!-- Node1&#45;&gt;Node8 -->
<g id="edge7" class="edge"><title>Node1&#45;&gt;Node8</title>
<path fill="none" stroke="midnightblue" d="M118.286,-21.0893C127.74,-19.9075 137.464,-18.692 146.851,-17.5187"/>
<polygon fill="midnightblue" stroke="midnightblue" points="117.651,-17.6413 108.162,-22.3547 118.519,-24.5873 117.651,-17.6413"/>
</g>
<!-- Node3 -->
<g id="node3" class="node"><title>Node3</title>
<g id="a_node3"><a xlink:href="../../d3/d4d/class_syslink.html#ad48197f365d94be31b2fbaaa5aaa1e08" target="_top" xlink:title="Syslink::task_main">
<polygon fill="white" stroke="black" points="308,-19.5 308,-38.5 408,-38.5 408,-19.5 308,-19.5"/>
<text text-anchor="middle" x="358" y="-26.5" font-family="Helvetica,sans-Serif" font-size="10.00">Syslink::task_main</text>
</a>
</g>
</g>
<!-- Node2&#45;&gt;Node3 -->
<g id="edge2" class="edge"><title>Node2&#45;&gt;Node3</title>
<path fill="none" stroke="midnightblue" d="M282.333,-38.5856C290.999,-37.4731 299.677,-36.359 307.892,-35.3045"/>
<polygon fill="midnightblue" stroke="midnightblue" points="281.668,-35.1422 272.195,-39.8872 282.559,-42.0853 281.668,-35.1422"/>
</g>
<!-- Node4 -->
<g id="node4" class="node"><title>Node4</title>
<g id="a_node4"><a xlink:href="../../d3/d4d/class_syslink.html#aa49712b0a9781bd745b08f0b2f564d5f" target="_top" xlink:title="Syslink::task_main\l_trampoline">
<polygon fill="white" stroke="black" points="444,-14 444,-44 544,-44 544,-14 444,-14"/>
<text text-anchor="start" x="452" y="-32" font-family="Helvetica,sans-Serif" font-size="10.00">Syslink::task_main</text>
<text text-anchor="middle" x="494" y="-21" font-family="Helvetica,sans-Serif" font-size="10.00">_trampoline</text>
</a>
</g>
</g>
<!-- Node3&#45;&gt;Node4 -->
<g id="edge3" class="edge"><title>Node3&#45;&gt;Node4</title>
<path fill="none" stroke="midnightblue" d="M418.398,-29C426.909,-29 435.586,-29 443.87,-29"/>
<polygon fill="midnightblue" stroke="midnightblue" points="418.136,-25.5001 408.136,-29 418.136,-32.5001 418.136,-25.5001"/>
</g>
<!-- Node5 -->
<g id="node5" class="node"><title>Node5</title>
<g id="a_node5"><a xlink:href="../../d3/d4d/class_syslink.html#a6e982e6562a2a6ef0eaafc84482d4b96" target="_top" xlink:title="Syslink::start">
<polygon fill="white" stroke="black" points="580,-19.5 580,-38.5 654,-38.5 654,-19.5 580,-19.5"/>
<text text-anchor="middle" x="617" y="-26.5" font-family="Helvetica,sans-Serif" font-size="10.00">Syslink::start</text>
</a>
</g>
</g>
<!-- Node4&#45;&gt;Node5 -->
<g id="edge4" class="edge"><title>Node4&#45;&gt;Node5</title>
<path fill="none" stroke="midnightblue" d="M554.363,-29C563.057,-29 571.781,-29 579.819,-29"/>
<polygon fill="midnightblue" stroke="midnightblue" points="554.215,-25.5001 544.215,-29 554.215,-32.5001 554.215,-25.5001"/>
</g>
<!-- Node6 -->
<g id="node6" class="node"><title>Node6</title>
<g id="a_node6"><a xlink:href="../../dc/d18/namespacesyslink.html#a402103699f560ef0a647afbdec634347" target="_top" xlink:title="Attempt to start driver on all available I2C busses. ">
<polygon fill="white" stroke="black" points="690,-19.5 690,-38.5 763,-38.5 763,-19.5 690,-19.5"/>
<text text-anchor="middle" x="726.5" y="-26.5" font-family="Helvetica,sans-Serif" font-size="10.00">syslink::start</text>
</a>
</g>
</g>
<!-- Node5&#45;&gt;Node6 -->
<g id="edge5" class="edge"><title>Node5&#45;&gt;Node6</title>
<path fill="none" stroke="midnightblue" d="M664.283,-29C672.787,-29 681.545,-29 689.683,-29"/>
<polygon fill="midnightblue" stroke="midnightblue" points="664.095,-25.5001 654.095,-29 664.095,-32.5001 664.095,-25.5001"/>
</g>
<!-- Node7 -->
<g id="node7" class="node"><title>Node7</title>
<g id="a_node7"><a xlink:href="../../de/dbe/syslink__main_8cpp.html#ad94fd8d66995ec8573205ce6e3bc8f07" target="_top" xlink:title="syslink_main">
<polygon fill="white" stroke="black" points="799,-19.5 799,-38.5 873,-38.5 873,-19.5 799,-19.5"/>
<text text-anchor="middle" x="836" y="-26.5" font-family="Helvetica,sans-Serif" font-size="10.00">syslink_main</text>
</a>
</g>
</g>
<!-- Node6&#45;&gt;Node7 -->
<g id="edge6" class="edge"><title>Node6&#45;&gt;Node7</title>
<path fill="none" stroke="midnightblue" d="M773.504,-29C782.029,-29 790.82,-29 798.994,-29"/>
<polygon fill="midnightblue" stroke="midnightblue" points="773.296,-25.5001 763.296,-29 773.296,-32.5001 773.296,-25.5001"/>
</g>
<!-- Node8&#45;&gt;Node3 -->
<g id="edge8" class="edge"><title>Node8&#45;&gt;Node3</title>
<path fill="none" stroke="midnightblue" d="M279.187,-19.0105C288.83,-20.2485 298.559,-21.4975 307.718,-22.6733"/>
<polygon fill="midnightblue" stroke="midnightblue" points="279.562,-15.5299 269.197,-17.728 278.67,-22.473 279.562,-15.5299"/>
</g>
</g>
</svg>
        <g id="navigator" transform="translate(0 0)" fill="#404254">
                <rect fill="#f2f5e9" fill-opacity="0.5" stroke="#606060" stroke-width=".5" x="0" y="0" width="60" height="60"/>
                <use id="zoomplus" xlink:href="#zoomPlus" x="17" y="9" onmousedown="handleZoom(evt,'in')"/>
                <use id="zoomminus" xlink:href="#zoomMin" x="42" y="9" onmousedown="handleZoom(evt,'out')"/>
                <use id="reset" xlink:href="#resetDef" x="30" y="36" onmousedown="handleReset()"/>
                <g id="arrowUp" xlink:href="#dirArrow" transform="translate(30 24)" onmousedown="handlePan(0,-1)">
                  <use xlink:href="#rim" fill="#404040">
                        <set attributeName="fill" to="#808080" begin="arrowUp.mouseover" end="arrowUp.mouseout"/>
                  </use>
                  <path fill="none" stroke="white" stroke-width="1.5" d="M0,-3.0v7 M-2.5,-0.5L0,-3.0L2.5,-0.5"/>
                </g>
                <g id="arrowRight" xlink:href="#dirArrow" transform="rotate(90) translate(36 -43)" onmousedown="handlePan(1,0)">
                  <use xlink:href="#rim" fill="#404040">
                        <set attributeName="fill" to="#808080" begin="arrowRight.mouseover" end="arrowRight.mouseout"/>
                  </use>
                  <path fill="none" stroke="white" stroke-width="1.5" d="M0,-3.0v7 M-2.5,-0.5L0,-3.0L2.5,-0.5"/>
                </g>
                <g id="arrowDown" xlink:href="#dirArrow" transform="rotate(180) translate(-30 -48)" onmousedown="handlePan(0,1)">
                  <use xlink:href="#rim" fill="#404040">
                        <set attributeName="fill" to="#808080" begin="arrowDown.mouseover" end="arrowDown.mouseout"/>
                  </use>
                  <path fill="none" stroke="white" stroke-width="1.5" d="M0,-3.0v7 M-2.5,-0.5L0,-3.0L2.5,-0.5"/>
                </g>
                <g id="arrowLeft" xlink:href="#dirArrow" transform="rotate(270) translate(-36 17)" onmousedown="handlePan(-1,0)">
                  <use xlink:href="#rim" fill="#404040">
                        <set attributeName="fill" to="#808080" begin="arrowLeft.mouseover" end="arrowLeft.mouseout"/>
                  </use>
                  <path fill="none" stroke="white" stroke-width="1.5" d="M0,-3.0v7 M-2.5,-0.5L0,-3.0L2.5,-0.5"/>
                </g>
        </g>
        <svg viewBox="0 0 15 15" width="100%" height="30px" preserveAspectRatio="xMaxYMin meet">
         <g id="arrow_out" transform="scale(0.3 0.3)">
          <a xlink:href="class_syslink_a6c8b3068cb6d71b6a25f31f4e2f86c11_icgraph_org.svg" target="_base">
           <rect id="button" ry="5" rx="5" y="6" x="6" height="38" width="38"
                fill="#f2f5e9" fill-opacity="0.5" stroke="#606060" stroke-width="1.0"/>
           <path id="arrow"
             d="M 11.500037,31.436501 C 11.940474,20.09759 22.043105,11.32322 32.158766,21.979434 L 37.068811,17.246167 C 37.068811,17.246167 37.088388,32 37.088388,32 L 22.160133,31.978069 C 22.160133,31.978069 26.997745,27.140456 26.997745,27.140456 C 18.528582,18.264221 13.291696,25.230495 11.500037,31.436501 z"
             style="fill:#404040;"/>
          </a>
         </g>
        </svg>
</svg>
