<?xml version="1.0" encoding="UTF-8" standalone="no"?>
<!DOCTYPE svg PUBLIC "-//W3C//DTD SVG 1.1//EN"
 "http://www.w3.org/Graphics/SVG/1.1/DTD/svg11.dtd">
<!-- Generated by graphviz version 2.40.1 (20161225.0304)
 -->
<!-- Title: dspal_main Pages: 1 -->
<svg width="584pt" height="39pt"
 viewBox="0.00 0.00 584.00 39.00" xmlns="http://www.w3.org/2000/svg" xmlns:xlink="http://www.w3.org/1999/xlink">
<g id="graph0" class="graph" transform="scale(1 1) rotate(0) translate(4 35)">
<title>dspal_main</title>
<polygon fill="#ffffff" stroke="transparent" points="-4,4 -4,-35 580,-35 580,4 -4,4"/>
<!-- Node1 -->
<g id="node1" class="node">
<title>Node1</title>
<polygon fill="#bfbfbf" stroke="#000000" points="0,-6 0,-25 66,-25 66,-6 0,-6"/>
<text text-anchor="middle" x="33" y="-13" font-family="Helvetica,sans-Serif" font-size="10.00" fill="#000000">dspal_main</text>
</g>
<!-- Node2 -->
<g id="node2" class="node">
<title>Node2</title>
<g id="a_node2"><a xlink:href="../../dc/d1c/px4muorb_8hpp.html#a7c6da42686782f81632be52cbc202207" target="_top" xlink:title="px4muorb_orb_initialize">
<polygon fill="#ffffff" stroke="#000000" points="102,-6 102,-25 221,-25 221,-6 102,-6"/>
<text text-anchor="middle" x="161.5" y="-13" font-family="Helvetica,sans-Serif" font-size="10.00" fill="#000000">px4muorb_orb_initialize</text>
</a>
</g>
</g>
<!-- Node1&#45;&gt;Node2 -->
<g id="edge1" class="edge">
<title>Node1&#45;&gt;Node2</title>
<path fill="none" stroke="#191970" d="M76.2,-15.5C84.4366,-15.5 93.192,-15.5 101.8362,-15.5"/>
<polygon fill="#191970" stroke="#191970" points="76.092,-12.0001 66.0919,-15.5 76.0919,-19.0001 76.092,-12.0001"/>
</g>
<!-- Node3 -->
<g id="node3" class="node">
<title>Node3</title>
<g id="a_node3"><a xlink:href="../../d6/df5/classpx4muorb_1_1_krait_rpc_wrapper.html#a2922051fbc54df30fa618ea7b5c16402" target="_top" xlink:title="Initiatizes the rpc channel px4 muorb. ">
<polygon fill="#ffffff" stroke="#000000" points="257,-.5 257,-30.5 397,-30.5 397,-.5 257,-.5"/>
<text text-anchor="start" x="265" y="-18.5" font-family="Helvetica,sans-Serif" font-size="10.00" fill="#000000">px4muorb::KraitRpcWrapper</text>
<text text-anchor="middle" x="327" y="-7.5" font-family="Helvetica,sans-Serif" font-size="10.00" fill="#000000">::Initialize</text>
</a>
</g>
</g>
<!-- Node2&#45;&gt;Node3 -->
<g id="edge2" class="edge">
<title>Node2&#45;&gt;Node3</title>
<path fill="none" stroke="#191970" d="M231.4249,-15.5C239.8611,-15.5 248.4796,-15.5 256.9181,-15.5"/>
<polygon fill="#191970" stroke="#191970" points="231.2493,-12.0001 221.2493,-15.5 231.2493,-19.0001 231.2493,-12.0001"/>
</g>
<!-- Node4 -->
<g id="node4" class="node">
<title>Node4</title>
<g id="a_node4"><a xlink:href="../../d5/da8/classu_o_r_b_1_1_krait_fast_rpc_channel.html#a25dbe51d4f788964c2673aa02bf5bf46" target="_top" xlink:title="constructor. ">
<polygon fill="#ffffff" stroke="#000000" points="433,-.5 433,-30.5 576,-30.5 576,-.5 433,-.5"/>
<text text-anchor="start" x="441" y="-18.5" font-family="Helvetica,sans-Serif" font-size="10.00" fill="#000000">uORB::KraitFastRpcChannel</text>
<text text-anchor="middle" x="504.5" y="-7.5" font-family="Helvetica,sans-Serif" font-size="10.00" fill="#000000">::KraitFastRpcChannel</text>
</a>
</g>
</g>
<!-- Node3&#45;&gt;Node4 -->
<g id="edge3" class="edge">
<title>Node3&#45;&gt;Node4</title>
<path fill="none" stroke="#191970" d="M407.4134,-15.5C415.884,-15.5 424.4569,-15.5 432.8196,-15.5"/>
<polygon fill="#191970" stroke="#191970" points="407.1527,-12.0001 397.1527,-15.5 407.1527,-19.0001 407.1527,-12.0001"/>
</g>
</g>
</svg>
