<?xml version="1.0" encoding="UTF-8" standalone="no"?>
<!DOCTYPE svg PUBLIC "-//W3C//DTD SVG 1.1//EN"
 "http://www.w3.org/Graphics/SVG/1.1/DTD/svg11.dtd">
<!-- Generated by graphviz version 2.40.1 (20161225.0304)
 -->
<!-- Title: AirspeedValidator::set_airspeed_scale_manual Pages: 1 -->
<svg width="499pt" height="78pt"
 viewBox="0.00 0.00 499.00 77.50" xmlns="http://www.w3.org/2000/svg" xmlns:xlink="http://www.w3.org/1999/xlink">
<g id="graph0" class="graph" transform="scale(1 1) rotate(0) translate(4 73.5)">
<title>AirspeedValidator::set_airspeed_scale_manual</title>
<polygon fill="#ffffff" stroke="transparent" points="-4,4 -4,-73.5 495,-73.5 495,4 -4,4"/>
<!-- Node52 -->
<g id="node1" class="node">
<title>Node52</title>
<polygon fill="#bfbfbf" stroke="#000000" points="0,-17 0,-47 137,-47 137,-17 0,-17"/>
<text text-anchor="start" x="8" y="-35" font-family="Helvetica,sans-Serif" font-size="10.00" fill="#000000">AirspeedValidator::</text>
<text text-anchor="middle" x="68.5" y="-24" font-family="Helvetica,sans-Serif" font-size="10.00" fill="#000000">set_airspeed_scale_manual</text>
</g>
<!-- Node53 -->
<g id="node2" class="node">
<title>Node53</title>
<g id="a_node2"><a xlink:href="../../d7/d7b/class_wind_estimator.html#a9921e6e14bfd398676dc82b3aa46143f" target="_top" xlink:title="WindEstimator::enforce\l_airspeed_scale">
<polygon fill="#ffffff" stroke="#000000" points="173,-39 173,-69 292,-69 292,-39 173,-39"/>
<text text-anchor="start" x="181" y="-57" font-family="Helvetica,sans-Serif" font-size="10.00" fill="#000000">WindEstimator::enforce</text>
<text text-anchor="middle" x="232.5" y="-46" font-family="Helvetica,sans-Serif" font-size="10.00" fill="#000000">_airspeed_scale</text>
</a>
</g>
</g>
<!-- Node52&#45;&gt;Node53 -->
<g id="edge1" class="edge">
<title>Node52&#45;&gt;Node53</title>
<path fill="none" stroke="#191970" d="M137.1005,-41.2025C145.5248,-42.3326 154.1429,-43.4887 162.5863,-44.6213"/>
<polygon fill="#191970" stroke="#191970" points="162.3973,-48.1273 172.7739,-45.988 163.3281,-41.1894 162.3973,-48.1273"/>
</g>
<!-- Node54 -->
<g id="node3" class="node">
<title>Node54</title>
<g id="a_node3"><a xlink:href="../../d8/da1/integration_8cpp.html#af5ba872dd09316732300733cc164ac1a" target="_top" xlink:title="f">
<polygon fill="#ffffff" stroke="#000000" points="218,-.5 218,-19.5 247,-19.5 247,-.5 218,-.5"/>
<text text-anchor="middle" x="232.5" y="-7.5" font-family="Helvetica,sans-Serif" font-size="10.00" fill="#000000">f</text>
</a>
</g>
</g>
<!-- Node52&#45;&gt;Node54 -->
<g id="edge2" class="edge">
<title>Node52&#45;&gt;Node54</title>
<path fill="none" stroke="#191970" d="M137.1005,-22.7975C162.1943,-19.4313 189.0088,-15.8342 207.7984,-13.3136"/>
<polygon fill="#191970" stroke="#191970" points="208.4146,-16.7624 217.8605,-11.9638 207.4839,-9.8246 208.4146,-16.7624"/>
</g>
<!-- Node55 -->
<g id="node4" class="node">
<title>Node55</title>
<g id="a_node4"><a xlink:href="../../d0/de4/namespacematrix.html#a761295febb473ca1226309513533e801" target="_top" xlink:title="matrix::sin">
<polygon fill="#ffffff" stroke="#000000" points="328,-.5 328,-19.5 390,-19.5 390,-.5 328,-.5"/>
<text text-anchor="middle" x="359" y="-7.5" font-family="Helvetica,sans-Serif" font-size="10.00" fill="#000000">matrix::sin</text>
</a>
</g>
</g>
<!-- Node54&#45;&gt;Node55 -->
<g id="edge3" class="edge">
<title>Node54&#45;&gt;Node55</title>
<path fill="none" stroke="#191970" d="M247.0112,-10C264.1603,-10 293.4384,-10 317.7576,-10"/>
<polygon fill="#191970" stroke="#191970" points="317.8267,-13.5001 327.8267,-10 317.8267,-6.5001 317.8267,-13.5001"/>
</g>
<!-- Node56 -->
<g id="node5" class="node">
<title>Node56</title>
<g id="a_node5"><a xlink:href="../../d0/de4/namespacematrix.html#a2e09123c750ed3a0315a31f3b27a3ed9" target="_top" xlink:title="matrix::cos">
<polygon fill="#ffffff" stroke="#000000" points="426,-.5 426,-19.5 491,-19.5 491,-.5 426,-.5"/>
<text text-anchor="middle" x="458.5" y="-7.5" font-family="Helvetica,sans-Serif" font-size="10.00" fill="#000000">matrix::cos</text>
</a>
</g>
</g>
<!-- Node55&#45;&gt;Node56 -->
<g id="edge4" class="edge">
<title>Node55&#45;&gt;Node56</title>
<path fill="none" stroke="#191970" d="M390.2094,-3.6852C398.232,-3.2913 407.0052,-3.1648 415.5098,-3.3057"/>
<polygon fill="#191970" stroke="#191970" points="415.5817,-6.8093 425.682,-3.6102 415.7912,.1875 415.5817,-6.8093"/>
</g>
<!-- Node56&#45;&gt;Node55 -->
<g id="edge5" class="edge">
<title>Node56&#45;&gt;Node55</title>
<path fill="none" stroke="#191970" d="M425.682,-16.3898C417.5641,-16.7482 408.7634,-16.8391 400.299,-16.6627"/>
<polygon fill="#191970" stroke="#191970" points="400.3241,-13.1616 390.2094,-16.3148 400.0829,-20.1574 400.3241,-13.1616"/>
</g>
</g>
</svg>
