<?xml version="1.0" encoding="UTF-8" standalone="no"?>
<!DOCTYPE svg PUBLIC "-//W3C//DTD SVG 1.1//EN"
 "http://www.w3.org/Graphics/SVG/1.1/DTD/svg11.dtd">
<!-- Generated by graphviz version 2.40.1 (20161225.0304)
 -->
<!-- Title: src/lib/ecl/EKF/airspeed_fusion.cpp Pages: 1 -->
<!--zoomable 375 -->
<svg id="main" version="1.1" xmlns="http://www.w3.org/2000/svg" xmlns:xlink="http://www.w3.org/1999/xlink" xml:space="preserve" onload="init(evt)">
<style type="text/css"><![CDATA[
.edge:hover path { stroke: red; }
.edge:hover polygon { stroke: red; fill: red; }
]]></style>
<script type="text/javascript"><![CDATA[
var edges = document.getElementsByTagName('g');
if (edges && edges.length) {
  for (var i=0;i<edges.length;i++) {
    if (edges[i].id.substr(0,4)=='edge') {
      edges[i].setAttribute('class','edge');
    }
  }
}
]]></script>
        <defs>
                <circle id="rim" cx="0" cy="0" r="7"/>
                <circle id="rim2" cx="0" cy="0" r="3.5"/>
                <g id="zoomPlus">
                        <use xlink:href="#rim" fill="#404040">
                                <set attributeName="fill" to="#808080" begin="zoomplus.mouseover" end="zoomplus.mouseout"/>
                        </use>
                        <path d="M-4,0h8M0,-4v8" fill="none" stroke="white" stroke-width="1.5" pointer-events="none"/>
                </g>
                <g id="zoomMin">
                        <use xlink:href="#rim" fill="#404040">
                                <set attributeName="fill" to="#808080" begin="zoomminus.mouseover" end="zoomminus.mouseout"/>
                        </use>
                        <path d="M-4,0h8" fill="none" stroke="white" stroke-width="1.5" pointer-events="none"/>
                </g>
                <g id="dirArrow">
                        <path fill="none" stroke="white" stroke-width="1.5" d="M0,-3.0v7 M-2.5,-0.5L0,-3.0L2.5,-0.5"/>
                </g>
               <g id="resetDef">
                       <use xlink:href="#rim2" fill="#404040">
                               <set attributeName="fill" to="#808080" begin="reset.mouseover" end="reset.mouseout"/>
                       </use>
               </g>
        </defs>

<script type="text/javascript">
var viewWidth = 1712;
var viewHeight = 375;
var sectionId = 'dynsection-0';
</script>
<script xlink:href="../../svgpan.js"/>
<svg id="graph" class="graph">
<g id="viewport">
<title>src/lib/ecl/EKF/airspeed_fusion.cpp</title>
<polygon fill="#ffffff" stroke="transparent" points="-4,4 -4,-371 1708,-371 1708,4 -4,4"/>
<!-- Node0 -->
<g id="node1" class="node">
<title>Node0</title>
<polygon fill="#bfbfbf" stroke="#000000" points="767,-336.5 767,-366.5 888,-366.5 888,-336.5 767,-336.5"/>
<text text-anchor="start" x="775" y="-354.5" font-family="Helvetica,sans-Serif" font-size="10.00" fill="#000000">src/lib/ecl/EKF/airspeed</text>
<text text-anchor="middle" x="827.5" y="-343.5" font-family="Helvetica,sans-Serif" font-size="10.00" fill="#000000">_fusion.cpp</text>
</g>
<!-- Node1 -->
<g id="node2" class="node">
<title>Node1</title>
<g id="a_node2"><a xlink:href="../../d2/d53/ecl_8h.html" target="_top" xlink:title="Adapter / shim layer for system calls needed by ECL. ">
<polygon fill="#ffffff" stroke="#000000" points="264,-168.5 264,-187.5 311,-187.5 311,-168.5 264,-168.5"/>
<text text-anchor="middle" x="287.5" y="-175.5" font-family="Helvetica,sans-Serif" font-size="10.00" fill="#000000">../ecl.h</text>
</a>
</g>
</g>
<!-- Node0&#45;&gt;Node1 -->
<g id="edge1" class="edge">
<title>Node0&#45;&gt;Node1</title>
<path fill="none" stroke="#191970" d="M780.5232,-336.4065C673.4305,-301.998 413.3348,-218.4302 320.8346,-188.7103"/>
<polygon fill="#191970" stroke="#191970" points="321.7466,-185.3271 311.1552,-185.6003 319.6052,-191.9916 321.7466,-185.3271"/>
</g>
<!-- Node5 -->
<g id="node6" class="node">
<title>Node5</title>
<g id="a_node6"><a xlink:href="../../de/d14/ekf_8h.html" target="_top" xlink:title="Class for core functions for ekf attitude and position estimator. ">
<polygon fill="#ffffff" stroke="#000000" points="808.5,-280.5 808.5,-299.5 846.5,-299.5 846.5,-280.5 808.5,-280.5"/>
<text text-anchor="middle" x="827.5" y="-287.5" font-family="Helvetica,sans-Serif" font-size="10.00" fill="#000000">ekf.h</text>
</a>
</g>
</g>
<!-- Node0&#45;&gt;Node5 -->
<g id="edge5" class="edge">
<title>Node0&#45;&gt;Node5</title>
<path fill="none" stroke="#191970" d="M827.5,-336.2977C827.5,-328.3834 827.5,-318.6043 827.5,-310.0759"/>
<polygon fill="#191970" stroke="#191970" points="831.0001,-309.8469 827.5,-299.8469 824.0001,-309.847 831.0001,-309.8469"/>
</g>
<!-- Node35 -->
<g id="node36" class="node">
<title>Node35</title>
<polygon fill="#ffffff" stroke="#bfbfbf" points="1034,-168.5 1034,-187.5 1125,-187.5 1125,-168.5 1034,-168.5"/>
<text text-anchor="middle" x="1079.5" y="-175.5" font-family="Helvetica,sans-Serif" font-size="10.00" fill="#000000">mathlib/mathlib.h</text>
</g>
<!-- Node0&#45;&gt;Node35 -->
<g id="edge57" class="edge">
<title>Node0&#45;&gt;Node35</title>
<path fill="none" stroke="#191970" d="M849.4225,-336.4065C897.0083,-303.6441 1009.3273,-226.3133 1057.2281,-193.334"/>
<polygon fill="#191970" stroke="#191970" points="1059.4005,-196.0877 1065.6523,-187.534 1055.4309,-190.3221 1059.4005,-196.0877"/>
</g>
<!-- Node2 -->
<g id="node3" class="node">
<title>Node2</title>
<polygon fill="#ffffff" stroke="#bfbfbf" points="118,-.5 118,-19.5 161,-19.5 161,-.5 118,-.5"/>
<text text-anchor="middle" x="139.5" y="-7.5" font-family="Helvetica,sans-Serif" font-size="10.00" fill="#000000">cstdio</text>
</g>
<!-- Node1&#45;&gt;Node2 -->
<g id="edge2" class="edge">
<title>Node1&#45;&gt;Node2</title>
<path fill="none" stroke="#191970" d="M263.7167,-173.6031C220.9062,-164.2634 131.8594,-138.0003 94.5,-76 83.8945,-58.3995 100.6411,-39.0628 116.6301,-25.8961"/>
<polygon fill="#191970" stroke="#191970" points="118.9927,-28.4939 124.7734,-19.615 114.7175,-22.9511 118.9927,-28.4939"/>
</g>
<!-- Node3 -->
<g id="node4" class="node">
<title>Node3</title>
<polygon fill="#ffffff" stroke="#bfbfbf" points="264.5,-112.5 264.5,-131.5 310.5,-131.5 310.5,-112.5 264.5,-112.5"/>
<text text-anchor="middle" x="287.5" y="-119.5" font-family="Helvetica,sans-Serif" font-size="10.00" fill="#000000">cstdint</text>
</g>
<!-- Node1&#45;&gt;Node3 -->
<g id="edge3" class="edge">
<title>Node1&#45;&gt;Node3</title>
<path fill="none" stroke="#191970" d="M287.5,-168.2455C287.5,-160.9382 287.5,-150.6944 287.5,-141.7046"/>
<polygon fill="#191970" stroke="#191970" points="291.0001,-141.6426 287.5,-131.6427 284.0001,-141.6427 291.0001,-141.6426"/>
</g>
<!-- Node4 -->
<g id="node5" class="node">
<title>Node4</title>
<polygon fill="#ffffff" stroke="#bfbfbf" points="0,-112.5 0,-131.5 47,-131.5 47,-112.5 0,-112.5"/>
<text text-anchor="middle" x="23.5" y="-119.5" font-family="Helvetica,sans-Serif" font-size="10.00" fill="#000000">math.h</text>
</g>
<!-- Node1&#45;&gt;Node4 -->
<g id="edge4" class="edge">
<title>Node1&#45;&gt;Node4</title>
<path fill="none" stroke="#191970" d="M263.9801,-173.6667C222.7949,-165.9778 135.0051,-149.1379 61.5,-132 60.0467,-131.6612 58.5643,-131.3072 57.0684,-130.9432"/>
<polygon fill="#191970" stroke="#191970" points="57.7173,-127.4974 47.1652,-128.4487 56.0074,-134.2854 57.7173,-127.4974"/>
</g>
<!-- Node6 -->
<g id="node7" class="node">
<title>Node6</title>
<g id="a_node7"><a xlink:href="../../d9/d77/estimator__interface_8h.html" target="_top" xlink:title="Definition of base class for attitude estimators. ">
<polygon fill="#ffffff" stroke="#000000" points="773.5,-224.5 773.5,-243.5 881.5,-243.5 881.5,-224.5 773.5,-224.5"/>
<text text-anchor="middle" x="827.5" y="-231.5" font-family="Helvetica,sans-Serif" font-size="10.00" fill="#000000">estimator_interface.h</text>
</a>
</g>
</g>
<!-- Node5&#45;&gt;Node6 -->
<g id="edge6" class="edge">
<title>Node5&#45;&gt;Node6</title>
<path fill="none" stroke="#191970" d="M827.5,-280.2455C827.5,-272.9382 827.5,-262.6944 827.5,-253.7046"/>
<polygon fill="#191970" stroke="#191970" points="831.0001,-253.6426 827.5,-243.6427 824.0001,-253.6427 831.0001,-253.6426"/>
</g>
<!-- Node6&#45;&gt;Node1 -->
<g id="edge7" class="edge">
<title>Node6&#45;&gt;Node1</title>
<path fill="none" stroke="#191970" d="M773.4997,-228.4C662.63,-216.9024 412.1225,-190.9238 321.2421,-181.4992"/>
<polygon fill="#191970" stroke="#191970" points="321.5242,-178.0097 311.2165,-180.4595 320.8021,-184.9724 321.5242,-178.0097"/>
</g>
<!-- Node7 -->
<g id="node8" class="node">
<title>Node7</title>
<g id="a_node8"><a xlink:href="../../d5/d60/lib_2ecl_2_e_k_f_2common_8h.html" target="_top" xlink:title="common.h">
<polygon fill="#ffffff" stroke="#000000" points="737.5,-168.5 737.5,-187.5 799.5,-187.5 799.5,-168.5 737.5,-168.5"/>
<text text-anchor="middle" x="768.5" y="-175.5" font-family="Helvetica,sans-Serif" font-size="10.00" fill="#000000">common.h</text>
</a>
</g>
</g>
<!-- Node6&#45;&gt;Node7 -->
<g id="edge8" class="edge">
<title>Node6&#45;&gt;Node7</title>
<path fill="none" stroke="#191970" d="M817.223,-224.2455C808.6782,-216.1352 796.3222,-204.4075 786.1915,-194.7919"/>
<polygon fill="#191970" stroke="#191970" points="788.3218,-191.9884 778.6592,-187.6427 783.5028,-197.0655 788.3218,-191.9884"/>
</g>
<!-- Node8 -->
<g id="node9" class="node">
<title>Node8</title>
<g id="a_node9"><a xlink:href="../../d4/d78/math_8hpp.html" target="_top" xlink:title="matrix/math.hpp">
<polygon fill="#ffffff" stroke="#000000" points="784,-112.5 784,-131.5 871,-131.5 871,-112.5 784,-112.5"/>
<text text-anchor="middle" x="827.5" y="-119.5" font-family="Helvetica,sans-Serif" font-size="10.00" fill="#000000">matrix/math.hpp</text>
</a>
</g>
</g>
<!-- Node6&#45;&gt;Node8 -->
<g id="edge55" class="edge">
<title>Node6&#45;&gt;Node8</title>
<path fill="none" stroke="#191970" d="M827.5,-224.4509C827.5,-206.184 827.5,-165.9553 827.5,-141.6976"/>
<polygon fill="#191970" stroke="#191970" points="831.0001,-141.5249 827.5,-131.5249 824.0001,-141.5249 831.0001,-141.5249"/>
</g>
<!-- Node30 -->
<g id="node31" class="node">
<title>Node30</title>
<g id="a_node31"><a xlink:href="../../d6/d13/ecl_2_e_k_f_2ringbuffer_8h.html" target="_top" xlink:title="RingBuffer.h">
<polygon fill="#ffffff" stroke="#000000" points="104,-56.5 104,-75.5 175,-75.5 175,-56.5 104,-56.5"/>
<text text-anchor="middle" x="139.5" y="-63.5" font-family="Helvetica,sans-Serif" font-size="10.00" fill="#000000">RingBuffer.h</text>
</a>
</g>
</g>
<!-- Node6&#45;&gt;Node30 -->
<g id="edge47" class="edge">
<title>Node6&#45;&gt;Node30</title>
<path fill="none" stroke="#191970" d="M788.5389,-224.4862C669.6676,-195.4595 312.0125,-108.1251 184.9227,-77.0916"/>
<polygon fill="#191970" stroke="#191970" points="185.6589,-73.6686 175.1141,-74.6965 183.9984,-80.4688 185.6589,-73.6686"/>
</g>
<!-- Node31 -->
<g id="node32" class="node">
<title>Node31</title>
<g id="a_node32"><a xlink:href="../../db/d85/_alpha_filter_8hpp.html" target="_top" xlink:title="AlphaFilter.hpp">
<polygon fill="#ffffff" stroke="#000000" points="933.5,-168.5 933.5,-187.5 1015.5,-187.5 1015.5,-168.5 933.5,-168.5"/>
<text text-anchor="middle" x="974.5" y="-175.5" font-family="Helvetica,sans-Serif" font-size="10.00" fill="#000000">AlphaFilter.hpp</text>
</a>
</g>
</g>
<!-- Node6&#45;&gt;Node31 -->
<g id="edge51" class="edge">
<title>Node6&#45;&gt;Node31</title>
<path fill="none" stroke="#191970" d="M852.7702,-224.3733C876.8966,-215.1822 913.4362,-201.2624 940.1877,-191.0713"/>
<polygon fill="#191970" stroke="#191970" points="941.4607,-194.3318 949.5596,-187.5011 938.9687,-187.7904 941.4607,-194.3318"/>
</g>
<!-- Node32 -->
<g id="node33" class="node">
<title>Node32</title>
<g id="a_node33"><a xlink:href="../../db/d35/geo_8h.html" target="_top" xlink:title="Definition of geo / math functions to perform geodesic calculations. ">
<polygon fill="#ffffff" stroke="#000000" points="856,-168.5 856,-187.5 915,-187.5 915,-168.5 856,-168.5"/>
<text text-anchor="middle" x="885.5" y="-175.5" font-family="Helvetica,sans-Serif" font-size="10.00" fill="#000000">geo/geo.h</text>
</a>
</g>
</g>
<!-- Node6&#45;&gt;Node32 -->
<g id="edge52" class="edge">
<title>Node6&#45;&gt;Node32</title>
<path fill="none" stroke="#191970" d="M837.6028,-224.2455C846.0028,-216.1352 858.1494,-204.4075 868.1084,-194.7919"/>
<polygon fill="#191970" stroke="#191970" points="870.75,-197.1066 875.5129,-187.6427 865.8878,-192.0707 870.75,-197.1066"/>
</g>
<!-- Node6&#45;&gt;Node35 -->
<g id="edge56" class="edge">
<title>Node6&#45;&gt;Node35</title>
<path fill="none" stroke="#191970" d="M870.534,-224.4369C913.7525,-214.8328 980.4141,-200.0191 1026.7818,-189.7152"/>
<polygon fill="#191970" stroke="#191970" points="1027.6409,-193.1097 1036.6435,-187.5237 1026.1223,-186.2764 1027.6409,-193.1097"/>
</g>
<!-- Node7&#45;&gt;Node8 -->
<g id="edge9" class="edge">
<title>Node7&#45;&gt;Node8</title>
<path fill="none" stroke="#191970" d="M778.777,-168.2455C787.3218,-160.1352 799.6778,-148.4075 809.8085,-138.7919"/>
<polygon fill="#191970" stroke="#191970" points="812.4972,-141.0655 817.3408,-131.6427 807.6782,-135.9884 812.4972,-141.0655"/>
</g>
<!-- Node9 -->
<g id="node10" class="node">
<title>Node9</title>
<g id="a_node10"><a xlink:href="../../db/de5/stdlib__imports_8hpp.html" target="_top" xlink:title="This file is needed to shadow the C standard library math functions with ones provided by the C++ sta...">
<polygon fill="#ffffff" stroke="#000000" points="1488.5,-56.5 1488.5,-75.5 1584.5,-75.5 1584.5,-56.5 1488.5,-56.5"/>
<text text-anchor="middle" x="1536.5" y="-63.5" font-family="Helvetica,sans-Serif" font-size="10.00" fill="#000000">stdlib_imports.hpp</text>
</a>
</g>
</g>
<!-- Node8&#45;&gt;Node9 -->
<g id="edge10" class="edge">
<title>Node8&#45;&gt;Node9</title>
<path fill="none" stroke="#191970" d="M871.1041,-113.3205C874.2767,-112.828 877.4334,-112.3799 880.5,-112 1141.9483,-79.6104 1212.8918,-106.4215 1478.4205,-75.9972"/>
<polygon fill="#191970" stroke="#191970" points="1478.8253,-79.4738 1488.3545,-74.8429 1478.0173,-72.5206 1478.8253,-79.4738"/>
</g>
<!-- Node13 -->
<g id="node14" class="node">
<title>Node13</title>
<g id="a_node14"><a xlink:href="../../dd/d28/helper__functions_8hpp.html" target="_top" xlink:title="helper_functions.hpp">
<polygon fill="#ffffff" stroke="#000000" points="193,-56.5 193,-75.5 300,-75.5 300,-56.5 193,-56.5"/>
<text text-anchor="middle" x="246.5" y="-63.5" font-family="Helvetica,sans-Serif" font-size="10.00" fill="#000000">helper_functions.hpp</text>
</a>
</g>
</g>
<!-- Node8&#45;&gt;Node13 -->
<g id="edge14" class="edge">
<title>Node8&#45;&gt;Node13</title>
<path fill="none" stroke="#191970" d="M783.9042,-119.5112C694.8786,-113.8685 486.279,-98.8899 306.0855,-76.7986"/>
<polygon fill="#191970" stroke="#191970" points="306.2512,-73.2925 295.8971,-75.5381 305.3916,-80.2396 306.2512,-73.2925"/>
</g>
<!-- Node14 -->
<g id="node15" class="node">
<title>Node14</title>
<g id="a_node15"><a xlink:href="../../d8/d49/_matrix_8hpp.html" target="_top" xlink:title="A simple matrix template library. ">
<polygon fill="#ffffff" stroke="#000000" points="1408.5,-56.5 1408.5,-75.5 1470.5,-75.5 1470.5,-56.5 1408.5,-56.5"/>
<text text-anchor="middle" x="1439.5" y="-63.5" font-family="Helvetica,sans-Serif" font-size="10.00" fill="#000000">Matrix.hpp</text>
</a>
</g>
</g>
<!-- Node8&#45;&gt;Node14 -->
<g id="edge16" class="edge">
<title>Node8&#45;&gt;Node14</title>
<path fill="none" stroke="#191970" d="M867.8415,-112.4943C869.0713,-112.3205 870.2927,-112.1552 871.5,-112 1100.8332,-82.5143 1162.1271,-112.1792 1390.5,-76 1392.9745,-75.608 1395.5201,-75.1362 1398.094,-74.6139"/>
<polygon fill="#191970" stroke="#191970" points="1399.0622,-77.9845 1408.072,-72.4101 1397.5525,-71.1492 1399.0622,-77.9845"/>
</g>
<!-- Node16 -->
<g id="node17" class="node">
<title>Node16</title>
<g id="a_node17"><a xlink:href="../../df/d5f/_square_matrix_8hpp.html" target="_top" xlink:title="A square matrix. ">
<polygon fill="#ffffff" stroke="#000000" points="318,-56.5 318,-75.5 411,-75.5 411,-56.5 318,-56.5"/>
<text text-anchor="middle" x="364.5" y="-63.5" font-family="Helvetica,sans-Serif" font-size="10.00" fill="#000000">SquareMatrix.hpp</text>
</a>
</g>
</g>
<!-- Node8&#45;&gt;Node16 -->
<g id="edge20" class="edge">
<title>Node8&#45;&gt;Node16</title>
<path fill="none" stroke="#191970" d="M783.9352,-118.5474C709.5633,-111.9985 553.7536,-96.6909 417.494,-77.0053"/>
<polygon fill="#191970" stroke="#191970" points="417.703,-73.4989 407.3027,-75.5193 416.693,-80.4256 417.703,-73.4989"/>
</g>
<!-- Node17 -->
<g id="node18" class="node">
<title>Node17</title>
<g id="a_node18"><a xlink:href="../../dd/da6/_slice_8hpp.html" target="_top" xlink:title="A simple matrix template library. ">
<polygon fill="#ffffff" stroke="#000000" points="429,-56.5 429,-75.5 486,-75.5 486,-56.5 429,-56.5"/>
<text text-anchor="middle" x="457.5" y="-63.5" font-family="Helvetica,sans-Serif" font-size="10.00" fill="#000000">Slice.hpp</text>
</a>
</g>
</g>
<!-- Node8&#45;&gt;Node17 -->
<g id="edge22" class="edge">
<title>Node8&#45;&gt;Node17</title>
<path fill="none" stroke="#191970" d="M783.8083,-118.2221C720.4118,-111.9357 599.6536,-98.0006 494.298,-77.5217"/>
<polygon fill="#191970" stroke="#191970" points="494.9664,-74.0862 484.4781,-75.5846 493.6116,-80.9538 494.9664,-74.0862"/>
</g>
<!-- Node18 -->
<g id="node19" class="node">
<title>Node18</title>
<g id="a_node19"><a xlink:href="../../db/d20/_vector_8hpp.html" target="_top" xlink:title="Vector class. ">
<polygon fill="#ffffff" stroke="#000000" points="504.5,-56.5 504.5,-75.5 568.5,-75.5 568.5,-56.5 504.5,-56.5"/>
<text text-anchor="middle" x="536.5" y="-63.5" font-family="Helvetica,sans-Serif" font-size="10.00" fill="#000000">Vector.hpp</text>
</a>
</g>
</g>
<!-- Node8&#45;&gt;Node18 -->
<g id="edge24" class="edge">
<title>Node8&#45;&gt;Node18</title>
<path fill="none" stroke="#191970" d="M783.9213,-115.8056C734.3263,-107.8897 651.1304,-93.3694 576.3506,-77.6546"/>
<polygon fill="#191970" stroke="#191970" points="576.8414,-74.1809 566.3329,-75.5311 575.3898,-81.0287 576.8414,-74.1809"/>
</g>
<!-- Node19 -->
<g id="node20" class="node">
<title>Node19</title>
<g id="a_node20"><a xlink:href="../../d3/d12/_vector2_8hpp.html" target="_top" xlink:title="2D vector class. ">
<polygon fill="#ffffff" stroke="#000000" points="587,-56.5 587,-75.5 656,-75.5 656,-56.5 587,-56.5"/>
<text text-anchor="middle" x="621.5" y="-63.5" font-family="Helvetica,sans-Serif" font-size="10.00" fill="#000000">Vector2.hpp</text>
</a>
</g>
</g>
<!-- Node8&#45;&gt;Node19 -->
<g id="edge26" class="edge">
<title>Node8&#45;&gt;Node19</title>
<path fill="none" stroke="#191970" d="M786.8453,-112.3733C750.3004,-102.9404 697.1263,-88.5265 660.9562,-78.2747"/>
<polygon fill="#191970" stroke="#191970" points="661.8098,-74.8786 651.2333,-75.5011 659.8895,-81.6101 661.8098,-74.8786"/>
</g>
<!-- Node20 -->
<g id="node21" class="node">
<title>Node20</title>
<g id="a_node21"><a xlink:href="../../d2/d6a/_vector3_8hpp.html" target="_top" xlink:title="3D vector class. ">
<polygon fill="#ffffff" stroke="#000000" points="674,-56.5 674,-75.5 743,-75.5 743,-56.5 674,-56.5"/>
<text text-anchor="middle" x="708.5" y="-63.5" font-family="Helvetica,sans-Serif" font-size="10.00" fill="#000000">Vector3.hpp</text>
</a>
</g>
</g>
<!-- Node8&#45;&gt;Node20 -->
<g id="edge28" class="edge">
<title>Node8&#45;&gt;Node20</title>
<path fill="none" stroke="#191970" d="M801.8011,-112.3733C781.2206,-103.5047 752.7811,-90.2334 732.629,-80.1575"/>
<polygon fill="#191970" stroke="#191970" points="733.9728,-76.9143 723.4726,-75.5011 730.7997,-83.1539 733.9728,-76.9143"/>
</g>
<!-- Node21 -->
<g id="node22" class="node">
<title>Node21</title>
<g id="a_node22"><a xlink:href="../../d3/d40/_euler_8hpp.html" target="_top" xlink:title="All rotations and axis systems follow the right&#45;hand rule. ">
<polygon fill="#ffffff" stroke="#000000" points="761.5,-56.5 761.5,-75.5 819.5,-75.5 819.5,-56.5 761.5,-56.5"/>
<text text-anchor="middle" x="790.5" y="-63.5" font-family="Helvetica,sans-Serif" font-size="10.00" fill="#000000">Euler.hpp</text>
</a>
</g>
</g>
<!-- Node8&#45;&gt;Node21 -->
<g id="edge30" class="edge">
<title>Node8&#45;&gt;Node21</title>
<path fill="none" stroke="#191970" d="M815.7882,-112.2455C809.2749,-104.617 801.7443,-93.7881 796.3467,-84.5267"/>
<polygon fill="#191970" stroke="#191970" points="799.4091,-82.831 791.6259,-75.6427 793.2276,-86.1157 799.4091,-82.831"/>
</g>
<!-- Node22 -->
<g id="node23" class="node">
<title>Node22</title>
<g id="a_node23"><a xlink:href="../../d9/d6f/_dcm_8hpp.html" target="_top" xlink:title="A direction cosine matrix class. ">
<polygon fill="#ffffff" stroke="#000000" points="837.5,-56.5 837.5,-75.5 893.5,-75.5 893.5,-56.5 837.5,-56.5"/>
<text text-anchor="middle" x="865.5" y="-63.5" font-family="Helvetica,sans-Serif" font-size="10.00" fill="#000000">Dcm.hpp</text>
</a>
</g>
</g>
<!-- Node8&#45;&gt;Node22 -->
<g id="edge32" class="edge">
<title>Node8&#45;&gt;Node22</title>
<path fill="none" stroke="#191970" d="M828.8522,-112.2455C832.6726,-104.3761 839.9717,-93.101 847.1978,-83.6542"/>
<polygon fill="#191970" stroke="#191970" points="850.1187,-85.6097 853.7116,-75.6427 844.6874,-81.1937 850.1187,-85.6097"/>
</g>
<!-- Node23 -->
<g id="node24" class="node">
<title>Node23</title>
<g id="a_node24"><a xlink:href="../../de/d6b/_scalar_8hpp.html" target="_top" xlink:title="Defines conversion of matrix to scalar. ">
<polygon fill="#ffffff" stroke="#000000" points="912,-56.5 912,-75.5 975,-75.5 975,-56.5 912,-56.5"/>
<text text-anchor="middle" x="943.5" y="-63.5" font-family="Helvetica,sans-Serif" font-size="10.00" fill="#000000">Scalar.hpp</text>
</a>
</g>
</g>
<!-- Node8&#45;&gt;Node23 -->
<g id="edge34" class="edge">
<title>Node8&#45;&gt;Node23</title>
<path fill="none" stroke="#191970" d="M842.4388,-112.2455C859.3318,-103.2519 886.9641,-89.8101 909.1521,-79.7327"/>
<polygon fill="#191970" stroke="#191970" points="910.586,-82.9256 918.2808,-75.6427 907.7238,-76.5375 910.586,-82.9256"/>
</g>
<!-- Node24 -->
<g id="node25" class="node">
<title>Node24</title>
<g id="a_node25"><a xlink:href="../../d6/d42/_quaternion_8hpp.html" target="_top" xlink:title="All rotations and axis systems follow the right&#45;hand rule. ">
<polygon fill="#ffffff" stroke="#000000" points="993,-56.5 993,-75.5 1076,-75.5 1076,-56.5 993,-56.5"/>
<text text-anchor="middle" x="1034.5" y="-63.5" font-family="Helvetica,sans-Serif" font-size="10.00" fill="#000000">Quaternion.hpp</text>
</a>
</g>
</g>
<!-- Node8&#45;&gt;Node24 -->
<g id="edge36" class="edge">
<title>Node8&#45;&gt;Node24</title>
<path fill="none" stroke="#191970" d="M857.8425,-112.3733C891.1474,-102.8598 944.903,-88.2797 984.4386,-78.0127"/>
<polygon fill="#191970" stroke="#191970" points="985.3556,-81.3908 994.1625,-75.5011 983.6049,-74.6133 985.3556,-81.3908"/>
</g>
<!-- Node25 -->
<g id="node26" class="node">
<title>Node25</title>
<g id="a_node26"><a xlink:href="../../de/dbe/_axis_angle_8hpp.html" target="_top" xlink:title="AxisAngle.hpp">
<polygon fill="#ffffff" stroke="#000000" points="1094.5,-56.5 1094.5,-75.5 1174.5,-75.5 1174.5,-56.5 1094.5,-56.5"/>
<text text-anchor="middle" x="1134.5" y="-63.5" font-family="Helvetica,sans-Serif" font-size="10.00" fill="#000000">AxisAngle.hpp</text>
</a>
</g>
</g>
<!-- Node8&#45;&gt;Node25 -->
<g id="edge38" class="edge">
<title>Node8&#45;&gt;Node25</title>
<path fill="none" stroke="#191970" d="M868.993,-112.4579C869.8346,-112.3038 870.6709,-112.151 871.5,-112 962.5081,-95.4241 985.6173,-93.2503 1076.5,-76 1079.0897,-75.5085 1081.7542,-74.9929 1084.4545,-74.4658"/>
<polygon fill="#191970" stroke="#191970" points="1085.18,-77.8903 1094.3187,-72.5298 1083.8318,-71.0214 1085.18,-77.8903"/>
</g>
<!-- Node26 -->
<g id="node27" class="node">
<title>Node26</title>
<g id="a_node27"><a xlink:href="../../d9/d19/_least_squares_solver_8hpp.html" target="_top" xlink:title="Least Squares Solver using QR householder decomposition. ">
<polygon fill="#ffffff" stroke="#000000" points="1193,-56.5 1193,-75.5 1316,-75.5 1316,-56.5 1193,-56.5"/>
<text text-anchor="middle" x="1254.5" y="-63.5" font-family="Helvetica,sans-Serif" font-size="10.00" fill="#000000">LeastSquaresSolver.hpp</text>
</a>
</g>
</g>
<!-- Node8&#45;&gt;Node26 -->
<g id="edge40" class="edge">
<title>Node8&#45;&gt;Node26</title>
<path fill="none" stroke="#191970" d="M868.4182,-112.4834C869.4535,-112.3177 870.4819,-112.1563 871.5,-112 1005.5426,-91.4161 1040.0146,-93.458 1174.5,-76 1177.1849,-75.6515 1179.9261,-75.29 1182.7002,-74.9202"/>
<polygon fill="#191970" stroke="#191970" points="1183.4032,-78.3572 1192.8465,-73.5538 1182.4688,-71.4199 1183.4032,-78.3572"/>
</g>
<!-- Node27 -->
<g id="node28" class="node">
<title>Node27</title>
<g id="a_node28"><a xlink:href="../../d5/dd8/_dual_8hpp.html" target="_top" xlink:title="This is a dual number type for calculating automatic derivatives. ">
<polygon fill="#ffffff" stroke="#000000" points="1334.5,-56.5 1334.5,-75.5 1390.5,-75.5 1390.5,-56.5 1334.5,-56.5"/>
<text text-anchor="middle" x="1362.5" y="-63.5" font-family="Helvetica,sans-Serif" font-size="10.00" fill="#000000">Dual.hpp</text>
</a>
</g>
</g>
<!-- Node8&#45;&gt;Node27 -->
<g id="edge42" class="edge">
<title>Node8&#45;&gt;Node27</title>
<path fill="none" stroke="#191970" d="M868.1274,-112.4718C869.2607,-112.3073 870.3864,-112.1497 871.5,-112 1068.1556,-85.5684 1121.0156,-110.028 1316.5,-76 1319.114,-75.545 1321.8114,-74.9891 1324.5367,-74.3748"/>
<polygon fill="#191970" stroke="#191970" points="1325.539,-77.7332 1334.4293,-71.9701 1323.8855,-70.9312 1325.539,-77.7332"/>
</g>
<!-- Node28 -->
<g id="node29" class="node">
<title>Node28</title>
<g id="a_node29"><a xlink:href="../../d0/d67/_pseudo_inverse_8hpp.html" target="_top" xlink:title="Implementation of matrix pseudo inverse. ">
<polygon fill="#ffffff" stroke="#000000" points="1603,-56.5 1603,-75.5 1704,-75.5 1704,-56.5 1603,-56.5"/>
<text text-anchor="middle" x="1653.5" y="-63.5" font-family="Helvetica,sans-Serif" font-size="10.00" fill="#000000">PseudoInverse.hpp</text>
</a>
</g>
</g>
<!-- Node8&#45;&gt;Node28 -->
<g id="edge44" class="edge">
<title>Node8&#45;&gt;Node28</title>
<path fill="none" stroke="#191970" d="M867.8377,-112.4636C869.0686,-112.2989 870.2912,-112.1439 871.5,-112 1186.5686,-74.499 1269.0492,-110.1374 1584.5,-76 1587.1641,-75.7117 1589.8896,-75.3823 1592.6469,-75.0228"/>
<polygon fill="#191970" stroke="#191970" points="1593.3009,-78.4654 1602.717,-73.6088 1592.3275,-71.5334 1593.3009,-78.4654"/>
</g>
<!-- Node10 -->
<g id="node11" class="node">
<title>Node10</title>
<polygon fill="#ffffff" stroke="#bfbfbf" points="1527.5,-.5 1527.5,-19.5 1571.5,-19.5 1571.5,-.5 1527.5,-.5"/>
<text text-anchor="middle" x="1549.5" y="-7.5" font-family="Helvetica,sans-Serif" font-size="10.00" fill="#000000">cmath</text>
</g>
<!-- Node9&#45;&gt;Node10 -->
<g id="edge11" class="edge">
<title>Node9&#45;&gt;Node10</title>
<path fill="none" stroke="#191970" d="M1538.7644,-56.2455C1540.4794,-48.8579 1542.8912,-38.4689 1544.9944,-29.4087"/>
<polygon fill="#191970" stroke="#191970" points="1548.4095,-30.1751 1547.2615,-19.6427 1541.5908,-28.5922 1548.4095,-30.1751"/>
</g>
<!-- Node11 -->
<g id="node12" class="node">
<title>Node11</title>
<polygon fill="#ffffff" stroke="#bfbfbf" points="1464,-.5 1464,-19.5 1509,-19.5 1509,-.5 1464,-.5"/>
<text text-anchor="middle" x="1486.5" y="-7.5" font-family="Helvetica,sans-Serif" font-size="10.00" fill="#000000">cstdlib</text>
</g>
<!-- Node9&#45;&gt;Node11 -->
<g id="edge12" class="edge">
<title>Node9&#45;&gt;Node11</title>
<path fill="none" stroke="#191970" d="M1527.7907,-56.2455C1520.6927,-48.2958 1510.4916,-36.8706 1502.005,-27.3656"/>
<polygon fill="#191970" stroke="#191970" points="1504.3805,-24.771 1495.1095,-19.6427 1499.1589,-29.4331 1504.3805,-24.771"/>
</g>
<!-- Node12 -->
<g id="node13" class="node">
<title>Node12</title>
<polygon fill="#ffffff" stroke="#bfbfbf" points="1105,-.5 1105,-19.5 1164,-19.5 1164,-.5 1105,-.5"/>
<text text-anchor="middle" x="1134.5" y="-7.5" font-family="Helvetica,sans-Serif" font-size="10.00" fill="#000000">inttypes.h</text>
</g>
<!-- Node9&#45;&gt;Node12 -->
<g id="edge13" class="edge">
<title>Node9&#45;&gt;Node12</title>
<path fill="none" stroke="#191970" d="M1488.3209,-57.4041C1485.3381,-56.9164 1482.3795,-56.4444 1479.5,-56 1369.189,-38.9769 1238.4489,-22.5707 1174.1927,-14.7539"/>
<polygon fill="#191970" stroke="#191970" points="1174.4429,-11.2587 1164.0944,-13.5296 1173.6004,-18.2078 1174.4429,-11.2587"/>
</g>
<!-- Node13&#45;&gt;Node8 -->
<g id="edge15" class="edge">
<title>Node13&#45;&gt;Node8</title>
<path fill="none" stroke="#191970" d="M300.0719,-73.5923C305.9756,-74.4684 311.8741,-75.2979 317.5,-76 483.6141,-96.7309 680.7819,-111.5279 773.8972,-118.1367"/>
<polygon fill="#191970" stroke="#191970" points="773.7015,-121.6315 783.9234,-118.8453 774.195,-114.6489 773.7015,-121.6315"/>
</g>
<!-- Node14&#45;&gt;Node2 -->
<g id="edge17" class="edge">
<title>Node14&#45;&gt;Node2</title>
<path fill="none" stroke="#191970" d="M1408.1793,-57.5139C1405.2606,-56.9219 1402.335,-56.4016 1399.5,-56 1336.9146,-47.1334 361.2246,-16.81 171.3736,-10.9756"/>
<polygon fill="#191970" stroke="#191970" points="171.3206,-7.4724 161.2179,-10.6638 171.1058,-14.4691 171.3206,-7.4724"/>
</g>
<!-- Node14&#45;&gt;Node8 -->
<g id="edge19" class="edge">
<title>Node14&#45;&gt;Node8</title>
<path fill="none" stroke="#191970" d="M1411.0667,-75.5698C1410.2052,-75.7218 1409.3484,-75.8656 1408.5,-76 1180.1271,-112.1792 1118.8332,-82.5143 889.5,-112 886.7138,-112.3582 883.8528,-112.7698 880.9583,-113.2174"/>
<polygon fill="#191970" stroke="#191970" points="880.3449,-109.7712 871.0478,-114.8521 881.4842,-116.6778 880.3449,-109.7712"/>
</g>
<!-- Node15 -->
<g id="node16" class="node">
<title>Node15</title>
<polygon fill="#ffffff" stroke="#bfbfbf" points="475.5,-.5 475.5,-19.5 521.5,-19.5 521.5,-.5 475.5,-.5"/>
<text text-anchor="middle" x="498.5" y="-7.5" font-family="Helvetica,sans-Serif" font-size="10.00" fill="#000000">cstring</text>
</g>
<!-- Node14&#45;&gt;Node15 -->
<g id="edge18" class="edge">
<title>Node14&#45;&gt;Node15</title>
<path fill="none" stroke="#191970" d="M1408.1729,-57.5578C1405.2555,-56.9566 1402.332,-56.4222 1399.5,-56 1227.192,-30.3116 674.0001,-14.5333 531.9818,-10.8393"/>
<polygon fill="#191970" stroke="#191970" points="531.8203,-7.3341 521.7334,-10.5752 531.6399,-14.3317 531.8203,-7.3341"/>
</g>
<!-- Node16&#45;&gt;Node8 -->
<g id="edge21" class="edge">
<title>Node16&#45;&gt;Node8</title>
<path fill="none" stroke="#191970" d="M411.2107,-73.2224C417.0622,-74.2194 422.9309,-75.1807 428.5,-76 551.5914,-94.108 696.4943,-108.907 773.3952,-116.4917"/>
<polygon fill="#191970" stroke="#191970" points="773.491,-120.018 783.7856,-117.5137 774.1763,-113.0516 773.491,-120.018"/>
</g>
<!-- Node17&#45;&gt;Node8 -->
<g id="edge23" class="edge">
<title>Node17&#45;&gt;Node8</title>
<path fill="none" stroke="#191970" d="M486.1454,-71.7456C492.2837,-73.2723 498.6135,-74.8221 504.5,-76 598.5459,-94.8195 709.1158,-108.474 773.5445,-115.813"/>
<polygon fill="#191970" stroke="#191970" points="773.535,-119.3342 783.8649,-116.9798 774.3215,-112.3785 773.535,-119.3342"/>
</g>
<!-- Node18&#45;&gt;Node8 -->
<g id="edge25" class="edge">
<title>Node18&#45;&gt;Node8</title>
<path fill="none" stroke="#191970" d="M568.5884,-71.9432C574.6148,-73.3387 580.7681,-74.7747 586.5,-76 650.7633,-89.7374 724.852,-103.0573 773.8214,-111.7974"/>
<polygon fill="#191970" stroke="#191970" points="773.4178,-115.2805 783.8771,-113.5914 774.6473,-108.3894 773.4178,-115.2805"/>
</g>
<!-- Node19&#45;&gt;Node8 -->
<g id="edge27" class="edge">
<title>Node19&#45;&gt;Node8</title>
<path fill="none" stroke="#191970" d="M656.0228,-74.0509C692.3728,-83.3485 749.3043,-98.7515 787.5515,-109.5858"/>
<polygon fill="#191970" stroke="#191970" points="786.7529,-112.9975 797.3294,-112.3733 788.6721,-106.2657 786.7529,-112.9975"/>
</g>
<!-- Node20&#45;&gt;Node8 -->
<g id="edge29" class="edge">
<title>Node20&#45;&gt;Node8</title>
<path fill="none" stroke="#191970" d="M734.2358,-75.6427C754.6467,-84.4393 782.7709,-97.558 802.8798,-107.5971"/>
<polygon fill="#191970" stroke="#191970" points="801.5373,-110.8407 812.0386,-112.2455 804.7055,-104.5986 801.5373,-110.8407"/>
</g>
<!-- Node21&#45;&gt;Node8 -->
<g id="edge31" class="edge">
<title>Node21&#45;&gt;Node8</title>
<path fill="none" stroke="#191970" d="M802.1162,-75.6427C808.6195,-83.2398 816.1555,-94.0605 821.5739,-103.3372"/>
<polygon fill="#191970" stroke="#191970" points="818.5297,-105.067 826.3219,-112.2455 824.7071,-101.7745 818.5297,-105.067"/>
</g>
<!-- Node22&#45;&gt;Node8 -->
<g id="edge33" class="edge">
<title>Node22&#45;&gt;Node8</title>
<path fill="none" stroke="#191970" d="M864.2019,-75.6427C860.4146,-83.4797 853.1318,-94.7472 845.9051,-104.2112"/>
<polygon fill="#191970" stroke="#191970" points="842.9689,-102.2749 839.3859,-112.2455 848.4047,-106.6855 842.9689,-102.2749"/>
</g>
<!-- Node23&#45;&gt;Node8 -->
<g id="edge35" class="edge">
<title>Node23&#45;&gt;Node8</title>
<path fill="none" stroke="#191970" d="M929.0364,-75.5011C912.201,-84.4883 884.2817,-98.0771 861.8918,-108.2473"/>
<polygon fill="#191970" stroke="#191970" points="860.3779,-105.0903 852.6831,-112.3733 863.2401,-111.4784 860.3779,-105.0903"/>
</g>
<!-- Node24&#45;&gt;Node8 -->
<g id="edge37" class="edge">
<title>Node24&#45;&gt;Node8</title>
<path fill="none" stroke="#191970" d="M1004.5971,-75.5011C971.4733,-84.9697 917.7459,-99.5462 878.0856,-109.8511"/>
<polygon fill="#191970" stroke="#191970" points="877.1327,-106.4823 868.3266,-112.3733 878.8843,-113.2596 877.1327,-106.4823"/>
</g>
<!-- Node25&#45;&gt;Node8 -->
<g id="edge39" class="edge">
<title>Node25&#45;&gt;Node8</title>
<path fill="none" stroke="#191970" d="M1097.0809,-75.5069C1096.2141,-75.6736 1095.353,-75.8381 1094.5,-76 1003.6173,-93.2503 980.5081,-95.4241 889.5,-112 886.7363,-112.5034 883.8926,-113.0261 881.0109,-113.5567"/>
<polygon fill="#191970" stroke="#191970" points="880.3307,-110.123 871.129,-115.3746 881.5972,-117.0075 880.3307,-110.123"/>
</g>
<!-- Node26&#45;&gt;Node8 -->
<g id="edge41" class="edge">
<title>Node26&#45;&gt;Node8</title>
<path fill="none" stroke="#191970" d="M1196.2357,-75.5115C1194.9808,-75.6768 1193.7344,-75.8398 1192.5,-76 1058.0146,-93.458 1023.5426,-91.4161 889.5,-112 886.7234,-112.4264 883.8698,-112.8902 880.9807,-113.3767"/>
<polygon fill="#191970" stroke="#191970" points="880.3352,-109.9363 871.0825,-115.0975 881.5342,-116.8329 880.3352,-109.9363"/>
</g>
<!-- Node27&#45;&gt;Node8 -->
<g id="edge43" class="edge">
<title>Node27&#45;&gt;Node8</title>
<path fill="none" stroke="#191970" d="M1336.8793,-75.5629C1336.0809,-75.717 1335.2867,-75.8631 1334.5,-76 1139.0156,-110.028 1086.1556,-85.5684 889.5,-112 886.7159,-112.3742 883.8565,-112.798 880.9632,-113.2547"/>
<polygon fill="#191970" stroke="#191970" points="880.3421,-109.8099 871.0554,-114.9096 881.4954,-116.7142 880.3421,-109.8099"/>
</g>
<!-- Node28&#45;&gt;Node8 -->
<g id="edge45" class="edge">
<title>Node28&#45;&gt;Node8</title>
<path fill="none" stroke="#191970" d="M1606.6366,-75.526C1605.2459,-75.6938 1603.8649,-75.8523 1602.5,-76 1287.0492,-110.1374 1204.5686,-74.499 889.5,-112 886.7106,-112.332 883.8471,-112.7235 880.9507,-113.1561"/>
<polygon fill="#191970" stroke="#191970" points="880.35,-109.7076 871.0362,-114.7577 881.4664,-116.6181 880.35,-109.7076"/>
</g>
<!-- Node29 -->
<g id="node30" class="node">
<title>Node29</title>
<polygon fill="#ffffff" stroke="#bfbfbf" points="1603,-.5 1603,-19.5 1704,-19.5 1704,-.5 1603,-.5"/>
<text text-anchor="middle" x="1653.5" y="-7.5" font-family="Helvetica,sans-Serif" font-size="10.00" fill="#000000">PseudoInverse.hxx</text>
</g>
<!-- Node28&#45;&gt;Node29 -->
<g id="edge46" class="edge">
<title>Node28&#45;&gt;Node29</title>
<path fill="none" stroke="#191970" d="M1653.5,-56.2455C1653.5,-48.9382 1653.5,-38.6944 1653.5,-29.7046"/>
<polygon fill="#191970" stroke="#191970" points="1657.0001,-29.6426 1653.5,-19.6427 1650.0001,-29.6427 1657.0001,-29.6426"/>
</g>
<!-- Node30&#45;&gt;Node2 -->
<g id="edge49" class="edge">
<title>Node30&#45;&gt;Node2</title>
<path fill="none" stroke="#191970" d="M139.5,-56.2455C139.5,-48.9382 139.5,-38.6944 139.5,-29.7046"/>
<polygon fill="#191970" stroke="#191970" points="143.0001,-29.6426 139.5,-19.6427 136.0001,-29.6427 143.0001,-29.6426"/>
</g>
<!-- Node30&#45;&gt;Node12 -->
<g id="edge48" class="edge">
<title>Node30&#45;&gt;Node12</title>
<path fill="none" stroke="#191970" d="M175.4243,-57.2964C178.147,-56.8023 180.8611,-56.3609 183.5,-56 363.8065,-31.3435 937.4982,-15.071 1094.4665,-11.0011"/>
<polygon fill="#191970" stroke="#191970" points="1094.71,-14.496 1104.6166,-10.7399 1094.5298,-7.4984 1094.71,-14.496"/>
</g>
<!-- Node30&#45;&gt;Node15 -->
<g id="edge50" class="edge">
<title>Node30&#45;&gt;Node15</title>
<path fill="none" stroke="#191970" d="M175.4706,-57.5832C178.1826,-57.0227 180.8816,-56.4879 183.5,-56 285.7973,-36.9364 408.0109,-21.032 465.5102,-13.9516"/>
<polygon fill="#191970" stroke="#191970" points="465.9728,-17.4212 475.4741,-12.7335 465.1232,-10.473 465.9728,-17.4212"/>
</g>
<!-- Node33 -->
<g id="node34" class="node">
<title>Node33</title>
<polygon fill="#ffffff" stroke="#bfbfbf" points="956.5,-112.5 956.5,-131.5 1012.5,-131.5 1012.5,-112.5 956.5,-112.5"/>
<text text-anchor="middle" x="984.5" y="-119.5" font-family="Helvetica,sans-Serif" font-size="10.00" fill="#000000">stdbool.h</text>
</g>
<!-- Node32&#45;&gt;Node33 -->
<g id="edge53" class="edge">
<title>Node32&#45;&gt;Node33</title>
<path fill="none" stroke="#191970" d="M902.7445,-168.2455C918.0761,-159.5731 940.7199,-146.7645 958.2916,-136.825"/>
<polygon fill="#191970" stroke="#191970" points="960.4724,-139.6126 967.4531,-131.6427 957.0259,-133.5198 960.4724,-139.6126"/>
</g>
<!-- Node34 -->
<g id="node35" class="node">
<title>Node34</title>
<polygon fill="#ffffff" stroke="#bfbfbf" points="889,-112.5 889,-131.5 938,-131.5 938,-112.5 889,-112.5"/>
<text text-anchor="middle" x="913.5" y="-119.5" font-family="Helvetica,sans-Serif" font-size="10.00" fill="#000000">stdint.h</text>
</g>
<!-- Node32&#45;&gt;Node34 -->
<g id="edge54" class="edge">
<title>Node32&#45;&gt;Node34</title>
<path fill="none" stroke="#191970" d="M890.3772,-168.2455C894.1513,-160.6973 899.4921,-150.0158 904.0901,-140.8197"/>
<polygon fill="#191970" stroke="#191970" points="907.337,-142.1522 908.6787,-131.6427 901.076,-139.0217 907.337,-142.1522"/>
</g>
</g>
</svg>
        <g id="navigator" transform="translate(0 0)" fill="#404254">
                <rect fill="#f2f5e9" fill-opacity="0.5" stroke="#606060" stroke-width=".5" x="0" y="0" width="60" height="60"/>
                <use id="zoomplus" xlink:href="#zoomPlus" x="17" y="9" onmousedown="handleZoom(evt,'in')"/>
                <use id="zoomminus" xlink:href="#zoomMin" x="42" y="9" onmousedown="handleZoom(evt,'out')"/>
                <use id="reset" xlink:href="#resetDef" x="30" y="36" onmousedown="handleReset()"/>
                <g id="arrowUp" xlink:href="#dirArrow" transform="translate(30 24)" onmousedown="handlePan(0,-1)">
                  <use xlink:href="#rim" fill="#404040">
                        <set attributeName="fill" to="#808080" begin="arrowUp.mouseover" end="arrowUp.mouseout"/>
                  </use>
                  <path fill="none" stroke="white" stroke-width="1.5" d="M0,-3.0v7 M-2.5,-0.5L0,-3.0L2.5,-0.5"/>
                </g>
                <g id="arrowRight" xlink:href="#dirArrow" transform="rotate(90) translate(36 -43)" onmousedown="handlePan(1,0)">
                  <use xlink:href="#rim" fill="#404040">
                        <set attributeName="fill" to="#808080" begin="arrowRight.mouseover" end="arrowRight.mouseout"/>
                  </use>
                  <path fill="none" stroke="white" stroke-width="1.5" d="M0,-3.0v7 M-2.5,-0.5L0,-3.0L2.5,-0.5"/>
                </g>
                <g id="arrowDown" xlink:href="#dirArrow" transform="rotate(180) translate(-30 -48)" onmousedown="handlePan(0,1)">
                  <use xlink:href="#rim" fill="#404040">
                        <set attributeName="fill" to="#808080" begin="arrowDown.mouseover" end="arrowDown.mouseout"/>
                  </use>
                  <path fill="none" stroke="white" stroke-width="1.5" d="M0,-3.0v7 M-2.5,-0.5L0,-3.0L2.5,-0.5"/>
                </g>
                <g id="arrowLeft" xlink:href="#dirArrow" transform="rotate(270) translate(-36 17)" onmousedown="handlePan(-1,0)">
                  <use xlink:href="#rim" fill="#404040">
                        <set attributeName="fill" to="#808080" begin="arrowLeft.mouseover" end="arrowLeft.mouseout"/>
                  </use>
                  <path fill="none" stroke="white" stroke-width="1.5" d="M0,-3.0v7 M-2.5,-0.5L0,-3.0L2.5,-0.5"/>
                </g>
        </g>
        <svg viewBox="0 0 15 15" width="100%" height="30px" preserveAspectRatio="xMaxYMin meet">
         <g id="arrow_out" transform="scale(0.3 0.3)">
          <a xlink:href="airspeed__fusion_8cpp__incl_org.svg" target="_base">
           <rect id="button" ry="5" rx="5" y="6" x="6" height="38" width="38"
                fill="#f2f5e9" fill-opacity="0.5" stroke="#606060" stroke-width="1.0"/>
           <path id="arrow"
             d="M 11.500037,31.436501 C 11.940474,20.09759 22.043105,11.32322 32.158766,21.979434 L 37.068811,17.246167 C 37.068811,17.246167 37.088388,32 37.088388,32 L 22.160133,31.978069 C 22.160133,31.978069 26.997745,27.140456 26.997745,27.140456 C 18.528582,18.264221 13.291696,25.230495 11.500037,31.436501 z"
             style="fill:#404040;"/>
          </a>
         </g>
        </svg>
</svg>
