<?xml version="1.0" encoding="UTF-8" standalone="no"?>
<!DOCTYPE svg PUBLIC "-//W3C//DTD SVG 1.1//EN"
 "http://www.w3.org/Graphics/SVG/1.1/DTD/svg11.dtd">
<!-- Generated by graphviz version 2.40.1 (20161225.0304)
 -->
<!-- Title: MavlinkTimesync::add_sample Pages: 1 -->
<svg width="1255pt" height="39pt"
 viewBox="0.00 0.00 1255.00 39.00" xmlns="http://www.w3.org/2000/svg" xmlns:xlink="http://www.w3.org/1999/xlink">
<g id="graph0" class="graph" transform="scale(1 1) rotate(0) translate(4 35)">
<title>MavlinkTimesync::add_sample</title>
<polygon fill="#ffffff" stroke="transparent" points="-4,4 -4,-35 1251,-35 1251,4 -4,4"/>
<!-- Node7 -->
<g id="node1" class="node">
<title>Node7</title>
<polygon fill="#bfbfbf" stroke="#000000" points="0,-.5 0,-30.5 115,-30.5 115,-.5 0,-.5"/>
<text text-anchor="start" x="8" y="-18.5" font-family="Helvetica,sans-Serif" font-size="10.00" fill="#000000">MavlinkTimesync::add</text>
<text text-anchor="middle" x="57.5" y="-7.5" font-family="Helvetica,sans-Serif" font-size="10.00" fill="#000000">_sample</text>
</g>
<!-- Node8 -->
<g id="node2" class="node">
<title>Node8</title>
<g id="a_node2"><a xlink:href="../../d1/dc6/class_mavlink_timesync.html#af2c41d81e08bf1be67e7c74d33a5dc12" target="_top" xlink:title="MavlinkTimesync::handle\l_message">
<polygon fill="#ffffff" stroke="#000000" points="151,-.5 151,-30.5 279,-30.5 279,-.5 151,-.5"/>
<text text-anchor="start" x="159" y="-18.5" font-family="Helvetica,sans-Serif" font-size="10.00" fill="#000000">MavlinkTimesync::handle</text>
<text text-anchor="middle" x="215" y="-7.5" font-family="Helvetica,sans-Serif" font-size="10.00" fill="#000000">_message</text>
</a>
</g>
</g>
<!-- Node7&#45;&gt;Node8 -->
<g id="edge1" class="edge">
<title>Node7&#45;&gt;Node8</title>
<path fill="none" stroke="#191970" d="M125.4398,-15.5C133.8819,-15.5 142.4929,-15.5 150.8748,-15.5"/>
<polygon fill="#191970" stroke="#191970" points="125.2529,-12.0001 115.2529,-15.5 125.2528,-19.0001 125.2529,-12.0001"/>
</g>
<!-- Node9 -->
<g id="node3" class="node">
<title>Node9</title>
<g id="a_node3"><a xlink:href="../../da/d89/class_mavlink_receiver.html#a2a2904ed386bbb6a4ff3528527006a58" target="_top" xlink:title="Receive data from UART/UDP. ">
<polygon fill="#ffffff" stroke="#000000" points="315,-6 315,-25 428,-25 428,-6 315,-6"/>
<text text-anchor="middle" x="371.5" y="-13" font-family="Helvetica,sans-Serif" font-size="10.00" fill="#000000">MavlinkReceiver::Run</text>
</a>
</g>
</g>
<!-- Node8&#45;&gt;Node9 -->
<g id="edge2" class="edge">
<title>Node8&#45;&gt;Node9</title>
<path fill="none" stroke="#191970" d="M289.158,-15.5C297.768,-15.5 306.4443,-15.5 314.7683,-15.5"/>
<polygon fill="#191970" stroke="#191970" points="289.1061,-12.0001 279.1061,-15.5 289.1061,-19.0001 289.1061,-12.0001"/>
</g>
<!-- Node10 -->
<g id="node4" class="node">
<title>Node10</title>
<g id="a_node4"><a xlink:href="../../da/d89/class_mavlink_receiver.html#a4e6d064186fe746bc3934959a991a908" target="_top" xlink:title="MavlinkReceiver::start\l_helper">
<polygon fill="#ffffff" stroke="#000000" points="464,-.5 464,-30.5 579,-30.5 579,-.5 464,-.5"/>
<text text-anchor="start" x="472" y="-18.5" font-family="Helvetica,sans-Serif" font-size="10.00" fill="#000000">MavlinkReceiver::start</text>
<text text-anchor="middle" x="521.5" y="-7.5" font-family="Helvetica,sans-Serif" font-size="10.00" fill="#000000">_helper</text>
</a>
</g>
</g>
<!-- Node9&#45;&gt;Node10 -->
<g id="edge3" class="edge">
<title>Node9&#45;&gt;Node10</title>
<path fill="none" stroke="#191970" d="M438.4079,-15.5C446.8497,-15.5 455.4299,-15.5 463.7139,-15.5"/>
<polygon fill="#191970" stroke="#191970" points="438.2086,-12.0001 428.2086,-15.5 438.2085,-19.0001 438.2086,-12.0001"/>
</g>
<!-- Node11 -->
<g id="node5" class="node">
<title>Node11</title>
<g id="a_node5"><a xlink:href="../../da/d89/class_mavlink_receiver.html#aae6564d759626eeebeb19a9dfbdcaf6d" target="_top" xlink:title="Start the receiver thread. ">
<polygon fill="#ffffff" stroke="#000000" points="615,-.5 615,-30.5 742,-30.5 742,-.5 615,-.5"/>
<text text-anchor="start" x="623" y="-18.5" font-family="Helvetica,sans-Serif" font-size="10.00" fill="#000000">MavlinkReceiver::receive</text>
<text text-anchor="middle" x="678.5" y="-7.5" font-family="Helvetica,sans-Serif" font-size="10.00" fill="#000000">_start</text>
</a>
</g>
</g>
<!-- Node10&#45;&gt;Node11 -->
<g id="edge4" class="edge">
<title>Node10&#45;&gt;Node11</title>
<path fill="none" stroke="#191970" d="M589.3019,-15.5C597.782,-15.5 606.4318,-15.5 614.8454,-15.5"/>
<polygon fill="#191970" stroke="#191970" points="589.0695,-12.0001 579.0695,-15.5 589.0695,-19.0001 589.0695,-12.0001"/>
</g>
<!-- Node12 -->
<g id="node6" class="node">
<title>Node12</title>
<g id="a_node6"><a xlink:href="../../df/d1f/class_mavlink.html#a2325401a575b272fc1474d502388241f" target="_top" xlink:title="Main mavlink task. ">
<polygon fill="#ffffff" stroke="#000000" points="778,-6 778,-25 879,-25 879,-6 778,-6"/>
<text text-anchor="middle" x="828.5" y="-13" font-family="Helvetica,sans-Serif" font-size="10.00" fill="#000000">Mavlink::task_main</text>
</a>
</g>
</g>
<!-- Node11&#45;&gt;Node12 -->
<g id="edge5" class="edge">
<title>Node11&#45;&gt;Node12</title>
<path fill="none" stroke="#191970" d="M752.2854,-15.5C760.9828,-15.5 769.702,-15.5 777.9749,-15.5"/>
<polygon fill="#191970" stroke="#191970" points="752.1135,-12.0001 742.1135,-15.5 752.1135,-19.0001 752.1135,-12.0001"/>
</g>
<!-- Node13 -->
<g id="node7" class="node">
<title>Node13</title>
<g id="a_node7"><a xlink:href="../../df/d1f/class_mavlink.html#aad2c17a259e6cfbfe20113c8da8f6cae" target="_top" xlink:title="Mavlink::start_helper">
<polygon fill="#ffffff" stroke="#000000" points="915,-6 915,-25 1022,-25 1022,-6 915,-6"/>
<text text-anchor="middle" x="968.5" y="-13" font-family="Helvetica,sans-Serif" font-size="10.00" fill="#000000">Mavlink::start_helper</text>
</a>
</g>
</g>
<!-- Node12&#45;&gt;Node13 -->
<g id="edge6" class="edge">
<title>Node12&#45;&gt;Node13</title>
<path fill="none" stroke="#191970" d="M889.2551,-15.5C897.7299,-15.5 906.3886,-15.5 914.7227,-15.5"/>
<polygon fill="#191970" stroke="#191970" points="889.0432,-12.0001 879.0432,-15.5 889.0432,-19.0001 889.0432,-12.0001"/>
</g>
<!-- Node14 -->
<g id="node8" class="node">
<title>Node14</title>
<g id="a_node8"><a xlink:href="../../df/d1f/class_mavlink.html#a3f96c3503833a477332c8584bb8fbc67" target="_top" xlink:title="Start the mavlink task. ">
<polygon fill="#ffffff" stroke="#000000" points="1058,-6 1058,-25 1134,-25 1134,-6 1058,-6"/>
<text text-anchor="middle" x="1096" y="-13" font-family="Helvetica,sans-Serif" font-size="10.00" fill="#000000">Mavlink::start</text>
</a>
</g>
</g>
<!-- Node13&#45;&gt;Node14 -->
<g id="edge7" class="edge">
<title>Node13&#45;&gt;Node14</title>
<path fill="none" stroke="#191970" d="M1032.3846,-15.5C1041.0906,-15.5 1049.7932,-15.5 1057.843,-15.5"/>
<polygon fill="#191970" stroke="#191970" points="1032.202,-12.0001 1022.2019,-15.5 1032.2019,-19.0001 1032.202,-12.0001"/>
</g>
<!-- Node15 -->
<g id="node9" class="node">
<title>Node15</title>
<g id="a_node9"><a xlink:href="../../de/d24/mavlink__main_8cpp.html#ab81e9b009119f143f3b54a1390b92427" target="_top" xlink:title="Mavlink app start / stop handling function. ">
<polygon fill="#ffffff" stroke="#000000" points="1170,-6 1170,-25 1247,-25 1247,-6 1170,-6"/>
<text text-anchor="middle" x="1208.5" y="-13" font-family="Helvetica,sans-Serif" font-size="10.00" fill="#000000">mavlink_main</text>
</a>
</g>
</g>
<!-- Node14&#45;&gt;Node15 -->
<g id="edge8" class="edge">
<title>Node14&#45;&gt;Node15</title>
<path fill="none" stroke="#191970" d="M1144.2672,-15.5C1152.7573,-15.5 1161.495,-15.5 1169.6854,-15.5"/>
<polygon fill="#191970" stroke="#191970" points="1144.0874,-12.0001 1134.0874,-15.5 1144.0873,-19.0001 1144.0874,-12.0001"/>
</g>
</g>
</svg>
